<?xml version="1.0" encoding="UTF-8"?>
<svg xmlns="http://www.w3.org/2000/svg" onmouseup="{ if(window.parent.document.onmouseup) window.parent.document.onmouseup(arguments[0]);}" xml:space="preserve" style="enable-background:new 0 0 512 512;" viewBox="0 0 512 512" y="0px" x="0px" id="Capa_1" version="1.1" xmlns:xlink="http://www.w3.org/1999/xlink"><rect data-cppathid="10000" height="497" width="350" style="fill:#E0F3FC;" y="7.5" x="81"/><rect data-cppathid="10001" height="497" width="30" style="fill:#ABBFCF;" y="7.5" x="401"/><rect data-cppathid="10002" height="52" width="350" style="fill:#E53366;" y="7.5" x="81"/><rect data-cppathid="10003" height="52" width="30" style="fill:#CE2960;" y="7.5" x="401"/><rect data-cppathid="10004" height="60.2" width="60.2" style="fill:#FAC55A;" y="107.34" x="162.48"/><path data-cppathid="10005" d="M93.13,435.842L139.836,376c2.336-2.994,3.45-6.762,3.117-10.545l4.49-48.404  c-0.132-1.492-0.476-2.952-1.027-4.344c-4.107-10.376-7.551-51.363-9.667-58.667c-0.863-2.978-9.38-7.013-12.667-5.667  c-7.987,3.271-15.028,14.764-14,23.333l-1.667,44.333c-10.667,18.667-27.644,7.163-27.414-0.322V192.464l-18.052,10.771L33.881,256  l-19.018,68.258c-0.293,0.708-0.376,1.485-0.24,2.239l16.292,90.345l-7,39.5l59.778,16.5L93.13,435.842z" style="fill:#FFC9BD;"/><path data-cppathid="10006" d="M147.443,317.052c-0.131-1.492-0.476-2.952-1.027-4.344c-4.107-10.376-7.551-51.363-9.667-58.667  c-0.76-2.623-7.452-6.06-11.285-5.925c-0.31,8.475-1.151,28.371,1.964,44.956c5.574,29.678-7.928,57.928-16.593,71.991  L64.13,424.904l-10.616,39.608l30.179,8.33l9.438-37L139.835,376c2.336-2.994,3.45-6.762,3.117-10.545L147.443,317.052z" style="fill:#FFB0A2;"/><path data-cppathid="10007" d="M418.87,435.842L372.164,376c-2.336-2.994-3.45-6.762-3.117-10.545l-4.49-48.404  c0.132-1.492,0.476-2.952,1.027-4.344c4.107-10.376,7.551-51.363,9.667-58.667c0.863-2.978,9.38-7.013,12.667-5.667  c7.987,3.271,15.028,14.764,14,23.333l1.667,44.333c10.667,18.667,27.644,7.163,27.414-0.322V192.464l18.052,10.771L478.119,256  l19.018,68.258c0.293,0.708,0.376,1.485,0.24,2.239l-16.292,90.345l7,39.5l-59.778,16.5L418.87,435.842z" style="fill:#FFC9BD;"/><path data-cppathid="10008" d="M497.137,324.258L478.119,256l-29.069-52.765l-18.052-10.771v32.455l16.174,29.36  c0.63,1.144,1.125,2.357,1.476,3.614l18.49,66.365c0.293,0.708,0.376,1.485,0.24,2.239l-15.723,87.19  c-0.376,2.083-0.341,4.22,0.104,6.29l9.396,43.798l26.929-7.433l-7-39.5l16.292-90.345  C497.513,325.743,497.43,324.966,497.137,324.258z" style="fill:#FFB0A2;"/><path data-cppathid="10009" d="M111.7,472.3v28.2c0,2.21-1.79,4-4,4H11.5c-2.61,0-4.52-2.45-3.88-4.98l12.39-48.9  c0.54-2.14,2.7-3.43,4.83-2.91l55.37,13.68l28.45,7.03C110.44,468.86,111.7,470.46,111.7,472.3z" style="fill:#5A6570;"/><path data-cppathid="10010" d="M111.7,472.3v28.2c0,2.21-1.79,4-4,4h-30c2.21,0,4-2.19,4-4.89v-34.44c0-1.51-0.58-2.88-1.49-3.78  l28.45,7.03C110.44,468.86,111.7,470.46,111.7,472.3z" style="fill:#4A535C;"/><path data-cppathid="10011" d="M403.345,468.416l83.811-20.702c2.136-0.528,4.297,0.769,4.837,2.901l12.383,48.903  c0.64,2.528-1.27,4.982-3.878,4.982h-96.194c-2.209,0-4-1.791-4-4v-28.201C400.304,470.459,401.559,468.857,403.345,468.416z" style="fill:#5A6570;"/><path data-cppathid="10012" d="M504.375,499.518l-12.383-48.903c-0.54-2.133-2.701-3.429-4.837-2.901l-24.374,6.02l11.593,45.784  c0.64,2.528-1.27,4.982-3.877,4.982h30C503.105,504.5,505.016,502.046,504.375,499.518z" style="fill:#4A535C;"/><path data-cppathid="10013" d="M222.676,175.04c4.143,0,7.5-3.357,7.5-7.5v-60.197c0-4.143-3.357-7.5-7.5-7.5H162.48c-4.143,0-7.5,3.357-7.5,7.5v60.197  c0,4.143,3.357,7.5,7.5,7.5H222.676z M169.98,114.843h45.197v45.197H169.98V114.843z"/><path data-cppathid="10014" d="M125.504,202.494c0,4.143,3.357,7.5,7.5,7.5h245.995c4.143,0,7.5-3.357,7.5-7.5s-3.357-7.5-7.5-7.5H133.004  C128.861,194.994,125.504,198.352,125.504,202.494z"/><path data-cppathid="10015" d="M133.004,241.052h245.995c4.143,0,7.5-3.357,7.5-7.5s-3.357-7.5-7.5-7.5H133.004c-4.143,0-7.5,3.357-7.5,7.5  S128.861,241.052,133.004,241.052z"/><path data-cppathid="10016" d="M241.667,416.294H133.004c-4.143,0-7.5,3.357-7.5,7.5s3.357,7.5,7.5,7.5h108.664c4.143,0,7.5-3.357,7.5-7.5  S245.81,416.294,241.667,416.294z"/><path data-cppathid="10017" d="M241.667,446.5H133.004c-4.143,0-7.5,3.357-7.5,7.5s3.357,7.5,7.5,7.5h108.664c4.143,0,7.5-3.357,7.5-7.5  S245.81,446.5,241.667,446.5z"/><circle data-cppathid="10018" r="7.5" cy="481.01" cx="39.585"/><path data-cppathid="10019" d="M500.495,512c3.572,0,6.88-1.617,9.075-4.436c2.194-2.819,2.95-6.423,2.073-9.887l-12.383-48.903  c-0.873-3.447-3.239-6.138-6.234-7.56l-4.321-24.364l2.315-12.842c0.735-4.076-1.974-7.977-6.05-8.712  c-4.078-0.737-7.977,1.974-8.712,6.05l-2.554,14.162c-0.157,0.873-0.159,1.768-0.004,2.641l4.275,24.105l-46.784,11.556  l-5.059-19.825c-0.257-1.004-0.718-1.943-1.355-2.761l-46.705-59.835c-1.173-1.505-1.726-3.373-1.557-5.258  c0.041-0.454,0.04-0.911-0.002-1.364l-4.417-47.628c0.091-0.578,0.242-1.138,0.453-1.668c2.634-6.651,4.587-20.814,7.059-40.097  c0.891-6.949,1.886-14.711,2.571-18.094c0.963-0.651,2.612-1.38,3.66-1.606c4.662,2.511,9.209,10.315,8.629,15.14  c-0.047,0.391-0.063,0.783-0.049,1.176l1.66,44.33c0.046,1.21,0.383,2.391,0.983,3.441c6.343,11.097,16.269,15.99,26.545,13.088  c8.154-2.301,14.452-9.314,14.852-16.292c0.021-0.227,0.035-0.456,0.035-0.688v-0.236V205.675l4.961,2.963l27.669,50.217  l18.715,67.168l-7.811,43.324c-0.735,4.076,1.974,7.977,6.05,8.712c4.069,0.732,7.976-1.973,8.712-6.05l7.977-44.245  c0.336-1.964,0.164-3.968-0.495-5.829l-18.932-67.947c-0.155-0.56-0.376-1.099-0.655-1.606l-29.07-52.76  c-0.643-1.165-1.582-2.138-2.724-2.82l-14.395-8.598L438.498,7.5c0-0.007,0,0.007,0,0l0,0c0-4.143-3.357-7.5-7.5-7.5h-0.001H81.003  h-0.001c-4.143,0-7.5,3.357-7.5,7.5v68.125c0,4.143,3.357,7.5,7.5,7.5s7.5-3.357,7.5-7.5V67h295.621c4.143,0,7.5-3.357,7.5-7.5  s-3.357-7.5-7.5-7.5H88.503V15h334.994v37h-7.375c-4.143,0-7.5,3.357-7.5,7.5s3.357,7.5,7.5,7.5h7.375v248.547l0,0  c-0.436,0.909-2.44,2.819-5.047,3.073c-3.114,0.312-5.679-2.196-7.452-4.833l-1.566-41.837c1.016-11.645-7.73-26.043-18.685-30.526  c-4.941-2.011-10.743,0.145-13.762,1.607c-3.377,1.638-7.669,4.516-8.942,8.926c-0.352,1.218-0.696,2.913-1.064,5.153H145.021  c-0.369-2.24-0.712-3.934-1.063-5.15c-1.274-4.413-5.566-7.291-8.943-8.929c-3.019-1.463-8.822-3.618-13.773-1.603  c-10.944,4.479-19.689,18.877-18.674,30.521l-1.566,41.837c-1.772,2.636-4.327,5.151-7.452,4.833  c-2.606-0.254-4.611-2.164-5.047-3.073V108l0,0c0-4.143-3.357-7.5-7.5-7.5s-7.5,3.357-7.5,7.5v80.203l-14.395,8.598  c-1.142,0.683-2.081,1.655-2.724,2.82l-29.07,52.76c-0.279,0.508-0.5,1.047-0.655,1.606L7.726,321.935  c-0.659,1.862-0.83,3.871-0.483,5.896l16.052,89.02l-4.321,24.364c-2.994,1.422-5.361,4.113-6.234,7.56L0.357,497.679  c-0.877,3.463-0.121,7.066,2.073,9.886C4.626,510.383,7.933,512,11.505,512H500.495 M411.989,439.217l4.641,18.191l-15.084,3.726  c-5.148,1.271-8.745,5.861-8.745,11.165V497H119.198v-24.701c0-5.304-3.597-9.895-8.745-11.165l-15.084-3.726l4.641-18.191  l45.746-58.606c3.364-4.317,5.025-9.643,4.719-15.07l4.434-47.798c0.042-0.448,0.043-0.899,0.004-1.349  c-0.195-2.223-0.706-4.391-1.519-6.445c-0.571-1.441-1.159-3.827-1.746-6.778h208.701c-0.586,2.952-1.175,5.339-1.746,6.781  c-0.813,2.052-1.323,4.22-1.519,6.442c-0.039,0.449-0.038,0.9,0.004,1.349l4.434,47.798c-0.307,5.428,1.355,10.753,4.723,15.075  L411.989,439.217z M364.908,272.11c-0.058,0.449-0.115,0.893-0.174,1.357c-0.564,4.396-1.23,9.589-1.951,14.702H149.217  c-0.721-5.113-1.387-10.307-1.951-14.702c-0.06-0.465-0.117-0.908-0.174-1.357H364.908z M22.158,326.023l18.716-67.169  l27.669-50.217l4.961-2.963v109.959v0.236c0,0.232,0.014,0.461,0.035,0.688c0.4,6.978,6.697,13.991,14.852,16.292  c10.273,2.897,20.203-1.992,26.545-13.088c0.601-1.051,0.937-2.231,0.983-3.441l1.66-44.33c0.015-0.393-0.002-0.785-0.049-1.176  c-0.58-4.827,3.973-12.639,8.627-15.14c1.048,0.226,2.699,0.954,3.663,1.606c0.684,3.38,1.68,11.144,2.57,18.094  c2.473,19.282,4.426,33.445,7.059,40.094c0.21,0.533,0.362,1.093,0.453,1.671l-4.417,47.628c-0.042,0.453-0.043,0.91-0.002,1.364  c0.169,1.885-0.384,3.753-1.553,5.253l-46.709,59.84c-0.638,0.817-1.099,1.757-1.355,2.761l-5.059,19.825l-46.784-11.556  l4.275-24.105c0.155-0.873,0.153-1.768-0.004-2.641L22.158,326.023z M81.002,497H16.001l10.425-41.171l57.9,14.302  c0.018,0.004,0.034,0.012,0.052,0.016c0.019,0.005,0.038,0.006,0.057,0.011l19.763,4.882V497H81.002z M407.802,497L407.802,497  v-21.96l0,0c0.019-0.005,0,0,0.019-0.005c0.018-0.004,0,0,0.018-0.004l77.736-19.202L495.999,497H407.802z"/><circle data-cppathid="10020" r="7.5" cy="481.01" cx="472.42"/><g/><g/><g/><g/><g/><g/><g/><g/><g/><g/><g/><g/><g/><g/><g/></svg>