<?xml version="1.0" encoding="UTF-8"?>
<svg xmlns="http://www.w3.org/2000/svg" onmouseup="{ if(window.parent.document.onmouseup) window.parent.document.onmouseup(arguments[0]);}" width="512" viewBox="0 0 96 96" height="512" enable-background="new 0 0 96 96" id="Layer_1"><path data-cppathid="10000" fill="#dd8c36" d="m70.3 31.2h8.9v21.7h-8.9z"/><path data-cppathid="10001" fill="#dd8c36" d="m18.1 47-9.3 44.7c-.3 1.5-1.6 2.6-3.2 2.6-1.8 0-3.3-1.5-3.3-3.3v-59.8h8.9z"/><path data-cppathid="10002" fill="#ccd1dc" d="m11.2 1.7h59.1v74.9h-59.1z"/><path data-cppathid="10003" fill="#dee1e7" d="m14.1 1.7h56.2v74.9h-56.2z"/><path data-cppathid="10004" fill="#e69c4b" d="m93.7 52.9-8 38.2-.1.6c-.3 1.5-1.6 2.6-3.2 2.6h-76.8c1.5 0 2.8-1.1 3.2-2.5l9.3-44.8h19.7c1.6 0 3 1.4 3 3 0 1.7 1.3 3 3 3z"/><path data-cppathid="10005" fill="#edab63" d="m92.7 55.9-6.5 31.2c-1.4 2.5-4 4.1-6.9 4.1h-54.4c-5.4 0-9.9-4.4-9.9-9.9 0-.7.1-1.3.2-2l6.2-29.3h14.4c1.6 0 3 1.4 3 3s1.3 2.9 2.9 2.9h.1z"/><path data-cppathid="10006" fill="#edab63" d="m90.1 52.9-.6 3h-11.1l.6-3z"/><path data-cppathid="10007" fill="#f6bc7a" d="m89.5 55.9-6 29c-.8 3.7-4 6.3-7.7 6.3h-11.2c3.7 0 7-2.6 7.7-6.3l6-29z"/><path data-cppathid="10008" fill="#f3f4f5" d="m43.7 4.7h20.7c1.6 0 3 1.3 3 3v38.3c0 1.6-1.3 3-3 3h-20.7c-1.6 0-3-1.3-3-3v-38.4c0-1.6 1.4-2.9 3-2.9z"/><ellipse data-cppathid="10009" ry="12.8" rx="12.8" fill="#f6b756" cy="19.5" cx="40.7"/><ellipse data-cppathid="10010" ry="10.3" rx="10.2" fill="#fac77d" cy="19.5" cx="40.7"/><path data-cppathid="10011" fill="#7190c4" d="m45 15.2v1.7c0 2.4-1.9 4.3-4.3 4.3s-4.3-1.9-4.3-4.3v-1.7c0-.1 0-.3 0-.4.2-2.2 2-3.8 4.2-3.8s4.1 1.6 4.3 3.8c.1-.1.1.2.1.4z"/><path data-cppathid="10012" fill="#89a3ce" d="m45 14.7c-.3 2.3-2.4 4-4.7 3.8-2-.2-3.6-1.8-3.8-3.8.2-2.2 2-3.8 4.2-3.8s4.1 1.7 4.3 3.8z"/><path data-cppathid="10013" fill="#7190c4" d="m48.6 29.5c-4.6 3.7-11.2 3.7-15.8 0l.5-2.2.1-.4c.9-4 4.9-6.6 9-5.7 2.8.6 5 2.8 5.7 5.7l.1.4z"/><path data-cppathid="10014" fill="#89a3ce" d="m48.1 27.4c-4.4 3.2-10.4 3.2-14.8 0l.1-.4c.9-4 4.9-6.6 9-5.7 2.8.6 5 2.8 5.7 5.7z"/><path data-cppathid="10015" fill="#39426a" d="m54.5 19.4c.2-7.6-5.8-14-13.4-14.2s-14 5.8-14.2 13.4v.7c0 7.6 6.2 13.6 13.8 13.7 10.5.1 13.9-9.3 13.8-13.6zm-25.6 0c0-6.5 5.3-11.8 11.8-11.9s11.8 5.3 11.9 11.8c0 3.1-1.2 6.1-3.3 8.3l-.3-.9c-.6-2.6-2.4-4.8-4.9-5.9 1.2-1 1.9-2.5 1.9-4v-1.7c.1-2.9-2.1-5.4-5-5.5s-5.4 2.1-5.5 5v.5 1.7c0 1.5.7 3 1.9 4-2.5 1.1-4.3 3.3-4.9 5.9l-.2.9c-2.2-2.1-3.4-5.1-3.4-8.2zm8.5-2.5v-1.7c-.1-1.8 1.3-3.4 3.1-3.5s3.4 1.3 3.5 3.1v.4 1.7c-.1 1.8-1.7 3.2-3.5 3.1-1.6-.1-3-1.5-3.1-3.1zm-3.5 12.2.5-1.9c.8-3.5 4.3-5.7 7.8-4.9 2.4.6 4.3 2.5 4.9 4.9l.4 1.9c-1.3 1.3-4.5 2.1-6.8 2.1-1.9-.1-5.8-1.2-6.8-2.1z"/><path data-cppathid="10016" fill="#39426a" d="m5.6 95.3c-2.3 0-4.2-1.9-4.2-4.2v-44.1c0-.6.4-1 1-1s1 .4 1 1v44c0 1.3 1 2.3 2.3 2.3 1.1 0 2-.8 2.2-1.8l9.3-44.7c.1-.5.6-.9 1.2-.8.5.1.8.7.7 1.2l-9.4 44.7c-.4 2-2.1 3.4-4.1 3.4z"/><path data-cppathid="10017" fill="#878c9f" d="m61.4 43.1h-41.4c-.6 0-1-.4-1-1s.4-1 1-1h41.4c.6 0 1 .4 1 1s-.4 1-1 1z"/><path data-cppathid="10018" fill="#878c9f" d="m61.4 38.2h-41.4c-.6 0-1-.4-1-1s.4-1 1-1h41.4c.6 0 1 .4 1 1s-.4 1-1 1z"/><path data-cppathid="10019" fill="#39426a" d="m94.5 52.3c-.2-.2-.5-.4-.8-.4h-13.5v-20.7c0-.6-.4-1-1-1h-7.9v-28.5c0-.6-.4-1-1-1h-59.1c-.6 0-1 .4-1 1v28.6h-7.9c-.6 0-1 .4-1 1v59.8c0 .6.4 1 1 1s1-.4 1-1v-58.9h6.9v47.8l-2.4 11.6c-.1.5.2 1 .8 1.2.5.1 1-.2 1.2-.7l9.1-44h18.9c1.1 0 2 .9 2 2 0 2.2 1.8 3.9 3.9 3.9h48.8l-7.8 37.6c-.2 1-1.2 1.8-2.2 1.8h-77.2c-.6 0-1 .4-1 1s.4 1 1 1h77.2c2 0 3.7-1.4 4.2-3.4l8.1-38.8c-.1-.3-.1-.7-.3-.9zm-16.3-20.1v19.7h-6.9v-19.7zm-36.5 17.8c0-2.2-1.8-4-3.9-4h-19.7c-.5 0-.9.3-1 .8l-4.9 23.8v-67.9h57.1v49.3h-25.6c-1.1-.1-1.9-.9-2-2z"/></svg>