<?xml version="1.0" encoding="UTF-8"?>
<svg xmlns="http://www.w3.org/2000/svg" onmouseup="{ if(window.parent.document.onmouseup) window.parent.document.onmouseup(arguments[0]);}" height="512" width="512" xml:space="preserve" enable-background="new 0 0 100 100" viewBox="0 0 100 100" y="0px" x="0px" id="Layer_1" version="1.1" xmlns:xlink="http://www.w3.org/1999/xlink"><g><circle data-cppathid="10000" r="48" cy="50" cx="50" fill="#EFC84A"/><path data-cppathid="10001" d="M70.960022,22.4991226H29.039978c-3.4499512,0-6.25,2.7900391-6.25,6.2199707v48.7800293   l19.9546509,19.954834C45.1109009,97.8125992,47.5335693,97.9999771,50,97.9999771c26.5097046,0,48-21.4903564,48-48   c0-1.059082-0.0464478-2.1068115-0.1140137-3.1488037L75.6199951,24.5792007   C74.4799805,23.2991714,72.8099976,22.4991226,70.960022,22.4991226z" opacity="0.1"/><g><path data-cppathid="10002" d="M29.0392799,22.4999981c-3.4517136,0-6.2498741,2.7865944-6.2498741,6.224041V77.5l3.0360584-3.0374985    l2.9876003,2.9890671l2.9877739-2.9890671l2.9876862,2.9890671l2.98769-2.9890671l2.9876022,2.9890671l2.9877739-2.9890671    l2.9877701,2.9890671l2.9876022-2.9890671l2.9876022,2.9890671l2.9877739-2.9890671l2.9877739,2.9890671l2.9876022-2.9890671    L64.713768,77.5V41.9586678l6.2484131-19.4586697H29.0392799z" fill="#FFFFFF"/><path data-cppathid="10003" d="M70.9621811,22.4999981L70.9621811,22.4999981c-3.4508514,0-6.2484131,2.7859097-6.2484131,6.2225437    v13.2361259h12.4968262V28.7225418C77.2105942,25.2859077,74.4130402,22.4999981,70.9621811,22.4999981z" fill="#E1E6E9"/><rect data-cppathid="10004" height="2.3474178" width="12.2529583" fill="#27A2DB" y="29.1536446" x="26.4124928"/><rect data-cppathid="10005" height="2.3474178" width="17.5096264" fill="#EBF0F3" y="36.1920471" x="26.4124928"/><rect data-cppathid="10006" height="2.3474178" width="17.5096264" fill="#EBF0F3" y="43.2304497" x="26.4124928"/><rect data-cppathid="10007" height="2.3474178" width="22.3774986" fill="#EBF0F3" y="50.2688522" x="26.4124928"/><rect data-cppathid="10008" height="2.3474178" width="13.9265375" fill="#EBF0F3" y="57.3072548" x="26.4124928"/><rect data-cppathid="10009" height="2.3474178" width="17.5096264" fill="#EBF0F3" y="64.3456573" x="26.4124928"/><rect data-cppathid="10010" height="2.3474178" width="5.1625681" fill="#EBF0F3" y="43.2304497" x="55.7661133"/><rect data-cppathid="10011" height="2.3474178" width="5.1625681" fill="#EBF0F3" y="50.2688522" x="55.7661133"/><rect data-cppathid="10012" height="2.3474178" width="5.1625681" fill="#EBF0F3" y="57.3072548" x="55.7661133"/><rect data-cppathid="10013" height="2.3474178" width="5.1625681" fill="#EBF0F3" y="64.3456573" x="55.7661133"/></g></g></svg>