<?xml version="1.0" encoding="UTF-8"?>
<svg xmlns="http://www.w3.org/2000/svg" onmouseup="{ if(window.parent.document.onmouseup) window.parent.document.onmouseup(arguments[0]);}" width="512" viewBox="0 0 24 24" height="512" enable-background="new 0 0 24 24" id="Layer_1"><g><g fill="#303754"><circle data-cppathid="10000" r=".5" cy="3.5" cx="7.5"/><circle data-cppathid="10001" r=".5" cy="3.5" cx="5.5"/><path data-cppathid="10002" d="m19.87 9h-2.87v-6.46c0-.85-.69-1.54-1.54-1.54h-10.92c-.85 0-1.54.69-1.54 1.54v18.92c0 .85.69 1.54 1.54 1.54h10.92c.85 0 1.54-.69 1.54-1.54v-3.46h2.87c.62 0 1.13-.51 1.13-1.13v-6.74c0-.62-.51-1.13-1.13-1.13zm-4.41-7c.3 0 .54.24.54.54v1.46h-4.12c-.61 0-1.15-.39-1.35-.96l-.35-1.04zm.54 19.46c0 .3-.24.54-.54.54h-10.92c-.3 0-.54-.24-.54-.54v-18.92c0-.3.24-.54.54-.54h4.58l.46 1.36c.34.98 1.26 1.64 2.3 1.64h4.12v4h-7.87c-.62 0-1.13.51-1.13 1.13v6.74c0 .62.51 1.13 1.13 1.13h7.87zm4-4.59c0 .07-.06.13-.13.13h-11.74c-.07 0-.13-.06-.13-.13v-6.74c0-.07.06-.13.13-.13h11.74c.07 0 .13.06.13.13z"/></g><path data-cppathid="10003" fill="#fff" d="m19.87 10h-11.74c-.07 0-.13.06-.13.13v6.74c0 .07.06.13.13.13h11.74c.07 0 .13-.06.13-.13v-6.74c0-.07-.06-.13-.13-.13zm-9.37 5c.28 0 .5.22.5.5s-.22.5-.5.5h-1c-.28 0-.5-.22-.5-.5v-4c0-.28.22-.5.5-.5h1c.28 0 .5.22.5.5s-.22.5-.5.5h-.5v3zm3.5 0c-.83 0-1.5-.67-1.5-1.5s.67-1.5 1.5-1.5 1.5.67 1.5 1.5-.67 1.5-1.5 1.5zm5 .5c0 .28-.22.5-.5.5h-1c-.28 0-.5-.22-.5-.5s.22-.5.5-.5h.5v-3h-.5c-.28 0-.5-.22-.5-.5s.22-.5.5-.5h1c.28 0 .5.22.5.5z"/><path data-cppathid="10004" fill="#fff" d="m8.13 9h7.87v-4h-4.12c-1.04 0-1.96-.66-2.3-1.64l-.46-1.36h-4.58c-.3 0-.54.24-.54.54v18.92c0 .3.24.54.54.54h10.92c.3 0 .54-.24.54-.54v-3.46h-7.87c-.62 0-1.13-.51-1.13-1.13v-6.74c0-.62.51-1.13 1.13-1.13zm-.63-6c.28 0 .5.22.5.5s-.22.5-.5.5-.5-.22-.5-.5.22-.5.5-.5zm-2 1c-.28 0-.5-.22-.5-.5s.22-.5.5-.5.5.22.5.5-.22.5-.5.5z"/><path data-cppathid="10005" fill="#2c98f6" d="m16 2.54v1.46h-4.12c-.61 0-1.15-.39-1.35-.96l-.35-1.04h5.28c.3 0 .54.24.54.54z"/><path data-cppathid="10006" fill="#303754" d="m11 15.5c0 .28-.22.5-.5.5h-1c-.28 0-.5-.22-.5-.5v-4c0-.28.22-.5.5-.5h1c.28 0 .5.22.5.5s-.22.5-.5.5h-.5v3h.5c.28 0 .5.22.5.5z"/><path data-cppathid="10007" fill="#303754" d="m19 11.5v4c0 .28-.22.5-.5.5h-1c-.28 0-.5-.22-.5-.5s.22-.5.5-.5h.5v-3h-.5c-.28 0-.5-.22-.5-.5s.22-.5.5-.5h1c.28 0 .5.22.5.5z"/><path data-cppathid="10008" fill="#303754" d="m14 12c-.83 0-1.5.67-1.5 1.5s.67 1.5 1.5 1.5 1.5-.67 1.5-1.5-.67-1.5-1.5-1.5zm0 2c-.28 0-.5-.22-.5-.5s.22-.5.5-.5.5.22.5.5-.22.5-.5.5z"/><circle data-cppathid="10009" r=".5" fill="#2c98f6" cy="13.5" cx="14"/></g></svg>