<?xml version="1.0" encoding="UTF-8"?>
<svg xmlns="http://www.w3.org/2000/svg" onmouseup="{ if(window.parent.document.onmouseup) window.parent.document.onmouseup(arguments[0]);}" xml:space="preserve" style="enable-background:new 0 0 512.16 512.16;" viewBox="0 0 512.16 512.16" y="0px" x="0px" id="Layer_1" version="1.1" xmlns:xlink="http://www.w3.org/1999/xlink"><g transform="translate(1 1)"><path data-cppathid="10000" d="M479.427,130.493l-28.16-2.56v225.28c0,14.507-11.093,25.6-25.6,25.6H33.133H32.28l-0.853,4.267   c-1.707,13.653,8.533,26.453,23.04,28.16l394.24,44.373c13.653,1.707,26.453-8.533,28.16-23.04l25.6-273.92   C504.173,145,493.933,132.2,479.427,130.493" style="fill:#FCC309;"/><path data-cppathid="10001" d="M448.707,456.467c13.653,1.707,26.453-8.533,28.16-23.04l25.6-273.92   c1.707-13.653-8.533-26.453-23.04-28.16h-5.12c7.68,5.12,11.947,14.507,11.093,23.893l-25.6,273.92   c-1.707,13.653-14.507,23.893-28.16,23.04L448.707,456.467z" style="fill:#FD9808;"/><path data-cppathid="10002" d="M425.667,378.813H33.133c-14.507,0-25.6-11.093-25.6-25.6V80.147c0-14.507,11.093-25.6,25.6-25.6   h392.533c14.507,0,25.6,11.093,25.6,25.6v273.067C451.267,367.72,440.173,378.813,425.667,378.813" style="fill:#FFDD09;"/><polygon data-cppathid="10003" points="7.533,165.48 451.267,165.48 451.267,97.213 7.533,97.213  " style="fill:#FCC309;"/><path data-cppathid="10004" d="M425.667,54.547h-25.6c14.507,0,25.6,11.093,25.6,25.6v273.067c0,14.507-11.093,25.6-25.6,25.6h25.6   c14.507,0,25.6-11.093,25.6-25.6V80.147C451.267,65.64,440.173,54.547,425.667,54.547" style="fill:#FD9808;"/><path data-cppathid="10005" d="M33.133,54.547h25.6c-14.507,0-25.6,11.093-25.6,25.6v273.067c0,14.507,11.093,25.6,25.6,25.6h-25.6   c-14.507,0-25.6-11.093-25.6-25.6V80.147C7.533,65.64,18.627,54.547,33.133,54.547" style="fill:#FFFFFF;"/><polygon data-cppathid="10006" points="272.067,327.613 408.6,327.613 408.6,250.813 272.067,250.813  " style="fill:#54C9FD;"/><polygon data-cppathid="10007" points="408.6,327.613 408.6,250.813 383,250.813 383,327.613  " style="fill:#33A9F8;"/><path data-cppathid="10008" d="M425.667,387.347H33.133C14.36,387.347-1,371.987-1,353.213V80.147c0-18.773,15.36-34.133,34.133-34.133h392.533   c18.773,0,34.133,15.36,34.133,34.133v273.067C459.8,371.987,444.44,387.347,425.667,387.347z M33.133,63.08   c-9.387,0-17.067,7.68-17.067,17.067v273.067c0,9.387,7.68,17.067,17.067,17.067h392.533c9.387,0,17.067-7.68,17.067-17.067V80.147   c0-9.387-7.68-17.067-17.067-17.067H33.133z"/><path data-cppathid="10009" d="M451.267,174.013H7.533C2.413,174.013-1,170.6-1,165.48V97.213c0-5.12,3.413-8.533,8.533-8.533h443.733   c5.12,0,8.533,3.413,8.533,8.533v68.267C459.8,170.6,456.387,174.013,451.267,174.013z M16.067,156.947h426.667v-51.2H16.067   V156.947z"/><path data-cppathid="10010" d="M408.6,336.147H272.067c-5.12,0-8.533-3.413-8.533-8.533v-76.8c0-5.12,3.413-8.533,8.533-8.533H408.6   c5.12,0,8.533,3.413,8.533,8.533v76.8C417.133,332.733,413.72,336.147,408.6,336.147z M280.6,319.08h119.467v-59.733H280.6V319.08z   "/><path data-cppathid="10011" d="M109.933,225.213H41.667c-5.12,0-8.533-3.413-8.533-8.533c0-5.12,3.413-8.533,8.533-8.533h68.267   c5.12,0,8.533,3.413,8.533,8.533C118.467,221.8,115.053,225.213,109.933,225.213z"/><path data-cppathid="10012" d="M212.333,225.213h-68.267c-5.12,0-8.533-3.413-8.533-8.533c0-5.12,3.413-8.533,8.533-8.533h68.267   c5.12,0,8.533,3.413,8.533,8.533C220.867,221.8,217.453,225.213,212.333,225.213z"/><path data-cppathid="10013" d="M152.6,259.347H41.667c-5.12,0-8.533-3.413-8.533-8.533c0-5.12,3.413-8.533,8.533-8.533H152.6   c5.12,0,8.533,3.413,8.533,8.533C161.133,255.933,157.72,259.347,152.6,259.347z"/><path data-cppathid="10014" d="M212.333,259.347h-25.6c-5.12,0-8.533-3.413-8.533-8.533c0-5.12,3.413-8.533,8.533-8.533h25.6   c5.12,0,8.533,3.413,8.533,8.533C220.867,255.933,217.453,259.347,212.333,259.347z"/><path data-cppathid="10015" d="M451.267,464.147c-0.853,0-2.56,0-3.413,0l-394.24-44.373C34.84,418.067,21.187,401,23.747,382.227l0.853-4.267   c0-4.267,3.413-7.68,7.68-7.68c0,0,0.853,0,1.707,0h391.68c9.387,0,17.067-7.68,17.067-17.067v-225.28   c0-2.56,0.853-5.12,2.56-5.973c1.707-1.707,4.267-2.56,6.827-1.707l28.16,3.413c9.387,0.853,17.067,5.12,23.04,12.8   c5.973,6.827,8.533,16.213,7.68,24.747l-25.6,273.92C483.693,451.347,468.333,464.147,451.267,464.147z M40.813,387.347   c0.853,7.68,6.827,14.507,15.36,15.36L449.56,447.08c9.387,0.853,17.92-5.973,18.773-15.36l25.6-273.92   c0.853-4.267-0.853-9.387-3.413-12.8s-6.827-5.973-11.093-5.973l0,0L459.8,137.32v215.893c0,18.773-15.36,34.133-34.133,34.133   H40.813z"/></g><g/><g/><g/><g/><g/><g/><g/><g/><g/><g/><g/><g/><g/><g/><g/></svg>