<?xml version="1.0" encoding="UTF-8"?>
<svg xmlns="http://www.w3.org/2000/svg" onmouseup="{ if(window.parent.document.onmouseup) window.parent.document.onmouseup(arguments[0]);}" data-name="Layer 1" width="512" viewBox="0 0 64 64" height="512" id="Layer_1"><rect data-cppathid="10000" y="3" x="16" width="32" rx="3" height="58" fill="#7cb2f8"/><path data-cppathid="10001" fill="#e6eef3" d="m19 3h26a3 3 0 0 1 3 3v3a0 0 0 0 1 0 0h-32a0 0 0 0 1 0 0v-3a3 3 0 0 1 3-3z"/><path data-cppathid="10002" fill="#e6eef3" d="m16 55h32a0 0 0 0 1 0 0v3a3 3 0 0 1 -3 3h-26a3 3 0 0 1 -3-3v-3a0 0 0 0 1 0 0z"/><g fill="#65788f"><path data-cppathid="10003" d="m23 45v5h20v-15h-20v5"/><path data-cppathid="10004" d="m21 40h8v5h-8z"/><path data-cppathid="10005" d="m27 35 1-5 15 5"/></g><path data-cppathid="10006" d="m31 5h6v2h-6z"/><path data-cppathid="10007" d="m27 5h2v2h-2z"/><path data-cppathid="10008" d="m29 57h6v2h-6z"/><path data-cppathid="10009" d="m21 46h1v4a1 1 0 0 0 1 1h20a1 1 0 0 0 1-1v-15a1 1 0 0 0 -.69-.94l-15-5a1 1 0 0 0 -1.3.75l-.83 4.19h-3.18a1 1 0 0 0 -1 1v4h-1a1 1 0 0 0 -1 1v5a1 1 0 0 0 1 1zm7.76-14.69 8.08 2.69h-8.62zm-4.76 4.69h18v13h-18v-3h5a1 1 0 0 0 1-1v-5a1 1 0 0 0 -1-1h-5zm-2 5h6v3h-6z"/><path data-cppathid="10010" d="m38 45h2v2h-2z"/><path data-cppathid="10011" d="m28.49 22.24 1.3 1.52a3.07 3.07 0 0 1 3.9 0l1.31-1.52a5.12 5.12 0 0 0 -6.51 0z"/><path data-cppathid="10012" d="m37.85 19.44a9 9 0 0 0 -12.22 0l1.37 1.46a7 7 0 0 1 9.5 0z"/><path data-cppathid="10013" d="m31.74 15a10.9 10.9 0 0 1 7.57 3l1.38-1.44a13 13 0 0 0 -17.9 0l1.38 1.44a10.9 10.9 0 0 1 7.57-3z"/><path data-cppathid="10014" d="m45 2h-26a4 4 0 0 0 -4 4v52a4 4 0 0 0 4 4h26a4 4 0 0 0 4-4v-52a4 4 0 0 0 -4-4zm-26 2h26a2 2 0 0 1 2 2v2h-30v-2a2 2 0 0 1 2-2zm28 6v44h-30v-44zm-2 50h-26a2 2 0 0 1 -2-2v-2h30v2a2 2 0 0 1 -2 2z"/></svg>