<?xml version="1.0" encoding="UTF-8"?>
<svg xmlns="http://www.w3.org/2000/svg" onmouseup="{ if(window.parent.document.onmouseup) window.parent.document.onmouseup(arguments[0]);}" xml:space="preserve" style="enable-background:new 0 0 512 512;" viewBox="0 0 512 512" y="0px" x="0px" id="Capa_1" version="1.1" xmlns:xlink="http://www.w3.org/1999/xlink"><path data-cppathid="10000" d="M499.483,376.276H12.517c-2.761,0-5-2.239-5-5V140.724c0-2.761,2.239-5,5-5h486.966  c2.761,0,5,2.239,5,5v230.552C504.483,374.038,502.244,376.276,499.483,376.276z" style="fill:#DFE5EA;"/><path data-cppathid="10001" d="M504.483,140.735v230.529c0,2.766-2.245,5.012-5.012,5.012h-33.076c2.766,0,5.012-2.245,5.012-5.012  V140.735c0-2.766-2.245-5.012-5.012-5.012h33.076C502.238,135.724,504.483,137.969,504.483,140.735z" style="fill:#CBD0D3;"/><path data-cppathid="10002" d="M73.407,376.276h-60.89c-2.761,0-5-2.239-5-5V140.724c0-2.761,2.239-5,5-5h60.89V376.276z" style="fill:#6BB8E1;"/><rect data-cppathid="10003" height="240.55" width="24.05" style="fill:#4BA1C6;" y="135.72" x="49.35"/><path data-cppathid="10004" d="M499.471,128.207H330.307c-4.152,0-7.517,3.366-7.517,7.517c0,4.152,3.365,7.517,7.517,7.517h166.658v225.518H80.924  v-34.245c0-4.152-3.366-7.517-7.517-7.517s-7.517,3.366-7.517,7.517v34.245H15.035V143.241H65.89v137.148  c0,4.152,3.366,7.517,7.517,7.517s7.517-3.366,7.517-7.517V143.241h197.46c4.152,0,7.517-3.366,7.517-7.517  c0-4.152-3.365-7.517-7.517-7.517H12.529C5.62,128.207,0,133.827,0,140.735v230.529c0,6.908,5.62,12.529,12.529,12.529l0,0h486.942  c6.908,0,12.529-5.62,12.529-12.529V140.735C512,133.827,506.38,128.207,499.471,128.207z"/><path data-cppathid="10005" d="M109.242,178.322h43.433c4.152,0,7.517-3.366,7.517-7.517s-3.366-7.517-7.517-7.517h-43.433  c-4.152,0-7.517,3.366-7.517,7.517S105.09,178.322,109.242,178.322z"/><path data-cppathid="10006" d="M109.242,202.377h78.18c4.152,0,7.517-3.366,7.517-7.517c0-4.152-3.366-7.517-7.517-7.517h-78.18  c-4.152,0-7.517,3.366-7.517,7.517S105.09,202.377,109.242,202.377z"/><path data-cppathid="10007" d="M456.506,269.661H193.769c-4.152,0-7.517,3.366-7.517,7.517c0,4.152,3.366,7.517,7.517,7.517h262.737  c4.152,0,7.517-3.366,7.517-7.517C464.024,273.026,460.658,269.661,456.506,269.661z"/><path data-cppathid="10008" d="M456.506,299.728H193.769c-4.152,0-7.517,3.366-7.517,7.517s3.366,7.517,7.517,7.517h262.737  c4.152,0,7.517-3.366,7.517-7.517S460.658,299.728,456.506,299.728z"/><path data-cppathid="10009" d="M456.506,331.674h-81.321c-4.152,0-7.517,3.366-7.517,7.517s3.365,7.517,7.517,7.517h81.321  c4.152,0,7.517-3.366,7.517-7.517S460.658,331.674,456.506,331.674z"/><g/><g/><g/><g/><g/><g/><g/><g/><g/><g/><g/><g/><g/><g/><g/></svg>