<?xml version="1.0" encoding="UTF-8"?>
<svg xmlns="http://www.w3.org/2000/svg" onmouseup="{ if(window.parent.document.onmouseup) window.parent.document.onmouseup(arguments[0]);}" data-name="filled Expand" width="512" viewBox="0 0 64 64" height="512" id="filled_Expand"><path data-cppathid="10000" fill="#fff078" d="m50 53a10 10 0 0 1 10 10 0 0 0 0 1 0 0h-20a0 0 0 0 1 0 0 10 10 0 0 1 10-10z"/><path data-cppathid="10001" fill="#ffd246" d="m40 63h5a12.9109 12.9109 0 0 0 -2.0922-7.0478 9.967 9.967 0 0 0 -2.9078 7.0478z"/><path data-cppathid="10002" fill="#96e664" d="m14 53a10 10 0 0 1 10 10 0 0 0 0 1 0 0h-20a0 0 0 0 1 0 0 10 10 0 0 1 10-10z"/><path data-cppathid="10003" fill="#7dd142" d="m7.2009 63h16.7991a9.9635 9.9635 0 0 0 -3.0625-7.1925 10.0019 10.0019 0 0 0 -13.7366 7.1925z"/><path data-cppathid="10004" fill="#6ebe32" d="m21.0922 55.9522a12.9109 12.9109 0 0 0 -2.0922 7.0478h5a9.967 9.967 0 0 0 -2.9078-7.0478z"/><path data-cppathid="10005" fill="#ffd246" d="m43.2009 63h16.7991a9.9635 9.9635 0 0 0 -3.0625-7.1925 10.0019 10.0019 0 0 0 -13.7366 7.1925z"/><path data-cppathid="10006" fill="#fabe42" d="m43.2009 63h1.7991a12.8576 12.8576 0 0 0 -.4476-3.3407 9.93 9.93 0 0 0 -1.3515 3.3407z"/><path data-cppathid="10007" fill="#ff825a" d="m32 53a10 10 0 0 1 10 10 0 0 0 0 1 0 0h-20a0 0 0 0 1 0 0 10 10 0 0 1 10-10z"/><path data-cppathid="10008" fill="#465a72" d="m1 1h62v35h-62z"/><path data-cppathid="10009" fill="#5a6e8c" d="m1 1h62v3h-62z"/><path data-cppathid="10010" fill="#ffd246" d="m8 1h48v35h-48z"/><path data-cppathid="10011" fill="#fff078" d="m8 1h48v3h-48z"/><g fill="#ffe1b4"><circle data-cppathid="10012" r="5.5" cy="47.5" cx="50"/><circle data-cppathid="10013" r="5.5" cy="47.5" cx="32"/><circle data-cppathid="10014" r="5.5" cy="47.5" cx="14"/></g><path data-cppathid="10015" fill="#ffd9a1" d="m10.5 49.5a5.4667 5.4667 0 0 0 .7449 2.7551 5.4931 5.4931 0 0 0 7.51-7.51 5.4931 5.4931 0 0 0 -8.2549 4.7549z"/><path data-cppathid="10016" fill="#ffd9a1" d="m28.5 49.5a5.4667 5.4667 0 0 0 .7449 2.7551 5.4931 5.4931 0 0 0 7.51-7.51 5.4931 5.4931 0 0 0 -8.2549 4.7549z"/><path data-cppathid="10017" fill="#ffd9a1" d="m46.5 49.5a5.4667 5.4667 0 0 0 .7449 2.7551 5.4931 5.4931 0 0 0 7.51-7.51 5.4931 5.4931 0 0 0 -8.2549 4.7549z"/><path data-cppathid="10018" fill="#ff452f" d="m25.2009 63h16.7991a9.9635 9.9635 0 0 0 -3.0625-7.1925 10.0019 10.0019 0 0 0 -13.7366 7.1925z"/><path data-cppathid="10019" d="m53.919 52.7343a6.3666 6.3666 0 0 0 2.581-5.1132v-.1211a6.5 6.5 0 0 0 -13 0v.1211a6.3666 6.3666 0 0 0 2.5865 5.1173 10.8571 10.8571 0 0 0 -5.082 3.9628 11.0449 11.0449 0 0 0 -5.0855-3.9669 6.3666 6.3666 0 0 0 2.581-5.1132v-.1211a6.5 6.5 0 0 0 -13 0v.1211a6.3666 6.3666 0 0 0 2.581 5.1132 11.0449 11.0449 0 0 0 -5.0855 3.9669 10.8571 10.8571 0 0 0 -5.082-3.9628 6.3666 6.3666 0 0 0 2.5865-5.1173v-.1211a6.5 6.5 0 0 0 -13 0v.1211a6.3666 6.3666 0 0 0 2.581 5.1132 11.0083 11.0083 0 0 0 -7.081 10.2657 1 1 0 0 0 1 1h56a1 1 0 0 0 1-1 11.0083 11.0083 0 0 0 -7.081-10.2657zm-4.0401-.7343a4.3844 4.3844 0 0 1 -4.3789-4.3789v-.1211a4.5 4.5 0 0 1 9 0v.1211a4.3844 4.3844 0 0 1 -4.3789 4.3789zm-18 0a4.3844 4.3844 0 0 1 -4.3789-4.3789v-.1211a4.5 4.5 0 0 1 9 0v.1211a4.3844 4.3844 0 0 1 -4.3789 4.3789zm-18 0a4.3844 4.3844 0 0 1 -4.3789-4.3789v-.1211a4.5 4.5 0 0 1 9 0v.1211a4.3844 4.3844 0 0 1 -4.3789 4.3789zm.1211 2a8.9138 8.9138 0 0 1 7.8746 4.7041 10.9168 10.9168 0 0 0 -.8239 3.2959h-15.995a9.0121 9.0121 0 0 1 8.9443-8zm9.0557 8a9 9 0 0 1 17.8886 0zm19.8936 0a10.9161 10.9161 0 0 0 -.8239-3.2959 8.9138 8.9138 0 0 1 7.8746-4.7041 9.0121 9.0121 0 0 1 8.9443 8z"/><path data-cppathid="10020" d="m63 0h-62a1 1 0 0 0 -1 1v35a1 1 0 0 0 1 1h62a1 1 0 0 0 1-1v-35a1 1 0 0 0 -1-1zm-56 21h-5v-5h5zm0-7h-5v-5h5zm-5 9h5v5h-5zm7-21h46v33h-46zm48 14h5v5h-5zm0-2v-5h5v5zm0 9h5v5h-5zm5-16h-5v-5h5zm-55-5v5h-5v-5zm-5 28h5v5h-5zm55 5v-5h5v5z"/><path data-cppathid="10021" d="m26.4365 10.6484a1.0005 1.0005 0 0 0 -1.873 0l-4.5 12a1 1 0 0 0 1.873.7032l.8817-2.3516h5.3636l.8817 2.3516a1 1 0 0 0 1.873-.7032zm-2.8684 8.3516 1.9319-5.1523 1.9319 5.1523z"/><path data-cppathid="10022" d="m37 10h-3a1 1 0 0 0 -1 1v12a1 1 0 0 0 1 1h3a7 7 0 0 0 0-14zm0 12h-2v-10h2a5 5 0 0 1 0 10z"/></svg>