<?xml version="1.0" encoding="UTF-8"?>
<svg xmlns="http://www.w3.org/2000/svg" onmouseup="{ if(window.parent.document.onmouseup) window.parent.document.onmouseup(arguments[0]);}" width="512" viewBox="0 0 64 64" height="512" enable-background="new 0 0 64 64" id="_x33_0"><g><g><g><path data-cppathid="10000" fill="#69d6f4" d="m16 10h32v40h-32z"/></g><g><path data-cppathid="10001" fill="#969faa" d="m42 4v6h-26v-2c0-2.21 1.79-4 4-4z"/></g><g><path data-cppathid="10002" fill="#969faa" d="m48 50v8c0 2.21-1.79 4-4 4h-24c1.1 0 2-.9 2-2v-10z"/></g><g><path data-cppathid="10003" fill="#fcd770" d="m36 55v2c0 .55-.45 1-1 1h-6c-.55 0-1-.45-1-1v-2c0-.55.45-1 1-1h6c.55 0 1 .45 1 1z"/></g><g><path data-cppathid="10004" fill="#ffeaa7" d="m16 44h4c1.1 0 2 .9 2 2v4 10c0 1.1-.9 2-2 2h-16c-1.1 0-2-.9-2-2v-14c0-1.1.9-2 2-2h6l3.59-3.59c.26-.26.62-.41 1-.41.78 0 1.41.63 1.41 1.41z"/></g><g><path data-cppathid="10005" fill="#ffeaa7" d="m62 4v14c0 1.1-.9 2-2 2h-6l-3.59 3.59c-.26.26-.62.41-1 .41-.78 0-1.41-.63-1.41-1.41v-2.59h-4c-1.1 0-2-.9-2-2v-8-6c0-1.1.9-2 2-2h16c1.1 0 2 .9 2 2z"/></g><g><path data-cppathid="10006" fill="#ff826e" d="m57 7c.64.64 1 1.51 1 2.41 0 1.01-.45 1.96-1.22 2.61l-4.78 3.98-4.78-3.98c-.77-.65-1.22-1.6-1.22-2.61 0-.9.36-1.77 1-2.41s1.51-1 2.41-1h.18c.9 0 1.77.36 2.41 1 .64-.64 1.51-1 2.41-1h.18c.9 0 1.77.36 2.41 1z"/></g><g><path data-cppathid="10007" fill="#e6e9ed" d="m34 36c0 .55-.22 1.05-.59 1.41-.36.37-.86.59-1.41.59-1.1 0-2-.9-2-2 0 .55-.22 1.05-.59 1.41-.36.37-.86.59-1.41.59-1.1 0-2-.9-2-2v-4l-1.07-.8c-.92-.69-1.65-1.58-2.15-2.59-.51-1-.78-2.13-.78-3.28 0-4.05 3.28-7.33 7.33-7.33h5.34c2.03 0 3.86.82 5.18 2.15 1.33 1.32 2.15 3.15 2.15 5.18 0 2.31-1.09 4.49-2.93 5.87l-1.07.8v4c0 .55-.22 1.05-.59 1.41-.36.37-.86.59-1.41.59-1.1 0-2-.9-2-2z"/></g><g><circle data-cppathid="10008" r="2" fill="#838f9b" cy="26" cx="28"/></g><g><circle data-cppathid="10009" r="2" fill="#838f9b" cy="26" cx="36"/></g></g><g><path data-cppathid="10010" d="m60 1h-16c-1.302 0-2.402.839-2.816 2h-21.184c-2.757 0-5 2.243-5 5v31.042c-.135-.024-.272-.042-.414-.042-.635 0-1.257.258-1.707.707l-3.293 3.293h-5.586c-1.654 0-3 1.346-3 3v14c0 1.654 1.346 3 3 3h40c2.757 0 5-2.243 5-5v-33.035c.74.128 1.571-.123 2.121-.672l3.293-3.293h5.586c1.654 0 3-1.346 3-3v-14c0-1.654-1.346-3-3-3zm-13 48h-24v-3c0-1.654-1.346-3-3-3h-3v-32h24v7c0 1.654 1.346 3 3 3h3zm-27-44h21v4h-24v-1c0-1.654 1.346-3 3-3zm-16 56c-.551 0-1-.448-1-1v-14c0-.552.449-1 1-1h6.414l3.878-3.878c.241-.242.708-.045.708.292v3.586h5c.551 0 1 .448 1 1v14c0 .552-.449 1-1 1zm40 0h-21.184c.112-.314.184-.648.184-1v-9h24v7c0 1.654-1.346 3-3 3zm17-43c0 .552-.449 1-1 1h-6.414l-3.878 3.878c-.241.242-.708.045-.708-.292v-3.586h-5c-.551 0-1-.448-1-1v-14c0-.552.449-1 1-1h16c.551 0 1 .448 1 1z"/><path data-cppathid="10011" d="m35 53h-6c-1.103 0-2 .897-2 2v2c0 1.103.897 2 2 2h6c1.103 0 2-.897 2-2v-2c0-1.103-.897-2-2-2zm-6 4v-2h6l.001 2z"/><path data-cppathid="10012" d="m54.586 5h-.172c-.871 0-1.703.25-2.414.717-.711-.467-1.543-.717-2.414-.717h-.172c-1.18 0-2.288.459-3.125 1.297-.819.818-1.289 1.952-1.289 3.111 0 1.309.577 2.54 1.583 3.38l5.417 4.514 5.417-4.515c1.006-.839 1.583-2.07 1.583-3.379 0-1.159-.47-2.293-1.292-3.115-.834-.834-1.942-1.293-3.122-1.293zm1.551 6.251-4.137 3.447-4.136-3.446c-.549-.458-.864-1.13-.864-1.844 0-.632.256-1.25.708-1.701.455-.456 1.061-.707 1.706-.707h.172c.645 0 1.251.251 1.707.707l.707.708.708-.708c.455-.456 1.061-.707 1.706-.707h.172c.645 0 1.251.251 1.712.713.446.445.702 1.063.702 1.695 0 .714-.315 1.386-.863 1.843z"/><path data-cppathid="10013" d="m7 47h2v8h-2z"/><path data-cppathid="10014" d="m7 57h2v2h-2z"/><path data-cppathid="10015" d="m11 47h2v8h-2z"/><path data-cppathid="10016" d="m11 57h2v2h-2z"/><path data-cppathid="10017" d="m15 47h2v8h-2z"/><path data-cppathid="10018" d="m15 57h2v2h-2z"/><path data-cppathid="10019" d="m43 45h2v2h-2z"/><path data-cppathid="10020" d="m39 45h2v2h-2z"/><path data-cppathid="10021" d="m35 45h2v2h-2z"/><path data-cppathid="10022" d="m36 23c-1.654 0-3 1.346-3 3s1.346 3 3 3 3-1.346 3-3-1.346-3-3-3zm0 4c-.551 0-1-.448-1-1s.449-1 1-1 1 .448 1 1-.449 1-1 1z"/><path data-cppathid="10023" d="m28 23c-1.654 0-3 1.346-3 3s1.346 3 3 3 3-1.346 3-3-1.346-3-3-3zm0 4c-.551 0-1-.448-1-1s.449-1 1-1 1 .448 1 1-.449 1-1 1z"/><path data-cppathid="10024" d="m39 32.5.667-.5c2.087-1.565 3.333-4.058 3.333-6.667 0-4.595-3.738-8.333-8.333-8.333h-5.333c-4.596 0-8.334 3.738-8.334 8.333 0 2.609 1.246 5.102 3.333 6.667l.667.5v3.5c0 1.654 1.346 3 3 3 .771 0 1.468-.301 2-.78.532.48 1.229.78 2 .78s1.468-.301 2-.78c.532.48 1.229.78 2 .78 1.654 0 3-1.346 3-3zm-2-1v4.5c0 .552-.449 1-1 1s-1-.448-1-1v-3h-2v3c0 .552-.449 1-1 1s-1-.448-1-1v-3h-2v3c0 .552-.449 1-1 1s-1-.448-1-1v-4.5l-1.467-1.1c-1.586-1.189-2.533-3.084-2.533-5.067 0-3.492 2.841-6.333 6.333-6.333h5.333c3.493 0 6.334 2.841 6.334 6.333 0 1.983-.947 3.878-2.533 5.067z"/></g></g></svg>