<?xml version="1.0" encoding="UTF-8"?>
<svg xmlns="http://www.w3.org/2000/svg" onmouseup="{ if(window.parent.document.onmouseup) window.parent.document.onmouseup(arguments[0]);}" width="512" viewBox="0 0 256 256" height="512"><path data-cppathid="10000" fill="#63bce7" d="m66.13 41.91h123.74v161.417h-123.74z"/><path data-cppathid="10001" fill="#6377e7" d="m66.13 41.91h8v161.417h-8z"/><path data-cppathid="10002" fill="#63e2e7" d="m181.87 41.91h8v161.417h-8z"/><path data-cppathid="10003" transform="matrix(-1 0 0 -1 99.398 390.531)" fill="#f46275" d="m26.84 187.205h45.718v16.121h-45.718z"/><path data-cppathid="10004" fill="#f43075" d="m26.84 187.205h8v16.121h-8z"/><path data-cppathid="10005" transform="matrix(-1 0 0 -1 99.398 431.32)" fill="#63bce7" d="m26.84 203.326h45.718v24.669h-45.718z"/><path data-cppathid="10006" fill="#6377e7" d="m26.84 203.326h8v24.669h-8z"/><path data-cppathid="10007" fill="#f8af23" d="m100.955 55.428 20.574-34.708a7.523 7.523 0 0 1 12.942 0l20.574 34.709a7.523 7.523 0 0 1 -6.471 11.359h-41.148a7.523 7.523 0 0 1 -6.471-11.36z"/><path data-cppathid="10008" fill="#f87023" d="m108.955 55.428 20.574-34.708a7.452 7.452 0 0 1 2.471-2.53 7.521 7.521 0 0 0 -10.471 2.529l-20.574 34.709a7.523 7.523 0 0 0 6.471 11.359h8a7.523 7.523 0 0 1 -6.471-11.359z"/><path data-cppathid="10009" fill="#f46275" d="m78.375 78.159h99.25v9.75h-99.25z"/><path data-cppathid="10010" fill="#f46275" d="m78.375 95.824h99.25v9.75h-99.25z"/><path data-cppathid="10011" fill="#f8af23" d="m163.83 215.776-14.82-31.224a6.8 6.8 0 0 1 12.281-5.829l3.151 6.639v-41.8a6.8 6.8 0 1 1 13.595 0v27.438a6.8 6.8 0 0 1 13.595 0v2.458a6.8 6.8 0 1 1 13.595 0v2.688a6.8 6.8 0 0 1 13.595 0v51.848h-54.38v-10.935z"/><path data-cppathid="10012" fill="#f8d323" d="m212.024 169.349a6.758 6.758 0 0 0 -3.957 1.278 6.782 6.782 0 0 1 2.84 5.519v51.848h7.915v-51.848a6.8 6.8 0 0 0 -6.798-6.797z"/><path data-cppathid="10013" fill="#f8af23" d="m66.131 113.489v29.755l5.857-6.871a6.827 6.827 0 0 1 9.6-.765 6.827 6.827 0 0 1 .765 9.6l-13.328 15.627s3.975 16.782-6.506 26.365h-29.633l2.627-36.05c.315-3.329 2.368-6.146 4.456-8.475z"/><path data-cppathid="10014" fill="#f87023" d="m47.969 142.68 18.162-20.264v-8.926l-26.162 29.19c-2.088 2.329-4.141 5.146-4.456 8.475l-2.627 36.045h8l2.627-36.05c.315-3.325 2.368-6.141 4.456-8.47z"/><g fill="#3f3679"><path data-cppathid="10015" d="m27.323 237.467h-18a1.5 1.5 0 0 0 0 3h18a1.5 1.5 0 0 0 0-3z"/><path data-cppathid="10016" d="m246.68 237.467h-18a1.5 1.5 0 0 0 0 3h18a1.5 1.5 0 0 0 0-3z"/><path data-cppathid="10017" d="m218.479 237.467h-180.958a1.5 1.5 0 0 0 0 3h180.958a1.5 1.5 0 0 0 0-3z"/><path data-cppathid="10018" d="m9.32 229.494h237.36a1.5 1.5 0 0 0 0-3h-26.359v-50.348a8.294 8.294 0 0 0 -14.208-5.818 8.292 8.292 0 0 0 -13.662-2.619 8.288 8.288 0 0 0 -1.081-1.79v-124.009a1.5 1.5 0 0 0 -1.5-1.5h-41.984l-12.124-20.455a9.023 9.023 0 0 0 -15.523 0l-12.125 20.455h-41.984a1.5 1.5 0 0 0 -1.5 1.5v71.007l-25.778 28.762c-2.056 2.293-4.462 5.427-4.835 9.367l-2.526 34.654h-4.651a1.5 1.5 0 0 0 -1.5 1.5v39.29h-16.02a1.5 1.5 0 0 0 0 3zm58.31-46.265c5.059-8.617 3.568-19.072 3.014-21.98l12.846-15.072a8.284 8.284 0 0 0 1.022-1.518h78.43v8.5h-84.567a1.5 1.5 0 0 0 0 3h84.567v8.5h-84.567a1.5 1.5 0 0 0 0 3h84.567v8.5h-1.568a8.291 8.291 0 0 0 -12.456 0h-70.543a1.5 1.5 0 1 0 0 3h68.866a8.232 8.232 0 0 0 .413 6.036l1.169 2.464h-70.448a1.5 1.5 0 1 0 0 3h71.873l5.3 11.167h-81.49v-14.626a1.5 1.5 0 0 0 -1.5-1.5h-4.928zm6.428 21.6h82.915l5.5 11.593.466.977v9.1h-88.881zm119.074-31.369a5.3 5.3 0 1 1 10.595 0v2.688a1.5 1.5 0 0 0 3 0 5.3 5.3 0 1 1 10.595 0v50.348h-51.38v-9.436a1.494 1.494 0 0 0 -.146-.646l-15.431-32.5a5.3 5.3 0 1 1 9.57-4.543l3.152 6.629a1.5 1.5 0 0 0 2.855-.643v-41.8a5.3 5.3 0 1 1 10.595 0v27.443a1.5 1.5 0 0 0 3 0 5.3 5.3 0 1 1 10.595 0v2.458a1.5 1.5 0 0 0 3 0zm-70.314-151.976a6.024 6.024 0 0 1 10.363 0l20.573 34.709a6.023 6.023 0 0 1 -5.182 9.093h-41.145a6.023 6.023 0 0 1 -5.182-9.093zm-16.482 21.926-6.671 11.254a9.022 9.022 0 0 0 7.762 13.624h41.146a9.022 9.022 0 0 0 7.762-13.623l-6.671-11.255h38.706v120.09a8.275 8.275 0 0 0 -8.833 1.121v-21.06a8.293 8.293 0 0 0 -16.367-1.9h-77.747a8.294 8.294 0 0 0 -4.971-8.5h97.173a1.5 1.5 0 0 0 0-3h-99.25a1.5 1.5 0 0 0 -1.247 2.334 8.282 8.282 0 0 0 -6.282 2.907l-3.216 3.772v-95.764zm-69.33 107.89c.288-3.036 2.331-5.665 4.08-7.616l23.544-26.273v25.281l-10.761 12.626a1.5 1.5 0 0 0 2.283 1.946l11.12-13.047 5.857-6.871a5.307 5.307 0 0 1 8.077 6.885l-13.322 15.631a1.5 1.5 0 0 0 -.318 1.319c.037.157 3.556 15.568-5.642 24.524h-27.424zm-8.666 37.4h42.718v13.121h-42.718zm0 16.121h42.718v21.668h-42.718z"/><path data-cppathid="10019" d="m78.375 89.409h99.25a1.5 1.5 0 0 0 1.5-1.5v-9.75a1.5 1.5 0 0 0 -1.5-1.5h-99.25a1.5 1.5 0 0 0 -1.5 1.5v9.75a1.5 1.5 0 0 0 1.5 1.5zm1.5-9.75h96.25v6.75h-96.25z"/><path data-cppathid="10020" d="m78.375 107.074h99.25a1.5 1.5 0 0 0 1.5-1.5v-9.75a1.5 1.5 0 0 0 -1.5-1.5h-99.25a1.5 1.5 0 0 0 -1.5 1.5v9.75a1.5 1.5 0 0 0 1.5 1.5zm1.5-9.75h96.25v6.75h-96.25z"/><path data-cppathid="10021" d="m78.375 121.659h99.25a1.5 1.5 0 0 0 0-3h-99.25a1.5 1.5 0 0 0 0 3z"/><path data-cppathid="10022" d="m132 28.958-.643 14.973a3.356 3.356 0 0 1 -3.357 3.211 3.356 3.356 0 0 1 -3.353-3.212l-.647-14.972a3.356 3.356 0 0 1 3.353-3.5h1.286a3.356 3.356 0 0 1 3.361 3.5zm-.027 25.177v.871a3.356 3.356 0 0 1 -3.356 3.356h-1.182a3.356 3.356 0 0 1 -3.356-3.356v-.871a3.356 3.356 0 0 1 3.356-3.356h1.182a3.356 3.356 0 0 1 3.352 3.355z"/></g></svg>