<?xml version="1.0" encoding="UTF-8"?>
<svg xmlns="http://www.w3.org/2000/svg" onmouseup="{ if(window.parent.document.onmouseup) window.parent.document.onmouseup(arguments[0]);}" xml:space="preserve" style="enable-background:new 0 0 512 512;" viewBox="0 0 512 512" y="0px" x="0px" id="Capa_1" version="1.1" xmlns:xlink="http://www.w3.org/1999/xlink"><circle data-cppathid="10000" r="256" cy="256" cx="256" style="fill:#FFF200;"/><path data-cppathid="10001" d="M512,256c0-1.021-0.027-2.036-0.039-3.054l-88.225-88.225l-41.867,9.148L270,62l-28,25l19.545,19.545  L242,152.209l27.786,27.786L242,217.417l22.793,22.793l-19.828,35.434l-65.193-65.193L83.203,314.173L279.91,510.879  C410.082,498.82,512,389.321,512,256z" style="fill:#FDC300;"/><rect data-cppathid="10002" height="32" width="179.43" style="fill:#414952;" y="246" x="70.57"/><rect data-cppathid="10003" height="16.333" width="179.43" style="fill:#23272B;" y="261.67" x="70.57"/><path data-cppathid="10004" d="M328.239,361.794h-1.471c-25.021,0-45.378-20.356-45.378-45.378v-19.64  c0-7.377-6.001-13.378-13.378-13.378v-32c25.021,0,45.378,20.356,45.378,45.378v19.64c0,7.376,6.001,13.378,13.378,13.378h1.471  c7.377,0,13.379-6.001,13.379-13.378V195.584c0-25.021,20.356-45.378,45.378-45.378h3.516c25.021,0,45.378,20.356,45.378,45.378  v42.436c0,7.377,6.002,13.378,13.379,13.378h24.719v32h-24.719c-25.022,0-45.379-20.356-45.379-45.378v-42.436  c0-7.376-6.001-13.378-13.378-13.378h-3.516c-7.377,0-13.378,6.001-13.378,13.378v120.832  C373.618,341.438,353.262,361.794,328.239,361.794z" style="fill:#414952;"/><g><path data-cppathid="10005" d="M341.618,261.667v54.75c0,7.376-6.002,13.378-13.379,13.378h-1.471   c-7.377,0-13.378-6.001-13.378-13.378v-19.64c0-14.137-6.501-26.781-16.667-35.11h-28.71v21.731   c7.377,0,13.378,6.001,13.378,13.378v19.64c0,25.021,20.356,45.378,45.378,45.378h1.471c25.022,0,45.379-20.356,45.379-45.378   v-54.75h-32.001V261.667z" style="fill:#23272B;"/><path data-cppathid="10006" d="M410.558,261.667c7.984,13.023,22.347,21.731,38.71,21.731h24.719v-21.731H410.558z" style="fill:#23272B;"/></g><circle data-cppathid="10007" r="70.863" cy="262" cx="131.15" style="fill:#FF0037;"/><path data-cppathid="10008" d="M60.297,262c0-0.222-0.008-0.112-0.008,0c0,39.136,31.727,70.863,70.863,70.863  s70.863-31.727,70.863-70.863c0-0.112-0.008-0.222-0.008,0H60.297z" style="fill:#D30F0F;"/><polygon data-cppathid="10009" points="175.718,262 103.578,220.35 103.578,303.65 " style="fill:#FFFFFF;"/><polygon data-cppathid="10010" points="103.578,262 103.578,303.65 175.718,262 " style="fill:#DCE1EB;"/><g><rect data-cppathid="10011" height="25" width="28" style="fill:#FF0037;" y="62" x="242"/><path data-cppathid="10012" d="M270,413.044h-28v-47.253h28V413.044z M270,347.835h-28v-47.252h28V347.835z M270,282.626h-28   v-47.253h28V282.626z M270,217.417h-28v-47.252h28V217.417z M270,152.209h-28v-47.253h28V152.209z" style="fill:#FF0037;"/></g><g><rect data-cppathid="10013" height="47.25" width="28" style="fill:#D30F0F;" y="365.79" x="242"/><polyline data-cppathid="10014" points="270,284.626 270,261.667 242,261.667 242,284.626  " style="fill:#D30F0F;"/><rect data-cppathid="10015" height="47.25" width="28" style="fill:#D30F0F;" y="300.58" x="242"/><rect data-cppathid="10016" height="25" width="28" style="fill:#D30F0F;" y="431" x="242"/></g><g/><g/><g/><g/><g/><g/><g/><g/><g/><g/><g/><g/><g/><g/><g/></svg>