<?xml version="1.0" encoding="UTF-8"?>
<svg xmlns="http://www.w3.org/2000/svg" onmouseup="{ if(window.parent.document.onmouseup) window.parent.document.onmouseup(arguments[0]);}" width="512" viewBox="0 0 512 512" height="512" enable-background="new 0 0 512 512" id="Capa_1"><g><path data-cppathid="10000" fill="#706c64" d="m436.19 456.19h-360.38c-11.046 0-20-8.954-20-20v-360.38c0-11.046 8.954-20 20-20h360.38c11.046 0 20 8.954 20 20v360.38c0 11.045-8.955 20-20 20z"/><path data-cppathid="10001" fill="#8f8b81" d="m242.617 102.575h-143.717c-12.914 0-23.383-10.469-23.383-23.383 0-12.914 10.469-23.383 23.383-23.383h143.718c12.913.001 23.382 10.47 23.382 23.384 0 12.914-10.469 23.382-23.383 23.382z"/><path data-cppathid="10002" fill="#b5b1a4" d="m242.057 55.81h-43.501c-12.914 0-23.383 10.469-23.383 23.383 0 12.914 10.469 23.383 23.383 23.383h44.061c13.197 0 23.84-10.933 23.367-24.235-.45-12.672-11.248-22.531-23.927-22.531z"/><path data-cppathid="10003" fill="#595751" d="m456.19 75.81v360.38c0 11.05-8.95 20-20 20h-132.69c75.32-56.77 124.01-146.97 124.01-248.55 0-55.14-14.35-106.92-39.51-151.83h48.19c11.05 0 20 8.95 20 20z"/><g fill="#8f8b81"><path data-cppathid="10004" d="m110.646 55.81h25.127v400.38h-25.127z"/><path data-cppathid="10005" d="m199.173 55.81h25.127v400.38h-25.127z"/><path data-cppathid="10006" d="m287.7 55.81h25.127v400.38h-25.127z"/></g><g><path data-cppathid="10007" fill="#29e088" d="m0 430.627v-19.234c0-5.523 4.477-10 10-10h24.863l12.138-40.157c2.521-8.339 10.065-13.941 18.773-13.941.486 0 53.604 3.947 53.604 3.947l26.558-80.999c2.128-6.492 7.363-11.333 14.001-12.949 1.517-.369 3.078-.557 4.637-.557 5.175 0 10.058 1.997 13.749 5.623l63.316 62.198 20.766-128.499c.777-4.808 3.298-9.133 7.099-12.179l90.211-72.28c3.468-2.778 7.824-4.308 12.267-4.308 4.387 0 8.701 1.496 12.145 4.213l58.096 45.806 22.504-72.164c2.57-8.24 10.096-13.776 18.727-13.776h18.546c5.523 0 10 4.477 10 10v19.234c0 5.523-4.477 10-10 10h-4.113l-26.554 85.149c-1.624 5.207-5.166 9.694-10.044 12.135-2.77 1.387-5.777 2.094-8.824 2.094-4.387 0-8.701-1.496-12.147-4.213l-68.238-53.803-72.147 57.807-25.613 158.491c-1.175 7.271-6.252 13.213-13.25 15.51-3.271 1.073-6.757 1.271-10.2.554-3.77-.785-7.187-2.767-9.934-5.466l-67.563-66.371-21.498 65.566c-2.648 8.078-10.139 13.505-18.642 13.505-.483 0-53.228-3.92-53.228-3.92l-11.801 39.04c-2.521 8.339-10.067 13.941-18.778 13.941h-39.426c-5.523.003-10-4.474-10-9.997z"/></g><g><path data-cppathid="10008" fill="#0cc166" d="m69.644 379.356c6.258 5.008 8.84 13.32 6.521 20.993l-7.961 26.338c-2.521 8.339-10.067 13.941-18.778 13.941h-39.426c-5.523 0-10-4.477-10-10v-19.234c0-5.523 4.477-10 10-10h24.863l3.747-12.397c4.017-13.292 20.193-18.317 31.034-9.641z"/></g><g><path data-cppathid="10009" fill="#0cc166" d="m435.15 151.74c-1.14 11.74-6.2 23.18-15.19 32.17-1.1 1.1-2.24 2.14-3.41 3.12l-44.47-35.06-32.05 25.68c-9.29-12.71-12.17-28.63-8.65-43.34l28.34-22.71c3.46-2.78 7.82-4.31 12.26-4.31 4.39 0 8.7 1.5 12.15 4.22z"/></g><g><path data-cppathid="10010" fill="#0cc166" d="m489.335 138.031 8.552-27.424h4.113c5.523 0 10-4.477 10-10v-19.234c0-5.523-4.477-10-10-10h-18.544c-8.632 0-16.158 5.536-18.727 13.776l-12.832 41.148c-2.876 9.221 1.458 19.166 10.183 23.31.119.057.239.113.358.17 10.679 5.076 23.377-.458 26.897-11.746z"/></g><g><path data-cppathid="10011" fill="#79ff79" d="m312.688 175.088c-6.544-8.845-19.128-10.479-27.714-3.6l-15.468 12.394c-3.801 3.046-6.322 7.371-7.099 12.179l-20.767 128.499-21.765-21.381c-7.592-7.458-19.768-7.414-27.312.092-.093.092-.185.185-.278.277-7.664 7.624-7.619 20.042.093 27.617l48.56 47.703c2.747 2.699 6.166 4.681 9.936 5.465 3.442.716 6.927.517 10.196-.555 6.998-2.296 12.075-8.239 13.25-15.51l25.614-158.491 9.514-7.623c8.157-6.535 9.691-18.348 3.474-26.75z"/></g><g><path data-cppathid="10012" fill="#c2ffc2" d="m256.024 235.553-7.013 43.396c-1.928 11.928 7.283 22.747 19.366 22.747 9.626 0 17.83-6.985 19.366-16.487l7.013-43.396c1.928-11.928-7.283-22.747-19.366-22.747-9.626 0-17.83 6.984-19.366 16.487z"/></g><g><g><path data-cppathid="10013" fill="#52efff" d="m400.6 17.93v476.14c0 4.95-2.01 9.43-5.25 12.68-3.25 3.24-7.73 5.25-12.68 5.25-9.9 0-17.93-8.03-17.93-17.93v-476.14c0-4.95 2.01-9.43 5.25-12.68 3.25-3.24 7.73-5.25 12.68-5.25 9.9 0 17.93 8.03 17.93 17.93z"/></g><path data-cppathid="10014" fill="#06d0ff" d="m400.6 97.01v99.21c-11.56 4.17-24.29 4.18-35.86 0v-99.21c11.56-4.17 24.3-4.17 35.86 0z"/><g><path data-cppathid="10015" fill="#99faff" d="m364.74 267.034v160.41c0 9.902 8.027 17.929 17.929 17.929 9.902 0 17.929-8.027 17.929-17.929v-160.41c0-9.902-8.027-17.929-17.929-17.929-9.902.001-17.929 8.028-17.929 17.929z"/></g><g><path data-cppathid="10016" fill="#d2fffe" d="m364.74 319.625v25.028c0 9.902 8.027 17.929 17.929 17.929 9.902 0 17.929-8.027 17.929-17.929v-25.028c0-9.902-8.027-17.929-17.929-17.929-9.902 0-17.929 8.027-17.929 17.929z"/></g><g><g><circle data-cppathid="10017" r="52.737" fill="#5cceff" cy="124.39" cx="382.668"/><path data-cppathid="10018" fill="#27b2ff" d="m419.961 161.683c-20.598 20.598-53.988 20.598-74.586 0-6.145-6.145-10.451-13.421-12.933-21.164 18.512 15.344 46.004 14.34 63.35-3.005 17.345-17.345 18.349-44.838 3.005-63.35 7.743 2.482 15.019 6.788 21.164 12.933 20.598 20.598 20.598 53.988 0 74.586z"/></g><circle data-cppathid="10019" r="21.887" fill="#73e1ff" cy="102.575" cx="360.853"/></g></g><path data-cppathid="10020" fill="#b5b1a4" d="m110.65 55.81h25.12v46.77h-25.12z"/><path data-cppathid="10021" fill="#d8d4c9" d="m199.17 55.81h25.13v46.77h-25.13z"/></g></svg>