<?xml version="1.0" encoding="UTF-8"?>
<svg xmlns="http://www.w3.org/2000/svg" onmouseup="{ if(window.parent.document.onmouseup) window.parent.document.onmouseup(arguments[0]);}" width="512" viewBox="0 0 64 64" height="512" enable-background="new 0 0 64 64" id="Layer_5"><g><g><path data-cppathid="10000" fill="#f0bc5e" d="m63 40c0-1.828-.986-3.462-2.538-4.334.481-1.713.023-3.565-1.27-4.858s-3.148-1.751-4.858-1.27c-.872-1.552-2.506-2.538-4.334-2.538s-3.462.986-4.334 2.537c-1.712-.481-3.566-.023-4.858 1.271-1.293 1.293-1.751 3.146-1.27 4.858-1.552.872-2.538 2.506-2.538 4.334s.986 3.462 2.538 4.334c-.481 1.713-.023 3.565 1.27 4.858 1.292 1.292 3.146 1.75 4.858 1.27.872 1.552 2.506 2.538 4.334 2.538s3.462-.986 4.334-2.537c1.71.479 3.565.022 4.858-1.271s1.751-3.146 1.27-4.858c1.552-.872 2.538-2.506 2.538-4.334zm-13 8c-4.418 0-8-3.582-8-8s3.582-8 8-8 8 3.582 8 8-3.582 8-8 8z"/></g><g><g><path data-cppathid="10001" fill="#f0bc5e" d="m21 48h-12v-14h12z"/></g></g><g><path data-cppathid="10002" fill="#f0bc5e" d="m23 34h12v14h-12z"/></g><g><path data-cppathid="10003" d="m45.745 57.253-1.297-2.595-2.909 1.455 1.502-5.634c-.656-.174-1.275-.488-1.823-.928l-.12.449h-34.098v-24h4v6h28.934c.228-.43.515-.834.874-1.192.321-.322.677-.591 1.057-.808h-2.865v-11.612l4 1.333v9.812c.648-.178 1.327-.227 2-.134v-3.399h4v1.112c.325-.067.657-.112 1-.112s.675.045 1 .112v-3.112h-6v-2h8v6.011c.537.408.995.923 1.334 1.527.22-.062.443-.107.666-.138v-9.4h-10v-1.721l-6-2v-2.279h-4v-2c0-3.519-2.613-6.432-6-6.92v-4.08h-2v4.08c-3.387.488-6 3.401-6 6.92v2h-4v2.279l-6 2v1.721h-10v36h38.498l-1.036 3.887 5.091-2.545 2.703 5.405 2.812-9.844c-.676-.128-1.305-.393-1.86-.771zm-14.745-27.253h-6v-6h6zm-3-23c1.627 0 3.061.793 3.974 2h-7.949c.914-1.207 2.348-2 3.975-2zm-5 5c0-.342.035-.677.101-1h9.798c.066.323.101.658.101 1v2h-10zm-4 4h2 2 10 2 2v14h-4v-8h-10v8h-4zm-6 3.721 4-1.333v11.612h-4zm-10 34.279v-32h8v2h-6v28h35.565l-.533 2z"/><path data-cppathid="10004" d="m58.782 49.551c-.548.44-1.167.753-1.823.928l1.502 5.634-2.909-1.455-1.297 2.595-1.463-5.122c-.555.378-1.184.642-1.86.771l2.812 9.844 2.703-5.405 5.091 2.545z"/><path data-cppathid="10005" d="m59 40c0-4.962-4.038-9-9-9s-9 4.038-9 9 4.038 9 9 9 9-4.038 9-9zm-9 7c-3.86 0-7-3.14-7-7s3.14-7 7-7 7 3.14 7 7-3.14 7-7 7z"/><path data-cppathid="10006" d="m50 35v2c1.654 0 3 1.346 3 3h2c0-2.757-2.243-5-5-5z"/><path data-cppathid="10007" d="m21 18h2v2h-2z"/><path data-cppathid="10008" d="m33 18h2v2h-2z"/><path data-cppathid="10009" d="m25 18h2v2h-2z"/><path data-cppathid="10010" d="m29 18h2v2h-2z"/><path data-cppathid="10011" d="m23 34h2v2h-2z"/><path data-cppathid="10012" d="m27 34h8v2h-8z"/><path data-cppathid="10013" d="m23 38h12v2h-12z"/><path data-cppathid="10014" d="m23 42h12v2h-12z"/><path data-cppathid="10015" d="m33 46h2v2h-2z"/><path data-cppathid="10016" d="m23 46h8v2h-8z"/></g></g></svg>