<?xml version="1.0" encoding="UTF-8"?>
<svg xmlns="http://www.w3.org/2000/svg" onmouseup="{ if(window.parent.document.onmouseup) window.parent.document.onmouseup(arguments[0]);}" width="512" viewBox="0 0 60 60" height="512"><g fill-rule="evenodd" fill="none" id="Page-1"><g transform="translate(0 -1)" fill-rule="nonzero" id="036---Dividends"><g transform="translate(1 1)" id="Icons"><path data-cppathid="10000" fill="#ffdc00" d="m24.02 39.29c-.2103922 4.2675849 1.4167504 8.4209847 4.47 11.41-3.0715729 2.1577141-6.7363114 3.3105871-10.49 3.3-4.7221849.0517353-9.2715113-1.7745384-12.64717005-5.0770579-3.37565875-3.3025194-5.30113065-7.8107568-5.35282995-12.5329421 0-8.03 5.49-17.61 13-20.39h10c4.37 1.62 8.05 5.53 10.37 10.11-5.3981496 2.2218947-9.0366917 7.3508771-9.35 13.18z" id="Shape"/><path data-cppathid="10001" fill="#fec108" d="m33.37 26.11c-2.32-4.58-6-8.49-10.37-10.11h-3c4.37 1.62 8.05 5.53 10.37 10.11-5.3981496 2.2218947-9.0366917 7.3508771-9.35 13.18-.2103922 4.2675849 1.4167504 8.4209847 4.47 11.41-2.6330141 1.8496493-5.711211 2.9645378-8.918 3.23.473.036.946.07 1.428.07 3.7536886.0105871 7.4184271-1.1422859 10.49-3.3-3.0532496-2.9890153-4.6803922-7.1424151-4.47-11.41.3133083-5.8291229 3.9518504-10.9581053 9.35-13.18z" id="Shape"/><path data-cppathid="10002" fill="#ffdc00" d="m25.91 5.59-3.2 10.41h-9.42l-3.2-10.41c-.18728185-.60660072-.0754448-1.26609052.3013515-1.77703422s.9737951-.81265012 1.6086485-.81296578h2c.8596962-1.35639451 2.3990667-2.12607978 4-2 1.6009333-.12607978 3.1403038.64360549 4 2h2c.6348534.00031566 1.2318522.30202208 1.6086485.81296578s.4886334 1.1704335.3013515 1.77703422z" id="Shape"/><path data-cppathid="10003" fill="#fec108" d="m24 3h-2c-.8596962-1.35639451-2.3990667-2.12607978-4-2-.5072206.00052061-1.0119562.07084711-1.5.209 1.0349981.24815662 1.9320979.89083892 2.5 1.791h2c.6348534.00031566 1.2318522.30202208 1.6086485.81296578s.4886334 1.1704335.3013515 1.77703422l-3.2 10.41h3l3.2-10.41c.1872819-.60660072.0754448-1.26609052-.3013515-1.77703422s-.9737951-.81265012-1.6086485-.81296578z" id="Shape"/><path data-cppathid="10004" fill="#02a9f4" d="m53.96 38.9c.0236331.2810015-.0707006.5591689-.26039.7678272-.1896894.2086584-.4576343.3289975-.73961.3321728h-12.96c-.5522847 0-1 .4477153-1 1v12.96c-.0031753.2819757-.1235144.5499206-.3321728.73961-.2086583.1896894-.4868257.2840231-.7678272.26039-8.1090849-.5979927-14.2652085-7.5480257-13.88-15.67.3133083-5.8291229 3.9518504-10.9581053 9.35-13.18 1.5650329-.6438239 3.2294846-1.0125744 4.92-1.09 8.1219743-.3852085 15.0720073 5.7709151 15.67 13.88z" id="Shape"/><path data-cppathid="10005" fill="#0377bc" d="m36 41v12.96c-.0033126.2503274-.1032819.4896803-.279.668.7171316.1643584 1.4454607.2753292 2.179.332.2810015.0236331.5591689-.0707006.7678272-.26039.2086584-.1896894.3289975-.4576343.3321728-.73961v-12.96c0-.5522847.4477153-1 1-1h-3c-.5522847 0-1 .4477153-1 1z" id="Shape"/><path data-cppathid="10006" fill="#0377bc" d="m38.29 25.02c-.275.013-.545.046-.816.073 7.2539994.712068 12.9447377 6.5382599 13.486 13.807.0236331.2810015-.0707006.5591689-.26039.7678272-.1896894.2086584-.4576343.3289975-.73961.3321728h3c.2819757-.0031753.5499206-.1235144.73961-.3321728.1896894-.2086583.2840231-.4868257.26039-.7678272-.5979927-8.1090849-7.5480257-14.2652085-15.67-13.88z" id="Shape"/><path data-cppathid="10007" fill="#ef314c" d="m58 45.1c-.5479079 7.4380017-6.4619983 13.3520921-13.9 13.9-.2810015.0236331-.5591689-.0707006-.7678272-.26039-.2086584-.1896894-.3289975-.4576343-.3321728-.73961v-13c0-.5522847.4477153-1 1-1h13c.2819757.0031753.5499206.1235144.73961.3321728.1896894.2086583.2840231.4868257.26039.7678272z" id="Shape"/><path data-cppathid="10008" fill="#bb193b" d="m57 44h-3c.2819757.0031753.5499206.1235144.73961.3321728.1896894.2086583.2840231.4868257.26039.7678272-.491221 6.6112644-5.252811 12.1214349-11.723 13.566.2094311.2304603.5121952.3533318.823.334 7.4380017-.5479079 13.3520921-6.4619983 13.9-13.9.0236331-.2810015-.0707006-.5591689-.26039-.7678272-.1896894-.2086584-.4576343-.3289975-.73961-.3321728z" id="Shape"/></g><g fill="#000" id="Icons_copy"><path data-cppathid="10009" d="m0 37.39c.12030723 10.3803324 8.61940496 18.7049749 19 18.61 3.6718911.0086944 7.2684613-1.0412166 10.359-3.024 2.6309684 2.336908 5.9615658 3.7370811 9.472 3.982.049 0 .1.005.147.005.5140147.0006311 1.0092076-.193373 1.386-.543.4050633-.3767397.635419-.9048194.636-1.458v-12.962h12.962c.5533774-.0010258 1.0815969-.2312847 1.459-.636.3831309-.4147963.5771974-.969841.536-1.533-.5962664-8.6710458-8.0341318-15.2629508-16.714-14.813-1.5066589.0698022-2.9953482.3567622-4.42.852-1.655837-3.1123587-4.002079-5.804431-6.859-7.87h1.036c.5522847 0 1-.4477153 1-1s-.4477153-1-1-1h-3.94l2.806-9.118c.2798119-.90967884.1113785-1.89816615-.4539061-2.66384469-.5652846-.76567853-1.4603534-1.21770604-2.4120939-1.21815531h-1.474c-1.1109771-1.34029964-2.7869987-2.08091899-4.526-2-1.7390013-.08091899-3.4150229.65970036-4.526 2h-1.474c-.9519167.00013208-1.8472799.45202741-2.4127967 1.2177533-.5655168.7657259-.73406681 1.75439958-.4542033 2.6642467l2.807 9.118h-3.94c-.55228475 0-1 .4477153-1 1s.44771525 1 1 1h1.035c-6.14792952 4.5769949-9.84865637 11.7276769-10.035 19.39zm53.962 2.61h-12.962c-1.1045695 0-2 .8954305-2 2l-.024 12.963c-7.3852162-.5402961-13.0724614-6.7381668-12.9773471-14.1425095s5.9396891-13.4540786 13.3363471-13.8044905c.227-.011.451-.016.676-.016 7.3543294-.0319887 13.4650163 5.6617419 13.952 13zm-41.916-33.706c-.0932022-.30300206-.0372133-.63224967.1509055-.88741283.1881187-.25516315.4860826-.40601499.8030945-.40658717h1.322l1.748 4.372c.2054499.51307251.7879275.7624499 1.301.55699997s.7624499-.78792744.557-1.30099997l-1.8-4.494c.7413166-.78590954 1.7937356-1.20145379 2.872-1.134 1.0770826-.06680118 2.1281878.34829195 2.869 1.133l-1.8 4.5c-.2054499.51307253.0439275 1.09555005.557 1.30099997.5130725.20544993 1.0955501-.04392746 1.301-.55699997l1.75-4.377h1.323c.3171881.00025544.6154463.15097531.8037971.40618571.1883508.25521041.2444563.58464409.1512029.88781429l-2.987 9.706h-7.936zm2.154 11.706h9.59c3.562 1.37 6.855 4.5 9.184 8.661-4.4672746 2.1817881-7.6665204 6.3162232-8.6573854 11.1880738-.9908649 4.8718506.3392502 9.9274932 3.5993854 13.6809262-2.6892399 1.6254246-5.7737209 2.4799186-8.916 2.47-9.2765121.0961429-16.88086243-7.3337547-17-16.61 0-7.14 4.9-16.59 12.2-19.39z" id="Shape"/><path data-cppathid="10010" d="m19 40c-1.1045695 0-2-.8954305-2-2 0-.5522847-.4477153-1-1-1s-1 .4477153-1 1c.0068148 1.8184116 1.2393149 3.4034067 3 3.858v1.142c0 .5522847.4477153 1 1 1s1-.4477153 1-1v-1.142c1.9482742-.5014457 3.2190002-2.3742805 2.9650329-4.3699561-.2539674-1.9956755-1.953264-3.4905487-3.9650329-3.4880439-1.1045695 0-2-.8954305-2-2s.8954305-2 2-2 2 .8954305 2 2c0 .5522847.4477153 1 1 1s1-.4477153 1-1c-.0068148-1.8184116-1.2393149-3.4034067-3-3.858v-1.142c0-.5522847-.4477153-1-1-1s-1 .4477153-1 1v1.142c-1.9482742.5014457-3.2190002 2.3742805-2.9650329 4.3699561.2539674 1.9956755 1.953264 3.4905487 3.9650329 3.4880439 1.1045695 0 2 .8954305 2 2s-.8954305 2-2 2z" id="Shape"/><path data-cppathid="10011" d="m43 46v13c-.0021182.5535356.2282728 1.0825281.635 1.458.3796789.3493719.8770388.5428888 1.393.542.05 0 .1 0 .149-.005 7.915925-.6126966 14.2048377-6.9020337 14.817-14.818.0414758-.5664436-.1536755-1.1247428-.539-1.542-.3746195-.4061615-.9024563-.6365232-1.455-.635h-13c-1.1045695 0-2 .8954305-2 2zm15 .03c-.538189 6.9393551-6.0594201 12.4478448-13 12.97v-13h12.99c.0079819.0086166.0116554.0203717.01.032z" id="Shape"/><circle data-cppathid="10012" r="1" cy="31" cx="37" id="Oval"/><circle data-cppathid="10013" r="1" cy="36" cx="42" id="Oval"/><path data-cppathid="10014" d="m37 37c.2651948-.0000566.5195073-.1054506.707-.293l5-5c.3789722-.3923789.3735524-1.0160848-.0121814-1.4018186s-1.0094397-.3911536-1.4018186-.0121814l-5 5c-.2859079.2859943-.3714219.7160366-.216678 1.0896546.1547439.3736179.5192821.6172591.923678.6173454z" id="Shape"/></g></g></g></svg>