<?xml version="1.0" encoding="UTF-8"?>
<svg xmlns="http://www.w3.org/2000/svg" onmouseup="{ if(window.parent.document.onmouseup) window.parent.document.onmouseup(arguments[0]);}" width="512" viewBox="0 0 512 512" height="512" enable-background="new 0 0 512 512" id="Capa_1"><g><path data-cppathid="10000" fill="#f4dd45" d="m448.855 512h-191.916c-11.06 0-20.025-8.966-20.025-20.025v-29.894c0-11.06 8.965-20.025 20.025-20.025h191.916c11.06 0 20.025 8.966 20.025 20.025v29.894c0 11.059-8.965 20.025-20.025 20.025z"/><path data-cppathid="10001" fill="#eab14d" d="m448.855 442.056h-20.785c11.06 0 20.025 8.966 20.025 20.025v29.894c0 11.06-8.966 20.025-20.025 20.025h20.785c11.059 0 20.025-8.966 20.025-20.025v-29.894c.001-11.06-8.965-20.025-20.025-20.025z"/><path data-cppathid="10002" fill="#e49542" d="m448.855 442.056h-191.916c-11.06 0-20.025-8.966-20.025-20.025v-29.894c0-11.06 8.965-20.025 20.025-20.025h191.916c11.06 0 20.025 8.965 20.025 20.025v29.894c0 11.059-8.965 20.025-20.025 20.025z"/><path data-cppathid="10003" fill="#df751c" d="m448.855 372.112h-20.785c11.06 0 20.025 8.966 20.025 20.025v29.894c0 11.059-8.966 20.025-20.025 20.025h20.785c11.059 0 20.025-8.966 20.025-20.025v-29.894c.001-11.059-8.965-20.025-20.025-20.025z"/><path data-cppathid="10004" fill="#f4dd45" d="m448.855 372.112h-191.916c-11.06 0-20.025-8.966-20.025-20.025v-29.894c0-11.06 8.965-20.025 20.025-20.025h191.916c11.06 0 20.025 8.966 20.025 20.025v29.894c0 11.06-8.965 20.025-20.025 20.025z"/><path data-cppathid="10005" fill="#eab14d" d="m448.855 302.169h-20.785c11.06 0 20.025 8.966 20.025 20.025v29.894c0 11.059-8.966 20.025-20.025 20.025h20.785c11.059 0 20.025-8.966 20.025-20.025v-29.894c.001-11.06-8.965-20.025-20.025-20.025z"/><path data-cppathid="10006" fill="#e49542" d="m448.855 302.169h-191.916c-11.06 0-20.025-8.966-20.025-20.025v-29.894c0-11.06 8.965-20.025 20.025-20.025h191.916c11.06 0 20.025 8.966 20.025 20.025v29.894c0 11.059-8.965 20.025-20.025 20.025z"/><path data-cppathid="10007" fill="#df751c" d="m448.855 232.225h-20.785c11.06 0 20.025 8.966 20.025 20.025v29.894c0 11.059-8.966 20.025-20.025 20.025h20.785c11.059 0 20.025-8.966 20.025-20.025v-29.894c.001-11.059-8.965-20.025-20.025-20.025z"/><g><path data-cppathid="10008" fill="#d0e2e7" d="m152.62 305.964h-31.512c-11.399 0-20.64-9.241-20.64-20.64v-264.684c0-11.399 9.241-20.64 20.64-20.64h31.512c11.399 0 20.64 9.241 20.64 20.64v264.683c0 11.4-9.241 20.641-20.64 20.641z"/><path data-cppathid="10009" fill="#b4d0d5" d="m152.62 0h-21.418c11.399 0 20.64 9.24 20.64 20.64v264.683c0 11.399-9.241 20.64-20.64 20.64h21.418c11.399 0 20.64-9.241 20.64-20.64v-264.683c0-11.399-9.241-20.64-20.64-20.64z"/></g><path data-cppathid="10010" fill="#d82e3d" d="m152.62 512h-31.512c-11.399 0-20.64-9.241-20.64-20.64v-259.135h72.792v259.135c0 11.399-9.241 20.64-20.64 20.64z"/><path data-cppathid="10011" fill="#c32430" d="m151.842 232.225v259.135c0 11.398-9.238 20.637-20.635 20.64h21.413c7.837 0 14.654-4.368 18.149-10.802 1.589-2.925 2.491-6.276 2.491-9.839v-259.134z"/><path data-cppathid="10012" fill="#4278c3" d="m96.125 224.334-38.668-24.485c-6.219-3.938-14.337.53-14.337 7.891v48.969c0 7.361 8.118 11.829 14.337 7.891l38.668-24.485c5.791-3.666 5.791-12.114 0-15.781z"/></g></svg>