<?xml version="1.0" encoding="UTF-8"?>
<svg xmlns="http://www.w3.org/2000/svg" onmouseup="{ if(window.parent.document.onmouseup) window.parent.document.onmouseup(arguments[0]);}" xml:space="preserve" style="enable-background:new 0 0 512.016 512.016;" viewBox="0 0 512.016 512.016" y="0px" x="0px" id="Capa_1" version="1.1" xmlns:xlink="http://www.w3.org/1999/xlink"><path data-cppathid="10000" d="M511.936,71.336v243.84c0,17.76-14.24,32-32,32H91.456c-17.76,0-32-14.24-32-32V71.336  c0-17.6,14.24-32,32-32h388.48C497.696,39.336,511.936,53.736,511.936,71.336z" style="fill:#6F7070;"/><rect data-cppathid="10001" height="51.968" width="452.64" style="fill:#464646;" y="97.544" x="59.376"/><g><path data-cppathid="10002" d="M393.968,52.44H290.704c-8.832,0-16,7.152-16,16s7.168,16,16,16h103.264c8.832,0,16-7.152,16-16   C409.968,59.608,402.8,52.44,393.968,52.44z" style="fill:#787878;"/><path data-cppathid="10003" d="M468.576,52.44h-27.984c-8.832,0-16,7.152-16,16s7.168,16,16,16h27.984c8.832,0,16-7.152,16-16   C484.576,59.608,477.424,52.44,468.576,52.44z" style="fill:#787878;"/></g><g><path data-cppathid="10004" d="M179.792,107.528h-78.016c-8.832,0-16,7.152-16,16s7.168,16,16,16h78.016c8.832,0,16-7.152,16-16   C195.792,114.68,188.64,107.528,179.792,107.528z" style="fill:#3E3E3E;"/><path data-cppathid="10005" d="M254.416,107.528h-27.968c-8.832,0-16,7.152-16,16s7.168,16,16,16h27.968c8.832,0,16-7.152,16-16   C270.416,114.68,263.248,107.528,254.416,107.528z" style="fill:#3E3E3E;"/></g><g style="opacity:0.07;"><path data-cppathid="10006" d="M511.936,253.256v61.92c0,17.76-14.24,32-32,32h-38.72l11.04-153.6L511.936,253.256z" style="fill:#010101;"/></g><path data-cppathid="10007" d="M420.608,472.68H32c-17.68,0-32-14.32-32-32V196.792c0-17.664,14.32-32,32-32h388.608  c17.68,0,32,14.336,32,32v243.872C452.608,458.344,438.288,472.68,420.608,472.68z" style="fill:#4B9FD8;"/><g><path data-cppathid="10008" d="M206.72,164.792c-99.84,75.68-170.08,172.64-206.4,279.04c-0.16-1.28-0.32-2.56-0.32-4v-243.84   c0-15.2,10.56-28,24.8-31.2L206.72,164.792L206.72,164.792z" style="fill:#3A9BD6;"/><path data-cppathid="10009" d="M245.904,472.68c99.84-75.68,170.08-172.64,206.4-279.04c0.16,1.28,0.32,2.56,0.32,4v243.84   c0,15.2-10.56,28-24.8,31.2H245.904z" style="fill:#3A9BD6;"/></g><circle data-cppathid="10010" r="38.976" cy="251.768" cx="309.68" style="fill:#FEE218;"/><circle data-cppathid="10011" r="38.976" cy="251.768" cx="365.648" style="fill:#CD494C;"/><g><path data-cppathid="10012" d="M133.92,349.88H58.224c-8.832,0-16-7.152-16-16s7.168-16,16-16h75.696c8.832,0,16,7.152,16,16   C149.92,342.712,142.752,349.88,133.92,349.88z" style="fill:#FFFFFF;"/><path data-cppathid="10013" d="M201.536,267.768H58.224c-8.832,0-16-7.152-16-16s7.168-16,16-16h143.312c8.832,0,16,7.152,16,16   C217.536,260.616,210.368,267.768,201.536,267.768z" style="fill:#FFFFFF;"/></g><path data-cppathid="10014" d="M105.088,431.992h-46.88c-8.832,0-16-7.152-16-16s7.168-16,16-16h46.88c8.832,0,16,7.152,16,16  C121.088,424.824,113.936,431.992,105.088,431.992z" style="fill:#8BD5EC;"/><path data-cppathid="10015" d="M201.536,431.992h-46.88c-8.832,0-16-7.152-16-16s7.168-16,16-16h46.88c8.832,0,16,7.152,16,16  C217.536,424.824,210.368,431.992,201.536,431.992z" style="fill:#DAEFF6;"/><path data-cppathid="10016" d="M297.968,431.992h-46.88c-8.832,0-16-7.152-16-16s7.168-16,16-16h46.88c8.832,0,16,7.152,16,16  C313.968,424.824,306.8,431.992,297.968,431.992z" style="fill:#8BD5EC;"/><path data-cppathid="10017" d="M394.4,431.992h-46.88c-8.832,0-16-7.152-16-16s7.168-16,16-16h46.88c8.832,0,16,7.152,16,16  C410.4,424.824,403.232,431.992,394.4,431.992z" style="fill:#DAEFF6;"/><g/><g/><g/><g/><g/><g/><g/><g/><g/><g/><g/><g/><g/><g/><g/></svg>