<?xml version="1.0" encoding="UTF-8"?>
<svg xmlns="http://www.w3.org/2000/svg" onmouseup="{ if(window.parent.document.onmouseup) window.parent.document.onmouseup(arguments[0]);}" width="512" viewBox="0 0 64 64" height="512"><g id="Captions"><g><g><path data-cppathid="10000" fill="#00a0c8" d="m43 14h-.423c-.456 0-.836-.316-.961-.755-.213-.744-.509-1.452-.879-2.113-.216-.387-.173-.867.141-1.181l.315-.315c.391-.391.391-1.024 0-1.414l-1.414-1.414c-.391-.391-1.024-.391-1.414 0l-.315.315c-.314.314-.793.358-1.181.141-.662-.37-1.37-.666-2.113-.879-.44-.126-.756-.506-.756-.962v-.423c0-.552-.448-1-1-1h-2c-.552 0-1 .448-1 1v.423c0 .456-.316.836-.755.961-.744.213-1.452.51-2.113.879-.388.216-.867.173-1.181-.141l-.315-.315c-.391-.391-1.024-.391-1.414 0l-1.414 1.414c-.391.391-.391 1.024 0 1.414l.315.315c.314.314.358.793.141 1.181-.37.662-.666 1.37-.879 2.113-.126.44-.506.756-.962.756h-.423c-.552 0-1 .448-1 1v2c0 .552.448 1 1 1h.423c.456 0 .836.316.961.755.213.744.509 1.452.879 2.113.216.388.173.867-.141 1.181l-.315.315c-.391.39-.391 1.024 0 1.414l1.414 1.414c.391.391 1.024.391 1.414 0l.315-.315c.314-.314.793-.358 1.181-.141.662.37 1.37.666 2.113.879.44.126.756.506.756.962v.423c0 .552.448 1 1 1h2c.552 0 1-.448 1-1v-.423c0-.456.316-.836.755-.961.744-.213 1.452-.51 2.113-.879.388-.217.867-.173 1.181.141l.315.315c.391.391 1.024.391 1.414 0l1.414-1.414c.391-.39.391-1.024 0-1.414l-.315-.315c-.314-.314-.358-.793-.141-1.181.37-.662.666-1.37.879-2.113.126-.44.506-.756.962-.756h.423c.552 0 1-.448 1-1v-2c0-.552-.448-1-1-1zm-11 8c-3.314 0-6-2.686-6-6s2.686-6 6-6 6 2.686 6 6-2.686 6-6 6z"/></g><path data-cppathid="10001" fill="#0082aa" d="m39.848 23.766c.31-.748.139-1.607-.434-2.18l-2.357-2.356c-1.066 1.666-2.932 2.77-5.057 2.77s-3.991-1.104-5.058-2.771l-2.357 2.356c-.572.572-.743 1.432-.434 2.18.288.696.941 1.166 1.683 1.227l.115-.115c.314-.314.793-.358 1.181-.141.166.093.334.18.505.264h.365v.166c.402.176.817.327 1.245.449.439.126.755.506.755.962v.423c0 .552.448 1 1 1h2c.552 0 1-.448 1-1v-.423c0-.456.316-.836.755-.961.428-.122.843-.273 1.245-.449v-.167h.363c.171-.083.34-.171.505-.264.388-.217.867-.173 1.181.141l.115.115c.742-.06 1.395-.53 1.684-1.226z"/><path data-cppathid="10002" fill="#c80a50" d="m39.414 22.586-6-6c-.781-.781-2.047-.781-2.828 0l-6 6c-.572.572-.743 1.432-.434 2.18.31.747 1.039 1.234 1.848 1.234h2v18h8v-18h2c.809 0 1.538-.487 1.848-1.234.309-.748.138-1.608-.434-2.18z"/><g><path data-cppathid="10003" fill="#a00028" d="m34 41h-4c-1.105 0-2 .895-2 2v-2c0-1.105.895-2 2-2h4c1.105 0 2 .895 2 2v2c0-1.105-.895-2-2-2z"/></g><g><g><g><path data-cppathid="10004" fill="#0a5078" d="m32 60h-16v-13c0-1.657 1.343-3 3-3h10c1.657 0 3 1.343 3 3z"/></g><g><path data-cppathid="10005" fill="#00325a" d="m22 52h-3v-2.184c1.163-.413 2-1.512 2-2.816v-3h-2c-1.657 0-3 1.343-3 3v13h9v-5c0-1.657-1.343-3-3-3z"/></g><g><path data-cppathid="10006" fill="#d2aa82" d="m24 46c-1.105 0-2-.895-2-2v-3h4v3c0 1.105-.895 2-2 2z"/></g><g><path data-cppathid="10007" fill="#f0c8a0" d="m25 42h-2c-1.657 0-3-1.343-3-3v-3c0-1.105.895-2 2-2h4c1.105 0 2 .895 2 2v3c0 1.657-1.343 3-3 3z"/></g><g><path data-cppathid="10008" fill="#0a5078" d="m26 34h-4c-1.105 0-2 .895-2 2v-2c0-1.105.895-2 2-2h4c1.105 0 2 .895 2 2v2c0-1.105-.895-2-2-2z"/></g></g><g><g><path data-cppathid="10009" fill="#fab400" d="m48 60h-16v-13c0-1.657 1.343-3 3-3h10c1.657 0 3 1.343 3 3z"/></g><g><path data-cppathid="10010" fill="#dc9600" d="m38 52h-3v-2.184c1.163-.413 2-1.512 2-2.816v-3h-2c-1.657 0-3 1.343-3 3v13h9v-5c0-1.657-1.343-3-3-3z"/></g><g><path data-cppathid="10011" fill="#d2aa82" d="m40 46c-1.105 0-2-.895-2-2v-3h4v3c0 1.105-.895 2-2 2z"/></g><g><path data-cppathid="10012" fill="#f0c8a0" d="m41 42h-2c-1.657 0-3-1.343-3-3v-3c0-1.105.895-2 2-2h4c1.105 0 2 .895 2 2v3c0 1.657-1.343 3-3 3z"/></g><g><path data-cppathid="10013" fill="#0a5078" d="m42 34h-4c-1.105 0-2 .895-2 2v-2c0-1.105.895-2 2-2h4c1.105 0 2 .895 2 2v2c0-1.105-.895-2-2-2z"/></g></g><g><g><path data-cppathid="10014" fill="#fab400" d="m24 60h-16v-5c0-1.657 1.343-3 3-3h10c1.657 0 3 1.343 3 3z"/></g><g><path data-cppathid="10015" fill="#d2aa82" d="m16 54c-1.105 0-2-.895-2-2v-3h4v3c0 1.105-.895 2-2 2z"/></g><g><path data-cppathid="10016" fill="#f0c8a0" d="m17 50h-2c-1.657 0-3-1.343-3-3v-3c0-1.105.895-2 2-2h4c1.105 0 2 .895 2 2v3c0 1.657-1.343 3-3 3z"/></g><g><path data-cppathid="10017" fill="#0a5078" d="m18 42h-4c-1.105 0-2 .895-2 2v-2c0-1.105.895-2 2-2h4c1.105 0 2 .895 2 2v2c0-1.105-.895-2-2-2z"/></g></g><g><g><path data-cppathid="10018" fill="#00a0c8" d="m40 60h-16v-5c0-1.657 1.343-3 3-3h10c1.657 0 3 1.343 3 3z"/></g><g><path data-cppathid="10019" fill="#0082aa" d="m24.5 53.342c-.316.475-.5 1.045-.5 1.658v5h1v-5c0-.613-.184-1.183-.5-1.658z"/></g><g><path data-cppathid="10020" fill="#d2aa82" d="m32 54c-1.105 0-2-.895-2-2v-3h4v3c0 1.105-.895 2-2 2z"/></g><g><path data-cppathid="10021" fill="#f0c8a0" d="m33 50h-2c-1.657 0-3-1.343-3-3v-3c0-1.105.895-2 2-2h4c1.105 0 2 .895 2 2v3c0 1.657-1.343 3-3 3z"/></g><g><path data-cppathid="10022" fill="#0a5078" d="m34 42h-4c-1.105 0-2 .895-2 2v-2c0-1.105.895-2 2-2h4c1.105 0 2 .895 2 2v2c0-1.105-.895-2-2-2z"/></g></g><g><g><path data-cppathid="10023" fill="#0a5078" d="m56 60h-16v-5c0-1.657 1.343-3 3-3h10c1.657 0 3 1.343 3 3z"/></g><g><path data-cppathid="10024" fill="#00325a" d="m40.5 53.342c-.316.475-.5 1.045-.5 1.658v5h1v-5c0-.613-.184-1.183-.5-1.658z"/></g><g><path data-cppathid="10025" fill="#d2aa82" d="m48 54c-1.105 0-2-.895-2-2v-3h4v3c0 1.105-.895 2-2 2z"/></g><g><path data-cppathid="10026" fill="#f0c8a0" d="m49 50h-2c-1.657 0-3-1.343-3-3v-3c0-1.105.895-2 2-2h4c1.105 0 2 .895 2 2v3c0 1.657-1.343 3-3 3z"/></g><g><path data-cppathid="10027" fill="#0a5078" d="m50 42h-4c-1.105 0-2 .895-2 2v-2c0-1.105.895-2 2-2h4c1.105 0 2 .895 2 2v2c0-1.105-.895-2-2-2z"/></g></g></g></g></g></svg>