<?xml version="1.0" encoding="UTF-8"?>
<svg xmlns="http://www.w3.org/2000/svg" onmouseup="{ if(window.parent.document.onmouseup) window.parent.document.onmouseup(arguments[0]);}" width="512" viewBox="0 0 453 453" height="512" enable-background="new 0 0 453 453" id="Layer_1"><g id="XMLID_3910_"><g id="XMLID_3553_"><g id="XMLID_3785_"><g id="XMLID_3791_"><path data-cppathid="10000" d="m256.644 352.833c-8.284 0-15-6.716-15-15v-91.01c0-8.284 6.716-15 15-15s15 6.716 15 15v91.01c0 8.284-6.716 15-15 15z"/></g><g id="XMLID_3790_"><path data-cppathid="10001" d="m196.485 352.833c-8.284 0-15-6.716-15-15v-42.378c0-8.284 6.716-15 15-15s15 6.716 15 15v42.378c0 8.284-6.716 15-15 15z"/></g><g id="XMLID_3789_"><path data-cppathid="10002" d="m316.982 352.833c-8.284 0-15-6.716-15-15v-63.221c0-8.284 6.716-15 15-15s15 6.716 15 15v63.221c0 8.284-6.716 15-15 15z"/></g><g id="XMLID_3788_"><path data-cppathid="10003" d="m377.141 352.833c-8.284 0-15-6.716-15-15v-125.746c0-8.284 6.716-15 15-15s15 6.716 15 15v125.746c0 8.284-6.716 15-15 15z"/></g><g id="XMLID_3787_"><path data-cppathid="10004" d="m136.326 352.833c-8.284 0-15-6.716-15-15v-77.115c0-8.284 6.716-15 15-15s15 6.716 15 15v77.115c0 8.284-6.716 15-15 15z"/></g><g id="XMLID_3786_"><path data-cppathid="10005" d="m76.167 352.833c-8.284 0-15-6.716-15-15v-28.483c0-8.284 6.716-15 15-15s15 6.716 15 15v28.483c0 8.284-6.716 15-15 15z"/></g></g><path data-cppathid="10006" d="m393.334 145.406-10.728-34.673c-2.491-8.075-11.547-12.554-19.478-9.655l-33.151 12.114c-7.781 2.844-11.784 11.456-8.94 19.237 2.752 7.531 10.907 11.506 18.486 9.173l-26.97 58.312-35.293-47.139c-10.979-14.669-34.053-13.397-43.362 2.385l-40.064 67.923-37.542-40.78c-10.814-11.746-30.175-10.87-39.891 1.787l-53.202 69.313c-4.609 6.004-3.931 14.789 1.561 20.003 6.371 6.048 16.887 5.234 22.237-1.738l50.373-65.626 37.963 41.237c11.691 12.7 32.913 10.42 41.669-4.423l39.76-67.406 35.705 47.688c11.657 15.57 36.423 12.928 44.572-4.694l28.591-61.817c3.595 7.107 12.422 10.157 19.652 6.834 6.749-3.104 10.248-10.956 8.052-18.055z"/></g><g id="XMLID_91_"><path data-cppathid="10007" d="m438 408.5h-421.9c-8.284 0-15-6.716-15-15v-181.48c0-8.284 6.716-15 15-15s15 6.716 15 15v166.48h391.9v-304h-391.9v26.188c0 8.284-6.716 15-15 15s-15-6.716-15-15v-41.188c0-8.284 6.716-15 15-15h421.9c8.284 0 15 6.716 15 15v334c0 8.284-6.716 15-15 15z"/></g><g id="XMLID_44_"><ellipse data-cppathid="10008" ry="16.161" rx="16.1" cy="156.514" cx="16.1"/></g></g></svg>