<?xml version="1.0" encoding="UTF-8"?>
<svg xmlns="http://www.w3.org/2000/svg" onmouseup="{ if(window.parent.document.onmouseup) window.parent.document.onmouseup(arguments[0]);}" width="512" viewBox="0 0 512 512" height="512" enable-background="new 0 0 512 512" id="Capa_1"><g><path data-cppathid="10000" fill="#ffcebf" d="m200.902 210.016h14.007c8.969 0 16.24-7.271 16.24-16.24v-1.066c0-8.969-7.271-16.24-16.24-16.24h-14.007z"/><path data-cppathid="10001" fill="#596c76" d="m500.922 232.566c22.589-67.584 1.352-205.716-116.115-206.621v-.021c-.194 0-.382.01-.575.011-.194-.001-.381-.011-.575-.011v.021c-117.467.906-138.704 139.037-116.115 206.621 2.629 7.866 6.217 15.592 7.015 23.747 2.858 29.214-9.43 58.223-5.041 87.438 3.453 22.986 29.518 45.36 53.675 54.244 19.074 7.015 40.277 8.682 61.041 8.274 20.764.409 41.967-1.259 61.041-8.274 24.157-8.884 50.222-31.259 53.675-54.244 4.389-29.215-7.899-58.224-5.041-87.438.798-8.155 4.386-15.881 7.015-23.747z"/><path data-cppathid="10002" fill="#465a61" d="m493.909 256.318c-2.862 29.203 9.429 58.222 5.044 87.435-3.459 22.986-29.522 45.354-53.682 54.238-19.074 7.02-40.28 8.688-61.042 8.276-3.768.072-7.556.082-11.344 0 17.057-.371 34.082-2.532 49.688-8.276 24.159-8.884 50.223-31.252 53.672-54.238 4.395-29.214-7.895-58.232-5.044-87.435.803-8.163 4.395-15.883 7.02-23.748 21.874-65.468 2.635-197.115-105.336-206.143 3.489-.288 7.082-.453 10.767-.484v-.02c.196 0 .381.01.577.01s.381-.01.576-.01v.02c117.472.906 138.708 139.038 116.114 206.627-2.625 7.865-6.217 15.585-7.01 23.748z"/><path data-cppathid="10003" fill="#596c76" d="m147.033 20.74c-9.048-27.609-50.76-27.698-59.836.001-5.303 16.183 1.639 35.539 16.017 44.664h27.801c14.38-9.125 21.322-28.481 16.018-44.665z"/><path data-cppathid="10004" fill="#465a61" d="m131.013 65.4h-20.588c14.38-9.12 21.318-28.472 16.017-44.665-3.284-10.016-10.87-16.408-19.63-19.167 15.399-4.848 34.453 1.565 40.218 19.167 5.302 16.193-1.636 35.545-16.017 44.665z"/><path data-cppathid="10005" fill="#d78878" d="m122.518 307.76h126.161v37.107h-126.161z"/><path data-cppathid="10006" fill="#fe7ab6" d="m215.2 405.84v106.16h-196.17v-109.27c0-52.45 42.52-94.97 94.97-94.97h3.11c27.09 0 51.61 10.98 69.36 28.72 17.75 17.76 28.73 42.28 28.73 69.36z"/><path data-cppathid="10007" fill="#fe5ca7" d="m215.2 405.84v106.16h-18.01v-106.16c0-27.08-10.99-51.6-28.73-69.36-15.76-15.75-36.86-26.17-60.35-28.31 2.96-.28 5.97-.41 9-.41 27.09 0 51.61 10.98 69.36 28.72 17.75 17.76 28.73 42.28 28.73 69.36z"/><path data-cppathid="10008" fill="#ffcebf" d="m135.891 316.466v-29.857h-37.552v29.857c0 10.37 8.406 18.776 18.776 18.776 10.37 0 18.776-8.406 18.776-18.776z"/><g><g><path data-cppathid="10009" fill="#fe3d97" d="m70.218 400.071v111.924h-15.44v-111.924c0-4.262 3.448-7.72 7.72-7.72 4.262 0 7.72 3.459 7.72 7.72z"/></g><g><path data-cppathid="10010" fill="#fe3d97" d="m179.456 400.071v111.924h-15.441v-111.924c0-4.262 3.459-7.72 7.72-7.72s7.721 3.459 7.721 7.72z"/></g></g><path data-cppathid="10011" fill="#ffcebf" d="m203.5 157.578v49.564c0 47.71-38.675 86.385-86.385 86.385s-86.385-38.675-86.385-86.385v-56.397l6.037-14.626 82.416-18.149z"/><path data-cppathid="10012" fill="#ffb09e" d="m203.501 157.578v49.567c0 47.707-38.68 86.386-86.386 86.386-3.281 0-6.523-.184-9.706-.544 43.251-4.97 75.862-42.501 75.862-89.334v-46.076h20.23z"/><path data-cppathid="10013" fill="#ffcebf" d="m33.054 210.016h-13.732c-8.969 0-16.24-7.271-16.24-16.24v-1.066c0-8.969 7.271-16.24 16.24-16.24h13.731v33.546z"/><path data-cppathid="10014" fill="#596c76" d="m183.905 97.947c-12.456-14.765-30.07-25.526-49.642-30.203-5.743-1.372-11.471-1.97-17.148-1.899-5.677-.071-11.405.526-17.148 1.899-19.571 4.678-37.185 15.439-49.642 30.203-12.657 15.002-19.595 33.746-19.595 52.799v25.29c40.278-3.427 60.333-26.994 84.578-52.5.98-1.031 2.633-1.031 3.614 0 24.245 25.506 44.3 49.073 84.578 52.5 0 0 0-25.289 0-25.29 0-19.053-6.939-37.797-19.595-52.799z"/><path data-cppathid="10015" fill="#465a61" d="m203.502 150.746v25.292c-7.514-.638-14.329-1.987-20.588-3.901v-21.39c0-19.054-6.938-37.799-19.599-52.797-12.456-14.772-30.068-25.528-49.636-30.202-2.285-.546-4.57-.978-6.856-1.287 3.448-.463 6.876-.659 10.294-.618 5.672-.072 11.405.525 17.149 1.904 19.568 4.673 37.181 15.43 49.636 30.202 12.662 14.998 19.6 33.743 19.6 52.797z"/><path data-cppathid="10016" fill="#8ac9fe" d="m156.179 51.603c-.293-3.719-3.37-6.598-7.101-6.598h-63.926c-3.731 0-6.808 2.879-7.101 6.598-.437 5.556-.358 13.613 2.581 20.111 1.161 2.568 3.698 4.237 6.517 4.237h59.933c2.818 0 5.356-1.669 6.517-4.237 2.938-6.498 3.018-14.556 2.58-20.111z"/><path data-cppathid="10017" fill="#60b7ff" d="m153.598 71.71c-1.163 2.573-3.696 4.241-6.516 4.241h-20.588c2.82 0 5.353-1.668 6.516-4.241 2.944-6.495 3.016-14.555 2.584-20.104-.299-3.726-3.376-6.598-7.103-6.598h20.588c3.726 0 6.804 2.872 7.103 6.598.432 5.549.36 13.609-2.584 20.104z"/><g><g><path data-cppathid="10018" fill="#596c76" d="m86.297 213.249c-4.143 0-7.5-3.357-7.5-7.5v-13.5c0-4.143 3.357-7.5 7.5-7.5s7.5 3.357 7.5 7.5v13.5c0 4.143-3.358 7.5-7.5 7.5z"/></g><g><path data-cppathid="10019" fill="#596c76" d="m147.935 213.249c-4.143 0-7.5-3.357-7.5-7.5v-13.5c0-4.143 3.357-7.5 7.5-7.5s7.5 3.357 7.5 7.5v13.5c0 4.143-3.358 7.5-7.5 7.5z"/></g></g><path data-cppathid="10020" fill="#fee97d" d="m315.374 511.997h166.941v-106.152c0-54.17-43.914-98.084-98.084-98.084h-135.552v37.107h66.695z"/><path data-cppathid="10021" fill="#fee45a" d="m482.317 405.843v106.157h-18.016v-106.157c0-27.086-10.98-51.606-28.726-69.36-15.764-15.755-36.86-26.177-60.352-28.311 2.964-.279 5.972-.414 9.008-.414 27.086 0 51.606 10.98 69.36 28.726 17.746 17.753 28.726 42.273 28.726 69.359z"/><path data-cppathid="10022" fill="#d78878" d="m403.008 316.466v-29.857h-37.553v29.857c0 10.37 8.406 18.776 18.776 18.776 10.37 0 18.777-8.406 18.777-18.776z"/><g><g><path data-cppathid="10023" fill="#f4d902" d="m446.568 400.071v111.924h-15.441v-111.924c0-4.262 3.459-7.72 7.72-7.72 4.273 0 7.721 3.459 7.721 7.72z"/></g></g><path data-cppathid="10024" fill="#d78878" d="m470.616 179.97v27.172c0 47.71-38.675 86.385-86.385 86.385s-86.385-38.675-86.385-86.385v-31.107l4.264-12.885 1.962-12.405 112.173-20.915z"/><path data-cppathid="10025" fill="#ca6e59" d="m470.618 175.726v31.419c0 47.707-38.68 86.386-86.386 86.386-3.281 0-6.523-.184-9.706-.544 43.251-4.97 76.903-43.543 76.903-90.376v-35.376z"/><path data-cppathid="10026" fill="#596c76" d="m470.616 176.035s0-25.289 0-25.29c0-19.053-6.938-37.796-19.595-52.799-12.456-14.765-30.07-25.526-49.642-30.203-5.742-1.372-11.471-1.97-17.148-1.899-5.677-.071-11.405.526-17.148 1.899-19.571 4.678-37.185 15.439-49.642 30.203-12.657 15.002-19.595 33.746-19.595 52.799v25.29s77.914-12.291 116.152-41.355c1.526-1.16 3.712-.751 4.685.9 4.97 8.43 20.823 31.117 51.933 40.455z"/><g><g><path data-cppathid="10027" fill="#596c76" d="m353.413 213.249c-4.143 0-7.5-3.357-7.5-7.5v-13.5c0-4.143 3.357-7.5 7.5-7.5s7.5 3.357 7.5 7.5v13.5c0 4.143-3.357 7.5-7.5 7.5z"/></g><g><path data-cppathid="10028" fill="#596c76" d="m415.051 213.249c-4.143 0-7.5-3.357-7.5-7.5v-13.5c0-4.143 3.357-7.5 7.5-7.5s7.5 3.357 7.5 7.5v13.5c0 4.143-3.358 7.5-7.5 7.5z"/></g></g></g></svg>