<?xml version="1.0" encoding="UTF-8"?>
<svg xmlns="http://www.w3.org/2000/svg" onmouseup="{ if(window.parent.document.onmouseup) window.parent.document.onmouseup(arguments[0]);}" data-name="Filled Expand" width="512" viewBox="0 0 64 64" height="512" id="Filled_Expand"><path data-cppathid="10000" fill="#eceff0" d="m12 40h41v-6h-41a3 3 0 0 0 -3 3 3 3 0 0 0 3 3z"/><path data-cppathid="10001" fill="#dedfdf" d="m10.4121 48a5.5 5.5 0 0 0 -5.4993 5.4114 5.5 5.5 0 0 0 5.4993 5.5886s50.5879-.0125 50.5879-.0277v-10.9446c0-.0153-50.5879-.0277-50.5879-.0277z"/><path data-cppathid="10002" fill="#db3a3a" d="m4.8227 53.5a5.5 5.5 0 0 1 5.5-5.5h50.6773a2 2 0 0 0 2-2 2 2 0 0 0 -2-2h-50.5a9.5 9.5 0 0 0 -9.5 9.5 9.5 9.5 0 0 0 9.5 9.5h50.5a2 2 0 0 0 2-2 2 2 0 0 0 -2-2h-50.6773a5.5 5.5 0 0 1 -5.5-5.5z"/><path data-cppathid="10003" fill="#5783e4" d="m12 40h41a2 2 0 0 1 2 2 2 2 0 0 1 -2 2h-40.9756a7 7 0 0 1 -7-7 7 7 0 0 1 7-7h40.9756a2 2 0 0 1 2 2 2 2 0 0 1 -2 2h-41a3 3 0 0 0 -3 3 3 3 0 0 0 3 3z"/><path data-cppathid="10004" fill="#414141" d="m17 30s3.75 5 15 5 15-5 15-5v-14h-30z"/><path data-cppathid="10005" fill="#5a5a5a" d="m32 2-25 10 25 10 25-10z"/><path data-cppathid="10006" fill="#ffdc32" d="m50 36h6l-2-12h-2z"/><circle data-cppathid="10007" r="2.5" fill="#facd1e" cy="24" cx="53"/><path data-cppathid="10008" d="m62 58.1843v-9.3686a2.9926 2.9926 0 0 0 -1-5.8157h-5.1843a2.9635 2.9635 0 0 0 .1843-1 2.995 2.995 0 0 0 -2-2.8157v-2.1843h3.1807l-1.7491-10.4916a3.4776 3.4776 0 0 0 -1.4316-5.8452v-4.3527l-2.6039-.9919 8.2963-3.3186-27.6924-11.0771-27.6924 11.0771 11.6924 4.6771v12.3229h-4a7.9913 7.9913 0 0 0 -4.6614 14.4884 10.4993 10.4993 0 0 0 3.1614 20.5116h50.5a2.9926 2.9926 0 0 0 1-5.8157zm-2-7.1843h-18v2h18v5h-49.6772a4.5 4.5 0 0 1 0-9h49.6772zm-8-12h-40a2 2 0 0 1 0-4h11.9755a30.1154 30.1154 0 0 0 8.0245 1 30.1148 30.1148 0 0 0 8.0245-1h9.1283l-.3335 2h3.1807zm-4.551-8h2.371l-.3334 2h-4.6253a12.1476 12.1476 0 0 0 2.5877-2zm7.37 4h-3.6383l1.2593-7.5566a2.8 2.8 0 0 0 1.12 0zm-.319-11a1.5 1.5 0 1 1 -1.5-1.5 1.5017 1.5017 0 0 1 1.5 1.5zm-2.5-6.31v2.9737a3.4776 3.4776 0 0 0 -1.4316 5.8452l-.4154 2.4911h-2.153v-12.3229l.6548-.262zm-20-14.6129 22.3076 8.9229-5.67 2.2679-16.2816-6.2025-.712 1.8692 14.2527 5.43-13.8967 5.5583-22.3076-8.9229zm0 20 14-5.6v12.144c-.896.9289-4.8447 4.3789-14 4.3789-9.165 0-13.1123-3.458-14-4.3779v-12.145zm-26 13.9229a6.0066 6.0066 0 0 1 6-6h4.551a12.1476 12.1476 0 0 0 2.5877 2h-7.1387a4 4 0 0 0 0 8h41a1 1 0 0 1 0 2h-41a6.0066 6.0066 0 0 1 -6-6zm55 25h-50.5a8.5 8.5 0 0 1 0-17h50.5a1 1 0 0 1 0 2h-50.6772a6.5 6.5 0 0 0 0 13h50.6772a1 1 0 0 1 0 2z"/><path data-cppathid="10009" d="m10 54h28v2h-28z"/></svg>