<?xml version="1.0" encoding="UTF-8"?>
<svg xmlns="http://www.w3.org/2000/svg" onmouseup="{ if(window.parent.document.onmouseup) window.parent.document.onmouseup(arguments[0]);}" xml:space="preserve" style="enable-background:new 0 0 512 512;" viewBox="0 0 512 512" y="0px" x="0px" id="Capa_1" version="1.1" xmlns:xlink="http://www.w3.org/1999/xlink"><g><g><g><path data-cppathid="10000" d="M502,81c5.522,0,10-4.477,10-10V10c0-5.523-4.478-10-10-10h-61c-5.522,0-10,4.477-10,10c0,6.065-4.935,11-11,11     s-11-4.935-11-11c0-5.523-4.478-10-10-10h-40c-5.522,0-10,4.477-10,10c0,6.065-4.935,11-11,11s-11-4.935-11-11     c0-5.523-4.478-10-10-10h-40c-5.522,0-10,4.477-10,10c0,6.065-4.935,11-11,11s-11-4.935-11-11c0-5.523-4.478-10-10-10h-40     c-5.522,0-10,4.477-10,10c0,6.065-4.935,11-11,11s-11-4.935-11-11c0-5.523-4.478-10-10-10h-40c-5.522,0-10,4.477-10,10     c0,6.065-4.935,11-11,11s-11-4.935-11-11c0-5.523-4.478-10-10-10H10C4.478,0,0,4.477,0,10v61c0,5.523,4.478,10,10,10     c6.065,0,11,4.935,11,11s-4.935,11-11,11c-5.522,0-10,4.477-10,10v40c0,5.523,4.478,10,10,10c6.065,0,11,4.935,11,11     s-4.935,11-11,11c-5.522,0-10,4.477-10,10v40c0,5.523,4.478,10,10,10c6.065,0,11,4.935,11,11s-4.935,11-11,11     c-5.522,0-10,4.477-10,10v40c0,5.523,4.478,10,10,10c6.065,0,11,4.935,11,11s-4.935,11-11,11c-5.522,0-10,4.477-10,10v40     c0,5.523,4.478,10,10,10c6.065,0,11,4.935,11,11s-4.935,11-11,11c-5.522,0-10,4.477-10,10v61c0,5.523,4.478,10,10,10h61     c5.522,0,10-4.477,10-10c0-6.065,4.935-11,11-11s11,4.935,11,11c0,5.523,4.478,10,10,10h40c5.522,0,10-4.477,10-10     c0-6.065,4.935-11,11-11s11,4.935,11,11c0,5.523,4.478,10,10,10h40c5.522,0,10-4.477,10-10c0-6.065,4.935-11,11-11     s11,4.935,11,11c0,5.523,4.478,10,10,10h40c5.522,0,10-4.477,10-10c0-6.065,4.935-11,11-11s11,4.935,11,11     c0,5.523,4.478,10,10,10h40c5.522,0,10-4.477,10-10c0-6.065,4.935-11,11-11s11,4.935,11,11c0,5.523,4.478,10,10,10h61     c5.522,0,10-4.477,10-10v-61c0-5.523-4.478-10-10-10c-6.065,0-11-4.935-11-11s4.935-11,11-11c5.522,0,10-4.477,10-10v-40     c0-5.523-4.478-10-10-10c-6.065,0-11-4.935-11-11s4.935-11,11-11c5.522,0,10-4.477,10-10v-40c0-5.523-4.478-10-10-10     c-6.065,0-11-4.935-11-11s4.935-11,11-11c5.522,0,10-4.477,10-10v-40c0-5.523-4.478-10-10-10c-6.065,0-11-4.935-11-11     s4.935-11,11-11c5.522,0,10-4.477,10-10v-40c0-5.523-4.478-10-10-10c-6.065,0-11-4.935-11-11S495.935,81,502,81z M492,62.655     C479.798,66.824,471,78.404,471,92s8.798,25.176,21,29.345v23.31c-12.202,4.169-21,15.749-21,29.345s8.798,25.176,21,29.345     v23.31c-12.202,4.169-21,15.749-21,29.345s8.798,25.176,21,29.345v23.31c-12.202,4.169-21,15.749-21,29.345     s8.798,25.176,21,29.345v23.31c-12.202,4.169-21,15.749-21,29.345s8.798,25.176,21,29.345V492h-42.654     c-4.17-12.202-15.749-21-29.346-21c-13.597,0-25.176,8.798-29.346,21h-23.309c-4.17-12.202-15.749-21-29.346-21     c-13.597,0-25.176,8.798-29.346,21h-23.309c-4.17-12.202-15.749-21-29.346-21c-13.597,0-25.176,8.798-29.346,21h-23.309     c-4.17-12.202-15.749-21-29.346-21c-13.597,0-25.176,8.798-29.346,21h-23.309c-4.17-12.202-15.749-21-29.346-21     s-25.176,8.798-29.346,21H20v-42.655c12.202-4.169,21-15.749,21-29.345s-8.798-25.176-21-29.345v-23.31     c12.202-4.169,21-15.749,21-29.345s-8.798-25.176-21-29.345v-23.31c12.202-4.169,21-15.749,21-29.345s-8.798-25.176-21-29.345     v-23.31c12.202-4.169,21-15.749,21-29.345s-8.798-25.176-21-29.345v-23.31C32.202,117.176,41,105.596,41,92     s-8.798-25.176-21-29.345V20h42.654C66.824,32.202,78.403,41,92,41s25.176-8.798,29.346-21h23.309     c4.17,12.202,15.749,21,29.346,21c13.597,0,25.176-8.798,29.346-21h23.309c4.17,12.202,15.749,21,29.346,21     s25.176-8.798,29.346-21h23.309c4.17,12.202,15.749,21,29.346,21c13.597,0,25.176-8.798,29.346-21h23.309     c4.17,12.202,15.749,21,29.346,21c13.597,0,25.176-8.798,29.346-21H492V62.655z"/><path data-cppathid="10001" d="M426,96c0-5.523-4.478-10-10-10H96c-5.522,0-10,4.477-10,10v320c0,5.523,4.478,10,10,10h210.292     c15.156,14.833,35.877,24,58.708,24c46.317,0,84-37.682,84-84c0-22.311-8.76-42.602-23-57.659V96z M106,106h300v144.542     L262.602,130.514c-3.715-3.108-9.123-3.108-12.838,0l-32.057,26.832C211.129,141.321,195.369,130,177,130     c-24.262,0-44,19.738-44,44c0,15.517,8.071,29.307,20.426,37.151L106,250.848V106z M200.865,171.444l-30.584,25.6     C160.196,194.126,153,184.83,153,174c0-13.233,10.767-24,24-24C189.37,150,199.585,159.408,200.865,171.444z M106,406V276.931     l150.183-125.707L406,276.625v16.1C393.864,285.907,379.883,282,365,282c-46.317,0-84,37.682-84,84c0,14.472,3.679,28.1,10.15,40     H106z M429,366c0,35.29-28.71,64-64,64c-35.29,0-64-28.71-64-64c0-35.29,28.71-64,64-64C400.29,302,429,330.71,429,366z"/><path data-cppathid="10002" d="M365,321c-24.813,0-45,20.187-45,45s20.187,45,45,45s45-20.187,45-45S389.813,321,365,321z M365,391     c-13.785,0-25-11.215-25-25c0-13.785,11.215-25,25-25c13.785,0,25,11.215,25,25C390,379.785,378.785,391,365,391z"/><path data-cppathid="10003" d="M135,347h78c5.51,0,10-4.49,10-10s-4.49-10-10-10h-78c-5.51,0-10,4.49-10,10S129.49,347,135,347z"/><path data-cppathid="10004" d="M253,327c-5.51,0-10,4.49-10,10s4.49,10,10,10s10-4.49,10-10S258.51,327,253,327z"/><path data-cppathid="10005" d="M137,307c5.51,0,10-4.49,10-10s-4.49-10-10-10s-10,4.49-10,10S131.49,307,137,307z"/><path data-cppathid="10006" d="M273,287h-96c-5.51,0-10,4.49-10,10s4.49,10,10,10h96c5.51,0,10-4.49,10-10S278.51,287,273,287z"/><path data-cppathid="10007" d="M135,367c-5.51,0-10,4.49-10,10s4.49,10,10,10s10-4.49,10-10S140.51,367,135,367z"/><path data-cppathid="10008" d="M249,367h-74c-5.51,0-10,4.49-10,10s4.49,10,10,10h74c5.51,0,10-4.49,10-10S254.51,367,249,367z"/></g></g></g><g/><g/><g/><g/><g/><g/><g/><g/><g/><g/><g/><g/><g/><g/><g/></svg>