<?xml version="1.0" encoding="UTF-8"?>
<svg xmlns="http://www.w3.org/2000/svg" onmouseup="{ if(window.parent.document.onmouseup) window.parent.document.onmouseup(arguments[0]);}" width="512" viewBox="0 0 74 74" height="512"><g data-name="color line" id="color_line"><path data-cppathid="10000" fill="#9297ab" d="m50.184 66.414v-11.466a1.861 1.861 0 0 0 -1.861-1.861h-22.646a1.861 1.861 0 0 0 -1.861 1.861v11.466z"/><path data-cppathid="10001" fill="#84879c" d="m50.18 54.95v11.46h-1.96v-9.34a1.865 1.865 0 0 0 -1.87-1.86h-22.53v-.26a1.857 1.857 0 0 1 1.86-1.86h22.64a1.857 1.857 0 0 1 1.86 1.86z"/><path data-cppathid="10002" fill="#eeefee" d="m27.417 56.625h19.167v6.25h-19.167z"/><path data-cppathid="10003" fill="#e1e6e9" d="m43.92 56.62h2.66v6.26h-2.66z"/><path data-cppathid="10004" fill="#84879c" d="m19.373 66.414h35.254v4.586h-35.254z"/><path data-cppathid="10005" fill="#323c6b" d="m54.627 71.5h-35.254a.5.5 0 0 1 -.5-.5v-4.586a.5.5 0 0 1 .5-.5h35.254a.5.5 0 0 1 .5.5v4.586a.5.5 0 0 1 -.5.5zm-34.754-1h34.254v-3.586h-34.254z"/><path data-cppathid="10006" fill="#fcd462" d="m41.428 39.054a17.851 17.851 0 0 0 -1.969 9.682h-4.918a17.851 17.851 0 0 0 -1.969-9.682z"/><path data-cppathid="10007" fill="#f7be56" d="m39.46 48.74h-2.21a17.883 17.883 0 0 1 1.97-9.69h2.21a17.791 17.791 0 0 0 -1.97 9.69z"/><path data-cppathid="10008" fill="#323c6b" d="m24.352 31.5a.561.561 0 0 1 -.063 0 14.386 14.386 0 0 1 -12.536-14.261v-6.939a4.62 4.62 0 0 1 4.61-4.619h3.86a.5.5 0 0 1 0 1h-3.86a3.619 3.619 0 0 0 -3.61 3.619v6.939a13.384 13.384 0 0 0 11.662 13.261.5.5 0 0 1 -.062 1z"/><path data-cppathid="10009" fill="#323c6b" d="m49.648 31.5a.5.5 0 0 1 -.062-1 13.384 13.384 0 0 0 11.661-13.261v-6.939a3.619 3.619 0 0 0 -3.61-3.619h-3.86a.5.5 0 0 1 0-1h3.86a4.62 4.62 0 0 1 4.61 4.619v6.939a14.386 14.386 0 0 1 -12.536 14.254.561.561 0 0 1 -.063.007z"/><path data-cppathid="10010" fill="#323c6b" d="m39.459 49.235h-4.918a.5.5 0 0 1 -.5-.538 17.3 17.3 0 0 0 -1.913-9.411.5.5 0 0 1 .442-.733h8.856a.5.5 0 0 1 .442.733 17.3 17.3 0 0 0 -1.91 9.414.5.5 0 0 1 -.5.538zm-4.386-1h3.854a18.324 18.324 0 0 1 1.694-8.682h-7.242a18.324 18.324 0 0 1 1.694 8.682z"/><path data-cppathid="10011" fill="#fcd462" d="m20.786 3a43.416 43.416 0 0 0 -.968 9.187c0 15.355 7.692 27.8 17.181 27.8s17.181-12.448 17.181-27.8a43.416 43.416 0 0 0 -.966-9.187z"/><path data-cppathid="10012" fill="#f7be56" d="m54.18 12.19c0 15.35-7.69 27.8-17.18 27.8a11.272 11.272 0 0 1 -5.29-1.35 10.693 10.693 0 0 0 2.04.2c9.49 0 17.18-12.45 17.18-27.8a43.462 43.462 0 0 0 -.74-8.04h3.02a43.089 43.089 0 0 1 .97 9.19z"/><path data-cppathid="10013" fill="#323c6b" d="m37 40.49c-9.75 0-17.681-12.7-17.681-28.3a43.932 43.932 0 0 1 .981-9.296.5.5 0 0 1 .489-.394h32.424a.5.5 0 0 1 .489.394 43.932 43.932 0 0 1 .979 9.293c0 15.606-7.931 28.303-17.681 28.303zm-15.808-36.99a43.006 43.006 0 0 0 -.873 8.687c0 15.055 7.483 27.3 16.681 27.3s16.681-12.248 16.681-27.3a43.006 43.006 0 0 0 -.873-8.687z"/><path data-cppathid="10014" fill="#fcd462" d="m28.341 53.086c.585-2.58 4.248-4.566 8.659-4.566s8.074 1.986 8.659 4.566z"/><path data-cppathid="10015" fill="#f7be56" d="m45.66 53.09h-2.71c-.53-2.31-3.52-4.15-7.3-4.5a11.962 11.962 0 0 1 1.35-.07c4.41 0 8.07 1.99 8.66 4.57z"/><path data-cppathid="10016" fill="#323c6b" d="m45.659 53.586h-17.318a.5.5 0 0 1 -.488-.61c.651-2.872 4.5-4.956 9.146-4.956s8.5 2.084 9.146 4.956a.5.5 0 0 1 -.488.61zm-16.622-1h15.926c-.95-2.071-4.2-3.566-7.963-3.566s-7.013 1.496-7.963 3.566z"/><path data-cppathid="10017" fill="none" d="m45.66 53.09h-2.71c-.53-2.31-3.52-4.15-7.3-4.5a11.962 11.962 0 0 1 1.35-.07c4.41 0 8.07 1.99 8.66 4.57z"/><g fill="#323c6b"><path data-cppathid="10018" d="m50.185 66.914h-26.37a.5.5 0 0 1 -.5-.5v-11.466a2.364 2.364 0 0 1 2.362-2.361h22.646a2.364 2.364 0 0 1 2.362 2.361v11.466a.5.5 0 0 1 -.5.5zm-25.869-1h25.369v-10.966a1.363 1.363 0 0 0 -1.362-1.361h-22.646a1.363 1.363 0 0 0 -1.362 1.361z"/><path data-cppathid="10019" d="m46.583 63.375h-19.166a.5.5 0 0 1 -.5-.5v-6.25a.5.5 0 0 1 .5-.5h19.166a.5.5 0 0 1 .5.5v6.25a.5.5 0 0 1 -.5.5zm-18.667-1h18.167v-5.25h-18.166z"/><path data-cppathid="10020" d="m46.958 39.582a.5.5 0 0 1 -.324-.88 23.662 23.662 0 0 0 4.918-5.957.5.5 0 1 1 .859.511 24.635 24.635 0 0 1 -5.129 6.207.5.5 0 0 1 -.324.119z"/><path data-cppathid="10021" d="m44.676 41.5a.494.494 0 0 1 -.419-.208.464.464 0 0 1 .1-.668l.076-.05c.153-.1.308-.2.458-.312a.5.5 0 1 1 .587.81c-.162.118-.328.227-.494.336a.569.569 0 0 1 -.308.092z"/><path data-cppathid="10022" d="m20.815 60.5a.5.5 0 0 1 -.5-.5v-.417a.5.5 0 0 1 1 0v.417a.5.5 0 0 1 -.5.5z"/><path data-cppathid="10023" d="m20.815 57.833a.5.5 0 0 1 -.5-.5v-2.385a5.348 5.348 0 0 1 4.752-5.3.5.5 0 0 1 .114.993 4.349 4.349 0 0 0 -3.867 4.309v2.386a.5.5 0 0 1 -.499.497z"/></g><path data-cppathid="10024" fill="#fff" d="m23.865 22.924a44.214 44.214 0 0 1 -1.444-9.472.74.74 0 1 1 1.443-.327 49.1 49.1 0 0 0 1.447 9.483.712.712 0 0 1 -.072.507.742.742 0 0 1 -1.374-.191z"/><path data-cppathid="10025" fill="#fff" d="m26.046 24.8.191.435a.678.678 0 0 1 .02.526.7.7 0 0 1 -.41.454.736.736 0 0 1 -.964-.385l-.191-.435a.74.74 0 1 1 1.355-.595z"/></g></svg>