<?xml version="1.0" encoding="UTF-8"?>
<svg xmlns="http://www.w3.org/2000/svg" onmouseup="{ if(window.parent.document.onmouseup) window.parent.document.onmouseup(arguments[0]);}" width="512" viewBox="0 0 64 64" height="512" enable-background="new 0 0 64 64" id="Layer_5"><g><path data-cppathid="10000" d="m60 49h-7v-22h7.014c1.646 0 2.986-1.339 2.986-2.986 0-.955-.462-1.859-1.234-2.419l-27.37-19.818c-1.402-1.017-3.391-1.016-4.793 0l-27.369 19.818c-.772.56-1.234 1.465-1.234 2.419 0 1.647 1.34 2.986 2.986 2.986h7.014v22h-7c-1.654 0-3 1.346-3 3v2c0 .771.301 1.468.78 2-.479.532-.78 1.229-.78 2v2c0 1.654 1.346 3 3 3h16c.771 0 1.468-.301 2-.78.532.48 1.229.78 2 .78h16c.771 0 1.468-.301 2-.78.532.48 1.229.78 2 .78h16c1.654 0 3-1.346 3-3v-2c0-.771-.301-1.468-.78-2 .48-.532.78-1.229.78-2v-2c0-1.654-1.346-3-3-3zm1 3v2c0 .551-.448 1-1 1h-16c-.552 0-1-.449-1-1v-2c0-.551.448-1 1-1h1v2h2v-2h2v2h2v-2h2v2h2v-2h2v2h2v-2h1c.552 0 1 .449 1 1zm-37 3c-.552 0-1-.449-1-1v-2c0-.551.448-1 1-1h1v2h2v-2h2v2h2v-2h2v2h2v-2h2v2h2v-2h1c.552 0 1 .449 1 1v2c0 .551-.448 1-1 1zm-1-13v-2c0-.551.448-1 1-1h1v2h2v-2h2v2h2v-2h2v2h2v-2h2v2h2v-2h1c.552 0 1 .449 1 1v2c0 .551-.448 1-1 1h-16c-.552 0-1-.449-1-1zm1 7c-.552 0-1-.449-1-1v-2c0-.551.448-1 1-1h1v2h2v-2h2v2h2v-2h2v2h2v-2h2v2h2v-2h1c.552 0 1 .449 1 1v2c0 .551-.448 1-1 1zm-20.014-24c-.544 0-.986-.442-.986-.986 0-.315.152-.614.408-.799l27.369-19.819c.715-.518 1.73-.518 2.445 0l27.369 19.819c.257.185.409.484.409.799 0 .544-.442.986-.986.986h-9.014v24h-7c-.475 0-.919.121-1.319.319.198-.4.319-.844.319-1.319v-2c0-.771-.301-1.468-.78-2 .48-.532.78-1.229.78-2v-2c0-1.654-1.346-3-3-3h-7v-4h5c4.963 0 9-4.038 9-9v-1h-7c-2.826 0-5.349 1.312-7 3.356v-1.356-1c0-4.962-4.037-9-9-9h-7v1c0 4.962 4.037 9 9 9h5v7 1 4h-7c-1.654 0-3 1.346-3 3v2c0 .771.301 1.468.78 2-.48.532-.78 1.229-.78 2v2c0 .475.121.919.319 1.319-.4-.198-.844-.319-1.319-.319h-7v-24zm29.085 6c.486-3.388 3.408-6 6.929-6h4.929c-.486 3.388-3.408 6-6.929 6zm-2.142-8h-4.929c-3.521 0-6.442-2.612-6.929-6h4.929c3.521 0 6.442 2.612 6.929 6zm-27.929 29c0-.551.448-1 1-1h1v2h2v-2h2v2h2v-2h2v2h2v-2h2v2h2v-2h1c.552 0 1 .449 1 1v2c0 .551-.448 1-1 1h-16c-.552 0-1-.449-1-1zm17 9h-16c-.552 0-1-.449-1-1v-2c0-.551.448-1 1-1h1v2h2v-2h2v2h2v-2h2v2h2v-2h2v2h2v-2h1c.552 0 1 .449 1 1v2c0 .551-.448 1-1 1zm20 0h-16c-.552 0-1-.449-1-1v-2c0-.551.448-1 1-1h1v2h2v-2h2v2h2v-2h2v2h2v-2h2v2h2v-2h1c.552 0 1 .449 1 1v2c0 .551-.448 1-1 1zm21-1c0 .551-.448 1-1 1h-16c-.552 0-1-.449-1-1v-2c0-.551.448-1 1-1h1v2h2v-2h2v2h2v-2h2v2h2v-2h2v2h2v-2h1c.552 0 1 .449 1 1z"/><path data-cppathid="10001" d="m15 37h2v2h-2z"/><path data-cppathid="10002" d="m15 45h2v2h-2z"/><path data-cppathid="10003" d="m15 41h2v2h-2z"/></g></svg>