<?xml version="1.0" encoding="UTF-8"?>
<svg xmlns="http://www.w3.org/2000/svg" onmouseup="{ if(window.parent.document.onmouseup) window.parent.document.onmouseup(arguments[0]);}" width="512" viewBox="0 0 64 64" height="512" enable-background="new 0 0 64 64" id="Layer_3"><g><g><circle data-cppathid="10000" r="3" fill="#c7e2fc" cy="36" cx="47"/></g><g><circle data-cppathid="10001" r="4" fill="#a1cdfb" cy="35" cx="58"/></g><g><circle data-cppathid="10002" r="4" fill="#ebf7fe" cy="34" cx="52"/></g><g><path data-cppathid="10003" fill="#c7e2fc" d="m52 42v8l-5.613 8.42c-.252.378-.387.823-.387 1.277 0 1.272 1.031 2.303 2.303 2.303h11.394c1.272 0 2.303-1.031 2.303-2.303 0-.455-.135-.899-.387-1.277l-5.613-8.42v-8"/></g><g><path data-cppathid="10004" fill="#f5b953" d="m54.675 56.07-.351-.14c-1.535-.614-3.174-.93-4.828-.93h-.83l-2.28 3.42c-.251.378-.386.823-.386 1.277 0 1.272 1.031 2.303 2.303 2.303h11.394c1.272 0 2.303-1.031 2.303-2.303 0-.455-.135-.899-.387-1.277l-.946-1.42h-1.163c-1.654 0-3.293-.316-4.829-.93z"/></g><g><path data-cppathid="10005" fill="#976947" d="m39 41v-21c0-10.389-7.611-18-17-18-9.389 0-17 7.611-17 17v22"/></g><g><path data-cppathid="10006" fill="#ebf7fe" d="m15 38-8.765 2.697c-2.517.774-4.235 3.1-4.235 5.734v15.569h40v-15.569c0-2.634-1.718-4.96-4.235-5.735l-8.765-2.696"/></g><g><path data-cppathid="10007" fill="#c7e2fc" d="m33 39v7l-5 1 2 2-8 13-8-13 2-2-5-1v-7"/></g><g><path data-cppathid="10008" fill="#59ac98" d="m15 38 7 17 7-17"/></g><g><path data-cppathid="10009" fill="#efbe9a" d="m21 12v1c0 4.418 3.582 8 8 8h6v6c0 7.18-5.82 13-13 13-7.18 0-13-5.82-13-13v-6h3c4.971 0 9-4.029 9-9z"/></g><g><path data-cppathid="10010" fill="#db9b7c" d="m35 21c2.209 0 4 1.791 4 4 0 2.209-1.791 4-4 4"/></g><g><path data-cppathid="10011" fill="#db9b7c" d="m9 21c-2.209 0-4 1.791-4 4 0 2.209 1.791 4 4 4"/></g><g><path data-cppathid="10012" fill="#c7e2fc" d="m9 25c2.596 1.947 5.754 3 9 3 .64 0 1.254-.254 1.707-.707l.586-.586c.453-.453 1.067-.707 1.707-.707.64 0 1.254.254 1.707.707l.586.586c.453.453 1.067.707 1.707.707 3.246 0 6.404-1.053 9-3v-5h-26z"/></g><g><path data-cppathid="10013" d="m8 50h2v12h-2z"/></g><g><path data-cppathid="10014" d="m34 50h2v12h-2z"/></g><g><path data-cppathid="10015" d="m42 63h-40c-.552 0-1-.447-1-1v-15.568c0-3.092 1.986-5.781 4.941-6.691l8.765-2.696.588 1.912-8.765 2.696c-2.111.649-3.529 2.57-3.529 4.779v14.568h38v-14.568c0-2.209-1.418-4.13-3.53-4.779l-8.764-2.696.588-1.912 8.765 2.696c2.955.909 4.941 3.599 4.941 6.691v15.568c0 .553-.448 1-1 1z"/></g><g><path data-cppathid="10016" d="m22 41c-7.72 0-14-6.28-14-14v-6h2v6c0 6.617 5.383 12 12 12s12-5.383 12-12v-6h2v6c0 7.72-6.28 14-14 14z"/></g><g><path data-cppathid="10017" d="m22 56c-.405 0-.771-.244-.925-.619l-7-17 1.85-.762 6.075 14.755 6.075-14.755 1.85.762-7 17c-.154.375-.52.619-.925.619z"/></g><g><path data-cppathid="10018" d="m22 63c-.347 0-.669-.18-.852-.476l-8-13c-.243-.395-.183-.904.145-1.231l.679-.679-3.168-.634c-.468-.093-.804-.503-.804-.98v-7h2v6.181l4.196.839c.361.072.654.338.761.69.107.354.011.736-.25.997l-1.441 1.441 6.734 10.944 6.734-10.943-1.441-1.441c-.261-.261-.357-.644-.25-.997s.399-.618.761-.69l4.196-.84v-6.181h2v7c0 .477-.336.887-.804.98l-3.168.634.679.679c.328.327.387.837.145 1.231l-8 13c-.183.296-.505.476-.852.476z"/></g><g><path data-cppathid="10019" d="m40 41h-2v-21c0-9.691-6.878-17-16-17-8.822 0-16 7.178-16 16v22h-2v-22c0-9.925 8.075-18 18-18 10.093 0 18 8.346 18 19z"/></g><g><path data-cppathid="10020" d="m22 36c-2.214 0-4.269-1.1-5.496-2.941l-.336-.504 1.664-1.109.336.504c.856 1.283 2.289 2.05 3.832 2.05s2.976-.767 3.832-2.051l.336-.504 1.664 1.109-.336.504c-1.227 1.842-3.282 2.942-5.496 2.942z"/></g><g><path data-cppathid="10021" d="m9 30c-2.757 0-5-2.243-5-5s2.243-5 5-5h3c4.411 0 8-3.589 8-8h2c0 5.514-4.486 10-10 10h-3c-1.654 0-3 1.346-3 3s1.346 3 3 3z"/></g><g><path data-cppathid="10022" d="m16.5 25c-.827 0-1.5-.673-1.5-1.5s.673-1.5 1.5-1.5 1.5.673 1.5 1.5-.673 1.5-1.5 1.5z"/></g><g><path data-cppathid="10023" d="m27.5 25c-.827 0-1.5-.673-1.5-1.5s.673-1.5 1.5-1.5 1.5.673 1.5 1.5-.673 1.5-1.5 1.5z"/></g><g><path data-cppathid="10024" d="m16 19h9v2h-9z"/></g><g><path data-cppathid="10025" d="m26 29c-.913 0-1.77-.355-2.415-1l-.585-.586c-.534-.535-1.466-.535-2 0l-.586.586c-.644.645-1.501 1-2.414 1-3.439 0-6.848-1.137-9.6-3.2l1.2-1.6c2.408 1.806 5.391 2.8 8.4 2.8.378 0 .733-.146 1-.414l.586-.586c1.288-1.289 3.54-1.289 4.829 0l.585.586c.267.268.622.414 1 .414 3.009 0 5.992-.994 8.4-2.8l1.2 1.6c-2.752 2.063-6.161 3.2-9.6 3.2z"/></g><g><path data-cppathid="10026" d="m59.697 63h-11.394c-1.822 0-3.303-1.481-3.303-3.303 0-.654.192-1.288.555-1.832l5.445-8.168v-7.697h2v8c0 .197-.059.391-.168.555l-5.613 8.42c-.143.214-.219.464-.219.722 0 .719.584 1.303 1.303 1.303h11.395c.718 0 1.302-.584 1.302-1.303 0-.258-.076-.508-.219-.723l-5.613-8.42c-.109-.163-.168-.357-.168-.554v-8h2v7.697l5.445 8.168c.363.544.555 1.178.555 1.832 0 1.822-1.481 3.303-3.303 3.303z"/></g><g><path data-cppathid="10027" d="m49 41h10v2h-10z"/></g><g><path data-cppathid="10028" d="m61 58h-1.497c-1.789 0-3.539-.337-5.2-1.001l-.351-.142c-1.422-.568-2.922-.857-4.455-.857h-.497v-2h.497c1.789 0 3.539.337 5.2 1.001l.351.142c1.422.568 2.922.857 4.455.857h1.497z"/></g><g><path data-cppathid="10029" d="m47 40c-2.206 0-4-1.794-4-4s1.794-4 4-4c.456 0 .905.077 1.333.228l-.666 1.887c-.214-.077-.438-.115-.667-.115-1.103 0-2 .897-2 2s.897 2 2 2 2-.897 2-2h2c0 2.206-1.794 4-4 4z"/></g><g><path data-cppathid="10030" d="m47.157 35.249c-.104-.407-.157-.827-.157-1.249 0-2.757 2.243-5 5-5s5 2.243 5 5h-2c0-1.654-1.346-3-3-3s-3 1.346-3 3c0 .254.032.507.095.751z"/></g><g><path data-cppathid="10031" d="m58 40c-2.283 0-4.274-1.542-4.842-3.751l1.937-.498c.34 1.324 1.535 2.249 2.905 2.249 1.654 0 3-1.346 3-3s-1.346-3-3-3c-.731 0-1.436.267-1.984.75l-1.323-1.5c.913-.806 2.088-1.25 3.307-1.25 2.757 0 5 2.243 5 5s-2.243 5-5 5z"/></g><g><path data-cppathid="10032" d="m35 30v-2c1.654 0 3-1.346 3-3s-1.346-3-3-3h-6c-4.962 0-9-4.037-9-9v-1h2v1c0 3.859 3.14 7 7 7h6c2.757 0 5 2.243 5 5s-2.243 5-5 5z"/></g></g></svg>