<?xml version="1.0" encoding="UTF-8"?>
<svg xmlns="http://www.w3.org/2000/svg" onmouseup="{ if(window.parent.document.onmouseup) window.parent.document.onmouseup(arguments[0]);}" width="512" viewBox="0 0 512 512" height="512" enable-background="new 0 0 512 512" id="Layer_1"><g><g><g><g><path data-cppathid="10000" fill="#edf7ff" d="m473.11 7.591h-167.008c-17.336 0-31.39 14.054-31.39 31.39v194.783c0 17.336 14.054 31.39 31.39 31.39h51.934v50.418l50.418-50.418h64.656c17.336 0 31.39-14.054 31.39-31.39v-194.783c0-17.336-14.054-31.39-31.39-31.39z"/><g><path data-cppathid="10001" fill="#e1eefa" d="m473.11 7.591h-40c17.336 0 31.39 14.054 31.39 31.39v194.783c0 17.336-14.054 31.389-31.39 31.389h40c17.336 0 31.39-14.054 31.39-31.389v-194.783c0-17.336-14.054-31.39-31.39-31.39z"/></g></g><g><path data-cppathid="10002" fill="#edf7ff" d="m286.317 504.591h-273v-34.5c0-75.387 61.113-136.5 136.5-136.5 75.387 0 136.5 61.113 136.5 136.5z"/><path data-cppathid="10003" fill="#ff99c7" d="m106.474 381.525h87.052v123.066h-87.052z"/><path data-cppathid="10004" fill="#bfd6e6" d="m106.474 504.591h-23.657l-32-70h26l-14.667-69.083s17.167-15.792 44.323-24.667z"/><path data-cppathid="10005" fill="#bfd6e6" d="m193.643 504.591h23.657l32-70h-26l14.667-69.083s-17.167-15.792-44.323-24.667v163.75z"/><g><path data-cppathid="10006" fill="#ffe7db" d="m193.526 381.525c-26.899 15.75-60.164 15.87-87.052 0v-87.052h87.052z"/><g><path data-cppathid="10007" fill="#4483e8" d="m236.684 323.591h-173.734c-30.624 0-55.45-24.826-55.45-55.45v-93.1c0-78.6 63.717-142.317 142.317-142.317 78.6 0 142.317 63.718 142.317 142.317v93.1c0 30.624-24.825 55.45-55.45 55.45z"/><path data-cppathid="10008" fill="#3e78d4" d="m149.817 32.724c-6.79 0-13.464.486-20 1.406 69.128 9.724 122.317 69.101 122.317 140.911v93.1c0 30.624-24.826 55.45-55.45 55.45h40c30.624 0 55.45-24.826 55.45-55.45v-93.1c0-78.6-63.717-142.317-142.317-142.317z"/><g><path data-cppathid="10009" fill="#ffe7db" d="m209.817 130.591c-39 54-104 50-104 50v-32c-19.741 24.479-51.948 29.627-64.626 30.71v64.745c0 59.96 48.608 108.568 108.568 108.568 59.211.063 108.684-49.354 108.684-108.568v-66.615c-41.964-2.678-48.626-46.84-48.626-46.84z"/></g><g><path data-cppathid="10010" fill="#ffdbcc" d="m209.817 130.591c-8.418 11.656-18.049 20.605-27.975 27.48 0 0 10.825 27.02 36.601 33.361v52.615c0 52.439-38.803 97.189-88.806 106.699 6.521 1.222 13.246 1.869 20.122 1.869 59.211.063 108.684-49.354 108.684-108.568v-66.615c-41.964-2.679-48.626-46.841-48.626-46.841z"/></g></g><path data-cppathid="10011" fill="#f0c2ad" d="m149.817 323.407c-11.397 0-22.79-4.336-31.467-13.013-2.929-2.929-2.929-7.678 0-10.606 2.93-2.929 7.678-2.929 10.607 0 11.502 11.501 30.218 11.503 41.72 0 2.928-2.928 7.677-2.929 10.606 0s2.929 7.678-.001 10.607c-8.673 8.674-20.071 13.012-31.465 13.012z"/></g></g></g><ellipse data-cppathid="10012" transform="matrix(.711 -.703 .703 .711 5.556 276.934)" ry="16.956" rx="16.87" fill="#23e8bf" cy="131.704" cx="339.894"/><ellipse data-cppathid="10013" transform="matrix(.711 -.703 .703 .711 47.502 341.393)" ry="16.956" rx="16.87" fill="#ff99c7" cy="112.872" cx="439.335"/><ellipse data-cppathid="10014" transform="matrix(.711 -.703 .703 .711 65.081 293.307)" ry="16.956" rx="16.87" fill="#ffe20d" cy="67.43" cx="389.589"/></g><g><path data-cppathid="10015" d="m497.002 211.31v22.452c0 13.173-10.717 23.89-23.89 23.89h-64.656c-1.989 0-3.896.79-5.304 2.197l-37.615 37.615v-32.312c0-4.142-3.357-7.5-7.5-7.5h-51.934c-2.215 0-4.378-.301-6.467-.887v-81.726c0-25.293-6.309-49.136-17.423-70.055v-66.003c0-13.173 10.717-23.89 23.89-23.89h167.007c13.173 0 23.89 10.717 23.89 23.89v133.334c0 4.142 3.357 7.5 7.5 7.5s7.5-3.358 7.5-7.5v-133.334c0-21.444-17.446-38.89-38.89-38.89h-167.008c-21.443 0-38.89 17.446-38.89 38.89v43.09c-27.467-34.609-69.881-56.847-117.395-56.847-82.609 0-149.817 67.207-149.817 149.817v93.101c0 34.71 28.239 62.95 62.95 62.95h10.119c4.117 3.632 8.493 6.976 13.096 10.003-19.146 9.552-35.002 21.996-47.235 37.122-6 7.42 5.417 17.155 11.664 9.433 2.176-2.69 4.498-5.278 6.937-7.781l10.026 47.224h-16.74c-5.028 0-9.153 5.519-6.821 10.618l32 70c3.938 8.611 17.665 2.564 13.643-6.236l-27.146-59.382h14.325c5.325-.687 7.771-3.706 7.337-9.058l-13.718-64.612c8.426-6.458 17.962-12.063 28.537-16.788v29.892 123.066c0 9.697 15 9.697 15 0v-110.938c11.473 4.803 23.7 7.206 35.946 7.206 12.309 0 24.635-2.43 36.224-7.285v111.015c0 9.697 15 9.697 15 0v-152.868c10.243 4.439 19.795 10.146 28.475 16.989l-13.656 64.321c-.434 5.352 2.012 8.371 7.337 9.058h14.325l-27.146 59.382c-3.926 8.59 9.622 15.027 13.643 6.236l32-70c2.332-5.099-1.793-10.618-6.821-10.618h-16.74l9.926-46.753c4.631 4.791 8.921 9.955 12.817 15.478 15.384 21.805 23.515 47.489 23.515 74.275v34.5c0 9.697 15 9.697 15 0v-34.5c0-29.899-9.08-58.573-26.258-82.922-14.05-19.915-32.621-35.722-54.219-46.327 4.406-2.935 8.642-6.191 12.684-9.751h10.659c33.384 0 60.768-26.125 62.814-59.003 2.165.37 4.368.565 6.603.565h44.434v42.918c0 6.462 8.045 10.06 12.804 5.303l48.222-48.222h61.55c21.443 0 38.89-17.446 38.89-38.89v-22.452c0-9.697-15-9.697-15 0zm-310.976 165.785c-22.656 11.686-49.566 11.689-72.052.015v-22.646c11.275 3.663 23.298 5.651 35.777 5.651h.124c12.429-.001 24.599-2.008 36.151-5.872zm34.98-61.841c-19.281 19.26-44.536 29.862-71.14 29.862-.034 0-.073 0-.107 0-55.729 0-101.067-45.339-101.067-101.068v-58.065c12.722-1.839 32.674-6.729 49.626-19.72v14.33c-.001 3.961 3.083 7.24 7.038 7.484.717.044 17.738 1.007 39.806-4.999 24.363-6.631 45.374-19.24 61.514-36.792 1.346 3.32 3.082 6.952 5.308 10.616 9.109 14.993 22.483 24.291 38.96 27.184v59.962c0 26.633-10.632 51.921-29.938 71.206zm19.505.67c16.479-20.556 25.432-45.633 25.432-71.878v-66.615c0-3.957-3.073-7.233-7.022-7.485-35.275-2.252-41.444-38.932-41.69-40.497-1.002-6.499-9.641-8.58-13.493-3.25-28.734 39.787-73.287 45.965-90.42 46.82v-24.429c0-6.927-8.99-10.102-13.338-4.708-17.877 22.168-47.514 26.928-59.427 27.946-3.88.332-6.861 3.578-6.861 7.473v64.745c0 27.105 9.341 52.067 24.97 71.843-24.437-2.178-43.662-22.755-43.662-47.748v-93.101c0-74.338 60.479-134.817 134.817-134.817s134.817 60.479 134.817 134.817v93.101h.001c0 25.15-19.468 45.825-44.124 47.783z"/><path data-cppathid="10016" d="m389.43 230.009c3.788 0 7.503-3.793 7.507-7.494l.051-59.414h42.311c4.143 0 7.5-3.358 7.5-7.5v-19.466c9.846-3.119 16.925-12.834 16.938-23.155.02-13.44-10.899-24.446-24.341-24.533-13.254 0-24.466 10.931-24.484 24.294-.015 10.84 7.088 20.092 16.887 23.313v12.046h-34.798l.05-57.405c9.847-3.118 16.927-12.834 16.941-23.156.02-13.44-10.899-24.446-24.341-24.533-13.254 0-24.466 10.93-24.484 24.294-.015 10.839 7.086 20.091 16.884 23.313l-.082 94.635h-34.607v-30.281c9.845-3.12 16.925-12.834 16.938-23.155.019-13.441-10.901-24.446-24.341-24.533-13.254 0-24.466 10.929-24.484 24.294-.015 10.841 7.087 20.093 16.887 23.314v37.861c0 4.142 3.357 7.5 7.5 7.5h42.094l-.019 22.253c-.004 4.144 3.351 7.505 7.493 7.508zm40.378-117.113c0-5.225 4.236-9.462 9.462-9.462s9.462 4.236 9.462 9.462-4.236 9.461-9.462 9.461-9.462-4.236-9.462-9.461zm-49.632-45.478c0-5.225 4.236-9.462 9.462-9.462s9.461 4.236 9.461 9.462-4.236 9.462-9.461 9.462-9.462-4.237-9.462-9.462zm-40.352 73.846c-5.225 0-9.462-4.236-9.462-9.462s4.236-9.462 9.462-9.462 9.462 4.236 9.462 9.462-4.236 9.462-9.462 9.462z"/><path data-cppathid="10017" d="m22.707 419.564c-3.934-1.297-8.173.844-9.469 4.779-8.181 24.852-7.831 50.295-7.492 74.901-2.372 15.875 17.963 15.822 14.999-.207-.337-24.447-.654-47.538 6.741-70.004 1.295-3.935-.844-8.174-4.779-9.469z"/><path data-cppathid="10018" d="m170.678 299.788c-11.502 11.503-30.218 11.501-41.72 0-2.93-2.929-7.678-2.929-10.607 0s-2.929 7.678 0 10.606c8.676 8.676 20.069 13.013 31.466 13.013 11.394 0 22.792-4.338 31.466-13.012 2.93-2.929 2.93-7.678.001-10.607-2.93-2.929-7.679-2.929-10.606 0z"/></g></g></svg>