<?xml version="1.0" encoding="UTF-8"?>
<svg xmlns="http://www.w3.org/2000/svg" onmouseup="{ if(window.parent.document.onmouseup) window.parent.document.onmouseup(arguments[0]);}" width="512" viewBox="0 0 512 512" height="512" enable-background="new 0 0 512 512" id="Capa_1"><g><path data-cppathid="10000" fill="#655e67" d="m349.768 149.977c-.398 0-.803-.031-1.209-.095-10.538-1.657-18.664-7.512-26.523-13.173-4.71-3.393-9.16-6.599-13.851-8.688-15.212-6.774-31.532-1.181-48.511 16.621-2.947 3.088-7.837 3.203-10.925.259-3.088-2.945-3.203-7.836-.259-10.924 27.365-28.69 50.984-26.751 65.981-20.072 6.146 2.737 11.459 6.565 16.598 10.267 6.682 4.814 12.994 9.361 19.89 10.446 4.215.663 7.096 4.618 6.433 8.833-.6 3.808-3.886 6.526-7.624 6.526z"/><path data-cppathid="10001" fill="#655e67" d="m340.394 246.957c-2.107 0-4.205-.856-5.73-2.541-10.336-11.419-14.32-25.856-18.172-39.818-.999-3.62-1.943-7.04-2.996-10.42-4.502-14.444-14.527-26.843-26.163-32.359-8.784-4.162-17.956-4.369-27.264-.616-3.963 1.596-8.461-.319-10.055-4.275-1.597-3.958.318-8.46 4.275-10.056 13.287-5.359 26.999-5.019 39.663.983 15.644 7.415 28.465 23.013 34.297 41.724 1.129 3.623 2.151 7.326 3.139 10.908 3.528 12.785 6.86 24.861 14.733 33.558 2.863 3.163 2.621 8.049-.543 10.913-1.479 1.339-3.335 1.999-5.184 1.999z"/><path data-cppathid="10002" fill="#c77e67" d="m258.46 31.894c-9.6-8.448-20.709-11.331-32.227-4.268-7.051 4.324-15.353 4.964-22.454.764-5.177-3.062-10.848-4.751-16.794-4.751s-11.617 1.69-16.794 4.751c-7.101 4.2-15.403 3.56-22.454-.764-11.517-7.062-22.627-4.179-32.227 4.268-15.053 13.248-20.692 35.156-2.463 66.172 13.029 22.168 30.526 35.842 44.946 37.007 7.762 9.707 50.223 9.707 57.985 0 14.42-1.165 31.917-14.839 44.946-37.007 18.228-31.015 12.59-52.924-2.464-66.172z"/><path data-cppathid="10003" fill="#c77e67" d="m244.312 166.137h-114.654s-129.658 155.093-129.658 218.001c0 70.376 62.488 104.223 95.89 104.223h182.191c33.401 0 95.89-33.847 95.89-104.223-.001-62.908-129.659-218.001-129.659-218.001z"/><g fill="#ac583e"><path data-cppathid="10004" d="m258.46 31.894c-9.599-8.448-20.709-11.331-32.227-4.268-.738.452-1.492.855-2.254 1.225 1.162.913 2.304 1.925 3.421 3.043 13.244 13.248 18.205 35.156 2.167 66.172-11.463 22.168-26.858 35.842-39.545 37.007-2.303 3.274-8.085 5.439-14.992 6.505 15.424 2.093 35.802-.072 40.946-6.505 14.42-1.165 31.917-14.839 44.946-37.007 18.23-31.015 12.592-52.924-2.462-66.172z"/><path data-cppathid="10005" d="m244.312 166.137h-29.359s114.077 155.093 114.077 218.001c0 70.376-54.979 104.223-84.367 104.223h33.417c33.402 0 95.89-33.847 95.89-104.223 0-62.907-129.658-218.001-129.658-218.001z"/><path data-cppathid="10006" d="m263.484 189.969c-11.542-14.702-19.172-23.832-19.172-23.832h-114.654s-7.63 9.129-19.172 23.832z"/></g><path data-cppathid="10007" fill="#7b3f2c" d="m186.986 152.499c-6.546 0-12.275-3.284-15.259-8.468-4.374-3.064-10.736-11.595-16.164-37.027-1.697-7.946-2.844-15.574-3.41-22.67-.339-4.254 2.835-7.977 7.089-8.316 4.254-.352 7.976 2.835 8.316 7.088.512 6.427 1.561 13.381 3.119 20.672 3.868 18.13 8.144 25.644 9.668 27.289 2.264.85 4.021 2.723 4.705 5.085.257.885 1.868.895 1.937.895.068 0 1.68-.01 1.937-.895.684-2.362 2.443-4.235 4.706-5.085 1.524-1.644 5.799-9.157 9.668-27.288 1.55-7.262 2.604-14.222 3.133-20.688.347-4.253 4.097-7.419 8.329-7.071 4.254.348 7.42 4.077 7.071 8.33-.581 7.125-1.732 14.746-3.421 22.654-5.428 25.432-11.791 33.963-16.166 37.027-2.983 5.185-8.712 8.468-15.258 8.468z"/><path data-cppathid="10008" fill="#f0e9e6" d="m226.041 285.238h-13.356c-1.034-5.812-3.386-11.274-6.924-16.02h20.28c4.268 0 7.726-3.459 7.726-7.726s-3.459-7.727-7.726-7.727h-78.113c-4.268 0-7.726 3.459-7.726 7.726s3.459 7.727 7.726 7.727h27.124c6.084.005 11.803 2.376 16.106 6.678 2.657 2.656 4.571 5.854 5.653 9.343h-48.883c-4.268 0-7.726 3.459-7.726 7.726s3.459 7.726 7.726 7.726h48.578c-3.244 9.317-12.064 16.02-22.414 16.02h-16.041c-4.883 0-9.235 2.732-11.359 7.129-2.123 4.397-1.555 9.504 1.482 13.328l47.17 59.38c1.526 1.92 3.78 2.921 6.055 2.921 1.684 0 3.38-.548 4.801-1.677 3.341-2.654 3.898-7.515 1.244-10.856l-43.511-54.774h10.159c18.927 0 34.763-13.537 38.409-31.472h13.54c4.268 0 7.726-3.459 7.726-7.726.001-4.267-3.458-7.726-7.726-7.726z"/><path data-cppathid="10009" fill="#655e67" d="m101.565 145.922c0 11.165 9.051 20.215 20.215 20.215h130.41c11.165 0 20.215-9.051 20.215-20.215 0-11.165-9.051-20.215-20.215-20.215h-130.41c-11.165 0-20.215 9.05-20.215 20.215z"/><path data-cppathid="10010" fill="#544f56" d="m252.19 125.707h-28.468c11.164 0 20.215 9.051 20.215 20.215s-9.051 20.215-20.215 20.215h28.468c11.165 0 20.215-9.051 20.215-20.215s-9.05-20.215-20.215-20.215z"/><g><path data-cppathid="10011" fill="#f7e365" d="m403.486 438.407h-134.906c-13.794 0-24.977 11.183-24.977 24.977s11.183 24.977 24.977 24.977h134.906c13.794 0 24.977-11.183 24.977-24.977 0-13.795-11.183-24.977-24.977-24.977z"/><path data-cppathid="10012" fill="#ecc52e" d="m403.486 438.407h-28.65c13.794 0 24.977 11.183 24.977 24.977 0 13.795-11.183 24.977-24.977 24.977h28.65c13.794 0 24.977-11.183 24.977-24.977 0-13.795-11.183-24.977-24.977-24.977z"/></g><g><path data-cppathid="10013" fill="#f7e365" d="m403.486 388.452h-134.906c-13.794 0-24.977 11.183-24.977 24.977s11.183 24.977 24.977 24.977h134.906c13.794 0 24.977-11.183 24.977-24.977s-11.183-24.977-24.977-24.977z"/><g fill="#ecc52e"><path data-cppathid="10014" d="m403.486 419.284h-134.906c-10.407 0-19.324-6.366-23.078-15.416-1.222 2.945-1.899 6.174-1.899 9.561 0 13.794 11.183 24.977 24.977 24.977h134.906c13.794 0 24.977-11.183 24.977-24.977 0-3.387-.678-6.616-1.899-9.561-3.754 9.05-12.671 15.416-23.078 15.416z"/><path data-cppathid="10015" d="m403.486 388.452h-28.65c13.794 0 24.977 11.183 24.977 24.977s-11.183 24.977-24.977 24.977h28.65c13.794 0 24.977-11.183 24.977-24.977s-11.183-24.977-24.977-24.977z"/></g></g><g><path data-cppathid="10016" fill="#f7e365" d="m508.65 450.891-67.453-116.831c-6.897-11.946-22.173-16.04-34.12-9.142-11.946 6.897-16.039 22.173-9.142 34.12l67.453 116.832c6.897 11.946 22.173 16.04 34.119 9.142 11.947-6.898 16.04-22.174 9.143-34.121z"/><path data-cppathid="10017" fill="#ecc52e" d="m508.65 450.891-14.325-24.811c6.897 11.946 2.804 27.222-9.142 34.12-11.946 6.897-27.222 2.804-34.12-9.142l14.325 24.811c6.897 11.946 22.173 16.04 34.119 9.142 11.947-6.897 16.04-22.174 9.143-34.12z"/></g></g></svg>