<?xml version="1.0" encoding="UTF-8"?>
<svg xmlns="http://www.w3.org/2000/svg" onmouseup="{ if(window.parent.document.onmouseup) window.parent.document.onmouseup(arguments[0]);}" width="512" viewBox="0 0 512.296 512.296" height="512" enable-background="new 0 0 512.296 512.296" id="Capa_1"><g><g><g><path data-cppathid="10000" fill="#714343" d="m458.987 510.437 3.463-1.218c15.65-5.506 23.872-22.657 18.366-38.306l-29.876-84.911-60.136 21.159 29.876 84.911c5.507 15.648 22.657 23.871 38.307 18.365z"/><path data-cppathid="10001" fill="#8e5f4f" d="m53.605 510.437-3.463-1.218c-15.65-5.506-23.873-22.657-18.366-38.306l29.876-84.911 60.136 21.159-29.876 84.911c-5.507 15.648-22.657 23.871-38.307 18.365z"/></g><g><g><path data-cppathid="10002" fill="#b68661" d="m497.296 468.212h-482c-8.284 0-15-6.716-15-15v-40.49h512v40.49c0 8.285-6.716 15-15 15z"/><path data-cppathid="10003" fill="#8e5f4f" d="m255.296 412.723v55.49h242c8.284 0 15-6.716 15-15v-40.49z"/></g><g><g><g><path data-cppathid="10004" fill="#db5053" d="m359.146 169.776c-42.542 0-80.478 19.702-105.19 50.478-23.033 28.685-57.458 45.843-94.245 45.843h-52.926c-48.705 0-88.187 39.483-88.187 88.187v58.294l475.397.289v-108.243c0-74.475-60.374-134.848-134.849-134.848z"/></g><path data-cppathid="10005" fill="#ad315f" d="m359.146 169.776c-41.786 0-79.119 19.016-103.851 48.856v194.091l238.699.145v-108.244c0-74.475-60.373-134.848-134.848-134.848z"/></g><g><path data-cppathid="10006" fill="#db5053" d="m512.296 428.015h-257v-30.232c0-22.091 17.909-40 40-40h202c8.284 0 15 6.716 15 15z"/><path data-cppathid="10007" fill="#e28658" d="m255.296 428.015h-255v-55.232c0-8.284 6.716-15 15-15h200c22.091 0 40 17.909 40 40z"/></g></g></g></g><g><g><g><path data-cppathid="10008" fill="#e9e4f0" d="m52.652 89.408 42.882-81.261c2.597-4.92 7.703-7.999 13.267-7.999s10.67 3.079 13.266 7.999l42.883 81.261h-33.921l-22.229-42.121-22.227 42.121z"/></g><path data-cppathid="10009" fill="#d3cee2" d="m122.066 8.147c-2.596-4.92-7.702-7.999-13.266-7.999v47.139l22.228 42.121h33.921z"/></g><g><g><path data-cppathid="10010" fill="#8e5f4f" d="m202.602 196.339h-187.602c-8.284 0-15-6.716-15-15v-89.09c0-8.284 6.716-15 15-15h187.602c8.284 0 15 6.716 15 15v89.089c0 8.285-6.716 15.001-15 15.001z"/><path data-cppathid="10011" fill="#714343" d="m202.602 77.249h-93.801v119.09h93.801c8.284 0 15-6.716 15-15v-89.09c0-8.284-6.716-15-15-15z"/></g><g><path data-cppathid="10012" transform="matrix(0 1 -1 0 245.595 27.993)" fill="#a3bbfa" d="m79.257 57.992h59.089v157.603h-59.089z"/><path data-cppathid="10013" fill="#799af8" d="m108.801 107.249h78.802v59.089h-78.802z"/></g></g></g></g></svg>