<?xml version="1.0" encoding="UTF-8"?>
<svg xmlns="http://www.w3.org/2000/svg" onmouseup="{ if(window.parent.document.onmouseup) window.parent.document.onmouseup(arguments[0]);}" width="512" viewBox="0 0 512 512" height="512"><g id="_FILLED_OUTLINE" data-name="/ FILLED_OUTLINE"><path d="m380.68629 28.68629 54.62742 54.62742a16 16 0 0 1 4.68629 11.31371v281.37258a16 16 0 0 1 -16 16h-224a16 16 0 0 1 -16-16v-336a16 16 0 0 1 16-16h169.37258a16 16 0 0 1 11.31371 4.68629z" fill="#bebebe"/><path d="m196.81262 391.68066a16.07075 16.07075 0 0 0 3.18738.31934h224a16.00008 16.00008 0 0 0 16-16v-239.99976c0 137.08814-107.75562 249.0044-243.18738 255.68042z" fill="#a2a2a2"/><path d="m208 144h208v16h-208z" fill="#dfdfdf"/><path d="m208 184h208v16h-208z" fill="#dfdfdf"/><path d="m208 224h208v16h-208z" fill="#dfdfdf"/><path d="m208 264h208v16h-208z" fill="#dfdfdf"/><path d="m208 304h208v16h-208z" fill="#bebebe"/><path d="m208 344h208v16h-208z" fill="#bebebe"/><path d="m435.31372 83.31372-54.62744-54.62744a15.97373 15.97373 0 0 0 -4.68628-3.22998v46.5437a16.00008 16.00008 0 0 0 16 16h46.54364a15.97424 15.97424 0 0 0 -3.22992-4.68628z" fill="#dfdfdf"/><path d="m416 280v-16h-10.26349q-4.7406 8.19434-10.0531 16z" fill="#bebebe"/><path d="m324.68629 76.68629 54.62742 54.62742a16 16 0 0 1 4.68629 11.31371v281.37258a16 16 0 0 1 -16 16h-224a16 16 0 0 1 -16-16v-336a16 16 0 0 1 16-16h169.37258a16 16 0 0 1 11.31371 4.68629z" fill="#00b378"/><path d="m140.81262 439.68066a16.07075 16.07075 0 0 0 3.18738.31934h224a16.00008 16.00008 0 0 0 16-16v-239.99976c0 137.08814-107.75562 249.0044-243.18738 255.68042z" fill="#096"/><path d="m152 192h208v16h-208z" fill="#59cea7"/><path d="m152 232h208v16h-208z" fill="#59cea7"/><path d="m152 272h208v16h-208z" fill="#59cea7"/><path d="m152 312h208v16h-208z" fill="#59cea7"/><path d="m152 352h208v16h-208z" fill="#4cb08e"/><path d="m152 392h208v16h-208z" fill="#4cb08e"/><path d="m379.31372 131.31372-54.62744-54.62744a15.97373 15.97373 0 0 0 -4.68628-3.22998v46.5437a16.00008 16.00008 0 0 0 16 16h46.54364a15.97424 15.97424 0 0 0 -3.22992-4.68628z" fill="#59cea7"/><path d="m268.68629 124.68629 54.62742 54.62742a16 16 0 0 1 4.68629 11.31371v281.37258a16 16 0 0 1 -16 16h-224a16 16 0 0 1 -16-16v-336a16 16 0 0 1 16-16h169.37258a16 16 0 0 1 11.31371 4.68629z" fill="#0071af"/><path d="m112 120v64l20-12 20 12v-64z" fill="#ec9090"/><g fill="#5ca4cc"><path d="m104 216h192v16h-192z"/><path d="m104 248h192v16h-192z"/><path d="m104 280h192v16h-192z"/><path d="m104 320h192v64h-192z"/><path d="m104 408h88v16h-88z"/><path d="m104 440h192v16h-192z"/><path d="m323.31372 179.31372-54.62744-54.62744a15.97373 15.97373 0 0 0 -4.68628-3.22998v46.5437a16.00008 16.00008 0 0 0 16 16h46.54364a15.97424 15.97424 0 0 0 -3.22992-4.68628z"/></g><path d="m84.81262 487.68066a16.07075 16.07075 0 0 0 3.18738.31934h224a16.00008 16.00008 0 0 0 16-16v-239.99976c0 137.08814-107.75562 249.0044-243.18738 255.68042z" fill="#006095"/><path d="m196.02527 456h99.97473v-16h-74.73364a256.1575 256.1575 0 0 1 -25.24109 16z" fill="#4e8cae"/><path d="m277.98834 384h18.01166v-27.97021a256.21616 256.21616 0 0 1 -18.01166 27.97021z" fill="#4e8cae"/><path d="m360 328v-16h-10.26349q-4.7406 8.19434-10.0531 16z" fill="#4cb08e"/><path d="m440.97021 77.65625-54.627-54.62695a23.84254 23.84254 0 0 0 -16.97065-7.0293h-169.37256a24.02718 24.02718 0 0 0 -24 24v24h-32a24.02718 24.02718 0 0 0 -24 24v24h-32a24.02718 24.02718 0 0 0 -24 24v336a24.02718 24.02718 0 0 0 24 24h224a24.02718 24.02718 0 0 0 24-24v-24h32a24.02718 24.02718 0 0 0 24-24v-24h32a24.02718 24.02718 0 0 0 24-24v-281.37305a23.84385 23.84385 0 0 0 -7.02979-16.9707zm-56.97021-34.34225 36.686 36.686h-28.686a8.00917 8.00917 0 0 1 -8-8zm-264 84.686h24v41.87012l-12-7.19922-12 7.19922zm200 344a8.00917 8.00917 0 0 1 -8 8h-224a8.00917 8.00917 0 0 1 -8-8v-336a8.00917 8.00917 0 0 1 8-8h16v70.12988l28-16.80078 28 16.80078v-70.12988h96v40a24.0275 24.0275 0 0 0 24 24h40zm-48-304v-28.686l36.686 36.686h-28.686a8.00917 8.00917 0 0 1 -8-8zm104 256a8.00917 8.00917 0 0 1 -8 8h-32v-24h24v-16h-24v-24h24v-16h-24v-24h24v-16h-24v-24h24v-16h-24v-24h24v-16h-24v-24h24v-16h-24v-1.373a23.84385 23.84385 0 0 0 -7.02979-16.9707l-54.627-54.62695a23.84254 23.84254 0 0 0 -16.97065-7.02935h-121.37256v-24a8.00917 8.00917 0 0 1 8-8h168v40a24.0275 24.0275 0 0 0 24 24h40zm-48-304v-28.686l36.686 36.686h-28.686a8.00917 8.00917 0 0 1 -8-8zm104 256a8.00917 8.00917 0 0 1 -8 8h-32v-24h24v-16h-24v-24h24v-16h-24v-24h24v-16h-24v-24h24v-16h-24v-24h24v-16h-24v-24h24v-16h-24v-1.373a23.84385 23.84385 0 0 0 -7.02979-16.9707l-54.627-54.62695a23.84254 23.84254 0 0 0 -16.97065-7.02935h-121.37256v-24a8.00917 8.00917 0 0 1 8-8h168v40a24.0275 24.0275 0 0 0 24 24h40z"/><path d="m104 216h192v16h-192z"/><path d="m104 248h192v16h-192z"/><path d="m104 280h192v16h-192z"/><path d="m104 392h192v-80h-192zm16-64h160v48h-160z"/><path d="m104 408h88v16h-88z"/><path d="m104 440h192v16h-192z"/></g></svg>