<?xml version="1.0" encoding="UTF-8"?>
<svg xmlns="http://www.w3.org/2000/svg" onmouseup="{ if(window.parent.document.onmouseup) window.parent.document.onmouseup(arguments[0]);}" width="512" viewBox="0 0 512 512" height="512"><g id="FLAT"><path d="m328 24h-272a32 32 0 0 0 -32 32v400a32 32 0 0 0 32 32h240a32 32 0 0 0 32-32v-400a32 32 0 0 1 32-32z" fill="#008afe"/><path d="m440 56h-48v88a32 32 0 0 0 32 32 32 32 0 0 0 32-32v-72a16.00008 16.00008 0 0 0 -16-16z" fill="#008afe"/><path d="m360 24a32 32 0 0 0 -32 31.99994v120.00006h96a32 32 0 0 1 -32-32v-88.00006a32 32 0 0 0 -32-31.99994z" fill="#006cda"/><path d="m152 328h-32v128h32a64 64 0 0 0 64-63.99994v-.00012a64 64 0 0 0 -64-63.99994z" fill="#edb740"/><path d="m64 264h16v32h-16z" fill="#c6dcf5"/><path d="m64 232h16v16h-16z" fill="#c6dcf5"/><path d="m96 240h16v16h-16z" fill="#c6dcf5"/><path d="m96 272h16v32h-16z" fill="#c6dcf5"/><g fill="#006cda"><path d="m416 88h16v16h-16z"/><path d="m416 120h16v16h-16z"/><path d="m272 64h24v16h-24z"/><path d="m272 104h24v16h-24z"/><path d="m64 64h72v16h-72z"/><path d="m64 104h72v16h-72z"/></g><path d="m369.18652 487.91162-2.373-15.82324c25.01948-3.75244 41.18648-25.76856 41.18648-56.08838h16c0 38.09473-22.02734 66.99414-54.81348 71.91162z" fill="#dfdfdf"/><path d="m420.13379 494.84961-8.26758-13.69922a47.07817 47.07817 0 0 0 20.43945-27.34082l15.38868 4.38086a62.38748 62.38748 0 0 1 -27.56055 36.65918z" fill="#dfdfdf"/><path d="m213.99 376h-61.99v-16h55.43994a63.29021 63.29021 0 0 1 6.55006 16z" fill="#db9416"/><path d="m215.51 400a63.325 63.325 0 0 1 -4.16992 16h-59.34008v-16z" fill="#db9416"/><circle cx="120" cy="392" fill="#f4c44d" r="64"/><path d="m96 201.732 312.65426 152.8532a53.17364 53.17364 0 0 0 70.91434-23.99039v-.0001a53.17361 53.17361 0 0 0 -25.07358-71.965l-54.117-25.25461a53.1737 53.1737 0 0 0 -34.02133-3.72236l-25.71509 5.71447a89.0001 89.0001 0 0 1 -55.45314-5.55142l-189.18846-84.08379z" fill="#bebebe"/><path d="m224 72 152.85319 312.65426a53.17363 53.17363 0 0 1 -23.99038 70.91434h-.0001a53.17362 53.17362 0 0 1 -71.965-25.07358l-25.2546-54.117a53.17357 53.17357 0 0 1 -3.72236-34.02133l5.71446-25.71509a89 89 0 0 0 -5.55142-55.45314l-84.08379-189.18846z" fill="#dfdfdf"/><path d="m295.40783 336.29608a17.87628 17.87628 0 0 0 -8.27945 23.38628l25.19535 55.42977a17.87628 17.87628 0 0 0 24.26847 8.59177 17.87628 17.87628 0 0 0 8.27945-23.38628l-25.19535-55.42977a17.87628 17.87628 0 0 0 -24.26847-8.59177z" fill="#bebebe"/><path d="m360.2961 273.13983a17.87628 17.87628 0 0 0 8.59177 24.26847l55.42977 25.19535a17.87627 17.87627 0 0 0 23.38628-8.27945 17.87627 17.87627 0 0 0 -8.59177-24.26846l-55.42977-25.19535a17.87627 17.87627 0 0 0 -23.38628 8.27944z" fill="#dfdfdf"/><path d="m288 280h16v16h-16z" fill="#bebebe"/></g></svg>