<?xml version="1.0" encoding="UTF-8"?>
<svg xmlns="http://www.w3.org/2000/svg" onmouseup="{ if(window.parent.document.onmouseup) window.parent.document.onmouseup(arguments[0]);}" width="512pt" viewBox="-118 0 512 512" height="512pt"><path d="m76.285156 163.210938c-37.34375 3.535156-66.558594 34.980468-66.558594 73.25v78.339843c0 13.535157 10.96875 24.503907 24.5 24.503907 13.535157 0 24.503907-10.96875 24.503907-24.503907v16.832031h118.996093v-16.832031c0 13.535157 10.96875 24.503907 24.503907 24.503907 13.53125 0 24.5-10.96875 24.5-24.503907v-78.339843c0-38.296876-29.257813-69.761719-66.640625-73.257813" fill="#f5b955"/><path d="m177.617188 432.917969v69.058593h-118.886719v-170.34375h118.886719" fill="#bebebe"/><path d="m100.648438 382.125v49.511719h160.058593v-49.59375" fill="#f5b955"/><path d="m95.292969 331.632812h170.765625v50h-170.765625zm0 0" fill="#bc730a"/><path d="m76.328125 163.210938 22.1875 39.4375c8.613281 15.53125 30.9375 15.554687 39.582031.042968l22.035156-39.488281" fill="#fff"/><path d="m200.605469 92.234375c0 45.40625-36.804688 82.210937-82.210938 82.210937-45.402343 0-82.210937-36.804687-82.210937-82.210937 0-45.402344 36.808594-82.210937 82.210937-82.210937 45.40625 0 82.210938 36.808593 82.210938 82.210937zm0 0" fill="#ffcdac"/><path d="m266.453125 321.609375h-29.300781v-85.148437c0-20.957032-7.792969-41.003907-21.9375-56.449219-8.945313-9.769531-19.9375-17.171875-32.070313-21.765625 17.191407-16.761719 27.878907-40.160156 27.878907-66.011719 0-50.859375-41.375-92.234375-92.234376-92.234375-50.859374 0-92.234374 41.375-92.234374 92.234375 0 25.820313 10.664062 49.199219 27.820312 65.957031-26.484375 10.015625-46.945312 33.238282-52.65625 61.792969-1.085938 5.429687 2.4375 10.710937 7.867188 11.796875.660156.132812 1.324218.195312 1.976562.195312 4.679688 0 8.867188-3.296874 9.816406-8.058593 5.03125-25.160157 25.136719-44.875 49.972656-49.808594l18.792969 33.402344c5.835938 10.519531 16.503907 16.8125 28.535157 16.824219h.035156c12.015625 0 22.683594-6.265626 28.53125-16.761719l18.679687-33.472657c29.585938 5.761719 51.175781 31.527344 51.175781 62.359376v85.148437h-28.957031v-19.261719c0-5.539062-4.488281-10.027344-10.023437-10.027344-5.539063 0-10.023438 4.488282-10.023438 10.027344v19.261719h-98.949218v-58.265625c0-5.535156-4.488282-10.023438-10.023438-10.023438s-10.023438 4.488282-10.023438 10.023438v51.457031c0 7.984375-6.496093 14.480469-14.480468 14.480469-7.980469 0-14.476563-6.496094-14.476563-14.480469v-13.476562c0-5.535157-4.488281-10.023438-10.023437-10.023438-5.539063 0-10.027344 4.488281-10.027344 10.023438v13.476562c0 19.039063 15.492188 34.53125 34.527344 34.53125 5.167968 0 10.074218-1.144531 14.480468-3.1875v155.832031c0 5.535157 4.488282 10.023438 10.023438 10.023438h118.882812c5.539063 0 10.023438-4.488281 10.023438-10.023438v-60.316406h73.070312c5.535157 0 10.023438-4.488281 10.023438-10.023437v-41.132813c3.183594-1.679687 5.351562-5.019531 5.351562-8.871094v-50c0-5.539062-4.488281-10.023437-10.023437-10.023437zm-219.851563-229.375c0-39.800781 32.382813-72.183594 72.1875-72.183594 39.804688 0 72.1875 32.382813 72.1875 72.183594 0 39.804687-32.382812 72.1875-72.1875 72.1875-39.804687 0-72.1875-32.382813-72.1875-72.1875zm72.109376 112.050781h-.011719c-4.648438-.003906-8.769531-2.433594-11.054688-6.550781l-8.664062-15.402344c6.382812 1.402344 13.007812 2.140625 19.808593 2.140625 6.707032 0 13.246094-.71875 19.550782-2.085937l-8.605469 15.421875c-2.261719 4.054687-6.378906 6.476562-11.023437 6.476562zm137.714843 137.371094v29.953125h-18.546875v-4.101563c0-5.539062-4.488281-10.027343-10.027344-10.027343-5.535156 0-10.023437 4.488281-10.023437 10.027343v4.101563h-73.515625v-4.101563c0-5.539062-4.488281-10.027343-10.023438-10.027343-5.539062 0-10.027343 4.488281-10.027343 10.027343v4.101563h-18.546875v-29.953125zm-187.277343 0h16.515624v39.976562c0 3.851563 2.167969 7.191407 5.351563 8.871094v41.132813c0 5.535156 4.488281 10.023437 10.023437 10.023437h7.503907v50.292969h-39.394531zm98.835937 150.292969h-39.394531v-50.289063h39.394531zm-56.917969-70.339844v-29.953125h13.195313v7.261719c0 5.535156 4.488281 10.023437 10.023437 10.023437 5.539063 0 10.027344-4.488281 10.027344-10.023437v-7.261719h73.515625v7.261719c0 5.535156 4.488281 10.023437 10.023437 10.023437 5.535157 0 10.023438-4.488281 10.023438-10.023437v-7.261719h13.199219v29.953125zm0 0"/><path d="m.917969 265.671875c1.578125 3.902344 5.332031 6.269531 9.296875 6.269531 1.25 0 2.523437-.238281 3.753906-.734375 5.132812-2.078125 7.609375-7.921875 5.535156-13.054687l-.183594-.449219c-2.074218-5.132813-7.917968-7.609375-13.050781-5.535156-5.132812 2.074219-7.613281 7.917969-5.535156 13.054687zm0 0"/><path d="m168.804688 265.671875c1.578124 3.902344 5.335937 6.269531 9.296874 6.269531 1.253907 0 2.527344-.238281 3.757813-.734375 5.132813-2.078125 7.609375-7.921875 5.53125-13.054687l-.179687-.449219c-2.078126-5.132813-7.921876-7.609375-13.054688-5.535156s-7.609375 7.917969-5.535156 13.054687zm0 0"/></svg>