<?xml version="1.0" encoding="UTF-8"?>
<svg xmlns="http://www.w3.org/2000/svg" onmouseup="{ if(window.parent.document.onmouseup) window.parent.document.onmouseup(arguments[0]);}" width="512" viewBox="0 0 128 128" height="512"><g><g><path data-cppathid="10000" fill="#fff5f5" d="m13.992 1.747h80v109.253h-80z"/><path data-cppathid="10001" fill="#f1e4e0" d="m93.992 16.994v94.006h-59.984v15.247h80v-109.253z"/><path data-cppathid="10002" fill="#47568c" d="m23.992 11.747h60v14h-60z"/><g fill="#f1e4e0"><path data-cppathid="10003" d="m83.992 37.505h-60a1.75 1.75 0 1 1 0-3.5h60a1.75 1.75 0 0 1 0 3.5z"/><path data-cppathid="10004" d="m79.25 48.379h-50.516a1.75 1.75 0 0 1 0-3.5h50.516a1.75 1.75 0 0 1 0 3.5z"/><path data-cppathid="10005" d="m83.992 59.253h-60a1.75 1.75 0 0 1 0-3.5h60a1.75 1.75 0 0 1 0 3.5z"/><path data-cppathid="10006" d="m79.25 70.128h-50.516a1.75 1.75 0 1 1 0-3.5h50.516a1.75 1.75 0 0 1 0 3.5z"/><path data-cppathid="10007" d="m83.992 81h-60a1.75 1.75 0 0 1 0-3.5h60a1.75 1.75 0 0 1 0 3.5z"/><path data-cppathid="10008" d="m79.25 91.876h-50.516a1.75 1.75 0 0 1 0-3.5h50.516a1.75 1.75 0 0 1 0 3.5z"/><path data-cppathid="10009" d="m83.992 102.75h-60a1.75 1.75 0 0 1 0-3.5h60a1.75 1.75 0 1 1 0 3.5z"/></g></g><g><path data-cppathid="10010" d="m114.008 49a1.749 1.749 0 0 0 -1.75 1.75v6.757a1.75 1.75 0 1 0 3.5 0v-6.758a1.749 1.749 0 0 0 -1.75-1.749z"/><path data-cppathid="10011" d="m114.008 15.247h-18.266v-13.497a1.749 1.749 0 0 0 -1.75-1.75h-80a1.749 1.749 0 0 0 -1.75 1.75v109.25a1.749 1.749 0 0 0 1.75 1.75h18.266v13.5a1.749 1.749 0 0 0 1.75 1.75h80a1.749 1.749 0 0 0 1.75-1.75v-55.5a1.75 1.75 0 0 0 -3.5 0v53.75h-76.5v-11.747h58.234a1.749 1.749 0 0 0 1.75-1.75v-92.256h16.516v18.758a1.75 1.75 0 1 0 3.5 0v-20.505a1.749 1.749 0 0 0 -1.75-1.753zm-21.766 94.006h-76.5v-105.753h76.5z"/><path data-cppathid="10012" d="m83.992 10h-60a1.749 1.749 0 0 0 -1.75 1.75v14a1.749 1.749 0 0 0 1.75 1.75h7.852a1.75 1.75 0 0 0 0-3.5h-6.1v-10.5h56.5v10.5h-35.682a1.75 1.75 0 0 0 0 3.5h37.43a1.749 1.749 0 0 0 1.75-1.75v-14a1.749 1.749 0 0 0 -1.75-1.75z"/><path data-cppathid="10013" d="m83.992 34.008h-60a1.75 1.75 0 1 0 0 3.5h60a1.75 1.75 0 0 0 0-3.5z"/><path data-cppathid="10014" d="m79.25 48.382a1.75 1.75 0 0 0 0-3.5h-50.516a1.75 1.75 0 0 0 0 3.5z"/><path data-cppathid="10015" d="m83.992 55.756h-60a1.75 1.75 0 0 0 0 3.5h60a1.75 1.75 0 0 0 0-3.5z"/><path data-cppathid="10016" d="m79.25 70.131a1.75 1.75 0 0 0 0-3.5h-50.516a1.75 1.75 0 0 0 0 3.5z"/><path data-cppathid="10017" d="m83.992 77.505h-60a1.75 1.75 0 0 0 0 3.5h60a1.75 1.75 0 1 0 0-3.5z"/><path data-cppathid="10018" d="m79.25 91.879a1.75 1.75 0 0 0 0-3.5h-50.516a1.75 1.75 0 1 0 0 3.5z"/><path data-cppathid="10019" d="m83.992 99.253h-60a1.75 1.75 0 0 0 0 3.5h60a1.75 1.75 0 0 0 0-3.5z"/></g></g></svg>