<?xml version="1.0" encoding="UTF-8"?>
<svg xmlns="http://www.w3.org/2000/svg" onmouseup="{ if(window.parent.document.onmouseup) window.parent.document.onmouseup(arguments[0]);}" width="512" viewBox="0 0 60 60" height="512" id="Icons"><path d="m6 59a5 5 0 0 1 -5-5v-36a3 3 0 0 1 3-3h12.34a4 4 0 0 1 2.83 1.17l2.66 2.66a4 4 0 0 0 2.83 1.17h3.34v34l-16 5z" fill="#cca455"/><path d="m27 27v-18.172a2 2 0 0 1 .586-1.414l5.828-5.828a2 2 0 0 1 1.414-.586h22.172a2 2 0 0 1 2 2v38a2 2 0 0 1 -2 2h-6z" fill="#d9dde3"/><path d="m51 30v24a5 5 0 0 1 -5 5h-40a4.985 4.985 0 0 0 5-5v-24a3 3 0 0 1 3-3h34a3 3 0 0 1 3 3z" fill="#e2b960"/><rect fill="#fff" height="10" rx="1" width="20" x="15" y="31"/><path d="m34 1.18v5.82a1 1 0 0 1 -1 1h-5.82a2.017 2.017 0 0 1 .41-.59l5.82-5.82a2.017 2.017 0 0 1 .59-.41z" fill="#bdc2cc"/><g fill="#373737"><path d="m14 32v8a2 2 0 0 0 2 2h18a2 2 0 0 0 2-2v-8a2 2 0 0 0 -2-2h-18a2 2 0 0 0 -2 2zm20 8h-18v-8h18z"/><path d="m57 0h-22.172a2.982 2.982 0 0 0 -2.121.879l-5.828 5.828a2.978 2.978 0 0 0 -.879 2.121v10.172h-1.34a3.02 3.02 0 0 1 -2.123-.877l-2.66-2.66a5.035 5.035 0 0 0 -3.537-1.463h-12.34a4 4 0 0 0 -4 4v36a6.006 6.006 0 0 0 6 6h40a6.006 6.006 0 0 0 6-6v-24a4 4 0 0 0 -4-4h-20v-17h5a2 2 0 0 0 2-2v-5h22a1 1 0 0 1 1 1v38a1 1 0 0 1 -1 1h-2a1 1 0 0 0 0 2h2a3 3 0 0 0 3-3v-38a3 3 0 0 0 -3-3zm-7 30v24a4 4 0 0 1 -4 4h-35.521a5.994 5.994 0 0 0 1.521-4v-24a2 2 0 0 1 2-2h34a2 2 0 0 1 2 2zm-36-4a4 4 0 0 0 -4 4v24a4 4 0 0 1 -8 0v-36a2 2 0 0 1 2-2h12.34a3.02 3.02 0 0 1 2.123.877l2.66 2.66a5.035 5.035 0 0 0 3.537 1.463h1.34v5zm15.414-19 3.586-3.586v3.586z"/><path d="m53 26a1 1 0 0 0 1-1v-.184a2.993 2.993 0 0 0 -1-5.816 1 1 0 1 1 .867-1.5 1 1 0 0 0 1.731-1 2.993 2.993 0 0 0 -1.598-1.3v-.2a1 1 0 0 0 -2 0v.184a2.993 2.993 0 0 0 1 5.816 1 1 0 1 1 -.867 1.5 1 1 0 0 0 -1.731 1 2.993 2.993 0 0 0 1.6 1.3v.2a1 1 0 0 0 .998 1z"/><path d="m20 37h1a1 1 0 0 0 0-2h-1a1 1 0 0 0 0 2z"/><path d="m25 37h5a1 1 0 0 0 0-2h-5a1 1 0 0 0 0 2z"/><path d="m27 44h-11a1 1 0 0 0 0 2h11a1 1 0 0 0 0-2z"/><path d="m22 48h-6a1 1 0 0 0 0 2h6a1 1 0 0 0 0-2z"/><path d="m31 13a1 1 0 0 0 -1 1v9a1 1 0 0 0 1 1h14a1 1 0 0 0 0-2h-1v-4a1 1 0 0 0 -2 0v4h-2v-6a1 1 0 0 0 -2 0v6h-2v-4a1 1 0 0 0 -2 0v4h-2v-8a1 1 0 0 0 -1-1z"/><path d="m49.293 11.707a1 1 0 0 0 1.414 0l3.293-3.293v.586a1 1 0 0 0 2 0v-3a1 1 0 0 0 -1-1h-3a1 1 0 0 0 0 2h.586l-2.586 2.586-2.293-2.293a1 1 0 0 0 -1.414 0l-2.293 2.293-2.293-2.293a1 1 0 0 0 -1.414 0l-4 4a1 1 0 1 0 1.414 1.414l3.293-3.293 2.293 2.293a1 1 0 0 0 1.414 0l2.293-2.293z"/></g></svg>