<?xml version="1.0" encoding="UTF-8"?>
<svg xmlns="http://www.w3.org/2000/svg" onmouseup="{ if(window.parent.document.onmouseup) window.parent.document.onmouseup(arguments[0]);}" width="512" viewBox="0 0 512 512" height="512" enable-background="new 0 0 512 512" id="Capa_1"><g><path d="m292.673 256.339v-179.172h17.121c5.273 0 8.156-6.147 4.786-10.202l-53.793-64.72c-2.488-2.994-7.084-2.994-9.572 0l-53.793 64.72c-3.37 4.055-.487 10.202 4.786 10.202h17.121v179.172z" fill="#ffe07d"/><path d="m219.327 231.192h73.345v25.147h-73.345z" fill="#ffd064"/><path d="m481.803 140.487-64.72-53.793c-4.055-3.37-10.202-.487-10.202 4.786v17.121h-51.341c-34.721 0-62.867 28.147-62.867 62.867v84.871h73.345v-74.393h40.864v17.121c0 5.273 6.147 8.156 10.202 4.786l64.72-53.793c2.993-2.489 2.993-7.084-.001-9.573z" fill="#5766cb"/><path d="m292.673 231.192h73.345v25.147h-73.345z" fill="#3342aa"/><path d="m30.197 140.487 64.72-53.793c4.055-3.37 10.202-.487 10.202 4.786v17.121h51.342c34.721 0 62.867 28.147 62.867 62.867v84.871h-73.345v-74.393h-40.864v17.121c0 5.273-6.147 8.156-10.202 4.786l-64.72-53.793c-2.994-2.489-2.994-7.084 0-9.573z" fill="#dd5790"/><path d="m145.982 231.192h73.345v25.147h-73.345z" fill="#da387d"/><g><path d="m341.514 269.788c-2.701 0-5.326-1.408-6.761-3.921l-17.916-31.353c-2.34-4.094-6.724-6.638-11.44-6.638h-98.793c-4.717 0-9.1 2.543-11.441 6.639l-17.916 31.352c-2.132 3.732-6.882 5.028-10.614 2.895-3.73-2.131-5.026-6.884-2.894-10.614l17.916-31.353c5.104-8.931 14.664-14.478 24.949-14.478h98.793c10.285 0 19.845 5.548 24.949 14.478l17.916 31.353c2.132 3.73.836 8.482-2.895 10.614-1.218.695-2.544 1.026-3.853 1.026z" fill="#e49824"/></g><g><path d="m398.499 512h-284.998c-11.574 0-20.956-9.382-20.956-20.956v-135.165h326.911v135.165c-.001 11.574-9.383 20.956-20.957 20.956z" fill="#e49824"/><path d="m92.545 355.879v40.864h293.381c5.787 0 10.478 4.691 10.478 10.478v83.823c0 11.574-9.382 20.956-20.956 20.956h23.051c11.574 0 20.956-9.382 20.956-20.956v-135.165z" fill="#df8621"/><path d="m398.499 375.787h-284.998c-11.574 0-20.956-9.382-20.956-20.956v-77.536c0-11.574 9.382-20.956 20.956-20.956h284.999c11.574 0 20.956 9.382 20.956 20.956v77.536c-.001 11.574-9.383 20.956-20.957 20.956z" fill="#ecbe6b"/><path d="m398.499 256.339h-23.051c11.574 0 20.956 9.382 20.956 20.956v77.536c0 11.574-9.382 20.956-20.956 20.956h23.051c11.574 0 20.956-9.382 20.956-20.956v-77.536c0-11.574-9.382-20.956-20.956-20.956z" fill="#e7a52e"/><path d="m256 417.699c-11.574 0-20.956-9.382-20.956-20.956v-20.956h41.912v20.956c0 11.574-9.382 20.956-20.956 20.956z" fill="#bebebe"/></g></g></svg>