<?xml version="1.0" encoding="UTF-8"?>
<svg xmlns="http://www.w3.org/2000/svg" onmouseup="{ if(window.parent.document.onmouseup) window.parent.document.onmouseup(arguments[0]);}" width="512" viewBox="0 0 512 512" height="512"><g id="Fill_out_line" data-name="Fill out line"><path d="m382.30005 496h-299.48l17.46-122.53c6.73-3.48 13.36987-6.47 19.72-9.11 7.04-2.93 13.7-5.45 19.7-7.8q2.38513-.945 4.62012-1.84c7.67993-3.1 13.98-5.99 18.13989-9.24 3.54-2.77 5.54-5.8 5.54-9.48a24.015 24.015 0 0 0 -1.58008-8.74c-9.07989-23.82-54.41998-28.87-54.41998-79.26v-88c0-24 0-80 100-80 92 0 100 56 100 80v64c0 44.35-68.3 68.21-78.68994 103.14a31.296 31.296 0 0 0 -1.3 7.88c0 .32-.01.65-.01.98a14.13574 14.13574 0 0 0 4.33008 10.2c4.86987 5.01 13.51 8.69 24.27 12.61 1.09985.4 2.22.8 3.35986 1.21 4.79 1.71 9.93018 3.49 15.30005 5.48 40.17989 14.86 92.95995 40.9 103.04 130.5z" fill="#f57a08"/><path d="m279.26 365.5-79.26 122.5-80-123.64c7.04-2.93 13.7-5.45 19.7-7.8q2.38513-.945 4.62012-1.84c7.67993-3.1 13.98-5.99 18.13989-9.24 3.54-2.77 5.54-5.8 5.54-9.48h64a14.13574 14.13574 0 0 0 4.33008 10.2c4.86987 5.01 13.51 8.69 24.27 12.61 1.09985.4 2.22.8 3.35986 1.21 4.79005 1.71 9.93019 3.49 15.30005 5.48z" fill="#e7f2da"/><path d="m184 376 8 24h16l8-24-16-8z" fill="#e34e03"/><path d="m162.46 345.48 37.54 22.52-16 24-44.3-35.44q2.38513-.945 4.62012-1.84c7.67988-3.1 13.97993-5.99 18.13988-9.24z" fill="#b1cdb4"/><path d="m263.96 360.02-47.96 31.98-16-24 36.33008-21.8c4.86987 5.01 13.51 8.69 24.27 12.61 1.09992.4 2.21999.8 3.35992 1.21z" fill="#b1cdb4"/><path d="m312 208.97v11.54a16.96849 16.96849 0 0 1 -10.66992 15.76l-26.55 10.62c-15.1001 49.79-42.17993 56-42.77 88.04v.09c0 .32-.01.65-.01.98a14.13574 14.13574 0 0 0 4.33008 10.2l-36.33016 21.8-37.54-22.52c3.54-2.77 5.54-5.81 5.54-9.48 0-32-56-32-56-88v-88c4.25-47.75 35.75-43.75 32-24s8 24 32 24 48-6.85 48-24c0-24 32-16 32 16v48c0 18.79 21.18994 19.93 23.75 3.41a11.63722 11.63722 0 0 1 3.28-6.44 16.97 16.97 0 0 1 28.97 12z" fill="#f5a971"/><path d="m208 400 8 64-16 32-16-32 8-64z" fill="#e34e03"/><path d="m382.30005 496h-299.48l17.46-122.53c2.36011-1.22 4.72-2.39 7.05-3.49 13.63989-6.46 26.58984-11.06 36.99-15.26l55.67995 125.28 60.6001-121.19c9.37988 3.42 20.35986 7.03 31.83984 11.87 37.75 15.94 80.85006 45.25 89.86011 125.32z" fill="#0e638b"/><path d="m280 408h-24l16 24-52.35986 64h-39.28028l-52.35986-64 16-24h-24l-12.66992-38.02c13.63989-6.46 26.58984-11.06 36.99-15.26l55.67992 125.28 60.6001-121.19c9.37988 3.42 20.35986 7.03 31.83984 11.87z" fill="#0a4b69"/><path d="m488 120a96.01806 96.01806 0 0 1 -186.84009 31.14 15.73484 15.73484 0 0 1 -5.15991.86 16 16 0 0 1 0-32 96 96 0 0 1 192 0z" fill="#537ec2"/><circle cx="264" cy="152" fill="#537ec2" r="8"/><g fill="#f3b73f"><rect height="16" rx="8" width="128" x="328" y="152"/><rect height="24" rx="8" width="16" x="336" y="112"/><rect height="64" rx="8" width="16" x="368" y="72"/><rect height="40" rx="8" width="16" x="400" y="96"/><rect height="72" rx="8" width="16" x="432" y="64"/></g><path d="m216 300.22a7.59712 7.59712 0 0 1 -3.02 6.05l-2.8 2.1 1.69007 3.37a12.807 12.807 0 0 1 -2.4 14.79 11.56665 11.56665 0 0 1 -1.47 1.25v.22a23.42009 23.42009 0 0 1 -14.06006 21.46c-6.73001 2.94-14.13996 6.74-17.94001 10.54-8 8-16 32-16 32l-96 48 48-88h8s8-8 8-24-8-16 0-32 24-16 24 0v16s16 0 24-8l16.1-16.1a8.05525 8.05525 0 0 1 12.9 2.09 8.07637 8.07637 0 0 1 .84009 3.14 7.55194 7.55194 0 0 1 10.15991 7.09z" fill="#f5a971"/><path d="m168 400s-18.85986 69.15-34.29 96h-13.71l-56-56 48-88c0 16 8 40 24 48s32 0 32 0z" fill="#0e638b"/><path d="m168 400s-18.85986 69.15-34.29 96h-95.01c-4.2-6.21-6.7-14.11-6.7-24 0-56 56-80 56-80l6.5-3.06z" fill="#0e638b"/><path d="m120 352c8 24 18.947 32 42.947 32l3.41135-8.07565 1.64165 24.07565s-16 8-32 0-24-32-24-48z" fill="#e7f2da"/><path d="m180 244h4a4 4 0 0 0 0-8h-4a8 8 0 0 1 0-16h4a4 4 0 0 0 0-8h-4a16 16 0 0 0 0 32z"/><path d="m217.09863 260.15381a44.13192 44.13192 0 0 0 -31.01953 4.00439c-7.6543 4.19141-14.56738 5.78223-18.9707 4.35791a5.48346 5.48346 0 0 1 -3.49707-2.89648 3.99989 3.99989 0 0 0 -7.22266 3.43945 13.43669 13.43669 0 0 0 8.25879 7.06934 19.41237 19.41237 0 0 0 5.98145.87988c5.626 0 12.26562-1.98535 19.292-5.8335a36.6155 36.6155 0 0 1 24.99316-3.32519 3.99993 3.99993 0 0 0 2.18457-7.6958z"/><path d="m296 452a3.99891 3.99891 0 0 0 -4 4v40h8v-40a3.99891 3.99891 0 0 0 -4-4z"/><circle cx="224" cy="208" r="8"/><circle cx="144" cy="208" r="8"/><path d="m160.7146 184.71686a4.26955 4.26955 0 0 0 -1.675-1.03662l-18.3716-6.11737a7.99991 7.99991 0 0 0 -8.18872 1.93792l-5.66406 5.673a4 4 0 0 0 2.83078 6.82621h28.04492a4.26918 4.26918 0 0 0 3.02368-7.28314z"/><path d="m235.52075 179.50079a7.99991 7.99991 0 0 0 -8.18872-1.93792l-18.37158 6.11737a4.26916 4.26916 0 0 0 1.34863 8.31976h28.04492a4 4 0 0 0 2.83081-6.82617z"/><path d="m448 148h-112a12 12 0 0 0 0 24h112a12 12 0 0 0 0-24zm0 16h-112a4 4 0 0 1 0-8h112a4 4 0 0 1 0 8z"/><path d="m344 140a12.00943 12.00943 0 0 0 12-12v-8a12 12 0 0 0 -24 0v8a12.00943 12.00943 0 0 0 12 12zm-4-20a4 4 0 0 1 8 0v8a4 4 0 0 1 -8 0z"/><path d="m376 140a12.00943 12.00943 0 0 0 12-12v-48a12 12 0 0 0 -24 0v48a12.00943 12.00943 0 0 0 12 12zm-4-60a4 4 0 0 1 8 0v48a4 4 0 0 1 -8 0z"/><path d="m408 140a12.00943 12.00943 0 0 0 12-12v-24a12 12 0 0 0 -24 0v24a12.00943 12.00943 0 0 0 12 12zm-4-36a4 4 0 0 1 8 0v24a4 4 0 0 1 -8 0z"/><path d="m440 140a12.00943 12.00943 0 0 0 12-12v-56a12 12 0 0 0 -24 0v56a12.00943 12.00943 0 0 0 12 12zm-4-68a4 4 0 0 1 8 0v56a4 4 0 0 1 -8 0z"/><path d="m392 16a104.02175 104.02175 0 0 0 -100.81006 78.38c-18.37988-14.86-44.95994-22.38-79.18994-22.38-45.62012 0-77.23 11.53-93.94995 34.26-14.05005 19.12-14.05005 40.79-14.05005 53.74v88c0 18.2 5.18994 32.8 16.27 45.59-5.27 11.08-4.18994 16.83-2.08008 23.66a31.96948 31.96948 0 0 1 1.81008 10.75 30.86156 30.86156 0 0 1 -4.03 16h-3.97a7.99089 7.99089 0 0 0 -7.02 4.17l-19.82009 36.33-.3999.19a117.45522 117.45522 0 0 0 -30.19995 20.45c-25.26001 23.45-30.56006 49.3-30.56006 66.86a52.11214 52.11214 0 0 0 5.37012 24h14.28979c-5.09985-6.27-7.65991-14.29-7.65991-24 0-21.98 8.92993-41.46 26.53-57.89a110.82112 110.82112 0 0 1 18.65991-13.97l-20.7 37.94 7.02 3.84 41.90991-76.83a76.447 76.447 0 0 0 4.92017 15.53c3.3999 7.64 9.59985 17.82 19.86987 22.96a38.17942 38.17942 0 0 0 17.2 3.99 44.91486 44.91486 0 0 0 10.69019-1.33c-7.13005 24.99-21.83005 71.82-33.02998 89.76h9.15993c4.24-7.84 8.64014-18.35 12.81006-29.53l24.15994 29.53h10.33l-31.32-38.28c5.29-15 9.99-30.25 13.22-41.16l28.91016 65.06a4.0105 4.0105 0 0 0 3.56982 2.38h.09002a4.00233 4.00233 0 0 0 3.58008-2.21l14.38992-28.78v-.01l44.61011-89.22c1.45.52 2.91992 1.04 4.41992 1.57 6.41992 2.27 13.33008 4.72 20.46 7.61l-10.33991 31.04h-21.12012a3.99839 3.99839 0 0 0 -3.33008 6.22l14.36008 21.54-52.56 64.24h10.33008l50.30005-61.47a4.01079 4.01079 0 0 0 .23-4.75l-11.86013-17.78h16.53a3.98749 3.98749 0 0 0 3.79-2.74l11.06006-33.17c35.89994 15.97 74.84994 45.06 83.41994 119.91h12.0801c-4.69019-43.57-19.42017-76.75-44.81006-101.08-23.98-22.99-52.01-32.91-74.54-40.88-17.32007-6.13-31-10.98-31-18.04 0-.25 0-.5.01-.72.49-15.09 16.98-29.07 34.42993-43.87 22.40012-18.98 45.56003-38.62 45.56003-67.41v-28.91a103.06474 103.06474 0 0 0 72 28.91 104 104 0 0 0 0-208zm-254.21 380.42c-12.37012-6.18-20.41016-24.91-21.62012-40.42h.99c8.51 23.56 20.77 32 45.79 32a1.62951 1.62951 0 0 0 .22-.02l.64014 9.4c-4.68014 1.64-15.46993 4.32-26.02002-.96zm24.93-22.15c-.90991 2.13-2.40991 5.69-2.40991 5.69-19.7002-.54-28.81006-7.48-35.8-27.15 2.6499-3.57 7.49-11.86 7.49-24.81a43.8359 43.8359 0 0 0 -2.34009-14.3c-1.42993-4.61-2.23-7.25 1.43018-14.91 4.09985 3.64 8.31982 6.84 12.3 9.84 2.88989 2.19 5.61987 4.26 8.13989 6.35a3.97026 3.97026 0 0 0 2.82983.92c6.16016-.4 17.52-2.13 24.47022-9.07l16.09985-16.1a4.04757 4.04757 0 0 1 6.49 1.05 4.05088 4.05088 0 0 1 -1.2 5.05l-26.61987 19.97a3.99995 3.99995 0 1 0 4.7998 6.4l26.6301-19.97a12.0885 12.0885 0 0 0 4.36987-6.41 3.37372 3.37372 0 0 1 1.08008.49 3.484 3.484 0 0 1 1.52 2.91 3.57623 3.57623 0 0 1 -1.41992 2.85l-28.98 21.73a3.99995 3.99995 0 1 0 4.7998 6.4l22.28-16.71a8.78 8.78 0 0 1 -2.03979 9.21 8.68328 8.68328 0 0 1 -2.29 1.65l-14.14004 7.07a4.0008 4.0008 0 0 0 1.79 7.58 4.116 4.116 0 0 0 1.79-.42l8.83008-4.42a19.42217 19.42217 0 0 1 -10.28 10.63 94.855 94.855 0 0 0 -14.06008 7.35c-.01 0-.01 0-.02.01a33.22162 33.22162 0 0 0 -5.09009 4.02c-3.26 3.26-6.77977 9.01-10.44991 17.1zm16.11011-11.44a19.37153 19.37153 0 0 1 1.96-1.69l13.55005 8.13-11.25 16.88-12.45-9.96c3.75974-8 6.50974-11.68 8.18992-13.36zm21.16989 12.38 8.03 12.05-2.90988 8.74h-10.24024l-2.90988-8.74zm-16.23 58.41-12.8999-29.01c.5498-1.94.88989-3.18.98974-3.56l-.00976-.01a3.82857 3.82857 0 0 0 .13989-1.31l-.88013-12.92 10.39016 8.31a3.98872 3.98872 0 0 0 4.72.2l1.7 5.09zm16.44 37.01-10.1499-22.85 5.4699-43.78h8.94l5.81 46.49zm16.52-33.04-4.6499-37.18 1.7-5.09a3.9481 3.9481 0 0 0 2.2199.68 4.00834 4.00834 0 0 0 2.22-.67l29.47-19.65zm38.3-76.59-.13013.26-37.79 25.19-11.45-17.18 30.2-18.12c4.76025 3.82 11.41013 6.88 19.17013 9.85zm11.6499-78.73c-2.45 2.08-4.88989 4.14-7.27 6.2a144.10558 144.10558 0 0 0 18.6301-38.57l24.78-9.92a21.69172 21.69172 0 0 0 2.23-1.06c-6.47993 16.3-22.63008 30-38.37007 43.35zm41.3201-61.76a12.97419 12.97419 0 0 1 -8.1499 12.04l-26.5601 10.63a4.049 4.049 0 0 0 -2.3501 2.58c-7.23 23.84-17.09985 37.15-25.81006 48.89-9.1899 12.4-17.12984 23.11-17.12984 41.35a17.40318 17.40318 0 0 0 2.41992 9.09l-30.41992 18.25-11.48-6.9c1.97-1.02 4.29-2.12 7.03-3.32a27.426 27.426 0 0 0 16.38989-23.43q.18018-.16506.36011-.33a16.8083 16.8083 0 0 0 3.1499-19.41l-.2-.39.12988-.09a11.349 11.349 0 0 0 3.47022-4.16 11.57394 11.57394 0 0 0 -10.06-16.63c-.07007-.16-.14014-.32-.22-.48a12.05579 12.05579 0 0 0 -19.3-3.13l-16.1001 16.1c-4.74 4.74-13.52978 6.19-17.79 6.62-2.27978-1.85-4.66992-3.65-7.16992-5.54-15.10012-11.41-32.20998-24.35-32.20998-54.25v-82.86a73.64581 73.64581 0 0 1 1.52-15.32c3.6499-17.28 11.22-21.9 13.77-22.98 2.58984-1.1 5.06006-.94 6.77.44 1.93994 1.56 2.67993 4.47 2.01 7.97-1.66016 8.74-.58008 15.27 3.3 19.95 6.3999 7.73 19.47 8.8 32.62988 8.8 13.42993 0 25.71-2.09 34.58008-5.89 14.40004-6.17 17.42004-15.43 17.42004-22.11 0-6.33 2.55-9.95 7.01-9.95 7.11987 0 16.99 9.01 16.99 25.95v48c0 8.58 4.6499 18.17 14.85986 18.96 6.92014.54 15.13014-3.92 16.84014-14.94a7.66879 7.66879 0 0 1 2.15991-4.22 12.85731 12.85731 0 0 1 9.71021-3.79 13.19919 13.19919 0 0 1 12.42988 13.31zm0-27.99a20.92891 20.92891 0 0 0 -27.8 1.62 15.78655 15.78655 0 0 0 -4.41 8.66c-.93018 6.02-4.8501 8.45-8.31006 8.18-3.45-.27-7.48-3.3-7.48-10.98v-36.7a11.80317 11.80317 0 0 0 4 .7 12 12 0 1 0 -5.24-22.78c-3.53-14.55-13.95-23.17-23.75-23.17-10.36987 0-15.01 9.01-15.01 17.95 0 14.76-23.69995 20-44 20-14.92993 0-23.09009-1.82-26.47-5.9-2.26-2.73-2.79-7.1-1.6001-13.35 1.22-6.41-.59985-12.27-4.84985-15.7-4.03-3.24-9.6001-3.83-14.92017-1.57a22.08569 22.08569 0 0 0 -6.37988 4.27 53.03439 53.03439 0 0 1 5.94006-10.38c14.33005-19.49 42.68991-29.37 84.28-29.37 37.6001 0 64.6001 9.49 80.31006 28.2-.11011 1.39-.2002 2.79-.25 4.19a20.001 20.001 0 0 0 3.93994 39.61 20.54183 20.54183 0 0 0 2.60986-.17 99.70683 99.70683 0 0 0 9.39014 18.45zm-48-40.52a4 4 0 1 1 4 4 3.99891 3.99891 0 0 1 -4-4zm132 60a92.03878 92.03878 0 0 1 -87.06006-62.16 3.99816 3.99816 0 0 0 -2.03-2.3 4.10873 4.10873 0 0 0 -1.75-.4 3.95783 3.95783 0 0 0 -1.30981.22 11.86936 11.86936 0 0 1 -3.85013.64 12 12 0 0 1 0-24 3.999 3.999 0 0 0 4-4 92 92 0 1 1 92 92z"/></g></svg>