<?xml version="1.0" encoding="UTF-8"?>
<svg xmlns="http://www.w3.org/2000/svg" onmouseup="{ if(window.parent.document.onmouseup) window.parent.document.onmouseup(arguments[0]);}" height="512" width="512" viewBox="0 0 512 512"><g id="outline"><circle data-cppathid="10000" r="9.5" cy="198.5" cx="233.5"/><circle data-cppathid="10001" r="9.5" cy="198.5" cx="278.5"/><path data-cppathid="10002" d="M240,232a8,8,0,0,0,8,8h16a8,8,0,0,0,0-16H248A8,8,0,0,0,240,232Z"/><path data-cppathid="10003" d="M448,272H432V256h18a22.025,22.025,0,0,0,22-22V184a64,64,0,0,0-128,0v50a22.025,22.025,0,0,0,22,22h18v16H368a40.035,40.035,0,0,0-37.358,25.665l-8.473-1.414L288,282.584V261.917A55.964,55.964,0,0,0,312,216a23.986,23.986,0,0,0,16-41.869V160a72,72,0,0,0-144,0v14.131A23.986,23.986,0,0,0,200,216a55.964,55.964,0,0,0,24,45.917v20.667l-34.168,13.667-3.231.539A46.616,46.616,0,0,0,145.46,272H128V247.978A40.075,40.075,0,0,0,143.2,224H144a23.981,23.981,0,0,0,18.266-39.542l4.017-15.181c.04-.15.075-.3.107-.454a40.415,40.415,0,0,0,.8-8.023,40.8,40.8,0,0,0-40.8-40.8H100.2a43.854,43.854,0,0,1-19.534-4.616l-21.09-10.54A8,8,0,0,0,48,112v40a24.039,24.039,0,0,0,16,22.624V176a24,24,0,0,0,0,48h.805A40.075,40.075,0,0,0,80,247.978V272H62.54A46.593,46.593,0,0,0,16,318.54V416a8,8,0,0,0,8,8H480a8,8,0,0,0,8-8V312A40.045,40.045,0,0,0,448,272Zm-80-80v16a8,8,0,0,1,0-16Zm88,8a8.009,8.009,0,0,1-8,8V192A8.009,8.009,0,0,1,456,200Zm-24,16a24,24,0,0,1-48,0V192h48ZM400,255.2a40.154,40.154,0,0,0,16,0v22.383l-8,12-8-12ZM450,240H439.978a39.835,39.835,0,0,0,7.217-16H448a23.889,23.889,0,0,0,8-1.376V234A6.006,6.006,0,0,1,450,240ZM408,136a48,48,0,0,1,47.52,41.213A23.9,23.9,0,0,0,448,176H368a23.906,23.906,0,0,0-7.511,1.21A48.067,48.067,0,0,1,408,136Zm-48,98V222.624A23.889,23.889,0,0,0,368,224h.805a39.835,39.835,0,0,0,7.217,16H366A6.006,6.006,0,0,1,360,234Zm-41.316,77.891,17.922,2.991A27.905,27.905,0,0,1,360,342.5V352H320a8,8,0,0,0-8,8v48H287.305l-7.132-78.457,2.018-4.037.152.151a8,8,0,0,0,13.418-3.716l4.326-17.29,16.942,6.777A7.917,7.917,0,0,0,318.684,311.891ZM328,368h32v40H328Zm-49.541-72,6.635,2.654-1.426,5.7L275.313,296Zm-51.553,2.654L233.541,296h3.146l-8.355,8.354Zm14.828,14.926L256,299.314l14.266,14.266-3.21,6.42H244.944ZM312,200V184a8,8,0,0,1,0,16ZM200,160a56,56,0,1,1,112,0v8h-6.3l-70.449-31.311A8,8,0,0,0,225.6,139.2L204,168h-4Zm-8,32a8.009,8.009,0,0,1,8-8v16A8.009,8.009,0,0,1,192,192Zm24,24V178.667L234.575,153.9,296,181.2V216a40,40,0,0,1-80,0Zm40,56a55.823,55.823,0,0,0,16-2.341V280H240V269.659A55.823,55.823,0,0,0,256,272Zm-86.463,27.769A43.836,43.836,0,0,0,136,342.5V408H112V322.217L132.53,288h12.93A30.584,30.584,0,0,1,169.537,299.769ZM104,240a24.028,24.028,0,0,1-24-24V176h48v40A24.028,24.028,0,0,1,104,240Zm40-32V192a8,8,0,0,1,0,16ZM64,124.941l9.508,4.752A59.919,59.919,0,0,0,100.2,136h26.19a24.8,24.8,0,0,1,24.8,24.8,24.4,24.4,0,0,1-.438,4.626l-2.882,10.89A24.088,24.088,0,0,0,144,176v-8a8,8,0,0,0-8-8H72a8.009,8.009,0,0,1-8-8ZM56,200a8.009,8.009,0,0,1,8-8v16A8.009,8.009,0,0,1,56,200Zm48,56a40.028,40.028,0,0,0,8-.805V280a7.983,7.983,0,0,0,2.948,6.2L104,304.45,93.051,286.2A7.981,7.981,0,0,0,96,280V255.2A40.028,40.028,0,0,0,104,256ZM62.54,288H75.47L96,322.217V408H64V336a8,8,0,0,0-8-8H32v-9.46A30.574,30.574,0,0,1,62.54,288ZM32,344H48v8H32Zm0,64V368H48v40Zm120-40h32v40H152Zm48-8a8,8,0,0,0-8-8H152v-9.5a27.907,27.907,0,0,1,23.4-27.619l17.917-2.989a7.989,7.989,0,0,0,1.656-.464l16.942-6.777,4.326,17.29a8,8,0,0,0,13.418,3.716l.152-.151,2.018,4.037L224.7,408H200Zm40.761,48,6.545-72h17.388l6.545,72ZM376,352v-9.5A43.836,43.836,0,0,0,346.652,301,24.058,24.058,0,0,1,368,288h19.719l13.625,20.438a8,8,0,0,0,13.312,0L428.281,288H448a24.028,24.028,0,0,1,24,24H453.56a8,8,0,0,0-7.272,11.337A19.483,19.483,0,0,1,444.8,342.39l-3.45,5.17A8,8,0,0,0,440,352v56H376Zm80,56V354.424l2.106-3.156A35.381,35.381,0,0,0,463.931,328H472v80Z"/></g></svg>