<?xml version="1.0" encoding="UTF-8"?>
<svg xmlns="http://www.w3.org/2000/svg" onmouseup="{ if(window.parent.document.onmouseup) window.parent.document.onmouseup(arguments[0]);}" width="512" viewBox="0 0 64 64" height="512" enable-background="new 0 0 64 64" id="Layer_3"><g><g><path data-cppathid="10000" fill="#c7e2fc" d="m52 40v6.262c-3.449.889-6 4.011-6 7.738 0 4.418 3.582 8 8 8s8-3.582 8-8c0-3.726-2.551-6.848-6-7.738v-6.262"/></g><g><path data-cppathid="10001" fill="#f5b953" d="m54 62c2.959 0 5.537-1.611 6.921-4h-3.093c-1.811 0-3.548-.719-4.828-2s-3.017-2-4.828-2h-2.172c0 4.418 3.582 8 8 8z"/></g><g><circle data-cppathid="10002" r="2" fill="#f5b953" cy="34" cx="51"/></g><g><circle data-cppathid="10003" r="3" fill="#f5b953" cy="27" cx="57"/></g><g><path data-cppathid="10004" fill="#ebf7fe" d="m15 38-8.765 2.697c-2.517.774-4.235 3.1-4.235 5.734v15.569h40v-15.569c0-2.634-1.718-4.96-4.235-5.735l-8.765-2.696"/></g><g><path data-cppathid="10005" fill="#c7e2fc" d="m33 39v7l-5 1 2 2-8 13-8-13 2-2-5-1v-7"/></g><g><path data-cppathid="10006" fill="#59ac98" d="m15 38 7 17 7-17"/></g><g><path data-cppathid="10007" fill="#976947" d="m7 22v-9.757c0-5.657 4.586-10.243 10.243-10.243h7.515c2.716 0 5.321 1.079 7.242 3 2.761 0 5 2.239 5 5v12"/></g><g><path data-cppathid="10008" fill="#db9b7c" d="m35 21c2.209 0 4 1.791 4 4 0 2.209-1.791 4-4 4"/></g><g><path data-cppathid="10009" fill="#db9b7c" d="m9 21c-2.209 0-4 1.791-4 4 0 2.209 1.791 4 4 4"/></g><g><path data-cppathid="10010" fill="#efbe9a" d="m9 21c2.209 0 4-1.791 4-4v-1.93c0-1.696 1.375-3.07 3.07-3.07.606 0 1.199.179 1.703.516l.562.375c1.086.723 2.361 1.109 3.665 1.109 1.304 0 2.579-.386 3.664-1.109l.562-.375c.505-.337 1.097-.516 1.704-.516 1.696 0 3.07 1.375 3.07 3.07v1.93c0 2.209 1.791 4 4 4v6c0 7.18-5.82 13-13 13-7.18 0-13-5.82-13-13z"/></g><g><path data-cppathid="10011" fill="#c7e2fc" d="m9 25c2.596 1.947 5.754 3 9 3 .64 0 1.254-.254 1.707-.707l.586-.586c.453-.453 1.067-.707 1.707-.707.64 0 1.254.254 1.707.707l.586.586c.453.453 1.067.707 1.707.707 3.246 0 6.404-1.053 9-3v-5h-26z"/></g><g><path data-cppathid="10012" d="m8 50h2v12h-2z"/></g><g><path data-cppathid="10013" d="m34 50h2v12h-2z"/></g><g><path data-cppathid="10014" d="m42 63h-40c-.552 0-1-.447-1-1v-15.568c0-3.092 1.986-5.781 4.941-6.691l8.765-2.696.588 1.912-8.765 2.696c-2.111.649-3.529 2.57-3.529 4.779v14.568h38v-14.568c0-2.209-1.418-4.13-3.53-4.779l-8.764-2.696.588-1.912 8.765 2.696c2.955.909 4.941 3.599 4.941 6.691v15.568c0 .553-.448 1-1 1z"/></g><g><path data-cppathid="10015" d="m22 41c-7.72 0-14-6.28-14-14v-6c0-.553.448-1 1-1 1.654 0 3-1.346 3-3v-1.93c0-2.244 1.826-4.07 4.07-4.07.806 0 1.586.236 2.257.684l.563.375c1.847 1.232 4.372 1.232 6.219 0l.562-.375c.672-.448 1.453-.684 2.259-.684 2.244 0 4.07 1.826 4.07 4.07v1.93c0 1.654 1.346 3 3 3 .552 0 1 .447 1 1v6c0 7.72-6.28 14-14 14zm-12-19.101v5.101c0 6.617 5.383 12 12 12s12-5.383 12-12v-5.101c-2.279-.465-4-2.484-4-4.899v-1.93c0-1.142-.929-2.07-2.07-2.07-.41 0-.807.12-1.149.348l-.562.375c-2.506 1.672-5.932 1.672-8.438 0l-.562-.375c-.342-.228-.739-.348-1.149-.348-1.141 0-2.07.929-2.07 2.07v1.93c0 2.415-1.721 4.435-4 4.899z"/></g><g><path data-cppathid="10016" d="m22 56c-.405 0-.771-.244-.925-.619l-7-17 1.85-.762 6.075 14.755 6.075-14.755 1.85.762-7 17c-.154.375-.52.619-.925.619z"/></g><g><path data-cppathid="10017" d="m22 63c-.347 0-.669-.18-.852-.476l-8-13c-.243-.395-.183-.904.145-1.231l.679-.679-3.168-.634c-.468-.093-.804-.503-.804-.98v-7h2v6.181l4.196.839c.361.072.654.338.761.69.107.354.011.736-.25.997l-1.441 1.441 6.734 10.944 6.734-10.943-1.441-1.441c-.261-.261-.357-.644-.25-.997s.399-.618.761-.69l4.196-.84v-6.181h2v7c0 .477-.336.887-.804.98l-3.168.634.679.679c.328.327.387.837.145 1.231l-8 13c-.183.296-.505.476-.852.476z"/></g><g><path data-cppathid="10018" d="m38 22h-2v-12c0-2.206-1.794-4-4-4-.265 0-.52-.105-.707-.293-1.746-1.746-4.067-2.707-6.536-2.707h-7.515c-5.096 0-9.242 4.146-9.242 9.242v9.758h-2v-9.758c0-6.199 5.043-11.242 11.243-11.242h7.515c2.869 0 5.574 1.067 7.662 3.015 3.113.215 5.58 2.817 5.58 5.985z"/></g><g><path data-cppathid="10019" d="m22 36c-2.214 0-4.269-1.1-5.496-2.941l-.336-.504 1.664-1.109.336.504c.856 1.283 2.289 2.05 3.832 2.05s2.976-.767 3.832-2.051l.336-.504 1.664 1.109-.336.504c-1.227 1.842-3.282 2.942-5.496 2.942z"/></g><g><path data-cppathid="10020" d="m54 63c-4.962 0-9-4.037-9-9 0-3.838 2.431-7.22 6-8.479v-5.521h2v6.262c0 .456-.309.854-.75.969-3.091.796-5.25 3.581-5.25 6.769 0 3.859 3.14 7 7 7s7-3.141 7-7c0-3.188-2.159-5.973-5.25-6.77-.441-.114-.75-.512-.75-.968v-6.262h2v5.521c3.569 1.259 6 4.641 6 8.479 0 4.963-4.038 9-9 9z"/></g><g><path data-cppathid="10021" d="m49 39h10v2h-10z"/></g><g><path data-cppathid="10022" d="m61 59h-3.171c-2.091 0-4.057-.814-5.536-2.293-1.101-1.101-2.565-1.707-4.122-1.707h-2.171v-2h2.171c2.091 0 4.057.814 5.536 2.293 1.101 1.101 2.565 1.707 4.122 1.707h3.171z"/></g><g><path data-cppathid="10023" d="m51 37c-1.654 0-3-1.346-3-3s1.346-3 3-3 3 1.346 3 3-1.346 3-3 3zm0-4c-.551 0-1 .448-1 1s.449 1 1 1 1-.448 1-1-.449-1-1-1z"/></g><g><path data-cppathid="10024" d="m57 31c-2.206 0-4-1.794-4-4s1.794-4 4-4 4 1.794 4 4-1.794 4-4 4zm0-6c-1.103 0-2 .897-2 2s.897 2 2 2 2-.897 2-2-.897-2-2-2z"/></g><g><path data-cppathid="10025" d="m9 30c-2.757 0-5-2.243-5-5s2.243-5 5-5v2c-1.654 0-3 1.346-3 3s1.346 3 3 3z"/></g><g><path data-cppathid="10026" d="m35 30v-2c1.654 0 3-1.346 3-3s-1.346-3-3-3v-2c2.757 0 5 2.243 5 5s-2.243 5-5 5z"/></g><g><path data-cppathid="10027" d="m16.5 25c-.827 0-1.5-.673-1.5-1.5s.673-1.5 1.5-1.5 1.5.673 1.5 1.5-.673 1.5-1.5 1.5z"/></g><g><path data-cppathid="10028" d="m27.5 25c-.827 0-1.5-.673-1.5-1.5s.673-1.5 1.5-1.5 1.5.673 1.5 1.5-.673 1.5-1.5 1.5z"/></g><g><path data-cppathid="10029" d="m11.646 19h20.709v2h-20.709z"/></g><g><path data-cppathid="10030" d="m26 29c-.913 0-1.77-.355-2.415-1l-.585-.586c-.534-.535-1.466-.535-2 0l-.586.586c-.644.645-1.501 1-2.414 1-3.439 0-6.848-1.137-9.6-3.2l1.2-1.6c2.408 1.806 5.391 2.8 8.4 2.8.378 0 .733-.146 1-.414l.586-.586c1.288-1.289 3.54-1.289 4.829 0l.585.586c.267.268.622.414 1 .414 3.009 0 5.992-.994 8.4-2.8l1.2 1.6c-2.752 2.063-6.161 3.2-9.6 3.2z"/></g></g></svg>