<?xml version="1.0" encoding="UTF-8"?>
<svg xmlns="http://www.w3.org/2000/svg" onmouseup="{ if(window.parent.document.onmouseup) window.parent.document.onmouseup(arguments[0]);}" width="512pt" viewBox="0 0 512 512" height="512pt"><path data-cppathid="10000" fill="#382b73" d="m512 256c0 141.386719-114.613281 256-256 256s-256-114.613281-256-256 114.613281-256 256-256 256 114.613281 256 256zm0 0"/><path data-cppathid="10001" fill="#473080" d="m478.554688 256c0 122.914062-99.640626 222.554688-222.554688 222.554688s-222.554688-99.640626-222.554688-222.554688 99.640626-222.554688 222.554688-222.554688 222.554688 99.640626 222.554688 222.554688zm0 0"/><path data-cppathid="10002" fill="#382b73" d="m407.414062 411.144531c.511719-.707031.898438-1.414062 1.285157-2.125 3.023437-6.042969 2.058593-13.570312-2.957031-18.585937l-32.355469-32.355469c6.367187-8.363281 11.835937-17.429687 16.273437-26.949219 4.503906-9.714844 7.976563-19.875 10.292969-30.296875 2.378906-10.675781 3.535156-21.613281 3.472656-32.480469-.066406-9.007812-.902343-17.949218-2.507812-26.757812-1.609375-8.554688-3.988281-16.984375-7.078125-25.152344-3.023438-7.976562-6.816406-15.695312-11.191406-23.027344-4.375-7.265624-9.324219-14.148437-14.859376-20.582031-5.53125-6.433593-11.640624-12.414062-18.136718-17.753906-6.5625-5.402344-13.570313-10.226563-20.90625-14.40625-7.460938-4.246094-15.242188-7.785156-23.347656-10.679687-8.234376-2.957032-16.722657-5.144532-25.40625-6.558594-8.875-1.480469-17.882813-2.058594-26.886719-1.929688-9.003907.191406-17.945313 1.15625-26.757813 2.957032-8.617187 1.738281-17.046875 4.246093-25.148437 7.527343-7.976563 3.214844-15.761719 7.140625-23.027344 11.640625-7.269531 4.503906-14.085937 9.648438-20.457031 15.308594-6.367188 5.660156-12.21875 11.902344-17.492188 18.589844-5.339844 6.753906-10.035156 13.894531-14.152344 21.417968-4.117187 7.589844-7.527343 15.566407-10.226562 23.734376-2.765625 8.363281-4.761719 16.984374-5.984375 25.730468-.578125 4.308594-1.027344 8.683594-1.21875 13.058594-5.40625 2.828125-10.421875 6.496094-14.796875 10.804688-4.371094 4.308593-8.101562 9.199218-11.125 14.535156-3.023438 5.46875-5.210938 11.320312-6.5625 17.433594-1.285156 6.175781-1.671875 12.542968-1.15625 18.84375.511719 5.789062 1.800781 11.515624 3.859375 16.980468 2.058594 5.339844 4.757813 10.359375 8.167969 14.988282 3.34375 4.503906 7.269531 8.621093 11.640625 12.09375 4.441406 3.535156 9.328125 6.429687 14.539062 8.683593 5.335938 2.25 10.933594 3.792969 16.722657 4.566407 7.011718.898437 14.214843.644531 21.160156-.835938 1.867187-.386719 3.730468-.902344 5.597656-1.414062 10.292969 9.390624 21.933594 17.300781 34.410156 23.410156 12.351563 6.046875 25.472656 10.292968 39.046875 12.671875 14.085938 2.445312 28.492188 2.894531 42.644531 1.289062 13.699219-1.546875 27.144532-5.082031 39.8125-10.359375 12.480469-5.207031 24.1875-12.15625 34.800782-20.515625 1.285156-1.03125 2.570312-2.058593 3.792968-3.089843l31.710938 31.710937c6.238281 6.238281 16.402344 6.238281 22.640625 0 .835937-.769531 1.351563-1.480469 1.867187-2.121094zm-160.871093-24.894531c-.253907 0-.449219-.0625-.707031-.0625.707031.0625 1.351562.128906 2.058593.128906-.386719 0-.835937-.066406-1.351562-.066406-.191407 0 .453125 0 0 0zm-107.03125-134.625c1.222656-8.488281 3.410156-16.785156 6.433593-24.761719.835938-2.253906 1.800782-4.566406 2.832032-6.753906 6.300781-13.828125 15.308594-26.371094 26.304687-36.855469 11-10.421875 23.992188-18.71875 38.078125-24.1875 14.023438-5.464844 29.011719-8.167968 44.0625-8.039062 11.382813.128906 22.832032 1.863281 33.703125 5.273437 10.613281 3.28125 20.710938 8.105469 29.976563 14.214844 9.066406 6.046875 17.363281 13.316406 24.441406 21.613281 7.136719 8.296875 13.121094 17.625 17.6875 27.59375 4.695312 10.164063 7.847656 21.03125 9.457031 32.097656 1.863281 12.925782 1.605469 26.113282-.839843 38.976563-2.570313 13.574219-7.523438 26.628906-14.664063 38.464844-1.671875 2.832031-3.472656 5.597656-5.402344 8.234375-5.660156-11.386719-16.273437-19.941406-28.558593-23.15625-3.601563-.964844-7.332032-1.414063-11.0625-1.414063h-19.234376l-14.664062-8.234375v-12.351562c15.824219-6.6875 27.914062-20.386719 32.480469-37.175782.582031.128907 1.160156.191407 1.804687.191407 5.144532 0 9.453125-4.308594 9.453125-9.453125v-14.472656c0-5.210938-4.246093-9.457032-9.453125-9.457032-.195312-1.285156-.453125-2.507812-.773437-3.792968-2.378907-12.15625-8.8125-23.414063-18.140625-31.582032-9.582032-8.425781-21.933594-13.378906-34.730469-14.023437-7.398437-.320313-14.925781.773437-21.871094 3.34375-3.601562 1.289062-7.140625 3.023437-10.421875 5.019531-2.765625 1.671875-5.335937 3.664062-7.78125 5.789062-7.203125 6.429688-12.800781 14.664063-15.953125 23.796876-.835937 2.507812-1.542969 5.082031-2.058593 7.65625v.0625c0 .066406 0 .195312-.0625.257812-.257813 1.160156-.449219 2.316406-.578126 3.472656-.066406 0-.128906 0-.128906 0-5.210937 0-9.457031 4.246094-9.457031 9.457032v14.472656c0 5.144531 4.3125 9.453125 9.457031 9.453125.578125 0 1.222656-.0625 1.800782-.191407 4.566406 16.789063 16.722656 30.425782 32.480468 37.175782v12.480468l-14.664062 8.234376h-17.816406c-2.25-32.613282-29.203126-58.46875-62.261719-58.921876-.128907-.835937 0-1.671874.125-2.507812.066406-.578125-.0625.386719 0 0zm101.953125 134.113281c-.964844-.128906-1.996094-.257812-2.960938-.386719 1.542969.257813 3.089844.449219 4.632813.578126-.578125-.0625-1.09375-.128907-1.671875-.191407-.453125-.066406.449218.0625 0 0zm-5.339844-.773437c-.257812-.0625-.578125-.0625-.835938-.128906.964844.191406 1.863282.320312 2.828126.449218-.640626-.128906-1.285157-.257812-1.992188-.320312-.257812-.0625.449219.0625 0 0zm-3.472656-.644532c-1.09375-.191406-2.1875-.449218-3.28125-.707031 1.929687.449219 3.921875.835938 5.851562 1.222657-.835937-.191407-1.734375-.386719-2.570312-.515626-.453125-.128906.707031.128907 0 0zm-5.277344-1.222656c-.382812-.0625-.769531-.191406-1.15625-.320312.902344.257812 1.800781.449218 2.765625.707031-.578125-.128906-1.09375-.257813-1.609375-.386719-.382812-.125.386719.128906 0 0zm-2.636719-.707031c-.511719-.128906-1.027343-.257813-1.542969-.449219.964844.257813 1.929688.578125 2.960938.835938-.453125-.128906-.964844-.257813-1.417969-.386719-.382812-.0625.453125.128906 0 0zm-5.980469-1.800781c-.449218-.128906-.902343-.320313-1.351562-.449219.835938.320313 1.738281.578125 2.574219.835937-.386719-.128906-.773438-.257812-1.222657-.386718-.386718-.128906.449219.128906 0 0zm-3.730468-1.285156c-.128906-.066407-.257813-.128907-.386719-.128907.835937.320313 1.671875.578125 2.507813.902344-.707032-.257813-1.414063-.515625-2.121094-.773437-.128906-.066407.449218.128906 0 0zm-5.851563-2.378907c-.066406 0-.066406-.066406-.128906-.066406.769531.324219 1.542969.644531 2.3125.964844-.707031-.257813-1.414063-.578125-2.183594-.898438 0 0 .449219.191407 0 0zm-2.316406-1.03125c-.195313-.0625-.386719-.191406-.515625-.257812.773438.386719 1.542969.710937 2.316406 1.03125-.644531-.257813-1.222656-.515625-1.800781-.773438-.195313-.0625.386719.195313 0 0zm-2.316406-1.09375c-.320313-.128906-.644531-.320312-.902344-.449219.773437.386719 1.546875.773438 2.316406 1.09375-.515625-.191406-.964843-.449218-1.414062-.644531-.320313-.128906.386719.195313 0 0zm-5.660157-2.957031c-.257812-.128906-.515624-.257812-.773437-.449219.835937.449219 1.609375.898438 2.445313 1.347657-.578126-.253907-1.09375-.578126-1.671876-.898438-.257812-.128906.449219.257812 0 0zm-2.894531-1.671875c-.066406-.066406-.191406-.128906-.257812-.128906.707031.386719 1.351562.835937 2.058593 1.222656-.644531-.386719-1.222656-.707031-1.800781-1.09375-.128906-.066406.191407.128906 0 0zm-1.738281-1.03125c-.382812-.257813-.769531-.449219-1.15625-.707031.644531.449218 1.351562.835937 1.992188 1.222656-.253907-.128906-.511719-.320312-.835938-.515625-.382812-.257813.066406.066406 0 0zm-3.601562-2.316406c-.0625-.0625-.128907-.0625-.191407-.125.769531.511719 1.542969 1.027343 2.316407 1.476562-.710938-.449219-1.417969-.898437-2.125-1.351562zm-1.992188-1.347657c-.128906-.066406-.257812-.195312-.386719-.257812.578125.386719 1.15625.769531 1.738281 1.15625-.515624-.320312-.902343-.640625-1.351562-.898438-.128906-.128906.128906.0625 0 0zm-1.800781-1.289062c-.195313-.128906-.324219-.253906-.515625-.382812.386718.253906.773437.578124 1.15625.835937-.191406-.128906-.382813-.324219-.640625-.453125-.128907-.128906.128906.066406 0 0zm-2.703125-2.058594c-.128906-.125-.257813-.191406-.386719-.320312.386719.257812.707031.578125 1.09375.835937-.257813-.191406-.511719-.320312-.707031-.515625-.128906-.125.066406.066406 0 0zm16.722656 10.808594c.773438.386719 1.480469.769531 2.253906 1.15625-.773437-.386719-1.546875-.769531-2.253906-1.15625.707031.386719 0 0 0 0zm10.9375 5.082031c.769531.320313 1.605469.640625 2.378906.964844-.773437-.324219-1.542968-.644531-2.378906-.964844.835938.320313.707031.320313 0 0zm118.992188-18.269531c.128906-.0625.195312-.191406.324218-.257812-.582031.515624-1.222656 1.03125-1.867187 1.480468.578125-.386718 1.09375-.773437 1.542969-1.222656zm2.382812-1.929688c.0625-.0625.128906-.128906.191406-.191406-.515625.449219-1.09375.964844-1.671875 1.414063.515625-.449219.964844-.835938 1.480469-1.222657.0625-.0625-.066406 0 0 0zm2.25-2.058593c.0625 0 .0625-.0625.128906-.0625-.515625.449219-1.03125.964843-1.542968 1.414062.449218-.515625.964843-.898437 1.414062-1.351562zm2.25-2.121094c-.386719.386719-1.027344.964844-1.476562 1.414063.511718-.449219.964843-.898438 1.476562-1.414063 0 0-.0625.0625 0 0zm13.894531-16.015625c-.578125.769531-1.09375 1.542969-1.671875 2.25.578125-.707031 1.09375-1.480469 1.671875-2.25zm-1.929687 2.570312c-.515625.644532-1.027344 1.351563-1.542969 1.996094.515625-.644531 1.027344-1.285156 1.542969-1.996094-.515625.710938-.128906.195313 0 0zm-1.929688 2.511719c-.449218.578125-.964844 1.21875-1.480468 1.800781.515624-.644531 1.03125-1.222656 1.480468-1.800781-.449218.578125-.0625.0625 0 0zm-1.929687 2.3125c-.449219.582031-.964844 1.09375-1.414063 1.675781.449219-.582031.964844-1.09375 1.414063-1.675781-.449219.582031-.0625.128907 0 0zm-1.992188 2.253907c-.453125.511718-.964843 1.027343-1.417969 1.542968.515626-.515625.964844-1.03125 1.417969-1.542968-.453125.511718-.066406.0625 0 0zm-1.996093 2.1875c-.449219.511718-.964844.964843-1.414063 1.476562.515625-.449219.964844-.964844 1.414063-1.476562-.449219.511718-.0625.0625 0 0zm-2.058594 2.121093c-.449219.449219-.964844.964844-1.414063 1.414063.449219-.449219.964844-.898438 1.414063-1.414063-.449219.515625-.0625.128907 0 0zm-10.871094 9.777344c-.769531.578125-1.542969 1.222656-2.3125 1.800781.769531-.578125 1.542969-1.222656 2.3125-1.800781zm-2.3125 1.800781c-1.609375 1.15625-3.21875 2.316406-4.824219 3.410156 1.605469-1.09375 3.214844-2.253906 4.824219-3.410156zm-5.40625 3.792969c-.640625.453125-1.285156.835937-1.929688 1.222656.644532-.386719 1.289063-.835937 1.929688-1.222656zm-2.699219 1.738281c-.578125.320313-1.09375.707032-1.671875 1.027344.578125-.320312 1.09375-.707031 1.671875-1.027344zm-2.636719 1.609375c-.515624.320313-1.03125.640625-1.546874.898438.515624-.257813 1.03125-.578125 1.546874-.898438zm-49.914062 15.886719c-.578125.0625-1.09375.0625-1.671875.128906.511719-.066406 1.09375-.066406 1.671875-.128906zm2.378906-.195312c-.449218.066406-.835937.066406-1.285156.128906.449219-.0625.898438-.128906 1.285156-.128906zm11.449219-1.800782c-.964844.195313-1.992187.386719-2.957031.582032 1.027344-.195313 1.992187-.386719 2.957031-.582032zm-3.730469.710938c-.707031.125-1.480468.253906-2.1875.382812.707032-.128906 1.414063-.257812 2.1875-.382812zm-3.34375.511718c-.644531.066407-1.289062.195313-1.929687.257813.640625-.0625 1.285156-.128906 1.929687-.257813zm21.546875-5.144531c-.515625.191407-1.09375.386719-1.609375.515625.582032-.195312 1.09375-.324218 1.609375-.515625zm-2.832031.898438c-.578125.195312-1.089844.324219-1.671875.515625.582031-.128906 1.160156-.320313 1.671875-.515625zm-2.828125.902343c-.578125.191407-1.15625.320313-1.738281.449219.582031-.128906 1.160156-.320312 1.738281-.449219zm-2.894531.773438c-.644532.191406-1.222656.320312-1.867188.449219.582032-.128907 1.222656-.257813 1.867188-.449219zm-2.957032.707031c-.773437.191407-1.609374.320313-2.382812.511719.835938-.125 1.609375-.320312 2.382812-.511719zm-62.265624-2.382812c.902343.257812 1.800781.582031 2.703124.839843-.902343-.324218-1.800781-.582031-2.703124-.839843.902343.257812.257812.066406 0 0zm23.285156 4.824219c.578125.066406 1.15625.128906 1.738281.195312-.582031-.128906-1.160156-.128906-1.738281-.195312.578125.066406.386718 0 0 0zm19.296875.386718c-.515625 0-1.03125.066406-1.480469.066406.515625 0 1.03125 0 1.480469-.066406zm-2.894531.128906c-.449219 0-.902344.066407-1.285157.066407.382813 0 .835938 0 1.285157-.066407zm35.375-6.6875c.515624-.195312 1.03125-.386718 1.546874-.582031-.515624.195313-1.03125.386719-1.546874.582031zm2.765624-1.03125c.515626-.191406 1.03125-.386718 1.546876-.578124-.515626.191406-1.03125.386718-1.546876.578124zm2.765626-1.09375c.515624-.191406 1.03125-.449218 1.546874-.640624-.515624.191406-1.03125.449218-1.546874.640624zm2.703124-1.15625c.515626-.257812 1.027344-.449218 1.542969-.707031-.515625.257813-1.027343.449219-1.542969.707031zm2.703126-1.222656c.511718-.257812 1.027343-.515625 1.542968-.707031-.515625.191406-1.03125.449219-1.542968.707031zm2.636718-1.351562c.511719-.257813 1.027344-.511719 1.542969-.769532-.515625.257813-1.03125.511719-1.542969.769532zm2.636719-1.351563c.515625-.253906 1.027344-.578125 1.542969-.835937-.515625.324218-1.027344.582031-1.542969.835937zm-62.90625 13.765625c.515625 0 .964844.066406 1.476563.066406-.449219 0-.960938 0-1.476563-.066406.515625.066406.191406 0 0 0zm2.894531.128906c.386719 0 .769532 0 1.15625.066407-.386718 0-.769531 0-1.15625-.066407.386719.066407.128906 0 0 0zm2.699219.066407h1.609375c-.515625.0625-1.09375 0-1.609375 0 .515625 0 .195313 0 0 0zm0 0"/><path data-cppathid="10003" fill="#fff" d="m383.097656 400.210938-41.613281-41.617188 22.640625-22.640625 41.617188 41.613281c6.238281 6.242188 6.238281 16.402344 0 22.644532-6.242188 6.238281-16.402344 6.238281-22.644532 0zm0 0"/><path data-cppathid="10004" fill="#d1d3d4" d="m390.175781 393.132812-41.617187-41.613281-7.074219 7.074219 41.613281 41.617188c6.242188 6.238281 16.402344 6.238281 22.644532 0 1.21875-1.222657 2.25-2.640626 2.957031-4.117188-5.980469 3.085938-13.507813 2.058594-18.523438-2.960938zm0 0"/><path data-cppathid="10005" fill="#fff" d="m256 108.511719c-81.109375 0-146.976562 65.476562-147.488281 146.523437v.964844c0 45.734375 20.839843 86.640625 53.578125 113.71875 25.472656 21.097656 58.210937 33.769531 93.910156 33.769531 81.429688 0 147.488281-65.992187 147.488281-147.488281s-66.058593-147.488281-147.488281-147.488281zm0 265.261719c-25.730469 0-49.59375-8.296876-68.953125-22.320313-29.523437-21.417969-48.753906-56.152344-48.753906-95.453125 0-2.832031.0625-5.597656.320312-8.363281 4.179688-61.105469 55.1875-109.410157 117.386719-109.410157 65.027344 0 117.773438 52.746094 117.773438 117.773438s-52.746094 117.773438-117.773438 117.773438zm0 0"/><path data-cppathid="10006" fill="#d1d3d4" d="m256 123.949219c-72.941406 0-132.050781 59.109375-132.050781 132.050781s59.109375 132.050781 132.050781 132.050781 132.050781-59.109375 132.050781-132.050781-59.109375-132.050781-132.050781-132.050781zm0 249.824219c-65.027344 0-117.773438-52.746094-117.773438-117.773438s52.746094-117.773438 117.773438-117.773438 117.773438 52.746094 117.773438 117.773438-52.746094 117.773438-117.773438 117.773438zm0 0"/><path data-cppathid="10007" fill="#fff" d="m233.9375 270.214844h44.125v53.582031h-44.125zm0 0"/><path data-cppathid="10008" fill="#fff" d="m199.652344 242.558594c-5.207032 0-9.453125-4.246094-9.453125-9.457032v-14.472656c0-5.210937 4.246093-9.453125 9.453125-9.453125 5.210937 0 9.457031 4.242188 9.457031 9.453125v14.472656c.066406 5.210938-4.179687 9.457032-9.457031 9.457032zm0 0"/><path data-cppathid="10009" fill="#d1d3d4" d="m199.652344 238.054688c-5.207032 0-9.453125-4.246094-9.453125-9.457032v4.441406c0 5.207032 4.246093 9.453126 9.453125 9.453126 5.210937 0 9.457031-4.246094 9.457031-9.453126v-4.441406c.066406 5.210938-4.179687 9.457032-9.457031 9.457032zm0 0"/><path data-cppathid="10010" fill="#fff" d="m312.347656 242.558594c-5.210937 0-9.457031-4.246094-9.457031-9.457032v-14.472656c0-5.210937 4.246094-9.453125 9.457031-9.453125 5.207032 0 9.453125 4.242188 9.453125 9.453125v14.472656c0 5.210938-4.246093 9.457032-9.453125 9.457032zm0 0"/><path data-cppathid="10011" fill="#d1d3d4" d="m312.347656 238.054688c-5.210937 0-9.457031-4.246094-9.457031-9.457032v4.441406c0 5.207032 4.246094 9.453126 9.457031 9.453126 5.207032 0 9.453125-4.246094 9.453125-9.453126v-4.441406c0 5.210938-4.246093 9.457032-9.453125 9.457032zm0 0"/><path data-cppathid="10012" fill="#fff" d="m200.492188 205.378906c1.863281-9.457031 5.980468-18.011718 11.898437-25.148437 1.671875-2.058594 3.535156-3.988281 5.53125-5.789063 10.035156-9.136718 23.414063-14.730468 38.078125-14.730468.644531 0 1.285156 0 1.929688.0625h.644531c14.601562.644531 27.722656 6.820312 37.371093 16.53125 8.617188 8.621093 14.472657 20.003906 16.078126 32.675781.324218 2.378906.449218 4.824219.449218 7.332031v11.191406c0 31.261719-25.339844 56.539063-56.535156 56.539063-31.199219 0-56.539062-25.339844-56.539062-56.539063v-11.191406c0-2.378906.128906-4.757812.449218-7.074219zm0 0"/><path data-cppathid="10013" fill="#d1d3d4" d="m256 275.039062c-31.195312 0-56.539062-25.34375-56.539062-56.539062v8.941406c0 31.261719 25.34375 56.539063 56.539062 56.539063 31.261719 0 56.539062-25.34375 56.539062-56.539063v-8.941406c0 31.261719-25.277343 56.539062-56.539062 56.539062zm0 0"/><path data-cppathid="10014" fill="#e7ad27" d="m200.425781 205.699219h5.597657v27.082031c0 1.671875-1.222657 3.214844-2.894532 3.34375-1.929687.191406-3.539062-1.351562-3.539062-3.214844v-19.554687c0-2.574219.257812-5.144531.835937-7.65625zm0 0"/><path data-cppathid="10015" fill="#e7ad27" d="m312.539062 212.648438v19.746093c0 1.671875-1.222656 3.214844-2.894531 3.34375-1.929687.195313-3.539062-1.351562-3.539062-3.214843v-27.207032h5.402343c.710938 2.441406 1.03125 4.886719 1.03125 7.332032zm0 0"/><path data-cppathid="10016" fill="#e7ad27" d="m257.929688 159.710938c-5.726563 8.941406-19.875 28.238281-42.839844 41.808593-5.53125 3.28125-10.613282 5.726563-15.179688 7.65625 1.351563-10.9375 5.855469-20.84375 12.542969-28.945312 1.671875-2.058594 3.539063-3.988281 5.53125-5.789063 10.035156-9.136718 23.414063-14.730468 38.078125-14.730468zm0 0"/><path data-cppathid="10017" fill="#fede3a" d="m312.089844 208.917969c-7.71875 2.3125-22.898438 4.5-46.957032-1.800781-24.378906-6.371094-42.835937-18.976563-52.679687-26.953126 1.671875-2.058593 3.539063-3.988281 5.53125-5.789062 10.035156-9.132812 23.414063-14.730469 38.078125-14.730469.902344 0 1.738281 0 2.640625.066407 14.597656.644531 27.722656 6.816406 37.371094 16.53125 8.554687 8.617187 14.34375 20.003906 16.015625 32.675781zm0 0"/><path data-cppathid="10018" fill="#e7ad27" d="m265.132812 174.117188c-10.675781-2.765626-20.195312-6.753907-28.363281-11.0625-7.011719 2.574218-13.378906 6.433593-18.785156 11.386718-1.992187 1.800782-3.859375 3.730469-5.53125 5.789063 9.84375 7.972656 28.367187 20.582031 52.679687 26.949219 24.121094 6.304687 39.238282 4.117187 46.957032 1.800781-1.546875-11.769531-6.691406-22.449219-14.28125-30.808594-8.234375.320313-19.039063-.515625-32.675782-4.054687zm0 0"/><path data-cppathid="10019" fill="#fede3a" d="m265.132812 185.117188c-15.566406-4.050782-28.75-10.675782-38.785156-17.042969-2.957031 1.863281-5.789062 3.984375-8.363281 6.300781-1.992187 1.800781-3.859375 3.730469-5.53125 5.789062 9.84375 7.976563 28.367187 20.582032 52.679687 26.953126 24.121094 6.300781 39.238282 4.113281 46.957032 1.800781-.964844-7.398438-3.347656-14.28125-6.820313-20.519531-8.683593 1.414062-21.804687 1.542968-40.136719-3.28125zm0 0"/><path data-cppathid="10020" fill="#e7ad27" d="m265.132812 196.179688c-20.003906-5.207032-36.019531-14.664063-46.566406-22.253907-.195312.191407-.386718.386719-.582031.515625-1.992187 1.800782-3.859375 3.730469-5.53125 5.789063 9.84375 7.972656 28.367187 20.582031 52.679687 26.949219 24.121094 6.304687 39.238282 4.117187 46.957032 1.800781-.453125-3.601563-1.289063-7.011719-2.382813-10.355469-8.230469 1.992188-22.769531 3.214844-44.574219-2.445312zm0 0"/><path data-cppathid="10021" fill="#e7ad27" d="m256 246.160156c-3.472656 0-6.238281-2.765625-6.238281-6.242187v-8.230469c0-3.472656 2.765625-6.242188 6.238281-6.242188s6.238281 2.769532 6.238281 6.242188v8.230469c0 3.476562-2.765625 6.242187-6.238281 6.242187zm0 0"/><path data-cppathid="10022" fill="#1caee4" d="m351.644531 324.695312c-18.714843 25.984376-47.726562 44.058594-81.109375 48.113282-1.414062.191406-2.828125.320312-4.308594.449218-3.34375.320313-6.6875.449219-10.097656.449219h-.128906c-3.472656 0-6.882812-.128906-10.226562-.449219-1.480469-.128906-2.894532-.257812-4.308594-.449218-33.320313-4.117188-62.394532-22.191406-81.046875-48.175782 7.269531-14.539062 22.320312-24.574218 39.6875-24.574218h19.230469l13.316406 43.546875 1.414062 4.566406h44.058594l1.417969-4.566406 13.3125-43.546875h19.105469c17.367187.128906 32.417968 10.101562 39.683593 24.636718zm0 0"/><path data-cppathid="10023" fill="#1caee4" d="m279.414062 343.734375-1.417968 4.566406-7.460938 24.570313c-1.414062.195312-2.828125.324218-4.308594.453125-3.34375.320312-6.6875.449219-10.097656.449219h-.128906c-3.472656 0-6.882812-.128907-10.226562-.449219-1.480469-.128907-2.894532-.257813-4.308594-.453125l-7.460938-24.570313-1.417968-4.566406 12.15625-10.355469 11.257812-9.582031 11.320312 9.644531zm0 0"/><g fill="#e7ad27"><path data-cppathid="10024" d="m234.515625 220.558594c0 2.628906-2.128906 4.761718-4.757813 4.761718-2.628906 0-4.761718-2.132812-4.761718-4.761718s2.132812-4.757813 4.761718-4.757813c2.628907 0 4.757813 2.128907 4.757813 4.757813zm0 0"/><path data-cppathid="10025" d="m287.003906 220.558594c0 2.628906-2.132812 4.761718-4.761718 4.761718-2.628907 0-4.757813-2.132812-4.757813-4.761718s2.128906-4.757813 4.757813-4.757813c2.628906 0 4.761718 2.128907 4.761718 4.757813zm0 0"/><path data-cppathid="10026" d="m256 262.882812c-5.851562 0-11.707031-2.25-16.144531-6.691406-.578125-.578125-.578125-1.476562 0-2.058594.578125-.578124 1.480469-.578124 2.058593 0 7.78125 7.785157 20.453126 7.785157 28.171876 0 .578124-.578124 1.480468-.578124 2.058593 0 .578125.582032.578125 1.480469 0 2.058594-4.4375 4.441406-10.292969 6.691406-16.144531 6.691406zm0 0"/><path data-cppathid="10027" d="m266.226562 373.324219c-3.34375.320312-6.6875.449219-10.097656.449219h-.128906c-3.472656 0-6.882812-.128907-10.226562-.449219l.257812-2.894531.835938-9.648438.320312-3.410156.320312-3.730469.453126-5.339844.0625-.515625.578124-6.429687h14.859376l.578124 6.429687.066407.515625.964843 11.128907.640626 7.523437zm0 0"/></g><path data-cppathid="10028" fill="#fede3a" d="m265.710938 366.953125-18.84375-6.171875.640624-7.078125 17.496094 5.726563zm0 0"/><path data-cppathid="10029" fill="#fede3a" d="m256.128906 373.773438h-.128906c-3.472656 0-6.882812-.128907-10.226562-.449219l.257812-2.894531zm0 0"/><path data-cppathid="10030" fill="#fede3a" d="m261.082031 348.300781h-10.164062c-5.722657 0-9.710938-5.722656-7.652344-11.125l3.085937-8.171875c1.222657-3.152344 4.246094-5.273437 7.65625-5.273437h3.921876c3.410156 0 6.433593 2.121093 7.652343 5.273437l3.089844 8.171875c2.121094 5.402344-1.867187 11.125-7.589844 11.125zm0 0"/><path data-cppathid="10031" fill="#ef5a9d" d="m292.726562 300.1875-14.664062-8.296875-22.0625 31.839844 23.414062 20.003906zm0 0"/><path data-cppathid="10032" fill="#ef5a9d" d="m219.273438 300.1875 14.664062-8.296875 22.0625 31.839844-23.414062 20.003906zm0 0"/><path data-cppathid="10033" fill="#d1d3d4" d="m278.0625 285.84375-22.0625 24.058594-22.0625-24.058594v6.046875l22.0625 31.839844 22.0625-31.839844zm0 0"/><path data-cppathid="10034" fill="#009add" d="m196.179688 300.316406c-15.691407 1.351563-29.070313 10.9375-35.824219 24.378906 9.519531 13.25 21.738281 24.378907 35.824219 32.738282zm0 0"/><path data-cppathid="10035" fill="#009add" d="m315.820312 300.316406v57.117188c14.085938-8.296875 26.304688-19.488282 35.824219-32.738282-6.753906-13.441406-20.132812-23.027343-35.824219-24.378906zm0 0"/><path data-cppathid="10036" fill="#d1d3d4" d="m187.046875 351.453125c-6.625 7.976563-15.179687 14.28125-24.957031 18.265625-32.738282-27.011719-53.578125-67.921875-53.578125-113.71875 0-.320312 0-.644531 0-.964844 8.875-4.695312 18.972656-7.398437 29.714843-7.398437h.320313c-.191406 2.765625-.320313 5.53125-.320313 8.363281 0 39.234375 19.234376 74.035156 48.820313 95.453125zm0 0"/><path data-cppathid="10037" fill="#136da0" d="m201.582031 304.5625c0 34.992188-28.363281 63.355469-63.355469 63.355469-34.992187 0-63.355468-28.363281-63.355468-63.355469s28.363281-63.355469 63.355468-63.355469c34.992188 0 63.355469 28.363281 63.355469 63.355469zm0 0"/><path data-cppathid="10038" fill="#009add" d="m190.457031 304.5625c0 28.84375-23.382812 52.230469-52.230469 52.230469-28.84375 0-52.230468-23.386719-52.230468-52.230469s23.386718-52.230469 52.230468-52.230469c28.847657 0 52.230469 23.386719 52.230469 52.230469zm0 0"/><path data-cppathid="10039" fill="#fff" d="m138.226562 256.578125c28.109376 0 51.070313 22.257813 52.164063 50.105469 0-.707032.066406-1.414063.066406-2.121094 0-28.816406-23.347656-52.230469-52.230469-52.230469-28.816406 0-52.230468 23.351563-52.230468 52.230469 0 .707031 0 1.414062.066406 2.121094 1.15625-27.847656 24.054688-50.105469 52.164062-50.105469zm0 0"/><path data-cppathid="10040" fill="#fff" d="m127.097656 334.859375-25.726562-25.730469 9.070312-9.070312 16.65625 16.597656 35.1875-35.183594 9.132813 9.066406zm0 0"/></svg>