<?xml version="1.0" encoding="UTF-8"?>
<svg xmlns="http://www.w3.org/2000/svg" onmouseup="{ if(window.parent.document.onmouseup) window.parent.document.onmouseup(arguments[0]);}" width="512" viewBox="0 0 497 497" height="512" enable-background="new 0 0 497 497" id="Layer_1"><g><g><g><ellipse data-cppathid="10000" ry="203.66" rx="203.523" fill="#fd6dc3" cy="204.21" cx="203.523"/><path data-cppathid="10001" fill="#fd53b9" d="m203.523.55c-5.046 0-10.046.191-15 .552 105.397 7.684 188.523 95.679 188.523 203.108s-83.126 195.424-188.523 203.108c4.954.361 9.954.552 15 .552 112.403 0 203.523-91.182 203.523-203.66s-91.121-203.66-203.523-203.66z"/><ellipse data-cppathid="10002" ry="150.594" rx="150.456" fill="#fff" cy="204.21" cx="203.523"/><ellipse data-cppathid="10003" ry="97.528" rx="97.39" fill="#fd6dc3" cy="204.21" cx="203.523"/><ellipse data-cppathid="10004" ry="44.461" rx="44.324" fill="#fff" cy="204.21" cx="203.523"/><g><g><path data-cppathid="10005" fill="#f0f0ff" d="m416.35 55.389c-2.373-3.395-7.049-4.223-10.444-1.85l-207.197 144.406c-3.395 2.373-4.223 7.049-1.85 10.444 1.458 2.086 3.787 3.203 6.153 3.203 1.484 0 2.982-.439 4.291-1.354l207.197-144.405c3.395-2.373 4.223-7.049 1.85-10.444z"/></g><path data-cppathid="10006" fill="#f0f0ff" d="m479.191 11.596c-2.359-3.405-7.03-4.255-10.436-1.897l-23.856 16.517c-3.405 2.358-4.254 7.03-1.897 10.436 1.457 2.103 3.795 3.231 6.173 3.231 1.472 0 2.96-.433 4.263-1.334l23.856-16.517c3.405-2.358 4.254-7.031 1.897-10.436z"/></g></g><g><g><g><path data-cppathid="10007" fill="#92f0bc" d="m199.781 331.87h297.177v165.086h-297.177z"/><path data-cppathid="10008" fill="#79e8ab" d="m199.824 331.827v.009l267.176.078-.086 165.077 30 .009.086-165.086z"/><g><path data-cppathid="10009" fill="#0aa877" d="m305.956 441.241c-5.044-8.021-7.706-17.303-7.702-26.842.015-27.746 22.508-50.312 50.142-50.304 17.294.005 33.139 8.786 42.385 23.489 5.044 8.021 7.707 17.302 7.702 26.842-.014 27.747-22.507 50.313-50.141 50.305-17.296-.005-33.14-8.786-42.386-23.49z"/></g><g fill="#0aa877"><path data-cppathid="10010" d="m239.529 331.838c-.011 22.016-17.797 39.859-39.726 39.853l.021-39.864z"/><path data-cppathid="10011" d="m457.209 496.988c.011-22.016 17.797-39.859 39.726-39.853l-.021 39.865z"/><path data-cppathid="10012" d="m496.979 371.778c-21.929-.006-39.696-17.859-39.685-39.876l39.706.012z"/></g></g></g><g><g><path data-cppathid="10013" fill="#ffe80d" d="m77.564 440.27h83.327v28.209h-83.327z"/><path data-cppathid="10014" fill="#fdf486" d="m77.564 468.479h83.327v28.209h-83.327z"/></g><g><path data-cppathid="10015" fill="#fdf486" d="m160.891 383.851h83.327v28.209h-83.327z"/><path data-cppathid="10016" fill="#ffe80d" d="m160.891 412.061h83.327v28.209h-83.327z"/><path data-cppathid="10017" fill="#fdf486" d="m160.891 440.27h83.327v28.209h-83.327z"/><path data-cppathid="10018" fill="#ffe80d" d="m160.891 468.479h83.327v28.209h-83.327z"/></g></g></g></g><path data-cppathid="10019" fill="#7974e3" d="m479.527 43.597-55.796 38.631-30.359-11.215.215-32.382 55.796-38.631-.214 32.382z"/></g></svg>