<?xml version="1.0" encoding="UTF-8"?>
<svg xmlns="http://www.w3.org/2000/svg" onmouseup="{ if(window.parent.document.onmouseup) window.parent.document.onmouseup(arguments[0]);}" overflow="hidden" height="230" width="526" xmlns:xlink="http://www.w3.org/1999/xlink"><defs><clipPath id="clip0"><path data-cppathid="10000" clip-rule="evenodd" fill-rule="evenodd" d="M0 0 526 0 526 230 0 230Z"/></clipPath></defs><g clip-path="url(#clip0)"><rect data-cppathid="10001" transform="scale(1.00145 1)" fill="#FFFFFF" height="230" width="525.239" y="0" x="0"/><rect data-cppathid="10002" transform="scale(1.00145 1)" fill="#F2F2F2" height="230" width="525.239" y="0" x="0"/><path data-cppathid="10003" transform="scale(1.00145 1)" fill-rule="evenodd" fill="#E5E5E5" d="M0 155.638 0 136.275 7.89167 136.275 15.7278 136.275 15.7278 109.052 15.7278 81.7757 40.292 81.7757 64.8562 81.7757 64.8562 109.052 64.8562 136.275 74.5818 136.275 84.3075 136.275 84.3075 129.311 84.3075 122.294 92.8661 122.03 101.425 121.767 101.647 96.4953 101.925 71.224 106.093 71.224 110.205 71.224 110.205 96.7064 110.205 122.242 117.653 122.242 125.044 122.242 125.044 117.81 125.044 113.431 137.548 113.431 150.053 113.431 150.053 98.9222 150.053 84.4136 157.945 84.4136 165.781 84.4136 165.781 61.5692 165.781 38.672 169.949 38.672 174.117 38.672 174.117 61.5692 174.117 84.4136 187.121 84.4136 200.07 84.4136 200.07 98.9222 200.07 113.431 225.079 113.431 250.088 113.431 250.088 124.879 250.088 136.275 260.258 136.275 270.484 136.275 270.484 101.56 270.484 66.8451 322.336 66.8451 374.187 66.8451 374.187 98.5002 374.187 130.155 377.911 130.155 381.634 130.155 381.634 84.0443 381.634 37.9334 384.635 37.6696 387.637 37.353 387.914 25.2713 388.137 13.1896 393.194 13.1896 398.307 13.1896 398.307 6.59482 398.307 0 411.256 0 424.205 0 424.205 6.59482 424.205 13.1896 429.763 13.1896 435.32 13.1896 435.32 25.4824 435.32 37.8279 438.099 37.8279 440.878 37.8279 440.878 81.7757 440.878 125.724 446.935 125.724 452.937 125.724 452.937 117.388 452.937 109.052 464.497 109.052 476.112 109.052 476.112 117.388 476.112 125.724 480.725 125.724 485.338 125.724 485.338 111.69 485.338 97.6033 493.229 97.6033 501.121 97.6033 501.121 111.69 501.121 125.724 506.178 125.724 511.291 125.724 511.291 145.086 511.291 164.448 517.794 164.448 524.24 164.448 524.24 169.724 524.24 175 262.148 175 0 175 0 155.638ZM401.086 95.3874 401.086 59.7754 395.973 59.7754 390.86 59.7754 390.86 95.3874 390.86 130.999 395.973 130.999 401.086 130.999 401.086 95.3874ZM415.869 95.3874 415.869 59.7754 411.256 59.7754 406.643 59.7754 406.643 95.3874 406.643 130.999 411.256 130.999 415.869 130.999 415.869 95.3874ZM431.652 95.3874 431.652 59.7754 426.984 59.7754 422.371 59.7754 422.371 95.3874 422.371 130.999 426.984 130.999 431.652 130.999 431.652 95.3874ZM301.94 116.491 301.94 109.896 294.993 109.896 288.046 109.896 288.046 116.491 288.046 123.086 294.993 123.086 301.94 123.086 301.94 116.491ZM329.727 116.491 329.727 109.896 322.78 109.896 315.833 109.896 315.833 116.491 315.833 123.086 322.78 123.086 329.727 123.086 329.727 116.491ZM357.515 116.491 357.515 109.896 350.568 109.896 343.621 109.896 343.621 116.491 343.621 123.086 350.568 123.086 357.515 123.086 357.515 116.491ZM301.94 91.0085 301.94 84.4136 294.993 84.4136 288.046 84.4136 288.046 91.0085 288.046 97.6033 294.993 97.6033 301.94 97.6033 301.94 91.0085ZM329.727 91.0085 329.727 84.4136 322.78 84.4136 315.833 84.4136 315.833 91.0085 315.833 97.6033 322.78 97.6033 329.727 97.6033 329.727 91.0085ZM357.515 91.0085 357.515 84.4136 350.568 84.4136 343.621 84.4136 343.621 91.0085 343.621 97.6033 350.568 97.6033 357.515 97.6033 357.515 91.0085ZM279.71 51.4396 279.71 44.8447 307.053 44.8447 334.396 44.8447 334.396 51.4396 334.396 58.0344 307.053 58.0344 279.71 58.0344 279.71 51.4396ZM342.732 41.7848 342.732 25.4824 354.291 25.4824 365.851 25.4824 365.851 41.7848 365.851 58.0344 354.291 58.0344 342.732 58.0344 342.732 41.7848Z"/><path data-cppathid="10004" transform="matrix(1.00145 0 -0 1 268 51)" fill-rule="evenodd" fill="#7C7C7B" d="M11.2234 0 116.723 0C122.929 0 127.815 3.584 127.815 8.06401 127.815 12.416 122.929 16 116.723 16L11.2234 16C5.01752 16 0 12.416 0 8.06401 0 3.584 5.01752 0 11.2234 0Z"/><path data-cppathid="10005" transform="matrix(1.00145 0 -0 1 256 65)" fill-rule="evenodd" fill="#D0D0D0" d="M13.5221 0 0.780119 73.3006C0 76.9787 1.04016 79.3433 4.81074 80.0001L24.9638 79.7374 19.763 3.5468 13.262 0.394089"/><path data-cppathid="10006" transform="matrix(1.00145 0 -0 1 284 41)" fill-rule="evenodd" fill="#CBCBCA" d="M2.56039 0C3.96861 0 4.99276 1.18421 4.99276 2.63158L4.99276 17.3684C4.99276 18.8158 3.96861 20 2.56039 20 1.15218 20 0 18.8158 0 17.3684L0 2.63158C0 1.18421 1.15218 0 2.56039 0Z"/><path data-cppathid="10007" transform="matrix(1.00145 0 -0 1 307 41)" fill-rule="evenodd" fill="#CBCBCA" d="M3.07247 0C4.76233 0 5.99132 1.18421 5.99132 2.63158L5.99132 17.3684C5.99132 18.8158 4.76233 20 3.07247 20 1.38261 20 0 18.8158 0 17.3684L0 2.63158C0 1.18421 1.38261 0 3.07247 0Z"/><path data-cppathid="10008" transform="matrix(1.00145 0 -0 1 327 41)" fill-rule="evenodd" fill="#CBCBCA" d="M2.56039 0C3.96861 0 4.99276 1.18421 4.99276 2.63158L4.99276 17.3684C4.99276 18.8158 3.96861 20 2.56039 20 1.02416 20 0 18.8158 0 17.3684L0 2.63158C0 1.18421 1.02416 0 2.56039 0Z"/><path data-cppathid="10009" transform="matrix(1.00145 0 -0 1 350 41)" fill-rule="evenodd" fill="#CBCBCA" d="M3.07247 0C4.76233 0 5.99132 1.18421 5.99132 2.63158L5.99132 17.3684C5.99132 18.8158 4.76233 20 3.07247 20 1.22899 20 0 18.8158 0 17.3684L0 2.63158C0 1.18421 1.22899 0 3.07247 0Z"/><path data-cppathid="10010" transform="matrix(1.00145 0 -0 1 370 41)" fill-rule="evenodd" fill="#CBCBCA" d="M3.07247 0C4.76233 0 5.99132 1.18421 5.99132 2.63158L5.99132 17.3684C5.99132 18.8158 4.76233 20 3.07247 20 1.22899 20 0 18.8158 0 17.3684L0 2.63158C0 1.18421 1.22899 0 3.07247 0Z"/><path data-cppathid="10011" transform="matrix(1.00145 0 -0 1 276 67)" fill-rule="evenodd" fill="#D0D0D0" d="M0.131863 0.930232 0.131863 67.7741C0 72.8239 1.31863 80 9.626 79.7342L102.721 79.4684C107.996 79.2026 116.831 78.4053 116.04 68.5714L112.215 0 0.131863 0.930232Z"/><path data-cppathid="10012" transform="matrix(1.00145 0 -0 1 285 83)" fill-rule="evenodd" fill="#FFFFFF" d="M1.28527 0 11.6959 0C12.4671 0 12.9812 0.632185 12.9812 1.26437L12.9812 9.73565C12.9812 10.4943 12.4671 11 11.6959 11L1.28527 11C0.514106 11 0 10.4943 0 9.73565L0 1.26437C0 0.632185 0.514106 0 1.28527 0Z"/><path data-cppathid="10013" transform="matrix(1.00145 0 -0 1 305 83)" fill-rule="evenodd" fill="#FFFFFF" d="M1.28527 0 11.6959 0C12.4671 0 12.9812 0.632185 12.9812 1.26437L12.9812 9.73565C12.9812 10.4943 12.4671 11 11.6959 11L1.28527 11C0.514106 11 0 10.4943 0 9.73565L0 1.26437C0 0.632185 0.514106 0 1.28527 0Z"/><path data-cppathid="10014" transform="matrix(1.00145 0 -0 1 328 83)" fill-rule="evenodd" fill="#FFFFFF" d="M1.28527 0 11.6959 0C12.4671 0 12.9812 0.632185 12.9812 1.26437L12.9812 9.73565C12.9812 10.4943 12.4671 11 11.6959 11L1.28527 11C0.514106 11 0 10.4943 0 9.73565L0 1.26437C0 0.632185 0.514106 0 1.28527 0Z"/><path data-cppathid="10015" transform="matrix(1.00145 0 -0 1 348 83)" fill-rule="evenodd" fill="#FFFFFF" d="M1.28527 0 11.6959 0C12.4671 0 12.9812 0.632185 12.9812 1.26437L12.9812 9.73565C12.9812 10.4943 12.4671 11 11.6959 11L1.28527 11C0.514106 11 0 10.4943 0 9.73565L0 1.26437C0 0.632185 0.514106 0 1.28527 0Z"/><path data-cppathid="10016" transform="matrix(1.00145 0 -0 1 371 83)" fill-rule="evenodd" fill="#FFFFFF" d="M1.28527 0 11.6959 0C12.4671 0 12.9812 0.632185 12.9812 1.26437L12.9812 9.73565C12.9812 10.4943 12.4671 11 11.6959 11L1.28527 11C0.514106 11 0 10.4943 0 9.73565L0 1.26437C0 0.632185 0.514106 0 1.28527 0Z"/><path data-cppathid="10017" transform="matrix(1.00145 0 -0 1 371 102)" fill-rule="evenodd" fill="#FFFFFF" d="M1.28527 0 11.6959 0C12.4671 0 12.9812 0.689657 12.9812 1.37931L12.9812 10.6207C12.9812 11.4483 12.4671 12 11.6959 12L1.28527 12C0.514106 12 0 11.4483 0 10.6207L0 1.37931C0 0.689657 0.514106 0 1.28527 0Z"/><path data-cppathid="10018" transform="matrix(1.00145 0 -0 1 348 102)" fill-rule="evenodd" fill="#FFFFFF" d="M1.28527 0 11.6959 0C12.4671 0 12.9812 0.689657 12.9812 1.37931L12.9812 10.6207C12.9812 11.4483 12.4671 12 11.6959 12L1.28527 12C0.514106 12 0 11.4483 0 10.6207L0 1.37931C0 0.689657 0.514106 0 1.28527 0Z"/><path data-cppathid="10019" transform="matrix(1.00145 0 -0 1 328 102)" fill-rule="evenodd" fill="#FFFFFF" d="M1.28527 0 11.6959 0C12.4671 0 12.9812 0.689657 12.9812 1.37931L12.9812 10.6207C12.9812 11.4483 12.4671 12 11.6959 12L1.28527 12C0.514106 12 0 11.4483 0 10.6207L0 1.37931C0 0.689657 0.514106 0 1.28527 0Z"/><path data-cppathid="10020" transform="matrix(1.00145 0 -0 1 305 102)" fill-rule="evenodd" fill="#FFFFFF" d="M1.28527 0 11.6959 0C12.4671 0 12.9812 0.689657 12.9812 1.37931L12.9812 10.6207C12.9812 11.4483 12.4671 12 11.6959 12L1.28527 12C0.514106 12 0 11.4483 0 10.6207L0 1.37931C0 0.689657 0.514106 0 1.28527 0Z"/><path data-cppathid="10021" transform="matrix(1.00145 0 -0 1 285 102)" fill-rule="evenodd" fill="#FFFFFF" d="M1.28527 0 11.6959 0C12.4671 0 12.9812 0.689657 12.9812 1.37931L12.9812 10.6207C12.9812 11.4483 12.4671 12 11.6959 12L1.28527 12C0.514106 12 0 11.4483 0 10.6207L0 1.37931C0 0.689657 0.514106 0 1.28527 0Z"/><path data-cppathid="10022" transform="matrix(1.00145 0 -0 1 285 119)" fill-rule="evenodd" fill="#FFFFFF" d="M1.28527 0 11.6959 0C12.4671 0 12.9812 0.632185 12.9812 1.26437L12.9812 9.73565C12.9812 10.4943 12.4671 11 11.6959 11L1.28527 11C0.514106 11 0 10.4943 0 9.73565L0 1.26437C0 0.632185 0.514106 0 1.28527 0Z"/><path data-cppathid="10023" transform="matrix(1.00145 0 -0 1 305 119)" fill-rule="evenodd" fill="#FFFFFF" d="M1.28527 0 11.6959 0C12.4671 0 12.9812 0.632185 12.9812 1.26437L12.9812 9.73565C12.9812 10.4943 12.4671 11 11.6959 11L1.28527 11C0.514106 11 0 10.4943 0 9.73565L0 1.26437C0 0.632185 0.514106 0 1.28527 0Z"/><path data-cppathid="10024" transform="matrix(1.00145 0 -0 1 328 119)" fill-rule="evenodd" fill="#FFFFFF" d="M1.28527 0 11.6959 0C12.4671 0 12.9812 0.632185 12.9812 1.26437L12.9812 9.73565C12.9812 10.4943 12.4671 11 11.6959 11L1.28527 11C0.514106 11 0 10.4943 0 9.73565L0 1.26437C0 0.632185 0.514106 0 1.28527 0Z"/><path data-cppathid="10025" transform="matrix(1.00145 0 -0 1 348 119)" fill-rule="evenodd" fill="#FFFFFF" d="M1.28527 0 11.6959 0C12.4671 0 12.9812 0.632185 12.9812 1.26437L12.9812 9.73565C12.9812 10.4943 12.4671 11 11.6959 11L1.28527 11C0.514106 11 0 10.4943 0 9.73565L0 1.26437C0 0.632185 0.514106 0 1.28527 0Z"/><path data-cppathid="10026" transform="matrix(1.00145 0 -0 1 371 119)" fill-rule="evenodd" fill="#FFFFFF" d="M1.28527 0 11.6959 0C12.4671 0 12.9812 0.632185 12.9812 1.26437L12.9812 9.73565C12.9812 10.4943 12.4671 11 11.6959 11L1.28527 11C0.514106 11 0 10.4943 0 9.73565L0 1.26437C0 0.632185 0.514106 0 1.28527 0Z"/><path data-cppathid="10027" transform="matrix(1.00145 0 -0 1 0 175)" fill-rule="evenodd" fill="none" stroke-miterlimit="8" stroke-width="1.99711" stroke="#7C7C7B" d="M0 0 525.087 0.000104835"/><path data-cppathid="10028" transform="matrix(1.00142 0.0081474 -0.00813561 0.999967 259.608 25.2124)" fill-rule="evenodd" fill="#660D0A" d="M12.08 0C7.95267 0 7.95267 0 7.95267 0 3.52333 0 0 3.62988 0 7.96558 0 12.4021 3.52333 16.032 7.95267 16.032 12.08 16.032 12.08 16.032 12.08 16.032 16.5093 16.032 20.1333 12.4021 20.1333 7.96558 20.1333 3.62988 16.5093 0 12.08 0M10.9727 11.6963C9.06 11.6963 9.06 11.6963 9.06 11.6963 6.946 11.6963 5.33534 10.083 5.33534 7.96558 5.33534 5.94898 6.946 4.23487 9.06 4.23487 10.9727 4.23487 10.9727 4.23487 10.9727 4.23487 13.0867 4.23487 14.6973 5.94898 14.6973 7.96558 14.6973 10.083 13.0867 11.6963 10.9727 11.6963"/><path data-cppathid="10029" transform="matrix(1.00142 0.0081474 -0.00813561 0.999967 216.991 37.1695)" fill-rule="evenodd" fill="#660D0A" d="M100.921 135.806C4.02477 135.806 4.02477 135.806 4.02477 135.806 1.81115 135.806 0 133.995 0 131.782 0 4.02388 0 4.02388 0 4.02388 0 1.81075 1.81115 0 4.02477 0 100.921 0 100.921 0 100.921 0 103.235 0 105.047 1.81075 105.047 4.02388 105.047 131.782 105.047 131.782 105.047 131.782 105.047 133.995 103.235 135.806 100.921 135.806"/><rect data-cppathid="10030" transform="matrix(1.00142 0.0081474 -0.00813561 0.999967 226.582 45.8698)" fill="#F2F2F2" height="118.935" width="85.7057" y="0" x="0"/><path data-cppathid="10031" transform="matrix(1.00142 0.0081474 -0.00813561 0.999967 240.497 33.5395)" fill-rule="evenodd" fill="#660D0A" d="M58.1624 15.0534C0 15.0534 0 15.0534 0 15.0534 0 3.91387 0 3.91387 0 3.91387 0 1.70605 1.71066 0 3.92445 0 54.238 0 54.238 0 54.238 0 56.3511 0 58.1624 1.70605 58.1624 3.91387L58.1624 15.0534Z"/><path data-cppathid="10032" transform="matrix(1.00145 0 -0 1 231.5 101.5)" fill-rule="evenodd" fill="none" stroke-miterlimit="8" stroke-width="0.665702" stroke="#7C7C7B" d="M0 0 75.7 0.000104835"/><path data-cppathid="10033" transform="matrix(1.00145 0 -0 1 231.5 89.5)" fill-rule="evenodd" fill="none" stroke-miterlimit="8" stroke-width="0.665702" stroke="#7C7C7B" d="M0 0 75.7 0.000104835"/><path data-cppathid="10034" transform="matrix(1.00145 0 -0 1 231.5 113.5)" fill-rule="evenodd" fill="none" stroke-miterlimit="8" stroke-width="0.665702" stroke="#7C7C7B" d="M0 0 75.7 0.000104835"/><path data-cppathid="10035" transform="matrix(1.00145 0 -0 1 231.5 125.5)" fill-rule="evenodd" fill="none" stroke-miterlimit="8" stroke-width="0.665702" stroke="#7C7C7B" d="M0 0 75.7 0.000104835"/><path data-cppathid="10036" transform="matrix(-4.37114e-08 -1 1.00145 -4.37747e-08 253.5 138.062)" fill-rule="evenodd" fill="none" stroke-miterlimit="8" stroke-width="0.665702" stroke="#7C7C7B" d="M0 0 62.5619 0.000104835"/><path data-cppathid="10037" transform="matrix(-4.37114e-08 -1 1.00145 -4.37747e-08 277.5 138.062)" fill-rule="evenodd" fill="none" stroke-miterlimit="8" stroke-width="0.665702" stroke="#7C7C7B" d="M0 0 62.5619 0.000104835"/><rect data-cppathid="10038" transform="matrix(1.00145 0 -0 1 236 80)" fill="#7C7C7B" height="1.17599" width="8.80603" y="1.912" x="1.5883"/><rect data-cppathid="10039" transform="matrix(1.00145 0 -0 1 258 80)" fill="#7C7C7B" height="1.17599" width="9.53987" y="1.912" x="1.72066"/><rect data-cppathid="10040" transform="matrix(1.00145 0 -0 1 258 92)" fill="#7C7C7B" height="1.17599" width="9.53987" y="1.912" x="1.72066"/><path data-cppathid="10041" transform="matrix(1.00145 0 -0 1 289 91)" fill-rule="evenodd" fill="#7C7C7B" d="M0 2.03285 2.03285 2.03285 2.03285 0 3.95846 0 3.95846 2.03285 5.99132 2.03285 5.99132 4.96719 3.95846 4.96719 3.95846 7.00004 2.03285 7.00004 2.03285 4.96719 0 4.96719Z"/><rect data-cppathid="10042" transform="matrix(1.00145 0 -0 1 286 104)" fill="#7C7C7B" height="1.17599" width="8.80603" y="1.912" x="1.5883"/><path data-cppathid="10043" transform="matrix(1.00145 0 -0 1 262 103)" fill-rule="evenodd" fill="#7C7C7B" d="M0 2.03285 2.03285 2.03285 2.03285 0 3.95846 0 3.95846 2.03285 5.99132 2.03285 5.99132 4.96708 3.95846 4.96708 3.95846 6.99993 2.03285 6.99993 2.03285 4.96708 0 4.96708Z"/><path data-cppathid="10044" transform="matrix(1.00145 0 -0 1 239 103)" fill-rule="evenodd" fill="#7C7C7B" d="M0 2.37166 2.37167 2.37166 2.37167 0 4.61821 0 4.61821 2.37166 6.98987 2.37166 6.98987 4.62827 4.61821 4.62827 4.61821 6.99993 2.37167 6.99993 2.37167 4.62827 0 4.62827Z"/><rect data-cppathid="10045" transform="matrix(1.00145 0 -0 1 235 116)" fill="#7C7C7B" height="1.17599" width="9.53987" y="1.912" x="1.72066"/><rect data-cppathid="10046" transform="matrix(1.00145 0 -0 1 232.5 76.5)" fill="none" stroke-miterlimit="8" stroke-width="1.3314" stroke="#7C7C7B" height="61" width="74.8915" y="0" x="0"/><rect data-cppathid="10047" transform="matrix(1.00145 0 -0 1 259 116)" fill="#7C7C7B" height="1.17599" width="9.53987" y="1.912" x="1.72066"/><path data-cppathid="10048" transform="matrix(1.00145 0 -0 1 287 127)" fill-rule="evenodd" fill="#7C7C7B" d="M0 2.03285 2.03285 2.03285 2.03285 0 3.95846 0 3.95846 2.03285 5.99132 2.03285 5.99132 4.96719 3.95846 4.96719 3.95846 7.00004 2.03285 7.00004 2.03285 4.96719 0 4.96719Z"/><rect data-cppathid="10049" transform="matrix(1.00145 0 -0 1 236 127)" fill="#7C7C7B" height="1.17599" width="8.80603" y="1.912" x="1.5883"/><path data-cppathid="10050" transform="matrix(-1.00145 -0 -0 1 270.5 58.5)" fill-rule="evenodd" fill="none" stroke-miterlimit="8" stroke-width="0.665702" stroke="#7C7C7B" d="M0 0-26.8045-0.000104835"/><path data-cppathid="10051" transform="matrix(-1.00145 -0 -0 1 270.5 63.5)" fill-rule="evenodd" fill="none" stroke-miterlimit="8" stroke-width="0.665702" stroke="#7C7C7B" d="M0 0-26.8045-0.000104835"/><path data-cppathid="10052" transform="matrix(-1.00145 -0 -0 1 270.5 68.5)" fill-rule="evenodd" fill="none" stroke-miterlimit="8" stroke-width="0.665702" stroke="#7C7C7B" d="M0 0-26.8045-0.000104835"/><path data-cppathid="10053" transform="matrix(1.00145 0 -0 1 235.5 146.5)" fill-rule="evenodd" fill="none" stroke-miterlimit="8" stroke-width="0.665702" stroke="#7C7C7B" d="M0 0 45.8742 0.000104835"/><path data-cppathid="10054" transform="matrix(1.00145 0 -0 1 235.5 152.5)" fill-rule="evenodd" fill="none" stroke-miterlimit="8" stroke-width="0.665702" stroke="#7C7C7B" d="M0 0 45.8742 0.000104835"/><path data-cppathid="10055" transform="matrix(1.00145 0 -0 1 232 54)" fill-rule="evenodd" fill="#C91429" d="M13.8963 2.18845 13.23 5.22768 12.1352 9.8959 15.7524 9.8959 14.6578 5.325 13.9676 2.18845ZM20.5199 0.000212719 22.0905 0.000212719C22.2294-0.000744517 22.3324 0.0194638 22.3999 0.060944 22.4674 0.102531 22.5228 0.171345 22.5665 0.267601L24.9225 5.27522 24.9938 5.27522C25.3909 4.4755 25.7985 3.64398 26.2164 2.78056 26.6343 1.91702 27.0359 1.07934 27.4212 0.267601 27.4648 0.171345 27.5203 0.102531 27.5878 0.060944 27.6551 0.0194638 27.7583-0.000744517 27.8972 0.000212719L29.325 0.000212719C29.4652 0.00223355 29.5535 0.0346732 29.5897 0.0974253 29.6259 0.160177 29.6249 0.241223 29.5867 0.340457L26.0885 7.24425C26.6651 8.38071 27.2967 9.60831 27.9834 10.9271 28.67 12.2458 29.3076 13.4734 29.8961 14.6099 29.9571 14.7324 29.972 14.8276 29.9408 14.8954 29.9095 14.9633 29.8232 14.9978 29.682 14.9988L28.2064 14.9988C28.0776 15.0044 27.9724 14.9932 27.8911 14.9653 27.8098 14.9376 27.7405 14.8595 27.6829 14.7314L24.9462 9.16468 24.8748 9.16468 22.1619 14.7314C22.094 14.8595 22.0216 14.9376 21.9448 14.9653 21.8679 14.9932 21.7658 15.0044 21.6384 14.9988L20.163 14.9988C20.0216 14.9978 19.9354 14.9633 19.9042 14.8954 19.8729 14.8276 19.8877 14.7324 19.9487 14.6099L23.7563 7.2199 20.2581 0.340457C20.1976 0.230587 20.1878 0.146563 20.2284 0.0882784 20.2691 0.0300997 20.3662 0.000744517 20.5199 0.000212719ZM12.9444 0.000212719 14.9672 0.000212719C15.0728-0.00180811 15.153 0.0144649 15.2081 0.048819 15.2632 0.0832795 15.3018 0.148159 15.3242 0.243351L18.9414 14.5855C18.971 14.6772 18.9771 14.7673 18.9592 14.856 18.9414 14.9446 18.864 14.9922 18.7271 14.9988L17.2755 14.9988C17.0812 15.0029 16.9701 14.9461 16.9423 14.8286L16.1332 11.5705 11.7307 11.5705 10.9454 14.8286C10.9325 14.8888 10.8987 14.9325 10.8443 14.9593 10.7897 14.9862 10.7203 14.9994 10.636 14.9988L9.35096 14.9988C9.21907 15.0018 9.1259 14.9776 9.07135 14.9259 9.0168 14.8742 9.00691 14.777 9.04158 14.6341L12.5636 0.291957C12.5735 0.216016 12.6072 0.149116 12.6647 0.0913628 12.7223 0.0336096 12.8154 0.00329715 12.9444 0.000212719ZM0.285653 0.000212719 8.92113 0.000212719C9.01628 0.00127631 9.08769 0.0235055 9.13527 0.0670065 9.18284 0.110508 9.20668 0.169112 9.20668 0.242925L9.20668 1.48084C9.20668 1.65474 9.11153 1.74376 8.92113 1.74781L5.56565 1.74781 5.56565 14.7071C5.56815 14.8043 5.55128 14.8773 5.51516 14.9259 5.47904 14.9745 5.40877 14.9988 5.30425 14.9988L3.85486 14.9988C3.66466 14.9948 3.56962 14.9057 3.56962 14.7313L3.56962 1.74781 0.285653 1.74781C0.1904 1.75036 0.118987 1.73313 0.0714132 1.69622 0.0238391 1.65932 0 1.58752 0 1.48084L0 0.267175C0 0.0932773 0.0952523 0.00425438 0.285653 0.000212719Z"/><path data-cppathid="10056" transform="matrix(1.00145 0 -0 1 153 73)" fill-rule="evenodd" fill="#7C7C7B" d="M0 3.58428C-4.05812e-16 1.60474 1.60474 0 3.58428 0L71.3072 0C73.2867 -8.11623e-16 74.8915 1.60474 74.8915 3.58428L74.8915 98.4157C74.8915 100.395 73.2867 102 71.3072 102L3.58428 102C1.60474 102 0 100.395 0 98.4157Z"/><rect data-cppathid="10057" transform="matrix(1.00145 0 -0 1 158 79)" fill="#E5E5E5" height="85" width="64.9059" y="0" x="0"/><rect data-cppathid="10058" transform="matrix(1.00145 0 -0 1 158 85)" fill="#D0D0D0" height="12" width="64.9059" y="0" x="0"/><path data-cppathid="10059" transform="matrix(1.00145 0 -0 1 161 102)" fill-rule="evenodd" fill="#C91429" d="M0 2.16358C-4.13771e-16 0.968666 0.968667 0 2.16358 0L10.8176 0C12.0125 -4.1377e-16 12.9812 0.968666 12.9812 2.16358L12.9812 10.8365C12.9812 12.0314 12.0125 13.0001 10.8176 13.0001L2.16358 13.0001C0.968667 13.0001 0 12.0314 0 10.8365Z"/><path data-cppathid="10060" transform="matrix(1.00145 0 -0 1 177 102)" fill-rule="evenodd" fill="#C91429" d="M0 2.16358C-4.13771e-16 0.968666 0.968667 0 2.16358 0L10.8176 0C12.0125 -4.1377e-16 12.9812 0.968666 12.9812 2.16358L12.9812 10.8365C12.9812 12.0314 12.0125 13.0001 10.8176 13.0001L2.16358 13.0001C0.968667 13.0001 0 12.0314 0 10.8365Z"/><path data-cppathid="10061" transform="matrix(1.00145 0 -0 1 192 102)" fill-rule="evenodd" fill="#C91429" d="M0 2.16358C-4.13771e-16 0.968666 0.968667 0 2.16358 0L10.8176 0C12.0125 -4.1377e-16 12.9812 0.968666 12.9812 2.16358L12.9812 10.8365C12.9812 12.0314 12.0125 13.0001 10.8176 13.0001L2.16358 13.0001C0.968667 13.0001 0 12.0314 0 10.8365Z"/><path data-cppathid="10062" transform="matrix(1.00145 0 -0 1 208 102)" fill-rule="evenodd" fill="#C91429" d="M0 2.16358C-4.13771e-16 0.968666 0.968667 0 2.16358 0L10.8176 0C12.0125 -4.1377e-16 12.9812 0.968666 12.9812 2.16358L12.9812 10.8365C12.9812 12.0314 12.0125 13.0001 10.8176 13.0001L2.16358 13.0001C0.968667 13.0001 0 12.0314 0 10.8365Z"/><path data-cppathid="10063" transform="matrix(1.00145 0 -0 1 161 117)" fill-rule="evenodd" fill="#C91429" d="M0 2.16358C-4.13771e-16 0.968666 0.968667 0 2.16358 0L10.8176 0C12.0125 -4.1377e-16 12.9812 0.968666 12.9812 2.16358L12.9812 10.8365C12.9812 12.0314 12.0125 13.0001 10.8176 13.0001L2.16358 13.0001C0.968667 13.0001 0 12.0314 0 10.8365Z"/><path data-cppathid="10064" transform="matrix(1.00145 0 -0 1 177 117)" fill-rule="evenodd" fill="#C91429" d="M0 2.16358C-4.13771e-16 0.968666 0.968667 0 2.16358 0L10.8176 0C12.0125 -4.1377e-16 12.9812 0.968666 12.9812 2.16358L12.9812 10.8365C12.9812 12.0314 12.0125 13.0001 10.8176 13.0001L2.16358 13.0001C0.968667 13.0001 0 12.0314 0 10.8365Z"/><path data-cppathid="10065" transform="matrix(1.00145 0 -0 1 192 117)" fill-rule="evenodd" fill="#C91429" d="M0 2.16358C-4.13771e-16 0.968666 0.968667 0 2.16358 0L10.8176 0C12.0125 -4.1377e-16 12.9812 0.968666 12.9812 2.16358L12.9812 10.8365C12.9812 12.0314 12.0125 13.0001 10.8176 13.0001L2.16358 13.0001C0.968667 13.0001 0 12.0314 0 10.8365Z"/><path data-cppathid="10066" transform="matrix(1.00145 0 -0 1 161 132)" fill-rule="evenodd" fill="#C91429" d="M0 2.00005C-4.1317e-16 0.895451 0.895451 0 2.00005 0L10.9811 0C12.0857 0 12.9812 0.895451 12.9812 2.00005L12.9812 9.99999C12.9812 11.1046 12.0857 12 10.9811 12L2.00005 12C0.895451 12 0 11.1046 0 9.99999Z"/><path data-cppathid="10067" transform="matrix(1.00145 0 -0 1 177 132)" fill-rule="evenodd" fill="#C91429" d="M0 2.00005C-4.1317e-16 0.895451 0.895451 0 2.00005 0L10.9811 0C12.0857 0 12.9812 0.895451 12.9812 2.00005L12.9812 9.99999C12.9812 11.1046 12.0857 12 10.9811 12L2.00005 12C0.895451 12 0 11.1046 0 9.99999Z"/><path data-cppathid="10068" transform="matrix(1.00145 0 -0 1 192 132)" fill-rule="evenodd" fill="#C91429" d="M0 2.00005C-4.1317e-16 0.895451 0.895451 0 2.00005 0L10.9811 0C12.0857 0 12.9812 0.895451 12.9812 2.00005L12.9812 9.99999C12.9812 11.1046 12.0857 12 10.9811 12L2.00005 12C0.895451 12 0 11.1046 0 9.99999Z"/><path data-cppathid="10069" transform="matrix(1.00145 0 -0 1 208 132)" fill-rule="evenodd" fill="#C91429" d="M0 2.16358C0 0.968666 0.968666 0 2.16358 0L10.8176 0C12.0125 0 12.9812 0.968666 12.9812 2.16358L12.9812 24.8365C12.9812 26.0314 12.0125 27 10.8176 27L2.16358 27C0.968666 27 0 26.0314 0 24.8365Z"/><path data-cppathid="10070" transform="matrix(1.00145 0 -0 1 161 147)" fill-rule="evenodd" fill="#C91429" d="M0 2.00004C-2.22476e-16 0.895447 0.895445 -4.44953e-16 2.00003 -4.44953e-16L25.9594 0C27.064 -4.44953e-16 27.9595 0.895447 27.9595 2.00004L27.9595 10C27.9595 11.1046 27.064 12 25.9594 12L2.00003 12C0.895445 12 0 11.1046 0 10Z"/><path data-cppathid="10071" transform="matrix(1.00145 0 -0 1 192 147)" fill-rule="evenodd" fill="#C91429" d="M0 2.00005C-4.1317e-16 0.895451 0.895451 0 2.00005 0L10.9811 0C12.0857 0 12.9812 0.895451 12.9812 2.00005L12.9812 9.99999C12.9812 11.1046 12.0857 12 10.9811 12L2.00005 12C0.895451 12 0 11.1046 0 9.99999Z"/><path data-cppathid="10072" transform="matrix(1.00145 0 -0 1 208 117)" fill-rule="evenodd" fill="#C91429" d="M0 2.16358C-4.13771e-16 0.968666 0.968667 0 2.16358 0L10.8176 0C12.0125 -4.1377e-16 12.9812 0.968666 12.9812 2.16358L12.9812 10.8365C12.9812 12.0314 12.0125 13.0001 10.8176 13.0001L2.16358 13.0001C0.968667 13.0001 0 12.0314 0 10.8365Z"/><path data-cppathid="10073" transform="matrix(1.00145 0 -0 1 166 106)" fill-rule="evenodd" fill="#FFFFFF" d="M0.155347 0.000148902 3.71489 0.000148902C3.79894-0.00148902 3.86616 0.0159325 3.91667 0.0525625 3.96705 0.0891924 3.99299 0.154858 3.99421 0.249709L3.99421 0.612732 3.99353 0.61303C3.99231 0.683014 3.98199 0.755678 3.96257 0.831321 3.94315 0.906814 3.92238 0.973969 3.90051 1.03249 3.85068 1.14476 3.74707 1.38494 3.58955 1.75317 3.43216 2.12141 3.24667 2.55695 3.03293 3.05979 2.8192 3.56263 2.60301 4.07203 2.38439 4.58812 2.16562 5.10422 1.97022 5.56611 1.7979 5.9738 1.62558 6.38165 1.502 6.67454 1.42745 6.85263 1.41279 6.88851 1.39038 6.92157 1.3601 6.95179 1.32996 6.98217 1.28691 6.99825 1.23083 7.00004L0.33147 7.00004C0.272944 6.99885 0.229762 6.9786 0.202331 6.93914 0.174765 6.89968 0.173 6.84816 0.197035 6.78443 0.20206 6.77267 0.27403 6.60173 0.412946 6.27161 0.551726 5.94164 0.727578 5.52382 0.940366 5.01815 1.15329 4.51248 1.37314 3.99028 1.60005 3.45155 1.82696 2.91282 2.03092 2.42874 2.21207 1.99931 2.39308 1.57002 2.52127 1.26671 2.59663 1.08922L0.961821 1.08922 0.962364 1.67932C0.962364 1.73158 0.949464 1.77462 0.923663 1.80842 0.897727 1.84222 0.85889 1.85979 0.807153 1.86083L0.165667 1.86083C0.109042 1.86038 0.0672175 1.8443 0.0401947 1.81273 0.0133077 1.78102-0.000135793 1.7365 0.000135793 1.67932L0.000135793 0.181661C-0.000543171 0.124482 0.011135 0.0799605 0.0350346 0.0482443 0.0589341 0.016677 0.0991288 0.000595609 0.155347 0.000148902Z"/><path data-cppathid="10074" transform="matrix(1.00145 0 -0 1 181 106)" fill-rule="evenodd" fill="#FFFFFF" d="M1.99704 3.83067C1.75648 3.83661 1.54465 3.93791 1.36179 4.13457 1.17894 4.33124 1.08264 4.58718 1.07302 4.90253 1.07802 5.24166 1.16339 5.50282 1.32912 5.68571 1.49485 5.86875 1.71077 5.96136 1.97702 5.96339 2.24049 5.95933 2.46195 5.85977 2.64125 5.66499 2.82054 5.47035 2.91395 5.20514 2.92119 4.86949 2.91474 4.55544 2.82476 4.30486 2.65126 4.11805 2.47776 3.9311 2.25973 3.8353 1.99704 3.83067ZM2.00718 1.02564C1.76017 1.03216 1.55598 1.12143 1.39433 1.2936 1.23282 1.46592 1.14903 1.68229 1.14324 1.94301 1.14719 2.19344 1.22715 2.40533 1.383 2.57837 1.53898 2.75155 1.747 2.84184 2.00718 2.84923 2.26684 2.84344 2.47328 2.75547 2.62623 2.58532 2.77918 2.41518 2.85743 2.19736 2.86099 1.93185 2.85875 1.68142 2.783 1.46954 2.63374 1.2965 2.48448 1.12332 2.27567 1.03303 2.00718 1.02564ZM2.00718 0C2.55706 0.00579701 3.01091 0.178983 3.36845 0.519992 3.72612 0.860857 3.91122 1.3352 3.92399 1.94301 3.92228 2.19156 3.868 2.43475 3.76103 2.67213 3.65406 2.90967 3.50454 3.10836 3.31233 3.26821L3.31233 3.32343C3.55565 3.46748 3.73073 3.67574 3.83744 3.94835 3.94428 4.22095 3.99645 4.52066 3.99421 4.84732 3.97893 5.546 3.78119 6.07875 3.40112 6.4457 3.02092 6.81251 2.54956 6.99743 1.98703 7.00004 1.4386 7.00308 0.974346 6.83714 0.594409 6.50222 0.214472 6.16715 0.0163357 5.64499 0 4.93572 0.00158087 4.59544 0.068768 4.27878 0.201957 3.98574 0.335014 3.69255 0.525114 3.47545 0.772257 3.33444L0.772257 3.29024C0.53842 3.15126 0.369266 2.95213 0.264665 2.69286 0.159932 2.43344 0.108553 2.18721 0.110529 1.95403 0.12423 1.3652 0.309851 0.894479 0.667129 0.542021 1.02454 0.189562 1.47114 0.00898537 2.00718 0Z"/><path data-cppathid="10075" transform="matrix(1.00145 0 -0 1 197 106)" fill-rule="evenodd" fill="#FFFFFF" d="M1.98678 1.06202C1.7511 1.06813 1.54911 1.15303 1.3808 1.31702 1.2125 1.48102 1.12434 1.68789 1.1166 1.93781L1.1166 2.62503C1.12339 2.88759 1.21101 3.09128 1.37945 3.23608 1.54802 3.38088 1.75735 3.4543 2.00743 3.45633 2.2427 3.45153 2.44293 3.37245 2.60825 3.21936 2.77356 3.06627 2.85996 2.86811 2.86729 2.62503L2.86729 1.94886C2.85968 1.68397 2.77125 1.47098 2.60186 1.31004 2.43233 1.14911 2.22735 1.06638 1.98678 1.06202ZM1.99711 0C2.65103 0.00814144 3.14685 0.190888 3.48482 0.547803 3.82265 0.904863 3.99245 1.38652 3.99421 1.9932L3.99421 5.0064C3.98199 5.63737 3.79195 6.12614 3.42409 6.47273 3.05624 6.81947 2.58407 6.9951 2.00743 6.99989 1.78411 7.00207 1.57044 6.98129 1.36668 6.93767 1.16278 6.8942 0.972608 6.8154 0.796153 6.70128 0.646051 6.60329 0.499073 6.46736 0.355491 6.29319 0.211773 6.11916 0.134616 5.96375 0.124157 5.82694 0.124564 5.78856 0.134073 5.75716 0.152547 5.73274 0.171021 5.70817 0.196016 5.68781 0.22753 5.67168L0.868555 5.30575C0.884176 5.29513 0.899255 5.28874 0.913789 5.28641 0.928188 5.28408 0.940685 5.28307 0.951145 5.28365 0.986056 5.28467 1.01458 5.29906 1.03645 5.32654 1.05846 5.35401 1.08169 5.38774 1.10627 5.42772 1.21657 5.59506 1.34046 5.72343 1.47793 5.81313 1.6154 5.90269 1.78846 5.94805 1.99711 5.94892 2.23279 5.94703 2.43478 5.86765 2.60308 5.71049 2.77139 5.55348 2.85941 5.32974 2.86729 5.0397L2.86729 4.21974 2.83618 4.21974C2.74164 4.32892 2.59914 4.40641 2.40883 4.45206 2.21852 4.49771 2.05022 4.51981 1.90392 4.5185 1.35798 4.51297 0.907405 4.34418 0.55205 4.01213 0.196695 3.68008 0.0127689 3.21761 0 2.62503L0 2.23701C0.00230926 1.54746 0.173466 1.0043 0.513336 0.60741 0.853205 0.210369 1.3478 0.00799606 1.99711 0Z"/><path data-cppathid="10076" transform="matrix(1.00145 0 -0 1 211 107)" fill-rule="evenodd" fill="#FFFFFF" d="M2.63142 0 3.27413 0C3.36156 0.00043649 3.43298 0.0212425 3.48837 0.0624181 3.54377 0.103448 3.5723 0.161647 3.57413 0.237014L3.57413 2.03303 5.69098 2.03303C5.78475 2.03434 5.85817 2.0566 5.91089 2.09996 5.96362 2.14331 5.99048 2.19991 5.99132 2.2696L5.99132 2.73039C5.99132 2.81216 5.96629 2.87589 5.91623 2.92187 5.86618 2.9677 5.79109 2.99112 5.69098 2.99185L3.57413 2.99185 3.57413 4.7755C3.5723 4.85028 3.54377 4.90644 3.48837 4.94384 3.43298 4.98123 3.36156 5 3.27413 5L2.63142 5C2.54449 5 2.47541 4.98123 2.42436 4.94384 2.37313 4.90644 2.34694 4.85028 2.34577 4.7755L2.34577 2.99185 0.286151 2.99185C0.199054 2.99083 0.129978 2.96799 0.0787541 2.92332 0.0273637 2.8788 0.00116796 2.81856 0 2.74276L0 2.2696C0.000333704 2.19438 0.0246941 2.13633 0.073248 2.0953 0.121802 2.05427 0.192881 2.03361 0.286151 2.03303L2.34577 2.03303 2.34577 0.237014C2.34694 0.161647 2.37313 0.103448 2.42436 0.0624181 2.47541 0.0212425 2.54449 0.00043649 2.63142 0Z"/><path data-cppathid="10077" transform="matrix(1.00145 0 -0 1 165 121)" fill-rule="evenodd" fill="#FFFFFF" d="M2.53778 0 3.38707 0C3.45537 0.00238269 3.50181 0.0204018 3.52656 0.0539083 3.55131 0.0875638 3.56292 0.122559 3.56139 0.158895 3.5617 0.176468 3.56124 0.192551 3.56002 0.207145 3.5588 0.221739 3.55543 0.232163 3.54978 0.238418 3.18373 0.946672 2.81966 1.6521 2.45773 2.35469 2.09565 3.05729 1.73433 3.76271 1.37362 4.47096L2.84044 4.47096 2.84044 2.75751C2.83921 2.72163 2.84746 2.68842 2.86519 2.65819 2.88291 2.62796 2.91728 2.61187 2.96846 2.60994L3.95678 2.60994C4.00842 2.61232 4.04478 2.63034 4.06586 2.66384 4.08695 2.6975 4.09703 2.7325 4.09642 2.76883L4.09642 4.47096 4.84136 4.47096C4.87833 4.46962 4.91225 4.47811 4.94326 4.49643 4.97428 4.5149 4.99078 4.55168 4.99276 4.60693L4.99276 5.37758C4.99078 5.43283 4.97428 5.46961 4.94326 5.48807 4.91225 5.50654 4.87833 5.51503 4.84136 5.51354L4.09642 5.51354 4.09642 6.86393C4.09642 6.89937 4.08466 6.93064 4.06143 6.9576 4.03821 6.9844 4.00338 6.9987 3.95678 7.00004L2.96846 7.00004C2.92233 6.99915 2.88948 6.98679 2.86962 6.96326 2.84976 6.93958 2.83998 6.91024 2.84044 6.87525 2.83998 6.64829 2.83815 6.42134 2.83463 6.19439 2.83127 5.96744 2.82928 5.74049 2.82883 5.51354L0.186236 5.51354C0.137652 5.51473 0.0950275 5.50103 0.0582082 5.47244 0.0212361 5.44385 0.00183333 5.39336 0 5.32084L0 4.70894C0.00702776 4.62256 0.0278055 4.5347 0.0624859 4.44535 0.0971664 4.356 0.138416 4.2738 0.186236 4.19859L2.27012 0.13626C2.31855 0.04542 2.40777 0 2.53778 0Z"/><path data-cppathid="10078" transform="matrix(1.00145 0 -0 1 181 121)" fill-rule="evenodd" fill="#FFFFFF" d="M0.437835 0 3.63138 0C3.68522 0 3.727 0.0141573 3.75672 0.0421769 3.78658 0.0701965 3.80172 0.112226 3.80214 0.168413L3.80214 0.909163C3.80214 1.02139 3.74873 1.07743 3.64204 1.07743L1.41963 1.07743 1.41963 2.46086C1.42987 2.4613 1.4387 2.46322 1.44627 2.46646 1.45384 2.46971 1.46282 2.47163 1.47305 2.47207 1.56488 2.42134 1.67269 2.38255 1.79648 2.35557 1.92042 2.32873 2.0229 2.31516 2.10394 2.31501 2.70622 2.32504 3.17083 2.50687 3.49777 2.8608 3.82471 3.21474 3.99015 3.68045 3.99421 4.2581L3.99421 5.02259C3.98243 5.64094 3.78714 6.12347 3.40833 6.47047 3.02966 6.81732 2.53771 6.9937 1.9329 6.99945 1.49436 7.00815 1.1241 6.93471 0.822115 6.77927 0.520131 6.62384 0.256701 6.33435 0.0321051 5.91081 0.0214501 5.89356 0.0134589 5.87483 0.00813142 5.85463 0.00266374 5.83457 0 5.81584 0 5.79844 0 5.76496 0.00813142 5.73635 0.0241139 5.71276 0.0400963 5.68902 0.0642102 5.66896 0.0961751 5.6523L0.758045 5.28126C0.774168 5.27049 0.789729 5.26385 0.804731 5.26164 0.819591 5.25928 0.83249 5.25825 0.843285 5.25869 0.869782 5.25943 0.894316 5.26931 0.916748 5.28833 0.939179 5.30721 0.96091 5.3311 0.98208 5.36001 1.10517 5.54125 1.23514 5.68179 1.37169 5.78163 1.50838 5.88132 1.6811 5.9319 1.89 5.93338 2.16324 5.92939 2.38685 5.8502 2.56112 5.6958 2.73524 5.54154 2.82525 5.33582 2.831 5.07893L2.831 4.2581C2.83044 4.01536 2.75417 3.81214 2.60248 3.64815 2.45078 3.48417 2.22759 3.39893 1.9329 3.39229 1.72961 3.40365 1.56404 3.44863 1.43576 3.52723 1.30762 3.60598 1.1848 3.65096 1.06746 3.66216 1.04124 3.66216 1.01629 3.65936 0.992735 3.65376 0.969182 3.64815 0.944227 3.63975 0.91801 3.62839L0.4698 3.40365C0.409656 3.37577 0.359325 3.33596 0.319088 3.28434 0.278852 3.23258 0.257962 3.16769 0.25642 3.08938L0.25642 0.179621C0.257402 0.122991 0.274225 0.0790448 0.307172 0.0477808 0.339978 0.0163694 0.383579 0.000589887 0.437835 0Z"/><path data-cppathid="10079" transform="matrix(1.00145 0 -0 1 197 121)" fill-rule="evenodd" fill="#FFFFFF" d="M1.97639 3.53273C1.74613 3.53753 1.54889 3.61647 1.38465 3.7697 1.22042 3.92278 1.13457 4.12094 1.12696 4.36401L1.12696 5.09556C1.13429 5.35855 1.22056 5.56412 1.38588 5.71212 1.5512 5.86012 1.75157 5.93542 1.98671 5.93804 2.24509 5.93484 2.45361 5.85808 2.61214 5.70805 2.7708 5.55787 2.85231 5.35376 2.85693 5.09556L2.85693 4.37506C2.85068 4.10727 2.76469 3.9004 2.59923 3.75443 2.43364 3.60847 2.22607 3.53462 1.97639 3.53273ZM1.96607 0.00029076C2.34629-0.00392526 2.70166 0.0818488 3.0323 0.257468 3.36308 0.433087 3.62512 0.723555 3.81843 1.12887 3.82862 1.1783 3.82644 1.21799 3.81205 1.24809 3.79765 1.27803 3.77211 1.30115 3.73584 1.31743L3.12576 1.6944C3.05934 1.72944 3.00595 1.73133 2.96547 1.69993 2.92499 1.66852 2.89225 1.62607 2.86725 1.57243 2.75627 1.41048 2.63116 1.2853 2.49178 1.19677 2.35227 1.10823 2.18056 1.06345 1.97639 1.06229 1.73255 1.06723 1.53137 1.14894 1.37297 1.30769 1.21458 1.4663 1.13253 1.67289 1.12696 1.9273L1.12696 2.80249 1.16839 2.81354C1.29676 2.69767 1.45176 2.61146 1.63325 2.55491 1.81474 2.4985 1.96715 2.47044 2.09036 2.47058 2.64977 2.47611 3.1043 2.6449 3.45383 2.97694 3.80335 3.30899 3.98348 3.77144 3.99421 4.36401L3.99421 5.09556C3.98117 5.71779 3.79017 6.19027 3.42149 6.51316 3.05281 6.83591 2.58483 6.99829 2.01782 7.00004 1.43084 6.99626 0.950906 6.8298 0.577879 6.50066 0.204852 6.17166 0.0122259 5.70325 0 5.09556L0 1.91611C0.011275 1.32237 0.197924 0.856287 0.559812 0.517698 0.921563 0.179108 1.39036 0.00668747 1.96607 0.00029076Z"/><path data-cppathid="10080" transform="matrix(1.00145 0 -0 1 166 136)" fill-rule="evenodd" fill="#FFFFFF" d="M2.02953 0.000148902 2.73339 0.000148902C2.8167-0.000595609 2.88119 0.0150391 2.92665 0.0469042 2.97193 0.0787692 2.99493 0.131332 2.99566 0.204294L2.99566 6.81927 2.99475 6.81853C2.99421 6.87571 2.97465 6.92023 2.93607 6.95179 2.89767 6.98351 2.84351 6.99959 2.77396 7.00004L1.69807 7.00004C1.62851 7.00004 1.57454 6.98589 1.53596 6.9576 1.49756 6.92916 1.478 6.88658 1.47745 6.82984L1.47745 1.47547 1.44974 1.47517 0.373303 1.98576C0.255027 2.0419 0.163558 2.05991 0.0988953 2.03966 0.034233 2.01926 0.00144902 1.96342 0.000543381 1.8723L0.000543381 1.18005C-0.00235465 1.10709 0.00688282 1.04321 0.0282558 0.98871 0.0494477 0.934063 0.100163 0.88433 0.18004 0.839659L1.61547 0.102147C1.67832 0.0681972 1.7457 0.042586 1.81725 0.0256112 1.88879 0.00863632 1.95961 0.000148902 2.02953 0.000148902Z"/><path data-cppathid="10081" transform="matrix(1.00145 0 -0 1 181 136)" fill-rule="evenodd" fill="#FFFFFF" d="M2.04559 0.000293546C2.57687 0.000733864 3.02363 0.150589 3.38603 0.450006 3.74842 0.749276 3.93709 1.19547 3.95202 1.78843 3.94414 2.10223 3.86516 2.40326 3.71522 2.69181 3.56515 2.98037 3.39142 3.25351 3.19404 3.51139L1.38166 5.92786 3.82574 5.92786C3.88342 5.92874 3.92588 5.94357 3.95341 5.97248 3.98079 6.0014 3.99435 6.03853 3.99421 6.08418L3.99421 6.83257C3.99283 6.88834 3.97706 6.93032 3.94677 6.95821 3.91648 6.9861 3.87968 7.00004 3.83625 7.00004L0.18009 7.00004C0.121858 6.99945 0.0775964 6.98125 0.0470282 6.94559 0.0164599 6.91007 0.00110654 6.86119 0.000968227 6.79896L0.000968227 6.29641C-0.00235141 6.2057 0.00414954 6.12469 0.0207477 6.0535 0.0372076 5.98217 0.0832675 5.89557 0.159066 5.79357L2.23536 3.00796C2.38737 2.80145 2.51559 2.60463 2.62002 2.41779 2.72459 2.2308 2.77909 2.05086 2.78338 1.87796 2.78365 1.65839 2.7174 1.4711 2.58447 1.31582 2.45169 1.16053 2.25099 1.07951 1.98237 1.07247 1.80132 1.07511 1.6287 1.12032 1.46465 1.20809 1.3006 1.296 1.15703 1.41122 1.03379 1.55359 0.980399 1.61832 0.923827 1.66499 0.863935 1.69347 0.803905 1.72179 0.744566 1.71255 0.686058 1.66543L0.274976 1.30745C0.19572 1.24757 0.148692 1.19121 0.13403 1.13822 0.11923 1.08539 0.13818 1.02624 0.190602 0.960775 0.418827 0.612924 0.689792 0.364877 1.0035 0.216637 1.31734 0.0683962 1.66466-0.00366932 2.04559 0.000293546Z"/><path data-cppathid="10082" transform="matrix(1.00145 0 -0 1 197 136)" fill-rule="evenodd" fill="#FFFFFF" d="M2.00315 0.000145377C2.62406 0.00465206 3.10622 0.167038 3.44978 0.487012 3.79333 0.807132 3.96764 1.25751 3.97284 1.83829 3.97102 2.10636 3.90242 2.37371 3.76691 2.64033 3.63125 2.90681 3.43966 3.09376 3.19169 3.20091L3.21319 3.2451C3.47972 3.34352 3.6768 3.52306 3.8043 3.78358 3.9318 4.04395 3.99505 4.29283 3.99421 4.52994L3.99421 5.00663C3.98536 5.63742 3.79713 6.12603 3.42967 6.47276 3.06222 6.81934 2.56895 6.99495 1.94959 6.99975 1.66072 7.00353 1.39504 6.97125 1.15297 6.90307 0.910906 6.83475 0.690771 6.70856 0.492845 6.52408 0.397397 6.44092 0.293795 6.33349 0.182181 6.20192 0.0707077 6.07021 0.00998061 5.94896 0.000140572 5.83804-0.00168686 5.77146 0.0340184 5.71607 0.107256 5.67173L0.760635 5.30596C0.794653 5.28372 0.823189 5.27267 0.846384 5.27267 0.872952 5.27311 0.897411 5.28328 0.920043 5.3032 0.942535 5.32297 0.964464 5.34972 0.98555 5.38345 1.09829 5.55252 1.23169 5.6883 1.3859 5.79079 1.54011 5.89343 1.71371 5.94606 1.90686 5.94882 2.19363 5.94417 2.41812 5.86479 2.58034 5.71055 2.74256 5.5563 2.82507 5.35481 2.82803 5.10636L2.82803 4.64086C2.8262 4.4007 2.75479 4.19645 2.61379 4.02839 2.47266 3.86034 2.27277 3.77253 2.01397 3.76511L1.29621 3.76511C1.2376 3.76468 1.1943 3.74898 1.16633 3.71816 1.13849 3.68719 1.12458 3.64387 1.12486 3.58819L1.12486 2.90216C1.12415 2.84691 1.13624 2.80548 1.16098 2.77771 1.18572 2.75009 1.22733 2.73628 1.28553 2.73628L1.96042 2.73628C2.24873 2.72727 2.46198 2.6399 2.60044 2.47431 2.73876 2.30873 2.8075 2.11887 2.80652 1.90473 2.80188 1.64654 2.72021 1.44228 2.5615 1.29225 2.40294 1.14208 2.19531 1.06547 1.93891 1.06212 1.75504 1.06329 1.58453 1.1053 1.42751 1.18831 1.27035 1.27117 1.13737 1.38806 1.02842 1.53896 0.996514 1.58461 0.963902 1.62342 0.930727 1.65526 0.897411 1.68724 0.862268 1.70382 0.824876 1.70527 0.792826 1.70527 0.760635 1.69408 0.728584 1.67198 0.588434 1.58897 0.445613 1.50538 0.300121 1.42106 0.154629 1.33674 0.0760494 1.25039 0.0643819 1.162 0.0646631 1.13467 0.0695831 1.10879 0.079142 1.08437 0.0887009 1.05994 0.101634 1.03407 0.11794 1.00688 0.317693 0.655068 0.58506 0.398769 0.920043 0.237982 1.25503 0.0770497 1.61602-0.00218065 2.00315 0.000145377Z"/><path data-cppathid="10083" transform="matrix(1.00145 0 -0 1 211 146)" fill-rule="evenodd" fill="#FFFFFF" d="M0.286611 2.0952 4.70615 2.0952C4.79644 2.0952 4.86653 2.11579 4.91655 2.15685 4.96657 2.19804 4.99207 2.25969 4.99276 2.34194L4.99276 2.72984C4.99276 2.82335 4.9688 2.89186 4.92115 2.93539 4.87335 2.97905 4.8016 3.00061 4.70615 3.00006L0.286611 3.00006C0.196322 2.99965 0.126098 2.97699 0.0760765 2.93251 0.0260555 2.88788 0.000696671 2.82431 0 2.74151L0 2.34194C0 2.17744 0.0955833 2.0952 0.286611 2.0952ZM0.286611 0 4.70615 0C4.79644 0 4.86653 0.0205963 4.91655 0.0616517 4.96657 0.102844 4.99207 0.164496 4.99276 0.246744L4.99276 0.634642C4.99276 0.812869 4.89718 0.902943 4.70615 0.904866L0.286611 0.904866C0.196322 0.90363 0.126098 0.879601 0.0760765 0.832916 0.0260555 0.786093 0.000696671 0.723892 0 0.646313L0 0.246744C0 0.082248 0.0955833 0 0.286611 0Z"/><path data-cppathid="10084" transform="matrix(1.00145 0 -0 1 173 151)" fill-rule="evenodd" fill="#FFFFFF" d="M2.50301 1.05099C2.19422 1.05492 1.93944 1.13575 1.73886 1.29335 1.53827 1.4511 1.43437 1.66205 1.42732 1.92636L1.42732 5.06248C1.43385 5.33174 1.53552 5.54414 1.73232 5.69971 1.92912 5.85527 2.18166 5.9348 2.48993 5.93799 2.80388 5.93611 3.05814 5.85949 3.25236 5.70799 3.44675 5.5565 3.5467 5.34148 3.55255 5.06248L3.55255 1.92636C3.54653 1.66205 3.44692 1.4511 3.25408 1.29335 3.06106 1.13575 2.81076 1.05492 2.50301 1.05099ZM2.48993 0C3.21365 0.00130847 3.80784 0.164577 4.27231 0.48966 4.73679 0.814888 4.97694 1.29379 4.99276 1.92636L4.99276 5.06248C4.97917 5.69084 4.74453 6.17018 4.28883 6.50064 3.83295 6.8311 3.23774 6.99757 2.50301 7.00004 1.77343 6.99946 1.17753 6.83764 0.715636 6.51445 0.253569 6.1914 0.0149664 5.71119 0 5.07353L0 1.92636C0.0153105 1.30833 0.253225 0.833497 0.713916 0.502163 1.17461 0.170828 1.76655 0.00334388 2.48993 0Z"/><path data-cppathid="10085" transform="matrix(1.00145 0 -0 1 197 150)" fill-rule="evenodd" fill="#FFFFFF" d="M1.73403 0.000113433 2.26742 0.000113433C2.34947-0.00124776 2.41198 0.0112298 2.4551 0.0377731 2.49823 0.0643164 2.51429 0.113433 2.50315 0.184895L2.35439 1.13784 3.4831 0.768394C3.55271 0.742985 3.61522 0.737767 3.67079 0.752513 3.72636 0.767373 3.76717 0.808209 3.79336 0.875247L3.96701 1.27396C3.99465 1.32864 4.0013 1.3773 3.98712 1.41984 3.97294 1.46238 3.9207 1.49153 3.83055 1.50741L2.61486 1.72134 3.42117 2.44085C3.46719 2.4852 3.49295 2.53023 3.49873 2.57583 3.50438 2.62132 3.47442 2.66397 3.40873 2.70344L2.96216 2.93677C2.88981 2.97852 2.82671 2.99962 2.77303 2.99996 2.7192 3.00041 2.66233 2.96309 2.60242 2.88823L1.9945 2.05189 1.36199 2.89787C1.32002 2.94755 1.27357 2.97716 1.22234 2.98669 1.17112 2.9961 1.106 2.97954 1.02699 2.93677L0.592866 2.70344C0.527748 2.66578 0.487374 2.62438 0.471891 2.57946 0.456407 2.53443 0.484191 2.47851 0.555531 2.41169L1.38673 1.71159 0.171044 1.4879C0.101295 1.47939 0.0516605 1.45999 0.0221402 1.42959-0.00723537 1.39919-0.00723537 1.35053 0.0221402 1.28372L0.183489 0.875247C0.206208 0.815128 0.241372 0.772591 0.288836 0.747635 0.336445 0.722794 0.408798 0.726424 0.505897 0.758638L1.61001 1.13784 1.4983 0.165498C1.48962 0.116042 1.5009 0.0763403 1.53245 0.0462806 1.564 0.0163343 1.63114 0.000907462 1.73403 0.000113433Z"/><path data-cppathid="10086" transform="matrix(1.00145 0 -0 1 213 125)" fill-rule="evenodd" fill="#FFFFFF" d="M0.195343 0 2.80032 0C2.86538 0.000549706 2.91418 0.0142924 2.94686 0.041228 2.97939 0.0681636 2.99566 0.105406 2.99566 0.152956L2.99566 0.82346C2.99535 0.877194 2.9797 0.919796 2.94838 0.951404 2.91722 0.983012 2.87222 0.999229 2.81324 0.999916L0.208416 0.999916C0.142745 0.999641 0.0916666 0.985486 0.0553344 0.957313 0.0190022 0.929141 0.000456053 0.888463 0 0.835279L0 0.164774C0.000760088 0.116675 0.0186982 0.0775086 0.0536622 0.0471373 0.0887783 0.016766 0.135904 0.000961986 0.195343 0Z"/><path data-cppathid="10087" transform="matrix(1.00145 0 -0 1 227 191)" fill-rule="evenodd" fill="#C91429" d="M14.4789 3.55978C7.99603 3.55978 2.53085 2.12235 0 0L0 3.48113C0.800131 5.75631 6.40958 7.99995 14.4789 7.99995 22.5481 7.99995 28.1576 5.75646 28.958 3.48127L28.958 0C26.4272 2.12235 20.962 3.55978 14.4789 3.55978Z"/><path data-cppathid="10088" transform="matrix(1.00145 0 -0 1 227 185)" fill-rule="evenodd" fill="#C91429" d="M14.4789 3.90759C7.99603 3.90759 2.53085 2.32973 0 0L0 4.03947C0.800131 6.53727 6.40958 9.00013 14.4789 9.00013 22.5481 9.00013 28.1576 6.53743 28.958 4.03962L28.958 0C26.4272 2.32973 20.962 3.90759 14.4789 3.90759Z"/><path data-cppathid="10089" transform="matrix(1.00145 0 -0 1 227 154)" fill-rule="evenodd" fill="#C91429" d="M14.4791 0C6.48239 0 0 2.59804 0 5.80306L0 6.37123C0.800131 8.70193 6.40958 11.0002 14.4789 11.0002 22.5481 11.0002 28.1576 8.70208 28.958 6.37153L28.958 5.80306C28.958 2.59804 22.4756 0 14.4791 0Z"/><path data-cppathid="10090" transform="matrix(1.00145 0 -0 1 227 196)" fill-rule="evenodd" fill="#C91429" d="M14.4789 4.14492C7.99603 4.14492 2.53085 2.47132 0 0L0 3.40305C0 7.04646 6.48239 10 14.4791 10 22.4756 10 28.958 7.04646 28.958 3.40305L28.958 0C26.4272 2.47132 20.962 4.14492 14.4789 4.14492Z"/><path data-cppathid="10091" transform="matrix(1.00145 0 -0 1 227 174)" fill-rule="evenodd" fill="#C91429" d="M14.4789 3.55978C7.99603 3.55978 2.53085 2.12235 0 0L0 3.48113C0.800131 5.75631 6.40958 7.99995 14.4789 7.99995 22.5481 7.99995 28.1576 5.75646 28.958 3.48127L28.958 0C26.4272 2.12235 20.962 3.55978 14.4789 3.55978Z"/><path data-cppathid="10092" transform="matrix(1.00145 0 -0 1 227 168)" fill-rule="evenodd" fill="#C91429" d="M14.4789 3.90759C7.99603 3.90759 2.53085 2.32973 0 0L0 4.03947C0.800131 6.53727 6.40958 9.00013 14.4789 9.00013 22.5481 9.00013 28.1576 6.53743 28.958 4.03962L28.958 0C26.4272 2.32973 20.962 3.90759 14.4789 3.90759Z"/><path data-cppathid="10093" transform="matrix(1.00145 0 -0 1 227 179)" fill-rule="evenodd" fill="#C91429" d="M14.4789 3.73042C7.99603 3.73042 2.53085 2.22418 0 0L0 3.06274C0 6.3418 6.48239 8.99998 14.4791 8.99998 22.4756 8.99998 28.958 6.3418 28.958 3.06274L28.958 0C26.4272 2.22418 20.962 3.73042 14.4789 3.73042Z"/><path data-cppathid="10094" transform="matrix(1.00145 0 -0 1 227 163)" fill-rule="evenodd" fill="#C91429" d="M14.4789 3.47345C7.99603 3.47345 2.53085 2.07089 0 0L0 3.59067C0.800131 5.81097 6.40958 8.0002 14.4789 8.0002 22.5481 8.0002 28.1576 5.81111 28.958 3.59081L28.958 0C26.4272 2.07089 20.962 3.47345 14.4789 3.47345Z"/><path data-cppathid="10095" transform="matrix(1.00145 0 -0 1 239 155)" fill-rule="evenodd" fill="#FFFFFF" d="M5.99132 1.93604C4.6959 1.93604 4.6959 1.93604 4.6959 1.93604 4.58795 1.56976 4.42602 1.25581 4.26409 0.994183 5.93734 0.994183 5.93734 0.994183 5.93734 0.994183 5.93734 0 5.93734 0 5.93734 0 0.0539758 0 0.0539758 0 0.0539758 0 0.0539758 1.15116 0.0539758 1.15116 0.0539758 1.15116 1.24144 1.15116 1.24144 1.15116 1.24144 1.15116 2.15903 1.15116 2.75277 1.46511 2.96867 1.93604 0.0539758 1.93604 0.0539758 1.93604 0.0539758 1.93604 0.0539758 3.03488 0.0539758 3.03488 0.0539758 3.03488 3.07662 3.03488 3.07662 3.03488 3.07662 3.03488 2.96867 3.40115 2.75277 3.66278 2.37494 3.81976 1.45735 4.23836 0 4.18603 0 4.18603 0 5.12789 0 5.12789 0 5.12789 3.40048 8.99998 3.40048 8.99998 3.40048 8.99998 5.07373 8.99998 5.07373 8.99998 5.07373 8.99998 5.07373 8.99998 2.69879 6.01743 1.99711 5.28487 2.75277 5.18022 3.3465 4.91859 3.83228 4.55231 4.31807 4.13371 4.58795 3.66278 4.6959 3.03488 5.99132 3.03488 5.99132 3.03488 5.99132 3.03488 5.99132 1.93604 5.99132 1.93604 5.99132 1.93604"/><path data-cppathid="10096" transform="matrix(1.00145 0 -0 1 197 172)" fill-rule="evenodd" fill="#C91429" d="M13.9798 0C6.25886 0 0 2.59804 0 5.80306L0 6.37123C0.772541 8.70193 6.18856 11.0002 13.9797 11.0002 21.7706 11.0002 27.1866 8.70208 27.9595 6.37153L27.9595 5.80306C27.9595 2.59804 21.7006 0 13.9798 0Z"/><path data-cppathid="10097" transform="matrix(1.00145 0 -0 1 197 192)" fill-rule="evenodd" fill="#C91429" d="M13.9797 4.00481C7.7203 4.00481 2.44358 2.38768 0 0L0 3.91633C0.772541 6.47595 6.18856 9.00008 13.9797 9.00008 21.7706 9.00008 27.1866 6.47611 27.9595 3.91649L27.9595 0C25.5159 2.38768 20.2392 4.00481 13.9797 4.00481Z"/><path data-cppathid="10098" transform="matrix(1.00145 0 -0 1 197 187)" fill-rule="evenodd" fill="#C91429" d="M13.9797 3.47345C7.7203 3.47345 2.44358 2.07089 0 0L0 3.59067C0.772541 5.81097 6.18856 8.0002 13.9797 8.0002 21.7706 8.0002 27.1866 5.81111 27.9595 3.59081L27.9595 0C25.5159 2.07089 20.2392 3.47345 13.9797 3.47345Z"/><path data-cppathid="10099" transform="matrix(1.00145 0 -0 1 197 198)" fill-rule="evenodd" fill="#C91429" d="M13.9797 3.73046C7.7203 3.73046 2.44358 2.22421 0 0L0 3.06277C0 6.34187 6.25886 9.00008 13.9798 9.00008 21.7006 9.00008 27.9595 6.34187 27.9595 3.06277L27.9595 0C25.5159 2.22421 20.2392 3.73046 13.9797 3.73046Z"/><path data-cppathid="10100" transform="matrix(1.00145 0 -0 1 197 181)" fill-rule="evenodd" fill="#C91429" d="M13.9797 3.90759C7.7203 3.90759 2.44358 2.32973 0 0L0 4.03947C0.772541 6.53727 6.18856 9.00013 13.9797 9.00013 21.7706 9.00013 27.1866 6.53743 27.9595 4.03962L27.9595 0C25.5159 2.32973 20.2392 3.90759 13.9797 3.90759Z"/><path data-cppathid="10101" transform="matrix(1.00145 0 -0 1 208 173)" fill-rule="evenodd" fill="#FFFFFF" d="M5.99132 1.93604C4.6959 1.93604 4.6959 1.93604 4.6959 1.93604 4.58795 1.56976 4.42602 1.25581 4.26409 0.994183 5.93734 0.994183 5.93734 0.994183 5.93734 0.994183 5.93734 0 5.93734 0 5.93734 0 0.0539758 0 0.0539758 0 0.0539758 0 0.0539758 1.15116 0.0539758 1.15116 0.0539758 1.15116 1.24144 1.15116 1.24144 1.15116 1.24144 1.15116 2.15903 1.15116 2.75277 1.46511 2.96867 1.93604 0.0539758 1.93604 0.0539758 1.93604 0.0539758 1.93604 0.0539758 3.03488 0.0539758 3.03488 0.0539758 3.03488 3.07662 3.03488 3.07662 3.03488 3.07662 3.03488 2.96867 3.40115 2.75277 3.66278 2.37494 3.81976 1.45735 4.23836 0 4.18603 0 4.18603 0 5.12789 0 5.12789 0 5.12789 3.40048 8.99998 3.40048 8.99998 3.40048 8.99998 5.07373 8.99998 5.07373 8.99998 5.07373 8.99998 5.07373 8.99998 2.69879 6.01743 1.99711 5.28487 2.75277 5.18022 3.3465 4.91859 3.83228 4.55231 4.31807 4.13371 4.58795 3.66278 4.6959 3.03488 5.99132 3.03488 5.99132 3.03488 5.99132 3.03488 5.99132 1.93604 5.99132 1.93604 5.99132 1.93604"/><path data-cppathid="10102" transform="matrix(1.00145 0 -0 1 115.5 84.5)" fill-rule="evenodd" fill="#7C7C7B" stroke-miterlimit="8" stroke-width="0.250556" stroke="#F2F2F2" d="M34.498 90.9568C32.5994 90.6158 30.5326 88.4328 30.5326 86.7682 28.6197 77.9693 27.963 68.7271 26.205 59.8784 25.8051 57.8828 25.5027 56.0019 25.2693 54.056 25.2012 53.4857 25.0412 52.9336 24.9143 52.8289 24.7876 52.7245 24.1849 52.5767 23.575 52.5007L22.4663 52.3629 22.24 53.8275C22.1157 54.633 21.9276 55.9202 21.8222 56.6878 20.6793 65.7968 18.9902 74.3922 17.9323 83.5065 17.4985 87.3577 17.1323 88.4587 15.8895 89.6483 14.1368 91.0405 11.8444 91.3458 10.1403 90.3552 7.88849 89.028 7.14911 87.2163 7.58964 84.1049 8.96373 75.3525 9.84594 67.0443 11.3132 58.3127 11.5334 57.0128 11.8524 54.8594 12.0223 53.5272 12.3329 51.0908 12.5748 49.4211 12.7776 48.3132 12.8375 47.9844 13.1108 45.8883 13.3841 43.6557 13.6576 41.4231 13.9228 39.5288 13.9736 39.4461 14.0702 39.2887 14.3899 36.8673 14.6718 34.1561 14.763 33.279 14.8961 32.3366 14.9674 32.0624 15.0948 31.5732 15.091 31.5713 14.7639 31.9627 11.8831 36.6743 9.00024 41.6278 6.55544 46.581 6.3775 47.4103 5.22833 48.6877 4.29576 49.166 1.86943 49.9313 0.0145057 48.4224 0 46.2408 3.95306 36.6837 10.8212 24.435 17.5566 19.3228 18.6329 18.5298 19.6161 18.2894 20.8785 18.5103 21.4448 18.6093 22.934 18.8318 24.188 19.0045 25.4421 19.1773 26.8696 19.3996 27.3603 19.4988 27.851 19.5977 29.6029 19.8329 31.2531 20.0213 34.5496 20.3974 34.8036 20.3677 38.0669 19.2203 40.3495 18.4178 40.7155 18.2914 42.4287 17.7135 43.3557 17.4008 44.4041 17.0847 44.7585 17.0109 45.3691 16.8838 45.4028 16.8302 45.4028 15.9889 44.941 13.4111 44.1827 10.7638 43.5729 8.43413 42.5376 4.4872 42.427 3.21222 43.0165 2.02519 44.5269-0.98835 48.3509 0.0838821 49.3751 3.12527 50.1486 7.36637 54.2565 16.7438 52.4833 20.7174 52.2338 21.0899 51.6761 21.588 51.2442 21.8239 47.5909 22.972 43.4492 24.6469 40.1257 25.7099 38.7435 26.149 37.9253 26.5194 37.7502 26.7852 36.5229 32.7163 34.6772 40.6714 34.6507 47.5156 34.6582 47.9361 35.373 52.5986 35.6922 54.2951 36.4738 64.86 39.5203 76.0282 40.6415 86.0987 40.4072 88.1172 39.5134 89.5853 37.7498 90.5439 37.1266 90.8679 35.2973 91.1001 34.498 90.9568ZM27.3954 17.8915C24.0863 17.0868 21.7785 14.3712 20.7351 11.897 19.1493 7.54558 21.4604 2.88813 25.5111 0.82042 28.127-0.360975 30.925-0.18716 32.982 0.836169 37.3816 2.55849 39.4724 7.89097 37.5414 12.4221 35.579 16.5791 31.6005 18.7238 27.3954 17.8916Z"/><path data-cppathid="10103" transform="matrix(1.00145 0 -0 1 299 148)" fill-rule="evenodd" fill="#C91429" d="M34.5749 21.2104C33.7049 21.2188 32.9904 21.458 32.4313 21.9282 31.8721 22.3984 31.583 23.0498 31.5639 23.8825L31.5639 34.4299C31.5844 35.2339 31.8708 35.8669 32.423 36.3291 32.9753 36.7914 33.6708 37.0271 34.5095 37.0364 35.3795 37.031 36.0941 36.8032 36.6532 36.353 37.2123 35.9027 37.5014 35.2617 37.5205 34.4299L37.5205 23.8825C37.5 23.0498 37.2137 22.3984 36.6613 21.9282 36.109 21.458 35.4136 21.2188 34.5749 21.2104ZM34.5095 16.8987C36.9775 16.9038 38.987 17.4959 40.538 18.6752 42.0891 19.8545 42.889 21.5902 42.9378 23.8825L42.9378 34.4299C42.8957 36.6934 42.1149 38.4207 40.5951 39.6116 39.0754 40.8026 37.0687 41.4026 34.5749 41.4117 32.0784 41.4105 30.0607 40.8263 28.5218 39.6591 26.9831 38.492 26.1913 36.7488 26.1467 34.4299L26.1467 23.8825C26.1927 21.618 26.9817 19.8901 28.5137 18.699 30.0456 17.5078 32.0443 16.9077 34.5095 16.8987ZM8.42819 5.83717C7.55824 5.84509 6.84367 6.08352 6.28458 6.55236 5.72538 7.0212 5.43629 7.67282 5.4172 8.50722L5.4172 19.0545C5.43768 19.8567 5.72409 20.4896 6.27632 20.9532 6.82866 21.4169 7.52414 21.6534 8.36278 21.6631 9.23284 21.6574 9.94741 21.4287 10.5065 20.977 11.0656 20.5254 11.3547 19.8845 11.3738 19.0545L11.3738 8.50722C11.3533 7.67282 11.067 7.0212 10.5147 6.55236 9.96231 6.08352 9.26694 5.84509 8.42819 5.83717ZM8.36278 1.52531C10.8308 1.53052 12.8403 2.12264 14.3913 3.30166 15.9424 4.48068 16.7423 6.21587 16.7911 8.50722L16.7911 19.0545C16.749 21.319 15.9682 23.0469 14.4485 24.238 12.9287 25.4292 10.922 26.0294 8.42819 26.0384 5.93169 26.0373 3.91396 25.453 2.37512 24.2856 0.836385 23.1182 0.0446072 21.3746 0 19.0545L0 8.50722C0.0460012 6.24359 0.834991 4.51643 2.36697 3.32542 3.89895 2.13452 5.89759 1.53448 8.36278 1.52531ZM29.4753 0.000729464 31.8258 0.000729464C32.3385 0.0113588 32.6548 0.133075 32.7748 0.365983 32.8948 0.59889 32.884 0.879526 32.7421 1.20768L14.1803 42.4281C14.0824 42.6465 13.9519 42.7974 13.7887 42.8807 13.6255 42.9641 13.4297 43.0038 13.2013 42.9998L10.5228 42.9998C10.0769 42.988 9.80694 42.8688 9.71279 42.6425 9.61875 42.4162 9.6269 42.1542 9.73735 41.8563L28.3005 0.699556C28.431 0.420276 28.5942 0.232282 28.79 0.13568 28.9858 0.0390784 29.2143-0.00593992 29.4753 0.000729464Z"/><path data-cppathid="10104" transform="matrix(1.00145 8.75495e-08 8.74228e-08 -1 166 42)" fill-rule="evenodd" fill="#C91429" d="M-30.6879-37.3304C-20.8914-42.8438-8.37532-39.5541-2.73233-29.9828 2.91067-20.4114-0.456357-8.18289-10.2528-2.66956-13.3605-0.92058-16.8839 1.59006e-06-20.4703 1.59006e-06L-20.4703-20Z"/><path data-cppathid="10105" transform="matrix(-4.37114e-08 1 1.00145 4.37747e-08 124 41)" fill-rule="evenodd" fill="#660D0A" d="M0.0129582 19.2617C0.405061 8.51484 9.46159 1.93446e-05 20.5 1.93446e-05L20.5 19.9711Z"/><path data-cppathid="10106" transform="matrix(0.99089 -0.144621 -0.14442 -0.989516 162.194 43.7294)" fill-rule="evenodd" fill="#660D0A" d="M-41.897-13.1784C-43.7547-19.8471-40.3339-26.7435-33.2434-30.6243L-21.1977-16.8002Z"/><path data-cppathid="10107" transform="matrix(1.00145 0 -0 1 379 28)" fill-rule="evenodd" fill="#C91429" d="M39.2067 6.7365C35.0503 2.5742 29.3087 0 22.9667 0 16.6248 0 10.8831 2.5742 6.72675 6.7365 2.57048 10.8989 0 16.6489 0 23 0 29.3511 2.57048 35.1011 6.72675 39.2635 10.8831 43.4258 16.6248 46 22.9667 46 29.3087 46 35.0503 43.4258 39.2067 39.2635 43.363 35.1011 45.9334 29.3511 45.9334 23 45.9334 16.6489 43.363 10.8989 39.2067 6.7365Z"/><path data-cppathid="10108" transform="matrix(1.00145 0 -0 1 386 35)" fill-rule="evenodd" fill="#C91429" d="M32.262 0C31.2062 1.05732 31.1101 2.73861 32.0364 3.91168 34.6126 7.17482 36.1895 11.4895 36.1895 16.1544 36.1895 21.52 34.1031 26.5645 30.3143 30.3583 26.5261 34.1526 21.4888 36.242 16.131 36.242 11.4265 36.242 7.09483 34.6214 3.91294 32.0881 2.74156 31.1553 1.05818 31.249 0 32.3088 4.12839 36.4432 9.83155 39.0001 16.131 39.0001 22.4304 39.0001 28.1336 36.4432 32.262 32.3088 36.3904 28.1744 38.9436 22.4629 38.9436 16.1544 38.9436 9.84581 36.3904 4.13438 32.262 0Z"/><path data-cppathid="10109" transform="matrix(1.00145 0 -0 1 383 32)" fill-rule="evenodd" fill="#F2F2F2" d="M19.4718 38C8.73512 38 0 29.4765 0 19 0 8.52347 8.73512 0 19.4718 0 30.2084 0 38.9436 8.52347 38.9436 19 38.9436 29.4765 30.2084 38 19.4718 38Z"/><path data-cppathid="10110" transform="matrix(1.00145 0 -0 1 403 50)" fill-rule="evenodd" fill="#C91429" d="M8.29708 0 0 0 0 2.00013 8.29708 2.00013C8.67831 2.00013 8.98698 1.55215 8.98698 1.00007 8.98698 0.447896 8.67831 0 8.29708 0Z"/><path data-cppathid="10111" transform="matrix(1.00145 0 -0 1 402 44)" fill-rule="evenodd" fill="#C91429" d="M0.499299 0C0.223619 0 0 0.328805 0 0.734909L0 6.00002 0.998599 6.00002 0.998599 0.734909C0.998599 0.328805 0.774934 0 0.499299 0Z"/><path data-cppathid="10112" transform="matrix(1.00145 0 -0 1 402 34)" fill-rule="evenodd" fill="#C91429" d="M0.499299 0C0.223391 0 0 0.381739 0 0.852273L0 4.1478C0 4.61826 0.223391 5 0.499299 5 0.775207 5 0.998599 4.61826 0.998599 4.1478L0.998599 0.852273C0.998599 0.381739 0.775207 0 0.499299 0Z"/><path data-cppathid="10113" transform="matrix(1.00145 0 -0 1 402 63)" fill-rule="evenodd" fill="#C91429" d="M0.499299 0C0.223391 0 0 0.381739 0 0.852273L0 4.14772C0 4.61826 0.223391 5.00008 0.499299 5.00008 0.775207 5.00008 0.998599 4.61826 0.998599 4.14772L0.998599 0.852273C0.998599 0.381739 0.775207 0 0.499299 0Z"/><path data-cppathid="10114" transform="matrix(1.00145 0 -0 1 415 50)" fill-rule="evenodd" fill="#C91429" d="M3.31338 0 0.680832 0C0.304639 0 0 0.447896 0 1.00007 0 1.55215 0.304639 2.00013 0.680832 2.00013L3.31338 2.00013C3.68964 2.00013 3.99427 1.55215 3.99427 1.00007 3.99427 0.447896 3.68964 0 3.31338 0Z"/><path data-cppathid="10115" transform="matrix(1.00145 0 -0 1 386 50)" fill-rule="evenodd" fill="#C91429" d="M3.99421 1.00007C3.99421 0.447896 3.68957 0 3.31344 0L0.680832 0C0.304639 0 0 0.447896 0 1.00007 0 1.55215 0.304639 2.00013 0.680832 2.00013L3.31344 2.00013C3.68957 2.00013 3.99421 1.55215 3.99421 1.00007Z"/><path data-cppathid="10116" transform="matrix(1.00145 0 -0 1 394 36)" fill-rule="evenodd" fill="#C91429" d="M1.14065 0.357696C0.971932 0.0156231 0.597953-0.101517 0.305932 0.0958956 0.0134641 0.293374-0.0869303 0.730951 0.0820698 1.07302L0.856341 2.64246C1.02534 2.98492 1.39932 3.10134 1.6914 2.90393 1.98381 2.70652 2.08387 2.26927 1.91515 1.92726Z"/><path data-cppathid="10117" transform="matrix(1.00145 0 -0 1 409 62)" fill-rule="evenodd" fill="#C91429" d="M1.14076 0.357616C0.972099 0.015557 0.598065-0.101644 0.305764 0.0961529 0.0132965 0.293623-0.0867627 0.730723 0.0820139 1.07278L0.856509 2.64221C1.02551 2.98466 1.39949 3.10147 1.69123 2.904 1.98364 2.7066 2.08404 2.26897 1.91504 1.92691Z"/><path data-cppathid="10118" transform="matrix(1.00145 0 -0 1 414 42)" fill-rule="evenodd" fill="#C91429" d="M1.07123 2.87676 2.63847 1.71339C2.98006 1.45995 3.0971 0.898191 2.8999 0.459544 2.70238 0.0202246 2.26576-0.130579 1.92417 0.123278L0.356988 1.28632C0.0157965 1.53967-0.101568 2.10151 0.095954 2.54067 0.29341 2.98024 0.73036 3.1302 1.07123 2.87676Z"/><path data-cppathid="10119" transform="matrix(1.00145 0 -0 1 388 57)" fill-rule="evenodd" fill="#C91429" d="M1.9245 0.123197 0.357184 1.28661C0.0156007 1.54014-0.101372 2.10182 0.0957582 2.54048 0.293345 2.98065 0.730295 3.13012 1.07149 2.87668L2.63867 1.7136C2.97999 1.46024 3.09729 0.898384 2.89977 0.459305 2.70264 0.0199734 2.26569-0.130331 1.9245 0.123197Z"/><path data-cppathid="10120" transform="matrix(1.00145 0 -0 1 388 42)" fill-rule="evenodd" fill="#C91429" d="M2.63867 1.28637 1.07149 0.123358C0.729903-0.130491 0.292954 0.0198884 0.0957582 0.459615-0.101372 0.89825 0.0156007 1.45999 0.357184 1.71342L1.9245 2.87677C2.2653 3.13028 2.70264 2.98024 2.89977 2.54068 3.09729 2.10154 2.97999 1.5398 2.63867 1.28637Z"/><path data-cppathid="10121" transform="matrix(1.00145 0 -0 1 414 57)" fill-rule="evenodd" fill="#C91429" d="M2.63847 1.28664 1.07123 0.123201C0.729642-0.130334 0.292758 0.019974 0.095954 0.459318-0.101568 0.898409 0.0157965 1.46028 0.356988 1.71365L1.92417 2.87676C2.26536 3.13021 2.70238 2.98032 2.8999 2.54056 3.0971 2.10188 2.98006 1.54018 2.63847 1.28664Z"/><path data-cppathid="10122" transform="matrix(1.00145 0 -0 1 409 36)" fill-rule="evenodd" fill="#C91429" d="M1.69123 0.0958977C1.39921-0.10152 1.02529 0.0156234 0.856509 0.357704L0.0820139 1.9273C-0.0867627 2.26932 0.0132965 2.70658 0.305764 2.90399 0.597785 3.10141 0.972099 2.98459 1.14076 2.64251L1.91504 1.07305C2.08404 0.730967 1.98364 0.29338 1.69123 0.0958977Z"/><path data-cppathid="10123" transform="matrix(1.00145 0 -0 1 394 62)" fill-rule="evenodd" fill="#C91429" d="M1.6914 0.0961529C1.39904-0.101644 1.02501 0.015557 0.856341 0.357616L0.0820698 1.92691C-0.0869303 2.26897 0.0134641 2.7066 0.305932 2.904 0.597618 3.10147 0.971932 2.98466 1.14065 2.64221L1.91515 1.07278C2.08387 0.730723 1.98381 0.293623 1.6914 0.0961529Z"/><path data-cppathid="10124" transform="matrix(1.00145 0 -0 1 401 49)" fill-rule="evenodd" fill="#C91429" d="M2.99571 2.00008C2.99571 3.1046 2.32503 4.00015 1.49785 4.00015 0.670675 4.00015 0 3.1046 0 2.00008 0 0.895548 0.670675 0 1.49785 0 2.32503 0 2.99571 0.895548 2.99571 2.00008Z"/><path data-cppathid="10125" transform="matrix(1.00145 0 -0 1 334 94)" fill-rule="evenodd" fill="#7C7C7B" stroke-miterlimit="10" stroke-linejoin="round" stroke-width="5.99132" stroke="#7C7C7B" d="M23.9653 14.0387C23.9653 13.1222 23.6517 13.0551 17.7388 13.0551 14.312 13.0551 11.4227 12.8539 11.3331 12.608 11.0419 11.8033 1.61262 0 1.25426 0 1.07508 0 0.671923 0.268256 0.380757 0.625931 0 1.09538 1.16467 2.88375 5.2858 8.0924L10.6836 14.9553 17.3356 14.9776C23.6517 15 23.9653 14.9553 23.9653 14.0387Z"/><path data-cppathid="10126" transform="matrix(1.00145 0 -0 1 332 83)" fill-rule="evenodd" fill="#7C7C7B" d="M22.5841 90.8416C19.8911 89.2158 19.8503 88.789 19.6463 62.3901L19.4831 38.5924 25.6034 35.5441C32.4582 32.1502 33.4171 31.1951 33.4171 27.8012 33.4171 26.216 33.1314 25.5251 31.9686 24.1838 30.7445 22.7612 30.2141 22.4767 28.3168 22.2938 26.4603 22.1109 25.6646 22.2938 23.3389 23.4725 20.3195 24.9967 19.9931 24.5496 22.5637 22.4564 23.8693 21.3996 24.7262 21.0948 26.8071 20.9525 30.4793 20.6883 32.3154 21.1354 34.1515 22.7409 36.8036 25.078 36.9465 25.7689 36.9465 37.7999 36.9465 47.6969 36.8648 48.7537 36.0692 50.3185 35.2328 51.9647 33.1314 53.8547 32.1318 53.8547 31.8054 53.8547 31.6626 58.6914 31.6626 70.3769 31.6626 88.4436 31.6014 88.9719 29.1124 90.74 27.4191 91.9594 24.461 92 22.5841 90.8416ZM1.7137 37.1699C0.0204011 35.4628 0 33.5525 1.63209 31.9063 2.77455 30.7886 3.24378 30.6667 9.0173 30.1586L15.158 29.6302 21.1356 26.7444C27.2559 23.7977 28.1536 23.6351 30.0305 25.017 31.2341 25.9112 31.6422 27.9638 30.9689 29.5693 30.4793 30.7276 29.4388 31.4186 24.3182 33.9996L18.2386 37.0276 11.3634 37.7389C2.65215 38.6534 3.22338 38.6737 1.7137 37.1699ZM21.1764 17.7416C15.1988 14.7135 15.2804 5.5074 21.2784 2.78418 27.3987 0 33.8659 4.40998 33.3355 10.9538 32.9682 15.2825 29.9285 18.2699 25.5626 18.5545 23.6449 18.6764 22.6453 18.4935 21.1764 17.7416Z"/><rect data-cppathid="10127" transform="matrix(1.00142 0.0081474 -0.00813561 0.999967 384.634 101.424)" fill="#F2F2F2" height="48.5203" width="34.9646" y="0" x="0"/><path data-cppathid="10128" transform="matrix(1.00142 0.0081474 -0.00813561 0.999967 386.343 133.423)" fill-rule="evenodd" fill="#D4D6D9" d="M5.70276 5.57061C0.533351 5.57061 0.533351 5.57061 0.533351 5.57061 0.246162 5.57061 0 5.32485 0 5.03813 0 0.532485 0 0.532485 0 0.532485 0 0.245762 0.246162 0 0.533351 0 5.70276 0 5.70276 0 5.70276 0 5.98994 0 6.23611 0.245762 6.23611 0.532485 6.23611 5.03813 6.23611 5.03813 6.23611 5.03813 6.23611 5.32485 5.98994 5.57061 5.70276 5.57061"/><path data-cppathid="10129" transform="matrix(1.00142 0.0081474 -0.00813561 0.999967 393.369 133.481)" fill-rule="evenodd" fill="#7C7C7B" d="M14.3304 0.608357C0.287429 0.608357 0.287429 0.608357 0.287429 0.608357 0.123184 0.608357 0 0.486686 0 0.2839 0 0.121671 0.123184 0 0.287429 0 14.3304 0 14.3304 0 14.3304 0 14.5357 0 14.6589 0.121671 14.6589 0.2839 14.6589 0.486686 14.5357 0.608357 14.3304 0.608357"/><path data-cppathid="10130" transform="matrix(1.00142 0.0081474 -0.00813561 0.999967 393.344 135.671)" fill-rule="evenodd" fill="#7C7C7B" d="M23.5323 0.646307C0.28748 0.646307 0.28748 0.646307 0.28748 0.646307 0.123206 0.646307 0 0.484731 0 0.323154 0 0.161577 0.123206 0 0.28748 0 23.5323 0 23.5323 0 23.5323 0 23.7376 0 23.8609 0.161577 23.8609 0.323154 23.8609 0.484731 23.7376 0.646307 23.5323 0.646307"/><path data-cppathid="10131" transform="matrix(1.00142 0.0081474 -0.00813561 0.999967 393.333 137.911)" fill-rule="evenodd" fill="#7C7C7B" d="M7.27618 0.665387C0.287758 0.665387 0.287758 0.665387 0.287758 0.665387 0.123325 0.665387 0 0.499041 0 0.332694 0 0.166347 0.123325 0 0.287758 0 7.27618 0 7.27618 0 7.27618 0 7.48172 0 7.60504 0.166347 7.60504 0.332694 7.60504 0.499041 7.48172 0.665387 7.27618 0.665387"/><path data-cppathid="10132" transform="matrix(1.00142 0.0081474 -0.00813561 0.999967 386.552 141.941)" fill-rule="evenodd" fill="#D4D6D9" d="M5.70276 5.57061C0.533351 5.57061 0.533351 5.57061 0.533351 5.57061 0.246162 5.57061 0 5.32485 0 5.03813 0 0.532485 0 0.532485 0 0.532485 0 0.245762 0.246162 0 0.533351 0 5.70276 0 5.70276 0 5.70276 0 5.98994 0 6.23611 0.245762 6.23611 0.532485 6.23611 5.03813 6.23611 5.03813 6.23611 5.03813 6.23611 5.32485 5.98994 5.57061 5.70276 5.57061"/><path data-cppathid="10133" transform="matrix(1.00142 0.0081474 -0.00813561 0.999967 387.24 132.484)" fill-rule="evenodd" fill="#7C7C7B" d="M5.55229 0.0701478 2.4452 4.51717 0.832865 2.88718 0.0701484 3.64129 2.58726 6.18541 6.43089 0.684147Z"/><path data-cppathid="10134" transform="matrix(1.00142 0.0081474 -0.00813561 0.999967 387.843 140.297)" fill-rule="evenodd" fill="#7C7C7B" d="M5.55229 0.0701478 2.4452 4.51717 0.832865 2.88718 0.0701484 3.64129 2.58726 6.18541 6.43089 0.684147Z"/><path data-cppathid="10135" transform="matrix(1.00142 0.0081474 -0.00813561 0.999967 386.369 117.336)" fill-rule="evenodd" fill="#7C7C7B" d="M19.0736 0.608357C0.382565 0.608357 0.382565 0.608357 0.382565 0.608357 0.163957 0.608357 0 0.486686 0 0.2839 0 0.121671 0.163957 0 0.382565 0 19.0736 0 19.0736 0 19.0736 0 19.3469 0 19.5108 0.121671 19.5108 0.2839 19.5108 0.486686 19.3469 0.608357 19.0736 0.608357"/><path data-cppathid="10136" transform="matrix(1.00142 0.0081474 -0.00813561 0.999967 386.344 119.526)" fill-rule="evenodd" fill="#7C7C7B" d="M31.3215 0.646412C0.382636 0.646412 0.382636 0.646412 0.382636 0.646412 0.163987 0.646412 0 0.484809 0 0.323206 0 0.161603 0.163987 0 0.382636 0 31.3215 0 31.3215 0 31.3215 0 31.5948 0 31.7588 0.161603 31.7588 0.323206 31.7588 0.484809 31.5948 0.646412 31.3215 0.646412"/><path data-cppathid="10137" transform="matrix(1.00142 0.0081474 -0.00813561 0.999967 386.333 121.765)" fill-rule="evenodd" fill="#7C7C7B" d="M9.68462 0.665387C0.383007 0.665387 0.383007 0.665387 0.383007 0.665387 0.164146 0.665387 0 0.499041 0 0.332694 0 0.166347 0.164146 0 0.383007 0 9.68462 0 9.68462 0 9.68462 0 9.95819 0 10.1223 0.166347 10.1223 0.332694 10.1223 0.499041 9.95819 0.665387 9.68462 0.665387"/><path data-cppathid="10138" transform="matrix(1.00142 0.0081474 -0.00813561 0.999967 386.369 125.378)" fill-rule="evenodd" fill="#7C7C7B" d="M19.0736 0.608357C0.382565 0.608357 0.382565 0.608357 0.382565 0.608357 0.163957 0.608357 0 0.486686 0 0.2839 0 0.121671 0.163957 0 0.382565 0 19.0736 0 19.0736 0 19.0736 0 19.3469 0 19.5108 0.121671 19.5108 0.2839 19.5108 0.486686 19.3469 0.608357 19.0736 0.608357"/><path data-cppathid="10139" transform="matrix(1.00142 0.0081474 -0.00813561 0.999967 386.344 127.345)" fill-rule="evenodd" fill="#7C7C7B" d="M31.3215 0.646412C0.382636 0.646412 0.382636 0.646412 0.382636 0.646412 0.163987 0.646412 0 0.484809 0 0.323206 0 0.161603 0.163987 0 0.382636 0 31.3215 0 31.3215 0 31.3215 0 31.5948 0 31.7588 0.161603 31.7588 0.323206 31.7588 0.484809 31.5948 0.646412 31.3215 0.646412"/><path data-cppathid="10140" transform="matrix(1.00142 0.0081474 -0.00813561 0.999967 386.333 129.807)" fill-rule="evenodd" fill="#7C7C7B" d="M9.68462 0.665387C0.383007 0.665387 0.383007 0.665387 0.383007 0.665387 0.164146 0.665387 0 0.499041 0 0.332694 0 0.166347 0.164146 0 0.383007 0 9.68462 0 9.68462 0 9.68462 0 9.95819 0 10.1223 0.166347 10.1223 0.332694 10.1223 0.499041 9.95819 0.665387 9.68462 0.665387"/><path data-cppathid="10141" transform="matrix(0.938486 -0.348481 0.3481 0.937458 384.803 90.5052)" fill-rule="evenodd" fill="#7C7C7B" d="M28.6969 14.4361C28.6969 22.312 22.3121 28.6967 14.4362 28.6967 6.56026 28.6967 0.175536 22.312 0.175536 14.4361 0.175536 6.56023 6.56026 0.175536 14.4362 0.175536 22.3122 0.175536 28.6969 6.56023 28.6969 14.4361Z"/><path data-cppathid="10142" transform="matrix(0.938486 -0.348481 0.3481 0.937458 388.602 92.242)" fill-rule="evenodd" fill="#FFFFFF" d="M22.7959 11.4857C22.7959 17.7321 17.7321 22.7959 11.4857 22.7959 5.23927 22.7959 0.175536 17.7321 0.175536 11.4857 0.175536 5.23927 5.23927 0.175536 11.4857 0.175536 17.7321 0.175536 22.7959 5.23927 22.7959 11.4857Z"/><path data-cppathid="10143" transform="matrix(0.938486 -0.348481 0.3481 0.937458 392.401 93.9787)" fill-rule="evenodd" fill="#7C7C7B" d="M16.895 8.53526C16.895 13.1522 13.1522 16.8949 8.53527 16.8949 3.91832 16.8949 0.175536 13.1522 0.175536 8.53526 0.175536 3.91831 3.91832 0.175536 8.53527 0.175536 13.1522 0.175536 16.895 3.91831 16.895 8.53526Z"/><path data-cppathid="10144" transform="matrix(0.938486 -0.348481 0.3481 0.937458 409.155 78.546)" fill-rule="evenodd" fill="#C91429" d="M1.29095 4.26755 0.283992 8.90919 4.84609 9.93371 9.61959 6.8333 5.05748 5.80878 6.06444 1.16711Z"/><path data-cppathid="10145" transform="matrix(0.938486 -0.348481 0.3481 0.937458 396.376 95.6878)" fill-rule="evenodd" fill="#FFFFFF" d="M11.0237 5.5691C11.0237 8.58158 8.58159 11.0237 5.56911 11.0237 2.55664 11.0237 0.114534 8.58158 0.114534 5.5691 0.114534 2.55663 2.55664 0.114534 5.56911 0.114534 8.58159 0.114534 11.0237 2.55663 11.0237 5.5691Z"/><path data-cppathid="10146" transform="matrix(0.938486 -0.348481 0.3481 0.937458 399.998 97.4523)" fill-rule="evenodd" fill="#C91429" d="M5.09294 2.63424C5.09294 3.99214 3.99214 5.09297 2.63424 5.09297 1.27633 5.09297 0.175536 3.99214 0.175536 2.63424 0.175536 1.27633 1.27633 0.175536 2.63424 0.175536 3.99214 0.175536 5.09294 1.27633 5.09294 2.63424Z"/><path data-cppathid="10147" transform="matrix(0.938486 -0.348481 0.3481 0.937458 397.603 85.8438)" fill-rule="evenodd" fill="#C91429" stroke-miterlimit="8" stroke-width="0.260666" stroke="#C91429" d="M0.769626 15.0201C0.59773 14.983 0.449192 14.8759 0.347308 14.7246 0.14718 14.4086 0.235581 13.9888 0.547405 13.7862 0.549874 13.785 0.549874 13.7841 0.547405 13.7831L21.2326 0.348142C21.5433 0.144342 21.9582 0.238142 22.1571 0.555985 22.3523 0.872346 22.2639 1.29432 21.9582 1.49763L1.27297 14.9326C1.11953 15.0287 0.937818 15.0616 0.768391 15.0212Z"/><path data-cppathid="10148" transform="matrix(1.00145 0 -0 1 257 184)" fill-rule="evenodd" fill="#C91429" d="M13.9798 0C6.25886 0 0 2.59804 0 5.80306L0 6.37123C0.772541 8.70193 6.18856 11.0002 13.9797 11.0002 21.7706 11.0002 27.1866 8.70208 27.9595 6.37153L27.9595 5.80306C27.9595 2.59804 21.7006 0 13.9798 0Z"/><path data-cppathid="10149" transform="matrix(1.00145 0 -0 1 257 198)" fill-rule="evenodd" fill="#C91429" d="M13.9797 3.90764C7.7203 3.90764 2.44358 2.32975 0 0L0 4.03951C0.772541 6.53735 6.18856 9.00024 13.9797 9.00024 21.7706 9.00024 27.1866 6.53751 27.9595 4.03967L27.9595 0C25.5159 2.32975 20.2392 3.90764 13.9797 3.90764Z"/><path data-cppathid="10150" transform="matrix(1.00145 0 -0 1 257 193)" fill-rule="evenodd" fill="#C91429" d="M13.9797 3.47345C7.7203 3.47345 2.44358 2.07089 0 0L0 3.59067C0.772541 5.81097 6.18856 8.0002 13.9797 8.0002 21.7706 8.0002 27.1866 5.81111 27.9595 3.59081L27.9595 0C25.5159 2.07089 20.2392 3.47345 13.9797 3.47345Z"/><path data-cppathid="10151" transform="matrix(1.00145 0 -0 1 268 185)" fill-rule="evenodd" fill="#FFFFFF" d="M6.98987 1.93604C5.47855 1.93604 5.47855 1.93604 5.47855 1.93604 5.3526 1.56976 5.16369 1.25581 4.97477 0.994183 6.9269 0.994183 6.9269 0.994183 6.9269 0.994183 6.9269 0 6.9269 0 6.9269 0 0.0629718 0 0.0629718 0 0.0629718 0 0.0629718 1.15116 0.0629718 1.15116 0.0629718 1.15116 1.44835 1.15116 1.44835 1.15116 1.44835 1.15116 2.51887 1.15116 3.21156 1.46511 3.46345 1.93604 0.0629718 1.93604 0.0629718 1.93604 0.0629718 1.93604 0.0629718 3.03488 0.0629718 3.03488 0.0629718 3.03488 3.58939 3.03488 3.58939 3.03488 3.58939 3.03488 3.46345 3.40115 3.21156 3.66278 2.77076 3.81976 1.70024 4.23836 0 4.18603 0 4.18603 0 5.12789 0 5.12789 0 5.12789 3.96722 8.99998 3.96722 8.99998 3.96722 8.99998 5.91935 8.99998 5.91935 8.99998 5.91935 8.99998 5.91935 8.99998 3.14859 6.01743 2.32996 5.28487 3.21156 5.18022 3.90425 4.91859 4.471 4.55231 5.03774 4.13371 5.3526 3.66278 5.47855 3.03488 6.98987 3.03488 6.98987 3.03488 6.98987 3.03488 6.98987 1.93604 6.98987 1.93604 6.98987 1.93604"/><rect data-cppathid="10152" transform="matrix(1.00145 0 -0 1 266 161)" fill="#FFFFFF" height="24" width="15.9768" y="0" x="0"/><path data-cppathid="10153" transform="matrix(1.00145 0 -0 1 267 146)" fill-rule="evenodd" fill="#7C7C7B" d="M0 7.00004C-1.77981e-15 3.13402 3.12947 0 6.98987 0 10.8503-1.7824e-15 13.9797 3.13402 13.9797 7.00004 13.9797 10.8661 10.8503 14.0001 6.98987 14.0001 3.12947 14.0001-2.66971e-15 10.8661 0 7.00004Z"/><path data-cppathid="10154" transform="matrix(1.00145 0 -0 1 266 157)" fill-rule="evenodd" fill="#7C7C7B" d="M1.5034 0C0.714578 0.661993 0 2.11059 0.0556814 5 0.844501 4.61059 1.01155 4.2757 4.37099 3.83956 4.90924 3.59034 4.99276 2.92056 4.43595 2.62461 3.41513 1.85358 2.77479 1.66667 1.5034 0Z"/><path data-cppathid="10155" transform="matrix(1.00145 8.75495e-08 8.74228e-08 -1 277 161)" fill-rule="evenodd" fill="#7C7C7B" d="M0 0-0.212291-3.62309-2.3981-10.9999-4.7333-3.04827-4.99276-0.0696748 0 0Z"/><path data-cppathid="10156" transform="matrix(1.00145 8.75495e-08 8.74228e-08 -1 288 162)" fill-rule="evenodd" fill="#7C7C7B" d="M-8.11699-0.138329-7.97779-2.80115-9.30887-2.68876-9.29147-3.3977-8.40408-4.58214-13.3369-12.4755-18.4611-4.53026-17.4433-3.51873-17.7478-2.74064-18.5655-2.74064-18.5829 0-23.1069-1.78963C-24.5076-2.29971-24.8904-4.76369-24.7773-4.86744L-26.6999-15.977C-26.9609-17.2651-26.7347-18.6138-24.9252-18.8386L-15.5902-20.1527C-15.8599-19.1672-16.4167-18.2507-14.5549-17.2478L-21.5061-15.3372C-21.9237-15.2594-22.1325-14.8876-22.0716-14.1355L-20.9754-8.11816C-19.0179-11.2824-19.5225-12.8732-19.5486-14.7752L-13.2151-16.5735-7.2296-14.879C-7.3253-13.513-7.5515-12.5879-6.27261-8.93949-6.27261-8.93949-5.56792-7.75505-5.41132-9.32854L-4.45434-15.1297-13.363-17.4813C-14.0068-17.7061-15.1639-18.268-14.4592-20.2046L-10.3964-21-1.85307-18.951C-0.956987-18.6398 0-18.4236-0.208797-16.1844L-2.24457-2.60231C-3.38425-1.32277-5.05463-0.432277-8.11699-0.138329Z"/><path data-cppathid="10157" transform="matrix(1.00145 8.75495e-08 8.74228e-08 -1 283 182)" fill-rule="evenodd" fill="#7C7C7B" d="M-3.90798-1.26584-0.423859-0.526727-0.0254315-5.14833C0-6.23577-0.0339087-7.64604-2.68726-8.58905-5.37453-8.28321-7.83291-7.9264-11.4103-7.23825-17.1324-2.97346-20.43-9.34516-17.9377-13.3806L-23.5072-22.7257C-25.4739-23.9831-28.797-24.0001-28.958-19.6503L-18.3022-1.5547C-17.7258-0.535223-16.9798 0-15.581-0.0934516-11.7239-0.34832-8.48565-1.22337-4.93372-1.79257-4.93372-1.79257-4.29793-2.07293-4.12838-1.5462L-3.90798-1.26584Z"/><path data-cppathid="10158" transform="matrix(1.00145 8.75495e-08 8.74228e-08 -1 279 187)" fill-rule="evenodd" fill="#7C7C7B" d="M-0.200641-24.9563C0-27.9826-2.58216-30.0001-5.91455-27.5248L-14.0187-6.08648C-14.9783-2.89913-10.2676 0-8.1216-3.7214L-0.200641-24.9563Z"/><path data-cppathid="10159" transform="matrix(1.00145 0 -0 1 264 172)" fill-rule="evenodd" fill="#C91429" d="M0 10.9543 14.7688 11C14.7688 9.28912 14.9783 0.97299 14.6924 0L0.036573 0 0 10.9543ZM6.91894 2.83408C5.7885 3.62423 6.96549 4.90413 7.92303 4.31642 8.80411 3.77442 8.00616 2.07332 6.91894 2.83408Z"/></g></svg>