<?xml version="1.0" encoding="UTF-8"?>
<svg xmlns="http://www.w3.org/2000/svg" onmouseup="{ if(window.parent.document.onmouseup) window.parent.document.onmouseup(arguments[0]);}" width="512" viewBox="0 0 512 512" height="512" enable-background="new 0 0 512 512" id="Capa_1"><path data-cppathid="10000" d="m461.943 351.082c12.203-11.933 19.808-28.62 19.808-47.072 0-30.975-21.407-56.989-50.084-63.838v-43.886c0-8.284-6.716-15-15-15h-42.179v-45.429c0-8.284-6.716-15-15-15h-5v-30.428h.208c8.284 0 15-6.716 15-15v-60.429c0-8.284-6.716-15-15-15h-206.798c-8.284 0-15 6.716-15 15v45.429h-.208c-8.284 0-15 6.716-15 15v60.429c0 8.284 6.716 15 15 15h5v30.429h-42.357c-8.284 0-15 6.716-15 15v43.886c-28.677 6.849-50.084 32.862-50.084 63.838 0 18.452 7.605 35.138 19.808 47.072-29.785 16.141-50.057 47.685-50.057 83.877v62.04c0 8.284 6.716 15 15 15h482c8.284 0 15-6.716 15-15v-62.04c0-36.192-20.272-67.736-50.057-83.878zm-10.192-47.072c0 19.639-15.738 35.616-35.084 35.616s-35.085-15.978-35.085-35.616 15.739-35.616 35.085-35.616 35.084 15.977 35.084 35.616zm-50.084-63.838c-28.677 6.849-50.085 32.862-50.085 63.838 0 18.452 7.605 35.138 19.809 47.072-14.26 7.728-26.339 18.986-35.058 32.595-8.718-13.609-20.797-24.867-35.057-32.595 12.203-11.933 19.808-28.62 19.808-47.072 0-30.943-21.362-56.935-49.995-63.817v-28.907h130.578zm-180.751 63.838c0-19.639 15.738-35.616 35.084-35.616s35.084 15.978 35.084 35.616-15.738 35.616-35.084 35.616-35.084-15.978-35.084-35.616zm103.572-183.153h-176.798v-30.428h.208 176.59zm-161.59-90.857h176.798v30.429h-.208-176.59zm4.792 120.857h176.798v30.429h-176.798zm73.399 60.429v28.865c-28.722 6.817-50.173 32.851-50.173 63.858 0 18.452 7.605 35.138 19.808 47.072-14.26 7.728-26.339 18.986-35.057 32.595-8.718-13.609-20.798-24.867-35.058-32.595 12.203-11.933 19.809-28.62 19.809-47.072 0-30.975-21.407-56.989-50.085-63.838v-28.886h130.756zm-180.84 92.724c0-19.639 15.738-35.616 35.084-35.616s35.085 15.978 35.085 35.616-15.739 35.616-35.085 35.616-35.084-15.978-35.084-35.616zm-30.249 130.95c0-36.025 29.309-65.334 65.333-65.334 36.025 0 65.334 29.309 65.334 65.334v47.04h-130.667zm160.667 0c0-36.025 29.309-65.334 65.333-65.334s65.333 29.309 65.333 65.334v47.04h-130.666zm291.333 47.04h-130.667v-47.04c0-36.025 29.309-65.334 65.334-65.334 36.024 0 65.333 29.309 65.333 65.334z"/></svg>