<?xml version="1.0" encoding="UTF-8"?>
<svg xmlns="http://www.w3.org/2000/svg" onmouseup="{ if(window.parent.document.onmouseup) window.parent.document.onmouseup(arguments[0]);}" xml:space="preserve" style="enable-background:new 0 0 512 512;" viewBox="0 0 512 512" y="0px" x="0px" id="Capa_1" version="1.1" xmlns:xlink="http://www.w3.org/1999/xlink"><g><g><g><path data-cppathid="10000" d="M255.274,435.2c-4.713,0-8.533,3.82-8.533,8.533v34.133c0,9.426-7.641,17.067-17.067,17.067s-17.067-7.641-17.067-17.067     v-8.533c0.001-2.263-0.898-4.434-2.499-6.035c-1.6-1.6-3.771-2.499-6.035-2.499c-2.263-0.001-4.434,0.898-6.035,2.499     c-1.6,1.6-2.499,3.771-2.499,6.035v8.533c0,18.851,15.282,34.133,34.133,34.133s34.133-15.282,34.133-34.133v-34.133     C263.808,439.021,259.987,435.2,255.274,435.2z"/><path data-cppathid="10001" d="M255.616,0C121.266,0,11.783,70.642,0.953,164.308c-0.523,4.494,2.553,8.614,7.01,9.391     c4.457,0.777,8.745-2.06,9.773-6.466c6.467-27.675,34.588-47.767,66.871-47.767c25.271-0.572,48.885,12.534,61.767,34.283     c2.997,5.555,8.842,8.975,15.154,8.864c6.311-0.11,12.033-3.732,14.834-9.389c12.165-23.55,39.255-39.294,70.379-41.783v101.892     c0,4.713,3.82,8.533,8.533,8.533s8.533-3.821,8.533-8.533V111.442c31.124,2.49,58.214,18.233,70.383,41.783     c2.892,5.69,8.701,9.307,15.083,9.392c6.224,0.028,11.956-3.382,14.9-8.867c12.882-21.749,36.496-34.856,61.767-34.283     c36.017,0,65.942,24.583,68.117,55.975c0.315,4.469,4.028,7.935,8.508,7.942c0.15,0,0.3,0,0.45-0.009     c4.649-0.247,8.245-4.172,8.083-8.825C507.658,76.675,395.433,0,255.616,0z M425.941,102.4     c-31.486-0.818-60.888,15.687-76.588,42.992c-16.171-31.3-53.1-51.525-94.079-51.525s-77.908,20.225-93.884,51.767     c-15.713-27.418-45.191-44.016-76.783-43.233c-17.194-0.046-34.054,4.742-48.658,13.817     c36.508-58.333,122.108-99.15,219.666-99.15c98,0,183.517,41.317,219.875,99.633C460.685,107.286,443.486,102.323,425.941,102.4z     "/><path data-cppathid="10002" d="M359.003,367.035c-3.012-0.475-6.049,0.694-7.966,3.065c-5.242,5.91-11.648,10.672-18.818,13.99     c-8.725-15.936-14.159-33.462-15.979-51.539c4.156-0.559,7.268-4.091,7.3-8.284V281.6c-0.024-3.736-2.506-7.009-6.096-8.042     c4.843-31.856,16.97-68.72,30.48-79.042c3.736-2.866,4.447-8.216,1.588-11.957c-2.859-3.742-8.208-4.462-11.954-1.609     c-13.456,10.286-23.556,34.034-30.137,57.983H187.008c-4.713,0-8.533,3.82-8.533,8.533s3.82,8.533,8.533,8.533h17.067v17.067     h-34.133c-14.132,0.015-25.585,11.468-25.6,25.6v25.6c-0.001,2.263,0.898,4.434,2.499,6.035c1.6,1.6,3.771,2.499,6.035,2.499     h24.337c-1.839,17.99-7.262,35.429-15.949,51.29c-7.169-3.317-13.575-8.08-18.817-13.99c-2.964-3.666-8.338-4.235-12.004-1.271     c-3.666,2.964-4.235,8.338-1.271,12.004c18.316,22.658,64.466,37.3,117.571,37.3s99.254-14.642,117.571-37.3     c1.917-2.371,2.424-5.585,1.329-8.432S362.015,367.51,359.003,367.035z M221.141,256h82.162     c-1.25,5.965-2.264,11.716-3.04,17.067h-79.122V256z M161.408,315.733v-17.067c0.005-4.711,3.822-8.529,8.533-8.533h136.533v25.6     H161.408z M246.741,401.067c-23.604,0.221-47.094-3.29-69.601-10.404c9.445-17.984,15.29-37.639,17.207-57.863h104.789     c1.917,20.223,7.762,39.878,17.207,57.863C293.835,397.776,270.345,401.288,246.741,401.067z"/></g></g></g><g/><g/><g/><g/><g/><g/><g/><g/><g/><g/><g/><g/><g/><g/><g/></svg>