<?xml version="1.0" encoding="UTF-8"?>
<svg xmlns="http://www.w3.org/2000/svg" onmouseup="{ if(window.parent.document.onmouseup) window.parent.document.onmouseup(arguments[0]);}" width="512" viewBox="0 0 24 24" height="512" enable-background="new 0 0 24 24"><path data-cppathid="10000" d="m19.5 24h-15c-.276 0-.5-.224-.5-.5v-21c0-.276.224-.5.5-.5h15c.276 0 .5.224.5.5v21c0 .276-.224.5-.5.5zm-14.5-1h14v-20h-14z"/><path data-cppathid="10001" d="m17.5 3c-.276 0-.5-.224-.5-.5v-1.5h-3v1.5c0 .276-.224.5-.5.5s-.5-.224-.5-.5v-2c0-.276.224-.5.5-.5h4c.276 0 .5.224.5.5v2c0 .276-.224.5-.5.5z"/><path data-cppathid="10002" d="m20.5 3h-17c-.276 0-.5-.224-.5-.5s.224-.5.5-.5h17c.276 0 .5.224.5.5s-.224.5-.5.5z"/><path data-cppathid="10003" d="m20.5 24h-17c-.276 0-.5-.224-.5-.5s.224-.5.5-.5h17c.276 0 .5.224.5.5s-.224.5-.5.5z"/><path data-cppathid="10004" d="m20.5 8h-17c-.276 0-.5-.224-.5-.5s.224-.5.5-.5h17c.276 0 .5.224.5.5s-.224.5-.5.5z"/><path data-cppathid="10005" d="m20.5 19h-17c-.276 0-.5-.224-.5-.5s.224-.5.5-.5h17c.276 0 .5.224.5.5s-.224.5-.5.5z"/><path data-cppathid="10006" d="m12 17c-1.443 0-3-.987-3-2.583 0-1.354 2.172-4.175 2.607-4.727.189-.24.596-.24.785 0 .436.552 2.608 3.372 2.608 4.727 0 1.596-1.557 2.583-3 2.583zm0-6.177c-.932 1.256-2 2.946-2 3.594 0 .978 1.038 1.583 2 1.583s2-.605 2-1.583c0-.647-1.068-2.338-2-3.594z"/></svg>