<?xml version="1.0" encoding="UTF-8"?>
<svg xmlns="http://www.w3.org/2000/svg" onmouseup="{ if(window.parent.document.onmouseup) window.parent.document.onmouseup(arguments[0]);}" width="480pt" viewBox="0 -16 480 480" height="480pt"><path data-cppathid="10000" d="m168 320h-48c-4.417969 0-8 3.582031-8 8v48c0 4.417969 3.582031 8 8 8h48c4.417969 0 8-3.582031 8-8v-48c0-4.417969-3.582031-8-8-8zm-8 48h-32v-32h32zm0 0"/><path data-cppathid="10001" d="m280 232h-80c-8.835938 0-16 7.164062-16 16v32c0 8.835938 7.164062 16 16 16h80c8.835938 0 16-7.164062 16-16v-32c0-8.835938-7.164062-16-16-16zm0 24h-32v-8h32zm-48-8v8h-32v-8zm-32 24h32v8h-32zm48 8v-8h32v8zm0 0"/><path data-cppathid="10002" d="m439.304688 392.550781c-1.992188-10.519531-8.117188-19.804687-17.011719-25.769531-8.890625-5.96875-19.800781-8.125-30.292969-5.980469v-141.488281l14.34375 14.34375c9.75 9.75 25.5625 9.75 35.3125 0s9.75-25.5625 0-35.3125l-49.65625-49.65625v-100.6875c8.835938 0 16-7.164062 16-16v-16c0-8.835938-7.164062-16-16-16h-80c-8.835938 0-16 7.164062-16 16v16c0 8.835938 7.164062 16 16 16v20.6875l-55.03125-55.03125c-9.496094-9.0625-24.441406-9.0625-33.9375 0l-184.6875 184.6875c-9.75 9.75-9.75 25.5625 0 35.3125s25.5625 9.75 35.3125 0l14.34375-14.34375v167.742188c-8.710938-10.105469-22.800781-13.714844-35.296875-9.039063-12.5 4.671875-20.761719 16.640625-20.703125 29.984375-17.671875 0-32 14.328125-32 32 0 4.417969 3.582031 8 8 8h464c4.417969 0 8-3.582031 8-8-.03125-23.679688-17.296875-43.8125-40.695312-47.449219zm-71.367188-16.222656c0-.113281.0625-.207031.0625-.328125v-48c0-4.417969-3.582031-8-8-8h-48c-4.417969 0-8 3.582031-8 8v48c0 4.417969 3.582031 8 8 8h48c1.457031-.039062 2.875-.484375 4.089844-1.289062-2.65625 5.378906-4.054688 11.292968-4.089844 17.289062v.800781c-15.675781 3.246094-27.914062 15.515625-31.121094 31.199219h-32.878906v-120c0-4.417969-3.582031-8-8-8h-96c-4.417969 0-8 3.582031-8 8v120h-48.710938c-2.933593-17.152344-14.898437-31.382812-31.289062-37.214844v-186.785156h272v160.207031c-3.066406 2.304688-5.78125 5.039063-8.0625 8.121094zm-15.9375-40.328125v32h-32v-32zm-40-320h80v16h-80zm16 32h48v84.6875l-48-48zm-265.65625 174.34375c-3.503906 3.503906-9.183594 3.503906-12.6875 0s-3.503906-9.183594 0-12.6875l184.6875-184.6875c3.125-3.125 8.1875-3.125 11.3125 0l184.6875 184.6875c3.503906 3.503906 3.503906 9.183594 0 12.6875s-9.183594 3.503906-12.6875 0l-160.6875-160.6875c-9.371094-9.371094-24.566406-9.371094-33.9375 0zm172-149.375c3.125-3.125 8.1875-3.125 11.3125 0l119.03125 119.03125h-249.375zm-216.191406 359.03125c4.210937-7.253906 13.328125-10.003906 20.847656-6.289062 3.074219 1.515624 6.769531.90625 9.191406-1.519532 2.425782-2.421875 3.035156-6.117187 1.519532-9.191406-1.101563-2.171875-1.6875-4.566406-1.710938-7-.035156-7.808594 5.589844-14.488281 13.289062-15.785156 7.699219-1.296875 15.203126 3.171875 17.726563 10.5625 1.160156 3.324218 4.359375 5.503906 7.878906 5.359375.375.003906.746094-.042969 1.105469-.136719 14.585938.023438 27.320312 9.882812 30.992188 24zm181.847656 0v-112h80v112zm145.367188 0c3.28125-9.457031 12.128906-15.851562 22.136718-16 .273438 0 1.070313.121094 1.34375.128906 2.53125.074219 4.953125-1.027344 6.558594-2.984375 1.59375-1.980469 2.148438-4.601562 1.496094-7.054687-.566406-1.984375-.867188-4.03125-.902344-6.089844 0-13.253906 10.746094-24 24-24s24 10.746094 24 24c0 4.417969 3.582031 8 8 8 14.585938.023438 27.320312 9.882812 30.992188 24zm0 0"/><path data-cppathid="10003" d="m224 344h-16v16h8v16h-8v16h16c4.417969 0 8-3.582031 8-8v-32c0-4.417969-3.582031-8-8-8zm0 0"/></svg>