<?xml version="1.0" encoding="UTF-8"?>
<svg xmlns="http://www.w3.org/2000/svg" onmouseup="{ if(window.parent.document.onmouseup) window.parent.document.onmouseup(arguments[0]);}" width="512" viewBox="0 0 512 512" height="512" enable-background="new 0 0 512 512" id="Capa_1"><g><path data-cppathid="10000" fill="#00ccb3" d="m512 100.006h-256l-20.001 155.994 20.001 155.994h256z"/><path data-cppathid="10001" fill="#00ee8a" d="m0 100.006h256v311.987h-256z"/><path data-cppathid="10002" fill="#00969b" d="m482 130.006h-226l-20.001 125.994 20.001 125.994h226z"/><path data-cppathid="10003" fill="#00ccb3" d="m30 130.006h226v251.987h-226z"/><path data-cppathid="10004" fill="#e1ebf0" d="m451.996 160.006h-195.996l-10.001 13.661 10.001 16.339c36.389 0 65.994 29.604 65.994 65.994s-29.605 65.994-65.994 65.994l-10.001 13.674 10.001 16.326h195.996zm-30 161.988h-96.351c16.321-17.216 26.348-40.455 26.348-65.994s-10.027-48.778-26.348-65.994h96.351z"/><path data-cppathid="10005" fill="#fff5f5" d="m190.006 256c0-36.389 29.604-65.994 65.994-65.994v-30h-195.996v191.987h195.996v-30c-36.389.001-65.994-29.604-65.994-65.993zm-3.652 65.994h-96.35v-131.988h96.351c-16.321 17.216-26.348 40.455-26.348 65.994s10.026 48.778 26.347 65.994z"/><path data-cppathid="10006" fill="#e50058" d="m490.76.027-234.76 234.76-10.001 28.88 10.001 13.546 255.973-255.973z"/><path data-cppathid="10007" fill="#ff415b" d="m.027 490.76 21.213 21.213 234.76-234.76v-42.426z"/></g></svg>