<?xml version="1.0" encoding="UTF-8"?>
<svg xmlns="http://www.w3.org/2000/svg" onmouseup="{ if(window.parent.document.onmouseup) window.parent.document.onmouseup(arguments[0]);}" xml:space="preserve" style="enable-background:new 0 0 512 512;" viewBox="0 0 512 512" y="0px" x="0px" id="Capa_1" version="1.1" xmlns:xlink="http://www.w3.org/1999/xlink"><path data-cppathid="10000" d="M256,0C165.099,0,91,75.099,91,166c0,15.3,2.1,30,6,44.099c2.401,8.701,11.4,13.2,19.799,10.201  c43.801-16.8,93.6-9.901,130.201,17.699c2.699,1.8,6,3.001,9,3.001c3.3,0,6.599-1.201,9-3.001c36.601-27.6,86.4-34.499,130.2-17.699  c8.099,2.999,17.399-1.5,19.799-10.201C418.9,196,421,181.3,421,166C421,75.099,346.901,0,256,0z" style="fill:#FFD400;"/><path data-cppathid="10001" d="M421,166c0,15.3-2.1,30-6,44.099c-2.401,8.701-11.7,13.2-19.799,10.201  c-43.801-16.8-93.6-9.901-130.201,17.699c-2.401,1.8-5.7,3.001-9,3.001V0C346.901,0,421,75.099,421,166z" style="fill:#FDBF00;"/><path data-cppathid="10002" d="M512,346c0,90.981-75.019,166-166,166c-36.313,0-70.576-11.426-99.067-33.047  c-7.957-6.03-7.863-17.975,0.044-23.936C280.8,429.573,301,388.188,301,346c0-12.48-1.626-24.639-4.849-36.152  c-2.08-7.412,1.802-15.19,8.95-18.003c39.536-15.542,69.814-49.058,81.035-89.648c2.389-8.657,11.809-13.218,19.937-9.961  C469.809,217.24,512,277.606,512,346z" style="fill:#FD3018;"/><path data-cppathid="10003" d="M166,512C75.019,512,0,436.981,0,346c0-68.394,42.191-128.76,105.927-153.765  c8.033-3.279,17.537,1.268,19.937,9.961c11.221,40.591,41.499,74.106,81.035,89.648c7.148,2.813,11.03,10.591,8.95,18.003  C212.626,321.361,211,333.52,211,346c0,42.188,20.2,83.573,54.023,109.018c7.906,5.961,8,17.906,0.044,23.936  C236.576,500.574,202.313,512,166,512z" style="fill:#3AAAFF;"/><path data-cppathid="10004" d="M325,301.899c-2.401-8.699-11.4-13.2-19.799-10.199C289.6,297.999,272.8,301,256,301  s-33.6-3.001-49.2-9.3c-8.399-3.001-17.399,1.5-19.799,10.199C183.1,316,181,330.7,181,346c0,51.599,24.6,101.8,66,132.999l9,6.601  l9-6.601c41.4-31.199,66-81.4,66-132.999C331,330.7,328.9,316,325,301.899z" style="fill:#B758CE;"/><path data-cppathid="10005" d="M195.912,319.765c-52.335-20.591-91.436-67.031-101.938-122.349  c55.991-26.949,123.093-19.799,171.093,16.631c7.897,6.008,7.897,17.899,0,23.906c-23.818,18.062-41.294,43.594-49.219,71.895  C213.459,318.396,204.254,323.005,195.912,319.765z" style="fill:#54E360;"/><path data-cppathid="10006" d="M296.151,309.848c-7.925-28.301-25.4-53.833-49.219-71.895c-7.897-6.008-7.897-17.899,0-23.906  c48.034-36.432,115.137-43.581,171.093-16.628c-10.502,55.316-49.603,101.755-101.938,122.346  C307.746,323.005,298.541,318.396,296.151,309.848z" style="fill:#FE8821;"/><path data-cppathid="10007" d="M325,301.899C328.9,316,331,330.7,331,346c0,51.599-24.6,101.8-66,132.999l-9,6.601V301  c16.8,0,33.6-3.001,49.2-9.3C313.599,288.699,322.599,293.2,325,301.899z" style="fill:#AA3DC8;"/><path data-cppathid="10008" d="M256,207.7c-37.2,24.598-63.9,63.6-72.299,107.399L196,319.9c19.2,7.2,39.6,11.1,60,11.1  s40.8-3.9,60-11.1l12.299-4.801C319.9,271.599,293.5,232.299,256,207.7z" style="fill:#E5E5E5;"/><path data-cppathid="10009" d="M328.299,315.099L316,319.9c-19.2,7.2-39.6,11.1-60,11.1V207.7  C293.5,232.299,319.9,271.599,328.299,315.099z" style="fill:#D9D9D9;"/><g/><g/><g/><g/><g/><g/><g/><g/><g/><g/><g/><g/><g/><g/><g/></svg>