<?xml version="1.0" encoding="UTF-8"?>
<svg xmlns="http://www.w3.org/2000/svg" onmouseup="{ if(window.parent.document.onmouseup) window.parent.document.onmouseup(arguments[0]);}" xml:space="preserve" style="enable-background:new 0 0 512 512;" viewBox="0 0 512 512" y="0px" x="0px" id="Capa_1" version="1.1" xmlns:xlink="http://www.w3.org/1999/xlink"><linearGradient gradientTransform="matrix(1.0039 0 0 -1.0039 0.1922 516.5609)" y2="-178.647" x2="254.8086" y1="420.503" x1="254.8086" gradientUnits="userSpaceOnUse" id="SVGID_1_"><stop style="stop-color:#FFE7A5" offset="0"/><stop style="stop-color:#FFBF5C" offset="0.966"/></linearGradient><path data-cppathid="10000" d="M470.79,42.968c0-15.752-12.769-28.519-28.519-28.519H69.729  c-15.751,0-28.519,12.769-28.519,28.519v220.607l0,0v222.484c0,14.326,12.769,25.941,28.519,25.941l0,0h257.494h59.911h55.137  c15.751,0,28.519-11.615,28.519-25.942V375.901v-0.002V42.968H470.79z" style="fill:url(#SVGID_1_);"/><linearGradient gradientTransform="matrix(1.0039 0 0 -1.0039 0.1922 516.5609)" y2="531.8649" x2="-25.055" y1="29.7348" x1="477.0699" gradientUnits="userSpaceOnUse" id="SVGID_2_"><stop style="stop-color:#FF5D00;stop-opacity:0" offset="0"/><stop style="stop-color:#D54003" offset="1"/></linearGradient><path data-cppathid="10001" d="M441.329,52.261c-4.63-5.975-11.87-9.826-20.015-9.826H256H90.685l0,0  c-12.54,0-25.311,11.332-25.311,25.311v195.789l0,0v197.454c0,5.785,2.351,11.067,6.224,15.112L107.496,512h219.726h59.911h55.137  c15.751,0,28.519-11.615,28.519-25.942V375.901v-0.002V81.721L441.329,52.261z" style="fill:url(#SVGID_2_);"/><linearGradient gradientTransform="matrix(1.0039 0 0 -1.0039 0.1922 516.5609)" y2="56.315" x2="450.8401" y1="132.795" x1="374.3601" gradientUnits="userSpaceOnUse" id="SVGID_3_"><stop style="stop-color:#97AAAA" offset="0"/><stop style="stop-color:#E8EFEE" offset="1"/></linearGradient><path data-cppathid="10002" d="M446.626,458.702V67.747c0-13.972-11.339-25.311-25.311-25.311H90.684  c-13.972,0-25.311,11.339-25.311,25.311v390.955c0,13.972,11.339,25.311,25.311,25.311h330.632  C435.287,484.013,446.626,472.673,446.626,458.702z" style="fill:url(#SVGID_3_);"/><linearGradient gradientTransform="matrix(1.0039 0 0 -1.0039 0.1922 516.5609)" y2="-241.457" x2="254.8081" y1="327.353" x1="254.8081" gradientUnits="userSpaceOnUse" id="SVGID_4_"><stop style="stop-color:#E2EDF2" offset="0"/><stop style="stop-color:#E6E6E6" offset="1"/></linearGradient><path data-cppathid="10003" d="M319.209,484.013H90.684c-13.979,0-25.311-11.332-25.311-25.311V67.747  c0-13.979,11.332-25.311,25.311-25.311h330.632c13.979,0,25.311,11.332,25.311,25.311v295.478c0,3.873-1.524,7.592-4.243,10.35  l-98.736,100.209C337.2,480.328,328.397,484.013,319.209,484.013z" style="fill:url(#SVGID_4_);"/><g><rect data-cppathid="10004" height="17.237" width="251.713" style="fill:#A5B0B8;" y="263.821" x="130.138"/><rect data-cppathid="10005" height="17.237" width="251.713" style="fill:#A5B0B8;" y="329.628" x="130.138"/><rect data-cppathid="10006" height="17.237" width="151.833" style="fill:#A5B0B8;" y="395.445" x="130.138"/></g><linearGradient gradientTransform="matrix(1.0039 0 0 -1.0039 0.1922 516.5609)" y2="463.9012" x2="458.9253" y1="318.4212" x1="258.7353" gradientUnits="userSpaceOnUse" id="SVGID_5_"><stop style="stop-color:#9FC7E2;stop-opacity:0" offset="0"/><stop style="stop-color:#4975AD" offset="1"/></linearGradient><path data-cppathid="10007" d="M256,484.013H88.08c-12.54,0-22.707-11.332-22.707-25.311v-48.934V67.747  c0-13.979,10.166-25.311,22.707-25.311H256V484.013z" style="fill:url(#SVGID_5_);"/><linearGradient gradientTransform="matrix(1.0039 0 0 -1.0039 0.1922 516.5609)" y2="337.6284" x2="-35.2152" y1="137.0685" x1="271.2349" gradientUnits="userSpaceOnUse" id="SVGID_6_"><stop style="stop-color:#9FC7E2;stop-opacity:0" offset="0"/><stop style="stop-color:#4975AD" offset="1"/></linearGradient><path data-cppathid="10008" d="M446.626,263.534v197.454c0,12.716-11.332,23.024-25.311,23.024h-48.934H90.684  c-13.979,0-25.311-10.308-25.311-23.024V263.534C65.373,262.136,446.626,263.534,446.626,263.534z" style="fill:url(#SVGID_6_);"/><linearGradient gradientTransform="matrix(1.0039 0 0 -1.0039 0.1922 516.5609)" y2="85.122" x2="384.6196" y1="134.8063" x1="334.9354" gradientUnits="userSpaceOnUse" id="SVGID_7_"><stop style="stop-color:#FFFFFF" offset="0"/><stop style="stop-color:#E8EFEE" offset="1"/></linearGradient><path data-cppathid="10009" d="M445.33,369.269c0,0-0.748,2.118-3.692,5.063c-1.093,1.093-97.409,98.863-97.409,98.863  c-6.82,6.921-16.129,10.818-25.845,10.818l0,0l0,0c8.388,0,15.186-6.8,15.186-15.186v-74.246c0-13.979,11.332-25.311,25.311-25.311  L445.33,369.269L445.33,369.269z" style="fill:url(#SVGID_7_);"/><linearGradient gradientTransform="matrix(1.0039 0 0 -1.0039 0.1922 516.5609)" y2="543.834" x2="276.3933" y1="398.3541" x1="306.2634" gradientUnits="userSpaceOnUse" id="SVGID_8_"><stop style="stop-color:#9FC7E2;stop-opacity:0" offset="0"/><stop style="stop-color:#4975AD" offset="1"/></linearGradient><path data-cppathid="10010" d="M446.626,125.098l-82.663-82.663H157.151v5.834c0,11.084,4.953,21.035,12.751,27.766  l276.724,276.724L446.626,125.098L446.626,125.098z" style="fill:url(#SVGID_8_);"/><path data-cppathid="10011" d="M318.15,84.965H193.849c-20.235,0-36.697-16.462-36.697-36.697v-27.72h197.695v27.72  C354.848,68.503,338.385,84.965,318.15,84.965z M173.811,37.206v11.061c0,11.049,8.989,20.037,20.037,20.037H318.15  c11.048,0,20.037-8.988,20.037-20.037V37.206H173.811z" style="fill:#A5B0B8;"/><linearGradient gradientTransform="matrix(1.0039 0 0 -1.0039 0.1922 516.5609)" y2="455.896" x2="254.8081" y1="504.586" x1="254.8081" gradientUnits="userSpaceOnUse" id="SVGID_9_"><stop style="stop-color:#7ECCFD" offset="0"/><stop style="stop-color:#3FA9F5" offset="1"/></linearGradient><path data-cppathid="10012" d="M347.459,52.201H164.54c-9.908,0-17.94-8.031-17.94-17.94V17.94  C146.6,8.032,154.632,0,164.54,0h182.919c9.908,0,17.94,8.031,17.94,17.94v16.322C365.399,44.169,357.366,52.201,347.459,52.201z" style="fill:url(#SVGID_9_);"/><g><linearGradient gradientTransform="matrix(1.0039 0 0 -1.0039 0.1922 516.5609)" y2="222.903" x2="132.4901" y1="362.893" x1="132.4901" gradientUnits="userSpaceOnUse" id="SVGID_10_"><stop style="stop-color:#FF5D00" offset="0"/><stop style="stop-color:#D54003" offset="1"/></linearGradient><path data-cppathid="10013" d="M103.689,219.714v-98.181c0-1.68,0.765-2.939,2.299-3.782   c1.532-0.839,3.385-1.261,5.561-1.261c2.173,0,4.028,0.422,5.562,1.261c1.532,0.842,2.299,2.102,2.299,3.782v89.429h38.561   c1.483,0,2.644,0.694,3.485,2.077c0.839,1.385,1.261,3.017,1.261,4.894c0,1.879-0.422,3.511-1.261,4.894   c-0.841,1.386-2.002,2.077-3.485,2.077h-47.31c-1.879,0-3.511-0.469-4.894-1.41C104.379,222.557,103.689,221.296,103.689,219.714z" style="fill:url(#SVGID_10_);"/><linearGradient gradientTransform="matrix(1.0039 0 0 -1.0039 0.1922 516.5609)" y2="222.903" x2="203.9161" y1="362.893" x1="203.9161" gradientUnits="userSpaceOnUse" id="SVGID_11_"><stop style="stop-color:#FF5D00" offset="0"/><stop style="stop-color:#D54003" offset="1"/></linearGradient><path data-cppathid="10014" d="M171.613,192.722v-43.159c0-11.368,3.015-19.724,9.046-25.064   c6.03-5.339,14.089-8.009,24.174-8.009c10.085,0,18.168,2.669,24.249,8.009c6.081,5.339,9.121,13.695,9.121,25.064v43.159   c0,11.371-3.041,19.725-9.121,25.064c-6.081,5.339-14.163,8.009-24.249,8.009c-10.085,0-18.145-2.669-24.174-8.009   C174.628,212.448,171.613,204.093,171.613,192.722z M187.333,192.722c0,12.754,5.833,19.132,17.5,19.132   c5.636,0,9.986-1.581,13.051-4.746c3.063-3.163,4.597-7.958,4.597-14.386v-43.159c0-6.425-1.534-11.221-4.597-14.385   c-3.066-3.163-7.415-4.746-13.051-4.746c-11.668,0-17.5,6.377-17.5,19.131L187.333,192.722L187.333,192.722z" style="fill:url(#SVGID_11_);"/><linearGradient gradientTransform="matrix(1.0039 0 0 -1.0039 0.1922 516.5609)" y2="222.903" x2="287.8586" y1="362.893" x1="287.8586" gradientUnits="userSpaceOnUse" id="SVGID_12_"><stop style="stop-color:#FF5D00" offset="0"/><stop style="stop-color:#D54003" offset="1"/></linearGradient><path data-cppathid="10015" d="M248.927,218.391c0-0.591,0.048-1.036,0.149-1.332l29.45-96.122   c1.258-3.555,4.774-5.334,10.544-5.334c5.874,0,9.441,1.655,10.701,4.97l29.365,96.102c0.197,0.62,0.297,1.087,0.297,1.397   c0,1.862-1.155,3.469-3.458,4.814c-2.306,1.345-4.748,2.018-7.33,2.018c-3.122,0-5.059-1.075-5.812-3.229l-6.141-21.243h-36.455   l-6.067,21.188c-0.691,2.19-2.517,3.284-5.475,3.284c-2.368,0-4.588-0.641-6.66-1.924   C249.963,221.698,248.927,220.168,248.927,218.391z M273.805,187.976h29.439l-14.868-50.899L273.805,187.976z" style="fill:url(#SVGID_12_);"/><linearGradient gradientTransform="matrix(1.0039 0 0 -1.0039 0.1922 516.5609)" y2="222.903" x2="372.4731" y1="362.893" x1="372.4731" gradientUnits="userSpaceOnUse" id="SVGID_13_"><stop style="stop-color:#FF5D00" offset="0"/><stop style="stop-color:#D54003" offset="1"/></linearGradient><path data-cppathid="10016" d="M339.94,219.714v-98.032c0-3.46,2.619-5.191,7.861-5.191c2.767,0,4.991,0.618,6.674,1.854   c1.68,1.237,3.41,3.585,5.191,7.045l32.925,64.217v-68.074c0-1.68,0.765-2.939,2.299-3.782c1.532-0.839,3.386-1.261,5.562-1.261   c2.174,0,4.027,0.422,5.561,1.261c1.532,0.842,2.299,2.102,2.299,3.782v98.181c0,1.582-0.767,2.843-2.299,3.782   c-1.534,0.941-3.387,1.41-5.561,1.41c-4.153,0-7.266-1.929-9.344-5.785l-35.445-67.48v68.074c0,1.582-0.767,2.843-2.299,3.782   c-1.534,0.941-3.388,1.41-5.562,1.41c-2.076,0-3.907-0.469-5.487-1.41C340.73,222.557,339.94,221.296,339.94,219.714z" style="fill:url(#SVGID_13_);"/></g><g/><g/><g/><g/><g/><g/><g/><g/><g/><g/><g/><g/><g/><g/><g/></svg>