<?xml version="1.0" encoding="UTF-8"?>
<svg xmlns="http://www.w3.org/2000/svg" onmouseup="{ if(window.parent.document.onmouseup) window.parent.document.onmouseup(arguments[0]);}" height="512" width="512" viewBox="0 0 256 256"><path data-cppathid="10000" fill="#efefef" d="M147.225,95.77l2.05,4.4h-14.04V82.689a5.062,5.062,0,0,0-5.07-5.06H57V163.12h73.165a5.083,5.083,0,0,0,5.07-5.07V140.58h15.82v74.56H8.995V22.339A16.345,16.345,0,0,1,25.335,6h109.38a16.345,16.345,0,0,1,16.34,16.339v64.79A6.275,6.275,0,0,0,147.225,95.77Z"/><path data-cppathid="10001" fill="#afafaf" d="M151.054,215.14v18.52A16.346,16.346,0,0,1,134.713,250H25.333a16.346,16.346,0,0,1-16.34-16.34V215.14Z"/><rect data-cppathid="10002" fill="#afafaf" ry="8.114" rx="8.114" height="16.228" width="36.677" y="18.594" x="99.286"/><path data-cppathid="10003" fill="#76ffba" d="M130.17,77.63H57V88.45h51.54a15.875,15.875,0,0,0,12.58,15.53,10.981,10.981,0,0,1,8.35-3.81h5.77V82.69A5.062,5.062,0,0,0,130.17,77.63Zm-.7,62.95a11,11,0,0,1-8.35-3.81,15.876,15.876,0,0,0-12.58,15.54H57v10.81h73.17a5.082,5.082,0,0,0,5.07-5.07V140.58Z"/><path data-cppathid="10004" fill="#13bf6d" d="M118.39,129.5a10.946,10.946,0,0,0,2.73,7.27,15.876,15.876,0,0,0-12.58,15.54H57V88.45h51.54a15.875,15.875,0,0,0,12.58,15.53,10.982,10.982,0,0,0-2.73,7.27Z"/><path data-cppathid="10005" fill="#76ffba" d="M73.63,120.38a16.664,16.664,0,0,1-16.56,16.68l-.07-.04V103.75l.07-.05A16.67,16.67,0,0,1,73.63,120.38Z"/><path data-cppathid="10006" fill="#fc5d3d" d="M179.116,147.445V93.317a2.362,2.362,0,0,1,2.376-2.376l65.528-.007v58.879H181.485A2.368,2.368,0,0,1,179.116,147.445Z"/><path data-cppathid="10007" fill="#efefef" d="M163.134,141.434V99.313a3.872,3.872,0,0,1,3.841-3.841l12.141-.007v49.817H166.982A3.866,3.866,0,0,1,163.134,141.434Z"/><path data-cppathid="10008" fill="#ffb69f" d="M158.615,90.459a6.284,6.284,0,0,0-11.39,5.311l2.05,4.4h-19.81a11.1,11.1,0,0,0-11.08,11.081V129.5a11.1,11.1,0,0,0,11.08,11.08h33.67V100.169Z"/><path data-cppathid="10009" fill="#fff" d="M132.694,203.831H21.833a2.5,2.5,0,0,1-2.5-2.5V42.191a2.5,2.5,0,0,1,5,0v156.64H132.694a2.5,2.5,0,0,1,0,5ZM21.833,34.691a2.5,2.5,0,0,1-2.5-2.5V28.485a2.5,2.5,0,0,1,5,0v3.706A2.5,2.5,0,0,1,21.833,34.691Z"/><path data-cppathid="10010" fill="#76ffba" d="M101.461,146.16H57.06a2.5,2.5,0,0,1,0-5H99.792a27.044,27.044,0,0,1,2.949-4.994,2.5,2.5,0,0,1,4.009,2.989,21.988,21.988,0,0,0-2.95,5.387A2.5,2.5,0,0,1,101.461,146.16ZM110,132.308a2.5,2.5,0,0,1,.914-3.415,26.989,26.989,0,0,1,3.979-1.886,2.5,2.5,0,1,1,1.764,4.679,22.007,22.007,0,0,0-3.241,1.536A2.5,2.5,0,0,1,110,132.308Z"/><path data-cppathid="10011" fill="#ffcbc2" d="M238.711,139.363H190.572a2.5,2.5,0,0,1-2.5-2.5V117.307a2.5,2.5,0,0,1,5,0v17.056h45.639a2.5,2.5,0,0,1,0,5Zm-48.139-29.556a2.5,2.5,0,0,1-2.5-2.5v-4a2.5,2.5,0,0,1,5,0v4A2.5,2.5,0,0,1,190.572,109.807Z"/><path data-cppathid="10012" d="M127.845,37.319a10.61,10.61,0,1,0,0-21.22h-20.44a10.61,10.61,0,1,0,0,21.22Zm-26.06-10.61a5.651,5.651,0,0,1,5.62-5.62h20.44a5.615,5.615,0,1,1,0,11.23h-20.44A5.636,5.636,0,0,1,101.785,26.709Z"/><path data-cppathid="10013" d="M110.845,29.209h.81a2.5,2.5,0,0,0,0-5h-.81a2.5,2.5,0,0,0,0,5Z"/><path data-cppathid="10014" d="M123.6,29.209h.81a2.5,2.5,0,0,0,0-5h-.81a2.5,2.5,0,0,0,0,5Z"/><path data-cppathid="10015" d="M73.314,240.445H86.731a7.875,7.875,0,0,0,0-15.75H73.314a7.875,7.875,0,0,0,0,15.75Zm0-10.75H86.731a2.875,2.875,0,0,1,0,5.75H73.314a2.875,2.875,0,0,1,0-5.75Z"/><circle data-cppathid="10016" r="2.5" cy="61.759" cx="8.985"/><circle data-cppathid="10017" r="2.5" cy="77.629" cx="104.825"/><path data-cppathid="10018" d="M97.979,112.38a2.5,2.5,0,0,0-2.5,2.5v10.992a2.5,2.5,0,0,0,5,0V114.88A2.5,2.5,0,0,0,97.979,112.38Z"/><path data-cppathid="10019" d="M247.025,93.429a2.5,2.5,0,0,0-.01-5l-12.65.01a2.5,2.5,0,1,0,0,4.99Z"/><path data-cppathid="10020" d="M214.365,93.439a2.5,2.5,0,0,0,0-5h-32.88a4.884,4.884,0,0,0-4.834,4.527l-9.676.006a6.3,6.3,0,0,0-3.831,1.3l-2.267-4.861a8.742,8.742,0,0,0-7.322-5.045l-.01-62.027A18.858,18.858,0,0,0,134.705,3.5H25.335A18.873,18.873,0,0,0,6.485,22.339v29.42a2.505,2.505,0,0,0,5.01,0c0-.009,0-.009-.01-.009V22.339A13.9,13.9,0,0,1,25.335,8.5h109.37a13.882,13.882,0,0,1,13.84,13.839V85.511a8.754,8.754,0,0,0-3.581,11.316l.391.84h-7.62V82.689a7.588,7.588,0,0,0-7.57-7.56h-15.34a2.5,2.5,0,0,0,0,5h15.34a2.567,2.567,0,0,1,2.57,2.56V97.667h-3.273a13.738,13.738,0,0,0-9.108,3.522,13.4,13.4,0,0,1-9.319-12.74,2.505,2.505,0,0,0-2.5-2.5H59.555v-5.82h35.27a2.5,2.5,0,0,0,0-5H59.555v-9.41a2.5,2.5,0,1,0-4.99,0v109.31a2.5,2.5,0,1,0,4.99,0v-9.41h70.61a7.6,7.6,0,0,0,7.57-7.57V143.081h10.81v69.558H11.485V71.759a2.5,2.5,0,0,0-5,0l.008,161.9A18.861,18.861,0,0,0,25.333,252.5h109.38a18.861,18.861,0,0,0,18.841-18.839l-.009-90.58h7.313a6.354,6.354,0,0,0,6.124,4.7h9.666a4.862,4.862,0,0,0,4.837,4.528h65.54a2.5,2.5,0,0,0,0-5h-65.41V93.439Zm-154.8,13a14.189,14.189,0,0,1,0,27.888Zm0,32.931a19.165,19.165,0,0,0,0-37.975V90.939l46.64.01a18.444,18.444,0,0,0,11.016,14.418,14.043,14.043,0,0,0-1.346,5.883V129.5a14.043,14.043,0,0,0,1.348,5.88,18.421,18.421,0,0,0-11.018,14.43H59.565Zm73.17,18.682a2.578,2.578,0,0,1-2.58,2.57h-70.6V154.81h48.98a2.5,2.5,0,0,0,2.5-2.5,13.417,13.417,0,0,1,9.323-12.749,13.641,13.641,0,0,0,9.1,3.52h3.273Zm15.819,75.612A13.856,13.856,0,0,1,134.713,247.5H25.333a13.855,13.855,0,0,1-13.84-13.839v-16.02H148.554Zm12.08-95.58-31.169,0a8.606,8.606,0,0,1-8.584-8.736h19.876a2.5,2.5,0,1,0,0-5H120.881V116.41h19.876a2.5,2.5,0,0,0,0-5H120.881a8.61,8.61,0,0,1,8.584-8.741c.093,0,7.009,0,19.814,0a2.5,2.5,0,0,0,2.265-3.557l-2.06-4.422a3.778,3.778,0,0,1,6.861-3.167l4.289,9.2Zm15.981,4.7h-9.633a1.373,1.373,0,0,1-1.348-1.362V99.313a1.378,1.378,0,0,1,1.342-1.341l9.639-.006Z"/><circle data-cppathid="10021" r="2.5" cy="90.939" cx="224.365"/></svg>