<?xml version="1.0" encoding="UTF-8"?>
<svg xmlns="http://www.w3.org/2000/svg" onmouseup="{ if(window.parent.document.onmouseup) window.parent.document.onmouseup(arguments[0]);}" xml:space="preserve" style="enable-background:new 0 0 512.001 512.001;" viewBox="0 0 512.001 512.001" y="0px" x="0px" id="Capa_1" version="1.1" xmlns:xlink="http://www.w3.org/1999/xlink"><g><path data-cppathid="10000" d="M382.455,173.197L382.455,173.197c7.311-24.92,30.179-42.033,56.149-42.019l2.184,0.001   l-18.333,77.667L382.455,173.197z" style="fill:#FF8E8E;"/><path data-cppathid="10001" d="M485.247,265.749l-29.162-3.651C435.294,204.875,380.438,164,316.031,164H205.969   c-82.274,0-148.969,66.695-148.969,148.969l0,0c0,56.575,31.538,105.784,77.993,131.005v39.029   c0,10.491,8.505,18.996,18.996,18.996h58.007c10.491,0,18.996-8.505,18.996-18.996v-21.066h84.014v21.066   c0,10.491,8.505,18.996,18.996,18.996h58.007c10.491,0,18.996-8.505,18.996-18.996v-55.274   c21.896-18.142,38.518-42.426,47.216-70.216l27.023-3.383c9.572-1.198,16.754-9.336,16.754-18.982v-50.417   C502,275.085,494.818,266.947,485.247,265.749z" style="fill:#FF8E8E;"/></g><g><circle data-cppathid="10002" r="32" cy="90.05" cx="212.001" style="fill:#FDCF84;"/><circle data-cppathid="10003" r="32" cy="190" cx="293.24" style="fill:#FDCF84;"/></g><path data-cppathid="10004" d="M486.489,255.827l-23.229-2.909c-7.062-17.278-17.208-33.26-29.818-47.088l17.079-72.354  c0.702-2.974,0.006-6.105-1.89-8.501c-1.896-2.396-4.783-3.794-7.838-3.796l-2.185-0.001c-0.013,0-0.022,0-0.035,0  c-28.351,0-53.902,17.838-63.952,44.002c-7.108-2.825-14.415-5.152-21.867-6.915c-5.375-1.271-10.762,2.054-12.033,7.43  c-1.271,5.375,2.055,10.762,7.43,12.033c25.455,6.021,48.162,18.893,66.06,36.756c0.654,0.958,1.469,1.806,2.427,2.492  c13.047,13.694,23.36,30.124,30.05,48.536c1.281,3.528,4.432,6.042,8.156,6.508l29.162,3.651c4.559,0.571,7.996,4.466,7.996,9.06  v50.417c0,4.594-3.438,8.489-7.996,9.06l-27.023,3.383c-3.887,0.486-7.132,3.197-8.302,6.936  c-8.017,25.615-23.249,48.266-44.052,65.502c-2.293,1.9-3.62,4.723-3.62,7.7v55.274c0,4.961-4.036,8.997-8.996,8.997h-58.007  c-4.961,0-8.997-4.036-8.997-8.997v-21.066c0-5.523-4.478-10-10-10h-84.014c-5.522,0-10,4.477-10,10v21.066  c0,4.961-4.036,8.997-8.997,8.997H153.99c-4.96,0-8.996-4.036-8.996-8.997v-39.029c0-3.667-2.007-7.039-5.229-8.788  c-44.883-24.368-72.765-71.199-72.765-122.217C67.001,236.341,129.342,174,205.969,174h12.531c5.522,0,10-4.477,10-10  s-4.478-10-10-10h-12.531c-74.232,0-136.737,51.147-154.142,120.05h-7.327c-13.51,0-24.5-10.991-24.5-24.5s10.99-24.5,24.5-24.5  c5.522,0,10-4.477,10-10s-4.478-10-10-10c-24.537,0-44.5,19.962-44.5,44.5s19.963,44.5,44.5,44.5h3.631  c-0.74,6.206-1.131,12.517-1.131,18.919c0,56.349,29.734,108.232,77.993,136.827v33.208c0,15.989,13.008,28.997,28.996,28.997  h58.007c15.989,0,28.997-13.008,28.997-28.997v-11.066h64.014v11.066c0,15.989,13.008,28.997,28.997,28.997h58.007  c15.988,0,28.996-13.008,28.996-28.997V432.34c20.304-17.857,35.626-40.382,44.694-65.684l20.787-2.603  c14.544-1.82,25.512-14.247,25.512-28.905v-50.417C512,270.074,501.033,257.647,486.489,255.827z M427.865,142.392l-11.218,47.525  c-7.46-6.102-15.45-11.508-23.854-16.15C398.318,157.892,411.794,146.08,427.865,142.392z"/><path data-cppathid="10005" d="M398.07,268.07c1.86-1.86,2.931-4.44,2.931-7.07s-1.07-5.21-2.931-7.07c-1.859-1.86-4.439-2.93-7.069-2.93  s-5.21,1.07-7.07,2.93c-1.86,1.86-2.93,4.44-2.93,7.07s1.069,5.21,2.93,7.07c1.861,1.86,4.44,2.93,7.07,2.93  S396.211,269.93,398.07,268.07z"/><path data-cppathid="10006" d="M293.242,58.333c-5.522,0-10,4.477-10,10v39.665c0,5.523,4.478,10,10,10c5.522,0,10-4.477,10-10V68.333  C303.242,62.811,298.765,58.333,293.242,58.333z"/><path data-cppathid="10007" d="M293.24,42.05c2.63,0,5.21-1.07,7.069-2.93c1.86-1.86,2.931-4.44,2.931-7.07s-1.07-5.2-2.931-7.07  c-1.859-1.86-4.439-2.93-7.069-2.93c-2.631,0-5.21,1.07-7.07,2.93c-1.86,1.86-2.93,4.44-2.93,7.07c0,2.64,1.069,5.21,2.93,7.07  C288.031,40.98,290.609,42.05,293.24,42.05z"/><path data-cppathid="10008" d="M212.001,37c5.522,0,10-4.477,10-10V10c0-5.523-4.478-10-10-10s-10,4.477-10,10v17C202.001,32.523,206.479,37,212.001,37z"/><path data-cppathid="10009" d="M104.002,323.438c5.522-0.035,9.972-4.54,9.938-10.063l-0.001-0.406c0-5.523-4.478-10-10-10s-10,4.477-10,10l0.001,0.531  c0.034,5.501,4.505,9.938,9.999,9.938C103.959,323.438,103.979,323.438,104.002,323.438z"/><path data-cppathid="10010" d="M147.807,408.736c1.624,0.988,3.417,1.459,5.188,1.459c3.375,0,6.67-1.709,8.553-4.803  c2.871-4.718,1.373-10.87-3.345-13.741c-17.383-10.579-30.952-26.832-38.206-45.765c-1.977-5.159-7.76-7.738-12.916-5.76  c-5.157,1.976-7.736,7.758-5.76,12.916C110.151,376.089,126.66,395.868,147.807,408.736z"/><path data-cppathid="10011" d="M212.001,132.052c23.159,0,42-18.841,42-42s-18.841-42-42-42s-42,18.841-42,42S188.842,132.052,212.001,132.052z   M212.001,68.052c12.131,0,22,9.869,22,22s-9.869,22-22,22s-22-9.869-22-22S199.87,68.052,212.001,68.052z"/><path data-cppathid="10012" d="M257.484,212h-49.483c-5.522,0-10,4.477-10,10s4.478,10,10,10h130c5.522,0,10-4.477,10-10s-4.478-10-10-10h-9  c3.954-6.403,6.242-13.938,6.242-22c0-23.159-18.841-42-42-42s-42,18.841-42,42C251.242,198.062,253.53,205.597,257.484,212z   M293.242,168c12.131,0,22,9.869,22,22s-9.869,22-22,22c-12.131,0-22-9.869-22-22S281.11,168,293.242,168z"/><g/><g/><g/><g/><g/><g/><g/><g/><g/><g/><g/><g/><g/><g/><g/></svg>