<?xml version="1.0" encoding="UTF-8"?>
<svg xmlns="http://www.w3.org/2000/svg" onmouseup="{ if(window.parent.document.onmouseup) window.parent.document.onmouseup(arguments[0]);}" width="512" viewBox="0 0 512 512" height="512" enable-background="new 0 0 512 512" id="Capa_1"><g><g><path data-cppathid="10000" fill="#ffcebf" d="m203.77 97.591v52.97c0 10.31-8.36 18.68-18.69 18.68h-5.37v24.97h-45.36l4.65-27.377 4.3-69.243z"/><path data-cppathid="10001" fill="#ffb09e" d="m179.71 169.241v24.97h-12.67v-20.36c0-2.546 2.064-4.61 4.61-4.61z"/><path data-cppathid="10002" fill="#87523e" d="m223.42 83.361c.07 5.46-2.11 10.41-5.68 13.97-3.5 3.51-8.35 5.68-13.71 5.68h-40.5c-6.49 0-11.75 5.26-11.75 11.75v41.99c0 6.9-5.6 12.49-12.5 12.49h-27.27c-8.54 0-14.72-8.17-12.4-16.4l8.18-28.91c2.14-7.55 3.23-15.37 3.23-23.21v-.01c0-20.14 16.33-36.48 36.48-36.48h56.03c10.69 0 19.74 8.44 19.89 19.13z"/><path data-cppathid="10003" fill="#7c4b37" d="m147.53 103.011h16c-6.49 0-11.75 5.26-11.75 11.75v41.99c0 6.9-5.6 12.49-12.5 12.49h-16c6.9 0 12.5-5.59 12.5-12.49v-41.99c0-6.49 5.26-11.75 11.75-11.75z"/><path data-cppathid="10004" fill="#7c4b37" d="m223.42 83.361c.07 5.46-2.11 10.41-5.68 13.97-3.5 3.51-8.35 5.68-13.71 5.68h-16c5.36 0 10.21-2.17 13.71-5.68 3.57-3.56 5.75-8.51 5.68-13.97-.15-10.69-9.2-19.13-19.89-19.13h16c10.69 0 19.74 8.44 19.89 19.13z"/><path data-cppathid="10005" fill="#ffd15b" d="m192.96 197.84v140.88l-51.136 10.607-51.134-10.607 13.31-130.179c1.24-12.11 11.45-21.32 23.63-21.32h54.71c5.87-.001 10.62 4.749 10.62 10.619z"/><path data-cppathid="10006" fill="#ffc344" d="m192.96 197.84v140.88l-13.25 2.748-6.75-2.748v-140.88c0-5.87-4.75-10.62-10.62-10.62h20c5.87 0 10.62 4.75 10.62 10.62z"/><path data-cppathid="10007" fill="#5a5a5a" d="m243.39 338.72 9.61 30.23-9.61 30.23h-106.55c-27.1 0-48.67-22.73-47.24-49.79l1.09-10.67z"/><path data-cppathid="10008" fill="#444" d="m243.39 338.72 9.61 30.23-9.61 30.23h-24.64v-60.46z"/><path data-cppathid="10009" fill="#ddeafb" d="m305.56 254.771h119.28v32.03h-119.28z"/><path data-cppathid="10010" fill="#cbe2ff" d="m394.26 254.771h30.58v32.03h-30.58z"/><path data-cppathid="10011" fill="#5a5a5a" d="m187.66 423.9c-.23 13.34-11.5 23.87-24.84 23.87h-97.95c-31.69 0-57.37-25.69-57.37-57.37v-174.63c0-5.91 2.48-10.87 6.24-14.29 6.63-6.08 17.28-7.4 25.4-.85 2.16 1.72 3.89 3.87 5.13 6.28 1.22 2.4 1.96 5.07 2.1 7.83l8.54 161.24c.69 13.01 11.44 23.2 24.46 23.2h84c6.71 0 12.78 2.72 17.17 7.12 4.49 4.491 7.24 10.721 7.12 17.6z"/><path data-cppathid="10012" fill="#444" d="m79.37 399.18h-26.39c-13.02 0-23.77-10.19-24.46-23.2l-8.54-161.24c-.14-2.76-.88-5.43-2.1-7.83-1.04-2.03-2.43-3.87-4.14-5.43 6.63-6.08 17.28-7.4 25.4-.85 2.16 1.72 3.89 3.87 5.13 6.28 1.22 2.4 1.96 5.07 2.1 7.83l8.54 161.24c.69 13.01 11.44 23.2 24.46 23.2z"/><path data-cppathid="10013" fill="#444" d="m187.66 423.9c-.23 13.34-11.5 23.87-24.84 23.87h-26.39c13.34 0 24.61-10.53 24.84-23.87.12-6.88-2.63-13.11-7.12-17.6-4.39-4.4-10.46-7.12-17.17-7.12h26.39c6.71 0 12.78 2.72 17.17 7.12 4.49 4.491 7.24 10.721 7.12 17.6z"/><path data-cppathid="10014" fill="#ffcebf" d="m322.229 286.799h-39.121l-5.441-18.525 5.441-20.596c21.606 0 39.121 17.515 39.121 39.121z"/><path data-cppathid="10015" fill="#ffd15b" d="m283.11 247.68v39.12h-57.84c-14.23 0-27.76-6.22-37.01-17.03l-41.41-48.35c-8.36-9.77-5.62-23.39 3.29-30.11 3.36-2.54 7.6-4.1 12.45-4.1 2.94 0 5.81.63 8.44 1.8 2.63 1.18 5.02 2.91 6.99 5.1l33.49 37.36c9.25 10.32 22.44 16.21 36.29 16.21z"/><path data-cppathid="10016" fill="#ffc344" d="m247.8 247.68h-24.8c-13.85 0-27.05-5.89-36.29-16.21l-32.835-39.095c-.94-1.04-2.375-1.375-3.735-1.065 3.36-2.54 7.6-4.1 12.45-4.1 2.94 0 5.81.63 8.44 1.8 2.63 1.18 5.02 2.91 6.99 5.1l33.49 37.36c9.25 10.321 22.44 16.21 36.29 16.21z"/><path data-cppathid="10017" fill="#ddeafb" d="m504.5 321.297v126.47h-261.11v-126.466l170.61-8.801z"/><path data-cppathid="10018" fill="#cbe2ff" d="m504.5 321.301v126.467c0 .002-.002.003-.003.003h-34.267c4.29 0 7.77-3.48 7.77-7.77v-121.28z"/><path data-cppathid="10019" fill="#5a5a5a" d="m243.39 286.801h261.11v34.5h-261.11z"/><path data-cppathid="10020" fill="#444" d="m504.5 286.804v34.497h-26.5v-26.73c0-4.29-3.48-7.77-7.77-7.77h34.267c.001 0 .003.001.003.003z"/></g><g><path data-cppathid="10021" d="m504.5 279.299h-72.163v-23.369l30.236-95.612c1.248-3.949-.94-8.164-4.89-9.413-3.952-1.245-8.163.941-9.413 4.89l-28.928 91.477h-111.557c-7.162-4.488-15.619-7.093-24.677-7.093-22.133 0-49.576 4.625-66.011-13.711l-16.639-18.561v-10.071c0-8.302-5.619-15.301-13.249-17.436v-3.745c13.449-1.086 24.06-12.375 24.06-26.094v-41.036c13.242-3.673 21.778-17.377 19.179-30.865-2.439-12.66-14.108-21.929-26.918-21.929h-56.03c-24.25 0-43.98 19.729-43.98 43.99 0 7.148-.991 14.27-2.947 21.168l-8.182 28.917c-3.614 12.819 6.317 25.935 19.619 25.935h17.7l-.505 2.975c-16.462-.127-30.938 11.215-32.661 28.066l-13.317 130.162c-.671 6.713-1.611 13.28-.873 20.04 1.402 12.832 7.467 24.821 16.815 33.697h-19.8c-9.037 0-16.489-7.069-16.968-16.093l-8.542-161.223c-.743-14.792-13.974-26.565-28.754-25.512-13.989.997-25.105 12.902-25.105 26.913v174.634c0 35.769 29.1 64.869 64.869 64.869h97.949c24.445 0 40.761-27.462 27.55-48.588h18.054c4.142 0 7.5-3.357 7.5-7.5s-3.358-7.5-7.5-7.5h-71.579c-24.638 0-41.808-21.77-39.384-45.459h95.5 42.929v101.547c0 4.143 3.358 7.5 7.5 7.5h195.281c4.143 0 7.5-3.357 7.5-7.5s-3.357-7.5-7.5-7.5h-187.782v-111.474h246.113v111.474h-22.667c-4.143 0-7.5 3.357-7.5 7.5s3.357 7.5 7.5 7.5h30.167c4.143 0 7.5-3.357 7.5-7.5v-160.97c0-4.142-3.357-7.5-7.5-7.5zm-341.134 127.382c9.809 0 17.787 8.823 16.695 18.594-.957 8.564-8.743 14.994-17.244 14.994h-97.948c-27.498 0-49.869-22.371-49.869-49.869v-174.634c0-14.929 23.117-15.753 23.879-.628l8.543 161.243c.9 16.99 14.933 30.3 31.947 30.3zm127.242-150.604c11.424 2.789 20.434 11.799 23.223 23.223h-23.223zm38.51 23.222c-1.001-6.163-3.214-11.922-6.386-17.028h94.605v17.028zm-221.397-119.693c-1.031-1.361-1.356-3.086-.895-4.723l8.179-28.906c2.332-8.227 3.514-16.724 3.514-25.266 0-15.979 13-28.98 28.98-28.98h56.03c15.485 0 16.212 23.78.5 23.78h-40.5c-10.614 0-19.25 8.636-19.25 19.25v41.99c0 2.751-2.243 4.989-5 4.989h-27.269c-1.698.001-3.261-.778-4.289-2.134zm37.35 16.273c8.212-2.488 14.21-10.118 14.21-19.128v-41.99c0-2.344 1.907-4.25 4.25-4.25h32.74v40.05c0 6.164-5.02 11.18-11.19 11.18h-5.37c-4.142 0-7.5 3.357-7.5 7.5v10.475h-27.791zm-33.606 33.429c.851-8.319 7.799-14.593 16.162-14.593h10.037c-4.031 7.594-4.463 16.515-1.051 24.363 1.65 3.799 6.069 5.54 9.868 3.888 3.799-1.651 5.54-6.069 3.888-9.868-5.815-13.378 12.397-24.768 22.063-13.986l33.497 37.367c11.181 12.474 26.903 18.641 43.462 18.699 8.739.031 17.479 0 26.219 0v24.121l-50.338.003c-25.126 0-39.585-24.065-54.184-41.111-2.694-3.145-7.429-3.513-10.575-.817-3.146 2.694-3.512 7.429-.818 10.575 8.495 9.919 16.543 20.552 25.765 29.808v53.465h-86.467zm88.993 121.914v-42.704c11.383 5.599 23.107 5.785 35.429 5.785v36.92h-35.429zm50.429-17.427v-19.493l246.113-.003v19.496z"/><path data-cppathid="10022" d="m349.908 121.54c4.143 0 7.5-3.357 7.5-7.5v-16.36c0-4.143-3.357-7.5-7.5-7.5s-7.5 3.357-7.5 7.5v16.359c0 4.143 3.358 7.501 7.5 7.501z"/><path data-cppathid="10023" d="m305.243 124.798c1.232 2.817 3.986 4.497 6.876 4.497 1.003 0 2.023-.202 3.001-.63 3.795-1.66 5.526-6.082 3.867-9.877l-6.555-14.989c-1.66-3.795-6.083-5.526-9.877-3.867-3.795 1.66-5.526 6.082-3.867 9.877z"/><path data-cppathid="10024" d="m384.695 128.665c.978.429 1.997.631 3.001.631 2.89 0 5.644-1.68 6.875-4.497l6.556-14.989c1.66-3.795-.07-8.217-3.866-9.876-3.791-1.663-8.217.07-9.876 3.866l-6.556 14.989c-1.66 3.794.07 8.216 3.866 9.876z"/></g></g></svg>