<?xml version="1.0" encoding="UTF-8"?>
<svg xmlns="http://www.w3.org/2000/svg" onmouseup="{ if(window.parent.document.onmouseup) window.parent.document.onmouseup(arguments[0]);}" width="512pt" viewBox="0 0 512.00013 512" height="512pt"><path data-cppathid="10000" fill="#ff4949" d="m436.300781 75.398438c-49.5-49.5-114.902343-75.398438-180.300781-75.398438s-130.796875 25.898438-180.300781 75.398438c-100.933594 100.628906-100.933594 259.972656 0 360.601562 49.800781 49.796875 114.902343 75.699219 180.300781 75.699219s130.5-25.902344 180.300781-75.699219c100.933594-100.628906 100.933594-259.972656 0-360.601562zm-180.300781-15.699219c39.601562 0 79.199219 13 113.101562 37l-113.101562 113.097656-113.101562-113.097656c33.902343-24 73.5-37 113.101562-37zm-159 82.898437 113.101562 113.101563-113.101562 113.101562c-49.332031-69.683593-49.332031-156.519531 0-226.203125zm159 309.101563c-39.601562 0-79.199219-13.003907-113.101562-37l113.101562-113.101563 113.101562 113.101563c-33.902343 24-73.5 37-113.101562 37zm159-82.898438-113.097656-113.101562 113.097656-113.101563c49.335938 69.683594 49.335938 156.519532 0 226.203125zm0 0"/><path data-cppathid="10001" fill="#ff193d" d="m436.300781 75.398438c-49.5-49.5-114.902343-75.398438-180.300781-75.398438v59.699219c39.601562 0 79.199219 13 113.101562 37l-113.101562 113.097656v91.800781l113.101562 113.101563c-33.902343 24-73.5 37-113.101562 37v60c65.398438 0 130.5-25.902344 180.300781-75.699219 100.933594-100.628906 100.933594-259.972656 0-360.601562zm-21.300781 293.402343-113.097656-113.101562 113.097656-113.101563c49.335938 69.683594 49.335938 156.519532 0 226.203125zm0 0"/></svg>