<?xml version="1.0" encoding="UTF-8"?>
<svg xmlns="http://www.w3.org/2000/svg" onmouseup="{ if(window.parent.document.onmouseup) window.parent.document.onmouseup(arguments[0]);}" width="512" viewBox="0 0 512.005 512.005" height="512" enable-background="new 0 0 512.005 512.005" id="Capa_1"><g><path data-cppathid="10000" d="m497.002 193.005h-58v-81c0-4.012-1.653-7.867-4.393-10.606 0-.1-96.393-97.397-96.97-97.882-2.233-1.876-5.026-3.081-7.953-3.412-1.229-.137 11.111-.1-226.684-.1-16.542 0-30 13.458-30 30v163h-58c-8.284 0-15 6.716-15 15v224c0 8.284 6.716 15 15 15h58v35c0 16.542 13.458 30 30 30h306c16.542 0 30-13.458 30-30v-35h58c8.284 0 15-6.716 15-15v-224c0-8.285-6.716-15-15-15zm-154-140.787 44.787 44.787h-44.787zm-240-22.213h210v82c0 8.284 6.716 15 15 15h81v66h-306zm306 452h-306v-35h306zm73-65h-452v-194h452z"/><path data-cppathid="10001" d="m168.002 249.005h-80c-8.284 0-15 6.716-15 15s6.716 15 15 15h25v97c0 8.284 6.716 15 15 15s15-6.716 15-15v-97h25c8.284 0 15-6.716 15-15s-6.716-15-15-15z"/><path data-cppathid="10002" d="m272.582 260.331c-2.413-6.526-8.836-11.327-16.431-11.327-7.163 0-13.557 4.283-16.274 10.924-.12.294 1.781-4.725-41.905 110.769-3.732 9.865 3.619 20.311 14.027 20.311 6.057 0 11.762-3.696 14.032-9.697l5.412-14.307h49.156l5.361 14.274c2.912 7.756 11.564 11.681 19.315 8.769 7.756-2.913 11.682-11.561 8.769-19.316zm-29.791 76.674 13.318-35.208 13.223 35.208z"/><path data-cppathid="10003" d="m411.796 255.286-27.794 38.911-27.794-38.911c-4.815-6.742-14.184-8.302-20.925-3.488-6.741 4.815-8.303 14.183-3.487 20.925l33.772 47.281-33.772 47.281c-7.125 9.974.129 23.72 12.193 23.72 4.68 0 9.291-2.184 12.219-6.283l27.794-38.911 27.794 38.911c2.928 4.099 7.538 6.283 12.219 6.283 12.063 0 19.319-13.744 12.193-23.72l-33.772-47.281 33.772-47.281c4.815-6.741 3.254-16.109-3.487-20.925-6.739-4.814-16.109-3.253-20.925 3.488z"/><path data-cppathid="10004" d="m224.002 65.005h-72c-8.284 0-15 6.716-15 15s6.716 15 15 15h72c8.284 0 15-6.716 15-15s-6.716-15-15-15z"/><path data-cppathid="10005" d="m224.002 129.005h-72c-8.284 0-15 6.716-15 15s6.716 15 15 15h72c8.284 0 15-6.716 15-15s-6.716-15-15-15z"/></g></svg>