<?xml version="1.0" encoding="UTF-8"?>
<svg xmlns="http://www.w3.org/2000/svg" onmouseup="{ if(window.parent.document.onmouseup) window.parent.document.onmouseup(arguments[0]);}" width="512" viewBox="0 0 256 256" height="512" enable-background="new 0 0 256 256"><path data-cppathid="10000" fill="#b2e26d" d="m63.697 51.214v160.163c0 3.534 2.864 6.398 6.398 6.398h115.81c3.534 0 6.398-2.865 6.398-6.398v-160.163z"/><path data-cppathid="10001" fill="#c7d7e5" d="m229.739 2.5h-203.478c-6.388 0-11.615 5.227-11.615 11.615v74.198c0 6.388 5.227 11.615 11.615 11.615h37.436c0-17.308 0-34.224 0-48.714h128.606v48.714h37.436c6.388 0 11.615-5.227 11.615-11.615v-74.198c0-6.388-5.226-11.615-11.615-11.615z"/><path data-cppathid="10002" fill="#b2e26d" d="m185.905 217.776c-14.459 0-101.218 0-115.81 0-3.534 0-6.398-2.865-6.398-6.398v17.862c0 3.534 2.864 6.398 6.398 6.398h115.81c3.534 0 6.398-2.865 6.398-6.398v-17.862c0 3.533-2.864 6.398-6.398 6.398z"/><path data-cppathid="10003" fill="#b2e26d" d="m185.905 235.638c-14.459 0-101.218 0-115.81 0-3.534 0-6.398-2.865-6.398-6.398v17.862c0 3.534 2.864 6.398 6.398 6.398h115.81c3.534 0 6.398-2.865 6.398-6.398v-17.862c0 3.533-2.864 6.398-6.398 6.398z"/><path data-cppathid="10004" fill="#edf4fc" d="m201.848 24.151h-147.696c-9.862 0-17.856 7.994-17.856 17.856v2.029c0 3.965 3.214 7.179 7.179 7.179h169.05c3.965 0 7.179-3.214 7.179-7.179v-2.029c0-9.862-7.995-17.856-17.856-17.856z"/><path data-cppathid="10005" fill="#3a70bf" d="m63.697 51.214h-20.222c-3.965 0-7.179-3.214-7.179-7.179v27.063c0 3.965 3.214 7.179 7.179 7.179h20.222c0-9.319 0-18.431 0-27.063z"/><path data-cppathid="10006" fill="#3a70bf" d="m212.525 51.214h-20.222v27.064h20.222c3.965 0 7.179-3.214 7.179-7.179v-27.063c0 3.964-3.214 7.178-7.179 7.178z"/><path data-cppathid="10007" fill="#173f7f" d="m63.697 51.214h-16.947v13.652c0 1.599 1.297 2.896 2.896 2.896h14.051c0-5.658 0-11.195 0-16.548z"/><path data-cppathid="10008" fill="#173f7f" d="m192.303 51.214v16.548h14.051c1.599 0 2.896-1.296 2.896-2.896v-13.652z"/><g fill="#87d147"><path data-cppathid="10009" d="m192.303 211.378v-33.174c-21.855 0-39.572 17.717-39.572 39.572h33.174c3.534 0 6.398-2.864 6.398-6.398z"/><path data-cppathid="10010" d="m63.697 178.204v33.173c0 3.534 2.864 6.398 6.398 6.398h33.174c0-21.854-17.717-39.571-39.572-39.571z"/><path data-cppathid="10011" d="m192.303 211.378c0 3.534-2.864 6.398-6.398 6.398-4.367 0-15.333 0-28.91 0-2.721 5.367-4.264 11.433-4.264 17.862h33.174c3.534 0 6.398-2.865 6.398-6.398z"/><path data-cppathid="10012" d="m70.095 217.776c-3.534 0-6.398-2.865-6.398-6.398v17.862c0 3.534 2.864 6.398 6.398 6.398h33.174c0-6.429-1.543-12.495-4.264-17.862-13.554 0-24.512 0-28.91 0z"/><path data-cppathid="10013" d="m70.095 253.5h33.174c0-6.429-1.543-12.495-4.264-17.862-13.554 0-24.512 0-28.91 0-3.534 0-6.398-2.865-6.398-6.398v17.862c0 3.531 2.863 6.398 6.398 6.398z"/><path data-cppathid="10014" d="m185.905 235.638c-4.367 0-15.333 0-28.91 0-2.721 5.367-4.264 11.433-4.264 17.862h33.174c3.534 0 6.398-2.865 6.398-6.398v-17.862c0 3.533-2.864 6.398-6.398 6.398z"/><circle data-cppathid="10015" r="43.53" cy="109.997" cx="128"/></g><path data-cppathid="10016" fill="#f5c84c" d="m210.943 122.713c3.995.744 7.144 3.829 7.904 7.743.038.197.313.197.351 0 .76-3.914 3.908-6.999 7.904-7.743.201-.037.201-.306 0-.344-3.995-.744-7.144-3.829-7.904-7.743-.038-.197-.313-.197-.351 0-.76 3.914-3.908 6.999-7.904 7.743-.201.038-.201.307 0 .344z"/><path data-cppathid="10017" fill="#3caadc" d="m31.943 180.999h2.171v2.171c0 1.625 1.317 2.943 2.943 2.943s2.943-1.317 2.943-2.943v-2.171h2.171c1.625 0 2.943-1.317 2.943-2.943 0-1.625-1.317-2.943-2.943-2.943h-2.171v-2.171c0-1.625-1.317-2.943-2.943-2.943s-2.943 1.317-2.943 2.943v2.171h-2.171c-1.625 0-2.943 1.317-2.943 2.943s1.317 2.943 2.943 2.943z"/><path data-cppathid="10018" fill="#f5c84c" d="m50.14 200.048c1.415-.267 2.366-1.536 2.366-2.884 0-1.625-1.311-2.943-2.943-2.943-1.601 0-2.943 1.32-2.943 2.943.001 1.815 1.631 3.235 3.52 2.884z"/><path data-cppathid="10019" fill="#87d147" d="m206.986 148.048c1.942.35 3.52-1.102 3.52-2.884 0-1.575-1.266-2.943-2.943-2.943-1.583 0-2.943 1.309-2.943 2.943.001 1.4 1.008 2.627 2.366 2.884z"/><path data-cppathid="10020" fill="#ef4460" d="m39.986 123.048c1.94.35 3.52-1.099 3.52-2.884 0-1.625-1.311-2.943-2.943-2.943-1.601 0-2.943 1.32-2.943 2.943.001 1.4 1.008 2.627 2.366 2.884z"/><path data-cppathid="10021" d="m118.011 128.018c-6.887 0-12.49-5.603-12.49-12.489v-17.696c0-1.381 1.119-2.5 2.5-2.5s2.5 1.119 2.5 2.5v17.696c0 4.129 3.36 7.489 7.49 7.489 4.129 0 7.489-3.36 7.489-7.489v-11.064c0-6.887 5.603-12.49 12.489-12.49s12.489 5.603 12.489 12.49v15.681c0 1.381-1.119 2.5-2.5 2.5s-2.5-1.119-2.5-2.5v-15.681c0-4.13-3.359-7.49-7.489-7.49s-7.489 3.36-7.489 7.49v11.064c0 6.887-5.603 12.489-12.489 12.489z"/><path data-cppathid="10022" d="m154.812 112.497h-53.625c-1.381 0-2.5-1.119-2.5-2.5s1.119-2.5 2.5-2.5h53.625c1.381 0 2.5 1.119 2.5 2.5s-1.119 2.5-2.5 2.5z"/><path data-cppathid="10023" d="m128 186.042c-1.381 0-2.5-1.119-2.5-2.5v-9.85c0-1.381 1.119-2.5 2.5-2.5s2.5 1.119 2.5 2.5v9.85c0 1.381-1.119 2.5-2.5 2.5z"/><path data-cppathid="10024" d="m185.904 220.276h-115.809c-4.907 0-8.898-3.992-8.898-8.898v-160.164c0-1.381 1.119-2.5 2.5-2.5h128.606c1.381 0 2.5 1.119 2.5 2.5v160.164c0 4.906-3.992 8.898-8.899 8.898zm-119.707-166.562v157.664c0 2.149 1.749 3.898 3.898 3.898h115.809c2.149 0 3.898-1.749 3.898-3.898v-157.664z"/><path data-cppathid="10025" d="m229.739 102.429h-37.437c-1.381 0-2.5-1.119-2.5-2.5v-46.215h-123.605v46.214c0 1.381-1.119 2.5-2.5 2.5h-37.436c-7.783 0-14.115-6.332-14.115-14.115v-74.198c0-7.783 6.332-14.115 14.115-14.115h203.479c7.783 0 14.115 6.332 14.115 14.115v74.198c-.001 7.784-6.333 14.116-14.116 14.116zm-34.936-5h34.937c5.026 0 9.115-4.089 9.115-9.115v-74.199c0-5.026-4.089-9.115-9.115-9.115h-203.479c-5.026 0-9.115 4.089-9.115 9.115v74.198c0 5.026 4.089 9.115 9.115 9.115h34.936v-46.214c0-1.381 1.119-2.5 2.5-2.5h128.606c1.381 0 2.5 1.119 2.5 2.5z"/><path data-cppathid="10026" d="m185.904 238.138h-115.809c-4.907 0-8.898-3.992-8.898-8.898v-17.862c0-1.381 1.119-2.5 2.5-2.5s2.5 1.119 2.5 2.5c0 2.149 1.749 3.898 3.898 3.898h115.809c2.149 0 3.898-1.749 3.898-3.898 0-1.381 1.119-2.5 2.5-2.5s2.5 1.119 2.5 2.5v17.862c.001 4.906-3.991 8.898-8.898 8.898zm-119.707-18.763v9.864c0 2.149 1.749 3.898 3.898 3.898h115.809c2.149 0 3.898-1.749 3.898-3.898v-9.864c-1.178.577-2.501.9-3.898.9h-115.809c-1.397.001-2.72-.323-3.898-.9z"/><path data-cppathid="10027" d="m185.904 256h-115.809c-4.907 0-8.898-3.992-8.898-8.898v-17.862c0-1.381 1.119-2.5 2.5-2.5s2.5 1.119 2.5 2.5c0 2.149 1.749 3.898 3.898 3.898h115.809c2.149 0 3.898-1.749 3.898-3.898 0-1.381 1.119-2.5 2.5-2.5s2.5 1.119 2.5 2.5v17.862c.001 4.906-3.991 8.898-8.898 8.898zm-119.707-18.762v9.864c0 2.149 1.749 3.898 3.898 3.898h115.809c2.149 0 3.898-1.749 3.898-3.898v-9.864c-1.178.577-2.501.9-3.898.9h-115.809c-1.397 0-2.72-.324-3.898-.9z"/><path data-cppathid="10028" d="m212.525 53.714h-169.05c-5.337 0-9.679-4.342-9.679-9.679v-2.029c0-11.224 9.132-20.356 20.356-20.356h147.695c11.225 0 20.356 9.132 20.356 20.356v2.029c.001 5.338-4.341 9.679-9.678 9.679zm-158.373-27.063c-8.467 0-15.356 6.889-15.356 15.356v2.029c0 2.58 2.099 4.679 4.679 4.679h169.05c2.58 0 4.679-2.099 4.679-4.679v-2.029c0-8.467-6.889-15.356-15.356-15.356z"/><path data-cppathid="10029" d="m63.697 80.778h-20.222c-5.337 0-9.679-4.342-9.679-9.679v-27.063c0-1.381 1.119-2.5 2.5-2.5s2.5 1.119 2.5 2.5c0 2.58 2.099 4.679 4.679 4.679h20.222c1.381 0 2.5 1.119 2.5 2.5v27.063c0 1.381-1.119 2.5-2.5 2.5zm-24.901-28.272v18.593c0 2.58 2.099 4.679 4.679 4.679h17.722v-22.064h-17.722c-1.696 0-3.291-.438-4.679-1.208z"/><path data-cppathid="10030" d="m212.525 80.778h-20.223c-1.381 0-2.5-1.119-2.5-2.5v-27.064c0-1.381 1.119-2.5 2.5-2.5h20.223c2.58 0 4.679-2.099 4.679-4.679 0-1.381 1.119-2.5 2.5-2.5s2.5 1.119 2.5 2.5v27.063c0 5.338-4.342 9.68-9.679 9.68zm-17.722-5h17.723c2.58 0 4.679-2.099 4.679-4.679v-18.593c-1.388.77-2.983 1.208-4.679 1.208h-17.723z"/><path data-cppathid="10031" d="m63.697 70.263h-14.051c-2.976 0-5.396-2.42-5.396-5.396v-13.653c0-1.381 1.119-2.5 2.5-2.5h16.947c1.381 0 2.5 1.119 2.5 2.5v16.548c0 1.382-1.119 2.501-2.5 2.501zm-14.447-16.549v11.152c0 .218.178.396.396.396h11.551v-11.548z"/><path data-cppathid="10032" d="m206.354 70.263h-14.052c-1.381 0-2.5-1.119-2.5-2.5v-16.549c0-1.381 1.119-2.5 2.5-2.5h16.947c1.381 0 2.5 1.119 2.5 2.5v13.652c.001 2.976-2.42 5.397-5.395 5.397zm-11.551-5h11.552c.218 0 .396-.178.396-.396v-11.153h-11.947v11.549z"/><path data-cppathid="10033" d="m185.905 220.276h-33.174c-1.381 0-2.5-1.119-2.5-2.5 0-23.199 18.873-42.072 42.071-42.072 1.381 0 2.5 1.119 2.5 2.5v33.174c.001 4.907-3.99 8.898-8.897 8.898zm-30.591-5h30.591c2.149 0 3.897-1.749 3.897-3.898v-30.59c-18.454 1.233-33.253 16.033-34.488 34.488z"/><path data-cppathid="10034" d="m103.269 220.276h-33.174c-4.907 0-8.898-3.992-8.898-8.898v-33.174c0-1.381 1.119-2.5 2.5-2.5 23.199 0 42.072 18.874 42.072 42.072 0 1.381-1.119 2.5-2.5 2.5zm-37.072-39.488v30.59c0 2.149 1.749 3.898 3.898 3.898h30.59c-1.233-18.455-16.033-33.255-34.488-34.488z"/><path data-cppathid="10035" d="m185.905 238.138h-33.174c-1.381 0-2.5-1.119-2.5-2.5 0-6.667 1.525-13.057 4.534-18.993.426-.84 1.287-1.37 2.229-1.37h28.909c2.149 0 3.898-1.749 3.898-3.898 0-1.381 1.119-2.5 2.5-2.5s2.5 1.119 2.5 2.5v17.862c.002 4.907-3.989 8.899-8.896 8.899zm-30.592-5h30.592c2.149 0 3.897-1.749 3.897-3.898v-9.864c-1.178.577-2.501.9-3.898.9h-27.34c-1.866 4.081-2.956 8.392-3.251 12.862z"/><path data-cppathid="10036" d="m103.269 238.138h-33.174c-4.907 0-8.898-3.992-8.898-8.898v-17.862c0-1.381 1.119-2.5 2.5-2.5s2.5 1.119 2.5 2.5c0 2.149 1.749 3.898 3.898 3.898h28.91c.942 0 1.804.529 2.23 1.37 3.009 5.936 4.534 12.326 4.534 18.993 0 1.38-1.119 2.499-2.5 2.499zm-37.072-18.763v9.864c0 2.149 1.749 3.898 3.898 3.898h30.592c-.295-4.47-1.385-8.781-3.252-12.862h-27.34c-1.397.001-2.72-.323-3.898-.9z"/><path data-cppathid="10037" d="m103.269 256h-33.174c-4.907 0-8.898-3.992-8.898-8.898v-17.862c0-1.381 1.119-2.5 2.5-2.5s2.5 1.119 2.5 2.5c0 2.149 1.749 3.898 3.898 3.898h28.91c.942 0 1.804.529 2.23 1.37 3.009 5.934 4.534 12.324 4.534 18.992 0 1.381-1.119 2.5-2.5 2.5zm-37.072-18.762v9.864c0 2.149 1.749 3.898 3.898 3.898h30.592c-.295-4.471-1.384-8.781-3.251-12.862h-27.34c-1.398 0-2.721-.324-3.899-.9z"/><path data-cppathid="10038" d="m185.904 256h-33.173c-1.381 0-2.5-1.119-2.5-2.5 0-6.667 1.525-13.058 4.534-18.992.426-.84 1.287-1.37 2.229-1.37h28.909c2.149 0 3.898-1.749 3.898-3.898 0-1.381 1.119-2.5 2.5-2.5s2.5 1.119 2.5 2.5v17.862c.002 4.906-3.99 8.898-8.897 8.898zm-30.591-5h30.591c2.149 0 3.898-1.749 3.898-3.898v-9.864c-1.178.577-2.501.9-3.898.9h-27.34c-1.866 4.081-2.956 8.392-3.251 12.862z"/><path data-cppathid="10039" d="m128 156.027c-25.381 0-46.03-20.649-46.03-46.031s20.649-46.03 46.03-46.03 46.03 20.649 46.03 46.03-20.649 46.031-46.03 46.031zm0-87.061c-22.624 0-41.03 18.406-41.03 41.03 0 22.625 18.406 41.031 41.03 41.031s41.03-18.406 41.03-41.031c0-22.623-18.406-41.03-41.03-41.03z"/></svg>