<?xml version="1.0" encoding="UTF-8"?>
<svg xmlns="http://www.w3.org/2000/svg" onmouseup="{ if(window.parent.document.onmouseup) window.parent.document.onmouseup(arguments[0]);}" width="512" viewBox="0 0 512 512" height="512" enable-background="new 0 0 512 512" id="Layer_1"><g id="XMLID_1083_"><path data-cppathid="10000" fill="#f5737f" d="m276 117.958h-56.789c-25.374 0-49.463 5.499-71.146 15.363l-48.675-28.228c-5.462-3.168-12.303.773-12.303 7.088v67.661c-14.667 17.579-25.886 38.129-32.633 60.616h-26.704c-9.803 0-17.75 7.947-17.75 17.75v63.5c0 9.803 7.947 17.75 17.75 17.75h26.705c11.597 38.653 36.416 71.583 69.212 93.534v49.742c0 6.198 5.025 11.223 11.223 11.223h37.262c4.205 0 8.057-2.35 9.98-6.09l14.115-27.44c7.513 1.002 15.177 1.53 22.964 1.53h56.789c7.788 0 15.451-.527 22.964-1.53l14.115 27.44c1.923 3.739 5.776 6.09 9.98 6.09h37.262c6.199 0 11.223-5.025 11.223-11.223v-49.742c46.1-30.854 76.456-83.396 76.456-143.033 0-94.994-77.007-172.001-172-172.001z" id="XMLID_2172_"/><path data-cppathid="10001" fill="#f5737f" d="m276 461.958h-56.788c-94.993 0-172-77.007-172-172 0-94.993 77.007-172 172-172h56.788c94.993 0 172 77.007 172 172 0 94.993-77.007 172-172 172z" id="XMLID_2171_"/><circle data-cppathid="10002" r="97" fill="#ffcb7c" cy="115.042" cx="256" id="XMLID_2168_"/><path data-cppathid="10003" fill="#f5737f" d="m152.237 192.045c57.377-57.377 150.404-57.377 207.781 0l-80.849 97.913z" id="XMLID_2154_"/><g id="XMLID_169_"><path data-cppathid="10004" d="m476.691 229.341c-5.523 0-10 4.478-10 10s4.477 10 10 10c8.441 0 15.309 6.867 15.309 15.309s-6.867 15.309-15.309 15.309h-18.965c-1.705-31.298-11.397-61.51-28.292-87.929-16.826-26.31-40.038-47.779-67.424-62.484.644-4.773.99-9.613.99-14.503 0-59-48-107-107-107s-107 48-107 107c0 2.302.091 4.59.235 6.869-.178.074-.358.143-.535.218l-44.292-25.686c-5.695-3.303-12.502-3.313-18.208-.027-5.706 3.287-9.112 9.18-9.112 15.765v64.094c-13.09 16.332-23.127 34.516-29.914 54.184h-19.424c-15.301 0-27.75 12.448-27.75 27.75v63.5c0 15.302 12.449 27.75 27.75 27.75h19.427c12.329 35.628 35.65 66.784 66.489 88.779v44.498c0 11.702 9.521 21.223 21.224 21.223h37.262c7.988 0 15.22-4.412 18.873-11.515l10.957-21.3c5.741.541 11.511.814 17.23.814h56.788c5.719 0 11.49-.273 17.23-.814l10.957 21.3c3.653 7.103 10.885 11.515 18.873 11.515h37.262c11.703 0 21.224-9.521 21.224-21.223v-44.497c45.258-32.249 73.151-83.045 76.169-138.28h18.977c19.469 0 35.309-15.84 35.309-35.309s-15.84-35.31-35.31-35.31zm-220.691-201.299c47.972 0 87 39.028 87 87 0 15.355-3.963 30.134-11.504 43.247-14.504-7.933-30.003-13.412-45.884-16.427 2.27-4.198 3.557-8.936 3.557-13.953 0-17.108-14.879-31.027-33.169-31.027-7.261 0-13.169-4.946-13.169-11.026s5.908-11.026 13.169-11.026 13.169 4.946 13.169 11.026c0 5.522 4.477 10 10 10s10-4.478 10-10c0-13.849-9.752-25.605-23.169-29.582v-1.391c0-5.522-4.477-10-10-10s-10 4.478-10 10v1.391c-13.417 3.977-23.169 15.733-23.169 29.582 0 17.108 14.879 31.026 33.169 31.026 7.261 0 13.169 4.947 13.169 11.027s-5.908 11.026-13.169 11.026-13.169-4.946-13.169-11.026c0-5.522-4.477-10-10-10s-10 4.478-10 10c0 5.034 1.296 9.786 3.58 13.994-15.871 3.037-31.357 8.537-45.847 16.49-7.581-13.137-11.564-27.953-11.564-43.351 0-47.972 39.028-87 87-87zm109.983 396.641c-2.773 1.856-4.438 4.974-4.438 8.311v49.742c0 .674-.549 1.223-1.224 1.223h-37.261c-.46 0-.877-.254-1.088-.663l-14.115-27.44c-1.935-3.761-6.027-5.902-10.214-5.338-7.173.956-14.455 1.441-21.643 1.441h-56.788c-7.188 0-14.47-.485-21.643-1.441-4.196-.566-8.28 1.578-10.214 5.338l-14.115 27.44c-.21.409-.627.663-1.088.663h-37.262c-.675 0-1.224-.549-1.224-1.223v-49.742c0-3.337-1.665-6.454-4.438-8.311-31.279-20.937-54.433-52.224-65.196-88.099-1.269-4.229-5.162-7.126-9.578-7.126h-26.704c-4.273 0-7.75-3.477-7.75-7.75v-21.75h14c5.523 0 10-4.478 10-10s-4.477-10-10-10h-14v-21.75c0-4.273 3.477-7.75 7.75-7.75h26.705c4.416 0 8.309-2.896 9.578-7.126 6.294-20.98 16.634-40.186 30.733-57.084 1.5-1.798 2.322-4.064 2.322-6.406v-64.523l45.961 26.653c2.8 1.624 6.211 1.791 9.158.452.1-.045.201-.089.301-.134 2.461 9.389 6.204 18.398 11.167 26.837-6.474 4.726-12.668 10.005-18.509 15.847-3.905 3.905-3.905 10.237 0 14.143 3.905 3.904 10.237 3.904 14.143 0 53.386-53.387 140.252-53.387 193.638 0 1.953 1.952 4.512 2.929 7.071 2.929s5.119-.977 7.071-2.929c3.905-3.905 3.905-10.237 0-14.143-5.895-5.895-12.149-11.216-18.688-15.975 3.594-6.13 6.544-12.561 8.828-19.22 49.428 28.77 80.771 82.536 80.771 140.18 0 54.177-26.922 104.54-72.017 134.724z" id="XMLID_191_"/><path data-cppathid="10005" d="m123.67 219.96c-2.64 0-5.21 1.06-7.07 2.93-1.87 1.86-2.93 4.44-2.93 7.07s1.06 5.21 2.93 7.07c1.86 1.859 4.43 2.93 7.07 2.93 2.63 0 5.21-1.07 7.07-2.93s2.93-4.44 2.93-7.07-1.07-5.21-2.93-7.07c-1.87-1.87-4.44-2.93-7.07-2.93z" id="XMLID_733_"/></g></g></svg>