<?xml version="1.0" encoding="UTF-8"?>
<svg xmlns="http://www.w3.org/2000/svg" onmouseup="{ if(window.parent.document.onmouseup) window.parent.document.onmouseup(arguments[0]);}" width="512" viewBox="0 0 64 64" height="512" enable-background="new 0 0 64 64" id="Layer_2"><path data-cppathid="10000" fill="#80d6fb" d="m48.676 41.948-10.676-2.965h-6-6l-10.676 2.966c-4.329 1.202-7.324 5.143-7.324 9.635v10.416h24 24v-10.416c0-4.492-2.995-8.433-7.324-9.636z"/><path data-cppathid="10001" fill="#46bee8" d="m16 56h2v6h-2z"/><path data-cppathid="10002" fill="#46bee8" d="m38 38.983h-6-6l-1.973.548c.275 4.163 3.741 7.469 7.973 7.469s7.698-3.306 7.973-7.469z"/><path data-cppathid="10003" fill="#fcb98b" d="m38 31.983h-12v7l.001.001c0 .005-.001.01-.001.016 0 3.314 2.686 6 6 6s6-2.686 6-6c0-.006-.001-.011-.001-.017h.001z"/><path data-cppathid="10004" fill="#ffd3b3" d="m44 13.983v10.017c0 6.627-5.373 12-12 12-6.627 0-12-5.373-12-12v-10.017z"/><path data-cppathid="10005" fill="#ffd3b3" d="m44 17h.693c1.217 0 2.152 1.078 1.98 2.284l-.427 2.983c-.141.985-.985 1.716-1.98 1.716h-.266z"/><path data-cppathid="10006" fill="#ffd3b3" d="m20 17h-.693c-1.217 0-2.152 1.078-1.98 2.284l.427 2.983c.141.985.985 1.716 1.98 1.716h.266z"/><path data-cppathid="10007" fill="#6e83b7" d="m44 23.983-2-8h-10-10l-2 8v-11.983c0-5.523 4.477-10 10-10h5c2.209 0 4 1.791 4 4 2.761 0 5 2.239 5 5z"/><g fill="#ffb0aa"><path data-cppathid="10008" d="m53 10h-2v-7h-7v-2h9z"/><path data-cppathid="10009" d="m13 10h-2v-9h9v2h-7z"/><path data-cppathid="10010" d="m53 39h-9v-2h7v-7h2z"/><path data-cppathid="10011" d="m20 39h-9v-9h2v7h7z"/><path data-cppathid="10012" d="m11 19h42v2h-42z"/></g><circle data-cppathid="10013" r="10" fill="#98ca69" cy="52" cx="52"/><circle data-cppathid="10014" r="8" fill="#edeff1" cy="52" cx="52"/><path data-cppathid="10015" fill="#98ca69" d="m51 55.914-3.707-3.707 1.414-1.414 2.293 2.293 5.043-5.043 1.414 1.414z"/></svg>