<?xml version="1.0" encoding="UTF-8"?>
<svg xmlns="http://www.w3.org/2000/svg" onmouseup="{ if(window.parent.document.onmouseup) window.parent.document.onmouseup(arguments[0]);}" width="512" viewBox="0 0 64 64" height="512" enable-background="new 0 0 64 64" id="Layer_5"><g><path data-cppathid="10000" d="m12 20c.552 0 1 .448 1 1h2c0-1.302-.839-2.402-2-2.816v-2.184h-2v2.184c-1.161.414-2 1.514-2 2.816 0 1.654 1.346 3 3 3 .552 0 1 .448 1 1s-.448 1-1 1-1-.448-1-1h-2c0 1.302.839 2.402 2 2.816v2.184h2v-2.184c1.161-.414 2-1.514 2-2.816 0-1.654-1.346-3-3-3-.552 0-1-.448-1-1s.448-1 1-1z"/><path data-cppathid="10001" transform="matrix(.707 -.707 .707 .707 -1.941 27.314)" d="m22.101 15h19.799v2h-19.799z"/><path data-cppathid="10002" d="m36 17c-1.654 0-3 1.346-3 3s1.346 3 3 3 3-1.346 3-3-1.346-3-3-3zm0 4c-.552 0-1-.448-1-1s.448-1 1-1 1 .448 1 1-.448 1-1 1z"/><path data-cppathid="10003" d="m28 15c1.654 0 3-1.346 3-3s-1.346-3-3-3-3 1.346-3 3 1.346 3 3 3zm0-4c.552 0 1 .448 1 1s-.448 1-1 1-1-.448-1-1 .448-1 1-1z"/><path data-cppathid="10004" d="m52 20c.552 0 1 .448 1 1h2c0-1.302-.839-2.402-2-2.816v-2.184h-2v2.184c-1.161.414-2 1.514-2 2.816 0 1.654 1.346 3 3 3 .552 0 1 .448 1 1s-.448 1-1 1-1-.448-1-1h-2c0 1.302.839 2.402 2 2.816v2.184h2v-2.184c1.161-.414 2-1.514 2-2.816 0-1.654-1.346-3-3-3-.552 0-1-.448-1-1s.448-1 1-1z"/><path data-cppathid="10005" d="m52 12c-1.76 0-3.458.417-5 1.212v-.99l-2.802-.713c-.119-.318-.253-.639-.4-.956l1.479-2.489-5.342-5.342-2.489 1.479c-.317-.147-.638-.281-.956-.4l-.713-2.801h-7.555l-.712 2.802c-.318.119-.639.253-.956.4l-2.489-1.479-5.342 5.342 1.479 2.489c-.147.317-.281.638-.4.956l-2.802.713v.99c-1.542-.796-3.24-1.213-5-1.213-6.065 0-11 4.935-11 11s4.935 11 11 11c4.456 0 8.399-2.68 10.102-6.685l1.962 1.962 2.489-1.479c.317.147.638.281.956.4l.714 2.802h2.777v10.695c-1.992-2.834-5.28-4.695-9-4.695h-5v1c0 6.065 4.935 11 11 11h3v2h-2.469l-5 6h-6.149l-3 6h32.899l-1.5-6h-5.163l-1-2h-2.118l-3-4h-1.5v-2-1-3h3c6.065 0 11-4.935 11-11v-1h-5c-3.72 0-7.008 1.861-9 4.695v-6.695h2.777l.713-2.802c.318-.119.639-.253.956-.4l2.489 1.479 1.962-1.962c1.704 4.005 5.647 6.685 10.103 6.685 6.065 0 11-4.935 11-11s-4.935-11-11-11zm-17 43h-3.414l-2.293 2.293 1.414 1.414 1.707-1.707h5.968l1 2h4.837l.5 2h-27.101l1-2h5.851l5-6h4.031zm7-20h2.944c-.499 4.494-4.319 8-8.944 8h-2.944c.499-4.494 4.319-8 8.944-8zm-14 12c-4.625 0-8.445-3.506-8.944-8h2.944c4.625 0 8.445 3.506 8.944 8zm-16-15c-4.963 0-9-4.037-9-9s4.037-9 9-9c1.795 0 3.512.534 5 1.537v4.241l2.802.713c.119.318.253.639.4.956l-1.479 2.489 1.826 1.826c-1.19 3.698-4.625 6.238-8.549 6.238zm27.621-5.236-2.095-1.246-.493.255c-.56.289-1.126.526-1.685.705l-.528.168-.597 2.354h-4.445l-.598-2.354-.528-.168c-.559-.179-1.125-.416-1.685-.705l-.493-.255-2.095 1.246-3.143-3.143 1.246-2.095-.255-.493c-.289-.56-.526-1.126-.705-1.685l-.168-.528-2.354-.597v-4.445l2.354-.598.168-.528c.179-.559.416-1.125.705-1.685l.255-.493-1.246-2.095 3.143-3.143 2.095 1.246.493-.255c.56-.289 1.126-.526 1.685-.705l.528-.168.597-2.354h4.445l.598 2.354.528.168c.559.179 1.125.416 1.685.705l.493.255 2.095-1.246 3.143 3.143-1.246 2.095.255.493c.289.56.526 1.126.705 1.685l.168.528 2.354.597v4.445l-2.354.598-.168.528c-.179.559-.416 1.125-.705 1.685l-.255.493 1.246 2.095zm12.379 5.236c-3.924 0-7.359-2.54-8.549-6.238l1.826-1.826-1.479-2.489c.147-.317.281-.638.4-.956l2.802-.714v-4.241c1.488-1.002 3.205-1.536 5-1.536 4.963 0 9 4.037 9 9s-4.037 9-9 9z"/></g></svg>