<?xml version="1.0" encoding="UTF-8"?>
<svg xmlns="http://www.w3.org/2000/svg" onmouseup="{ if(window.parent.document.onmouseup) window.parent.document.onmouseup(arguments[0]);}" height="512" width="512" viewBox="0 0 512 512" data-name="Layer 1" id="Layer_1"><title/><path data-cppathid="10000" style="fill:#6fe3ff" d="M486,194.75v52.79l-38.65,3.77a144.891,144.891,0,0,1-20.27,48.08l24.98,30.16-37.23,37.24-30.17-24.98a140.872,140.872,0,0,1-48.08,20.27l-3.77,39.12H307.19a152.1,152.1,0,0,0,24.57-80.55l.46.01A102.8,102.8,0,1,0,217.25,169.98a153.03,153.03,0,0,0-38.36-4.85q-2.565,0-5.1.09v-.01a154.248,154.248,0,0,1,11.96-22.31l-24.98-30.16L198.01,75.5l30.17,24.98a140.821,140.821,0,0,1,48.07-20.27l3.77-39.12h52.79l3.77,39.12a144.891,144.891,0,0,1,48.08,20.27L414.83,75.5l36.76,37.24L426.61,142.9a140.872,140.872,0,0,1,20.27,48.08Z"/><path data-cppathid="10001" style="fill:#e48e66" d="M217.25,169.98A152.961,152.961,0,0,1,331.78,318.02c0,.88-.01,1.75-.02,2.63A152.891,152.891,0,1,1,173.79,165.22q2.535-.09,5.1-.09A153.03,153.03,0,0,1,217.25,169.98Z"/><path data-cppathid="10002" style="fill:#f8ec7d" d="M226.464,280.561l-21.453-.231a46.419,46.419,0,0,0-13.017-27.217q-.867-.885-1.774-1.717l36.555.394h.066a6,6,0,0,0,.063-12l-67.83-.73h0l-27.2-.29a6,6,0,0,0-.128,12l27.2.29h0a34.77,34.77,0,0,1,33.935,29.14l-61.437-.659a6,6,0,1,0-.129,12l61.428.659a34.9,34.9,0,0,1-34.153,28.4h-.4l-27.19-.29h-.065a6,6,0,0,0-4.167,10.316l67.27,64.96a6,6,0,1,0,8.336-8.632L145.957,332.47l12.173.13h.46a46.939,46.939,0,0,0,46.284-40.271l21.461.231h.066a6,6,0,0,0,.063-12Z"/></svg>