<?xml version="1.0" encoding="UTF-8"?>
<svg xmlns="http://www.w3.org/2000/svg" onmouseup="{ if(window.parent.document.onmouseup) window.parent.document.onmouseup(arguments[0]);}" width="512" viewBox="0 0 128 128" height="512"><g data-name="Circle Grid" id="Circle_Grid"><circle data-cppathid="10000" r="64" fill="#2cbfae" cy="64" cx="64"/></g><g id="icon"><path data-cppathid="10001" fill="#eeefee" d="m78.051 35.281c-.468-6.381-6.571-11.44-14.051-11.44s-13.583 5.059-14.051 11.44z"/><path data-cppathid="10002" fill="#eeefee" d="m46.847 38.431h34.306v57.964h-34.306z"/><path data-cppathid="10003" fill="#eeefee" d="m81.153 50.844h11.104v45.556h-11.104z"/><path data-cppathid="10004" fill="#eeefee" d="m92.257 67.989h10.347v28.411h-10.347z"/><path data-cppathid="10005" fill="#eeefee" d="m35.743 50.844h11.104v45.556h-11.104z"/><path data-cppathid="10006" fill="#eeefee" d="m25.396 67.989h10.347v28.411h-10.347z"/><path data-cppathid="10007" fill="#69b0ee" d="m49.903 42.297h28.148v7.372h-28.148z"/><path data-cppathid="10008" fill="#69b0ee" d="m49.903 53.376h28.148v7.372h-28.148z"/><path data-cppathid="10009" fill="#69b0ee" d="m49.903 64.455h28.148v7.372h-28.148z"/><path data-cppathid="10010" fill="#69b0ee" d="m83.251 53.376h6.901v6.013h-6.901z"/><path data-cppathid="10011" fill="#69b0ee" d="m83.251 61.98h6.901v6.013h-6.901z"/><path data-cppathid="10012" fill="#69b0ee" d="m83.251 70.585h6.901v6.013h-6.901z"/><path data-cppathid="10013" fill="#69b0ee" d="m83.251 79.189h6.901v6.013h-6.901z"/><path data-cppathid="10014" fill="#69b0ee" d="m83.251 87.793h6.901v6.013h-6.901z"/><path data-cppathid="10015" fill="#69b0ee" d="m93.978 70.585h6.901v6.013h-6.901z"/><path data-cppathid="10016" fill="#69b0ee" d="m93.978 79.189h6.901v6.013h-6.901z"/><path data-cppathid="10017" fill="#69b0ee" d="m93.978 87.793h6.901v6.013h-6.901z"/><path data-cppathid="10018" fill="#69b0ee" d="m37.848 53.376h6.901v6.013h-6.901z"/><path data-cppathid="10019" fill="#69b0ee" d="m37.848 61.98h6.901v6.013h-6.901z"/><path data-cppathid="10020" fill="#69b0ee" d="m37.848 70.585h6.901v6.013h-6.901z"/><path data-cppathid="10021" fill="#69b0ee" d="m37.848 79.189h6.901v6.013h-6.901z"/><path data-cppathid="10022" fill="#69b0ee" d="m37.848 87.793h6.901v6.013h-6.901z"/><path data-cppathid="10023" fill="#69b0ee" d="m27.121 70.585h6.901v6.013h-6.901z"/><path data-cppathid="10024" fill="#69b0ee" d="m27.121 79.189h6.901v6.013h-6.901z"/><path data-cppathid="10025" fill="#69b0ee" d="m27.121 87.793h6.901v6.013h-6.901z"/><path data-cppathid="10026" fill="#dbd8dd" d="m49.164 34.765h29.673v3.665h-29.673z"/><path data-cppathid="10027" fill="#575b6d" d="m55.964 76.598h16.126v19.797h-16.126z"/><path data-cppathid="10028" fill="#575b6d" d="m23.385 96.149h81.229v3.351h-81.229z"/><g fill="#eeefee"><path data-cppathid="10029" opacity=".5" d="m94.892 93.807h-.35l3.217-6.014h.35z"/><path data-cppathid="10030" opacity=".5" d="m97.089 93.807h-1.176l3.217-6.014h1.176z"/><path data-cppathid="10031" opacity=".5" d="m94.892 85.201h-.35l3.217-6.013h.35z"/><path data-cppathid="10032" opacity=".5" d="m97.089 85.201h-1.176l3.217-6.013h1.176z"/><path data-cppathid="10033" opacity=".5" d="m94.892 76.596h-.35l3.217-6.013h.35z"/><path data-cppathid="10034" opacity=".5" d="m97.089 76.596h-1.176l3.217-6.013h1.176z"/><path data-cppathid="10035" opacity=".5" d="m84.17 59.389h-.351l3.217-6.013h.351z"/><path data-cppathid="10036" opacity=".5" d="m86.366 59.389h-1.175l3.217-6.013h1.175z"/><path data-cppathid="10037" opacity=".5" d="m38.764 59.389h-.351l3.217-6.013h.351z"/><path data-cppathid="10038" opacity=".5" d="m40.96 59.389h-1.175l3.217-6.013h1.175z"/><path data-cppathid="10039" opacity=".5" d="m38.764 67.994h-.351l3.217-6.014h.351z"/><path data-cppathid="10040" opacity=".5" d="m40.96 67.994h-1.175l3.217-6.014h1.175z"/><path data-cppathid="10041" opacity=".5" d="m38.764 76.598h-.351l3.217-6.013h.351z"/><path data-cppathid="10042" opacity=".5" d="m40.96 76.598h-1.175l3.217-6.013h1.175z"/><path data-cppathid="10043" opacity=".5" d="m38.764 85.202h-.351l3.217-6.013h.351z"/><path data-cppathid="10044" opacity=".5" d="m40.96 85.202h-1.175l3.217-6.013h1.175z"/><path data-cppathid="10045" opacity=".5" d="m38.764 93.807h-.351l3.217-6.014h.351z"/><path data-cppathid="10046" opacity=".5" d="m40.96 93.807h-1.175l3.217-6.014h1.175z"/><path data-cppathid="10047" opacity=".5" d="m28.04 93.807h-.351l3.217-6.014h.351z"/><path data-cppathid="10048" opacity=".5" d="m30.236 93.807h-1.175l3.217-6.014h1.175z"/><path data-cppathid="10049" opacity=".5" d="m28.04 85.201h-.351l3.217-6.013h.351z"/><path data-cppathid="10050" opacity=".5" d="m30.236 85.201h-1.175l3.217-6.013h1.175z"/><path data-cppathid="10051" opacity=".5" d="m28.04 76.596h-.351l3.217-6.013h.351z"/><path data-cppathid="10052" opacity=".5" d="m30.236 76.596h-1.175l3.217-6.013h1.175z"/><path data-cppathid="10053" opacity=".5" d="m84.17 67.994h-.351l3.217-6.014h.351z"/><path data-cppathid="10054" opacity=".5" d="m86.366 67.994h-1.175l3.217-6.014h1.175z"/><path data-cppathid="10055" opacity=".5" d="m57.247 60.748h-1.035l9.498-7.372h1.035z"/><path data-cppathid="10056" opacity=".5" d="m63.731 60.748h-3.47l9.497-7.372h3.471z"/><path data-cppathid="10057" opacity=".5" d="m57.247 49.669h-1.035l9.498-7.372h1.035z"/><path data-cppathid="10058" opacity=".5" d="m63.731 49.669h-3.47l9.497-7.372h3.471z"/><path data-cppathid="10059" opacity=".5" d="m57.247 71.827h-1.035l9.498-7.372h1.035z"/><path data-cppathid="10060" opacity=".5" d="m63.731 71.827h-3.47l9.497-7.372h3.471z"/><path data-cppathid="10061" opacity=".5" d="m84.17 76.598h-.351l3.217-6.013h.351z"/><path data-cppathid="10062" opacity=".5" d="m86.366 76.598h-1.175l3.217-6.013h1.175z"/><path data-cppathid="10063" opacity=".5" d="m84.17 85.202h-.351l3.217-6.013h.351z"/><path data-cppathid="10064" opacity=".5" d="m86.366 85.202h-1.175l3.217-6.013h1.175z"/><path data-cppathid="10065" opacity=".5" d="m84.17 93.807h-.351l3.217-6.014h.351z"/><path data-cppathid="10066" opacity=".5" d="m86.366 93.807h-1.175l3.217-6.014h1.175z"/><path data-cppathid="10067" d="m65.735 27.458h-3.47l1.422-10.958h.626z"/></g></g></svg>