<?xml version="1.0" encoding="UTF-8"?>
<svg xmlns="http://www.w3.org/2000/svg" onmouseup="{ if(window.parent.document.onmouseup) window.parent.document.onmouseup(arguments[0]);}" viewBox="0 0 100 100" height="100" width="100" xmlns:xlink="http://www.w3.org/1999/xlink"><g><g style="fill:#FFFFFF" transform="translate(50 50) scale(0.69 0.69) rotate(0) translate(-50 -50)"><svg y="0px" x="0px" viewBox="0 0 100 100" data-name="Layer 1" fill="#FFFFFF"><title/><g data-name="Group"><path data-cppathid="10000" d="M76.43,7.94a4,4,0,0,0-3.09,7.38,17.2,17.2,0,0,1,9,10.92A4,4,0,0,0,90,24.13,25.32,25.32,0,0,0,76.43,7.94Z" data-name="Path"/><path data-cppathid="10001" d="M13.83,29.19a4,4,0,0,0,3.86-2.95,17.2,17.2,0,0,1,9-10.92,4,4,0,0,0-3.09-7.38A25.32,25.32,0,0,0,10,24.13a4,4,0,0,0,3.86,5.05Z" data-name="Path"/><path data-cppathid="10002" d="M61.2,45.34H52.91V32a4,4,0,0,0-8,0V49.34a4,4,0,0,0,4,4H61.2a4,4,0,0,0,0-8Z" data-name="Path"/><path data-cppathid="10003" d="M86.14,47.8A36.14,36.14,0,1,0,26.85,75.53a4,4,0,0,0-1.55,1.25L18.51,86A4,4,0,1,0,25,90.73l6.78-9.22a4,4,0,0,0,.76-2.1,36,36,0,0,0,35,0,4,4,0,0,0,.76,2.1L75,90.73A4,4,0,1,0,81.49,86L74.7,76.77a4,4,0,0,0-1.55-1.25A36.07,36.07,0,0,0,86.14,47.8Zm-64.28,0A28.14,28.14,0,1,1,50,75.94,28.17,28.17,0,0,1,21.86,47.8Z" data-name="Compound Path"/></g></svg></g></g></svg>