<?xml version="1.0" encoding="UTF-8"?>
<svg xmlns="http://www.w3.org/2000/svg" onmouseup="{ if(window.parent.document.onmouseup) window.parent.document.onmouseup(arguments[0]);}" width="512" viewBox="0 0 52 60" height="512"><g fill-rule="evenodd" fill="none" id="Page-1"><g fill-rule="nonzero" id="011---Approved-Cleaning"><rect data-cppathid="10000" y="33" x="1" width="11" rx="3" height="26" fill="#ff9801" id="Rectangle-path"/><path data-cppathid="10001" fill="#f57c00" d="m9 33h-3c1.65685425 0 3 1.3431458 3 3v20c0 1.6568542-1.34314575 3-3 3h3c1.6568542 0 3-1.3431458 3-3v-20c0-1.6568542-1.3431458-3-3-3z" id="Shape"/><path data-cppathid="10002" fill="#ffe0b2" d="m45 47h-2c1.6568542.0000001 2.9999999 1.3431458 2.9999999 3s-1.3431457 2.9999999-2.9999999 3h-2c1.6568542 0 3 1.3431458 3 3s-1.3431458 3-3 3h-18c-1.5299876.0240078-3.0505061-.2441194-4.48-.79-.98-.39-1.84-1.02-2.79-1.48-1.0086277-.4815311-2.1123234-.7309732-3.23-.73h-.5v-20c2.0356596-.002265 4.0278866-.5888266 5.74-1.69 3.61-2.3 9.08-6.48 7.9-11.8-.4-1.79-.55-3.54 1.36-4.51 2.12-1.08 4.15.29 5.14 2.02 3.33 5.83-2.49 14.98-2.49 14.98h14.35c1.6568542 0 3 1.3431458 3 3s-1.3431458 3-3 3h1c1.6568542 0 3 1.3431458 3 3s-1.3431458 3-3 3z" id="Shape"/><path data-cppathid="10003" fill="#dfc49c" d="m47.12 46.12c.8568812-.8579473 1.1130328-2.1473683.6491479-3.2676941-.4638849-1.1203257-1.5565813-1.8512394-2.7691479-1.8523059h-1c1.6568542 0 3-1.3431458 3-3s-1.3431458-3-3-3h-3c1.6568542 0 3 1.3431458 3 3s-1.3431458 3-3 3h1c1.6568542 0 3 1.3431458 3 3s-1.3431458 3-3 3h-2c1.6568542.0000001 2.9999999 1.3431458 2.9999999 3s-1.3431457 2.9999999-2.9999999 3h-2c1.6568542 0 3 1.3431458 3 3s-1.3431458 3-3 3h3c1.6568542 0 3-1.3431458 3-3s-1.3431458-3-3-3h2c1.6568542 0 3-1.3431458 3-3s-1.3431458-3-3-3h2c.7955351.0000702 1.5583676-.3165773 2.12-.88z" id="Shape"/><path data-cppathid="10004" fill="#dfc49c" d="m29.14 20.02c2.222 3.89.37 9.259-1.109 12.4-.2679394.5572498-.2311057 1.2130218.0975513 1.7367616.3286569.5237399.9031303.8421325 1.5214487.8432384 0 0 5.82-9.15 2.49-14.98-.983-1.719-2.993-3.079-5.1-2.038.8846083.4588389 1.6148647 1.1675353 2.1 2.038z" id="Shape"/><path data-cppathid="10005" fill="#ffdc00" d="m48.019 11c-9.01 0-9.01-10-9.01-10s0 10-9.009 10c9.009 0 9.009 10 9.009 10s0-10 9.01-10z" id="Shape"/><path data-cppathid="10006" fill="#ffdc00" d="m18 20c-6 0-6-7-6-7s0 7-6 7c6 0 6 7 6 7s0-7 6-7z" id="Shape"/><g fill="#000"><path data-cppathid="10007" d="m49 44c-.0041801-1.408833-.751568-2.7108693-1.966-3.425.6198307-.7150416.9625898-1.628711.966-2.575 0-2.209139-1.790861-4-4-4h-12.632c1.564-2.978 4.406-9.635 1.64-14.477-1.217-2.127-3.76-3.791-6.461-2.415-2.818 1.432-2.187 4.261-1.883 5.619.775 3.484-1.734 7.1-7.458 10.74-1.3162819.8343524-2.8142205 1.3392679-4.367 1.472-.473739-1.7311054-2.0442512-2.9334328-3.839-2.939h-5c-2.209139 0-4 1.790861-4 4v20c0 2.209139 1.790861 4 4 4h5c1.8104333-.0071388 3.39035-1.2294004 3.852-2.98.8491017.044603 1.6813312.2545286 2.45.618.386.183.755.4 1.125.614.5520563.3367105 1.1271464.6341133 1.721.89 1.5483543.5908661 3.1949103.8820337 4.852.858h18c1.4787554-.0007379 2.8364648-.8172556 3.5303277-2.1231163.6938628-1.3058608.6106665-2.8879969-.2163277-4.1138837 1.1723009-.4034418 2.0898053-1.3298886 2.4818582-2.5060473.3920529-1.1761586.2139174-2.4678187-.4818582-3.4939527 1.6108112-.5469863 2.6921179-2.0618624 2.686-3.763zm-40 14h-5c-1.1045695 0-2-.8954305-2-2v-20c0-1.1045695.8954305-2 2-2h5c1.1045695 0 2 .8954305 2 2v20c0 1.1045695-.8954305 2-2 2zm37.413-12.587c-.3735065.3768159-.8824382.5882405-1.413.587h-7c-.5522847 0-1 .4477153-1 1s.4477153 1 1 1h5c1.1045695 0 2 .8954305 2 2s-.8954305 2-2 2h-5c-.5522847 0-1 .4477153-1 1s.4477153 1 1 1h3c1.1045695 0 2 .8954305 2 2s-.8954305 2-2 2h-18c-1.3994236.0244458-2.790753-.2171704-4.1-.712-.5067714-.221097-.9976136-.4770433-1.469-.766-.416-.242-.834-.482-1.267-.689-.9935262-.4673219-2.0677541-.7389346-3.164-.8v-18.082c1.8788757-.1664529 3.689819-.7839369 5.279-1.8 6.51-4.142 9.315-8.469 8.337-12.863-.452-2.023-.249-2.849.838-3.4 1.764-.9 3.231.6 3.818 1.625 2.989 5.234-2.411 13.861-2.466 13.948-.1971327.308062-.2103632.6991683-.0344998 1.0198482.1758634.3206798.5127634.5197718.8784998.5191518h14.35c1.1045695 0 2 .8954305 2 2s-.8954305 2-2 2h-6c-.5522847 0-1 .4477153-1 1s.4477153 1 1 1h7c.8081708.0009798 1.5363294.4882522 1.8454705 1.2349602s.1385032 1.6060869-.4324705 2.1780398z" id="Shape"/><path data-cppathid="10008" d="m39.009 0c-.5411549-.0002276-.9843066.43007261-1 .971v.021.008c0 .368-.091 9-8.009 9-.5522847 0-1 .4477153-1 1s.4477153 1 1 1c7.887 0 8.008 8.634 8.009 9-.0074558.5522847.4342153 1.0060442.9865 1.0135s1.0060442-.4342153 1.0135-.9865v-.021-.006c0-.368.091-9 8.01-9 .5522847 0 1-.4477153 1-1s-.4477153-1-1-1c-7.888 0-8.008-8.634-8.01-9 0-.55228475-.4477153-1-1-1zm4.451 11c-2.0477501 1.0802193-3.6305499 2.8710483-4.451 5.036-.8199684-2.1652424-2.4029022-3.956223-4.451-5.036 2.0480978-1.07977697 3.6310316-2.87075761 4.451-5.036.8204501 2.16495172 2.4032499 3.95578073 4.451 5.036z" id="Shape"/><path data-cppathid="10009" d="m13 13v-.006c-.0016569-.5522847-.4507153-.9986568-1.003-.997-.5522847.0016569-.9986568.4507153-.997 1.003 0 .245-.084 6-5 6-.55228475 0-1 .4477153-1 1s.44771525 1 1 1c4.916 0 5 5.757 5 6v.006c.0016569.5522847.4507153.9986568 1.003.997.5522847-.0016569.9986568-.4507153.997-1.003 0-.245.084-6 5-6 .5522847 0 1-.4477153 1-1s-.4477153-1-1-1c-4.916 0-5-5.757-5-6zm1.344 7c-1.0125793.6754027-1.8227409 1.6131025-2.344 2.713-.5212591-1.0998975-1.3314207-2.0375973-2.344-2.713 1.0127803-.6751749 1.8229954-1.6129367 2.344-2.713.5210046 1.1000633 1.3312197 2.0378251 2.344 2.713z" id="Shape"/><path data-cppathid="10010" d="m48 22c0-.5522847-.4477153-1-1-1s-1 .4477153-1 1v2c0 .5522847.4477153 1 1 1s1-.4477153 1-1z" id="Shape"/><path data-cppathid="10011" d="m47 31c.5522847 0 1-.4477153 1-1v-2c0-.5522847-.4477153-1-1-1s-1 .4477153-1 1v2c0 .5522847.4477153 1 1 1z" id="Shape"/><path data-cppathid="10012" d="m51 27c.5522847 0 1-.4477153 1-1s-.4477153-1-1-1h-2c-.5522847 0-1 .4477153-1 1s.4477153 1 1 1z" id="Shape"/><path data-cppathid="10013" d="m45 25h-2c-.5522847 0-1 .4477153-1 1s.4477153 1 1 1h2c.5522847 0 1-.4477153 1-1s-.4477153-1-1-1z" id="Shape"/><path data-cppathid="10014" d="m21.793 9.207 1.5 1.5c.3923789.3789722 1.0160848.3735524 1.4018186-.0121814s.3911536-1.00943971.0121814-1.4018186l-1.5-1.5c-.2510745-.25995658-.6228779-.3642126-.9725073-.27269716-.3496295.09151544-.6226744.3645604-.7141899.71418984-.0915154.34962943.0127406.72143285.2726972.97250732z" id="Shape"/><path data-cppathid="10015" d="m18.793 6.207c.3923789.37897221 1.0160848.37355237 1.4018186-.01218142.3857338-.3857338.3911536-1.00943969.0121814-1.40181858l-1.5-1.5c-.3923789-.37897221-1.0160848-.37355237-1.4018186.01218142-.3857338.3857338-.3911536 1.00943969-.0121814 1.40181858z" id="Shape"/><path data-cppathid="10016" d="m17.293 10.707c.3904999.3903819 1.0235001.3903819 1.414 0l1.5-1.5c.2599566-.25107447.3642126-.62287789.2726972-.97250732-.0915155-.34962944-.3645604-.6226744-.7141899-.71418984-.3496294-.09151544-.7214328.01274058-.9725073.27269716l-1.5 1.5c-.3903819.39049985-.3903819 1.0235001 0 1.414z" id="Shape"/><path data-cppathid="10017" d="m22.5 6.5c.2651948-.00005664.5195073-.10545063.707-.293l1.5-1.5c.2599566-.25107447.3642126-.62287789.2726972-.97250732-.0915155-.34962944-.3645604-.6226744-.7141899-.71418984-.3496294-.09151544-.7214328.01274058-.9725073.27269716l-1.5 1.5c-.2859079.28599425-.3714219.71603662-.216678 1.08965456s.5192821.61725909.923678.61734544z" id="Shape"/></g></g></g></svg>