<?xml version="1.0" encoding="UTF-8"?>
<svg xmlns="http://www.w3.org/2000/svg" onmouseup="{ if(window.parent.document.onmouseup) window.parent.document.onmouseup(arguments[0]);}" xml:space="preserve" style="enable-background:new 0 0 512 512;" viewBox="0 0 512 512" y="0px" x="0px" id="Capa_1" version="1.1" xmlns:xlink="http://www.w3.org/1999/xlink"><path data-cppathid="10000" d="M329.155,149.852v-27.367c0-2.836-2.318-5.157-5.151-5.157H219.363c-2.833,0-5.151,2.321-5.151,5.157  v27.367c0,2.836,2.318,5.157,5.151,5.157c-2.833,0-5.151,2.321-5.151,5.157v27.368c0,2.836,2.318,5.157,5.151,5.157  c-2.833,0-5.151,2.321-5.151,5.157v27.368c0,2.836,2.318,5.157,5.151,5.157c-2.833,0-5.151,2.32-5.151,5.157v27.367  c0,2.836,2.318,5.157,5.151,5.157c-2.833,0-5.151,2.321-5.151,5.157v27.368c0,2.836,2.318,5.157,5.151,5.157h104.641  c2.833,0,5.151-2.32,5.151-5.157v-27.368c0-2.836-2.318-5.157-5.151-5.157c2.833,0,5.151-2.32,5.151-5.157v-27.367  c0-2.836-2.318-5.157-5.151-5.157c2.833,0,5.151-2.321,5.151-5.157v-27.368c0-2.836-2.318-5.157-5.151-5.157  c2.833,0,5.151-2.321,5.151-5.157v-27.368c0-2.836-2.318-5.157-5.151-5.157C326.837,155.007,329.155,152.688,329.155,149.852z" style="fill:#F8B816;"/><path data-cppathid="10001" d="M146.213,226.691h-98.22c-2.833,0-5.151,2.32-5.151,5.156v68.728c0,2.836,2.318,5.157,5.151,5.157  h98.22V226.691z" style="fill:#4B7D32;"/><rect data-cppathid="10002" height="79.04" width="74.79" style="fill:#FED0A5;" y="226.689" x="146.21"/><rect data-cppathid="10003" height="79.04" width="35.711" style="fill:#EBB272;" y="226.689" x="146.21"/><g><path data-cppathid="10004" d="M102.421,271.439H42.843v15h59.578c4.142,0,7.5-3.358,7.5-7.5   C109.921,274.796,106.563,271.439,102.421,271.439z" style="fill:#60A041;"/><path data-cppathid="10005" d="M82.995,245.985H42.843v15h40.152c4.142,0,7.5-3.358,7.5-7.5   C90.495,249.343,87.137,245.985,82.995,245.985z" style="fill:#60A041;"/></g><path data-cppathid="10006" d="M329.155,300.577c0,2.836-2.318,5.157-5.151,5.157H219.363c-2.833,0-5.151-2.32-5.151-5.157v-27.368  c0-2.836,2.318-5.157,5.151-5.157h104.641c2.833,0,5.151,2.321,5.151,5.157V300.577z" style="fill:#F8B816;"/><path data-cppathid="10007" d="M329.155,262.895c0,2.836-2.318,5.157-5.151,5.157H219.363c-2.833,0-5.151-2.32-5.151-5.157v-27.367  c0-2.836,2.318-5.157,5.151-5.157h104.641c2.833,0,5.151,2.32,5.151,5.157V262.895z" style="fill:#FECF05;"/><path data-cppathid="10008" d="M329.155,225.214c0,2.836-2.318,5.157-5.151,5.157H219.363c-2.833,0-5.151-2.321-5.151-5.157v-27.368  c0-2.836,2.318-5.157,5.151-5.157h104.641c2.833,0,5.151,2.321,5.151,5.157V225.214z" style="fill:#F8B816;"/><path data-cppathid="10009" d="M329.155,187.533c0,2.836-2.318,5.157-5.151,5.157H219.363c-2.833,0-5.151-2.321-5.151-5.157v-27.368  c0-2.836,2.318-5.157,5.151-5.157h104.641c2.833,0,5.151,2.321,5.151,5.157V187.533z" style="fill:#FECF05;"/><path data-cppathid="10010" d="M329.155,149.852c0,2.836-2.318,5.157-5.151,5.157H219.363c-2.833,0-5.151-2.32-5.151-5.157v-27.367  c0-2.836,2.318-5.157,5.151-5.157h104.641c2.833,0,5.151,2.321,5.151,5.157V149.852z" style="fill:#F8B816;"/><path data-cppathid="10011" d="M227,300.577v-27.368c0-2.836,2.318-5.157,5.151-5.157  c-2.833,0-5.151-2.32-5.151-5.157v-27.367c0-2.836,2.318-5.157,5.151-5.157c-2.833,0-5.151-2.321-5.151-5.157v-27.368  c0-2.836,2.318-5.157,5.151-5.157c-2.833,0-5.151-2.321-5.151-5.157v-27.368c0-2.836,2.318-5.157,5.151-5.157  c-2.833,0-5.151-2.32-5.151-5.157v-27.367c0-2.836,2.318-5.157,5.151-5.157h-12.788c-2.833,0-5.151,2.321-5.151,5.157v27.367  c0,2.836,2.318,5.157,5.151,5.157c-2.833,0-5.151,2.321-5.151,5.157v27.368c0,2.836,2.318,5.157,5.151,5.157  c-2.833,0-5.151,2.321-5.151,5.157v27.368c0,2.836,2.318,5.157,5.151,5.157c-2.833,0-5.151,2.32-5.151,5.157v27.367  c0,2.836,2.318,5.157,5.151,5.157c-2.833,0-5.151,2.321-5.151,5.157v27.368c0,2.836,2.318,5.157,5.151,5.157h12.788  C229.318,305.733,227,303.413,227,300.577z" style="opacity:0.1;enable-background:new    ;"/><path data-cppathid="10012" d="M429.469,197.462v-27.368c0-2.836-2.318-5.157-5.151-5.157H319.676c-2.833,0-5.151,2.321-5.151,5.157  v27.368c0,2.836,2.318,5.157,5.151,5.157c-2.833,0-5.151,2.32-5.151,5.157v27.367c0,2.836,2.318,5.157,5.151,5.157  c-2.833,0-5.151,2.32-5.151,5.156v27.368c0,2.836,2.318,5.157,5.151,5.157c-2.833,0-5.151,2.321-5.151,5.157v27.368  c0,2.836,2.318,5.157,5.151,5.157c-2.833,0-5.151,2.32-5.151,5.157v27.368c0,2.836,2.318,5.157,5.151,5.157  c-2.833,0-5.151,2.32-5.151,5.157v20.459h114.943V358.5c0-2.836-2.318-5.157-5.151-5.157c2.833,0,5.151-2.321,5.151-5.157v-27.368  c0-2.836-2.318-5.157-5.151-5.157c2.833,0,5.151-2.32,5.151-5.157v-27.368c0-2.836-2.318-5.157-5.151-5.157  c2.833,0,5.151-2.32,5.151-5.157v-27.368c0-2.836-2.318-5.156-5.151-5.156c2.833,0,5.151-2.321,5.151-5.157v-27.367  c0-2.836-2.318-5.157-5.151-5.157C427.151,202.618,429.469,200.298,429.469,197.462z" style="fill:#F8B816;"/><path data-cppathid="10013" d="M429.469,378.959V358.5c0-2.836-2.318-5.157-5.151-5.157H319.676c-2.833,0-5.151,2.32-5.151,5.157  v20.459L429.469,378.959L429.469,378.959z" style="fill:#FECF05;"/><path data-cppathid="10014" d="M429.469,348.186c0,2.836-2.318,5.157-5.151,5.157H319.676c-2.833,0-5.151-2.321-5.151-5.157v-27.368  c0-2.836,2.318-5.157,5.151-5.157h104.642c2.833,0,5.151,2.32,5.151,5.157V348.186z" style="fill:#F8B816;"/><path data-cppathid="10015" d="M429.469,310.505c0,2.836-2.318,5.157-5.151,5.157H319.676c-2.833,0-5.151-2.32-5.151-5.157v-27.368  c0-2.836,2.318-5.157,5.151-5.157h104.642c2.833,0,5.151,2.321,5.151,5.157V310.505z" style="fill:#FECF05;"/><path data-cppathid="10016" d="M429.469,272.824c0,2.836-2.318,5.157-5.151,5.157H319.676c-2.833,0-5.151-2.32-5.151-5.157v-27.368  c0-2.836,2.318-5.156,5.151-5.156h104.642c2.833,0,5.151,2.32,5.151,5.156V272.824z" style="fill:#F8B816;"/><path data-cppathid="10017" d="M429.469,235.143c0,2.836-2.318,5.157-5.151,5.157H319.676c-2.833,0-5.151-2.321-5.151-5.157v-27.367  c0-2.836,2.318-5.157,5.151-5.157h104.642c2.833,0,5.151,2.32,5.151,5.157V235.143z" style="fill:#FECF05;"/><path data-cppathid="10018" d="M429.469,197.462c0,2.836-2.318,5.157-5.151,5.157H319.676c-2.833,0-5.151-2.321-5.151-5.157v-27.368  c0-2.836,2.318-5.157,5.151-5.157h104.642c2.833,0,5.151,2.321,5.151,5.157V197.462z" style="fill:#F8B816;"/><path data-cppathid="10019" d="M332.151,353.342c-2.833,0-5.151-2.321-5.151-5.157v-27.368  c0-2.836,2.318-5.157,5.151-5.157c-2.833,0-5.151-2.32-5.151-5.157v-27.368c0-2.836,2.318-5.157,5.151-5.157  c-2.833,0-5.151-2.32-5.151-5.157v-27.368c0-2.836,2.318-5.156,5.151-5.156c-2.833,0-5.151-2.321-5.151-5.157v-27.367  c0-2.836,2.318-5.157,5.151-5.157c-2.833,0-5.151-2.321-5.151-5.157v-27.368c0-2.836,2.318-5.157,5.151-5.157h-12.475  c-2.833,0-5.151,2.321-5.151,5.157v27.368c0,2.836,2.318,5.157,5.151,5.157c-2.833,0-5.151,2.32-5.151,5.157v27.367  c0,2.836,2.318,5.157,5.151,5.157c-2.833,0-5.151,2.32-5.151,5.156v27.368c0,2.836,2.318,5.157,5.151,5.157  c-2.833,0-5.151,2.321-5.151,5.157v27.368c0,2.836,2.318,5.157,5.151,5.157c-2.833,0-5.151,2.32-5.151,5.157v27.368  c0,2.836,2.318,5.157,5.151,5.157c-2.833,0-5.151,2.32-5.151,5.157v20.459H327V358.5C327,355.664,329.318,353.342,332.151,353.342z" style="opacity:0.1;enable-background:new    ;"/><g><path data-cppathid="10020" d="M365.959,100.504c-0.878,0-1.67-0.53-2.007-1.342c-4.535-10.968-7.878-14.317-18.827-18.861   c-0.811-0.337-1.341-1.13-1.341-2.009c0-0.88,0.53-1.673,1.341-2.01c10.949-4.544,14.291-7.893,18.827-18.86   c0.337-0.813,1.129-1.342,2.007-1.342s1.67,0.53,2.006,1.342c4.535,10.968,7.879,14.316,18.828,18.86   c0.81,0.336,1.34,1.13,1.34,2.01c0,0.879-0.529,1.672-1.34,2.009c-10.95,4.544-14.293,7.892-18.828,18.861   C367.629,99.974,366.837,100.504,365.959,100.504z" style="fill:#F8B816;"/><path data-cppathid="10021" d="M475.451,316.945c-0.787,0-1.496-0.475-1.797-1.203c-4.062-9.822-7.055-12.821-16.861-16.89   c-0.727-0.302-1.201-1.013-1.201-1.8s0.475-1.498,1.201-1.8c9.806-4.069,12.799-7.067,16.861-16.89   c0.301-0.727,1.01-1.202,1.797-1.202c0.786,0,1.495,0.475,1.796,1.202c4.062,9.823,7.055,12.821,16.862,16.89   c0.727,0.302,1.2,1.013,1.2,1.8s-0.474,1.498-1.2,1.8c-9.807,4.069-12.8,7.068-16.862,16.89   C476.946,316.47,476.236,316.945,475.451,316.945z" style="fill:#F8B816;"/></g><path data-cppathid="10022" d="M139.297,195.934c-0.964,0-1.833-0.583-2.203-1.475c-4.982-12.045-8.652-15.723-20.678-20.714  c-0.891-0.369-1.473-1.241-1.473-2.207s0.581-1.837,1.473-2.207c12.026-4.991,15.697-8.668,20.678-20.714  c0.37-0.893,1.239-1.474,2.203-1.474s1.834,0.581,2.203,1.474c4.981,12.046,8.653,15.723,20.678,20.714  c0.891,0.37,1.473,1.241,1.473,2.207s-0.582,1.838-1.473,2.207c-12.025,4.991-15.697,8.669-20.678,20.714  C141.131,195.352,140.261,195.934,139.297,195.934z" style="fill:#FECF05;"/><path data-cppathid="10023" d="M506.849,376.878h-98.22v2.081h-2.199v76.96h100.419c2.833,0,5.151-2.32,5.151-5.157v-68.728  C512,379.199,509.682,376.878,506.849,376.878z" style="fill:#60A041;"/><rect data-cppathid="10024" height="79.04" width="58.39" style="fill:#EBB272;" y="376.88" x="314.52"/><rect data-cppathid="10025" height="79.04" width="35.711" style="fill:#FED0A5;" y="376.88" x="372.92"/><g><path data-cppathid="10026" d="M512,396.174h-59.579c-4.142,0-7.5,3.358-7.5,7.5s3.358,7.5,7.5,7.5H512V396.174z" style="fill:#4B7D32;"/><path data-cppathid="10027" d="M512,421.625h-40.153c-4.142,0-7.5,3.358-7.5,7.5s3.358,7.5,7.5,7.5H512V421.625z" style="fill:#4B7D32;"/></g><path data-cppathid="10028" d="M347.171,450.763c0,2.836-2.318,5.157-5.151,5.157H5.151C2.318,455.92,0,453.6,0,450.763V308.574  c0-2.836,2.318-5.157,5.151-5.157H342.02c2.833,0,5.151,2.32,5.151,5.157V450.763z" style="fill:#89C947;"/><path data-cppathid="10029" d="M19.059,450.763V308.574c0-2.836,2.318-5.157,5.151-5.157H5.151  c-2.833,0-5.151,2.32-5.151,5.157v142.189c0,2.836,2.318,5.157,5.151,5.157H24.21C21.376,455.919,19.059,453.599,19.059,450.763z" style="opacity:0.1;enable-background:new    ;"/><path data-cppathid="10030" d="M65.527,332.971c-2.833,0-7.025,1.365-9.316,3.034l-22.525,16.411  c-2.291,1.669-4.165,5.354-4.165,8.191v38.122c0,2.836,1.874,6.522,4.165,8.191l22.525,16.411c2.291,1.668,6.483,3.034,9.316,3.034  h212.4c2.833,0,7.025-1.366,9.316-3.035l26.242-19.119c2.291-1.669,4.165-5.355,4.165-8.191v-32.703  c0-2.836-1.874-6.522-4.165-8.191l-26.242-19.119c-2.291-1.669-6.483-3.034-9.316-3.034h-212.4V332.971z" style="fill:#4B7D32;"/><ellipse data-cppathid="10031" ry="43.741" rx="43.692" cy="379.67" cx="173.59" style="fill:#89C947;"/><path data-cppathid="10032" d="M142.816,379.668c0-21.936,16.129-40.098,37.162-43.253  c-2.086-0.315-4.219-0.488-6.393-0.488c-24.13,0-43.691,19.584-43.691,43.741c0,24.158,19.561,43.741,43.691,43.741  c2.175,0,4.307-0.173,6.394-0.488C158.946,419.766,142.816,401.604,142.816,379.668z" style="opacity:0.1;enable-background:new    ;"/><g><ellipse data-cppathid="10033" ry="16.551" rx="16.532" cy="379.67" cx="76.75" style="fill:#60A041;"/><ellipse data-cppathid="10034" ry="16.551" rx="16.532" cy="379.67" cx="270.42" style="fill:#60A041;"/></g><g/><g/><g/><g/><g/><g/><g/><g/><g/><g/><g/><g/><g/><g/><g/></svg>