<?xml version="1.0" encoding="UTF-8"?>
<svg xmlns="http://www.w3.org/2000/svg" onmouseup="{ if(window.parent.document.onmouseup) window.parent.document.onmouseup(arguments[0]);}" width="512" viewBox="0 0 512 512" height="512"><g data-name="8. Thirtieth" id="_8._Thirtieth"><path data-cppathid="10000" fill="#d23943" d="m8 24.25v103h496v-103zm111.5 74.5a23 23 0 1 1 23-23 23.0033 23.0033 0 0 1 -23 23zm273 0a23 23 0 1 1 23-23 23.0033 23.0033 0 0 1 -23 23z"/><path data-cppathid="10001" d="m504 132.25h-496a5 5 0 0 1 -5-5v-103a5 5 0 0 1 5-5h496a5 5 0 0 1 5 5v103a5 5 0 0 1 -5 5zm-491-10h486v-93h-486zm379.5-18.5a28 28 0 1 1 28-28 28.0314 28.0314 0 0 1 -28 28zm0-46a18 18 0 1 0 18 18 18.0206 18.0206 0 0 0 -18-18zm-273 46a28 28 0 1 1 28-28 28.0314 28.0314 0 0 1 -28 28zm0-46a18 18 0 1 0 18 18 18.0206 18.0206 0 0 0 -18-18z"/><path data-cppathid="10002" fill="#f2f2f8" d="m34.5 128.75h443v354h-443z"/><path data-cppathid="10003" d="m477.5 487.75h-443a5 5 0 0 1 -5-5v-354a5 5 0 0 1 5-5h443a5 5 0 0 1 5 5v354a5 5 0 0 1 -5 5zm-438-10h433v-344h-433z"/><path data-cppathid="10004" fill="#fd990e" d="m128.3207 248.2176h-45.2673q3.5354-27.4275 19.6882-44.09 22.5477-23.2233 56.7139-23.2237 30.4557 0 51.0735 19.3525 20.61 19.3541 20.6147 45.9418a53.5006 53.5006 0 0 1 -9.0052 30.1231q-9.0036 13.6311-26.1674 22.0451 22.5476 6.7324 35.2571 23.4756 12.702 16.7466 12.705 39.4625 0 33.3213-24.571 56.46t-62.6016 23.1391q-36.0147 0-58.73-21.7931-22.72-21.7917-24.906-59.32h46.6134q3.0328 19.1832 13.381 28.5237t26.1675 9.34q16.4908 0 27.3444-10.6016a34.8377 34.8377 0 0 0 10.8551-25.9166q0-16.826-14.6394-28.44-14.644-11.611-42.24-11.9483v-40.3877q16.9934-1.3444 25.3255-5.3008a31.3514 31.3514 0 0 0 12.9579-10.8548 25.8429 25.8429 0 0 0 4.6293-14.6409 22.0173 22.0173 0 0 0 -7.0677-16.7444q-7.0707-6.6451-18.5113-6.6467a29.9861 29.9861 0 0 0 -18.3453 6.142 30.7445 30.7445 0 0 0 -11.2743 15.9032z"/><path data-cppathid="10005" d="m156.7607 445.9033c-25.2294 0-46.1533-7.8008-62.19-23.1845-16.0166-15.3614-24.9111-36.4356-26.4365-62.6377a4.9992 4.9992 0 0 1 4.9908-5.2911h46.6133a4.9994 4.9994 0 0 1 4.9385 4.22c1.83 11.5742 5.7968 20.1845 11.791 25.5908 6.0029 5.4189 13.4668 8.0527 22.8183 8.0527 9.7285 0 17.53-3.0019 23.8506-9.1777a29.771 29.771 0 0 0 9.35-22.34c0-9.6972-4.17-17.7187-12.747-24.5224-8.8272-6.999-22.0137-10.6553-39.1944-10.8653a5.0006 5.0006 0 0 1 -4.9385-5v-40.3887a5 5 0 0 1 4.6055-4.9844c10.67-.8447 18.6006-2.4707 23.5742-4.833a26.2384 26.2384 0 0 0 10.9532-9.124 20.7717 20.7717 0 0 0 3.78-11.8545 17.07 17.07 0 0 0 -5.4941-13.1031c-3.7852-3.5576-8.7207-5.288-15.085-5.288a24.8813 24.8813 0 0 0 -15.3574 5.1518 25.629 25.629 0 0 0 -9.4873 13.376 5 5 0 0 1 -4.7754 3.5176h-45.2668a5 5 0 0 1 -4.959-5.6392c2.4873-19.2986 9.5713-35.0886 21.0576-46.9321 15.9405-16.419 36.23-24.7427 60.3028-24.7427 21.52 0 39.8545 6.9668 54.4961 20.7066 14.7256 13.8286 22.1924 30.5117 22.1924 49.5874a58.6716 58.6716 0 0 1 -9.8331 32.8793 65.2559 65.2559 0 0 1 -18.5673 18.3038 69.13 69.13 0 0 1 27.4677 21.4375c9.1065 12.0058 13.7227 26.3 13.7227 42.4863 0 23.543-8.7959 43.7637-26.1436 60.1-17.2627 16.2564-39.4775 24.4986-66.0293 24.4986zm-78.2197-81.1133c2.18 21.1416 9.8877 38.1817 22.9512 50.712 14.1123 13.5371 32.708 20.4013 55.2685 20.4013 23.919 0 43.8282-7.3271 59.1739-21.7783 15.4756-14.5742 22.999-31.8516 22.999-52.82 0-13.9551-3.9326-26.2158-11.6885-36.4414-7.7793-10.2461-18.7832-17.55-32.7051-21.7061a5.0006 5.0006 0 0 1 -.7695-9.2812c10.5762-5.1826 18.7168-12.0166 24.1963-20.3106a48.8292 48.8292 0 0 0 8.1768-27.3676c0-16.4327-6.2266-30.2676-19.0372-42.2964-12.9043-12.11-28.4912-17.9976-47.6513-17.9976-21.5674 0-38.9453 7.1-53.127 21.7066-8.831 9.1064-14.6787 21.0659-17.4238 35.6074h35.9238a35.7278 35.7278 0 0 1 11.7793-14.9121 35.0136 35.0136 0 0 1 21.333-7.1333c8.9043 0 16.2852 2.6928 21.9356 8.0034a26.9365 26.9365 0 0 1 8.6435 20.3877 30.8722 30.8722 0 0 1 -5.4765 17.4258 36.4352 36.4352 0 0 1 -14.9688 12.5869c-5.3486 2.541-12.7265 4.2978-22.4678 5.3408v30.9853c17.1026.8711 30.6582 5.1934 40.3467 12.876 10.9707 8.7022 16.5332 19.5879 16.5332 32.3574a39.8213 39.8213 0 0 1 -12.3623 29.4932c-8.164 7.9785-18.54 12.0244-30.8379 12.0244-11.7744 0-21.705-3.5762-29.5175-10.6289-6.9327-6.2529-11.6983-15.4023-14.1934-27.2344z"/><path data-cppathid="10006" fill="#fd990e" d="m351.6361 180.9036q27.0924 0 46.6977 13.2943 19.6052 13.2962 30.2928 40.6409 10.6832 27.3494 10.6861 76.1486 0 49.31-10.8551 76.7378-10.8551 27.432-29.1976 40.3048-18.3468 12.874-46.2782 12.874-27.9388 0-46.9512-12.9585-19.0206-12.9581-29.7856-39.3783-10.7736-26.418-10.7706-75.2237 0-68.1555 21.0342-98.7829 23.3895-33.655 65.1275-33.657zm1.0924 44.7633a32.2213 32.2213 0 0 0 -21.1609 7.6577q-9.2391 7.6593-14.1053 26.3358-4.8707 18.6806-4.8677 54.6926 0 46.9512 11.1659 64.874 11.1675 17.9214 28.968 17.9213 17.1246 0 27.2056-16.9963 12.2584-20.5287 12.2584-68.66 0-48.8-11-67.3139-10.9998-18.5096-28.464-18.5112z"/><path data-cppathid="10007" d="m352.9824 445.9033c-19.5586 0-36.3027-4.6513-49.7666-13.8262-13.4492-9.1611-24.081-23.165-31.6015-41.623-7.3916-18.125-11.14-44.0693-11.14-77.11 0-46.2549 7.3721-80.4429 21.9131-101.6138 16.5264-23.78 39.8193-35.8262 69.248-35.8262 18.9932 0 35.6495 4.7627 49.5039 14.1553 13.8584 9.3989 24.6729 23.8525 32.1436 42.959 7.3193 18.7353 11.0293 44.9673 11.0293 77.9692 0 33.3525-3.7705 59.79-11.2051 78.5781-7.5683 19.1231-17.9892 33.4414-30.9746 42.5567-13.0309 9.1442-29.5671 13.7809-49.1501 13.7809zm-1.3467-259.9995c-26.3252 0-46.2851 10.3071-61.0214 31.51-13.3584 19.4506-20.14 51.7334-20.14 95.93 0 31.74 3.499 56.413 10.4 73.3359 6.7656 16.6055 16.1758 29.0986 27.9707 37.1328 11.7744 8.0234 26.6231 12.0908 44.1367 12.0908 17.4864 0 32.09-4.0263 43.4053-11.9668 11.3584-7.9736 20.584-20.7754 27.4209-38.0508 6.97-17.6113 10.5039-42.81 10.5039-74.8984 0-31.7519-3.4795-56.76-10.3428-74.3291-6.72-17.1865-16.289-30.0806-28.4424-38.3223-12.1672-8.249-26.9348-12.4321-43.8909-12.4321zm1.0928 216.2446c-13.6543 0-24.8281-6.8222-33.2119-20.2783-8.0215-12.8681-11.9219-34.9541-11.9219-67.5176 0-24.3291 1.6924-43.1552 5.0293-55.9541 3.5469-13.6152 8.6992-23.0761 15.752-28.9228a37.2486 37.2486 0 0 1 24.3525-8.8086c13.4756 0 24.4981 7.0508 32.7617 20.957 7.875 13.2588 11.7022 36.1123 11.7022 69.8682 0 33.3144-4.2412 56.6123-12.9649 71.2236-7.6406 12.8897-18.2412 19.4326-31.499 19.4326zm0-171.4814a27.13 27.13 0 0 0 -17.9707 6.5078c-5.3076 4.3994-9.499 12.3892-12.457 23.7461-3.1231 11.9766-4.7061 29.9531-4.7061 53.4316 0 30.212 3.502 51.1495 10.4092 62.2295 6.5264 10.4746 14.6143 15.5664 24.7246 15.5664 9.6113 0 17.1035-4.7578 22.9053-14.5459 7.6719-12.8505 11.5586-35.0888 11.5586-66.11 0-31.4649-3.4649-53.2539-10.2988-64.7608-6.4236-10.8098-14.3282-16.0647-24.1651-16.0647z"/></g></svg>