<?xml version="1.0" encoding="UTF-8"?>
<svg xmlns="http://www.w3.org/2000/svg" onmouseup="{ if(window.parent.document.onmouseup) window.parent.document.onmouseup(arguments[0]);}" width="512" viewBox="0 0 64 64" height="512" enable-background="new 0 0 64 64" id="Layer_1" xmlns:xlink="http://www.w3.org/1999/xlink"><linearGradient y2="4.88" y1="59.12" x2="59.12" x1="4.88" gradientUnits="userSpaceOnUse" id="SVGID_1_"><stop stop-color="#165c92" offset="0"/><stop stop-color="#3d9ae2" offset="1"/></linearGradient><linearGradient id="lg1"><stop stop-color="#ffb655" offset="0"/><stop stop-color="#ffdaaa" offset="1"/></linearGradient><linearGradient y2="13.466" y1="20.534" xlink:href="#lg1" x2="59.534" x1="52.466" gradientUnits="userSpaceOnUse" id="SVGID_2_"/><linearGradient y2="30.466" y1="37.534" xlink:href="#lg1" x2="59.534" x1="52.466" gradientUnits="userSpaceOnUse" id="SVGID_3_"/><linearGradient id="lg2"><stop stop-color="#5aaae7" offset="0"/><stop stop-color="#b3d8f4" offset="1"/></linearGradient><linearGradient y2="25.793" y1="52.207" xlink:href="#lg2" x2="39.207" x1="12.793" gradientUnits="userSpaceOnUse" id="SVGID_4_"/><linearGradient y2="16.043" y1="17.957" xlink:href="#lg1" x2="5.457" x1="3.543" gradientUnits="userSpaceOnUse" id="SVGID_5_"/><linearGradient id="lg3"><stop stop-color="#00b6bd" offset="0"/><stop stop-color="#00aa95" offset="1"/></linearGradient><linearGradient y2="20.043" y1="21.957" xlink:href="#lg3" x2="5.457" x1="3.543" gradientUnits="userSpaceOnUse" id="SVGID_6_"/><linearGradient y2="24.043" y1="25.957" xlink:href="#lg1" x2="5.457" x1="3.543" gradientUnits="userSpaceOnUse" id="SVGID_7_"/><linearGradient y2="28.043" y1="29.957" xlink:href="#lg3" x2="5.457" x1="3.543" gradientUnits="userSpaceOnUse" id="SVGID_8_"/><linearGradient y2="32.043" y1="33.957" xlink:href="#lg1" x2="5.457" x1="3.543" gradientUnits="userSpaceOnUse" id="SVGID_9_"/><linearGradient y2="36.043" y1="37.957" xlink:href="#lg3" x2="5.457" x1="3.543" gradientUnits="userSpaceOnUse" id="SVGID_10_"/><linearGradient y2="40.043" y1="41.957" xlink:href="#lg1" x2="5.457" x1="3.543" gradientUnits="userSpaceOnUse" id="SVGID_11_"/><linearGradient y2="44.043" y1="45.957" xlink:href="#lg3" x2="5.457" x1="3.543" gradientUnits="userSpaceOnUse" id="SVGID_12_"/><linearGradient y2="23.043" y1="51.457" xlink:href="#lg2" x2="51.457" x1="23.043" gradientUnits="userSpaceOnUse" id="SVGID_13_"/><linearGradient id="lg4"><stop stop-color="#ee8700" offset="0"/><stop stop-color="#ffa733" offset="1"/></linearGradient><linearGradient y2="15.293" y1="18.707" xlink:href="#lg4" x2="57.707" x1="54.293" gradientUnits="userSpaceOnUse" id="SVGID_14_"/><linearGradient y2="32.793" y1="35.207" xlink:href="#lg4" x2="57.207" x1="54.793" gradientUnits="userSpaceOnUse" id="SVGID_15_"/><linearGradient y2="50.043" y1="51.957" xlink:href="#lg3" x2="15.457" x1="13.543" gradientUnits="userSpaceOnUse" id="SVGID_16_"/><linearGradient y2="50.043" y1="51.957" xlink:href="#lg1" x2="21.457" x1="19.543" gradientUnits="userSpaceOnUse" id="SVGID_17_"/><linearGradient y2="50.043" y1="51.957" xlink:href="#lg3" x2="27.457" x1="25.543" gradientUnits="userSpaceOnUse" id="SVGID_18_"/><linearGradient y2="50.043" y1="51.957" xlink:href="#lg1" x2="33.457" x1="31.543" gradientUnits="userSpaceOnUse" id="SVGID_19_"/><linearGradient y2="50.043" y1="51.957" xlink:href="#lg3" x2="39.457" x1="37.543" gradientUnits="userSpaceOnUse" id="SVGID_20_"/><linearGradient y2="50.043" y1="51.957" xlink:href="#lg1" x2="45.457" x1="43.543" gradientUnits="userSpaceOnUse" id="SVGID_21_"/><linearGradient y2="50.043" y1="51.957" xlink:href="#lg3" x2="51.457" x1="49.543" gradientUnits="userSpaceOnUse" id="SVGID_22_"/><linearGradient y2="50.043" y1="51.957" xlink:href="#lg1" x2="57.457" x1="55.543" gradientUnits="userSpaceOnUse" id="SVGID_23_"/><g><g><g><path data-cppathid="10000" fill="url(#SVGID_1_)" d="m61 8h-58c-1.654 0-3 1.346-3 3v42c0 1.654 1.346 3 3 3h58c1.654 0 3-1.346 3-3v-42c0-1.654-1.346-3-3-3z"/></g><circle data-cppathid="10001" r="5" fill="url(#SVGID_2_)" cy="17" cx="56"/><circle data-cppathid="10002" r="5" fill="url(#SVGID_3_)" cy="34" cx="56"/><g><path data-cppathid="10003" fill="url(#SVGID_4_)" d="m59 48h-50c-.552 0-1-.447-1-1v-32c0-.552.448-1 1-1s1 .448 1 1v31h49c.552 0 1 .447 1 1s-.448 1-1 1z"/></g><g><path data-cppathid="10004" fill="url(#SVGID_5_)" d="m5 18h-1c-.552 0-1-.448-1-1s.448-1 1-1h1c.552 0 1 .448 1 1s-.448 1-1 1z"/></g><g><path data-cppathid="10005" fill="url(#SVGID_6_)" d="m5 22h-1c-.552 0-1-.448-1-1s.448-1 1-1h1c.552 0 1 .448 1 1s-.448 1-1 1z"/></g><g><path data-cppathid="10006" fill="url(#SVGID_7_)" d="m5 26h-1c-.552 0-1-.448-1-1s.448-1 1-1h1c.552 0 1 .448 1 1s-.448 1-1 1z"/></g><g><path data-cppathid="10007" fill="url(#SVGID_8_)" d="m5 30h-1c-.552 0-1-.448-1-1s.448-1 1-1h1c.552 0 1 .448 1 1s-.448 1-1 1z"/></g><g><path data-cppathid="10008" fill="url(#SVGID_9_)" d="m5 34h-1c-.552 0-1-.447-1-1s.448-1 1-1h1c.552 0 1 .447 1 1s-.448 1-1 1z"/></g><g><path data-cppathid="10009" fill="url(#SVGID_10_)" d="m5 38h-1c-.552 0-1-.447-1-1s.448-1 1-1h1c.552 0 1 .447 1 1s-.448 1-1 1z"/></g><g><path data-cppathid="10010" fill="url(#SVGID_11_)" d="m5 42h-1c-.552 0-1-.447-1-1s.448-1 1-1h1c.552 0 1 .447 1 1s-.448 1-1 1z"/></g><g><path data-cppathid="10011" fill="url(#SVGID_12_)" d="m5 46h-1c-.552 0-1-.447-1-1s.448-1 1-1h1c.552 0 1 .447 1 1s-.448 1-1 1z"/></g><path data-cppathid="10012" fill="url(#SVGID_13_)" d="m52.447 41.105-2-1c-.138-.069-.292-.105-.447-.105h-1.586l-3.707-3.707c-.391-.391-1.023-.391-1.414 0l-1.293 1.293-.293-.293c-.188-.188-.442-.293-.707-.293h-6.382l-.724-1.447c-.169-.339-.515-.553-.894-.553h-2.586l1-1h2.586c.265 0 .519-.105.707-.293l2.707-2.707h.586c.265 0 .519-.105.707-.293l3.707-3.707h2.172l1.707 1.707c.391.391 1.023.391 1.414 0l4-4c.391-.391.391-1.023 0-1.414s-1.023-.391-1.414 0l-3.293 3.293-1.293-1.293c-.188-.188-.442-.293-.707-.293h-3c-.265 0-.52.105-.707.293l-3.707 3.707h-.586c-.265 0-.52.105-.707.293l-2.707 2.707h-2.586c-.265 0-.52.105-.707.293l-2.885 2.885-1.644.822h-1.764c-.127 0-.253.024-.372.071l-4.82 1.929h-2.808c-.265 0-.52.105-.707.293l-2 2c-.391.391-.391 1.023 0 1.414.195.195.451.293.707.293s.512-.098.707-.293l1.707-1.707h2.586c.127 0 .253-.024.372-.071l4.82-1.929h1.808c.155 0 .309-.036.447-.105l1.789-.895h4.146l.724 1.447c.169.339.515.553.894.553h6.586l.707.707c.391.391 1.023.391 1.414 0l1.293-1.293 3.293 3.293c.187.188.442.293.707.293h1.764l1.788.895c.144.071.297.105.447.105.367 0 .72-.202.895-.553.248-.494.047-1.094-.447-1.342z"/><path data-cppathid="10013" fill="url(#SVGID_14_)" d="m58 16h-1v-1c0-.552-.448-1-1-1s-1 .448-1 1v1h-1c-.552 0-1 .448-1 1s.448 1 1 1h1v1c0 .552.448 1 1 1s1-.448 1-1v-1h1c.552 0 1-.448 1-1s-.448-1-1-1z"/><g><path data-cppathid="10014" fill="url(#SVGID_15_)" d="m57 35h-2c-.552 0-1-.447-1-1s.448-1 1-1h2c.552 0 1 .447 1 1s-.448 1-1 1z"/></g><g><path data-cppathid="10015" fill="url(#SVGID_16_)" d="m15 52h-1c-.552 0-1-.447-1-1s.448-1 1-1h1c.552 0 1 .447 1 1s-.448 1-1 1z"/></g><g><path data-cppathid="10016" fill="url(#SVGID_17_)" d="m21 52h-1c-.552 0-1-.447-1-1s.448-1 1-1h1c.552 0 1 .447 1 1s-.448 1-1 1z"/></g><g><path data-cppathid="10017" fill="url(#SVGID_18_)" d="m27 52h-1c-.552 0-1-.447-1-1s.448-1 1-1h1c.552 0 1 .447 1 1s-.448 1-1 1z"/></g><g><path data-cppathid="10018" fill="url(#SVGID_19_)" d="m33 52h-1c-.552 0-1-.447-1-1s.448-1 1-1h1c.552 0 1 .447 1 1s-.448 1-1 1z"/></g><g><path data-cppathid="10019" fill="url(#SVGID_20_)" d="m39 52h-1c-.552 0-1-.447-1-1s.448-1 1-1h1c.552 0 1 .447 1 1s-.448 1-1 1z"/></g><g><path data-cppathid="10020" fill="url(#SVGID_21_)" d="m45 52h-1c-.552 0-1-.447-1-1s.448-1 1-1h1c.552 0 1 .447 1 1s-.448 1-1 1z"/></g><g><path data-cppathid="10021" fill="url(#SVGID_22_)" d="m51 52h-1c-.552 0-1-.447-1-1s.448-1 1-1h1c.552 0 1 .447 1 1s-.448 1-1 1z"/></g><g><path data-cppathid="10022" fill="url(#SVGID_23_)" d="m57 52h-1c-.552 0-1-.447-1-1s.448-1 1-1h1c.552 0 1 .447 1 1s-.448 1-1 1z"/></g></g></g></svg>