<?xml version="1.0" encoding="UTF-8"?>
<svg xmlns="http://www.w3.org/2000/svg" onmouseup="{ if(window.parent.document.onmouseup) window.parent.document.onmouseup(arguments[0]);}" xml:space="preserve" style="enable-background:new 0 0 497.208 497.208;" viewBox="0 0 497.208 497.208" y="0px" x="0px" id="Capa_1" version="1.1" xmlns:xlink="http://www.w3.org/1999/xlink"><g><g><path data-cppathid="10000" d="M466.292,240c-33.44,0-64.48-16.608-83.032-44.44l-6.656-9.984l-6.656,9.984C351.396,223.392,320.356,240,286.916,240    h-30.312v128.288c0,31.008,13.96,60.152,37.288,79.712H128.604v-32h104V272h-168v64h-48V16h352v144h16V0h-384v347.312L117.292,464    h201.192l58.12,33.208l67.6-38.624c32.32-18.464,52.4-53.072,52.4-90.296V240H466.292z M112.604,436.688L27.916,352h84.688    V436.688z M80.604,336v-48h136v112h-88v-64H80.604z M480.604,368.288c0,31.504-16.992,60.776-44.336,76.408l-59.664,34.096    l-59.664-34.096c-27.344-15.632-44.336-44.904-44.336-76.408V256h14.312c35.04,0,67.808-15.72,89.688-42.544    C398.484,240.28,431.252,256,466.292,256h14.312V368.288z"/></g></g><g><g><path data-cppathid="10001" d="M448.604,320v48.288c0,20.048-10.816,38.68-28.216,48.624l7.936,13.888c22.376-12.784,36.28-36.736,36.28-62.512V320    H448.604z"/></g></g><g><g><path data-cppathid="10002" d="M48.604,32v48h288V32H48.604z M320.604,64h-256V48h256V64z"/></g></g><g><g><polygon data-cppathid="10003" points="442.948,274.344 336.604,380.688 310.26,354.344 298.948,365.656 336.604,403.312 454.26,285.656   "/></g></g><g><g><rect data-cppathid="10004" height="16" width="104" y="304" x="96.604"/></g></g><g><g><rect data-cppathid="10005" height="16" width="56" y="336" x="144.604"/></g></g><g><g><rect data-cppathid="10006" height="16" width="56" y="368" x="144.604"/></g></g><g><g><rect data-cppathid="10007" height="16" width="256" y="112" x="48.604"/></g></g><g><g><rect data-cppathid="10008" height="16" width="256" y="144" x="48.604"/></g></g><g><g><rect data-cppathid="10009" height="16" width="256" y="176" x="48.604"/></g></g><g><g><rect data-cppathid="10010" height="16" width="152" y="208" x="48.604"/></g></g><g><g><rect data-cppathid="10011" height="16" width="152" y="240" x="48.604"/></g></g><g><g><rect data-cppathid="10012" height="16" width="16" y="112" x="320.604"/></g></g><g><g><rect data-cppathid="10013" height="16" width="16" y="144" x="320.604"/></g></g><g><g><rect data-cppathid="10014" height="16" width="16" y="176" x="320.604"/></g></g><g><g><rect data-cppathid="10015" height="16" width="16" y="208" x="216.604"/></g></g><g><g><rect data-cppathid="10016" height="16" width="16" y="240" x="216.604"/></g></g><g/><g/><g/><g/><g/><g/><g/><g/><g/><g/><g/><g/><g/><g/><g/></svg>