<?xml version="1.0" encoding="UTF-8"?>
<svg xmlns="http://www.w3.org/2000/svg" onmouseup="{ if(window.parent.document.onmouseup) window.parent.document.onmouseup(arguments[0]);}" data-name="filled outline" width="512" viewBox="0 0 512 512" height="512" id="filled_outline"><path data-cppathid="10000" fill="#407de6" d="m144 104h224v96h-224z"/><path data-cppathid="10001" fill="#4e96ed" d="m160 104 16-40h160l16 40z"/><path data-cppathid="10002" fill="#7ab8f5" d="m200 24h112v40h-112z"/><path data-cppathid="10003" fill="#4e96ed" d="m88 200h336v296h-336z"/><path data-cppathid="10004" fill="#96cffa" d="m120 232h272v264h-272z"/><g fill="#ed6445"><path data-cppathid="10005" d="m184 328h144v168h-144z"/><path data-cppathid="10006" d="m360 392v-32a32 32 0 0 0 -32-32h-16v64z"/><path data-cppathid="10007" d="m152 392v-32a32 32 0 0 1 32-32h16v64z"/></g><path data-cppathid="10008" fill="#f5a431" d="m248 360-8-16 16-8 16 8-8 16z"/><path data-cppathid="10009" fill="#f7c04a" d="m240 392 8-32h16l8 32z"/><path data-cppathid="10010" fill="#ffceb6" d="m272 288v32a16 16 0 0 1 -16 16 16 16 0 0 1 -16-16v-32z"/><path data-cppathid="10011" fill="#b36f42" d="m240 312-5.95016-11.90031a19.41651 19.41651 0 0 1 -2.04984-8.68328 19.41638 19.41638 0 0 1 19.41639-19.41641h36.58361v9.37262a22.62741 22.62741 0 0 1 -22.62741 22.62738 22.6274 22.6274 0 0 1 -16-6.62741l-1.37259-1.37259z"/><path data-cppathid="10012" fill="#ffceb6" d="m360 392v11.62687a60.37313 60.37313 0 0 1 -60.37313 60.37313h-.00007a60.373 60.373 0 0 1 -22.422-4.31809l-77.2048-30.88191v-44.8h19.7718a23.99982 23.99982 0 0 1 8.20183 1.445l84.02637 30.555v-24z"/><path data-cppathid="10013" fill="#ffceb6" d="m200 392v24l84.02637-30.555a23.99982 23.99982 0 0 1 8.20183-1.445h19.7718v32l-85.06751 42.53375a51.777 51.777 0 0 1 -23.15539 5.46625h-.0001a51.777 51.777 0 0 1 -51.777-51.777v-20.223z"/><path data-cppathid="10014" d="m368 403.627v-43.627a40.04552 40.04552 0 0 0 -40-40h-48v-11.72534a30.65215 30.65215 0 0 0 16-26.90161v-9.37305a8.00008 8.00008 0 0 0 -8-8h-36.5835a27.41651 27.41651 0 0 0 -24.522 39.67773l5.1055 10.21094v6.11133h-48a40.04552 40.04552 0 0 0 -40 40v52.22266a59.825 59.825 0 0 0 32 52.90722v30.87012h16v-25.17114a59.78607 59.78607 0 0 0 38.51025-5.13941l17.8545-8.92724 25.86865 10.34717a68.42025 68.42025 0 0 0 45.7666 1.79v27.10062h16v-34.51953a68.37036 68.37036 0 0 0 32-57.85347zm-40-67.627a24.02718 24.02718 0 0 1 24 24v24h-32v-24h-16v16h-11.772a31.90949 31.90949 0 0 0 -10.93555 1.92676l-4.18408 1.52148-4.6294-18.51758 3.62378-7.24755 7.45972 4.97314 8.875-13.3125-14.01559-9.34375zm-120 56h11.772a15.94767 15.94767 0 0 1 5.46778.96387l7.35015 2.6726-24.58993 8.94165zm48.00049-4.87622-5.99049-2.17847 4.23634-16.94531h3.50732l4.23645 16.9458zm-8.00049-73.23511 2.78467-5.56933a30.40285 30.40285 0 0 0 13.21533 3.63842v8.04224a8 8 0 0 1 -16 0zm3.15833 29.62036a24.1184 24.1184 0 0 0 9.68334 0l1.84461 1.22974-3.63062 7.26123h-6.11132l-3.63062-7.26123zm.25817-63.50903h28.5835v1.373a14.62759 14.62759 0 0 1 -24.96973 10.34375l-1.37256-1.373a8.00074 8.00074 0 0 0 -12.813 2.07813l-.62012 1.24023a11.40936 11.40936 0 0 1 11.19191-13.66211zm-67.4165 56h49.57812l-14.01564 9.34375 8.875 13.3125 7.45975-4.97314 3.62378 7.24755-4.62935 18.51734-4.18365-1.52124a31.9143 31.9143 0 0 0 -10.93601-1.92676h-11.772v-16h-16v24h-32v-24a24.0275 24.0275 0 0 1 24-24zm39.355 115.37891a43.77817 43.77817 0 0 1 -63.355-39.15625v-12.22266h32v16a8.00016 8.00016 0 0 0 10.73389 7.51855l84.02685-30.55468a15.94287 15.94287 0 0 1 5.46726-.96387h11.772v19.05566zm76.272 4.62109a52.15324 52.15324 0 0 1 -19.45117-3.74609l-12.66383-5.06543 48.06568-24.03321a7.99979 7.99979 0 0 0 4.42232-7.15527v-16h32v3.627a52.43228 52.43228 0 0 1 -52.373 52.373z"/><path data-cppathid="10015" d="m424 192h-48v-88a8.00008 8.00008 0 0 0 -8-8h-10.584l-13.98827-34.9707a7.99922 7.99922 0 0 0 -7.42773-5.0293h-16v-32a8.00008 8.00008 0 0 0 -8-8h-112a8.00008 8.00008 0 0 0 -8 8v32h-16a7.99922 7.99922 0 0 0 -7.42773 5.0293l-13.98827 34.9707h-10.584a8.00008 8.00008 0 0 0 -8 8v88h-48a8.00008 8.00008 0 0 0 -8 8v296h16v-288h320v288h16v-296a8.00008 8.00008 0 0 0 -8-8zm-216-160h96v24h-96zm-26.5835 40h149.167l9.60034 24h-168.36768zm-29.4165 40h208v80h-208z"/><path data-cppathid="10016" d="m392 224h-272a8.00008 8.00008 0 0 0 -8 8v264h16v-16h32v-16h-32v-184h24v24h16v-24h32v24h16v-64h32v16h16v-16h32v16h16v-16h32v24h-32v16h32v24h16v-24h24v184h-32v16h32v16h16v-264a8.00008 8.00008 0 0 0 -8-8zm-264 40v-24h24v24zm72 0h-32v-24h32zm160 0v-24h24v24z"/><path data-cppathid="10017" d="m168 128h32v16h-32z"/><path data-cppathid="10018" d="m216 128h32v16h-32z"/><path data-cppathid="10019" d="m264 128h32v16h-32z"/><path data-cppathid="10020" d="m312 128h32v16h-32z"/><path data-cppathid="10021" d="m168 160h32v16h-32z"/><path data-cppathid="10022" d="m216 160h32v16h-32z"/><path data-cppathid="10023" d="m264 160h32v16h-32z"/><path data-cppathid="10024" d="m312 160h32v16h-32z"/></svg>