<?xml version="1.0" encoding="UTF-8"?>
<svg xmlns="http://www.w3.org/2000/svg" onmouseup="{ if(window.parent.document.onmouseup) window.parent.document.onmouseup(arguments[0]);}" xml:space="preserve" style="enable-background:new 0 0 32.058 32.058;" viewBox="0 0 32.058 32.058" height="32.058px" width="32.058px" y="0px" x="0px" id="Capa_1" version="1.1" xmlns:xlink="http://www.w3.org/1999/xlink"><g><g><circle data-cppathid="10000" r="3.881" cy="4.021" cx="23.587"/><path data-cppathid="10001" d="M15.613,24.533v-0.959c0-0.774,0.378-1.523,0.998-2.002v-3.275h-3.583c-1.385,0-2.498-1.094-2.498-2.477    c0-0.227,0.102-0.414,0.102-0.623V14.31h0.417c0.46-0.665,1.174-0.997,1.979-0.997h3.284c0.036-0.166,0.133-0.221,0.133-0.353    V4.07c0-0.742-0.685-1.388-1.426-1.388H3.951c-0.742,0-1.293,0.646-1.293,1.388v8.891c0,0.742,0.551,1.35,1.293,1.35h4.521v1.162    h-1.52c-0.667,0-1.208,0.498-1.208,1.329H0.576C0.232,16.802,0,16.996,0,17.341v1.406c0,0.343,0.231,0.546,0.576,0.546h1.749    v12.624h14.617v-5.686C16.943,26.232,15.613,25.951,15.613,24.533z M5.904,12.317c-0.741,0-1.419-0.529-1.419-1.269V5.985    c0-0.742,0.678-1.309,1.419-1.309h7.198c0.742,0,1.35,0.567,1.35,1.309v5.063c0,0.74-0.607,1.269-1.35,1.269H5.904z"/><path data-cppathid="10002" d="M26.173,8.547h-5.136c-3.147,0-3.346,3.151-3.346,3.151s-0.42,2.124-0.77,2.368c-0.107,0.075-0.233,0.129-0.38,0.129    h-3.516c-0.832,0-1.506,0.662-1.506,1.496c0,0.832,0.674,1.494,1.506,1.494h3.516c0.546,0,1.028,0.002,1.093-0.014l-0.032,3.669    h1.997v-8.118c0-1.636,1.054-3.51,2.706-3.51h6.123C27.818,8.713,27.029,8.547,26.173,8.547z"/><path data-cppathid="10003" d="M30.049,25.107c1.107,0,2.009-0.899,2.009-2.01V12.789c0-1.241-1.051-2.299-2.291-2.299h-6.958    c-1.24,0-2.211,1.058-2.211,2.299v9.162h-2.242c-0.863,0-1.579,0.664-1.579,1.525v0.566c0,0.587,0.476,1.062,1.063,1.062h4.752    v1.328h-0.761c0,0-1.897,0.045-1.897,1.809v2.531c0,0.57,0.426,1.035,1,1.035c0.573,0,1.021-0.469,1.021-1.041l-0.016-2.34h3.476    v2.346c0,0.57,0.505,1.035,1.079,1.035s1.08-0.465,1.08-1.035v-2.531c0-1.916-2.037-1.809-2.037-1.809h-0.789v-1.328h5.301V25.107    z"/></g></g><g/><g/><g/><g/><g/><g/><g/><g/><g/><g/><g/><g/><g/><g/><g/></svg>