<?xml version="1.0" encoding="UTF-8"?>
<svg xmlns="http://www.w3.org/2000/svg" onmouseup="{ if(window.parent.document.onmouseup) window.parent.document.onmouseup(arguments[0]);}" width="512" viewBox="0 0 32 32" height="512" enable-background="new 0 0 32 32"><g id="Cancel"><g><g><path data-cppathid="10000" d="m16 30c-7.7 0-14-6.3-14-14s6.3-14 14-14 14 6.3 14 14-6.3 14-14 14zm0-26c-6.6 0-12 5.4-12 12s5.4 12 12 12 12-5.4 12-12-5.4-12-12-12z"/></g><path data-cppathid="10001" d="m22.5 21.1-5.1-5.1 5.1-5.1c.4-.4.4-1 0-1.4s-1-.4-1.4 0l-5.1 5.1-5.1-5.1c-.4-.4-1-.4-1.4 0s-.4 1 0 1.4l5.1 5.1-5.1 5.1c-.4.4-.4 1 0 1.4s1 .4 1.4 0l5.1-5.1 5.1 5.1c.4.4 1 .4 1.4 0s.4-1 0-1.4z"/></g></g></svg>