<?xml version="1.0" encoding="UTF-8"?>
<svg xmlns="http://www.w3.org/2000/svg" onmouseup="{ if(window.parent.document.onmouseup) window.parent.document.onmouseup(arguments[0]);}" width="512" viewBox="0 0 512 512" height="512" id="flat"><path data-cppathid="10000" fill="#96d320" d="m256 104h232v184h-232z"/><path data-cppathid="10001" fill="#85b218" d="m256 262.474v25.526h232v-152.141a335.51 335.51 0 0 1 -232 126.615z"/><path data-cppathid="10002" fill="#ffdc13" d="m256 248h184a16 16 0 0 1 16-16v-80a16 16 0 0 1 -16-16h-184z"/><path data-cppathid="10003" fill="#e5af17" d="m326.67 248h113.33a16 16 0 0 1 16-16v-60.956a335.8 335.8 0 0 1 -129.33 76.956z"/><path data-cppathid="10004" fill="#3f484f" d="m256 104h-176a32 32 0 0 0 -32 32v232h208z"/><path data-cppathid="10005" fill="#2a3135" d="m48 333.488v34.512h208v-145.909a439.038 439.038 0 0 1 -208 111.397z"/><path data-cppathid="10006" fill="#3098c6" d="m80 136h176v192h-176z"/><path data-cppathid="10007" fill="#2686a8" d="m80 325.083v2.917h176v-105.909a439.6 439.6 0 0 1 -176 102.992z"/><path data-cppathid="10008" fill="#565655" d="m24 360v34a14 14 0 0 0 14 14h218v-48z"/><path data-cppathid="10009" fill="#b7b2a5" d="m160 360a24 24 0 0 0 24 24h48a24 24 0 0 0 24-24z"/><ellipse data-cppathid="10010" ry="56" rx="40" fill="#26bfb0" cy="192" cx="312"/><g fill="#3f484f"><path data-cppathid="10011" d="m288 48h48v16h-48z"/><path data-cppathid="10012" d="m392 64h72v16h-72z"/><path data-cppathid="10013" d="m352 16h64v16h-64z"/><path data-cppathid="10014" d="m432 16h16v16h-16z"/><path data-cppathid="10015" d="m480 64h16v16h-16z"/><path data-cppathid="10016" d="m408 480h16v16h-16z"/><path data-cppathid="10017" d="m344 480h48v16h-48z"/><path data-cppathid="10018" d="m280 432h64v16h-64z"/><path data-cppathid="10019" d="m360 432h16v16h-16z"/><path data-cppathid="10020" d="m464 448h16v16h-16z"/><path data-cppathid="10021" d="m352 48h16v16h-16z"/><path data-cppathid="10022" d="m400 448h48v16h-48z"/></g><path data-cppathid="10023" fill="#ededeb" d="m184 160.363h16v29.758h-16z"/><path data-cppathid="10024" fill="#ededeb" d="m136.363 208h29.758v16h-29.758z"/><path data-cppathid="10025" fill="#cececc" d="m184 273.878h16v29.758h-16z"/><path data-cppathid="10026" fill="#ededeb" d="m136.363 240h29.758v16h-29.758z"/><path data-cppathid="10027" fill="#ededeb" d="m216 160.363h16v29.758h-16z"/><path data-cppathid="10028" fill="#cececc" d="m216 273.878h16v29.758h-16z"/><path data-cppathid="10029" fill="#666" d="m160 184h96v96h-96z"/><path data-cppathid="10030" fill="#565655" d="m180.643 280h75.357v-57.909a441.748 441.748 0 0 1 -75.357 57.909z"/><path data-cppathid="10031" fill="#96d320" d="m192 216h32v32h-32z"/><path data-cppathid="10032" fill="#035924" d="m256 280h232v128h-232z"/><path data-cppathid="10033" fill="#033f18" d="m487.929 408h.071v-128h-232v24.579a533.528 533.528 0 0 1 231.929 103.421z"/><path data-cppathid="10034" fill="#96d320" d="m256 368h232v16h-232z"/><path data-cppathid="10035" fill="#96d320" d="m256 304h232v16h-232z"/><path data-cppathid="10036" fill="#85b218" d="m256 304.579a532.348 532.348 0 0 1 63.049 15.421h168.951v-16h-232z"/><path data-cppathid="10037" fill="#96d320" d="m256 336h232v16h-232z"/><path data-cppathid="10038" fill="#85b218" d="m454.34 384h33.66v-16h-59.518q13.171 7.638 25.858 16z"/><path data-cppathid="10039" fill="#85b218" d="m398.748 352h89.252v-16h-124.493q17.957 7.376 35.241 16z"/><path data-cppathid="10040" fill="#cba677" d="m288 280h48v128h-48z"/><path data-cppathid="10041" fill="#bb9063" d="m336 325.574v-45.574h-48v31.382q24.461 5.994 48 14.192z"/><path data-cppathid="10042" fill="#999488" d="m246.629 360a24.006 24.006 0 0 1 -22.629 16h-48a23.884 23.884 0 0 1 -12.494-3.506 23.983 23.983 0 0 0 20.494 11.506h48a24 24 0 0 0 24-24z"/><path data-cppathid="10043" fill="#ff5086" d="m248 16h16v480h-16z"/></svg>