<?xml version="1.0" encoding="UTF-8"?>
<svg xmlns="http://www.w3.org/2000/svg" onmouseup="{ if(window.parent.document.onmouseup) window.parent.document.onmouseup(arguments[0]);}" width="512" viewBox="0 0 512 512" height="512" enable-background="new 0 0 512 512" id="Capa_1"><g><g><path data-cppathid="10000" fill="#edf6ff" d="m376.715 512h-341.333c-11.495 0-20.813-9.318-20.813-20.813v-470.374c0-11.495 9.318-20.813 20.813-20.813h249.46c5.52 0 10.814 2.193 14.717 6.096l91.873 91.873c3.903 3.903 6.096 9.197 6.096 14.717v378.501c0 11.495-9.318 20.813-20.813 20.813z"/></g><g><path data-cppathid="10001" fill="#ddebfd" d="m391.432 97.969-91.873-91.873c-3.903-3.903-9.197-6.096-14.717-6.096h-16.355v83.252c0 25.288 20.5 45.789 45.789 45.789h47.87c5.747 0 10.407 4.659 10.407 10.407v352.78c0 9.232-6.016 17.048-14.337 19.772h18.5c11.495 0 20.813-9.318 20.813-20.813v-378.501c-.001-5.52-2.193-10.814-6.097-14.717z"/></g><g><path data-cppathid="10002" fill="#bed9fd" d="m314.276 104.065h81.358c-1.023-2.244-2.425-4.319-4.202-6.096l-91.873-91.873c-1.777-1.777-3.852-3.179-6.096-4.202v81.358c0 11.495 9.319 20.813 20.813 20.813z"/></g><g><g><g><circle data-cppathid="10003" r="16.65" fill="#f7e365" cy="295.545" cx="64.52"/></g></g><g><g><g><circle data-cppathid="10004" r="16.65" fill="#a2f5c3" cy="154.016" cx="64.52"/></g></g></g><g><g><g><circle data-cppathid="10005" r="16.65" fill="#e175a5" cy="220.618" cx="64.52"/></g></g></g><g><path data-cppathid="10006" fill="#4172ca" d="m355.902 170.667h-233.105c-4.598 0-8.325-3.727-8.325-8.325v-16.65c0-4.598 3.727-8.325 8.325-8.325h233.106c4.598 0 8.325 3.727 8.325 8.325v16.65c0 4.597-3.728 8.325-8.326 8.325z"/></g><g><path data-cppathid="10007" fill="#e175a5" d="m164.423 66.602h-115.728c-4.598 0-8.325-3.727-8.325-8.325v-16.65c0-4.598 3.727-8.325 8.325-8.325h115.727c4.598 0 8.325 3.727 8.325 8.325v16.65c.001 4.597-3.726 8.325-8.324 8.325z"/></g><g><path data-cppathid="10008" fill="#e69642" d="m251.837 170.667h-129.04c-4.598 0-8.325-3.727-8.325-8.325v-16.65c0-4.598 3.727-8.325 8.325-8.325h129.041c4.598 0 8.325 3.727 8.325 8.325v16.65c0 4.597-3.728 8.325-8.326 8.325z"/></g><g><path data-cppathid="10009" fill="#4172ca" d="m355.902 237.268h-233.105c-4.598 0-8.325-3.727-8.325-8.325v-16.65c0-4.598 3.727-8.325 8.325-8.325h233.106c4.598 0 8.325 3.727 8.325 8.325v16.65c0 4.598-3.728 8.325-8.326 8.325z"/></g><g><path data-cppathid="10010" fill="#e69642" d="m314.276 237.268h-191.48c-4.598 0-8.325-3.727-8.325-8.325v-16.65c0-4.598 3.727-8.325 8.325-8.325h191.48c4.598 0 8.325 3.727 8.325 8.325v16.65c.001 4.598-3.727 8.325-8.325 8.325z"/></g><g><path data-cppathid="10011" fill="#4172ca" d="m355.902 312.195h-233.105c-4.598 0-8.325-3.727-8.325-8.325v-16.65c0-4.598 3.727-8.325 8.325-8.325h233.106c4.598 0 8.325 3.727 8.325 8.325v16.65c0 4.598-3.728 8.325-8.326 8.325z"/></g><g><path data-cppathid="10012" fill="#e69642" d="m220.618 312.195h-97.821c-4.598 0-8.325-3.727-8.325-8.325v-16.65c0-4.598 3.727-8.325 8.325-8.325h97.821c4.598 0 8.325 3.727 8.325 8.325v16.65c0 4.598-3.727 8.325-8.325 8.325z"/></g></g><g><g><g><circle data-cppathid="10013" r="99.902" fill="#a2f5c3" cy="412.098" cx="397.528"/></g><g><path data-cppathid="10014" fill="#88f2a9" d="m457.663 332.319c12.631 16.73 20.124 37.556 20.124 60.135 0 55.175-44.728 99.902-99.902 99.902-22.578 0-43.404-7.493-60.135-20.124 18.235 24.154 47.182 39.768 79.778 39.768 55.175 0 99.902-44.728 99.902-99.902.001-32.597-15.613-61.544-39.767-79.779z"/></g></g><g><g><circle data-cppathid="10015" r="53.88" fill="#77d192" cy="412.098" cx="397.528"/></g></g></g><g><path data-cppathid="10016" fill="#91dafa" d="m72.846 107.402h-24.976c-4.143 0-7.5-3.357-7.5-7.5s3.357-7.5 7.5-7.5h24.976c4.143 0 7.5 3.357 7.5 7.5s-3.358 7.5-7.5 7.5z"/></g><g><path data-cppathid="10017" fill="#91dafa" d="m172.748 107.402h-66.602c-4.143 0-7.5-3.357-7.5-7.5s3.357-7.5 7.5-7.5h66.602c4.143 0 7.5 3.357 7.5 7.5s-3.357 7.5-7.5 7.5z"/></g><g><path data-cppathid="10018" fill="#edf6ff" d="m392.664 429.326c-1.919 0-3.839-.732-5.304-2.196l-9.729-9.729c-2.929-2.93-2.929-7.678 0-10.607 2.93-2.928 7.678-2.928 10.607 0l4.425 4.426 14.153-14.154c2.93-2.928 7.678-2.928 10.607 0 2.929 2.93 2.929 7.678 0 10.607l-19.457 19.457c-1.463 1.464-3.383 2.196-5.302 2.196z"/></g><g><g><path data-cppathid="10019" fill="#91dafa" d="m253.555 379.012h-31.896c-4.143 0-7.5-3.357-7.5-7.5s3.357-7.5 7.5-7.5h31.896c4.143 0 7.5 3.357 7.5 7.5s-3.358 7.5-7.5 7.5z"/></g><g><path data-cppathid="10020" fill="#91dafa" d="m253.555 412.313h-139.76c-4.143 0-7.5-3.357-7.5-7.5s3.357-7.5 7.5-7.5h139.76c4.143 0 7.5 3.357 7.5 7.5s-3.358 7.5-7.5 7.5z"/></g><g><path data-cppathid="10021" fill="#91dafa" d="m80.13 412.313h-32.26c-4.143 0-7.5-3.357-7.5-7.5s3.357-7.5 7.5-7.5h32.26c4.143 0 7.5 3.357 7.5 7.5s-3.358 7.5-7.5 7.5z"/></g><g><path data-cppathid="10022" fill="#e175a5" d="m188.357 379.012h-140.487c-4.143 0-7.5-3.357-7.5-7.5s3.357-7.5 7.5-7.5h140.487c4.143 0 7.5 3.357 7.5 7.5s-3.357 7.5-7.5 7.5z"/></g><g><path data-cppathid="10023" fill="#91dafa" d="m174.153 445.614h-126.283c-4.143 0-7.5-3.357-7.5-7.5s3.357-7.5 7.5-7.5h126.283c4.143 0 7.5 3.357 7.5 7.5s-3.357 7.5-7.5 7.5z"/></g></g></g></svg>