<?xml version="1.0" encoding="UTF-8"?>
<svg xmlns="http://www.w3.org/2000/svg" onmouseup="{ if(window.parent.document.onmouseup) window.parent.document.onmouseup(arguments[0]);}" width="512" viewBox="0 0 64 64" height="512" enable-background="new 0 0 64 64" id="Layer_5"><g><g><g><path data-cppathid="10000" fill="#fcd770" d="m15.58 3.67c-2.69 1.12-5.1 2.75-7.13 4.78s-3.66 4.44-4.78 7.13c-.83 2-1.37 4.16-1.58 6.42h6.05c.18-1.44.55-2.83 1.09-4.12.81-1.96 2-3.71 3.47-5.18s3.22-2.66 5.18-3.47c1.29-.54 2.68-.91 4.12-1.09v-6.05c-2.26.21-4.42.75-6.42 1.58z"/></g><g><path data-cppathid="10001" fill="#ff826e" d="m41.97 11.32c-2.38-3.38-5.69-6.05-9.56-7.64-2-.84-4.16-1.39-6.41-1.59v6.05c1.44.18 2.83.55 4.12 1.09 2.91 1.2 5.38 3.24 7.12 5.81l.01.01c1.28-1.55 2.9-2.82 4.74-3.69v-.01z"/></g><g><path data-cppathid="10002" fill="#e6e9ed" d="m12.7 35.3c-1.47-1.47-2.66-3.22-3.47-5.18-.54-1.29-.91-2.68-1.09-4.12h-6.05c.21 2.25.76 4.41 1.59 6.42 1.11 2.69 2.74 5.1 4.77 7.13.33.34.68.67 1.04.99h.01l11.99.85.51.04v-1.57c-3.62-.45-6.86-2.11-9.3-4.56z"/></g><g><path data-cppathid="10003" fill="#b4dd7f" d="m9.5 40.54 11.99.85c-2.11 1.44-3.49 3.86-3.49 6.61s1.38 5.17 3.49 6.61l-19.49 1.39v-16l7.49.54z"/></g><g><path data-cppathid="10004" fill="#a0d468" d="m30 42v12l-8.51.61c-2.11-1.44-3.49-3.86-3.49-6.61s1.38-5.17 3.49-6.61l.51.04z"/></g><g><circle data-cppathid="10005" r="2" fill="#e6e9ed" cy="48" cx="24"/></g><g><path data-cppathid="10006" fill="#f0d0b4" d="m54 54c1.1 0 2 .9 2 2 0 .55-.22 1.05-.59 1.41-.36.37-.86.59-1.41.59h-2-2c-1.1 0-2-.9-2-2 0-.55.22-1.05.59-1.41.36-.37.86-.59 1.41-.59z"/></g><g><path data-cppathid="10007" fill="#f0d0b4" d="m56 42c1.1 0 2 .9 2 2 0 .55-.22 1.05-.59 1.41-.36.37-.86.59-1.41.59h-2-2v-4z"/></g><g><path data-cppathid="10008" fill="#f0d0b4" d="m54 46c1.1 0 2 .9 2 2 0 .55-.22 1.05-.59 1.41-.36.37-.86.59-1.41.59h-4c-1.1 0-2-.9-2-2 0-.55.22-1.05.59-1.41.36-.37.86-.59 1.41-.59h2z"/></g><g><path data-cppathid="10009" fill="#f0d0b4" d="m54 50c1.1 0 2 .9 2 2 0 .55-.22 1.05-.59 1.41-.36.37-.86.59-1.41.59h-4c-1.1 0-2-.9-2-2 0-.55.22-1.05.59-1.41.36-.37.86-.59 1.41-.59z"/></g><g><path data-cppathid="10010" fill="#f0d0b4" d="m44 42v16h-6.9c-1.36 0-2.68-.46-3.74-1.31l-3.36-2.69v-12l3.36-2.69c1.06-.85 2.38-1.31 3.74-1.31h9.9c.55 0 1 .45 1 1 0 .83-.34 1.58-.88 2.12s-1.29.88-2.12.88z"/></g><g><path data-cppathid="10011" fill="#969faa" d="m48 38c1.39 0 2.74-.2 4-.58v4.58 4h-2c-.55 0-1.05.22-1.41.59-.37.36-.59.86-.59 1.41 0 1.1.9 2 2 2-.55 0-1.05.22-1.41.59-.37.36-.59.86-.59 1.41 0 1.1.9 2 2 2-.55 0-1.05.22-1.41.59-.37.36-.59.86-.59 1.41 0 1.1.9 2 2 2h2v2c0 1.1-.9 2-2 2h-4c-1.1 0-2-.9-2-2v-2-16h1c.83 0 1.58-.34 2.12-.88s.88-1.29.88-2.12c0-.55-.45-1-1-1v-.04c.33.03.66.04 1 .04z"/></g><g><path data-cppathid="10012" fill="#ffc729" d="m52 37.42c-1.26.38-2.61.58-4 .58-.34 0-.67-.01-1-.04-7.26-.51-13-6.57-13-13.96 0-3.4 1.22-6.52 3.25-8.95 1.28-1.55 2.9-2.82 4.74-3.69v-.01c1.82-.86 3.86-1.35 6.01-1.35 7.73 0 14 6.27 14 14 0 6.34-4.22 11.7-10 13.41z"/></g><g><circle data-cppathid="10013" r="10" fill="#fcd770" cy="24" cx="48"/></g><g><path data-cppathid="10014" fill="#ff826e" d="m25 18h4v14h-4z"/></g><g><path data-cppathid="10015" fill="#ff826e" d="m17 22h4v10h-4z"/></g></g><g><path data-cppathid="10016" d="m56 41h-3v-2.875c5.816-2.066 10-7.609 10-14.125 0-8.271-6.729-15-15-15-2.008 0-3.921.403-5.673 1.122-3.913-5.163-9.784-8.441-16.237-9.023l-1.09-.098v8.021l.876.109c4.041.504 7.681 2.657 10.118 5.915-1.871 2.503-2.994 5.596-2.994 8.954 0 5.558 3.046 10.409 7.549 13h-3.444c-1.583 0-3.136.545-4.373 1.533l-3.052 2.442-6.68-.477v-1.519l-.876-.109c-6.8-.85-12.144-6.192-12.994-12.993l-.109-.877h-8.021l.098 1.09c.449 4.971 2.493 9.582 5.799 13.257l-5.897-.421v18.148l28.68-2.049 3.052 2.442c1.237.988 2.789 1.533 4.372 1.533h5.896v1c0 1.654 1.346 3 3 3h4c1.654 0 3-1.346 3-3v-1h1c1.654 0 3-1.346 3-3 0-.771-.301-1.468-.78-2 .48-.532.78-1.229.78-2s-.301-1.468-.78-2c.48-.532.78-1.229.78-2 0-.395-.081-.77-.22-1.116 1.275-.346 2.22-1.501 2.22-2.884 0-1.654-1.346-3-3-3zm-1 7c0 .552-.449 1-1 1h-4c-.551 0-1-.448-1-1s.449-1 1-1h2 2c.551 0 1 .448 1 1zm0 4c0 .552-.449 1-1 1h-4c-.551 0-1-.448-1-1s.449-1 1-1h4c.551 0 1 .448 1 1zm-28-48.782c1.409.202 2.782.547 4.103 1.021l-1.545 3.729c-.832-.288-1.682-.532-2.558-.689zm4.408 5.511 1.541-3.72c2.921 1.377 5.496 3.438 7.535 6.03-1.161.676-2.228 1.494-3.164 2.445-1.602-2.027-3.625-3.645-5.912-4.755zm3.592 15.271c0-7.168 5.832-13 13-13s13 5.832 13 13-5.832 13-13 13-13-5.832-13-13zm-16.062 16.207-9.013-.644c-.013-.012-.025-.024-.038-.036l2.828-2.828c1.777 1.579 3.89 2.784 6.223 3.508zm-13.921-7.261 3.703-1.534c.684 1.412 1.552 2.715 2.581 3.873l-2.827 2.827c-1.415-1.552-2.574-3.292-3.457-5.166zm2.261-5.946c.157.882.382 1.739.668 2.568l-3.696 1.531c-.474-1.322-.831-2.689-1.033-4.099zm-4.278 14.074 16.115 1.151c-1.344 1.602-2.115 3.634-2.115 5.775s.771 4.173 2.115 5.775l-16.115 1.151zm26 11.995-7.199.514c-1.754-1.322-2.801-3.379-2.801-5.583s1.047-4.261 2.801-5.583l7.199.514zm8.104 3.931c-1.13 0-2.24-.389-3.124-1.096l-2.98-2.385v-11.038l2.981-2.385c.884-.707 1.993-1.096 3.123-1.096h9.896c0 1.103-.897 2-2 2h-5.414l-1.536 1.535c-.944.944-2.199 1.465-3.535 1.465h-1.515v2h1.515c1.871 0 3.628-.729 4.95-2.051l.949-.949h2.586v14zm13.896 3c0 .552-.449 1-1 1h-4c-.551 0-1-.448-1-1v-17c2.206 0 4-1.794 4-4 0-.017-.005-.033-.005-.05.68-.045 1.352-.119 2.005-.252v6.302h-1c-1.654 0-3 1.346-3 3 0 .771.301 1.468.78 2-.48.532-.78 1.229-.78 2s.301 1.468.78 2c-.48.532-.78 1.229-.78 2 0 1.654 1.346 3 3 3h1zm3-3h-4c-.551 0-1-.448-1-1s.449-1 1-1h4c.551 0 1 .448 1 1s-.449 1-1 1zm2-12h-2-1v-2h3c.551 0 1 .448 1 1s-.449 1-1 1z"/><path data-cppathid="10017" d="m59 24c0-6.065-4.935-11-11-11s-11 4.935-11 11 4.935 11 11 11 11-4.935 11-11zm-20 0c0-4.963 4.038-9 9-9s9 4.037 9 9-4.038 9-9 9-9-4.037-9-9z"/><path data-cppathid="10018" d="m49 31v-2c1.654 0 3-1.346 3-3s-1.346-3-3-3h-2c-.551 0-1-.448-1-1s.449-1 1-1h2c.551 0 1 .448 1 1h2c0-1.654-1.346-3-3-3v-2h-2v2c-1.654 0-3 1.346-3 3s1.346 3 3 3h2c.551 0 1 .448 1 1s-.449 1-1 1h-2c-.551 0-1-.448-1-1h-2c0 1.654 1.346 3 3 3v2z"/><path data-cppathid="10019" d="m21 48c0 1.654 1.346 3 3 3s3-1.346 3-3-1.346-3-3-3-3 1.346-3 3zm3-1c.551 0 1 .448 1 1s-.449 1-1 1-1-.448-1-1 .449-1 1-1z"/><path data-cppathid="10020" d="m9.13 22.124c.85-6.801 6.194-12.144 12.994-12.993l.876-.11v-8.02l-1.09.098c-11.061.997-19.814 9.75-20.811 20.811l-.099 1.09h8.021zm3.585-10.823-2.835-2.836c1.534-1.394 3.273-2.561 5.172-3.455l1.536 3.709c-1.412.684-2.714 1.552-3.873 2.582zm8.285-4.022c-.882.157-1.739.381-2.567.667l-1.531-3.698c1.312-.469 2.678-.828 4.098-1.03zm-12.534 2.6 2.835 2.836c-1.03 1.159-1.898 2.461-2.581 3.873l-3.709-1.536c.893-1.9 2.061-3.639 3.455-5.173zm-5.249 11.121c.203-1.42.562-2.786 1.031-4.099l3.697 1.531c-.285.829-.51 1.686-.667 2.568z"/><path data-cppathid="10021" d="m24 17v14h-2v-10h-6v10h-2v2h18v-2h-2v-14zm2 2h2v12h-2zm-8 4h2v8h-2z"/></g></g></svg>