<?xml version="1.0" encoding="UTF-8"?>
<svg xmlns="http://www.w3.org/2000/svg" onmouseup="{ if(window.parent.document.onmouseup) window.parent.document.onmouseup(arguments[0]);}" width="512" viewBox="0 0 64 64" height="512" enable-background="new 0 0 64 64" id="Layer_5"><g><g><g><path data-cppathid="10000" fill="#969faa" d="m47 60v2h-30v-2c0-1.1.9-2 2-2h4 18 4c1.1 0 2 .9 2 2z"/></g><g><path data-cppathid="10001" fill="#69d6f4" d="m6 6h52c2.209 0 4 1.791 4 4v34h-60v-34c0-2.209 1.791-4 4-4z"/></g><g><path data-cppathid="10002" fill="#aab2bd" d="m23 52h18v6h-18z"/></g><g><path data-cppathid="10003" fill="#ccd1d9" d="m30 44h8 24v4c0 2.21-1.79 4-4 4h-17-18-17c-2.21 0-4-1.79-4-4v-4h6 6 13.99z"/></g><g><path data-cppathid="10004" fill="#fcd770" d="m18.15 29.9c1.41.59 2.7 1.36 3.85 2.28 3.57 2.85 5.79 7.14 5.99 11.82h-13.99-6v-4.75c0-4.85 3.3-9.07 8-10.25z"/></g><g><path data-cppathid="10005" fill="#656d78" d="m30.97 6c.02.16.03.33.03.5 0 1.24-.5 2.37-1.32 3.18-.81.82-1.94 1.32-3.18 1.32h-2.28-.22-5c-1.66 0-3 1.34-3 3v2c-.55 0-1.05.22-1.41.59-.37.36-.59.86-.59 1.41v.17c0 .53.21 1.04.59 1.42l1.41 1.41v5l-1.17-.58c-4.18-2.1-6.83-6.38-6.83-11.06 0-3.23 1.23-6.16 3.26-8.36.12-.13.24-.26.36-.38 2.24-2.24 5.32-3.62 8.74-3.62h6.14c2.32 0 4.22 1.75 4.47 4z"/></g><g><path data-cppathid="10006" fill="#ccd1d9" d="m38 29v-8.02c3.52-.14 6.97-1.16 10-2.98v14c-1.57-.94-3.25-1.67-5-2.18-.02-1.01-.84-1.82-1.85-1.82h-1.3c-.68 0-1.27.37-1.58.91h-.01z"/></g><g><path data-cppathid="10007" fill="#ff826e" d="m38 20.98v8.02l-.06.02c-.26-.01-.51-.02-.77-.02h-3.17c-1.1 0-2-.9-2-2v-2-2c0-1.1.9-2 2-2h3.17c.28 0 .56-.01.83-.02z"/></g><g><path data-cppathid="10008" fill="#ff826e" d="m52 28v4c0 1.1-.9 2-2 2s-2-.9-2-2v-14c0-1.1.9-2 2-2 .55 0 1.05.22 1.41.59.37.36.59.86.59 1.41z"/></g><g><path data-cppathid="10009" fill="#f0d0b4" d="m42 34-4 10h-8l7-9-1.23-1.23c-.49-.49-.77-1.16-.77-1.86 0-1.14.73-2.15 1.81-2.51l1.13-.38h.06v-.02l.26-.09h.01c.31-.54.9-.91 1.58-.91h1.3c1.01 0 1.83.81 1.85 1.82v.03c0 .76-.12 1.52-.36 2.24z"/></g><g><path data-cppathid="10010" fill="#f0d0b4" d="m22 26v6.18c-1.15-.92-2.44-1.69-3.85-2.28l-2.15-.9v-3-5l-1.41-1.41c-.38-.38-.59-.89-.59-1.42v-.17c0-.55.22-1.05.59-1.41.36-.37.86-.59 1.41-.59v-2c0-1.66 1.34-3 3-3h5 .22c1.13 0 2.16.63 2.68 1.64.88 1.72 2.1 4.45 2.1 6.36l-3 1v2.59c0 .9-.36 1.77-1 2.41s-1.51 1-2.41 1z"/></g></g><g><path data-cppathid="10011" d="m23.707 13.293c-1.228-1.229-1.707-2.432-1.707-4.293h-2c0 2.393.686 4.1 2.293 5.707z"/><path data-cppathid="10012" d="m58 5h-26.213c-.655-2.305-2.775-4-5.287-4h-6.139c-3.724 0-7.093 1.534-9.518 4h-4.843c-2.757 0-5 2.243-5 5v38c0 2.757 2.243 5 5 5h16v4h-3c-1.654 0-3 1.346-3 3v3h32v-3c0-1.654-1.346-3-3-3h-3v-4h16c2.757 0 5-2.243 5-5v-38c0-2.757-2.243-5-5-5zm-26.025 2h26.025c1.654 0 3 1.346 3 3v33h-21.523l3.472-8.684.638-1.914c.135-.406.236-.82.305-1.24 1.1.391 2.16.885 3.176 1.462.288 1.356 1.492 2.376 2.932 2.376 1.654 0 3-1.346 3-3v-14c0-1.654-1.346-3-3-3-1.439 0-2.643 1.02-2.932 2.374-3.016 1.713-6.426 2.626-9.899 2.626h-3.169c-1.654 0-3 1.346-3 3v4c0 1.654 1.346 3 3 3h.549c-.345.561-.549 1.213-.549 1.905 0 .973.379 1.888 1.067 2.576l.601.602-6.158 7.917h-.6c-.436-4.419-2.6-8.452-5.91-11.275v-4.765c1.021-.095 1.973-.518 2.707-1.253.834-.833 1.293-1.941 1.293-3.121v-1.865l3-1v-.721c0-2.068-1.204-4.85-2.213-6.819-.053-.103-.117-.197-.177-.294 2.343-.482 4.145-2.459 4.365-4.887zm4.506 26.067c-.31-.31-.481-.723-.481-1.162 0-.689.431-1.293 1.072-1.533.161.87.692 1.627 1.506 2.035l.975.487.895-1.789-.975-.487c-.292-.145-.473-.438-.473-.764 0-.471.383-.854.854-.854h1.292c.471 0 .854.383.854.854 0 .652-.104 1.297-.311 1.917l-.618 1.858-3.748 9.371h-5.278l6.286-8.083zm-3.481-7.067h2v-2h-2v-1c0-.551.449-1 1-1h3v6h-3c-.551 0-1-.449-1-1zm14 4.321c-1.008-.502-2.054-.923-3.128-1.266-.348-1.183-1.431-2.055-2.726-2.055h-1.292c-.299 0-.583.059-.854.145v-5.23c2.784-.232 5.498-.989 8-2.235zm2 1.679v-14c0-.551.449-1 1-1s1 .449 1 1v14c0 .551-.449 1-1 1s-1-.449-1-1zm-36 3v8h-4v-3.754c0-4.287 2.833-8.021 6.93-9.192l1.839.766c5.038 2.099 8.534 6.807 9.137 12.18h-11.906v-8zm7.361-32h6.139c1.93 0 3.5 1.57 3.5 3.5s-1.57 3.5-3.5 3.5h-2.277-.223v2h.223c.755 0 1.438.419 1.784 1.093 1.075 2.097 1.746 3.907 1.937 5.205l-2.944.982v3.307c0 .645-.251 1.251-.708 1.708-.455.455-1.061.705-1.705.705h-.001-3.586v2h2v3.257c-.779-.488-1.597-.922-2.461-1.282l-1.539-.641v-7.748l-1.707-1.707c-.189-.189-.293-.441-.293-.708v-.171c0-.551.449-1 1-1h1v-3c0-1.103.897-2 2-2v-2c-2.206 0-4 1.794-4 4v1.171c-1.164.413-2 1.525-2 2.829v.171c0 .801.312 1.555.879 2.122l1.121 1.121v2.943c-3.703-1.984-6-5.775-6-9.996 0-6.264 5.097-11.361 11.361-11.361zm-14.361 4h3.222c-1.401 2.113-2.222 4.642-2.222 7.361 0 5.094 2.83 9.673 7.386 11.951l.614.307v1.635c-4.746 1.534-8 5.943-8 10.993v3.753h-4v-33c0-1.654 1.346-3 3-3zm40 53v1h-28v-1c0-.552.449-1 1-1h26c.551 0 1 .448 1 1zm-6-3h-16v-4h16zm18-6h-52c-1.654 0-3-1.346-3-3v-3h58v3c0 1.654-1.346 3-3 3z"/><path data-cppathid="10013" d="m9 47h2v2h-2z"/><path data-cppathid="10014" d="m5 47h2v2h-2z"/><path data-cppathid="10015" d="m13 47h2v2h-2z"/><path data-cppathid="10016" d="m55 24h4v2h-4z"/><path data-cppathid="10017" transform="matrix(.894 -.447 .447 .894 -3.374 27.708)" d="m54.764 20h4.472v2h-4.472z"/><path data-cppathid="10018" transform="matrix(.447 -.894 .894 .447 5.57 67.013)" d="m56 26.764h2v4.472h-2z"/></g></g></svg>