<?xml version="1.0" encoding="UTF-8"?>
<svg xmlns="http://www.w3.org/2000/svg" onmouseup="{ if(window.parent.document.onmouseup) window.parent.document.onmouseup(arguments[0]);}" width="512" viewBox="0 0 24 24" height="512" enable-background="new 0 0 24 24" id="Layer_1"><g><circle cx="7.5" cy="3.5" r=".5"/><circle cx="5.5" cy="3.5" r=".5"/><path d="m19.873 9h-2.873v-6.457c0-.851-.692-1.543-1.543-1.543h-10.914c-.851 0-1.543.692-1.543 1.543v18.913c0 .852.692 1.544 1.543 1.544h10.913c.852 0 1.544-.692 1.544-1.543v-3.457h2.873c.621 0 1.127-.506 1.127-1.127v-6.745c0-.622-.506-1.128-1.127-1.128zm-3.873-6.457v1.457h-4.125c-.608 0-1.148-.387-1.343-.962l-.353-1.038h5.277c.3 0 .544.244.544.543zm0 18.914c0 .3-.244.543-.543.543h-10.914c-.299 0-.543-.244-.543-.543v-18.914c0-.299.244-.543.543-.543h4.58l.461 1.359c.334.981 1.254 1.641 2.291 1.641h4.125v4h-7.873c-.621 0-1.127.506-1.127 1.127v6.745c0 .622.506 1.128 1.127 1.128h7.873zm4-4.584c0 .07-.057.127-.127.127h-11.746c-.07 0-.127-.057-.127-.127v-6.745c0-.071.057-.128.127-.128h11.745c.071 0 .128.057.128.127z"/><path d="m10.5 12c.276 0 .5-.224.5-.5s-.224-.5-.5-.5h-1c-.276 0-.5.224-.5.5v4c0 .276.224.5.5.5h1c.276 0 .5-.224.5-.5s-.224-.5-.5-.5h-.5v-3z"/><path d="m18.5 11h-1c-.276 0-.5.224-.5.5s.224.5.5.5h.5v3h-.5c-.276 0-.5.224-.5.5s.224.5.5.5h1c.276 0 .5-.224.5-.5v-4c0-.276-.224-.5-.5-.5z"/><path d="m14 12c-.827 0-1.5.673-1.5 1.5s.673 1.5 1.5 1.5 1.5-.673 1.5-1.5-.673-1.5-1.5-1.5zm0 2c-.276 0-.5-.224-.5-.5s.224-.5.5-.5.5.224.5.5-.224.5-.5.5z"/></g></svg>