<?xml version="1.0" encoding="UTF-8"?>
<svg xmlns="http://www.w3.org/2000/svg" onmouseup="{ if(window.parent.document.onmouseup) window.parent.document.onmouseup(arguments[0]);}" width="512" viewBox="0 0 512 512" height="512" enable-background="new 0 0 512 512" id="Capa_1"><g><g><path data-cppathid="10000" fill="#ffc364" d="m256 22c-135.31 0-245 109.69-245 245 0 62.39 23.333 119.321 61.733 162.575l272.209 65.77c91.336-35.601 156.058-124.411 156.058-228.345 0-135.31-109.69-245-245-245z"/></g><g><circle data-cppathid="10001" r="190" fill="#fcb332" cy="232" cx="256"/></g><g><g><path data-cppathid="10002" fill="#2fad4f" d="m431.1 57.97-212.51-56.94c-16-4.29-32.45 5.21-36.74 21.21l-3.28 12.25-105.86 395.08c3.89 4.39 7.93 8.63 12.12 12.72l243.01 59.01c5.8-1.78 11.51-3.76 17.12-5.95l102.24-381.55 5.11-19.09c4.29-16-5.21-32.45-21.21-36.74z"/></g><g><path data-cppathid="10003" fill="#3ece5d" d="m427.22 72.46-35.62-9.54-150.93-40.44-25.96-6.96c-8-2.15-16.23 2.6-18.37 10.61l-.92 3.42-110.59 412.74c4.027 3.927 8.183 7.713 12.469 11.37l.015-.01 213.794 52.124-.003.006c.001 0 .002 0 .004-.001 5.66-1.3 11.23-2.8 16.73-4.48l107.5-401.21 2.48-9.26c2.151-7.999-2.599-16.229-10.599-18.369z"/></g><g><path data-cppathid="10004" fill="#2b8f49" d="m419.45 101.44-108.34 404.34c-17.71 4.07-36.16 6.22-55.11 6.22-60.54 0-115.94-21.95-158.69-58.33l109.64-409.17c8 2.14 16.22-2.61 18.37-10.61l183.52 49.18c-2.14 8 2.61 16.22 10.61 18.37z"/></g><g><path data-cppathid="10005" fill="#217a38" d="m307.133 404.7-154.548-41.411c-16.004-4.288-25.501-20.738-21.213-36.742l-34.057 127.104c42.752 36.382 98.149 58.349 158.685 58.349 18.949 0 37.395-2.154 55.109-6.226l32.767-122.288c-4.288 16.005-20.738 25.502-36.743 21.214z"/></g><g><path data-cppathid="10006" fill="#3ece5d" d="m208.354 464.252c-17.56-4.705-27.981-22.755-23.276-40.315l83.429-311.36c4.705-17.56 22.755-27.981 40.315-23.276 17.56 4.705 27.981 22.755 23.276 40.315l-83.429 311.36c-4.705 17.561-22.754 27.982-40.315 23.276z"/></g><g><path data-cppathid="10007" transform="matrix(.259 -.966 .966 .259 -75.685 454.919)" fill="#217a38" d="m97.416 258.86h322.344v35.833h-322.344z"/></g><g><circle data-cppathid="10008" r="17.917" fill="#2fad4f" cy="121.097" cx="300.303"/></g><g><circle data-cppathid="10009" r="17.917" fill="#2fad4f" cy="432.457" cx="216.874"/></g><g><circle data-cppathid="10010" r="93.255" fill="#3ece5d" cy="276.777" cx="258.588"/></g><g><ellipse data-cppathid="10011" transform="matrix(.259 -.966 .966 .259 -75.685 454.919)" ry="78.255" rx="78.255" fill="#2b8f49" cy="276.777" cx="258.588"/></g><g><path data-cppathid="10012" fill="#217a38" d="m246.099 323.388c-36.723-9.84-60.346-44.389-57.808-80.976-2.172 4.447-3.963 9.156-5.291 14.111-11.168 41.68 13.655 84.675 55.334 95.843s84.674-13.655 95.842-55.335c1.328-4.956 2.131-9.929 2.474-14.866-16.095 32.953-53.828 51.063-90.551 41.223z"/></g><g><g><path data-cppathid="10013" fill="#3ece5d" d="m244.491 244.486-1.455 5.428c-5.117-.194-10.138.577-14.841 2.182l2.994-11.175c1.312-4.898-1.594-9.931-6.492-11.244-4.898-1.312-9.931 1.594-11.244 6.492l-14.256 53.206c-1.312 4.898 1.594 9.931 6.492 11.244s9.931-1.594 11.244-6.492l2.376-8.868c2.431-9.072 10.004-15.416 18.744-16.748l-7.819 29.18c-1.312 4.898 1.594 9.931 6.492 11.244 4.898 1.312 9.931-1.594 11.244-6.492l7.819-29.18c6.903 5.524 10.29 14.804 7.859 23.877l-2.376 8.868c-.993 3.707.424 7.64 3.553 9.862s7.31 2.262 10.482.102l45.068-30.693c1.891-1.288 3.15-3.158 3.699-5.208.668-2.491.287-5.248-1.279-7.548-2.854-4.191-8.565-5.274-12.755-2.42l-27.321 18.607c-.872-14.262-9.163-27.286-21.948-34.037l1.456-5.435c1.312-4.898-1.594-9.931-6.492-11.244s-9.932 1.595-11.244 6.492z"/></g><g><path data-cppathid="10014" fill="#2fad4f" d="m310.039 270.103-27.321 18.607c-.76-12.428-7.155-23.915-17.247-31.131 2.073 2.338 2.973 5.636 2.104 8.88-1.376 5.134-6.652 8.18-11.786 6.805 6.903 5.524 10.29 14.804 7.859 23.877l-2.376 8.868c-.993 3.707.424 7.64 3.553 9.862s7.31 2.262 10.482.102l45.068-30.693c1.891-1.288 3.15-3.158 3.699-5.208.668-2.491.287-5.248-1.279-7.548-2.854-4.191-8.565-5.275-12.756-2.421z"/></g></g><g><path data-cppathid="10015" fill="#3ece5d" d="m151.592 386.317-16.823 62.785c-1.072 4.001-5.185 6.375-9.186 5.303-4.001-1.072-6.375-5.185-5.303-9.186l16.823-62.785c1.072-4.001 5.185-6.375 9.186-5.303 4 1.072 6.375 5.185 5.303 9.186z"/></g><g><path data-cppathid="10016" fill="#3ece5d" d="m396.897 108.334-16.823 62.785c-1.072 4.001-5.185 6.375-9.186 5.303-4.001-1.072-6.375-5.185-5.303-9.186l16.823-62.785c1.072-4.001 5.185-6.375 9.186-5.303 4.001 1.073 6.375 5.185 5.303 9.186z"/></g></g></g></svg>