<?xml version="1.0" encoding="UTF-8"?>
<svg xmlns="http://www.w3.org/2000/svg" onmouseup="{ if(window.parent.document.onmouseup) window.parent.document.onmouseup(arguments[0]);}" width="512" viewBox="0 0 512 512" height="512" enable-background="new 0 0 512 512" id="Capa_1"><g><path data-cppathid="10000" fill="#f4dd45" d="m460.46 281.765c0 127.155-103.07 230.235-230.225 230.235s-230.234-103.08-230.234-230.235 103.08-230.224 230.235-230.224v230.224z"/><path data-cppathid="10001" fill="#eab14d" d="m245.307 511.516c-4.976.319-10.003.484-15.072.484-127.155 0-230.234-103.08-230.234-230.235s103.08-230.224 230.235-230.224v1.957c-112.908 14.763-200.092 111.332-200.092 228.267 0 122.087 95.034 221.983 215.163 229.751z"/><path data-cppathid="10002" fill="#df751c" d="m189.06 228.674c-8.056-6.318-11.496-18.544-8.978-31.905 2.309-12.253 10.56-27.062 26.795-32.524v75.685c-6.74-3.579-12.811-7.33-17.817-11.256zm93.274 122.75c-2.547 15.151-11.761 31.085-27.202 40.392v-91.854c30.769 14.07 28.685 42.642 27.202 51.462zm27.771-49.21c-4.203-7.654-9.591-14.515-16.04-20.449h-63.83v-195.404c-6.356.196-12.084 2.843-16.287 7.046-4.368 4.358-7.067 10.395-7.067 17.06v15.463c-3.111.67-6.284 1.473-9.519 2.452-27.537 8.293-48.109 31.863-53.693 61.522-5.099 27.011 3.534 53.044 22.52 67.93 10.271 8.056 23.055 15.422 40.692 23.23v118.522c-15.679-1.01-26.249-4.595-43.7-15.968-8.633-5.625-20.645-3.358-26.156 5.347-5.419 8.54-2.988 19.872 5.501 25.425 25.064 16.4 42.093 21.139 64.355 22.293v16.39c0 13.32 10.796 24.127 24.127 24.127 6.655 0 12.692-2.699 17.06-7.067s7.067-10.405 7.067-17.06v-20.779c12.568-4.08 24.065-10.755 34.017-19.893 15.638-14.371 26.197-33.852 29.731-54.837 3.254-19.407.143-39.063-8.778-55.35z"/><path data-cppathid="10003" fill="#f4dd45" d="m503.308 238.927h-230.234v-230.224c127.155 0 230.234 103.069 230.234 230.224z"/><path data-cppathid="10004" fill="#df751c" d="m312.076 131.098c7.871 6.542 19.553 5.47 26.095-2.39 6.552-7.871 5.481-19.553-2.39-26.095-3.843-3.204-17.286-13.392-37.808-18.687v-16.297c0-13.33-10.807-24.127-24.127-24.127-.258 0-.515 0-.773.02v195.404h63.83c-8.86-8.18-19.738-14.618-32.265-19.048-2.204-.783-4.43-1.587-6.665-2.39v-94.684c7.51 3.153 12.373 6.852 14.103 8.294z"/><circle data-cppathid="10005" r="72.359" fill="#78d090" cy="72.36" cx="439.641"/><path data-cppathid="10006" fill="#63af7d" d="m451.572 143.731c-3.884.659-7.871.989-11.93.989-39.961 0-72.36-32.399-72.36-72.36s32.399-72.36 72.36-72.36c4.059 0 8.046.33 11.93.989-34.295 5.676-60.441 35.469-60.441 71.371s26.146 65.694 60.441 71.371z"/><path data-cppathid="10007" fill="#528e61" d="m483.491 64.633h-36.124v-36.123c0-4.267-3.459-7.726-7.726-7.726s-7.726 3.459-7.726 7.726v36.123h-36.124c-4.268 0-7.726 3.459-7.726 7.726s3.459 7.726 7.726 7.726h36.124v36.123c0 4.267 3.459 7.726 7.726 7.726s7.726-3.459 7.726-7.726v-36.122h36.124c4.268 0 7.726-3.459 7.726-7.726s-3.458-7.727-7.726-7.727z"/></g></svg>