<?xml version="1.0" encoding="UTF-8"?>
<svg xmlns="http://www.w3.org/2000/svg" onmouseup="{ if(window.parent.document.onmouseup) window.parent.document.onmouseup(arguments[0]);}" width="512" viewBox="0 0 48 48" height="512"><g id="color"><path d="m29.13.817v10.421h2.171l-2.171 4.911 7.733-4.911h8.771v-10.421z" fill="#c1eafe"/><path d="m27.143 23.607-8.343-1.895v-3.124a5.04 5.04 0 0 1 -2.9.918h-.022a5.028 5.028 0 0 1 -2.725-.808v3.014l-8.345 1.895a3.373 3.373 0 0 0 -2.442 3.369v14.011a2.135 2.135 0 0 0 2.134 2.135h3.2v4.128h21.88v-20.274a3.373 3.373 0 0 0 -2.437-3.369z" fill="#fcd3c4"/><path d="m15.9 19.506h-.022a5.028 5.028 0 0 1 -2.725-.808v2.042a6.842 6.842 0 0 0 2.725.566h.022a6.823 6.823 0 0 0 2.9-.649v-2.069a5.04 5.04 0 0 1 -2.9.918z" fill="#ffc7b5"/><path d="m29.585 47.25v-20.274a3.373 3.373 0 0 0 -2.442-3.369l-8.343-1.895-2.8 13.612-2.846-13.612-8.346 1.895a3.373 3.373 0 0 0 -2.442 3.369v14.011a2.135 2.135 0 0 0 2.134 2.135h3.2v4.128z" fill="#404d61"/><path d="m9.599 22.519-1.397 3.113 2.928-.225-.77 2.053 5.637 7.864-2.843-13.612z" fill="#53677d"/><path d="m15.997 35.324 5.594-7.864-.77-2.053 2.928.225-1.397-3.113-3.555-.807z" fill="#53677d"/><path d="m13.154 21.712a2.784 2.784 0 0 0 2.847 2 2.7 2.7 0 0 0 2.8-2l-2.801 13.612z" fill="#cae0fa"/><path d="m18.435 35.603-1.522 2.139h-8.354v-4.675h-.572v5.17h9.203l1.546-2.095 2.282-.388.191-.574z" fill="#374658"/><path d="m23.412 28.564-6.222 18.686h14.58l6.222-18.686z" fill="#c1eafe"/><path d="m24.753 38.78h-4.743l1.008-3.026-2.282.388-1.546 2.095h-2.49v4.885l3.45 1.249 4.5-.791 2.9-2.889a1.119 1.119 0 0 0 -.797-1.911z" fill="#fcd3c4"/><path d="m18.148 44.371-3.45-1.249h-6.993v.625h6.993l3.271 1.163 4.068-.741.61-.589z" fill="#374658"/><path d="m18.148 44.371-.179.539 4.068-.741.61-.589z" fill="#85c5dd"/><path d="m23.69 11.917c-.17-1.471-1.448-1.266-2.736-.991-.028.006-.12.018-.179.025v3.849a4.782 4.782 0 0 1 -.109 1.008 4.378 4.378 0 0 0 1.465-.2c1.03-.408 1.743-2.088 1.559-3.691z" fill="#ffc7b5"/><path d="m10.966 10.951c-.06-.007-.151-.019-.179-.025-1.289-.275-2.567-.48-2.736.991-.184 1.6.528 3.285 1.559 3.687a4.614 4.614 0 0 0 1.464.2 4.782 4.782 0 0 1 -.108-1.008z" fill="#ffc7b5"/><path d="m22.522.958a2.65 2.65 0 0 1 -2.2.952c-1.5-.3-2.629-1.156-5.59-1.156-2.2 0-5.952.443-6.647 3.816-.824 4 2.7 6.356 2.7 6.356v3.874a5.044 5.044 0 0 0 5.075 5.01h.021a5.044 5.044 0 0 0 5.073-5.01v-3.87a8.429 8.429 0 0 0 2.23-2.5 6.313 6.313 0 0 0 .7-3.045 6.965 6.965 0 0 0 -1.362-4.427z" fill="#fcd3c4"/><path d="m20.954 10.926s-.6-3.38-1.475-2.76a4.58 4.58 0 0 1 -3.93 1.04 7.5 7.5 0 0 1 -2.916-1.02 7.563 7.563 0 0 1 -1.126 1.941 6.871 6.871 0 0 1 -.72.8s-3.527-2.356-2.703-6.357c.695-3.37 4.45-3.816 6.647-3.816 2.961 0 4.088.857 5.59 1.156a2.653 2.653 0 0 0 2.2-.952 6.965 6.965 0 0 1 1.359 4.428 6.313 6.313 0 0 1 -.7 3.045 8.429 8.429 0 0 1 -2.226 2.495z" fill="#404d61"/><path d="m29.13.817v10.421h2.171l-2.171 4.911 7.733-4.911h8.771v-10.421z" fill="#c1eafe"/><path d="m27.143 23.607-8.343-1.895v-3.124a5.04 5.04 0 0 1 -2.9.918h-.022a5.028 5.028 0 0 1 -2.725-.808v3.014l-8.345 1.895a3.373 3.373 0 0 0 -2.442 3.369v14.011a2.135 2.135 0 0 0 2.134 2.135h3.2v4.128h21.88v-20.274a3.373 3.373 0 0 0 -2.437-3.369z" fill="#fcd3c4"/><path d="m15.9 19.506h-.022a5.028 5.028 0 0 1 -2.725-.808v2.042a6.842 6.842 0 0 0 2.725.566h.022a6.823 6.823 0 0 0 2.9-.649v-2.069a5.04 5.04 0 0 1 -2.9.918z" fill="#ffc7b5"/><path d="m29.585 47.25v-20.274a3.373 3.373 0 0 0 -2.442-3.369l-8.343-1.895-2.8 13.612-2.846-13.612-8.346 1.895a3.373 3.373 0 0 0 -2.442 3.369v14.011a2.135 2.135 0 0 0 2.134 2.135h3.2v4.128z" fill="#404d61"/><path d="m9.599 22.519-1.397 3.113 2.928-.225-.77 2.053 5.637 7.864-2.843-13.612z" fill="#53677d"/><path d="m15.997 35.324 5.594-7.864-.77-2.053 2.928.225-1.397-3.113-3.555-.807z" fill="#53677d"/><path d="m13.154 21.712a2.784 2.784 0 0 0 2.847 2 2.7 2.7 0 0 0 2.8-2l-2.801 13.612z" fill="#cae0fa"/><path d="m18.435 35.603-1.522 2.139h-8.354v-4.675h-.572v5.17h9.203l1.546-2.095 2.282-.388.191-.574z" fill="#374658"/><path d="m23.412 28.564-6.222 18.686h14.58l6.222-18.686z" fill="#c1eafe"/><path d="m24.753 38.78h-4.743l1.008-3.026-2.282.388-1.546 2.095h-2.49v4.885l3.45 1.249 4.5-.791 2.9-2.889a1.119 1.119 0 0 0 -.797-1.911z" fill="#fcd3c4"/><path d="m18.148 44.371-3.45-1.249h-6.993v.625h6.993l3.271 1.163 4.068-.741.61-.589z" fill="#374658"/><path d="m18.148 44.371-.179.539 4.068-.741.61-.589z" fill="#85c5dd"/><path d="m23.69 11.917c-.17-1.471-1.448-1.266-2.736-.991-.028.006-.12.018-.179.025v3.849a4.782 4.782 0 0 1 -.109 1.008 4.378 4.378 0 0 0 1.465-.2c1.03-.408 1.743-2.088 1.559-3.691z" fill="#ffc7b5"/><path d="m10.966 10.951c-.06-.007-.151-.019-.179-.025-1.289-.275-2.567-.48-2.736.991-.184 1.6.528 3.285 1.559 3.687a4.614 4.614 0 0 0 1.464.2 4.782 4.782 0 0 1 -.108-1.008z" fill="#ffc7b5"/><path d="m22.522.958a2.65 2.65 0 0 1 -2.2.952c-1.5-.3-2.629-1.156-5.59-1.156-2.2 0-5.952.443-6.647 3.816-.824 4 2.7 6.356 2.7 6.356v3.874a5.044 5.044 0 0 0 5.075 5.01h.021a5.044 5.044 0 0 0 5.073-5.01v-3.87a8.429 8.429 0 0 0 2.23-2.5 6.313 6.313 0 0 0 .7-3.045 6.965 6.965 0 0 0 -1.362-4.427z" fill="#fcd3c4"/><path d="m20.954 10.926s-.6-3.38-1.475-2.76a4.58 4.58 0 0 1 -3.93 1.04 7.5 7.5 0 0 1 -2.916-1.02 7.563 7.563 0 0 1 -1.126 1.941 6.871 6.871 0 0 1 -.72.8s-3.527-2.356-2.703-6.357c.695-3.37 4.45-3.816 6.647-3.816 2.961 0 4.088.857 5.59 1.156a2.653 2.653 0 0 0 2.2-.952 6.965 6.965 0 0 1 1.359 4.428 6.313 6.313 0 0 1 -.7 3.045 8.429 8.429 0 0 1 -2.226 2.495z" fill="#404d61"/></g><g id="outline" fill="#1a1a1a"><path d="m37.992 27.813h-7.657v-.836a4.152 4.152 0 0 0 -3.025-4.1l-7.762-1.762v-1.85a5.815 5.815 0 0 0 1.85-2.709 3.718 3.718 0 0 0 1.095-.243c1.381-.539 2.283-2.52 2.054-4.509a2.037 2.037 0 0 0 -.8-1.505 1.907 1.907 0 0 0 -.636-.291 5.182 5.182 0 0 0 .871-1.292 8.078 8.078 0 0 0 -.782-8.289.812.812 0 0 0 -1.2 0c-.008.009-.738.836-1.446.689a9.735 9.735 0 0 1 -1.28-.378 12.309 12.309 0 0 0 -4.466-.793c-4.194 0-6.829 1.578-7.418 4.444a6.371 6.371 0 0 0 1.481 5.6 1.951 1.951 0 0 0 -.726.313 2.043 2.043 0 0 0 -.8 1.506c-.23 1.989.673 3.97 2.053 4.509a3.609 3.609 0 0 0 .953.228 5.8 5.8 0 0 0 2.049 2.864v1.7l-7.83 1.781a4.134 4.134 0 0 0 -2.959 4.083v14.01a2.889 2.889 0 0 0 2.889 2.889h2.455v3.378a.75.75 0 0 0 1.5 0v-3.378h6.111l2.64.955-.728 2.186a.75.75 0 0 0 .711.987h14.581a.75.75 0 0 0 .711-.513l6.219-18.687a.751.751 0 0 0 -.712-.988zm-15.444-3.025-1.669-.129a.761.761 0 0 0 -.657.3.747.747 0 0 0 -.1.714l.629 1.678-3.336 4.649 1.96-9.386 2.446.554zm-10.819.169a.768.768 0 0 0 -.657-.3l-1.672.131.727-1.621 2.444-.555.719 3.5a.75.75 0 0 0 1.469-.3l-.34-1.651a4.248 4.248 0 0 0 3.092.031l-1.551 7.437-.76-3.716a.749.749 0 1 0 -1.468.3l.768 3.777-3.3-4.64.63-1.679a.747.747 0 0 0 -.101-.714zm6.319-3.336a1.943 1.943 0 0 1 -2.048 1.342 2.038 2.038 0 0 1 -2.1-1.356v-1.387a5.823 5.823 0 0 0 1.984.353 5.749 5.749 0 0 0 2.16-.422zm3.873-6.772a2.175 2.175 0 0 1 -.25.075c0-.047.007-.093.007-.141v-3.207a2.013 2.013 0 0 1 1.153 0 .651.651 0 0 1 .153.407c.153 1.317-.447 2.624-1.063 2.866zm-11.949 0c-.617-.242-1.216-1.545-1.064-2.866a.658.658 0 0 1 .154-.407 1.764 1.764 0 0 1 1.015-.024v3.231c0 .033.005.066.005.1-.037-.013-.072-.019-.11-.034zm1.677-.066v-3.674a3.947 3.947 0 0 0 .559-.589 10.773 10.773 0 0 0 .848-1.279c.132.062.28.126.443.19a.786.786 0 1 0 .576-1.463 5.625 5.625 0 0 1 -.926-.456.787.787 0 0 0 -1.177.378 7.5 7.5 0 0 1 -1.012 1.672c-.044.058-.088.105-.131.152a5.133 5.133 0 0 1 -1.9-5.009c.542-2.634 3.5-3.187 5.877-3.187a10.659 10.659 0 0 1 3.955.708 11.167 11.167 0 0 0 1.479.433 2.884 2.884 0 0 0 2.187-.54 6.782 6.782 0 0 1 .109 5.981 5.319 5.319 0 0 1 -1.106 1.4c-.238-.969-.616-1.862-1.227-2.127a1.11 1.11 0 0 0 -1.1.131 3.726 3.726 0 0 1 -3.031.942.787.787 0 0 0 -.148 1.567 5.086 5.086 0 0 0 3.718-.97 9.262 9.262 0 0 1 .464 1.9v3.838a4.228 4.228 0 0 1 -8.456 0zm19.58 31.717h-13l.49-1.468 4.057-.714a.741.741 0 0 0 .4-.207l2.9-2.888a1.87 1.87 0 0 0 -1.319-3.194h-3.7l1.687-5.064a.751.751 0 0 0 -1.424-.475l-.865 2.6-1.845.31a.751.751 0 0 0 -.477.294l-1.322 1.79h-8.074v-4.42a.75.75 0 0 0 -1.5 0v5.17a.75.75 0 0 0 .75.75h9.2a.752.752 0 0 0 .6-.3l1.367-1.852.75-.128-.604 1.838a.749.749 0 0 0 .712.987h4.743a.37.37 0 0 1 .261.631l-2.73 2.722-4.068.716-2.768-1v-2.225a.75.75 0 0 0 -1.5 0v2h-9.45a1.387 1.387 0 0 1 -1.386-1.385v-14.011a2.611 2.611 0 0 1 1.859-2.639l3.327-.755-.781 1.743a.748.748 0 0 0 .071.738.757.757 0 0 0 .671.317l1.755-.136-.357.951a.749.749 0 0 0 .091.7l5.594 7.864a.75.75 0 0 0 .61.315.746.746 0 0 0 .609-.313l5.637-7.862a.748.748 0 0 0 .093-.7l-.356-.951 1.754.136a.757.757 0 0 0 .671-.317.748.748 0 0 0 .072-.738l-.783-1.745 3.259.738a2.63 2.63 0 0 1 1.925 2.658v.836h-5.423a.753.753 0 0 0 -.712.513l-.547 1.642a.75.75 0 1 0 1.424.474l.376-1.129h13z"/><path d="m45.635.067h-16.505a.75.75 0 0 0 -.75.75v10.421a.75.75 0 0 0 .75.75h1.019l-1.705 3.857a.75.75 0 0 0 1.088.936l7.549-4.793h8.554a.75.75 0 0 0 .75-.75v-10.421a.75.75 0 0 0 -.75-.75zm-.75 10.421h-8.022a.753.753 0 0 0 -.4.117l-5.645 3.584 1.17-2.647a.749.749 0 0 0 -.685-1.054h-1.423v-8.921h15.005z"/><path d="m37.382 5.375h5.025a.75.75 0 0 0 0-1.5h-5.025a.75.75 0 0 0 0 1.5z"/><path d="m32.694 5.375h1.9a.75.75 0 0 0 0-1.5h-1.9a.75.75 0 1 0 0 1.5z"/><path d="m42.407 7.278h-1.7a.75.75 0 1 0 0 1.5h1.7a.75.75 0 0 0 0-1.5z"/><path d="m32.694 8.778h5.1a.75.75 0 0 0 0-1.5h-5.1a.75.75 0 1 0 0 1.5z"/></g></svg>