<?xml version="1.0" encoding="UTF-8"?>
<svg xmlns="http://www.w3.org/2000/svg" onmouseup="{ if(window.parent.document.onmouseup) window.parent.document.onmouseup(arguments[0]);}" width="512" viewBox="0 0 370.4108 357.2229" height="512"><g data-name="Layer 2" id="Layer_2"><g data-name="Layer 1" id="Layer_1-2"><path data-cppathid="10000" fill="#fdda92" d="m43.121 60.358h142.291v92.933h-142.291z"/><rect data-cppathid="10001" y="153.291" x="13.382" width="201.77" rx="18.203" height="60.358" fill="#058789"/><path data-cppathid="10002" fill="#edf3f3" d="m87.153 174.283h95.013v18.376h-95.013z"/><circle data-cppathid="10003" r="10.06" fill="#edf3f3" cy="183.471" cx="56.016"/><rect data-cppathid="10004" y="76.646" x="13.382" width="201.77" rx="18.203" height="60.358" fill="#058789"/><path data-cppathid="10005" fill="#edf3f3" d="m87.153 97.637h95.013v18.376h-95.013z"/><circle data-cppathid="10006" r="10.06" fill="#edf3f3" cy="106.825" cx="56.016"/><rect data-cppathid="10007" x="13.382" width="201.77" rx="18.203" height="60.358" fill="#058789"/><path data-cppathid="10008" fill="#edf3f3" d="m87.153 20.991h95.013v18.376h-95.013z"/><circle data-cppathid="10009" r="10.06" fill="#edf3f3" cy="30.179" cx="56.016"/><path data-cppathid="10010" fill="#fdda92" d="m28.99 229.763h170.553v9.197h-170.553z"/><path data-cppathid="10011" fill="#fdda92" d="m109.667 213.65h9.198v20.712h-9.198z"/><circle data-cppathid="10012" r="10.475" fill="#edf3f3" cy="234.362" cx="28.99"/><circle data-cppathid="10013" r="10.475" fill="#edf3f3" cy="234.362" cx="199.543"/><path data-cppathid="10014" fill="#7bd1df" d="m168.365 42.188h202.046v275.12h-202.046z"/><path data-cppathid="10015" fill="#edf3f3" d="m351.78 60.819v225.884l-49.235 49.236h-152.811v-275.12z"/><path data-cppathid="10016" fill="#7bd1df" d="m302.545 335.939v-49.236h49.235z"/><g fill="#bcf4f7"><path data-cppathid="10017" d="m168.365 112.209h162.533v4.248h-162.533z"/><path data-cppathid="10018" d="m168.365 99.939h162.533v4.248h-162.533z"/><path data-cppathid="10019" d="m168.365 147.709h162.533v4.248h-162.533z"/><path data-cppathid="10020" d="m168.365 135.439h162.533v4.248h-162.533z"/><path data-cppathid="10021" d="m168.365 183.209h162.533v4.248h-162.533z"/><path data-cppathid="10022" d="m168.365 170.938h162.533v4.248h-162.533z"/><path data-cppathid="10023" d="m168.365 218.709h162.533v4.248h-162.533z"/><path data-cppathid="10024" d="m168.365 206.438h162.533v4.248h-162.533z"/><path data-cppathid="10025" d="m168.365 254.208h162.533v4.248h-162.533z"/><path data-cppathid="10026" d="m168.365 241.938h162.533v4.248h-162.533z"/><path data-cppathid="10027" d="m168.365 289.708h108.126v4.248h-108.126z"/><path data-cppathid="10028" d="m168.365 277.438h108.126v4.248h-108.126z"/></g><path data-cppathid="10029" fill="#e3a72f" d="m22.846 312.94-6.503-6.504 40.839-40.839 21.927 21.926 47.462-47.463 28.191 28.192 50.799-50.799 17.162 17.162 59.629-59.628 6.502 6.504-66.131 66.13-17.162-17.162-50.799 50.799-28.191-28.192-47.462 47.463-21.927-21.926z"/><path data-cppathid="10030" fill="#e3a72f" d="m301.661 207.581 16.611-62.011-62.01 16.612z"/><path data-cppathid="10031" fill="#edf3f3" d="m19.3151 323.0125a14.7169 14.7169 0 1 1 14.7165-14.7169 14.733 14.733 0 0 1 -14.7165 14.7169z"/><path data-cppathid="10032" fill="#e3a72f" d="m19.3155 298.1777a10.1179 10.1179 0 1 1 -10.1183 10.1183 10.1181 10.1181 0 0 1 10.1183-10.1183m0-9.1972a19.3151 19.3151 0 1 0 19.3154 19.3155 19.3375 19.3375 0 0 0 -19.3154-19.3155z"/><circle data-cppathid="10033" r="16.979" fill="#edf3f3" cy="212.515" cx="252.263"/><path data-cppathid="10034" fill="#e3a72f" d="m252.2626 200.135a12.38 12.38 0 1 1 -12.38 12.38 12.38 12.38 0 0 1 12.38-12.38m0-9.1972a21.5772 21.5772 0 1 0 21.5774 21.5772 21.6017 21.6017 0 0 0 -21.5773-21.5772z"/><circle data-cppathid="10035" r="13.749" fill="#edf3f3" cy="273.238" cx="155.09"/><path data-cppathid="10036" fill="#e3a72f" d="m155.09 264.0866a9.1509 9.1509 0 1 1 -9.1509 9.1509 9.1512 9.1512 0 0 1 9.1509-9.1509m0-9.1972a18.3481 18.3481 0 1 0 18.3481 18.3481 18.369 18.369 0 0 0 -18.3481-18.3481z"/><path data-cppathid="10037" fill="#058789" d="m150.885 314.256-26.143-26.145-24.234 24.235-6.503-6.504 30.737-30.738 26.143 26.145 58.295-58.294 32.437 32.437 36.208-36.209 6.503 6.504-42.711 42.712-32.437-32.438z"/><path data-cppathid="10038" fill="#058789" d="m297.135 271.776 16.611-62.009-62.01 16.61z"/><circle data-cppathid="10039" r="16.979" fill="#edf3f3" cy="281.517" cx="241.351"/><path data-cppathid="10040" fill="#058789" d="m241.3509 269.1372a12.38 12.38 0 1 1 -12.38 12.38 12.38 12.38 0 0 1 12.38-12.38m0-9.1972a21.5772 21.5772 0 1 0 21.5774 21.5772 21.6018 21.6018 0 0 0 -21.5774-21.5772z"/><circle data-cppathid="10041" r="16.979" fill="#edf3f3" cy="310.108" cx="97.256"/><path data-cppathid="10042" fill="#058789" d="m97.2559 297.7275a12.38 12.38 0 1 1 -12.38 12.3807 12.38 12.38 0 0 1 12.38-12.3807m0-9.1972a21.5776 21.5776 0 1 0 21.5775 21.5779 21.6024 21.6024 0 0 0 -21.5775-21.5782z"/><path data-cppathid="10043" fill="#e3a72f" d="m173.563 299.871h23.538v57.352h-23.538z"/><path data-cppathid="10044" fill="#058789" d="m210.131 330.223h23.538v27h-23.538z"/><path data-cppathid="10045" fill="#e3a72f" d="m246.699 311.646h23.538v45.577h-23.538z"/><path data-cppathid="10046" fill="#058789" d="m283.267 263.469h23.538v93.754h-23.538z"/><path data-cppathid="10047" fill="#e3a72f" d="m319.835 286.833h23.538v70.39h-23.538z"/></g></g></svg>