<?xml version="1.0" encoding="UTF-8"?>
<svg xmlns="http://www.w3.org/2000/svg" onmouseup="{ if(window.parent.document.onmouseup) window.parent.document.onmouseup(arguments[0]);}" width="512" viewBox="0 0 512 512" height="512" enable-background="new 0 0 512 512" id="Layer_1"><g><path data-cppathid="10000" fill="#2fad4f" d="m256 21.999c-135.31 0-245.001 109.69-245.001 245.001 0 25.954 4.049 50.959 11.527 74.435l56.236 94.714c44.615 46.734 107.526 75.851 177.238 75.851 135.31 0 245-109.69 245-245s-109.69-245.001-245-245.001z"/><ellipse data-cppathid="10001" transform="matrix(.707 -.707 .707 .707 -74.458 306.323)" ry="103.175" rx="103.175" fill="#fcb332" cy="243.04" cx="332.535"/><path data-cppathid="10002" fill="#fc9f2b" d="m400.781 311.913c-.21-1.568-1.425-2.779-2.994-2.98-9.63-1.233-10.708-8.586-10.44-13.063.111-1.861-1.31-3.474-3.171-3.571-39.168-2.051-37.168-36.796-36.986-39.159.007-.09.011-.176.011-.266v-21.374c0-24.502-33.486-34.234-33.486-34.234-10.972-3.111-10.475-15.146-9.697-20.405.209-1.412-.507-2.801-1.761-3.482-7.34-3.987-6.712-11.724-5.733-15.869.358-1.515-.347-3.092-1.739-3.791-2.518-1.265-3.9-2.986-4.608-4.784-35.856 16.165-60.816 52.22-60.816 94.105 0 56.982 46.193 103.175 103.175 103.175 27.587 0 52.645-10.827 71.157-28.464-1.951-1.784-2.675-4.065-2.912-5.838z"/><g><path data-cppathid="10003" fill="#ffc364" d="m332.535 354.382c-61.394 0-111.342-49.948-111.342-111.343s49.947-111.342 111.342-111.342 111.343 49.947 111.343 111.342-49.949 111.343-111.343 111.343zm0-206.35c-52.387 0-95.007 42.62-95.007 95.007 0 52.388 42.62 95.008 95.007 95.008 52.388 0 95.008-42.62 95.008-95.008 0-52.386-42.62-95.007-95.008-95.007z"/></g><path data-cppathid="10004" fill="#fcb332" d="m411.694 321.258c-.472-.431-1.061-.735-1.732-.827-6.979-.964-8.775-5.489-9.181-8.518-.099-.743-.43-1.401-.911-1.914-17.218 17.314-41.046 28.048-67.335 28.048-52.387 0-95.007-42.62-95.007-95.008 0-39.549 24.294-73.526 58.74-87.807-.31-.637-.815-1.178-1.483-1.514-5.974-3.002-5.6-8.564-4.83-11.649.159-.635.124-1.281-.064-1.875-40.293 16.77-68.697 56.55-68.697 102.845 0 61.394 49.947 111.343 111.342 111.343 30.935 0 58.96-12.686 79.158-33.124z"/><ellipse data-cppathid="10005" transform="matrix(.707 -.707 .707 .707 -74.458 306.323)" ry="74.149" rx="74.149" fill="#fb8b24" cy="243.04" cx="332.535"/><path data-cppathid="10006" fill="#f97306" d="m332.535 317.189c21.37 0 40.615-9.052 54.146-23.517-.574-.781-1.466-1.319-2.507-1.373-39.168-2.051-37.168-36.796-36.986-39.159.007-.09.011-.176.011-.266v-21.374c0-24.502-33.486-34.234-33.486-34.234-10.972-3.111-10.475-15.146-9.697-20.405.111-.748-.044-1.486-.395-2.12-26.586 11.269-45.236 37.605-45.236 68.299.001 40.951 33.199 74.149 74.15 74.149z"/><path data-cppathid="10007" fill="#fcb332" d="m362.036 221.349h-5.692c-.718-2.743-1.795-5.34-3.168-7.748h8.86c4.511 0 8.167-3.656 8.167-8.167s-3.656-8.167-8.167-8.167c-13.238 0-38.541 0-59.002 0-4.511 0-8.167 3.656-8.167 8.167s3.656 8.167 8.167 8.167h22.109c5.788 0 10.849 3.116 13.635 7.748h-35.744c-4.511 0-8.167 3.656-8.167 8.167s3.656 8.167 8.167 8.167h35.744c-2.786 4.632-7.847 7.748-13.635 7.748h-19.792c-3.724 0-7.037 2.229-8.44 5.68-1.402 3.45-.584 7.358 2.084 9.957.238.231.49.448.754.649l44.532 33.862c3.598 2.736 8.721 2.026 11.445-1.557 2.731-3.591 2.033-8.715-1.557-11.445l-27.421-20.85c14.253-.703 26.095-10.702 29.59-24.044h5.696c4.511 0 8.167-3.656 8.167-8.167.002-4.511-3.654-8.167-8.165-8.167z"/><g fill="#fc9f2b"><path data-cppathid="10008" d="m354.171 282.578-27.421-20.85c7.843-.387 14.946-3.6 20.34-8.625-13.086-4.652-8.311-15.419-8.311-15.419-2.786 4.632-7.847 7.748-13.635 7.748h-19.792c-3.724 0-7.037 2.229-8.44 5.68-1.402 3.45-.584 7.358 2.084 9.957.238.231.49.448.754.649l44.532 33.862c3.598 2.736 8.721 2.026 11.445-1.557 2.732-3.592 2.034-8.716-1.556-11.445z"/><path data-cppathid="10009" d="m303.035 213.601h17.757c-13.201-6.599-7.081-16.33-7.079-16.335-3.643 0-7.23 0-10.679 0-4.511 0-8.167 3.656-8.167 8.167s3.656 8.168 8.168 8.168z"/><path data-cppathid="10010" d="m303.035 237.684h35.743.001c-12.641-6.884-6.243-16.335-6.243-16.335h-29.501c-4.511 0-8.167 3.656-8.167 8.167-.001 4.511 3.655 8.168 8.167 8.168z"/></g><ellipse data-cppathid="10011" transform="matrix(.707 -.707 .707 .707 18.667 267.749)" ry="103.175" rx="103.175" fill="#fcb332" cy="111.342" cx="332.535"/><path data-cppathid="10012" fill="#fc9f2b" d="m400.781 180.215c-.21-1.568-1.425-2.779-2.994-2.98-9.63-1.233-10.708-8.586-10.44-13.063.111-1.861-1.31-3.474-3.171-3.571-39.168-2.051-37.168-36.796-36.986-39.159.007-.09.011-.176.011-.266v-21.374c0-24.502-33.486-34.234-33.486-34.234-10.972-3.111-10.475-15.146-9.697-20.405.209-1.412-.507-2.801-1.761-3.482-7.34-3.987-6.712-11.724-5.733-15.869.358-1.515-.347-3.092-1.739-3.791-2.518-1.265-3.9-2.986-4.608-4.784-35.856 16.165-60.816 52.22-60.816 94.105 0 56.982 46.193 103.175 103.175 103.175 27.587 0 52.645-10.827 71.157-28.464-1.951-1.784-2.675-4.065-2.912-5.838z"/><g><path data-cppathid="10013" fill="#ffc364" d="m332.535 222.685c-61.394 0-111.342-49.948-111.342-111.343s49.947-111.342 111.342-111.342 111.343 49.947 111.343 111.342-49.949 111.343-111.343 111.343zm0-206.35c-52.387 0-95.007 42.62-95.007 95.007 0 52.388 42.62 95.008 95.007 95.008 52.388 0 95.008-42.62 95.008-95.008 0-52.387-42.62-95.007-95.008-95.007z"/></g><path data-cppathid="10014" fill="#fcb332" d="m411.694 189.56c-.472-.431-1.061-.735-1.732-.827-6.979-.964-8.775-5.489-9.181-8.518-.099-.743-.43-1.401-.911-1.914-17.218 17.314-41.046 28.048-67.335 28.048-52.387 0-95.007-42.62-95.007-95.008 0-39.549 24.294-73.526 58.74-87.807-.31-.637-.815-1.178-1.483-1.514-5.974-3.002-5.6-8.564-4.83-11.649.159-.635.124-1.281-.064-1.875-40.293 16.77-68.697 56.55-68.697 102.845 0 61.394 49.947 111.343 111.342 111.343 30.935 0 58.96-12.686 79.158-33.124z"/><ellipse data-cppathid="10015" transform="matrix(.707 -.707 .707 .707 18.667 267.749)" ry="74.149" rx="74.149" fill="#fb8b24" cy="111.342" cx="332.535"/><path data-cppathid="10016" fill="#f97306" d="m332.535 185.491c21.37 0 40.615-9.052 54.146-23.517-.574-.781-1.466-1.319-2.507-1.373-39.168-2.051-37.168-36.796-36.986-39.159.007-.09.011-.176.011-.266v-21.374c0-24.502-33.486-34.234-33.486-34.234-10.972-3.111-10.475-15.146-9.697-20.405.111-.748-.044-1.486-.395-2.12-26.586 11.269-45.236 37.605-45.236 68.299.001 40.952 33.199 74.149 74.15 74.149z"/><path data-cppathid="10017" fill="#fcb332" d="m362.036 89.651h-5.692c-.718-2.743-1.795-5.34-3.168-7.748h8.86c4.511 0 8.167-3.656 8.167-8.167s-3.656-8.167-8.167-8.167c-13.238 0-38.541 0-59.002 0-4.511 0-8.167 3.656-8.167 8.167s3.656 8.167 8.167 8.167h22.109c5.788 0 10.849 3.116 13.635 7.748h-35.744c-4.511 0-8.167 3.656-8.167 8.167s3.656 8.167 8.167 8.167h35.744c-2.786 4.632-7.847 7.748-13.635 7.748h-19.792c-3.724 0-7.037 2.229-8.44 5.68-1.402 3.45-.584 7.358 2.084 9.957.238.231.49.448.754.649l44.532 33.862c3.598 2.736 8.721 2.026 11.445-1.557 2.731-3.591 2.033-8.715-1.557-11.445l-27.421-20.85c14.253-.703 26.095-10.702 29.59-24.044h5.696c4.511 0 8.167-3.656 8.167-8.167.002-4.51-3.654-8.167-8.165-8.167z"/><path data-cppathid="10018" fill="#ffa88d" d="m474.198 318.721c9.747-10.326 11.492-23.048 1.216-32.746-8.212-7.75-18.958-6.363-29.12.778-23.793 16.724-75.997 47.586-75.997 47.586h-.002c1.449-2.984 2.111-6.544 1.666-10.794-1.442-13.755-22.741-19.023-46.678-20.546-18.6-3.06-37.976-1.863-61.335-14.154-22.184-11.673-43.05-9.233-58.761-4.741-20.289 6.283-29.348 13.77-30.983 15.057-12.205 9.607-37.717 27.806-151.676 42.273 10.154 31.877 26.645 60.926 48.008 85.654l67.995-22.359c8.254-.138 30.116-3.751 44.153-.311 6.848 1.816 16.073 4.671 37.448 9.014 0 0-.003-.002-.005-.003 29.951 6.087 68.757 11.554 97.727 8.517 35.844-3.76 119.261-63.946 156.344-103.225z"/><path data-cppathid="10019" fill="#ff988a" d="m22.527 341.434c10.154 31.877 26.645 60.926 48.008 85.654l67.995-22.359c8.254-.138 30.116-3.751 44.153-.311 3.546.94 7.734 2.16 13.91 3.72-51.103-39.579-22.389-108.975-22.389-108.975-12.205 9.605-37.718 27.804-151.677 42.271z"/><path data-cppathid="10020" fill="#f94a38" d="m361.447 342.933c3.517-1.711 6.638-4.223 8.982-7.341l-.131-1.253h-.002c1.449-2.984 2.111-6.544 1.666-10.794-.66-6.295-5.487-10.808-12.815-14.003-9.314-1.139-21.677.021-24.081 13.406-3.722 20.714 23.233 20.123 26.381 19.985z"/><path data-cppathid="10021" fill="#ff988a" d="m370.297 334.339c-4.549 7.07-12.926 11.502-21.41 11.207l-79.043-2.671c-4.067-.139-7.478 3.048-7.615 7.117-.138 4.068 3.048 7.477 7.117 7.615l79.043 2.671c13.887.467 27.652-6.499 35.582-20.54.56-1.047 1.229-2.996 5.763-14.188.418-1.043.573-2.123.51-3.175-11.569 7.011-19.947 11.964-19.947 11.964z"/><path data-cppathid="10022" fill="#ffc364" d="m118.141 308.948c-6.779.711-11.699 6.782-10.988 13.561l9.549 91.083c.711 6.779 6.782 11.699 13.561 10.988 6.779-.711 11.698-6.782 10.988-13.562l-9.549-91.083c-.71-6.778-6.782-11.698-13.561-10.987z"/><path data-cppathid="10023" fill="#fcb332" d="m114.587 370.587c-.778-.342-1.622-.415-2.419-.252l4.535 43.256c.711 6.779 6.782 11.699 13.561 10.988 6.779-.71 11.698-6.782 10.988-13.562l-4.832-46.09c-.001.001-6.884 12.236-21.833 5.66z"/><path data-cppathid="10024" fill="#fcb332" d="m93.933 314.771c-6.779.711-11.699 6.782-10.988 13.561l9.549 91.083c.711 6.779 6.782 11.698 13.561 10.988 6.779-.711 11.698-6.782 10.988-13.561l-9.549-91.083c-.711-6.78-6.782-11.699-13.561-10.988z"/><path data-cppathid="10025" fill="#fb8b24" d="m92.494 419.414c.711 6.779 6.782 11.699 13.561 10.988 6.779-.71 11.698-6.782 10.988-13.562l-4.875-46.505c-.693.143-1.351.462-1.894.964-2.988 2.762-9.69 6.995-19.904 2.645-.864-.368-1.8-.417-2.662-.186z"/><path data-cppathid="10026" fill="#f94a38" d="m83.286 331.581c-.711-6.778-6.782-11.698-13.561-10.987-6.779.711-11.698 6.783-10.988 13.561l9.452 90.158c3.401 4.057 6.921 8.01 10.574 11.836 1.001.147 2.032.187 3.084.077 6.779-.711 11.698-6.782 10.988-13.561z"/><path data-cppathid="10027" fill="#d82f1d" d="m81.847 436.225c6.779-.711 11.698-6.782 10.988-13.561l-5.127-48.906c-.71.189-1.37.564-1.89 1.137-3.254 3.579-10.956 9.234-22.713.92l5.084 48.497c3.401 4.057 6.921 8.01 10.574 11.836 1 .147 2.031.187 3.084.077z"/><path data-cppathid="10028" fill="#fc9f2b" d="m354.171 150.88-27.421-20.85c7.843-.387 14.946-3.6 20.34-8.625-13.086-4.652-8.311-15.419-8.311-15.419-2.786 4.632-7.847 7.748-13.635 7.748h-19.792c-3.724 0-7.037 2.229-8.44 5.68-1.402 3.45-.584 7.358 2.084 9.957.238.231.49.448.754.649l44.532 33.862c3.598 2.736 8.721 2.026 11.445-1.557 2.732-3.592 2.034-8.715-1.556-11.445z"/><path data-cppathid="10029" fill="#fc9f2b" d="m303.035 81.903h17.757c-13.201-6.599-7.081-16.33-7.079-16.335-3.643 0-7.23 0-10.679 0-4.511 0-8.167 3.656-8.167 8.167s3.656 8.168 8.168 8.168z"/><path data-cppathid="10030" fill="#fc9f2b" d="m303.035 105.986h35.743.001c-12.641-6.884-6.243-16.335-6.243-16.335h-29.501c-4.511 0-8.167 3.656-8.167 8.167-.001 4.512 3.655 8.168 8.167 8.168z"/></g></svg>