<?xml version="1.0" encoding="UTF-8"?>
<svg xmlns="http://www.w3.org/2000/svg" onmouseup="{ if(window.parent.document.onmouseup) window.parent.document.onmouseup(arguments[0]);}" width="512pt" viewBox="0 -38 512 512" version="1.1" height="512pt"><g id="surface1"><path data-cppathid="10000" style=" stroke:none;fill-rule:nonzero;fill:rgb(98.823529%,74.509804%,34.117647%);fill-opacity:1;" d="M 317.203125 153.207031 C 362.464844 107.945312 434.882812 106.402344 482 148.570312 L 482 327.550781 C 434.882812 369.714844 362.464844 368.171875 317.203125 322.914062 C 270.34375 276.050781 270.34375 200.070312 317.203125 153.207031 Z M 317.203125 153.207031 "/><path data-cppathid="10001" style=" stroke:none;fill-rule:nonzero;fill:rgb(97.647059%,68.235294%,25.490196%);fill-opacity:1;" d="M 300.558594 302.085938 C 280.945312 271.058594 276.933594 233.011719 288.53125 199.113281 C 312.664062 197.441406 335.210938 212.691406 342.121094 236.738281 C 347.359375 254.964844 342.277344 274.621094 328.859375 288.039062 C 328.859375 288.039062 328.855469 288.042969 328.855469 288.042969 C 324.355469 292.546875 319.054688 296.144531 313.261719 298.726562 C 314.539062 300.144531 315.839844 301.546875 317.203125 302.910156 C 317.90625 303.613281 318.613281 304.304688 319.328125 304.984375 C 373.007812 356.121094 462 316.964844 462 242.824219 L 462 134.085938 C 469.03125 138.144531 475.738281 142.964844 482 148.566406 L 482 327.550781 C 434.882812 369.714844 362.464844 368.171875 317.203125 322.910156 C 310.9375 316.644531 305.515625 309.847656 300.925781 302.675781 L 300.921875 302.675781 C 300.90625 302.648438 300.886719 302.617188 300.867188 302.589844 C 300.761719 302.425781 300.648438 302.261719 300.546875 302.09375 Z M 300.558594 302.085938 "/><path data-cppathid="10002" style=" stroke:none;fill-rule:nonzero;fill:rgb(92.54902%,80.784314%,57.647059%);fill-opacity:1;" d="M 48.328125 110.78125 L 67.941406 110.78125 C 76.074219 110.78125 84.082031 108.796875 91.273438 105.003906 L 170.839844 63.023438 C 187.117188 54.4375 205.152344 49.707031 223.550781 49.203125 L 285.292969 47.511719 C 293.894531 47.273438 302.183594 50.746094 308.050781 57.035156 L 369.230469 122.625 C 350.925781 127.8125 333.609375 137.425781 318.980469 151.476562 L 285.132812 125.257812 C 280.78125 121.882812 275.230469 120.457031 269.789062 121.308594 L 230.554688 127.453125 C 223.753906 128.519531 217.976562 133.007812 215.265625 139.335938 L 195.703125 184.980469 C 192.265625 193.003906 194.429688 202.332031 201.050781 208.023438 L 222.441406 226.414062 C 227.328125 230.617188 233.949219 232.203125 240.214844 230.679688 L 284.394531 219.910156 C 301.148438 215.828125 318.136719 225.691406 322.898438 242.265625 C 327.910156 259.699219 317.511719 277.820312 299.929688 282.292969 L 211.625 304.757812 C 185.773438 311.335938 158.339844 306.105469 136.71875 290.480469 L 97.175781 261.902344 C 90.359375 256.976562 82.160156 254.324219 73.746094 254.324219 L 48.328125 254.324219 Z M 48.328125 110.78125 "/><path data-cppathid="10003" style=" stroke:none;fill-rule:nonzero;fill:rgb(89.803922%,74.117647%,46.27451%);fill-opacity:1;" d="M 303.0625 139.066406 C 318.011719 124.117188 335.527344 113.273438 354.199219 106.511719 L 369.230469 122.625 C 350.925781 127.8125 333.613281 137.429688 318.980469 151.476562 L 303.019531 139.109375 C 303.035156 139.09375 303.046875 139.078125 303.0625 139.066406 Z M 303.0625 139.066406 "/><path data-cppathid="10004" style=" stroke:none;fill-rule:nonzero;fill:rgb(89.803922%,74.117647%,46.27451%);fill-opacity:1;" d="M 48.328125 110.78125 L 67.941406 110.78125 C 68.070312 110.78125 68.199219 110.769531 68.328125 110.769531 L 68.328125 234.320312 L 73.746094 234.320312 C 86.445312 234.320312 98.597656 238.253906 108.890625 245.691406 L 148.433594 274.269531 C 165.296875 286.453125 186.53125 290.503906 206.691406 285.371094 L 295 262.910156 C 305.445312 258.566406 312.253906 248.363281 312.253906 237.046875 L 312.253906 226.183594 C 317.203125 230.191406 321.011719 235.699219 322.898438 242.261719 C 327.910156 259.695312 317.507812 277.820312 299.929688 282.292969 L 211.625 304.757812 C 185.773438 311.332031 158.339844 306.101562 136.71875 290.480469 L 97.175781 261.902344 C 90.359375 256.972656 82.160156 254.320312 73.746094 254.320312 L 48.324219 254.320312 L 48.324219 110.78125 Z M 48.328125 110.78125 "/><path data-cppathid="10005" style=" stroke:none;fill-rule:nonzero;fill:rgb(24.313725%,19.215686%,23.921569%);fill-opacity:1;" d="M 512 7.5 L 497 7.5 C 488.714844 7.5 482 15.082031 482 24.433594 L 482 410.5625 C 482 419.917969 488.714844 427.5 497 427.5 L 512 427.5 Z M 512 7.5 "/><path data-cppathid="10006" style=" stroke:none;fill-rule:nonzero;fill:rgb(0%,86.666667%,76.078431%);fill-opacity:1;" d="M 0 92.558594 L 48.328125 92.558594 L 48.328125 272.558594 L 0 272.558594 Z M 0 92.558594 "/><path data-cppathid="10007" style=" stroke:none;fill-rule:nonzero;fill:rgb(20%,14.509804%,20%);fill-opacity:1;" d="M 497 407.5 L 512 407.5 L 512 427.5 L 497 427.5 C 488.714844 427.5 482 419.917969 482 410.5625 L 482 390.5625 C 482 399.917969 488.714844 407.5 497 407.5 Z M 497 407.5 "/><path data-cppathid="10008" style=" stroke:none;fill-rule:nonzero;fill:rgb(3.921569%,75.686275%,65.490196%);fill-opacity:1;" d="M 0 252.558594 L 48.328125 252.558594 L 48.328125 272.558594 L 0 272.558594 Z M 0 252.558594 "/><path data-cppathid="10009" style=" stroke:none;fill-rule:nonzero;fill:rgb(0%,0%,0%);fill-opacity:1;" d="M 497 15 L 512 15 L 512 0 L 497 0 C 484.59375 0 474.5 10.960938 474.5 24.4375 L 474.5 133.121094 C 443.925781 111.945312 406.324219 105.746094 371.65625 114.230469 L 313.539062 51.925781 C 306.203125 44.058594 295.828125 39.707031 285.089844 40.019531 L 223.339844 41.703125 C 203.902344 42.238281 184.535156 47.316406 167.335938 56.390625 L 87.773438 98.371094 C 81.695312 101.582031 74.839844 103.28125 67.949219 103.28125 L 55.828125 103.285156 L 55.828125 85.058594 L 0 85.058594 L 0 100.058594 L 40.828125 100.058594 L 40.828125 265.058594 L 0 265.058594 L 0 280.058594 L 55.828125 280.058594 L 55.828125 261.828125 L 73.75 261.824219 C 80.628906 261.824219 87.210938 263.953125 92.789062 267.980469 L 132.332031 296.5625 C 149.148438 308.714844 169.082031 315.054688 189.359375 315.054688 C 197.402344 315.054688 205.503906 314.058594 213.476562 312.027344 L 287.113281 293.289062 C 293.304688 306.210938 301.621094 317.9375 311.902344 328.214844 C 336.730469 353.042969 369.386719 365.5625 402.105469 365.5625 C 427.402344 365.5625 452.734375 358.070312 474.5 342.996094 L 474.5 410.566406 C 474.5 424.039062 484.59375 435 497 435 L 512 435 L 512 420 L 497 420 C 492.933594 420 489.5 415.679688 489.5 410.566406 L 489.5 24.4375 C 489.5 19.320312 492.933594 15 497 15 Z M 209.777344 297.492188 C 186.015625 303.535156 160.988281 298.765625 141.117188 284.40625 L 101.574219 255.824219 C 93.421875 249.933594 83.800781 246.824219 73.746094 246.824219 L 55.828125 246.828125 L 55.828125 118.285156 L 67.949219 118.28125 C 77.273438 118.28125 86.550781 115.980469 94.777344 111.636719 L 174.332031 69.65625 C 189.511719 61.652344 206.601562 57.171875 223.753906 56.695312 L 285.503906 55.011719 C 291.949219 54.832031 298.171875 57.433594 302.570312 62.15625 L 355.804688 119.226562 C 342.480469 124.40625 329.867188 131.894531 318.585938 141.679688 L 289.726562 119.320312 C 283.753906 114.707031 276.066406 112.734375 268.632812 113.898438 L 229.402344 120.042969 C 219.984375 121.511719 212.125 127.617188 208.375 136.378906 L 188.8125 182.019531 C 184.058594 193.101562 187.011719 205.835938 196.164062 213.71875 L 217.546875 232.089844 C 224.253906 237.863281 233.394531 240.0625 241.992188 237.964844 L 286.175781 227.199219 C 294.609375 225.144531 303.308594 227.582031 309.449219 233.726562 C 312.378906 236.65625 314.539062 240.324219 315.691406 244.339844 C 317.550781 250.800781 316.730469 257.570312 313.382812 263.402344 C 310.035156 269.234375 304.601562 273.363281 298.082031 275.019531 Z M 307.753906 152.265625 C 291.839844 169.71875 281.234375 190.875 276.832031 214.039062 L 238.4375 223.390625 C 234.53125 224.347656 230.378906 223.347656 227.328125 220.71875 L 205.941406 202.34375 C 201.78125 198.761719 200.433594 192.96875 202.597656 187.933594 L 222.164062 142.285156 C 223.867188 138.304688 227.4375 135.53125 231.71875 134.863281 L 270.960938 128.71875 C 274.332031 128.183594 277.832031 129.085938 280.546875 131.183594 Z M 474.5 324.125 C 430.058594 361.632812 363.925781 359.023438 322.507812 317.609375 C 314.15625 309.257812 307.277344 299.828125 301.980469 289.5 C 312.378906 286.800781 321.042969 280.191406 326.390625 270.867188 C 331.777344 261.484375 333.09375 250.589844 330.105469 240.195312 C 328.253906 233.746094 324.777344 227.839844 320.054688 223.117188 C 312.632812 215.695312 302.882812 211.636719 292.738281 211.484375 C 297.5625 191.449219 307.730469 173.289062 322.507812 158.511719 C 363.925781 117.09375 430.054688 114.484375 474.5 151.992188 Z M 474.5 324.125 "/><path data-cppathid="10010" style=" stroke:none;fill-rule:nonzero;fill:rgb(0%,0%,0%);fill-opacity:1;" d="M 364.5 302.5 L 379.5 302.5 L 379.5 254 L 411 254 C 432.230469 254 449.5 236.730469 449.5 215.5 C 449.5 194.269531 432.230469 177 411 177 L 364.5 177 Z M 379.5 192 L 411 192 C 423.957031 192 434.5 202.542969 434.5 215.5 C 434.5 228.457031 423.957031 239 411 239 L 379.5 239 Z M 379.5 192 "/><path data-cppathid="10011" style=" stroke:none;fill-rule:nonzero;fill:rgb(0%,0%,0%);fill-opacity:1;" d="M 246 341 L 261 341 L 261 356 L 246 356 Z M 246 341 "/><path data-cppathid="10012" style=" stroke:none;fill-rule:nonzero;fill:rgb(0%,0%,0%);fill-opacity:1;" d="M 216 341 L 231 341 L 231 356 L 216 356 Z M 216 341 "/><path data-cppathid="10013" style=" stroke:none;fill-rule:nonzero;fill:rgb(0%,0%,0%);fill-opacity:1;" d="M 186 341 L 201 341 L 201 356 L 186 356 Z M 186 341 "/><path data-cppathid="10014" style=" stroke:none;fill-rule:nonzero;fill:rgb(0%,0%,0%);fill-opacity:1;" d="M 186 381 L 201 381 L 201 396 L 186 396 Z M 186 381 "/><path data-cppathid="10015" style=" stroke:none;fill-rule:nonzero;fill:rgb(0%,0%,0%);fill-opacity:1;" d="M 156 381 L 171 381 L 171 396 L 156 396 Z M 156 381 "/><path data-cppathid="10016" style=" stroke:none;fill-rule:nonzero;fill:rgb(0%,0%,0%);fill-opacity:1;" d="M 216 381 L 231 381 L 231 396 L 216 396 Z M 216 381 "/><path data-cppathid="10017" style=" stroke:none;fill-rule:nonzero;fill:rgb(100%,100%,100%);fill-opacity:1;" d="M 114.5625 135.117188 L 107.5625 121.851562 L 120.828125 114.851562 L 127.828125 128.117188 Z M 141.09375 121.113281 L 134.09375 107.847656 L 175.5625 85.96875 L 182.5625 99.234375 Z M 141.09375 121.113281 "/><path data-cppathid="10018" style=" stroke:none;fill-rule:nonzero;fill:rgb(100%,100%,100%);fill-opacity:1;" d="M 10.5 235.5 L 25.5 235.5 L 25.5 250.5 L 10.5 250.5 Z M 10.5 235.5 "/><path data-cppathid="10019" style=" stroke:none;fill-rule:nonzero;fill:rgb(100%,100%,100%);fill-opacity:1;" d="M 402.097656 335.566406 C 401.339844 335.566406 400.582031 335.558594 399.820312 335.542969 C 395.851562 335.449219 391.84375 335.109375 387.914062 334.535156 L 390.085938 319.695312 C 393.414062 320.179688 396.808594 320.46875 400.175781 320.546875 C 401.386719 320.574219 402.59375 320.574219 403.800781 320.550781 L 404.109375 335.546875 C 403.4375 335.5625 402.769531 335.566406 402.097656 335.566406 Z M 420.246094 333.871094 L 417.464844 319.132812 C 430.058594 316.753906 442.082031 311.367188 452.234375 303.554688 L 461.382812 315.445312 C 449.367188 324.6875 435.144531 331.058594 420.246094 333.871094 Z M 420.246094 333.871094 "/></g></svg>