<?xml version="1.0" encoding="UTF-8"?>
<svg xmlns="http://www.w3.org/2000/svg" onmouseup="{ if(window.parent.document.onmouseup) window.parent.document.onmouseup(arguments[0]);}" width="512" viewBox="0 0 512 512" height="512"><g id="flat"><path d="m24 28h464v336h-464z" fill="#339aef"/><path d="m208 364h96v64h-96z" fill="#1d7ed7"/><path d="m360 460h-208l56-32h96z" fill="#339aef"/><path d="m40 44h432v272h-432z" fill="#1d7ed7"/><path d="m56 168v100h88v-99.917z" fill="#855ef7"/><path d="m177.586 492a1 1 0 0 0 .707-1.707l-13.985-14.293-20.308-208h-88v96l-23 128h56.586a1 1 0 0 0 .707-1.707l-13.985-14.293 19.692-112v-59.792h11.692l16.616 171.792-.308 16z" fill="#0e3e86"/><path d="m128.03 219.81-4.2-4.31 5.32-10.24a8.133 8.133 0 0 0 .93-3.79 8.232 8.232 0 0 0 -2.08-5.47l-72 60v-88h-7.83a24.168 24.168 0 0 0 -24.17 24.17v82.59a21.267 21.267 0 0 0 34.73 16.46l68.43-55.99a10.479 10.479 0 0 0 .87-15.42z" fill="#ffb3d0"/><path d="m64 168-8 36h-32v-11.83a24.168 24.168 0 0 1 24.17-24.17z" fill="#855ef7"/><path d="m145.07 203.47 22.93 40.53-40 24h-32v9a8.967 8.967 0 0 0 6.792 8.7l20.535 5.134a16.6 16.6 0 0 0 9.245-.347l51.188-16.967a24.292 24.292 0 0 0 13.45-35.12l-27-47.27-7.4-12.96a20.174 20.174 0 0 0 -17.52-10.17h-20.29z" fill="#ff9ac0"/><path d="m162.81 178.17 7.4 12.96-25.14 12.34-20.07-35.47h20.29a20.174 20.174 0 0 1 17.52 10.17z" fill="#855ef7"/><path d="m448 200h-152a4 4 0 0 1 0-8h152a4 4 0 0 1 0 8z" fill="#339aef"/><g fill="#1764aa"><path d="m424 68h24v104h-24z"/><path d="m376 84h24v88h-24z"/><path d="m328 100h24v72h-24z"/><path d="m280 116h24v56h-24z"/><path d="m232 132h24v40h-24z"/><path d="m184 140h24v32h-24z"/></g><path d="m288 228 24 32-32 24a40 40 0 0 1 8-56z" fill="#74c0fc"/><path d="m312 260h40a40 40 0 0 1 -72 24z" fill="#1764aa"/><path d="m422.86 222.86-14.86 37.14-14.86-37.14a40.035 40.035 0 0 1 29.72 0z" fill="#a4d8ff"/><path d="m393.14 222.86 14.86 37.14-39.23-7.85a40.028 40.028 0 0 1 24.37-29.29z" fill="#74c0fc"/><path d="m422.86 222.86a40 40 0 0 1 9.14 69.14l-24-32z" fill="#1764aa"/><path d="m408 260 24 32a40 40 0 0 1 -64-32 40.577 40.577 0 0 1 .77-7.85z" fill="#339aef"/><path d="m352 260h-40l-24-32a40 40 0 0 1 64 32z" fill="#339aef"/><path d="m88 252h48v16h-48z" fill="#e67701"/><path d="m136 252h104v16h-104z" fill="#f5a000"/><path d="m176 188h104l-40 64h-104z" fill="#fcc419"/><circle cx="208" cy="220" fill="#f5a000" r="8"/><path d="m88 170v-36l20 16v20a10 10 0 0 1 -10 10 10 10 0 0 1 -10-10z" fill="#ffb3d0"/><path d="m92 140a16 16 0 0 1 16 16v8a0 0 0 0 1 0 0h-16a0 0 0 0 1 0 0v-24a0 0 0 0 1 0 0z" fill="#e67199" transform="matrix(-1 0 0 -1 200 304)"/><path d="m88 110h32v34a14 14 0 0 1 -14 14 18 18 0 0 1 -18-18z" fill="#ffb3d0"/><path d="m136 108v10.992a13.008 13.008 0 0 1 -13.008 13.008 13.01 13.01 0 0 1 -5.683-1.307l-21.309-10.352v3.659a16 16 0 0 1 -16 16v-21.193a18.807 18.807 0 0 1 18.807-18.807 18.805 18.805 0 0 1 9.561 2.612l4.7 2.776a18.805 18.805 0 0 0 9.564 2.612z" fill="#092f6a"/><circle cx="88" cy="140" fill="#ffb3d0" r="8"/></g></svg>