<?xml version="1.0" encoding="UTF-8"?>
<svg xmlns="http://www.w3.org/2000/svg" onmouseup="{ if(window.parent.document.onmouseup) window.parent.document.onmouseup(arguments[0]);}" width="512pt" viewBox="-25 0 512 512" height="512pt"><path d="m303.765625 0h-273.117187c-16.925782 0-30.648438 13.722656-30.648438 30.648438v386.835937c0 16.925781 13.722656 30.648437 30.648438 30.648437h273.117187c16.929687 0 30.652344-13.722656 30.652344-30.648437v-386.835937c0-16.925782-13.722657-30.648438-30.652344-30.648438zm0 0" fill="#c9b77d"/><path d="m136.121094 86.132812c-16.925782 0-30.648438 13.71875-30.648438 30.648438v331.347656h198.300782c16.925781 0 30.648437-13.722656 30.648437-30.648437v-331.347657zm0 0" fill="#aa9865"/><path d="m396.015625 63.867188h-237.628906c-16.929688 0-30.648438 13.722656-30.648438 30.648437v386.835937c0 16.925782 13.71875 30.648438 30.648438 30.648438h273.117187c16.929688 0 30.648438-13.722656 30.648438-30.648438v-357.207031zm0 0" fill="#ffeead"/><path d="m396.015625 63.867188v29.625c0 16.925781 13.722656 30.648437 30.648437 30.648437h35.484376zm0 0" fill="#96ceb4"/><g fill="#ff6f69"><path d="m410.292969 188.546875h-224.78125c-4.082031 0-7.421875 3.335937-7.421875 7.421875 0 4.082031 3.339844 7.417969 7.421875 7.417969h224.78125c4.085937 0 7.421875-3.335938 7.421875-7.417969 0-4.085938-3.335938-7.421875-7.421875-7.421875zm0 0"/><path d="m410.292969 237.320312h-224.78125c-4.082031 0-7.421875 3.335938-7.421875 7.421876 0 4.082031 3.339844 7.421874 7.421875 7.421874h224.78125c4.085937 0 7.421875-3.339843 7.421875-7.421874 0-4.085938-3.335938-7.421876-7.421875-7.421876zm0 0"/><path d="m410.292969 286.09375h-224.78125c-4.082031 0-7.421875 3.335938-7.421875 7.421875 0 4.082031 3.339844 7.421875 7.421875 7.421875h224.78125c4.085937 0 7.421875-3.339844 7.421875-7.421875 0-4.085937-3.335938-7.421875-7.421875-7.421875zm0 0"/><path d="m410.292969 334.867188h-224.78125c-4.082031 0-7.421875 3.335937-7.421875 7.421874 0 4.082032 3.339844 7.421876 7.421875 7.421876h224.78125c4.085937 0 7.421875-3.339844 7.421875-7.421876 0-4.085937-3.335938-7.421874-7.421875-7.421874zm0 0"/><path d="m410.292969 383.636719h-224.78125c-4.082031 0-7.421875 3.335937-7.421875 7.421875 0 4.082031 3.339844 7.417968 7.421875 7.417968h224.78125c4.085937 0 7.421875-3.335937 7.421875-7.417968 0-4.082032-3.335938-7.421875-7.421875-7.421875zm0 0"/><path d="m410.292969 432.410156h-224.78125c-4.082031 0-7.421875 3.335938-7.421875 7.421875 0 4.082031 3.339844 7.421875 7.421875 7.421875h224.78125c4.085937 0 7.421875-3.339844 7.421875-7.421875 0-4.085937-3.335938-7.421875-7.421875-7.421875zm0 0"/></g><path d="m245.578125 115.605469c-1.597656-2.058594-3.890625-2.136719-6.105469-2.136719h-18.996094c-2.132812 0-4.269531 0-5.871093 1.984375-.6875.6875-1.222657 1.835937-1.222657 3.429687 0 .835938.078126 2.4375 1.371094 3.738282 1.679688 1.835937 3.664063 1.757812 5.722656 1.757812h2.820313v34.40625c0 2.597656 0 5.421875 2.441406 7.480469 1.601563 1.300781 3.355469 1.527344 4.425781 1.527344 6.488282 0 6.5625-6.253907 6.5625-9.390625v-34.027344h2.902344c2.0625 0 4.269532-.078125 5.871094-2.058594.839844-1.070312 1.144531-2.285156 1.144531-3.4375 0-.90625-.15625-2.121094-1.066406-3.273437zm0 0" fill="#71a58a"/><path d="m305.730469 157.878906c-.609375-.378906-1.296875-.609375-1.90625-.992187-.765625-.457031-.992188-.839844-1.292969-1.371094 3.964844-5.566406 4.652344-6.488281 4.652344-8.621094 0-3.128906-2.519532-5.417969-5.496094-5.417969-3.28125 0-4.726562 2.589844-5.796875 4.578126l-4.574219-6.714844c3.964844-3.507813 8.699219-7.710938 8.699219-14.195313 0-6.40625-5.1875-11.824219-14.113281-11.824219-1.679688 0-5.648438 0-9.234375 2.824219-4.351563 3.359375-4.425781 7.9375-4.425781 9.3125 0 4.960938 1.984374 8.238281 4.578124 11.898438-3.359374 2.824219-8.777343 7.402343-8.777343 15.566406 0 6.488281 3.355469 9.695313 5.265625 11.140625 3.96875 3.125 8.011718 3.4375 10.683594 3.4375 5.71875 0 8.238281-1.90625 10.605468-3.738281 1.21875 1.445312 3.050782 3.738281 7.703125 3.738281 5.421875 0 5.875-4.351562 5.875-5.265625-.003906-.390625-.003906-2.910156-2.445312-4.355469zm-21.515625.300782c-2.671875 0-4.960938-2.136719-4.960938-5.492188 0-3.4375 1.828125-5.1875 3.433594-6.632812l6.179688 9.304687c-.460938.683594-1.832032 2.820313-4.652344 2.820313zm1.601562-27.230469c-1.828125-2.90625-2.667968-4.351563-2.667968-5.878907 0-1.835937 1.144531-3.125 2.976562-3.125 1.828125 0 3.199219 1.144532 3.199219 3.199219 0 2.597657-1.980469 4.347657-3.507813 5.804688zm0 0" fill="#71a58a"/><path d="m359.78125 146.28125c-3.664062 0-5.417969 2.0625-6.105469 3.816406-.308593.914063-.382812 1.902344-.457031 2.902344-.152344 1.371094-.378906 4.117188-4.042969 4.117188-3.585937 0-4.195312-2.894532-4.351562-3.734376-.53125-2.441406-.53125-8.78125-.53125-11.753906 0-1.679687 0-10.375.382812-13.277344.230469-1.289062.683594-4.578124 4.730469-4.578124 3.738281 0 3.890625 2.597656 4.125 5.417968.074219 1.457032.226562 2.90625 1.371094 4.128906.757812.835938 2.210937 1.597657 4.5 1.597657 6.5625 0 6.636718-6.097657 6.636718-8.234375 0-4.042969-.835937-8.394532-5.71875-11.296875-2.75-1.597657-6.03125-2.589844-11.523437-2.589844-2.367187 0-7.554687.144531-11.828125 3.203125-6.101562 4.5-6.257812 11.367188-6.257812 24.5625 0 16.179688 1.144531 20.988281 6.5625 24.574219 1.371093.910156 4.652343 2.902343 11.902343 2.902343 4.960938 0 9.996094-1.070312 13.429688-4.578124 2.441406-2.523438 3.660156-5.953126 3.660156-9.460938-.003906-4.664062-2.136719-7.71875-6.484375-7.71875zm0 0" fill="#71a58a"/></svg>