<?xml version="1.0" encoding="UTF-8"?>
<svg xmlns="http://www.w3.org/2000/svg" onmouseup="{ if(window.parent.document.onmouseup) window.parent.document.onmouseup(arguments[0]);}" height="512" width="512" xml:space="preserve" style="enable-background:new 0 0 512 512;" viewBox="0 0 512 512" y="0px" x="0px" id="Layer_1" version="1.1" xmlns:xlink="http://www.w3.org/1999/xlink">
<g id="XMLID_2132_">
	<path id="XMLID_3036_" style="fill:#FFC66C;" d="M114,206v244c0,28.719-23.281,52-52,52h0c-28.719,0-52-23.281-52-52V206H114"/>
	<path id="XMLID_495_" d="M502,0H114c-5.522,0-10,4.477-10,10v186.067c-0.383-0.044-0.772-0.067-1.167-0.067H10   c-5.522,0-10,4.477-10,10v244c0,34.187,27.813,62,62,62h392c31.981,0,58-26.019,58-58V10C512,4.477,507.522,0,502,0z M104,450   c0,23.159-18.841,42-42,42s-42-18.841-42-42V216h32v192.013c0,5.523,4.478,10,10,10s10-4.477,10-10V216h30.833   c0.395,0,0.784-0.023,1.167-0.067V450z M492,454c0,20.953-17.047,38-38,38H107.556C117.755,480.946,124,466.191,124,450V20h368V454   z"/>
	<g id="XMLID_971_">
		<path id="XMLID_490_" d="M62,458.01c-2.63,0-5.21-1.06-7.07-2.92c-1.86-1.87-2.93-4.44-2.93-7.08c0-2.63,1.069-5.21,2.93-7.07    c1.86-1.86,4.44-2.93,7.07-2.93s5.21,1.07,7.069,2.93c1.86,1.86,2.931,4.44,2.931,7.07c0,2.64-1.07,5.21-2.931,7.08    C67.21,456.95,64.63,458.01,62,458.01z"/>
	</g>
	<g id="XMLID_491_">
		<path id="XMLID_492_" d="M210.597,66c-5.522,0-10,4.477-10,10v29.567l-22.153-34.923c-2.384-3.757-6.961-5.49-11.233-4.247    c-4.272,1.241-7.211,5.154-7.211,9.603v64c0,5.523,4.478,10,10,10s10-4.477,10-10v-29.567l22.153,34.923    c1.868,2.945,5.084,4.645,8.444,4.645c0.927,0,1.865-0.129,2.789-0.398c4.272-1.241,7.211-5.154,7.211-9.603V76    C220.597,70.477,216.119,66,210.597,66z"/>
		<path id="XMLID_811_" d="M384.493,66.39c-5.305-1.527-10.848,1.537-12.376,6.844l-9.169,31.859l-9.945-32.056    c-1.299-4.188-5.173-7.037-9.55-7.037c-0.034,0-0.069,0-0.104,0c-4.42,0.045-8.285,2.987-9.508,7.234l-9.169,31.858l-9.944-32.055    c-1.636-5.275-7.238-8.226-12.514-6.588c-5.275,1.636-8.225,7.239-6.588,12.514l19.854,64c1.309,4.221,5.271,7.093,9.653,7.037    c4.42-0.045,8.285-2.986,9.508-7.234l9.169-31.859l9.945,32.056c1.299,4.188,5.173,7.037,9.55,7.037c0.034,0,0.069,0,0.104,0    c4.42-0.045,8.285-2.987,9.508-7.234l18.42-64C392.865,73.458,389.801,67.917,384.493,66.39z"/>
		<path id="XMLID_814_" d="M257.005,86h14.518c5.522,0,10-4.477,10-10s-4.478-10-10-10h-14.518    c-12.294,0-22.296,10.002-22.296,22.296v39.408c0,12.294,10.002,22.296,22.296,22.296h14.518c5.522,0,10-4.477,10-10    s-4.478-10-10-10h-14.518c-1.266,0-2.296-1.03-2.296-2.296V118h12.994c5.522,0,10-4.477,10-10s-4.478-10-10-10h-12.994v-9.704    C254.709,87.03,255.739,86,257.005,86z"/>
		<path id="XMLID_819_" d="M430.001,98h-1.166c-3.309,0-6-2.691-6-6s2.691-6,6-6h11.512c5.522,0,10-4.477,10-10s-4.478-10-10-10    h-11.512c-14.337,0-26,11.664-26,26s11.663,26,26,26h1.166c3.309,0,6,2.691,6,6s-2.691,6-6,6h-17.166c-5.522,0-10,4.477-10,10    s4.478,10,10,10h17.166c14.337,0,26-11.664,26-26S444.338,98,430.001,98z"/>
	</g>
	<g id="XMLID_2520_">
		<g id="XMLID_2490_">
			<path id="XMLID_484_" d="M214.333,322.114h-48.487c-5.522,0-10-4.477-10-10s4.478-10,10-10h48.487c5.522,0,10,4.477,10,10     S219.855,322.114,214.333,322.114z"/>
		</g>
		<g id="XMLID_970_">
			<path id="XMLID_483_" d="M290.972,262.054H165.846c-5.522,0-10-4.477-10-10s4.478-10,10-10h125.126c5.522,0,10,4.477,10,10     S296.494,262.054,290.972,262.054z"/>
		</g>
		<g id="XMLID_2548_">
			<path id="XMLID_482_" d="M167.01,202.11c-2.63,0-5.21-1.06-7.07-2.93c-1.859-1.86-2.93-4.43-2.93-7.07     c0-2.63,1.07-5.21,2.93-7.07c1.86-1.86,4.44-2.93,7.07-2.93s5.21,1.07,7.07,2.93c1.859,1.86,2.93,4.44,2.93,7.07     c0,2.64-1.07,5.21-2.93,7.07C172.22,201.05,169.649,202.11,167.01,202.11z"/>
		</g>
		<g id="XMLID_969_">
			<path id="XMLID_481_" d="M448.986,202.114H207.012c-5.522,0-10-4.477-10-10s4.478-10,10-10h241.975c5.522,0,10,4.477,10,10     S454.509,202.114,448.986,202.114z"/>
		</g>
	</g>
	<g id="XMLID_1761_">
		<rect id="XMLID_1760_" x="262.971" y="330.013" style="fill:#A0E557;" width="56" height="118"/>
		<rect id="XMLID_1759_" x="358.971" y="260.013" style="fill:#FFB954;" width="56" height="188"/>
		<g id="XMLID_1758_">
			<path id="XMLID_478_" d="M318.972,458.013h-56c-5.522,0-10-4.477-10-10v-118c0-5.523,4.478-10,10-10h56c5.522,0,10,4.477,10,10     v118C328.972,453.536,324.494,458.013,318.972,458.013z M272.972,438.013h36v-98h-36V438.013z"/>
		</g>
		<g id="XMLID_1757_">
			<path id="XMLID_475_" d="M414.972,458.013h-56c-5.522,0-10-4.477-10-10v-188c0-5.523,4.478-10,10-10h56c5.522,0,10,4.477,10,10     v188C424.972,453.536,420.494,458.013,414.972,458.013z M368.972,438.013h36v-168h-36V438.013z"/>
		</g>
		<rect id="XMLID_1756_" x="167.013" y="394.013" style="fill:#72D8FF;" width="56" height="54"/>
		<g id="XMLID_1755_">
			<path id="XMLID_472_" d="M223.013,458.013h-56c-5.522,0-10-4.477-10-10v-54c0-5.523,4.478-10,10-10h56c5.522,0,10,4.477,10,10v54     C233.013,453.536,228.535,458.013,223.013,458.013z M177.013,438.013h36v-34h-36V438.013z"/>
		</g>
	</g>
</g>















</svg>