<?xml version="1.0" encoding="UTF-8"?>
<svg xmlns="http://www.w3.org/2000/svg" onmouseup="{ if(window.parent.document.onmouseup) window.parent.document.onmouseup(arguments[0]);}" width="512" viewBox="0 0 16.933333 16.933334" height="512" id="svg4970" xmlns:svg="http://www.w3.org/2000/svg"><g transform="translate(0 -280.067)" id="layer1"><path data-cppathid="10000" fill="#ffbc42" d="m4.7625011 281.91873a3.96875 3.96875 0 0 0 -3.96875002 3.96875 3.96875 3.96875 0 0 0 3.96875002 3.96875 3.96875 3.96875 0 0 0 3.9687498-3.96875h-3.9687498z" id="path13065"/><path data-cppathid="10001" fill="#ff6b6b" d="m5.8208349 280.8604v3.96875h3.96875a3.96875 3.96875 0 0 0 -3.96875-3.96875z" id="path13067"/><path data-cppathid="10002" fill="#33b9ef" d="m7.9375029 294.61873h1.05833v1.5875h-1.05833z" id="path13629"/><path data-cppathid="10003" fill="#33b9ef" d="m10.05417 293.5604h1.05833v2.64583h-1.05833z" id="path13631"/><path data-cppathid="10004" fill="#33b9ef" d="m12.170837 294.08957h1.05833v2.11666h-1.05833z" id="path13633"/><path data-cppathid="10005" fill="#33b9ef" d="m14.287503 292.50207h1.05833v3.70416h-1.05833z" id="path13635"/><g fill="#ffbc42"><path data-cppathid="10006" d="m8.9958329 293.03123c0 .29225-.23691.52917-.52916.52917s-.52917-.23691-.52917-.52917c0-.29225.23692-.52917.52917-.52916.29225 0 .52916.23692.52916.52916z" id="path13637"/><path data-cppathid="10007" d="m11.1125 291.44373c0 .29226-.23692.52917-.52917.52917s-.52916-.23692-.52916-.52917.23691-.52916.52916-.52916c.29225-.00001.52917.23691.52917.52916z" id="path13639"/><path data-cppathid="10008" d="m13.229172 291.9729c0 .29225-.23692.52917-.52917.52917s-.52917-.23692-.52917-.52917.23692-.52917.52917-.52917.52917.23692.52917.52917z" id="path13641"/><path data-cppathid="10009" d="m15.345833 290.3854c0 .29225-.23692.52917-.52917.52917s-.52917-.23692-.52917-.52917.23692-.52917.52917-.52917.52917.23692.52917.52917z" id="path13643"/></g><path data-cppathid="10010" vector-effect="none" solid-opacity="1" solid-color="#000000" mix-blend-mode="normal" isolation="auto" shape-padding="0" white-space="normal" text-orientation="mixed" text-transform="none" text-decoration-color="#000000" text-decoration-style="solid" text-decoration-line="none" text-align="start" text-indent="0" font-feature-settings="normal" font-variant-alternates="normal" font-variant-numeric="normal" font-variant-caps="normal" font-variant-position="normal" font-variant-ligatures="normal" d="m5.8208339 280.59582c-.146119.00001-.264568.11846-.264584.26458v3.96875c.000016.14612.118465.26457.264584.26458h3.96875c.146119-.00001.2645671-.11846.2645831-.26458 0-.49685-.08567-.97488-.2433951-1.41852-.117846-.33313-.617522-.15552-.498679.17725.108482.30513.177821.64028.202573.97669h-3.429249v-3.43132c.900173.065 1.710187.45561 2.318721 1.04903h-.731737c-.360696-.008-.360696.53717 0 .52917h5.5567661v.7953c0 .35312.529683.35312.529683 0v-1.05885c.000529-.14713-.119005-.26647-.266134-.26562h-4.3702741c-.775785-.96655-1.967346-1.58646-3.301608-1.58646zm-1.0583339 1.05936c-2.334871 0-4.23229792 1.89743-4.23229792 4.2323 0 1.87338 1.21930792 3.46245 2.90989802 4.01836v1.53841c0 .35312.529685.35312.529685 0v-3.7052c.0019-.14938-.1203931-.2706-.2697512-.26768-.1455148.003-.2616488.12215-.2599338.26768v1.60714c-1.3918151-.53207-2.3828011-1.87673-2.3828011-3.45871 0-1.95535 1.523116-3.55158 3.441653-3.69331v3.69331c.0005292.14541.118141.26304.263548.26355h3.6958989c-.141735 1.91854-1.740554 3.44165-3.6958989 3.44165-.3313319-.0118-.3693369.517 0 .5271 2.3348719 0 4.2322989-1.89743 4.2322989-4.2323-.000529-.1454-.118141-.26303-.263549-.26355h-3.7052008v-3.7052c-.0005292-.1454-.118142-.26303-.2635491-.26355zm7.673952 3.17345c-.353121 0-.353121.52969 0 .52969h3.173449c.353121 0 .353121-.52969 0-.52969zm-1.058852 1.58802h2.644801c.360696.008.360696-.53717 0-.52917h-2.658493c-.358416.0255-.331814.53945.01371.52917zm3.703135 0h.529166c.360696.008.360696-.53717 0-.52917h-.541829c-.357241.0242-.332658.53794.01267.52917zm-3.703135 1.05885h4.232301c.360696.008.360696-.53717 0-.52917h-4.245993c-.358416.0255-.331814.53945.01371.52917zm0 1.05833h.529685c.345064-.008.345064-.52153 0-.52916h-.543377c-.358445.0254-.331841.53947.01371.52916zm1.585949 0h2.646352c.345065-.008.345065-.52153 0-.52916h-2.659012c-.357267.0242-.332684.53795.01265.52916zm1.853634 1.05885c-.435242 0-.794782.35747-.794782.79272 0 .0825.0164.16065.04031.23564l-.925007.69144c-.125759-.0844-.276368-.13385-.437701-.13385-.274073 0-.516757.14279-.659391.35709l-.670759-.16795c-.03965-.39961-.377933-.71882-.787032-.71882-.43524.00001-.7927181.36006-.7927181.7953 0 .0815.01601.15882.03927.23306l-.924491.69401c-.125759-.0844-.275854-.13435-.437181-.13435-.435245-.00001-.795301.36005-.795301.7953 0 .43524.360056.79272.795301.79271.435239 0 .792715-.35748.792715-.79271 0-.0826-.01646-.16097-.04031-.23616l.9244921-.69247c.125833.0842.276725.13332.438216.13333.273666 0 .517131-.14182.660424-.35502l.671793.16795c.03945.39939.375867.71624.784965.71623.435243.00001.792716-.35747.792716-.79271 0-.082-.01627-.15987-.03979-.23462l.92501-.69453c.126291.0844.277508.13436.439248.13436.435245.00001.792718-.35799.792718-.79323 0-.43525-.357476-.79272-.792718-.79272zm0 .5271c.149257 0 .263552.11636.263552.26562s-.114295.26355-.263552.26355-.265615-.11429-.265615-.26355.116358-.26562.265615-.26562zm-4.234365 1.05885c.149257 0 .265615.11636.265615.26562s-.116358.26355-.265615.26355c-.149262 0-.263552-.11429-.263552-.26355s.11429-.26562.263552-.26562zm2.117182.52917c.149257 0 .263549.11636.263549.26562 0 .14925-.114292.26355-.263549.26355-.149256 0-.263548-.1143-.263548-.26355 0-.14926.114292-.26562.263548-.26562zm-5.5567661 4.76353h8.9963501c.360664.008.360664-.53714 0-.52916h-.529683v-3.43959c.000529-.14612-.117432-.26503-.263551-.26561h-1.058334c-.146925-.00053-.266173.11869-.265615.26561v3.43959h-.529685v-1.85364c-.000529-.14531-.118237-.26297-.263549-.26355h-1.058333c-.145312.00053-.262967.11824-.263549.26355v1.85364h-.529685v-2.38074c.000529-.14692-.118687-.26617-.265615-.26561h-1.058334c-.1461211.00052-.2641101.11949-.2635511.26561v2.38074h-.529683v-1.32447c-.000529-.14612-.119499-.26411-.265618-.26355h-1.056264c-.14632-.00079-.265549.11723-.266134.26355v1.32447h-.541829c-.35727.0242-.332685.53796.01267.52916zm-4.7614679-3.7052c-.353121 0-.353121.52969 0 .52969h3.1734499c.353121 0 .353121-.52969 0-.52969zm6.0859359 0c.149259 0 .263548.11688.263548.26614 0 .14925-.114289.26355-.263548.26355-.149257 0-.265618-.1143-.265618-.26355 0-.14926.116361-.26614.265618-.26614zm6.0838661 0h.529167v3.17604h-.529167zm-13.228651 1.58802h2.6468681c.3450349-.008.3450349-.52151 0-.52917h-2.6605631c-.35841492.0255-.33181092.53945.01371.52917zm3.7031321 0h.5291668c.345035-.008.345035-.52151 0-.52917h-.5418268c-.3572352.0243-.3326551.53793.01265.52917zm5.2932169-.52917h.529167v2.11719h-.529167zm2.117186.52917h.527097v1.58802h-.527097zm-11.113535 1.05885h4.2322989c.360696.008.360696-.53717 0-.52917h-4.2459939c-.35841492.0255-.33181092.53945.01371.52917zm6.8791669-.52917h.529166v1.05834h-.529166zm-6.8791669 1.5875h.529167c.360664.008.360664-.53714 0-.52916h-.542862c-.35844692.0254-.33183992.53948.01371.52916zm1.5880161 0h2.6442828c.360664.008.360664-.53714 0-.52916h-2.6579779c-.358441.0254-.331835.53947.013711.52916z" id="path6950-0"/></g></svg>