<?xml version="1.0" encoding="UTF-8"?>
<svg xmlns="http://www.w3.org/2000/svg" onmouseup="{ if(window.parent.document.onmouseup) window.parent.document.onmouseup(arguments[0]);}" width="512" viewBox="0 0 64 64" height="512" enable-background="new 0 0 64 64" id="Layer_5"><g><g><g><path data-cppathid="10000" fill="#b4dd7f" d="m42 52v-2c0-3.94 1.18-7.68 3.27-10.82.23-.35.47-.68.73-1.01 2.03-2.67 4.76-4.82 8-6.17 3.58 1.19 6 4.55 6 8.32v5.68c0 6.63-5.37 12-12 12h-17-1v-4c0-1.1.9-2 2-2z"/></g><g><path data-cppathid="10001" fill="#aab2bd" d="m30 61c0 .55-.45 1-1 1h-16c-1.66 0-3-1.34-3-3v-1h5 8 4 2c.55 0 1 .45 1 1z"/></g><g><path data-cppathid="10002" fill="#ccd1d9" d="m12.32 48.37 2.68 9.63h-5l-3.91-14.66c-.06-.23-.09-.46-.09-.69 0-.73.3-1.39.78-1.87.33-.33.75-.58 1.22-.7.21-.05.43-.08.65-.08h1.35z"/></g><g><path data-cppathid="10003" fill="#fcd770" d="m30 37v4l-2.4.66c-.17.53-.38 1.05-.64 1.54l1.23 2.16-2.83 2.83-2.16-1.23c-.49.26-1.01.47-1.54.64l-.66 2.4h-4l-.66-2.4c-.53-.17-1.05-.38-1.54-.64l-2.48 1.41-2.32-8.37h-1.35c-.22 0-.44.03-.65.08v-3.08l2.4-.66c.17-.53.38-1.05.64-1.54l-1.23-2.16 2.83-2.83 2.16 1.23c.49-.26 1.01-.47 1.54-.64l.66-2.4h4l.66 2.4c.53.17 1.05.38 1.54.64l2.16-1.23 2.83 2.83-1.23 2.16c.26.49.47 1.01.64 1.54zm-6 2c0-2.76-2.24-5-5-5s-5 2.24-5 5 2.24 5 5 5 5-2.24 5-5z"/></g><g><path data-cppathid="10004" fill="#f0d0b4" d="m30 54v4h-1-2-4c0-2.21 1.79-4 4-4z"/></g><g><path data-cppathid="10005" fill="#f0d0b4" d="m54 29v3c-3.24 1.35-5.97 3.5-8 6.17v-5.24c1.51-.87 2.71-2.22 3.38-3.84.4-.95.62-2 .62-3.09v-2.34c.63.22 1.3.34 2 .34s1.37-.12 2-.34z"/></g><g><path data-cppathid="10006" fill="#f0d0b4" d="m50 23.66v2.34c0 1.09-.22 2.14-.62 3.09l-6.05.86c-.22.03-.44.05-.66.05-2.58 0-4.67-2.09-4.67-4.67v-1.71c0-.38-.21-.73-.55-.9l-.25-.12c-.43-.21-.76-.55-.97-.96-.15-.3-.23-.63-.23-.98 0-.43.13-.85.36-1.21l1.3-1.95c.22-.32.34-.71.34-1.11v-4.39h12v.34c-2.33.82-4 3.05-4 5.66s1.67 4.84 4 5.66z"/></g><g><path data-cppathid="10007" fill="#b27946" d="m62 16.98c0 2.46-.7 4.81-1.94 6.82-1.24 2.02-3.04 3.69-5.23 4.79l-.83.41v-5.34c2.33-.82 4-3.05 4-5.66s-1.67-4.84-4-5.66v-7.35c4.7 1.95 8 6.58 8 11.99z"/></g><g><path data-cppathid="10008" fill="#b27946" d="m50 4.04v7.96h-12c-1.1 0-2-.9-2-2s.29-2.12.81-3c.26-.46.58-.87.95-1.24 1.08-1.09 2.58-1.76 4.24-1.76h7.02c.33 0 .66.01.98.04z"/></g><g><path data-cppathid="10009" fill="#ccd1d9" d="m54 4.99v7.35c-.63-.22-1.3-.34-2-.34s-1.37.12-2 .34v-.34-7.96-1.04c0-.55.45-1 1-1h2c.55 0 1 .45 1 1z"/></g><g><path data-cppathid="10010" fill="#fcd770" d="m54 12.34c2.33.82 4 3.05 4 5.66s-1.67 4.84-4 5.66c-.63.22-1.3.34-2 .34s-1.37-.12-2-.34c-2.33-.82-4-3.05-4-5.66s1.67-4.84 4-5.66c.63-.22 1.3-.34 2-.34s1.37.12 2 .34z"/></g><g><circle data-cppathid="10011" r="2" fill="#ccd1d9" cy="18" cx="52"/></g><g><path data-cppathid="10012" fill="#aab2bd" d="m39.41 30.59c.37.36.59.86.59 1.41 0 1.1-.9 2-2 2h-2c-.55 0-1.05-.22-1.41-.59-.37-.36-.59-.86-.59-1.41 0-1.1.9-2 2-2h2c.55 0 1.05.22 1.41.59z"/></g><g><path data-cppathid="10013" fill="#e6e9ed" d="m36.23 21.64c-.55 1.4-1.91 2.36-3.47 2.36h-.76v-2c0-1.66-.67-3.16-1.76-4.24-1.08-1.09-2.58-1.76-4.24-1.76 1.66 0 3-1.34 3-3s-1.34-3-3-3-3 1.34-3 3 1.34 3 3 3c-3.31 0-6 2.69-6 6 0-1.66-.67-3.16-1.76-4.24-1.08-1.09-2.58-1.76-4.24-1.76 1.66 0 3-1.34 3-3s-1.34-3-3-3-3 1.34-3 3 1.34 3 3 3c-3.31 0-6 2.69-6 6v2h-.76c-1.86 0-3.44-1.37-3.7-3.21l-1.5-10.53c-.03-.17-.04-.35-.04-.53 0-2.06 1.67-3.73 3.73-3.73h28.54c.98 0 1.87.38 2.54 1-.52.88-.81 1.9-.81 3s.9 2 2 2v4.39c0 .4-.12.79-.34 1.11l-1.3 1.95c-.23.36-.36.78-.36 1.21 0 .35.08.68.23.98z"/></g><g><path data-cppathid="10014" fill="#b4dd7f" d="m20 22v2h-12v-2c0-3.31 2.69-6 6-6 1.66 0 3.16.67 4.24 1.76 1.09 1.08 1.76 2.58 1.76 4.24z"/></g><g><path data-cppathid="10015" fill="#ff826e" d="m32 22v2h-4l-5.61 3.74c-.26.17-.55.26-.85.26-.18 0-.35-.03-.51-.09-.6-.21-1.03-.78-1.03-1.45v-2.46-2c0-3.31 2.69-6 6-6 1.66 0 3.16.67 4.24 1.76 1.09 1.08 1.76 2.58 1.76 4.24z"/></g><g><circle data-cppathid="10016" r="3" fill="#f0d0b4" cy="13" cx="26"/></g><g><circle data-cppathid="10017" r="3" fill="#f0d0b4" cy="13" cx="14"/></g></g><g><path data-cppathid="10018" d="m55 31.31v-1.692l.273-.136c4.766-2.383 7.727-7.174 7.727-12.503 0-5.441-3.121-10.321-8-12.629v-1.35c0-1.103-.897-2-2-2h-2c-1.103 0-2 .897-2 2h-7c-2.198 0-4.16 1.02-5.444 2.609-.697-.387-1.478-.609-2.29-.609h-28.532c-2.61 0-4.734 2.124-4.734 4.734 0 .224.016.448.048.67l1.504 10.53c.331 2.318 2.346 4.066 4.687 4.066h11.761v1.464c0 .184.022.363.06.536h-2.822l-.718 2.625c-.229.086-.458.181-.685.286l-2.366-1.35-3.908 3.908 1.35 2.366c-.104.227-.2.455-.286.685l-2.625.717v3.177c-1.181.606-2 1.823-2 3.239 0 .316.042.632.123.941l3.877 14.536v.87c0 2.206 1.794 4 4 4h16c1.103 0 2-.897 2-2v-2h17c7.168 0 13-5.832 13-13v-5.675c0-3.969-2.383-7.504-6-9.015zm-14.351-.688c.628.24 1.307.378 2.019.378.268 0 .536-.019.802-.057l3.987-.57c-1.284 1.599-3.251 2.627-5.457 2.627h-1.171c.11-.313.171-.649.171-1 0-.5-.134-.964-.351-1.378zm-1.649 1.378c0 .551-.449 1-1 1h-2c-.551 0-1-.449-1-1s.449-1 1-1h2c.551 0 1 .449 1 1zm-1.105-10.17-.248-.124c-.399-.2-.647-.602-.647-1.048 0-.232.068-.457.197-.65l1.299-1.948c.33-.495.504-1.07.504-1.665v-3.395h8.11c-1.3 1.272-2.11 3.042-2.11 5 0 2.785 1.639 5.189 4 6.315v1.685c0 .763-.127 1.496-.353 2.184l-5.46.78c-.172.024-.345.036-.519.036-2.022 0-3.668-1.646-3.668-3.668v-1.713c0-.764-.424-1.449-1.105-1.789zm19.105-3.83c0 2.757-2.243 5-5 5s-5-2.243-5-5 2.243-5 5-5 5 2.243 5 5zm-6 8v-1.08c.328.047.66.08 1 .08s.672-.033 1-.08v6.441c-2.275 1.036-4.296 2.448-6 4.151v-2.033c2.41-1.618 4-4.366 4-7.479zm10-9.021c0 4.329-2.283 8.241-6 10.376v-3.04c2.361-1.126 4-3.53 4-6.315s-1.639-5.189-4-6.315v-5.083c3.686 2.119 6 6.04 6 10.377zm-8-13.979v8.08c-.328-.047-.66-.08-1-.08s-.672.033-1 .08v-8.08zm-11 2h7v6h-11c-.551 0-1-.449-1-1 0-2.757 2.243-5 5-5zm-37.468 15.652-1.504-10.53c-.019-.128-.028-.258-.028-.388 0-1.507 1.227-2.734 2.734-2.734h28.531c.449 0 .879.119 1.268.324-.342.825-.533 1.728-.533 2.676 0 1.302.839 2.402 2 2.816v3.579c0 .198-.058.39-.168.555l-1.299 1.949c-.349.522-.533 1.131-.533 1.759 0 .326.053.642.145.942-.44.791-1.237 1.304-2.145 1.382v-.982c0-2.801-1.658-5.216-4.04-6.334.639-.709 1.04-1.638 1.04-2.666 0-2.206-1.794-4-4-4s-4 1.794-4 4c0 1.028.401 1.957 1.04 2.666-1.266.594-2.324 1.555-3.04 2.747-.716-1.192-1.773-2.153-3.04-2.747.639-.709 1.04-1.638 1.04-2.666 0-2.206-1.794-4-4-4s-4 1.794-4 4c0 1.028.401 1.957 1.04 2.666-2.382 1.118-4.04 3.533-4.04 6.334v.978c-1.247-.112-2.288-1.068-2.468-2.326zm16.468 3.348v-2c0-2.757 2.243-5 5-5s5 2.243 5 5v1h-3.303l-5.865 3.91c-.334.222-.833-.044-.833-.446zm3-11c0-1.103.897-2 2-2s2 .897 2 2-.897 2-2 2-2-.897-2-2zm-12 0c0-1.103.897-2 2-2s2 .897 2 2-.897 2-2 2-2-.897-2-2zm-3 10v-1c0-2.757 2.243-5 5-5s5 2.243 5 5v1zm2.193 14.164.162-.525c.142-.46.334-.922.572-1.371l.256-.486-1.129-1.979 1.75-1.75 1.979 1.129.486-.256c.449-.237.91-.43 1.371-.572l.525-.162.6-2.193h2.474l.6 2.193.525.162c.46.142.922.334 1.371.572l.486.256 1.979-1.129 1.75 1.75-1.129 1.979.256.486c.237.449.43.91.572 1.371l.162.525 2.193.6v2.474l-2.193.6-.162.525c-.142.46-.334.922-.572 1.371l-.256.486 1.129 1.979-1.75 1.75-1.979-1.129-.486.256c-.449.237-.91.43-1.371.572l-.525.162-.602 2.19h-2.474l-.6-2.193-.525-.162c-.46-.142-.922-.334-1.371-.572l-.485-.256-1.838 1.047-2.184-7.864h-1.76v-1.237zm-4.193 5.488c0-.911.741-1.652 1.652-1.652h.588l4.445 16h-2.917l-3.712-13.92c-.037-.141-.056-.285-.056-.428zm22 18.348h-16c-1.103 0-2-.897-2-2h5.315 12.685zm0-4h-4.816c.414-1.161 1.514-2 2.816-2h2zm.184-4h-2.184c-2.414 0-4.434 1.721-4.899 4h-6.341l-2.263-8.149 1.338-.761c.227.104.455.2.685.286l.717 2.624h5.526l.718-2.625c.229-.086.458-.181.685-.286l2.366 1.35 3.908-3.908-1.35-2.366c.104-.227.2-.455.286-.685l2.624-.717v-5.526l-2.625-.718c-.086-.229-.181-.458-.286-.685l1.35-2.366-3.908-3.908-2.366 1.35c-.227-.104-.455-.2-.685-.286l-.202-.738c.233-.072.456-.176.662-.313l5.363-3.573h4.458c1.445 0 2.762-.644 3.643-1.711.111.074.226.144.349.205l.247.124v1.713c0 1.418.527 2.713 1.391 3.708-.129-.017-.257-.039-.391-.039h-2c-1.654 0-3 1.346-3 3s1.346 3 3 3h6c1.053 0 2.06-.191 3-.525v3.362c-2.542 3.447-4 7.673-4 12.163v1h-9c-1.302 0-2.402.839-2.816 2zm29.816-7c0 6.065-4.935 11-11 11h-17v-3c0-.551.449-1 1-1h14c4.962 0 9-4.038 9-9v-3h-2v3c0 3.86-3.14 7-7 7h-3v-1c0-7.364 4.317-13.966 11.032-16.926 2.987 1.155 4.968 4.023 4.968 7.251z"/><path data-cppathid="10019" d="m19 45c3.309 0 6-2.691 6-6s-2.691-6-6-6-6 2.691-6 6 2.691 6 6 6zm0-10c2.206 0 4 1.794 4 4s-1.794 4-4 4-4-1.794-4-4 1.794-4 4-4z"/><path data-cppathid="10020" d="m49 18c0 1.654 1.346 3 3 3v-2c-.551 0-1-.449-1-1s.449-1 1-1 1 .449 1 1h2c0-1.654-1.346-3-3-3s-3 1.346-3 3z"/></g></g></svg>