<?xml version="1.0" encoding="UTF-8"?>
<svg xmlns="http://www.w3.org/2000/svg" onmouseup="{ if(window.parent.document.onmouseup) window.parent.document.onmouseup(arguments[0]);}" width="512" viewBox="0 0 64 64" height="512" enable-background="new 0 0 64 64" id="Layer_5"><g><g><g><path d="m43 8-4 6h-5l3-9h.39c1.13 0 2.22.28 3.18.8.97.52 1.81 1.26 2.43 2.2z" fill="#8cc152"/></g><g><path d="m27 5 3 9h-5l-4-6c.62-.94 1.46-1.68 2.43-2.2.96-.52 2.05-.8 3.18-.8z" fill="#8cc152"/></g><g><path d="m37 5-3 9h-4l-3-9s2-3 5-3 5 3 5 3z" fill="#a0d468"/></g><g><path d="m53.58 28.2c1.57 3.18 2.42 6.73 2.42 10.38 0 12.93-10.49 23.42-23.42 23.42h-1.16c-6.46 0-12.32-2.62-16.56-6.86s-6.86-10.1-6.86-16.56c0-7.3 3.4-14.18 9.2-18.61l7.8-5.97h5 4 5l5.15 3.94 2.65 2.03c2.9 2.21 5.2 5.04 6.78 8.23z" fill="#b4dd7f"/></g><g><path d="m30 20.12v6.06c-5.67.95-10 5.88-10 11.82 0 1.63.32 3.18.91 4.59l-5.54 2.3c-.88-2.12-1.37-4.45-1.37-6.89 0-9.26 7-16.89 16-17.88z" fill="#ff826e"/></g><g><path d="m43.82 40h6.06c-.99 9-8.62 16-17.88 16-7.5 0-13.93-4.59-16.63-11.11l5.54-2.3c1.8 4.35 6.08 7.41 11.09 7.41 5.94 0 10.87-4.33 11.82-10z" fill="#e6e9ed"/></g><g><path d="m48.62 31.11c-.9-2.2-2.24-4.18-3.9-5.83-1.65-1.66-3.63-3-5.83-3.9-1.53-.64-3.18-1.07-4.89-1.26v6.06c.9.15 1.76.4 2.58.75 1.47.6 2.79 1.49 3.9 2.59 1.1 1.1 1.99 2.43 2.59 3.9.35.82.6 1.68.75 2.58h6.06c-.19-1.71-.62-3.36-1.26-4.89z" fill="#fcd770"/></g><g><path d="m5.41 58.59c.37.36.59.86.59 1.41 0 1.1-.9 2-2 2s-2-.9-2-2 .9-2 2-2c.55 0 1.05.22 1.41.59z" fill="#ff826e"/></g><g><path d="m6 12c2.21 0 4 1.79 4 4 0 1.1-.45 2.1-1.17 2.83-.73.72-1.73 1.17-2.83 1.17-2.21 0-4-1.79-4-4s1.79-4 4-4z" fill="#ff826e"/></g><g><path d="m56 4c3.31 0 6 2.69 6 6s-2.69 6-6 6c-2.71 0-5.01-1.81-5.75-4.28-.16-.55-.25-1.12-.25-1.72 0-3.31 2.69-6 6-6z" fill="#ff826e"/></g><g><circle cx="56" cy="10" fill="#fc6e51" r="2"/></g></g><g><path d="m31 29v2c-2.206 0-4 1.794-4 4s1.794 4 4 4h2c1.103 0 2 .897 2 2s-.897 2-2 2h-2c-1.103 0-2-.897-2-2v-1h-2v1c0 2.206 1.794 4 4 4v2h2v-2c2.206 0 4-1.794 4-4s-1.794-4-4-4h-2c-1.103 0-2-.897-2-2s.897-2 2-2h2c1.103 0 2 .897 2 2h2c0-2.206-1.794-4-4-4v-2z"/><path d="m42.834 36.166.141.834h8.025l-.123-1.11c-.968-8.747-8.02-15.799-16.767-16.767l-1.11-.123v8.025l.834.141c4.608.775 8.225 4.392 9 9zm-4.956-9.743 1.529-3.693c1.403.687 2.701 1.559 3.859 2.59l-2.817 2.817c-.781-.669-1.645-1.243-2.571-1.714zm6.802.311c1.031 1.158 1.902 2.456 2.59 3.859l-3.693 1.529c-.47-.926-1.045-1.79-1.714-2.571zm-.042 8.266c-.083-.35-.184-.693-.294-1.031l3.707-1.535c.29.829.519 1.686.677 2.566zm-9.638-13.728c.88.158 1.737.386 2.566.677l-1.535 3.707c-.338-.11-.681-.211-1.031-.294z"/><path d="m51 39h-8.025l-.141.834c-.893 5.311-5.449 9.166-10.834 9.166-6.065 0-11-4.935-11-11 0-5.385 3.855-9.941 9.166-10.834l.834-.141v-8.025l-1.11.123c-9.629 1.066-16.89 9.181-16.89 18.877 0 10.477 8.523 19 19 19 9.696 0 17.811-7.261 18.877-16.89zm-22-17.729v4.091c-5.843 1.372-10 6.559-10 12.638 0 1.409.232 2.762.649 4.034l-3.694 1.53c-.608-1.746-.955-3.613-.955-5.564 0-8.298 5.944-15.302 14-16.729zm3 33.729c-6.715 0-12.516-3.924-15.276-9.59l3.697-1.531c2.15 4.219 6.527 7.121 11.579 7.121 6.079 0 11.266-4.157 12.639-10h4.091c-1.428 8.056-8.432 14-16.73 14z"/><path d="m56 13c1.654 0 3-1.346 3-3s-1.346-3-3-3-3 1.346-3 3 1.346 3 3 3zm0-4c.551 0 1 .449 1 1s-.449 1-1 1-1-.449-1-1 .449-1 1-1z"/><path d="m61 53h-2v8h-2v-6h-2v6h-2v-4h-2v4h-1.323l-1.47-3.675c5.37-4.484 8.793-11.223 8.793-18.749 0-7.558-3.584-14.811-9.588-19.402l-2.067-1.58 1.417-3.778 2.897-.869c1.115 2.389 3.535 4.053 6.341 4.053 3.86 0 7-3.14 7-7s-3.14-7-7-7-7 3.14-7 7c0 .351.034.693.085 1.031l-3.847 1.154-1.553 4.139-3.333-2.549 3.85-5.775-.37-.555c-1.418-2.127-3.778-3.403-6.329-3.439-.748-.929-2.729-3.006-5.503-3.006s-4.755 2.077-5.503 3.007c-2.551.036-4.911 1.312-6.329 3.439l-.37.554 3.85 5.775-7.06 5.399c-1.133.866-2.179 1.828-3.132 2.868l-3.289-3.289c.524-.791.833-1.736.833-2.753 0-2.757-2.243-5-5-5s-5 2.243-5 5 2.243 5 5 5c1.017 0 1.962-.309 2.753-.833l3.416 3.416c-3.295 4.25-5.169 9.539-5.169 14.993 0 4.84 1.421 9.352 3.859 13.151l-5.574 5.574c-.391-.188-.823-.301-1.285-.301-1.654 0-3 1.346-3 3s1.346 3 3 3 3-1.346 3-3c0-.462-.113-.894-.301-1.285l5.324-5.324c4.467 5.836 11.5 9.61 19.4 9.61h1.151c5.197 0 10.017-1.637 13.981-4.415l1.768 4.414h14.677v-2h-2zm-5-48c2.757 0 5 2.243 5 5s-2.243 5-5 5-5-2.243-5-5 2.243-5 5-5zm-50 14c-1.654 0-3-1.346-3-3s1.346-3 3-3 3 1.346 3 3-1.346 3-3 3zm-2 42c-.551 0-1-.449-1-1s.449-1 1-1 1 .449 1 1-.449 1-1 1zm33.715-54.982c1.581.088 3.046.813 4.061 2.016l-3.311 4.966h-3.077zm-5.715-3.018c1.846 0 3.296 1.479 3.884 2.187l-2.605 7.813h-2.558l-2.605-7.813c.589-.709 2.039-2.187 3.884-2.187zm-5.715 3.018 2.327 6.982h-3.077l-3.311-4.967c1.015-1.202 2.48-1.927 4.061-2.015zm5.139 54.982c-12.364 0-22.424-10.06-22.424-22.424 0-6.939 3.291-13.598 8.803-17.813l7.535-5.763h13.323l7.536 5.763c5.512 4.215 8.803 10.874 8.803 17.813 0 12.364-10.06 22.424-22.424 22.424z"/></g></g></svg>