<?xml version="1.0" encoding="UTF-8"?>
<svg xmlns="http://www.w3.org/2000/svg" onmouseup="{ if(window.parent.document.onmouseup) window.parent.document.onmouseup(arguments[0]);}" xml:space="preserve" style="enable-background:new 0 0 512 512;" viewBox="0 0 512 512" y="0px" x="0px" id="Capa_1" version="1.1" xmlns:xlink="http://www.w3.org/1999/xlink"><g><polygon data-cppathid="10000" points="296,495.886 0,495.886 0,111.886 512,111.886 512,279.886 496,279.886 496,127.886    16,127.886 16,479.886 296,479.886  " style="fill:#34303D;"/><path data-cppathid="10001" d="M104,87.886H88v-48c0-2.136-0.832-4.144-2.344-5.656c-3.024-3.024-8.288-3.024-11.312,0   C72.832,35.742,72,37.75,72,39.886v16H56v-16c0-6.408,2.496-12.44,7.032-16.968c9.064-9.072,24.872-9.072,33.936,0   c4.536,4.528,7.032,10.56,7.032,16.968V87.886z" style="fill:#34303D;"/><path data-cppathid="10002" d="M456,87.886h-16v-48c0-2.136-0.832-4.144-2.352-5.664c-3.016-3.016-8.28-3.016-11.296,0   c-1.52,1.52-2.352,3.528-2.352,5.664v16h-16v-16c0-6.4,2.496-12.432,7.024-16.968c9.064-9.072,24.888-9.072,33.952,0   C453.504,27.454,456,33.486,456,39.886V87.886z" style="fill:#34303D;"/><polygon data-cppathid="10003" points="512,127.886 0,127.886 0,47.886 96,47.886 96,63.886 16,63.886 16,111.886 496,111.886    496,63.886 472,63.886 472,47.886 512,47.886  " style="fill:#34303D;"/><rect data-cppathid="10004" height="16" width="328" style="fill:#34303D;" y="47.886" x="120"/><rect data-cppathid="10005" height="16" width="432" style="fill:#34303D;" y="79.886" x="40"/><rect data-cppathid="10006" height="16" width="16" style="fill:#34303D;" y="167.886" x="56"/><rect data-cppathid="10007" height="16" width="16" style="fill:#34303D;" y="167.886" x="120"/><rect data-cppathid="10008" height="16" width="16" style="fill:#34303D;" y="167.886" x="184"/><rect data-cppathid="10009" height="16" width="16" style="fill:#34303D;" y="423.886" x="248"/></g><g><rect data-cppathid="10010" height="48" width="48" style="fill:#57DCF2;" y="151.886" x="360"/><rect data-cppathid="10011" height="48" width="48" style="fill:#57DCF2;" y="151.886" x="296"/><rect data-cppathid="10012" height="48" width="48" style="fill:#57DCF2;" y="151.886" x="232"/><rect data-cppathid="10013" height="48" width="48" style="fill:#57DCF2;" y="215.886" x="360"/><rect data-cppathid="10014" height="48" width="48" style="fill:#57DCF2;" y="151.886" x="424"/><rect data-cppathid="10015" height="48" width="48" style="fill:#57DCF2;" y="215.886" x="424"/><rect data-cppathid="10016" height="48" width="48" style="fill:#57DCF2;" y="215.886" x="296"/><rect data-cppathid="10017" height="48" width="48" style="fill:#57DCF2;" y="215.886" x="232"/><rect data-cppathid="10018" height="48" width="48" style="fill:#57DCF2;" y="215.886" x="168"/></g><g><rect data-cppathid="10019" height="48" width="48" style="fill:#FF5F5C;" y="215.886" x="104"/><rect data-cppathid="10020" height="48" width="48" style="fill:#FF5F5C;" y="215.886" x="40"/></g><rect data-cppathid="10021" height="48" width="48" style="fill:#57DCF2;" y="279.886" x="232"/><g><rect data-cppathid="10022" height="48" width="48" style="fill:#FF5F5C;" y="279.886" x="168"/><rect data-cppathid="10023" height="48" width="48" style="fill:#FF5F5C;" y="279.886" x="104"/><rect data-cppathid="10024" height="48" width="48" style="fill:#FF5F5C;" y="279.886" x="40"/></g><g><rect data-cppathid="10025" height="48" width="48" style="fill:#ABF1FC;" y="343.886" x="168"/><rect data-cppathid="10026" height="48" width="48" style="fill:#ABF1FC;" y="343.886" x="232"/></g><g><rect data-cppathid="10027" height="48" width="48" style="fill:#57DCF2;" y="343.886" x="104"/><rect data-cppathid="10028" height="48" width="48" style="fill:#57DCF2;" y="343.886" x="40"/></g><g><rect data-cppathid="10029" height="48" width="48" style="fill:#ABF1FC;" y="407.886" x="168"/><rect data-cppathid="10030" height="48" width="48" style="fill:#ABF1FC;" y="407.886" x="104"/><rect data-cppathid="10031" height="48" width="48" style="fill:#ABF1FC;" y="407.886" x="40"/></g><circle data-cppathid="10032" r="76" cy="387.886" cx="404" style="fill:#FF5F5C;"/><path data-cppathid="10033" d="M404,495.886c-59.552,0-108-48.448-108-108s48.448-108,108-108s108,48.448,108,108  S463.552,495.886,404,495.886z M404,295.886c-50.728,0-92,41.272-92,92s41.272,92,92,92s92-41.272,92-92  S454.728,295.886,404,295.886z" style="fill:#34303D;"/><path data-cppathid="10034" d="M392,423.886c-2.048,0-4.096-0.784-5.656-2.344l-24-24l11.312-11.312L392,404.574l42.344-42.344  l11.312,11.312l-48,48C396.096,423.102,394.048,423.886,392,423.886z" style="fill:#FFFFFF;"/><g/><g/><g/><g/><g/><g/><g/><g/><g/><g/><g/><g/><g/><g/><g/></svg>