<?xml version="1.0" encoding="UTF-8"?>
<svg xmlns="http://www.w3.org/2000/svg" onmouseup="{ if(window.parent.document.onmouseup) window.parent.document.onmouseup(arguments[0]);}" width="512" viewBox="0 0 256 256" height="512" enable-background="new 0 0 256 256" id="Layer_1"><g><g><path data-cppathid="10000" fill="#f9d335" d="m158.467 172.969c0 37.864-28.395 69.111-65.057 73.591-2.986.376-6.021.558-9.105.558-40.959 0-74.161-33.202-74.161-74.149 0-40.959 33.202-74.161 74.161-74.161 3.084 0 6.118.182 9.105.558 36.662 4.48 65.057 35.727 65.057 73.603z"/><path data-cppathid="10001" fill="#f2c300" d="m158.467 172.969c0 44.879-39.504 79.105-83.266 73.591 36.662-4.48 65.057-35.727 65.057-73.591 0-37.876-28.395-69.123-65.057-73.603 43.869-5.528 83.266 28.805 83.266 73.603z"/><path data-cppathid="10002" fill="#f9e27d" d="m93.41 246.56c-43.72 5.509-83.266-28.657-83.266-73.591 0-44.998 39.587-79.107 83.266-73.603-36.662 4.48-65.056 35.727-65.056 73.603 0 37.863 28.394 69.111 65.056 73.591z"/></g><g><g><path data-cppathid="10003" fill="#4bdbc3" d="m246.793 89.766-27.355-77.12c-1.043-2.942-4.266-4.477-7.208-3.433l-18.739 6.647c-2.942 1.043-4.477 4.266-3.433 7.208l27.355 77.12c1.04 2.932 4.266 4.477 7.208 3.433l18.739-6.647c2.942-1.044 4.473-4.276 3.433-7.208z"/><path data-cppathid="10004" fill="#3bb2a0" d="m246.793 89.766-27.355-77.12c-1.043-2.942-4.266-4.477-7.208-3.433l-4.175 1.481c-2.942 1.043-4.477 4.266-3.433 7.208l27.355 77.12c1.04 2.932 4.266 4.477 7.208 3.433l4.175-1.481c2.942-1.044 4.473-4.276 3.433-7.208z"/><path data-cppathid="10005" fill="#ffbb98" d="m98.267 121.665c-2.158-7.133 1.971-14.674 8.994-17.166l11.849-4.203-10.626-1.205c-8.094-.918-16.202 1.597-22.356 6.933l-52.446 53.062c-8.234 6.509-20.426 2.996-23.935-6.895-2.13-6.004-.321-12.699 4.543-16.814l27.137-28.675c8.638-9.128 18.16-17.4 28.564-24.449 15.894-10.769 33.122-19.49 51.278-25.93l5.681-2.015c14.616-5.184 29.556-9.347 44.527-13.391 3.618-.977 7.084-2.389 10.324-4.186 3.782-2.096 7.258-4.718 10.331-7.806l21.824 61.528c-5.53 4.74-11.667 8.664-18.216 11.688-1.414.65-2.855 1.245-4.306 1.812l.019.053-75.307 26.712c-7.412 2.63-15.574-1.437-17.879-9.053z"/><path data-cppathid="10006" fill="#ffcaa6" d="m20.795 153.719 27.14-28.675c8.638-9.133 18.158-17.41 28.554-24.456 15.905-10.761 33.125-19.484 51.28-25.924l5.684-2.016c14.621-5.186 29.561-9.357 44.532-13.401 3.62-.968 7.08-2.388 10.324-4.185 3.776-2.082 7.262-4.709 10.321-7.803l-6.504-18.337c-3.059 3.094-6.545 5.721-10.321 7.803-3.244 1.797-6.704 3.217-10.324 4.185-14.971 4.044-29.911 8.215-44.532 13.401l-5.684 2.016c-18.155 6.44-35.375 15.163-51.28 25.924-10.397 7.046-19.916 15.322-28.554 24.456l-27.14 28.675c-4.861 4.105-6.669 10.802-4.54 16.805 1.258 3.545 3.632 6.282 6.545 8.015.887-2.463 2.403-4.708 4.499-6.483z"/></g></g><g fill="#5f266d"><path data-cppathid="10007" d="m250.565 88.431-27.359-77.109c-.856-2.432-2.611-4.383-4.94-5.495-2.324-1.109-4.942-1.249-7.38-.391l-18.743 6.649c-4.992 1.785-7.619 7.305-5.854 12.312l1.202 3.389c-2.336 2.088-4.889 3.924-7.632 5.451-17.237 9.546-89.6 15.973-141.329 70.716l-27.005 28.522c-6.897 5.983-8.874 16.438-3.785 24.745-1.057 5.164-1.597 10.453-1.597 15.75 0 43.091 35.063 78.148 78.16 78.148 43.354 0 78.159-35.194 78.159-78.148 0-17.714-5.956-34.699-16.852-48.462 48.243-17.117 46.532-16.346 51.812-18.732 5.167-2.385 10.072-5.299 14.642-8.695l1.579 4.464c1.791 4.985 7.31 7.61 12.311 5.847l18.75-6.646c.003-.001.007-.002.01-.003 4.997-1.785 7.623-7.308 5.851-12.312zm-96.103 84.54c0 38.558-31.239 70.148-70.159 70.148-38.686 0-70.16-31.468-70.16-70.148 0-3.034.218-6.062.606-9.062 8.625 4.749 18.029 1.788 21.773-2.003l52.34-52.963c3.467-2.967 7.672-4.899 12.109-5.66-6.107 4.469-9.004 12.652-6.264 20.351 3.31 9.33 13.593 14.154 22.771 10.848l11.643-4.123c2.93-1.04 5.748-2.039 8.477-3.008 10.887 12.705 16.864 28.798 16.864 45.62zm39.636-74.471c-4.956 2.24-1.285.818-79.31 28.448-8.186 2.946-15.906-5.626-12.153-13.501 1.132-2.374 3.119-4.167 5.591-5.047 26.126-9.262-6.803 2.428 46.053-16.342 2.082-.739 3.17-3.026 2.431-5.108s-3.025-3.172-5.108-2.431l-32.964 11.704-9.714-1.101c-10.637-1.202-20.882 3.261-25.641 8.084l-52.267 52.889c-3.295 2.494-7.649 2.998-11.454 1.287-7.624-3.336-9.004-13.611-2.693-18.952.112-.095.219-.196.321-.303l27.151-28.676c50.204-53.13 120.371-58.68 139.4-69.219 2.317-1.29 4.524-2.756 6.603-4.387l18.91 53.309c-4.673 3.718-9.767 6.859-15.156 9.346zm47.923-5.289-18.735 6.641c-.855.301-1.807-.15-2.109-.991-3.34-9.421 1.115 3.114-20.772-58.589l-6.573-18.54c-.308-.874.133-1.802.995-2.11l18.727-6.644c.196-.069.382-.095.55-.095.313 0 .566.091.717.163.23.11.645.377.844.942l27.361 77.115c.302.855-.148 1.8-1.005 2.108z"/><path data-cppathid="10008" d="m91.532 168.963h-14.453c-4.853 0-8.801-3.948-8.801-8.801s3.948-8.8 8.801-8.8h19.27c2.196 0 3.983 1.787 3.983 3.983 0 2.209 1.791 4 4 4s4-1.791 4-4c0-6.607-5.375-11.983-11.983-11.983h-8.043v-9.626c0-2.209-1.791-4-4-4s-4 1.791-4 4v9.626h-3.226c-9.264 0-16.801 7.537-16.801 16.8 0 9.264 7.537 16.801 16.801 16.801h14.452c4.853 0 8.801 3.948 8.801 8.8s-3.948 8.801-8.801 8.801h-19.27c-2.196 0-3.983-1.787-3.983-3.983 0-2.209-1.791-4-4-4s-4 1.791-4 4c0 6.608 5.375 11.983 11.983 11.983h8.043v9.626c0 2.209 1.791 4 4 4s4-1.791 4-4v-9.626h3.226c9.264 0 16.801-7.537 16.801-16.801s-7.536-16.8-16.8-16.8z"/><path data-cppathid="10009" d="m112.98 215.336c-1.056.66-2.17 1.274-3.312 1.827-1.988.962-2.82 3.354-1.858 5.343.691 1.427 2.118 2.258 3.604 2.258.584 0 1.178-.129 1.74-.4 1.398-.677 2.766-1.432 4.064-2.243 1.874-1.171 2.444-3.638 1.273-5.512-1.17-1.874-3.637-2.443-5.511-1.273z"/><path data-cppathid="10010" d="m132.011 167.895c.001.016.155 1.667.155 4.343 0 7.795-1.229 22.571-9.455 33.945-1.294 1.79-.893 4.291.897 5.585.708.512 1.528.759 2.341.759 1.24 0 2.462-.575 3.245-1.656 9.547-13.2 10.972-29.871 10.972-38.633 0-3.099-.184-5.03-.191-5.11-.213-2.197-2.159-3.807-4.362-3.594-2.198.21-3.809 2.163-3.602 4.361z"/></g></g></svg>