<?xml version="1.0" encoding="UTF-8"?>
<svg xmlns="http://www.w3.org/2000/svg" onmouseup="{ if(window.parent.document.onmouseup) window.parent.document.onmouseup(arguments[0]);}" width="512" viewBox="0 0 512 512" height="512"><g id="Flat"><path data-cppathid="10000" fill="#4384c3" d="m328 56a32 32 0 0 1 32-32h32v64h-64z"/><path data-cppathid="10001" fill="#529ddf" d="m424.71 488h-177.42a63.97488 63.97488 0 0 1 -63.63-70.88l14.54-134.43a133.77583 133.77583 0 0 1 97.8-114.69h80c.75.2 1.5.41 2.24.63a133.78075 133.78075 0 0 1 95.56 114.06l14.54 134.43a64.001 64.001 0 0 1 -63.63 70.88z"/><path data-cppathid="10002" fill="#68737f" d="m392 120a15.97853 15.97853 0 0 1 -16 16h-80a15.99559 15.99559 0 0 1 -16-16 17.69442 17.69442 0 0 1 .13-2.07 15.9825 15.9825 0 0 1 15.87-13.93h80a15.99112 15.99112 0 0 1 16 16z"/><path data-cppathid="10003" fill="#4f5761" d="m392 120a15.97853 15.97853 0 0 1 -16 16h-80a15.99559 15.99559 0 0 1 -16-16 17.69442 17.69442 0 0 1 .13-2.07 15.8442 15.8442 0 0 0 7.87 2.07h80a15.95826 15.95826 0 0 0 15.86-13.94 15.98718 15.98718 0 0 1 8.14 13.94z"/><path data-cppathid="10004" fill="#68737f" d="m392 152a15.97853 15.97853 0 0 1 -16 16h-80a15.99559 15.99559 0 0 1 -16-16 17.69442 17.69442 0 0 1 .13-2.07 15.9825 15.9825 0 0 1 15.87-13.93h80a15.99112 15.99112 0 0 1 16 16z"/><path data-cppathid="10005" fill="#4f5761" d="m392 152a15.97853 15.97853 0 0 1 -16 16h-80a15.99559 15.99559 0 0 1 -16-16 17.69442 17.69442 0 0 1 .13-2.07 15.8442 15.8442 0 0 0 7.87 2.07h80a15.95826 15.95826 0 0 0 15.86-13.94 15.98718 15.98718 0 0 1 8.14 13.94z"/><path data-cppathid="10006" fill="#529ddf" d="m408 40v32a32.004 32.004 0 0 1 -32 32h-80a32.004 32.004 0 0 1 -32-32v-16a32 32 0 1 1 64 0 24 24 0 0 0 48 0v-16a16 16 0 0 1 32 0z"/><path data-cppathid="10007" fill="#4384c3" d="m336 104h-35.75a47.7529 47.7529 0 0 1 -12.25-32v-16h16v16a32.02965 32.02965 0 0 0 32 32z"/><path data-cppathid="10008" fill="#4384c3" d="m424.71 488h-177.42a63.91585 63.91585 0 0 1 -55.44-32h42.35c103.44 0 185.41-84.17 185.41-185.08a186.91641 186.91641 0 0 0 -1.09-20.23 133.69878 133.69878 0 0 0 -31.21-72.43q-4.29-5.04008-9.07-9.63a133.78075 133.78075 0 0 1 95.56 114.06l14.54 134.43a64.001 64.001 0 0 1 -63.63 70.88z"/><g fill="#f0e168"><path data-cppathid="10009" d="m200 448h80v40h-80z"/><path data-cppathid="10010" d="m200 408h80v40h-80z"/><path data-cppathid="10011" d="m280 448h80v40h-80z"/><path data-cppathid="10012" d="m232 368h80v40h-80z"/><path data-cppathid="10013" d="m264 328h80v40h-80z"/><path data-cppathid="10014" d="m280 408h80v40h-80z"/></g><path data-cppathid="10015" fill="#e8cd4d" d="m280 408v40h-80v-16h64v-24z"/><path data-cppathid="10016" fill="#e8cd4d" d="m232 408v-16h64v-24h16v40z"/><path data-cppathid="10017" fill="#e8cd4d" d="m360 408v80h-80v-16h64v-24h-64v-16h64v-24z"/><path data-cppathid="10018" fill="#e8cd4d" d="m264 368v-16h64v-24h16v40z"/><path data-cppathid="10019" fill="#e8cd4d" d="m280 448v40h-80v-16h64v-24z"/><path data-cppathid="10020" fill="#7ab355" d="m24 408h176v80h-176z"/><path data-cppathid="10021" fill="#699949" d="m200 488h-176v-8h168v-72h8z"/><path data-cppathid="10022" fill="#f0e168" d="m88 408h48v80h-48z"/><path data-cppathid="10023" fill="#e8cd4d" d="m88 480h48v8h-48z"/><path data-cppathid="10024" fill="#7ab355" d="m56 328h176v80h-176z"/><path data-cppathid="10025" fill="#699949" d="m232 408h-176v-8h168v-72h8z"/><path data-cppathid="10026" fill="#f0e168" d="m120 328h48v80h-48z"/><path data-cppathid="10027" fill="#e8cd4d" d="m120 400h48v8h-48z"/><path data-cppathid="10028" fill="#699949" d="m216 48v85.84a120.0076 120.0076 0 0 1 -66.33008 107.33l-29.66992 14.83-29.66992-14.83a120.0076 120.0076 0 0 1 -66.33008-107.33v-85.84a74.6486 74.6486 0 0 0 32 15.65 74.9333 74.9333 0 0 0 64-15.65 74.85718 74.85718 0 0 0 48 17.38 74.38071 74.38071 0 0 0 16-1.73 74.6486 74.6486 0 0 0 32-15.65z"/><path data-cppathid="10029" fill="#7ab355" d="m184 63.65v70.19a87.5418 87.5418 0 0 1 -48.64014 78.71l-15.35986 7.67-15.35986-7.67a87.5418 87.5418 0 0 1 -48.64014-78.71v-70.19a74.9333 74.9333 0 0 0 64-15.65 74.85718 74.85718 0 0 0 48 17.38 74.38071 74.38071 0 0 0 16-1.73z"/></g></svg>