<?xml version="1.0" encoding="UTF-8"?>
<svg xmlns="http://www.w3.org/2000/svg" onmouseup="{ if(window.parent.document.onmouseup) window.parent.document.onmouseup(arguments[0]);}" height="512" width="512" xml:space="preserve" style="enable-background:new 0 0 512 512;" viewBox="0 0 512 512" y="0px" x="0px" id="Capa_1" version="1.1" xmlns:xlink="http://www.w3.org/1999/xlink"><path data-cppathid="10000" d="M85.247,55.693h92.498c-7.606,7.983-12.291,18.771-12.291,30.6  v23.475h181.094V86.294c0-11.829-4.686-22.617-12.291-30.6h92.497V502H85.247V55.693z" style="fill-rule:evenodd;clip-rule:evenodd;fill:#A8D3D8;"/><polygon data-cppathid="10001" points="124.792,95.237 165.454,95.237 165.454,109.769   346.547,109.769 346.547,95.237 387.21,95.237 387.21,462.455 124.792,462.455 " style="fill-rule:evenodd;clip-rule:evenodd;fill:#DEECF1;"/><path data-cppathid="10002" d="M209.888,41.859h14.253c0-17.595,14.264-31.859,31.859-31.859  c17.596,0,31.859,14.264,31.859,31.859h14.252c24.44,0,44.436,19.996,44.436,44.435v23.475H165.454V86.294  C165.454,61.854,185.449,41.859,209.888,41.859z" style="fill-rule:evenodd;clip-rule:evenodd;fill:#5F6B75;"/><path data-cppathid="10003" d="M256.001,366.329c48.184,0,87.482-39.299,87.482-87.483  c0-48.183-39.299-87.482-87.482-87.482s-87.482,39.299-87.482,87.482C168.518,327.03,207.817,366.329,256.001,366.329z" style="fill-rule:evenodd;clip-rule:evenodd;fill:#87E8D4;"/><g><path data-cppathid="10004" d="M387.21,195.239c-5.523,0-10,4.477-10,10v247.216H134.792v-20.002   c0-5.523-4.477-10-10-10c-5.523,0-10,4.477-10,10v30.002c0,5.523,4.477,10,10,10H387.21c5.522,0,10-4.477,10-10V205.239   C397.21,199.717,392.732,195.239,387.21,195.239z" style="fill-rule:evenodd;clip-rule:evenodd;"/><path data-cppathid="10005" d="M426.753,45.693h-88.433c-9.629-8.596-22.316-13.835-36.209-13.835h-5.459   C292.158,13.591,275.636,0,256.001,0c-19.635,0-36.157,13.591-40.652,31.859h-5.46c-13.893,0-26.58,5.238-36.208,13.835H85.247   c-5.523,0-10,4.477-10,10V502c0,5.523,4.477,10,10,10h341.507c5.523,0,10-4.477,10-10V55.693   C436.753,50.17,432.276,45.693,426.753,45.693z M224.141,51.859c5.523,0,10-4.477,10-10c0-12.053,9.806-21.859,21.859-21.859   c12.054,0,21.859,9.806,21.859,21.859c0,5.523,4.478,10,10,10h14.252c9.662,0,18.401,4.005,24.661,10.435   c0.085,0.097,0.154,0.203,0.243,0.297c7.538,7.952,9.493,17.561,9.516,28.122c0.003,1.508,0.016,3.017,0.016,4.524v4.531H175.454   v-4.531c0-12.153,0.701-23.378,9.531-32.646c0.089-0.094,0.159-0.201,0.244-0.297c6.259-6.43,14.999-10.435,24.66-10.435H224.141z    M416.753,492H95.247V65.693h64.265c-0.024,0.06-0.045,0.121-0.069,0.182c-2.473,6.133-3.835,12.751-3.963,19.362h-30.688   c-5.523,0-10,4.477-10,10v257.217c0,5.523,4.477,10,10,10c5.523,0,10-4.477,10-10V105.237h20.662v4.531c0,5.523,4.477,10,10,10   h181.094c5.522,0,10-4.477,10-10v-4.531h20.662v20.002c0,5.523,4.477,10,10,10c5.522,0,10-4.477,10-10V95.237   c0-5.523-4.478-10-10-10h-30.688c-0.128-6.626-1.479-13.257-3.977-19.396c-0.021-0.049-0.037-0.099-0.057-0.147h64.265V492z" style="fill-rule:evenodd;clip-rule:evenodd;"/><path data-cppathid="10006" d="M256.001,376.329c53.752,0,97.482-43.731,97.482-97.483   c0-53.752-43.73-97.482-97.482-97.482s-97.482,43.73-97.482,97.482C158.518,332.598,202.249,376.329,256.001,376.329z    M256.001,201.364c42.724,0,77.482,34.758,77.482,77.482c0,42.725-34.759,77.483-77.482,77.483   c-42.724,0-77.482-34.759-77.482-77.483C178.518,236.122,213.276,201.364,256.001,201.364z" style="fill-rule:evenodd;clip-rule:evenodd;"/><path data-cppathid="10007" d="M235.671,320.435c1.953,1.953,4.512,2.929,7.071,2.929   s5.119-0.977,7.071-2.929l53.032-53.033c3.905-3.905,3.905-10.237,0-14.142c-3.906-3.904-10.236-3.905-14.143,0l-45.961,45.962   l-19.446-19.445c-3.905-3.904-10.237-3.905-14.142,0c-3.905,3.905-3.905,10.237,0.001,14.142L235.671,320.435z" style="fill-rule:evenodd;clip-rule:evenodd;"/><path data-cppathid="10008" d="M124.792,402.453c5.508,0,10-4.492,10-10c0-5.508-4.492-10-10-10   c-5.508,0-10,4.492-10,10C114.792,397.961,119.284,402.453,124.792,402.453z" style="fill-rule:evenodd;clip-rule:evenodd;"/><path data-cppathid="10009" d="M387.21,155.239c-5.508,0-10,4.492-10,10c0,5.508,4.492,10,10,10   c5.507,0,10-4.492,10-10C397.21,159.731,392.716,155.239,387.21,155.239z" style="fill-rule:evenodd;clip-rule:evenodd;"/></g></svg>