<?xml version="1.0" encoding="UTF-8"?>
<svg xmlns="http://www.w3.org/2000/svg" onmouseup="{ if(window.parent.document.onmouseup) window.parent.document.onmouseup(arguments[0]);}" width="512" viewBox="0 0 64 64" height="512"><g id="flat"><path data-cppathid="10000" fill="#e5e4d1" d="m57 61h-50a4 4 0 0 1 -4-4v-54h42l12 12z"/><path data-cppathid="10001" fill="#c6c3a7" d="m57 15h-12v-12z"/><path data-cppathid="10002" fill="#e5e4d1" d="m47 5h10v10z"/><path data-cppathid="10003" fill="#d3d1b6" d="m57 8h4a0 0 0 0 1 0 0v49a4 4 0 0 1 -4 4 0 0 0 0 1 0 0v-53a0 0 0 0 1 0 0z"/><g fill="#d75745"><path data-cppathid="10004" d="m13 14h-.307l-3-8h-3.693v10h2v-8h.307l3 8h3.693v-10h-2z"/><path data-cppathid="10005" d="m32 14h-.323l-1.748-4.371a1 1 0 0 0 -1.858 0l-1.748 4.371h-.323v-8h-2v9a1 1 0 0 0 1 1h2a1 1 0 0 0 .929-.629l1.071-2.679 1.071 2.679a1 1 0 0 0 .929.629h2a1 1 0 0 0 1-1v-9h-2z"/><path data-cppathid="10006" d="m17 16h5v-2h-3v-2h3v-2h-3v-2h3v-2h-5z"/><path data-cppathid="10007" d="m42 8v-2h-5a1 1 0 0 0 -1 1v4a1 1 0 0 0 1 1h3v2h-4v2h5a1 1 0 0 0 1-1v-4a1 1 0 0 0 -1-1h-3v-2z"/></g><path data-cppathid="10008" fill="#2d75bb" d="m6 18h48v2h-48z"/><path data-cppathid="10009" fill="#f9bb4b" d="m7 24h22v12h-22z"/><path data-cppathid="10010" fill="#394d5c" d="m6 43h14v2h-14z"/><path data-cppathid="10011" fill="#394d5c" d="m6 39h24v2h-24z"/><path data-cppathid="10012" fill="#394d5c" d="m6 47h22v2h-22z"/><path data-cppathid="10013" transform="matrix(-1 0 0 -1 92 88)" fill="#f9bb4b" d="m39 40h14v8h-14z"/><path data-cppathid="10014" transform="matrix(-1 0 0 -1 60 108)" fill="#2d75bb" d="m7 52h46v4h-46z"/><path data-cppathid="10015" fill="#f9bb4b" d="m33 24h20v4h-20z"/><path data-cppathid="10016" fill="#f9bb4b" d="m33 32h20v4h-20z"/><path data-cppathid="10017" fill="#394d5c" d="m32 39h4v2h-4z"/><path data-cppathid="10018" fill="#394d5c" d="m22 43h14v2h-14z"/><path data-cppathid="10019" fill="#394d5c" d="m30 47h6v2h-6z"/></g></svg>