<?xml version="1.0" encoding="UTF-8"?>
<svg xmlns="http://www.w3.org/2000/svg" onmouseup="{ if(window.parent.document.onmouseup) window.parent.document.onmouseup(arguments[0]);}" width="512" viewBox="0 0 128 128" height="512" enable-background="new 0 0 128 128" id="_x30_6_Website_1_"><g id="_x30_6_Website"><g><g><g><g><g><g><g><g><path data-cppathid="10000" fill="#a6e1fb" d="m1 25.4v89.1c0 4.3 3.4 7.7 7.7 7.7h110.6c4.2 0 7.7-3.5 7.7-7.7v-89.1z"/></g></g><g><g><path data-cppathid="10001" fill="#fff" d="m10.1 63.5h66v49.8h-66z"/></g></g><g><g><path data-cppathid="10002" fill="#ededed" d="m68.5 63.6h7.6v49.8h-7.6z"/></g></g><g><g><path data-cppathid="10003" fill="#fff" d="m117.9 38.8v12.6c0 1.7-1.4 3.1-3.1 3.1h-101.6c-1.7 0-3.1-1.4-3.1-3.1v-12.6c0-1.7 1.4-3.1 3.1-3.1h101.6c1.7 0 3.1 1.4 3.1 3.1z"/></g></g><g><g><path data-cppathid="10004" fill="#7bde9e" d="m30.1 35.7h-16.9c-1.7 0-3.1 1.4-3.1 3.1v12.6c0 1.7 1.4 3.1 3.1 3.1h16.9z"/></g></g><g><g><path data-cppathid="10005" fill="#a7e9bf" d="m20.1 54.4h-6.9c-1.7 0-3.1-1.4-3.1-3.1v-12.5c0-1.7 1.4-3.1 3.1-3.1h6.9c-1.7 0-3.1 1.4-3.1 3.1v12.6c0 1.6 1.4 3 3.1 3z"/></g></g><g><g><path data-cppathid="10006" fill="#ededed" d="m117.9 38.8v12.6c0 1.7-1.4 3.1-3.1 3.1h-6.9c1.7 0 3.1-1.4 3.1-3.1v-12.6c0-1.7-1.4-3.1-3.1-3.1h6.9c1.7 0 3.1 1.4 3.1 3.1z"/></g></g><g><g><path data-cppathid="10007" fill="#7ad1f9" d="m127 25.4v89.1c0 4.3-3.4 7.7-7.7 7.7h-7.2c4.3 0 7.7-3.5 7.7-7.7v-89.1z"/></g></g><g><g><path data-cppathid="10008" fill="#d3f0fd" d="m1 25.4v89.1c0 4.3 3.4 7.7 7.7 7.7h7.2c-4.3 0-7.7-3.5-7.7-7.7v-89.1z"/></g></g><g><g><path data-cppathid="10009" fill="#d3d9d9" d="m127 25.4v-12c0-4.3-3.5-7.7-7.7-7.7h-110.6c-4.2 0-7.7 3.5-7.7 7.7v12z"/></g></g><g><g><path data-cppathid="10010" fill="#ededed" d="m15.9 5.7c-4.3 0-7.7 3.4-7.7 7.7v12h-7.2v-12c0-4.3 3.4-7.7 7.7-7.7z"/></g></g><g><g><path data-cppathid="10011" fill="#a8b2b4" d="m127 13.4v12h-7.2v-12c0-4.3-3.5-7.7-7.7-7.7h7.2c4.3 0 7.7 3.5 7.7 7.7z"/></g></g><g><g><g><g><circle data-cppathid="10012" r="3.5" fill="#fc8a8a" cy="15.6" cx="12.7"/></g></g><g><g><circle data-cppathid="10013" r="3.5" fill="#fedd8e" cy="15.6" cx="25.1"/></g></g><g><g><circle data-cppathid="10014" r="3.5" fill="#7bde9e" cy="15.6" cx="37.6"/></g></g></g><g><g><g><path data-cppathid="10015" fill="#f96363" d="m16.1 15.6c0 1.9-1.6 3.5-3.5 3.5-1.5 0-2.8-1-3.3-2.3.4.1.8.2 1.2.2 1.9 0 3.5-1.6 3.5-3.5 0-.4-.1-.8-.2-1.2 1.4.5 2.3 1.8 2.3 3.3z"/></g></g><g><g><path data-cppathid="10016" fill="#fdd267" d="m28.6 15.6c0 1.9-1.6 3.5-3.5 3.5-1.5 0-2.8-1-3.3-2.3.4.1.8.2 1.2.2 1.9 0 3.5-1.6 3.5-3.5 0-.4-.1-.8-.2-1.2 1.3.5 2.3 1.8 2.3 3.3z"/></g></g><g><g><path data-cppathid="10017" fill="#50d27e" d="m41.1 15.6c0 1.9-1.6 3.5-3.5 3.5-1.5 0-2.8-1-3.3-2.3.4.1.8.2 1.2.2 1.9 0 3.5-1.6 3.5-3.5 0-.4-.1-.8-.2-1.2 1.3.5 2.3 1.8 2.3 3.3z"/></g></g></g><g><g><g><path data-cppathid="10018" fill="#fff" d="m118.8 15.6c0 1.9-1.6 3.5-3.5 3.5h-57.9c-1.9 0-3.5-1.6-3.5-3.5s1.6-3.5 3.5-3.5h57.9c2 0 3.5 1.5 3.5 3.5z"/></g></g></g><g><g><g><path data-cppathid="10019" fill="#ededed" d="m118.8 15.6c0 1.9-1.6 3.5-3.5 3.5h-57.9c-1.9 0-3.4-1.5-3.5-3.3.5.3 1.1.4 1.7.4h57.9c1.9 0 3.5-1.6 3.5-3.5v-.1c1.1.5 1.8 1.6 1.8 3z"/></g></g></g></g></g></g></g><g><g><path data-cppathid="10020" fill="#fff" d="m21.9 41.7c1.4 1.4 1.4 3.7 0 5.2-1.4 1.4-3.7 1.4-5.2 0-1.4-1.4-1.4-3.7 0-5.2 1.5-1.4 3.8-1.4 5.2 0z"/></g></g></g><g><g><path data-cppathid="10021" fill="#fc898c" d="m68.5 101.7-3.9 4.1-9.4-9.1-3.6 7.5-6.3-20.9 21.1 5.5-7.3 3.9z"/></g></g><g><g><path data-cppathid="10022" fill="#f96364" d="m68.5 101.7-3.9 4.1-3.4-3.3 3.9-4.1z"/></g></g><g><g><path data-cppathid="10023" fill="#fcb0b0" d="m63.3 90.5-14.7-3.9 4.4 14.7-1.4 2.9-6.3-20.9 21.1 5.5z"/></g></g></g><g><g><g><path data-cppathid="10024" fill="#fedd8e" d="m85.2 63.5h32.6v20.4h-32.6z"/></g></g><g><g><path data-cppathid="10025" fill="#fdd367" d="m110.3 63.5h7.6v20.4h-7.6z"/></g></g><g><g><path data-cppathid="10026" fill="#fee9b4" d="m85.2 63.5h7.6v20.4h-7.6z"/></g></g></g><g><g><g><path data-cppathid="10027" fill="#fedd8e" d="m85.2 93h32.6v20.4h-32.6z"/></g></g><g><g><path data-cppathid="10028" fill="#fdd367" d="m110.3 93h7.6v20.4h-7.6z"/></g></g><g><g><path data-cppathid="10029" fill="#fee9b4" d="m85.2 93h7.6v20.4h-7.6z"/></g></g><g fill="#333"><path data-cppathid="10030" d="m10.1 114.4h66c.6 0 1-.4 1-1v-49.9c0-.6-.4-1-1-1h-66c-.6 0-1 .4-1 1v49.8c0 .6.5 1.1 1 1.1zm1-49.9h64v47.8h-64z"/><path data-cppathid="10031" d="m115.3 11.1h-57.9c-2.5 0-4.5 2-4.5 4.5s2 4.5 4.5 4.5h57.9c2.5 0 4.5-2 4.5-4.5s-2-4.5-4.5-4.5zm0 7h-57.9c-1.4 0-2.5-1.1-2.5-2.5s1.1-2.5 2.5-2.5h57.9c1.4 0 2.5 1.1 2.5 2.5s-1.1 2.5-2.5 2.5z"/><path data-cppathid="10032" d="m12.7 11.1c-2.5 0-4.5 2-4.5 4.5s2 4.5 4.5 4.5 4.5-2 4.5-4.5-2.1-4.5-4.5-4.5zm0 7c-1.4 0-2.5-1.1-2.5-2.5s1.1-2.5 2.5-2.5 2.5 1.1 2.5 2.5-1.2 2.5-2.5 2.5z"/><path data-cppathid="10033" d="m25.1 11.1c-2.5 0-4.5 2-4.5 4.5s2 4.5 4.5 4.5 4.5-2 4.5-4.5-2-4.5-4.5-4.5zm0 7c-1.4 0-2.5-1.1-2.5-2.5s1.1-2.5 2.5-2.5 2.5 1.1 2.5 2.5-1.1 2.5-2.5 2.5z"/><path data-cppathid="10034" d="m37.6 11.1c-2.5 0-4.5 2-4.5 4.5s2 4.5 4.5 4.5 4.5-2 4.5-4.5-2-4.5-4.5-4.5zm0 7c-1.4 0-2.5-1.1-2.5-2.5s1.1-2.5 2.5-2.5 2.5 1.1 2.5 2.5-1.1 2.5-2.5 2.5z"/><path data-cppathid="10035" d="m128 13.4c0-4.8-3.9-8.7-8.7-8.7h-110.6c-4.8 0-8.7 3.9-8.7 8.7v101.2c0 4.8 3.9 8.7 8.7 8.7h110.6c4.8 0 8.7-3.9 8.7-8.7 0-4.9 0 3 0-101.2zm-126 0c0-3.7 3-6.7 6.7-6.7h110.6c3.7 0 6.7 3 6.7 6.7v11h-124zm124 101.2c0 3.7-3 6.7-6.7 6.7h-110.6c-3.7 0-6.7-3-6.7-6.7v-88.2h124z"/><path data-cppathid="10036" d="m13.2 55.4h101.6c2.2 0 4.1-1.8 4.1-4.1v-12.5c0-2.2-1.8-4.1-4.1-4.1h-101.6c-2.2 0-4.1 1.8-4.1 4.1v12.6c0 2.2 1.9 4 4.1 4zm103.7-16.6v12.6c0 1.1-.9 2.1-2.1 2.1h-83.7v-16.8h83.6c1.2 0 2.2.9 2.2 2.1zm-105.8 0c0-1.1.9-2.1 2.1-2.1h15.9v16.7h-15.9c-1.1 0-2.1-.9-2.1-2.1z"/><path data-cppathid="10037" d="m21.9 48.2 2.1 2.1c.4.4 1 .4 1.4 0s.4-1 0-1.4l-2.1-2.1c1.2-1.8.9-4.2-.6-5.8-1.8-1.8-4.8-1.8-6.6 0s-1.8 4.8 0 6.6c1.5 1.5 3.9 1.8 5.8.6zm-4.4-5.8c1-1 2.7-1 3.7 0s1 2.7 0 3.7-2.7 1-3.7 0-1-2.7 0-3.7z"/><path data-cppathid="10038" d="m60.8 92.9 6.1-3.2c.8-.4.7-1.6-.2-1.9l-21.2-5.5c-.3-.1-.7 0-1 .3s-.3.6-.2 1l6.4 20.9c.3.9 1.5 1 1.9.1l2.9-6.2 8.4 8c.4.4 1 .4 1.4 0l3.9-4.1c.4-.4.4-1 0-1.4zm3.7 11.4-8.6-8.3c-.5-.5-1.3-.3-1.6.3l-2.4 5.2-5.1-16.8 16.9 4.4-5.1 2.6c-.6.3-.7 1.1-.2 1.6l8.7 8.3z"/><path data-cppathid="10039" d="m117.9 62.5h-32.7c-.6 0-1 .4-1 1v20.4c0 .6.4 1 1 1h32.6c.6 0 1-.4 1-1v-20.4c.1-.5-.4-1-.9-1zm-1 20.4h-30.7v-18.4h30.6v18.4z"/><path data-cppathid="10040" d="m117.9 92h-32.7c-.6 0-1 .4-1 1v20.4c0 .6.4 1 1 1h32.6c.6 0 1-.4 1-1v-20.4c.1-.5-.4-1-.9-1zm-1 20.4h-30.7v-18.4h30.6v18.4z"/></g></g></g></g></svg>