<?xml version="1.0" encoding="UTF-8"?>
<svg xmlns="http://www.w3.org/2000/svg" onmouseup="{ if(window.parent.document.onmouseup) window.parent.document.onmouseup(arguments[0]);}" viewBox="0 0 64 64" height="512" width="512" id="artwork"><path data-cppathid="10000" d="M60,30.5H38.708a1.5,1.5,0,0,0,0,3H60a.50065.50065,0,0,1,.5.5V60a.50065.50065,0,0,1-.5.5H57.501V59.228a10.76458,10.76458,0,0,0-5.66577-9.50421,7.50028,7.50028,0,1,0-9.67719-.00617A10.785,10.785,0,0,0,36.5,59.228V60.5h-3V38a1.5,1.5,0,0,0-3,0V60.5h-3V59.228a10.76447,10.76447,0,0,0-5.66516-9.50391,7.50025,7.50025,0,1,0-9.67706-.00665A10.78452,10.78452,0,0,0,6.499,59.228V60.5H4a.50065.50065,0,0,1-.5-.5V34a.50065.50065,0,0,1,.5-.5H25.292a1.5,1.5,0,0,0,0-3H4A3.50424,3.50424,0,0,0,.5,34V60A3.50424,3.50424,0,0,0,4,63.5H60A3.50424,3.50424,0,0,0,63.5,60V34A3.50424,3.50424,0,0,0,60,30.5Zm-43,9A4.49976,4.49976,0,1,1,12.5,44,4.50491,4.50491,0,0,1,17,39.5Zm7.5,21H9.499V59.228a7.63692,7.63692,0,0,1,7.457-7.72852l.00007-.0022c.01477.00007.02905.0022.04388.0022.02057,0,.04034-.00293.06085-.00311.01117.00037.02173.00348.0329.0036A7.62729,7.62729,0,0,1,24.5,59.228ZM47,39.5A4.49976,4.49976,0,1,1,42.5,44,4.50491,4.50491,0,0,1,47,39.5Zm7.501,21H39.5V59.228a7.63692,7.63692,0,0,1,7.457-7.72852l.00006-.0022c.01447.00007.02844.0022.04291.0022.02057,0,.04034-.00293.06085-.00311.01117.00037.02173.00348.0329.0036A7.62746,7.62746,0,0,1,54.501,59.228Z"/><path data-cppathid="10001" style="fill:#3e3ef4" d="M45,.5H19A3.50424,3.50424,0,0,0,15.5,4V24A3.50424,3.50424,0,0,0,19,27.5h9.07324l2.585,5.1709a1.50141,1.50141,0,0,0,2.6836,0l2.585-5.1709H45A3.50424,3.50424,0,0,0,48.5,24V4A3.50424,3.50424,0,0,0,45,.5ZM40.24707,9.16064l-9.7998,9.79981a1.49955,1.49955,0,0,1-2.24415-.13965l-4.57324-5.87988a1.49965,1.49965,0,1,1,2.36719-1.8418l3.53027,4.53858L38.126,7.03955a1.49984,1.49984,0,1,1,2.12109,2.12109Z"/></svg>