<?xml version="1.0" encoding="UTF-8"?>
<svg xmlns="http://www.w3.org/2000/svg" onmouseup="{ if(window.parent.document.onmouseup) window.parent.document.onmouseup(arguments[0]);}" width="512" viewBox="0 0 64 64" height="512" id="line"><path data-cppathid="10000" fill="#c4a2fc" d="m36.74414 43.54a.99852.99852 0 0 1 -1.39453-.019l-8.22852-8.228-2.82809 2.82809 11.6694 11.66944 19.687-18.65088-2.75048-2.90381z"/><path data-cppathid="10001" fill="#c4a2fc" d="m58 15h-36a5.00588 5.00588 0 0 0 -5 5v36a5.00588 5.00588 0 0 0 5 5h36a5.00588 5.00588 0 0 0 5-5v-36a5.00588 5.00588 0 0 0 -5-5zm-.249 16.90381-21.11965 20.0083a1.00026 1.00026 0 0 1 -1.395-.019l-13.06447-13.06498a.99964.99964 0 0 1 0-1.41407l4.24218-4.24218a.99964.99964 0 0 1 1.41407 0l8.24755 8.24658 16.17383-15.32227a.99686.99686 0 0 1 1.41358.03858l4.126 4.35546a.99985.99985 0 0 1 -.03809 1.41358z"/><g fill="#151a6a"><path data-cppathid="10002" d="m38.70673 10.29266-6.99939-6.99939a1.014 1.014 0 0 0 -.70734-.29327h-27a3.00328 3.00328 0 0 0 -3 3v44a3.00328 3.00328 0 0 0 3 3h32a3.00328 3.00328 0 0 0 3-3v-39a1.01394 1.01394 0 0 0 -.29327-.70734zm-6.70673-3.8786 3.58594 3.58594h-3.58594zm5 43.58594a1.0013 1.0013 0 0 1 -1 1h-32a1.0013 1.0013 0 0 1 -1-1v-44a1.0013 1.0013 0 0 1 1-1h26v6a1 1 0 0 0 1 1h6z"/><path data-cppathid="10003" d="m10 28h20a1 1 0 0 0 1-1 10.01663 10.01663 0 0 0 -7.00122-9.53931 6 6 0 1 0 -7.99756 0 10.01663 10.01663 0 0 0 -7.00122 9.53931 1 1 0 0 0 1 1zm6-15a4 4 0 1 1 4 4 4.00458 4.00458 0 0 1 -4-4zm3 6h2a8.01291 8.01291 0 0 1 7.938 7h-17.876a8.01291 8.01291 0 0 1 7.938-7z"/><path data-cppathid="10004" d="m7 38h18a1 1 0 0 0 0-2h-18a1 1 0 0 0 0 2z"/><path data-cppathid="10005" d="m25 46h-18a1 1 0 0 0 0 2h18a1 1 0 0 0 0-2z"/><path data-cppathid="10006" d="m6 32a1 1 0 0 0 1 1h26a1 1 0 0 0 0-2h-26a1 1 0 0 0 -1 1z"/><path data-cppathid="10007" d="m33 41h-26a1 1 0 0 0 0 2h26a1 1 0 0 0 0-2z"/></g></svg>