<?xml version="1.0" encoding="UTF-8"?>
<svg xmlns="http://www.w3.org/2000/svg" onmouseup="{ if(window.parent.document.onmouseup) window.parent.document.onmouseup(arguments[0]);}" width="512" viewBox="0 0 64 64" height="512" enable-background="new 0 0 64 64" id="Layer_5"><g><g><g><path d="m4 14h52v38h-52z" fill="#e6e9ed"/></g><g><path d="m61.06 54.65c.57.21.94.75.94 1.35s-.37 1.14-.94 1.35l-7.06 2.65v-4-4l2 .75z" fill="#aab2bd"/></g><g><path d="m54 56v4h-26v-.07c0-1.38-.26-2.7-.73-3.93z" fill="#fcd770"/></g><g><path d="m54 52v4h-26.73c-.43-1.08-1.01-2.08-1.74-2.97-.3-.36-.62-.71-.96-1.03h7.43 4 4 4 4 4z" fill="#4fc1e9"/></g><g><path d="m48 40h4v12h-4z" fill="#5cd6b3"/></g><g><path d="m40 44h4v8h-4z" fill="#5cd6b3"/></g><g><path d="m32 46h4v6h-4z" fill="#5cd6b3"/></g><g><path d="m6 6c-1.1 0-2 .9-2 2v6h30.14c.45-3.11 1.92-5.9 4.06-8z" fill="#5cd6b3"/></g><g><path d="m24 10h4v4h-4z" fill="#ffeaa7"/></g><g><path d="m16 10h4v4h-4z" fill="#ffeaa7"/></g><g><path d="m8 10h4v4h-4z" fill="#ffeaa7"/></g><g><path d="m22 62h-14-6v-2.07c0-3.83 1.99-7.26 5.08-9.21.93-.59 1.97-1.04 3.07-1.32l1.1 2.71c.45 1.14 1.55 1.89 2.78 1.89h1.94c1.23 0 2.33-.75 2.78-1.89l1.1-2.71c1.1.28 2.14.73 3.07 1.32.59.37 1.15.8 1.65 1.28.34.32.66.67.96 1.03.73.89 1.31 1.89 1.74 2.97.47 1.23.73 2.55.73 3.93v.07 2z" fill="#ef7385"/></g><g><path d="m22 34.64v4.36c0 1.94-.78 3.68-2.05 4.95-.77.77-1.72 1.37-2.79 1.71-.68.22-1.4.34-2.16.34s-1.48-.12-2.16-.34c-2.81-.91-4.84-3.55-4.84-6.66v-4.76c0-.76.43-1.45 1.11-1.79l3.71-1.87c.66.51 1.44.87 2.28 1.04l5.29 1.06c.94.19 1.61 1.01 1.61 1.96z" fill="#f0d0b4"/></g><g><path d="m19.85 49.39v.01l-1.1 2.71c-.45 1.14-1.55 1.89-2.78 1.89h-1.94c-1.23 0-2.33-.75-2.78-1.89l-1.1-2.71v-.01c.2-.05.4-.1.61-.14.76-.15 1.36-.73 1.55-1.48l.53-2.11c.68.22 1.4.34 2.16.34s1.48-.12 2.16-.34l.53 2.11c.19.75.79 1.33 1.55 1.48.21.04.41.09.61.14z" fill="#f0d0b4"/></g><g><path d="m12.82 30.58-3.71 1.87c-.68.34-1.11 1.03-1.11 1.79v4.76c0 3.11 2.03 5.75 4.84 6.66l-.53 2.11c-.19.75-.79 1.33-1.55 1.48-.21.04-.41.09-.61.14v.01c-1.1.28-2.14.73-3.07 1.32l-.01-.01c-2.13-.78-3.89-2.35-4.91-4.4l-.16-.31c1.28-1.28 2-3.02 2-4.83v-3.18-4.99c0-3.04 1.23-5.79 3.22-7.78s4.74-3.22 7.78-3.22c6.08 0 11 4.92 11 11v8.17c0 1.81.72 3.55 2 4.83l-.16.31c-1.02 2.05-2.78 3.62-4.91 4.4l-.01.01c-.93-.59-1.97-1.04-3.07-1.32v-.01c-.2-.05-.4-.1-.61-.14-.76-.15-1.36-.73-1.55-1.48l-.53-2.11c1.07-.34 2.02-.94 2.79-1.71 1.27-1.27 2.05-3.01 2.05-4.95v-4.36c0-.95-.67-1.77-1.61-1.96l-5.29-1.06c-.84-.17-1.62-.53-2.28-1.04z" fill="#fcd770"/></g><g><path d="m56 27.49c-2.27 1.58-5.03 2.51-8 2.51-7.73 0-14-6.27-14-14 0-.68.05-1.35.14-2 .45-3.11 1.92-5.9 4.06-8 2.53-2.47 5.99-4 9.8-4 7.73 0 14 6.27 14 14 0 4.75-2.37 8.96-6 11.49z" fill="#ffc729"/></g><g><circle cx="48" cy="16" fill="#fcd770" r="10"/></g></g><g><circle cx="12" cy="36" r="1"/><circle cx="18" cy="36" r="1"/><path d="m17 39.764c-.381.762-1.147 1.236-2 1.236s-1.619-.474-2-1.236l-.105-.211-1.789.895.105.211c.722 1.444 2.174 2.341 3.789 2.341s3.067-.897 3.789-2.342l.105-.211-1.789-.895z"/><path d="m61.415 53.712-4.415-1.655v-24.086c3.635-2.74 6-7.079 6-11.971 0-8.271-6.729-15-15-15-3.923 0-7.488 1.526-10.163 4h-31.837c-1.654 0-3 1.346-3 3v25 4.987 3.185c0 1.557-.606 3.021-1.707 4.121l-.51.51.479.957c.877 1.753 2.233 3.181 3.898 4.149-2.564 2.205-4.16 5.465-4.16 9.024v3.067h28v-2h25.181l7.234-2.713c.948-.356 1.585-1.275 1.585-2.287s-.637-1.931-1.585-2.288zm-26.415-2.712h-2v-4h2zm2 2h2 6 2 6v2h-25.08c-.324-.706-.719-1.373-1.17-2h4.25zm6-2h-2v-6h2zm8 0h-2v-10h2zm-22.375 6h24.375v2h-24.041c-.054-.683-.167-1.351-.334-2zm19.375-54c7.168 0 13 5.832 13 13s-5.832 13-13 13-13-5.832-13-13 5.832-13 13-13zm-42 4h30.029c-1.317 1.747-2.274 3.78-2.726 6h-4.303v-4h-6v4h-2v-4h-6v4h-2v-4h-6v4h-2v-5c0-.551.449-1 1-1zm21 6h-2v-2h2zm-8 0h-2v-2h2zm-8 0h-2v-2h2zm-6 2h28.051c-.022.332-.051.662-.051 1 0 8.271 6.729 15 15 15 2.528 0 4.908-.635 7-1.744v22.051l-.819-.307h-1.181v-12h-6v12h-2v-8h-6v8h-2v-6h-6v6h-6.055c-.035-.031-.07-.061-.105-.091 1.666-.969 3.022-2.397 3.898-4.149l.479-.957-.51-.51c-1.101-1.101-1.707-2.564-1.707-4.121v-8.172c0-6.617-5.383-12-12-12-4.171 0-7.849 2.142-10 5.381zm-1.794 31.16c1.162-1.4 1.794-3.145 1.794-4.988v-3.185-4.987c0-5.514 4.486-10 10-10s10 4.486 10 10v8.172c0 1.843.632 3.588 1.794 4.988-.855 1.546-2.19 2.747-3.81 3.446-1.083-.62-2.273-1.084-3.547-1.339-.377-.075-.681-.365-.774-.737l-.318-1.273c2.743-1.269 4.655-4.041 4.655-7.257v-4.36c0-1.425-1.014-2.663-2.412-2.942l-5.292-1.058c-1.562-.313-2.845-1.445-3.348-2.956l-1.897.632c.245.735.617 1.409 1.089 1.996l-2.482 1.241c-1.023.511-1.658 1.54-1.658 2.683v4.764c0 3.216 1.912 5.988 4.655 7.257l-.318 1.272c-.093.373-.397.663-.774.738-1.275.255-2.464.719-3.547 1.338-1.62-.697-2.955-1.898-3.81-3.445zm11.794-1.16c-3.309 0-6-2.691-6-6v-4.764c0-.381.212-.724.553-.895l3.197-1.599c.651.408 1.38.703 2.155.857l5.291 1.059c.466.094.804.506.804.982v4.36c0 3.309-2.691 6-6 6zm-1.723 3.015.288-1.151c.466.085.944.136 1.435.136s.969-.051 1.435-.136l.288 1.152c.233.931.907 1.683 1.778 2.041l-.674 1.686c-.306.764-1.035 1.257-1.858 1.257h-1.938c-.823 0-1.552-.493-1.857-1.257l-.674-1.686c.87-.359 1.544-1.111 1.777-2.042zm13.723 12.985h-4v-4h-2v4h-12v-4h-2v4h-4v-1.067c0-4.215 2.693-7.924 6.571-9.312l.746 1.865c.611 1.527 2.069 2.514 3.714 2.514h1.938c1.645 0 3.103-.987 3.714-2.515l.746-1.864c3.878 1.388 6.571 5.097 6.571 9.312zm33.712-4.585-5.712 2.142v-5.114l5.711 2.141c.173.065.289.232.289.416s-.116.351-.288.415z"/><path d="m48 27c6.065 0 11-4.935 11-11s-4.935-11-11-11-11 4.935-11 11 4.935 11 11 11zm0-20c4.962 0 9 4.038 9 9s-4.038 9-9 9-9-4.038-9-9 4.038-9 9-9z"/><path d="m49 19h-2c-.551 0-1-.449-1-1h-2c0 1.654 1.346 3 3 3v2h2v-2c1.654 0 3-1.346 3-3s-1.346-3-3-3h-2c-.551 0-1-.449-1-1s.449-1 1-1h2c.551 0 1 .449 1 1h2c0-1.654-1.346-3-3-3v-2h-2v2c-1.654 0-3 1.346-3 3s1.346 3 3 3h2c.551 0 1 .449 1 1s-.449 1-1 1z"/><path d="m7 17h2v2h-2z"/><path d="m11 17h20v2h-20z"/><path d="m29 31h10v2h-10z"/><path d="m29 35h10v2h-10z"/><path d="m29 39h10v2h-10z"/></g></g></svg>