<?xml version="1.0" encoding="UTF-8"?>
<svg xmlns="http://www.w3.org/2000/svg" onmouseup="{ if(window.parent.document.onmouseup) window.parent.document.onmouseup(arguments[0]);}" data-name="2 Filled Expand" width="512" viewBox="0 0 64 64" height="512" id="_2_Filled_Expand"><path d="m4 56h56v4h-56z" fill="#7dc834"/><path d="m28 4h30v52h-30z" fill="#eff3f3"/><path d="m6 16h22v40h-22z" fill="#e1e6e6"/><path d="m32 8h22v6h-22z" fill="#5783e4"/><path d="m32 14h22v6h-22z" fill="#5783e4"/><path d="m32 20h22v6h-22z" fill="#5783e4"/><path d="m10 26h18v6h-18z" fill="#5783e4"/><path d="m10 32h18v6h-18z" fill="#5783e4"/><path d="m10 38h18v6h-18z" fill="#5783e4"/><path d="m10 44h18v6h-18z" fill="#5783e4"/><path d="m10 50h18v6h-18z" fill="#5783e4"/><path d="m32 26h22v6h-22z" fill="#5783e4"/><path d="m32 32h22v6h-22z" fill="#5783e4"/><path d="m32 38h22v6h-22z" fill="#5783e4"/><path d="m43 44h11v12h-11z" fill="#5783e4"/><path d="m32 44h11v12h-11z" fill="#5783e4"/><path d="m10 20h18v6h-18z" fill="#5783e4"/><g fill="#6e9bfa"><path d="m12 38h-2v2z"/><path d="m28 52-4 4h4z"/><path d="m48 20h-6l6-6h6z"/><path d="m42 26h-6l6-6h6z"/><path d="m36 32h-4v-2l4-4h6z"/><path d="m54 14h-6l6-6z"/><path d="m32 32h4l-4 4z"/><path d="m48 38h-6l6-6h6z"/><path d="m42 44h-6l6-6h6z"/><path d="m32 54v-6l4-4h6z"/><path d="m36 8-4 4v2h4l6-6z"/><path d="m32 18 4-4h-4z"/><path d="m18 50h-6l6-6h6z"/><path d="m28 20h-4l-5 5h6l3-3z"/><path d="m18 32h-6l6-6h6z"/><path d="m12 32-2 2v3h3l5-5z"/><path d="m10 50v6h2l6-6z"/><path d="m28 38h-4l-6 6h6l4-4z"/><path d="m24 38h4v-4z"/></g><path d="m60 55h-1v-51a1 1 0 0 0 -1-1h-30a1 1 0 0 0 -1 1v11h-21a1 1 0 0 0 -1 1v39h-1a1 1 0 0 0 -1 1v4a1 1 0 0 0 1 1h56a1 1 0 0 0 1-1v-4a1 1 0 0 0 -1-1zm-31-50h28v50h-2v-47a1 1 0 0 0 -1-1h-22a1 1 0 0 0 -1 1v47h-2zm4 50v-10h9v10zm0-12v-4h20v4zm0-10h20v4h-20zm0-6h20v4h-20zm0-6h20v4h-20zm20-2h-20v-4h20zm0-6h-20v-4h20zm-9 32h9v10h-9zm-33 10v-4h16v4zm0-16h16v4h-16zm0-6h16v4h-16zm16-2h-16v-4h16zm-16 14h16v4h-16zm16-20h-16v-4h16zm-20-8h20v2h-17a1 1 0 0 0 -1 1v35h-2zm52 42h-54v-2h54z"/></svg>