<?xml version="1.0" encoding="UTF-8"?>
<svg xmlns="http://www.w3.org/2000/svg" onmouseup="{ if(window.parent.document.onmouseup) window.parent.document.onmouseup(arguments[0]);}" width="512" viewBox="0 0 512 512" height="512" enable-background="new 0 0 512 512" id="Layer_1"><g><g><g><g id="XMLID_1141_"><g id="XMLID_1142_"><g id="XMLID_1143_"><g id="XMLID_1144_"><g id="XMLID_1145_"><g id="XMLID_1146_"><g id="XMLID_1147_"><g id="XMLID_1148_"><g id="XMLID_1149_"><g id="XMLID_1150_"><g id="XMLID_1151_"><g id="XMLID_1152_"><g id="XMLID_1153_"><g id="XMLID_1154_"><g id="XMLID_1155_"><circle data-cppathid="10000" r="256" fill="#d60541" cy="256" cx="256"/></g></g></g></g></g></g></g></g></g></g></g></g></g></g></g></g></g><path data-cppathid="10001" fill="#a3003f" d="m127.864 392.451 119.384 119.384c2.907.098 5.822.165 8.752.165 141.385 0 256-114.615 256-256 0-2.93-.067-5.845-.165-8.751l-119.384-119.385z"/><g><circle data-cppathid="10002" r="156.195" fill="#fff" cy="256" cx="256"/><path data-cppathid="10003" fill="#eaeaea" d="m412.19 256c0 86.26-69.93 156.19-156.19 156.19v-312.38c86.26 0 156.19 69.93 156.19 156.19z"/><path data-cppathid="10004" fill="#ffb83b" d="m256 91.218v164.782h162.179s5.912-152.107-162.179-164.782z"/><g><g><path data-cppathid="10005" fill="#7dd3f2" d="m256 443.281c-103.268 0-187.281-84.014-187.281-187.281s84.013-187.281 187.281-187.281 187.281 84.013 187.281 187.281-84.013 187.281-187.281 187.281zm0-329.562c-78.454 0-142.281 63.827-142.281 142.281s63.827 142.281 142.281 142.281 142.281-63.827 142.281-142.281-63.827-142.281-142.281-142.281z"/></g></g><g><g><path data-cppathid="10006" fill="#4caed8" d="m256 68.72v45c78.45 0 142.28 63.83 142.28 142.28s-63.83 142.28-142.28 142.28v45c103.27 0 187.28-84.01 187.28-187.28s-84.01-187.28-187.28-187.28z"/></g></g><g><path data-cppathid="10007" fill="#4f4f4f" d="m332.866 278.5h-99.366v-112.954h45v67.954h54.366z"/></g><g><path data-cppathid="10008" fill="#3a3a3a" d="m332.87 233.5v45h-76.87v-112.95h22.5v67.95z"/></g></g></g></svg>