<?xml version="1.0" encoding="UTF-8"?>
<svg xmlns="http://www.w3.org/2000/svg" onmouseup="{ if(window.parent.document.onmouseup) window.parent.document.onmouseup(arguments[0]);}" width="467pt" viewBox="0 -21 467.52 467" height="467pt"><g fill="#fedb41"><path d="m375.011719 206.460938h63.21875v212.777343h-63.21875zm0 0"/><path d="m260.078125 245.21875h63.222656v174.019531h-63.222656zm0 0"/><path d="m199.988281.261719c37.261719 0 67.464844 30.207031 67.460938 67.46875-.003907 37.257812-30.210938 67.460937-67.46875 67.460937-37.261719-.003906-67.464844-30.210937-67.460938-67.472656 0-37.261719 30.207031-67.464844 67.46875-67.457031zm0 0"/><path d="m145.148438 317.421875h63.222656v101.816406h-63.222656zm0 0"/></g><path d="m105.96875 213.578125-.339844 11.441406h-75.179687v6.601563c.078125 8.402344-6.578125 15.324218-14.980469 15.570312h-.160156c-8.367188 0-15.15625-6.78125-15.160156-15.152344v-84.429687c-.0976568-.957031-.148438-1.917969-.148438-2.878906.00390625-15.765625 12.785156-28.542969 28.550781-28.539063h15.339844l24.339844 23.667969 25.21875-23.667969h14.472656c.957031 0 1.914063.046875 2.867187.148438 15.679688 1.589844 27.101563 15.589844 25.511719 31.269531v84.421875c0 8.375-6.789062 15.164062-15.164062 15.164062-8.378907 0-15.167969-6.789062-15.167969-15.164062zm0 0" fill="#00acea"/><path d="m68.300781 375.570312c.007813 8.960938-7.167969 16.277344-16.128906 16.4375-8.964844.164063-16.398437-6.890624-16.710937-15.847656l-4.492188-151.140625h74.660156l-4.488281 151.140625c-.3125 8.957032-7.75 16.011719-16.710937 15.847656-8.960938-.160156-16.140626-7.476562-16.128907-16.4375zm0 0" fill="#00efd1"/><path d="m94.730469 65.710938v10.988281c.003906 15.167969-12.292969 27.46875-27.460938 27.472656h-.007812c-15.167969-.007813-27.460938-12.304687-27.460938-27.472656v-10.988281c0-15.167969 12.292969-27.464844 27.460938-27.472657h.007812c15.167969.003907 27.464844 12.304688 27.460938 27.472657zm0 0" fill="#00acea"/><path d="m232.3125 182.148438c1.804688.003906 3.542969-.695313 4.84375-1.945313l52.277344-50.144531 54.183594 42.679687c2.527343 1.992188 6.085937 2.003907 8.628906.03125l76.457031-59.417969-2.730469 35.5625c-.296875 3.855469 2.585938 7.21875 6.441406 7.515626.183594.015624.363282.023437.542969.023437 3.65625-.003906 6.695313-2.820313 6.972657-6.464844l3.949218-51.402343c.144532-1.855469-.460937-3.695313-1.675781-5.105469-1.21875-1.410157-2.945313-2.28125-4.804687-2.414063l-55.351563-3.949218c-3.855469-.273438-7.207031 2.628906-7.480469 6.484374-.277344 3.855469 2.625 7.207032 6.480469 7.484376l37.214844 2.652343-70.28125 54.613281-54.667969-43.0625c-2.742188-2.160156-6.660156-1.96875-9.179688.445313l-56.667968 54.359375c-2.0625 1.980469-2.714844 5.011719-1.648438 7.664062 1.066406 2.652344 3.636719 4.390626 6.496094 4.390626zm0 0" fill="#00acea"/><path d="m460.519531 411.75h-445.910156c-3.867187 0-7 3.132812-7 7s3.132813 7 7 7h445.910156c3.867188 0 7-3.132812 7-7s-3.132812-7-7-7zm0 0" fill="#00acea"/><path d="m223.839844 46.75h-7.027344c-.574219-2.066406-1.339844-4.074219-2.289062-6h9.316406c3.867187 0 7-3.132812 7-7s-3.132813-7-7-7h-45.960938c-3.863281 0-7 3.132812-7 7s3.136719 7 7 7h13.152344c4.375-.132812 8.464844 2.179688 10.609375 6h-23.761719c-3.863281 0-7 3.132812-7 7s3.136719 7 7 7h23.769532c-.46875 0-1.011719 1.515625-1.628907 2.128906-2.363281 2.433594-5.597656 3.824219-8.988281 3.871094h-13.152344c-2.832031-.117188-5.433594 1.550781-6.507812 4.171875-1.074219 2.621094-.394532 5.636719 1.703125 7.542969l32.871093 30.984375c2.828126 2.632812 7.25 2.488281 9.898438-.328125 2.652344-2.8125 2.527344-7.242188-.28125-9.898438l-20.402344-19.28125c5.585938-.824218 10.761719-3.417968 14.761719-7.402344 3.210937-3.320312 5.578125-7.363281 6.898437-11.789062h7.019532c3.867187 0 7-3.132812 7-7s-3.132813-7-7-7zm0 0" fill="#00acea"/></svg>