<?xml version="1.0" encoding="UTF-8"?>
<svg xmlns="http://www.w3.org/2000/svg" onmouseup="{ if(window.parent.document.onmouseup) window.parent.document.onmouseup(arguments[0]);}" width="512" viewBox="0 0 60 60" height="512" id="icons"><rect fill="#5fc77d" height="34" rx="1" width="58" x="1" y="25"/><path d="m46.73 29h1.35a.991.991 0 0 1 .98.86 5.956 5.956 0 0 0 1.47 3.14 6.017 6.017 0 0 0 3.61 1.94 1 1 0 0 1 .86.98v12.16a1 1 0 0 1 -.86.98 6.017 6.017 0 0 0 -3.61 1.94 5.956 5.956 0 0 0 -1.47 3.14.991.991 0 0 1 -.98.86h-36.16a.991.991 0 0 1 -.98-.86 5.956 5.956 0 0 0 -1.47-3.14 6.017 6.017 0 0 0 -3.61-1.94 1 1 0 0 1 -.86-.98v-12.16a.991.991 0 0 1 .86-.98 5.956 5.956 0 0 0 3.14-1.47 6.017 6.017 0 0 0 1.94-3.61 1 1 0 0 1 .98-.86z" fill="#6de08e"/><g fill="#5fc77d"><circle cx="12" cy="42" r="3"/><circle cx="48" cy="42" r="3"/><path d="m37.7 37.36a8.852 8.852 0 0 1 1.3 4.64 9 9 0 0 1 -18 0 8.852 8.852 0 0 1 1.3-4.64z"/></g><circle cx="30" cy="20" fill="#cd4c60" r="19"/><circle cx="30" cy="20" fill="#e1efff" r="14"/><circle cx="30" cy="20" fill="#cd4c60" r="9"/><circle cx="30" cy="20" fill="#e1efff" r="4"/><path d="m30 21a1 1 0 0 1 -.707-1.707l19-19a1 1 0 0 1 1.414 1.414l-19 19a1 1 0 0 1 -.707.293z" fill="#c7af3e"/></svg>