<?xml version="1.0" encoding="UTF-8"?>
<svg xmlns="http://www.w3.org/2000/svg" onmouseup="{ if(window.parent.document.onmouseup) window.parent.document.onmouseup(arguments[0]);}" width="512" viewBox="0 0 60 60" height="512" id="icons"><rect data-cppathid="10000" y="25" x="1" width="58" rx="1" height="34" fill="#5fc77d"/><path data-cppathid="10001" fill="#6de08e" d="m46.73 29h1.35a.991.991 0 0 1 .98.86 5.956 5.956 0 0 0 1.47 3.14 6.017 6.017 0 0 0 3.61 1.94 1 1 0 0 1 .86.98v12.16a1 1 0 0 1 -.86.98 6.017 6.017 0 0 0 -3.61 1.94 5.956 5.956 0 0 0 -1.47 3.14.991.991 0 0 1 -.98.86h-36.16a.991.991 0 0 1 -.98-.86 5.956 5.956 0 0 0 -1.47-3.14 6.017 6.017 0 0 0 -3.61-1.94 1 1 0 0 1 -.86-.98v-12.16a.991.991 0 0 1 .86-.98 5.956 5.956 0 0 0 3.14-1.47 6.017 6.017 0 0 0 1.94-3.61 1 1 0 0 1 .98-.86z"/><g fill="#5fc77d"><circle data-cppathid="10002" r="3" cy="42" cx="12"/><circle data-cppathid="10003" r="3" cy="42" cx="48"/><path data-cppathid="10004" d="m37.7 37.36a8.852 8.852 0 0 1 1.3 4.64 9 9 0 0 1 -18 0 8.852 8.852 0 0 1 1.3-4.64z"/></g><circle data-cppathid="10005" r="19" fill="#cd4c60" cy="20" cx="30"/><circle data-cppathid="10006" r="14" fill="#e1efff" cy="20" cx="30"/><circle data-cppathid="10007" r="9" fill="#cd4c60" cy="20" cx="30"/><circle data-cppathid="10008" r="4" fill="#e1efff" cy="20" cx="30"/><path data-cppathid="10009" fill="#c7af3e" d="m30 21a1 1 0 0 1 -.707-1.707l19-19a1 1 0 0 1 1.414 1.414l-19 19a1 1 0 0 1 -.707.293z"/></svg>