<?xml version="1.0" encoding="UTF-8"?>
<svg xmlns="http://www.w3.org/2000/svg" onmouseup="{ if(window.parent.document.onmouseup) window.parent.document.onmouseup(arguments[0]);}" width="512" viewBox="0 0 64 64" height="512" enable-background="new 0 0 64 64" id="Layer_35"><path data-cppathid="10000" fill="#fcd770" d="m7 34v4h-1c-2.21 0-4-1.79-4-4v-10c0-5.52 4.48-10 10-10h1 1c1.53 0 2.98.34 4.28.96-2.06 2.81-3.28 6.28-3.28 10.04 0 3.31.94 6.39 2.58 9h-4.58z"/><path data-cppathid="10001" fill="#b4dd7f" d="m57 34h-6-4l-.46-.19c1.56-2.56 2.46-5.58 2.46-8.81 0-3.76-1.22-7.23-3.28-10.04 1.3-.62 2.75-.96 4.28-.96h1 1c5.52 0 10 4.48 10 10v10c0 2.21-1.79 4-4 4h-1z"/><circle data-cppathid="10002" r="6" fill="#f0d0b4" cy="8" cx="13"/><circle data-cppathid="10003" r="6" fill="#f0d0b4" cy="8" cx="51"/><g fill="#838f9b"><path data-cppathid="10004" d="m19.06 36.02-.06.05v22.93c0 1.66-1.34 3-3 3-.83 0-1.58-.34-2.12-.88s-.88-1.29-.88-2.12v-25h4.58c.44.71.94 1.39 1.48 2.02z"/><path data-cppathid="10005" d="m13 34v25c0 1.66-1.34 3-3 3-.83 0-1.58-.34-2.12-.88s-.88-1.29-.88-2.12v-21-4z"/><path data-cppathid="10006" d="m51 34v25c0 1.66-1.34 3-3 3-.83 0-1.58-.34-2.12-.88s-.88-1.29-.88-2.12v-23.05c.57-.67 1.08-1.38 1.54-2.14l.46.19z"/><path data-cppathid="10007" d="m57 38v21c0 1.66-1.34 3-3 3-.83 0-1.58-.34-2.12-.88s-.88-1.29-.88-2.12v-25h6z"/></g><path data-cppathid="10008" fill="#e6e9ed" d="m45 35.95c-2.71 3.22-6.6 5.42-11 5.93-.65.08-1.32.12-2 .12s-1.35-.04-2-.12c-4.37-.51-8.23-2.68-10.94-5.86-.54-.63-1.04-1.31-1.48-2.02-1.64-2.61-2.58-5.69-2.58-9 0-3.76 1.22-7.23 3.28-10.04 3.1-4.22 8.09-6.96 13.72-6.96s10.62 2.74 13.72 6.96c2.06 2.81 3.28 6.28 3.28 10.04 0 3.23-.9 6.25-2.46 8.81-.46.76-.97 1.47-1.54 2.14z"/><circle data-cppathid="10009" r="13" fill="#69d6f4" cy="25" cx="32"/><path data-cppathid="10010" fill="#cf9e76" d="m36 46v12c0 1.1-.45 2.1-1.17 2.83-.73.72-1.73 1.17-2.83 1.17-2.21 0-4-1.79-4-4v-12h2 4z"/><path data-cppathid="10011" fill="#aab2bd" d="m34 41.88v4.12h-4v-4.12c.65.08 1.32.12 2 .12s1.35-.04 2-.12z"/><path data-cppathid="10012" d="m55.304 13.509c1.638-1.283 2.696-3.272 2.696-5.509 0-3.86-3.141-7-7-7s-7 3.14-7 7c0 2.24 1.062 4.232 2.704 5.514-.227.071-.45.153-.672.239-3.302-4.111-8.361-6.753-14.032-6.753s-10.73 2.643-14.032 6.754c-.222-.086-.446-.168-.672-.239 1.642-1.282 2.704-3.275 2.704-5.515 0-3.86-3.141-7-7-7s-7 3.14-7 7c0 2.237 1.058 4.226 2.696 5.509-4.456 1.406-7.696 5.577-7.696 10.491v10c0 2.757 2.243 5 5 5v20c0 2.206 1.794 4 4 4 1.201 0 2.266-.542 3-1.382.734.84 1.799 1.382 3 1.382 2.206 0 4-1.794 4-4v-20.622c2.481 2.227 5.574 3.772 9 4.351v2.271h-2v13c0 2.757 2.243 5 5 5s5-2.243 5-5v-13h-2v-2.271c3.426-.579 6.519-2.124 9-4.351v20.622c0 2.206 1.794 4 4 4 1.201 0 2.266-.542 3-1.382.734.84 1.799 1.382 3 1.382 2.206 0 4-1.794 4-4v-20c2.757 0 5-2.243 5-5v-10c0-4.914-3.24-9.085-7.696-10.491zm-9.304-5.509c0-2.757 2.243-5 5-5s5 2.243 5 5-2.243 5-5 5-5-2.243-5-5zm-38 0c0-2.757 2.243-5 5-5s5 2.243 5 5-2.243 5-5 5-5-2.243-5-5zm-5 26v-10c0-4.962 4.037-9 9-9h2c.956 0 1.884.153 2.774.443-1.747 2.773-2.774 6.044-2.774 9.557 0 2.876.695 5.586 1.899 8h-7.899v-11h-2v15c-1.654 0-3-1.346-3-3zm7 27c-1.103 0-2-.897-2-2v-24h4v24c0 1.103-.897 2-2 2zm6 0c-1.103 0-2-.897-2-2v-24h3.044c.299.445.62.873.956 1.289v22.711c0 1.103-.897 2-2 2zm19-3c0 1.654-1.346 3-3 3s-3-1.346-3-3v-11h6zm-2-13h-2v-2.051c.333.019.662.051 1 .051s.667-.032 1-.051zm-1-4c-8.822 0-16-7.178-16-16s7.178-16 16-16 16 7.178 16 16-7.178 16-16 16zm16 20c-1.103 0-2-.897-2-2v-22.711c.354-.438.688-.891 1-1.361v.072h3v24c0 1.103-.897 2-2 2zm6 0c-1.103 0-2-.897-2-2v-24h4v24c0 1.103-.897 2-2 2zm7-27c0 1.654-1.346 3-3 3v-15h-2v11h-7.899c1.204-2.414 1.899-5.124 1.899-8 0-3.513-1.027-6.784-2.775-9.557.891-.29 1.819-.443 2.775-.443h2c4.963 0 9 4.038 9 9z"/><path data-cppathid="10013" d="m25.125 20.904-1.717-1.024c-.38.636-.688 1.315-.918 2.018l1.9.621c.184-.563.431-1.106.735-1.615z"/><path data-cppathid="10014" d="m27.556 18.347-1.111-1.662c-.615.411-1.186.892-1.695 1.43l1.45 1.375c.407-.429.863-.814 1.356-1.143z"/><path data-cppathid="10015" d="m32 11c-7.72 0-14 6.28-14 14s6.28 14 14 14 14-6.28 14-14-6.28-14-14-14zm0 26c-6.617 0-12-5.383-12-12s5.383-12 12-12 12 5.383 12 12-5.383 12-12 12z"/><path data-cppathid="10016" d="m39 30v-10h-2v10h-2v-4h-2v4h-2v-8h-2v8h-2v-6h-2v6h-2v2h18v-2z"/></svg>