<?xml version="1.0" encoding="UTF-8"?>
<svg xmlns="http://www.w3.org/2000/svg" onmouseup="{ if(window.parent.document.onmouseup) window.parent.document.onmouseup(arguments[0]);}" width="512" viewBox="0 0 64 64" height="512" enable-background="new 0 0 64 64" id="Layer_3"><g><g><path data-cppathid="10000" fill="#78b75b" d="m32 20v-18l-8 8h4v10"/></g><g><path data-cppathid="10001" fill="#e47c6e" d="m36 44v10h4l-8 8v-18"/></g><g><path data-cppathid="10002" fill="#efbe9a" d="m2 52h8l4 4v6h1c1.657 0 3-1.343 3-3v-7h10v-14c0-1.105-.895-2-2-2h-12l-4 2h-8"/></g><g><path data-cppathid="10003" transform="matrix(-1 0 0 -1 9 90)" fill="#3d98f7" d="m2 38h5v14h-5z"/></g><g><path data-cppathid="10004" fill="#efbe9a" d="m62 12h-8l-4-4v-6h-1c-1.657 0-3 1.343-3 3v7h-10v14c0 1.105.895 2 2 2h12l4-2h8"/></g><g><path data-cppathid="10005" fill="#3d98f7" d="m57 12h5v14h-5z"/></g><g><path data-cppathid="10006" d="m32 63c-.129 0-.259-.024-.383-.076-.373-.154-.617-.52-.617-.924v-57.586l-4.586 4.586h1.586c.552 0 1 .447 1 1v10h-2v-9h-3c-.404 0-.769-.243-.924-.617s-.069-.804.217-1.09l8-8c.286-.287.715-.374 1.09-.217.373.154.617.52.617.924v57.586l4.586-4.586h-1.586c-.552 0-1-.447-1-1v-10h2v9h3c.404 0 .769.243.924.617s.069.804-.217 1.09l-8 8c-.191.191-.447.293-.707.293z"/></g><g><path data-cppathid="10007" d="m63 33h-2v-2h2zm-4 0h-2v-2h2zm-4 0h-2v-2h2zm-4 0h-2v-2h2zm-4 0h-2v-2h2zm-4 0h-2v-2h2zm-4 0h-2v-2h2zm-4 0h-2v-2h2zm-4 0h-2v-2h2zm-4 0h-2v-2h2zm-4 0h-2v-2h2zm-4 0h-2v-2h2zm-4 0h-2v-2h2zm-4 0h-2v-2h2zm-4 0h-2v-2h2zm-4 0h-2v-2h2z"/></g><g><path data-cppathid="10008" d="m56 12h2v14h-2z"/></g><g><path data-cppathid="10009" d="m50 29h-12c-1.654 0-3-1.346-3-3v-2c0-.553.448-1 1-1h9v2h-8v1c0 .552.449 1 1 1h11.764l3.789-1.895c.138-.069.292-.105.447-.105h9v2h-8.764l-3.789 1.895c-.138.069-.292.105-.447.105z"/></g><g><path data-cppathid="10010" d="m45 25h-9c-.552 0-1-.447-1-1v-4c0-.553.448-1 1-1h9v2h-8v2h8z"/></g><g><path data-cppathid="10011" d="m45 21h-9c-.552 0-1-.447-1-1v-4c0-.553.448-1 1-1h9v2h-8v2h8z"/></g><g><path data-cppathid="10012" d="m45 17h-9c-.552 0-1-.447-1-1v-4c0-.553.448-1 1-1h9v-6c0-2.206 1.794-4 4-4h1c.552 0 1 .447 1 1v5.586l3.414 3.414h8.586v2h-9c-.265 0-.52-.105-.707-.293l-4-4c-.188-.187-.293-.441-.293-.707v-5c-1.103 0-2 .897-2 2v7c0 .553-.448 1-1 1h-9v2h8z"/></g><g><path data-cppathid="10013" d="m6 38h2v14h-2z"/></g><g><path data-cppathid="10014" d="m28 41h-9v-2h8v-1c0-.552-.449-1-1-1h-11.764l-3.789 1.895c-.138.069-.292.105-.447.105h-9v-2h8.764l3.789-1.895c.138-.069.292-.105.447-.105h12c1.654 0 3 1.346 3 3v2c0 .553-.448 1-1 1z"/></g><g><path data-cppathid="10015" d="m28 45h-9v-2h8v-2h-8v-2h9c.552 0 1 .447 1 1v4c0 .553-.448 1-1 1z"/></g><g><path data-cppathid="10016" d="m28 49h-9v-2h8v-2h-8v-2h9c.552 0 1 .447 1 1v4c0 .553-.448 1-1 1z"/></g><g><path data-cppathid="10017" d="m15 63h-1c-.552 0-1-.447-1-1v-5.586l-3.414-3.414h-8.586v-2h9c.265 0 .52.105.707.293l4 4c.188.187.293.441.293.707v5c1.103 0 2-.897 2-2v-7c0-.553.448-1 1-1h9v-2h-8v-2h9c.552 0 1 .447 1 1v4c0 .553-.448 1-1 1h-9v6c0 2.206-1.794 4-4 4z"/></g></g></svg>