<?xml version="1.0" encoding="UTF-8"?>
<svg xmlns="http://www.w3.org/2000/svg" onmouseup="{ if(window.parent.document.onmouseup) window.parent.document.onmouseup(arguments[0]);}" width="512" viewBox="0 0 256 256" height="512" enable-background="new 0 0 256 256" id="Layer_1"><g><g><g><g><g><g><g><path data-cppathid="10000" fill="#939598" d="m196.253 196.652 15.526-15.527c.301-.301.628-.559.968-.79l-11.403-11.403c-4.974 6.496-10.788 12.31-17.284 17.284l11.404 11.403c.23-.339.488-.666.789-.967z"/></g><g><path data-cppathid="10001" fill="#8c3f0a" d="m223.044 232.817-26.791-26.791c-2.589-2.589-2.589-6.786 0-9.374l15.526-15.527c2.589-2.588 6.786-2.588 9.374 0l26.791 26.791c2.588 2.589 2.588 6.786 0 9.374l-15.527 15.526c-2.588 2.59-6.785 2.59-9.373.001z"/></g><g><path data-cppathid="10002" fill="#7c3108" d="m243.245 221.99c-2.589 2.589-6.786 2.589-9.374 0l-26.791-26.791c-2.589-2.589-2.589-6.786 0-9.374l4.708-4.708c-.003.003-.006.006-.009.008l-15.526 15.527c-2.589 2.589-2.589 6.786 0 9.375l26.791 26.791c2.589 2.589 6.786 2.589 9.374 0l15.527-15.526c.002-.002.004-.004.006-.006z"/></g><g><path data-cppathid="10003" fill="#58595b" d="m193.205 178.211c-2.868 2.862-5.923 5.537-9.146 8.005l11.404 11.403c.231-.34.489-.666.79-.968l7.697-7.697z"/></g></g><g><g><path data-cppathid="10004" fill="#939598" d="m127.958 20.443c-51.024 0-92.388 41.363-92.388 92.388s41.363 92.388 92.388 92.388 92.388-41.363 92.388-92.388-41.364-92.388-92.388-92.388zm0 162.083c-38.492 0-69.695-31.204-69.695-69.695s31.204-69.696 69.695-69.696 69.695 31.204 69.695 69.696-31.204 69.695-69.695 69.695z"/></g><g><g><path data-cppathid="10005" fill="#808285" d="m190.734 45.054c15.272 16.48 24.612 38.536 24.612 62.776 0 51.024-41.364 92.388-92.388 92.388-24.24 0-46.296-9.34-62.776-24.612 16.874 18.21 40.992 29.612 67.776 29.612 51.024 0 92.388-41.364 92.388-92.388-.001-26.784-11.403-50.901-29.612-67.776z"/></g></g><g><path data-cppathid="10006" fill="#58595b" d="m127.958 35.075c-42.943 0-77.756 34.812-77.756 77.756s34.812 77.756 77.756 77.756 77.756-34.812 77.756-77.756-34.813-77.756-77.756-77.756zm0 147.451c-38.492 0-69.695-31.204-69.695-69.695s31.204-69.696 69.695-69.696 69.695 31.204 69.695 69.696-31.204 69.695-69.695 69.695z"/></g></g></g></g><g><circle data-cppathid="10007" r="69.695" fill="#f1f2f2" cy="112.83" cx="127.945"/></g><g><path data-cppathid="10008" fill="#e6e7e8" d="m171.968 58.807c9.793 12.003 15.672 27.325 15.672 44.024 0 38.492-31.204 69.696-69.695 69.696-16.699 0-32.021-5.879-44.023-15.672 12.78 15.664 32.23 25.672 54.023 25.672 38.492 0 69.695-31.204 69.695-69.696 0-21.794-10.008-41.244-25.672-54.024z"/></g><g><path data-cppathid="10009" fill="#d1d3d4" d="m174.66 61.114c11.173 12.361 17.98 28.742 17.98 46.716 0 38.492-31.204 69.696-69.695 69.696-17.974 0-34.355-6.807-46.716-17.979 12.754 14.11 31.198 22.979 51.716 22.979 38.492 0 69.695-31.204 69.695-69.696 0-20.518-8.869-38.962-22.98-51.716z"/></g></g><g><path data-cppathid="10010" fill="#fff" d="m64.67 114.83c-1.1 0-2-.9-2-2 0-1.101.9-2 2-2s2 .899 2 2c0 1.1-.9 2-2 2zm.5-7.98c-.09 0-.17 0-.25-.01-.53-.07-1.01-.34-1.33-.76-.33-.42-.47-.95-.41-1.48 1.42-11.16 5.74-21.83 12.52-30.87 6.67-8.88 15.53-15.97 25.62-20.5.98-.43 2.2.03 2.64 1.011.22.489.24 1.029.05 1.529s-.57.891-1.05 1.11c-19.43 8.71-33.15 27.189-35.81 48.22-.12 1-.98 1.75-1.98 1.75z"/></g></g><g><g><circle data-cppathid="10011" r="27.915" fill="#ffc91d" cy="203.988" cx="128"/></g><g><path data-cppathid="10012" fill="#ffa91a" d="m147.739 184.249c-.847-.847-1.74-1.621-2.663-2.337 8.491 10.95 7.717 26.761-2.337 36.815s-25.865 10.828-36.815 2.337c.716.923 1.489 1.816 2.337 2.663 10.902 10.901 28.576 10.901 39.478 0s10.902-28.576 0-39.478z"/></g><g><g><path data-cppathid="10013" fill="#478cf7" d="m124.977 218.782c-1.252 0-2.504-.478-3.46-1.433l-9.634-9.634c-1.91-1.911-1.91-5.008 0-6.919 1.911-1.91 5.008-1.91 6.919 0l6.175 6.176 12.254-12.255c1.911-1.91 5.008-1.91 6.919 0 1.91 1.911 1.91 5.008 0 6.919l-15.714 15.714c-.955.955-2.207 1.432-3.459 1.432z"/></g></g><g><g><path data-cppathid="10014" fill="#377de2" d="m122.977 204.972-4.175-4.176-.001-.001z"/></g><g><path data-cppathid="10015" fill="#377de2" d="m144.15 194.717c-.35-.35-.749-.613-1.164-.835.988 1.851.724 4.194-.836 5.754l-15.714 15.714c-.955.955-2.207 1.433-3.459 1.433s-2.504-.478-3.459-1.433l2 2c.955.955 2.207 1.433 3.459 1.433s2.504-.478 3.459-1.433l15.714-15.714c1.91-1.911 1.91-5.008 0-6.919z"/></g></g></g><g><g><path data-cppathid="10016" fill="#478cf7" d="m95.361 100.55h-11.046c-2.403 0-4.352 1.948-4.352 4.352v35.925c0 2.403 1.948 4.352 4.352 4.352h11.045c2.403 0 4.352-1.948 4.352-4.352v-35.925c0-2.403-1.948-4.352-4.351-4.352z"/></g><g><path data-cppathid="10017" fill="#377de2" d="m95.361 100.55h-.648v35.276c0 2.403-1.948 4.352-4.352 4.352h-10.397v.648c0 2.403 1.948 4.352 4.352 4.352h11.045c2.403 0 4.352-1.948 4.352-4.352v-35.925c-.001-2.402-1.949-4.351-4.352-4.351z"/></g><g><path data-cppathid="10018" fill="#478cf7" d="m120.844 78.677h-11.045c-2.403 0-4.352 1.948-4.352 4.352v57.798c0 2.403 1.948 4.352 4.352 4.352h11.045c2.403 0 4.352-1.948 4.352-4.352v-57.798c0-2.404-1.949-4.352-4.352-4.352z"/></g><g><path data-cppathid="10019" fill="#377de2" d="m120.844 78.677h-.648v57.15c0 2.403-1.948 4.352-4.352 4.352h-10.397v.648c0 2.403 1.948 4.352 4.352 4.352h11.045c2.403 0 4.352-1.948 4.352-4.352v-57.798c0-2.404-1.949-4.352-4.352-4.352z"/></g><g><path data-cppathid="10020" fill="#478cf7" d="m171.685 78.677h-11.045c-2.403 0-4.352 1.948-4.352 4.352v57.798c0 2.403 1.948 4.352 4.352 4.352h11.045c2.403 0 4.352-1.948 4.352-4.352v-57.798c-.001-2.404-1.949-4.352-4.352-4.352z"/></g><g><path data-cppathid="10021" fill="#377de2" d="m171.685 78.677h-.648v57.15c0 2.403-1.948 4.352-4.352 4.352h-10.397v.648c0 2.403 1.948 4.352 4.352 4.352h11.045c2.403 0 4.352-1.948 4.352-4.352v-57.798c-.001-2.404-1.949-4.352-4.352-4.352z"/></g><g><path data-cppathid="10022" fill="#478cf7" d="m146.202 100.55h-11.045c-2.403 0-4.352 1.948-4.352 4.352v35.925c0 2.403 1.948 4.352 4.352 4.352h11.045c2.403 0 4.352-1.948 4.352-4.352v-35.925c-.001-2.403-1.949-4.352-4.352-4.352z"/></g><g><path data-cppathid="10023" fill="#377de2" d="m146.201 100.55h-.648v35.276c0 2.403-1.948 4.352-4.352 4.352h-10.397v.648c0 2.403 1.948 4.352 4.352 4.352h11.045c2.403 0 4.352-1.948 4.352-4.352v-35.925c0-2.402-1.948-4.351-4.352-4.351z"/></g></g></g></svg>