<?xml version="1.0" encoding="UTF-8"?>
<svg xmlns="http://www.w3.org/2000/svg" onmouseup="{ if(window.parent.document.onmouseup) window.parent.document.onmouseup(arguments[0]);}" width="512" viewBox="0 0 67 67" height="512" enable-background="new 0 0 67 67" id="Layer_1"><g><g><g><g><g><g enable-background="new"><g><path d="m12.666791 65.3645096-5.0119739-2.9126358c-.359231-.2087708-.5818152-.6538544-.5836129-1.2879791l5.0119715 2.9126358c.0017976.6341247.2243814 1.079216.5836153 1.2879791z" fill="#c4c2c0"/></g><g><path d="m38.0709686 14.3077412-3.6332702-2.1114264 7.6123962-4.3950195 3.6332703 2.1114263z" fill="#e2e3e5"/></g><g><path d="m36.6508713 14.446454-3.6332779-2.1114197c.363018.2109528.8652534.1816225 1.420105-.1387196l3.6332703 2.1114264c-.5548478.3203421-1.057087.3496724-1.4200974.1387129z" fill="#e2e3e5"/></g><g><path d="m36.6508713 14.446454-3.6332779-2.1114197c-.3598976-.2091589-.5829468-.654501-.5847397-1.2866049l3.6332703 2.1114264c.0017929.632104.2248458 1.077446.5847473 1.2865982z" fill="#cfd0d1"/></g><g><path d="m36.0413284 4.4126387-3.633274-2.1114266 9.6420402 5.5000832 3.6332703 2.1114263z" fill="#e2e3e5"/></g><g><path d="m36.066124 13.1598558-3.6332703-2.1114263-.0247993-8.7472174 3.633274 2.1114266z" fill="#cfd0d1"/></g><g><path d="m36.0413284 4.4126387 9.6420364 5.500083-7.6123962 4.3950195c-1.1049423.6379395-2.0012436.1217833-2.0048447-1.1478853z" fill="#d6d4d2"/></g><g><path d="m12.0831757 64.0765305-5.0119715-2.9126358-.1231957-43.4551392 5.0119715 2.9126377z" fill="#d6d4d2"/></g><g><path d="m12.0831757 64.0765305-5.0119715-2.9126358-.0788298-27.8059082 5.0119705 2.9126396z" fill="#c4c2c0"/></g><g><path d="m12.0831757 64.0765305-5.0119715-2.9126358-.0788298-14.5793305 5.0119705 2.9126358z" fill="#d6d4d2"/></g><g><path d="m13.9517717 17.16605-5.0119705-2.9126387 22.0895548-12.7534113 5.0119724 2.9126387z" fill="#c4c2c0"/></g><g><path d="m13.9517717 17.16605-5.0119705-2.9126387 14.2122297-8.2054348 5.0119706 2.9126387z" fill="#d6d4d2"/></g><g><path d="m11.95998 20.6213932-5.0119715-2.9126377c-.0036149-1.275074.8868489-2.8174047 1.9917927-3.4553442l5.0119705 2.9126387c-1.1049432.6379394-1.9954071 2.1802711-1.9917917 3.4553432z" fill="#c4c2c0"/></g><g><path d="m45.7785683 44.6190605c.00737 1.274025-.8837357 2.8205299-1.9883919 3.4538994l-29.7005777 17.1516342c-1.1046581.6407013-2.0030918.1251831-2.0030918-1.1488419l-.1251812-43.4572372c-.0073719-1.274025.8836899-2.8132019 1.9883471-3.4538994l22.0931548-12.7551217.0221138 8.7488937c.0073738 1.274024.8984337 1.7895393 2.0030937 1.1488419l7.6147919-4.3965158z" fill="#e9e8e6"/></g></g></g><g><g enable-background="new"><g><path d="m34.6994209 13.1265659-.0414161 9.8418122-3.8366852 2.229639.0414181-9.8418131z" fill="#cc4848"/></g><g><path d="m30.8627377 15.356204-.0414181 9.8418131-.7165203-.4136848.0414161-9.8418122z" fill="#dd4a4a"/></g><g><path d="m34.6994209 13.1265659-3.8366832 2.2296381-.7165223-.4136839 3.8366871-2.2296381z" fill="#f25a5a"/></g></g><g><g enable-background="new"><g><path d="m29.4195404 14.1600971-.0414162 11.8766136-3.8366851 2.2296372.0414161-11.8766117z" fill="#3db542"/></g><g><path d="m25.5828552 16.3897362-.0414161 11.8766117-.7165204-.413683.0414162-11.8766136z" fill="#6dcb60"/></g><g><path d="m29.4195404 14.1600971-3.8366852 2.2296391-.7165203-.4136849 3.8366852-2.2296371z" fill="#81d672"/></g></g><g><g enable-background="new"><g><path d="m24.13871 20.3173904-.0414161 8.7882023-3.8366852 2.2296391.0414161-8.7882023z" fill="#cea03a"/></g><g><path d="m20.3020248 22.5470295-.0414161 8.7882023-.7165222-.4136849.0414161-8.7882022z" fill="#efc348"/></g><g><path d="m24.1373749 20.3161449-3.8341522 2.2288247-.7177639-.4134579 3.8388099-2.2288551z" fill="#ffd651"/></g></g><g enable-background="new"><g><path d="m18.8588295 21.2774372-.0414162 10.8964863-3.8376369 2.2301903.0414171-10.8964863z" fill="#3f9ae0"/></g><g><path d="m15.0211935 23.5076275-.0414171 10.8964863-.7165213-.4136811.0414171-10.8964882z" fill="#82c6e0"/></g><g><path d="m18.8588295 21.2774372-3.837636 2.2301903-.7165213-.413683 3.8376351-2.2301902z" fill="#b5e5f4"/></g></g></g></g></g><g fill="#cfd0d1"><path d="m42.5700188 22.7917976v2.3743439l-12.5670472 7.2553444v-2.3743439z"/><path d="m42.5700188 29.158823v2.374342l-12.5670472 7.2553444v-2.3743439z"/><path d="m42.5700188 35.5258484v2.37434l-12.5670472 7.2553444v-2.3743438z"/><path d="m42.5700188 41.8928719v2.37434l-27.4001456 15.818943v-2.37434z"/></g><g><g><g><g><path d="m15.876462 51.497509-3.9467859 5.717453c.0174541-.0263405-.0205412-.0952606-.1267872-.2012863-.2631426-.2703133-.8563919-.6953354-1.3184128-.9476585-.2834616-.1533012-.4531355-.2085266-.4805384-.16642l3.946785-5.717453c.0299921-.0421867.199667.0130539.4805546.1664238.4645948.2522545 1.0552044.6747398 1.321002.9475746.1036405.1060905.1442261.1749611.1241827.2013664z" fill="#494846"/><path d="m12.0530519 56.1870956c-.4625616-.2516289-1.0535545-.6762543-1.3201447-.9488106-.2656279-.2715721-.1057959-.2877579.3567657-.036129.4642363.2525406 1.0552292.677166 1.320857.9487381.2665903.2725564.1067583.2887421-.357478.0362015z" fill="#d8463f"/><g><path d="m6.7041516 64.9438477c-.8780017-.477623-1.9994721-1.2833939-2.5049696-1.8002014-.504194-.51548-.2008955-.5461922.6771059-.0685692.8802691.4788589 1.9994702 1.28339 2.5036645 1.7988701.505497.5168075.2044683.5487594-.6758008.0699005z" fill="#21201f"/></g><path d="m26.7439175 33.8401794c-1.3699646-.7945824-3.2654934-.6824913-5.3578072.5255623-4.1572189 2.4011765-7.5173645 8.2222786-7.5024195 12.9972191.0049858 2.3762589.8443995 4.0451279 2.1944323 4.8322449l-1.3963003-.81427c-1.3500338-.7846222-2.1894464-2.4559708-2.1969261-4.8297501-.0124512-4.7774353 3.3452005-10.5985374 7.5049124-12.9997139 2.0923157-1.2080536 3.9878426-1.3201447 5.3553143-.5230713z" fill="#555"/><g><path d="m12.4849081 46.5511665c.0074883 2.3737831.8468857 4.0451355 2.196929 4.8297577l1.3962669.8142509c-1.3499966-.787117-2.1894398-2.4559746-2.1944313-4.8322105-.0012951-.4204597.032403-.850811.0816793-1.2844467l-1.3983488-.8114777c-.0493211.4334946-.0832042.8637581-.0820951 1.2841263z" fill="#494846"/><path d="m12.5670033 45.2670403 1.3983488.8114777c.2262239-1.9914589.9611063-4.0865555 2.0464659-5.9961967l-1.3987179-.8117561c-1.0848971 1.9095953-1.8193636 4.0046461-2.0460968 5.9964751z" fill="#2d2c2b"/><path d="m26.7439346 33.8401642-1.3988113-.8117561c-1.3674698-.7971001-3.2630119-.6850052-5.3553333.523037-.2672253.1542511-.5308456.3236198-.7907677.5049133l1.3995037.8121681c.2589035-.1805534.5214615-.3490868.7875786-.5027847 2.0923214-1.2080422 3.9878635-1.3201371 5.35783-.5255776z" fill="#494846"/><path d="m14.6131001 39.270565 1.3987179.8117561c1.1904755-2.0945396 2.7927666-3.962719 4.5867081-5.2137947l-1.3995037-.8121681c-1.7942639 1.2515374-3.3959561 3.1196213-4.5859223 5.2142067z" fill="#383736"/></g><path d="m26.5213909 33.7192078c-.0605564-.0226936-.1287365-.0530205-.1893387-.0832977-.1741753-.0757141-.3559303-.1363144-.5452671-.1817551-1.3456898-.4039536-3.1480427.1575012-4.4001904.9088287-4.1578331 2.4007797-7.5204592 8.2247849-7.5053434 12.996067 0 1.6363487.4770336 3.5492401 1.7116137 4.4986496.0530195.0454407.1212015.0908775.1741753.1287384.0757627.0606003.1514788.1136208.2272415.1590576 1.3783779.8482246 3.3020248.7573471 5.4377518-.4771309 4.1654148-2.4007797 7.5280399-8.2172089 7.5128784-12.9960709-.0064145-2.0121878-.6315251-4.0565413-2.4235211-4.9530867zm-10.2241974 16.8509941c-.0226974-.0075378-.0454388-.0226974-.0681362-.0302773-.7346516-.7270737-1.1360216-1.9161148-1.1436024-3.4686699-.0075808-4.2259674 2.9687901-9.3986664 6.6494904-11.5192299 1.2070427-.6963463 2.7369862-1.1873093 4.0139809-.6286125.545269.537735.9087811 1.3480568 1.0602589 2.3705025.1270046.8163872.1145554 2.049305-.1893368 3.4232292-.780714 3.5433617-3.2886162 7.403923-6.3844376 9.1941681-1.2329121.6938362-2.6210556 1.1457672-3.9382172.6588898z" fill="#21201f"/><path d="m27.0061035 36.0064125c-.2044983-.6891632-.5225716-1.2496414-.9391041-1.666172-.3938351-.1665955-.8255291-.257473-1.3026619-.257473-.9087811 0-1.9539242.3180733-3.006649.9315224-3.9382191 2.2796249-7.1342049 7.8158379-7.1342049 12.3447609.007534 1.6737556.4468088 2.9536781 1.2269001 3.7261391.3937893.1590614.8179016.249939 1.2950344.249939.1666412 0 .3408165-.0075798.5149918-.0378571 4.4036293-.5180435 9.635828-7.3031349 9.6259098-13.2384262 0-.7725106-.0984592-1.4616776-.2802162-2.0524331zm-4.4834862 12.117569c-.1590595.1514778-.318119.3029556-.4771328.4468536-1.229147 1.1159248-2.9520149 2.2038651-4.6122704 2.2038651-.4165306 0-.7876244-.0757179-1.1360207-.2044983-.0226974-.0075378-.0454388-.0226974-.0681362-.0302773-.7346516-.7270737-1.1360216-1.9161148-1.1436024-3.4686699-.0075808-4.2259674 2.9687901-9.3986664 6.6494904-11.5192299 1.2070427-.6963463 2.7369862-1.1873093 4.0139809-.6286125.545269.537735.9087811 1.3480568 1.0602589 2.3705025.0530205.3408165.0757637.7119102.0757637 1.0981636 0 3.4460678-1.9035072 7.2730789-4.3623314 9.7319031z" fill="#333331"/><path d="m27.7331753 38.9676247c.0151138 4.2260132-2.9688377 9.3911324-6.649538 11.5116959-.9845428.575592-1.95397.8785515-2.8021965.8785515-.219614 0-.4241123-.0227432-.6210308-.0606003-.5604305-.106041-1.0375633-.3635139-1.4313526-.7573471.0226974.0075798.0454388.0227394.0681362.0302773.3483963.1287804.7194901.2044983 1.1360207.2044983.318119 0 .6513557-.0378609.9997063-.1211548.2347755-.0606041.4695511-.1287842.7043266-.2196617.2423573-.0908775.4847145-.1969185.7270718-.3256531.1287365-.0606041.2499371-.1287384.3710918-.1969185.6286125-.3635139 1.2344818-.8179016 1.8100739-1.340477.1590137-.143898.3180733-.2953758.4771328-.4468536 1.9690857-1.9690857 3.506525-4.7258453 4.0972309-7.4068375.181757-.787674.2726345-1.5752983.2726345-2.3250656 0-.393837-.0302773-.7573471-.0832977-1.0981636-.1514778-1.0224457-.5149899-1.8327675-1.0602589-2.3705025.5149918.2196159.9391041.5831718 1.2571774 1.0830002.4695528.7270736.7194899 1.726776.7270716 2.9612121z" fill="#555"/><path d="m17.4332142 50.7747002c.318119 0 .6513557-.0378609.9997063-.1211548-.3483505.0832939-.6815872.1287346-.9997063.1287346-.4165306 0-.7952061-.0757637-1.1360207-.2120781.3483963.1287803.7194901.2044983 1.1360207.2044983z" fill="#267cb5" opacity=".3"/></g></g></g><g><path d="m12.933382 51.9981613-7.7381882 11.2551422c.4400606.2614975.9085031.5797081 1.3195343.8899231l7.7410083-11.2592583c-.4119101-.3101196-.8815079-.627407-1.3223544-.885807z" fill="#6dcb60"/><path d="m6.6947064 61.0681534-1.4995127 2.1851501c.4400606.2614975.9085031.5797081 1.3195343.8899231l1.5023322-2.1892662c-.411909-.3101234-.8815073-.6274109-1.3223538-.885807z" fill="#383736"/><path d="m12.6179438 51.8202896c-.5354223-.2995377-.853034-.3993378-.9075327-.3177032l-7.7412391 11.2597198c.0453467-.0816803.3720636.0271797.9075327.3085976.10322.0563927.2101378.1180115.3184891.1823997l7.7381883-11.2551422c-.1072884-.0628624-.2131892-.1230469-.3154383-.1778717z" fill="#3db542"/><path d="m6.4306002 60.9287415c-.5354223-.2995377-.9043655-.4377975-.9588647-.3561668l-1.5025635 2.1897315c.0453467-.0816803.3720636.0271797.9075327.3085976.10322.0563927.2101378.1180115.3184891.1823997l1.4995127-2.1851501c-.1072879-.0628662-.1618567-.0845909-.2641063-.1394119z" fill="#2d2c2b"/><path d="m14.2557364 52.8839684-7.7410083 11.2592582c.350893.2648239.6601372.5233536.8667622.7336349.1905389.199646.2722182.3267136.2358856.3811722l7.7413316-11.2597198c.0363321-.0544548-.0362864-.1814804-.2359781-.3811722-.2066251-.2103691-.5160085-.4689026-.866993-.7331733z" fill="#81d672"/><path d="m8.0170603 61.9539604-1.5023322 2.1892662c.350893.2648239.6601372.5233536.8667622.7336349.1905389.199646.2722182.3267136.2358856.3811722l1.5026555-2.1897316c.0363331-.0544548.0150461-.1430168-.1846447-.3427086-.206625-.210369-.5673409-.5073661-.9183264-.7716331z" fill="#494846"/></g></g></g><g><g><path d="m21.0937767 43.0139771.0136433 4.8124428c-2.312788 1.3352852-4.1942043.2631226-4.2017384-2.3944435z" fill="#0074d1"/></g><g><path d="m21.0801334 38.2015381.0136433 4.812439-4.1880951 2.4179993c-.007534-2.6575738 1.8616638-5.8951531 4.1744518-7.2304383z" fill="#ffd651"/></g><g><path d="m21.0937767 43.0139771 4.1880951-2.4179993c.007534 2.6575661-1.8616619 5.8951492-4.1744518 7.2304382z" fill="#81d672"/></g><g><path d="m21.0801334 38.2015381c2.3127861-1.335289 4.1942043-.263134 4.2017384 2.3944397l-4.1880951 2.4179993z" fill="#f25a5a"/></g></g></g><g><g><g enable-background="new"><g><path d="m54.2931824 38.9334641-2.3774033-1.3815957 4.3062744-8.3099136 2.3774033 1.3815956z" fill="#0074d1"/></g><g><path d="m54.2931824 38.9334641-2.3774033-1.3815957 3.0130234-5.8143005 2.3774032 1.3815956z" fill="#006cb5"/></g><g><path d="m54.2931824 38.9334641-2.3774033-1.3815957 1.6392174-3.1632347 2.3774032 1.3815956z" fill="#0074d1"/></g><g><path d="m44.3942566 49.3356171-2.3774033-1.3815956 7.2123146-12.3765564 2.3774071 1.3815956z" fill="#0074d1"/></g><g><path d="m44.3942566 49.3356171-2.3774033-1.3815956 5.128788-8.801159 2.3774033 1.3815957z" fill="#006cb5"/></g><g><path d="m44.3942566 49.3356171-2.3774033-1.3815956 2.816124-4.8325539 2.3774033 1.3815956z" fill="#0074d1"/></g><g><path d="m36.2886467 57.6150398-2.3774033-1.3815956 5.685421-9.839302 2.3774033 1.3815956z" fill="#0074d1"/></g><g><path d="m36.2886467 57.6150398-2.3774033-1.3815956 3.9148789-6.7751694 2.3774032 1.3815957z" fill="#006cb5"/></g><g><path d="m36.2886467 57.6150398-2.3774033-1.3815956 2.1443406-3.7110367 2.3774032 1.3815956z" fill="#0074d1"/></g><g><path d="m33.539753 56.4426346-2.3774033-1.3815956 2.7488937 1.1724052 2.3774033 1.3815956z" fill="#006cb5"/></g><g><path d="m33.5583344 62.9969978-2.3774033-1.3815956-.0185814-6.5543632 2.3774033 1.3815956z" fill="#006cb5"/></g><g><g><path d="m58.5994568 30.6235504.0507088 17.8866692-25.0918312 14.4867782-.0185814-6.5543632 2.7488937 1.1724052 5.685421-9.839302 2.4201889 1.5598793 7.2123184-12.3765564 2.6866074 1.9744034z" fill="#3f9ae0"/></g></g></g></g><g><g enable-background="new"><g><path d="m58.6875572 41.4134941-2.3774032-1.3815956 4.3062744-8.3099155 2.3774032 1.3815975z" fill="#ffd651"/></g><g><path d="m58.6875572 41.4134941-2.3774032-1.3815956 3.3117637-6.390789 2.3774033 1.3815956z" fill="#ddb040"/></g><g><path d="m58.6875572 41.4134941-2.3774032-1.3815956 1.3227462-2.5525322 2.3774033 1.3815956z" fill="#ffd651"/></g><g><path d="m48.7886353 51.8156433-2.3774071-1.3815956 7.2123184-12.3765526 2.3774033 1.3815956z" fill="#ffd651"/></g><g><path d="m48.7886353 51.8156433-2.3774071-1.3815956 5.275692-9.0532494 2.377407 1.3815957z" fill="#ddb040"/></g><g><path d="m48.7886353 51.8156433-2.3774071-1.3815956 2.5200043-4.3244019 2.3774032 1.3815957z" fill="#ffd651"/></g><g><path d="m40.6830254 60.0950661-2.3774033-1.3815956 5.6854172-9.8392983 2.3774032 1.3815956z" fill="#ffd651"/></g><g><path d="m40.6830254 60.0950661-2.3774033-1.3815956 4.3318405-7.4967728 2.3774033 1.3815956z" fill="#ddb040"/></g><g><path d="m40.6830254 60.0950661-2.3774033-1.3815956 2.1591682-3.7367058 2.3774033 1.3815956z" fill="#ffd651"/></g><g><path d="m37.9341278 58.9226646-2.3774033-1.3815956 2.7488976 1.1724015 2.3774033 1.3815956z" fill="#ffd651"/></g><g><path d="m37.9527092 65.4770279-2.3774033-1.3815994-.0185814-6.5543595 2.3774033 1.3815956z" fill="#ddb040"/></g><g><path d="m62.9938316 33.1035805.0507088 17.8866691-25.0918312 14.4867783-.0185814-6.5543633 2.7488976 1.1724015 5.6854171-9.8392983 2.4201928 1.5598755 7.2123146-12.3765526 2.6866073 1.9744034z" fill="#efc348"/></g></g></g></g></g></g></svg>