<?xml version="1.0" encoding="UTF-8"?>
<svg xmlns="http://www.w3.org/2000/svg" onmouseup="{ if(window.parent.document.onmouseup) window.parent.document.onmouseup(arguments[0]);}" width="512pt" viewBox="0 -36 512 512" height="512pt"><path d="m504.5 162.46875c0-30.445312-32.316406-50.023438-59.300781-35.929688l-26.476563 13.832032c-12.828125 6.699218-28.121094 6.699218-40.949218 0l-39.746094-20.761719c-28.839844-15.0625-63.226563-15.0625-92.066406 0l-39.746094 20.761719c-12.824219 6.699218-28.121094 6.699218-40.949219 0l-26.476563-13.832032c-26.984374-14.09375-59.300781 5.484376-59.300781 35.929688v270.085938h389.019531c19.878907 0 35.992188-16.113282 35.992188-35.992188zm0 0" fill="#f6e3a3"/><path d="m468.507812 432.554688c-19.878906 0-35.996093-16.113282-35.996093-35.992188v-322.113281c0-30.449219-32.316407-50.027344-59.300781-35.929688l-26.476563 13.828125c-12.828125 6.703125-28.121094 6.703125-40.949219 0l-39.746094-20.757812c-28.839843-15.066406-63.226562-15.066406-92.066406 0l-39.746094 20.757812c-12.828124 6.703125-28.121093 6.703125-40.949218 0l-26.476563-13.828125c-26.984375-14.097656-59.300781 5.480469-59.300781 35.929688v295.515625c0 34.566406 28.023438 62.589844 62.589844 62.589844zm0 0" fill="#fcf2d0"/><path d="m145.019531 46.714844-10.792969 5.632812c-12.824218 6.703125-28.121093 6.703125-40.949218 0l-26.472656-13.828125c-26.988282-14.097656-59.304688 5.480469-59.304688 35.929688v295.515625c0 34.566406 28.023438 62.589844 62.589844 62.589844h166.230468c-95.722656-63.003907-111.761718-271.035157-91.300781-385.839844zm0 0" fill="#f6e3a3"/><path d="m373.210938 38.519531-26.476563 13.828125c-12.828125 6.703125-28.121094 6.703125-40.949219 0l-39.746094-20.757812c-28.839843-15.066406-63.226562-15.066406-92.066406 0l-39.746094 20.757812c-12.824218 6.703125-28.121093 6.703125-40.949218 0l-26.472656-13.828125c-26.988282-14.097656-59.304688 5.480469-59.304688 35.929688v101.921875h425.011719v-101.921875c0-30.449219-32.3125-50.027344-59.300781-35.929688zm0 0" fill="#8eafe2"/><path d="m145.019531 46.714844-10.792969 5.632812c-12.824218 6.703125-28.121093 6.703125-40.949218 0l-26.472656-13.828125c-26.988282-14.097656-59.304688 5.480469-59.304688 35.929688v101.921875h130.4375c-2.21875-47.527344.597656-93.273438 7.082031-129.65625zm0 0" fill="#6a96d7"/><path d="m148.519531 304.902344h-59.921875c-11.597656 0-21-9.398438-21-20.996094v-59.925781c0-11.597657 9.398438-21 21-21h59.921875c11.597657 0 21 9.402343 21 21v59.925781c0 11.597656-9.402343 20.996094-21 20.996094zm0 0" fill="#8ee2cf"/><path d="m88.59375 304.902344h59.925781c3.054688 0 5.945313-.664063 8.5625-1.835938-8.796875-31.734375-14.429687-66-17.375-100.085937h-51.113281c-11.597656 0-20.996094 9.402343-20.996094 21v59.921875c0 11.601562 9.398438 21 20.996094 21zm0 0" fill="#6fce91"/><path d="m336.835938 297.714844 42.140624-42.140625c9.042969-9.042969 9.042969-23.707031 0-32.75-9.042968-9.042969-23.707031-9.042969-32.75 0l-42.140624 42.140625-42.136719-42.140625c-9.042969-9.042969-23.707031-9.042969-32.75 0-9.046875 9.042969-9.046875 23.707031 0 32.75l42.136719 42.140625-42.136719 42.136718c-9.046875 9.042969-9.046875 23.707032 0 32.75 4.523437 4.523438 10.449219 6.785157 16.375 6.785157s11.851562-2.261719 16.371093-6.785157l42.140626-42.136718 42.140624 42.136718c4.519532 4.523438 10.445313 6.785157 16.371094 6.785157 5.925782 0 11.855469-2.261719 16.375-6.785157 9.046875-9.042968 9.046875-23.707031 0-32.75zm0 0" fill="#eda1ab"/><path d="m160.839844 122.582031c0-15.214843-15.492188-27.550781-34.601563-27.550781-19.105469 0-34.597656 12.335938-34.597656 27.550781 0 15.214844 15.492187 27.550781 34.597656 27.550781 19.109375 0 34.601563-12.335937 34.601563-27.550781zm0 0" fill="#fff"/><path d="m348.371094 122.582031c0-15.214843-15.488282-27.550781-34.597656-27.550781-19.109376 0-34.597657 12.335938-34.597657 27.550781 0 15.214844 15.488281 27.550781 34.597657 27.550781 19.109374 0 34.597656-12.335937 34.597656-27.550781zm0 0" fill="#fff"/><path d="m219.949219 107.378906c-4.363281 0-8.722657-1.664062-12.050781-4.992187-6.660157-6.660157-6.660157-17.449219 0-24.109375l65.789062-65.785156c6.65625-6.65625 17.449219-6.65625 24.105469 0s6.65625 17.449218 0 24.105468l-65.789063 65.789063c-3.328125 3.328125-7.691406 4.992187-12.054687 4.992187zm0 0" fill="#efd176"/><path d="m170.859375 370.59375h-104.605469c-4.140625 0-7.5 3.355469-7.5 7.5 0 4.140625 3.359375 7.5 7.5 7.5h104.605469c4.144531 0 7.5-3.359375 7.5-7.5 0-4.144531-3.355469-7.5-7.5-7.5zm0-39.53125h-104.605469c-4.140625 0-7.5 3.359375-7.5 7.5 0 4.144531 3.359375 7.5 7.5 7.5h104.605469c4.144531 0 7.5-3.355469 7.5-7.5 0-4.140625-3.355469-7.5-7.5-7.5zm222.398437-91.863281c0-8.1875-3.1875-15.886719-8.980468-21.675781-5.789063-5.789063-13.488282-8.980469-21.675782-8.980469s-15.886718 3.191406-21.679687 8.980469l-36.835937 36.835937-36.832032-36.835937c-5.792968-5.789063-13.492187-8.980469-21.679687-8.980469s-15.886719 3.191406-21.679688 8.980469c-5.789062 5.789062-8.980469 13.488281-8.980469 21.679687 0 8.1875 3.191407 15.886719 8.980469 21.675781l36.835938 36.835938-36.835938 36.835937c-5.789062 5.789063-8.980469 13.488281-8.980469 21.679688 0 8.1875 3.191407 15.886719 8.980469 21.675781 5.792969 5.789062 13.488281 8.980469 21.679688 8.980469 8.1875 0 15.886719-3.191407 21.679687-8.980469l36.832032-36.835938 36.835937 36.835938c5.792969 5.789062 13.488281 8.980469 21.679687 8.980469 8.1875 0 15.886719-3.191407 21.679688-8.980469 11.953125-11.953125 11.953125-31.402344 0-43.355469l-36.835938-36.835937 36.835938-36.835938c5.789062-5.789062 8.976562-13.488281 8.976562-21.679687zm-19.585937 11.074219-42.140625 42.136718c-2.925781 2.929688-2.925781 7.679688 0 10.605469l42.140625 42.140625c2.957031 2.957031 4.585937 6.890625 4.585937 11.070312 0 4.183594-1.628906 8.117188-4.585937 11.074219s-6.890625 4.585938-11.070313 4.585938c-4.183593 0-8.113281-1.628907-11.070312-4.585938l-42.140625-42.140625c-1.40625-1.40625-3.3125-2.195312-5.304687-2.195312-1.988282 0-3.894532.789062-5.304688 2.195312l-42.136719 42.140625c-2.957031 2.957031-6.890625 4.585938-11.070312 4.585938-4.183594 0-8.113281-1.628907-11.070313-4.585938-2.957031-2.957031-4.589844-6.890625-4.589844-11.070312 0-4.183594 1.632813-8.117188 4.589844-11.074219l42.136719-42.136719c2.929687-2.929687 2.929687-7.679687 0-10.609375l-42.136719-42.136718c-2.957031-2.957032-4.589844-6.890626-4.589844-11.070313 0-4.183594 1.632813-8.113281 4.589844-11.074219 2.957032-2.957031 6.886719-4.585937 11.070313-4.585937 4.183593 0 8.113281 1.628906 11.070312 4.585937l42.136719 42.140625c1.410156 1.40625 3.316406 2.195313 5.304688 2.195313 1.988281 0 3.898437-.789063 5.304687-2.195313l42.140625-42.140625c2.957031-2.957031 6.890625-4.585937 11.070312-4.585937 4.183594 0 8.113282 1.628906 11.070313 4.585937 2.957031 2.960938 4.585937 6.890625 4.585937 11.074219 0 4.179687-1.628906 8.113281-4.585937 11.070313zm-153.664063-99.421876c8.859376 0 17.289063-3.839843 23.121094-10.53125 2.722656-3.125 2.394532-7.859374-.726562-10.582031-3.125-2.722656-7.863282-2.394531-10.582032.726563-2.980468 3.421875-7.289062 5.386718-11.8125 5.386718-4.527343 0-8.832031-1.964843-11.816406-5.386718-2.71875-3.121094-7.457031-3.449219-10.578125-.726563-3.125 2.722657-3.449219 7.457031-.726562 10.582031 5.828125 6.691407 14.257812 10.53125 23.121093 10.53125zm268.847657-29.464843c-14.492188-8.78125-32.109375-9.339844-47.132813-1.492188l-1.710937.894531v-46.339843c0-16.945313-8.652344-32.304688-23.144531-41.082031-14.488282-8.78125-32.109376-9.339844-47.132813-1.496094l-26.472656 13.832031c-10.648438 5.5625-23.359375 5.558594-34.003907 0l-6.546874-3.417969.382812-.382812c4.636719-4.636719 7.1875-10.800782 7.1875-17.355469 0-6.558594-2.554688-12.722656-7.1875-17.355469-4.636719-4.636718-10.800781-7.191406-17.359375-7.191406-6.554687 0-12.71875 2.554688-17.355469 7.1875l-11.996094 11.996094c-28.15625-10.207032-59.179687-8.191406-85.886718 5.757812l-39.742188 20.761719c-10.648437 5.5625-23.359375 5.5625-34.007812 0l-26.472656-13.832031c-12.953126-6.761719-28.027344-7.308594-41.355469-1.496094-13.46875 5.871094-23.386719 17.253906-27.210938 31.230469-1.09375 3.996093 1.261719 8.121093 5.253907 9.210937.664062.183594 1.328124.269532 1.984374.269532 3.296876 0 6.316407-2.191407 7.230469-5.523438 2.621094-9.574219 9.449219-17.390625 18.738281-21.441406 9.285157-4.046875 19.378907-3.675782 28.414063 1.046875l26.476563 13.828125c15 7.835937 32.902343 7.832031 47.894531 0l39.746093-20.757813c20.820313-10.878906 44.695313-13.3125 67.015626-7.128906l-41.867188 41.867187c-2.929688 2.929688-2.929688 7.679688 0 10.605469 2.925781 2.929688 7.675781 2.929688 10.605469 0l50.269531-50.269531c.019531-.015625.035156-.035156.050781-.050781l15.46875-15.46875c1.800781-1.800781 4.199219-2.792969 6.75-2.792969 2.546875 0 4.945313.992188 6.75 2.796875 1.800781 1.800781 2.792969 4.199219 2.792969 6.746094 0 2.550781-.992188 4.949219-2.796875 6.75l-7.59375 7.59375c-.011719.015625-.027344.027343-.039063.042969l-58.152343 58.152343c-2.929688 2.929688-2.929688 7.679688 0 10.605469 1.464843 1.464844 3.382812 2.199219 5.304687 2.199219 1.917969 0 3.835938-.734375 5.300782-2.199219l54.289062-54.289062 10.71875 5.597656c14.992188 7.832031 32.898438 7.835937 47.894531 0l26.476563-13.828125c10.328125-5.394531 22.445312-5.011719 32.414062 1.027343 9.964844 6.039063 15.914063 16.601563 15.914063 28.253907v94.421875h-410.011719v-69.539063c0-4.144531-3.355469-7.5-7.5-7.5s-7.5 3.355469-7.5 7.5v270.636719c0 38.644531 31.441406 70.089844 70.089844 70.089844h398.417968c17.441407 0 33.148438-10.367188 40.007813-26.410156 1.628906-3.808594-.140625-8.214844-3.949219-9.84375-3.8125-1.632813-8.214844.136718-9.84375 3.945312-4.496094 10.515625-14.785156 17.308594-26.214844 17.308594-15.710937 0-28.496093-12.785156-28.496093-28.496094v-258.851562l8.660156-4.523438c10.328125-5.394531 22.445313-5.007812 32.410156 1.027344 9.96875 6.039062 15.917969 16.601562 15.917969 28.257812v212.367188c0 4.140625 3.355469 7.5 7.5 7.5s7.5-3.359375 7.5-7.5v-212.367188c0-16.945312-8.652344-32.304687-23.144531-41.085937zm-418.765625 303.667969c-30.375 0-55.089844-24.710938-55.089844-55.089844v-186.09375h410.011719v212.691406c0 10.886719 4.023437 20.855469 10.660156 28.492188zm214.550781-332.453126c0-4.945312 4.023437-8.96875 8.96875-8.96875s8.96875 4.023438 8.96875 8.96875c0 4.140626 3.359375 7.5 7.5 7.5 4.144531 0 7.5-3.359374 7.5-7.5 0-13.21875-10.753906-23.96875-23.96875-23.96875s-23.96875 10.75-23.96875 23.96875c0 4.140626 3.359375 7.5 7.5 7.5 4.144531 0 7.5-3.359374 7.5-7.5zm-147.203125 0c0-4.945312 4.019531-8.96875 8.964844-8.96875 4.945312 0 8.96875 4.023438 8.96875 8.96875 0 4.140626 3.359375 7.5 7.5 7.5 4.144531 0 7.5-3.359374 7.5-7.5 0-13.21875-10.75-23.96875-23.96875-23.96875-13.214844 0-23.964844 10.75-23.964844 23.96875 0 4.140626 3.355469 7.5 7.5 7.5 4.140625 0 7.5-3.359374 7.5-7.5zm0 0"/></svg>