<?xml version="1.0" encoding="UTF-8"?>
<svg xmlns="http://www.w3.org/2000/svg" onmouseup="{ if(window.parent.document.onmouseup) window.parent.document.onmouseup(arguments[0]);}" width="512" viewBox="0 0 504.5 504.5" height="512" enable-background="new 0 0 504.5 504.5" id="Capa_1"><g><path d="m249.75 285v196.592l-24.87 8.29c-3.93 1.31-6.053 5.557-4.744 9.487 1.31 3.93 5.559 6.054 9.487 4.744l29.998-10c3.063-1.021 5.128-3.887 5.128-7.115v-201.998z" fill="#fff0d3"/><path d="m324.75 285v196.592l24.87 8.29c3.93 1.31 6.053 5.557 4.744 9.487-1.31 3.93-5.559 6.054-9.487 4.744l-29.998-10c-3.063-1.021-5.128-3.887-5.128-7.115v-201.998z" fill="#ffd9d4"/><path d="m196.774 120.985c3.542-9.66 5.476-20.096 5.476-30.985 0-49.706-40.294-90-90-90s-90 40.294-90 90 40.294 90 90 90c26.698 0 50.677-11.629 67.159-30.094h32.841z" fill="#fff0d3"/><path d="m452.25 360-15 30h30c8.284 0 15-6.716 15-15v-15z" fill="#ffa754"/><path d="m452.25 375v-15l-75-38v68h60c8.284 0 15-6.716 15-15z" fill="#ffcb63"/><path d="m422.25 225-30 76 30 59h30v-135z" fill="#ffe2a8"/><path d="m362.25 225v150c0 8.284 6.716 15 15 15s15-6.716 15-15v-15h30v-135z" fill="#fff0d3"/><path d="m319.018 150v31.258c3.416 8.076 11.412 13.742 20.732 13.742 12.426 0 22.5-10.074 22.5-22.5s-10.074-22.5-22.5-22.5z" fill="#ff8646"/><path d="m301.342 134.547-14.092 60.453c24.853 0 45-20.147 45-45z" fill="#ffd9d4"/><path d="m302.25 150c0-5.429-.321-10.634-.908-15.453l-41.095-20.546c-10.928 8.21-17.997 21.278-17.997 35.998 0 24.853 20.147 45 45 45 8.284.001 15-20.146 15-44.999z" fill="#fff0d3"/><path d="m287.25 105 14.899 39.832c9.413 3.341 19.543 5.168 30.101 5.168 0-24.853-20.147-45-45-45z" fill="#ff8646"/><path d="m287.25 105c-10.132 0-19.481 3.35-27.003 9.002 10.532 14.02 25.066 24.856 41.901 30.831-.854-22.418-7.197-39.833-14.898-39.833z" fill="#ffa754"/><path d="m287.25 105c24.853 0 45-20.147 45-45-24.853 0-45 20.147-45 45z" fill="#ff4996"/><path d="m242.25 60c0 24.853 20.147 45 45 45 0-24.853-20.147-45-45-45z" fill="#ff6b8a"/><path d="m242.25 315v60c0 8.284 6.716 15 15 15s15-6.716 15-15v-17.571c4.693 1.659 9.739 2.571 15 2.571s10.307-.912 15-2.571l20-72.429z" fill="#ff6b8a"/><path d="m302.25 285v90c0 8.284 6.716 15 15 15s15-6.716 15-15v-60z" fill="#ff4996"/><path d="m312.25 225h-30l20 90h30v-70c0-11.046-8.955-20-20-20z" fill="#ccc"/><path d="m282.25 225h-20c-11.046 0-20 8.954-20 20v70h60v-70c0-11.046-8.955-20-20-20z" fill="#ebebeb"/><path d="m126.634 27.416c-1.956-1.41-4.47-1.792-6.757-1.031l-45 15c-3.063 1.021-5.128 3.887-5.128 7.115v64.595l-9.87 3.291c-3.93 1.31-6.053 5.558-4.744 9.487 1.311 3.929 5.558 6.051 9.487 4.743l14.997-5.004c2.979-.993 5.13-3.798 5.13-7.112v-34.594l30-10v24.189l-9.87 3.291c-3.93 1.31-6.053 5.558-4.744 9.487 1.311 3.929 5.558 6.051 9.487 4.743l14.997-5.004c2.979-.993 5.13-3.798 5.13-7.112v-70c0-2.411-1.159-4.675-3.115-6.084zm-41.885 40.678v-14.189l30-10v14.189z" fill="#4f4f4f"/><g fill="#353535"><path d="m152.249 71c-4.142 0-7.5 3.357-7.5 7.5v49.595l-9.87 3.29c-3.93 1.31-6.053 5.558-4.744 9.487 1.311 3.93 5.557 6.052 9.487 4.743l14.999-5.005c2.978-.993 5.127-3.798 5.127-7.111v-55c.001-4.142-3.357-7.499-7.499-7.499z"/><path d="m422.25 270h-30c-4.143 0-7.5-3.357-7.5-7.5s3.357-7.5 7.5-7.5h30c4.143 0 7.5 3.357 7.5 7.5s-3.357 7.5-7.5 7.5z"/><path d="m422.25 300h-30c-4.143 0-7.5-3.357-7.5-7.5s3.357-7.5 7.5-7.5h30c4.143 0 7.5 3.357 7.5 7.5s-3.357 7.5-7.5 7.5z"/><path d="m422.25 330h-30c-4.143 0-7.5-3.357-7.5-7.5s3.357-7.5 7.5-7.5h30c4.143 0 7.5 3.357 7.5 7.5s-3.357 7.5-7.5 7.5z"/></g></g></svg>