<?xml version="1.0" encoding="UTF-8"?>
<svg xmlns="http://www.w3.org/2000/svg" onmouseup="{ if(window.parent.document.onmouseup) window.parent.document.onmouseup(arguments[0]);}" width="512" viewBox="0 0 512 512" height="512"><g id="Flat"><g fill="#537ec2"><rect height="312" rx="16" width="64" x="56" y="136"/><rect height="368" rx="16" width="64" x="168" y="80"/><rect height="272" rx="16" width="64" x="280" y="176"/><rect height="424" rx="16" width="64" x="392" y="24"/></g><path d="m142.24 488h-108.48a8.00384 8.00384 0 0 1 -7.8501-9.56982l4.8-24a8.00062 8.00062 0 0 1 7.85016-6.43018h98.87988a8.00062 8.00062 0 0 1 7.8501 6.43018l4.8 24a8.00384 8.00384 0 0 1 -7.85004 9.56982z" fill="#f3b73f"/><path d="m97.76 488h-13.83007a15.93079 15.93079 0 0 1 -1.85986-11.14014l5.67993-28.37986c.03-.16016.07007-.31982.11-.48h8.44006a7.78147 7.78147 0 0 0 -.71 2.0498l-5.68018 28.38038a8.00555 8.00555 0 0 0 7.85012 9.56982z" fill="#e0802b"/><path d="m73.44157 448h-34.88314a8 8 0 0 0 -7.84464 6.43107l-4.8 24a8 8 0 0 0 7.84464 9.56893h44.48314a8 8 0 0 0 7.84464-9.56893l-4.8-24a8 8 0 0 0 -7.84464-6.43107z" fill="#f0cd81"/><path d="m142 488h-52.43529a4 4 0 1 1 0-8h52.43529a4 4 0 0 1 0 8z" fill="#e0802b"/><path d="m204.49 488h-108.49a7.99714 7.99714 0 0 1 -7.84009-9.56982l4.8-24a7.99792 7.99792 0 0 1 7.84014-6.43018h98.88989a7.99792 7.99792 0 0 1 7.84009 6.43018l4.8 24a8.00217 8.00217 0 0 1 -7.84003 9.56982z" fill="#f3b73f"/><path d="m192 448-30 40h-14a8.05194 8.05194 0 0 0 6.4-3.2002l27.6-36.7998z" fill="#e0802b"/><path d="m135.68586 448h-34.88314a8 8 0 0 0 -7.84465 6.43107l-4.8 24a8 8 0 0 0 7.84465 9.56893h44.48314a8 8 0 0 0 7.84464-9.56893l-4.8-24a8 8 0 0 0 -7.84464-6.43107z" fill="#f0cd81"/><path d="m204.24429 488h-52.43529a4 4 0 0 1 0-8h52.4353a4 4 0 0 1 0 8z" fill="#e0802b"/><path d="m265.44157 448h-98.88314a8 8 0 0 0 -7.84464 6.43107l-4.8 24a8 8 0 0 0 7.84464 9.56893h108.48314a8 8 0 0 0 7.84464-9.56893l-4.8-24a8 8 0 0 0 -7.84464-6.43107z" fill="#f3b73f"/><path d="m201.44157 448h-34.88314a8 8 0 0 0 -7.84464 6.43107l-4.8 24a8 8 0 0 0 7.84464 9.56893h44.48314a8 8 0 0 0 7.84464-9.56893l-4.8-24a8 8 0 0 0 -7.84464-6.43107z" fill="#f0cd81"/><path d="m270 488h-52.43529a4 4 0 0 1 0-8h52.43529a4 4 0 0 1 0 8z" fill="#e0802b"/><path d="m329.44157 448h-98.88314a8 8 0 0 0 -7.84464 6.43107l-4.8 24a8 8 0 0 0 7.84464 9.56893h108.48314a8 8 0 0 0 7.84464-9.56893l-4.8-24a8 8 0 0 0 -7.84464-6.43107z" fill="#f3b73f"/><path d="m265.44157 448h-34.88314a8 8 0 0 0 -7.84464 6.43107l-4.8 24a8 8 0 0 0 7.84464 9.56893h44.48314a8 8 0 0 0 7.84464-9.56893l-4.8-24a8 8 0 0 0 -7.84464-6.43107z" fill="#f0cd81"/><path d="m334 488h-52.43529a4 4 0 0 1 0-8h52.43529a4 4 0 0 1 0 8z" fill="#e0802b"/><path d="m214.24 408h-108.48a8.00384 8.00384 0 0 1 -7.8501-9.56982l4.8-24a8.00062 8.00062 0 0 1 7.85016-6.43018h98.87988a8.00062 8.00062 0 0 1 7.8501 6.43018l4.8 24a8.00384 8.00384 0 0 1 -7.85004 9.56982z" fill="#f3b73f"/><path d="m200.93994 408h-8.93994l-5.79-11.58008a7.93752 7.93752 0 0 0 -7.14994-4.41992h-31.38013a7.97682 7.97682 0 0 0 -6.05993 2.77979l-11.33 13.22021h-10.54l15.78-18.41016a15.99626 15.99626 0 0 1 12.14993-5.58984h31.38013a15.91957 15.91957 0 0 1 14.30994 8.83984z" fill="#e0802b"/><path d="m145.44157 368h-34.88314a8 8 0 0 0 -7.84464 6.43107l-4.8 24a8 8 0 0 0 7.84464 9.56893h44.48314a8 8 0 0 0 7.84464-9.56893l-4.8-24a8 8 0 0 0 -7.84464-6.43107z" fill="#f0cd81"/><path d="m214 408h-52.43529a4 4 0 0 1 0-8h52.43529a4 4 0 0 1 0 8z" fill="#e0802b"/><path d="m176 448h-108.49a8.00217 8.00217 0 0 1 -7.84009-9.56982l4.80005-24a7.99792 7.99792 0 0 1 7.8401-6.43018h98.88994a7.99792 7.99792 0 0 1 7.84009 6.43018l4.8 24a7.99714 7.99714 0 0 1 -7.84009 9.56982z" fill="#f3b73f"/><path d="m130.29 408-32.93 38.41016a8.00407 8.00407 0 0 0 -1.05995 1.58984h-8.44005a15.9157 15.9157 0 0 1 3.43-6.79l28.46-33.21z" fill="#e0802b"/><path d="m107.19728 408h-34.88314a8 8 0 0 0 -7.84464 6.43107l-4.8 24a8 8 0 0 0 7.84464 9.56893h44.48314a8 8 0 0 0 7.84465-9.56893l-4.8-24a8 8 0 0 0 -7.84465-6.43107z" fill="#f0cd81"/><path d="m175.75571 448h-52.43529a4 4 0 0 1 0-8h52.43529a4 4 0 1 1 0 8z" fill="#e0802b"/><path d="m244.49 448h-108.49a7.99714 7.99714 0 0 1 -7.84009-9.56982l4.8-24a7.99792 7.99792 0 0 1 7.84014-6.43018h98.88989a7.99792 7.99792 0 0 1 7.84009 6.43018l4.8 24a8.00217 8.00217 0 0 1 -7.84003 9.56982z" fill="#f3b73f"/><path d="m203.42993 432.75977-11.42993 15.24023h-10l15.03-20.04a7.96845 7.96845 0 0 0 .76-8.37988l-5.79-11.58012h8.93994l4 8a15.91379 15.91379 0 0 1 -1.51001 16.75977z" fill="#e0802b"/><path d="m175.68586 408h-34.88314a8 8 0 0 0 -7.84465 6.43107l-4.8 24a8 8 0 0 0 7.84465 9.56893h44.48314a8 8 0 0 0 7.84464-9.56893l-4.8-24a8 8 0 0 0 -7.84464-6.43107z" fill="#f0cd81"/><path d="m244.24429 448h-52.43529a4 4 0 0 1 0-8h52.4353a4 4 0 0 1 0 8z" fill="#e0802b"/><path d="m273.44157 368h-98.88314a8 8 0 0 0 -7.84464 6.43107l-4.8 24a8 8 0 0 0 7.84464 9.56893h108.48314a8 8 0 0 0 7.84464-9.56893l-4.8-24a8 8 0 0 0 -7.84464-6.43107z" fill="#f3b73f"/><path d="m209.44157 368h-34.88314a8 8 0 0 0 -7.84464 6.43107l-4.8 24a8 8 0 0 0 7.84464 9.56893h44.48314a8 8 0 0 0 7.84464-9.56893l-4.8-24a8 8 0 0 0 -7.84464-6.43107z" fill="#f0cd81"/><path d="m278 408h-52.43529a4 4 0 0 1 0-8h52.43529a4 4 0 0 1 0 8z" fill="#e0802b"/><path d="m305.56657 408h-98.88314a8 8 0 0 0 -7.84464 6.43107l-4.8 24a8 8 0 0 0 7.84464 9.56893h108.48314a8 8 0 0 0 7.84464-9.56893l-4.8-24a8 8 0 0 0 -7.84464-6.43107z" fill="#f3b73f"/><path d="m241.56657 408h-34.88314a8 8 0 0 0 -7.84464 6.43107l-4.8 24a8 8 0 0 0 7.84464 9.56893h44.48314a8 8 0 0 0 7.84464-9.56893l-4.8-24a8 8 0 0 0 -7.84464-6.43107z" fill="#f0cd81"/><path d="m310.125 448h-52.43529a4 4 0 0 1 0-8h52.43529a4 4 0 0 1 0 8z" fill="#e0802b"/><path d="m141.60543 394.79367-44.24485 51.619a8 8 0 0 0 -1.77059 3.6374l-5.6762 28.381a8 8 0 0 0 7.84464 9.56893h50.24157a8 8 0 0 0 6.4-3.2l42.63344-56.84458a8 8 0 0 0 .75541-8.37771l-11.5777-23.15542a8 8 0 0 0 -7.15542-4.42229h-31.37625a8 8 0 0 0 -6.07405 2.79367z" fill="#f3b73f"/><path d="m137.44157 448h-34.88314a8 8 0 0 0 -7.84464 6.43107l-4.8 24a8 8 0 0 0 7.84464 9.56893h44.48314a8 8 0 0 0 7.84464-9.56893l-4.8-24a8 8 0 0 0 -7.84464-6.43107z" fill="#f0cd81"/><path d="m155.42529 436a4.00027 4.00027 0 0 1 -3.25146-6.3252l17.14258-24a4.0001 4.0001 0 0 1 6.50976 4.6504l-17.14258 24a3.995 3.995 0 0 1 -3.2583 1.6748z" fill="#f0cd81"/><path d="m408 255.72531h-64.91016c-12.88964-12.89014-20.88964-48-8-48h32c.31006 0 .62012.01.91016.03v-.03c0-6.43994 0-16 16-16h24c24 0 12.89014 38.22998 0 64z" fill="#a06443"/><path d="m366.81982 227.65524a4.00551 4.00551 0 0 1 -4.67968-3.17993c-1.10987-5.8-2.14014-11.8501-2.14014-16.75h7.08984c.31006 0 .62012.01.91016.03 0 4.23.96 9.80981 1.99023 15.22a3.99331 3.99331 0 0 1 -3.17041 4.67993z" fill="#632b1a"/><path d="m376.33984 263.72531h-8.02a201.15339 201.15339 0 0 0 -3.07959-23.28 4.00014 4.00014 0 0 1 7.86963-1.43994 206.22158 206.22158 0 0 1 3.22996 24.71994z" fill="#632b1a"/><path d="m408 287.72531a94.64026 94.64026 0 0 0 26.90809 40.80718l21.32715 18.95751a94.64048 94.64048 0 0 1 31.76476 70.73513v.00011a69.62409 69.62409 0 0 1 -69.5 69.624l-84.49355.15066a69.7998 69.7998 0 0 1 -69.92412-69.66475v-.00015a94.64047 94.64047 0 0 1 31.76467-70.9181l21.24494-18.88439a94.64026 94.64026 0 0 0 26.90806-40.80718z" fill="#a06443"/><rect fill="#0a4b69" height="16" rx="8" width="80" x="336" y="255.725"/><rect fill="#0a4b69" height="16" rx="8" width="80" x="336" y="271.725"/><path d="m408 275.72531h-64a4 4 0 0 1 0-8h64a4 4 0 0 1 0 8z" fill="#133852"/><path d="m352 319.72531a8 8 0 0 1 -8-8v-24a32 32 0 0 1 32-32v16a16 16 0 0 0 -16 16v24a8 8 0 0 1 -8 8z" fill="#0e638b"/><path d="m400 319.72531a8 8 0 0 0 8-8v-24a32 32 0 0 0 -32-32v16a16 16 0 0 1 16 16v24a8 8 0 0 0 8 8z" fill="#0e638b"/><rect fill="#0e638b" height="48" rx="8" width="16" x="376" y="247.725"/><rect fill="#0e638b" height="48" rx="8" width="16" x="360" y="247.725"/><rect fill="#0c6c71" height="48" rx="8.041" width="144" x="248" y="439.725"/><rect fill="#03999c" height="48" rx="8.041" width="64" x="248" y="439.725"/><path d="m368 479.68455a8.04076 8.04076 0 0 1 -8.04076 8.04076h-24a8.04076 8.04076 0 0 0 8.04076-8.04076v-31.91848a8.04076 8.04076 0 0 0 -8.04076-8.04076h24a8.04076 8.04076 0 0 1 8.04076 8.04076z" fill="#f3b73f"/><path d="m331.98454 455.73179a4.13914 4.13914 0 0 1 -4.19047 3.64343h-15.75331a.04076.04076 0 0 1 -.04076-.04077v-7.91845a.04076.04076 0 0 1 .04076-.04076h15.95924a3.99977 3.99977 0 0 1 3.98454 4.35655z" fill="#2b504d"/><path d="m312 451.416v7.91848a.04076.04076 0 0 1 -.04076.04076h-47.75331a4.13914 4.13914 0 0 1 -4.19047-3.64343 3.99977 3.99977 0 0 1 3.98454-4.3566h47.95924a.04076.04076 0 0 1 .04076.04079z" fill="#0c6c71"/><path d="m331.98454 471.73179a4.13914 4.13914 0 0 1 -4.19047 3.64343h-15.75331a.04076.04076 0 0 1 -.04076-.04077v-7.91845a.04076.04076 0 0 1 .04076-.04076h15.95924a3.99977 3.99977 0 0 1 3.98454 4.35655z" fill="#2b504d"/><path d="m312 467.416v7.91848a.04076.04076 0 0 1 -.04076.04076h-47.75331a4.13914 4.13914 0 0 1 -4.19047-3.64343 3.99977 3.99977 0 0 1 3.98454-4.3566h47.95924a.04076.04076 0 0 1 .04076.04079z" fill="#0c6c71"/><path d="m392 459.37668h-7.7924a4.14052 4.14052 0 0 1 -4.192-3.64155 4.0008 4.0008 0 0 1 3.9844-4.35845h7.7924a4.14052 4.14052 0 0 1 4.192 3.64156 4.00081 4.00081 0 0 1 -3.9844 4.35844z" fill="#2b504d"/><path d="m392 475.37668h-7.7924a4.14052 4.14052 0 0 1 -4.192-3.64155 4.0008 4.0008 0 0 1 3.9844-4.35845h7.7924a4.14052 4.14052 0 0 1 4.192 3.64156 4.00081 4.00081 0 0 1 -3.9844 4.35844z" fill="#2b504d"/><rect fill="#0c6c71" height="48" rx="8.041" width="144" x="344" y="439.725"/><rect fill="#03999c" height="48" rx="8.041" width="64" x="344" y="439.725"/><path d="m464 479.68455a8.04076 8.04076 0 0 1 -8.04076 8.04076h-24a8.04076 8.04076 0 0 0 8.04076-8.04076v-31.91848a8.04076 8.04076 0 0 0 -8.04076-8.04076h24a8.04076 8.04076 0 0 1 8.04076 8.04076z" fill="#f3b73f"/><path d="m427.98454 455.73179a4.13914 4.13914 0 0 1 -4.19047 3.64343h-15.75331a.04076.04076 0 0 1 -.04076-.04077v-7.91845a.04076.04076 0 0 1 .04076-.04076h15.95924a3.99977 3.99977 0 0 1 3.98454 4.35655z" fill="#2b504d"/><path d="m408 451.416v7.91848a.04076.04076 0 0 1 -.04076.04076h-47.75331a4.13914 4.13914 0 0 1 -4.19047-3.64343 3.99977 3.99977 0 0 1 3.98454-4.3566h47.95924a.04076.04076 0 0 1 .04076.04079z" fill="#0c6c71"/><path d="m427.98454 471.73179a4.13914 4.13914 0 0 1 -4.19047 3.64343h-15.75331a.04076.04076 0 0 1 -.04076-.04077v-7.91845a.04076.04076 0 0 1 .04076-.04076h15.95924a3.99977 3.99977 0 0 1 3.98454 4.35655z" fill="#2b504d"/><path d="m408 467.416v7.91848a.04076.04076 0 0 1 -.04076.04076h-47.75331a4.13914 4.13914 0 0 1 -4.19047-3.64343 3.99977 3.99977 0 0 1 3.98454-4.3566h47.95924a.04076.04076 0 0 1 .04076.04079z" fill="#0c6c71"/><path d="m488 459.37668h-7.7924a4.14052 4.14052 0 0 1 -4.192-3.64155 4.0008 4.0008 0 0 1 3.9844-4.35845h7.7924a4.14052 4.14052 0 0 1 4.192 3.64156 4.00081 4.00081 0 0 1 -3.9844 4.35844z" fill="#2b504d"/><path d="m488 475.37668h-7.7924a4.14052 4.14052 0 0 1 -4.192-3.64155 4.0008 4.0008 0 0 1 3.9844-4.35845h7.7924a4.14052 4.14052 0 0 1 4.192 3.64156 4.00081 4.00081 0 0 1 -3.9844 4.35844z" fill="#2b504d"/><rect fill="#0c6c71" height="48" rx="8.041" width="144" x="288" y="391.725"/><rect fill="#03999c" height="48" rx="8.041" width="64" x="288" y="391.725"/><path d="m408 431.68455a8.04076 8.04076 0 0 1 -8.04076 8.04076h-24a8.04076 8.04076 0 0 0 8.04076-8.04076v-31.91848a8.04076 8.04076 0 0 0 -8.04076-8.04076h24a8.04076 8.04076 0 0 1 8.04076 8.04076z" fill="#f3b73f"/><path d="m371.98454 407.73179a4.13914 4.13914 0 0 1 -4.19047 3.64343h-15.75331a.04076.04076 0 0 1 -.04076-.04077v-7.91845a.04076.04076 0 0 1 .04076-.04076h15.95924a3.99977 3.99977 0 0 1 3.98454 4.35655z" fill="#2b504d"/><path d="m352 403.416v7.91848a.04076.04076 0 0 1 -.04076.04076h-47.75331a4.13914 4.13914 0 0 1 -4.19047-3.64343 3.99977 3.99977 0 0 1 3.98454-4.3566h47.95924a.04076.04076 0 0 1 .04076.04079z" fill="#0c6c71"/><path d="m371.98454 423.73179a4.13914 4.13914 0 0 1 -4.19047 3.64343h-15.75331a.04076.04076 0 0 1 -.04076-.04077v-7.91845a.04076.04076 0 0 1 .04076-.04076h15.95924a3.99977 3.99977 0 0 1 3.98454 4.35655z" fill="#2b504d"/><path d="m352 419.416v7.91848a.04076.04076 0 0 1 -.04076.04076h-47.75331a4.13914 4.13914 0 0 1 -4.19047-3.64343 3.99977 3.99977 0 0 1 3.98454-4.3566h47.95924a.04076.04076 0 0 1 .04076.04079z" fill="#0c6c71"/><path d="m432 411.37668h-7.7924a4.14052 4.14052 0 0 1 -4.192-3.64155 4.0008 4.0008 0 0 1 3.9844-4.35845h7.7924a4.14052 4.14052 0 0 1 4.192 3.64156 4.00081 4.00081 0 0 1 -3.9844 4.35844z" fill="#2b504d"/><path d="m432 427.37668h-7.7924a4.14052 4.14052 0 0 1 -4.192-3.64155 4.0008 4.0008 0 0 1 3.9844-4.35845h7.7924a4.14052 4.14052 0 0 1 4.192 3.64156 4.00081 4.00081 0 0 1 -3.9844 4.35844z" fill="#2b504d"/><path d="m408 379.72532a12 12 0 0 1 -12 12h-48a12 12 0 0 0 12-12 12 12 0 0 0 -12-12h48a12 12 0 0 1 12 12z" fill="#03999c"/><path d="m376 291.72531a4.0002 4.0002 0 0 1 -4-4v-32a4 4 0 0 1 8 0v32a4.0002 4.0002 0 0 1 -4 4z" fill="#0a4b69"/><path d="m356 291.72531a4.0002 4.0002 0 0 1 -4-4v-27.708a4 4 0 0 1 8 0v27.708a4.0002 4.0002 0 0 1 -4 4z" fill="#133852"/><path d="m396 291.68332a4.0002 4.0002 0 0 1 -4-4v-24.93848a4 4 0 0 1 8 0v24.93848a4.0002 4.0002 0 0 1 -4 4z" fill="#133852"/></g></svg>