<?xml version="1.0" encoding="UTF-8"?>
<svg xmlns="http://www.w3.org/2000/svg" onmouseup="{ if(window.parent.document.onmouseup) window.parent.document.onmouseup(arguments[0]);}" width="484pt" viewBox="-77 0 484 484.47991" height="484pt"><path d="m220 0c-16.574219.078125-29.96875 13.535156-29.96875 30.109375v180.660156h-139.839844v-180.800781c-.003906-16.546875 13.410156-29.96484375 29.957032-29.96875zm0 0" fill="#e48e66"/><path d="m240.238281 304.738281c49.609375.074219 89.777344 40.328125 89.742188 89.9375-.035157 49.609375-40.261719 89.804688-89.871094 89.804688s-89.832031-40.195313-89.871094-89.804688c-.035156-49.609375 40.132813-89.863281 89.742188-89.9375zm0 0" fill="#6fe3ff"/><path d="m220.140625 0c16.625.0078125 30.097656 13.484375 30.097656 30.109375v58.070313l-60.207031-.960938v-57.109375c0-16.574219 13.394531-30.03125 29.96875-30.109375zm0 0" fill="#cc7350"/><path d="m170.050781 255.71875h39.960938v39.960938h-39.960938zm0 0" fill="#6fe3ff"/><path d="m190.03125 150.839844h19.980469v59.929687h-19.980469zm0 0" fill="#6fe3ff"/><path d="m204.761719 477.480469h-194.523438c-5.519531 0-10-4.476563-10-10v-336.609375c0-5.523438 4.480469-10 10-10h39.953125v29.96875h-19.980468v59.929687h179.800781v-59.929687h-19.980469v-29.96875h39.949219c5.523437 0 10 4.476562 10 10v173.867187c-42.679688.132813-79.398438 30.21875-87.925781 72.035157-8.523438 41.816406 13.484374 83.875 52.707031 100.707031zm5.25-181.800781v-39.960938h-39.960938v39.960938zm-72.921875 139.839843v-39.949219h-39.960938v39.949219zm0-69.917969v-39.960937h-39.960938v39.960937zm0-69.921874v-39.960938h-39.960938v39.960938zm-66.929688 139.839843v-39.949219h-39.949218v39.949219zm0-69.917969v-109.882812h-39.949218v109.882812zm0 0" fill="#f8ec7d"/><path d="m97.128906 395.570312h39.960938v39.949219h-39.960938zm0 0" fill="#6fe3ff"/><path d="m97.128906 325.640625h39.960938v39.960937h-39.960938zm0 0" fill="#6fe3ff"/><path d="m97.128906 255.71875h39.960938v39.960938h-39.960938zm0 0" fill="#6fe3ff"/><path d="m30.210938 395.570312h39.949218v39.949219h-39.949218zm0 0" fill="#6fe3ff"/><path d="m30.210938 255.71875h39.949218v109.882812h-39.949218zm0 0" fill="#6fe3ff"/><path d="m30.210938 150.839844h19.980468v59.929687h-19.980468zm0 0" fill="#6fe3ff"/><g fill="#f8ec7d"><path d="m166.171875 65.488281h-12.441406c-3.3125 0-6-2.683593-6-6 0-3.3125 2.6875-6 6-6h12.441406c3.3125 0 6 2.6875 6 6 0 3.316407-2.6875 6-6 6zm0 0"/><path d="m132.230469 65.488281h-60.121094c-3.3125 0-6-2.683593-6-6 0-3.3125 2.6875-6 6-6h60.121094c3.3125 0 6 2.6875 6 6 0 3.316407-2.6875 6-6 6zm0 0"/><path d="m166.171875 184.800781h-22.433594c-3.3125 0-6-2.6875-6-6 0-3.316406 2.6875-6 6-6h22.433594c3.3125 0 6 2.683594 6 6 0 3.3125-2.6875 6-6 6zm0 0"/><path d="m127.101562 184.800781h-3.339843c-3.316407 0-6-2.6875-6-6 0-3.316406 2.683593-6 6-6h3.339843c3.3125 0 6 2.683594 6 6 0 3.3125-2.6875 6-6 6zm0 0"/><path d="m166.171875 35.5h-12.441406c-3.3125 0-6-2.6875-6-6s2.6875-6 6-6h12.441406c3.3125 0 6 2.6875 6 6s-2.6875 6-6 6zm0 0"/><path d="m132.230469 35.5h-60.121094c-3.3125 0-6-2.6875-6-6s2.6875-6 6-6h60.121094c3.3125 0 6 2.6875 6 6s-2.6875 6-6 6zm0 0"/><path d="m166.171875 95.480469h-12.441406c-3.3125 0-6-2.6875-6-6s2.6875-6 6-6h12.441406c3.3125 0 6 2.6875 6 6s-2.6875 6-6 6zm0 0"/><path d="m132.230469 95.480469h-60.121094c-3.3125 0-6-2.6875-6-6s2.6875-6 6-6h60.121094c3.3125 0 6 2.6875 6 6s-2.6875 6-6 6zm0 0"/><path d="m166.171875 125.480469h-12.441406c-3.3125 0-6-2.6875-6-6s2.6875-6 6-6h12.441406c3.3125 0 6 2.6875 6 6s-2.6875 6-6 6zm0 0"/><path d="m132.230469 125.480469h-60.121094c-3.3125 0-6-2.6875-6-6s2.6875-6 6-6h60.121094c3.3125 0 6 2.6875 6 6s-2.6875 6-6 6zm0 0"/><path d="m166.171875 155.46875h-12.441406c-3.3125 0-6-2.683594-6-6 0-3.3125 2.6875-6 6-6h12.441406c3.3125 0 6 2.6875 6 6 0 3.316406-2.6875 6-6 6zm0 0"/><path d="m132.230469 155.46875h-60.121094c-3.3125 0-6-2.683594-6-6 0-3.3125 2.6875-6 6-6h60.121094c3.3125 0 6 2.6875 6 6 0 3.316406-2.6875 6-6 6zm0 0"/></g><path d="m273.996094 366.429688-13.722656-.144532c-1.027344-6.285156-3.761719-12.164062-7.898438-17l21.800781.230469h.0625c3.316407.015625 6.015625-2.65625 6.03125-5.96875.019531-3.316406-2.652343-6.015625-5.96875-6.03125l-48.097656-.507813-19.28125-.210937h-.066406c-3.3125-.019531-6.015625 2.652344-6.03125 5.96875-.019531 3.3125 2.652343 6.011719 5.96875 6.03125l19.28125.210937c10.332031.125 19.304687 7.144532 21.921875 17.140626l-41.386719-.441407h-.0625c-3.316406-.019531-6.015625 2.652344-6.03125 5.96875-.019531 3.3125 2.65625 6.011719 5.96875 6.03125l41.378906.441407c-2.8125 9.84375-11.796875 16.644531-22.035156 16.679687h-.242187l-19.28125-.207031c-2.457032-.027344-4.683594 1.445312-5.617188 3.722656-.933594 2.273438-.382812 4.886719 1.382812 6.59375l47.703126 46.058594c2.382812 2.300781 6.179687 2.234375 8.484374-.148438 2.300782-2.382812 2.234376-6.183594-.148437-8.484375l-36.847656-35.578125 4.566406.042969c16.800781-.0625 31.195313-12.035156 34.3125-28.546875l13.722656.148438h.066407c3.3125.019531 6.011718-2.652344 6.03125-5.96875.015624-3.3125-2.65625-6.011719-5.96875-6.03125zm0 0" fill="#2561a1"/></svg>