<?xml version="1.0" encoding="UTF-8"?>
<svg xmlns="http://www.w3.org/2000/svg" onmouseup="{ if(window.parent.document.onmouseup) window.parent.document.onmouseup(arguments[0]);}" width="512" viewBox="0 0 64 64" height="512" enable-background="new 0 0 64 64" id="Layer_5"><g><g><g><path d="m48 10v2c0 .55-.45 1-1 1h-3-24-3c-.55 0-1-.45-1-1v-2c0-.55.45-1 1-1h30c.55 0 1 .45 1 1z" fill="#aab2bd"/></g><g><path d="m44 16v1s-1.69.48-4 .98c-2.4.5-5.46 1.02-8 1.02s-5.6-.52-8-1.02v-.01c-2.31-.49-4-.97-4-.97 0-.58 0-1 0-1v-3h24z" fill="#ccd1d9"/></g><g><path d="m46 37.5c0 1.04-.29 1.69-.65 2.24-2.01-2.06-4.58-3.59-7.49-4.36-.6-.16-1.22-.29-1.86-.38l-.6-3.02c2.57-.2 4.6-2.36 4.6-4.98v-9-.02c2.31-.5 4-.98 4-.98v3 1c0 2.75 2 2.75 2 5.49 0 2.75-2 2.75-2 5.5 0 2.76 2 2.76 2 5.51z" fill="#fcd770"/></g><g><path d="m28.6 31.98-.6 3.02c-.64.09-1.26.22-1.86.38-2.91.77-5.48 2.3-7.49 4.36l-.02-.02c-.35-.55-.63-1.19-.63-2.22 0-2.75 2-2.75 2-5.51 0-2.75-2-2.75-2-5.5 0-2.74 2-2.74 2-5.49v-1c0-.62 0-2.03 0-3 0 0 1.69.48 4 .97v.01 9.02c0 2.62 2.03 4.78 4.6 4.98z" fill="#fcd770"/></g><g><path d="m50 51.14v.86c0 2.21-1.79 4-4 4h-2v-10c0-1.1-.9-2-2-2h-5l.86-8.62c2.91.77 5.48 2.3 7.49 4.36.23.23.45.47.66.72 2.5 2.88 3.99 6.62 3.99 10.68z" fill="#ff826e"/></g><g><path d="m37 44h-10l5-5z" fill="#ff826e"/></g><g><path d="m26.14 35.38.86 8.62h-5c-1.1 0-2 .9-2 2v10h-2c-2.21 0-4-1.79-4-4v-.86c0-4.06 1.49-7.8 3.99-10.68.21-.25.43-.49.66-.72 2.01-2.06 4.58-3.59 7.49-4.36z" fill="#ff826e"/></g><g><path d="m37.86 35.38-.86 8.62-5-5 4-4c.64.09 1.26.22 1.86.38z" fill="#fc6e51"/></g><g><path d="m32 39-5 5-.86-8.62c.6-.16 1.22-.29 1.86-.38z" fill="#fc6e51"/></g><g><path d="m20 58h24c0 2.21-1.79 4-4 4h-16c-2.21 0-4-1.79-4-4z" fill="#aab2bd"/></g><g><path d="m44 56v2h-24v-2-10c0-1.1.9-2 2-2h5 10 5c1.1 0 2 .9 2 2z" fill="#ccd1d9"/></g><g><circle cx="32" cy="50" fill="#69d6f4" r="2"/></g><g><path d="m35.4 31.98.6 3.02-4 4-4-4 .6-3.02c.13.01.26.02.4.02h6c.14 0 .27-.01.4-.02z" fill="#f0d0b4"/></g><g><path d="m40 18v9c0 2.62-2.03 4.78-4.6 4.98-.13.01-.26.02-.4.02h-6c-.14 0-.27-.01-.4-.02-2.57-.2-4.6-2.36-4.6-4.98v-9.02c2.4.5 5.46 1.02 8 1.02s5.6-.52 8-1.02z" fill="#f0d0b4"/></g></g><g><path d="m32 51c-.552 0-1-.448-1-1s.448-1 1-1v-2c-1.654 0-3 1.346-3 3s1.346 3 3 3 3-1.346 3-3h-2c0 .552-.448 1-1 1z"/><circle cx="36" cy="22" r="1"/><circle cx="28" cy="22" r="1"/><path d="m29 29h4c2.206 0 4-1.794 4-4h-2c0 1.103-.897 2-2 2h-4z"/><path d="m59 9h-2c-1.103 0-2-.897-2-2s.897-2 2-2h2c1.103 0 2 .897 2 2h2c0-2.206-1.794-4-4-4v-2h-2v2c-2.206 0-4 1.794-4 4s1.794 4 4 4h2c1.103 0 2 .897 2 2s-.897 2-2 2h-2c-1.103 0-2-.897-2-2v-1h-2v1c0 2.206 1.794 4 4 4v2h2v-2c2.206 0 4-1.794 4-4s-1.794-4-4-4z"/><path d="m53.168 28.445 1.664 1.11 2.168-3.252v21.697h2v-21.697l2.168 3.252 1.664-1.11-4.832-7.248z"/><path d="m57 50h2v2h-2z"/><path d="m5 5h2c1.103 0 2 .897 2 2h2c0-2.206-1.794-4-4-4v-2h-2v2c-2.206 0-4 1.794-4 4s1.794 4 4 4h2c1.103 0 2 .897 2 2s-.897 2-2 2h-2c-1.103 0-2-.897-2-2v-1h-2v1c0 2.206 1.794 4 4 4v2h2v-2c2.206 0 4-1.794 4-4s-1.794-4-4-4h-2c-1.103 0-2-.897-2-2s.897-2 2-2z"/><path d="m1.168 28.445 1.664 1.11 2.168-3.252v21.697h2v-21.697l2.168 3.252 1.664-1.11-4.832-7.248z"/><path d="m5 50h2v2h-2z"/><path d="m47 37.497c0-1.701-.66-2.609-1.191-3.34-.47-.646-.809-1.113-.809-2.163 0-1.049.339-1.516.809-2.161.531-.73 1.191-1.638 1.191-3.338 0-1.699-.661-2.607-1.191-3.336-.47-.645-.809-1.111-.809-2.159v-3.246-1.754-2h2c1.103 0 2-.897 2-2v-2c0-1.103-.897-2-2-2h-30c-1.103 0-2 .897-2 2v2c0 1.103.897 2 2 2h2v2 1.754 3.246c0 1.048-.339 1.514-.809 2.159-.53.729-1.191 1.636-1.191 3.336s.66 2.608 1.191 3.338c.47.645.809 1.111.809 2.161s-.339 1.517-.809 2.164c-.531.73-1.191 1.638-1.191 3.339 0 .931.203 1.603.447 2.127-2.765 3.089-4.447 7.143-4.447 11.519v.857c0 2.757 2.243 5 5 5h1v1c0 2.757 2.243 5 5 5h16c2.757 0 5-2.243 5-5v-1h1c2.757 0 5-2.243 5-5v-.857c0-4.376-1.682-8.431-4.448-11.52.245-.527.448-1.199.448-2.126zm-2.809-8.841c-.531.73-1.191 1.637-1.191 3.338s.66 2.609 1.191 3.339c.47.646.809 1.113.809 2.164 0 .203-.014.383-.038.548-2.264-1.957-5.04-3.348-8.118-3.92l-.269-1.342c2.546-.695 4.425-3.021 4.425-5.783v-8.22c.779-.175 1.463-.341 2-.479v2.699c0 1.699.66 2.606 1.191 3.335.47.645.809 1.111.809 2.16s-.339 1.515-.809 2.161zm-1.191 28.344h-22v-11c0-.552.448-1 1-1h20c.552 0 1 .448 1 1zm-18-37.801c2.212.428 4.78.801 7 .801s4.788-.373 7-.801v7.801c0 2.206-1.794 4-4 4h-6c-2.206 0-4-1.794-4-4zm9.58 13.801.334 1.672-2.914 2.914-2.914-2.914.334-1.672zm-6.913 3.081 2.919 2.919-2.801 2.801-.564-5.635c.148-.031.297-.059.446-.085zm4.333 4.333 2.586 2.586h-5.172zm1.414-1.414 2.919-2.919c.149.026.298.054.445.085l-.564 5.635zm-16.414-29h30l.001 2h-30.001zm4 4h22v2 .234c-1.896.497-7.116 1.766-11 1.766-3.879 0-9.104-1.269-11-1.766v-.234zm-1.191 21.333c.531-.73 1.191-1.639 1.191-3.339s-.66-2.608-1.191-3.338c-.47-.646-.809-1.112-.809-2.161 0-1.048.339-1.514.809-2.159.531-.73 1.191-1.637 1.191-3.336v-2.698c.537.137 1.221.304 2 .479v8.219c0 2.762 1.879 5.088 4.424 5.783l-.269 1.342c-3.078.571-5.854 1.962-8.118 3.92-.023-.165-.037-.345-.037-.548 0-1.051.339-1.518.809-2.164zm-1.809 19.667c-1.654 0-3-1.346-3-3v-.857c0-6.563 4.251-12.327 10.265-14.442l.63 6.299h-3.895c-1.654 0-3 1.346-3 3v9zm22 6h-16c-1.302 0-2.402-.839-2.816-2h21.631c-.413 1.161-1.513 2-2.815 2zm9-9c0 1.654-1.346 3-3 3h-1v-9c0-1.654-1.346-3-3-3h-3.895l.63-6.299c6.014 2.115 10.265 7.879 10.265 14.442z"/></g></g></svg>