<?xml version="1.0" encoding="UTF-8"?>
<svg xmlns="http://www.w3.org/2000/svg" onmouseup="{ if(window.parent.document.onmouseup) window.parent.document.onmouseup(arguments[0]);}" height="512" width="512" xml:space="preserve" style="enable-background:new 0 0 512 512;" viewBox="0 0 512 512" y="0px" x="0px" id="Capa_1" version="1.1" xmlns:xlink="http://www.w3.org/1999/xlink">
<g>
	<g>
		<g>
			<g>
				<g>
					<g>
						<g>
							<g>
								<g>
									<g>
										<g>
											<circle style="fill:#495F7A;" cx="256" cy="256" r="256"/>
										</g>
									</g>
								</g>
							</g>
						</g>
					</g>
				</g>
			</g>
		</g>
	</g>
	<path style="fill:#31465B;" d="M511.749,267.019l-70.372-70.372l-2.34,5.507L326.964,90.082l-95.39,95.39l42.751,42.75   l-23.57,61.855l-85.841-85.841L77,284.415l41.01,41.01L74.866,436.902C121.202,483.297,185.249,512,256,512   C393.691,512,505.975,403.29,511.749,267.019z"/>
	<g>
		<polygon style="fill:#FF583E;" points="231.574,185.471 177.792,131.688 203.955,105.525 231.574,133.145 300.801,63.918     326.964,90.082   "/>
	</g>
	<g>
		<polygon style="fill:#EF2A1B;" points="300.801,63.918 255.905,108.815 255.905,161.141 326.964,90.082   "/>
	</g>
	<g>
		<g>
			<circle style="fill:#AFB4C8;" cx="114.777" cy="237.553" r="60.194"/>
		</g>
		<g>
			<path style="fill:#AFB4C8;" d="M141.144,308.936H88.41c-30.779,0-56.972,22.418-61.724,52.828l-0.799,6.517     c31.024,63.462,87.522,112.184,156.18,132.863h37.891l-17.091-139.38C198.116,331.354,171.923,308.936,141.144,308.936z"/>
		</g>
		<g>
			<circle style="fill:#9196AA;" cx="397.223" cy="237.553" r="60.194"/>
		</g>
		<g>
			<path style="fill:#9196AA;" d="M485.314,361.764c-4.752-30.41-30.945-52.828-61.724-52.828h-52.734     c-30.779,0-56.972,22.418-61.724,52.828l-17.091,139.38h37.891c68.658-20.679,125.156-69.401,156.18-132.863L485.314,361.764z"/>
		</g>
	</g>
	<g>
		<circle style="fill:#FFC200;" cx="256" cy="258.838" r="65.127"/>
	</g>
	<g>
		<path style="fill:#FF9500;" d="M256,193.711c-0.032,0-0.063,0.002-0.095,0.002v130.25c0.032,0,0.063,0.002,0.095,0.002    c35.969,0,65.127-29.158,65.127-65.127C321.127,222.869,291.969,193.711,256,193.711z"/>
	</g>
	<g>
		<path style="fill:#FFC200;" d="M241.302,511.57h29.395c33.961-1.923,66.149-10.46,95.299-24.352l-14.687-93.991    c-5.141-32.902-33.481-57.157-66.782-57.157h-57.055c-33.301,0-61.641,24.255-66.782,57.157l-14.687,93.991    C175.153,501.11,207.342,509.647,241.302,511.57z"/>
	</g>
	<g>
		<path style="fill:#FF9500;" d="M365.996,487.218l-14.687-93.991c-5.141-32.902-33.481-57.157-66.782-57.157h-28.623v175.5h14.793    C304.658,509.647,336.847,501.11,365.996,487.218z"/>
	</g>
</g>















</svg>