<?xml version="1.0" encoding="UTF-8"?>
<svg xmlns="http://www.w3.org/2000/svg" onmouseup="{ if(window.parent.document.onmouseup) window.parent.document.onmouseup(arguments[0]);}" width="512" viewBox="0 0 64 64" height="512" enable-background="new 0 0 64 64" id="Layer_5"><g><path d="m35 5.095v4.043c10.358 1.346 18.516 9.504 19.862 19.862h4.043c-1.387-12.498-11.407-22.518-23.905-23.905z"/><path d="m26.33 17.698 2.363 6.302h6.586l2.431-7.292-2.308-.577-3.294 4.391-3.415-3.415z"/><path d="m43 37.306c0-3.084-1.331-6.017-3.652-8.048l-3.723-3.258h-7.249l-3.724 3.258c-2.321 2.031-3.652 4.964-3.652 8.048 0 5.897 4.797 10.694 10.694 10.694h.612c5.897 0 10.694-4.797 10.694-10.694zm-7-2.306h-2v-1h-3c-.551 0-1 .449-1 1s.449 1 1 1h2c1.654 0 3 1.346 3 3s-1.346 3-3 3v2h-2v-2h-3v-3h2v1h3c.551 0 1-.449 1-1s-.449-1-1-1h-2c-1.654 0-3-1.346-3-3s1.346-3 3-3v-2h2v2h3z"/><path d="m17.934 13.741-2.212-3.31c-.732.555-1.433 1.147-2.105 1.772l2.808 2.808c.485-.445.987-.868 1.509-1.27z"/><path d="m21.291 11.587-1.532-3.697c-.826.423-1.623.892-2.398 1.394l2.208 3.305c.559-.358 1.132-.693 1.722-1.002z"/><path d="m25.008 10.031-.785-3.949c-.905.273-1.784.604-2.647.968l1.526 3.683c.622-.26 1.257-.497 1.906-.702z"/><path d="m29 9.138v-4.043c-.963.107-1.906.282-2.837.489l.78 3.922c.676-.151 1.36-.277 2.057-.368z"/><path d="m9.506 26.943-3.923-.78c-.206.931-.381 1.874-.488 2.837h4.043c.091-.697.217-1.382.368-2.057z"/><path d="m10.733 23.102-3.683-1.526c-.364.863-.694 1.742-.968 2.647l3.949.785c.205-.649.442-1.284.702-1.906z"/><path d="m15.011 16.425-2.808-2.808c-.625.672-1.216 1.373-1.771 2.105l3.31 2.212c.401-.522.825-1.025 1.269-1.509z"/><path d="m12.589 19.569-3.305-2.208c-.503.775-.972 1.572-1.395 2.398l3.697 1.531c.31-.59.645-1.163 1.003-1.721z"/><path d="m35 54.862v4.043c12.498-1.387 22.518-11.407 23.905-23.905h-4.043c-1.346 10.358-9.504 18.516-19.862 19.862z"/><path d="m9.138 35h-4.043c1.387 12.498 11.407 22.518 23.905 23.905v-4.043c-10.358-1.346-18.516-9.504-19.862-19.862z"/><path d="m60 1c-1.302 0-2.402.839-2.816 2h-4.598l-4.718 4.718c.566.373 1.118.762 1.656 1.172l3.89-3.89h3.77c.414 1.161 1.514 2 2.816 2 1.654 0 3-1.346 3-3s-1.346-3-3-3z"/><path d="m10.586 59h-3.77c-.414-1.161-1.514-2-2.816-2-1.654 0-3 1.346-3 3s1.346 3 3 3c1.302 0 2.402-.839 2.816-2h4.598l4.718-4.718c-.566-.373-1.118-.762-1.656-1.172z"/></g></svg>