<?xml version="1.0" encoding="UTF-8"?>
<svg xmlns="http://www.w3.org/2000/svg" onmouseup="{ if(window.parent.document.onmouseup) window.parent.document.onmouseup(arguments[0]);}" width="496pt" viewBox="-4 0 496 496" height="496pt"><path d="m112 296v144h-72v-40h-40v-360h112zm0 0" fill="#e6e9ed"/><g fill="#ccd1d9"><path d="m112 160h-56c-4.425781 0-8-3.574219-8-8s3.574219-8 8-8h56c4.425781 0 8 3.574219 8 8s-3.574219 8-8 8zm0 0"/><path d="m112 208h-56c-4.425781 0-8-3.574219-8-8s3.574219-8 8-8h56c4.425781 0 8 3.574219 8 8s-3.574219 8-8 8zm0 0"/><path d="m112 256h-56c-4.425781 0-8-3.574219-8-8s3.574219-8 8-8h56c4.425781 0 8 3.574219 8 8s-3.574219 8-8 8zm0 0"/><path d="m112 304h-56c-4.425781 0-8-3.574219-8-8s3.574219-8 8-8h56c4.425781 0 8 3.574219 8 8s-3.574219 8-8 8zm0 0"/></g><path d="m40 400v40l-40-40zm0 0" fill="#f5f7fa"/><path d="m144 472h280v-24h8c13.28125 0 24-10.71875 24-24v48c0 13.28125-10.71875 24-24 24h-296c-13.28125 0-24-10.71875-24-24 0-13.199219 10.71875-24 24-24h8zm0 0" fill="#f6bb42"/><path d="m144 448h280v24h-280zm0 0" fill="#f5f7fa"/><path d="m488 40v104l-32 32v-136zm0 0" fill="#f6bb42"/><path d="m432 0h-296c-13.28125 0-24 10.71875-24 24v448c0-13.199219 10.71875-24 24-24h296c13.28125 0 24-10.71875 24-24v-400c0-13.28125-10.71875-24-24-24zm-216 216.160156c-13.28125 0-24-10.71875-24-24h48c0 13.28125-10.800781 24-24 24zm143.921875 0c-13.28125 0-24-10.71875-24-24h48c0 13.28125-10.722656 24-24 24zm0 0" fill="#ffce54"/><path d="m239.960938 200.160156c-3.351563 0-6.472657-2.121094-7.585938-5.472656l-24-72.015625c-1.398438-4.191406.863281-8.71875 5.058594-10.128906 4.214844-1.40625 8.726562.871093 10.117187 5.066406l24 72.015625c1.402344 4.191406-.863281 8.71875-5.054687 10.128906-.847656.277344-1.695313.40625-2.535156.40625zm0 0" fill="#545c66"/><path d="m287.960938 288.175781c-4.425782 0-8-3.574219-8-8v-184.03125c0-4.425781 3.574218-8 8-8 4.421874 0 8 3.574219 8 8v184.039063c0 4.417968-3.578126 7.992187-8 7.992187zm0 0" fill="#545c66"/><path d="m335.945312 200.160156c-.832031 0-1.6875-.128906-2.53125-.40625-4.183593-1.410156-6.453124-5.929687-5.054687-10.128906l24-72.015625c1.402344-4.183594 5.878906-6.472656 10.121094-5.066406 4.183593 1.410156 6.457031 5.929687 5.054687 10.128906l-24 72.015625c-1.121094 3.351562-4.238281 5.472656-7.589844 5.472656zm0 0" fill="#545c66"/><path d="m383.945312 200.160156c-3.351562 0-6.472656-2.121094-7.585937-5.472656l-24-72.015625c-1.398437-4.191406.863281-8.71875 5.054687-10.128906 4.21875-1.40625 8.722657.871093 10.121094 5.066406l24 72.015625c1.402344 4.191406-.863281 8.71875-5.054687 10.128906-.847657.277344-1.695313.40625-2.535157.40625zm0 0" fill="#545c66"/><path d="m351.960938 288.175781h-128c-4.425782 0-8-3.574219-8-8 0-4.421875 3.574218-8 8-8h128c4.421874 0 8 3.578125 8 8 0 4.425781-3.578126 8-8 8zm0 0" fill="#656d78"/><path d="m383.992188 344.152344h-192.0625c-4.425782 0-8-3.578125-8-8 0-4.425782 3.574218-8 8-8h192.0625c4.421874 0 8 3.574218 8 8 0 4.421875-3.578126 8-8 8zm0 0" fill="#f6bb42"/><path d="m335.992188 368.144531h-96.046876c-4.425781 0-8-3.578125-8-8 0-4.425781 3.574219-8 8-8h96.046876c4.421874 0 8 3.574219 8 8 0 4.421875-3.578126 8-8 8zm0 0" fill="#f6bb42"/><path d="m191.960938 200.160156c-.832032 0-1.6875-.128906-2.527344-.40625-4.1875-1.410156-6.457032-5.929687-5.058594-10.128906l24-72.015625c1.402344-4.183594 5.890625-6.472656 10.121094-5.066406 4.183594 1.410156 6.457031 5.929687 5.054687 10.128906l-24 72.015625c-1.117187 3.351562-4.238281 5.472656-7.589843 5.472656zm0 0" fill="#545c66"/><path d="m239.960938 184.160156h-48c-4.425782 0-8 3.574219-8 8 0 17.640625 14.351562 32 32 32 17.648437 0 32-14.359375 32-32 0-4.425781-3.578126-8-8-8zm0 0" fill="#656d78"/><path d="m383.945312 184.160156h-48c-4.425781 0-8 3.574219-8 8 0 17.640625 14.351563 32 32 32 17.648438 0 32-14.359375 32-32 0-4.425781-3.578124-8-8-8zm0 0" fill="#656d78"/><path d="m359.945312 128.144531h-143.984374c-4.425782 0-8-3.578125-8-8 0-4.425781 3.574218-8 8-8h143.984374c4.421876 0 8 3.574219 8 8 0 4.421875-3.578124 8-8 8zm0 0" fill="#656d78"/></svg>