<?xml version="1.0" encoding="UTF-8"?>
<svg xmlns="http://www.w3.org/2000/svg" onmouseup="{ if(window.parent.document.onmouseup) window.parent.document.onmouseup(arguments[0]);}" width="512" viewBox="0 0 64 64" height="512" enable-background="new 0 0 64 64" id="_x33_0"><g><g><g><path d="m24 12v14h-6-16v-14z" fill="#b4dd7f"/></g><g><path d="m62 51v10c0 .55-.45 1-1 1h-42c-.55 0-1-.45-1-1v-3h31.46c.19 0 .38-.03.56-.08.16-.04.31-.11.45-.19z" fill="#ffeaa7"/></g><g><path d="m39 12c1.66 0 3-1.34 3-3 0-.55-.45-1-1-1l.18-.18c.53-.53.82-1.24.82-1.98 0-.55-.16-1.08-.47-1.54l-.94-1.41c-.37-.56-.99-.89-1.66-.89h23.07v49h-3.76c-1.47 0-2.92-.34-4.24-1l-3.98 7.92c-.18.05-.37.08-.56.08h-31.46v-32h6l.42.21c2.36 1.18 4.95 1.79 7.58 1.79h-2c-2.21 0-4 1.79-4 4v1c0 .55.45 1 1 1h18c.55 0 1-.45 1-1v-1c0-2.21-1.79-4-4-4h4c1.1 0 2-.9 2-2 0-.55-.22-1.05-.59-1.41-.36-.37-.86-.59-1.41-.59h2c.55 0 1.05-.22 1.41-.59.37-.36.59-.86.59-1.41 0-1.1-.9-2-2-2 .55 0 1.05-.22 1.41-.59.37-.36.59-.86.59-1.41 0-1.1-.9-2-2-2 .55 0 1.05-.22 1.41-.59.37-.36.59-.86.59-1.41 0-1.1-.9-2-2-2h-6c-.55 0-1.05.22-1.41.59-.09.09-.18.19-.25.29z" fill="#e6e9ed"/></g><g><path d="m62 51-11.53 6.73c-.14.08-.29.15-.45.19l3.98-7.92c1.32.66 2.77 1 4.24 1z" fill="#b4dd7f"/></g><g><path d="m47.2 38.07c1.67.55 2.8 2.12 2.8 3.88 0 1.29-.61 2.51-1.64 3.28l-1.3.98c-.67.5-1.06 1.28-1.06 2.11 0 1.02-.41 1.94-1.08 2.6-.66.67-1.58 1.08-2.6 1.08h-1.22c-.71 0-1.38.28-1.87.77-.79.79-1.85 1.23-2.96 1.23-.83 0-1.64-.24-2.32-.7l-1.12-.75c-.54-.36-1.18-.55-1.83-.55s-1.29.19-1.83.55l-1.2.81c-.63.42-1.37.64-2.13.64-1.06 0-2.02-.43-2.72-1.12-.69-.7-1.12-1.66-1.12-2.72v-.06c0-.72.21-1.42.61-2.01l.92-1.39c.31-.46.47-.99.47-1.54 0-.74-.29-1.45-.82-1.98l-.35-.35c-.53-.53-.83-1.25-.83-2.01v-.04c0-1.54 1.24-2.78 2.78-2.78h1.22 2.77c-.49.91-.77 1.93-.77 3 0 3.87 3.58 7 8 7s8-3.13 8-7c0-1.07-.28-2.09-.77-3h3.77z" fill="#ffc729"/></g><g><path d="m29.43 37h13.14c.25.31.47.65.66 1 .49.91.77 1.93.77 3 0 3.87-3.58 7-8 7s-8-3.13-8-7c0-1.07.28-2.09.77-3 .19-.35.41-.69.66-1z" fill="#fcd770"/></g><g><path d="m41.53 4.3c.31.46.47.99.47 1.54 0 .74-.29 1.45-.82 1.98l-.18.18h-7.34c-.83 0-1.64.07-2.44.22l-.4-.4c-.53-.53-.82-1.24-.82-1.98 0-.55.16-1.08.47-1.54l.94-1.41c.37-.56.99-.89 1.66-.89h2.93 2.93c.67 0 1.29.33 1.66.89z" fill="#b27946"/></g><g><path d="m40 14c0 1.1.9 2 2 2-.55 0-1.05.22-1.41.59-.37.36-.59.86-.59 1.41 0 1.1.9 2 2 2-.55 0-1.05.22-1.41.59-.37.36-.59.86-.59 1.41 0 1.1.9 2 2 2-.55 0-1.05.22-1.41.59-.37.36-.59.86-.59 1.41 0 1.1.9 2 2 2h-10v-13.04c.55-.43 1.01-.99 1.34-1.64.41-.81 1.23-1.32 2.13-1.32h3.53l1.34.88c-.22.32-.34.71-.34 1.12z" fill="#cf9e76"/></g><g><path d="m46 32v1c0 .55-.45 1-1 1h-18c-.55 0-1-.45-1-1v-1c0-2.21 1.79-4 4-4h2 10c2.21 0 4 1.79 4 4z" fill="#aab2bd"/></g><g><path d="m48 16c1.1 0 2 .9 2 2 0 .55-.22 1.05-.59 1.41-.36.37-.86.59-1.41.59h-6c-1.1 0-2-.9-2-2 0-.55.22-1.05.59-1.41.36-.37.86-.59 1.41-.59z" fill="#f0d0b4"/></g><g><path d="m47.41 24.59c.37.36.59.86.59 1.41 0 1.1-.9 2-2 2h-4c-1.1 0-2-.9-2-2 0-.55.22-1.05.59-1.41.36-.37.86-.59 1.41-.59h4c.55 0 1.05.22 1.41.59z" fill="#f0d0b4"/></g><g><path d="m48 20c1.1 0 2 .9 2 2 0 .55-.22 1.05-.59 1.41-.36.37-.86.59-1.41.59h-2-4c-1.1 0-2-.9-2-2 0-.55.22-1.05.59-1.41.36-.37.86-.59 1.41-.59z" fill="#f0d0b4"/></g><g><path d="m42 12h6c1.1 0 2 .9 2 2 0 .55-.22 1.05-.59 1.41-.36.37-.86.59-1.41.59h-6c-1.1 0-2-.9-2-2 0-.41.12-.8.34-1.12.07-.1.16-.2.25-.29.36-.37.86-.59 1.41-.59z" fill="#f0d0b4"/></g><g><path d="m32 14.96v13.04c-2.63 0-5.22-.61-7.58-1.79l-.42-.21v-14c1.98-1.98 4.5-3.29 7.22-3.78.8-.15 1.61-.22 2.44-.22h7.34c.55 0 1 .45 1 1 0 1.66-1.34 3-3 3h-3.53c-.9 0-1.72.51-2.13 1.32-.33.65-.79 1.21-1.34 1.64z" fill="#f0d0b4"/></g></g><g><path d="m61 1v49h-2.764c-1.308 0-2.618-.309-3.789-.895l-.893-.446-4.187 8.341h-30.367v-30h4.764l.211.105c.897.449 1.834.818 2.795 1.11-1.074.919-1.77 2.265-1.77 3.785v1c0 1.103.897 2 2 2h18c1.103 0 2-.897 2-2v-1c0-1.125-.374-2.164-1.002-3h.002c1.654 0 3-1.346 3-3 0-.395-.081-.77-.22-1.116 1.275-.346 2.22-1.501 2.22-2.884 0-.771-.301-1.468-.78-2 .48-.532.78-1.229.78-2s-.301-1.468-.78-2c.48-.532.78-1.229.78-2 0-1.654-1.346-3-3-3h-5.556c.344-.591.556-1.268.556-2 0-.502-.192-.956-.499-1.308.316-.56.499-1.187.499-1.847 0-.75-.22-1.478-.636-2.102l-.938-1.407c-.558-.836-1.491-1.336-2.496-1.336h-5.86c-1.005 0-1.938.5-2.496 1.336l-.938 1.407c-.416.624-.636 1.351-.636 2.102 0 .629.169 1.227.456 1.767-2.173.646-4.176 1.793-5.862 3.388h-22.594v16h16v34c0 1.103.897 2 2 2h42c1.103 0 2-.897 2-2v-60zm-27.343 8h7.343c0 1.103-.897 2-2 2h-3.528c-1.29 0-2.449.716-3.025 1.87-.656 1.314-1.978 2.13-3.447 2.13v2c.699 0 1.37-.134 2-.362v10.304c-2.078-.132-4.13-.655-6-1.569v-12.932c2.355-2.215 5.409-3.441 8.657-3.441zm15.343 9c0 .551-.449 1-1 1h-6c-.551 0-1-.449-1-1s.449-1 1-1h6c.551 0 1 .449 1 1zm-9.22-2c-.48.532-.78 1.229-.78 2s.301 1.468.78 2c-.48.532-.78 1.229-.78 2s.301 1.468.78 2c-.48.532-.78 1.229-.78 2 0 .352.072.686.184 1h-6.184v-11.592c.494-.465.92-1.011 1.236-1.644.236-.472.709-.764 1.236-.764h3.528c.065 0 .126-.016.19-.019-.116.319-.19.66-.19 1.019 0 .771.301 1.468.78 2zm5.22 17h-18v-1c0-1.654 1.346-3 3-3h12c1.654 0 3 1.346 3 3zm1-6h-4c-.551 0-1-.449-1-1s.449-1 1-1h4c.551 0 1 .449 1 1s-.449 1-1 1zm2-4h-6c-.551 0-1-.449-1-1s.449-1 1-1h6c.551 0 1 .449 1 1s-.449 1-1 1zm1-9c0 .551-.449 1-1 1h-6c-.551 0-1-.449-1-1s.449-1 1-1h6c.551 0 1 .449 1 1zm-17.476-6.89c-.338-.338-.524-.787-.524-1.265 0-.354.104-.698.3-.993l.938-1.407c.186-.278.497-.445.832-.445h5.859c.335 0 .646.167.832.445l.939 1.407c.196.295.3.638.3.993 0 .43-.157.832-.434 1.155h-6.91c-.704 0-1.396.065-2.081.162zm-28.524 5.89h20v12h-20zm51.467 38.298c1.2.461 2.485.702 3.769.702h.065l-5.92 3.454zm-35.467 9.702v-2h30.459c.53 0 1.052-.141 1.512-.409l10.029-5.85v8.259z"/><path d="m28.652 36.376c-1.081 1.357-1.652 2.956-1.652 4.624 0 4.411 4.038 8 9 8s9-3.589 9-8c0-1.668-.571-3.267-1.652-4.624l-1.564 1.246c.796.999 1.216 2.167 1.216 3.378 0 3.309-3.14 6-7 6s-7-2.691-7-6c0-1.211.42-2.379 1.216-3.377z"/><path d="m21.777 47.531c-.508.762-.777 1.649-.777 2.631 0 1.292.503 2.507 1.417 3.421s2.128 1.417 3.42 1.417h.001c.958 0 1.885-.281 2.683-.813l1.201-.801c.759-.506 1.796-.506 2.555 0l1.114.743c.855.57 1.85.871 2.876.871 1.385 0 2.687-.539 3.666-1.519.306-.306.73-.481 1.162-.481h1.227c2.579 0 4.678-2.099 4.678-4.678 0-.515.246-1.007.658-1.316l1.304-.978c1.276-.957 2.038-2.481 2.038-4.076 0-2.197-1.4-4.14-3.484-4.834l-.199-.066-.633 1.897.199.066c1.266.422 2.117 1.603 2.117 2.937 0 .969-.463 1.895-1.238 2.477l-1.304.978c-.913.685-1.458 1.775-1.458 2.915 0 1.477-1.201 2.678-2.678 2.678h-1.227c-.959 0-1.898.389-2.577 1.067-1.039 1.04-2.796 1.212-4.018.398l-1.114-.743c-1.417-.945-3.356-.945-4.773 0l-1.201.801c-.468.312-1.012.477-1.574.477 0 0 0 0-.001 0-.758 0-1.47-.295-2.006-.831s-.831-1.249-.831-2.073c0-.52.152-1.022.441-1.455l.923-1.384c.416-.624.636-1.351.636-2.102 0-1.012-.394-1.963-1.11-2.679l-.354-.354c-.346-.346-.536-.808-.536-1.347 0-.474.185-.92.52-1.255s.781-.52 1.256-.52h1.224v-2h-1.223-.001c-1.008 0-1.956.393-2.669 1.105-.714.713-1.107 1.662-1.107 2.715 0 1.028.398 1.993 1.122 2.716l.354.354c.338.338.524.787.524 1.265 0 .354-.104.698-.3.992z"/><path d="m31 39h8v2h-8z"/><path d="m35 43h4v2h-4z"/><path d="m51 27h8v2h-8z"/><path d="m53 23h6v2h-6z"/><path d="m53 19h6v2h-6z"/><path d="m53 15h6v2h-6z"/><path d="m53 11h6v2h-6z"/><path d="m51 7h8v2h-8z"/></g></g></svg>