<?xml version="1.0" encoding="UTF-8"?>
<svg xmlns="http://www.w3.org/2000/svg" onmouseup="{ if(window.parent.document.onmouseup) window.parent.document.onmouseup(arguments[0]);}" width="496pt" viewBox="0 0 496 496" height="496pt"><path d="m488 168-24-80-24 80zm0 0" fill="#fdd089"/><path d="m440 168h32l-16-53.335938zm0 0" fill="#fddfb1"/><path d="m440 168h48v240h-48zm0 0" fill="#fdf14d"/><path d="m440 168h24v240h-24zm0 0" fill="#fdf57a"/><path d="m464 488c-13.257812 0-24-10.742188-24-24v-56h48v56c0 13.257812-10.742188 24-24 24zm0 0" fill="#4d4d4d"/><path d="m452 484.671875c7.144531-4.160156 12-11.808594 12-20.671875v-56h-24v56c0 8.863281 4.855469 16.511719 12 20.671875zm0 0" fill="#666"/><path d="m104 8h288v384h-288zm0 0" fill="#ccc"/><path d="m104 8h256v384h-256zm0 0" fill="#e6e6e6"/><path d="m56 56h288v384h-288zm0 0" fill="#ccc"/><path d="m56 56h256v384h-256zm0 0" fill="#e6e6e6"/><path d="m8 104h288v384h-288zm0 0" fill="#ccc"/><path d="m8 104h256v384h-256zm0 0" fill="#e6e6e6"/><path d="m56 424h192v32h-192zm0 0" fill="#f7931e"/><path d="m56 424h160v32h-160zm0 0" fill="#fbb03b"/><path d="m152 136c-44.183594 0-80 35.816406-80 80s35.816406 80 80 80 80-35.816406 80-80h-80zm0 0" fill="#2b8838"/><path d="m88.0625 168.0625c-10.039062 13.371094-16.0625 29.929688-16.0625 47.9375 0 44.183594 35.816406 80 80 80 18.007812 0 34.566406-6.023438 47.9375-16.0625 10.039062-13.371094 16.0625-29.929688 16.0625-47.9375h-80v-80c-18.007812 0-34.566406 6.023438-47.9375 16.0625zm0 0" fill="#39b54a"/><path d="m296 496h-288c-4.425781 0-8-3.574219-8-8v-384c0-4.414062 3.574219-8 8-8h288c4.425781 0 8 3.585938 8 8v384c0 4.425781-3.574219 8-8 8zm-280-16h272v-368h-272zm0 0"/><path d="m344 448h-48v-16h40v-368h-272v40h-16v-48c0-4.414062 3.574219-8 8-8h288c4.425781 0 8 3.585938 8 8v384c0 4.425781-3.574219 8-8 8zm0 0"/><path d="m392 400h-48v-16h40v-368h-272v40h-16v-48c0-4.414062 3.574219-8 8-8h288c4.425781 0 8 3.585938 8 8v384c0 4.425781-3.574219 8-8 8zm0 0"/><path d="m152 304c-48.519531 0-88-39.480469-88-88s39.480469-88 88-88c4.425781 0 8 3.585938 8 8v72h72c4.425781 0 8 3.585938 8 8 0 48.519531-39.480469 88-88 88zm-8-159.558594c-35.953125 3.992188-64 34.558594-64 71.558594 0 39.695312 32.296875 72 72 72 37 0 67.558594-28.046875 71.550781-64h-71.550781c-4.425781 0-8-3.585938-8-8zm0 0"/><path d="m80 336h144v16h-144zm0 0"/><path d="m64 368h176v16h-176zm0 0"/><path d="m248 464h-192c-4.425781 0-8-3.574219-8-8v-32c0-4.425781 3.574219-8 8-8h192c4.425781 0 8 3.574219 8 8v32c0 4.425781-3.574219 8-8 8zm-184-16h176v-16h-176zm0 0"/><path d="m464 496c-17.648438 0-32-14.351562-32-32v-296c0-4.414062 3.574219-8 8-8h48c4.425781 0 8 3.585938 8 8v296c0 17.648438-14.351562 32-32 32zm-16-320v288c0 8.824219 7.175781 16 16 16s16-7.175781 16-16v-288zm0 0"/><path d="m480.335938 170.296875-16.335938-54.457031-16.335938 54.457031-15.328124-4.59375 24-80c1.015624-3.382813 4.136718-5.703125 7.664062-5.703125s6.648438 2.320312 7.664062 5.703125l24 80zm0 0"/><path d="m440 400h48v16h-48zm0 0"/><path d="m440 208h24v16h-24zm0 0"/><path d="m464 256h24v16h-24zm0 0"/><path d="m440 304h24v16h-24zm0 0"/><path d="m464 352h24v16h-24zm0 0"/></svg>