<?xml version="1.0" encoding="UTF-8"?>
<svg xmlns="http://www.w3.org/2000/svg" onmouseup="{ if(window.parent.document.onmouseup) window.parent.document.onmouseup(arguments[0]);}" width="512" viewBox="0 0 64 64" height="512" enable-background="new 0 0 64 64" id="_x33_0"><g><g><g><circle cx="10" cy="11" fill="#fcd770" r="8"/></g><g><path d="m52 4-5.19 3.63-.81.57v8.8h12v-8.8z" fill="#ccd1d9"/></g><g><path d="m50 13h4v4h-4z" fill="#b27946"/></g><g><path d="m36.63 25c-.13 1-1.13 2-4.63 2s-4.5-1-4.62-2h-.01-.37c-4 0-4 2-4 2v4s-3 0-3 3l-1.69-5.92c-.2-.68-.06-1.41.37-1.98l1.61-2.15c.44-.59.57-1.37.33-2.08v-.01c-.38-1.14.18-2.4 1.3-2.83 2-.77 5.62-1.64 11.08-1.03 5.94.66 9.27 2.19 10.84 3.16.73.44 1.12 1.26 1.05 2.11l-.89 10.73c0-3-3-3-3-3v-4s0-2-4-2h-.36z" fill="#656d78"/></g><g><path d="m57.17 35.34c2.81.92 4.83 3.55 4.83 6.66 0 3.87-3.13 7-7 7-1.7 0-3.24-.6-4.45-1.6-1.56-1.28-2.55-3.22-2.55-5.4 0-3.87 3.13-7 7-7 .76 0 1.49.12 2.17.34z" fill="#ff826e"/></g><g><path d="m7.52 37.76c.76.57 1.41 1.24 1.41 1.24s2.07-2 3.14-2c3 0 6 4 2 7-.81.61-1.5 1.14-2.09 1.59-2.3 1.77-2.98 2.41-2.98 2.41s-1.07-1-5.07-4-1-7 2-7c.44 0 1.05.35 1.59.76z" fill="#ff826e"/></g><g><path d="m32.27 47.33 3.73 4.67 2.21-5.52c2.24.57 5.22 1.85 7.49 4.65 1.91 2.36 3.3 5.82 3.3 10.87h-6-11-10-7c0-5.05 1.39-8.51 3.3-10.87 2.27-2.8 5.25-4.08 7.49-4.65l2.21 5.52 3.73-4.67v-.02c.18.02.36.03.54.01z" fill="#fcd770"/></g><g><path d="m38.21 46.48-2.21 5.52-3.73-4.67v-.01c.85-.03 1.79-.38 2.73-1.32 0 0 1.35 0 3.21.48z" fill="#ffc729"/></g><g><path d="m31.73 47.31v.02l-3.73 4.67-2.21-5.52c1.86-.48 3.21-.48 3.21-.48s1.14 1.14 2.73 1.31z" fill="#ffc729"/></g><g><path d="m41 31s3 0 3 3-3 3-3 3v-4.5z" fill="#f0d0b4"/></g><g><path d="m35 42v4c-.94.94-1.88 1.29-2.73 1.32-.18.02-.36.01-.54-.01-1.59-.17-2.73-1.31-2.73-1.31v-4l.02-.17c.86.11 1.85.17 2.98.17s2.12-.06 2.98-.17z" fill="#f0d0b4"/></g><g><path d="m37 25h-.36-.01c-.13 1-1.13 2-4.63 2s-4.5-1-4.62-2h-.01-.37c-4 0-4 2-4 2v10 1s0 3.06 6.02 3.83c.86.11 1.85.17 2.98.17s2.12-.06 2.98-.17c6.02-.77 6.02-3.83 6.02-3.83v-11s0-2-4-2z" fill="#f0d0b4"/></g><g><path d="m23 32.5v4.5s-3 0-3-3 3-3 3-3z" fill="#f0d0b4"/></g><g><path d="m37.5 29c1.93 0 3.5 1.57 3.5 3.5s-1.57 3.5-3.5 3.5-3.5-1.57-3.5-3.5c0-.17.01-.33.04-.49.23-1.7 1.7-3.01 3.46-3.01z" fill="#69d6f4"/></g><g><path d="m29.96 32.01c.03.16.04.32.04.49 0 1.93-1.57 3.5-3.5 3.5s-3.5-1.57-3.5-3.5 1.57-3.5 3.5-3.5c1.76 0 3.23 1.31 3.46 3.01z" fill="#69d6f4"/></g></g><g><path d="m58.375 34.757c.408-1.882.625-3.815.625-5.757 0-3.79-.804-7.561-2.336-11h2.336v-7.879l2.427 1.699 1.146-1.639-10.573-7.402-5.214 3.65c-4.397-2.889-9.483-4.429-14.786-4.429-5.152 0-10.099 1.453-14.41 4.184-1.599-2.511-4.4-4.184-7.59-4.184-4.962 0-9 4.037-9 9 0 3.823 2.4 7.088 5.768 8.39-1.169 3.066-1.768 6.293-1.768 9.61 0 2.384.311 4.729.92 7.001-2.035.004-4.055 1.464-4.7 3.4-.647 1.941.121 3.909 2.108 5.399 3.874 2.905 4.981 3.923 4.992 3.933l.682.629.679-.629c.007-.007.548-.503 2.178-1.781 1.493 1.674 3.18 3.151 5.036 4.407-1.707 2.467-2.895 5.889-2.895 10.641v1h18 18v-1c0-4.746-1.185-8.166-2.888-10.632 1.21-.819 2.357-1.734 3.418-2.736 1.277.863 2.816 1.368 4.47 1.368 4.411 0 8-3.589 8-8 0-3.204-1.898-5.967-4.625-7.243zm-5.375-18.757h-2v-2h2zm4-7.279v7.279h-2v-4h-6v4h-2v-7.279l5-3.5zm-54 2.279c0-3.859 3.14-7 7-7s7 3.141 7 7-3.14 7-7 7-7-3.141-7-7zm6 35.683c-.713-.594-2.073-1.684-4.472-3.482-1.291-.969-1.779-2.063-1.411-3.167.38-1.141 1.614-2.034 2.805-2.034.366.027 1.456.835 2.286 1.694l.695.718.719-.692c.908-.874 2.078-1.694 2.45-1.72 1.196 0 2.431.893 2.811 2.033.368 1.104-.12 2.198-1.411 3.167-2.399 1.799-3.759 2.889-4.472 3.483zm35 14.317v-7h-2v7h-10-9v-7h-2v7h-4.98c.356-8.92 5.466-12.154 9.172-13.329l2.518 6.294 4.29-5.364 4.291 5.364 2.522-6.305c3.706 1.164 8.813 4.39 9.167 13.34zm-22-25.23c-.505-.241-1-.732-1-1.77 0-1.03.489-1.522 1-1.765zm-1.793-4.684-.936-3.276c-.108-.38-.031-.796.205-1.111l1.61-2.146c.644-.858.825-1.979.481-3.013-.215-.645.099-1.336.714-1.574 1.971-.762 5.411-1.551 10.608-.971 5.854.65 9.048 2.168 10.43 3.015.397.243.619.694.579 1.176l-.625 7.502c-.407-.26-.84-.44-1.273-.547v-3.141c0-.117-.065-2.772-4.455-2.98-.2-.851-.66-1.507-.745-1.62l-1.6 1.2c.178.238.598 1.029.374 1.478-.109.215-.686.922-3.574.922-2.881 0-3.463-.704-3.572-.92-.22-.434.158-1.188.375-1.484l-.803-.596-.8-.6c-.085.113-.545.768-.745 1.62-4.39.208-4.455 2.863-4.455 2.98v3.14c-.626.154-1.261.459-1.793.946zm17.293-3.086c-1.953 0-3.602 1.258-4.224 3h-2.553c-.621-1.742-2.271-3-4.224-3-.926 0-1.786.282-2.502.763v-1.707c.047-.346.685-.975 2.667-1.043.699 1.335 2.443 1.987 5.336 1.987s4.637-.652 5.336-1.987c1.982.068 2.62.694 2.664.987v1.762c-.716-.48-1.575-.762-2.5-.762zm2.5 4.5c0 1.379-1.122 2.5-2.5 2.5s-2.5-1.121-2.5-2.5 1.122-2.5 2.5-2.5 2.5 1.121 2.5 2.5zm-11 0c0 1.379-1.122 2.5-2.5 2.5s-2.5-1.121-2.5-2.5 1.122-2.5 2.5-2.5 2.5 1.121 2.5 2.5zm13-.27c.505.241 1 .732 1 1.77 0 1.031-.49 1.523-1 1.766zm-15.5 4.77c2.31 0 4.197-1.756 4.449-4h2.101c.252 2.244 2.139 4 4.449 4 .925 0 1.785-.282 2.5-.762v1.732c0 .03-.287 3.03-7.999 3.03s-7.999-3-8-3v-1.762c.715.48 1.575.762 2.5.762zm8.874 10.013c.325.018.837.063 1.475.172l-1.14 2.851-1.697-2.121c.454-.209.91-.505 1.362-.902zm-3.374-4.013c.719 0 1.381-.028 2-.075v2.638c-1.71 1.437-3.337.498-4-.018v-2.62c.619.047 1.281.075 2 .075zm-3.368 4.014c.373.311.847.617 1.389.859l-1.73 2.162-1.137-2.844c.64-.111 1.153-.158 1.478-.177zm7.368-1.941v-2.398c5.918-1.081 6-4.504 6-4.676v-.14c1.428-.352 2.953-1.471 2.991-3.778h.005l.895-10.732c.103-1.238-.482-2.406-1.526-3.047-1.862-1.141-5.327-2.639-11.254-3.298-5.597-.622-9.371.252-11.549 1.094-1.614.623-2.445 2.412-1.886 4.087.132.396.061.832-.189 1.165l-1.61 2.146c-.609.813-.807 1.883-.528 2.86l1.675 5.861c.099 2.209 1.58 3.296 2.977 3.641v.142c0 .172.082 3.595 6 4.676v2.398c-1.975.222-6.475 1.12-9.846 4.726-1.735-1.157-3.311-2.523-4.708-4.072.375-.286.781-.592 1.227-.927 1.987-1.49 2.755-3.458 2.108-5.399-.646-1.938-2.67-3.4-4.708-3.4-.998 0-2.255.894-3.122 1.631-.175-.158-.37-.322-.574-.483-.904-2.617-1.378-5.353-1.378-8.15 0-3.147.582-6.205 1.717-9.102.42.06.846.102 1.283.102 4.962 0 9-4.037 9-9 0-1.055-.192-2.064-.527-3.006 4.033-2.605 8.682-3.994 13.527-3.994 4.642 0 9.107 1.267 13.022 3.664l-3.595 2.516 1.146 1.639 2.427-1.698v7.879h9.444c1.667 3.4 2.556 7.186 2.556 11 0 1.734-.188 3.458-.539 5.14-.475-.088-.962-.14-1.461-.14-4.411 0-8 3.589-8 8 0 2.03.766 3.88 2.017 5.292-.988.919-2.054 1.753-3.176 2.501-3.37-3.6-7.867-4.498-9.841-4.72zm19 2.927c-3.309 0-6-2.691-6-6s2.691-6 6-6 6 2.691 6 6-2.691 6-6 6z"/><path d="m35.555 38.832-1.109-1.664c-2.388 1.592-4.793.063-4.895-.003l-1.105 1.667c.096.063 1.63 1.063 3.672 1.063 1.052.001 2.241-.266 3.437-1.063z"/><path d="m56 39h-2v2h-2v2h2v2h2v-2h2v-2h-2z"/><path d="m11 17v-2h3v-5h-6v-1h6v-2h-3v-2h-2v2h-3v5h6v1h-6v2h3v2z"/></g></g></svg>