<?xml version="1.0" encoding="UTF-8"?>
<svg xmlns="http://www.w3.org/2000/svg" onmouseup="{ if(window.parent.document.onmouseup) window.parent.document.onmouseup(arguments[0]);}" width="512" viewBox="0 0 64 64" height="512" enable-background="new 0 0 64 64" id="Layer_5"><g><g><g><path d="m54 2h-30l-16 16v16h48v-30c0-1.1-.9-2-2-2z" fill="#f0d0b4"/></g><g><path d="m18 2-10 10v-8c0-1.1.9-2 2-2z" fill="#f0d0b4"/></g><g><path d="m24 2-16 16v-6l10-10z" fill="#ff826e"/></g><g><path d="m46 17v1h-2-4-6-4-6-4-2v-1l12.12-6.53c.58-.31 1.22-.47 1.88-.47s1.3.16 1.88.47z" fill="#fcd770"/></g><g><path d="m46 32v2h-28v-2c0-1.1.9-2 2-2h4 6 4 6 4c1.1 0 2 .9 2 2z" fill="#aab2bd"/></g><g><path d="m20 18h4v12h-4z" fill="#ccd1d9"/></g><g><path d="m30 18h4v12h-4z" fill="#ccd1d9"/></g><g><path d="m40 18h4v12h-4z" fill="#ccd1d9"/></g><g><path d="m62 34v28h-60v-28h6 10 28 10z" fill="#b4dd7f"/></g><g><path d="m12 38h20c-5.52 0-10 4.48-10 10s4.48 10 10 10h-20c0-3.31-2.69-6-6-6v-8c3.31 0 6-2.69 6-6z" fill="#a0d468"/></g><g><path d="m58 44v8c-3.31 0-6 2.69-6 6h-20c5.52 0 10-4.48 10-10s-4.48-10-10-10h20c0 3.31 2.69 6 6 6z" fill="#a0d468"/></g><g><path d="m6 38h6c0 3.31-2.69 6-6 6z" fill="#8cc152"/></g><g><path d="m12 58h-6v-6c3.31 0 6 2.69 6 6z" fill="#8cc152"/></g><g><path d="m58 52v6h-6c0-3.31 2.69-6 6-6z" fill="#8cc152"/></g><g><path d="m58 38v6c-3.31 0-6-2.69-6-6z" fill="#8cc152"/></g><g><circle cx="32" cy="48" fill="#fcd770" r="10"/></g></g><g><path d="m33 43.145v-2.145h-2v2.145c-1.155.366-2 1.435-2 2.709 0 1.088.604 2.065 1.578 2.553l1.949.975c.292.145.473.438.473.764 0 .47-.384.854-.854.854h-.291c-.471 0-.855-.384-.855-.854v-1.146h-2v1.146c0 1.275.845 2.344 2 2.709v2.145h2v-2.145c1.155-.366 2-1.435 2-2.709 0-1.088-.604-2.065-1.578-2.553l-1.949-.975c-.292-.145-.473-.438-.473-.764 0-.47.384-.854.854-.854h.291c.471 0 .855.384.855.854v.146h2v-.146c0-1.274-.845-2.343-2-2.709z"/><path d="m57 33v-29c0-1.654-1.346-3-3-3h-44c-1.654 0-3 1.346-3 3v29h-6v30h62v-30zm-48-20.586 9.414-9.414h3.172l-12.586 12.586zm1-9.414h5.586l-6.586 6.586v-5.586c0-.551.448-1 1-1zm-1 15.414 15.414-15.414h29.586c.552 0 1 .449 1 1v29h-8v-1c0-1.302-.839-2.402-2-2.816v-10.184h2v-2.597l-12.646-6.81c-1.443-.776-3.266-.777-4.709 0l-12.645 6.81v2.597h2v10.184c-1.161.414-2 1.514-2 2.816v1h-8zm34 10.586h-2v-10h2zm-14-10v10h-4v-10zm2 0h2v10h-2zm4 0h4v10h-4zm-14.891-2 10.483-5.645c.863-.465 1.951-.464 2.814 0l10.485 5.645zm2.891 2v10h-2v-10zm-3 12h24c.552 0 1 .449 1 1v1h-26v-1c0-.551.448-1 1-1zm41 30h-58v-26h58z"/><path d="m59 59v-22h-54v22zm-5.899-2c.399-1.956 1.943-3.5 3.899-3.899v3.899zm3.899-14.101c-1.956-.399-3.5-1.943-3.899-3.899h3.899zm-5.92-3.899c.441 3.059 2.861 5.479 5.92 5.92v6.16c-3.059.441-5.479 2.861-5.92 5.92h-12.775c2.834-1.992 4.695-5.28 4.695-9s-1.861-7.008-4.695-9zm-19.08 18c-4.963 0-9-4.037-9-9s4.037-9 9-9 9 4.037 9 9-4.037 9-9 9zm-21.101-18c-.399 1.956-1.943 3.5-3.899 3.899v-3.899zm-3.899 14.101c1.956.399 3.5 1.943 3.899 3.899h-3.899zm5.92 3.899c-.441-3.059-2.861-5.479-5.92-5.92v-6.16c3.059-.441 5.479-2.861 5.92-5.92h12.775c-2.834 1.992-4.695 5.28-4.695 9s1.861 7.008 4.695 9z"/><path d="m51 11h2v-6h-8v2h6z"/><path d="m51 13h2v2h-2z"/></g></g></svg>