<?xml version="1.0" encoding="UTF-8"?>
<svg xmlns="http://www.w3.org/2000/svg" onmouseup="{ if(window.parent.document.onmouseup) window.parent.document.onmouseup(arguments[0]);}" width="512" viewBox="0 0 512 512" height="512" enable-background="new 0 0 512 512" id="Capa_1"><g><g><g fill="#05e39c"><path d="m163.628 116.05-14.051-69.643h-30.935c-3.28 0-5.385 3.486-3.857 6.389l33.284 63.254z"/><path d="m226.938 46.407h-30.935l-14.05 69.643h15.558l33.284-63.254c1.528-2.903-.577-6.389-3.857-6.389z"/></g><g><g><path d="m162.614 116.081h20.353l14.296-70.861c.545-2.699-1.519-5.221-4.273-5.221h-40.4c-2.754 0-4.817 2.522-4.273 5.221z" fill="#0ed290"/></g></g><g><path d="m295.044 343.981-.69.496c-14.183 10.202-30.921 15.595-48.404 15.595-45.772 0-83.012-37.238-83.012-83.011 0-42.316 31.835-77.313 72.808-82.362l-31.191-22.948h-63.529l-69.53 51.156h28.096c4.183 0 7.585 3.403 7.585 7.585v13.369c0 4.182-3.402 7.585-7.585 7.585v2c4.183 0 7.585 3.403 7.585 7.586v13.369c0 4.183-3.402 7.585-7.585 7.585v2c4.183 0 7.585 3.403 7.585 7.585v13.369c0 4.183-3.402 7.586-7.585 7.586v2c4.183 0 7.585 3.402 7.585 7.585v3.686c38.498 1.766 69.277 33.632 69.277 72.559 0 13.641-3.786 26.412-10.353 37.329h93.813c35.462 0 63.359-27.897 65.316-61.518z" fill="#05e39c"/></g><g><path d="m99.592 222.908c4.183 0 7.585 3.403 7.585 7.585v7.098c2.148-2.24 4.486-4.314 7.017-6.177l81.093-59.663h-54.261l-69.53 51.156h28.096z" fill="#0ed290"/></g><g><path d="m31.166 398.357c0-40.056 32.588-72.645 72.645-72.645 1.467 0 2.921.057 4.366.143v-3.743c0-4.742-3.844-8.585-8.585-8.585 4.742 0 8.585-3.844 8.585-8.585v-13.369c0-4.742-3.844-8.585-8.585-8.585 4.742 0 8.585-3.844 8.585-8.585v-13.369c0-4.742-3.844-8.585-8.585-8.585 4.742 0 8.585-3.844 8.585-8.585v-13.369c0-4.742-3.844-8.585-8.585-8.585h-91.007c-4.742 0-8.585 3.844-8.585 8.585v13.369c0 4.742 3.844 8.585 8.585 8.585-4.742 0-8.585 3.844-8.585 8.585v13.369c0 4.742 3.844 8.585 8.585 8.585-4.742 0-8.585 3.844-8.585 8.585v13.369c0 4.742 3.844 8.585 8.585 8.585-4.742 0-8.585 3.844-8.585 8.585v13.369c0 4.742 3.844 8.586 8.585 8.586-4.742 0-8.585 3.844-8.585 8.585v13.369c0 4.742 3.844 8.586 8.585 8.586-4.742 0-8.585 3.844-8.585 8.585v13.369c0 4.742 3.844 8.585 8.585 8.585-4.742 0-8.585 3.844-8.585 8.586v13.369c0 4.742 3.844 8.586 8.585 8.586h32.933c-6.566-10.918-10.352-23.689-10.352-37.33z" fill="#e8b800"/></g><g><g><path d="m205.444 172.782h-65.307c-7.971 0-14.433-6.462-14.433-14.433 0-7.971 6.462-14.433 14.433-14.433h65.307c7.971 0 14.433 6.462 14.433 14.433 0 7.971-6.462 14.433-14.433 14.433z" fill="#e9b665"/></g><g><path d="m157.706 158.349c0-7.971 6.462-14.433 14.433-14.433h-32.003c-7.971 0-14.433 6.462-14.433 14.433s6.462 14.433 14.433 14.433h32.003c-7.971 0-14.433-6.462-14.433-14.433z" fill="#d8aa5e"/></g><g><path d="m205.444 143.916h-65.307c-7.971 0-14.433-6.462-14.433-14.433 0-7.971 6.462-14.433 14.433-14.433h65.307c7.971 0 14.433 6.462 14.433 14.433 0 7.971-6.462 14.433-14.433 14.433z" fill="#d8aa5e"/></g><g><path d="m157.706 129.483c0-7.971 6.462-14.433 14.433-14.433h-32.003c-7.971 0-14.433 6.462-14.433 14.433s6.462 14.433 14.433 14.433h32.003c-7.971 0-14.433-6.462-14.433-14.433z" fill="#c99c56"/></g></g></g><g><g><path d="m31.494 405.146h-22.909c-4.742 0-8.585 3.844-8.585 8.586v13.369c0 4.742 3.844 8.586 8.585 8.586h32.933c-5.463-9.085-8.991-19.455-10.024-30.541z" fill="#fac600"/></g><g><path d="m31.166 398.357c0-8.316 1.423-16.302 4.008-23.75h-26.589c-4.742 0-8.585 3.844-8.585 8.585v13.369c0 4.742 3.844 8.585 8.585 8.585h22.908c-.207-2.236-.327-4.499-.327-6.789z" fill="#d7aa02"/></g><g><path d="m55.614 344.067h-47.029c-4.742 0-8.585 3.844-8.585 8.585v13.369c0 4.742 3.844 8.586 8.585 8.586h26.588c4.122-11.875 11.233-22.357 20.441-30.54z" fill="#fed402"/></g><g><path d="m32.443 335.481v-13.369c0-4.742 3.844-8.586 8.586-8.586h-32.443c-4.742 0-8.586 3.844-8.586 8.586v13.369c0 4.742 3.844 8.585 8.586 8.585h32.443c-4.743.001-8.586-3.843-8.586-8.585z" fill="#d7aa02"/></g><g><path d="m99.592 313.527h-91.007c-4.742 0-8.585-3.844-8.585-8.585v-13.369c0-4.742 3.844-8.585 8.585-8.585h91.006c4.742 0 8.585 3.844 8.585 8.585v13.369c.001 4.741-3.843 8.585-8.584 8.585z" fill="#fed402"/></g><g><path d="m32.443 304.942v-13.369c0-4.742 3.844-8.586 8.586-8.586h-32.443c-4.742 0-8.586 3.844-8.586 8.586v13.369c0 4.742 3.844 8.585 8.586 8.585h32.443c-4.743 0-8.586-3.844-8.586-8.585z" fill="#fac600"/></g><path d="m35.809 372.827c-2.044-1.569-3.367-4.03-3.367-6.806v-13.369c0-4.742 3.844-8.585 8.586-8.585h-32.443c-4.742 0-8.585 3.844-8.585 8.585v13.369c0 4.742 3.844 8.585 8.585 8.585h26.588c.208-.595.415-1.19.636-1.779z" fill="#fac600"/><g><path d="m32.443 274.402v-13.369c0-4.742 3.844-8.585 8.586-8.585h-32.443c-4.742 0-8.586 3.844-8.586 8.585v13.369c0 4.742 3.844 8.585 8.586 8.585h32.443c-4.743 0-8.586-3.844-8.586-8.585z" fill="#d7aa02"/></g><g><path d="m99.592 252.448h-91.007c-4.742 0-8.585-3.844-8.585-8.585v-13.369c0-4.742 3.844-8.585 8.585-8.585h91.006c4.742 0 8.585 3.844 8.585 8.585v13.369c.001 4.741-3.843 8.585-8.584 8.585z" fill="#fed402"/></g><g><path d="m32.443 243.862v-13.369c0-4.742 3.844-8.586 8.586-8.586h-32.443c-4.742 0-8.586 3.844-8.586 8.586v13.369c0 4.742 3.844 8.585 8.586 8.585h32.443c-4.743 0-8.586-3.843-8.586-8.585z" fill="#fac600"/></g></g><g><path d="m103.811 338.712c-32.888 0-59.645 26.756-59.645 59.645s26.757 59.645 59.645 59.645 59.644-26.756 59.644-59.645-26.757-59.645-59.644-59.645z" fill="#fed402"/><path d="m107.474 338.836c-1.213-.074-2.432-.123-3.663-.123-32.888 0-59.645 26.756-59.645 59.645s26.757 59.645 59.645 59.645c1.231 0 2.45-.05 3.663-.123-22.075-10.728-37.332-33.372-37.332-59.521 0-26.151 15.256-48.795 37.332-59.523z" fill="#fac600"/><g><g><path d="m103.811 472.001c-40.607 0-73.645-33.037-73.645-73.645s33.037-73.645 73.645-73.645 73.644 33.037 73.644 73.645-33.037 73.645-73.644 73.645zm0-132.289c-32.337 0-58.645 26.308-58.645 58.645s26.308 58.645 58.645 58.645c32.336 0 58.644-26.308 58.644-58.645s-26.309-58.645-58.644-58.645z" fill="#fee97d"/></g></g><path d="m111.356 390.857h-15.091c-3.394 0-6.154-2.761-6.154-6.154s2.761-6.154 6.154-6.154h26.59c4.143 0 7.5-3.358 7.5-7.5s-3.357-7.5-7.5-7.5h-11.544v-6.514c0-4.142-3.357-7.5-7.5-7.5s-7.5 3.358-7.5 7.5v6.514h-.046c-11.664 0-21.154 9.49-21.154 21.154s9.49 21.154 21.154 21.154h15.092c3.394 0 6.154 2.761 6.154 6.154s-2.761 6.154-6.154 6.154h-26.59c-4.143 0-7.5 3.358-7.5 7.5s3.357 7.5 7.5 7.5h11.544v6.513c0 4.142 3.357 7.5 7.5 7.5s7.5-3.358 7.5-7.5v-6.513h.046c11.664 0 21.154-9.49 21.154-21.154s-9.49-21.154-21.155-21.154z" fill="#c99c56"/></g><g><g><g><path d="m351.855 363.729-38.442-38.442c-5.318 7.418-11.822 13.922-19.239 19.239l38.442 38.442z" fill="#a8d3d8"/></g><g><path d="m303.35 336.876c-2.873 2.758-5.931 5.324-9.176 7.65l38.442 38.442 8.413-8.413z" fill="#8ebac5"/></g><g><path d="m413.32 443.948c-8.288 8.288-21.725 8.288-30.013 0l-52.716-52.716c-2.125-2.125-2.125-5.571 0-7.696l22.318-22.318c2.125-2.125 5.571-2.125 7.696 0l52.716 52.716c8.287 8.288 8.287 21.726-.001 30.014z" fill="#678d98"/></g><g><path d="m409.324 443.947-52.716-52.716c-2.125-2.125-2.125-5.571 0-7.696l13.156-13.156-9.161-9.161c-2.125-2.125-5.571-2.125-7.696 0l-22.318 22.318c-2.125 2.125-2.125 5.571 0 7.696l52.716 52.716c7.653 7.654 19.69 8.223 28.016 1.741-.689-.538-1.363-1.107-1.997-1.742z" fill="#537983"/></g><g><circle cx="245.949" cy="277.061" fill="#678d98" r="84.011"/></g><g><path d="m179.43 277.061c0-27.887 17.258-51.806 41.649-61.677 11.238-10.389 25.317-17.751 40.945-20.78-5.205-1.009-10.575-1.554-16.074-1.554-46.398 0-84.011 37.613-84.011 84.011s37.613 84.011 84.011 84.011c5.5 0 10.87-.545 16.074-1.554-15.627-3.029-29.706-10.391-40.944-20.78-24.392-9.87-41.65-33.789-41.65-61.677z" fill="#537983"/></g><path d="m245.949 223.542c-29.511 0-53.52 24.009-53.52 53.519 0 29.511 24.009 53.52 53.52 53.52 29.51 0 53.519-24.009 53.519-53.52 0-29.51-24.009-53.519-53.519-53.519z" fill="#dff6fd"/><path d="m245.642 223.55c-29.369.167-53.212 24.104-53.212 53.511 0 29.408 23.843 53.345 53.212 53.512-19.507-9.917-32.909-30.17-32.909-53.512-.001-23.341 13.402-43.594 32.909-53.511z" fill="#c8effe"/><g><path d="m245.949 344.581c-37.23 0-67.52-30.289-67.52-67.52 0-37.23 30.289-67.519 67.52-67.519 37.229 0 67.519 30.289 67.519 67.519 0 37.231-30.289 67.52-67.519 67.52zm0-120.039c-28.959 0-52.52 23.56-52.52 52.519s23.561 52.52 52.52 52.52 52.519-23.56 52.519-52.52c0-28.959-23.56-52.519-52.519-52.519z" fill="#3e5959"/></g></g><g><g fill="#8ebac5"><path d="m414.609 259.993-58.441-42.037c-1.698 4.953-5.294 9.019-9.924 11.339l62.205 44.744c.087-5.521 2.436-10.493 6.16-14.046z"/><path d="m317.597 213.308-61.178 47.194c4.345 2.709 7.565 7.038 8.814 12.146l59.438-45.853c-3.946-3.291-6.593-8.081-7.074-13.487z"/><path d="m473.923 221.438-35.713 35.714c4.479 2.589 7.85 6.869 9.246 11.968l38.435-38.435c-5.099-1.397-9.379-4.767-11.968-9.247z"/></g><g><circle cx="428.306" cy="274.356" fill="#fd5426" r="20.873"/></g><g><path d="m428.532 274.356c0-7.674 4.154-14.362 10.323-17.989-3.098-1.821-6.696-2.884-10.55-2.884-11.528 0-20.873 9.345-20.873 20.873s9.345 20.873 20.873 20.873c3.854 0 7.451-1.063 10.55-2.884-6.169-3.627-10.323-10.315-10.323-17.989z" fill="#ef4424"/></g><g><circle cx="337.38" cy="211.534" fill="#01d0fb" r="20.873"/></g><g><path d="m337.876 211.534c0-7.618 4.094-14.262 10.188-17.907-3.129-1.871-6.774-2.966-10.685-2.966-11.528 0-20.873 9.345-20.873 20.873s9.345 20.873 20.873 20.873c3.91 0 7.556-1.095 10.685-2.966-6.094-3.644-10.188-10.289-10.188-17.907z" fill="#01c0fa"/></g><g><circle cx="491.127" cy="211.534" fill="#01d0fb" r="20.873"/></g><g><path d="m491.373 211.534c0-7.67 4.149-14.355 10.314-17.983-3.101-1.825-6.702-2.89-10.559-2.89-11.528 0-20.873 9.345-20.873 20.873s9.345 20.873 20.873 20.873c3.858 0 7.459-1.065 10.559-2.89-6.165-3.628-10.314-10.313-10.314-17.983z" fill="#01c0fa"/></g></g><g><g><circle cx="245.949" cy="277.362" fill="#fed402" r="20.873"/></g></g><g><path d="m243.638 277.362c0-8.189 4.728-15.257 11.592-18.676-2.798-1.394-5.942-2.197-9.281-2.197-11.528 0-20.873 9.345-20.873 20.873s9.345 20.873 20.873 20.873c3.339 0 6.483-.804 9.281-2.197-6.865-3.419-11.592-10.487-11.592-18.676z" fill="#fac600"/></g></g></g></svg>