<?xml version="1.0" encoding="UTF-8"?>
<svg xmlns="http://www.w3.org/2000/svg" onmouseup="{ if(window.parent.document.onmouseup) window.parent.document.onmouseup(arguments[0]);}" width="512" viewBox="0 0 64 64" height="512" enable-background="new 0 0 64 64" id="Layer_5"><path data-cppathid="10000" fill="#838f9b" d="m30 36.22v10.78c0 .83-.34 1.58-.88 2.12s-1.29.88-2.12.88c-1.66 0-3-1.34-3-3v-8.52c0-.3-.14-.59-.38-.78l-4.62-3.7h-1v19c0 .83-.34 1.58-.88 2.12s-1.29.88-2.12.88c-1.66 0-3-1.34-3-3v-17-7h10l3 1.87 3.12 1.95c1.17.74 1.88 2.02 1.88 3.4z"/><path data-cppathid="10001" fill="#ff826e" d="m12 29v7s-6-3-6-8c0-4.14 1.48-7.43 3.08-9.78 1.82-2.68 4.91-4.22 8.16-4.22h.76 19c1.66 0 3 1.34 3 3 0 .83-.34 1.58-.88 2.12-.31.31-.69.56-1.12.7-.31.12-.65.18-1 .18h-3-9v10.87l-3-1.87z"/><path data-cppathid="10002" fill="#b27946" d="m38 19.82v.01l-1 30.17h-2l-1-30h3c.35 0 .69-.06 1-.18z"/><circle data-cppathid="10003" r="6" fill="#f0d0b4" cy="8" cx="18"/><path data-cppathid="10004" fill="#fcd770" d="m40 56c1.1 0 2 .9 2 2v2c0 1.1-.9 2-2 2h-16c-1.1 0-2-.9-2-2v-2c0-1.1.9-2 2-2h2 4 4 4z"/><path data-cppathid="10005" fill="#fcd770" d="m58 50h2c1.1 0 2 .9 2 2v2c0 1.1-.9 2-2 2h-2-4-4-4-2c-1.1 0-2-.9-2-2v-2c0-1.1.9-2 2-2h2 4 4z"/><g fill="#ffeaa7"><path data-cppathid="10006" d="m18 56h2c1.1 0 2 .9 2 2v2c0 1.1-.9 2-2 2h-16c-1.1 0-2-.9-2-2v-2c0-1.1.9-2 2-2h2 4 4 1z"/><path data-cppathid="10007" d="m38 50h2c1.1 0 2 .9 2 2v2c0 1.1-.9 2-2 2h-2-4-4-4-2c-1.1 0-2-.9-2-2v-2c0-1.1.9-2 2-2h2 1 3 4 1 2z"/><path data-cppathid="10008" d="m58 56h2c1.1 0 2 .9 2 2v2c0 1.1-.9 2-2 2h-16c-1.1 0-2-.9-2-2v-2c0-1.1.9-2 2-2h2 4 4z"/><path data-cppathid="10009" d="m54 44h4 2c1.1 0 2 .9 2 2v2c0 1.1-.9 2-2 2h-2-4-4-4-2c-1.1 0-2-.9-2-2v-2c0-1.1.9-2 2-2h2 4 2z"/></g><circle data-cppathid="10010" r="10" fill="#fcd770" cy="34" cx="52"/><path data-cppathid="10011" d="m60 43h-1.695c2.834-1.992 4.695-5.28 4.695-9 0-6.065-4.935-11-11-11s-11 4.935-11 11c0 3.72 1.861 7.008 4.695 9h-1.695c-1.654 0-3 1.346-3 3v2c0 .475.121.919.319 1.319-.4-.198-.844-.319-1.319-.319h-1.967l.946-28.545c1.201-.691 2.021-1.972 2.021-3.455 0-2.206-1.794-4-4-4h-14.111c1.301-1.272 2.111-3.042 2.111-5 0-3.859-3.141-7-7-7s-7 3.141-7 7c0 2.27 1.091 4.285 2.772 5.565-2.238.729-4.193 2.14-5.524 4.097-2.155 3.17-3.248 6.649-3.248 10.338 0 4.664 4.422 7.665 6 8.588v16.412c0 .732.212 1.409.556 2h-7.556c-1.654 0-3 1.346-3 3v2c0 1.654 1.346 3 3 3h16c.771 0 1.468-.301 2-.78.532.48 1.229.78 2 .78h16c.771 0 1.468-.301 2-.78.532.48 1.229.78 2 .78h16c1.654 0 3-1.346 3-3v-2c0-.771-.301-1.468-.78-2 .48-.532.78-1.229.78-2v-2c0-.771-.301-1.468-.78-2 .48-.532.78-1.229.78-2v-2c0-1.654-1.346-3-3-3zm-17-9c0-4.963 4.037-9 9-9s9 4.037 9 9-4.037 9-9 9-9-4.037-9-9zm0 12c0-.552.448-1 1-1h1v2h2v-2h2v2h2v-2h2v2h2v-2h2v2h2v-2h1c.552 0 1 .448 1 1v2c0 .552-.448 1-1 1h-16c-.552 0-1-.448-1-1zm18 6v2c0 .552-.448 1-1 1h-16c-.552 0-1-.448-1-1v-2c0-.552.448-1 1-1h1v2h2v-2h2v2h2v-2h2v2h2v-2h2v2h2v-2h1c.552 0 1 .448 1 1zm-20 0v2c0 .552-.448 1-1 1h-16c-.552 0-1-.448-1-1v-2c0-.552.448-1 1-1h1v2h2v-2h2v2h2v-2h2v2h2v-2h2v2h2v-2h1c.552 0 1 .448 1 1zm-22.556 3c.344-.591.556-1.268.556-2v-17.72l4 3.2v8.52c0 .749.22 1.443.579 2.043-1.454.206-2.579 1.447-2.579 2.957v2c0 .475.121.919.319 1.319-.4-.198-.844-.319-1.319-.319zm10.206-23.022-2.65-1.657v-9.321h7.033l.933 28h-3.523c.345-.591.557-1.268.557-2v-10.783c0-1.736-.879-3.321-2.35-4.239zm7.317 17.022-.933-28h1.928l-.928 28zm-22.967-41c0-2.757 2.243-5 5-5s5 2.243 5 5-2.243 5-5 5-5-2.243-5-5zm-6 20c0-3.281.977-6.381 2.902-9.213 1.613-2.371 4.356-3.787 7.337-3.787h19.761c1.103 0 2 .897 2 2s-.897 2-2 2h-13v10.071l-1.713-1.071h-9.287v-7h-2v13.199c-1.614-1.149-4-3.328-4-6.199zm6 25v-23h8.713l5.877 3.673c.883.552 1.41 1.503 1.41 2.544v10.783c0 1.103-.897 2-2 2s-2-.897-2-2v-8.52c0-.611-.273-1.181-.75-1.562l-4.899-3.918h-2.351v20c0 1.103-.897 2-2 2s-2-.897-2-2zm7 8h-16c-.552 0-1-.448-1-1v-2c0-.552.448-1 1-1h1v2h2v-2h2v2h2v-2h2v2h2v-2h2v2h2v-2h1c.552 0 1 .448 1 1v2c0 .552-.448 1-1 1zm20 0h-16c-.552 0-1-.448-1-1v-2c0-.552.448-1 1-1h1v2h2v-2h2v2h2v-2h2v2h2v-2h2v2h2v-2h1c.552 0 1 .448 1 1v2c0 .552-.448 1-1 1zm21-1c0 .552-.448 1-1 1h-16c-.552 0-1-.448-1-1v-2c0-.552.448-1 1-1h1v2h2v-2h2v2h2v-2h2v2h2v-2h2v2h2v-2h1c.552 0 1 .448 1 1z"/><path data-cppathid="10012" d="m53 31c.552 0 1 .448 1 1h2c0-1.654-1.346-3-3-3v-2h-2v2h-3v3c0 1.654 1.346 3 3 3h2c.552 0 1 .448 1 1v1h-3c-.552 0-1-.448-1-1h-2c0 1.654 1.346 3 3 3v2h2v-2h3v-3c0-1.654-1.346-3-3-3h-2c-.552 0-1-.448-1-1v-1z"/></svg>