<?xml version="1.0" encoding="UTF-8"?>
<svg xmlns="http://www.w3.org/2000/svg" onmouseup="{ if(window.parent.document.onmouseup) window.parent.document.onmouseup(arguments[0]);}" xml:space="preserve" style="enable-background:new 0 0 511.999 511.999;" viewBox="0 0 511.999 511.999" y="0px" x="0px" id="Capa_1" version="1.1" xmlns:xlink="http://www.w3.org/1999/xlink"><path data-cppathid="10000" d="M239.824,99.169c-0.009-0.262-0.019-0.523-0.03-0.785c-0.046-1.094-0.105-2.184-0.189-3.269  c-0.002-0.024-0.004-0.048-0.007-0.072c-0.083-1.075-0.19-2.142-0.309-3.207c-0.025-0.225-0.05-0.45-0.077-0.675  c-0.13-1.094-0.274-2.184-0.441-3.266c-0.002-0.009-0.003-0.018-0.005-0.027c-0.167-1.083-0.358-2.157-0.562-3.227  c-0.033-0.176-0.066-0.352-0.101-0.527c-5.243-26.706-20.472-42.672-20.39-42.55C168.554-16.942,73.631,4.229,53.703,77.635  c-5.524,20.392-2.308,34.454-3.296,52.888h189.481v-28.055C239.887,101.363,239.861,100.265,239.824,99.169z" style="fill:#996123;"/><path data-cppathid="10001" d="M154.593,8.2c-46.779-4.677-88.989,25.536-100.89,69.436c-5.524,20.392-2.308,34.46-3.296,52.888  h18.892v-28.055C69.298,53.468,106.468,12.969,154.593,8.2z" style="fill:#8E551C;"/><path data-cppathid="10002" d="M282.883,470.796c-17.65-156.301-16.655-151.889-18.236-159.529  c-2.565-12.404-10.04-22.183-20.418-28.522l-0.361-0.089c-4.416-2.646-9.34-4.731-14.627-6.255l-50.889-12.669  c-1.654-0.749-2.799-3.213-2.799-6.022v-27.688c-18.891,8.358-41.24,8.524-60.444,0.158v27.53c0,2.809-1.146,5.273-2.799,6.022  c-43.049,11.469-52.624,11.201-65.517,18.924l-0.361,0.089c-10.342,6.316-17.846,16.08-20.418,28.522  c-1.582,7.651-0.488,2.36-18.236,159.529c-1.692,19.583,8.631,33.706,27.549,33.706c66.435,0,147.754,0,220.01,0  C274.227,504.502,284.581,490.446,282.883,470.796z" style="fill:#EAB883;"/><path data-cppathid="10003" d="M32.577,476.21c-0.1-5.786-0.416,1.616,17.2-167.414c2.152-17.645,8.062-25.926,18.993-34.225  c-2.675,0.829-12.014,2.116-21.979,8.085l-0.361,0.089c-10.341,6.315-17.845,16.08-20.418,28.522  c-1.583,7.651-0.488,2.36-18.236,159.529c-1.696,19.623,8.668,33.706,27.549,33.706c15.469,0,9.519,0,24.99,0  C42.297,504.502,32.263,490.943,32.577,476.21z" style="fill:#D8A373;"/><path data-cppathid="10004" d="M264.647,311.267c-2.565-12.404-10.04-22.183-20.418-28.522l-0.361-0.089  c-4.416-2.646-9.34-4.731-14.627-6.255l-36.691-9.134c-22.899,32.947-71.534,32.958-94.441,0  c-29.788,8.093-39.035,8.031-51.318,15.389l-0.361,0.089c-10.342,6.316-17.846,16.08-20.418,28.522  c-1.529,7.394-1.123,7.928-9.311,79.784h53.78l-5.998,113.451c32.145,0,127.784,0,161.694,0l-5.998-113.451h53.781  C265.661,318.251,266.187,318.715,264.647,311.267z" style="fill:#7EBC7E;"/><path data-cppathid="10005" d="M16.7,391.05h24.439l8.637-82.255c2.152-17.645,8.062-25.926,18.993-34.225  c-2.906,0.894-11.835,2.008-21.979,8.085l-0.361,0.089c-3.281,2.005-8.24,5.902-11.83,10.298  C23.931,306.102,25.551,313.802,16.7,391.05z" style="fill:#5EAA5E;"/><g><path data-cppathid="10006" d="M244.603,136.996c0,10.919-11.568,19.768-24.606,19.768v-39.535   C233.034,117.229,244.603,126.078,244.603,136.996z" style="fill:#EAB883;"/><path data-cppathid="10007" d="M45.692,136.996c0,10.919,11.568,19.768,24.607,19.768v-39.535   C57.26,117.229,45.692,126.078,45.692,136.996z" style="fill:#EAB883;"/></g><g><path data-cppathid="10008" d="M219.996,139.767v16.998c17.215,0,30.308-14.925,22.127-28.267   C238.038,135.162,229.401,139.767,219.996,139.767z" style="fill:#D8A373;"/><path data-cppathid="10009" d="M48.171,128.497c-8.249,13.455,5.06,28.267,22.128,28.267v-16.998   C60.894,139.767,52.256,135.162,48.171,128.497z" style="fill:#D8A373;"/></g><path data-cppathid="10010" d="M219.057,273.866l-26.508-6.599c-22.899,32.947-71.534,32.958-94.441,0l-26.508,6.599  C103.66,331.706,186.911,331.865,219.057,273.866z" style="fill:#9AD89A;"/><path data-cppathid="10011" d="M98.864,268.32c-0.254-0.349-0.508-0.698-0.755-1.053l-26.508,6.599  c21.463,38.724,68.549,53.707,107.847,36.267C146.004,313.13,115.03,296.291,98.864,268.32z" style="fill:#91CE91;"/><path data-cppathid="10012" d="M118.698,285.447l12.23-3.674c5.767-1.732,9.715-7.04,9.715-13.062v-32.482  c-9.13-0.536-17.636-2.611-25.537-6.05v27.53c0,2.809-1.146,5.272-2.799,6.022l-14.198,3.535  C103.389,274.865,110.455,281.126,118.698,285.447z" style="fill:#D8A373;"/><path data-cppathid="10013" d="M217.147,111.741c-0.668-0.161-1.415-0.367-2.229-0.628h-0.003l0,0  c-7.161-2.289-19.531-8.885-29.435-27.89c-2.011-3.859-7.586-3.765-9.454,0.166c-9.102,19.144-45.685,45.679-101.677,30.363  c-2.478-0.678-5.05,1.133-5.05,3.876c0.188,45.684-0.446,47.427,0.634,55.75c4.8,36.965,36.32,65.788,74.763,65.991  c26.7,0.159,51.14-13.602,64.999-35.98c15.283-24.695,10.633-44.146,11.305-85.761C220.999,114.124,218.884,112.495,217.147,111.741  z" style="fill:#F7CF9C;"/><path data-cppathid="10014" d="M95.765,178.383c-0.194-0.977-0.459-2.047-0.843-5.005c-0.92-7.09-0.635-55.622-0.634-55.764  c-6.338-0.706-12.989-1.961-19.941-3.862c-2.477-0.678-5.049,1.133-5.049,3.876v45.901c0,3.338,0.216,6.625,0.634,9.849  c5.453,42.049,44.867,72.059,87.712,64.954C155.747,238.018,101.913,209.309,95.765,178.383z" style="fill:#EAB883;"/><path data-cppathid="10015" d="M498.323,220.325c-10.484-32.529-25.692-51.442-34.541-58.308  c-2.044,7.037-8.207,12.321-15.709,13.062c15.216,21.173,12.949,43.43,12.216,56.003c-0.329,5.653,4.758,10.091,10.303,8.941  l18.471-3.83C496.246,234.703,500.574,227.309,498.323,220.325z" style="fill:#996123;"/><circle data-cppathid="10016" r="18.201" cy="157.967" cx="447.303" style="fill:#D83D3D;"/><path data-cppathid="10017" d="M443.36,140.208c-8.153,1.804-14.254,9.064-14.254,17.76c0,10.052,8.149,18.201,18.201,18.201  c8.248,0,15.204-5.489,17.44-13.011C451.191,166.16,439.405,153.515,443.36,140.208z" style="fill:#B72C2C;"/><path data-cppathid="10018" d="M234.793,220.325c10.484-32.529,25.692-51.442,34.541-58.308c2.044,7.037,8.207,12.321,15.709,13.062  c-15.216,21.173-12.949,43.43-12.216,56.003c0.329,5.653-4.758,10.091-10.303,8.941l-18.471-3.83  C236.872,234.703,232.543,227.309,234.793,220.325z" style="fill:#8E551C;"/><circle data-cppathid="10019" r="18.201" cy="157.967" cx="285.806" style="fill:#D83D3D;"/><path data-cppathid="10020" d="M300.439,147.171c-10.418-14.091-32.83-6.726-32.83,10.797c0,9.557,7.37,17.378,16.734,18.128  C275.167,163.683,284.746,145.917,300.439,147.171z" style="fill:#B72C2C;"/><path data-cppathid="10021" d="M487.145,318.792c-1.813-14.863-7.07-27.146-21.645-36.047l-0.36-0.089  c-12.843-7.693-22.178-7.377-65.517-18.924c-1.653-0.749-2.799-3.213-2.799-6.022v-27.545c-20.044,8.754-42.374,7.855-60.445-0.128  v27.673c0,2.809-1.146,5.273-2.799,6.022c-43.049,11.469-52.624,11.201-65.517,18.924l-0.361,0.089  c-14.266,8.714-19.75,20.52-21.644,36.047l-17.01,152.004c-1.703,19.706,8.743,33.706,27.549,33.706c9.094,0,210.508,0,220.01,0  c18.264,0,28.113-13.913,27.738-28.292C504.448,470.295,504.924,479.078,487.145,318.792z" style="fill:#EFD0A3;"/><path data-cppathid="10022" d="M254.039,470.796c17.624-165.004,16.534-160.297,18.236-168.526  c2.521-12.194,9.645-21.685,19.993-28.253c-4.204,1.273-13.789,2.399-24.204,8.639l-0.361,0.089  c-14.266,8.714-19.75,20.521-21.644,36.047l-17.01,152.004c-1.702,19.707,8.743,33.706,27.549,33.706c15.469,0,9.519,0,24.99,0  C262.674,504.502,252.344,490.419,254.039,470.796z" style="fill:#E2BF91;"/><path data-cppathid="10023" d="M430.325,30.764c-64.073-53.452-163.03-8.097-163.03,76.706c0,9.648,0,16.423,0,26.261  c9.346,0,189.618,0,198.912,0v-11.675C465.166,116.468,473.857,67.143,430.325,30.764z" style="fill:#996123;"/><path data-cppathid="10024" d="M290.898,107.47c0-51.019,38.207-93.188,87.654-99.051c-59.394-7.041-111.257,39.486-111.257,99.051  c0,9.648,0,16.423,0,26.261h23.604C290.898,123.89,290.898,117.117,290.898,107.47z" style="fill:#8E551C;"/><g><path data-cppathid="10025" d="M267.295,133.73c0,10.919,10.569,19.768,23.607,19.768v-39.535   C277.864,113.963,267.295,122.813,267.295,133.73z" style="fill:#EFD0A3;"/><path data-cppathid="10026" d="M466.207,133.73c0,10.919-10.569,19.768-23.608,19.768v-39.535   C455.637,113.963,466.207,122.813,466.207,133.73z" style="fill:#EFD0A3;"/></g><g><path data-cppathid="10027" d="M269.512,125.366c-7.265,13.004,4.04,28.134,21.39,28.134v-16.731   C281.435,136.768,273.275,132.1,269.512,125.366z" style="fill:#E2BF91;"/><path data-cppathid="10028" d="M442.599,136.768V153.5c17.46,0,28.618-15.198,21.391-28.134   C460.226,132.1,452.065,136.768,442.599,136.768z" style="fill:#E2BF91;"/></g><path data-cppathid="10029" d="M491.902,361.298c-4.642-40.274-4.492-42.825-5.982-50.031c-2.567-12.412-10.051-22.19-20.419-28.522  l-0.36-0.089c-12.664-7.586-22.575-7.532-57.367-16.894c-0.637,3.353,3.764,22.711-12.39,38.474  c-26.148,25.485-69.66,6.69-69.66-29.378c0-0.303,0-9.6,0-9.168c-35.672,9.595-45.099,9.443-57.66,16.967l-0.361,0.089  c-26.218,16.014-20.123,38.753-26.401,78.553l51.706,11.7l-6.952,131.503H447.44l-6.952-131.503L491.902,361.298z" style="fill:#F9B938;"/><path data-cppathid="10030" d="M241.935,355.648l-0.632,5.65l23.738,5.372c6.014-55.302,5.602-56.509,7.234-64.399  c2.521-12.194,9.645-21.685,19.993-28.253c-4.204,1.273-13.789,2.399-24.204,8.639l-0.361,0.089  C241.616,298.676,247.359,322.151,241.935,355.648z" style="fill:#EAA224;"/><path data-cppathid="10031" d="M325.724,265.689l-25.968,6.464c0.492,67.644,81.435,90.974,119.503,42.968  c16.088-20.262,14.308-42.009,14.482-42.895l-25.968-6.464c-0.637,3.353,3.764,22.711-12.39,38.474  c-26.148,25.485-69.66,6.69-69.66-29.378C325.724,274.554,325.724,265.257,325.724,265.689z" style="fill:#FCD249;"/><path data-cppathid="10032" d="M327.729,287.538c-1.353-4.154-2.005-8.399-2.005-12.682c0-0.303,0-9.6,0-9.168l-25.968,6.464  c0.34,46.846,41.282,74.992,80.237,67.041C352.49,333.582,332.39,311.522,327.729,287.538z" style="fill:#F2C136;"/><path data-cppathid="10033" d="M325.724,274.857c0,5.829,1.212,11.663,3.798,17.231l19.879-6.578  c7.043-2.331,11.799-8.914,11.799-16.334v-33.02c-8.998-0.652-17.375-2.83-24.819-6.119v27.673c0,2.809-1.146,5.272-2.799,6.022  l-7.857,1.956C325.724,266.021,325.724,274.959,325.724,274.857z" style="fill:#E2BF91;"/><path data-cppathid="10034" d="M361.523,88.788c-17.021,28.314-53.156,23.96-65.986,21.367c-2.4-0.485-4.638,1.359-4.638,3.809l0,0  c0,53.653-0.029,50.157,0.064,52.554c0.004,0.11,0.002,0.222,0.007,0.332c0.008,0.186,0.027,0.37,0.036,0.556  c0.037,0.728,0.083,1.451,0.141,2.173c0.023,0.296,0.045,0.593,0.072,0.889c0.086,0.951,0.185,1.898,0.306,2.839  c0.003,0.024,0.005,0.048,0.008,0.072c8.265,63.646,86.84,88.246,130.334,42.256c25.217-26.836,20.115-56.617,20.733-63.196v-27.384  v-11.091l0,0c0-2.449-2.237-4.293-4.638-3.809c-12.829,2.593-48.965,6.947-65.986-21.367  C369.603,84.843,363.895,84.843,361.523,88.788z" style="fill:#FCE3BB;"/><path data-cppathid="10035" d="M334.873,213.71c-23.508-26.95-18.284-54.533-18.984-61.272v-27.384v-11.091  c0-0.715,0.207-1.366,0.538-1.936c-8.658,0.21-16.281-0.941-20.89-1.872c-2.4-0.485-4.638,1.359-4.638,3.809  c0,53.543-0.029,50.162,0.064,52.555c0.004,0.11,0.002,0.222,0.007,0.332c0.008,0.186,0.027,0.37,0.036,0.556  c0.037,0.727,0.083,1.451,0.141,2.173c0.024,0.296,0.045,0.593,0.072,0.889c0.086,0.951,0.185,1.898,0.306,2.839  c0.003,0.024,0.005,0.048,0.008,0.072c5.517,42.505,45.22,72,87.712,64.954C362.847,235.614,346.326,226.826,334.873,213.71z" style="fill:#EFD0A3;"/><path data-cppathid="10036" d="M494.603,317.884c-1.891-15.498-7.108-28.575-21.387-38.894c-11.315-8.883-26.754-11.327-68.88-21.813v-19.244  c0.255-0.127,0.081-0.037,0.353-0.176l0.001,0.001c0.754-0.361,2.882-1.514,4.024-2.206l0.125-0.074l0,0  c19.038-10.961,32.894-29.918,38.018-48.873c8.824,16.291,6.687,31.552,5.962,44.043c-0.615,10.585,8.93,18.868,19.308,16.718  l18.472-3.83c5.512-1.144,10.299-4.591,13.133-9.458c2.829-4.857,3.464-10.707,1.741-16.05  c-10.96-34.002-25.162-50.895-32.556-57.879c0.423-4.906-0.553-9.624-2.705-13.865c1.821-3.065,2.999-6.467,3.372-10.072  c0.273-0.777,0.428-1.608,0.428-2.479c-1.333-14.03,5.805-48.789-16.431-83.321l-0.014,0.009  c-4.243-5.944-13.638-2.939-13.638,4.359c0,2.767,0.932,3.274,3.532,7.947c13.704,24.651,11.254,46.217,11.556,47.856  c-3.427-1.872-7.295-3.177-11.437-3.763c-2.79-3.449-7.081-4.824-11.091-4.011c-38.088,7.696-53.302-9.941-58.076-17.882  c-2.481-4.128-6.837-6.593-11.649-6.594c-0.001,0-0.001,0-0.002,0c-4.812,0-9.168,2.465-11.65,6.593  c-0.001,0-0.001,0.001-0.001,0.001c-4.773,7.939-19.987,25.574-58.076,17.882c-4.065-0.823-8.338,0.608-11.092,4.012  c-4.141,0.586-8.009,1.891-11.435,3.764v-3.113c0-76.101,87.016-119.581,148.566-73.062c3.262,2.552,7.956,1.963,10.506-1.298  c2.552-3.261,1.959-7.987-1.301-10.539c-71.68-54.698-169.077-2.988-172.663,80.208c-0.174,4.067-0.07,4.642-0.101,30.953  c0,0.874,0.157,1.709,0.432,2.489c0.36,3.465,1.462,6.742,3.167,9.713c-2.265,4.297-3.322,9.142-2.885,14.213  c-7.394,6.984-21.598,23.878-32.556,57.879l0,0c-3.618,11.229,3.345,23.117,14.874,25.508c18.491,3.731,18.913,4.172,21.778,4.172  c3.807,0,7.488-1.354,10.445-3.907c6.483-5.598,5.638-12.281,5.295-17.006c-0.797-11.001-1.846-25.612,6.477-40.643  c6.813,20.396,16.074,35.174,35.035,47.411c4.241,2.734,7.219,4.17,7.319,4.225v19.389c-47.588,11.846-59.011,12.808-72.93,25.053  c-13.817-12.129-24.75-13.067-72.903-25.053v-19.406c0.117-0.069,4.601-2.233,10.097-6.107  c37.683-26.584,35.192-67.629,35.35-68.208c20.506-4.468,30.035-25.243,18.887-40.871c0.207-32.639-0.049-59.397-25.915-88.137  C159.146-35.456,42.926,8.88,42.926,102.469v20.058c0,0.019,0.003,0.038,0.003,0.057c-2.986,4.184-4.718,9.123-4.718,14.411  c0,12.769,10.067,23.511,23.608,26.46c0.221,6.924,0.333,11.85,2.478,20.32c5.933,23.878,22.212,43.524,43.33,54.173v19.227  c-43.846,10.915-57.579,12.947-68.879,21.812c-10.951,7.914-17.589,18.806-20.06,30.759c-1.337,6.462-18.355,160.3-18.364,160.403  c-2.055,23.748,11.544,41.849,35.018,41.849h65.587c4.14,0,7.497-3.356,7.497-7.497c0-4.141-3.357-7.497-7.497-7.497H72.711  l7.434-140.616c0.218-4.134-2.957-7.663-7.091-7.882c-4.144-0.259-7.664,2.956-7.883,7.091l-1.477,27.955H25.099  c6.988-60.676,6.927-66.868,9.102-74.046c6.987-23.06,33.171-26.613,33.837-27.024c16.802,26.264,45.911,42.356,77.308,42.356  s60.505-16.093,77.308-42.356c1.625,0.47,9.326,1.779,17.377,6.604c0.326,0.195,0.666,0.365,1.016,0.509  c1.005,0.667,3.702,2.698,5.235,4.058c-0.894,2.092-5.569,7.204-7.657,24.303l-7.34,65.595h-3.978l-1.477-27.955  c-0.219-4.135-3.739-7.337-7.883-7.091c-4.134,0.219-7.309,3.748-7.091,7.882l7.434,140.616h-82.374  c-4.14,0-7.497,3.356-7.497,7.497c0,4.141,3.357,7.497,7.497,7.497c10.682,0,171.867,0,182.771,0c4.141,0,7.497-3.356,7.497-7.497  c0-4.141-3.356-7.497-7.497-7.497h-24.708l7.434-140.616c0.219-4.134-2.956-7.663-7.091-7.882c-4.116-0.232-7.664,2.956-7.882,7.091  l-0.43,8.125l-36.493-8.257c5.306-34.986,0.291-53.09,22.417-66.379c9.096-5.45,17.577-6.472,20.785-7.452  c4.172,39.187,36.22,55.984,36.415,56.163l0,0l0.104,0.062c3.597,1.82,7.453,4.556,18.395,7.656  c10.655,2.831,19.73,2.478,19.535,2.478c14.363,0,28.67-4.497,39.731-11.729l0,0l0.104-0.067c0.985-0.718,8.538-5.157,16.297-14.182  c10.095-11.767,15.94-25.843,17.495-40.312c3.04,0.931,11.566,2.025,20.511,7.384c22.309,13.399,16.825,31.003,22.418,66.387  l-36.201,8.238l-0.429-8.114c-0.211-4-3.52-7.101-7.479-7.101c-0.134,0-0.269,0.003-0.402,0.011  c-4.135,0.219-7.31,3.748-7.091,7.882l7.433,140.616h-85.882c-4.141,0-7.497,3.356-7.497,7.497c0,4.141,3.356,7.497,7.497,7.497  h122.953c21.992,0,35.463-16.535,35.235-35.796C511.956,469.751,512.348,477.86,494.603,317.884z M466.53,175.05  c7.966,9.09,17.351,24.857,24.674,47.576c0.573,1.775-0.021,3.209-0.428,3.904c-0.408,0.703-1.37,1.937-3.22,2.321l-18.472,3.83  c-0.725,0.148-1.337-0.439-1.296-1.166c0.066-1.143,0.155-2.359,0.248-3.644c0.819-11.303,2.115-29.221-7.651-47.764  C462.687,178.755,464.759,177.048,466.53,175.05z M450.112,122.921c11.749,4.844,11.176,17.011,0,21.62V122.921z M450.112,160.2  c2.411-0.521,5.419-1.522,7.905-2.762c0.22,5.16-3.249,9.634-8.042,10.887C449.988,168.103,450.096,161.172,450.112,160.2z   M264.064,232.683l-18.471-3.83c-2.829-0.587-4.527-3.496-3.648-6.227l0,0c7.322-22.719,16.707-38.485,24.674-47.576  c1.77,1.998,3.843,3.705,6.144,5.06C257.814,208.489,269.086,233.721,264.064,232.683z M283.417,122.924v21.617  C272.124,139.879,271.807,127.712,283.417,122.924z M275.143,157.254c2.624,1.352,5.82,2.419,8.275,2.948  c0.082,7.669,0.05,6.663,0.141,8.21C283.494,168.399,274.815,162.569,275.143,157.254z M62.592,398.547l-5.205,98.457  c-17.7-0.958-28.508,2.742-36.446-5.305c-3.366-3.412-5.764-8.633-5.844-15.619c-0.092-5.293,0.218-3.714,8.322-77.534H62.592z   M228.512,147.805v-21.617C239.963,130.911,239.964,143.08,228.512,147.805z M61.817,147.806c-11.456-4.724-11.458-16.894,0-21.62  V147.806z M64.671,110.037c-2.347,0.309-4.605,0.855-6.751,1.598c0.015-6.963-0.098-11.268,0.256-15.893  c4.428-49.342,45.292-81.749,89.521-80.478l0.813,0.032c44.245,1.614,81.846,37.045,83.811,83.41  c0.144,8.76,0.06,0.926,0.086,12.928c-1.913-0.663-3.917-1.164-5.993-1.483c-1.438-2.283-3.57-4.118-6.266-5.288  c-0.994-0.433-1.248-0.348-3.02-0.92c-5.604-1.813-16.217-7.363-24.984-24.186c-2.254-4.326-6.687-7.004-11.571-6.869  c-4.879,0.089-9.209,2.879-11.303,7.28c-7.106,14.948-39.173,41.056-92.928,26.351C72.189,105.386,67.699,106.601,64.671,110.037z   M93.946,208.779c-21.033-24.487-17.134-43.531-17.134-86.658c31.074,7.476,54.456,2.219,68.828-3.695  c15.509-6.382,28.35-16.71,35.193-28.132c9.357,16.105,21.537,24.919,32.682,28.227c0.001,8.284-0.002,37.721,0.002,38.292  c-0.519,2.55,3.991,31.229-20.171,55.185c-21.655,21.023-42.882,19.004-51.43,19.806c-1.121-0.052-2.245-0.132-3.365-0.239  s-2.236-0.242-3.34-0.402C118.836,228.766,104.153,220.423,93.946,208.779z M176.555,271.008l2.276,0.567  c-19.066,17.217-47.905,17.218-66.973,0l2.276-0.567c0.439-0.11,0.868-0.259,1.28-0.445c4.376-1.981,7.205-7.025,7.205-12.851  v-13.937c13.715,4,29.844,4.284,45.451-0.101v14.038C168.071,264.821,172.199,269.914,176.555,271.008z M83.56,278.619l11.579-2.883  c25.945,31.564,74.315,31.751,100.413,0l11.579,2.883C176.488,320.152,114.304,320.29,83.56,278.619z M228.582,407.698l-0.484-9.151  h1.507L228.582,407.698z M285.205,378.914l-6.243,118.091c-22.169-0.124-31.785,1.936-38.515-7.415  c-3.768-5.265-4.462-11.625-3.919-18.059c1.206-10.773,10.102-90.271,11.311-101.071L285.205,378.914z M404.59,237.808l-0.252-0.518  v-0.232l0.353,0.697L404.59,237.808z M314.882,208.026c-20.598-23.973-16.47-46.49-16.468-89.753  c15.497,2.388,50.112,4.043,68.35-23.716c18.24,27.76,52.858,26.1,68.353,23.716c0,9.226,0,35.986,0,45.255  C435.118,225.87,357.396,256.175,314.882,208.026z M391.317,297.686c-2.445,2.609-4.686,4.326-7.671,6.139  c-8.785,5.124-17.312,4.574-16.483,4.554c-0.1,0-0.687,0.001-0.554,0.001c-13.858-0.277-20.577-7.458-21.284-7.747l0.024,0.02  c-3.226-2.853-4.068-4.007-3.978-3.906c-4.177-4.907-6.443-9.997-7.559-15.701c-0.686-3.407-0.568-6.558-0.576-9.496  c1.855-0.488,2.481-0.546,3.453-0.987c4.375-1.98,7.203-7.025,7.203-12.85v-14.029c14.609,4.143,30.416,4.323,45.451,0.083v13.946  c0,7.109,4.129,12.205,8.486,13.297l2.463,0.613C400.025,272.716,402.179,286.156,391.317,297.686L391.317,297.686z M392.011,327.4  c-0.498,0.065-15.814,8.586-36.763,4.496c-26.347-5.226-45.953-27.459-47.805-53.927c2.329-0.58,8.255-2.055,10.803-2.689  c0.496,47.763,63.02,66.227,89.203,26.031c2.133-3.964,7.654-12.022,7.836-25.959l10.799,2.688  C424.934,296.149,413.773,317.161,392.011,327.4z M491.022,491.7c-7.949,8.056-18.751,4.346-36.454,5.305l-6.244-118.099  l37.075-8.437c12.252,111.011,11.316,97.894,11.464,105.925C496.916,480.891,495.407,487.256,491.022,491.7z"/><g/><g/><g/><g/><g/><g/><g/><g/><g/><g/><g/><g/><g/><g/><g/></svg>