<?xml version="1.0" encoding="UTF-8"?>
<svg xmlns="http://www.w3.org/2000/svg" onmouseup="{ if(window.parent.document.onmouseup) window.parent.document.onmouseup(arguments[0]);}" width="512" viewBox="0 0 512.003 512.003" height="512" enable-background="new 0 0 512.003 512.003" id="Capa_1"><g><g id="Page-1_98_"><g id="_x30_99---Real-Estate-Investment-Trust"><path data-cppathid="10000" fill-rule="evenodd" d="m338.286 18.287c5.049 0 9.143-4.093 9.143-9.143s-4.093-9.143-9.143-9.143h-329.143c-5.05 0-9.143 4.094-9.143 9.143s4.093 9.143 9.143 9.143z" clip-rule="evenodd" id="Path_538_"/><path data-cppathid="10001" d="m189.166 310.858c2.565-9.413 5.929-18.589 10.057-27.429h-62.08c-10.099 0-18.286-8.187-18.286-18.286v-36.571c0-10.099 8.187-18.286 18.286-18.286h73.143c10.099 0 18.286 8.187 18.286 18.286v10.971c28.525-31.366 67.559-51.186 109.714-55.707v-147.263h-329.143v429.714c0 5.049 4.093 9.143 9.143 9.143h73.143v-137.143c0-15.148 12.28-27.429 27.429-27.429zm48.548-256h36.571c5.049 0 9.143 4.093 9.143 9.143s-4.093 9.143-9.143 9.143h-9.143v64c0 5.049-4.093 9.143-9.143 9.143-5.049 0-9.143-4.093-9.143-9.143v-64h-9.143c-5.049 0-9.143-4.093-9.143-9.143s4.095-9.143 9.144-9.143zm-45.714 9.143c0-5.049 4.093-9.143 9.143-9.143s9.143 4.093 9.143 9.143v73.143c0 5.049-4.093 9.143-9.143 9.143s-9.143-4.093-9.143-9.143zm-64 0c0-5.049 4.093-9.143 9.143-9.143h27.429c5.049 0 9.143 4.093 9.143 9.143s-4.093 9.143-9.143 9.143h-18.286v18.286h9.143c5.049 0 9.143 4.093 9.143 9.143 0 5.049-4.093 9.143-9.143 9.143h-9.143v18.286h18.286c5.049 0 9.143 4.093 9.143 9.143s-4.093 9.143-9.143 9.143h-27.429c-5.049 0-9.143-4.093-9.143-9.143zm-73.143 36.572v-36.572c0-5.049 4.093-9.143 9.143-9.143h18.286c10.84-.048 20.682 6.32 25.081 16.227s2.522 21.479-4.784 29.487c4.565 4.998 7.108 11.516 7.131 18.286v18.286c0 5.049-4.093 9.143-9.143 9.143s-9.143-4.093-9.143-9.143v-18.286c0-5.049-4.093-9.143-9.143-9.143h-9.143v27.429c0 5.049-4.093 9.143-9.143 9.143s-9.143-4.093-9.143-9.143v-36.571zm9.143 64h219.429c5.049 0 9.143 4.093 9.143 9.143 0 5.049-4.093 9.143-9.143 9.143h-219.429c-5.049 0-9.143-4.093-9.143-9.143s4.094-9.143 9.143-9.143zm36.571 100.571c0 10.099-8.187 18.286-18.286 18.286h-36.571c-10.099 0-18.286-8.187-18.286-18.286v-36.571c0-10.099 8.187-18.286 18.286-18.286h36.571c10.099 0 18.286 8.187 18.286 18.286z" id="Shape_193_"/><g fill-rule="evenodd" clip-rule="evenodd"><circle data-cppathid="10002" r="27.429" cy="310.858" cx="292.571" id="Oval_38_"/><circle data-cppathid="10003" r="27.429" cy="310.858" cx="420.571" id="Oval_37_"/><path data-cppathid="10004" d="m356.571 201.144c-54.581-.046-105.18 28.564-133.276 75.359s-29.564 104.903-3.867 153.057v-36.416c.031-24.097 15.76-45.362 38.793-52.443-16.165-18.391-14.969-46.252 2.712-63.191 17.681-16.938 45.568-16.938 63.249 0s18.876 44.8 2.712 63.191c2.78.856 5.485 1.936 8.091 3.227 13.398-7.559 29.774-7.559 43.173 0 2.606-1.292 5.312-2.371 8.091-3.227-16.165-18.391-14.969-46.252 2.712-63.191 17.681-16.938 45.568-16.938 63.249 0s18.876 44.8 2.712 63.191c23.033 7.082 38.763 28.346 38.793 52.443v36.416c25.697-48.154 24.229-106.262-3.867-153.057-28.097-46.794-78.695-75.405-133.277-75.359z" id="Path_537_"/><path data-cppathid="10005" d="m374.857 429.716h-36.571c-20.198 0-36.571 16.374-36.571 36.571v35.529c35.311 13.58 74.404 13.58 109.714 0v-35.529c0-20.198-16.374-36.571-36.572-36.571z" id="Path_536_"/><path data-cppathid="10006" d="m438.857 356.573h-36.571c-2.863.025-5.714.384-8.494 1.07 12.323 17.094 11.129 40.451-2.871 56.201 23.033 7.082 38.763 28.346 38.793 52.443v27.355c17.45-9.369 32.963-21.965 45.714-37.12v-63.378c.001-20.198-16.373-36.571-36.571-36.571z" id="Path_535_"/><circle data-cppathid="10007" r="27.429" cy="384.001" cx="356.571" id="Oval_36_"/><path data-cppathid="10008" d="m45.714 228.573h36.581v36.571h-36.581z" id="Rectangle_102_"/><path data-cppathid="10009" d="m137.143 265.144h72c.384-.622.75-1.262 1.143-1.883v-34.688h-73.143z" id="Path_534_"/><path data-cppathid="10010" d="m310.857 384.001c.014-9.457 2.983-18.673 8.494-26.359-2.78-.686-5.63-1.045-8.494-1.07h-36.571c-20.198 0-36.571 16.374-36.571 36.571v63.378c12.752 15.155 28.264 27.751 45.714 37.12v-27.355c.031-24.097 15.76-45.362 38.793-52.443-7.283-8.239-11.322-18.845-11.365-29.842z" id="Path_533_"/><path data-cppathid="10011" d="m91.429 82.287c0-5.049-4.093-9.143-9.143-9.143h-9.143v18.286h9.143c5.049 0 9.143-4.094 9.143-9.143z" id="Path_532_"/><path data-cppathid="10012" d="m185.234 329.144h-66.377c-5.049 0-9.143 4.093-9.143 9.143v137.143h120.521c-37.287-38.903-53.975-93.151-45.001-146.286z" id="Path_531_"/></g></g></g></g></svg>