<?xml version="1.0" encoding="UTF-8"?>
<svg xmlns="http://www.w3.org/2000/svg" onmouseup="{ if(window.parent.document.onmouseup) window.parent.document.onmouseup(arguments[0]);}" data-name="filled outline" width="512" viewBox="0 0 512 512" height="512" id="filled_outline"><path data-cppathid="10000" fill="#6e8beb" d="m408 112.032h64v352h-64z"/><path data-cppathid="10001" fill="#5771e5" d="m344 168.032h64v296h-64z"/><path data-cppathid="10002" fill="#4356e6" d="m280 232.032h64v232h-64z"/><path data-cppathid="10003" fill="#3d44d1" d="m216 288.032h64v176h-64z"/><path data-cppathid="10004" fill="#ed6445" d="m216 349.3622-.06006 67.48974-39.93994-48.81982v112h-136v-68l-4.32007-5.39991a53.30263 53.30263 0 0 1 41.62012-86.60009h95.74a40.006 40.006 0 0 1 30.95995 14.66988z"/><path data-cppathid="10005" fill="#ed6445" d="m40 412.03214 38.39218 47.99022a32 32 0 0 0 24.98782 12.00976h80.62v-48h-64l-40-48z"/><path data-cppathid="10006" fill="#ffceb6" d="m184 472.03212h54.11147a9.88854 9.88854 0 0 0 9.88853-9.88854 9.88854 9.88854 0 0 0 -5.46625-8.84458l-26.53375-13.26688 6.25905-6.25905a9.929 9.929 0 0 0 -2.58049-15.90167 9.929 9.929 0 0 0 -7.58022-.53871l-20.09834 6.69943h-8z"/><path data-cppathid="10007" fill="#f5a431" d="m128 352.032 8-16-16.003-8-15.997 8 8 16z"/><path data-cppathid="10008" fill="#f7c04a" d="m112 352.032-6.117 55.06 14.117 16.94h15.999l-7.999-72z"/><path data-cppathid="10009" fill="#ffceb6" d="m95.99652 256.03755v47.99454a24 24 0 0 0 24 24h.00005a24 24 0 0 0 24-24v-48z"/><path data-cppathid="10010" fill="#b36f42" d="m112 272.03212 2.34633 2.34564a19.312 19.312 0 0 0 13.65367 5.65435 24.004 24.004 0 0 0 23.99974-24.00352c.00024-4.59.00024-7.99647.00024-7.99647h-44.58361a19.41637 19.41637 0 0 0 -19.41637 19.41637 19.41627 19.41627 0 0 0 2.04984 8.68326l5.95016 11.90037z"/><g fill="#f7c04a"><circle data-cppathid="10011" r="16" cy="136.032" cx="312"/><circle data-cppathid="10012" r="16" cy="56.032" cx="392"/><circle data-cppathid="10013" r="16" cy="216.032" cx="232"/></g><path data-cppathid="10014" d="m480 112a8.00039 8.00039 0 0 0 -8-8h-64a8.00039 8.00039 0 0 0 -8 8v48h-56a8.00039 8.00039 0 0 0 -8 8v56h-56a8.00039 8.00039 0 0 0 -8 8v48h-56a8.00039 8.00039 0 0 0 -8 8v39.12109a47.79143 47.79143 0 0 0 -34.95508-15.12109h-22.06152a31.95321 31.95321 0 0 0 1.01269-8v-26.86523a31.86986 31.86986 0 0 0 8.00391-21.13868v-7.99609a8.00039 8.00039 0 0 0 -8-8h-44.584a27.41651 27.41651 0 0 0 -24.52149 39.67773l5.10156 10.20313v14.11914a31.95275 31.95275 0 0 0 1.0127 8h-11.70604a61.30279 61.30279 0 0 0 -47.86914 99.59863l2.56641 3.20801v65.19336h16v-45.19385l24.14551 30.18115a39.80132 39.80132 0 0 0 31.23437 15.0127h134.73145a17.881 17.881 0 0 0 14.894-8h242.99467v-16h-16zm-289.29785 304h-6.70215v-25.58887l17.88623 21.86087zm7.10937-76.2627 10.18848 12.4517v42.28956l-25.80859-31.54395a7.99972 7.99972 0 0 0 -14.19141 5.06539v48h-24.84033l-6.94776-62.53516 3.19385-6.38769 15.66553 12.25195 9.85742-12.60351-23.86792-18.667.06714-.05859h31.917a31.87817 31.87817 0 0 1 24.76659 11.7373zm-93.81543-48.41894 8.28516-8.28613a27.11587 27.11587 0 0 0 15.71875 4.96777 31.94553 31.94553 0 0 0 7.99609-1.01172v17.01172a16 16 0 0 1 -32 0zm11.15918 44.31543a32.12059 32.12059 0 0 0 9.62793.00683l1.7627 1.37891-3.49024 6.98047h-6.11132l-3.53028-7.06055zm4.00537 24.36621h1.67872l6.22168 56h-3.314l-9.53662-11.44385zm-11.74464-104h36.584a16.02147 16.02147 0 0 1 -16 16 11.23694 11.23694 0 0 1 -7.99805-3.3125l-2.34668-2.3457a8.00062 8.00062 0 0 0 -11.3125.001l-8.15136 8.15235-.98536-1.97266a11.41552 11.41552 0 0 1 10.20995-16.52249zm-22.77635 198.99219-42.71192-53.38965a45.30185 45.30185 0 0 1 35.375-73.60254h21.36353l-23.46606 17.59961 9.5996 12.80078 15.6045-11.70312 3.38379 6.76757-3.78272 34.0459-13.85986-16.63183-12.291 10.24218 40 48a7.99862 7.99862 0 0 0 6.14549 2.87891h56v32h-72.62012a23.87964 23.87964 0 0 1 -18.74023-9.00781zm153.47168 9.00781h-46.11133v-32a8.00915 8.00915 0 0 0 2.5293-.41016l20.09961-6.70019a1.91664 1.91664 0 0 1 1.47168.10449 1.92981 1.92981 0 0 1 .501 3.08984l-6.25879 6.25879a8.00053 8.00053 0 0 0 2.08008 12.8125l26.53223 13.26563a1.88911 1.88911 0 0 1 -.84378 3.5791zm-8.73433-26.25586a17.92133 17.92133 0 0 0 -5.377-26.66014v-115.084h48v160h-17.06274a17.79969 17.79969 0 0 0 -8.82593-9.88867zm58.623-197.74414h48v216h-48zm64-64h48v280h-48zm64 280v-336h48v336z"/><path data-cppathid="10015" d="m480 48h16v16h-16z"/><path data-cppathid="10016" d="m232 240a23.99418 23.99418 0 0 0 21.65479-34.34033l48.00488-48.00488a23.99418 23.99418 0 0 0 31.99512-31.99512l48.00488-48.00488a23.98846 23.98846 0 0 0 32.96411-13.65479h49.37622v-16h-49.37622a23.99712 23.99712 0 1 0 -44.27857 18.34033l-48.00488 48.00488a23.99418 23.99418 0 0 0 -31.99512 31.99512l-48.00488 48.00488a23.98846 23.98846 0 0 0 -32.96411 13.65479h-57.37622v16h57.37622a24.0384 24.0384 0 0 0 22.62378 16zm160-192a8 8 0 1 1 -8 8 8.00917 8.00917 0 0 1 8-8zm-80 80a8 8 0 1 1 -8 8 8.00917 8.00917 0 0 1 8-8zm-80 80a8 8 0 1 1 -8 8 8.00917 8.00917 0 0 1 8-8z"/><path data-cppathid="10017" d="m120 208h16v16h-16z"/></svg>