<?xml version="1.0" encoding="UTF-8"?>
<svg xmlns="http://www.w3.org/2000/svg" onmouseup="{ if(window.parent.document.onmouseup) window.parent.document.onmouseup(arguments[0]);}" width="512" viewBox="0 0 24 24" height="512" enable-background="new 0 0 24 24" id="color"><path data-cppathid="10000" fill="#4caf50" d="m12 0v12h-12c0-6.62 5.38-12 12-12z"/><path data-cppathid="10001" fill="#ffc107" d="m17.22 22.81c-1.58.76-3.35 1.19-5.22 1.19-6.62 0-12-5.38-12-12h12z"/><path data-cppathid="10002" fill="#2196f3" d="m24 12c0 4.75-2.77 8.86-6.78 10.81l-5.22-10.81v-12c6.62 0 12 5.38 12 12z"/><path data-cppathid="10003" fill="#dea806" d="m12 12h-12c0 6.62 5.38 12 12 12 1.87 0 3.64-.43 5.22-1.19z"/><path data-cppathid="10004" fill="#1d83d4" d="m24 12h-12l5.22 10.81c4.01-1.95 6.78-6.06 6.78-10.81z"/></svg>