<?xml version="1.0" encoding="UTF-8"?>
<svg xmlns="http://www.w3.org/2000/svg" onmouseup="{ if(window.parent.document.onmouseup) window.parent.document.onmouseup(arguments[0]);}" width="512pt" viewBox="-69 0 512 512" version="1.1" height="512pt"><g id="surface1"><path data-cppathid="10000" style=" stroke:none;fill-rule:nonzero;fill:rgb(100%,71.372549%,61.960784%);fill-opacity:1;" d="M 145.601562 42.144531 C 145.601562 65.417969 126.730469 84.289062 103.457031 84.289062 C 80.179688 84.289062 61.3125 65.417969 61.3125 42.144531 C 61.3125 18.867188 80.179688 0 103.457031 0 C 126.730469 0 145.601562 18.867188 145.601562 42.144531 Z M 145.601562 42.144531 "/><path data-cppathid="10001" style=" stroke:none;fill-rule:nonzero;fill:rgb(13.72549%,14.901961%,16.078431%);fill-opacity:1;" d="M 132.917969 512 C 119.441406 512 108.515625 501.074219 108.515625 487.597656 L 108.515625 292.554688 C 108.515625 279.074219 119.441406 268.152344 132.917969 268.152344 C 146.394531 268.152344 157.320312 279.074219 157.320312 292.554688 L 157.320312 487.597656 C 157.320312 501.074219 146.394531 512 132.917969 512 Z M 132.917969 512 "/><path data-cppathid="10002" style=" stroke:none;fill-rule:nonzero;fill:rgb(13.72549%,14.901961%,16.078431%);fill-opacity:1;" d="M 74.011719 512 C 60.535156 512 49.609375 501.074219 49.609375 487.597656 L 49.609375 292.554688 C 49.609375 279.074219 60.535156 268.152344 74.011719 268.152344 C 87.488281 268.152344 98.414062 279.074219 98.414062 292.554688 L 98.414062 487.597656 C 98.414062 501.074219 87.488281 512 74.011719 512 Z M 74.011719 512 "/><path data-cppathid="10003" style=" stroke:none;fill-rule:nonzero;fill:rgb(16.078431%,17.647059%,18.823529%);fill-opacity:1;" d="M 0.0078125 145.144531 C 0.0078125 145.175781 0.0078125 145.210938 0.0078125 145.246094 L 0.0078125 294.636719 C 0.0078125 305.867188 9.109375 314.972656 20.34375 314.972656 C 31.574219 314.972656 40.675781 305.867188 40.675781 294.636719 L 40.675781 145.3125 C 40.71875 141.445312 44.617188 137.933594 48.878906 137.933594 L 49.613281 137.933594 L 49.613281 292.554688 L 157.320312 292.554688 L 157.320312 97.261719 C 142.140625 97.261719 64.796875 97.261719 48.878906 97.261719 C 22.0625 97.261719 0.140625 118.742188 0.0078125 145.144531 Z M 0.0078125 145.144531 "/><path data-cppathid="10004" style=" stroke:none;fill-rule:nonzero;fill:rgb(21.568627%,23.529412%,25.490196%);fill-opacity:1;" d="M 349.414062 160.925781 C 351.878906 149.992188 345.015625 139.132812 334.082031 136.667969 L 161.175781 97.699219 C 159.710938 97.371094 158.820312 97.261719 157.320312 97.261719 C 157.320312 97.261719 107.847656 97.261719 103.457031 97.261719 L 103.457031 292.554688 L 157.320312 292.554688 L 157.320312 138.433594 L 325.160156 176.257812 C 336.019531 178.710938 346.9375 171.925781 349.414062 160.925781 Z M 349.414062 160.925781 "/><path data-cppathid="10005" style=" stroke:none;fill-rule:nonzero;fill:rgb(100%,100%,100%);fill-opacity:1;" d="M 334.082031 136.667969 L 325.027344 134.628906 L 316.25 174.667969 L 325.160156 176.257812 C 336.019531 178.710938 346.9375 171.925781 349.414062 160.925781 C 351.878906 149.992188 345.015625 139.132812 334.082031 136.667969 Z M 334.082031 136.667969 "/><path data-cppathid="10006" style=" stroke:none;fill-rule:nonzero;fill:rgb(100%,71.372549%,61.960784%);fill-opacity:1;" d="M 334.082031 136.667969 L 325.160156 176.257812 C 336.019531 178.710938 346.9375 171.925781 349.414062 160.925781 C 351.878906 149.992188 345.015625 139.132812 334.082031 136.667969 Z M 334.082031 136.667969 "/><path data-cppathid="10007" style=" stroke:none;fill-rule:nonzero;fill:rgb(100%,100%,100%);fill-opacity:1;" d="M 0 284.148438 L 0 294.636719 C 0 305.867188 9.105469 314.972656 20.335938 314.972656 C 31.566406 314.972656 40.671875 305.867188 40.671875 294.636719 L 40.671875 284.148438 Z M 0 284.148438 "/><path data-cppathid="10008" style=" stroke:none;fill-rule:nonzero;fill:rgb(100%,71.372549%,61.960784%);fill-opacity:1;" d="M 0 294.113281 L 0 294.636719 C 0 305.867188 9.105469 314.972656 20.335938 314.972656 C 31.566406 314.972656 40.671875 305.867188 40.671875 294.636719 L 40.671875 294.113281 Z M 0 294.113281 "/><path data-cppathid="10009" style=" stroke:none;fill-rule:nonzero;fill:rgb(100%,100%,100%);fill-opacity:1;" d="M 72.429688 97.261719 L 103.457031 178.6875 L 134.492188 97.261719 Z M 72.429688 97.261719 "/><path data-cppathid="10010" style=" stroke:none;fill-rule:nonzero;fill:rgb(13.72549%,14.901961%,16.078431%);fill-opacity:1;" d="M 108.460938 143.804688 C 108.460938 146.566406 106.222656 148.804688 103.460938 148.804688 C 100.699219 148.804688 98.460938 146.566406 98.460938 143.804688 C 98.460938 141.042969 100.699219 138.804688 103.460938 138.804688 C 106.222656 138.804688 108.460938 141.042969 108.460938 143.804688 Z M 108.460938 143.804688 "/><path data-cppathid="10011" style=" stroke:none;fill-rule:nonzero;fill:rgb(13.72549%,14.901961%,16.078431%);fill-opacity:1;" d="M 108.460938 123.804688 C 108.460938 126.566406 106.222656 128.804688 103.460938 128.804688 C 100.699219 128.804688 98.460938 126.566406 98.460938 123.804688 C 98.460938 121.042969 100.699219 118.804688 103.460938 118.804688 C 106.222656 118.804688 108.460938 121.042969 108.460938 123.804688 Z M 108.460938 123.804688 "/><path data-cppathid="10012" style=" stroke:none;fill-rule:nonzero;fill:rgb(13.72549%,14.901961%,16.078431%);fill-opacity:1;" d="M 116.179688 90.203125 L 103.460938 96.832031 L 90.746094 90.203125 C 88.519531 89.046875 85.851562 90.664062 85.851562 93.175781 L 85.851562 108.957031 C 85.851562 111.46875 88.519531 113.089844 90.746094 111.925781 L 103.460938 105.300781 L 116.179688 111.925781 C 118.40625 113.085938 121.074219 111.46875 121.074219 108.957031 L 121.074219 93.175781 C 121.074219 90.664062 118.40625 89.046875 116.179688 90.203125 Z M 116.179688 90.203125 "/><path data-cppathid="10013" style=" stroke:none;fill-rule:nonzero;fill:rgb(100%,71.372549%,61.960784%);fill-opacity:1;" d="M 166.828125 496.628906 C 156.113281 490.597656 152.320312 477.023438 158.351562 466.3125 L 197.933594 396.023438 L 197.933594 315.386719 C 197.933594 303.09375 207.898438 293.125 220.191406 293.125 C 232.484375 293.125 242.449219 303.09375 242.449219 315.386719 L 242.449219 401.863281 C 242.449219 405.6875 241.464844 409.449219 239.589844 412.785156 L 197.144531 488.15625 C 191.101562 498.886719 177.523438 502.652344 166.828125 496.628906 Z M 166.828125 496.628906 "/><path data-cppathid="10014" style=" stroke:none;fill-rule:nonzero;fill:rgb(100%,71.372549%,61.960784%);fill-opacity:1;" d="M 274.320312 512 C 262.027344 512 252.0625 502.035156 252.0625 489.742188 L 252.0625 315.382812 C 252.0625 303.089844 262.027344 293.125 274.320312 293.125 C 286.617188 293.125 296.582031 303.089844 296.582031 315.382812 L 296.582031 489.742188 C 296.582031 502.035156 286.617188 512 274.320312 512 Z M 274.320312 512 "/><path data-cppathid="10015" style=" stroke:none;fill-rule:nonzero;fill:rgb(100%,71.372549%,61.960784%);fill-opacity:1;" d="M 361.648438 331.394531 C 371.183594 327.652344 375.882812 316.890625 372.144531 307.351562 C 371.78125 306.421875 335.550781 213.976562 322.28125 175.363281 C 313.675781 150.316406 299.246094 137.621094 279.390625 137.621094 C 255.167969 137.621094 240.253906 137.621094 215.121094 137.621094 C 210.792969 137.621094 206.601562 139.132812 203.273438 141.898438 L 133.875 199.515625 C 126.1875 205.894531 124.9375 217.214844 131.039062 225.121094 L 183.902344 293.605469 L 173.660156 346.476562 C 172.425781 352.855469 177.34375 358.75 183.777344 358.75 C 212.441406 358.75 282.09375 358.75 310.734375 358.75 C 317.191406 358.75 322.089844 352.859375 320.851562 346.476562 L 294.429688 207.714844 C 310.421875 251.527344 336.328125 317.636719 337.605469 320.894531 C 341.347656 330.429688 352.105469 335.132812 361.648438 331.394531 Z M 171.34375 216.621094 L 202.121094 191.070312 L 193.300781 245.070312 Z M 171.34375 216.621094 "/><path data-cppathid="10016" style=" stroke:none;fill-rule:nonzero;fill:rgb(98.039216%,31.372549%,23.529412%);fill-opacity:1;" d="M 294.429688 207.714844 C 296.332031 212.929688 298.378906 218.460938 300.503906 224.167969 L 334.726562 209.746094 C 329.816406 196.5625 325.410156 184.46875 322.28125 175.363281 C 313.675781 150.320312 299.246094 137.621094 279.390625 137.621094 L 264.539062 137.621094 C 264.8125 146.949219 256.140625 154.851562 247.085938 154.851562 C 237.375 154.851562 230.175781 146.980469 229.644531 137.621094 L 215.121094 137.621094 C 210.792969 137.621094 206.601562 139.136719 203.269531 141.898438 L 157.597656 179.816406 L 181.152344 208.480469 L 202.117188 191.074219 L 193.300781 245.070312 L 183.898438 293.605469 L 173.65625 346.476562 C 172.421875 352.855469 177.339844 358.75 183.773438 358.75 L 310.734375 358.75 C 317.191406 358.75 322.089844 352.859375 320.851562 346.476562 Z M 294.429688 207.714844 "/><path data-cppathid="10017" style=" stroke:none;fill-rule:nonzero;fill:rgb(100%,71.372549%,61.960784%);fill-opacity:1;" d="M 285.699219 86.921875 C 285.699219 108.152344 268.488281 125.367188 247.257812 125.367188 C 226.023438 125.367188 208.8125 108.152344 208.8125 86.921875 C 208.8125 65.691406 226.023438 48.476562 247.257812 48.476562 C 268.488281 48.476562 285.699219 65.691406 285.699219 86.921875 Z M 285.699219 86.921875 "/><path data-cppathid="10018" style=" stroke:none;fill-rule:nonzero;fill:rgb(100%,100%,100%);fill-opacity:1;" d="M 258.664062 156.171875 C 258.664062 162.472656 253.558594 167.578125 247.257812 167.578125 C 240.957031 167.578125 235.847656 162.472656 235.847656 156.171875 C 235.847656 149.867188 240.957031 144.761719 247.257812 144.761719 C 253.558594 144.761719 258.664062 149.867188 258.664062 156.171875 Z M 258.664062 156.171875 "/><path data-cppathid="10019" style=" stroke:none;fill-rule:nonzero;fill:rgb(100%,100%,100%);fill-opacity:1;" d="M 243.011719 148.769531 C 243.011719 153.351562 239.300781 157.0625 234.71875 157.0625 C 230.140625 157.0625 226.429688 153.351562 226.429688 148.769531 C 226.429688 144.191406 230.140625 140.480469 234.71875 140.480469 C 239.300781 140.480469 243.011719 144.191406 243.011719 148.769531 Z M 243.011719 148.769531 "/><path data-cppathid="10020" style=" stroke:none;fill-rule:nonzero;fill:rgb(100%,100%,100%);fill-opacity:1;" d="M 233.050781 139.164062 C 233.050781 142.820312 230.085938 145.785156 226.429688 145.785156 C 222.773438 145.785156 219.808594 142.820312 219.808594 139.164062 C 219.808594 135.507812 222.773438 132.542969 226.429688 132.542969 C 230.085938 132.542969 233.050781 135.507812 233.050781 139.164062 Z M 233.050781 139.164062 "/><path data-cppathid="10021" style=" stroke:none;fill-rule:nonzero;fill:rgb(100%,100%,100%);fill-opacity:1;" d="M 268.085938 148.769531 C 268.085938 153.351562 264.371094 157.0625 259.792969 157.0625 C 255.214844 157.0625 251.503906 153.351562 251.503906 148.769531 C 251.503906 144.191406 255.214844 140.480469 259.792969 140.480469 C 264.371094 140.480469 268.085938 144.191406 268.085938 148.769531 Z M 268.085938 148.769531 "/><path data-cppathid="10022" style=" stroke:none;fill-rule:nonzero;fill:rgb(100%,100%,100%);fill-opacity:1;" d="M 274.707031 139.164062 C 274.707031 142.820312 271.742188 145.785156 268.085938 145.785156 C 264.429688 145.785156 261.464844 142.820312 261.464844 139.164062 C 261.464844 135.507812 264.429688 132.542969 268.085938 132.542969 C 271.742188 132.542969 274.707031 135.507812 274.707031 139.164062 Z M 274.707031 139.164062 "/><path data-cppathid="10023" style=" stroke:none;fill-rule:nonzero;fill:rgb(98.039216%,31.372549%,23.529412%);fill-opacity:1;" d="M 310.96875 49.769531 C 308.363281 41.390625 276.023438 44 238.734375 55.59375 C 201.445312 67.1875 173.324219 83.378906 175.929688 91.753906 C 178.535156 100.132812 210.875 97.523438 248.164062 85.929688 C 285.453125 74.332031 313.574219 58.144531 310.96875 49.769531 Z M 310.96875 49.769531 "/><path data-cppathid="10024" style=" stroke:none;fill-rule:nonzero;fill:rgb(98.039216%,31.372549%,23.529412%);fill-opacity:1;" d="M 252.929688 20.683594 L 207.25 34.886719 C 201.519531 36.667969 198.320312 42.757812 200.101562 48.488281 L 207.011719 70.707031 C 208.792969 76.4375 214.882812 79.636719 220.609375 77.855469 L 266.289062 63.652344 C 272.019531 61.871094 275.21875 55.78125 273.4375 50.050781 L 266.527344 27.832031 C 264.746094 22.101562 258.660156 18.902344 252.929688 20.683594 Z M 252.929688 20.683594 "/><path data-cppathid="10025" style=" stroke:none;fill-rule:nonzero;fill:rgb(100%,71.372549%,61.960784%);fill-opacity:1;" d="M 184.285156 294.105469 L 131.039062 225.121094 C 124.78125 217.011719 126.28125 205.359375 134.390625 199.101562 C 142.5 192.84375 154.148438 194.34375 160.40625 202.453125 L 213.65625 271.4375 C 219.914062 279.546875 218.414062 291.195312 210.304688 297.453125 C 202.144531 303.753906 190.507812 302.164062 184.285156 294.105469 Z M 184.285156 294.105469 "/></g></svg>