<?xml version="1.0" encoding="UTF-8"?>
<svg xmlns="http://www.w3.org/2000/svg" onmouseup="{ if(window.parent.document.onmouseup) window.parent.document.onmouseup(arguments[0]);}" width="512" viewBox="0 0 192 192" height="512"><g data-name="28-average" id="_28-average"><path data-cppathid="10000" d="m165.657 170.343c-10.28-10.28-16.163-30.714-21.851-50.476-4.264-14.807-8.672-30.12-15.164-41.763s-14.765-18.717-24.642-21.142v-8.962h-16v8.962c-9.877 2.425-18.146 9.5-24.642 21.142s-10.9 26.956-15.158 41.763c-5.689 19.762-11.572 40.2-21.852 50.476-5.662 5.657-20.158 5.657-26.348 5.657v16c8.866 0 27.314 0 37.657-10.343 13.2-13.2 19.663-35.651 25.913-57.363 9.094-31.589 16.264-52.294 32.43-52.294s23.336 20.705 32.43 52.294c6.25 21.712 12.714 44.163 25.913 57.363 10.344 10.343 28.792 10.343 37.657 10.343v-16c-6.19 0-20.687 0-26.343-5.657z"/><path data-cppathid="10001" d="m88 168h16v24h-16z"/><path data-cppathid="10002" d="m88 128h16v24h-16z"/><path data-cppathid="10003" d="m88 88h16v24h-16z"/></g></svg>