<?xml version="1.0" encoding="UTF-8"?>
<svg xmlns="http://www.w3.org/2000/svg" onmouseup="{ if(window.parent.document.onmouseup) window.parent.document.onmouseup(arguments[0]);}" width="512" viewBox="0 0 512 512" height="512"><g data-name="filled outline" id="filled_outline"><path data-cppathid="10000" fill="#4976f2" d="m264 296-64 64-2.8697-14.34849a81.6679 81.6679 0 0 0 -80.08196-65.65151h-.00012a39.76778 39.76778 0 0 1 -39.46068-44.70036v-.00006a39.76776 39.76776 0 0 0 -11.34062-33.05265l-42.24692-42.24693 19.02658-10.87233a84.10647 84.10647 0 0 1 75.88734-3.8326h.00007a84.10646 84.10646 0 0 0 66.50749.77927l62.57852-26.07434h80v176z"/><path data-cppathid="10001" fill="#548aff" d="m336.692 89.624 79.308-17.624 25.846-22.154 23.754 23.754-25.6 38.4-48 24-32 96h-80l-16-56-24 32 15.385 9.231-14.242 28.483-41.143-13.714v-40l48-72 56-24z"/><path data-cppathid="10002" fill="#b1712c" d="m344 56v-5.57781a18.42218 18.42218 0 0 0 -18.42219-18.42219 18.42223 18.42223 0 0 0 -10.21881 3.094l-19.359 12.906v8z"/><path data-cppathid="10003" fill="#ffceb6" d="m296 56v26.42221a24 24 0 0 0 24 24 24 24 0 0 0 24-24v-26.42221z"/><path data-cppathid="10004" fill="#718799" d="m280 232-16 48v40l-40 168h24l72-184 56 184h24l-40-256z"/><path data-cppathid="10005" fill="#4976f2" d="m259.2 115.2 28.8 28.8 16-8-9.032-36.129z"/><path data-cppathid="10006" fill="#4976f2" d="m344 88 24 32 16-8v-32.889z"/><path data-cppathid="10007" fill="#ffceb6" d="m255.385 217.231-14.242 28.483 30.857 10.286 8-24z"/><path data-cppathid="10008" fill="#ffceb6" d="m465.6 73.6-23.754-23.754 30.154-25.846 16 16z"/><path data-cppathid="10009" d="m477.65674 18.34277a8.00174 8.00174 0 0 0 -10.86328-.417l-54.48146 46.69823-60.312 13.40286v-27.605a26.42232 26.42232 0 0 0 -41.07861-21.98436l-19.3589 12.90625a7.99944 7.99944 0 0 0 -3.56249 6.65625v34.42188a31.84958 31.84958 0 0 0 1.91718 10.90942l-45.05818 19.31079-62.51471 26.04736a76.40745 76.40745 0 0 1 -60.18115-.70507 92.43267 92.43267 0 0 0 -83.106 4.19726l-19.02638 10.87207a8.00079 8.00079 0 0 0 -1.6875 12.60352l42.24658 42.24609a31.56365 31.56365 0 0 1 9.05909 26.4043 47.76876 47.76876 0 0 0 47.39941 53.69238 73.8658 73.8658 0 0 1 72.2373 59.2207l2.86963 14.34864a8.00035 8.00035 0 0 0 13.50147 4.08789l50.34326-50.34323v3.74659l-39.78271 167.08687a7.99994 7.99994 0 0 0 7.78271 9.85254h24a7.9988 7.9988 0 0 0 7.44971-5.085l63.605-162.54492 49.292 161.959a7.99913 7.99913 0 0 0 7.65329 5.67092h24a8.00035 8.00035 0 0 0 7.9043-9.23535l-39.69989-254.07959 30.33709-91.01123 45.03614-22.51856a7.99558 7.99558 0 0 0 3.07861-2.71777l48-72a8.00027 8.00027 0 0 0 -.99951-10.09473zm-182.97412 113.37207-5.103 2.55078-16.36725-16.36718 16.27252-6.97364zm9.31738-49.29296v-16h32v16a16 16 0 0 1 -32 0zm72 6.6621v17.97168l-5.606 2.80274-12.55428-16.73877zm-56.20361-47.33398a10.42283 10.42283 0 0 1 16.20361 8.67188h-29.211zm-114.88379 302.02344a89.90728 89.90728 0 0 0 -87.86426-71.77344 31.76849 31.76849 0 0 1 -31.52295-35.708 47.46257 47.46257 0 0 0 -13.62158-39.70215l-34.84081-34.84085 9.93262-5.6748a76.37611 76.37611 0 0 1 68.66943-3.46875 92.48367 92.48367 0 0 0 72.8335.85351l38.1889-15.9121-33.3437 50.01564a7.99836 7.99836 0 0 0 -1.34375 4.4375v40a8.00071 8.00071 0 0 0 5.47021 7.58984l64.41034 21.47022-5.46991 16.40967a8.00643 8.00643 0 0 0 -.41064 2.53027v12.686zm46.80957-138.06934 9.01172-12.01562 6.00732 21.02636zm18.65883 29.85449-3.44061 10.32178-14.51691-4.83862 6.25293-12.50611zm111.54673 244.44141-54.27441-178.3291a7.99963 7.99963 0 0 0 -15.103-.58594l-70.01077 178.91504h-8.41113l37.65429-158.14746a8.01879 8.01879 0 0 0 .21729-1.85254v-38.70215l13.76611-41.29785h67.3866l37.50012 240zm52.59427-374.20508-46.09961 23.04981a7.99648 7.99648 0 0 0 -4.01172 4.625l-30.17678 90.53027h-68.19971l-14.3418-50.19727a7.99972 7.99972 0 0 0 -14.09228-2.60253l-24 32a8.00035 8.00035 0 0 0 2.28418 11.66015l9.03167 5.41895-7.82568 15.65136-29.09027-9.69628v-31.8125l45.3374-68.00588 4.03528-1.7295 24.97058 24.97071a7.99984 7.99984 0 0 0 9.23438 1.498l16-8a8 8 0 0 0 4.18359-9.0957l-5.71088-22.84351a31.94944 31.94944 0 0 0 38.83307-8.70507l16.71668 22.28887a7.9955 7.9955 0 0 0 9.97754 2.35547l16-8a7.99979 7.99979 0 0 0 4.42236-7.15527v-26.47144l25.73535-5.719a8.00614 8.00614 0 0 0 3.47119-1.73535l20.22119-17.33251 13.87781 13.87793zm29.83478-44.7522-10.74478-10.74462 17.96954-15.40259 6.124 6.124z"/><path data-cppathid="10010" transform="matrix(.868 -.496 .496 .868 -51.37 35.69)" d="m30.556 106.564h21.914v16.001h-21.914z"/><path data-cppathid="10011" d="m123.665 112.60547a92.48375 92.48375 0 0 0 72.8335.85351l6.57861-2.74121-6.1543-14.76953-6.57861 2.74121a76.40745 76.40745 0 0 1 -60.18115-.70507 92.50311 92.50311 0 0 0 -60.13672-5.09083l3.94726 15.50586a76.43717 76.43717 0 0 1 49.69141 4.20606z"/></g></svg>