<?xml version="1.0" encoding="UTF-8"?>
<svg xmlns="http://www.w3.org/2000/svg" onmouseup="{ if(window.parent.document.onmouseup) window.parent.document.onmouseup(arguments[0]);}" width="512" viewBox="0 0 512 512" height="512" enable-background="new 0 0 512 512" id="Layer_1"><g><path data-cppathid="10000" fill="#ffd54f" d="m207.5 448h-170c-16.569 0-30-13.431-30-30v-324c0-16.569 13.431-30 30-30h170c16.569 0 30 13.431 30 30v324c0 16.569-13.431 30-30 30z"/><path data-cppathid="10001" fill="#ffca28" d="m207.5 64h-30c16.569 0 30 13.431 30 30v324c0 16.569-13.431 30-30 30h30c16.569 0 30-13.431 30-30v-324c0-16.569-13.431-30-30-30z"/><path data-cppathid="10002" fill="#ffb300" d="m37.5 414.07v-316.14c0-2.17 1.76-3.93 3.93-3.93h162.14c2.17 0 3.93 1.76 3.93 3.93v316.14c0 2.17-1.76 3.93-3.93 3.93h-162.14c-2.17 0-3.93-1.76-3.93-3.93z"/><path data-cppathid="10003" fill="#ffd54f" d="m474.5 448h-170c-16.569 0-30-13.431-30-30v-324c0-16.569 13.431-30 30-30h170c16.569 0 30 13.431 30 30v324c0 16.569-13.431 30-30 30z"/><path data-cppathid="10004" fill="#ffca28" d="m474.5 64h-30c16.569 0 30 13.431 30 30v324c0 16.569-13.431 30-30 30h30c16.569 0 30-13.431 30-30v-324c0-16.569-13.431-30-30-30z"/><path data-cppathid="10005" fill="#ffb300" d="m304.5 414.07v-316.14c0-2.17 1.76-3.93 3.93-3.93h162.14c2.17 0 3.93 1.76 3.93 3.93v316.14c0 2.17-1.76 3.93-3.93 3.93h-162.14c-2.17 0-3.93-1.76-3.93-3.93z"/><circle data-cppathid="10006" r="42" fill="#ffd54f" cy="186" cx="122.5"/><circle data-cppathid="10007" r="42" fill="#ffd54f" cy="186" cx="389.5"/><g><path data-cppathid="10008" d="m207.5 56.5h-170c-20.678 0-37.5 16.822-37.5 37.5v257.769c0 4.142 3.357 7.5 7.5 7.5s7.5-3.358 7.5-7.5v-257.769c0-12.407 10.094-22.5 22.5-22.5h170c12.406 0 22.5 10.093 22.5 22.5v324c0 12.407-10.094 22.5-22.5 22.5h-170c-12.406 0-22.5-10.093-22.5-22.5v-34.077c0-4.142-3.357-7.5-7.5-7.5s-7.5 3.358-7.5 7.5v34.077c0 20.678 16.822 37.5 37.5 37.5h170c20.678 0 37.5-16.822 37.5-37.5v-324c0-20.678-16.822-37.5-37.5-37.5z"/><path data-cppathid="10009" d="m203.57 425.5c6.303 0 11.43-5.127 11.43-11.43v-316.14c0-6.303-5.127-11.43-11.43-11.43h-162.14c-6.303 0-11.43 5.127-11.43 11.43v316.14c0 6.303 5.127 11.43 11.43 11.43zm-158.57-324h155v309h-155z"/><path data-cppathid="10010" d="m504.5 123.115c4.143 0 7.5-3.358 7.5-7.5v-21.615c0-20.678-16.822-37.5-37.5-37.5h-170c-20.678 0-37.5 16.822-37.5 37.5v324c0 20.678 16.822 37.5 37.5 37.5h170c20.678 0 37.5-16.822 37.5-37.5v-269.846c0-4.142-3.357-7.5-7.5-7.5s-7.5 3.358-7.5 7.5v269.846c0 12.407-10.094 22.5-22.5 22.5h-170c-12.406 0-22.5-10.093-22.5-22.5v-324c0-12.407 10.094-22.5 22.5-22.5h170c12.406 0 22.5 10.093 22.5 22.5v21.615c0 4.142 3.357 7.5 7.5 7.5z"/><path data-cppathid="10011" d="m327.872 86.5h-19.442c-6.303 0-11.43 5.127-11.43 11.43v316.14c0 6.303 5.127 11.43 11.43 11.43h162.14c6.303 0 11.43-5.127 11.43-11.43v-316.14c0-6.303-5.127-11.43-11.43-11.43h-110.545c-4.143 0-7.5 3.358-7.5 7.5s3.357 7.5 7.5 7.5h106.975v309h-155v-309h15.872c4.143 0 7.5-3.358 7.5-7.5s-3.357-7.5-7.5-7.5z"/><path data-cppathid="10012" d="m122.5 235.5c27.294 0 49.5-22.206 49.5-49.5s-22.206-49.5-49.5-49.5-49.5 22.206-49.5 49.5 22.206 49.5 49.5 49.5zm0-84c19.023 0 34.5 15.477 34.5 34.5s-15.477 34.5-34.5 34.5-34.5-15.477-34.5-34.5 15.477-34.5 34.5-34.5z"/><path data-cppathid="10013" d="m389.5 235.5c27.294 0 49.5-22.206 49.5-49.5s-22.206-49.5-49.5-49.5-49.5 22.206-49.5 49.5 22.206 49.5 49.5 49.5zm0-84c19.023 0 34.5 15.477 34.5 34.5s-15.477 34.5-34.5 34.5-34.5-15.477-34.5-34.5 15.477-34.5 34.5-34.5z"/><path data-cppathid="10014" d="m169.5 260.067h-94c-4.143 0-7.5 3.358-7.5 7.5s3.357 7.5 7.5 7.5h94c4.143 0 7.5-3.358 7.5-7.5s-3.357-7.5-7.5-7.5z"/><path data-cppathid="10015" d="m169.5 293.067h-94c-4.143 0-7.5 3.358-7.5 7.5s3.357 7.5 7.5 7.5h94c4.143 0 7.5-3.358 7.5-7.5s-3.357-7.5-7.5-7.5z"/><path data-cppathid="10016" d="m169.5 326.067h-94c-4.143 0-7.5 3.358-7.5 7.5s3.357 7.5 7.5 7.5h94c4.143 0 7.5-3.358 7.5-7.5s-3.357-7.5-7.5-7.5z"/><path data-cppathid="10017" d="m335 267.567c0 4.142 3.357 7.5 7.5 7.5h94c4.143 0 7.5-3.358 7.5-7.5s-3.357-7.5-7.5-7.5h-94c-4.143 0-7.5 3.358-7.5 7.5z"/><path data-cppathid="10018" d="m436.5 293.067h-94c-4.143 0-7.5 3.358-7.5 7.5s3.357 7.5 7.5 7.5h94c4.143 0 7.5-3.358 7.5-7.5s-3.357-7.5-7.5-7.5z"/><path data-cppathid="10019" d="m436.5 326.067h-94c-4.143 0-7.5 3.358-7.5 7.5s3.357 7.5 7.5 7.5h94c4.143 0 7.5-3.358 7.5-7.5s-3.357-7.5-7.5-7.5z"/></g></g></svg>