<?xml version="1.0" encoding="UTF-8"?>
<svg xmlns="http://www.w3.org/2000/svg" onmouseup="{ if(window.parent.document.onmouseup) window.parent.document.onmouseup(arguments[0]);}" width="504pt" viewBox="0 0 504 504" height="504pt"><path data-cppathid="10000" fill="#fcc24c" d="m48.929688 308.609375h107.535156v167.390625h-107.535156zm0 0"/><path data-cppathid="10001" fill="#7bac51" d="m264 210.40625h107.535156v265.59375h-107.535156zm0 0"/><path data-cppathid="10002" fill="#7bac51" d="m156.464844 210.40625h107.535156v265.59375h-107.535156zm0 0"/><path data-cppathid="10003" fill="#fce06a" d="m48.929688 308.609375h19.683593v167.390625h-19.683593zm0 0"/><path data-cppathid="10004" fill="#dea42e" d="m136.78125 308.609375h19.683594v167.390625h-19.683594zm0 0"/><path data-cppathid="10005" fill="#99ca6f" d="m156.464844 210.40625h19.683594v265.59375h-19.683594zm0 0"/><path data-cppathid="10006" fill="#5d8e33" d="m244.316406 210.40625h19.683594v265.59375h-19.683594zm0 0"/><path data-cppathid="10007" fill="#99ca6f" d="m264 210.40625h19.683594v265.59375h-19.683594zm0 0"/><path data-cppathid="10008" fill="#5d8e33" d="m351.851562 210.40625h19.683594v265.59375h-19.683594zm0 0"/><path data-cppathid="10009" fill="#690589" d="m156.464844 480h-107.53125c-2.210938 0-4-1.792969-4-4v-167.390625c0-2.207031 1.789062-4 4-4h107.53125c2.210937 0 4 1.792969 4 4v167.390625c0 2.207031-1.789063 4-4 4zm-103.53125-8h99.53125v-159.390625h-99.53125zm0 0"/><path data-cppathid="10010" fill="#ff4397" d="m371.535156 308.609375h107.53125v167.390625h-107.53125zm0 0"/><path data-cppathid="10011" fill="#ff61b5" d="m371.535156 308.609375h19.679688v167.390625h-19.679688zm0 0"/><path data-cppathid="10012" fill="#e12579" d="m459.386719 308.609375h19.679687v167.390625h-19.679687zm0 0"/><g fill="#690589"><path data-cppathid="10013" d="m479.066406 480h-107.53125c-2.210937 0-4-1.792969-4-4v-167.390625c0-2.207031 1.789063-4 4-4h107.53125c2.210938 0 4 1.792969 4 4v167.390625c0 2.207031-1.789062 4-4 4zm-103.53125-8h99.535156v-159.390625h-99.535156zm0 0"/><path data-cppathid="10014" d="m64.679688 364.417969c-2.210938 0-4-1.792969-4-4v-23.617188c0-2.207031 1.789062-4 4-4 2.207031 0 4 1.792969 4 4v23.621094c0 2.207031-1.792969 3.996094-4 3.996094zm0 0"/><path data-cppathid="10015" d="m264 480h-107.535156c-2.207032 0-4-1.792969-4-4v-265.59375c0-2.207031 1.792968-4 4-4h107.535156c2.207031 0 4 1.792969 4 4v265.59375c0 2.207031-1.792969 4-4 4zm-103.535156-8h99.535156v-257.59375h-99.535156zm0 0"/><path data-cppathid="10016" d="m371.535156 480h-107.535156c-2.207031 0-4-1.792969-4-4v-265.59375c0-2.207031 1.792969-4 4-4h107.535156c2.207032 0 4 1.792969 4 4v265.59375c0 2.207031-1.792968 4-4 4zm-103.535156-8h99.535156v-257.59375h-99.535156zm0 0"/></g><path data-cppathid="10017" fill="#f4efed" d="m500 500h-496v-496h24v472h472zm0 0"/><path data-cppathid="10018" fill="#fff" d="m4 4h20v496h-20zm0 0"/><path data-cppathid="10019" fill="#d6d1cf" d="m480 476h20v24h-20zm0 0"/><path data-cppathid="10020" fill="#690589" d="m500 504h-496c-2.207031 0-4-1.792969-4-4v-496c0-2.207031 1.792969-4 4-4h24c2.207031 0 4 1.792969 4 4v468h468c2.207031 0 4 1.792969 4 4v24c0 2.207031-1.792969 4-4 4zm-492-8h488v-16h-468c-2.207031 0-4-1.792969-4-4v-468h-16zm0 0"/><path data-cppathid="10021" fill="#690589" d="m425.304688 292.65625c-1.507813 0-2.953126-.859375-3.628907-2.3125l-54.492187-117.230469c-18.875-40.597656-58.410156-65.820312-103.183594-65.820312s-84.308594 25.222656-103.183594 65.820312l-54.492187 117.230469c-.933594 2-3.3125 2.871094-5.3125 1.9375-2.003907-.929688-2.875-3.308594-1.941407-5.3125l54.492188-117.230469c20.203125-43.449219 62.515625-70.445312 110.4375-70.445312s90.234375 26.996093 110.4375 70.449219l54.492188 117.226562c.933593 2.003906.0625 4.382812-1.941407 5.316406-.542969.25-1.117187.371094-1.683593.371094zm0 0"/><path data-cppathid="10022" fill="#690589" d="m466.972656 267.261719h-393.945312c-2.210938 0-4-1.792969-4-4 0-2.210938 1.789062-4 4-4h393.949218c2.207032 0 4 1.789062 4 4 0 2.207031-1.792968 4-4.003906 4zm0 0"/></svg>