<?xml version="1.0" encoding="UTF-8"?>
<svg xmlns="http://www.w3.org/2000/svg" onmouseup="{ if(window.parent.document.onmouseup) window.parent.document.onmouseup(arguments[0]);}" width="512" viewBox="0 0 48 48" height="512"><g data-name="Big taxes" id="Big_taxes"><path data-cppathid="10000" d="m22 35h-14a1 1 0 0 0 0 2h14a1 1 0 0 0 0-2z"/><path data-cppathid="10001" d="m22 40h-14a1 1 0 0 0 0 2h14a1 1 0 0 0 0-2z"/><path data-cppathid="10002" d="m22 30h-14a1 1 0 0 0 0 2h14a1 1 0 0 0 0-2z"/><path data-cppathid="10003" d="m8 27h8a1 1 0 0 0 0-2h-8a1 1 0 0 0 0 2z"/><path data-cppathid="10004" d="m46 34a10 10 0 0 0 -9-9.95v-14.05h7a1 1 0 0 0 1-1v-4a5 5 0 0 0 -5-5h-33a5 5 0 0 0 -5 5v42a1 1 0 0 0 1 1h33a1 1 0 0 0 1-1v-3a10 10 0 0 0 9-10zm-3-29v3h-6v-3a3 3 0 0 1 6 0zm-39 41v-41a3 3 0 0 1 3-3h29c-1.37 1.81-1 1-1 22.05a10 10 0 0 0 0 19.95v2zm32-4a8 8 0 1 1 8-8 8 8 0 0 1 -8 8z"/><path data-cppathid="10005" d="m9 11h2v7a1 1 0 0 0 2 0v-7h2a1 1 0 0 0 0-2h-6a1 1 0 0 0 0 2z"/><path data-cppathid="10006" d="m20.94 9.65a1 1 0 0 0 -1.88 0l-3 8a1 1 0 0 0 1.88.7l.5-1.35h3.12l.5 1.35a1 1 0 0 0 1.88-.7zm-1.75 5.35.81-2.15.81 2.15z"/><path data-cppathid="10007" d="m26.89 18.45 1.11-2.21 1.11 2.21a1 1 0 0 0 1.78-.9l-1.77-3.55 1.77-3.55a1 1 0 0 0 -1.78-.9l-1.11 2.21-1.11-2.21a1 1 0 0 0 -1.78.9l1.77 3.55-1.77 3.55a1 1 0 0 0 1.78.9z"/><circle data-cppathid="10008" r="2" cy="31" cx="33"/><circle data-cppathid="10009" r="2" cy="37" cx="39"/><path data-cppathid="10010" d="m38.42 29.38-6.4 8a1 1 0 0 0 .78 1.62c.69 0 .36.16 7.18-8.37a1 1 0 0 0 -1.56-1.25z"/></g></svg>