<?xml version="1.0" encoding="UTF-8"?>
<svg xmlns="http://www.w3.org/2000/svg" onmouseup="{ if(window.parent.document.onmouseup) window.parent.document.onmouseup(arguments[0]);}" width="512" viewBox="0 0 512 512" height="512" enable-background="new 0 0 512 512" id="Capa_1"><g><g><path data-cppathid="10000" fill="#ffe4b2" d="m95.009 108.62-33.803-98.24h151.403l-32.092 98.24z"/><path data-cppathid="10001" fill="#ffe4b2" d="m184.027 293.624h-94.038l-54.67 56.215c-16.236 16.694-25.319 39.063-25.319 62.35 0 49.391 40.039 89.43 89.43 89.43h75.155c49.391 0 89.43-40.039 89.43-89.43 0-23.287-9.083-45.656-25.319-62.35z"/><path data-cppathid="10002" fill="#ffdad5" d="m295.341 131.746h-10.364c-17.049 0-33.166-7.78-43.77-21.129l-7.406-9.323c-10.605-13.349-26.939-21.129-43.988-21.129l-9.295 28.455h-120.931c-12.772 0-23.126 10.354-23.126 23.126 0 12.769 10.349 23.121 23.118 23.126h-5.076c-12.772 0-23.126 10.354-23.126 23.126 0 12.772 10.354 23.126 23.126 23.126h15.069c-12.771 0-23.125 10.354-23.125 23.126 0 12.772 10.354 23.126 23.126 23.126h8.705c-12.77.002-23.122 10.355-23.122 23.126 0 12.772 10.354 23.126 23.126 23.126h116.396c13.346 0 26.252-4.775 36.385-13.462l7.56-6.481c10.132-8.687 23.038-13.462 36.385-13.462h20.335v-128.477z"/><path data-cppathid="10003" fill="#f9f5f3" d="m295.341 116.616h96.65v161.467h-96.65z"/><path data-cppathid="10004" fill="#5c90ae" d="m502 146.054v-49.74l-110.009 20.303v161.466h110.009v-44.215z"/></g><g><g><path data-cppathid="10005" d="m176.036 337.428c-4.746-2.825-10.883-1.264-13.706 3.481l-61.266 102.985c-2.824 4.747-1.266 10.883 3.481 13.707 4.687 2.789 10.922 1.199 13.706-3.481l61.266-102.985c2.825-4.746 1.266-10.883-3.481-13.707z"/><path data-cppathid="10006" d="m134.992 363.415c0-17.75-13.053-32.192-29.097-32.192-15.811 0-28.195 14.14-28.195 32.192 0 17.75 13.053 32.191 29.098 32.191 15.809 0 28.194-14.14 28.194-32.191zm-37.292 0c0-6.836 3.6-12.192 8.195-12.192 4.931 0 9.097 5.583 9.097 12.192 0 6.836-3.6 12.191-8.194 12.191-4.932 0-9.098-5.583-9.098-12.191z"/><path data-cppathid="10007" d="m145.997 433.827c0 17.75 13.053 32.192 29.097 32.192 16.045 0 29.098-14.441 29.098-32.192s-13.053-32.191-29.098-32.191c-16.044-.001-29.097 14.44-29.097 32.191zm38.194 0c0 6.609-4.166 12.192-9.098 12.192-4.931 0-9.097-5.583-9.097-12.192 0-6.608 4.166-12.191 9.097-12.191 4.932-.001 9.098 5.582 9.098 12.191z"/><path data-cppathid="10008" d="m508.397 88.628c-2.283-1.9-5.291-2.688-8.212-2.148l-109.109 20.137h-95.735c-5.522 0-10 4.477-10 10v5.129h-.364c-14.081 0-27.181-6.323-35.939-17.349l-7.406-9.323c-9.608-12.095-23.42-20.385-38.488-23.51l18.972-58.078c2.079-6.364-2.824-13.105-9.506-13.105h-151.404c-6.747 0-11.654 6.862-9.456 13.253l29.242 84.986h-21.406c-18.266 0-33.126 14.86-33.126 33.125 0 7.757 2.681 14.899 7.164 20.551-7.468 6.079-12.247 15.342-12.247 25.7 0 13.327 7.912 24.841 19.284 30.093-2.684 4.782-4.215 10.295-4.215 16.158 0 11.401 5.79 21.476 14.584 27.438-3.704 5.347-5.875 11.831-5.875 18.813 0 14.139 9.311 27.058 22.767 31.472l-39.773 40.897c-18.152 18.666-28.149 43.285-28.149 69.322 0 54.826 44.604 99.431 99.431 99.431h75.155c54.826 0 99.431-44.604 99.431-99.431 0-26.036-9.997-50.655-28.15-69.321l-39.235-40.344c11.365-2.099 22.064-7.16 30.939-14.769l7.56-6.481c8.313-7.128 18.924-11.054 29.876-11.054h10.335v7.863c0 5.523 4.478 10 10 10h206.658c5.522 0 10-4.477 10-10v-44.215c0-5.523-4.478-10-10-10s-10 4.477-10 10v34.215h-90.009v-143.143l90.009-16.611v37.726c0 5.523 4.478 10 10 10s10-4.477 10-10v-49.74c0-2.971-1.32-5.787-3.603-7.687zm-309.575-68.248-18.509 56.663c-.002.006-.004.011-.006.017l-7.043 21.56h-71.12l-26.921-78.24zm55.195 391.809c0 43.798-35.633 79.431-79.431 79.431h-75.155c-43.798 0-79.431-35.633-79.431-79.431 0-20.8 7.986-40.467 22.487-55.378l51.725-53.186h85.592l51.724 53.186c14.502 14.912 22.489 34.579 22.489 55.378zm20.989-161.969c-15.725 0-30.958 5.636-42.894 15.87l-7.56 6.481c-8.314 7.128-18.925 11.054-29.876 11.054h-116.396c-7.154 0-13.125-5.972-13.125-13.125 0-7.236 5.888-13.125 13.124-13.125 5.522-.001 9.998-4.478 9.998-10.001 0-5.522-4.478-9.999-10-9.999h-8.706c-7.237 0-13.125-5.888-13.125-13.126 0-7.237 5.888-13.125 13.124-13.125 5.523 0 10-4.478 10-10 0-5.523-4.478-10-10-10h-15.068c-7.237 0-13.125-5.888-13.125-13.125 0-7.238 5.888-13.126 13.125-13.126h5.076c5.522 0 9.999-4.476 10-9.999.001-5.522-4.475-10-9.996-10.001-7.235-.002-13.122-5.891-13.122-13.125 0-7.237 5.889-13.125 13.126-13.125h120.932c4.326 0 8.162-2.782 9.506-6.895l6.863-21.009c11.387 1.778 21.92 7.779 29.084 16.798l7.406 9.323c12.575 15.83 31.383 24.909 51.6 24.909h.364v108.471zm30.335 10v-133.603h76.65v141.467h-76.65z"/><path data-cppathid="10009" d="m507.55 181.58c-3.553-2.371-8.327-2.179-11.699.432-3.297 2.552-4.647 7.064-3.337 11.013 1.34 4.04 5.22 6.865 9.486 6.865 4.181 0 7.99-2.709 9.407-6.631 1.531-4.235-.075-9.203-3.857-11.679z"/></g></g></g></svg>