<?xml version="1.0" encoding="UTF-8"?>
<svg xmlns="http://www.w3.org/2000/svg" onmouseup="{ if(window.parent.document.onmouseup) window.parent.document.onmouseup(arguments[0]);}" width="512" viewBox="0 0 512 512" height="512" enable-background="new 0 0 512 512" id="Capa_1"><g><path data-cppathid="10000" fill="#c77e67" d="m258.388 38.46c-9.318-8.2-20.103-10.999-31.282-4.143-6.845 4.197-14.903 4.818-21.797.742-5.026-2.972-10.53-4.612-16.302-4.612s-11.276 1.64-16.302 4.612c-6.893 4.077-14.952 3.455-21.797-.742-11.18-6.855-21.964-4.057-31.282 4.143-14.612 12.859-20.086 34.126-2.391 64.233 12.647 21.518 29.632 34.792 43.629 35.922 7.534 9.423 48.752 9.423 56.286 0 13.998-1.131 30.982-14.404 43.629-35.922 17.695-30.107 12.221-51.374-2.391-64.233z"/><path data-cppathid="10001" fill="#c77e67" d="m244.655 168.77h-111.296s-125.859 150.55-125.859 211.615c0 68.314 60.658 101.169 93.081 101.169h176.853c32.423 0 93.081-32.855 93.081-101.169-.001-61.066-125.86-211.615-125.86-211.615z"/><g fill="#ac583e"><path data-cppathid="10002" d="m258.388 38.46c-9.318-8.2-20.103-10.999-31.282-4.143-.716.439-1.448.83-2.188 1.189 1.128.886 2.236 1.869 3.321 2.954 12.856 12.859 17.672 34.126 2.104 64.233-11.127 21.518-26.071 34.792-38.386 35.922-2.236 3.178-7.848 5.28-14.552 6.314 14.972 2.032 34.753-.07 39.746-6.314 13.998-1.131 30.982-14.404 43.629-35.922 17.694-30.107 12.22-51.374-2.392-64.233z"/><path data-cppathid="10003" d="m244.655 168.77h-28.499s110.735 150.55 110.735 211.615c0 68.314-53.368 101.169-81.895 101.169h32.438c32.423 0 93.081-32.855 93.081-101.169-.001-61.066-125.86-211.615-125.86-211.615z"/><path data-cppathid="10004" d="m263.265 191.903c-11.204-14.272-18.61-23.134-18.61-23.134h-111.296s-7.406 8.862-18.61 23.134z"/></g><path data-cppathid="10005" fill="#655e67" d="m106.089 149.147c0 10.837 8.785 19.623 19.623 19.623h126.59c10.837 0 19.623-8.785 19.623-19.623s-8.785-19.623-19.623-19.623h-126.59c-10.837 0-19.623 8.785-19.623 19.623z"/><path data-cppathid="10006" fill="#544f56" d="m252.302 129.524h-27.634c10.837 0 19.623 8.786 19.623 19.623s-8.785 19.623-19.623 19.623h27.634c10.838 0 19.623-8.786 19.623-19.623s-8.786-19.623-19.623-19.623z"/><g><path data-cppathid="10007" fill="#f7e365" d="m399.165 433.063h-130.954c-13.39 0-24.246 10.855-24.246 24.246 0 13.39 10.855 24.245 24.246 24.245h130.953c13.39 0 24.246-10.855 24.246-24.245 0-13.391-10.855-24.246-24.245-24.246z"/><path data-cppathid="10008" fill="#ecc52e" d="m399.165 433.063h-27.81c13.39 0 24.246 10.855 24.246 24.246 0 13.39-10.855 24.245-24.246 24.245h27.81c13.39 0 24.246-10.855 24.246-24.245-.001-13.391-10.856-24.246-24.246-24.246z"/></g><g><path data-cppathid="10009" fill="#f7e365" d="m399.165 384.572h-130.954c-13.39 0-24.246 10.855-24.246 24.246 0 13.39 10.855 24.245 24.246 24.245h130.953c13.39 0 24.245-10.855 24.245-24.245.001-13.391-10.854-24.246-24.244-24.246z"/><g fill="#ecc52e"><path data-cppathid="10010" d="m399.165 414.501h-130.954c-10.102 0-18.758-6.18-22.402-14.964-1.186 2.859-1.844 5.993-1.844 9.281 0 13.39 10.855 24.245 24.246 24.245h130.953c13.39 0 24.245-10.855 24.245-24.245 0-3.288-.658-6.422-1.844-9.281-3.642 8.784-12.298 14.964-22.4 14.964z"/><path data-cppathid="10011" d="m399.165 384.572h-27.81c13.39 0 24.246 10.855 24.246 24.245s-10.855 24.245-24.246 24.245h27.81c13.39 0 24.245-10.855 24.245-24.245s-10.855-24.245-24.245-24.245z"/></g></g><g><path data-cppathid="10012" fill="#f7e365" d="m501.248 445.182-65.477-113.409c-6.695-11.596-21.523-15.57-33.12-8.874-11.596 6.695-15.57 21.524-8.874 33.12l65.477 113.409c6.695 11.596 21.523 15.57 33.12 8.875 11.596-6.697 15.569-21.525 8.874-33.121z"/><path data-cppathid="10013" fill="#ecc52e" d="m501.248 445.182-13.905-24.084c6.695 11.596 2.722 26.425-8.874 33.12s-26.425 2.722-33.12-8.875l13.905 24.084c6.695 11.596 21.523 15.57 33.12 8.875s15.569-21.524 8.874-33.12z"/></g><g><path data-cppathid="10014" d="m143.598 291.891c0 4.142 3.357 7.5 7.5 7.5h47.156c-3.149 9.044-11.71 15.551-21.758 15.551h-15.572c-4.74 0-8.965 2.652-11.027 6.921-2.061 4.269-1.51 9.226 1.439 12.938l45.789 57.642c1.481 1.864 3.669 2.836 5.878 2.836 1.635 0 3.281-.532 4.66-1.628 3.243-2.576 3.784-7.295 1.208-10.538l-42.237-53.17h9.862c18.373 0 33.745-13.14 37.284-30.551h13.144c4.143 0 7.5-3.358 7.5-7.5s-3.357-7.5-7.5-7.5h-12.965c-1.004-5.642-3.287-10.944-6.721-15.551h19.687c4.143 0 7.5-3.358 7.5-7.5s-3.357-7.5-7.5-7.5l-75.826-.001c-4.143 0-7.5 3.358-7.5 7.5s3.357 7.5 7.5 7.5h16.176l.019.001h10.134c5.906.005 11.458 2.306 15.635 6.482 2.579 2.578 4.437 5.683 5.487 9.07h-47.452c-4.143-.002-7.5 3.356-7.5 7.498z"/><path data-cppathid="10015" d="m507.753 441.444-36.352-62.963c-2.071-3.588-6.66-4.817-10.245-2.745-3.587 2.071-4.816 6.658-2.745 10.245l36.352 62.962c4.616 7.997 1.866 18.259-6.13 22.876-7.996 4.615-18.259 1.867-22.875-6.13l-65.478-113.41c-2.236-3.874-2.83-8.386-1.673-12.707 1.158-4.32 3.929-7.932 7.803-10.168 3.872-2.236 8.383-2.832 12.707-1.673 4.32 1.158 7.932 3.929 10.168 7.802l11.625 20.137c2.07 3.588 6.656 4.816 10.245 2.745 3.587-2.071 4.816-6.658 2.745-10.245l-11.625-20.137c-4.239-7.344-11.086-12.597-19.277-14.791-8.192-2.194-16.745-1.069-24.089 3.171-7.344 4.239-12.597 11.085-14.791 19.276-2.195 8.191-1.069 16.746 3.171 24.089l9.99 17.303h-19.377c-1.654-27.176-23.208-70.761-64.157-129.676-21.108-30.369-42.396-57.539-54.126-72.138 7.276-2.04 13.321-7.041 16.75-13.62 16.919 2.088 30.405 18.16 35.447 34.353 1.025 3.286 1.942 6.61 2.914 10.129 3.738 13.547 7.605 27.556 17.637 38.634 1.48 1.635 3.518 2.465 5.562 2.465 1.796 0 3.597-.641 5.032-1.941 3.07-2.78 3.306-7.524.525-10.594-7.64-8.436-10.874-20.152-14.297-32.555-.961-3.482-1.955-7.082-3.052-10.6-3.823-12.281-10.949-23.521-20.065-31.65-8.064-7.192-17.172-11.585-26.742-12.98-.362-4.395-1.773-8.496-3.987-12.05 10.877-6.579 21.182-7.592 31.319-3.082 4.55 2.028 8.865 5.137 13.435 8.43 7.631 5.498 15.522 11.184 25.756 12.79.395.062.786.092 1.172.092 3.63 0 6.82-2.64 7.401-6.339.643-4.092-2.154-7.93-6.246-8.572-6.697-1.051-12.825-5.467-19.314-10.142-4.983-3.591-10.137-7.304-16.1-9.962-15.874-7.064-32.748-4.809-49.072 6.471-2.362-1.097-4.906-1.865-7.576-2.242 3.997-4.743 7.745-10.05 11.135-15.811 1.909-3.252 3.62-6.502 5.085-9.659 1.744-3.757.111-8.217-3.646-9.961-3.756-1.743-8.216-.111-9.96 3.646-1.264 2.723-2.749 5.542-4.411 8.374-5.549 9.431-12.095 17.375-19.033 23.138h-18.382c.927-3.308 1.801-6.861 2.613-10.659 1.64-7.686 2.757-15.082 3.32-21.985.338-4.129-2.735-7.749-6.864-8.086-4.119-.345-7.747 2.736-8.085 6.864-.513 6.263-1.535 13.018-3.041 20.075-1.082 5.066-2.306 9.734-3.601 13.79h-24.472c-1.286-4.028-2.509-8.695-3.597-13.789-1.512-7.084-2.53-13.835-3.028-20.064-.331-4.129-3.93-7.208-8.075-6.878-4.129.331-7.208 3.945-6.878 8.074.551 6.877 1.665 14.278 3.313 22 .814 3.809 1.687 7.36 2.61 10.656h-18.39c-6.939-5.764-13.484-13.708-19.03-23.135-13.692-23.296-13.385-42.245.891-54.802 4.918-4.333 12.593-9.394 22.406-3.373 9.494 5.815 20.53 6.114 29.521.803 8.017-4.732 16.96-4.738 24.983-.001 8.99 5.31 20.03 5.011 29.539-.805 4.692-2.882 12.124-5.666 22.398 3.374 5.428 4.784 8.876 10.52 10.25 17.049.853 4.054 4.828 6.647 8.883 5.795 4.054-.853 6.649-4.83 5.795-8.884-2.054-9.762-7.104-18.245-15.015-25.217-12.756-11.223-27.017-12.965-40.147-4.907-4.755 2.907-9.884 3.154-14.074.68-6.352-3.751-13.118-5.652-20.114-5.652-7 0-13.771 1.901-20.124 5.652-4.19 2.474-9.313 2.229-14.053-.675-13.147-8.067-27.41-6.326-40.157 4.901-9.265 8.15-14.74 18.729-15.831 30.595-1.204 13.074 2.807 27.564 11.921 43.071 3.387 5.758 7.134 11.063 11.131 15.805-13.156 1.861-23.309 13.189-23.309 26.85 0 12.42 8.394 22.91 19.805 26.112-7.201 8.96-17.991 22.637-30.076 38.82-2.479 3.319-1.798 8.019 1.521 10.497 1.348 1.006 2.922 1.491 4.483 1.491 2.285 0 4.542-1.041 6.015-3.013 16.914-22.648 31.236-40.305 36.557-46.784h104.227c7.683 9.358 34.127 42.025 60.306 79.69 47.701 68.63 60.085 103.549 61.455 121.115h-94.667c-17.502 0-31.741 14.243-31.741 31.751 0 9.712 4.389 18.414 11.282 24.241-6.896 5.828-11.286 14.533-11.286 24.248 0 6.142 1.759 11.878 4.791 16.742h-140.685c-18.824 0-40.569-11.612-53.771-23.119-14.512-12.648-31.811-35.158-31.811-70.551 0-16.778 11.209-52.732 64.608-128.741 2.381-3.39 1.564-8.068-1.825-10.448-3.391-2.381-8.068-1.564-10.448 1.825-44.68 63.598-67.335 109.814-67.335 137.364 0 41.033 20.096 67.164 36.955 81.861 18.685 16.287 43.66 26.812 63.627 26.812l298.591.003c17.504 0 31.746-14.241 31.746-31.746 0-9.714-4.39-18.419-11.286-24.247 2.325-1.965 4.363-4.255 6.046-6.803l27.088 46.919c5.873 10.173 16.566 15.867 27.546 15.867 5.382 0 10.833-1.368 15.82-4.247 15.159-8.752 20.372-28.206 11.62-43.366zm-394.162-292.29c0-6.685 5.439-12.123 12.123-12.123h126.592c6.685 0 12.123 5.439 12.123 12.123 0 6.685-5.439 12.123-12.123 12.123h-126.592c-6.684 0-12.123-5.439-12.123-12.123zm302.327 308.167c0 9.234-7.512 16.745-16.745 16.745h-121.67c-.023 0-.045-.003-.068-.003h-9.285c-9.202-.037-16.679-7.531-16.679-16.742 0-9.235 7.512-16.747 16.745-16.747h130.954c9.236 0 16.748 7.513 16.748 16.747zm-16.748-31.747h-130.954c-9.232 0-16.742-7.51-16.742-16.742 0-9.236 7.51-16.75 16.741-16.75h130.953c2.791 0 5.498.693 7.926 2l8.8 15.242c-.264 9.002-7.654 16.25-16.724 16.25z"/></g></g></svg>