<?xml version="1.0" encoding="UTF-8"?>
<svg xmlns="http://www.w3.org/2000/svg" onmouseup="{ if(window.parent.document.onmouseup) window.parent.document.onmouseup(arguments[0]);}" width="512" viewBox="0 0 512 512" height="512" enable-background="new 0 0 512 512" id="Capa_1"><g><g><path data-cppathid="10000" fill="#e9baa1" d="m427.435 387.77-.01-.02-70.7 12.4-41.85 41.85h-38.92c-22.09 0-40-17.91-40-40h40c22.134 0 40-17.971 40-40-7.151 0-69.199 0-80 0-26.13 0-48.35 16.69-56.59 40h-43.41v100h252.03l88.06-108.05c-13.19-13.18-33.27-15.24-48.61-6.18z"/><path data-cppathid="10001" fill="#fce8d0" d="m124.005 10-88.05 108.05c12.94 12.94 32.53 15.16 47.75 6.67.02-.01.03-.02.05-.03l71.51-12.82v-.01l41.86-41.86h38.92c22.09 0 40 17.91 40 40h-40c-22.2 0-40 18.002-40 40h80c26.12 0 48.35-16.69 56.58-40h43.33v-100z"/><path data-cppathid="10002" fill="#ff7d95" d="m415.955 10h60.09v100h-60.09z"/><circle data-cppathid="10003" r="100" fill="#ffda8f" cy="302" cx="375.955"/><path data-cppathid="10004" fill="#eefaff" d="m375.955 10h40v100h-40z"/><g fill="#ff7d95"><path data-cppathid="10005" d="m235.955 210c0 55.23-44.77 100-100 100s-100-44.77-100-100c0-55.114 44.676-100 100-100 55.197 0 100 44.726 100 100z"/><path data-cppathid="10006" d="m135.955 402v100h-100v-100z"/></g></g><g><circle data-cppathid="10007" r="10" cy="250" cx="155.955"/><circle data-cppathid="10008" r="10" cy="170" cx="115.955"/><circle data-cppathid="10009" r="10" cy="442" cx="95.955"/><path data-cppathid="10010" d="m376.139 331.581c-.03 0-.062 0-.093 0-4.327-.04-8.787-2.652-12.896-7.555-3.549-4.232-9.855-4.787-14.088-1.239-4.232 3.548-4.788 9.855-1.24 14.088 5.287 6.307 11.518 10.723 18.134 12.978v12.147c0 5.523 4.478 10 10 10s10-4.477 10-10v-12.061c11.538-3.989 20.17-15.013 20.17-28.359 0-16.542-13.458-30-30-30-5.514 0-10-4.486-10-10 0-5.469 4.446-9.956 9.9-10 3.599-.066 7.357 1.782 10.915 5.226 3.97 3.841 10.3 3.738 14.141-.231 3.841-3.968 3.737-10.299-.23-14.14-5.134-4.968-10.269-7.762-14.896-9.27v-11.165c0-5.523-4.478-10-10-10s-10 4.477-10 10v11.369c-11.541 4.189-19.83 15.282-19.83 28.212 0 16.542 13.458 30 30 30 5.514 0 10 4.486 10 10-.001 5.495-4.449 10-9.987 10z"/><path data-cppathid="10011" d="m135.955 320c60.654 0 110-49.346 110-110 0-17.641-4.117-34.629-11.994-50h42.083c27.201 0 51.779-15.817 63.247-40h136.753c5.522 0 10-4.477 10-10v-100c0-5.523-4.478-10-10-10h-352.04c-3.006 0-5.853 1.353-7.752 3.683l-88.05 108.049c-3.24 3.977-2.946 9.761.681 13.389 6.634 6.634 14.835 11.076 23.556 13.188-16.928 19.63-26.484 44.81-26.484 71.691 0 60.654 49.346 110 110 110zm290-300h40.09v80h-40.09zm-40 0h20v80h-20zm-335.68 96.307 78.481-96.307h237.199v80h-20.634c.472-3.295.724-6.632.724-10 0-5.523-4.478-10-10-10s-10 4.477-10 10c0 5.73-.957 11.334-2.85 16.671-7.038 19.935-25.986 33.329-47.15 33.329h-68.299c4.268-12.054 15.756-20 28.299-20h40c5.522 0 10-4.477 10-10 0-27.57-22.43-50-50-50h-95.47c-2.652 0-5.195 1.054-7.071 2.929l-48.049 48.049c-9.444 9.444-23.71 11.335-35.18 5.329zm146.873 2.297c-7.129-4.776-14.789-8.703-22.795-11.691l26.915-26.913h34.777c13.037 0 24.159 8.359 28.286 20h-28.286c-15.239 0-29.518 7.04-38.897 18.604zm-24.166-38.604-21.145 21.145c-5.235-.76-10.556-1.145-15.882-1.145-3.985 0-7.954.228-11.892.655l20.655-20.655zm-37.027 40c18.624 0 36.639 5.693 51.929 16.505-1.223 4.363-1.84 8.877-1.84 13.495 0 5.523 4.478 10 10 10h14.741c9.93 14.805 15.169 31.985 15.169 50 0 49.626-40.374 90-90 90s-90-40.374-90-90c.001-50.67 41.134-90 90.001-90z"/><path data-cppathid="10012" d="m103.026 257.071 80-80c3.905-3.905 3.905-10.237 0-14.143-3.906-3.905-10.236-3.905-14.143 0l-80 80c-3.905 3.905-3.905 10.237 0 14.143 3.906 3.905 10.237 3.906 14.143 0z"/><circle data-cppathid="10013" r="10" cy="502" cx="275.955"/><path data-cppathid="10014" d="m35.955 512h195c5.522 0 10-4.477 10-10s-4.478-10-10-10h-85v-80.01h20.723c-.472 3.307-.723 6.644-.723 10.01 0 5.523 4.478 10 10 10s10-4.477 10-10c0-5.725.955-11.333 2.838-16.667 7.049-19.938 26.001-33.333 47.162-33.343h68.292c-4.329 12.187-15.875 20.01-28.292 20.01h-40c-5.522 0-10 4.477-10 10 0 27.57 22.43 50 50 50h95.47c2.652 0 5.195-1.054 7.071-2.929l48.05-48.05c9.43-9.43 23.682-11.4 35.187-5.339l-78.499 96.318h-62.279c-5.522 0-10 4.477-10 10s4.478 10 10 10h67.03c3.006 0 5.853-1.352 7.752-3.683l88.06-108.05c3.241-3.978 2.946-9.764-.684-13.391-6.705-6.701-14.937-11.158-23.675-13.259 17.698-20.602 26.517-46.117 26.517-71.617 0-60.654-49.346-110-110-110s-110 49.346-110 110c0 17.641 4.117 34.629 11.994 50h-41.994c-27.191 0-51.768 15.811-63.252 40h-136.748c-5.522 0-10 4.477-10 10v100c0 5.523 4.478 10 10 10zm274.778-80h-34.778c-13.037 0-24.159-8.359-28.286-20h28.286c15.215 0 29.481-7.027 38.855-18.562 7.126 4.766 14.791 8.687 22.812 11.673zm56.549 0h-28.265l21.134-21.134c5.227.752 10.523 1.134 15.805 1.134 4.02 0 8.021-.229 11.99-.663zm8.673-220c49.626 0 90 40.374 90 90 0 51.22-41.619 90-90 90-19.085 0-36.993-5.957-51.86-16.445 1.236-4.379 1.86-8.913 1.86-13.555 0-5.523-4.478-10-10-10h-14.831c-9.93-14.805-15.169-31.985-15.169-50 0-49.626 40.374-90 90-90zm-330 200h80v80h-80z"/></g></g></svg>