<?xml version="1.0" encoding="UTF-8"?>
<svg xmlns="http://www.w3.org/2000/svg" onmouseup="{ if(window.parent.document.onmouseup) window.parent.document.onmouseup(arguments[0]);}" width="1.707in" viewBox="0 0 1.70666 1.70666" text-rendering="geometricPrecision" shape-rendering="geometricPrecision" image-rendering="optimizeQuality" height="1.707in" fill-rule="evenodd" clip-rule="evenodd"><g id="Layer_x0020_1"><path data-cppathid="10000" d="m1.53037.262559h-.57389v-.121906c0-.056878-.0462756-.10315-.10315-.10315-.056878 0-.10315.0462717-.10315.10315v.121906h-.573894c-.0972087 0-.176291.0790827-.176291.176291v.791449c0 .0972047.0790827.176291.176291.176291h1.35408c.0972087 0 .176295-.0790827.176295-.176291v-.791445c0-.0972126-.0790827-.176295-.176295-.176295zm-.761437-.121906c0-.0465394.0378583-.0843976.0843976-.0843976.0465315 0 .0843937.0378583.0843937.0843976v.309453h-.168791v-.309453zm.918976 1.08965c0 .0868661-.0706693.157535-.157539.157535h-1.35408c-.0868661 0-.157539-.0706693-.157539-.157535v-.791449c0-.0868661.0706732-.157539.157539-.157539l.573894.00000394v.168791h-.0656417c-.0051811 0-.00937795.00419685-.00937795.00937795 0 .00517717.00419685.00937795.00937795.00937795l.0750197-.00000394h.187543.0750197c.0051811 0 .00937795-.00419685.00937795-.00937795s-.00419685-.00937795-.00937795-.00937795l-.0656417.00000394v-.168795l.57389.00000394c.0868701 0 .157539.0706693.157539.157539v.791445z"/><path data-cppathid="10001" d="m.396417.718417c.031878-.0175276.0535315-.0514331.0535315-.0903071 0-.0567874-.0462008-.102992-.102992-.102992-.0567913 0-.102992.0462008-.102992.102992 0 .038874.0216535.0727756.0535276.0903071-.0892362.0221929-.155575.102965-.155575.198972 0 .0051811.00419685.00937795.00937795.00937795h.391319c.0051811 0 .00937795-.00419685.00937795-.00937795.00000394-.0960079-.0663346-.17678-.155575-.198972zm-.133701-.0902992c0-.0464488.0377874-.0842402.0842402-.0842402.0464488 0 .0842362.0377874.0842362.0842402 0 .0464488-.0377913.0842323-.0842362.0842323-.0464488 0-.0842402-.0377874-.0842402-.0842323zm-.101815.279898c.00490551-.098378.0864803-.176909.186055-.176909.0995709 0 .181142.0785315.186051.176909z"/><path data-cppathid="10002" d="m.5345 1.05025h-.375091c-.0051811 0-.00937795.00419685-.00937795.00937795s.00419685.00937795.00937795.00937795h.375091c.0051811 0 .00937795-.00419685.00937795-.00937795s-.00419685-.00937795-.00937795-.00937795z"/><path data-cppathid="10003" d="m.440728 1.16278h-.187547c-.0051811 0-.00937795.00419685-.00937795.00937795s.00419685.00937795.00937795.00937795h.187547c.0051811 0 .00937795-.00419685.00937795-.00937795s-.00419685-.00937795-.00937795-.00937795z"/><path data-cppathid="10004" d="m1.47223.975236h-.712673c-.0051811 0-.00937795.00419685-.00937795.00937795v.187547c0 .00517717.00419685.00937795.00937795.00937795l.712673-.00000394c.0051811 0 .00937795-.00419685.00937795-.00937795v-.187547c0-.00517717-.00419685-.00937402-.00937795-.00937402zm-.00937795.187543h-.693921v-.168791h.693921z"/><path data-cppathid="10005" d="m.797067.731425h.262563c.0051811 0 .00937795-.00419685.00937795-.00937795s-.00419685-.00937795-.00937795-.00937795h-.262563c-.0051811 0-.00937795.00419685-.00937795.00937795s.00419685.00937795.00937795.00937795z"/><path data-cppathid="10006" d="m.797067.843953h.45011c.0051811 0 .00937795-.00419685.00937795-.00937795s-.00419685-.00937795-.00937795-.00937795h-.45011c-.0051811 0-.00937795.00419685-.00937795.00937795s.00419685.00937795.00937795.00937795z"/><path data-cppathid="10007" d="m1.62227 1.53787h-1.57539c-.0051811 0-.00937795.00419685-.00937795.00937795s.00419685.00937795.00937795.00937795h1.57539c.0051811 0 .00937795-.00419685.00937795-.00937795s-.00419685-.00937795-.00937795-.00937795z"/><path data-cppathid="10008" d="m1.62227 1.6504h-1.57539c-.0051811 0-.00937795.00419685-.00937795.00937795s.00419685.00937795.00937795.00937795h1.57539c.0051811 0 .00937795-.00419685.00937795-.00937795s-.00419685-.00937795-.00937795-.00937795z"/><path data-cppathid="10009" fill="#3dc8ff" d="m1.68791 1.2303v-.791445c0-.086874-.0706772-.157539-.157543-.157539l-.573886-.00000787v.168799h.0656378c.0051811 0 .00937795.00419685.00937795.00937795s-.00419685.00937795-.00937795.00937795c-.112528 0-.225055 0-.337583 0-.0051811 0-.00937795-.00419685-.00937795-.00937795s.00419685-.00937795.00937795-.00937795h.0656378v-.168791l-.573886-.00000787c-.0868701 0-.157543.0706732-.157543.157543v.791449c0 .0868622.0706732.157539.157543.157539h1.35408c.0868661 0 .157543-.0706772.157543-.157539zm-.890843-.405102h.450106c.0051811 0 .00937795.00419685.00937795.00937795 0 .00517323-.00419685.00937795-.00937795.00937795h-.450106c-.00518504 0-.00937795-.00420472-.00937795-.00937795 0-.0051811.00419291-.00937795.00937795-.00937795zm0-.112528h.262559c.00517717 0 .00937795.00419685.00937795.00937795 0 .00517717-.00420079.00937795-.00937795.00937795h-.262559c-.00518504 0-.00937795-.00420079-.00937795-.00937795 0-.0051811.00419291-.00937795.00937795-.00937795zm-.0375157.262567h.712677c.00518504 0 .00937402.00419685.00937402.00937795v.187547c0 .00517717-.00418898.00937402-.00937402.00937402h-.712677c-.0051811 0-.00937795-.00419291-.00937795-.00937402v-.187547c0-.0051811.00419685-.00937795.00937795-.00937795zm-.50637.187547h.187547c.00517717 0 .00937402.00419685.00937402.00937795 0 .00517717-.00419685.00937402-.00937402.00937402h-.187547c-.00518898 0-.00938583-.00419685-.00938583-.00937402 0-.0051811.00419685-.00937795.00938583-.00937795zm-.0937756-.112531h.375091c.0051811 0 .00937795.00419685.00937795.00937795 0 .00517717-.00419685.00937795-.00937795.00937795h-.375091c-.0051811 0-.00937795-.00420079-.00937795-.00937795 0-.0051811.00419685-.00937795.00937795-.00937795zm.290543-.422138c0 .038874-.0216575.0727756-.0535315.0903071.0892362.022189.155575.102965.155575.198969 0 .0051811-.00419685.00937795-.00937795.00937795h-.391323c-.0051811 0-.00937795-.00419685-.00937795-.00937795 0-.0960039.0663425-.17678.155579-.198969-.031878-.0175315-.0535315-.0514331-.0535315-.0903071 0-.0567953.0462008-.102992.102992-.102992.0567913 0 .102996.0461969.102996.102992z"/><path data-cppathid="10010" fill="#fff" d="m1.46285.993992-.693913-.000008v.168796h.693913z"/><g fill="#f0c416"><path data-cppathid="10011" d="m.533012.908016c-.00491732-.098374-.0864843-.176909-.186055-.176909-.0995748 0-.18115.0785354-.186055.176909z"/><path data-cppathid="10012" d="m.346957.71235c.0464449 0 .0842362-.0377795.0842362-.0842362 0-.0464528-.0377874-.0842362-.0842362-.0842362s-.0842402.0377953-.0842402.0842362c0 .0464488.0377913.0842362.0842402.0842362z"/><path data-cppathid="10013" d="m.768937.271937v.178169h.168787v-.178169-.13128c0-.0465394-.0378583-.0844016-.0843937-.0844016-.0465394 0-.0843937.0378622-.0843937.0844016v.13128z"/></g></g></svg>