<?xml version="1.0" encoding="UTF-8"?>
<svg xmlns="http://www.w3.org/2000/svg" onmouseup="{ if(window.parent.document.onmouseup) window.parent.document.onmouseup(arguments[0]);}" width="512" viewBox="0 0 512 512" height="512" enable-background="new 0 0 512 512" id="Layer_1"><g><g><path data-cppathid="10000" fill="#ff4755" d="m90.406 397.293s5.674 10.634 6.806 13.407c16.651 40.809 55.729 72.344 101.578 74.906 0 0 8.758-9.508 8.758-9.508v-16.443c0-2.626-2.03-4.834-4.652-4.986-34.158-1.978-62.5-25.606-71.591-57.376h19.182c4.513 0 6.852-5.384 3.773-8.683l-38.888-41.669c-2.04-2.186-5.506-2.186-7.547 0l-38.888 41.669c-3.079 3.299-.74 8.683 3.773 8.683z"/><path data-cppathid="10001" fill="#fc2b3a" d="m207.547 476.098c-49.87 0-92.574-30.677-110.336-74.206-1.132-2.773-3.811-4.598-6.806-4.598 9.969 53.773 55.961 94.881 111.972 97.275 2.825.121 5.169-2.172 5.169-5v-13.471z"/><path data-cppathid="10002" fill="#ff4755" d="m438.442 106.095h-17.696c-9.969-53.773-55.961-94.881-111.972-97.275-2.825-.121-5.169 2.172-5.169 5v16.185l9.37 10.922c32.939 5.107 59.235 17.539 66.872 65.169h-19.182c-4.513 0-6.853 5.384-3.773 8.683l38.888 41.669c2.041 2.186 5.506 2.186 7.547 0l38.888-41.669c3.08-3.301.74-8.684-3.773-8.684z"/><path data-cppathid="10003" fill="#fc2b3a" d="m303.605 30.004v13.729c0 2.626 2.03 4.834 4.651 4.986 34.159 1.978 62.501 25.606 71.591 57.376.001-46.774-40.025-76.091-76.242-76.091z"/><g><path data-cppathid="10004" fill="#8bcaff" d="m510.623 493.419c-7.317-40.773-42.931-71.712-85.764-71.712h-51.709c-42.833 0-78.448 30.939-85.765 71.712l111.619 9z"/><path data-cppathid="10005" fill="#6cc4ff" d="m287.411 493.419c-.905 5.042-1.404 10.225-1.404 15.527 0 1.686 1.367 3.053 3.053 3.053h86.043l23.9-9.581 23.9 9.581h86.043c1.686 0 3.053-1.367 3.053-3.053 0-5.303-.499-10.486-1.404-15.527z"/><path data-cppathid="10006" fill="#ff4755" d="m419.517 493.419-7.069-38.791-13.444-9-13.444 9-7.07 38.791 20.514 9z"/><path data-cppathid="10007" fill="#ea2f4a" d="m412.448 454.628h-26.888l-12.771-32.92h52.429z"/><path data-cppathid="10008" fill="#fc2b3a" d="m378.49 493.419-3.386 18.581h47.8l-3.387-18.581z"/><path data-cppathid="10009" fill="#f4b184" d="m304.155 346.009c0 15.239 11.955 23.319 21.684 23.319l2.439-9.125c0-.003 0-.007 0-.01l9-10.962-9-17.415c-.802-.083-1.615-.125-2.438-.125-9.73-.001-18.081 5.899-21.685 14.318z"/><path data-cppathid="10010" fill="#eaa678" d="m325.839 360.328c-9.729 0-18.08-5.9-21.684-14.319-1.221 2.852-1.899 5.991-1.899 9.29 0 13.039 10.558 23.609 23.583 23.609 1.648 0 3.255-.17 4.808-.492l7.135-9.744-9.504-8.47c-.802.084-1.615.126-2.439.126z"/><path data-cppathid="10011" fill="#f4b184" d="m493.852 346.009c0 15.239-11.954 23.319-21.684 23.319l-2.439-9.125c0-.003 0-.007 0-.01l-9-10.962 9-17.415c.802-.083 1.615-.125 2.439-.125 9.729-.001 18.08 5.899 21.684 14.318z"/><path data-cppathid="10012" fill="#eaa678" d="m472.168 360.328c9.729 0 18.08-5.9 21.684-14.319 1.221 2.852 1.899 5.991 1.899 9.29 0 13.039-10.558 23.609-23.583 23.609-1.648 0-3.255-.17-4.808-.492l-7.135-9.744 9.504-8.47c.802.084 1.615.126 2.439.126z"/><path data-cppathid="10013" fill="#ffc89f" d="m399.003 421.417c45.985 0 70.726-27.66 70.726-79.805v-62.042c-.001.001-141.452.875-141.452.875v61.167c.001 53.34 26.523 79.805 70.726 79.805z"/><path data-cppathid="10014" fill="#f7bc94" d="m399.004 412.417c-39.061 0-70.726-31.7-70.726-70.805v18.581c0 39.105 31.665 70.805 70.726 70.805s70.726-31.7 70.726-70.805v-18.581c-.001 39.105-31.665 70.805-70.726 70.805z"/><path data-cppathid="10015" fill="#e8834d" d="m469.722 311.153c-9.14-5.106-17.846-16.568-22.797-23.924-1.969-2.926-6.225-3.043-8.361-.235-9.694 12.746-23.619 18.001-31.863 20.091-3.108.788-6.255-1.377-6.445-4.579-.296-5.011-2.13-9.599-3.941-12.996-1.636-3.068-5.72-3.688-8.209-1.26-22.922 22.358-50.474 24.136-57.936 23.955-1.208-.029-2.403-.221-3.561-.567-11.132-3.322-21.823-12.638-28.579-19.539-2.934-2.997-1.211-8.038 2.932-8.688 8.216-1.29 14.112-4.384 18.155-7.473 3.422-2.615 2.233-7.943-1.934-9.032-11.284-2.949-16.216-11.884-18.346-18.405-1.127-3.449 1.592-6.928 5.215-6.73 35.54 1.936 44.851-19.78 79.177-29.663 36.416-10.485 62.199 16.593 62.199 16.593s36.906-3.474 40.073 33.203c3.027 35.055-15.779 49.249-15.779 49.249"/><path data-cppathid="10016" fill="#365e7d" d="m365.47 329.965c-4.283 0-7.754 3.473-7.754 7.757v15.77c0 4.284 3.471 7.757 7.754 7.757s7.754-3.473 7.754-7.757v-15.77c-.001-4.284-3.471-7.757-7.754-7.757z"/><path data-cppathid="10017" fill="#365e7d" d="m433.54 361.249c4.283 0 7.754-3.473 7.754-7.757v-15.77c0-4.284-3.471-7.757-7.754-7.757s-7.753 3.473-7.753 7.757v15.77c0 4.284 3.471 7.757 7.753 7.757z"/><path data-cppathid="10018" fill="#ff4755" d="m422.039 384.386c.493-1.019.768-2.162.768-3.37 0-4.284-3.471-7.757-7.754-7.757-3.301 0-6.119 2.064-7.238 4.972-.31.606-2.167 3.627-8.311 3.627-6.143 0-8.001-3.021-8.311-3.627-1.119-2.908-3.937-4.972-7.238-4.972-4.282 0-7.754 3.473-7.754 7.757 0 1.208.276 2.351.768 3.37 1.983 4.822 8.956 12.986 22.534 12.986s20.553-8.163 22.536-12.986z"/></g><g><path data-cppathid="10019" fill="#365e7d" d="m18.577 136.031c-18.577-67.785 13.067-118.757 49.8-131.329 42.062-14.396 73.493 8.861 73.493 8.861s23.761-19.695 51.421 6.842c22.394 21.485 31.497 64.058 11.692 111.643"/><path data-cppathid="10020" fill="#365e7d" d="m18.577 136.031c-18.577-67.785 13.067-118.757 49.8-131.329 42.062-14.396 73.493 8.861 73.493 8.861s23.761-19.695 51.421 6.842c22.394 21.485 31.497 64.058 11.692 111.643z"/><path data-cppathid="10021" fill="#f4b184" d="m39.832 160.299s2.439-9.135 2.439-9.125c0-.003 0-.007 0-.01l9-14.184-9-14.194c-.802-.083-1.615-.125-2.438-.125-9.729 0-18.08 5.9-21.684 14.319-.001 13.948 11.954 23.319 21.683 23.319z"/><path data-cppathid="10022" fill="#eaa678" d="m39.832 151.299c-9.729 0-18.08-5.899-21.684-14.319-1.221 2.852-1.899 5.991-1.899 9.29 0 13.039 10.558 23.609 23.583 23.609 1.648 0 3.256-.17 4.808-.493l2.221-9.088-4.59-9.125c-.802.083-1.616.126-2.439.126z"/><path data-cppathid="10023" fill="#8bcaff" d="m1.404 284.39 111.666 9 111.518-9c.01.003.019.006.028.009-7.313-40.777-42.93-71.72-85.766-71.72h-51.708c-42.832 0-78.444 30.936-85.763 71.706.008.001.016.003.025.005z"/><path data-cppathid="10024" fill="#6cc4ff" d="m1.404 284.39c-.905 5.042-1.404 10.225-1.404 15.528 0 1.686 1.367 3.053 3.053 3.053h86.043l23.974-9.581 23.826 9.581h86.043c1.686 0 3.053-1.367 3.053-3.053 0-5.303-.499-10.486-1.404-15.527h-223.184z"/><path data-cppathid="10025" fill="#ff4755" d="m133.51 284.39-7.07-38.791-13.444-9-13.443 9-7.07 38.791 20.513 9z"/><path data-cppathid="10026" fill="#ea2f4a" d="m126.44 245.599h-26.888l-12.77-32.92h52.429z"/><path data-cppathid="10027" fill="#fc2b3a" d="m92.483 284.39-3.387 18.581h47.8l-3.386-18.581z"/><path data-cppathid="10028" fill="#ffc89f" d="m183.722 122.786c-24.417-16.43-42.481-44.027-49.773-56.38-1.764-2.989-5.914-3.417-8.245-.846-10.86 11.973-40.125 40.765-83.433 57.227v28.378c0 39.105 31.665 70.805 70.726 70.805s70.726-31.7 70.726-70.805v-28.379z"/><path data-cppathid="10029" fill="#f4b184" d="m186.161 160.299s-2.439-9.135-2.439-9.125c0-.003 0-.007 0-.01l-9-14.184 9-14.194c.802-.083 1.615-.125 2.438-.125 9.729 0 18.08 5.9 21.684 14.319.001 13.948-11.954 23.319-21.683 23.319z"/><path data-cppathid="10030" fill="#eaa678" d="m186.161 151.299c9.729 0 18.08-5.899 21.684-14.319 1.221 2.852 1.898 5.991 1.898 9.29 0 13.039-10.558 23.609-23.583 23.609-1.648 0-3.256-.17-4.808-.493l-2.221-9.088 4.59-9.125c.803.083 1.616.126 2.44.126z"/><path data-cppathid="10031" fill="#ffc89f" d="m112.996 212.388c39.061 0 70.726-26.513 70.726-79.805v-9.797c-24.417-16.43-42.482-44.027-49.773-56.38-1.764-2.989-5.914-3.417-8.245-.846-10.86 11.973-40.125 40.765-83.433 57.227v9.802c-.001 52.37 31.666 79.799 70.725 79.799z"/><path data-cppathid="10032" fill="#365e7d" d="m79.036 120.558c-4.283 0-7.754 3.473-7.754 7.757v15.77c0 4.284 3.471 7.757 7.754 7.757s7.754-3.473 7.754-7.757v-15.77c-.001-4.284-3.472-7.757-7.754-7.757z"/><path data-cppathid="10033" fill="#365e7d" d="m147.105 151.842c4.283 0 7.753-3.473 7.753-7.757v-15.77c0-4.284-3.471-7.757-7.753-7.757-4.283 0-7.754 3.473-7.754 7.757v15.77c0 4.284 3.471 7.757 7.754 7.757z"/><path data-cppathid="10034" fill="#ff4755" d="m135.604 174.98c.492-1.019.768-2.162.768-3.37 0-4.284-3.471-7.757-7.753-7.757-3.301 0-6.119 2.064-7.237 4.972-.31.606-2.168 3.627-8.311 3.627s-8.001-3.021-8.311-3.627c-1.119-2.908-3.937-4.972-7.237-4.972-4.282 0-7.753 3.473-7.753 7.757 0 1.208.276 2.351.768 3.37 1.983 4.822 8.956 12.986 22.534 12.986s20.549-8.164 22.532-12.986z"/><path data-cppathid="10035" fill="#f7bc94" d="m112.996 203.388c-39.061 0-70.726-31.7-70.726-70.805v18.581c0 39.105 31.665 70.805 70.726 70.805s70.726-31.7 70.726-70.805v-18.581c0 39.105-31.665 70.805-70.726 70.805z"/></g></g></g></svg>