<?xml version="1.0" encoding="UTF-8"?>
<svg xmlns="http://www.w3.org/2000/svg" onmouseup="{ if(window.parent.document.onmouseup) window.parent.document.onmouseup(arguments[0]);}" xml:space="preserve" style="enable-background:new 0 0 502.936 502.936;" viewBox="0 0 502.936 502.936" y="0px" x="0px" id="Capa_1" version="1.1" xmlns:xlink="http://www.w3.org/1999/xlink"><g><g><g><path data-cppathid="10000" d="M492.487,326.7v55.38c0,18.808-50.155,34.482-111.282,34.482s-111.282-15.151-111.282-33.959     v-6.269l-1.045-43.886h0.522c8.882,16.196,54.335,28.735,109.714,28.735s112.849-15.673,112.849-34.482H492.487z" style="fill:#F4B844;"/><path data-cppathid="10001" d="M492.487,272.366V326.7h-0.522c0,18.808-51.2,34.482-112.849,34.482     s-100.833-12.539-109.714-28.735h-0.522v-11.494l-1.045-47.02c4.18,17.763,52.245,31.869,111.282,31.869     s111.282-14.629,112.849-33.437H492.487z" style="fill:#F4B844;"/></g><path data-cppathid="10002" d="M492.487,271.321c0,0.522,0,0.522-0.522,1.045c-1.567,18.808-52.245,33.437-112.849,33.437    s-107.102-14.106-111.282-31.869v-2.612c-0.076-1.072,0.103-2.146,0.522-3.135c5.747-17.241,52.245-30.824,109.192-30.824h1.567    C440.764,237.362,492.487,252.513,492.487,271.321z" style="fill:#FEDB41;"/><g><path data-cppathid="10003" d="M377.548,235.794v1.567c-56.947,0-103.445,13.584-109.192,30.824l-4.702-2.612     c-10.817,0.038-21.629-0.485-32.392-1.567h-2.612c-5.234-23.681-17.858-45.087-36.049-61.127h0.522     c23.151,5.143,46.817,7.597,70.531,7.314c61.649,0,112.849-15.151,112.849-33.959h1.045V235.794z" style="fill:#F4B844;"/><path data-cppathid="10004" d="M377.548,120.856v55.38h-1.045c0,18.808-51.2,33.959-112.849,33.959     c-23.713,0.283-47.38-2.171-70.531-7.314h-0.522c-11.594-9.546-24.889-16.814-39.184-21.42v-1.045l-1.567-57.992     c4.18,17.763,52.245,32.392,111.282,32.392s112.849-15.673,112.849-34.482L377.548,120.856z" style="fill:#F4B844;"/></g><path data-cppathid="10005" d="M376.503,120.856L376.503,120.856c0,18.808-51.2,34.482-112.849,34.482    s-107.102-14.629-111.282-32.392v-2.09c0-18.808,49.633-34.482,111.282-34.482S376.503,102.047,376.503,120.856z" style="fill:#FEDB41;"/><g><path data-cppathid="10006" d="M268.878,332.447l1.045,43.886h-5.224c-23.025,0.328-46.005-2.128-68.441-7.314l-1.567-1.567     c14.663-12.955,25.352-29.803,30.825-48.588h3.135c11.604,1.525,23.301,2.223,35.004,2.09h5.224L268.878,332.447z" style="fill:#F4B844;"/><path data-cppathid="10007" d="M267.833,273.933l1.045,47.02h-5.224c-11.703,0.133-23.4-0.565-35.004-2.09h-3.135     c3.637-10.405,5.406-21.371,5.225-32.392c-0.177-7.354-0.876-14.687-2.09-21.943h2.612c10.763,1.082,21.575,1.605,32.392,1.567     l4.702,2.612c-0.42,0.989-0.599,2.063-0.522,3.135V273.933z" style="fill:#F4B844;"/></g><path data-cppathid="10008" d="M228.65,264.529c1.214,7.256,1.912,14.588,2.09,21.943c0.181,11.021-1.588,21.987-5.225,32.392    c-5.473,18.785-16.161,35.633-30.824,48.588c-20.048,18.533-46.363,28.798-73.665,28.735    c-60.449-4.179-106.065-56.57-101.887-117.02c3.777-54.63,47.257-98.11,101.887-101.887c10.974-0.093,21.897,1.492,32.392,4.702    c14.295,4.606,27.59,11.874,39.184,21.42C210.792,219.442,223.416,240.848,228.65,264.529z" style="fill:#FEDB41;"/></g><g><path data-cppathid="10009" d="M502.936,270.276c-2.09-28.735-57.469-42.318-114.939-43.363V120.856    c0.038-1.863-0.51-3.69-1.567-5.224c-6.269-27.167-66.351-39.706-122.776-39.706s-121.731,14.106-121.731,44.931v3.135    l1.045,44.931c-7.212-1.522-14.573-2.223-21.943-2.09C54.663,166.355,0.479,219.767,0.003,286.129s52.936,120.546,119.298,121.022    c28.035,0.201,55.258-9.407,76.957-27.161c20.981,4.29,42.325,6.565,63.739,6.792c5.747,27.69,65.306,40.229,121.208,40.229    s121.731-14.106,121.731-44.931V270.276z M279.327,328.79v-30.302c23.51,12.016,62.694,17.763,100.31,17.763    s76.278-5.747,102.4-18.808v26.122c0,1.045-0.522,2.09-0.522,3.135s-35.004,24.033-102.4,24.033    C324.258,350.733,287.164,338.194,279.327,328.79z M164.389,174.668l-1.045-26.645c23.51,12.016,62.694,17.241,100.31,17.241    s77.322-5.747,103.445-18.808v25.6c0,1.045-1.045,2.612-1.045,3.657c0,1.045-35.004,24.033-102.4,24.033    c-22.845,0.18-45.635-2.274-67.918-7.314h-1.045C185.477,185.112,175.276,179.132,164.389,174.668z M263.654,220.643    c39.184,0,77.322-5.747,103.445-18.808v25.078c-41.796,1.567-86.204,10.449-102.922,28.212h-0.522l-27.167-1.045    c-3.598-12.931-9.433-25.131-17.241-36.049C233.99,219.713,248.815,220.585,263.654,220.643z M240.666,275.5h17.241v34.482    l-19.853-1.045c1.671-7.55,2.546-15.255,2.612-22.988C241.189,282.815,240.666,279.158,240.666,275.5z M232.829,329.835    c8.359,1.045,16.718,1.045,25.6,1.567v34.482c-14.861-0.354-29.689-1.575-44.408-3.657    C222.093,352.582,228.454,341.626,232.829,329.835z M482.038,271.321L482.038,271.321c0,7.314-37.616,24.033-102.922,24.033    s-99.265-16.196-100.833-24.555c-1.567-8.359,38.139-24.555,99.265-24.555h1.567C445.989,246.243,482.038,265.051,482.038,271.321    z M263.654,96.823c65.306,0,101.878,17.241,102.4,24.033c0.522,6.792-35.527,24.033-102.4,24.033s-99.265-13.584-100.833-24.033    l0,0C162.821,115.631,189.989,96.823,263.654,96.823z M187.899,359.615c-40.396,36.635-102.843,33.585-139.477-6.811    s-33.585-102.843,6.811-139.477c18.027-16.348,41.457-25.464,65.792-25.597c10.065,0.107,20.074,1.512,29.78,4.18    c12.823,4.335,24.703,11.073,35.004,19.853c16.719,14.072,28.144,33.421,32.392,54.857c1.445,6.517,2.146,13.178,2.09,19.853    C220.166,314.303,208.424,340.818,187.899,359.615z M381.205,406.113c-65.306,0-100.833-16.718-100.833-24.033v-28.212    c24.033,12.016,63.216,17.763,99.265,17.763s76.278-6.269,102.4-18.808v29.257C482.038,387.827,450.691,406.113,381.205,406.113z" style="fill:#083863;"/><path data-cppathid="10010" d="M159.164,251.468h-12.539c-1.045-5.225-2.612-10.449-4.702-10.449h17.241    c5.771,0,10.449-4.678,10.449-10.449c0-5.771-4.678-10.449-10.449-10.449H83.409c-5.771,0-10.449,4.678-10.449,10.449    c0,5.771,4.678,10.449,10.449,10.449h21.42c7.729,0.245,14.892,4.116,19.331,10.449H83.409c-5.771,0-10.449,4.678-10.449,10.449    s4.678,10.449,10.449,10.449h40.751c-1.045,0-2.09,3.135-3.657,4.702c-4.199,4.01-9.877,6.092-15.673,5.747h-21.42    c-5.766-0.228-10.625,4.262-10.853,10.029c-0.124,3.145,1.176,6.178,3.539,8.257l54.335,51.2c1.929,1.969,4.558,3.095,7.314,3.135    c2.818-0.231,5.439-1.541,7.314-3.657c3.907-3.845,3.958-10.13,0.112-14.038c-0.203-0.206-0.415-0.403-0.635-0.591l-35.004-33.437    c9.821-0.918,19.035-5.157,26.122-12.016c4.818-5.712,8.537-12.266,10.971-19.331h12.539c5.771,0,10.449-4.678,10.449-10.449    S164.935,251.468,159.164,251.468z" style="fill:#083863;"/></g></g><g/><g/><g/><g/><g/><g/><g/><g/><g/><g/><g/><g/><g/><g/><g/></svg>