<?xml version="1.0" encoding="UTF-8"?>
<svg xmlns="http://www.w3.org/2000/svg" onmouseup="{ if(window.parent.document.onmouseup) window.parent.document.onmouseup(arguments[0]);}" data-name="Layer 1" width="512" viewBox="0 0 128 128" height="512" id="Layer_1"><path data-cppathid="10000" fill="#ececf1" d="m92.497 115h-77.667v-102h63.584l14.083 14.083z"/><path data-cppathid="10001" fill="#d3d3d8" d="m92.497 27.083h-14.083v-14.083z"/><circle data-cppathid="10002" r="20.367" fill="#9edb2c" cy="84.715" cx="92.803"/><g fill="#3f5959"><path data-cppathid="10003" d="m29.084 73.924h36.58a1.75 1.75 0 1 0 0-3.5h-36.58a1.75 1.75 0 0 0 0 3.5z"/><path data-cppathid="10004" d="m29.084 84.417h21.916a1.75 1.75 0 0 0 0-3.5h-21.916a1.75 1.75 0 0 0 0 3.5z"/><path data-cppathid="10005" d="m65.664 91.41h-36.58a1.75 1.75 0 0 0 0 3.5h36.58a1.75 1.75 0 1 0 0-3.5z"/><path data-cppathid="10006" d="m51 101.9h-21.916a1.75 1.75 0 1 0 0 3.5h21.916a1.75 1.75 0 1 0 0-3.5z"/></g><path data-cppathid="10007" fill="#fed943" d="m29.084 35.548h49.33v24.952h-49.33z"/><path data-cppathid="10008" fill="#3f5959" d="m90.528 94.91a1.746 1.746 0 0 1 -1.271-.548l-6.679-7.062a1.75 1.75 0 1 1 2.543-2.4l5.168 5.464 9.058-13.625a1.75 1.75 0 0 1 2.914 1.938l-10.276 15.452a1.746 1.746 0 0 1 -1.307.774c-.05.005-.1.007-.15.007z"/></svg>