<?xml version="1.0" encoding="UTF-8"?>
<svg xmlns="http://www.w3.org/2000/svg" onmouseup="{ if(window.parent.document.onmouseup) window.parent.document.onmouseup(arguments[0]);}" width="512" viewBox="0 0 512.25 512.25" height="512" enable-background="new 0 0 512.25 512.25" id="Capa_1"><g><path data-cppathid="10000" fill="#ffe666" d="m453.562 489.837-184.497-319.558c-2.669-4.623-7.602-7.471-12.94-7.471s-10.271 2.848-12.94 7.471l-184.497 319.558c-2.669 4.623-2.669 10.319 0 14.942s7.602 7.471 12.94 7.471h368.994c5.338 0 10.271-2.848 12.94-7.471s2.669-10.319 0-14.942z"/><path data-cppathid="10001" fill="#fabe2c" d="m269.065 170.279c-2.669-4.623-7.602-7.471-12.94-7.471-.255 0-.509.012-.763.025v125.7l10 45.404-10 45.444v37.807l10 16.461-10 16.461v62.14h185.26c5.338 0 10.271-2.848 12.94-7.471s2.669-10.319 0-14.942z"/><path data-cppathid="10002" fill="#f66" d="m256.125 288.495c-8.252 0-14.942 6.69-14.942 14.942v61.002c0 8.252 6.69 14.942 14.942 14.942s14.942-6.69 14.942-14.942v-61.002c0-8.252-6.69-14.942-14.942-14.942z"/><circle data-cppathid="10003" r="16.461" fill="#f66" cy="433.649" cx="256.125"/><g><path data-cppathid="10004" fill="#e62e6b" d="m342.203 169.922c22.992 22.992 35.654 53.562 35.654 86.078 0 8.284 6.716 15 15 15h104.267c8.284 0 15-6.716 15-15 0-68.38-26.629-132.668-74.981-181.02l-85.279 45.28z"/><path data-cppathid="10005" fill="#fabe2c" d="m437.144 74.98c-48.352-48.351-112.639-74.98-181.019-74.98s-132.668 26.629-181.019 74.98l19.421 49.422 75.519 45.52c22.993-22.992 53.563-35.655 86.079-35.655s63.085 12.663 86.079 35.655z"/><path data-cppathid="10006" fill="#00dd80" d="m75.106 74.98c-48.352 48.352-74.981 112.64-74.981 181.02 0 8.284 6.716 15 15 15h104.267c8.284 0 15-6.716 15-15 0-32.517 12.662-63.086 35.654-86.078z"/><path data-cppathid="10007" fill="#ff9100" d="m257.65 134.285c31.945.39 61.92 13.005 84.553 35.637l94.94-94.941c-47.99-47.992-111.683-74.569-179.493-74.962z"/></g><g fill="#e62e6b"><path data-cppathid="10008" d="m256.125 417.188c-.257 0-.508.027-.763.039v32.845c.255.012.505.039.763.039 9.077 0 16.461-7.385 16.461-16.461s-7.385-16.462-16.461-16.462z"/><path data-cppathid="10009" d="m256.125 288.495c-.257 0-.508.026-.763.039v90.808c.254.013.505.039.763.039 8.252 0 14.942-6.69 14.942-14.942v-61.002c0-8.252-6.69-14.942-14.942-14.942z"/></g></g></svg>