<?xml version="1.0" encoding="UTF-8"?>
<svg xmlns="http://www.w3.org/2000/svg" onmouseup="{ if(window.parent.document.onmouseup) window.parent.document.onmouseup(arguments[0]);}" width="512" viewBox="0 0 512 512" height="512"><g id="FILLED_OUTLINE"><rect data-cppathid="10000" y="24" x="88" width="352" rx="16" height="464" fill="#7950ea"/><path data-cppathid="10001" fill="#8b74f7" d="m120 56h288v400h-288z"/><path data-cppathid="10002" fill="#ce913a" d="m488 185.46289v-18.92578l-18.08179-4.33545c-2.53125-6.10864-3.49682-8.439-6.02832-14.54761l9.752-15.91382c-7.23267-7.23291-6.14917-6.14917-13.3816-13.38183l-15.9143 9.752c-6.1084-2.53125-8.439-3.49707-14.54737-6.02832l-4.33573-18.08208h-18.92578l-4.33545 18.08179c-6.10864 2.53125-8.439 3.49682-14.54761 6.02832l-15.91382-9.752c-7.23291 7.23267-6.14917 6.14917-13.38183 13.3816l9.75195 15.9143c-2.53125 6.1084-3.49707 8.439-6.02832 14.54737l-18.08203 4.33573v18.92578l18.08179 4.33545c2.53125 6.10864 3.49682 8.439 6.02832 14.54761l-9.752 15.91382c7.23267 7.23266 6.14917 6.14917 13.3816 13.38183l15.9143-9.752c6.1084 2.53125 8.439 3.49707 14.54737 6.02832l4.33573 18.08208h18.92578l4.33545-18.08179c6.10864-2.53125 8.439-3.49682 14.54761-6.02832l15.91382 9.752c7.23266-7.23267 6.14917-6.14917 13.38183-13.3816l-9.75195-15.9143c2.53125-6.1084 3.49707-8.439 6.02832-14.54737zm-72 14.53735a24 24 0 1 1 24-24 23.99993 23.99993 0 0 1 -24 24z"/><path data-cppathid="10003" fill="#eab849" d="m40 480-16-16v-264a16 16 0 0 1 16-16 16 16 0 0 1 16 16v264z"/><path data-cppathid="10004" fill="#d3a039" d="m56 224h-32v-24a16 16 0 0 1 16-16 16 16 0 0 1 16 16z"/><g fill="#eab849"><path data-cppathid="10005" d="m200 88h128v16h-128z"/><path data-cppathid="10006" d="m168 136h144v64h-144z"/><path data-cppathid="10007" d="m168 240h144v64h-144z"/><path data-cppathid="10008" d="m168 344h144v64h-144z"/></g><path data-cppathid="10009" fill="#f4f4f4" d="m232 200h16v40h-16z"/><path data-cppathid="10010" fill="#f4f4f4" d="m232 304h16v40h-16z"/><rect data-cppathid="10011" y="440" x="344" width="144" rx="16" height="48" fill="#e9ae48"/><rect data-cppathid="10012" y="248" x="344" width="144" rx="16" height="48" fill="#e9ae48"/><rect data-cppathid="10013" y="296" x="344" width="144" rx="16" height="48" fill="#f9cb58"/><rect data-cppathid="10014" y="344" x="344" width="144" rx="16" height="48" fill="#e9ae48"/><rect data-cppathid="10015" y="392" x="344" width="144" rx="16" height="48" fill="#f9cb58"/><path data-cppathid="10016" d="m496 191.77148v-31.543l-20.252-4.85645-2.90723-7.01367 10.917-17.81543-22.30077-22.30074-13.457 8.24609v-76.48828a24.0275 24.0275 0 0 0 -24-24h-320a24.0275 24.0275 0 0 0 -24 24v432a24.0275 24.0275 0 0 0 24 24h368a24.0275 24.0275 0 0 0 24-24v-16a23.90134 23.90134 0 0 0 -6.13086-16 23.90134 23.90134 0 0 0 6.13086-16v-16a23.90134 23.90134 0 0 0 -6.13086-16 23.90134 23.90134 0 0 0 6.13086-16v-16a23.90134 23.90134 0 0 0 -6.13086-16 23.90134 23.90134 0 0 0 6.13086-16v-16a23.90134 23.90134 0 0 0 -6.13086-16 23.90134 23.90134 0 0 0 6.13086-16v-16a24.0275 24.0275 0 0 0 -24-24h-6.78516l18.543-18.543-10.917-17.81543 2.90723-7.01367zm-392 288.22852a8.00917 8.00917 0 0 1 -8-8v-432a8.00917 8.00917 0 0 1 8-8h320a8.00917 8.00917 0 0 1 8 8v56.95288l-.22852-.95288h-15.77148v-48h-304v416h224v8a23.88238 23.88238 0 0 0 1.37622 8zm238.13086-184a23.90134 23.90134 0 0 0 -6.13086 16v16a23.90134 23.90134 0 0 0 6.13086 16 23.90134 23.90134 0 0 0 -6.13086 16v16a23.90134 23.90134 0 0 0 6.13086 16 23.90134 23.90134 0 0 0 -6.13086 16v16a23.90134 23.90134 0 0 0 6.13086 16 24.01639 24.01639 0 0 0 -4.75464 8h-209.37622v-384h272v32.95288l-4.62793 19.29912-7.01367 2.90723-17.81543-10.917-22.30078 22.30077 10.917 17.81543-2.90723 7.01367-20.25196 4.85642v31.543l20.252 4.85645 2.90723 7.01367-10.917 17.81543 18.54293 18.54293h-6.78516a24.0275 24.0275 0 0 0 -24 24v16a23.90134 23.90134 0 0 0 6.13086 16zm137.86914 176a8.00917 8.00917 0 0 1 -8 8h-112a8.00917 8.00917 0 0 1 -8-8v-16a8.00917 8.00917 0 0 1 8-8h112a8.00917 8.00917 0 0 1 8 8zm0-48a8.00917 8.00917 0 0 1 -8 8h-112a8.00917 8.00917 0 0 1 -8-8v-16a8.00917 8.00917 0 0 1 8-8h112a8.00917 8.00917 0 0 1 8 8zm0-48a8.00917 8.00917 0 0 1 -8 8h-112a8.00917 8.00917 0 0 1 -8-8v-16a8.00917 8.00917 0 0 1 8-8h112a8.00917 8.00917 0 0 1 8 8zm0-48a8.00917 8.00917 0 0 1 -8 8h-112a8.00917 8.00917 0 0 1 -8-8v-16a8.00917 8.00917 0 0 1 8-8h112a8.00917 8.00917 0 0 1 8 8zm-8-72a8.00917 8.00917 0 0 1 8 8v16a8.00917 8.00917 0 0 1 -8 8h-112a8.00917 8.00917 0 0 1 -8-8v-16a8.00917 8.00917 0 0 1 8-8zm-95.32471-16 11.68311-7.15918 7.01367 2.90723 1.01953 4.25195zm58.93311 0 1.01953-4.25195 7.01367-2.90723 11.68311 7.15918zm28.47949-57.03027-9.14941 22.08007 8.58691 14.0127-4.46289 4.46289-14.0127-8.58691-22.08007 9.14941-3.81543 15.91211h-6.3086l-3.81543-15.91211-22.08007-9.14941-14.0127 8.58691-4.46289-4.46289 8.58691-14.0127-9.14941-22.08007-15.91211-3.81543v-6.3086l15.91211-3.81543 9.14941-22.08007-8.58691-14.0127 4.46289-4.46289 14.0127 8.58691 22.08007-9.14941 3.81543-15.91211h6.3086l3.81543 15.91211 22.08007 9.14941 14.0127-8.58691 4.46289 4.46289-8.58691 14.0127 9.14941 22.08007 15.91211 3.81543v6.3086z"/><path data-cppathid="10017" d="m416 144a32 32 0 1 0 32 32 32.03667 32.03667 0 0 0 -32-32zm0 48a16 16 0 1 1 16-16 16.01833 16.01833 0 0 1 -16 16z"/><path data-cppathid="10018" d="m40 176a24.0275 24.0275 0 0 0 -24 24v267.31348l24 24 24-24v-267.31348a24.0275 24.0275 0 0 0 -24-24zm8 284.68652-8 8-8-8v-228.68652h16zm0-244.68652h-16v-16a8 8 0 0 1 16 0z"/><path data-cppathid="10019" d="m200 88h128v16h-128z"/><path data-cppathid="10020" d="m160 208h72v24h-72v80h72v24h-72v80h160v-80h-72v-24h72v-80h-72v-24h72v-80h-160zm144 144v48h-128v-48zm0-104v48h-128v-48zm-128-104h128v48h-128z"/></g></svg>