<?xml version="1.0" encoding="UTF-8"?>
<svg xmlns="http://www.w3.org/2000/svg" onmouseup="{ if(window.parent.document.onmouseup) window.parent.document.onmouseup(arguments[0]);}" width="512" viewBox="0 0 60 60" height="512"><g fill-rule="evenodd" fill="none" id="Page-1"><g fill-rule="nonzero" id="055---Tax-Returns"><g transform="translate(1 1)" id="Icons"><path data-cppathid="10000" fill="#f5f5f5" d="m58 8v38c0 2.209139-1.790861 4-4 4h-5v-34c0-1.6568542-1.3431458-3-3-3h-34c-1.6568542 0-3 1.3431458-3 3v34h-5c-2.209139 0-4-1.790861-4-4v-38z" id="Shape"/><path data-cppathid="10001" fill="#cfd8dc" d="m6 16v34h3v-34c0-1.6568542 1.3431458-3 3-3h-3c-1.65685425 0-3 1.3431458-3 3z" id="Shape"/><path data-cppathid="10002" fill="#cfd8dc" d="m55 8v38c0 2.209139-1.790861 4-4 4h3c2.209139 0 4-1.790861 4-4v-38z" id="Shape"/><path data-cppathid="10003" fill="#02a9f4" d="m58 4v4h-58v-4c0-2.209139 1.790861-4 4-4h50c2.209139 0 4 1.790861 4 4z" id="Shape"/><path data-cppathid="10004" fill="#0377bc" d="m54 0h-3c2.209139 0 4 1.790861 4 4v4h3v-4c0-2.209139-1.790861-4-4-4z" id="Shape"/><rect data-cppathid="10005" y="13" x="9" width="40" rx="3" height="45" fill="#ffdc00" id="Rectangle-path"/><path data-cppathid="10006" fill="#fec108" d="m46 13h-3c1.6568542 0 3 1.3431458 3 3v39c0 1.6568542-1.3431458 3-3 3h3c1.6568542 0 3-1.3431458 3-3v-39c0-1.6568542-1.3431458-3-3-3z" id="Shape"/><g fill="#60a917"><circle data-cppathid="10007" r="2" cy="33" cx="15" id="Oval"/><circle data-cppathid="10008" r="2" cy="42" cx="15" id="Oval"/><circle data-cppathid="10009" r="2" cy="51" cx="15" id="Oval"/></g></g><g fill="#000" id="Icons_copy"><path data-cppathid="10010" d="m55 0h-50c-2.76005315.00330612-4.99669388 2.23994685-5 5v42c.00330612 2.7600532 2.23994685 4.9966939 5 5h4v4c0 2.209139 1.790861 4 4 4h34c2.209139 0 4-1.790861 4-4v-4h4c2.7600532-.0033061 4.9966939-2.2399468 5-5v-42c-.0033061-2.76005315-2.2399468-4.99669388-5-5zm-50 2h50c1.6568542 0 3 1.34314575 3 3v3h-56v-3c0-1.65685425 1.34314575-3 3-3zm44 54c0 1.1045695-.8954305 2-2 2h-34c-1.1045695 0-2-.8954305-2-2v-39c0-1.1045695.8954305-2 2-2h34c1.1045695 0 2 .8954305 2 2zm6-6h-4v-33c0-2.209139-1.790861-4-4-4h-34c-2.209139 0-4 1.790861-4 4v33h-4c-1.65685425 0-3-1.3431458-3-3v-37h56v37c0 1.6568542-1.3431458 3-3 3z" id="Shape"/><circle data-cppathid="10011" r="1" cy="5" cx="5" id="Oval"/><circle data-cppathid="10012" r="1" cy="5" cx="9" id="Oval"/><circle data-cppathid="10013" r="1" cy="5" cx="13" id="Oval"/><path data-cppathid="10014" d="m25 6h10c.5522847 0 1-.44771525 1-1s-.4477153-1-1-1h-10c-.5522847 0-1 .44771525-1 1s.4477153 1 1 1z" id="Shape"/><path data-cppathid="10015" d="m25.876 27.992c.5465639.0637837 1.0432824-.3225529 1.116-.868l.266-2.124h3.484l.266 2.124c.0625244.5003376.4877709.8758577.992.876.0417877-.0002074.0835268-.0028787.125-.008.5477838-.0686288.936322-.5681779.868-1.116l-.753-6.016c-.2034583-1.6346573-1.5927296-2.8617321-3.24-2.8617321s-3.0365417 1.2270748-3.24 2.8617321l-.752 6.016c-.068322.5478221.3202162 1.0473712.868 1.116zm3.124-7.992c.6377256.000938 1.1755305.475371 1.256 1.108l.236 1.892h-2.984l.236-1.892c.0804695-.632629.6182744-1.107062 1.256-1.108z" id="Shape"/><path data-cppathid="10016" d="m35.4 27.8c.2121732.1591299.4788704.2274568.7414214.1899495.2625509-.0375073.4994487-.1777763.6585786-.3899495l2.2-2.934 2.2 2.934c.2143594.2858125.5649147.4355547.9196152.3928203.3547006-.0427344.6596589-.2714531.8-.6.1403412-.3285469.0947442-.7070078-.1196152-.9928203l-2.55-3.4 2.55-3.4c.3313708-.4418278.2418278-1.0686292-.2-1.4s-1.0686292-.2418278-1.4.2l-2.2 2.934-2.2-2.934c-.2143594-.2858125-.5649147-.4355547-.9196152-.3928203-.3547006.0427344-.6596589.2714531-.8.6-.1403412.3285469-.0947442.7070078.1196152.9928203l2.55 3.4-2.55 3.4c-.1591299.2121732-.2274568.4788704-.1899495.7414214.0375073.2625509.1777763.4994487.3899495.6585786z" id="Shape"/><path data-cppathid="10017" d="m23 20c.5522847 0 1-.4477153 1-1s-.4477153-1-1-1h-6c-.5522847 0-1 .4477153-1 1s.4477153 1 1 1h2v7c0 .5522847.4477153 1 1 1s1-.4477153 1-1v-7z" id="Shape"/><path data-cppathid="10018" d="m16 31c-1.6568542 0-3 1.3431458-3 3s1.3431458 3 3 3 3-1.3431458 3-3-1.3431458-3-3-3zm0 4c-.5522847 0-1-.4477153-1-1s.4477153-1 1-1 1 .4477153 1 1-.4477153 1-1 1z" id="Shape"/><path data-cppathid="10019" d="m45 33h-22c-.5522847 0-1 .4477153-1 1s.4477153 1 1 1h22c.5522847 0 1-.4477153 1-1s-.4477153-1-1-1z" id="Shape"/><path data-cppathid="10020" d="m16 40c-1.6568542 0-3 1.3431458-3 3s1.3431458 3 3 3 3-1.3431458 3-3-1.3431458-3-3-3zm0 4c-.5522847 0-1-.4477153-1-1s.4477153-1 1-1 1 .4477153 1 1-.4477153 1-1 1z" id="Shape"/><path data-cppathid="10021" d="m45 42h-22c-.5522847 0-1 .4477153-1 1s.4477153 1 1 1h22c.5522847 0 1-.4477153 1-1s-.4477153-1-1-1z" id="Shape"/><path data-cppathid="10022" d="m16 49c-1.6568542 0-3 1.3431458-3 3s1.3431458 3 3 3 3-1.3431458 3-3-1.3431458-3-3-3zm0 4c-.5522847 0-1-.4477153-1-1s.4477153-1 1-1 1 .4477153 1 1-.4477153 1-1 1z" id="Shape"/><path data-cppathid="10023" d="m45 51h-22c-.5522847 0-1 .4477153-1 1s.4477153 1 1 1h22c.5522847 0 1-.4477153 1-1s-.4477153-1-1-1z" id="Shape"/></g></g></g></svg>