<?xml version="1.0" encoding="UTF-8"?>
<svg xmlns="http://www.w3.org/2000/svg" onmouseup="{ if(window.parent.document.onmouseup) window.parent.document.onmouseup(arguments[0]);}" width="512" viewBox="0 0 64 64" height="512" enable-background="new 0 0 64 64" id="Layer_5"><g><g><g><path data-cppathid="10000" fill="#fcd770" d="m45 54v8h-24v-8c0-1.1.9-2 2-2h20c1.1 0 2 .9 2 2z"/></g><g><path data-cppathid="10001" fill="#e6e9ed" d="m2 2h60v16h-60z"/></g><g><path data-cppathid="10002" fill="#a0d468" d="m8 32h9v4h-9z"/></g><g><path data-cppathid="10003" fill="#a0d468" d="m56 32v4h-6-3-24v-4z"/></g><g><path data-cppathid="10004" fill="#b4dd7f" d="m56 32h-33v-3c0-.35-.04-.68-.13-1h9.13 18 6v2z"/></g><g><path data-cppathid="10005" fill="#b4dd7f" d="m17 28v4h-9v-4h6z"/></g><g><path data-cppathid="10006" fill="#b4dd7f" d="m14 8h18c-5.52 0-10 4.48-10 10s4.48 10 10 10h-9.13c-.18-.7-.55-1.33-1.04-1.83-.73-.72-1.73-1.17-2.83-1.17s-2 .9-2 2v1h-3c0-3.31-2.69-6-6-6v-4-4c3.31 0 6-2.69 6-6z"/></g><g><path data-cppathid="10007" fill="#b4dd7f" d="m56 18v4c-3.31 0-6 2.69-6 6h-18c5.52 0 10-4.48 10-10s-4.48-10-10-10h18c0 3.31 2.69 6 6 6z"/></g><g><path data-cppathid="10008" fill="#ff826e" d="m8.83 55.17c.72.73 1.17 1.73 1.17 2.83 0 2.21-1.79 4-4 4s-4-1.79-4-4 1.79-4 4-4c1.1 0 2.1.45 2.83 1.17z"/></g><g><path data-cppathid="10009" fill="#ff826e" d="m52.69 50.08c1.33.31 2.31 1.5 2.31 2.92 0 1.66-1.34 3-3 3s-3-1.34-3-3c0-.65.21-1.24.55-1.73.54-.77 1.44-1.27 2.45-1.27.24 0 .47.03.69.08z"/></g><g><path data-cppathid="10010" fill="#ff826e" d="m56 30c3.31 0 6 2.69 6 6s-2.69 6-6 6c-.47 0-.93-.05-1.37-.16-2.65-.62-4.63-3-4.63-5.84h6v-4z"/></g><g><path data-cppathid="10011" fill="#f0d0b4" d="m23 36h24v5.64c0 1.55-.36 3.08-1.06 4.47l-.96 1.92-1.98 3.97h-20l-4-5.33c-.24-.32-.46-.66-.66-1.01-.88-1.51-1.34-3.23-1.34-4.99v-4.67-4-4-1c0-1.1.9-2 2-2s2.1.45 2.83 1.17c.49.5.86 1.13 1.04 1.83.09.32.13.65.13 1v3z"/></g><g><path data-cppathid="10012" fill="#a0d468" d="m14 28h-6v-6c3.31 0 6 2.69 6 6z"/></g><g><path data-cppathid="10013" fill="#a0d468" d="m8 8h6c0 3.31-2.69 6-6 6z"/></g><g><path data-cppathid="10014" fill="#a0d468" d="m56 8v6c-3.31 0-6-2.69-6-6z"/></g><g><path data-cppathid="10015" fill="#a0d468" d="m56 22v6h-6c0-3.31 2.69-6 6-6z"/></g><g><circle data-cppathid="10016" r="10" fill="#fcd770" cy="18" cx="32"/></g></g><g><path data-cppathid="10017" d="m31 22.855v2.145h2v-2.145c1.155-.366 2-1.435 2-2.709 0-1.088-.604-2.066-1.578-2.553l-1.949-.975c-.292-.145-.473-.438-.473-.764 0-.471.384-.854.854-.854h.291c.471 0 .855.383.855.854v.146h2v-.146c0-1.274-.845-2.343-2-2.709v-2.145h-2v2.145c-1.155.366-2 1.435-2 2.709 0 1.088.604 2.066 1.578 2.553l1.949.975c.292.145.473.438.473.764 0 .471-.384.854-.854.854h-.291c-.471 0-.855-.383-.855-.854v-.146h-2v.146c0 1.274.845 2.343 2 2.709z"/><path data-cppathid="10018" d="m63 19v-18h-62v18h6v18h9v3.667c0 1.662.394 3.311 1.116 4.803l-8.364 8.363c-.79-.524-1.735-.833-2.752-.833-2.757 0-5 2.243-5 5s2.243 5 5 5 5-2.243 5-5c0-1.017-.309-1.963-.833-2.753l8.012-8.011c.008.01.014.021.021.031l3.167 4.223c-.821.535-1.367 1.458-1.367 2.51v9h26v-9c0-1.134-.64-2.112-1.571-2.621l.929-1.858 2.913 2.064c-.168.441-.271.915-.271 1.415 0 2.206 1.794 4 4 4s4-1.794 4-4c0-1.532-.876-2.851-2.144-3.522l1.532-6.509c.202.018.405.031.612.031 3.859 0 7-3.14 7-7 0-3.519-2.614-6.432-6-6.92v-10.08zm-57 42c-1.654 0-3-1.346-3-3s1.346-3 3-3 3 1.346 3 3-1.346 3-3 3zm-3-44v-14h58v14h-4v-8h2v-2h-54v2h2v8zm52 10h-3.899c.399-1.956 1.943-3.5 3.899-3.899zm-31 8v-2h31v2zm-8-8h-1.08c-.441-3.059-2.861-5.479-5.92-5.92v-6.16c3.059-.441 5.479-2.861 5.92-5.92h10.775c-2.834 1.992-4.695 5.28-4.695 9s1.861 7.008 4.695 9h-2.119c-.774-1.763-2.531-3-4.576-3-1.654 0-3 1.346-3 3zm-3.101-18c-.399 1.956-1.943 3.5-3.899 3.899v-3.899zm-3.899 14.101c1.956.399 3.5 1.943 3.899 3.899h-3.899zm0 5.899h7v2h-7zm23-20c4.963 0 9 4.038 9 9s-4.037 9-9 9-9-4.038-9-9 4.037-9 9-9zm23 22h-31v-2h31zm0-9.92c-3.059.441-5.479 2.861-5.92 5.92h-10.775c2.834-1.992 4.695-5.28 4.695-9s-1.861-7.008-4.695-9h10.775c.441 3.059 2.861 5.479 5.92 5.92zm0-8.181c-1.956-.399-3.5-1.943-3.899-3.899h3.899zm-46 22.101v-2h7v2zm9 5.667v-13.667c0-.551.448-1 1-1 1.654 0 3 1.346 3 3v7.535l1.664 1.109c.837.558 1.336 1.491 1.336 2.497v1.859h2v-1.859c0-1.163-.408-2.263-1.12-3.141h20.12v4.639c0 1.39-.328 2.782-.95 4.025l-2.668 5.336h-18.882l-3.7-4.934c-1.16-1.547-1.8-3.465-1.8-5.399zm26 20.333h-22v-7c0-.551.448-1 1-1h20c.552 0 1 .449 1 1zm8-6c-1.103 0-2-.897-2-2s.897-2 2-2 2 .897 2 2-.897 2-2 2zm-.089-5.991c-.946.021-1.802.378-2.477.948l-3.171-2.246.576-1.152c.76-1.52 1.161-3.221 1.161-4.919v-4.64h1.08c.363 2.517 2.064 4.602 4.361 5.509zm9.089-13.009c0 2.757-2.243 5-5 5-2.414 0-4.434-1.721-4.899-4h5.899v-5.899c2.279.465 4 2.485 4 4.899z"/></g></g></svg>