<?xml version="1.0" encoding="UTF-8"?>
<svg xmlns="http://www.w3.org/2000/svg" onmouseup="{ if(window.parent.document.onmouseup) window.parent.document.onmouseup(arguments[0]);}" viewBox="0 0 882.34637 778.99856" height="778.99856" width="882.34637" data-name="Layer 1" id="ea61258a-e793-48f7-8624-3c5ca462ffd9"><title/><path data-cppathid="10000" fill="#e6e6e6" transform="translate(-158.82681 -60.50072)" d="M501.18877,80.56067l3.46953-5.362a80.3872,80.3872,0,0,0-3.55952-8.33251l-2.24352,1.81205,1.77642-2.74534c-1.69294-3.3325-3.02505-5.43215-3.02505-5.43215s-6.95827,10.96511-9.283,22.57466l4.45222,6.88072-4.9288-3.981a32.52249,32.52249,0,0,0-.27041,4.0782c0,13.74959,4.49056,24.89583,10.03,24.89583s10.03-11.14624,10.03-24.89583a42.818,42.818,0,0,0-2.29454-12.84723Z"/><path data-cppathid="10001" fill="#e6e6e6" transform="translate(-158.82681 -60.50072)" d="M525.74665,92.48079l6.24485-1.33818a80.386,80.386,0,0,0,3.375-8.40894l-2.86772-.30508,3.19738-.68514c1.15933-3.55352,1.70207-5.98014,1.70207-5.98014s-12.67374,2.83326-22.52676,9.39864l-1.71721,8.01359-.67022-6.30016a32.52414,32.52414,0,0,0-3.07493,2.69252c-9.72242,9.72242-14.4287,20.77932-10.51174,24.69627s14.97385-.78932,24.69627-10.51174a42.81769,42.81769,0,0,0,7.46188-10.70686Z"/><path data-cppathid="10002" fill="#e6e6e6" transform="translate(-158.82681 -60.50072)" d="M528.02764,145.68472c-14.48118.92631-30.25994-.05387-47.04589,0V107.25287c14.79122,2.30262,30.56472,2.06615,47.04589,0Z"/><path data-cppathid="10003" fill="#e6e6e6" transform="translate(-158.82681 -60.50072)" d="M631.62843,175.65222l2.26263-3.49679a52.42392,52.42392,0,0,0-2.32132-5.434l-1.46308,1.18172,1.15847-1.79036c-1.104-2.17326-1.97276-3.54253-1.97276-3.54253a50.2414,50.2414,0,0,0-6.05381,14.72187l2.90347,4.4872-3.21427-2.59615a21.20987,21.20987,0,0,0-.17635,2.65956c0,8.96667,2.92849,16.2356,6.541,16.2356s6.541-7.26893,6.541-16.2356a27.92338,27.92338,0,0,0-1.49636-8.37821Z"/><path data-cppathid="10004" fill="#e6e6e6" transform="translate(-158.82681 -60.50072)" d="M647.64364,183.42582l4.07252-.87269a52.42092,52.42092,0,0,0,2.201-5.48381l-1.87016-.199,2.08514-.44681c.756-2.31739,1.11-3.89989,1.11-3.89989a50.241,50.241,0,0,0-14.69062,6.12924l-1.11987,5.226-.43707-4.10859a21.20826,21.20826,0,0,0-2.00529,1.7559c-6.3404,6.34039-9.40955,13.55105-6.85515,16.10546s9.76507-.51475,16.10546-6.85515a27.92314,27.92314,0,0,0,4.8662-6.98238Z"/><path data-cppathid="10005" fill="#e6e6e6" transform="translate(-158.82681 -60.50072)" d="M649.13117,218.12229c-9.44378.60408-19.73376-.03513-30.68057,0v-25.063a110.58424,110.58424,0,0,0,30.68057,0Z"/><path data-cppathid="10006" fill="#e6e6e6" transform="translate(-158.82681 -60.50072)" d="M643.29962,292.39872c-8.33889.53341-17.425-.031-27.091,0V270.268a97.6466,97.6466,0,0,0,27.091,0Z"/><rect data-cppathid="10007" fill="#e6e6e6" height="10.18288" width="364.54703" y="82.48131" x="167.50834"/><rect data-cppathid="10008" fill="#e6e6e6" height="10.18288" width="364.54703" y="154.77974" x="167.50834"/><rect data-cppathid="10009" fill="#e6e6e6" height="10.18288" width="364.54703" y="227.07818" x="167.50834"/><circle data-cppathid="10010" fill="#e6e6e6" r="20.36576" cy="197.54783" cx="470.9581"/><circle data-cppathid="10011" fill="#fff" r="16.2926" cy="197.54783" cx="470.9581"/><circle data-cppathid="10012" fill="#e6e6e6" r="4.07315" cy="197.54783" cx="470.9581"/><rect data-cppathid="10013" fill="#e6e6e6" transform="translate(735.11638 -438.34681) rotate(90)" height="16.2926" width="2.03658" y="249.90225" x="634.87636"/><rect data-cppathid="10014" fill="#e6e6e6" transform="translate(1100.74302 443.37693) rotate(180)" height="16.2926" width="2.03658" y="243.79252" x="628.76663"/><rect data-cppathid="10015" fill="#e6e6e6" height="53.33878" width="13.47506" y="105.10421" x="339.72544"/><rect data-cppathid="10016" fill="#ccc" height="6.17607" width="13.47506" y="113.52612" x="339.72544"/><rect data-cppathid="10017" fill="#ccc" height="6.17607" width="13.47506" y="140.47624" x="339.72544"/><rect data-cppathid="10018" fill="#e6e6e6" height="53.33878" width="13.47506" y="105.10421" x="318.95139"/><rect data-cppathid="10019" fill="#ccc" height="6.17607" width="13.47506" y="113.52612" x="318.95139"/><rect data-cppathid="10020" fill="#ccc" height="6.17607" width="13.47506" y="140.47624" x="318.95139"/><rect data-cppathid="10021" fill="#e6e6e6" transform="translate(-189.17144 194.36555) rotate(-26.3396)" height="53.33878" width="13.47506" y="165.60493" x="522.69507"/><rect data-cppathid="10022" fill="#ccc" transform="translate(-183.84194 189.97078) rotate(-26.3396)" height="6.17607" width="13.47506" y="175.60069" x="515.96897"/><rect data-cppathid="10023" fill="#ccc" transform="translate(-193.3166 197.7837) rotate(-26.3396)" height="6.17607" width="13.47506" y="199.75285" x="527.92649"/><rect data-cppathid="10024" fill="#e6e6e6" height="53.33878" width="13.47506" y="177.40264" x="219.56748"/><rect data-cppathid="10025" fill="#ccc" height="6.17607" width="13.47506" y="185.82455" x="219.56748"/><rect data-cppathid="10026" fill="#ccc" height="6.17607" width="13.47506" y="212.77467" x="219.56748"/><rect data-cppathid="10027" fill="#e6e6e6" height="53.33878" width="13.47506" y="177.40264" x="198.79343"/><rect data-cppathid="10028" fill="#ccc" height="6.17607" width="13.47506" y="185.82455" x="198.79343"/><rect data-cppathid="10029" fill="#ccc" height="6.17607" width="13.47506" y="212.77467" x="198.79343"/><rect data-cppathid="10030" fill="#e6e6e6" transform="translate(-233.72439 148.5586) rotate(-26.3396)" height="53.33878" width="13.47506" y="237.90336" x="402.53712"/><rect data-cppathid="10031" fill="#ccc" transform="translate(-228.39489 144.16384) rotate(-26.3396)" height="6.17607" width="13.47506" y="247.89913" x="395.81101"/><rect data-cppathid="10032" fill="#ccc" transform="translate(-237.86955 151.97676) rotate(-26.3396)" height="6.17607" width="13.47506" y="272.05128" x="407.76853"/><rect data-cppathid="10033" fill="#e6e6e6" height="53.33878" width="13.47506" y="177.40264" x="345.83517"/><rect data-cppathid="10034" fill="#ccc" height="6.17607" width="13.47506" y="185.82455" x="345.83517"/><rect data-cppathid="10035" fill="#ccc" height="6.17607" width="13.47506" y="212.77467" x="345.83517"/><rect data-cppathid="10036" fill="#e6e6e6" height="53.33878" width="13.47506" y="177.40264" x="325.06112"/><rect data-cppathid="10037" fill="#ccc" height="6.17607" width="13.47506" y="185.82455" x="325.06112"/><rect data-cppathid="10038" fill="#ccc" height="6.17607" width="13.47506" y="212.77467" x="325.06112"/><rect data-cppathid="10039" fill="#e6e6e6" transform="translate(-220.61527 204.58241) rotate(-26.3396)" height="53.33878" width="13.47506" y="237.90336" x="528.8048"/><rect data-cppathid="10040" fill="#ccc" transform="translate(-215.28577 200.18764) rotate(-26.3396)" height="6.17607" width="13.47506" y="247.89913" x="522.0787"/><rect data-cppathid="10041" fill="#ccc" transform="translate(-224.76043 208.00056) rotate(-26.3396)" height="6.17607" width="13.47506" y="272.05128" x="534.03622"/><rect data-cppathid="10042" fill="#e6e6e6" height="53.55594" width="53.55594" y="32.64567" x="449.98737"/><rect data-cppathid="10043" fill="#ccc" height="32.13357" width="32.13357" y="43.35686" x="460.69856"/><polygon data-cppathid="10044" fill="#e6e6e6" points="470 54.143 476.814 65.944 483.627 77.745 470 77.745 456.373 77.745 463.187 65.944 470 54.143"/><polygon data-cppathid="10045" fill="#e6e6e6" points="481.839 56.398 488.653 68.199 495.466 80 481.839 80 468.212 80 475.026 68.199 481.839 56.398"/><circle data-cppathid="10046" fill="#e6e6e6" r="3.94623" cy="48.99433" cx="486.63091"/><rect data-cppathid="10047" fill="#e6e6e6" height="53.55594" width="53.55594" y="32.64567" x="179.12282"/><rect data-cppathid="10048" fill="#ccc" height="32.13357" width="32.13357" y="43.35686" x="189.83401"/><polygon data-cppathid="10049" fill="#e6e6e6" points="199.136 54.143 205.949 65.944 212.763 77.745 199.136 77.745 185.509 77.745 192.322 65.944 199.136 54.143"/><polygon data-cppathid="10050" fill="#e6e6e6" points="210.975 56.398 217.788 68.199 224.601 80 210.975 80 197.348 80 204.161 68.199 210.975 56.398"/><circle data-cppathid="10051" fill="#e6e6e6" r="3.94623" cy="48.99433" cx="215.76636"/><path data-cppathid="10052" fill="#6c63ff" transform="translate(-158.82681 -60.50072)" d="M230.32422,458.34544l3.46953-5.362a80.3871,80.3871,0,0,0-3.55953-8.33251l-2.24351,1.812,1.77642-2.74534c-1.69294-3.3325-3.02505-5.43215-3.02505-5.43215s-6.95827,10.96511-9.283,22.57466l4.45222,6.88072-4.92881-3.981a32.52438,32.52438,0,0,0-.27041,4.0782c0,13.74959,4.49057,24.89583,10.03,24.89583s10.03-11.14624,10.03-24.89583a42.818,42.818,0,0,0-2.29454-12.84723Z"/><path data-cppathid="10053" fill="#6c63ff" transform="translate(-158.82681 -60.50072)" d="M254.8821,470.26556l6.24485-1.33818a80.386,80.386,0,0,0,3.375-8.40894l-2.86772-.30508,3.19737-.68514c1.15934-3.55352,1.70208-5.98014,1.70208-5.98014s-12.67374,2.83326-22.52676,9.39864l-1.71721,8.01359-.67022-6.30016a32.52414,32.52414,0,0,0-3.07493,2.69252c-9.72243,9.72242-14.4287,20.77932-10.51175,24.69627s14.97385-.78932,24.69628-10.51174a42.818,42.818,0,0,0,7.46188-10.70686Z"/><path data-cppathid="10054" fill="#3f3d56" transform="translate(-158.82681 -60.50072)" d="M257.16309,523.46949c-14.48118.92631-30.25994-.05387-47.04589,0V485.03764c14.79122,2.30262,30.56472,2.06615,47.04589,0Z"/><rect data-cppathid="10055" fill="#e6e6e6" height="253.55366" width="195.51126" y="475.03125" x="500.99759"/><rect data-cppathid="10056" fill="#e6e6e6" height="240.31592" width="10.18288" y="488.269" x="92.66419"/><rect data-cppathid="10057" fill="#e6e6e6" height="20.36576" width="696.50885" y="457.72036"/><rect data-cppathid="10058" fill="#e6e6e6" height="20.36576" width="20.36576" y="478.08612" x="87.57275"/><polygon data-cppathid="10059" fill="#3f3d56" points="614.155 489.796 613.009 494.379 584.497 494.379 582.779 489.796 510.162 489.796 510.162 536.638 687.344 536.638 687.344 489.796 614.155 489.796"/><polygon data-cppathid="10060" fill="#3f3d56" points="614.155 548.857 613.009 553.439 584.497 553.439 582.779 548.857 510.162 548.857 510.162 595.698 687.344 595.698 687.344 548.857 614.155 548.857"/><polygon data-cppathid="10061" fill="#3f3d56" points="614.155 607.918 613.009 612.5 584.497 612.5 582.779 607.918 510.162 607.918 510.162 654.759 687.344 654.759 687.344 607.918 614.155 607.918"/><polygon data-cppathid="10062" fill="#3f3d56" points="614.155 666.979 613.009 671.561 584.497 671.561 582.779 666.979 510.162 666.979 510.162 713.82 687.344 713.82 687.344 666.979 614.155 666.979"/><polygon data-cppathid="10063" fill="#e6e6e6" points="377.785 454.665 317.706 454.665 319.742 428.19 375.748 428.19 377.785 454.665"/><rect data-cppathid="10064" fill="#e6e6e6" height="6.10973" width="67.20699" y="451.61063" x="314.65093"/><path data-cppathid="10065" fill="#3f3d56" transform="translate(-158.82681 -60.50072)" d="M621.63862,318.12753H392.01472a6.10973,6.10973,0,0,0-6.10973,6.10973V464.25183H627.74834V324.23726A6.10973,6.10973,0,0,0,621.63862,318.12753Z"/><path data-cppathid="10066" fill="#e6e6e6" transform="translate(-158.82681 -60.50072)" d="M385.905,464.25183V487.1633a6.10973,6.10973,0,0,0,6.10973,6.10973h229.6239a6.10973,6.10973,0,0,0,6.10972-6.10973V464.25183Z"/><rect data-cppathid="10067" fill="#fff" height="122.19453" width="217.91359" y="270.35541" x="239.29763"/><circle data-cppathid="10068" fill="#3f3d56" r="6.10973" cy="418.00714" cx="348.25442"/><path data-cppathid="10069" fill="#3f3d56" transform="translate(-158.82681 -60.50072)" d="M1023.86229,787.5582c-22.25416,1.42352-46.50239-.08278-72.29843,0V728.49751c22.73061,3.53859,46.97076,3.17519,72.29843,0Z"/><polygon data-cppathid="10070" fill="#3f3d56" points="831.432 673.3 825.322 673.3 827.359 553.949 829.395 553.949 831.432 673.3"/><polygon data-cppathid="10071" fill="#3f3d56" points="858.926 674.107 852.816 674.107 854.853 554.755 856.889 554.755 858.926 674.107"/><polygon data-cppathid="10072" fill="#3f3d56" points="806.993 674.107 800.883 674.107 802.92 554.755 804.956 554.755 806.993 674.107"/><path data-cppathid="10073" fill="#e6e6e6" transform="translate(-158.82681 -60.50072)" d="M995.35023,538.07769l9.8628-15.24249a228.51376,228.51376,0,0,0-10.11861-23.68669l-6.3776,5.1511,5.0498-7.80416c-4.81251-9.47323-8.59926-15.44187-8.59926-15.44187s-19.78017,31.17033-26.3886,64.17264L971.435,564.78593l-14.011-11.31664a92.45186,92.45186,0,0,0-.76869,11.593c0,39.08574,12.76527,70.771,28.51206,70.771s28.512-31.68526,28.512-70.771c0-12.117-2.74124-24.794-6.52266-36.52063Z"/><path data-cppathid="10074" fill="#6c63ff" transform="translate(-158.82681 -60.50072)" d="M1022.844,540.11427l9.8628-15.2425a228.5147,228.5147,0,0,0-10.11861-23.68669l-6.3776,5.15111,5.0498-7.80416c-4.81251-9.47323-8.59926-15.44188-8.59926-15.44188s-19.78017,31.17034-26.3886,64.17264l12.65626,19.55972-14.011-11.31664a92.45186,92.45186,0,0,0-.76869,11.593c0,39.08574,12.76527,70.771,28.51206,70.771s28.51206-31.68526,28.51206-70.771c0-12.117-2.74125-24.794-6.52267-36.52064Z"/><path data-cppathid="10075" fill="#6c63ff" transform="translate(-158.82681 -60.50072)" d="M970.91133,540.11427l9.8628-15.2425a228.51678,228.51678,0,0,0-10.11862-23.68669l-6.3776,5.15111,5.0498-7.80416c-4.8125-9.47323-8.59926-15.44188-8.59926-15.44188s-19.78017,31.17034-26.3886,64.17264l12.65626,19.55972-14.011-11.31664a92.45186,92.45186,0,0,0-.76869,11.593c0,39.08574,12.76527,70.771,28.51206,70.771s28.51206-31.68526,28.51206-70.771c0-12.117-2.74125-24.794-6.52266-36.52064Z"/><rect data-cppathid="10076" fill="#3f3d56" height="3.37283" width="58.75616" y="304.84783" x="309.96395"/><rect data-cppathid="10077" fill="#6c63ff" height="3.37283" width="90.7323" y="317.15098" x="309.96395"/><rect data-cppathid="10078" fill="#6c63ff" height="3.37283" width="73.94482" y="328.74233" x="309.96395"/><rect data-cppathid="10079" fill="#3f3d56" height="3.37283" width="43.16779" y="340.28988" x="309.96395"/><rect data-cppathid="10080" fill="#3f3d56" height="3.37283" width="65.15139" y="351.83743" x="309.96395"/><rect data-cppathid="10081" fill="#3f3d56" height="7.19463" width="7.19463" y="303.64873" x="283.18393"/><rect data-cppathid="10082" fill="#6c63ff" height="7.19463" width="7.19463" y="315.24008" x="283.18393"/><rect data-cppathid="10083" fill="#6c63ff" height="7.19463" width="7.19463" y="326.83143" x="283.18393"/><rect data-cppathid="10084" fill="#3f3d56" height="7.19463" width="7.19463" y="338.42278" x="283.18393"/><rect data-cppathid="10085" fill="#3f3d56" height="7.19463" width="7.19463" y="350.01413" x="283.18393"/><path data-cppathid="10086" fill="#6c63ff" transform="translate(-158.82681 -60.50072)" d="M605.94216,358.96335H575.109a107.84044,107.84044,0,0,1,0-36.76267h30.8332A66.14839,66.14839,0,0,0,605.94216,358.96335Z"/><path data-cppathid="10087" fill="#2f2e41" transform="translate(-158.82681 -60.50072)" d="M381.59071,432.64519l-12.68484-3.092a32.65651,32.65651,0,0,1-32.05067-39.12409v0a42.68467,42.68467,0,0,1,42.631-42.73825h.00008a42.68468,42.68468,0,0,1,42.73825,42.631v.00006C429.41674,415.35014,406.89108,438.81238,381.59071,432.64519Z"/><circle data-cppathid="10088" fill="#ffb8b8" r="31.36369" cy="345.24334" cx="236.61974"/><path data-cppathid="10089" fill="#ffb8b8" transform="translate(-158.82681 -60.50072)" d="M374.992,422.10773s-9.54547,32.72733-15,35.4546,43.63644,6.8182,43.63644,6.8182-1.36364-31.36369,1.36364-34.091S374.992,422.10773,374.992,422.10773Z"/><path data-cppathid="10090" fill="#2f2e41" transform="translate(-158.82681 -60.50072)" d="M424.083,623.92626s61.36374-5.45456,69.54557,15S488.174,780.74471,488.174,780.74471H462.26485V681.19908s-110.4725-31.40179-110.4725-42.31089S424.083,623.92626,424.083,623.92626Z"/><path data-cppathid="10091" fill="#2f2e41" transform="translate(-158.82681 -60.50072)" d="M484.08307,775.29015l13.63639,5.45456s16.36366-1.36364,9.54547,10.90911A27.00366,27.00366,0,0,1,488.174,805.29021s-25.90914,9.54547-27.27278,0,6.8182-28.63642,6.8182-28.63642Z"/><path data-cppathid="10092" fill="#2f2e41" transform="translate(-158.82681 -60.50072)" d="M389.992,623.92626s61.36374-5.45456,69.54557,15S454.083,780.74471,454.083,780.74471H428.17388V681.19908s-78.4181-18.164-78.4181-29.07315c0-5.12492-5.34348-31.171,4.07315-36.65836C364.45693,609.27432,389.992,623.92626,389.992,623.92626Z"/><path data-cppathid="10093" fill="#2f2e41" transform="translate(-158.82681 -60.50072)" d="M449.9921,775.29015l13.63639,5.45456s16.36367-1.36364,9.54547,10.90911A27.00366,27.00366,0,0,1,454.083,805.29021s-25.90914,9.54547-27.27277,0,6.81819-28.63642,6.81819-28.63642Z"/><path data-cppathid="10094" fill="#575a89" transform="translate(-158.82681 -60.50072)" d="M361.35559,453.47142l40.98018,4.45436a30.18224,30.18224,0,0,1,26.26893,23.76669L444.53755,557.108s5.45455,75.00013-5.45456,79.091-25.90913-16.36366-46.36371-13.63638-47.04554,8.86365-47.04554,8.86365S341.451,497.179,340.901,486.19875C339.80142,464.24769,361.35559,453.47142,361.35559,453.47142Z"/><path data-cppathid="10095" fill="#ffb8b8" transform="translate(-158.82681 -60.50072)" d="M458.42733,627.82255l16.82365,9.9078s30.18279-4.33064,29.24058,6.278-33.8887,8.55886-33.8887,8.55886l-20.275-12.493Z"/><circle data-cppathid="10096" fill="#2f2e41" r="20.25966" cy="299.47504" cx="175.7429"/><path data-cppathid="10097" fill="#2f2e41" transform="translate(-158.82681 -60.50072)" d="M353.26293,349.08471a20.2502,20.2502,0,0,0-24.24652-19.836,20.25023,20.25023,0,1,1,12.63025,38.16451A20.243,20.243,0,0,0,353.26293,349.08471Z"/><path data-cppathid="10098" fill="#2f2e41" transform="translate(-158.82681 -60.50072)" d="M370.64347,360.57471l27.313-5.02907,21.00491,13.16494a31.86273,31.86273,0,0,1,14.6776,31.09515l-21.0372-5.33225-4.71074-11.81208-5.61047,9.196-29.33406,37.75029-16.46978-10.48815-14.68292-23.00931Z"/><path data-cppathid="10099" fill="#575a89" transform="translate(-158.82681 -60.50072)" d="M393.13569,465.07123l13.63639-6.8182s28.63641,4.09092,34.091,23.18186,30,151.3639,30,151.3639L447.68124,643.7079l-32.72733-80.45468Z"/><polygon data-cppathid="10100" opacity="0.2" points="245.917 458.23 259.565 511.205 283.767 570.701 282.928 572.761 254.063 512.199 245.917 458.23"/><polygon data-cppathid="10101" fill="#3f3d56" points="144.084 750.379 139.271 748.721 185.896 610.231 192.636 612.553 144.084 750.379"/><polygon data-cppathid="10102" fill="#3f3d56" points="322.291 750.379 327.105 748.721 280.479 610.231 273.74 612.553 322.291 750.379"/><polygon data-cppathid="10103" fill="#3f3d56" points="223.77 778.981 228.861 778.999 230.443 617.107 223.315 617.082 223.77 778.981"/><path data-cppathid="10104" fill="#6c63ff" transform="translate(-158.82681 -60.50072)" d="M291.12655,589.35709l13.96582,56.44513a44.82625,44.82625,0,0,0,32.64214,32.72145l.00008,0a238.26046,238.26046,0,0,0,118.54694-.7638l20.8512-5.49922c12.11558-3.19531,21.22652-13.60111,22.0886-26.10127a25.68469,25.68469,0,0,0-2.323-12.8718q-.12219-.25966-.24559-.51476a34.06444,34.06444,0,0,0-29.59817-19.13845l-22.08892-.71254L364.521,577.28177s-27.66705-14.0531-50.4117-15.62629C299.08852,560.61654,287.51024,574.74121,291.12655,589.35709Z"/><rect data-cppathid="10105" fill="#e6e6e6" height="107.93851" width="79.42645" y="351.30929" x="543.25654"/><rect data-cppathid="10106" fill="#fff" height="83.02962" width="61.09727" y="363.76373" x="552.42113"/><rect data-cppathid="10107" fill="#3f3d56" height="3.37283" width="29.60198" y="385.49176" x="576.46734"/><rect data-cppathid="10108" fill="#3f3d56" height="7.19463" width="7.19463" y="383.62466" x="559.8702"/><rect data-cppathid="10109" fill="#3f3d56" height="3.37283" width="29.60198" y="399.74779" x="576.46734"/><rect data-cppathid="10110" fill="#3f3d56" height="7.19463" width="7.19463" y="397.88069" x="559.8702"/><rect data-cppathid="10111" fill="#3f3d56" height="3.37283" width="29.60198" y="414.00382" x="576.46734"/><rect data-cppathid="10112" fill="#3f3d56" height="7.19463" width="7.19463" y="412.13672" x="559.8702"/><rect data-cppathid="10113" fill="#3f3d56" rx="3.05486" height="6.10973" width="6.10973" y="354.36415" x="579.9149"/></svg>