<?xml version="1.0" encoding="UTF-8"?>
<svg xmlns="http://www.w3.org/2000/svg" onmouseup="{ if(window.parent.document.onmouseup) window.parent.document.onmouseup(arguments[0]);}" width="512" viewBox="0 0 512.001 512.001" height="512" enable-background="new 0 0 512.001 512.001" id="Capa_1"><g><g><path data-cppathid="10000" fill="#99e6fc" d="m504.512 281.89v-51.779c0-10.092-8.181-18.274-18.274-18.274h-31.731c-3.959 0-7.391-2.684-8.408-6.51-4.515-16.975-11.248-33.045-19.862-47.888-1.989-3.428-1.463-7.755 1.339-10.558l22.455-22.455c7.136-7.136 7.136-18.706 0-25.843l-36.613-36.613c-7.136-7.136-18.706-7.136-25.843 0l-22.455 22.455c-2.802 2.802-7.13 3.328-10.557 1.339-14.843-8.614-30.913-15.347-47.889-19.862-3.826-1.018-6.51-4.449-6.51-8.408v-31.731c0-10.092-8.181-18.274-18.274-18.274h-51.779c-10.092 0-18.274 8.181-18.274 18.274v31.731c0 3.959-2.684 7.391-6.51 8.408-16.975 4.515-33.045 11.248-47.889 19.862-3.428 1.989-7.755 1.463-10.557-1.339l-22.455-22.455c-7.136-7.136-18.706-7.136-25.843 0l-36.613 36.613c-7.136 7.136-7.136 18.706 0 25.843l22.455 22.455c2.802 2.802 3.328 7.13 1.339 10.558-8.614 14.843-15.347 30.913-19.862 47.888-1.018 3.826-4.449 6.51-8.408 6.51h-31.731c-10.092 0-18.274 8.181-18.274 18.274v51.779c0 10.092 8.181 18.274 18.274 18.274h31.731c3.959 0 7.391 2.684 8.408 6.51 4.515 16.975 11.248 33.045 19.862 47.888 1.989 3.428 1.463 7.755-1.339 10.557l-22.455 22.456c-7.136 7.136-7.136 18.706 0 25.843l36.613 36.613c7.136 7.136 18.706 7.136 25.843 0l22.455-22.455c2.802-2.802 7.13-3.328 10.557-1.339 14.843 8.614 30.913 15.347 47.889 19.862 3.826 1.018 6.51 4.449 6.51 8.408v31.731c0 10.092 8.181 18.274 18.274 18.274h51.779c10.092 0 18.274-8.181 18.274-18.274v-31.731c0-3.959 2.684-7.391 6.51-8.408 16.975-4.515 33.045-11.248 47.889-19.862 3.428-1.989 7.755-1.463 10.557 1.339l22.455 22.455c7.136 7.136 18.706 7.136 25.843 0l36.613-36.613c7.136-7.136 7.136-18.706 0-25.843l-22.455-22.455c-2.802-2.802-3.328-7.13-1.339-10.557 8.614-14.843 15.347-30.913 19.862-47.888 1.018-3.826 4.449-6.51 8.408-6.51h31.731c10.093-.001 18.274-8.183 18.274-18.275z"/></g><g><path data-cppathid="10001" fill="#62dbfb" d="m450.034 387.576c7.129 7.139 7.129 18.702 0 25.842l-36.616 36.616c-6.231 6.221-15.816 7.01-22.906 2.376 1.039-.669 2.027-1.468 2.936-2.376l36.616-36.616c7.129-7.139 7.129-18.702 0-25.842l-22.457-22.457c-2.806-2.806-3.325-7.129-1.338-10.554 8.607-14.848 15.347-30.914 19.861-47.889 1.019-3.824 4.444-6.51 8.408-6.51h19.971c-3.964 0-7.389 2.686-8.408 6.51-4.513 16.975-11.253 33.041-19.861 47.889-1.987 3.425-1.468 7.749 1.338 10.554z"/></g><g><path data-cppathid="10002" fill="#62dbfb" d="m450.034 98.583c7.129 7.139 7.129 18.702 0 25.842l-22.457 22.457c-2.806 2.806-3.325 7.129-1.338 10.554 8.607 14.848 15.347 30.914 19.861 47.889 1.019 3.824 4.444 6.51 8.408 6.51h-19.971c-3.964 0-7.389-2.686-8.408-6.51-4.513-16.975-11.253-33.041-19.861-47.889-1.987-3.425-1.468-7.749 1.338-10.554l22.457-22.457c7.129-7.139 7.129-18.702 0-25.842l-36.616-36.616c-.909-.909-1.897-1.708-2.936-2.376 7.09-4.633 16.675-3.844 22.906 2.376z"/></g><g><path data-cppathid="10003" fill="#62dbfb" d="m504.514 230.109v51.784c0 10.085-8.188 18.273-18.273 18.273h-19.971c10.085 0 18.273-8.188 18.273-18.273v-51.784c0-10.085-8.188-18.273-18.273-18.273h19.971c10.085 0 18.273 8.188 18.273 18.273z"/></g><g><g><circle data-cppathid="10004" r="161.776" fill="#f9f8f9" cy="256" cx="256.001"/></g></g><g><g><path data-cppathid="10005" fill="#efedef" d="m417.782 256c0 89.348-72.433 161.781-161.781 161.781-28.618 0-55.498-7.429-78.824-20.47 18.612 7.469 38.933 11.583 60.221 11.583 89.348 0 161.771-72.433 161.771-161.781 0-60.72-33.46-113.632-82.947-141.301 59.522 23.875 101.56 82.129 101.56 150.188z"/></g></g><g><path data-cppathid="10006" fill="#fee97d" d="m285.722 310.529c0-15.235 6.571-29.652 17.831-39.914 14.164-12.909 23.055-31.5 23.055-52.176 0-38.613-30.995-69.987-69.463-70.597-38.757-.615-71.119 30.682-71.741 69.438-.341 21.235 8.699 40.359 23.244 53.515 11.229 10.157 17.633 24.591 17.633 39.732z"/></g><g><path data-cppathid="10007" fill="#fedf30" d="m326.607 218.436c0 20.68-8.887 39.272-23.056 52.183-11.263 10.255-17.834 24.674-17.834 39.911h-20.679v-6.151c0-15.238 6.57-29.656 17.834-39.911 14.159-12.911 23.056-31.504 23.056-52.183 0-28.168-16.496-52.483-40.36-63.816 34.468 4.673 61.039 34.22 61.039 69.967z"/></g><g><path data-cppathid="10008" fill="#e19974" d="m270.638 364.168h-29.274c-8.242 0-14.923-6.681-14.923-14.923v-38.716h59.121v38.716c0 8.241-6.682 14.923-14.924 14.923z"/></g><g><path data-cppathid="10009" fill="#dc8758" d="m285.558 310.53v38.713c0 8.248-6.68 14.928-14.918 14.928h-20.53c8.248 0 14.928-6.68 14.928-14.928v-38.713z"/></g><g><path data-cppathid="10010" d="m486.239 204.349h-31.731c-.55 0-1.021-.381-1.171-.947-4.622-17.381-11.561-34.109-20.622-49.722-.296-.51-.232-1.114.158-1.503l22.455-22.455c10.044-10.044 10.044-26.388 0-36.433l-36.614-36.614c-10.047-10.045-26.389-10.043-36.433 0l-22.457 22.455c-.388.39-.994.452-1.502.156-15.614-9.061-32.343-15.999-49.723-20.622-.566-.151-.946-.621-.946-1.171v-31.73c0-14.206-11.557-25.763-25.763-25.763h-51.779c-14.206 0-25.762 11.557-25.762 25.763v31.731c0 .55-.38 1.02-.946 1.171-17.381 4.623-34.11 11.562-49.723 20.622-.511.296-1.113.232-1.503-.157l-22.456-22.456c-10.044-10.044-26.388-10.045-36.433 0l-36.613 36.614c-4.866 4.866-7.546 11.335-7.546 18.217s2.68 13.351 7.546 18.217l22.455 22.455c.39.39.453.994.157 1.503-9.061 15.614-16 32.343-20.622 49.722-.151.567-.621.947-1.171.947h-31.731c-14.206 0-25.763 11.556-25.763 25.762v51.779c0 14.206 11.557 25.763 25.762 25.763h31.731c.55 0 1.021.38 1.171.946 4.622 17.38 11.561 34.108 20.622 49.722.296.51.233 1.114-.157 1.503l-22.454 22.456c-4.866 4.865-7.546 11.335-7.546 18.217s2.68 13.351 7.546 18.217l36.613 36.614c10.046 10.045 26.389 10.045 36.433 0l22.456-22.456c.39-.39.993-.453 1.503-.157 15.613 9.061 32.342 15.999 49.723 20.622.566.151.946.621.946 1.171v31.731c0 14.206 11.557 25.763 25.762 25.763h51.779c14.206 0 25.763-11.557 25.763-25.763v-31.731c0-.55.38-1.02.946-1.171 17.381-4.623 34.11-11.562 49.723-20.622.508-.296 1.114-.233 1.502.157l22.456 22.456c10.046 10.044 26.388 10.045 36.435-.001l2.612-2.613c2.923-2.925 2.922-7.667-.002-10.591-2.926-2.924-7.667-2.924-10.592.002l-2.61 2.612c-4.207 4.206-11.048 4.204-15.253 0l-22.455-22.455c-5.18-5.181-13.243-6.217-19.612-2.521-14.464 8.394-29.959 14.821-46.055 19.102-7.109 1.89-12.074 8.324-12.074 15.646v31.731c0 5.947-4.838 10.785-10.785 10.785h-51.779c-5.946 0-10.784-4.838-10.784-10.785v-31.731c0-7.321-4.965-13.755-12.074-15.646-16.096-4.281-31.591-10.708-46.055-19.102-6.368-3.696-14.432-2.659-19.612 2.521l-22.456 22.456c-4.205 4.204-11.047 4.205-15.252 0l-36.613-36.614c-2.037-2.037-3.159-4.745-3.159-7.626s1.122-5.589 3.159-7.626l22.455-22.455c5.18-5.179 6.216-13.245 2.521-19.612-8.394-14.464-14.821-29.959-19.102-46.055-1.891-7.109-8.325-12.074-15.646-12.074h-31.729c-5.946 0-10.784-4.838-10.784-10.785v-51.779c0-5.946 4.838-10.784 10.784-10.784h31.731c7.321 0 13.755-4.965 15.646-12.075 4.281-16.095 10.707-31.59 19.102-46.054 3.696-6.367 2.659-14.433-2.521-19.612l-22.456-22.457c-2.037-2.037-3.159-4.745-3.159-7.626s1.122-5.589 3.159-7.626l36.613-36.614c4.205-4.205 11.046-4.204 15.252 0l22.456 22.456c5.18 5.18 13.244 6.216 19.612 2.521 14.464-8.394 29.959-14.821 46.054-19.102 7.11-1.891 12.075-8.324 12.075-15.646v-31.73c0-5.947 4.838-10.785 10.784-10.785h51.779c5.947 0 10.785 4.838 10.785 10.785v31.731c0 7.321 4.965 13.755 12.074 15.646 16.096 4.281 31.591 10.708 46.055 19.102 6.365 3.695 14.432 2.66 19.612-2.521l22.456-22.456c4.205-4.205 11.046-4.205 15.251 0l36.613 36.614c4.205 4.205 4.205 11.047 0 15.252l-22.455 22.455c-5.179 5.179-6.215 13.245-2.52 19.612 8.393 14.463 14.82 29.958 19.101 46.055 1.892 7.109 8.325 12.074 15.646 12.074h31.731c5.946 0 10.784 4.838 10.784 10.784v51.779c0 5.947-4.838 10.785-10.784 10.785h-31.731c-7.321 0-13.754 4.965-15.646 12.074-4.281 16.096-10.708 31.591-19.101 46.054-3.696 6.367-2.659 14.433 2.52 19.612l22.455 22.455c4.205 4.205 4.205 11.047 0 15.252l-9.258 9.258c-2.924 2.924-2.924 7.667 0 10.591 2.925 2.924 7.666 2.925 10.592 0l9.258-9.258c10.044-10.045 10.044-26.389 0-36.433l-22.455-22.455c-.39-.39-.453-.994-.158-1.503 9.061-15.613 16-32.342 20.622-49.722.15-.567.621-.947 1.171-.947h31.731c14.205 0 25.762-11.557 25.762-25.763v-51.779c-.001-14.206-11.558-25.762-25.762-25.762z"/><path data-cppathid="10011" d="m163.798 132.282c3.314-2.474 3.995-7.167 1.521-10.482-2.475-3.314-7.167-3.995-10.482-1.521-20.673 15.433-37.806 35.694-49.547 58.593-12.312 24.013-18.555 49.962-18.555 77.128 0 93.333 75.932 169.265 169.265 169.265 93.334 0 169.266-75.932 169.266-169.265s-75.932-169.265-169.266-169.265c-24.48 0-48.098 5.114-70.199 15.2-3.763 1.717-5.421 6.16-3.704 9.922 1.717 3.763 6.16 5.42 9.922 3.704 20.135-9.189 41.662-13.848 63.981-13.848 85.075 0 154.288 69.213 154.288 154.287s-69.213 154.288-154.288 154.288c-85.074 0-154.287-69.213-154.287-154.287 0-24.767 5.688-48.417 16.905-70.294 10.705-20.877 26.328-39.351 45.18-53.425z"/><path data-cppathid="10012" d="m312.518 261.41c3.537 2.147 8.142 1.021 10.289-2.514 7.386-12.166 11.291-26.156 11.291-40.456 0-20.64-7.977-40.103-22.46-54.805-14.468-14.685-33.777-22.953-54.373-23.28-43.096-.707-78.657 33.771-79.348 76.806-.361 22.511 9.009 44.085 25.709 59.189 9.639 8.719 15.327 21.175 15.327 34.177v38.718c0 12.358 10.054 22.412 22.412 22.412h29.274c12.359 0 22.413-10.054 22.413-22.412 0 0 0-38.199 0-38.716 0-8.845 2.737-17.5 7.613-25.03 2.248-3.472 1.256-8.108-2.216-10.356-3.469-2.247-8.108-1.256-10.357 2.216-5.069 7.828-8.259 16.589-9.392 25.681h-15.209v-43.224h5.72c4.136 0 7.489-3.353 7.489-7.489s-3.352-7.489-7.489-7.489h-26.418c-4.136 0-7.489 3.353-7.489 7.489s3.353 7.489 7.489 7.489h5.72v43.224h-15.205c-1.793-14.454-8.728-27.931-19.635-37.797-13.498-12.208-21.072-29.646-20.78-47.84.558-34.779 29.357-62.626 64.134-62.07 16.642.264 32.247 6.947 43.941 18.816 11.705 11.881 18.152 27.612 18.152 44.293 0 11.559-3.153 22.86-9.116 32.683-2.147 3.532-1.021 8.139 2.514 10.285zm-78.588 56.608h44.143v31.227c0 4.099-3.336 7.434-7.435 7.434h-29.274c-4.099 0-7.434-3.335-7.434-7.434z"/></g></g></svg>