<?xml version="1.0" encoding="UTF-8"?>
<svg xmlns="http://www.w3.org/2000/svg" onmouseup="{ if(window.parent.document.onmouseup) window.parent.document.onmouseup(arguments[0]);}" xml:space="preserve" style="enable-background:new 0 0 460.327 460.327;" viewBox="0 0 460.327 460.327" y="0px" x="0px" id="Capa_1" version="1.1" xmlns:xlink="http://www.w3.org/1999/xlink"><g><g><path data-cppathid="10000" d="M432.593,141.347H380.87L57.997,297.037v55.38c0.554,16.125,13.647,28.988,29.78,29.257h344.816    c15.579-0.278,27.983-13.132,27.705-28.711c-0.003-0.182-0.008-0.364-0.015-0.546V171.649c0.875-15.846-11.261-29.4-27.106-30.276    C432.982,141.363,432.787,141.354,432.593,141.347z" style="fill:#2BA037;"/><path data-cppathid="10001" d="M402.813,142.392v145.763c0,16.158-13.099,29.257-29.257,29.257H28.74    C12.87,317.415,0.003,304.552,0,288.682c0-0.176,0.002-0.351,0.005-0.527V107.91c-0.289-15.867,12.34-28.964,28.207-29.252    c0.176-0.003,0.351-0.005,0.527-0.005h344.816c16.158,0,29.257,13.099,29.257,29.257V142.392z" style="fill:#3BB54A;"/></g><g><circle data-cppathid="10002" r="20.898" cy="265.69" cx="350.046" style="fill:#2BA037;"/><circle data-cppathid="10003" r="92.996" cy="198.294" cx="201.148" style="fill:#2BA037;"/><circle data-cppathid="10004" r="20.898" cy="129.853" cx="52.25" style="fill:#2BA037;"/></g><path data-cppathid="10005" d="M232.495,167.47h-9.404c-0.623-3.54-1.496-7.032-2.612-10.449h12.016   c5.771,0,10.449-4.678,10.449-10.449s-4.678-10.449-10.449-10.449h-64.261c-5.771,0-10.449,4.678-10.449,10.449   s4.678,10.449,10.449,10.449h18.808c5.224,0,9.927,5.224,13.061,10.449h-31.869c-5.771,0-10.449,4.678-10.449,10.449   c0,5.771,4.678,10.449,10.449,10.449h31.869c-0.522,0-0.522,0.522-1.045,1.045c-3.352,2.829-7.632,4.318-12.016,4.18h-18.808   c-4.269,0.006-8.056,2.741-9.404,6.792c-1.436,4.013-0.417,8.495,2.612,11.494l45.453,43.363c1.982,1.828,4.623,2.771,7.314,2.612   c5.77-0.081,10.382-4.824,10.301-10.595c-0.038-2.685-1.107-5.252-2.987-7.169l-27.69-26.122   c13.912-2.093,25.336-12.089,29.257-25.6h9.404c5.771,0,10.449-4.678,10.449-10.449C242.944,172.148,238.265,167.47,232.495,167.47   L232.495,167.47z" style="fill:#FEDB41;"/></g><g/><g/><g/><g/><g/><g/><g/><g/><g/><g/><g/><g/><g/><g/><g/></svg>