<?xml version="1.0" encoding="UTF-8"?>
<svg xmlns="http://www.w3.org/2000/svg" onmouseup="{ if(window.parent.document.onmouseup) window.parent.document.onmouseup(arguments[0]);}" width="512" viewBox="0 0 512.755 512.755" height="512" enable-background="new 0 0 512.755 512.755" id="Capa_1"><g><path data-cppathid="10000" d="m159.522 224.207c-2.21-3.504-6.844-4.551-10.345-2.341-3.503 2.21-4.552 6.842-2.341 10.345 24.032 38.094 65.169 60.837 110.041 60.837 71.695 0 130.023-58.329 130.023-130.024s-58.327-130.024-130.023-130.024-130.023 58.329-130.023 130.024c0 13.06 1.943 25.965 5.776 38.356 1.225 3.957 5.421 6.174 9.382 4.949 3.957-1.224 6.172-5.424 4.948-9.381-3.389-10.954-5.106-22.368-5.106-33.923 0-63.425 51.6-115.025 115.023-115.025s115.023 51.6 115.023 115.024-51.6 115.024-115.023 115.024c-39.691 0-76.085-20.128-97.355-53.841z"/><path data-cppathid="10001" d="m206.13 146.231c0 4.142 3.357 7.5 7.5 7.5h61.875c-3.364 13.517-15.601 23.565-30.145 23.565h-29.103c-3.464 0-6.577 2.06-7.932 5.249-1.354 3.188-.675 6.859 1.729 9.349l50.409 52.294c1.472 1.527 3.435 2.295 5.4 2.295 1.873 0 3.749-.698 5.204-2.1 2.982-2.875 3.069-7.623.194-10.605l-39.986-41.481h14.084c22.846 0 41.852-16.721 45.445-38.565h9.718c4.143 0 7.5-3.358 7.5-7.5s-3.357-7.5-7.5-7.5h-9.718c-1.479-8.993-5.566-17.119-11.464-23.565h21.182c4.143 0 7.5-3.358 7.5-7.5s-3.357-7.5-7.5-7.5h-86.892c-4.143 0-7.5 3.358-7.5 7.5s3.357 7.5 7.5 7.5h31.73c14.544 0 26.78 10.048 30.145 23.565h-61.875c-4.142-.001-7.5 3.357-7.5 7.499z"/><path data-cppathid="10002" d="m438.131 334.795c0-13.095-10.653-23.748-23.748-23.748h-89.233c55.887-25.879 94.751-82.496 94.751-148.023 0-15.851-2.283-31.544-6.785-46.646-1.184-3.968-5.36-6.229-9.33-5.044-3.97 1.184-6.229 5.361-5.045 9.331 4.088 13.709 6.16 27.961 6.16 42.359 0 81.621-66.403 148.023-148.023 148.023s-148.023-66.403-148.023-148.023 66.402-148.024 148.022-148.024c54.374 0 104.271 29.724 130.216 77.572 1.974 3.641 6.526 4.992 10.168 3.018 3.642-1.975 4.992-6.527 3.018-10.168-28.571-52.691-83.519-85.422-143.402-85.422-89.891 0-163.023 73.132-163.023 163.024 0 65.528 38.865 122.144 94.751 148.023h-90.233c-13.095 0-23.748 10.653-23.748 23.748v29.74c0 6.281 2.456 11.997 6.452 16.248-3.996 4.251-6.452 9.967-6.452 16.248v29.74c0 6.281 2.456 11.997 6.452 16.248-3.996 4.251-6.452 9.967-6.452 16.248v29.74c0 13.095 10.653 23.748 23.748 23.748h316.012c13.095 0 23.748-10.653 23.748-23.748v-29.74c0-6.281-2.456-11.997-6.452-16.248 3.996-4.251 6.452-9.967 6.452-16.248v-29.74c0-6.281-2.456-11.997-6.452-16.248 3.996-4.251 6.452-9.967 6.452-16.248v-29.74zm-348.507 0c0-4.824 3.925-8.748 8.748-8.748h316.012c4.823 0 8.748 3.924 8.748 8.748v29.74c0 4.824-3.925 8.748-8.748 8.748h-27.267c-4.143 0-7.5 3.358-7.5 7.5s3.357 7.5 7.5 7.5h27.267c4.823 0 8.748 3.924 8.748 8.748v29.74c0 4.824-3.925 8.748-8.748 8.748h-316.012c-4.823 0-8.748-3.924-8.748-8.748v-29.74c0-4.824 3.925-8.748 8.748-8.748h261.781c4.143 0 7.5-3.358 7.5-7.5s-3.357-7.5-7.5-7.5h-261.781c-4.823 0-8.748-3.924-8.748-8.748zm333.507 154.212c0 4.824-3.925 8.748-8.748 8.748h-316.011c-4.823 0-8.748-3.924-8.748-8.748v-29.74c0-4.824 3.925-8.748 8.748-8.748h316.012c4.823 0 8.748 3.924 8.748 8.748v29.74z"/></g></svg>