<?xml version="1.0" encoding="UTF-8"?>
<svg xmlns="http://www.w3.org/2000/svg" onmouseup="{ if(window.parent.document.onmouseup) window.parent.document.onmouseup(arguments[0]);}" width="512" viewBox="0 0 256 256" height="512" enable-background="new 0 0 256 256" id="Layer_1"><g><path data-cppathid="10000" fill="#70d6f9" d="m26.1 128.9h-2.1v-2.1c0-1.5-1.3-2.8-2.8-2.8s-2.8 1.3-2.8 2.8v2.1h-2.1c-1.5 0-2.8 1.3-2.8 2.8s1.3 2.8 2.8 2.8h2.1v2.1c0 1.5 1.3 2.8 2.8 2.8s2.8-1.3 2.8-2.8v-2.1h2.1c1.5 0 2.8-1.3 2.8-2.8 0-1.6-1.2-2.8-2.8-2.8z"/><path data-cppathid="10001" fill="#fc657e" d="m215.3 20.9c-4-.7-7.1-3.8-7.9-7.7 0-.1-.1-.2-.2-.1-.1 0-.1.1-.1.1-.8 4-3.9 7-7.9 7.7-.1 0-.2.1-.2.2s.1.1.2.2c4 .7 7.1 3.8 7.9 7.7 0 .1.1.2.2.1.1 0 .1-.1.1-.1.8-4 3.9-7 7.9-7.7.1 0 .2-.1.2-.2s-.1-.2-.2-.2z"/><circle data-cppathid="10002" r="3" fill="#f5c84c" cy="34" cx="186"/><circle data-cppathid="10003" r="3" fill="#87d147" cy="165" cx="215"/><circle data-cppathid="10004" r="3" fill="#f5c84c" cy="108" cx="34"/><path data-cppathid="10005" fill="#70d6f9" d="m5.1 155h23c1.5 0 2.6 1.2 2.6 2.6v80.2c0 1.5-1.2 2.6-2.6 2.6h-23c-1.5 0-2.6-1.2-2.6-2.6v-80.2c0-1.4 1.2-2.6 2.6-2.6z"/><path data-cppathid="10006" fill="#dae6f1" d="m43 160.2h-12.2v73.9h12.2c1.5 0 2.6-1.2 2.6-2.6v-68.7c0-1.5-1.2-2.6-2.6-2.6z"/><path data-cppathid="10007" fill="#f9d0b4" d="m210.2 182.5c-2.7-5.5-9.3-7.8-14.8-5.1l-43.6 20.7c2.8-1.9 4.7-4.4 4.7-7.7 0-14.1-18.6-11.6-33.4-11.6-9.2 0-23.6-4.9-33.3-8.7-7-2.7-14.5-3.7-22-2.9l-22.2 2.3v51.7l9.5-1c9.4-1 18.9-.3 28.1 2.1l30.4 8c17.2 4.5 35.6 2.1 51-6.8l41.7-26.5c4.7-3.2 6.4-9.3 3.9-14.5z"/><path data-cppathid="10008" d="m28.2 243h-23c-2.8 0-5.1-2.3-5.1-5.1v-80.2c0-2.8 2.3-5.1 5.1-5.1h23c2.8 0 5.1 2.3 5.1 5.1v80.2c0 2.8-2.3 5.1-5.1 5.1zm-23.1-85.5c-.1 0-.1.1-.1.1v80.2c0 .1.1.1.1.1h23c.1 0 .1-.1.1-.1v-80.2c0-.1-.1-.1-.1-.1z"/><path data-cppathid="10009" d="m43 236.6h-12.2c-1.4 0-2.5-1.1-2.5-2.5v-73.9c0-1.4 1.1-2.5 2.5-2.5h12.2c2.8 0 5.1 2.3 5.1 5.1v68.7c0 2.8-2.3 5.1-5.1 5.1zm-9.7-5h9.7c.1 0 .1-.1.1-.1v-68.6c0-.1-.1-.1-.1-.1h-9.7z"/><path data-cppathid="10010" d="m112.9 232.7-30.4-8c-8.9-2.3-18.1-3-27.2-2l-9.5 1c-1.4.1-2.6-.8-2.8-2.2 0-.1 0-.2 0-.3v-51.7c0-1.3 1-2.4 2.2-2.5l22.2-2.3c7.8-.8 15.8.2 23.1 3.1 14.2 5.5 25.7 8.5 32.4 8.5 1.9 0 4 0 6-.1 10.3-.2 20.9-.5 26.4 4.9 2.4 2.5 3.7 5.8 3.5 9.2 0 .5 0 1.1-.1 1.6l35.5-16.8c6.8-3.2 15-.3 18.2 6.5 3 6.2.8 13.7-5 17.4l-41.7 26.5s-.1 0-.1.1c-15.8 9.2-34.9 11.8-52.7 7.1zm-29.2-12.8 30.4 8c16.6 4.4 34.2 2 49.1-6.6l41.6-26.5c4-2.6 5.2-7.9 2.7-11.9-2.3-3.7-7.1-5.1-11-3.2l-43.4 20.6c-9.7 6.5-28.3 6.8-31 6.8-1.4 0-2.5-1.1-2.5-2.5s1.1-2.5 2.5-2.5c6.2 0 21.2-1.2 28.2-5.9.1-.1.2-.1.3-.2 2.1-1.5 3.4-3.3 3.4-5.6.1-2.1-.6-4.1-2-5.7-4-3.9-14-3.7-22.8-3.5-2 0-4.1.1-6.1.1-9.4 0-23.8-4.8-34.2-8.9-6.6-2.6-13.8-3.5-20.8-2.8l-19.9 2.1v46.7l6.7-.7c9.6-1 19.4-.3 28.8 2.2z"/><path data-cppathid="10011" fill="#87d147" d="m209.3 132c-.2.5-.7.8-1.3.6-.2-.1-.5-.3-.6-.5l-5.4-10.5c-.3-.5-.9-.7-1.3-.4l-10.5 5.4c-.5.2-1.1 0-1.3-.5-.1-.2-.1-.5-.1-.7l9.5-29.5c-.8-.3-1.5-.7-2-1.2-1.5-1.5-1.6-4.2-2.8-6s-3.6-2.9-4.5-4.9c-.8-2 .1-4.5-.3-6.6s-2.2-4-2.2-6.2 1.8-4.2 2.2-6.2c.4-2.1-.5-4.7.3-6.6.8-2 3.3-3.1 4.5-4.9.6-1 1-2 1.3-3.1h-137.7c-2.7 0-4.9 2.2-4.9 4.9v87.3c0 2.7 2.2 4.9 4.9 4.9h152.7c2.7 0 4.9-2.2 4.9-4.9v-27.2z"/><path data-cppathid="10012" fill="#b2e26d" d="m190.2 126.7c-.5.2-1.1 0-1.3-.5-.1-.2-.1-.5-.1-.7l9.5-29.5c-.8-.3-1.5-.7-2-1.2-1.5-1.5-1.6-4.2-2.8-6s-3.6-2.9-4.5-4.9c-.8-2 .1-4.5-.3-6.6s-2.2-4-2.2-6.2c0-2 1.6-3.9 2.1-5.8-.7-1.3-1.2-2.7-1.6-4.1-.3-.9-1-1.4-1.9-1.4h-103c-.9 0-1.7.6-1.9 1.4-2.4 8-8.7 14.3-16.7 16.7-.9.3-1.4 1-1.4 1.9v37.6c0 .9.6 1.7 1.4 1.9 8 2.4 14.3 8.7 16.7 16.7.3.9 1 1.4 1.9 1.4h103c.9 0 1.7-.6 1.9-1.4 1.4-4.6 4.1-8.7 7.7-11.8z"/><circle data-cppathid="10013" r="27.4" fill="#87d147" cy="98.7" cx="133.4"/><path data-cppathid="10014" d="m136.8 113.3h-10.7c-1.4 0-2.5-1.1-2.5-2.5s1.1-2.5 2.5-2.5h10.7c2 0 3.5-1.6 3.5-3.5 0-2-1.6-3.5-3.5-3.5h-6.7c-4.7 0-8.5-3.8-8.5-8.5s3.8-8.5 8.5-8.5h9.5c1.4 0 2.5 1.1 2.5 2.5s-1.1 2.5-2.5 2.5h-9.5c-2 0-3.5 1.6-3.5 3.5 0 2 1.6 3.5 3.5 3.5h6.7c4.7 0 8.5 3.8 8.5 8.5s-3.8 8.5-8.5 8.5z"/><path data-cppathid="10015" d="m133.4 117.4c-1.4 0-2.5-1.1-2.5-2.5v-32.4c0-1.4 1.1-2.5 2.5-2.5s2.5 1.1 2.5 2.5v32.4c0 1.4-1.1 2.5-2.5 2.5z"/><path data-cppathid="10016" d="m209.8 149.7h-152.7c-4.1 0-7.4-3.3-7.4-7.4v-87.3c0-4.1 3.3-7.4 7.4-7.4h137.6c1.4 0 2.5 1.1 2.5 2.5 0 .3 0 .5-.1.8l-.1.4c-.3 1.2-.8 2.3-1.4 3.3-.7 1-1.5 1.8-2.5 2.6-.7.5-1.3 1.1-1.8 1.9-.2.8-.2 1.7-.1 2.5.1 1.2.1 2.4-.1 3.6-.3 1.2-.7 2.3-1.3 3.3-.5.7-.8 1.6-.9 2.4.1.9.4 1.7.9 2.4.6 1 1 2.1 1.3 3.3.2 1.2.2 2.4.1 3.6-.1.8-.1 1.7.1 2.5.5.7 1.1 1.4 1.8 1.9 2 1.4 3.4 3.5 3.9 5.9.2.8.6 1.6 1.1 2.3.3.3.7.5 1.2.7 1.2.5 1.9 1.8 1.5 3.1l-8.4 26.1 7.3-3.7c1.7-.9 3.8-.2 4.7 1.5l3.7 7.3 4.3-13.4c.4-1.3 1.8-2 3.1-1.6 1 .3 1.7 1.3 1.7 2.4v27.2c0 4-3.3 7.3-7.4 7.3zm-152.7-97c-1.3 0-2.4 1.1-2.4 2.4v87.3c0 1.3 1.1 2.4 2.4 2.4h152.7c1.3 0 2.4-1.1 2.4-2.4v-11.2l-.5 1.7c-.6 1.8-2.6 2.8-4.4 2.3-.9-.3-1.6-.9-2-1.7l-4.7-9.1-9.1 4.7c-1.7.9-3.8.2-4.7-1.5-.4-.8-.5-1.8-.2-2.7l8.8-27.5c-.3-.2-.5-.4-.8-.7-1.1-1.2-1.9-2.7-2.3-4.3-.2-.7-.5-1.4-.9-2.1-.5-.6-1-1.1-1.6-1.6-1.3-1-2.4-2.3-3.1-3.8-.5-1.5-.7-3.2-.4-4.8.1-.8.1-1.5 0-2.3-.2-.7-.5-1.4-.8-2-.9-1.4-1.4-3-1.5-4.7.1-1.7.6-3.3 1.5-4.7.4-.6.6-1.3.8-2 .1-.8.1-1.5 0-2.3-.2-1.6-.1-3.3.4-4.8.7-1.5 1.8-2.8 3.1-3.8.3-.3.6-.5.9-.8z"/><path data-cppathid="10017" d="m91.2 101.2h-5.8c-1.4 0-2.5-1.1-2.5-2.5s1.1-2.5 2.5-2.5h5.8c1.4 0 2.5 1.1 2.5 2.5s-1.2 2.5-2.5 2.5z"/><path data-cppathid="10018" d="m181.5 101.2h-5.8c-1.4 0-2.5-1.1-2.5-2.5s1.1-2.5 2.5-2.5h5.8c1.4 0 2.5 1.1 2.5 2.5s-1.1 2.5-2.5 2.5z"/><path data-cppathid="10019" d="m184.9 140.1h-103c-2 0-3.7-1.3-4.3-3.2-2.2-7.2-7.8-12.9-15.1-15.1-1.9-.6-3.2-2.3-3.2-4.3v-37.6c0-2 1.3-3.8 3.2-4.3 7.2-2.2 12.9-7.8 15.1-15.1.6-1.9 2.3-3.2 4.3-3.2h103c2 0 3.8 1.3 4.3 3.2.4 1.3.9 2.5 1.5 3.6.3.6.3 1.2.2 1.8-.3.9-.7 1.8-1.1 2.6-.5.8-.8 1.6-.9 2.5.1.9.4 1.7.9 2.4.6 1 1 2.1 1.3 3.3.2 1.2.2 2.4.1 3.6-.1.8-.1 1.7.1 2.5.5.7 1.1 1.4 1.8 1.9 2 1.4 3.4 3.5 3.9 5.9.2.8.6 1.6 1.1 2.3.3.3.7.5 1.2.7 1.2.5 1.9 1.8 1.5 3.1l-8.4 26.1 1.2-.6c1.2-.6 2.7-.1 3.4 1.1.5 1 .3 2.3-.6 3-3.3 2.8-5.7 6.5-6.9 10.6-.8 1.9-2.6 3.2-4.6 3.2zm-102.6-5h102.3c.7-2.3 1.8-4.5 3.1-6.5-.1 0-.1-.1-.2-.1-1.1-.9-1.5-2.4-1.1-3.7l8.8-27.5c-.3-.2-.5-.4-.8-.7-1.1-1.2-1.9-2.7-2.3-4.3-.2-.7-.5-1.4-.9-2.1-.5-.6-1-1.1-1.6-1.6-1.3-1-2.4-2.3-3.1-3.8-.5-1.5-.7-3.2-.4-4.8.1-.8.1-1.5 0-2.3-.2-.7-.5-1.4-.8-2-.9-1.4-1.4-3-1.5-4.7.1-1.7.6-3.3 1.4-4.7.2-.3.3-.6.5-.9-.5-1-.9-2-1.2-3.1h-102.2c-2.7 8.6-9.4 15.3-17.9 18v37c8.5 2.6 15.2 9.3 17.9 17.8z"/><path data-cppathid="10020" d="m133.4 128.6c-16.5 0-29.9-13.4-29.9-29.9s13.4-29.9 29.9-29.9 29.9 13.4 29.9 29.9c0 16.5-13.4 29.9-29.9 29.9zm0-54.8c-13.7 0-24.9 11.1-24.9 24.9 0 13.7 11.1 24.9 24.9 24.9 13.7 0 24.9-11.1 24.9-24.9 0-13.7-11.1-24.9-24.9-24.9z"/><path data-cppathid="10021" fill="#fc657e" d="m241.6 96c-1.4.4-2.7.9-4 1.6-1.8 1.2-2.9 3.6-4.9 4.5-2 .8-4.5-.1-6.6.3-1.5.3-2.9 1.3-4.5 1.9l8.9 27.8c.2.5.7.8 1.3.6.2-.1.5-.3.6-.5l5.4-10.5c.3-.5.9-.7 1.3-.4l10.5 5.4c.5.2 1.1 0 1.3-.5.1-.2.1-.5.1-.7z"/><path data-cppathid="10022" fill="#fc657e" d="m213.7 102.3c-2.1-.4-4.7.5-6.6-.3-2-.8-3.1-3.3-4.9-4.5-1.3-.7-2.6-1.2-4-1.6l-9.5 29.5c-.2.5.1 1.1.7 1.3.2.1.5.1.7-.1l10.5-5.4c.5-.2 1.1-.1 1.3.4l5.4 10.5c.3.5.9.7 1.3.4.2-.1.4-.3.5-.6l8.9-27.8c-1.3-.4-2.8-1.5-4.3-1.8z"/><path data-cppathid="10023" fill="#fcdd86" d="m253.5 71c0 2.2-1.8 4.2-2.2 6.2-.4 2.1.5 4.7-.3 6.6-.8 2-3.3 3.1-4.5 4.9s-1.3 4.5-2.8 6-4.2 1.6-6 2.8-2.9 3.6-4.9 4.5c-2 .8-4.5-.1-6.6.3s-4 2.2-6.2 2.2-4.2-1.8-6.2-2.2c-2.1-.4-4.7.5-6.6-.3-2-.8-3.1-3.3-4.9-4.5s-4.5-1.3-6-2.8-1.6-4.2-2.8-6-3.6-2.9-4.5-4.9c-.8-2 .1-4.5-.3-6.6s-2.2-4-2.2-6.2 1.8-4.2 2.2-6.2c.4-2.1-.5-4.7.3-6.6.8-2 3.3-3.1 4.5-4.9s1.3-4.5 2.8-6 4.2-1.6 6-2.8 2.9-3.6 4.9-4.5c2-.8 4.5.1 6.6-.3s4-2.2 6.2-2.2 4.2 1.8 6.2 2.2c2.1.4 4.7-.5 6.6.3 2 .8 3.1 3.3 4.9 4.5s4.5 1.3 6 2.8 1.6 4.2 2.8 6 3.6 2.9 4.5 4.9c.8 2-.1 4.5.3 6.6s2.2 4 2.2 6.2z"/><path data-cppathid="10024" fill="#f5c84c" d="m219.9 49.8c-11.7 0-21.3 9.5-21.3 21.3s9.5 21.3 21.3 21.3 21.3-9.5 21.3-21.3c0-11.8-9.5-21.3-21.3-21.3z"/><path data-cppathid="10025" d="m219.9 107.1c-1.7-.1-3.3-.6-4.7-1.5-.6-.4-1.3-.6-2-.8-.8-.1-1.5-.1-2.3 0-3.3.7-6.7-.7-8.6-3.6-.8-1.3-2.1-2.1-3.6-2.4-3.3-.6-5.9-3.2-6.6-6.6-.2-.7-.5-1.4-.9-2.1-.5-.6-1-1.1-1.6-1.6-1.3-1-2.4-2.3-3.1-3.8-.5-1.5-.7-3.2-.4-4.8.1-.8.1-1.5 0-2.3-.2-.7-.5-1.4-.8-2-.9-1.4-1.4-3-1.5-4.7.1-1.7.6-3.3 1.5-4.7.4-.6.6-1.3.8-2 .1-.8.1-1.5 0-2.3-.2-1.6-.1-3.3.4-4.8.7-1.5 1.8-2.8 3.1-3.8.6-.5 1.1-1 1.6-1.6.4-.7.7-1.4.9-2.1.4-1.6 1.2-3.1 2.3-4.3 1.2-1.1 2.7-1.9 4.3-2.3.7-.2 1.4-.5 2.1-.9.6-.5 1.1-1 1.6-1.6 1.8-2.8 5.3-4.3 8.6-3.6.8.1 1.5.1 2.3 0 .7-.2 1.4-.5 2-.8 2.8-1.9 6.6-1.9 9.4 0 .6.4 1.3.6 2 .8.8.1 1.5.1 2.3 0 3.3-.7 6.7.7 8.6 3.6.5.6 1 1.1 1.6 1.6.7.4 1.4.7 2.1.9 1.6.4 3.1 1.2 4.3 2.3 1.1 1.2 1.9 2.7 2.3 4.3.2.7.5 1.4.9 2.1.5.6 1 1.1 1.6 1.6 1.3 1 2.4 2.3 3.1 3.8.5 1.5.7 3.2.4 4.8-.1.8-.1 1.5 0 2.3.2.7.5 1.4.8 2 .9 1.4 1.4 3 1.5 4.7-.1 1.7-.6 3.3-1.5 4.7-.4.6-.6 1.3-.8 2-.1.8-.1 1.5 0 2.3.2 1.6.1 3.3-.4 4.8-.7 1.5-1.8 2.8-3.1 3.8-.6.5-1.1 1-1.6 1.6-.4.7-.7 1.4-.9 2.1-.6 3.3-3.2 5.9-6.6 6.6-1.5.3-2.8 1.2-3.6 2.4-1.8 2.8-5.3 4.3-8.6 3.6-.8-.1-1.5-.1-2.3 0-.7.2-1.4.5-2 .8-1.6.9-3.2 1.4-4.9 1.5zm-7.5-7.4c.6 0 1.2 0 1.8.2 1.2.3 2.3.7 3.3 1.3 1.4 1.2 3.5 1.2 4.9 0 1-.6 2.1-1 3.3-1.3 1.2-.2 2.4-.2 3.6-.1.8.1 1.7.1 2.5-.1.7-.5 1.4-1.1 1.9-1.8 1.4-2 3.5-3.4 5.9-3.9.8-.2 1.6-.6 2.3-1.1.5-.7.9-1.5 1.1-2.3.6-2.4 2-4.4 3.9-5.9.7-.5 1.3-1.1 1.8-1.9.2-.8.2-1.7.1-2.5-.1-1.2-.1-2.4.1-3.6.3-1.2.7-2.3 1.3-3.3.5-.7.8-1.6.9-2.4-.1-.9-.4-1.7-.9-2.4-.6-1-1-2.1-1.3-3.3-.2-1.2-.2-2.4-.1-3.6.1-.8.1-1.7-.1-2.5-.5-.7-1.1-1.4-1.8-1.9-.9-.7-1.8-1.6-2.5-2.6-.6-1-1.1-2.1-1.4-3.3-.2-.8-.6-1.6-1.1-2.3-.7-.5-1.5-.9-2.3-1.1-1.2-.3-2.3-.8-3.3-1.4-1-.7-1.8-1.5-2.6-2.5-.5-.7-1.1-1.3-1.9-1.8-.8-.2-1.7-.2-2.5-.1-1.2.1-2.4.1-3.6-.1-1.2-.3-2.3-.7-3.3-1.3-1.4-1.2-3.5-1.2-4.9 0-1 .6-2.1 1-3.3 1.3-1.2.2-2.4.2-3.6.1-.8-.1-1.7-.1-2.5.1-.7.5-1.4 1.1-1.9 1.8-.7.9-1.6 1.8-2.6 2.5-1 .6-2.1 1.1-3.3 1.4-.8.2-1.6.6-2.3 1.1-.5.7-.9 1.5-1.1 2.3-.3 1.2-.8 2.3-1.4 3.3-.7 1-1.5 1.8-2.5 2.6-.7.5-1.3 1.1-1.8 1.9-.2.8-.2 1.7-.1 2.5.1 1.2.1 2.4-.1 3.6-.3 1.2-.7 2.3-1.3 3.3-.5.7-.8 1.6-.9 2.4.1.9.4 1.7.9 2.4.6 1 1 2.1 1.3 3.3.2 1.2.2 2.4.1 3.6-.1.8-.1 1.7.1 2.5.5.7 1.1 1.4 1.8 1.9 2 1.4 3.4 3.5 3.9 5.9.2.8.6 1.6 1.1 2.3.7.5 1.5.9 2.3 1.1 2.4.6 4.4 2 5.9 3.9.5.7 1.1 1.3 1.9 1.8.8.2 1.7.2 2.5.1.6 0 1.2-.1 1.8-.1z"/><path data-cppathid="10026" d="m217.7 79c-.7 0-1.3-.3-1.8-.7l-6.7-6.7c-1-1-.9-2.6.1-3.5s2.5-.9 3.5 0l4.9 4.9 9.4-9.4c1-1 2.5-1 3.5-.1s1 2.5.1 3.5c0 0 0 0-.1.1l-11.2 11.2c-.4.5-1 .7-1.7.7z"/><path data-cppathid="10027" d="m231.6 135.2c-.1 0-.2 0-.3 0-1.4-.1-2.6-1.1-3-2.4l-8.9-27.8c-.4-1.3.3-2.7 1.5-3.1.5-.2 1-.4 1.5-.7 1-.6 2.1-1 3.3-1.3 1.2-.2 2.4-.2 3.6-.1.8.1 1.7.1 2.5-.1.7-.5 1.4-1.1 1.9-1.8.7-.9 1.6-1.8 2.6-2.5 1-.6 2.1-1.1 3.3-1.4.4-.1.8-.3 1.1-.4 1.3-.5 2.7.1 3.2 1.4 0 0 0 .1.1.1l9.5 29.5c.6 1.8-.4 3.8-2.3 4.4-.9.3-1.8.2-2.7-.2l-9.1-4.7-4.7 9.1c-.6 1.3-1.8 2-3.1 2zm-6.8-29.6 7.1 22.3 3.7-7.3c.9-1.7 3-2.4 4.7-1.5l7.3 3.7-7.6-23.6c-.3.1-.7.3-1 .5-.6.5-1.1 1-1.6 1.6-1.8 2.8-5.3 4.3-8.6 3.6-.8-.1-1.5-.1-2.3 0-.5.1-1.1.3-1.7.7z"/><path data-cppathid="10028" d="m208.3 135.2c-1.3 0-2.5-.7-3.1-1.9l-4.7-9.1-9.1 4.7c-1.7.9-3.8.2-4.7-1.5-.4-.8-.5-1.8-.2-2.7l9.5-29.5c.4-1.3 1.8-2 3.1-1.6h.1c.4.1.8.3 1.1.4 2.4.6 4.4 2 5.9 3.9.5.7 1.1 1.3 1.9 1.8.8.2 1.7.2 2.5.1 1.2-.1 2.4-.1 3.6.1 1.2.3 2.3.7 3.3 1.3.5.3 1 .5 1.5.7 1.3.5 1.9 1.8 1.5 3.1l-8.9 27.8c-.4 1.3-1.6 2.3-3 2.4-.1 0-.2 0-.3 0zm-7.2-16.5c1.3 0 2.5.7 3.1 1.9l3.7 7.3 7.1-22.3c-.6-.3-1.2-.6-1.9-.8-.8-.1-1.5-.1-2.3 0-3.3.7-6.7-.7-8.6-3.6-.5-.6-1-1.1-1.6-1.6-.3-.2-.6-.3-1-.5l-7.6 23.6 7.3-3.7c.7-.2 1.3-.3 1.8-.3z"/><path data-cppathid="10029" d="m219.9 94.8c-13.1 0-23.8-10.6-23.8-23.8 0-13.1 10.6-23.8 23.8-23.8 13.1 0 23.8 10.6 23.8 23.8 0 13.2-10.6 23.8-23.8 23.8zm0-42.5c-10.4 0-18.8 8.4-18.8 18.8s8.4 18.8 18.8 18.8 18.8-8.4 18.8-18.8-8.4-18.8-18.8-18.8z"/></g></svg>