<?xml version="1.0" encoding="UTF-8"?>
<svg xmlns="http://www.w3.org/2000/svg" onmouseup="{ if(window.parent.document.onmouseup) window.parent.document.onmouseup(arguments[0]);}" height="512" width="512" viewBox="0 0 64 64"><title/><g id="FillOutline"><polygon data-cppathid="10000" style="fill:#e9937c" points="25 42 28 37 42.283 36.529 39 42 25 42"/><path data-cppathid="10001" style="fill:#f2c09a" d="M28,55V51l-5.667-6.3a5.25,5.25,0,0,1,.19-7.226L23,37H36v4h0a5,5,0,0,1,5,5v9Z"/><path data-cppathid="10002" style="fill:#29abe2" d="M7.087,16a24.993,24.993,0,0,0,49.826,0Z"/><path data-cppathid="10003" style="fill:#29abe2" d="M9.552,3a24.847,24.847,0,0,0-2.465,9H56.913a24.847,24.847,0,0,0-2.465-9Z"/><rect data-cppathid="10004" style="fill:#0071bc" height="8" width="18" y="54" x="25"/><path data-cppathid="10005" style="fill:#f2c09a" d="M36,41V31a3,3,0,0,0-3-3h0a3,3,0,0,0-3,3V41Z"/><rect data-cppathid="10006" height="2" width="2" y="57" x="37.985"/><path data-cppathid="10007" d="M57.644,15.321A1,1,0,0,0,56.909,15H7.085a1,1,0,0,0-1,1.079A25.844,25.844,0,0,0,21.106,37.633a6.244,6.244,0,0,0,.483,7.739L27,51.384V53H25a1,1,0,0,0-1,1v8h2V55H42v7h2V54a1,1,0,0,0-1-1H42V46a5.956,5.956,0,0,0-1.727-4.178l2.487-4.145a25.892,25.892,0,0,0,15.146-21.6A1,1,0,0,0,57.644,15.321ZM29,53V51a1,1,0,0,0-.257-.669l-5.667-6.3a4.237,4.237,0,0,1-.045-5.607A26.142,26.142,0,0,0,29,39.8V41h2V31a2,2,0,0,1,4,0V41a1,1,0,0,0,1,1,4,4,0,0,1,4,4v7Zm9.65-12.36A5.939,5.939,0,0,0,37,40.083V39.5a25.928,25.928,0,0,0,2.749-.689ZM37,37.459V31a4,4,0,0,0-8,0v6.791A23.828,23.828,0,0,1,8.192,17H55.8A23.878,23.878,0,0,1,37,37.459Z"/><path data-cppathid="10008" d="M8.654,2.56A25.778,25.778,0,0,0,6.09,11.921a1,1,0,0,0,1,1.079H56.913a1,1,0,0,0,1-1.079A25.778,25.778,0,0,0,55.346,2.56l-1.8.88A23.79,23.79,0,0,1,55.807,11H8.193A23.79,23.79,0,0,1,10.45,3.44Z"/><path data-cppathid="10009" d="M50.275,37.793a30.6,30.6,0,0,0,2.414-2.067l-1.379-1.45a28.131,28.131,0,0,1-2.254,1.931Z"/><path data-cppathid="10010" d="M61.841,17.1,59.852,16.9a27.793,27.793,0,0,1-6.7,15.448l1.511,1.31A29.774,29.774,0,0,0,61.841,17.1Z"/><path data-cppathid="10011" d="M4.821,20.76l-1.941.48A29.93,29.93,0,0,0,15.448,39.024l1.1-1.668A27.942,27.942,0,0,1,4.821,20.76Z"/><rect data-cppathid="10012" height="2" width="2" y="20" x="15"/><rect data-cppathid="10013" height="2" width="13" y="20" x="19"/><rect data-cppathid="10014" height="2" width="13" y="24" x="15"/></g></svg>