<?xml version="1.0" encoding="UTF-8"?>
<svg xmlns="http://www.w3.org/2000/svg" onmouseup="{ if(window.parent.document.onmouseup) window.parent.document.onmouseup(arguments[0]);}" width="512" viewBox="0 0 512 512" height="512" id="Flat"><path data-cppathid="10000" fill="#c3c6c7" d="m40 72h448v416h-448z"/><path data-cppathid="10001" fill="#e9eef2" d="m24 56h432v400h-432z"/><path data-cppathid="10002" fill="#eb423f" d="m24 56h432v96h-432z"/><g fill="#6a7073"><path data-cppathid="10003" d="m112 56v-8a8 8 0 0 0 -16 0v32a8.009 8.009 0 0 0 8 8 8 8 0 0 1 0 16 24.028 24.028 0 0 1 -24-24v-32a24 24 0 0 1 48 0v8z"/><path data-cppathid="10004" d="m176 56v-8a8 8 0 0 0 -16 0v32a8.009 8.009 0 0 0 8 8 8 8 0 0 1 0 16 24.028 24.028 0 0 1 -24-24v-32a24 24 0 0 1 48 0v8z"/><path data-cppathid="10005" d="m320 56v-8a8 8 0 0 0 -16 0v32a8.009 8.009 0 0 0 8 8 8 8 0 0 1 0 16 24.028 24.028 0 0 1 -24-24v-32a24 24 0 0 1 48 0v8z"/><path data-cppathid="10006" d="m384 56v-8a8 8 0 0 0 -16 0v32a8.009 8.009 0 0 0 8 8 8 8 0 0 1 0 16 24.028 24.028 0 0 1 -24-24v-32a24 24 0 0 1 48 0v8z"/></g><circle data-cppathid="10007" r="104" fill="#f89f00" cy="304" cx="240"/><path data-cppathid="10008" fill="#f7cc38" d="m240 296c-13.009 0-24-7.327-24-16s10.991-16 24-16 24 7.327 24 16a8 8 0 0 0 16 0c0-15.453-13.764-28.383-32-31.356v-8.644a8 8 0 0 0 -16 0v8.644c-18.236 2.973-32 15.9-32 31.356 0 17.645 17.944 32 40 32 13.009 0 24 7.327 24 16s-10.991 16-24 16-24-7.327-24-16a8 8 0 0 0 -16 0c0 15.462 13.781 28.4 32.032 31.361-.016.211-.032.423-.032.639v8a8 8 0 0 0 16 0v-8c0-.216-.016-.428-.032-.639 18.251-2.961 32.032-15.899 32.032-31.361 0-17.645-17.944-32-40-32z"/></svg>