<?xml version="1.0" encoding="UTF-8"?>
<svg xmlns="http://www.w3.org/2000/svg" onmouseup="{ if(window.parent.document.onmouseup) window.parent.document.onmouseup(arguments[0]);}" width="512" viewBox="0 0 512.279 512.279" height="512" enable-background="new 0 0 512.279 512.279" id="Capa_1"><g><path data-cppathid="10000" d="m203.046 263.502c37.825 0 69.624-31.418 69.624-69.624 0-38.392-31.233-69.625-69.624-69.625s-69.625 31.233-69.625 69.625c.001 38.391 31.234 69.624 69.625 69.624zm-23.562-20.35v-27.016c.015-.009.033-.019.054-.027l15.971-4.034h15.076l15.971 4.033c.021.01.038.02.053.028v27.016c-15.709 7.133-31.417 7.133-47.125 0zm15.385-54.255v-10.405c0-4.509 3.668-8.177 8.177-8.177s8.177 3.668 8.177 8.177v10.405c0 4.509-3.668 8.177-8.177 8.177s-8.177-3.668-8.177-8.177zm8.177-49.644c30.12 0 54.624 24.505 54.624 54.625 0 15.082-6.145 28.755-16.062 38.65v-16.628c0-6.431-4.265-12.107-10.612-14.127-.144-.046-.29-.087-.437-.124l-7.097-1.792c1.76-3.265 2.761-6.997 2.761-10.958v-10.405c0-12.779-10.397-23.177-23.177-23.177s-23.177 10.397-23.177 23.177v10.405c0 3.962 1.001 7.693 2.761 10.958l-7.097 1.792c-.147.037-.293.078-.437.124-6.348 2.02-10.612 7.696-10.612 14.127v16.628c-9.917-9.894-16.062-23.568-16.062-38.65 0-30.12 24.504-54.625 54.624-54.625z"/><path data-cppathid="10001" d="m140.922 294.564h124.248c4.143 0 7.5-3.357 7.5-7.5s-3.357-7.5-7.5-7.5h-124.248c-4.142 0-7.5 3.357-7.5 7.5s3.358 7.5 7.5 7.5z"/><path data-cppathid="10002" d="m187.515 310.627h-46.593c-4.142 0-7.5 3.357-7.5 7.5s3.358 7.5 7.5 7.5h46.593c4.142 0 7.5-3.357 7.5-7.5s-3.358-7.5-7.5-7.5z"/><path data-cppathid="10003" d="m265.316 310.627h-46.593c-4.142 0-7.5 3.357-7.5 7.5s3.358 7.5 7.5 7.5h46.593c4.143 0 7.5-3.357 7.5-7.5s-3.358-7.5-7.5-7.5z"/><path data-cppathid="10004" d="m187.515 341.689h-46.593c-4.142 0-7.5 3.357-7.5 7.5s3.358 7.5 7.5 7.5h46.593c4.142 0 7.5-3.357 7.5-7.5s-3.358-7.5-7.5-7.5z"/><path data-cppathid="10005" d="m265.316 341.689h-46.593c-4.142 0-7.5 3.357-7.5 7.5s3.358 7.5 7.5 7.5h46.593c4.143 0 7.5-3.357 7.5-7.5s-3.358-7.5-7.5-7.5z"/><path data-cppathid="10006" d="m187.515 372.751h-46.593c-4.142 0-7.5 3.357-7.5 7.5s3.358 7.5 7.5 7.5h46.593c4.142 0 7.5-3.357 7.5-7.5s-3.358-7.5-7.5-7.5z"/><path data-cppathid="10007" d="m187.515 419.345h-46.593c-4.142 0-7.5 3.357-7.5 7.5s3.358 7.5 7.5 7.5h46.593c4.142 0 7.5-3.357 7.5-7.5s-3.358-7.5-7.5-7.5z"/><path data-cppathid="10008" d="m265.316 372.751h-46.593c-4.142 0-7.5 3.357-7.5 7.5s3.358 7.5 7.5 7.5h46.593c4.143 0 7.5-3.357 7.5-7.5s-3.358-7.5-7.5-7.5z"/><path data-cppathid="10009" d="m473.616 420.795c-4.084-.72-7.972 1.994-8.696 6.073-7.243 40.799-42.623 70.411-84.125 70.411-47.117 0-85.45-38.332-85.45-85.449s38.333-85.45 85.45-85.45c41.511 0 76.891 29.615 84.125 70.419.724 4.078 4.617 6.796 8.694 6.075 4.078-.723 6.799-4.615 6.075-8.694-8.709-49.116-56.472-86.056-106.065-82.541v-273.07c0-4.143-3.357-7.5-7.5-7.5h-125.252c-3.499-17.69-19.131-31.069-37.828-31.069-20.442 1.717-33.054 12.073-37.836 31.069h-125.234c-4.142 0-7.5 3.357-7.5 7.5v232.15c0 4.143 3.358 7.5 7.5 7.5s7.5-3.357 7.5-7.5v-224.65h62.65c-.272 5.389.075 10.743 1.04 16.061h-40.13c-4.142 0-7.5 3.357-7.5 7.5v403.81c0 4.143 3.358 7.5 7.5 7.5h236.93c5.83 6.141 12.428 11.543 19.636 16.061h-280.126v-193.592c0-4.143-3.358-7.5-7.5-7.5s-7.5 3.357-7.5 7.5v201.091c0 4.143 3.358 7.5 7.5 7.5 0 0 336.718.279 340.82.279 48.786 0 90.377-34.817 98.895-82.788.723-4.079-1.995-7.971-6.073-8.696zm-114.993-106.945c-5.54 1.253-10.906 2.966-16.06 5.095v-249.315c0-4.143-3.357-7.5-7.5-7.5h-40.14c.965-5.318 1.312-10.671 1.04-16.061h62.659v267.781zm-280.089 152.089v-388.809h39.724c7.225 9.431 18.594 15.529 31.365 15.529h39.89c4.142 0 7.5-3.357 7.5-7.5s-3.358-7.5-7.5-7.5h-39.89c-17.379 0-25.086-17.154-24.5-31.59h46.86c4.142 0 7.5-3.357 7.5-7.5 1.347-14.361 9.201-22.218 23.56-23.569 12.991 0 23.56 10.573 23.56 23.569 0 4.143 3.358 7.5 7.5 7.5h46.86c.586 14.436-7.122 31.59-24.5 31.59h-34.27c-4.142 0-7.5 3.357-7.5 7.5s3.358 7.5 7.5 7.5h34.27c12.772 0 24.141-6.098 31.366-15.529h39.734v249.552c-28.338 17.779-47.22 49.297-47.22 85.148 0 19.908 5.822 38.482 15.852 54.109z"/><path data-cppathid="10010" d="m433.509 362.249c-12.082-7.407-22.886-5.863-32.41 4.63l-30.578 40.771-12.188-12.188c-9.025-9.024-23.712-9.024-32.739 0-9.025 9.026-9.025 23.713 0 32.74l31.063 31.062c9.861 9.859 26.358 8.895 34.89-2.479l46.594-62.124c7.656-10.215 5.579-24.754-4.632-32.412zm-7.37 23.41-46.594 62.124c-3.829 4.028-7.923 4.319-12.283.872l-31.062-31.06c-3.178-3.179-3.178-8.35-.001-11.526 3.842-3.177 7.684-3.177 11.526 0l18.303 18.303c4.012 3.172 7.78 2.904 11.304-.804l35.767-47.688c3.353-3.695 7.157-4.238 11.41-1.63 3.595 2.695 4.326 7.814 1.63 11.409z"/></g></svg>