<?xml version="1.0" encoding="UTF-8"?>
<svg xmlns="http://www.w3.org/2000/svg" onmouseup="{ if(window.parent.document.onmouseup) window.parent.document.onmouseup(arguments[0]);}" width="512" viewBox="0 0 512 512" height="512" id="Rupee_x5F_Locker"><g><path data-cppathid="10000" d="m495.178 17.837h-478.356c-5.523 0-10 4.477-10 10v421.708c0 5.522 4.477 10 10 10h37.109v24.618c0 5.522 4.477 10 10 10h77.103c5.523 0 10-4.478 10-10v-24.618h209.933v24.618c0 5.522 4.478 10 10 10h77.103c5.522 0 10-4.478 10-10v-24.618h37.108c5.522 0 10-4.478 10-10v-421.708c0-5.523-4.478-10-10-10zm-364.144 456.326h-57.103v-14.618h57.103zm307.035 0h-57.103v-14.618h57.103zm47.109-34.618h-37.108-77.103-229.933-77.103-37.109v-401.708h458.355v401.708z" id="Shape"/><path data-cppathid="10001" d="m434.223 80.729h-303.732c-5.523 0-10 4.477-10 10v68.929h-42.714c-5.523 0-10 4.477-10 10v40.066c0 5.523 4.477 10 10 10h42.714v37.933h-42.714c-5.523 0-10 4.478-10 10v40.067c0 5.522 4.477 10 10 10h42.714v68.929c0 5.522 4.477 10 10 10h303.731c5.522 0 10-4.478 10-10v-295.924c.001-5.522-4.477-10-9.999-10zm-346.446 118.996v-20.066h85.427v20.066zm0 98v-20.067h85.427v20.067zm336.446 78.928h-283.732v-58.929h42.713c5.523 0 10-4.478 10-10v-40.067c0-5.522-4.477-10-10-10h-42.713v-37.933h42.713c5.523 0 10-4.477 10-10v-40.066c0-5.523-4.477-10-10-10h-42.713v-58.929h283.731v275.924z" id="Main"/><path data-cppathid="10002" d="m390.186 156.28c0-5.522-4.478-10-10-10h-127.74c-5.523 0-10 4.478-10 10s4.477 10 10 10h85.486c1.038 5.29 2.417 14.657 1.791 24.82h-87.277c-5.523 0-10 4.478-10 10s4.477 10 10 10h82.813c-1.709 3.913-3.988 7.604-6.992 10.856-13.695 14.832-39.824 18.44-77.661 10.721-5.412-1.104-10.693 2.388-11.797 7.799-.156.764-.211 1.522-.191 2.27-.078 2.611.854 5.25 2.819 7.271l75.888 78.058c1.961 2.016 4.564 3.029 7.171 3.029 2.512 0 5.026-.941 6.97-2.83 3.96-3.85 4.049-10.182.199-14.141l-56.277-57.886c3.29.207 6.498.319 9.605.319 25.607-.001 45.03-7.032 57.968-21.041 6.767-7.328 11.015-15.801 13.571-24.425h23.653c5.522 0 10-4.478 10-10s-4.478-10-10-10h-20.368c.489-9.664-.455-18.471-1.513-24.82h21.881c5.523 0 10.001-4.478 10.001-10z" id="Rupee"/></g></svg>