<?xml version="1.0" encoding="UTF-8"?>
<svg xmlns="http://www.w3.org/2000/svg" onmouseup="{ if(window.parent.document.onmouseup) window.parent.document.onmouseup(arguments[0]);}" xml:space="preserve" style="enable-background:new 0 0 512 512;" viewBox="0 0 512 512" y="0px" x="0px" id="Capa_1" version="1.1" xmlns:xlink="http://www.w3.org/1999/xlink"><g><g><path data-cppathid="10000" d="M65.07,233.432c-1.86-1.86-4.44-2.93-7.07-2.93s-5.21,1.069-7.07,2.93c-1.86,1.86-2.93,4.43-2.93,7.07    c0,2.63,1.07,5.21,2.93,7.069c1.86,1.86,4.44,2.931,7.07,2.931s5.21-1.07,7.07-2.931c1.86-1.859,2.93-4.439,2.93-7.069    C68,237.861,66.93,235.292,65.07,233.432z"/></g></g><g><g><path data-cppathid="10001" d="M482,243.963h-86v-20c0-19.851-16.149-36-36-36h-36V78.036c0-16.542-13.458-30-30-30h-17.986v-18    c0-16.542-13.458-30-30-30H30c-16.542,0-30,13.458-30,30v295.927c0,16.542,13.458,30,30,30h18v18c0,16.542,13.458,30,30,30h54v58    c0,27.57,22.43,50,50,50h280c27.57,0,50-22.43,50-50v-188C512,257.42,498.542,243.963,482,243.963z M360,207.963    c8.822,0,16,7.178,16,16v20H268v-20c0-8.822,7.178-16,16-16H360z M132,273.964v110H78v-0.001c-5.514,0-10-4.486-10-10v-92.97    c0-5.522-4.477-10-10-10s-10,4.478-10,10v54.97H30c-5.514,0-10-4.486-10-10V30.036c0-5.514,4.486-10,10-10h216.014    c5.514,0,10,4.486,10,10v18H121.703c-2.663,0-5.216,1.063-7.093,2.951l-63.703,64.098c-1.732,1.742-2.745,4.057-2.88,6.496    c-0.005,0.08-0.009,0.159-0.012,0.239c-0.003,0.105-0.015,0.208-0.015,0.313v72.329c0,5.522,4.477,10,10,10s10-4.478,10-10    v-62.256h34.098c16.542,0,30-13.458,30-30v-34.17H294c5.514,0,10,4.486,10,10v109.927h-20c-19.851,0-36,16.149-36,36v20h-86    C145.458,243.963,132,257.422,132,273.964z M112.098,82.252v19.955c0,5.514-4.486,10-10,10H82.142L112.098,82.252z M492,461.963    c0,16.542-13.458,30-30,30H182c-16.542,0-30-13.458-30-30v-106h128v5.75c0,21.091,17.159,38.25,38.25,38.25h7.5    c21.091,0,38.25-17.159,38.25-38.25v-5.75h128V461.963z M300,361.713v-25.75h44v25.75c0,10.063-8.187,18.25-18.25,18.25h-7.5    C308.187,379.963,300,371.776,300,361.713z M492,335.963H364v-10c0-5.522-4.477-10-10-10h-64c-5.523,0-10,4.478-10,10v10H152v-62    c0-5.514,4.486-10,10-10h320c5.514,0,10,4.487,10,10V335.963z"/></g></g><g><g><path data-cppathid="10002" d="M462,451.963h-71.333c-5.523,0-10,4.478-10,10c0,5.522,4.477,10,10,10H462c5.523,0,10-4.478,10-10    C472,456.44,467.523,451.963,462,451.963z"/></g></g><g><g><path data-cppathid="10003" d="M358.41,454.893c-1.86-1.86-4.44-2.93-7.08-2.93c-2.63,0-5.21,1.069-7.07,2.93c-1.86,1.861-2.93,4.44-2.93,7.07    s1.07,5.21,2.93,7.069c1.86,1.86,4.44,2.931,7.07,2.931c2.64,0,5.21-1.07,7.08-2.931c1.86-1.859,2.92-4.439,2.92-7.069    S360.27,456.753,358.41,454.893z"/></g></g><g><g><path data-cppathid="10004" d="M256.127,112.208H186c-5.523,0-10,4.478-10,10c0,5.522,4.477,10,10,10h70.127c5.523,0,10-4.478,10-10    C266.127,116.685,261.65,112.208,256.127,112.208z"/></g></g><g><g><path data-cppathid="10005" d="M256.127,152.296H122.098c-5.523,0-10,4.478-10,10c0,5.522,4.477,10,10,10h134.029c5.523,0,10-4.478,10-10    C266.127,156.773,261.65,152.296,256.127,152.296z"/></g></g><g><g><path data-cppathid="10006" d="M189.112,192.385h-67.015c-5.523,0-10,4.478-10,10c0,5.522,4.477,10,10,10h67.015c5.523,0,10-4.477,10-10    C199.112,196.864,194.635,192.385,189.112,192.385z"/></g></g><g/><g/><g/><g/><g/><g/><g/><g/><g/><g/><g/><g/><g/><g/><g/></svg>