<?xml version="1.0" encoding="UTF-8"?>
<svg xmlns="http://www.w3.org/2000/svg" onmouseup="{ if(window.parent.document.onmouseup) window.parent.document.onmouseup(arguments[0]);}" width="512" viewBox="0 0 512 512" height="512" enable-background="new 0 0 512 512" id="Capa_1"><g><path data-cppathid="10000" fill="#5a6680" d="m497 30h-60c-8.284 0-15-6.716-15-15s6.716-15 15-15h60c8.284 0 15 6.716 15 15s-6.716 15-15 15z"/><path data-cppathid="10001" fill="#6e819f" d="m55 452h-40c-8.284 0-15-6.716-15-15s6.716-15 15-15h40c8.284 0 15 6.716 15 15s-6.716 15-15 15z"/><g><path data-cppathid="10002" fill="#ffe137" d="m196 211h-180c-8.284 0-15-6.716-15-15 0-107.523 87.477-195 195-195 8.284 0 15 6.716 15 15v180c0 8.284-6.716 15-15 15z"/><path data-cppathid="10003" fill="#fa0" d="m1 196c0 8.284 6.716 15 15 15h180c8.284 0 15-6.716 15-15v-55h-202.09c-5.139 17.451-7.91 35.907-7.91 55z"/><path data-cppathid="10004" fill="#ffc808" d="m46.458 71c-16.966 20.264-29.895 44.011-37.548 70h202.09v-70z"/></g><path data-cppathid="10005" fill="#a6e01e" d="m256 451c-107.523 0-195-87.477-195-195 0-8.284 6.716-15 15-15h165v-165c0-8.284 6.716-15 15-15 107.523 0 195 87.477 195 195s-87.477 195-195 195z"/><path data-cppathid="10006" fill="#68ca00" d="m451 256c0-107.523-87.477-195-195-195v390c107.523 0 195-87.477 195-195z"/><path data-cppathid="10007" fill="#5a6680" d="m383.279 143.721c-3.839 0-7.678-1.464-10.606-4.394-5.858-5.858-5.858-15.355 0-21.213l53.721-53.721c2.812-2.812 6.627-4.393 10.606-4.393h60c8.284 0 15 6.716 15 15s-6.716 15-15 15h-53.787l-49.327 49.327c-2.929 2.929-6.768 4.394-10.607 4.394z"/><path data-cppathid="10008" fill="#6e819f" d="m75 512h-60c-8.284 0-15-6.716-15-15s6.716-15 15-15h53.787l82.897-82.898c5.857-5.858 15.355-5.858 21.213 0 5.858 5.857 5.858 15.355 0 21.213l-87.291 87.292c-2.812 2.812-6.627 4.393-10.606 4.393z"/></g></svg>