<?xml version="1.0" encoding="UTF-8"?>
<svg xmlns="http://www.w3.org/2000/svg" onmouseup="{ if(window.parent.document.onmouseup) window.parent.document.onmouseup(arguments[0]);}" width="512" viewBox="0 0 512 512" height="512" enable-background="new 0 0 512 512" id="Layer_1"><path data-cppathid="10000" fill="#ff7d97" d="m256 502c135.862 0 246-110.138 246-246s-110.138-246-246-246-246 110.138-246 246 110.138 246 246 246zm0-51c-63.187 0-119.345-30.063-154.978-76.656l334.996-193.41c9.646 23.107 14.982 48.462 14.982 75.066 0 107.696-87.304 195-195 195zm0-390c63.187 0 119.345 30.063 154.978 76.656l-334.996 193.41c-9.646-23.107-14.982-48.462-14.982-75.066 0-107.695 87.304-195 195-195z"/><path data-cppathid="10001" fill="#fff" d="m406 140.53v-33.53h-300v206.735z"/><path data-cppathid="10002" fill="#fff" d="m106 371.47v33.53h300v-206.735z"/><circle data-cppathid="10003" r="10" cy="145.42" cx="36.234"/><path data-cppathid="10004" d="m441.182 79.209c-47.926-50.203-115.803-79.209-185.182-79.209-20.42 0-40.74 2.41-60.41 7.17-56.948 13.797-108.224 47.882-143.55 94.1-3.23 4.226-2.482 10.669 1.909 14.009 4.236 3.222 10.672 2.478 14.011-1.91 45.1-59.339 113.64-93.369 188.04-93.369 63.03 0 122.29 24.55 166.88 69.12 44.57 44.59 69.12 103.85 69.12 166.88s-24.55 122.29-69.12 166.88c-44.59 44.57-103.85 69.12-166.88 69.12-63.02 0-122.29-24.55-166.88-69.12-44.57-44.59-69.11-103.85-69.12-166.88 0-22.44 3.15-44.65 9.35-65.99 1.54-5.3-1.52-10.86-6.81-12.39-.92-.27-1.86-.4-2.8-.4-4.42 0-8.36 2.96-9.6 7.21-6.73 23.15-10.14 47.23-10.14 71.57 0 17.37 1.75 34.73 5.2 51.59 10.526 51.347 37.356 99.188 75.561 135.058 47.127 44.245 110.62 69.352 175.239 69.352 67.66 0 133.957-27.563 181.654-75.588 47.271-47.597 74.346-113.354 74.346-180.412 0-65.308-25.704-129.534-70.818-176.791z"/><path data-cppathid="10005" d="m406 97h-20.867c-36.316-29.275-82.251-46-129.133-46-14.944 0-29.932 1.578-44.518 4.851-30.768 6.903-59.371 21.37-83.65 41.149h-21.832c-5.523 0-10 4.477-10 10v22.025c-20.001 24.902-34.389 54.239-40.83 85.654-2.77 13.511-4.17 27.411-4.17 41.321 0 26.996 5.36 53.993 15.749 78.918 2.191 5.257 8.982 7.836 14.231 4.812l335-193.41c2.489-1.44 4.239-3.879 4.799-6.708.922-4.653-1.868-8.131-4.779-11.728v-20.884c0-5.523-4.477-10-10-10zm-310 210.961-14.86 8.579c-6.73-19.42-10.14-39.79-10.14-60.54 0-33.194 8.7-65.057 25-92.996zm160-236.961c33.648 0 66.224 9.162 94.524 26h-189.188c28.338-16.942 60.806-26 94.664-26zm140 63.756-107.809 62.244h-122.191c-5.523 0-10 4.477-10 10s4.477 10 10 10h87.55l-96.31 55.605-41.24 23.809v-179.414h280z"/><path data-cppathid="10006" d="m106 415h20.85c36.231 29.246 82.078 46 129.15 46 46.898 0 93.061-16.564 129.384-46h20.616c5.523 0 10-4.477 10-10v-20.909c28.783-36.122 45-81.712 45-128.091 0-26.908-5.342-54.076-15.75-78.92-1.11-2.65-3.31-4.7-6.03-5.62-2.68-.9-5.75-.6-8.2.81l-335 193.41c-2.49 1.44-4.24 3.88-4.81 6.7-.56 2.83.12 5.75 1.87 8.04.954 1.248 1.937 2.47 2.92 3.692v20.888c0 5.523 4.477 10 10 10zm310-211.246c9.43-5.262 14.86-8.294 14.86-8.294 6.73 19.42 10.14 39.79 10.14 60.54-.007 33.187-8.704 65.04-25 92.974zm-160 237.246c-33.639 0-66.212-9.164-94.512-26h189.206c-28.342 16.95-60.826 26-94.694 26zm-140-63.756 45.455-26.244h119.545c5.523 0 10-4.477 10-10s-4.477-10-10-10h-84.904l51.961-30h97.943c5.523 0 10-4.477 10-10s-4.477-10-10-10h-63.301l113.301-65.415v179.415h-280z"/><path data-cppathid="10007" d="m226 167h60c5.523 0 10-4.477 10-10s-4.477-10-10-10h-60c-5.523 0-10 4.477-10 10s4.477 10 10 10z"/><path data-cppathid="10008" d="m346 331h-20c-5.523 0-10 4.477-10 10s4.477 10 10 10h20c5.523 0 10-4.477 10-10s-4.477-10-10-10z"/></svg>