<?xml version="1.0" encoding="UTF-8"?>
<svg xmlns="http://www.w3.org/2000/svg" onmouseup="{ if(window.parent.document.onmouseup) window.parent.document.onmouseup(arguments[0]);}" width="512" viewBox="0 0 512 512" height="512" enable-background="new 0 0 512 512" id="Capa_1"><g><path data-cppathid="10000" d="m91 482h330v30h30v-317c0-107.524-87.477-195-195-195s-195 87.476-195 195v317h30zm165-452c85.925 0 156.707 66.023 164.311 150h-328.622c7.604-83.977 78.386-150 164.311-150zm-165 180h330v242h-330z"/><path data-cppathid="10001" d="m121 422h270v-182h-270zm30-152h210v6.729l-105 52.5-105-52.5zm0 40.271 105 52.5 105-52.5v81.729h-210z"/><path data-cppathid="10002" d="m181 90h150v30h-150z"/></g></svg>