<?xml version="1.0" encoding="UTF-8"?>
<svg xmlns="http://www.w3.org/2000/svg" onmouseup="{ if(window.parent.document.onmouseup) window.parent.document.onmouseup(arguments[0]);}" width="512" viewBox="0 0 256 256" height="512"><path data-cppathid="10000" fill="#fff" d="m95.551 47.474a2.984 2.984 0 0 0 -2.74-1.79h-8.97a5.011 5.011 0 0 1 .12 1.1v36.38a5.011 5.011 0 0 1 -.12 1.1h8.97a3 3 0 0 0 2.73-1.77 2.952 2.952 0 0 0 .27-1.23v-32.58a2.888 2.888 0 0 0 -.26-1.21z"/><path data-cppathid="10001" fill="#ffb69f" d="m231.392 47.473a14.511 14.511 0 0 1 -13.152-8.38l-3.874-8.308a7.112 7.112 0 0 0 -12.891 6.015l2.322 4.971h-22.431a12.552 12.552 0 0 0 -12.553 12.552v20.659a12.553 12.553 0 0 0 12.552 12.553c21.919 0 25.36.438 33.212-1.693a89.3 89.3 0 0 1 23.379-3.342h12.483v-35.027z"/><path data-cppathid="10002" fill="#f0c020" d="m98.721 18.575c-3.723-1.23-7.568-2.3-9.727-11.6-1.988 8.565-5.174 10.1-9.727 11.6 7.426 2.454 8.547 6.517 9.727 11.605 2.035-8.77 5.4-10.175 9.727-11.605z"/><path data-cppathid="10003" fill="#f0c020" d="m194.8 128.536c-3.723-1.23-7.568-2.305-9.727-11.6-1.988 8.565-5.174 10.1-9.726 11.6 7.426 2.454 8.546 6.517 9.726 11.6 2.027-8.765 5.397-10.17 9.727-11.6z"/><path data-cppathid="10004" fill="#fc5d3d" d="m83.841 45.684a5.008 5.008 0 0 0 -4.88-3.9h-73.4v46.38h73.4a4.988 4.988 0 0 0 5-5v-36.38a5.011 5.011 0 0 0 -.12-1.1z"/><path data-cppathid="10005" fill="#72c1e8" d="m241.73 249.021h-227.34a113.3 113.3 0 0 1 20.72-65.24l.01-.01a113.217 113.217 0 0 1 50.34-39.971c3.75-1.52 8.51-3.1 9.51-3.35a37.6 37.6 0 0 0 66.19-.04c.63.14 5.35 1.68 9.51 3.37a110.7 110.7 0 0 1 10.72 5.02 113.642 113.642 0 0 1 60.34 100.221z"/><path data-cppathid="10006" fill="#13bf6d" d="m154.8 96.061-10.92-11.83a11.605 11.605 0 0 1 -8.16 3.3h-15.32a11.641 11.641 0 0 1 -8.16-3.3l-10.91 11.83c-10.61 11.51-14.44 29.43-6.36 44.39a37.6 37.6 0 0 0 66.19-.04c8.08-15.03 4.2-32.89-6.36-44.35z"/><path data-cppathid="10007" fill="#68b0d4" d="m170.67 143.781a47.587 47.587 0 0 1 -85.21.02c3.75-1.52 8.51-3.1 9.51-3.35a37.6 37.6 0 0 0 66.19-.04c.63.14 5.35 1.68 9.51 3.37z"/><g fill="#13bf6d"><path data-cppathid="10008" d="m109.2 218.741c-26.75 30.82-25.17 28.79-25.85 30.28h-68.96a113.3 113.3 0 0 1 20.72-65.24l.01-.01c18.53 0 42.94-2.2 72.48 19.95a10.31 10.31 0 0 1 1.6 15.02z"/><path data-cppathid="10009" d="m241.73 249.021h-76.88a22.124 22.124 0 0 1 8.16-26.42c4.02-2.72 17.65-10.06 15.23-26.8l-6.85-47a113.642 113.642 0 0 1 60.34 100.22z"/><path data-cppathid="10010" d="m111.6 26.666 5 15.756a11.6 11.6 0 0 1 3.805-.637h15.316a11.618 11.618 0 0 1 3.817.637l5-15.756a3.534 3.534 0 0 0 -3.369-4.6h-26.202a3.534 3.534 0 0 0 -3.367 4.6z"/><path data-cppathid="10011" d="m111.6 26.666 5 15.756a11.6 11.6 0 0 1 3.805-.637h15.316a11.618 11.618 0 0 1 3.817.637l5-15.756a3.534 3.534 0 0 0 -3.369-4.6h-26.202a3.534 3.534 0 0 0 -3.367 4.6z"/></g><path data-cppathid="10012" fill="#ffb69f" d="m139.531 42.424a11.412 11.412 0 0 0 -3.81-.64h-15.321a11.5 11.5 0 0 0 -3.81.64 11.768 11.768 0 0 0 -6.26 5.05h-14.779a2.888 2.888 0 0 1 .26 1.21v32.58a2.952 2.952 0 0 1 -.27 1.23h15.19a11.949 11.949 0 0 0 1.5 1.74h.01a11.641 11.641 0 0 0 8.16 3.3h15.32a11.808 11.808 0 0 0 11.78-11.78v-22.19a11.766 11.766 0 0 0 -7.97-11.14z"/><path data-cppathid="10013" fill="#f0c020" d="m172.3 168.193c-3.723-1.23-7.568-2.305-9.727-11.6-1.988 8.565-5.174 10.1-9.727 11.6 7.426 2.454 8.547 6.517 9.727 11.6 2.027-8.765 5.397-10.17 9.727-11.6z"/><path data-cppathid="10014" fill="#ffcbc2" d="m71.739 78.685h-44.5a2.5 2.5 0 0 1 0-5h42v-21a2.5 2.5 0 0 1 5 0v23.5a2.5 2.5 0 0 1 -2.5 2.5zm-54.5 0h-2.176a2.5 2.5 0 0 1 0-5h2.176a2.5 2.5 0 1 1 0 5z"/><path data-cppathid="10015" fill="#c5e5ff" d="m59.575 186.325a2.5 2.5 0 0 1 -.022-3.536 94.625 94.625 0 0 1 28.41-19.795 2.5 2.5 0 0 1 2.061 4.556 89.635 89.635 0 0 0 -26.914 18.75 2.5 2.5 0 0 1 -3.535.025z"/><path data-cppathid="10016" fill="#76ffba" d="m37.052 228.951a2.5 2.5 0 0 1 -1.814-3.035q.348-1.383.738-2.75a2.5 2.5 0 0 1 4.809 1.371q-.369 1.291-.7 2.6a2.5 2.5 0 0 1 -3.033 1.814zm3.648-12.231a2.5 2.5 0 0 1 -1.372-3.259 93.85 93.85 0 0 1 20.224-30.671 2.5 2.5 0 1 1 3.559 3.512 88.873 88.873 0 0 0 -19.157 29.045 2.5 2.5 0 0 1 -3.254 1.373z"/><path data-cppathid="10017" fill="#76ffba" d="m226.516 237.316q-.195-1.639-.448-3.266a2.5 2.5 0 1 1 4.942-.764q.264 1.713.47 3.439a2.5 2.5 0 1 1 -4.964.591zm-2.4-12.817a98.8 98.8 0 0 0 -28.523-47.962 2.5 2.5 0 0 1 3.4-3.665 103.806 103.806 0 0 1 29.965 50.385 2.5 2.5 0 0 1 -4.844 1.242z"/><path data-cppathid="10018" fill="#76ffba" d="m102.453 136.784q-.4-.9-.734-1.8a2.5 2.5 0 0 1 4.686-1.742q.285.765.619 1.52a2.5 2.5 0 1 1 -4.571 2.026zm-2.726-12.42a31.7 31.7 0 0 1 8.421-22l6.619-7.173a2.5 2.5 0 1 1 3.674 3.391l-6.618 7.173a26.709 26.709 0 0 0 -7.1 18.543 2.5 2.5 0 1 1 -5 .07z"/><path data-cppathid="10019" d="m78.483 20.949c6.285 2.076 7 5.147 8.075 9.8a2.5 2.5 0 0 0 4.871 0c1.791-7.72 4.427-8.591 8.076-9.8a2.5 2.5 0 0 0 0-4.748c-3.5-1.154-6.243-1.9-8.076-9.8a2.5 2.5 0 0 0 -4.87 0c-1.793 7.72-4.292 8.546-8.076 9.8a2.5 2.5 0 0 0 0 4.748zm10.517-6.676a12.756 12.756 0 0 0 3.742 4.327 12.372 12.372 0 0 0 -3.7 4.173 13 13 0 0 0 -3.914-4.139 12.388 12.388 0 0 0 3.872-4.361z"/><path data-cppathid="10020" d="m187.5 116.366a2.5 2.5 0 0 0 -4.87 0c-1.792 7.72-4.292 8.546-8.076 9.8a2.5 2.5 0 0 0 0 4.747c6.285 2.077 7 5.147 8.076 9.8a2.5 2.5 0 0 0 4.871 0c1.79-7.719 4.426-8.591 8.075-9.8a2.5 2.5 0 0 0 0-4.748c-3.501-1.157-6.239-1.904-8.076-9.799zm-2.385 16.366a12.982 12.982 0 0 0 -3.914-4.139 12.388 12.388 0 0 0 3.873-4.359 12.756 12.756 0 0 0 3.739 4.325 12.372 12.372 0 0 0 -3.694 4.173z"/><path data-cppathid="10021" d="m173.08 165.819c-3.505-1.154-6.243-1.9-8.076-9.8a2.5 2.5 0 0 0 -4.87 0c-1.793 7.72-4.292 8.546-8.076 9.8a2.5 2.5 0 0 0 0 4.747c6.285 2.077 7 5.147 8.075 9.8a2.5 2.5 0 0 0 4.872 0c1.79-7.719 4.426-8.591 8.075-9.8a2.5 2.5 0 0 0 0-4.747zm-10.461 6.57a12.982 12.982 0 0 0 -3.914-4.139 12.388 12.388 0 0 0 3.873-4.359 12.756 12.756 0 0 0 3.739 4.325 12.372 12.372 0 0 0 -3.698 4.173z"/><path data-cppathid="10022" d="m15.94 218.721a115.507 115.507 0 0 0 -4.05 30.3 2.5 2.5 0 0 0 5 0 110.234 110.234 0 0 1 3.88-28.99 2.508 2.508 0 0 0 -1.76-3.07 2.545 2.545 0 0 0 -3.07 1.76z"/><path data-cppathid="10023" d="m20.53 212.2a2.5 2.5 0 0 0 1.73-4.69 2.551 2.551 0 0 0 -3.21 1.48 2.507 2.507 0 0 0 1.48 3.21z"/><path data-cppathid="10024" d="m78.96 85.664h-73.399a2.5 2.5 0 1 0 0 5h73.4a7.558 7.558 0 0 0 6.571-3.9h7.28a5.5 5.5 0 0 0 4.03-1.764h11.3l-8.652 9.372c-10.522 11.428-14.936 29.063-8.034 44.568a116.3 116.3 0 0 0 -68.446 60.631 2.5 2.5 0 0 0 1.19 3.33 2.549 2.549 0 0 0 3.33-1.19 111.4 111.4 0 0 1 8.928-15.448c1.079 0 2.17-.014 3.287-.024 17.765-.165 39.878-.372 66.357 19.488a7.8 7.8 0 0 1 1.215 11.371c-26.643 30.687-25.369 28.961-26.244 30.888a2.5 2.5 0 0 0 4.552 2.069c.47-1.036-1.015.823 25.465-29.676a12.81 12.81 0 0 0 -1.992-18.654c-27.62-20.717-50.529-20.659-68.98-20.49a110.766 110.766 0 0 1 53.682-37.8 40.108 40.108 0 0 0 68.54-.04 111.059 111.059 0 0 1 16.766 7.048l2.833 19.5a2.5 2.5 0 0 0 4.951-.72l-2.29-15.734a111.062 111.062 0 0 1 54.625 95.542 2.505 2.505 0 0 0 2.5 2.49h.011a2.5 2.5 0 0 0 2.489-2.5 116.446 116.446 0 0 0 -79.557-110.121c6.785-15.315 2.647-32.919-8.028-44.527l-9.407-10.191a14.071 14.071 0 0 0 2.767-8.428v-22.19a14.261 14.261 0 0 0 -7.412-12.509l4.324-13.633a6.031 6.031 0 0 0 -5.752-7.859h-26.193a6.03 6.03 0 0 0 -5.752 7.859l4.324 13.633a14.321 14.321 0 0 0 -4.522 3.92h-12.161a5.479 5.479 0 0 0 -4.045-1.79h-7.279a7.558 7.558 0 0 0 -6.572-3.9h-73.399a2.5 2.5 0 0 0 0 5h73.4a2.5 2.5 0 0 1 2.5 2.5v36.379a2.5 2.5 0 0 1 -2.501 2.5zm36.007-61.1h26.194a1.032 1.032 0 0 1 .986 1.347l-4.293 13.535a14.889 14.889 0 0 0 -2.133-.16h-15.321a15.089 15.089 0 0 0 -2.127.159l-4.292-13.535a1.032 1.032 0 0 1 .986-1.347zm-3.857 48.386h16.948a2.5 2.5 0 0 0 0-5h-16.948v-6.581h16.948a2.5 2.5 0 0 0 0-5h-16.948v-2.8a9.336 9.336 0 0 1 9.29-9.278h15.316a9.288 9.288 0 0 1 9.284 9.273v22.19a9.3 9.3 0 0 1 -9.281 9.277h-15.319a9.3 9.3 0 0 1 -9.29-9.277zm1.39 14.691a14.318 14.318 0 0 0 7.9 2.394h15.321a14.338 14.338 0 0 0 7.909-2.394l9.33 10.12c10.02 10.853 13.452 27.6 6 41.47a35.106 35.106 0 0 1 -61.79.03l-.01-.01c-7.564-14.05-3.862-30.8 6.01-41.49zm-14.189-37.666h8.273a14.056 14.056 0 0 0 -.474 3.589v22.19a14.284 14.284 0 0 0 .641 4.246h-8.44zm-11.851-1.79h6.351a.51.51 0 0 1 .5.5v32.58a.509.509 0 0 1 -.5.5h-6.351z"/><path data-cppathid="10025" d="m252.939 82.491a2.508 2.508 0 0 0 -2.5-2.5h-12.479a89.263 89.263 0 0 0 -22.47 3.03 2.5 2.5 0 1 0 1.239 4.84 85.95 85.95 0 0 1 21.231-2.87h12.479a2.5 2.5 0 0 0 2.5-2.5z"/><path data-cppathid="10026" d="m181.37 90.031h14.94a2.5 2.5 0 0 0 0-5h-14.94a10.091 10.091 0 0 1 -10.06-10.05v-.5h22.84a2.5 2.5 0 0 0 0-5h-22.84v-9.649h22.84a2.5 2.5 0 0 0 0-5h-22.84v-.511a10.091 10.091 0 0 1 10.06-10.05h22.43a2.509 2.509 0 0 0 2.26-3.56l-2.32-4.97a4.612 4.612 0 1 1 8.36-3.9l3.87 8.31a17.078 17.078 0 0 0 15.42 9.82h19.049a2.5 2.5 0 0 0 0-5h-19.049a12.064 12.064 0 0 1 -10.89-6.93l-3.87-8.31a9.612 9.612 0 1 0 -17.42 8.13l.66 1.41h-18.5a15.073 15.073 0 0 0 -15.06 15.05v20.66a15.073 15.073 0 0 0 15.06 15.05z"/><path data-cppathid="10027" d="m203.81 87.561a2.5 2.5 0 0 0 4.98-.46 2.5 2.5 0 0 0 -4.98.46z"/><path data-cppathid="10028" d="m69.231 101.515h-37.5a2.5 2.5 0 0 0 0 5h37.5a2.5 2.5 0 0 0 0-5z"/><path data-cppathid="10029" d="m22.063 32.685h37.5a2.5 2.5 0 0 0 0-5h-37.5a2.5 2.5 0 1 0 0 5z"/><path data-cppathid="10030" d="m49.731 117.193a2.5 2.5 0 0 0 2.5 2.5h26.5a2.5 2.5 0 0 0 0-5h-26.5a2.5 2.5 0 0 0 -2.5 2.5z"/><path data-cppathid="10031" d="m171.6 220.531a24.627 24.627 0 0 0 -9.08 29.41 2.5 2.5 0 0 0 4.65-1.84 19.613 19.613 0 0 1 7.24-23.43c11.052-7.237 18.278-15.183 16.3-29.22l-.94-6.44a2.5 2.5 0 0 0 -4.951.71v.01l.941 6.43c2.006 14.055-8.176 20.448-14.16 24.37z"/><path data-cppathid="10032" d="m186.22 181.951a2.5 2.5 0 1 0 -2.84-2.12 2.506 2.506 0 0 0 2.84 2.12z"/><path data-cppathid="10033" d="m124.692 125.906h6.734a3.547 3.547 0 1 1 -.045 7.093h-7.029a5 5 0 0 1 -3.786-1.842 2.5 2.5 0 1 0 -3.84 3.2c2.5 3 5.373 3.641 8.833 3.641v3.366a2.5 2.5 0 0 0 5 0v-3.364c6.271 0 9.414-4.222 9.414-8.546a8.556 8.556 0 0 0 -8.547-8.547h-6.734a3.547 3.547 0 1 1 .045-7.093h6.443a5.081 5.081 0 0 1 4.189 2.4 2.473 2.473 0 0 0 3.436.727 2.527 2.527 0 0 0 .739-3.479 10.026 10.026 0 0 0 -8.985-4.646v-3.366a2.5 2.5 0 0 0 -5 0v3.366c-6.257 0-9.413 4.21-9.413 8.546a8.556 8.556 0 0 0 8.546 8.544z"/></svg>