<?xml version="1.0" encoding="UTF-8"?>
<svg xmlns="http://www.w3.org/2000/svg" onmouseup="{ if(window.parent.document.onmouseup) window.parent.document.onmouseup(arguments[0]);}" xml:space="preserve" style="enable-background:new 0 0 512 512;" viewBox="0 0 512 512" y="0px" x="0px" id="Capa_1" version="1.1" xmlns:xlink="http://www.w3.org/1999/xlink"><path data-cppathid="10000" d="M432.003,512h-352c-2.209,0-4-1.791-4-4V4c0-2.209,1.791-4,4-4h352c2.209,0,4,1.791,4,4v504  C436.003,510.209,434.212,512,432.003,512z" style="fill:#E0F3FC;"/><path data-cppathid="10001" d="M432.003,512h-26.857V0h26.857c2.209,0,4,1.791,4,4v504C436.003,510.209,434.212,512,432.003,512z" style="fill:#ABBFCF;"/><path data-cppathid="10002" d="M436.003,53.569h-360V4c0-2.209,1.791-4,4-4h352c2.209,0,4,1.791,4,4V53.569z" style="fill:#E53366;"/><path data-cppathid="10003" d="M436.003,53.569h-30.857V0h26.857c2.209,0,4,1.791,4,4V53.569z" style="fill:#CE2960;"/><path data-cppathid="10004" d="M217.673,164.87h-54.014c-2.209,0-4-1.791-4-4v-54.014c0-2.209,1.791-4,4-4h54.014  c2.209,0,4,1.791,4,4v54.014C221.673,163.079,219.882,164.87,217.673,164.87z" style="fill:#FAC55A;"/><g><path data-cppathid="10005" d="M382.714,208.38H129.293c-4.143,0-7.5-3.357-7.5-7.5s3.357-7.5,7.5-7.5h253.421   c4.143,0,7.5,3.357,7.5,7.5S386.856,208.38,382.714,208.38z" style="fill:#5A6570;"/><path data-cppathid="10006" d="M382.714,240.374H129.293c-4.143,0-7.5-3.357-7.5-7.5s3.357-7.5,7.5-7.5h253.421   c4.143,0,7.5,3.357,7.5,7.5S386.856,240.374,382.714,240.374z" style="fill:#5A6570;"/><path data-cppathid="10007" d="M382.714,272.369H129.293c-4.143,0-7.5-3.357-7.5-7.5s3.357-7.5,7.5-7.5h253.421   c4.143,0,7.5,3.357,7.5,7.5S386.856,272.369,382.714,272.369z" style="fill:#5A6570;"/><path data-cppathid="10008" d="M382.714,304.364H129.293c-4.143,0-7.5-3.357-7.5-7.5s3.357-7.5,7.5-7.5h253.421   c4.143,0,7.5,3.357,7.5,7.5S386.856,304.364,382.714,304.364z" style="fill:#5A6570;"/><path data-cppathid="10009" d="M241.236,436.357H129.293c-4.143,0-7.5-3.357-7.5-7.5s3.357-7.5,7.5-7.5h111.943   c4.143,0,7.5,3.357,7.5,7.5S245.379,436.357,241.236,436.357z" style="fill:#5A6570;"/><path data-cppathid="10010" d="M241.236,467.476H129.293c-4.143,0-7.5-3.357-7.5-7.5s3.357-7.5,7.5-7.5h111.943   c4.143,0,7.5,3.357,7.5,7.5S245.379,467.476,241.236,467.476z" style="fill:#5A6570;"/></g><path data-cppathid="10011" d="M88.011,442.082c0.137-0.535,0.383-1.037,0.723-1.472l47.599-60.987  c2.407-3.084,3.554-6.966,3.211-10.863l4.626-49.865c-0.135-1.537-0.491-3.041-1.058-4.475c-4.231-10.689-7.779-52.913-9.958-60.437  c-0.889-3.068-9.663-7.224-13.049-5.838c-8.228,3.37-15.481,15.209-14.422,24.038l-1.717,45.671  c-10.989,19.23-28.478,7.379-28.242-0.331V190.546l-17.666,10.541c-0.61,0.364-1.111,0.883-1.454,1.505l-29.198,53  c-0.149,0.271-0.267,0.558-0.35,0.857L7.59,326.318c-0.302,0.729-0.388,1.53-0.248,2.307l16.656,92.368  c0.084,0.465,0.085,0.942,0.002,1.408l-7.086,39.988l61.582,16.998L88.011,442.082z" style="fill:#FFC9BD;"/><path data-cppathid="10012" d="M144.17,318.894c-0.135-1.537-0.49-3.041-1.058-4.475c-4.231-10.69-7.779-52.913-9.958-60.438  c-0.783-2.702-7.677-6.243-11.625-6.104c-0.319,8.731-1.186,29.227,2.023,46.313c5.742,30.574-8.167,59.677-17.093,74.163  L58.345,430l-10.937,40.804l31.089,8.581l9.515-37.305c0.137-0.535,0.383-1.037,0.723-1.472l47.599-60.987  c2.407-3.084,3.555-6.966,3.211-10.863L144.17,318.894z" style="fill:#FFB0A2;"/><path data-cppathid="10013" d="M423.993,442.082c-0.137-0.535-0.383-1.037-0.723-1.472l-47.599-60.987  c-2.407-3.084-3.554-6.966-3.211-10.863l-4.626-49.865c0.135-1.537,0.491-3.041,1.058-4.475c4.231-10.689,7.779-52.913,9.958-60.437  c0.889-3.068,9.663-7.224,13.049-5.838c8.228,3.37,15.481,15.209,14.422,24.038l1.717,45.671  c10.988,19.23,28.478,7.379,28.242-0.331V190.546l17.666,10.541c0.61,0.364,1.111,0.883,1.454,1.505l29.198,53  c0.149,0.271,0.267,0.558,0.35,0.857l19.466,69.869c0.302,0.729,0.388,1.53,0.248,2.307l-16.656,92.368  c-0.084,0.465-0.085,0.942-0.002,1.408l7.086,39.988l-61.582,16.998L423.993,442.082z" style="fill:#FFC9BD;"/><path data-cppathid="10014" d="M504.415,326.318l-19.466-69.869c-0.083-0.298-0.2-0.586-0.35-0.857l-29.198-53  c-0.343-0.622-0.844-1.141-1.454-1.505l-17.666-10.541v33.435l16.662,30.246c0.649,1.178,1.159,2.428,1.52,3.724l19.048,68.368  c0.302,0.729,0.388,1.53,0.247,2.306l-16.197,89.821c-0.387,2.146-0.351,4.348,0.107,6.48l9.679,45.12l27.742-7.657l-7.086-39.988  c-0.083-0.466-0.082-0.942,0.002-1.408l16.656-92.368C504.802,327.848,504.716,327.047,504.415,326.318z" style="fill:#FFB0A2;"/><path data-cppathid="10015" d="M107.348,478.828v29.051c0,2.277-1.844,4.121-4.121,4.121H4.125c-2.689,0-4.656-2.524-3.997-5.13  l12.764-50.376c0.556-2.205,2.781-3.534,4.976-2.998l57.041,14.093l29.308,7.242C106.05,475.284,107.348,476.933,107.348,478.828z" style="fill:#5A6570;"/><path data-cppathid="10016" d="M107.348,478.828v29.051c0,2.277-1.844,4.121-4.121,4.121H72.322c2.277,0,4.121-2.256,4.121-5.038  v-35.479c0-1.555-0.597-2.967-1.535-3.894l29.308,7.242C106.05,475.284,107.348,476.933,107.348,478.828z" style="fill:#4A535C;"/><path data-cppathid="10017" d="M407.792,474.827l86.34-21.327c2.2-0.543,4.426,0.792,4.983,2.989l12.756,50.379  c0.659,2.604-1.309,5.132-3.995,5.132h-99.097c-2.276,0-4.121-1.845-4.121-4.121v-29.052  C404.66,476.932,405.953,475.281,407.792,474.827z" style="fill:#5A6570;"/><path data-cppathid="10018" d="M511.872,506.868l-12.756-50.379c-0.556-2.197-2.782-3.533-4.983-2.989l-25.109,6.202l11.943,47.166  c0.659,2.604-1.309,5.132-3.994,5.132h30.905C510.563,512,512.531,509.472,511.872,506.868z" style="fill:#4A535C;"/><g><circle data-cppathid="10019" r="7.5" cy="488.03" cx="33.05" style="fill:#A64C3C;"/><circle data-cppathid="10020" r="7.5" cy="488.03" cx="478.95" style="fill:#A64C3C;"/></g><g/><g/><g/><g/><g/><g/><g/><g/><g/><g/><g/><g/><g/><g/><g/></svg>