<?xml version="1.0" encoding="UTF-8"?>
<svg xmlns="http://www.w3.org/2000/svg" onmouseup="{ if(window.parent.document.onmouseup) window.parent.document.onmouseup(arguments[0]);}" width="512" viewBox="0 0 64 64" height="512" enable-background="new 0 0 64 64" id="Layer_5"><g><g><g><path data-cppathid="10000" fill="#dfb28b" d="m52 4v12h-4v12h-8v-24z"/></g><g><path data-cppathid="10001" fill="#ecc19c" d="m52 16h8v12h-12v-12z"/></g><g><path data-cppathid="10002" fill="#ccd1d9" d="m14 28h-8l-2-20h3.1c.46 2.28 2.48 4 4.9 4s4.44-1.72 4.9-4h3.1l-.8 8h-5.2z"/></g><g><path data-cppathid="10003" fill="#e6e9ed" d="m24 16v12h-10v-12h5.2z"/></g><g><path data-cppathid="10004" fill="#ff826e" d="m12 2c2.76 0 5 2.24 5 5 0 .34-.03.68-.1 1-.46 2.28-2.48 4-4.9 4s-4.44-1.72-4.9-4c-.07-.32-.1-.66-.1-1 0-2.76 2.24-5 5-5z"/></g><g><path data-cppathid="10005" fill="#fcd770" d="m24 47v1h-2-16-2v-1l9-7h2z"/></g><g><path data-cppathid="10006" fill="#e6e9ed" d="m6 48h16v10h-16z"/></g><g><path data-cppathid="10007" fill="#b27946" d="m10 52h8v6h-8z"/></g><g><path data-cppathid="10008" fill="#aab2bd" d="m63 28v8h-27v27h-8v-27h-27v-8h5 8 10 4v-27h8v27h4 8 12z"/></g><g><path data-cppathid="10009" fill="#b4dd7f" d="m52 52-.67-1.6 2.29-5.48c.23-.56.77-.92 1.38-.92s1.15.36 1.38.92l4.62 11.08h-6-6l1.67-4z"/></g><g><path data-cppathid="10010" fill="#a0d468" d="m51.33 50.4.67 1.6h-1.33-4.67-6l4.62-11.08c.23-.56.77-.92 1.38-.92s1.15.36 1.38.92z"/></g></g><g><path data-cppathid="10011" d="m35 63h2v-26h26v-2h-28z"/><path data-cppathid="10012" d="m1 37h26v26h2v-28h-28z"/><path data-cppathid="10013" d="m27 27h-2v-12h-4.695l.8-8h-3.105c0-3.309-2.691-6-6-6s-6 2.691-6 6h-3.105l2 20h-3.895v2h28v-28h-2zm-4 0h-8v-10h8zm-11-24c2.206 0 4 1.794 4 4s-1.794 4-4 4-4-1.794-4-4 1.794-4 4-4zm-6.895 6h1.245c.826 2.327 3.043 4 5.65 4s4.824-1.673 5.65-4h1.245l-.6 6h-5.295v12h-6.095z"/><path data-cppathid="10014" d="m61 27v-12h-8v-12h-14v24h-2v-26h-2v28h28v-2zm-2 0h-10v-10h10zm-18-22h10v10h-4v12h-6z"/><path data-cppathid="10015" d="m12.657 39-9.657 7.511v2.489h2v10h18v-10h2v-2.489l-9.657-7.511zm4.343 18h-6v-4h6zm4 0h-2v-6h-10v6h-2v-8h14zm-15.371-10 7.714-6h1.313l7.714 6z"/><path data-cppathid="10016" d="m11 10h2v-2h2v-2h-2v-2h-2v2h-2v2h2z"/><path data-cppathid="10017" d="m17 19h4v2h-4z"/><path data-cppathid="10018" d="m17 23h4v2h-4z"/><path data-cppathid="10019" d="m9 19h2v2h-2z"/><path data-cppathid="10020" d="m9 15h2v2h-2z"/><path data-cppathid="10021" d="m9 23h2v2h-2z"/><path data-cppathid="10022" d="m56 57h6.5l-5.192-12.462c-.39-.934-1.296-1.538-2.308-1.538s-1.918.604-2.308 1.538l-1.359 3.262-3.026-7.262c-.389-.934-1.295-1.538-2.307-1.538s-1.918.604-2.308 1.538l-5.192 12.462h6.5v8h-6v2h24v-2h-7zm-1.462-11.692c.156-.373.768-.373.924 0l4.038 9.692h-9l.833-2h2.167l-1.083-2.599zm-9-4c.156-.373.768-.373.924 0l4.038 9.692h-9zm1.462 11.692h2.167l-1.667 4h6.5v4h-7z"/><path data-cppathid="10023" d="m51 23h2v2h-2z"/><path data-cppathid="10024" d="m51 19h2v2h-2z"/><path data-cppathid="10025" d="m55 23h2v2h-2z"/><path data-cppathid="10026" d="m55 19h2v2h-2z"/><path data-cppathid="10027" d="m43 7h2v2h-2z"/><path data-cppathid="10028" d="m47 7h2v2h-2z"/><path data-cppathid="10029" d="m43 11h2v2h-2z"/><path data-cppathid="10030" d="m47 11h2v2h-2z"/><path data-cppathid="10031" d="m43 23h2v2h-2z"/><path data-cppathid="10032" d="m43 15h2v2h-2z"/><path data-cppathid="10033" d="m43 19h2v2h-2z"/></g></g></svg>