<?xml version="1.0" encoding="UTF-8"?>
<svg xmlns="http://www.w3.org/2000/svg" onmouseup="{ if(window.parent.document.onmouseup) window.parent.document.onmouseup(arguments[0]);}" xml:space="preserve" style="enable-background:new 0 0 476.475 476.475;" viewBox="0 0 476.475 476.475" y="0px" x="0px" id="Capa_1" version="1.1" xmlns:xlink="http://www.w3.org/1999/xlink"><g><g><path data-cppathid="10000" d="M458.283,298.32c9.198,11.165,7.807,27.63-3.135,37.094l-74.188,61.649    c-27.862,23.371-63.454,35.484-99.788,33.959l-107.624-5.224c-12.057-0.607-24.143,0.094-36.049,2.09l-44.931,8.359h-3.135    V303.544h2.09l46.498-22.465c23.521-12.209,49.792-18.147,76.278-17.241l71.053,3.135h1.567    c13.287-0.096,24.528,9.797,26.122,22.988c1.62,13.856-7.722,26.616-21.42,29.257l-52.767,9.927    c-8.501,1.634-14.067,9.849-12.434,18.35c0.351,1.824,1.023,3.571,1.985,5.16l5.747,9.927c2.675,4.918,8.006,7.788,13.584,7.314    l51.2-1.567c19.24-0.448,37.792-7.244,52.767-19.331l68.441-55.38c11.692-9.356,28.75-7.487,38.139,4.18L458.283,298.32z" style="fill:#EDB288;"/><path data-cppathid="10001" d="M320.356,0.001c66.941-0.289,121.441,53.744,121.729,120.685s-53.744,121.441-120.685,121.73    S199.96,188.671,199.672,121.731c-0.001-0.174-0.001-0.348-0.001-0.521C199.382,54.557,253.181,0.291,319.833,0.002    C320.007,0.002,320.182,0.001,320.356,0.001z" style="fill:#FEDB41;"/><path data-cppathid="10002" d="M94.659,436.246v19.331c0,11.542-9.356,20.898-20.898,20.898H33.01    c-11.542,0-20.898-9.356-20.898-20.898V303.022c0-11.542,9.356-20.898,20.898-20.898h40.751c11.542,0,20.898,9.356,20.898,20.898    l0,0V436.246z" style="fill:#00ACEA;"/></g><path data-cppathid="10003" d="M359.54,91.952h-13.061c-1.214-5.456-3.147-10.726-5.747-15.673h18.808   c5.771,0,10.449-4.678,10.449-10.449c0-5.771-4.678-10.449-10.449-10.449h-78.367c-5.771,0-10.449,4.678-10.449,10.449   c0,5.771,4.678,10.449,10.449,10.449h22.465c9.52,0.116,17.822,6.501,20.376,15.673h-42.841c-5.771,0-10.449,4.678-10.449,10.449   c0,5.771,4.678,10.449,10.449,10.449h42.841c-1.045,0-2.09,3.135-4.18,4.702c-4.393,4.038-10.24,6.113-16.196,5.747h-22.465   c-4.243-0.005-8.108,2.436-9.927,6.269c-1.58,4.004-0.543,8.566,2.612,11.494l55.902,52.767c1.929,1.969,4.558,3.095,7.314,3.135   c2.976-0.204,5.769-1.508,7.837-3.657c3.841-4.204,3.609-10.709-0.522-14.629l-37.094-35.004   c10.131-0.494,19.758-4.567,27.167-11.494c5.364-5.493,9.465-12.09,12.016-19.331h13.061c5.771,0,10.449-4.678,10.449-10.449   C369.989,96.63,365.311,91.952,359.54,91.952z" style="fill:#3BB54A;"/></g><g/><g/><g/><g/><g/><g/><g/><g/><g/><g/><g/><g/><g/><g/><g/></svg>