<?xml version="1.0" encoding="UTF-8"?>
<svg xmlns="http://www.w3.org/2000/svg" onmouseup="{ if(window.parent.document.onmouseup) window.parent.document.onmouseup(arguments[0]);}" width="512" viewBox="0 0 128 128" height="512"><g id="number"><text data-cppathid="10000" transform="translate(56.724 -966.265)" letter-spacing=".002em" font-size="40" font-family="MyriadPro-Regular, Myriad Pro" fill="#24253a">6<tspan data-cppathid="10001" y="228" x="-10.3">16</tspan><tspan data-cppathid="10002" y="456" x="-10.3">26</tspan><tspan data-cppathid="10003" y="684" x="-10.3">36</tspan><tspan data-cppathid="10004" y="912" x="-10.3">46</tspan><tspan data-cppathid="10005" y="1140" x="-10.3">56</tspan><tspan data-cppathid="10006" y="1368" x="-10.3">66</tspan><tspan data-cppathid="10007" y="1596" x="-10.3">76</tspan><tspan data-cppathid="10008" y="1824" x="-10.3">86</tspan><tspan data-cppathid="10009" y="2052" x="-10.3">96</tspan><tspan data-cppathid="10010" y="2280" x="-20.599">106</tspan><tspan data-cppathid="10011" y="2508" x="-20.599">116</tspan><tspan data-cppathid="10012" y="2736" x="-20.599">126</tspan><tspan data-cppathid="10013" y="2964" x="-20.599">136</tspan><tspan data-cppathid="10014" y="3192" x="-20.599">146</tspan><tspan data-cppathid="10015" y="3420" x="-20.599">156</tspan><tspan data-cppathid="10016" y="3648" x="-20.599">166</tspan><tspan data-cppathid="10017" y="3876" x="-20.599">176</tspan><tspan data-cppathid="10018" y="4104" x="-20.599">186</tspan><tspan data-cppathid="10019" y="4332" x="-20.599">196</tspan><tspan data-cppathid="10020" y="4560" x="-20.599">206</tspan><tspan data-cppathid="10021" y="4788" x="-20.599">216</tspan><tspan data-cppathid="10022" y="5016" x="-20.599">226</tspan><tspan data-cppathid="10023" y="5244" x="-20.599">236</tspan><tspan data-cppathid="10024" y="5472" x="-20.599">246</tspan></text></g><g data-name="Circle Grid" id="Circle_Grid"><circle data-cppathid="10025" r="64" fill="#ef5261" cy="64" cx="64"/></g><g id="icon"><path data-cppathid="10026" fill="#eeefee" d="m82.762 94.089h-37.524a174.431 174.431 0 0 1 0-26.525v-35.073h37.524v35.073a200.9 200.9 0 0 1 0 26.525z"/><path data-cppathid="10027" fill="#62667c" d="m64 77.583a5.577 5.577 0 0 0 -5.577 5.577v11.929h11.154v-11.929a5.577 5.577 0 0 0 -5.577-5.577z"/><path data-cppathid="10028" fill="#69b0ee" d="m48.361 47.32h7.658v7.658h-7.658z"/><g opacity=".3" fill="#eeefee"><path data-cppathid="10029" d="m56.019 47.32v.478l-6.023 7.18h-1.635v-.105l6.348-7.553z"/><path data-cppathid="10030" d="m56.019 48.879v1.013l-4.264 5.086h-.86z"/></g><path data-cppathid="10031" fill="#69b0ee" d="m60.23 47.32h7.658v7.658h-7.658z"/><g opacity=".3" fill="#eeefee"><path data-cppathid="10032" d="m67.888 47.32v.478l-6.023 7.18h-1.635v-.105l6.348-7.553z"/><path data-cppathid="10033" d="m67.888 48.879v1.013l-4.264 5.086h-.86z"/></g><path data-cppathid="10034" fill="#69b0ee" d="m72.099 47.32h7.658v7.658h-7.658z"/><g opacity=".3" fill="#eeefee"><path data-cppathid="10035" d="m79.757 47.32v.478l-6.023 7.18h-1.635v-.105l6.348-7.553z"/><path data-cppathid="10036" d="m79.757 48.879v1.013l-4.264 5.086h-.861z"/></g><path data-cppathid="10037" fill="#69b0ee" d="m48.361 36.369h7.658v7.658h-7.658z"/><g opacity=".3" fill="#eeefee"><path data-cppathid="10038" d="m56.019 36.369v.478l-6.023 7.18h-1.635v-.105l6.348-7.553z"/><path data-cppathid="10039" d="m56.019 37.928v1.013l-4.264 5.086h-.86z"/></g><path data-cppathid="10040" fill="#69b0ee" d="m60.23 36.369h7.658v7.658h-7.658z"/><g opacity=".3" fill="#eeefee"><path data-cppathid="10041" d="m67.888 36.369v.478l-6.023 7.18h-1.635v-.105l6.348-7.553z"/><path data-cppathid="10042" d="m67.888 37.928v1.013l-4.264 5.086h-.86z"/></g><path data-cppathid="10043" fill="#69b0ee" d="m72.099 36.369h7.658v7.658h-7.658z"/><g opacity=".3" fill="#eeefee"><path data-cppathid="10044" d="m79.757 36.369v.478l-6.023 7.18h-1.635v-.105l6.348-7.553z"/><path data-cppathid="10045" d="m79.757 37.928v1.013l-4.264 5.086h-.861z"/></g><path data-cppathid="10046" fill="#69b0ee" d="m48.361 58.272h7.658v7.658h-7.658z"/><g opacity=".3" fill="#eeefee"><path data-cppathid="10047" d="m56.019 58.272v.478l-6.023 7.179h-1.635v-.105l6.348-7.552z"/><path data-cppathid="10048" d="m56.019 59.83v1.013l-4.264 5.086h-.86z"/></g><path data-cppathid="10049" fill="#69b0ee" d="m60.23 58.272h7.658v7.658h-7.658z"/><g opacity=".3" fill="#eeefee"><path data-cppathid="10050" d="m67.888 58.272v.478l-6.023 7.179h-1.635v-.105l6.348-7.552z"/><path data-cppathid="10051" d="m67.888 59.83v1.013l-4.264 5.086h-.86z"/></g><path data-cppathid="10052" fill="#69b0ee" d="m72.099 58.272h7.658v7.658h-7.658z"/><g opacity=".3" fill="#eeefee"><path data-cppathid="10053" d="m79.757 58.272v.478l-6.023 7.179h-1.635v-.105l6.348-7.552z"/><path data-cppathid="10054" d="m79.757 59.83v1.013l-4.264 5.086h-.861z"/></g><path data-cppathid="10055" fill="#69b0ee" d="m48.361 69.223h7.658v7.658h-7.658z"/><g opacity=".3" fill="#eeefee"><path data-cppathid="10056" d="m56.019 69.223v.478l-6.023 7.179h-1.635v-.105l6.348-7.552z"/><path data-cppathid="10057" d="m56.019 70.781v1.013l-4.264 5.086h-.86z"/></g><path data-cppathid="10058" fill="#69b0ee" d="m72.099 69.223h7.658v7.658h-7.658z"/><g opacity=".3" fill="#eeefee"><path data-cppathid="10059" d="m79.757 69.223v.478l-6.023 7.179h-1.635v-.105l6.348-7.552z"/><path data-cppathid="10060" d="m79.757 70.781v1.013l-4.264 5.086h-.861z"/></g><path data-cppathid="10061" fill="#dbd8dd" d="m25.6 67.564h19.638v26.525h-19.638z"/><path data-cppathid="10062" fill="#69b0ee" d="m28.783 78.224h5.205v5.205h-5.205z"/><g opacity=".3" fill="#eeefee"><path data-cppathid="10063" d="m33.988 78.224v.325l-4.094 4.88h-1.111v-.072l4.315-5.133z"/><path data-cppathid="10064" d="m33.988 79.283v.689l-2.898 3.457h-.585z"/></g><path data-cppathid="10065" fill="#69b0ee" d="m36.85 78.224h5.205v5.205h-5.205z"/><g opacity=".3" fill="#eeefee"><path data-cppathid="10066" d="m42.055 78.224v.325l-4.094 4.88h-1.111v-.072l4.315-5.133z"/><path data-cppathid="10067" d="m42.055 79.283v.689l-2.898 3.457h-.585z"/></g><path data-cppathid="10068" fill="#69b0ee" d="m28.783 70.781h5.205v5.205h-5.205z"/><g opacity=".3" fill="#eeefee"><path data-cppathid="10069" d="m33.988 70.781v.325l-4.094 4.88h-1.111v-.072l4.315-5.133z"/><path data-cppathid="10070" d="m33.988 71.84v.689l-2.898 3.457h-.585z"/></g><path data-cppathid="10071" fill="#69b0ee" d="m36.85 70.781h5.205v5.205h-5.205z"/><g opacity=".3" fill="#eeefee"><path data-cppathid="10072" d="m42.055 70.781v.325l-4.094 4.88h-1.111v-.072l4.315-5.133z"/><path data-cppathid="10073" d="m42.055 71.84v.689l-2.898 3.457h-.585z"/></g><path data-cppathid="10074" fill="#69b0ee" d="m28.783 85.667h5.205v5.205h-5.205z"/><g opacity=".3" fill="#eeefee"><path data-cppathid="10075" d="m33.988 85.667v.325l-4.094 4.88h-1.111v-.071l4.315-5.134z"/><path data-cppathid="10076" d="m33.988 86.727v.688l-2.898 3.457h-.585z"/></g><path data-cppathid="10077" fill="#69b0ee" d="m36.85 85.667h5.205v5.205h-5.205z"/><g opacity=".3" fill="#eeefee"><path data-cppathid="10078" d="m42.055 85.667v.325l-4.094 4.88h-1.111v-.071l4.315-5.134z"/><path data-cppathid="10079" d="m42.055 86.727v.688l-2.898 3.457h-.585z"/></g><path data-cppathid="10080" fill="#dbd8dd" d="m82.762 67.564h19.638v26.525h-19.638z"/><path data-cppathid="10081" fill="#69b0ee" d="m85.945 78.224h5.205v5.205h-5.205z"/><g opacity=".3" fill="#eeefee"><path data-cppathid="10082" d="m91.15 78.224v.325l-4.094 4.88h-1.111v-.072l4.315-5.133z"/><path data-cppathid="10083" d="m91.15 79.283v.689l-2.898 3.457h-.585z"/></g><path data-cppathid="10084" fill="#69b0ee" d="m94.012 78.224h5.205v5.205h-5.205z"/><g opacity=".3" fill="#eeefee"><path data-cppathid="10085" d="m99.217 78.224v.325l-4.094 4.88h-1.111v-.072l4.315-5.133z"/><path data-cppathid="10086" d="m99.217 79.283v.689l-2.898 3.457h-.585z"/></g><path data-cppathid="10087" fill="#69b0ee" d="m85.945 70.781h5.205v5.205h-5.205z"/><g opacity=".3" fill="#eeefee"><path data-cppathid="10088" d="m91.15 70.781v.325l-4.094 4.88h-1.111v-.072l4.315-5.133z"/><path data-cppathid="10089" d="m91.15 71.84v.689l-2.898 3.457h-.585z"/></g><path data-cppathid="10090" fill="#69b0ee" d="m94.012 70.781h5.205v5.205h-5.205z"/><g opacity=".3" fill="#eeefee"><path data-cppathid="10091" d="m99.217 70.781v.325l-4.094 4.88h-1.111v-.072l4.315-5.133z"/><path data-cppathid="10092" d="m99.217 71.84v.689l-2.898 3.457h-.585z"/></g><path data-cppathid="10093" fill="#69b0ee" d="m85.945 85.667h5.205v5.205h-5.205z"/><g opacity=".3" fill="#eeefee"><path data-cppathid="10094" d="m91.15 85.667v.325l-4.094 4.88h-1.111v-.071l4.315-5.134z"/><path data-cppathid="10095" d="m91.15 86.727v.688l-2.898 3.457h-.585z"/></g><path data-cppathid="10096" fill="#69b0ee" d="m94.012 85.667h5.205v5.205h-5.205z"/><g opacity=".3" fill="#eeefee"><path data-cppathid="10097" d="m99.217 85.667v.325l-4.094 4.88h-1.111v-.071l4.315-5.134z"/><path data-cppathid="10098" d="m99.217 86.727v.688l-2.898 3.457h-.585z"/></g><rect data-cppathid="10099" y="30.99" x="43.367" width="41.2" rx=".508" height="2.933" fill="#dbd8dd"/><path data-cppathid="10100" fill="#bbbbcd" d="m45.238 65.123h-20.691a.614.614 0 0 0 -.614.614v1.706a.614.614 0 0 0 .614.614h20.691z"/><path data-cppathid="10101" fill="#bbbbcd" d="m82.762 68.057h20.691a.614.614 0 0 0 .614-.614v-1.706a.614.614 0 0 0 -.614-.614h-20.691z"/><path data-cppathid="10102" fill="#575b6d" d="m23 94.089h82v2.921h-82z"/></g></svg>