<?xml version="1.0" encoding="UTF-8"?>
<svg xmlns="http://www.w3.org/2000/svg" onmouseup="{ if(window.parent.document.onmouseup) window.parent.document.onmouseup(arguments[0]);}" width="512" viewBox="0 0 512 512" height="512" enable-background="new 0 0 512 512" id="Layer_1"><g><path data-cppathid="10000" fill="rgb(0,0,0)" d="m494.5 123.27c9.649 0 17.5-7.859 17.5-17.52v-10.02c0-9.666-7.851-17.53-17.5-17.53h-140.308c-10.262-44.733-50.391-78.2-98.192-78.2-14.055 0-27.657 2.841-40.431 8.443-3.793 1.663-5.52 6.087-3.855 9.881 1.663 3.794 6.087 5.52 9.881 3.855 10.862-4.763 22.437-7.179 34.405-7.179 47.274 0 85.735 38.461 85.735 85.735 0 47.275-38.461 85.736-85.735 85.736s-85.735-38.461-85.735-85.736c0-22.867 8.896-44.374 25.048-60.561 2.926-2.932 2.921-7.681-.011-10.606s-7.681-2.922-10.606.011c-13.554 13.583-22.756 30.356-26.911 48.621h-140.285c-9.649 0-17.5 7.864-17.5 17.53v10.02c0 9.66 7.851 17.52 17.5 17.52h12.5v108.698l-28.814 44.952c-.426.736-1.054 1.761-1.186 4.048v38.063c0 7.995 6.505 14.5 14.5 14.5h15.5v133.407h-12.5c-9.649 0-17.5 7.859-17.5 17.521v10.021c0 9.661 7.851 17.52 17.5 17.52h477c9.649 0 17.5-7.859 17.5-17.521v-10.021c0-9.661-7.851-17.521-17.5-17.521h-12.5v-133.407h15.5c7.995 0 14.5-6.505 14.5-14.5v-38.063c-.201-1.274.28-1.149-1.186-4.048l-28.814-44.951v-108.698zm-231 77.922c44.453-3.287 80.972-35.55 90.692-77.923h14.308v103.396h-105zm-105.692-77.922c9.72 42.373 46.239 74.636 90.692 77.923v25.473h-105v-103.396zm-140.308-15c-1.379 0-2.5-1.13-2.5-2.52v-10.02c0-1.396 1.121-2.53 2.5-2.53h138.041c-.183 2.495-.276 5.008-.276 7.535 0 2.534.096 5.046.281 7.534h-138.046zm111 15v103.396h-83.5v-103.396zm366 358.668c1.379 0 2.5 1.131 2.5 2.521v10.021c0 1.39-1.121 2.521-2.5 2.521h-477c-1.379 0-2.5-1.131-2.5-2.521v-10.021c0-1.39 1.121-2.521 2.5-2.521zm-449.5-15v-133.408h135.572v133.407h-135.572zm150.572 0v-133.408h52.928v133.407h-52.928zm128.356-89.203c4.143 0 7.5-3.357 7.5-7.5v-36.705h135.572v133.407h-135.572v-61.702c0-4.143-3.357-7.5-7.5-7.5s-7.5 3.357-7.5 7.5v61.702h-52.928v-133.407h52.928v36.705c0 4.143 3.357 7.5 7.5 7.5zm173.072-59.205h-482v-30.063h482zm-6.216-45.062h-469.568l20.385-31.803h428.799zm-107.284-46.803v-103.395h83.5v103.396h-83.5zm-27.046-118.395c.185-2.488.281-5 .281-7.534 0-2.535-.096-5.047-.281-7.535h138.046c1.379 0 2.5 1.135 2.5 2.53v10.02c0 1.39-1.121 2.52-2.5 2.52h-138.046zm-205.382 252.321h-76.572c-7.995 0-14.5 6.505-14.5 14.5v50.286c0 7.995 6.505 14.5 14.5 14.5h76.572c7.995 0 14.5-6.505 14.5-14.5v-50.286c0-7.995-6.505-14.5-14.5-14.5zm-.5 64.286h-75.572v-49.286h75.572zm71.336-267.423h68.184c4.811 0 9.378-2.113 12.531-5.797 3.196-3.733 4.608-8.665 3.887-13.551l-8.043-65.422c-.821-6.562-6.468-11.43-12.974-11.428h-6.323v-9.541c0-12.776-10.394-23.17-23.17-23.17s-23.17 10.394-23.17 23.17v9.541h-6.323c-6.493.004-12.154 4.845-12.974 11.428l-8.043 65.422c-.722 4.886.69 9.817 3.887 13.551 3.153 3.684 7.721 5.797 12.531 5.797zm25.922-105.738c0-4.505 3.665-8.17 8.17-8.17s8.17 3.665 8.17 8.17v9.541h-16.34zm-27.498 88.565c.023-.142 7.859-63.839 7.875-64.024h4.623v8.668c0 4.143 3.357 7.5 7.5 7.5s7.5-3.357 7.5-7.5v-8.668h16.34v8.668c0 4.143 3.357 7.5 7.5 7.5s7.5-3.357 7.5-7.5v-8.668h4.623c.01.194 7.846 63.841 7.875 64.024.199 1.254-.457 2.127-1.576 2.173h-68.184c-1.116-.046-1.773-.928-1.576-2.173zm140.596 299.596h76.572c7.995 0 14.5-6.505 14.5-14.5v-50.286c0-7.995-6.505-14.5-14.5-14.5h-76.572c-7.995 0-14.5 6.505-14.5 14.5v50.286c0 7.995 6.505 14.5 14.5 14.5zm.5-64.286h75.572v49.286h-75.572z"/></g></svg>