<?xml version="1.0" encoding="UTF-8"?>
<svg xmlns="http://www.w3.org/2000/svg" onmouseup="{ if(window.parent.document.onmouseup) window.parent.document.onmouseup(arguments[0]);}" width="512" viewBox="0 0 512 512" height="512" enable-background="new 0 0 512 512" id="Capa_1"><g><path data-cppathid="10000" d="m361 354.328h-15v42.534h11.926l-97.59 100.138h-8.672l-50.622-51.944-10.743 10.469 55.037 56.475h21.328l126.824-130.138h-32.488z"/><path data-cppathid="10001" d="m154.074 396.862h11.926v-42.534h-15v27.534h-32.488l61.319 62.921 10.742-10.469z"/><path data-cppathid="10002" d="m256 357c15.505 0 30.916-2 45.802-5.943l-3.841-14.5c-13.634 3.611-27.752 5.443-41.961 5.443-90.154 0-163.5-73.346-163.5-163.5 0-41 15.247-80.216 42.933-110.425l-11.059-10.135c-30.227 32.982-46.874 75.798-46.874 120.56 0 98.425 80.075 178.5 178.5 178.5z"/><path data-cppathid="10003" d="m256 0c-44.76 0-87.575 16.647-120.56 46.874l10.134 11.059c30.212-27.686 69.428-42.933 110.426-42.933 90.154 0 163.5 73.346 163.5 163.5 0 68.633-43.343 130.434-107.853 153.782l5.104 14.104c34.161-12.364 63.423-34.595 84.622-64.289 21.672-30.355 33.127-66.178 33.127-103.597 0-98.425-80.075-178.5-178.5-178.5z"/><path data-cppathid="10004" d="m187.889 251.471 38.971 22.501 64.973-112.538-12.99-7.5-57.473 99.547-12.991-7.5 82.251-142.462 12.99 7.5-17.275 29.922 12.99 7.5 24.775-42.912-38.97-22.5z"/><path data-cppathid="10005" d="m279.225 224.253c-4.006 6.939-5.071 15.024-2.997 22.765 2.074 7.74 7.038 14.209 13.978 18.216 4.712 2.721 9.863 4.014 14.949 4.013 10.375 0 20.481-5.381 26.031-14.994 8.271-14.327 3.345-32.71-10.98-40.981-14.328-8.271-32.71-3.344-40.981 10.981zm33.481 2.009c7.163 4.135 9.625 13.328 5.49 20.491-4.136 7.162-13.327 9.626-20.49 5.49-3.47-2.003-5.952-5.238-6.989-9.108s-.505-7.913 1.499-11.382c2.775-4.807 7.828-7.497 13.016-7.497 2.542 0 5.118.646 7.474 2.006z"/><path data-cppathid="10006" d="m221.794 91.767c-14.328-8.271-32.71-3.345-40.981 10.981s-3.345 32.71 10.981 40.98c4.623 2.669 9.753 4.032 14.952 4.032 2.605 0 5.229-.343 7.813-1.035 7.74-2.074 14.209-7.038 18.216-13.978 8.27-14.326 3.345-32.709-10.981-40.98zm-2.009 33.481c-4.135 7.164-13.328 9.626-20.491 5.49-7.163-4.135-9.626-13.327-5.491-20.49 2.775-4.807 7.828-7.497 13.016-7.497 2.543 0 5.119.646 7.475 2.006 7.163 4.136 9.626 13.327 5.491 20.491z"/><path data-cppathid="10007" d="m387.877 246.824c13.486-26.003 18.932-55.238 15.747-84.542l-14.912 1.62c2.865 26.358-2.029 52.645-14.15 76.016z"/><path data-cppathid="10008" d="m358.926 263.527 11.559 9.561c3.338-4.036 6.495-8.292 9.381-12.649l-12.504-8.284c-2.595 3.916-5.434 7.743-8.436 11.372z"/><path data-cppathid="10009" d="m316 381.862h15v15h-15z"/></g></svg>