<?xml version="1.0" encoding="UTF-8"?>
<svg xmlns="http://www.w3.org/2000/svg" onmouseup="{ if(window.parent.document.onmouseup) window.parent.document.onmouseup(arguments[0]);}" viewBox="0 0 64 64"><circle data-cppathid="10000" r="26" fill="#c2c2c2" cy="31" cx="30"/><path data-cppathid="10001" fill="#212a41" d="m30 57.5a26.5 26.5 0 1 1 26.5-26.5 26.53 26.53 0 0 1 -26.5 26.5zm0-52a25.5 25.5 0 1 0 25.5 25.5 25.529 25.529 0 0 0 -25.5-25.5z"/><circle data-cppathid="10002" r="26" fill="#0079a8" cy="31" cx="34"/><path data-cppathid="10003" fill="#212a41" d="m34 57.5a26.5 26.5 0 1 1 26.5-26.5 26.53 26.53 0 0 1 -26.5 26.5zm0-52a25.5 25.5 0 1 0 25.5 25.5 25.529 25.529 0 0 0 -25.5-25.5z"/><path data-cppathid="10004" fill="#f9ac2f" d="m34 5a26 26 0 0 0 -26 26h26z"/><path data-cppathid="10005" fill="#212a41" d="m34 31.5h-26a.5.5 0 0 1 -.5-.5 26.53 26.53 0 0 1 26.5-26.5.5.5 0 0 1 .5.5v26a.5.5 0 0 1 -.5.5zm-25.495-1h24.995v-24.995a25.533 25.533 0 0 0 -24.995 24.995z"/><path data-cppathid="10006" fill="#ffca4d" d="m10.084 29.5h-.042a.5.5 0 0 1 -.457-.541 24.4 24.4 0 0 1 22.374-22.375.515.515 0 0 1 .539.457.5.5 0 0 1 -.457.54 23.409 23.409 0 0 0 -21.46 21.461.5.5 0 0 1 -.497.458z"/><path data-cppathid="10007" fill="#d32e5e" d="m34 5v26l18.385 18.385a26 26 0 0 0 -18.385-44.385z"/><path data-cppathid="10008" fill="#212a41" d="m52.385 49.885a.5.5 0 0 1 -.354-.147l-18.385-18.384a.5.5 0 0 1 -.146-.354v-26a.5.5 0 0 1 .5-.5 26.5 26.5 0 0 1 18.738 45.238.5.5 0 0 1 -.353.147zm-17.885-19.092 17.882 17.881a25.5 25.5 0 0 0 -17.882-43.169z"/><path data-cppathid="10009" fill="#1e97c6" d="m34 55.5a24.633 24.633 0 0 1 -24.415-22.458.5.5 0 0 1 .457-.54.508.508 0 0 1 .539.456 23.627 23.627 0 0 0 23.419 21.542.5.5 0 0 1 0 1z"/><path data-cppathid="10010" fill="#b51040" d="m52.327 47a.5.5 0 0 1 -.381-.824 23.5 23.5 0 0 0 -15.987-38.595.5.5 0 0 1 -.457-.54.525.525 0 0 1 .539-.457 24.5 24.5 0 0 1 16.667 40.238.5.5 0 0 1 -.381.178z"/><circle data-cppathid="10011" r="2" fill="#e0c8a4" cy="31" cx="41"/><path data-cppathid="10012" fill="#212a41" d="m41 33.5a2.5 2.5 0 1 1 2.5-2.5 2.5 2.5 0 0 1 -2.5 2.5zm0-4a1.5 1.5 0 1 0 1.5 1.5 1.5 1.5 0 0 0 -1.5-1.5z"/><path data-cppathid="10013" fill="#e0c8a4" d="m37 20h-8a4 4 0 0 0 -4 4v5a2 2 0 0 0 0 4v2a4 4 0 0 0 4 4h8a4 4 0 0 0 4-4v-11a4 4 0 0 0 -4-4z"/><path data-cppathid="10014" fill="#212a41" d="m37 39.5h-8a4.505 4.505 0 0 1 -4.5-4.5v-1.55a2.5 2.5 0 0 1 0-4.9v-4.55a4.505 4.505 0 0 1 4.5-4.5h8a4.505 4.505 0 0 1 4.5 4.5v11a4.505 4.505 0 0 1 -4.5 4.5zm-8-19a3.5 3.5 0 0 0 -3.5 3.5v5a.5.5 0 0 1 -.5.5 1.5 1.5 0 0 0 0 3 .5.5 0 0 1 .5.5v2a3.5 3.5 0 0 0 3.5 3.5h8a3.5 3.5 0 0 0 3.5-3.5v-11a3.5 3.5 0 0 0 -3.5-3.5z"/><path data-cppathid="10015" fill="#c2aa86" d="m37 37.5a.5.5 0 0 1 0-1 1.5 1.5 0 0 0 1.5-1.5v-8a.5.5 0 0 1 1 0v8a2.5 2.5 0 0 1 -2.5 2.5z"/><path data-cppathid="10016" fill="#fee6c2" d="m29 37.5a2.5 2.5 0 0 1 -2.5-2.5.5.5 0 0 1 1 0 1.5 1.5 0 0 0 1.5 1.5.5.5 0 0 1 0 1z"/><path data-cppathid="10017" fill="#c2c2c2" d="m38 45h-16a6 6 0 0 0 -6 6v8h28v-8a6 6 0 0 0 -6-6z"/><path data-cppathid="10018" fill="#212a41" d="m44 59.5h-28a.5.5 0 0 1 -.5-.5v-8a6.508 6.508 0 0 1 6.5-6.5h16a6.508 6.508 0 0 1 6.5 6.5v8a.5.5 0 0 1 -.5.5zm-27.5-1h27v-7.5a5.506 5.506 0 0 0 -5.5-5.5h-16a5.506 5.506 0 0 0 -5.5 5.5z"/><path data-cppathid="10019" fill="#e0e0e0" d="m22 51v8h28v-8a6 6 0 0 0 -6-6h-16a6 6 0 0 0 -6 6z"/><path data-cppathid="10020" fill="#212a41" d="m50 59.5h-28a.5.5 0 0 1 -.5-.5v-8a6.508 6.508 0 0 1 6.5-6.5h16a6.508 6.508 0 0 1 6.5 6.5v8a.5.5 0 0 1 -.5.5zm-27.5-1h27v-7.5a5.506 5.506 0 0 0 -5.5-5.5h-16a5.506 5.506 0 0 0 -5.5 5.5z"/><path data-cppathid="10021" fill="#e0e0e0" d="m18 57.5a.5.5 0 0 1 -.5-.5v-6a4.5 4.5 0 0 1 3.377-4.358.5.5 0 1 1 .25.968 3.5 3.5 0 0 0 -2.627 3.39v6a.5.5 0 0 1 -.5.5z"/><path data-cppathid="10022" fill="#fefefe" d="m24 57.5a.5.5 0 0 1 -.5-.5v-6a4.505 4.505 0 0 1 4.5-4.5.5.5 0 0 1 0 1 3.5 3.5 0 0 0 -3.5 3.5v6a.5.5 0 0 1 -.5.5z"/><path data-cppathid="10023" fill="#c2c2c2" d="m48 57.5a.5.5 0 0 1 -.5-.5v-6a3.5 3.5 0 0 0 -3.5-3.5.5.5 0 0 1 0-1 4.505 4.505 0 0 1 4.5 4.5v6a.5.5 0 0 1 -.5.5z"/><path data-cppathid="10024" fill="#e8d2a8" d="m29 39h8v6h-8z"/><path data-cppathid="10025" fill="#212a41" d="m37 45.5h-8a.5.5 0 0 1 -.5-.5v-6a.5.5 0 0 1 .5-.5h8a.5.5 0 0 1 .5.5v6a.5.5 0 0 1 -.5.5zm-7.5-1h7v-5h-7z"/><path data-cppathid="10026" fill="#6c696f" d="m29 18h13a0 0 0 0 1 0 0v3a4 4 0 0 1 -4 4h-13a0 0 0 0 1 0 0v-3a4 4 0 0 1 4-4z"/><path data-cppathid="10027" fill="#212a41" d="m38 25.5h-13a.5.5 0 0 1 -.5-.5v-3a4.505 4.505 0 0 1 4.5-4.5h13a.5.5 0 0 1 .5.5v3a4.505 4.505 0 0 1 -4.5 4.5zm-12.5-1h12.5a3.5 3.5 0 0 0 3.5-3.5v-2.5h-12.5a3.5 3.5 0 0 0 -3.5 3.5z"/><path data-cppathid="10028" fill="#4e4b51" d="m38 23.5a.5.5 0 0 1 0-1 1.5 1.5 0 0 0 1.5-1.5v-1a.5.5 0 0 1 1 0v1a2.5 2.5 0 0 1 -2.5 2.5z"/><path data-cppathid="10029" fill="#4e4b51" d="m25 20h3a0 0 0 0 1 0 0v4a4 4 0 0 1 -4 4h-1a0 0 0 0 1 0 0v-6a2 2 0 0 1 2-2z"/><path data-cppathid="10030" fill="#212a41" d="m24 28.5h-1a.5.5 0 0 1 -.5-.5v-6a2.5 2.5 0 0 1 2.5-2.5h3a.5.5 0 0 1 .5.5v4a4.505 4.505 0 0 1 -4.5 4.5zm-.5-1h.5a3.5 3.5 0 0 0 3.5-3.5v-3.5h-2.5a1.5 1.5 0 0 0 -1.5 1.5z"/><path data-cppathid="10031" fill="#6c696f" d="m25 26.231a.5.5 0 0 1 -.5-.5v-3.731a.5.5 0 0 1 1 0v3.731a.5.5 0 0 1 -.5.5z"/><path data-cppathid="10032" fill="#e0e0e0" d="m41 45h-4l2-3z"/><path data-cppathid="10033" fill="#212a41" d="m41 45.5h-4a.5.5 0 0 1 -.416-.777l2-3a.518.518 0 0 1 .832 0l2 3a.5.5 0 0 1 -.416.777zm-3.065-1h2.13l-1.065-1.6z"/><path data-cppathid="10034" fill="#c2c2c2" d="m37 45h-1v-3h3z"/><path data-cppathid="10035" fill="#212a41" d="m37 45.5h-1a.5.5 0 0 1 -.5-.5v-3a.5.5 0 0 1 .5-.5h3a.5.5 0 0 1 .416.777l-2 3a.5.5 0 0 1 -.416.223zm-.5-1h.232l1.333-2h-1.565z"/><path data-cppathid="10036" fill="#e0e0e0" d="m35 45h-4l2-3z"/><path data-cppathid="10037" fill="#212a41" d="m35 45.5h-4a.5.5 0 0 1 -.416-.777l2-3a.518.518 0 0 1 .832 0l2 3a.5.5 0 0 1 -.416.777zm-3.065-1h2.13l-1.065-1.6z"/><path data-cppathid="10038" fill="#c2c2c2" d="m31 45h-7l2-3h7z"/><g fill="#212a41"><path data-cppathid="10039" d="m31 45.5h-7a.5.5 0 0 1 -.416-.777l2-3a.5.5 0 0 1 .416-.223h7a.5.5 0 0 1 .416.777l-2 3a.5.5 0 0 1 -.416.223zm-6.065-1h5.8l1.333-2h-5.8z"/><path data-cppathid="10040" d="m25 33.5a2.5 2.5 0 1 1 1.768-4.267.5.5 0 0 1 -.707.707 1.5 1.5 0 1 0 0 2.122.5.5 0 0 1 .707.707 2.494 2.494 0 0 1 -1.768.731z"/><path data-cppathid="10041" d="m28 59.5a.5.5 0 0 1 -.5-.5v-6a.5.5 0 0 1 1 0v6a.5.5 0 0 1 -.5.5z"/><path data-cppathid="10042" d="m44 59.5a.5.5 0 0 1 -.5-.5v-6a.5.5 0 0 1 1 0v6a.5.5 0 0 1 -.5.5z"/></g></svg>