<?xml version="1.0" encoding="UTF-8"?>
<svg xmlns="http://www.w3.org/2000/svg" onmouseup="{ if(window.parent.document.onmouseup) window.parent.document.onmouseup(arguments[0]);}" width="499pt" viewBox="0 -19 499.2 499" height="499pt"><path data-cppathid="10000" fill="#3193f3" d="m294.601562 453.101562h-90l7.597657-205.203124h74.800781zm0 0"/><path data-cppathid="10001" fill="#35b1fc" d="m242.199219 247.898438-7.597657 205.203124h-30l7.597657-205.203124zm0 0"/><path data-cppathid="10002" fill="#5fcdff" d="m461.199219 325.699219h-423.199219c-16.601562 0-30-13.398438-30-30v-257.597657c0-16.601562 13.398438-30 30-30h423.199219c16.601562 0 30 13.398438 30 30v257.796876c0 16.402343-13.398438 29.800781-30 29.800781zm0 0"/><path data-cppathid="10003" fill="#73d7f9" d="m68 325.699219h-30c-16.601562 0-30-13.398438-30-30v-257.597657c0-16.601562 13.398438-30 30-30h30c-16.601562 0-30 13.398438-30 30v257.597657c0 16.601562 13.398438 30 30 30zm0 0"/><path data-cppathid="10004" fill="#30b6ff" d="m491.199219 38.101562v257.796876c0 16.402343-13.398438 29.800781-30 29.800781h-30c16.601562 0 30-13.398438 30-29.800781v-257.796876c0-16.601562-13.398438-30-30-30h30c16.601562 0 30 13.398438 30 30zm0 0"/><path data-cppathid="10005" fill="#3193f3" d="m245.398438 94.601562h-67.796876l57.796876 132.597657c3.203124 7.199219 10.402343 12 18.402343 12h67.800781l-57.800781-132.597657c-3.199219-7.203124-10.402343-12-18.402343-12zm0 0"/><path data-cppathid="10006" fill="#ffefee" d="m245.601562 94.601562c-6.402343 0-12.601562 3.597657-15.402343 10.597657 0 0-4 10.402343-65.597657 173.402343h-81c.597657-1.601562 65.597657-173 65.597657-173.402343 2.601562-7 9-10.597657 15.402343-10.597657zm0 0"/><path data-cppathid="10007" fill="#ffefee" d="m253.601562 239.199219c6.398438 0 12.597657-3.597657 15.398438-10.597657 0 0 4-10.402343 65.601562-173.402343h81c-.601562 1.601562-65.601562 173-65.601562 173.402343-2.601562 7-9 10.597657-15.398438 10.597657zm0 0"/><g fill="#5f266d"><path data-cppathid="10008" d="m415.601562 47.199219h-81c-3.328124 0-6.308593 2.0625-7.484374 5.171875-15.460938 40.910156-27.28125 72.179687-36.328126 96.097656l-19.679687-45.125c-4.480469-10.0625-14.460937-16.632812-25.507813-16.746094-29.59375 0-51 0-81 0-10.339843 0-19.332031 6.207032-22.898437 15.8125-.042969.113282-.082031.222656-.117187.332032-1.808594 5.070312-45.566407 120.515624-60 158.597656-5.707032 15.050781-7.578126 17.457031-4.558594 21.816406 3.285156 4.742188-.605469 3.445312 87.574218 3.445312 3.328126 0 6.304688-2.0625 7.484376-5.171874 15.457031-40.914063 27.28125-72.183594 36.324218-96.101563l19.683594 45.125c4.480469 10.0625 14.460938 16.636719 25.429688 16.746094h81.078124c10.34375 0 19.332032-6.207031 22.902344-15.8125.039063-.109375.074219-.222657.113282-.332031 2.152343-6.039063 63.519531-167.867188 65.476562-173.046876 1.953125-5.222656-1.910156-10.808593-7.492188-10.808593zm-215.0625 113.722656c-.035156.085937-.0625.167969-.097656.253906-9.363281 24.75-22.621094 59.808594-41.371094 109.425781h-63.882812c35.703125-94.3125 58.292969-153.539062 61.339844-162.679687l.171875.0625c2.515625-6.769531 8.667969-5.382813 20.902343-5.382813h45.027344c-.597656 1.570313-4.238281 11.121094-22.089844 58.320313zm53.101563 70.273437c-4.707031-.0625-8.996094-2.902343-10.910156-7.195312l-26.210938-60.105469c18.945313-50.078125 21.023438-55.5 21.109375-55.722656 1.390625-3.476563 4.351563-5.554687 7.929688-5.570313 4.707031.0625 8.996094 2.90625 10.910156 7.195313l26.214844 60.105469c-18.949219 50.078125-21.027344 55.5-21.109375 55.726562-1.390625 3.472656-4.355469 5.550782-7.933594 5.566406zm89.03125-5.316406-.171875-.066406c-1.472656 3.972656-5.046875 5.386719-7.898438 5.386719-22.464843 0-8.644531 0-58.03125 0 .601563-1.570313 4.238282-11.128907 22.109376-58.371094.042968-.101563.082031-.207031.121093-.3125 9.359375-24.746094 22.605469-59.773437 41.328125-109.316406h63.886719c-50.105469 132.140625-59.148437 156.09375-61.34375 162.679687zm0 0"/><path data-cppathid="10009" d="m461.199219.101562h-423.199219c-20.953125 0-38 17.042969-38 38v257.597657c0 20.953125 17.046875 38 38 38h163.019531l-4.128906 111.402343h-39.691406c-4.417969 0-8 3.582032-8 8 0 4.417969 3.582031 8 8 8h185c4.417969 0 8-3.582031 8-8 0-4.417968-3.582031-8-8-8h-39.890625l-4.125-111.402343h163.015625c20.953125 0 38-16.957031 38-37.800781v-257.796876c0-20.957031-17.046875-38-38-38zm-248.296875 445 4.125-111.402343h65.144531l4.125 111.402343zm270.296875-149.203124c0 12.023437-9.871094 21.800781-22 21.800781h-423.199219c-12.128906 0-22-9.871094-22-22v-257.597657c0-12.132812 9.871094-22 22-22h423.199219c12.128906 0 22 9.867188 22 22zm0 0"/></g></svg>