<?xml version="1.0" encoding="UTF-8"?>
<svg xmlns="http://www.w3.org/2000/svg" onmouseup="{ if(window.parent.document.onmouseup) window.parent.document.onmouseup(arguments[0]);}" width="512" viewBox="0 0 64 64" height="512"><g data-name="28-Open" id="_28-Open"><path data-cppathid="10000" fill="#a1c203" d="m32 1a3 3 0 1 1 -3 3 3 3 0 0 1 3-3z"/><rect data-cppathid="10001" y="23" x="5" width="54" rx="1" height="30" fill="#a1c203"/><path data-cppathid="10002" fill="#e5aa5c" d="m63 23v30a4 4 0 0 1 -4 4h-54a4 4 0 0 1 -4-4v-30a4 4 0 0 1 4-4h54a4 4 0 0 1 4 4zm-4 29v-28a1 1 0 0 0 -1-1h-52a1 1 0 0 0 -1 1v28a1 1 0 0 0 1 1h52a1 1 0 0 0 1-1z"/><path data-cppathid="10003" fill="#ba6a2d" d="m58 22h-52a2 2 0 0 0 -2 2v28a2 2 0 0 0 2 2h52a2 2 0 0 0 2-2v-28a2 2 0 0 0 -2-2zm1 30a1 1 0 0 1 -1 1h-52a1 1 0 0 1 -1-1v-28a1 1 0 0 1 1-1h52a1 1 0 0 1 1 1z"/><rect data-cppathid="10004" y="19" x="12" width="40" rx="1.5" height="3" fill="#fad27a"/><rect data-cppathid="10005" y="54" x="12" width="40" rx="1.5" height="3" fill="#fad27a"/><rect data-cppathid="10006" y="27" x="60" width="3" rx="1.5" height="20" fill="#d28e43"/><rect data-cppathid="10007" y="27" x="1" width="3" rx="1.5" height="20" fill="#d28e43"/><path data-cppathid="10008" fill="#88ab00" d="m57 50h-28a18 18 0 0 1 -18-18v-7a2 2 0 0 1 2-2h-7a1 1 0 0 0 -1 1v28a1 1 0 0 0 1 1h52a1 1 0 0 0 1-1v-4a2 2 0 0 1 -2 2z"/><rect data-cppathid="10009" y="23" x="5" width="54" rx="1" height="30" fill="none"/><path data-cppathid="10010" fill="none" d="m34.005 6.224a2.978 2.978 0 0 1 -4.01 0 .982.982 0 0 1 -.13.11l-22.805 12.666h49.88l-22.805-12.666a.982.982 0 0 1 -.13-.11z"/><circle data-cppathid="10011" r="2" fill="#66a100" cy="4" cx="32"/><path data-cppathid="10012" fill="none" d="m18 43v-10a1 1 0 0 0 -1-1h-4a1 1 0 0 0 -1 1v4.874a17.96 17.96 0 0 0 3.611 6.126h1.389a1 1 0 0 0 1-1z"/><path data-cppathid="10013" d="m59.316 18.032-23.446-13.022a4 4 0 1 0 -7.74 0l-23.446 13.022a4.992 4.992 0 0 0 -4.684 4.968v30a5.006 5.006 0 0 0 5 5h54a5.006 5.006 0 0 0 5-5v-30a4.992 4.992 0 0 0 -4.684-4.968zm-27.316-10.032a3.993 3.993 0 0 0 2.9-1.244l20.24 11.244h-46.28l20.245-11.244a4 4 0 0 0 2.895 1.244zm0-6a2 2 0 1 1 -2 2 2 2 0 0 1 2-2zm30 51a3 3 0 0 1 -3 3h-54a3 3 0 0 1 -3-3v-30a3 3 0 0 1 3-3h54a3 3 0 0 1 3 3z"/><path data-cppathid="10014" d="m6 24h4v-2h-4a2 2 0 0 0 -2 2v28a2 2 0 0 0 2 2h48v-2h-48z"/><path data-cppathid="10015" d="m58 22h-42v2h42v28h-2v2h2a2 2 0 0 0 2-2v-28a2 2 0 0 0 -2-2z"/><path data-cppathid="10016" d="m12 22h2v2h-2z"/><path data-cppathid="10017" d="m10 43a3 3 0 0 0 3 3h4a3 3 0 0 0 3-3v-10a3 3 0 0 0 -3-3h-4a3 3 0 0 0 -3 3zm2-10a1 1 0 0 1 1-1h4a1 1 0 0 1 1 1v10a1 1 0 0 1 -1 1h-4a1 1 0 0 1 -1-1z"/><path data-cppathid="10018" d="m27 38a4 4 0 0 0 0-8h-2a2 2 0 0 0 -2 2v14h2v-8zm-2-6h2a2 2 0 0 1 0 4h-2z"/><path data-cppathid="10019" d="m36 32h6v-2h-6a3 3 0 0 0 -3 3v10a3 3 0 0 0 3 3h6v-2h-6a1 1 0 0 1 -1-1v-4h5v-2h-5v-4a1 1 0 0 1 1-1z"/><path data-cppathid="10020" d="m52 43.86a.144.144 0 0 1 -.274.038l-3.526-12.345a2.14 2.14 0 0 0 -4.2.587v13.86h2v-13.86a.144.144 0 0 1 .274-.038l3.526 12.345a2.14 2.14 0 0 0 4.2-.587v-13.86h-2z"/></g></svg>