<?xml version="1.0" encoding="UTF-8"?>
<svg xmlns="http://www.w3.org/2000/svg" onmouseup="{ if(window.parent.document.onmouseup) window.parent.document.onmouseup(arguments[0]);}" width="512" viewBox="0 0 511.998 511.998" height="512" enable-background="new 0 0 511.998 511.998" id="Capa_1"><g><g><path data-cppathid="10000" fill="#f2d231" d="m111.388 259.314c-2.378 0-4.79-.566-7.035-1.762-7.313-3.893-10.086-12.977-6.193-20.289l96.4-181.11c3.892-7.312 12.975-10.087 20.289-6.193 7.312 3.893 10.086 12.977 6.193 20.289l-96.399 181.11c-2.698 5.067-7.889 7.955-13.255 7.955z"/></g><g><path data-cppathid="10001" fill="#e79d26" d="m400.612 259.314c-5.366 0-10.557-2.888-13.254-7.955l-96.4-181.11c-3.893-7.312-1.119-16.396 6.193-20.289 7.312-3.895 16.396-1.118 20.289 6.193l96.4 181.11c3.893 7.312 1.119 16.396-6.193 20.289-2.245 1.195-4.657 1.762-7.035 1.762z"/></g><g><g><g><path data-cppathid="10002" fill="#dd4a4a" d="m496.998 456.831c0 22.092-18.075 40.167-40.168 40.167h-401.663c-22.091 0-40.167-18.075-40.167-40.167v-172.353c0-22.092 18.076-40.167 40.167-40.167h401.663c22.093 0 40.168 18.075 40.168 40.167z"/><path data-cppathid="10003" fill="#cf0050" d="m456.83 244.311h-200.832v252.687h200.832c22.093 0 40.168-18.075 40.168-40.167v-172.353c0-22.092-18.075-40.167-40.168-40.167z"/><path data-cppathid="10004" fill="#faf3f4" d="m456.83 511.998h-401.663c-30.419 0-55.167-24.748-55.167-55.167v-172.353c0-30.419 24.748-55.167 55.167-55.167h401.663c30.42 0 55.168 24.748 55.168 55.167v172.353c0 30.419-24.748 55.167-55.168 55.167zm-401.663-252.687c-13.877 0-25.167 11.29-25.167 25.167v172.353c0 13.877 11.29 25.167 25.167 25.167h401.663c13.877 0 25.168-11.29 25.168-25.167v-172.353c0-13.877-11.291-25.167-25.168-25.167z"/></g><g><g><path data-cppathid="10005" fill="#faf3f4" d="m84.432 337.855c-8.667 0-13.584 4.786-13.584 14.879v36.102c0 10.094 4.917 14.879 13.845 14.879 11.773 0 12.81-8.41 13.198-13.846.258-4.008 3.882-5.303 8.28-5.303 5.822 0 8.54 1.682 8.54 8.281 0 15.656-12.81 25.619-30.926 25.619-16.302 0-29.761-8.022-29.761-29.631v-36.102c0-21.609 13.588-29.633 29.889-29.633 17.988 0 30.797 9.576 30.797 24.586 0 6.729-2.718 8.281-8.41 8.281-4.788 0-8.281-1.424-8.41-5.305-.259-4.01-1.163-12.807-13.458-12.807z"/></g><g><path data-cppathid="10006" fill="#faf3f4" d="m133.466 417.691c-3.749 0-7.374-1.811-7.374-5.307v-84.105c0-3.623 4.14-5.178 8.41-5.178 4.142 0 8.41 1.555 8.41 5.178v74.66h31.574c3.364 0 5.046 3.623 5.046 7.377 0 3.623-1.682 7.375-5.046 7.375z"/></g><g><path data-cppathid="10007" fill="#faf3f4" d="m186.128 388.835v-36.102c0-21.609 13.199-29.633 30.279-29.633s30.406 8.023 30.406 29.633v36.102c0 21.608-13.326 29.631-30.406 29.631s-30.279-8.022-30.279-29.631zm43.868-36.101c0-10.223-5.178-14.879-13.588-14.879-8.541 0-13.456 4.656-13.456 14.879v36.102c0 10.221 4.915 14.879 13.456 14.879 8.41 0 13.588-4.658 13.588-14.879z"/></g><g><g><path data-cppathid="10008" fill="#daebeb" d="m300.378 392.458c0-19.41-41.535-13.459-41.535-44.124 0-19.279 16.562-25.879 31.441-25.879 7.635 0 24.588 1.81 24.588 10.352 0 2.977-2.072 8.928-6.728 8.928-4.011 0-6.989-4.918-17.86-4.918-9.312 0-14.618 3.754-14.618 9.963 0 16.045 41.536 10.481 41.536 43.996 0 18.504-12.939 28.078-30.799 28.078-16.949 0-29.889-8.539-29.889-16.045 0-3.624 3.363-9.059 7.374-9.059 5.306 0 8.802 9.963 22.001 9.963 7.763.001 14.489-3.491 14.489-11.255z"/></g></g><g><g><path data-cppathid="10009" fill="#daebeb" d="m345.534 363.732h19.669c3.363 0 5.303 3.236 5.303 6.729 0 2.977-1.682 6.471-5.303 6.471h-19.669v26.008h36.618c3.363 0 5.305 3.494 5.305 7.505 0 3.495-1.682 7.247-5.305 7.247h-46.066c-3.75 0-7.371-1.811-7.371-5.307v-83.977c0-3.495 3.621-5.307 7.371-5.307h46.066c3.623 0 5.305 3.754 5.305 7.248 0 4.01-1.941 7.506-5.305 7.506h-36.618z"/></g></g><g><g><path data-cppathid="10010" fill="#daebeb" d="m427.568 323.101c17.076 0 30.406 8.023 30.406 29.633v35.324c0 21.609-13.33 29.633-30.406 29.633h-22.904c-4.402 0-7.375-2.46-7.375-5.176v-84.236c0-2.717 2.973-5.178 7.375-5.178zm-13.459 14.754v65.084h13.459c8.537 0 13.584-4.788 13.584-14.881v-35.324c0-10.093-5.047-14.879-13.584-14.879z"/></g></g></g></g><path data-cppathid="10011" fill="#bce9f8" d="m255.998 0c-34.847 0-63.198 28.352-63.198 63.2 0 34.85 28.351 63.199 63.198 63.199 34.85 0 63.2-28.35 63.2-63.199.001-34.848-28.35-63.2-63.2-63.2z"/></g><path data-cppathid="10012" fill="#daebeb" d="m456.83 229.311h-200.832v30h200.832c13.877 0 25.168 11.29 25.168 25.167v172.353c0 13.877-11.291 25.167-25.168 25.167h-200.832v30h200.832c30.42 0 55.168-24.748 55.168-55.167v-172.353c0-30.419-24.748-55.167-55.168-55.167z"/><path data-cppathid="10013" fill="#9ce0f6" d="m319.199 63.2c0-34.849-28.351-63.2-63.2-63.2v126.4c34.849 0 63.2-28.35 63.2-63.2z"/></g></svg>