<?xml version="1.0" encoding="UTF-8"?>
<svg xmlns="http://www.w3.org/2000/svg" onmouseup="{ if(window.parent.document.onmouseup) window.parent.document.onmouseup(arguments[0]);}" width="512" viewBox="0 0 512 512" height="512" enable-background="new 0 0 512 512" id="Capa_1"><g><g><path data-cppathid="10000" d="m504.5 248.5h-48.882c-3.44-15.58-17.351-27.274-33.951-27.274s-30.511 11.694-33.951 27.274h-97.765c-3.44-15.58-17.351-27.274-33.951-27.274s-30.511 11.694-33.951 27.274h-97.765c-3.44-15.58-17.351-27.274-33.951-27.274s-30.511 11.694-33.951 27.274h-48.882c-4.143 0-7.5 3.357-7.5 7.5s3.357 7.5 7.5 7.5h48.882c3.44 15.58 17.351 27.274 33.951 27.274s30.511-11.694 33.951-27.274h97.765c3.44 15.58 17.351 27.274 33.951 27.274s30.511-11.694 33.951-27.274h97.765c3.44 15.58 17.351 27.274 33.951 27.274s30.511-11.694 33.951-27.274h48.882c4.143 0 7.5-3.357 7.5-7.5s-3.357-7.5-7.5-7.5zm-414.167 27.274c-10.903 0-19.774-8.871-19.774-19.774s8.871-19.774 19.774-19.774 19.774 8.871 19.774 19.774-8.871 19.774-19.774 19.774zm165.667 0c-10.903 0-19.774-8.871-19.774-19.774s8.871-19.774 19.774-19.774 19.774 8.871 19.774 19.774-8.871 19.774-19.774 19.774zm165.667 0c-10.903 0-19.774-8.871-19.774-19.774s8.871-19.774 19.774-19.774 19.774 8.871 19.774 19.774-8.871 19.774-19.774 19.774z"/><path data-cppathid="10001" d="m205.492 418.055h101.016c4.143 0 7.5-3.357 7.5-7.5s-3.357-7.5-7.5-7.5h-101.016c-4.143 0-7.5 3.357-7.5 7.5s3.358 7.5 7.5 7.5z"/><path data-cppathid="10002" d="m205.492 450.38h101.016c4.143 0 7.5-3.357 7.5-7.5s-3.357-7.5-7.5-7.5h-101.016c-4.143 0-7.5 3.357-7.5 7.5s3.358 7.5 7.5 7.5z"/><path data-cppathid="10003" d="m338.83 370.73h-53.536l-23.027-35.012c-1.388-2.109-3.742-3.379-6.267-3.379s-4.879 1.27-6.267 3.379l-23.027 35.012h-53.536c-4.143 0-7.5 3.357-7.5 7.5v96.979c0 4.143 3.357 7.5 7.5 7.5h104.27c4.143 0 7.5-3.357 7.5-7.5s-3.357-7.5-7.5-7.5h-96.77v-81.979h50.08c2.524 0 4.879-1.27 6.267-3.379l18.983-28.863 18.983 28.863c1.388 2.109 3.742 3.379 6.267 3.379h50.08v81.979h-18.89c-4.143 0-7.5 3.357-7.5 7.5s3.357 7.5 7.5 7.5h26.39c4.143 0 7.5-3.357 7.5-7.5v-96.979c0-4.142-3.357-7.5-7.5-7.5z"/><path data-cppathid="10004" d="m371.158 108.945h101.017c4.143 0 7.5-3.357 7.5-7.5s-3.357-7.5-7.5-7.5h-101.017c-4.143 0-7.5 3.357-7.5 7.5s3.358 7.5 7.5 7.5z"/><path data-cppathid="10005" d="m371.158 76.62h101.017c4.143 0 7.5-3.357 7.5-7.5s-3.357-7.5-7.5-7.5h-101.017c-4.143 0-7.5 3.357-7.5 7.5s3.358 7.5 7.5 7.5z"/><path data-cppathid="10006" d="m504.5 29.29h-115.84c-4.143 0-7.5 3.357-7.5 7.5s3.357 7.5 7.5 7.5h108.34v81.979h-50.08c-2.524 0-4.879 1.27-6.267 3.379l-18.984 28.865-18.993-28.866c-1.388-2.108-3.742-3.378-6.266-3.378h-50.08v-81.979h7.33c4.143 0 7.5-3.357 7.5-7.5s-3.357-7.5-7.5-7.5h-14.83c-4.143 0-7.5 3.357-7.5 7.5v96.979c0 4.143 3.357 7.5 7.5 7.5h53.537l23.037 35.013c1.388 2.108 3.742 3.378 6.267 3.378 2.523 0 4.878-1.27 6.266-3.379l23.027-35.012h53.536c4.143 0 7.5-3.357 7.5-7.5v-96.979c0-4.143-3.357-7.5-7.5-7.5z"/><path data-cppathid="10007" d="m39.825 108.945h101.017c4.143 0 7.5-3.357 7.5-7.5s-3.357-7.5-7.5-7.5h-101.017c-4.143 0-7.5 3.357-7.5 7.5s3.358 7.5 7.5 7.5z"/><path data-cppathid="10008" d="m39.825 76.62h101.017c4.143 0 7.5-3.357 7.5-7.5s-3.357-7.5-7.5-7.5h-101.017c-4.143 0-7.5 3.357-7.5 7.5s3.358 7.5 7.5 7.5z"/><path data-cppathid="10009" d="m7.5 141.27h53.536l23.027 35.012c1.388 2.109 3.742 3.379 6.266 3.379h.001c2.523 0 4.878-1.27 6.266-3.378l23.037-35.013h53.537c4.143 0 7.5-3.357 7.5-7.5v-96.98c0-4.143-3.357-7.5-7.5-7.5h-119.95c-4.143 0-7.5 3.357-7.5 7.5s3.357 7.5 7.5 7.5h112.45v81.979h-50.08c-2.523 0-4.878 1.27-6.266 3.378l-18.993 28.866-18.984-28.865c-1.388-2.109-3.742-3.379-6.267-3.379h-50.08v-81.979h3.22c4.143 0 7.5-3.357 7.5-7.5s-3.357-7.5-7.5-7.5h-10.72c-4.143 0-7.5 3.357-7.5 7.5v96.979c0 4.143 3.357 7.501 7.5 7.501z"/></g></g></svg>