<?xml version="1.0" encoding="UTF-8"?>
<svg xmlns="http://www.w3.org/2000/svg" onmouseup="{ if(window.parent.document.onmouseup) window.parent.document.onmouseup(arguments[0]);}" width="511pt" viewBox="0 -41 511.99971 511" height="511pt"><path data-cppathid="10000" fill="#ff4a59" d="m311.730469 114.171875h-111.460938c-8.273437 0-13.378906-9.039063-9.101562-16.125l55.792969-92.410156c4.140624-6.851563 14.078124-6.847657 18.207031.007812l55.667969 92.410157c4.269531 7.085937-.835938 16.117187-9.105469 16.117187zm0 0"/><path data-cppathid="10001" fill="#f92f41" d="m311.734375 114.167969h-36.070313c8.273438 0 13.382813-9.023438 9.109376-16.113281l-46.75-77.613282 8.941406-14.804687c4.132812-6.851563 14.070312-6.851563 18.203125.011719l55.671875 92.40625c4.265625 7.089843-.835938 16.113281-9.105469 16.113281zm0 0"/><path data-cppathid="10002" fill="#ffb54e" d="m402.160156 264.132812h-292.320312c-8.277344 0-13.378906-9.039062-9.101563-16.125l52.949219-87.707031c1.921875-3.1875 5.375-5.136719 9.097656-5.136719h186.539063c3.726562 0 7.179687 1.953126 9.105469 5.144532l52.835937 87.707031c4.269531 7.085937-.832031 16.117187-9.105469 16.117187zm0 0"/><path data-cppathid="10003" fill="#ff9a1b" d="m402.160156 264.132812h-36.054687c8.273437 0 13.371093-9.035156 9.105469-16.113281l-52.835938-87.707031c-1.925781-3.195312-5.378906-5.144531-9.105469-5.144531h36.054688c3.730469 0 7.179687 1.949219 9.105469 5.144531l52.839843 87.707031c4.265625 7.078125-.835937 16.113281-9.109375 16.113281zm0 0"/><path data-cppathid="10004" fill="#00b7a0" d="m501.347656 428.742188-490.707031-.246094c-8.273437-.003906-13.371094-9.042969-9.09375-16.128906l61.648437-102.105469c1.925782-3.191407 5.378907-5.136719 9.101563-5.136719h367.398437c3.730469 0 7.183594 1.949219 9.109376 5.144531l61.652343 102.355469c4.269531 7.085938-.835937 16.121094-9.109375 16.117188zm0 0"/><path data-cppathid="10005" fill="#009a8d" d="m501.347656 428.742188-35.398437-.019532c7.882812-.464844 12.609375-9.210937 8.449219-16.101562l-61.65625-102.347656c-1.925782-3.195313-5.378907-5.152344-9.105469-5.152344h36.054687c3.726563 0 7.191406 1.957031 9.105469 5.152344l61.65625 102.347656c4.277344 7.085937-.832031 16.121094-9.105469 16.121094zm0 0"/></svg>