<?xml version="1.0" encoding="UTF-8"?>
<svg xmlns="http://www.w3.org/2000/svg" onmouseup="{ if(window.parent.document.onmouseup) window.parent.document.onmouseup(arguments[0]);}" width="512" viewBox="0 0 512 512" height="512" enable-background="new 0 0 512 512" id="Capa_1"><path data-cppathid="10000" fill="#fff5f5" d="m436.432 11.607h-360.864c-41.735 0-75.568 33.833-75.568 75.568v227.378c0 41.735 33.833 75.568 75.568 75.568h225.962c10.719 0 21.093 3.784 29.295 10.685l114.751 96.547c9.689 8.152 24.03-1.362 20.286-13.458l-23.304-75.285c-2.751-8.888 2.473-18.397 11.523-20.562 33.222-7.949 57.919-37.838 57.919-73.495v-227.378c0-41.735-33.833-75.568-75.568-75.568z"/><path data-cppathid="10001" fill="#d5f3f7" d="m332.422 350.935h-256.854c-20.061 0-36.382-16.321-36.382-36.383v-227.377c0-20.061 16.321-36.382 36.382-36.382h360.865c20.061 0 36.382 16.321 36.382 36.382v227.378c0 19.956-16.232 36.276-36.184 36.38l-104.068.12z"/><path data-cppathid="10002" fill="#a7e8f1" d="m436.433 50.793h-30.936c20.061 0 36.382 16.321 36.382 36.382v227.378c0 19.956-16.232 36.276-36.184 36.38h30.936c19.952-.104 36.184-16.424 36.184-36.38v-227.378c-.001-20.062-16.321-36.382-36.382-36.382z"/><path data-cppathid="10003" fill="#ff646f" d="m282.352 200.92 82.483-82.483c7.278-7.277 7.278-19.075 0-26.352-7.277-7.277-19.074-7.277-26.351 0l-82.484 82.483-82.484-82.484c-7.277-7.277-19.074-7.277-26.351 0-7.278 7.277-7.278 19.075 0 26.352l82.483 82.483-82.483 82.483c-7.278 7.277-7.278 19.075 0 26.352 3.638 3.638 8.407 5.457 13.176 5.457s9.537-1.819 13.175-5.457l82.484-82.483 82.484 82.484c3.638 3.638 8.407 5.457 13.176 5.457s9.537-1.819 13.176-5.457c7.278-7.277 7.278-19.075 0-26.352z"/></svg>