<?xml version="1.0" encoding="UTF-8"?>
<svg xmlns="http://www.w3.org/2000/svg" onmouseup="{ if(window.parent.document.onmouseup) window.parent.document.onmouseup(arguments[0]);}" width="512" viewBox="0 0 512 512" height="512"><g data-name="Growing Time" id="Growing_Time"><g id="Filled"><path data-cppathid="10000" fill="#a1887f" d="m127.29 456a72.033 72.033 0 0 0 -67.9 48h135.8a72.033 72.033 0 0 0 -67.9-48z"/><circle data-cppathid="10001" r="168" fill="#f09b73" cy="176" cx="336"/><path data-cppathid="10002" fill="#e58b6c" d="m467.924 71.977a174.983 174.983 0 0 1 12.076 64.023c0 97.047-78.953 176-176 176a174.943 174.943 0 0 1 -98.543-30.262 168 168 0 0 0 262.467-209.761z"/><circle data-cppathid="10003" r="136" fill="#efebe8" cy="176" cx="336"/><circle data-cppathid="10004" r="16" fill="#f09b73" cy="176" cx="336"/><path data-cppathid="10005" fill="#e2dbd5" d="m368 61.667a143.166 143.166 0 0 1 57.427 11.958 135.428 135.428 0 0 0 -89.427-33.625c-74.99 0-136 61.01-136 136a135.59 135.59 0 0 0 40.7 96.926 143.088 143.088 0 0 1 -16.7-67.259c0-79.403 64.6-144 144-144z"/><path data-cppathid="10006" fill="#e58b6c" d="m349.9 168.1a36.175 36.175 0 0 1 -21.8 21.8 15.985 15.985 0 0 0 21.8-21.8z"/><circle data-cppathid="10007" r="8" fill="#f2bba5" cy="168" cx="328"/><g fill="#81c784"><path data-cppathid="10008" d="m92.08 349.82c26.839 9.373 38.111 24.692 33.741 37.2s-22.728 17.484-49.567 8.111-52.254-43.666-52.254-43.666 41.241-11.018 68.08-1.645z"/><path data-cppathid="10009" d="m163.21 349.82c-26.839 9.373-38.111 24.692-33.741 37.2s22.728 17.484 49.567 8.111 52.254-43.671 52.254-43.671-41.241-11.013-68.08-1.64z"/><path data-cppathid="10010" d="m92.08 269.82c26.839 9.373 38.111 24.692 33.741 37.2s-22.728 17.484-49.567 8.111-52.254-43.666-52.254-43.666 41.241-11.018 68.08-1.645z"/><path data-cppathid="10011" d="m163.21 269.82c-26.839 9.373-38.111 24.692-33.741 37.2s22.728 17.484 49.567 8.111 52.254-43.671 52.254-43.671-41.241-11.013-68.08-1.64z"/><path data-cppathid="10012" d="m95.052 202.711c22.547 7.874 32.276 20 28.924 29.6s-18.514 13.029-41.06 5.155-44.476-35.031-44.476-35.031 34.066-7.598 56.612.276z"/><path data-cppathid="10013" d="m156.62 203.726c-22.546 7.874-32.354 19.773-29.1 29.089s18.337 12.522 40.883 4.648 44.654-34.521 44.654-34.521-33.89-7.09-56.437.784z"/><path data-cppathid="10014" d="m111.117 157.951c.136 16.871 7.412 26.125 16.3 26.054s16.01-9.443 15.874-26.314-16.391-37.691-16.391-37.691-15.919 21.08-15.783 37.951z"/></g><path data-cppathid="10015" fill="#66bb6a" d="m100.135 204.651a52.15 52.15 0 0 1 -27.4 28.033 59.926 59.926 0 0 0 10.181 4.779c22.546 7.874 37.709 4.441 41.06-5.156 3.087-8.84-4.934-19.823-23.841-27.656z"/><path data-cppathid="10016" fill="#66bb6a" d="m100.113 273.01a59.951 59.951 0 0 1 -37.089 35.6 66.918 66.918 0 0 0 13.23 6.527c26.839 9.373 45.2 4.4 49.567-8.111 3.905-11.182-4.69-24.598-25.708-34.016z"/><path data-cppathid="10017" fill="#66bb6a" d="m102.3 354.023a59.937 59.937 0 0 1 -30.96 39.118c1.631.749 3.272 1.42 4.919 2 26.839 9.373 45.2 4.4 49.567-8.111 3.762-10.79-4.104-23.657-23.526-33.007z"/><circle data-cppathid="10018" r="8" fill="#c8e6c9" cy="208" cx="56"/><circle data-cppathid="10019" r="8" fill="#c8e6c9" cy="280" cx="80"/><circle data-cppathid="10020" r="8" fill="#c8e6c9" cy="368" cx="80"/><circle data-cppathid="10021" r="12" fill="#c8e6c9" cy="276" cx="52"/><circle data-cppathid="10022" r="12" fill="#c8e6c9" cy="356" cx="52"/><path data-cppathid="10023" fill="#66bb6a" d="m127.412 184.005c8.883-.072 16.01-9.443 15.874-26.314a30.79 30.79 0 0 0 -.37-4.352 52.059 52.059 0 0 1 -28.736 20.681c2.964 6.559 7.792 10.029 13.232 9.985z"/><path data-cppathid="10024" fill="#66bb6a" d="m175.329 234.473c19.937-10.1 37.727-31.531 37.727-31.531a160.027 160.027 0 0 0 -17.678-2.4 92.237 92.237 0 0 1 -20.049 33.931z"/><path data-cppathid="10025" fill="#66bb6a" d="m162.165 319.371a89.649 89.649 0 0 0 16.871-4.235c26.839-9.373 52.254-43.671 52.254-43.671a188.327 188.327 0 0 0 -33.254-5.161 92.682 92.682 0 0 1 -35.871 53.067z"/><path data-cppathid="10026" fill="#66bb6a" d="m161.339 399.481a88.377 88.377 0 0 0 17.7-4.345c26.839-9.373 52.254-43.671 52.254-43.671a188.187 188.187 0 0 0 -33.912-5.2 92.668 92.668 0 0 1 -36.042 53.216z"/><circle data-cppathid="10027" r="8" fill="#c8e6c9" cy="136" cx="128"/><circle data-cppathid="10028" r="8" fill="#c8e6c9" cy="216" cx="160"/><circle data-cppathid="10029" r="8" fill="#c8e6c9" cy="368" cx="160"/><circle data-cppathid="10030" r="8" fill="#c8e6c9" cy="304" cx="152"/><circle data-cppathid="10031" r="12" fill="#c8e6c9" cy="284" cx="172"/><circle data-cppathid="10032" r="12" fill="#bcaaa4" cy="476" cx="100"/><path data-cppathid="10033" fill="#9c7b70" d="m147.166 458.781a100.1 100.1 0 0 1 -30.179 45.219h78.2a72.178 72.178 0 0 0 -48.021-45.219z"/></g><g id="Outline"><path data-cppathid="10034" d="m233.354 343.736c-33.114-8.846-70.6-9.439-97.354 11.311v-30.508c13.687 6.207 31.483 3.106 45.674-1.851 28.832-10.069 54.946-44.979 56.044-46.46a8 8 0 0 0 -4.364-12.492c-1.78-.476-43.949-11.537-72.782-1.468a86.944 86.944 0 0 0 -24.572 12.779v-26.247c11.047 2.731 24.211 0 35.04-3.78 24.366-8.511 47.212-35.808 48.173-36.965a8.005 8.005 0 0 0 -4.519-12.939c-26.5-5.552-55.746-5.048-78.694 9.544v-14.6c16.377-7.77 24.844-39.573-2.8-74.982a8 8 0 0 0 -12.69.1c-26.946 35.674-18.435 68.512-.512 75.451v16.1c-22.477-17.7-55.372-18.307-83.3-12.1a8 8 0 0 0 -4.482 12.835c18.022 22.32 44.357 42.4 72.971 42.394a35.558 35.558 0 0 0 14.813-2.883v28.639c-26.762-21.417-65.03-20.7-98.064-11.878a8 8 0 0 0 -4.364 12.492c21.775 29.388 57.653 57.8 93.4 50.917a36.584 36.584 0 0 0 9.028-2.939v31.408c-26.728-21.39-64.994-20.726-98.064-11.878a8 8 0 0 0 -4.364 12.492c1.1 1.481 27.212 36.391 56.044 46.46 14.458 5.05 32.65 8.157 46.384 1.518v44.14a80.184 80.184 0 0 0 -66.039 47.654h-13.961a8 8 0 0 0 0 16h176a8 8 0 0 0 0-16h-15.382a80.183 80.183 0 0 0 -64.618-47.513v-43.948c13.687 6.207 31.483 3.106 45.674-1.851 28.832-10.069 54.946-44.979 56.044-46.46a8 8 0 0 0 -4.364-12.492zm-67.506-66.363c14.782-5.162 35.4-3.475 50.828-.8-9.136 10.261-24.687 25.57-40.278 31.014-45.441 15.866-55.993-14.344-10.55-30.214zm-29.848-51.313c4.183-6.886 15.667-12.13 23.258-14.781 11.066-3.864 25.738-3.7 37.359-2.595-7.963 7.67-19.51 17.264-30.852 21.226-7.682 2.684-24.129 6.647-29.765 1.586zm-19.576 3.61c-1.383 3.962-12.152 6.778-30.871.24-11.513-4.021-23.2-14.028-31.109-21.886 11.085-1.222 26.458-1.782 37.97 2.24 18.719 6.536 25.393 15.445 24.01 19.406zm-37.532 77.913c-15.591-5.444-31.143-20.754-40.278-31.014 13.537-2.342 35.24-4.641 50.828.8 45.44 15.873 34.894 46.086-10.55 30.214zm0 80c-15.591-5.444-31.143-20.754-40.278-31.014 13.537-2.343 35.24-4.641 50.828.8 45.44 15.873 34.894 46.086-10.55 30.214zm40.225-229.7c-.058-7.207 3.928-16.242 7.9-23.3 4.083 6.993 8.214 15.963 8.271 23.169.193 24.048-15.975 24.467-16.171.134zm63.601 338.117h-110.857c24.647-42.607 86.214-42.6 110.857 0zm-6.318-108.417c-45.424 15.864-55.991-14.341-10.55-30.21 14.782-5.162 35.4-3.475 50.828-.8-9.138 10.257-24.689 25.566-40.278 31.01z"/><circle data-cppathid="10035" r="8" cy="504" cx="8"/><circle data-cppathid="10036" r="8" cy="504" cx="248"/><path data-cppathid="10037" d="m168.156 176.77a8 8 0 0 0 7.988-7.662c5.183-122.296 138.577-191.152 240.707-131.208a8 8 0 1 0 8.1-13.8c-114.638-67.28-259.207 12.546-264.794 144.331a8 8 0 0 0 7.999 8.339z"/><path data-cppathid="10038" d="m474.732 67.692a8 8 0 1 0 -12.605 9.856 158.379 158.379 0 0 1 33.873 98.452c0 131.056-148.958 205.131-253.364 129.938a8 8 0 0 0 -9.351 12.983c115.123 82.914 278.715.986 278.715-142.921a174.242 174.242 0 0 0 -37.268-108.308z"/><path data-cppathid="10039" d="m192.2 168.424a8 8 0 0 0 15.979.832 128 128 0 0 1 255.821 6.744c0 103.555-116.7 163.321-200.563 105.388a8 8 0 1 0 -9.094 13.164c94.376 65.199 225.657-2.06 225.657-118.552 0-79.4-64.6-144-144-144a143.9 143.9 0 0 0 -143.8 136.424z"/><path data-cppathid="10040" d="m328 153.376c-25.358 8.994-18.8 46.624 8 46.624a24.039 24.039 0 0 0 22.624-16h25.376a8 8 0 0 0 0-16h-25.376a24.119 24.119 0 0 0 -14.624-14.624v-49.376a8 8 0 0 0 -16 0zm8 14.624a8 8 0 1 1 -8 8 8.009 8.009 0 0 1 8-8z"/><circle data-cppathid="10041" r="8" cy="72" cx="336"/><circle data-cppathid="10042" r="8" cy="280" cx="336"/><circle data-cppathid="10043" r="8" cy="176" cx="232"/><circle data-cppathid="10044" r="8" cy="176" cx="440"/><circle data-cppathid="10045" r="8" cy="102.461" cx="262.461"/><path data-cppathid="10046" d="m403.882 255.2a8 8 0 1 0 0-11.314 8 8 0 0 0 0 11.314z"/><path data-cppathid="10047" d="m415.2 108.118a8 8 0 1 0 -11.314 0 8 8 0 0 0 11.314 0z"/><circle data-cppathid="10048" r="8" cy="48" cx="448"/><circle data-cppathid="10049" r="8" cy="249.539" cx="262.461"/></g></g></svg>