<?xml version="1.0" encoding="UTF-8"?>
<svg xmlns="http://www.w3.org/2000/svg" onmouseup="{ if(window.parent.document.onmouseup) window.parent.document.onmouseup(arguments[0]);}" width="512" viewBox="0 0 512.064 512.064" height="512" enable-background="new 0 0 512.064 512.064" id="Capa_1"><g><path data-cppathid="10000" fill="#ffb725" d="m447.749 426.612-170.498-170.498 170.498-170.499 10.435 13.393c34.724 44.57 53.847 100.365 53.847 157.105s-19.123 112.535-53.847 157.105z"/><path data-cppathid="10001" fill="#50c5ff" d="m241.034 262.324v-262.32l-16.85 2.1c-56.94 7.1-108.52 32.34-149.17 72.99-48.35 48.35-74.98 112.64-74.98 181.02s26.63 132.67 74.98 181.02c49.58 49.57 115.16 74.88 181.02 74.93h.22c55.2 0 110.6-17.74 156.89-53.8l13.39-10.44z"/><path data-cppathid="10002" fill="#10bb67" d="m271.038 219.9-.001-219.9 16.857 2.103c45.706 5.702 89.016 23.637 125.249 51.865l13.393 10.435z"/><path data-cppathid="10003" fill="#d8270f" d="m447.749 426.612-64.494-64.495 7.415-10.345c20.27-28.28 30.984-61.679 30.984-96.587 0-34.47-10.469-67.525-30.276-95.591l-7.285-10.322 63.656-63.656 10.434 13.393c34.725 44.57 53.848 100.365 53.848 157.105s-19.123 112.535-53.848 157.105z"/><path data-cppathid="10004" fill="#02963e" d="m363.002 127.936-10.354-7.469c-20.44-14.744-44.338-24.751-69.11-28.939l-12.5-2.113v-89.415l16.857 2.103c45.705 5.702 89.015 23.637 125.248 51.865l13.393 10.435z"/><path data-cppathid="10005" fill="#488aff" d="m426.534 447.824-13.39 10.44c-46.29 36.06-101.69 53.8-156.89 53.8h-.22v-234.74z"/><path data-cppathid="10006" fill="#48568c" d="m361.994 383.284-10.33 7.34c-28.05 19.92-61.11 30.48-95.63 30.56h-.38c-91.53 0-166-74.47-166-166 0-81.65 58.38-150.53 138.82-163.77l12.56-2.07v-89.34l-16.85 2.1c-56.94 7.1-108.52 32.34-149.17 72.99-48.35 48.35-74.98 112.64-74.98 181.02s26.63 132.67 74.98 181.02c49.58 49.57 115.16 74.88 181.02 74.93h.22c55.2 0 110.6-17.74 156.89-53.8l13.39-10.44z"/><path data-cppathid="10007" fill="#2c3b73" d="m426.534 447.824-13.39 10.44c-46.29 36.06-101.69 53.8-156.89 53.8h-.22v-90.88c34.52-.08 67.58-10.64 95.63-30.56l10.33-7.34z"/></g></svg>