<?xml version="1.0" encoding="UTF-8"?>
<svg xmlns="http://www.w3.org/2000/svg" onmouseup="{ if(window.parent.document.onmouseup) window.parent.document.onmouseup(arguments[0]);}" width="512" viewBox="0 0 512 512" height="512" enable-background="new 0 0 512 512" id="Layer_1"><g fill-rule="evenodd" clip-rule="evenodd"><path data-cppathid="10000" fill="#eceff1" d="m399.401 411.52v-366.42c0-21-17.181-38.18-38.18-38.18-90.906 0-181.812 0-272.717 0-19.15 0-35.121 14.286-37.787 32.726h268.687c21 0 38.18 17.183 38.18 38.178v361.822 27.258c0 1.85-.133 3.67-.393 5.452h4.03c21 0 38.18-17.181 38.18-38.18z"/><path data-cppathid="10001" fill="#eceff1" d="m357.584 439.645v27.258c0 20.996-17.182 38.178-38.18 38.178h-272.718c-21 0-38.179-17.181-38.179-38.178v-389.08c0-20.997 17.179-38.178 38.179-38.178h272.718c21 0 38.18 17.183 38.18 38.178z"/><path data-cppathid="10002" fill="#ffb954" d="m261.62 92.893 44.155 29.766v-83.014h-92.261v83.652h3.007z"/><path data-cppathid="10003" fill="#929ba0" d="m258.472 246.4 21.898 7.066c5.111 1.649 7.945 7.18 6.294 12.289l-28.422 88.093c-1.649 5.111-7.18 7.943-12.291 6.294l-21.898-7.066c-5.111-1.65-7.943-7.18-6.294-12.291l28.422-88.092c1.649-5.11 7.179-7.942 12.291-6.293z"/><g fill="#f2c07e"><path data-cppathid="10004" d="m292.063 371.575c6.556-12.258-6.031-19.835-6.04-19.926-7.14-3.819-16.107-1.102-19.925 6.038l-9.155 17.115c-3.713 6.942-1.143 16.335 6.039 19.926 7.134 3.817 16.093 1.105 19.918-6.022"/><path data-cppathid="10005" d="m289.954 375.517-12.462 23.297c-3.713 6.942-1.143 16.335 6.04 19.926 7.14 3.819 16.107 1.101 19.925-6.04l12.46-23.297c3.819-7.139 1.102-16.106-6.038-19.925-7.14-3.818-16.106-1.102-19.925 6.039z"/><path data-cppathid="10006" d="m313.928 393.124-8.048 15.047c-3.712 6.942-1.144 16.335 6.038 19.926 7.14 3.819 16.107 1.101 19.926-6.039l8.048-15.047c3.819-7.14 1.102-16.107-6.038-19.926-7.14-3.82-16.105-1.103-19.926 6.039z"/><path data-cppathid="10007" d="m335.87 414.534-3.567 6.669c-7.704 14.405 15.293 33.84 25.963 13.887l2.603-4.867c5.157-9.641 6.395-16.788-4.576-22.656-7.142-3.818-16.604-.173-20.423 6.967z"/><path data-cppathid="10008" d="m333.854 387.084c7.14 3.819 9.858 12.786 6.038 19.926l-4.023 7.524c3.819-7.14 13.282-10.786 20.423-6.966 10.971 5.868 9.733 13.015 4.576 22.656.634.087 3.89 1.881 6.656 3.305 13.898 7.157 25.553-12.786 11.615-22.459-.617-.428-1.284-.837-2.004-1.221l5.753 3.077c7.384 3.95 16.657 1.139 20.605-6.245 3.95-7.382 1.14-16.657-6.244-20.604l11.949 6.391c7.465 3.992 16.839 1.151 20.831-6.314 3.801-7.105 1.411-15.939-5.264-20.217-.339-.217-.688-.422-1.048-.614l11.359 6.076c14.961 8.002 23.076-9.244 17.504-20.707-.301-.619-.642-1.222-1.025-1.804-7.939-12.065-42.766-26.207-56.237-34.01-22.195-17.56-54.193 27.846-79.134-5.692 2.432-5.928 14.469-16.711 25.205-27.559 4.554-4.601 8.889-8.246 13.033-11.114.15-.104.299-.208.45-.31-28.552-19.265-45.823-.902-67.827-5.46l-10.384 32.014-13.68 42.401c-2.161 8.146-2.005 16.417.158 24.059l2.957-5.531c3.819-7.142 12.786-9.859 19.926-6.039.009.091 12.596 7.668 6.04 19.926l-2.109 3.942c3.819-7.14 12.785-9.857 19.926-6.038 7.14 3.819 9.857 12.786 6.038 19.925l-1.989 3.72c3.821-7.14 12.786-9.857 19.926-6.038z"/><path data-cppathid="10009" d="m395.319 314.879c13.472 7.803 48.298 21.945 56.237 34.01.383.582.725 1.185 1.026 1.804 0 .011 7.677-2.76 8.596-3.084l-28.837-77.645c-18.946 13.207-40.226-25.123-77.469.24-4.278 2.915-8.764 6.656-13.483 11.424-10.736 10.848-22.773 21.631-25.205 27.559 24.942 33.537 56.94-11.869 79.135 5.692z"/></g><path data-cppathid="10010" fill="#929ba0" d="m497.13 350.271-21.571 8.012c-5.034 1.87-10.682-.72-12.552-5.754l-32.229-86.773c-1.87-5.034.72-10.682 5.754-12.552l21.571-8.012c5.034-1.87 10.682.72 12.552 5.754l32.229 86.773c1.87 5.034-.72 10.683-5.754 12.552z"/><path data-cppathid="10011" d="m72.495 184.841c0-3.822 3.098-6.919 6.919-6.919l207.261.001c3.821 0 6.919 3.097 6.919 6.919s-3.099 6.919-6.919 6.919l-207.263-.001c-3.82-.001-6.917-3.096-6.917-6.919zm113.178 51.43h-106.26c-3.822 0-6.919 3.097-6.919 6.919s3.098 6.919 6.919 6.919l106.261-.001c3.822 0 6.919-3.097 6.919-6.919s-3.098-6.918-6.92-6.918zm0 58.346h-106.26c-3.822 0-6.919 3.099-6.919 6.919s3.098 6.919 6.919 6.919h106.261c3.822 0 6.919-3.099 6.919-6.919s-3.098-6.919-6.92-6.919zm0 58.348h-106.26c-3.822 0-6.919 3.099-6.919 6.919s3.098 6.919 6.919 6.919l106.261-.001c3.822 0 6.919-3.099 6.919-6.919 0-3.819-3.098-6.918-6.92-6.918zm323.208-4.901c1.862-4.054 2.032-8.588.488-12.755l-32.23-86.768c-1.549-4.166-4.635-7.487-8.688-9.346-4.054-1.863-8.586-2.03-12.758-.487l-21.573 8.01c-4.166 1.547-7.487 4.635-9.346 8.691-1.522 3.316-1.85 6.942-1.097 10.438-3.435.139-7.775-1.432-14.647-4.305-.884-.37-1.787-.749-2.712-1.13v-215.312c0-24.867-20.23-45.1-45.098-45.1h-272.715c-20.237 0-37.892 13.752-43.338 32.802-24.161.81-43.58 20.668-43.58 45.023v389.075c0 24.869 20.231 45.1 45.098 45.1h272.717c20.601 0 37.981-13.901 43.353-32.802 24.156-.819 43.566-20.676 43.566-45.027v-19.751c1.244-1.355 2.382-2.814 3.27-4.474 1.536-2.874 2.405-5.986 2.581-9.153 9.379 1.826 19.229-2.54 23.959-11.378 1.61-2.999 2.45-6.208 2.608-9.397 6.348 1.235 12.294-.653 16.704-5.485 3.213-3.522 5.054-8.199 5.584-13.083 1.246 1.12 2.615 2.114 4.185 2.834 2.224 1.023 4.588 1.533 6.957 1.533 1.956 0 3.915-.348 5.798-1.046l21.568-8.013c4.165-1.55 7.486-4.635 9.346-8.694zm-105.192-73.757c6.207 2.599 12.924 5.41 19.741 5.409 1.637 0 3.282-.229 4.926-.595l21.67 58.342c-8.375-6.801-21.374-13.525-36.812-21.147-5.424-2.68-10.554-5.212-14.036-7.198-12.675-9.655-26.98-4.257-39.631.504-15.526 5.843-25.381 8.842-34.837-1.013 3.199-3.976 9.137-9.811 14.15-14.733 2.465-2.419 4.987-4.9 7.446-7.383 4.084-4.126 8.169-7.596 12.141-10.342 18.741-12.935 32.213-7.294 45.242-1.844zm-343.866-241.581h259.578c24.869 0 45.099 20.231 45.099 45.099v179.577c10.489-3.875 19.797-3.526 27.982-1.619l-.001-210.683c0-17.237-14.021-31.261-31.261-31.261h-272.715c-12.625 0-23.817 7.715-28.682 18.887zm160.608 79.592v-65.755h78.424v63.088l-33.369-22.493c-2.342-1.578-5.396-1.578-7.737 0zm130.23 354.582v-16.926c-1.449.356-2.911.557-4.364.557-3.382 0-6.713-.91-9.672-2.496-4.858-2.594-8.906-7.102-11.072-12.36-.14.044-.28.09-.423.131-5.541 1.675-11.392 1.108-16.477-1.613-3.779-1.887-6.883-4.995-8.896-8.902-.968.457-1.972.844-3.014 1.159-5.54 1.676-11.395 1.109-16.476-1.612-4.848-2.419-8.578-6.847-10.339-12.383-.941-2.964-1.244-6.072-.923-9.09-3.153-.131-6.324-.956-9.289-2.542-4.841-2.412-8.572-6.841-10.333-12.377-1.799-5.654-1.268-11.816 1.457-16.91l2.488-4.651c-1.438.396-2.901.649-4.382.649-1.717 0-3.446-.269-5.126-.813l-21.893-7.059c-8.752-2.824-13.577-12.247-10.754-21l28.421-88.092c1.365-4.232 4.306-7.681 8.279-9.718 3.972-2.032 8.494-2.399 12.723-1.038l21.901 7.064c5.617 1.815 9.582 6.355 10.979 11.681 5.078.178 10.146-.824 15.787-1.944 11.813-2.347 25-4.949 41.401 3.152v-181.943c0-17.236-14.022-31.261-31.261-31.261h-6.706v76.097c0 2.559-1.409 4.907-3.671 6.107-2.262 1.203-4.991 1.057-7.117-.373l-40.288-27.157-41.23 27.795c-1.143.768-2.489 1.182-3.868 1.182h-3.009c-3.822 0-6.919-3.097-6.919-6.919l.001-76.733h-159.911c-17.235 0-31.261 14.026-31.261 31.261v389.077c0 17.24 14.026 31.261 31.261 31.261h272.717c17.238 0 31.259-14.022 31.259-31.261zm20.472-52.278 3.98 2.137c4.737 3.261 3.279 7.207 2.648 8.412-.564 1.076-2.771 4.418-7.073 2.202l-.703-.365c1.326-3.621 2.203-7.989 1.148-12.386zm-6.847 25.021h-.708c.055-.095.114-.185.17-.281zm-22.309-21.864c1.05-1.951 2.933-3.528 5.17-4.32 1.228-.433 3.635-.996 5.879.206 5.225 2.798 6.644 4.118 1.739 13.298-.004.004-.005.009-.006.013l-2.593 4.851c-3.672 6.86-7.698 4.717-9.013 4.005-3.518-1.877-7.028-7.111-4.753-11.369l3.568-6.671zm-11.391-24.598c3.796 2.029 5.234 6.769 3.203 10.57l-4.022 7.521c-.005 0-.005 0-.005 0-.005.012-.009.025-.016.037l-3.524 6.591c-.006.009-.011.014-.015.022l-.466.874c-.978 1.824-2.623 3.161-4.626 3.769-2.003.607-4.116.404-6.108-.659-2.216-1.108-3.143-3.157-3.504-4.283-.671-2.109-.5-4.367.473-6.186v-.005l8.037-15.027c.004-.006.009-.012.013-.017 2.034-3.798 6.781-5.226 10.56-3.207zm-20.204-12.979c.608 2.007.407 4.113-.573 5.939l-1.986 3.721c-.003.005-.004.012-.007.017l-8.025 15.006c-.004.008-.009.013-.012.018l-2.423 4.53c-2.032 3.785-6.763 5.236-10.734 3.114-2.216-1.109-3.147-3.163-3.503-4.289-.671-2.11-.501-4.364.472-6.188l5.405-10.109 7.043-13.167c.004-.006.009-.012.012-.017 2.032-3.793 6.775-5.234 10.562-3.202 1.824.979 3.163 2.618 3.769 4.627zm-27.964-22.624c6.717 4.792 4.329 9.256 3.542 10.732l-2.108 3.933v.004.005l-7.032 13.145c-.005.013-.016.023-.022.034-2.032 3.791-6.772 5.226-10.722 3.105-2.221-1.108-3.149-3.163-3.508-4.285-.671-2.112-.501-4.368.473-6.188l6.191-11.577c.001-.001.001-.003.002-.004l2.959-5.533c.977-1.822 2.616-3.161 4.625-3.769 1.884-.57 3.861-.422 5.6.398zm-2.341-93.95-22.691 70.338c-.088.2-.195.383-.264.596-.197.612-.349 1.232-.525 1.848l-4.942 15.318c-.307.96-1.02 1.447-1.413 1.649-.395.197-1.202.494-2.168.179l-21.9-7.062c-1.465-.473-2.305-2.114-1.832-3.583l28.423-88.091c.307-.962 1.02-1.446 1.413-1.649.273-.141.74-.323 1.316-.323.262 0 .548.038.85.137l21.899 7.064c1.468.474 2.306 2.114 1.834 3.579zm112.404 170.544c0 16.129-12.279 29.444-27.982 31.091v-25.517c2.908 1.467 5.94 2.179 8.893 2.179 6.783 0 13.148-3.698 16.621-10.32 1.608-3.058 2.438-6.555 2.316-10.086.051-.006.102-.025.153-.03v12.683zm53.294-81.478c2.608 3.954 1.854 9.871-.546 12.508-.637.7-2.324 2.524-6.884.095l-11.359-6.076c-.111-.06-.227-.089-.34-.141l-36.555-19.84c-3.362-1.812-7.559-.577-9.383 2.778-1.825 3.36-.577 7.559 2.779 9.383l37.357 20.274c3.816 2.318 5.223 7.236 3.097 11.212-2.203 4.121-7.347 5.676-11.473 3.482l-11.265-6.028c-.212-.147-.411-.307-.643-.433l-27.203-14.545c-3.35-1.812-7.564-.537-9.36 2.837-1.802 3.37-.531 7.564 2.839 9.36l26.51 14.175c.215.149.416.311.651.438l.018.009c1.927 1.041 3.346 2.784 3.995 4.91.644 2.137.428 4.379-.612 6.325-1.037 1.94-2.784 3.364-4.915 4.013-2.139.641-4.377.429-6.324-.607l-5.729-3.069c-.009-.005-.013-.009-.022-.009-.377-.203-.766-.354-1.16-.482l-22.953-12.324c-3.133-1.666-6.949-.681-8.928 2.167-1.706-5.018-5.21-9.435-10.243-12.13-4.104-2.189-8.608-2.928-12.901-2.375-.149-.81-.343-1.616-.586-2.414-1.676-5.54-5.401-10.094-10.482-12.811-4.036-2.156-8.45-2.899-12.676-2.412-1.068-5.6-4.571-10.834-10.284-14.842-.284-.214-.582-.407-.897-.573-5.086-2.721-10.937-3.307-16.481-1.612-1.434.433-2.803 1.004-4.087 1.698.243-1.762.646-3.513 1.132-5.251l21.963-68.073c7.156.433 13.733-.849 20.142-2.122 10.184-2.023 19.237-3.824 30.436.977-1.978 1.739-3.96 3.603-5.928 5.595-2.41 2.433-4.889 4.865-7.303 7.24-10.518 10.327-17.081 16.944-19.383 22.557-.919 2.244-.6 4.806.846 6.757 17.14 23.041 38.331 15.081 53.798 9.258 12.369-4.667 20.274-7.266 26.599-2.266.262.203.536.393.824.56 3.878 2.248 9.138 4.847 15.234 7.856 13.518 6.674 33.947 16.768 38.685 23.971zm50.62-12.567c.35.945.094 1.765-.09 2.17-.183.405-.639 1.135-1.59 1.485l-21.566 8.014c-.947.346-1.772.09-2.172-.09-.406-.184-1.136-.639-1.487-1.59l-32.23-86.769c-.35-.947-.095-1.768.09-2.172.183-.405.639-1.136 1.59-1.487l21.571-8.012c.342-.127.667-.174.964-.174.518 0 .947.149 1.203.267.406.184 1.136.638 1.487 1.587z"/></g></svg>