<?xml version="1.0" encoding="UTF-8"?>
<svg xmlns="http://www.w3.org/2000/svg" onmouseup="{ if(window.parent.document.onmouseup) window.parent.document.onmouseup(arguments[0]);}" width="512" viewBox="0 0 512 512" height="512" id="Layer_1"><g><g><path data-cppathid="10000" fill="#f0915a" d="m262.627 32c-4.243 0-8.313 1.686-11.314 4.686l-54.627 54.627c-3 3-4.686 7.07-4.686 11.314v57.373h192c17.673 0 32-14.327 32-32h16v-96z"/></g><g><g><circle data-cppathid="10001" r="104" fill="#f04b37" cy="184" cx="256"/></g><path data-cppathid="10002" fill="#f5826e" d="m256 80c-57.438 0-104 46.563-104 104 0 4.418 3.582 8 8 8s8-3.582 8-8c0-48.601 39.399-88 88-88s88 39.399 88 88c0 4.418 3.582 8 8 8s8-3.582 8-8c0-57.437-46.562-104-104-104z"/><g><circle data-cppathid="10003" r="72" fill="#463c4b" cy="184" cx="256"/></g><g><path data-cppathid="10004" fill="#6478b9" d="m309.333 224c0-13.255-10.745-24-24-24h-58.667c-13.255 0-24 10.745-24 24v8.368c13.173 14.516 32.188 23.632 53.334 23.632s40.161-9.116 53.333-23.632z"/></g><g><path data-cppathid="10005" fill="#d7e6f0" d="m256 232c-13.255 0-24-10.745-24-24v-8h48v8c0 13.255-10.745 24-24 24z"/></g><g><circle data-cppathid="10006" r="32" fill="#fab991" cy="160" cx="256"/></g></g><g><path data-cppathid="10007" fill="#fab991" d="m261.657 101.657.887.887c14.059 14.059 36.853 14.059 50.912 0l14.544-14.544h40c26.51 0 48-21.49 48-48v-8h-89.373c-4.243 0-8.313 1.686-11.314 4.686l-53.657 53.657c-3.123 3.124-3.123 8.19.001 11.314z"/></g><g><path data-cppathid="10008" fill="#f0915a" d="m264 88 .686.686c6.248 6.248 16.379 6.248 22.627 0l4.525-4.525c1.562-1.562 1.562-4.095 0-5.657l-9.172-9.172z"/></g><g><path data-cppathid="10009" fill="#555a6e" d="m448 144h32v-128h-32c-8.837 0-16 7.163-16 16v96c0 8.837 7.163 16 16 16z"/></g><g><path data-cppathid="10010" fill="#463c4b" d="m456 80h24v64h-32v-56c0-4.418 3.582-8 8-8z"/></g><path data-cppathid="10011" fill="#6478b9" d="m285.657 314.343-24-24c-3.125-3.124-8.189-3.124-11.314 0l-24 24c-2.288 2.288-2.972 5.729-1.733 8.718s4.155 4.939 7.39 4.939h16v24c0 4.418 3.582 8 8 8s8-3.582 8-8v-24h16c3.235 0 6.152-1.949 7.391-4.938s.554-6.431-1.734-8.719z"/><g><g><circle data-cppathid="10012" r="104" fill="#a5c3dc" cy="392" cx="136"/></g><path data-cppathid="10013" fill="#d7e6f0" d="m136 288c-57.438 0-104 46.563-104 104 0 4.418 3.582 8 8 8s8-3.582 8-8c0-48.601 39.399-88 88-88s88 39.399 88 88c0 4.418 3.582 8 8 8s8-3.582 8-8c0-57.437-46.562-104-104-104z"/><g><circle data-cppathid="10014" r="72" fill="#4b55a5" cy="392" cx="136"/></g><g><path data-cppathid="10015" fill="#6478b9" d="m189.333 432c0-13.255-10.745-24-24-24h-58.667c-13.255 0-24 10.745-24 24v8.368c13.173 14.516 32.188 23.632 53.334 23.632s40.161-9.116 53.333-23.632z"/></g><g><path data-cppathid="10016" fill="#d7e6f0" d="m136 440c-13.255 0-24-10.745-24-24v-8h48v8c0 13.255-10.745 24-24 24z"/></g><g><circle data-cppathid="10017" r="32" fill="#fab991" cy="368" cx="136"/></g></g><g><g><circle data-cppathid="10018" r="104" fill="#a5c3dc" cy="392" cx="376"/></g><path data-cppathid="10019" fill="#d7e6f0" d="m376 288c-57.438 0-104 46.563-104 104 0 4.418 3.582 8 8 8s8-3.582 8-8c0-48.601 39.399-88 88-88s88 39.399 88 88c0 4.418 3.582 8 8 8s8-3.582 8-8c0-57.437-46.562-104-104-104z"/><g><circle data-cppathid="10020" r="72" fill="#4b55a5" cy="392" cx="376"/></g><g><path data-cppathid="10021" fill="#6478b9" d="m429.333 432c0-13.255-10.745-24-24-24h-58.667c-13.255 0-24 10.745-24 24v8.368c13.173 14.516 32.188 23.632 53.334 23.632s40.161-9.116 53.333-23.632z"/></g><g><path data-cppathid="10022" fill="#d7e6f0" d="m376 440c-13.255 0-24-10.745-24-24v-8h48v8c0 13.255-10.745 24-24 24z"/></g><g><circle data-cppathid="10023" r="32" fill="#fab991" cy="368" cx="376"/></g></g></g></svg>