<?xml version="1.0" encoding="UTF-8"?>
<svg xmlns="http://www.w3.org/2000/svg" onmouseup="{ if(window.parent.document.onmouseup) window.parent.document.onmouseup(arguments[0]);}" data-name="Layer 1" width="512" viewBox="0 0 100 100" height="512" id="Layer_1"><path data-cppathid="10000" fill="#ccc" d="m6.39 7.49h54.28v87.51h-54.28z"/><path data-cppathid="10001" d="m60.68 95.5h-54.29a.5.5 0 0 1 -.5-.5v-87.51a.5.5 0 0 1 .5-.5h54.29a.5.5 0 0 1 .5.5v87.51a.5.5 0 0 1 -.5.5zm-53.79-1h53.29v-86.5h-53.29z"/><g opacity=".05"><path data-cppathid="10002" d="m60.68 9.49v4.44a54.28 54.28 0 0 0 -47.29 53.83v27.24h-7v-85.51z"/></g><path data-cppathid="10003" fill="#999" d="m60.68 95h-54.29a1 1 0 0 1 0-2h54.29a1 1 0 1 1 0 2z"/><path data-cppathid="10004" d="m60.68 95.5h-54.29a1.5 1.5 0 0 1 0-3h54.29a1.5 1.5 0 1 1 0 3zm-54.29-2a.5.5 0 0 0 0 1h54.29a.5.5 0 1 0 0-1z"/><rect data-cppathid="10005" y="7.3" x="5.09" width="56.61" rx="1.92" height="9.29" fill="#999"/><path data-cppathid="10006" d="m59.78 17.09h-52.78a2.42 2.42 0 0 1 -2.42-2.42v-5.45a2.42 2.42 0 0 1 2.42-2.42h52.78a2.43 2.43 0 0 1 2.42 2.42v5.45a2.42 2.42 0 0 1 -2.42 2.42zm-52.78-9.29a1.43 1.43 0 0 0 -1.41 1.42v5.45a1.42 1.42 0 0 0 1.41 1.42h52.78a1.42 1.42 0 0 0 1.42-1.42v-5.45a1.43 1.43 0 0 0 -1.42-1.42z"/><path data-cppathid="10007" fill="#94bcdd" d="m22.41 69.83h22.87v25.17h-22.87z"/><path data-cppathid="10008" d="m45.27 95.5h-22.86a.5.5 0 0 1 -.5-.5v-25.17a.5.5 0 0 1 .5-.5h22.86a.5.5 0 0 1 .5.5v25.17a.5.5 0 0 1 -.5.5zm-22.36-1h21.86v-24.17h-21.86z"/><rect data-cppathid="10009" y="57.36" x="23.57" width="7.94" rx=".83" height="7.98" fill="#94bcdd"/><path data-cppathid="10010" d="m30.67 65.84h-6.27a1.33 1.33 0 0 1 -1.33-1.33v-6.31a1.33 1.33 0 0 1 1.33-1.34h6.27a1.34 1.34 0 0 1 1.33 1.34v6.31a1.34 1.34 0 0 1 -1.33 1.33zm-6.27-8a.33.33 0 0 0 -.33.34v6.31a.33.33 0 0 0 .33.33h6.27a.33.33 0 0 0 .33-.33v-6.29a.34.34 0 0 0 -.33-.34z"/><rect data-cppathid="10011" y="57.36" x="35.54" width="7.94" rx=".83" height="7.98" fill="#94bcdd"/><path data-cppathid="10012" d="m42.65 65.84h-6.28a1.34 1.34 0 0 1 -1.37-1.33v-6.31a1.34 1.34 0 0 1 1.33-1.34h6.28a1.34 1.34 0 0 1 1.39 1.34v6.31a1.34 1.34 0 0 1 -1.35 1.33zm-6.28-8a.34.34 0 0 0 -.33.34v6.31a.33.33 0 0 0 .33.33h6.28a.33.33 0 0 0 .33-.33v-6.29a.34.34 0 0 0 -.33-.34z"/><rect data-cppathid="10013" y="57.36" x="47.52" width="7.94" rx=".83" height="7.98" fill="#94bcdd"/><path data-cppathid="10014" d="m54.62 65.84h-6.27a1.34 1.34 0 0 1 -1.35-1.33v-6.31a1.34 1.34 0 0 1 1.33-1.34h6.27a1.33 1.33 0 0 1 1.4 1.34v6.31a1.33 1.33 0 0 1 -1.38 1.33zm-6.27-8a.34.34 0 0 0 -.33.34v6.31a.33.33 0 0 0 .33.33h6.27a.33.33 0 0 0 .33-.33v-6.29a.33.33 0 0 0 -.33-.34z"/><rect data-cppathid="10015" y="57.36" x="11.59" width="7.94" rx=".83" height="7.98" fill="#94bcdd"/><path data-cppathid="10016" d="m18.69 65.84h-6.27a1.34 1.34 0 0 1 -1.33-1.33v-6.31a1.34 1.34 0 0 1 1.33-1.34h6.27a1.33 1.33 0 0 1 1.31 1.34v6.31a1.33 1.33 0 0 1 -1.31 1.33zm-6.27-8a.34.34 0 0 0 -.33.34v6.31a.33.33 0 0 0 .33.33h6.27a.33.33 0 0 0 .33-.33v-6.29a.34.34 0 0 0 -.33-.34z"/><rect data-cppathid="10017" y="46.36" x="23.57" width="7.94" rx=".83" height="7.98" fill="#94bcdd"/><path data-cppathid="10018" d="m30.67 54.84h-6.27a1.33 1.33 0 0 1 -1.33-1.33v-6.31a1.33 1.33 0 0 1 1.33-1.34h6.27a1.34 1.34 0 0 1 1.33 1.34v6.31a1.34 1.34 0 0 1 -1.33 1.33zm-6.27-8a.33.33 0 0 0 -.33.34v6.31a.33.33 0 0 0 .33.33h6.27a.33.33 0 0 0 .33-.33v-6.29a.34.34 0 0 0 -.33-.34z"/><rect data-cppathid="10019" y="46.36" x="35.54" width="7.94" rx=".83" height="7.98" fill="#94bcdd"/><path data-cppathid="10020" d="m42.65 54.84h-6.28a1.34 1.34 0 0 1 -1.37-1.33v-6.31a1.34 1.34 0 0 1 1.33-1.34h6.28a1.34 1.34 0 0 1 1.39 1.34v6.31a1.34 1.34 0 0 1 -1.35 1.33zm-6.28-8a.34.34 0 0 0 -.33.34v6.31a.33.33 0 0 0 .33.33h6.28a.33.33 0 0 0 .33-.33v-6.29a.34.34 0 0 0 -.33-.34z"/><rect data-cppathid="10021" y="46.36" x="47.52" width="7.94" rx=".83" height="7.98" fill="#94bcdd"/><path data-cppathid="10022" d="m54.62 54.84h-6.27a1.34 1.34 0 0 1 -1.35-1.33v-6.31a1.34 1.34 0 0 1 1.33-1.34h6.27a1.33 1.33 0 0 1 1.4 1.34v6.31a1.33 1.33 0 0 1 -1.38 1.33zm-6.27-8a.34.34 0 0 0 -.33.34v6.31a.33.33 0 0 0 .33.33h6.27a.33.33 0 0 0 .33-.33v-6.29a.33.33 0 0 0 -.33-.34z"/><rect data-cppathid="10023" y="46.36" x="11.59" width="7.94" rx=".83" height="7.98" fill="#94bcdd"/><path data-cppathid="10024" d="m18.69 54.84h-6.27a1.34 1.34 0 0 1 -1.33-1.33v-6.31a1.34 1.34 0 0 1 1.33-1.34h6.27a1.33 1.33 0 0 1 1.31 1.34v6.31a1.33 1.33 0 0 1 -1.31 1.33zm-6.27-8a.34.34 0 0 0 -.33.34v6.31a.33.33 0 0 0 .33.33h6.27a.33.33 0 0 0 .33-.33v-6.29a.34.34 0 0 0 -.33-.34z"/><rect data-cppathid="10025" y="34.84" x="23.57" width="7.94" rx=".83" height="7.98" fill="#94bcdd"/><path data-cppathid="10026" d="m30.67 43.32h-6.27a1.33 1.33 0 0 1 -1.33-1.32v-6.33a1.33 1.33 0 0 1 1.33-1.33h6.27a1.34 1.34 0 0 1 1.33 1.33v6.33a1.34 1.34 0 0 1 -1.33 1.32zm-6.27-8a.33.33 0 0 0 -.33.33v6.35a.33.33 0 0 0 .33.33h6.27a.33.33 0 0 0 .33-.33v-6.33a.33.33 0 0 0 -.33-.33z"/><rect data-cppathid="10027" y="34.84" x="35.54" width="7.94" rx=".83" height="7.98" fill="#94bcdd"/><path data-cppathid="10028" d="m42.65 43.32h-6.28a1.34 1.34 0 0 1 -1.37-1.32v-6.33a1.34 1.34 0 0 1 1.33-1.33h6.28a1.34 1.34 0 0 1 1.39 1.33v6.33a1.34 1.34 0 0 1 -1.35 1.32zm-6.28-8a.33.33 0 0 0 -.33.33v6.35a.33.33 0 0 0 .33.33h6.28a.33.33 0 0 0 .35-.33v-6.33a.33.33 0 0 0 -.33-.33z"/><rect data-cppathid="10029" y="34.84" x="47.52" width="7.94" rx=".83" height="7.98" fill="#94bcdd"/><path data-cppathid="10030" d="m54.62 43.32h-6.27a1.34 1.34 0 0 1 -1.35-1.32v-6.33a1.34 1.34 0 0 1 1.33-1.33h6.27a1.33 1.33 0 0 1 1.4 1.33v6.33a1.33 1.33 0 0 1 -1.38 1.32zm-6.27-8a.33.33 0 0 0 -.33.33v6.35a.33.33 0 0 0 .33.33h6.27a.33.33 0 0 0 .38-.33v-6.33a.33.33 0 0 0 -.33-.33z"/><rect data-cppathid="10031" y="34.84" x="11.59" width="7.94" rx=".83" height="7.98" fill="#94bcdd"/><path data-cppathid="10032" d="m18.69 43.32h-6.27a1.34 1.34 0 0 1 -1.33-1.32v-6.33a1.34 1.34 0 0 1 1.33-1.33h6.27a1.33 1.33 0 0 1 1.31 1.33v6.33a1.33 1.33 0 0 1 -1.31 1.32zm-6.27-8a.33.33 0 0 0 -.33.33v6.35a.33.33 0 0 0 .33.33h6.27a.33.33 0 0 0 .31-.33v-6.33a.33.33 0 0 0 -.33-.33z"/><rect data-cppathid="10033" y="23.32" x="23.57" width="7.94" rx=".83" height="7.98" fill="#94bcdd"/><path data-cppathid="10034" d="m30.67 31.8h-6.27a1.33 1.33 0 0 1 -1.33-1.34v-6.31a1.33 1.33 0 0 1 1.33-1.33h6.27a1.34 1.34 0 0 1 1.33 1.33v6.31a1.34 1.34 0 0 1 -1.33 1.34zm-6.27-8a.33.33 0 0 0 -.33.33v6.31a.33.33 0 0 0 .33.34h6.27a.34.34 0 0 0 .33-.34v-6.29a.33.33 0 0 0 -.33-.33z"/><rect data-cppathid="10035" y="23.32" x="35.54" width="7.94" rx=".83" height="7.98" fill="#94bcdd"/><path data-cppathid="10036" d="m42.65 31.8h-6.28a1.34 1.34 0 0 1 -1.37-1.34v-6.31a1.34 1.34 0 0 1 1.33-1.33h6.28a1.34 1.34 0 0 1 1.39 1.33v6.31a1.34 1.34 0 0 1 -1.35 1.34zm-6.28-8a.33.33 0 0 0 -.33.33v6.31a.34.34 0 0 0 .33.34h6.28a.34.34 0 0 0 .33-.34v-6.29a.33.33 0 0 0 -.33-.33z"/><rect data-cppathid="10037" y="23.32" x="47.52" width="7.94" rx=".83" height="7.98" fill="#94bcdd"/><path data-cppathid="10038" d="m54.62 31.8h-6.27a1.34 1.34 0 0 1 -1.35-1.34v-6.31a1.34 1.34 0 0 1 1.33-1.33h6.27a1.33 1.33 0 0 1 1.4 1.33v6.31a1.33 1.33 0 0 1 -1.38 1.34zm-6.27-8a.33.33 0 0 0 -.33.33v6.31a.34.34 0 0 0 .33.34h6.27a.33.33 0 0 0 .33-.34v-6.29a.33.33 0 0 0 -.33-.33z"/><rect data-cppathid="10039" y="23.32" x="11.59" width="7.94" rx=".83" height="7.98" fill="#94bcdd"/><path data-cppathid="10040" d="m18.69 31.8h-6.27a1.34 1.34 0 0 1 -1.33-1.34v-6.31a1.34 1.34 0 0 1 1.33-1.33h6.27a1.33 1.33 0 0 1 1.31 1.33v6.31a1.33 1.33 0 0 1 -1.31 1.34zm-6.27-8a.33.33 0 0 0 -.33.33v6.31a.34.34 0 0 0 .33.34h6.27a.34.34 0 0 0 .33-.34v-6.29a.33.33 0 0 0 -.33-.33z"/><g opacity=".5"><path data-cppathid="10041" fill="#4a7296" d="m33.34 71.42h1v23.58h-1z"/></g><rect data-cppathid="10042" y="69.19" x="20.5" width="26.68" rx="1.09" height="4.44" fill="#999"/><path data-cppathid="10043" d="m46.09 74.14h-24.5a1.59 1.59 0 0 1 -1.59-1.59v-2.27a1.59 1.59 0 0 1 1.59-1.59h24.5a1.59 1.59 0 0 1 1.59 1.59v2.27a1.59 1.59 0 0 1 -1.59 1.59zm-24.5-4.45a.59.59 0 0 0 -.59.59v2.27a.59.59 0 0 0 .59.59h24.5a.6.6 0 0 0 .59-.59v-2.27a.6.6 0 0 0 -.59-.59z"/><path data-cppathid="10044" fill="#e6e6e6" d="m87.08 65.52v29.6h-30.8v-29.67a18.74 18.74 0 0 0 10.14-5.27h10.58a19.17 19.17 0 0 0 10.08 5.34z"/><path data-cppathid="10045" fill="#d83a46" d="m72.81 69.83.8 2.67-1.59 2.39-2.02-2.72.86-2.34-1.96-2.72 2.93-1.34 2.94 1.34z"/><path data-cppathid="10046" fill="#dfa26f" d="m84.65 42.48s4.2-1.94 3.75 2.25c-.68 6.34-5.46 5.92-5.39 5.12s1.64-7.37 1.64-7.37z"/><path data-cppathid="10047" d="m84 50.8h-.29c-1-.09-1.25-.58-1.21-1 .08-.8 1.5-6.8 1.66-7.44a.49.49 0 0 1 .28-.33c.23-.11 2.28-1 3.58-.09a2.9 2.9 0 0 1 .88 2.84c-.51 4.79-3.28 6.02-4.9 6.02zm-.48-1.07a2.41 2.41 0 0 0 1.56-.16c.89-.37 2.45-1.5 2.81-4.9.11-1-.05-1.62-.46-1.91a2.94 2.94 0 0 0 -2.36.08c-.58 2.45-1.39 5.97-1.54 6.89z"/><g opacity=".1"><path data-cppathid="10048" d="m85.45 45.56a15.23 15.23 0 0 1 -.54 3 3.69 3.69 0 0 0 2.09-3.34c.17-1.49-.69-1.78-1.48-1.75a16.08 16.08 0 0 1 -.07 2.09z"/></g><path data-cppathid="10049" fill="#dfa26f" d="m71.68 65.45a5.26 5.26 0 0 1 -5.26-5.27v-6.52h10.58v6.54a5.26 5.26 0 0 1 -5.32 5.25z"/><g opacity=".3"><path data-cppathid="10050" d="m76.93 54.65v1.84c0 3.4-2.36 6.15-5.25 6.15s-5.12-2.59-5.25-5.84v-2.15z"/></g><path data-cppathid="10051" fill="#dfa26f" d="m71.68 65.45a5.26 5.26 0 0 1 -5.26-5.27v-6.52h10.58v6.54a5.26 5.26 0 0 1 -5.32 5.25z"/><path data-cppathid="10052" d="m71.68 66a5.75 5.75 0 0 1 -5.76-5.77v-6.52a.5.5 0 0 1 .5-.5h10.58a.51.51 0 0 1 .5.5v6.55a5.77 5.77 0 0 1 -5.82 5.74zm-4.74-11.84v6a4.76 4.76 0 1 0 9.51 0v-6z"/><g opacity=".1"><path data-cppathid="10053" d="m76.93 54.65v1.84c0 3.4-2.36 6.15-5.25 6.15s-5.12-2.59-5.25-5.84v-2.15z"/></g><path data-cppathid="10054" fill="#dfa26f" d="m59.35 42.48s-4.2-1.94-3.75 2.25c.67 6.34 5.46 5.92 5.39 5.12s-1.64-7.37-1.64-7.37z"/><path data-cppathid="10055" d="m60 50.8c-1.62 0-4.38-1.22-4.89-6a2.87 2.87 0 0 1 .89-2.86c1.29-.92 3.35 0 3.58.09a.45.45 0 0 1 .27.33c.15.64 1.57 6.64 1.64 7.45 0 .39-.27.88-1.22 1zm-2.57-8.27a1.42 1.42 0 0 0 -.86.23c-.41.29-.57.94-.47 1.91.37 3.4 1.92 4.53 2.82 4.9a2.41 2.41 0 0 0 1.56.16c-.15-.92-1-4.44-1.55-6.89a4.57 4.57 0 0 0 -1.51-.31z"/><g opacity=".1"><path data-cppathid="10056" d="m58.54 45.56a16 16 0 0 0 .54 3 3.73 3.73 0 0 1 -2.08-3.34c-.16-1.49.69-1.78 1.49-1.75a18.09 18.09 0 0 0 .05 2.09z"/></g><ellipse data-cppathid="10057" ry="15.21" rx="13.38" fill="#dfa26f" cy="44.41" cx="72.02"/><path data-cppathid="10058" d="m72 60.12c-7.91 0-13.88-6.75-13.88-15.71s5.99-15.71 13.88-15.71 13.87 6.75 13.87 15.71-5.94 15.71-13.87 15.71zm0-30.42c-7.34 0-12.88 6.32-12.88 14.71s5.56 14.71 12.88 14.71 12.89-6.32 12.89-14.71-5.53-14.71-12.89-14.71z"/><path data-cppathid="10059" fill="#754c24" d="m58.49 44.41s.15-5.56 5.09-11.53c0 0 12.11 4.09 17.14 1.28 0 0 3.27 2.24 4.79 9.91 0 0 2-5.78.24-11.17-2.1-6.35-13.3-12.71-23.36-5.43 0 0-8.39 1.21-3.9 16.94z"/><path data-cppathid="10060" d="m58.49 44.91a.5.5 0 0 1 -.48-.36c-1.87-6.55-1.78-11.55.26-14.67a6.43 6.43 0 0 1 3.91-2.88 16.29 16.29 0 0 1 14.82-2.49c4.45 1.44 8.09 4.67 9.27 8.23 1.73 5.5-.2 11.26-.27 11.5a.49.49 0 0 1 -.5.33.51.51 0 0 1 -.46-.4c-1.23-6.23-3.62-8.76-4.36-9.42-4.88 2.37-14.92-.65-16.91-1.29-4.57 5.65-4.77 10.91-4.77 10.97a.51.51 0 0 1 -.44.48zm22.23-11.25a.54.54 0 0 1 .28.08c.13.09 2.88 2 4.54 8.24a18 18 0 0 0 -.26-8.93c-1.07-3.21-4.53-6.26-8.63-7.59a15.35 15.35 0 0 0 -14 2.41.47.47 0 0 1 -.22.09 5.33 5.33 0 0 0 -3.37 2.49c-1.06 1.79-2.06 5.19-.69 11.48a23.39 23.39 0 0 1 4.83-9.37.51.51 0 0 1 .54-.16c.12 0 12 4 16.73 1.32a.54.54 0 0 1 .25-.06z"/><path data-cppathid="10061" fill="#4d4d4d" d="m94.17 95.12h-45c.08-27.49 5.79-29.56 7.12-29.66a18.78 18.78 0 0 0 10.15-5.27v1.86a15.07 15.07 0 0 0 3 8.86l2.56 3.47 2.39-3.6a15.19 15.19 0 0 0 2.61-8.4v-2.2a19.11 19.11 0 0 0 10.13 5.33c1.32.15 6.97 2.33 7.04 29.61z"/><path data-cppathid="10062" d="m94.17 95.62h-45a.51.51 0 0 1 -.5-.5c.08-26.93 5.6-29.92 7.48-30.15h.09a18.42 18.42 0 0 0 9.85-5.13.5.5 0 0 1 .85.35l.06 1.81a14.7 14.7 0 0 0 2.89 8.57l2.11 2.94 2-3a14.57 14.57 0 0 0 2.46-8.12v-2.2a.5.5 0 0 1 .85-.36 18.64 18.64 0 0 0 9.83 5.17.49.49 0 0 1 .17.06c1.94.33 7.29 3.66 7.36 30.05a.51.51 0 0 1 -.5.5zm-44.51-1h44c-.13-27.22-5.96-28.52-6.66-28.62a.53.53 0 0 1 -.19-.06 19.4 19.4 0 0 1 -9.4-4.66v1.06a15.67 15.67 0 0 1 -2.62 8.68l-2.39 3.6a.5.5 0 0 1 -.41.22.56.56 0 0 1 -.41-.2l-2.58-3.44a15.68 15.68 0 0 1 -3-9.2v-.73a19.07 19.07 0 0 1 -9.51 4.63h-.11c-.73.1-6.57 1.34-6.72 28.72z"/><path data-cppathid="10063" d="m71.51 95.12v-16.12a.5.5 0 0 1 .5-.5.5.5 0 0 1 .5.5v16.11h-1z"/><path data-cppathid="10064" d="m82.15 68.79a.5.5 0 0 1 -.36.55l-3.79 1.06.87 3.67a.51.51 0 0 1 -.19.51l-6.32 4.74a.61.61 0 0 1 -.14.07.44.44 0 0 1 -.32 0h-.07a.18.18 0 0 1 -.07 0h-.06a.5.5 0 0 1 .1-.7l.3-.23 5.72-4.46-.91-3.81a.51.51 0 0 1 .36-.6l3.82-1.07-.85-5.68c.38.24.75.47 1.11.66z"/><path data-cppathid="10065" d="m72.42 79.25-.07.08a.61.61 0 0 1 -.14.07.44.44 0 0 1 -.32 0 .39.39 0 0 1 -.14-.08h-.06l-6.3-4.81a.48.48 0 0 1 -.18-.51l.79-3.7-3.79-1.06a.51.51 0 0 1 -.36-.55l.89-5.69c.33-.2.66-.41 1-.64a.46.46 0 0 1 .07.33l-.81 5.71 3.83 1.07a.51.51 0 0 1 .35.6l-.91 3.81 5.73 4.44.3.23a.5.5 0 0 1 .12.7z"/><path data-cppathid="10066" d="m86.28 95.12v-16.94a.5.5 0 0 1 .5-.5.5.5 0 0 1 .5.5v16.94z"/><path data-cppathid="10067" d="m56.06 95.12v-16.94a.5.5 0 0 1 .5-.5.5.5 0 0 1 .5.5v16.94z"/><g opacity=".1"><path data-cppathid="10068" d="m77.35 25.17a15.89 15.89 0 0 0 -11.78 3.09s-5.55.81-5.2 9.61a17.89 17.89 0 0 0 -1.88 6.54c-4.49-15.73 3.91-16.94 3.91-16.94a15.77 15.77 0 0 1 14.95-2.3z"/></g></svg>