<?xml version="1.0" encoding="UTF-8"?>
<svg xmlns="http://www.w3.org/2000/svg" onmouseup="{ if(window.parent.document.onmouseup) window.parent.document.onmouseup(arguments[0]);}" viewBox="0 0 512 512" height="512" width="512"><g><path data-cppathid="10000" d="M352.97,231.01a24.046,24.046,0,0,0-25.8-5.33,24.014,24.014,0,0,0-34.93-14.6,24.727,24.727,0,0,0-3.27-4.07A24.045,24.045,0,0,0,264,201.37V184h56a8,8,0,0,0,8-8V48a8,8,0,0,0-8-8H192a8,8,0,0,0-8,8V176a8,8,0,0,0,8,8h24v68.68c-.07-.13-.13-.26-.21-.38a24,24,0,0,0-41.65,23.87l42.95,80.18a7.982,7.982,0,0,0,1.49,1.98l13.54,13.06L232,471.99a8.006,8.006,0,0,0,8,8.01h96a8,8,0,0,0,8-8V371.31l13.66-13.65A8.008,8.008,0,0,0,360,352V248A23.924,23.924,0,0,0,352.97,231.01ZM200,168V56H312V168H264v-8a24,24,0,0,0-48,0v8ZM344,348.69l-13.66,13.65A8.008,8.008,0,0,0,328,368v96H248.01l.11-95.99a8,8,0,0,0-2.44-5.76L230.6,347.69l-42.41-79.18-.12-.21a8.033,8.033,0,0,1,2.94-10.95,7.868,7.868,0,0,1,3.98-1.07,8.031,8.031,0,0,1,6.84,3.84l15.02,29.97A8,8,0,0,0,232,286.51V160a8,8,0,1,1,16,0V264a8,8,0,0,0,16,0V224a8.011,8.011,0,0,1,8-8,7.989,7.989,0,0,1,8,8v40a8,8,0,0,0,16,0V232a8.011,8.011,0,0,1,8-8,7.989,7.989,0,0,1,8,8v32a8,8,0,0,0,16,0V248a8.011,8.011,0,0,1,8-8,7.989,7.989,0,0,1,8,8Z"/><path data-cppathid="10001" d="M144,40H16a8,8,0,0,0-8,8V176a8,8,0,0,0,8,8H144a8,8,0,0,0,8-8V48A8,8,0,0,0,144,40Zm-8,128H24V56H136Z"/><path data-cppathid="10002" d="M496,40H368a8,8,0,0,0-8,8V176a8,8,0,0,0,8,8H496a8,8,0,0,0,8-8V48A8,8,0,0,0,496,40Zm-8,128H376V56H488Z"/></g></svg>