<?xml version="1.0" encoding="UTF-8"?>
<svg xmlns="http://www.w3.org/2000/svg" onmouseup="{ if(window.parent.document.onmouseup) window.parent.document.onmouseup(arguments[0]);}" width="512" viewBox="0 0 512 512" height="512" enable-background="new 0 0 512 512" id="Capa_1"><g><circle data-cppathid="10000" r="105" fill="#cd0000" cy="105" cx="407"/><path data-cppathid="10001" fill="#ff637b" d="m428.213 105 19.644-19.644c5.858-5.857 5.858-15.355 0-21.213-5.857-5.857-15.355-5.857-21.213 0l-19.644 19.644-19.644-19.644c-5.857-5.857-15.355-5.857-21.213 0s-5.858 15.355 0 21.213l19.644 19.644-19.644 19.644c-5.858 5.857-5.858 15.355 0 21.213 5.858 5.859 15.355 5.858 21.213 0l19.644-19.644 19.644 19.644c5.858 5.859 15.355 5.858 21.213 0 5.858-5.857 5.858-15.355 0-21.213z"/><circle data-cppathid="10002" r="105" fill="#00ca7d" cy="105" cx="105"/><path data-cppathid="10003" fill="#32fca5" d="m146.606 74.394c-5.857-5.857-15.355-5.857-21.213 0l-30.393 30.393-8.394-8.394c-5.857-5.857-15.355-5.857-21.213 0s-5.858 15.355 0 21.213l19 19c5.858 5.859 15.355 5.858 21.213 0l41-41c5.859-5.857 5.859-15.355 0-21.212z"/><g><path data-cppathid="10004" fill="#ffccbd" d="m231.521 492h178l9.999-10s.001-158.041.001-155.411c0-16.648-12.4-30.689-28.92-32.747l-103.08-12.842v-99c0-18.225-14.775-33-33-33-18.225 0-33 14.775-33 33v177.987l-31.223-26.199c-13.934-11.692-35.857-10.734-48.718 2.127-12.862 12.862-11.984 32.95 1.949 44.642l77.992 65.443-.001 36z"/></g><g><path data-cppathid="10005" fill="#ffbda9" d="m419.52 326.56v155.44l-10 10h-153.52v-342.97c17.54.78 31.52 15.24 31.52 32.97v99l103.08 12.84c16.51 2.06 28.9 16.08 28.92 32.72z"/></g><path data-cppathid="10006" fill="#0066b2" d="m419.52 482v20c0 5.523-4.477 10-10 10h-178c-5.523 0-10-4.477-10-10v-20z"/><path data-cppathid="10007" fill="#004692" d="m419.52 482v20c0 5.52-4.48 10-10 10h-153.52v-30z"/></g></svg>