<?xml version="1.0" encoding="UTF-8"?>
<svg xmlns="http://www.w3.org/2000/svg" onmouseup="{ if(window.parent.document.onmouseup) window.parent.document.onmouseup(arguments[0]);}" width="512" viewBox="0 0 24 24" height="512" enable-background="new 0 0 24 24" id="Layer_1"><g><path data-cppathid="10000" d="m20 16h-1.5v-14.5c0-.276-.224-.5-.5-.5h-12c-.276 0-.5.224-.5.5v1.5h-1.5c-.28 0-.5.22-.5.5v17c0 1.38 1.12 2.5 2.5 2.5h12c.82 0 1.54-.39 2-1 .31-.41.5-.94.5-1.5v-4c0-.28-.22-.5-.5-.5zm-13.5-14h11v17h-1v-1.5-1-13c0-.28-.22-.5-.5-.5h-9.5zm-.5 20c-.83 0-1.5-.67-1.5-1.5v-16.5h11v12.5 1 3c0 .56.19 1.09.5 1.5zm10.5-1.5v-.5h1.5c.276 0 .5-.224.5-.5v-2.5h1v3.5c0 .83-.67 1.5-1.5 1.5s-1.5-.67-1.5-1.5z"/><path data-cppathid="10001" d="m7.69 12h4.62c.66 0 1.19-.53 1.19-1.19v-4.62c0-.66-.53-1.19-1.19-1.19h-4.62c-.66 0-1.19.53-1.19 1.19v4.62c0 .66.53 1.19 1.19 1.19zm-.19-5.81c0-.11.08-.19.19-.19h4.62c.11 0 .19.08.19.19v4.62c0 .11-.08.19-.19.19h-4.62c-.11 0-.19-.08-.19-.19z"/><path data-cppathid="10002" d="m14 13h-8c-.276 0-.5.224-.5.5s.224.5.5.5h8c.276 0 .5-.224.5-.5s-.224-.5-.5-.5z"/><path data-cppathid="10003" d="m14 17h-8c-.276 0-.5.224-.5.5s.224.5.5.5h8c.276 0 .5-.224.5-.5s-.224-.5-.5-.5z"/><path data-cppathid="10004" d="m14 15h-8c-.276 0-.5.224-.5.5s.224.5.5.5h8c.276 0 .5-.224.5-.5s-.224-.5-.5-.5z"/><path data-cppathid="10005" d="m13 19h-6c-.276 0-.5.224-.5.5s.224.5.5.5h6c.276 0 .5-.224.5-.5s-.224-.5-.5-.5z"/><path data-cppathid="10006" d="m9.646 9.854c.016.016.186.18.434.14s.357-.249.367-.27l1-2c.124-.247.023-.547-.224-.671-.247-.123-.546-.023-.671.224l-.69 1.379-.508-.51c-.195-.195-.512-.195-.707 0s-.195.512 0 .707z"/></g></svg>