<?xml version="1.0" encoding="UTF-8"?>
<svg xmlns="http://www.w3.org/2000/svg" onmouseup="{ if(window.parent.document.onmouseup) window.parent.document.onmouseup(arguments[0]);}" xml:space="preserve" style="enable-background:new 0 0 480 480;" viewBox="0 0 480 480" y="0px" x="0px" id="Capa_1" version="1.1" xmlns:xlink="http://www.w3.org/1999/xlink"><circle data-cppathid="10000" r="232" cy="240" cx="240" style="fill:#F5FAFC;"/><path data-cppathid="10001" d="M407.144,256.872C407.704,251.32,408,245.696,408,240s-0.296-11.32-0.848-16.872l-26.44-13.584  c-0.992-4.616-2.2-9.144-3.624-13.584l16.032-24.848c-4.68-10.376-10.384-20.16-16.976-29.288l-29.64,1.488  c-3.112-3.424-6.376-6.696-9.808-9.808l1.488-29.64c-9.128-6.592-18.912-12.304-29.288-16.984l-24.848,16.032  c-4.44-1.424-8.968-2.632-13.584-3.624l-13.584-26.44C251.32,72.296,245.696,72,240,72s-11.32,0.296-16.872,0.856l-13.584,26.44  c-4.616,0.992-9.144,2.2-13.584,3.624l-24.848-16.032c-10.376,4.68-20.16,10.384-29.288,16.976l1.488,29.64  c-3.424,3.112-6.696,6.384-9.808,9.808l-29.64-1.488c-6.592,9.128-12.304,18.912-16.984,29.288l16.032,24.848  c-1.424,4.44-2.632,8.968-3.624,13.584l-26.44,13.584C72.296,228.68,72,234.304,72,240s0.296,11.32,0.848,16.872l26.44,13.584  c0.992,4.616,2.2,9.144,3.624,13.584L86.88,308.888c4.68,10.376,10.384,20.16,16.976,29.288l29.64-1.488  c3.112,3.424,6.384,6.696,9.808,9.808l-1.488,29.64c9.128,6.592,18.912,12.304,29.288,16.984l24.848-16.032  c4.44,1.424,8.968,2.632,13.584,3.624l13.584,26.44C228.68,407.704,234.304,408,240,408c5.696,0,11.32-0.296,16.872-0.856  l13.584-26.44c4.616-0.992,9.144-2.2,13.584-3.624l24.848,16.032c10.376-4.68,20.16-10.384,29.288-16.984l-1.488-29.64  c3.424-3.112,6.696-6.384,9.808-9.808l29.64,1.488c6.592-9.128,12.304-18.912,16.984-29.288l-16.032-24.848  c1.424-4.44,2.632-8.968,3.624-13.584L407.144,256.872z" style="fill:#ED4720;"/><circle data-cppathid="10002" r="112" cy="240" cx="240" style="fill:#55D5F2;"/><path data-cppathid="10003" d="M135.136,349.808l-1.304,25.92c-0.136,2.704,1.112,5.304,3.312,6.888c9.68,6.992,20,12.976,30.68,17.792  c2.496,1.12,5.344,0.912,7.624-0.568l21.728-14.016c2.296,0.664,4.616,1.288,6.96,1.856l11.872,23.128  c1.24,2.416,3.616,4.032,6.32,4.304C228.248,415.696,234.192,416,240,416c5.808,0,11.752-0.304,17.672-0.888  c2.704-0.272,5.08-1.888,6.32-4.304l11.872-23.128c2.352-0.568,4.68-1.184,6.96-1.856l21.72,14.016  c2.272,1.472,5.136,1.68,7.624,0.568c10.704-4.824,21.024-10.808,30.688-17.792c2.192-1.584,3.44-4.176,3.304-6.88l-1.296-25.928  c1.672-1.608,3.328-3.256,4.936-4.944l25.928,1.304c2.712,0.168,5.296-1.104,6.88-3.304c6.984-9.672,12.968-19.992,17.792-30.68  c1.12-2.472,0.904-5.344-0.568-7.632l-14.016-21.72c0.664-2.28,1.288-4.608,1.848-6.96L410.8,264  c2.416-1.24,4.032-3.624,4.304-6.328c0.6-5.92,0.896-11.864,0.896-17.672s-0.296-11.752-0.888-17.664  c-0.272-2.696-1.888-5.08-4.304-6.32l-23.136-11.88c-0.56-2.352-1.184-4.672-1.848-6.96l14.016-21.72  c1.48-2.28,1.688-5.16,0.568-7.632c-4.832-10.728-10.824-21.048-17.792-30.68c-1.584-2.192-4.24-3.488-6.88-3.304l-25.92,1.304  c-1.616-1.688-3.264-3.336-4.944-4.952l1.304-25.92c0.136-2.704-1.112-5.304-3.312-6.888c-9.68-6.992-20-12.976-30.68-17.792  c-2.488-1.104-5.336-0.896-7.624,0.568l-21.728,14.016c-2.296-0.664-4.616-1.288-6.96-1.856L264,69.192  c-1.24-2.416-3.616-4.032-6.32-4.304c-11.84-1.176-23.504-1.176-35.344,0c-2.704,0.272-5.08,1.888-6.32,4.304L204.144,92.32  c-2.352,0.568-4.68,1.184-6.96,1.856l-21.72-14.016c-2.28-1.48-5.144-1.688-7.624-0.568c-10.704,4.824-21.024,10.808-30.688,17.792  c-2.192,1.584-3.44,4.176-3.304,6.888l1.304,25.92c-1.68,1.608-3.328,3.256-4.944,4.952l-25.928-1.304  c-2.648-0.112-5.296,1.112-6.88,3.304c-6.984,9.664-12.968,19.992-17.792,30.68c-1.12,2.472-0.904,5.344,0.568,7.632l14.016,21.72  c-0.664,2.28-1.288,4.608-1.848,6.96l-23.136,11.872c-2.416,1.24-4.032,3.624-4.304,6.328C64.296,228.248,64,234.192,64,240  s0.296,11.752,0.888,17.664c0.272,2.696,1.888,5.08,4.304,6.32l23.136,11.88c0.56,2.352,1.184,4.672,1.848,6.96l-14.016,21.72  c-1.48,2.28-1.688,5.152-0.576,7.632c4.832,10.696,10.816,21.024,17.8,30.688c1.584,2.192,4.168,3.408,6.88,3.304l25.92-1.304  C131.808,346.544,133.456,348.2,135.136,349.808L135.136,349.808z M109.64,288.376c1.304-2.016,1.632-4.504,0.896-6.792  c-1.328-4.112-2.48-8.416-3.424-12.816c-0.496-2.344-2.032-4.336-4.168-5.432l-22.512-11.56C80.152,247.816,80,243.872,80,240  s0.152-7.824,0.44-11.776l22.512-11.56c2.136-1.096,3.664-3.088,4.168-5.44c0.944-4.392,2.096-8.704,3.424-12.816  c0.736-2.28,0.408-4.776-0.896-6.792L96.016,170.48c3.416-7.048,7.392-13.896,11.864-20.456l25.232,1.272  c2.368,0.12,4.712-0.832,6.312-2.608c2.96-3.248,6.08-6.368,9.272-9.272c1.776-1.608,2.736-3.928,2.616-6.328l-1.272-25.232  c6.552-4.48,13.408-8.448,20.464-11.864l21.128,13.64c2.016,1.304,4.512,1.64,6.784,0.896c4.12-1.328,8.432-2.472,12.832-3.424  c2.344-0.504,4.336-2.032,5.432-4.168l11.552-22.512c7.92-0.576,15.64-0.576,23.56,0l11.552,22.512  c1.096,2.128,3.088,3.664,5.432,4.168c4.36,0.944,8.68,2.096,12.832,3.424c2.272,0.736,4.76,0.4,6.776-0.896L309.52,96  c7.048,3.408,13.896,7.384,20.464,11.864l-1.272,25.232c-0.12,2.392,0.84,4.712,2.616,6.328c3.2,2.912,6.32,6.032,9.256,9.264  c1.6,1.776,3.88,2.712,6.32,2.616l25.232-1.264c4.472,6.536,8.448,13.384,11.864,20.456l-13.632,21.136  c-1.304,2.016-1.632,4.512-0.896,6.792c1.328,4.112,2.48,8.416,3.424,12.816c0.496,2.344,2.032,4.336,4.168,5.432l22.512,11.56  C399.848,232.184,400,236.128,400,240c0,3.872-0.152,7.824-0.44,11.776l-22.512,11.56c-2.136,1.096-3.664,3.088-4.168,5.432  c-0.944,4.4-2.096,8.712-3.424,12.816c-0.736,2.28-0.408,4.776,0.896,6.792l13.632,21.136c-3.416,7.04-7.392,13.896-11.864,20.456  l-25.232-1.264c-2.424-0.176-4.712,0.832-6.312,2.608c-2.952,3.24-6.072,6.36-9.272,9.272c-1.776,1.608-2.728,3.928-2.608,6.32  l1.264,25.232c-6.552,4.472-13.408,8.448-20.464,11.864l-21.128-13.64c-2.008-1.296-4.496-1.624-6.784-0.896  c-4.12,1.328-8.432,2.472-12.832,3.424c-2.344,0.504-4.336,2.032-5.432,4.168l-11.552,22.512c-7.92,0.576-15.64,0.576-23.56,0  l-11.552-22.512c-1.096-2.128-3.088-3.664-5.432-4.168c-4.36-0.944-8.68-2.096-12.832-3.424c-2.28-0.744-4.768-0.4-6.776,0.896  l-21.136,13.632c-7.048-3.408-13.896-7.384-20.464-11.864l1.272-25.232c0.12-2.392-0.84-4.712-2.616-6.328  c-3.2-2.912-6.32-6.032-9.256-9.264c-1.608-1.776-3.96-2.8-6.32-2.616l-25.232,1.264c-4.48-6.552-8.456-13.408-11.864-20.456  L109.64,288.376z"/><path data-cppathid="10004" d="M240,360c66.168,0,120-53.832,120-120s-53.832-120-120-120s-120,53.832-120,120S173.832,360,240,360z M240,136  c57.344,0,104,46.656,104,104s-46.656,104-104,104s-104-46.656-104-104S182.656,136,240,136z"/><path data-cppathid="10005" d="M360,96h56c1.736,0,3.256-0.672,4.568-1.608C422.592,92.944,424,90.68,424,88V32h-16v48h-0.088H360V96z"/><path data-cppathid="10006" d="M120,384H64c-1.736,0-3.256,0.672-4.568,1.608C57.408,387.056,56,389.32,56,392v56h16v-48h0.088H120V384z"/><path data-cppathid="10007" d="M16,240C16,116.488,116.488,16,240,16c45.12,0,88.608,13.352,125.768,38.616l4.488-6.608l4.512-6.632  C334.936,14.312,288.336,0,240,0C107.664,0,0,107.664,0,240c0,48.344,14.312,94.952,41.384,134.768l6.632-4.504l6.608-4.496  C29.352,328.616,16,285.128,16,240z"/><path data-cppathid="10008" d="M433.488,112.024l-6.64,4.392C451.16,153.088,464,195.824,464,240c0,123.512-100.488,224-224,224  c-45.12,0-88.608-13.352-125.768-38.616l-4.488,6.608l-4.512,6.632C145.064,465.688,191.664,480,240,480  c132.336,0,240-107.664,240-240c0-47.336-13.768-93.12-39.808-132.416L433.488,112.024z"/><g/><g/><g/><g/><g/><g/><g/><g/><g/><g/><g/><g/><g/><g/><g/></svg>