<?xml version="1.0" encoding="UTF-8"?>
<svg xmlns="http://www.w3.org/2000/svg" onmouseup="{ if(window.parent.document.onmouseup) window.parent.document.onmouseup(arguments[0]);}" width="480pt" viewBox="-40 0 480 480.04706" height="480pt"><path data-cppathid="10000" d="m336.023438 448.015625v32h16v-29.199219c17.472656-22.90625 19.277343-54.132812 4.558593-78.898437l-13.742187 8.183593c11.804687 19.871094 9.816406 45.027344-4.96875 62.792969-1.195313 1.4375-1.847656 3.25-1.847656 5.121094zm0 0"/><path data-cppathid="10001" d="m296.023438 192.015625h-16c0 4.417969-3.582032 8-8 8-4.417969 0-8-3.582031-8-8h-16c0 13.253906 10.746093 24 24 24 13.253906 0 24-10.746094 24-24zm0 0"/><path data-cppathid="10002" d="m206.421875 77.816406c14.765625-18.910156 37.453125-29.914062 61.441406-29.800781h8.320313c3.449218.007813 6.898437.230469 10.320312.664063.347656.097656.699219.167968 1.054688.214843 23.082031 3.121094 43.460937 16.65625 55.289062 36.71875 6.042969 10.457031 9.210938 22.324219 9.175782 34.402344v21.503906l-2.289063 3.449219c-4.421875-10.273438-14.527344-16.9375-25.710937-16.953125h-.320313c-5.507813-10.566406-9.492187-21.859375-11.832031-33.542969-.59375-3.027344-2.875-5.445312-5.863282-6.210937-2.988281-.765625-6.152343.257812-8.128906 2.625-9.480468 10.285156-20.554687 18.980469-32.800781 25.746093-8.003906 4.71875-16.46875 8.605469-25.261719 11.597657-.355468.066406-.707031.15625-1.050781.273437-2.847656.941406-5.78125 1.832032-8.796875 2.632813l4.109375 15.46875c2.664063-.710938 5.234375-1.496094 7.761719-2.300781 4.226562.597656 7.804687 3.429687 9.359375 7.40625 1.554687 3.976562.847656 8.484374-1.855469 11.792968-.105469.128906-.734375.878906-.800781 1-2.261719 2.25-5.328125 3.515625-8.519531 3.511719h-8v16h8c7.414062-.007813 14.527343-2.941406 19.792968-8.160156.703125-.691407 1.351563-1.4375 1.933594-2.234375 3.164062-3.914063 5.210938-8.613282 5.929688-13.597656h8.75c1.96875 13.738281 13.714843 23.953124 27.59375 23.992187h20c4.160156-.039063 8.257812-1 12-2.816406v2.816406c.078124 24.339844-13.730469 46.59375-35.574219 57.328125-26.867188 13.328125-59.386719 6.199219-78.210938-17.144531l-12.429687 10.070312c6.203125 7.582031 13.730468 13.976563 22.214844 18.875v34.871094h-39.039063c-12.425781.058594-24.476563 4.230469-34.28125 11.863281-1.398437-2.367187-3.929687-3.832031-6.679687-3.863281h-16v-26.65625c55.855468-12.253906 93.511718-64.617187 87.347656-121.46875-6.164063-56.851563-54.164063-99.929687-111.347656-99.929687-57.183594 0-105.183594 43.078124-111.347657 99.929687-6.164062 56.851563 31.492188 109.214844 87.347657 121.46875v26.65625c-4.417969 0-8 3.582031-8 8v27.414063l-15.679688 109.769531c-1.792969 12.226562 3.203125 24.460937 13.042969 31.933593 9.839843 7.476563 22.964843 9.011719 34.261719 4.007813 11.300781-5.003906 18.984374-15.753906 20.0625-28.0625l.25.183594 48.101562-65.246094h1.671875c-8.128906 22.570313-4.257813 47.722656 10.289063 66.800781v29.199219h16v-32c0-1.871094-.652344-3.683594-1.847657-5.121094-14.785156-17.765625-16.773437-42.921875-4.96875-62.792969 1.46875-2.46875 1.5-5.539062.078125-8.039062s-4.074218-4.046875-6.949218-4.046875h-18.3125c-2.527344.011719-4.902344 1.21875-6.398438 3.253906l-37.601562 50.953125v-49.113281c2.605468-3.867187 4-8.429687 4-13.09375h16c4.417968 0 8-3.582031 8-8v-30.519531c7.464843-10.871094 19.773437-17.402344 32.960937-17.480469h3.199219l-11.617188 29.023437c-.859375 2.148438-.746094 4.558594.308594 6.617188 1.050781 2.058594 2.945312 3.5625 5.1875 4.117188l23.617188 5.90625-5.265626 15.800781c-.960937 2.875-.214843 6.046875 1.929688 8.191406l56 56c.121094.109375.28125.160156.40625.261719.25.261718.519531.503906.800781.730468l.082031.070313c.285157.160156.585938.296875.894532.410156.214844.117188.4375.226563.664062.328125.160156.054688.296875.132813.464844.191406.648438.183594 1.316406.285157 1.992188.304688.101562 0 .199218.046875.3125.046875.109374 0 .207031-.039063.3125-.046875.671874-.019531 1.339843-.121094 1.988281-.304688.167969-.058593.304687-.136718.464843-.191406.226563-.101562.449219-.210937.664063-.328125.308594-.113281.609375-.25.898437-.410156l.078126-.070313c.28125-.226562.550781-.46875.800781-.730468.128906-.101563.289062-.152344.40625-.261719l56-56c2.144531-2.144531 2.890625-5.316406 1.929687-8.191406l-5.265625-15.800781 23.617188-5.90625c2.242187-.554688 4.136719-2.058594 5.191406-4.117188 1.050781-2.058594 1.164063-4.46875.304687-6.617188l-11.328124-28.625c20.382812 2.011719 35.933593 19.121094 36 39.601563v136h16v-136c-.035157-30.914063-25.085938-55.964844-56-56h-32v-34.960937c19.789062-11.34375 33.71875-30.679688 38.214843-53.039063h1.785157c14.523437.113281 27.289062-9.597656 31.050781-23.621094 3.765625-14.027343-2.421875-28.824219-15.050781-35.996093v-20.382813c-.015626-12.496094-2.824219-24.828125-8.214844-36.097656 15.074218-13.304688 20.25-34.597657 12.964844-53.335938-7.285157-18.738281-25.484376-30.945312-45.589844-30.5742185-20.101563.3710935-37.835938 13.2421875-44.425782 32.2382815-2.222656-.152344-4.421874-.230469-6.574218-.230469h-8.320313c-28.988281-.117187-56.394531 13.214844-74.199219 36.09375zm-190.398437 82.199219c0-53.019531 42.980468-96 96-96 53.019531 0 96 42.980469 96 96s-42.980469 96-96 96c-52.996094-.058594-95.941407-43.003906-96-96zm96 112c2.703124 0 5.34375-.214844 8-.410156v24.410156h-16v-24.410156c2.65625.195312 5.296874.410156 8 .410156zm-14 192c-5.222657.007813-10.191407-2.253906-13.613282-6.195313-3.421875-3.945312-4.960937-9.179687-4.21875-14.347656l10.398438-72.867187c4.46875 9.679687 14.976562 15.039062 25.433594 12.976562v62.402344c.003906 9.945313-8.050782 18.015625-18 18.03125zm19.929687-98.730469c-1.484375 1.730469-3.652344 2.726563-5.929687 2.730469-4.417969 0-8-3.582031-8-8h16c.019531 1.957031-.722657 3.847656-2.070313 5.269531zm26.070313-21.269531h-48v-32h48zm152-83.816406v27.816406c.007812 7.519531 5.253906 14.015625 12.601562 15.617187l-12.144531 32.382813h-48.914063l-12.144531-32.382813c7.347656-1.601562 12.59375-8.097656 12.601563-15.617187v-27.816406c15.59375 5.089843 32.40625 5.089843 48 0zm-42.457032 91.816406h36.914063l-18.457031 49.207031zm-22.527344-11.855469c-1.074218-1.957031-2.914062-3.375-5.078124-3.914062l-23.105469-5.765625 10.585937-26.464844h5.039063l33.078125 88.222656-26.398438-26.398437 6.398438-19.304688c.722656-2.105468.535156-4.414062-.519532-6.375zm87.046876-3.914062c-2.160157.542968-4 1.960937-5.074219 3.914062-1.070313 1.953125-1.277344 4.269532-.570313 6.382813l6.398438 19.304687-26.398438 26.398438 33.125-88.230469h5.042969l10.582031 26.464844zm-33.878907-200.046875c-2.234375 2.277343-4.0625 4.921875-5.398437 7.816406h-13.601563c-1.199219-2.550781-2.773437-4.902344-4.671875-6.984375 4.257813-1.992188 8.457032-4.121094 12.609375-6.550781 9.476563-5.402344 18.382813-11.75 26.582031-18.945313 1.773438 5.617188 3.886719 11.121094 6.328126 16.480469h-2.03125c-7.425782.007813-14.546876 2.949219-19.816407 8.183594zm50.472657 25.414062c-.585938 1.050781-1.3125 2.019531-2.160157 2.875-2.253906 2.25-5.308593 3.519531-8.496093 3.527344h-20c-6.628907 0-12-5.375-12-12 0-6.628906 5.371093-12 12-12h20c4.191406.035156 8.066406 2.238281 10.238281 5.828125 2.171875 3.585938 2.328125 8.039062.417969 11.769531zm17.34375 22.402344v-13.601563l9.863281-14.847656c.503906.347656.984375.722656 1.441406 1.128906 4.578125 4.574219 5.949219 11.457032 3.476563 17.4375-2.476563 5.980469-8.308594 9.878907-14.78125 9.882813zm-24-168c12.707031.003906 24.210937 7.527344 29.304687 19.167969 5.09375 11.644531 2.820313 25.195312-5.800781 34.535156-12.894532-17.421875-31.511719-29.746094-52.582032-34.816406 5.117188-11.480469 16.507813-18.875 29.078126-18.886719zm0 0"/><path data-cppathid="10003" d="m264.023438 448.015625h16v16h-16zm0 0"/><path data-cppathid="10004" d="m192.023438 160.015625c0-44.183594-35.816407-80-80-80-44.183594 0-80 35.816406-80 80s35.816406 80 80 80c44.164062-.050781 79.953124-35.839844 80-80zm-104 0c0-13.253906 10.746093-24 24-24 13.253906 0 24 10.746094 24 24s-10.746094 24-24 24c-13.253907 0-24-10.746094-24-24zm-12.183594 16.800781c-9.375-3.910156-17.890625-9.617187-25.074219-16.800781 7.183594-7.183594 15.699219-12.890625 25.074219-16.800781-5.089844 10.605468-5.089844 22.945312 0 33.550781zm72.367187-33.601562c9.375 3.910156 17.890625 9.617187 25.074219 16.800781-7.183594 7.183594-15.699219 12.890625-25.074219 16.800781 5.089844-10.605468 5.089844-22.949218 0-33.554687zm-36.183593-47.199219c26.980468.050781 51.035156 17.007813 60.152343 42.398437-17.675781-12.183593-38.683593-18.609374-60.152343-18.398437-21.46875-.210937-42.476563 6.214844-60.152344 18.398437 9.117187-25.390624 33.171875-42.347656 60.152344-42.398437zm-60.152344 85.597656c17.675781 12.1875 38.683594 18.613281 60.152344 18.402344 21.46875.210937 42.476562-6.214844 60.152343-18.402344-9.09375 25.410157-33.167969 42.363281-60.152343 42.363281-26.984376 0-51.058594-16.953124-60.152344-42.363281zm0 0"/><path data-cppathid="10005" d="m104.023438 152.015625h16v16h-16zm0 0"/></svg>