<?xml version="1.0" encoding="UTF-8"?>
<svg xmlns="http://www.w3.org/2000/svg" onmouseup="{ if(window.parent.document.onmouseup) window.parent.document.onmouseup(arguments[0]);}" xml:space="preserve" style="enable-background:new 0 0 512 512;" viewBox="0 0 512 512" y="0px" x="0px" id="Capa_1" version="1.1" xmlns:xlink="http://www.w3.org/1999/xlink"><path data-cppathid="10000" d="M468.021,392.778c-5.69-39.827-39.799-69.41-80.03-69.41h-37.675v13.474H161.684v-13.474h-37.675  c-40.231,0-74.34,29.583-80.03,69.41L26.947,512h458.105L468.021,392.778z" style="fill:#797781;"/><path data-cppathid="10001" d="M468.021,392.778c-5.69-39.827-39.799-69.41-80.03-69.41h-53.895c40.231,0,74.34,29.583,80.03,69.41  L431.158,512h53.895L468.021,392.778z" style="fill:#58575D;"/><polygon data-cppathid="10002" points="161.684,323.368 242.526,512 269.474,512 350.316,323.368 " style="fill:#EDEDED;"/><path data-cppathid="10003" d="M282.947,350.316c0-14.883-12.064-26.947-26.947-26.947c-14.883,0-26.947,12.064-26.947,26.947  c0,9.49,4.917,17.818,12.331,22.618l-12.331,98.645L256,512l26.947-40.421l-12.331-98.645  C278.031,368.133,282.947,359.805,282.947,350.316z" style="fill:#98C8ED;"/><path data-cppathid="10004" d="M282.947,350.316c0-14.883-12.064-26.947-26.947-26.947c-4.914,0-9.507,1.337-13.474,3.634  c8.046,4.662,13.474,13.344,13.474,23.314c0,9.49-4.917,17.818-12.331,22.618L256,471.579l-13.474,20.211L256,512l26.947-40.421  l-12.331-98.645C278.031,368.133,282.947,359.805,282.947,350.316z" style="fill:#7AB9E8;"/><polygon data-cppathid="10005" points="121.263,323.368 215.579,512 296.421,512 390.737,323.368 350.316,323.368 256,512   161.684,323.368 " style="fill:#88888F;"/><path data-cppathid="10006" d="M382.631,339.581l8.075-16.15c-0.903-0.03-1.805-0.062-2.715-0.062h-37.675l-0.749,1.498  C361.75,327.234,373.005,332.349,382.631,339.581z" style="fill:#797781;"/><path data-cppathid="10007" d="M323.368,13.474c-14.895,0-26.947,12.052-26.947,26.947C296.421,18.079,278.342,0,256,0h-53.895  c-37.237,0-67.368,30.131-67.368,67.368v80.842c0,14.895,12.052,26.947,26.947,26.947l188.632-13.474  c14.895,0,26.947-12.052,26.947-26.947V67.368C377.263,37.579,353.157,13.474,323.368,13.474z" style="fill:#BFA993;"/><path data-cppathid="10008" d="M323.368,13.474c-6.199,0-11.888,2.11-16.439,5.621c17.734,8.817,29.913,27.105,29.913,48.274v95.278  l13.474-0.962c14.895,0,26.947-12.052,26.947-26.947V67.368C377.263,37.579,353.157,13.474,323.368,13.474z" style="fill:#B29A7E;"/><path data-cppathid="10009" d="M161.684,148.211c0-22.342,18.079-40.421,40.421-40.421h67.368c14.895,0,26.947-12.052,26.947-26.947  c0,14.895,12.052,26.947,26.947,26.947s26.947,12.052,26.947,26.947v88.913c0,26.108-12.609,50.609-33.854,65.784l-36.968,26.406  c-14.054,10.039-32.934,10.039-46.988,0l-36.968-26.406c-21.245-15.175-33.854-39.676-33.854-65.784V148.211z" style="fill:#EBCCBA;"/><path data-cppathid="10010" d="M323.368,107.789c-14.895,0-26.947-12.052-26.947-26.947c0,14.895-12.052,26.947-26.947,26.947  c14.895,0,26.947,12.052,26.947,26.947v88.913c0,26.108-12.609,50.609-33.854,65.784l-33.514,23.939l3.453,2.467  c14.054,10.039,32.934,10.039,46.988,0l36.968-26.406c21.245-15.175,33.854-39.676,33.854-65.784v-88.913  C350.316,119.842,338.264,107.789,323.368,107.789z" style="fill:#E6B89D;"/><g/><g/><g/><g/><g/><g/><g/><g/><g/><g/><g/><g/><g/><g/><g/></svg>