<?xml version="1.0" encoding="UTF-8"?>
<svg xmlns="http://www.w3.org/2000/svg" onmouseup="{ if(window.parent.document.onmouseup) window.parent.document.onmouseup(arguments[0]);}" width="512" viewBox="0 0 512 512" height="512" enable-background="new 0 0 512 512" id="Capa_1"><g><path data-cppathid="10000" fill="#a97450" d="m256 0c-82.71 0-150 67.29-150 150v183.156c0 8.284 6.716 15 15 15h270c8.283 0 15-6.716 15-15v-183.156c0-82.71-67.29-150-150-150z"/><path data-cppathid="10001" fill="#885142" d="m256 0v348.156h135c8.283 0 15-6.716 15-15v-183.156c0-82.71-67.29-150-150-150z"/><path data-cppathid="10002" fill="#fbceaf" d="m312.102 237.025c-5.413-2.409-11.735-1.408-16.139 2.556-11.027 9.929-25.248 15.404-40.016 15.417-14.738-.013-28.922-5.456-39.936-15.328-4.407-3.95-10.724-4.939-16.129-2.526-5.403 2.413-8.883 7.778-8.883 13.696v45.081l15.333 84.222c1.482 6.916 7.595 11.857 14.668 11.857h70c7.073 0 13.185-4.941 14.667-11.857l15.333-84.222v-45.192c0-5.924-3.486-11.293-8.898-13.704z"/><path data-cppathid="10003" fill="#f7c29d" d="m312.102 237.025c-5.413-2.409-11.735-1.408-16.139 2.556-11.016 9.917-25.215 15.391-39.963 15.416v137.003h35c7.073 0 13.185-4.941 14.667-11.857l15.333-84.222v-45.192c0-5.924-3.486-11.293-8.898-13.704z"/><path data-cppathid="10004" fill="#f0f7ff" d="m206 377v120c0 8.284 6.716 15 15 15h70c8.283 0 15-6.716 15-15v-120z"/><path data-cppathid="10005" fill="#dfe7f4" d="m256 377v135h35c8.283 0 15-6.716 15-15v-120z"/><path data-cppathid="10006" fill="#61729b" d="m191 295.921-90.737 27.92c-22.017 6.774-39.263 30.124-39.263 53.159v120c0 8.284 6.716 15 15 15h50.817l16.184-10 16.076 10h61.923v-135z"/><path data-cppathid="10007" fill="#47568c" d="m126.783 512h32.301c3.051-8.741 6.291-20.689 6.291-32 0-20.251-10.295-42.353-11.469-44.807-3.576-7.473-12.533-10.635-20.005-7.058-7.473 3.575-10.633 12.532-7.058 20.005 2.214 4.626 8.531 20.408 8.531 31.859 0 11.334-6.172 26.869-8.551 31.9-.014.035-.024.068-.04.101z"/><path data-cppathid="10008" fill="#47568c" d="m411.737 323.841-90.737-27.92-30 81.079v135h61.917l18.083-10 14.18 10h50.82c8.283 0 15-6.716 15-15v-120c0-23.035-17.246-46.385-39.263-53.159z"/><path data-cppathid="10009" fill="#29376d" d="m385.176 511.901c-2.378-5.03-8.551-20.567-8.551-31.901 0-11.395 6.165-26.876 8.531-31.859 3.574-7.473.415-16.43-7.059-20.005-7.474-3.576-16.43-.414-20.004 7.058-1.174 2.453-11.469 24.556-11.469 44.807 0 11.311 3.24 23.259 6.291 32h32.301c-.015-.033-.025-.067-.04-.1z"/><path data-cppathid="10010" fill="#ffd9c0" d="m336.491 136.093c-.446-.181-44.836-18.473-67.514-58.391-2.665-4.692-7.646-7.591-13.042-7.591s-10.377 2.899-13.042 7.591c-22.51 39.623-67.096 58.22-67.514 58.391-5.669 2.29-9.38 7.793-9.38 13.907v45c0 49.583 40.339 89.956 89.923 89.998h.024c49.584-.042 89.924-40.415 89.924-89.998v-45c.001-6.114-3.71-11.617-9.379-13.907z"/><path data-cppathid="10011" fill="#fbceaf" d="m336.491 136.093c-.446-.181-44.836-18.473-67.514-58.391-2.654-4.674-7.606-7.565-12.978-7.589v214.884c49.56-.07 89.871-40.432 89.871-89.997v-45c.001-6.114-3.71-11.617-9.379-13.907z"/></g></svg>