<?xml version="1.0" encoding="UTF-8"?>
<svg xmlns="http://www.w3.org/2000/svg" onmouseup="{ if(window.parent.document.onmouseup) window.parent.document.onmouseup(arguments[0]);}" width="512" viewBox="0 0 128 128" height="512" id="icon"><rect data-cppathid="10000" y="34.165" x="1" width="126" rx="4.378" height="80.516" fill="#d9e2e9"/><path data-cppathid="10001" fill="#f0f5f9" d="m127 38.54v.66a1.925 1.925 0 0 0 -.24-.01h-117.24a4.379 4.379 0 0 0 -4.38 4.38v71.1a4.371 4.371 0 0 1 -4.14-4.37v-71.76a4.377 4.377 0 0 1 4.38-4.37h117.24a4.377 4.377 0 0 1 4.38 4.37z"/><path data-cppathid="10002" fill="#2f3a5a" d="m122.622 115.682h-117.244a5.384 5.384 0 0 1 -5.378-5.382v-71.756a5.384 5.384 0 0 1 5.378-5.378h117.244a5.384 5.384 0 0 1 5.378 5.378v71.756a5.384 5.384 0 0 1 -5.378 5.382zm-117.244-80.516a3.382 3.382 0 0 0 -3.378 3.378v71.756a3.382 3.382 0 0 0 3.378 3.378h117.244a3.382 3.382 0 0 0 3.378-3.378v-71.756a3.382 3.382 0 0 0 -3.378-3.378z"/><path data-cppathid="10003" fill="#ffd684" d="m26.919 75.548h10.148v12.074h-10.148z"/><path data-cppathid="10004" fill="#2f3a5a" d="m37.066 88.622h-10.147a1 1 0 0 1 -1-1v-12.075a1 1 0 0 1 1-1h10.147a1 1 0 0 1 1 1v12.075a1 1 0 0 1 -1 1zm-9.147-2h8.147v-10.075h-8.147z"/><ellipse data-cppathid="10005" ry="12.887" rx="11.732" fill="#ffd684" cy="66.564" cx="32.028"/><path data-cppathid="10006" fill="#2f3a5a" d="m32.028 80.451c-7.021 0-12.732-6.23-12.732-13.887s5.712-13.887 12.732-13.887 12.732 6.23 12.732 13.887-5.711 13.887-12.732 13.887zm0-25.774c-5.918 0-10.732 5.333-10.732 11.887s4.814 11.887 10.732 11.887 10.732-5.333 10.732-11.887-4.814-11.887-10.732-11.887z"/><path data-cppathid="10007" fill="#81dafc" d="m52.426 91.134a8.217 8.217 0 0 0 -5.653-6.676l-9.706-3.18c-.774 7.934-9.076 8.157-10.148 0l-9.774 3.18a8.217 8.217 0 0 0 -5.653 6.676l-2.235 15.722h45.4z"/><path data-cppathid="10008" fill="#2f3a5a" d="m54.661 107.856h-45.404a1 1 0 0 1 -.99-1.141l2.233-15.722a9.264 9.264 0 0 1 6.343-7.493l9.767-3.178a1 1 0 0 1 1.3.821c.475 3.607 2.462 5.208 4.2 5.164 1.728-.029 3.624-1.626 3.966-5.131a1 1 0 0 1 1.307-.853l9.706 3.18a9.261 9.261 0 0 1 6.332 7.486l2.235 15.722a1 1 0 0 1 -.99 1.141zm-44.252-2h43.1l-2.073-14.582a7.255 7.255 0 0 0 -4.965-5.864l-8.591-2.81c-.793 3.883-3.362 5.675-5.74 5.715-2.437.045-5.078-1.727-6-5.728l-8.684 2.825a7.256 7.256 0 0 0 -4.972 5.866z"/><path data-cppathid="10009" fill="#84879c" d="m19.471 68.8h2.472l-.2-4.555c4.138-.589 12.585-.031 13.736-4.861 0 0 .755 3.03 6.232 5.992l.313 3.424h2.436c.122-.833.258-1.821.321-2.511l.076-.983c.169-2.634.111-6.329-1.093-9.181-3.082-7.306-8-3.436-8-3.436a3.582 3.582 0 0 0 -4.2-3.26c-3.8.339-15.508 2.186-12.854 15.819z"/><path data-cppathid="10010" fill="#2f3a5a" d="m44.46 69.8h-2.432a1 1 0 0 1 -1-.909l-.26-2.891a16.014 16.014 0 0 1 -5.237-4.426c-2.159 2.779-7.078 3.136-10.837 3.409-.673.049-1.321.1-1.907.153l.155 3.627a1 1 0 0 1 -1 1.043h-2.471a1 1 0 0 1 -.979-.792l-.755-3.552c-.92-4.728-.28-8.587 1.9-11.485 2.984-3.97 8.089-5.2 11.845-5.538a4.812 4.812 0 0 1 3.689 1.013 4.511 4.511 0 0 1 1.236 1.735 5.535 5.535 0 0 1 3.593-.364c1.949.5 3.528 2.156 4.691 4.915 1.282 3.038 1.343 6.916 1.169 9.634l-.077 1c-.055.606-.165 1.47-.329 2.58a1 1 0 0 1 -.994.848zm-1.519-2h.651c.092-.665.157-1.21.192-1.6l.075-.97c.16-2.49.114-6.037-1.016-8.715-.907-2.153-2.033-3.415-3.343-3.755a4.043 4.043 0 0 0 -3.109.716 1 1 0 0 1 -1.616-.716 2.946 2.946 0 0 0 -.909-1.8 2.911 2.911 0 0 0 -2.2-.533c-3.352.3-7.881 1.366-10.424 4.748-1.832 2.425-2.349 5.752-1.542 9.884l.58 2.741h.62l-.15-3.512a1 1 0 0 1 .858-1.033c.853-.121 1.868-.195 2.942-.273 4.1-.3 9.208-.668 9.962-3.829a1 1 0 0 1 .968-.768 1 1 0 0 1 .971.758c0 .012.806 2.688 5.737 5.354a1 1 0 0 1 .521.789z"/><path data-cppathid="10011" fill="#d9e2e9" d="m64 86.752h56.49v20.104h-56.49z"/><g fill="#2f3a5a"><path data-cppathid="10012" d="m120.49 107.856h-56.49a1 1 0 0 1 -1-1v-20.1a1 1 0 0 1 1-1h56.49a1 1 0 0 1 1 1v20.1a1 1 0 0 1 -1 1zm-55.49-2h54.49v-18.1h-54.49z"/><path data-cppathid="10013" d="m113.735 94.109h-42.98a1 1 0 0 1 0-2h42.98a1 1 0 0 1 0 2z"/><path data-cppathid="10014" d="m113.735 101.5h-42.98a1 1 0 1 1 0-2h42.98a1 1 0 1 1 0 2z"/><path data-cppathid="10015" d="m120.49 76.547h-56.15a1 1 0 0 1 0-2h56.15a1 1 0 0 1 0 2z"/><path data-cppathid="10016" d="m120.49 66.54h-56.15a1 1 0 0 1 0-2h56.15a1 1 0 0 1 0 2z"/><path data-cppathid="10017" d="m120.49 56.154h-56.15a1 1 0 0 1 0-2h56.15a1 1 0 0 1 0 2z"/></g><path data-cppathid="10018" fill="#84879c" d="m54.455 13.318h19.089v30.396h-19.089z"/><path data-cppathid="10019" fill="#2f3a5a" d="m73.545 44.715h-19.09a1 1 0 0 1 -1-1v-30.4a1 1 0 0 1 1-1h19.09a1 1 0 0 1 1 1v30.4a1 1 0 0 1 -1 1zm-18.09-2h17.09v-28.4h-17.09z"/><path data-cppathid="10020" fill="#2f3a5a" d="m76.336 44.715h-24.672a1 1 0 0 1 0-2h24.672a1 1 0 0 1 0 2z"/><circle data-cppathid="10021" r="4.442" fill="#d9e2e9" cy="24.074" cx="63.696"/></svg>