<?xml version="1.0" encoding="UTF-8"?>
<svg xmlns="http://www.w3.org/2000/svg" onmouseup="{ if(window.parent.document.onmouseup) window.parent.document.onmouseup(arguments[0]);}" xml:space="preserve" style="enable-background:new 0 0 512 512;" viewBox="0 0 512 512" y="0px" x="0px" id="Capa_1" version="1.1" xmlns:xlink="http://www.w3.org/1999/xlink"><path data-cppathid="10000" d="M183.657,329.898h-4.422v-45.367h-23.69v45.367h-4.315c-4.144,0-7.503,3.359-7.503,7.503v82.672  c0,4.143,3.359,7.503,7.503,7.503h32.428c4.144,0,7.503-3.359,7.503-7.503v-82.672C191.161,333.257,187.802,329.898,183.657,329.898  z" style="fill:#823214;"/><path data-cppathid="10001" d="M183.657,329.898h-4.422v-45.367h-11.846v143.045h16.268c4.144,0,7.503-3.359,7.503-7.503v-82.672  C191.161,333.257,187.802,329.898,183.657,329.898z" style="fill:#692810;"/><rect data-cppathid="10002" height="45.37" width="23.69" style="fill:#373C41;" y="284.529" x="155.55"/><path data-cppathid="10003" d="M209.053,512c13.476,0,24.402-10.925,24.402-24.402l12.05-195.045  c0-13.476-10.925-24.402-24.402-24.402c-13.477,0-24.402,10.925-24.402,24.402l-12.05,195.045  C184.651,501.075,195.576,512,209.053,512z" style="fill:#5F6E9B;"/><g><path data-cppathid="10004" d="M291.055,512c13.476,0,24.402-10.925,24.402-24.402l-11.046-195.045   c0-13.476-10.925-24.402-24.402-24.402c-13.476,0-24.402,10.925-24.402,24.402l11.046,195.045   C266.653,501.075,277.578,512,291.055,512z" style="fill:#414B82;"/><path data-cppathid="10005" d="M363.605,219.524c4.021-4.872,5.559-11.331,4.166-17.492c-0.433-1.915-10.656-47.073-15.548-62.701   c-4.424-14.135-8.725-24.374-16.486-31.736c-9.598-9.104-21-10.332-30.887-10.332h-54.205h-0.674h-53.998   c-26.815,0-48.739,21.479-48.871,47.88c0,0.034,0,0.068,0,0.102v149.391c0,11.231,9.104,20.335,20.335,20.335   c11.231,0,20.335-9.104,20.335-20.335V145.312c0.043-3.867,3.941-7.38,8.202-7.38h0.727v154.621h107.709v-11.402L363.605,219.524z    M304.402,223.043v-84.956c0.008,0,0.021,0,0.038,0.001c2.237,0.049,4.179,1.545,4.801,3.695   c3.338,11.54,13.709,47.59,16.471,59.51L304.402,223.043z" style="fill:#414B82;"/></g><circle data-cppathid="10006" r="42.144" cy="42.144" cx="250.567" style="fill:#FFB69E;"/><path data-cppathid="10007" d="M187.779,284.608v10.489c0,11.231-9.104,20.335-20.335,20.335c-11.231,0-20.335-9.104-20.335-20.335  v-10.489H187.779z" style="fill:#FFFFFF;"/><path data-cppathid="10008" d="M187.779,294.572v0.523c0,11.231-9.104,20.335-20.335,20.335c-11.231,0-20.335-9.104-20.335-20.335  v-0.523H187.779z" style="fill:#FFB69E;"/><path data-cppathid="10009" d="M367.771,202.03c-0.433-1.915-10.656-47.073-15.548-62.701c-4.424-14.135-8.725-24.374-16.486-31.736  c-9.598-9.104-21-10.332-30.887-10.332h-54.205h-0.1v195.29h53.865V281.15l59.194-61.628  C367.625,214.651,369.164,208.192,367.771,202.03z M304.41,223.043v-84.956c0.008,0,0.021,0,0.038,0.001  c2.237,0.049,4.179,1.545,4.801,3.695c3.338,11.54,13.709,47.59,16.471,59.509L304.41,223.043z" style="fill:#1E2D64;"/><polygon data-cppathid="10010" points="281.59,97.263 250.558,178.688 219.527,97.263 " style="fill:#FFFFFF;"/><path data-cppathid="10011" d="M264.898,130.785c0.387-1.937,0.077-3.949-0.875-5.68l-6.908-12.563l5.994-10.902  c1.081-1.965-0.343-4.377-2.589-4.377h-19.915c-2.242,0-3.67,2.41-2.589,4.377l5.974,10.865l-6.927,12.598  c-0.952,1.731-1.261,3.745-0.874,5.683l4.305,21.504l10.06,26.398l10.025-26.304L264.898,130.785z" style="fill:#FF3C3C;"/><path data-cppathid="10012" d="M250.558,178.688l10.025-26.304l4.316-21.599c0.387-1.937,0.077-3.949-0.875-5.68l-6.908-12.563  l5.994-10.902c1.081-1.965-0.343-4.377-2.589-4.377h-9.876h-0.1v81.391L250.558,178.688z" style="fill:#DC1428;"/><rect data-cppathid="10013" height="7.029" width="24.101" style="fill:#414B82;" y="161.314" x="265.52"/><g/><g/><g/><g/><g/><g/><g/><g/><g/><g/><g/><g/><g/><g/><g/></svg>