<?xml version="1.0" encoding="UTF-8"?>
<svg xmlns="http://www.w3.org/2000/svg" onmouseup="{ if(window.parent.document.onmouseup) window.parent.document.onmouseup(arguments[0]);}" width="496pt" viewBox="0 0 496.39086 496" height="496pt"><path data-cppathid="10000" fill="#e64c3c" d="m460.582031 132.53125c-.175781 1.679688-.4375 3.347656-.785156 5-1.542969 7.28125 1.863281 14.710938 8.390625 18.289062 10.414062 5.523438 18.015625 15.183594 20.941406 26.605469 2.984375 11.460938 1.105469 23.644531-5.191406 33.671875-3.902344 6.371094-3.210938 14.535156 1.707031 20.15625 7.847657 8.832032 11.667969 20.523438 10.558594 32.28125-1.136719 11.835938-7.066406 22.695313-16.410156 30.046875-5.871094 4.640625-8.070313 12.542969-5.4375 19.550781 4.378906 11 3.984375 23.328126-1.082031 34.03125-5.070313 10.800782-14.335938 19.0625-25.644532 22.867188-7.070312 2.464844-11.785156 9.167969-11.707031 16.660156.234375 11.835938-4.363281 23.261719-12.738281 31.632813-8.371094 8.375-19.796875 12.972656-31.636719 12.738281-7.488281-.074219-14.191406 4.636719-16.65625 11.707031-3.804687 11.3125-12.066406 20.574219-22.867187 25.644531-10.703126 5.066407-23.03125 5.460938-34.03125 1.082032-7.007813-2.632813-14.910157-.433594-19.550782 5.4375-7.351562 9.34375-18.210937 15.273437-30.046875 16.410156-11.757812 1.113281-23.449219-2.710938-32.28125-10.558594-5.621093-4.917968-13.785156-5.609375-20.15625-1.707031-10.027343 6.296875-22.210937 8.175781-33.671875 5.191406-11.421875-2.925781-21.082031-10.527343-26.605468-20.941406-3.605469-6.519531-11.058594-9.902344-18.339844-8.320313-1.652344.347657-3.320313.609376-5 .785157zm0 0"/><path data-cppathid="10001" fill="#e64c3c" d="m364.035156 35.984375-328.242187 328.246094c.171875-1.679688.425781-3.347657.769531-5 1.542969-7.28125-1.863281-14.710938-8.390625-18.289063-10.414063-5.523437-18.015625-15.183594-20.9375-26.605468-2.988281-11.460938-1.109375-23.644532 5.1875-33.671876 3.902344-6.371093 3.210937-14.535156-1.707031-20.15625-7.832032-8.835937-11.644532-20.527343-10.523438-32.28125 1.136719-11.839843 7.066406-22.695312 16.410156-30.046874 5.878907-4.636719 8.082032-12.542969 5.453126-19.550782-4.375-11.003906-3.984376-23.328125 1.085937-34.03125 5.066406-10.800781 14.332031-19.0625 25.640625-22.867187 7.058594-2.476563 11.753906-9.179688 11.675781-16.660157-.234375-11.835937 4.363281-23.261718 12.738281-31.632812 8.371094-8.375 19.792969-12.972656 31.632813-12.738281 7.519531.09375 14.25-4.636719 16.707031-11.742188 3.816406-11.292969 12.078125-20.539062 22.871094-25.601562 10.699219-5.074219 23.023438-5.476563 34.03125-1.109375 7.003906 2.632812 14.910156.4375 19.550781-5.433594 7.347657-9.351562 18.207031-15.289062 30.042969-16.425781 11.761719-1.113281 23.453125 2.707031 32.28125 10.554687 5.625 4.917969 13.789062 5.609375 20.15625 1.707032 10.03125-6.296876 22.214844-8.175782 33.675781-5.1875 11.417969 2.921874 21.078125 10.523437 26.605469 20.9375 3.585938 6.511718 11.015625 9.90625 18.285156 8.355468 1.652344-.34375 3.324219-.597656 5-.769531zm0 0"/><path data-cppathid="10002" fill="#c03a2b" d="m172.761719 420.351562c70.847656 31.039063 153.476562 15.464844 208.171875-39.226562 54.691406-54.691406 70.261718-137.324219 39.226562-208.171875zm0 0"/><path data-cppathid="10003" fill="#c03a2b" d="m76.214844 323.808594c-31.035156-70.851563-15.464844-153.480469 39.230468-208.171875 54.691407-54.691407 137.320313-70.265625 208.167969-39.226563zm0 0"/><path data-cppathid="10004" fill="#d1d4d1" d="m102.710938 297.320312c-18.660157-55.253906-4.375-116.3125 36.863281-157.554687 41.242187-41.238281 102.296875-55.523437 157.554687-36.859375zm0 0"/><path data-cppathid="10005" fill="#d1d4d1" d="m199.25 393.855469c55.253906 18.664062 116.3125 4.378906 157.550781-36.863281 41.242188-41.238282 55.527344-102.296876 36.863281-157.550782zm0 0"/><g fill="#4482c3"><path data-cppathid="10006" d="m85.277344 468.105469c-3.34375-.003907-6.375-1.964844-7.753906-5.007813l-30.183594-66.375c-1.464844-3.234375-.769532-7.042968 1.742187-9.550781 2.511719-2.511719 6.320313-3.203125 9.554688-1.738281l66.363281 30.199218c2.847656 1.21875 4.808594 3.882813 5.128906 6.957032.324219 3.078125-1.046875 6.089844-3.578125 7.871094-2.53125 1.777343-5.828125 2.046874-8.613281.703124l-45.648438-20.785156 20.746094 45.660156c1.199219 2.640626.980469 5.707032-.589844 8.148438-1.566406 2.4375-4.265624 3.914062-7.167968 3.917969zm0 0"/><path data-cppathid="10007" d="m77.726562 451.472656c-3.425781-.023437-6.503906-2.09375-7.816406-5.253906-1.316406-3.164062-.613281-6.804688 1.785156-9.25l27.160157-27.179688c3.347656-3.234374 8.671875-3.1875 11.960937.105469 3.292969 3.289063 3.339844 8.613281.105469 11.960938l-27.152344 27.152343c-1.605469 1.59375-3.78125 2.484376-6.042969 2.464844zm0 0"/><path data-cppathid="10008" d="m145.609375 407.765625c-2.261719 0-4.433594-.898437-6.03125-2.5l-24.039063-24.039063-.105468-.101562-.09375-.101562-18.003906-17.996094c-3.203126-3.203125-5-7.542969-5-12.070313 0-4.527343 1.796874-8.871093 5-12.070312l6.035156-6.035157c9.996094-10 26.207031-10.003906 36.210937-.003906 10 10 10 26.210938.003907 36.210938l-6.042969 6.035156 18.109375 18.105469c2.4375 2.441406 3.167968 6.113281 1.847656 9.304687-1.324219 3.1875-4.4375 5.265625-7.890625 5.261719zm-24.132813-65.339844c-2.265624 0-4.4375.898438-6.042968 2.5l-6.03125 6.035157 12.066406 12.066406 6.042969-6.035156c2.4375-2.441407 3.167969-6.109376 1.847656-9.296876s-4.429687-5.269531-7.882813-5.269531zm0 0"/><path data-cppathid="10009" d="m193.882812 359.492188c-2.261718 0-4.433593-.898438-6.035156-2.5l-42.238281-42.238282c-6.664063-6.664062-6.664063-17.46875 0-24.132812l6.042969-6.035156c10.042968-9.699219 26.011718-9.5625 35.886718.3125s10.011719 25.84375.308594 35.886718l-6.03125 6.035156 18.097656 18.105469c2.441407 2.441407 3.171876 6.109375 1.851563 9.300781-1.320313 3.1875-4.433594 5.265626-7.882813 5.265626zm-24.132812-65.339844c-2.261719 0-4.433594.902344-6.03125 2.5l-6.035156 6.035156 12.066406 12.066406 6.035156-6.035156c2.4375-2.4375 3.167969-6.109375 1.847656-9.296875-1.320312-3.1875-4.433593-5.269531-7.882812-5.269531zm0 0"/><path data-cppathid="10010" d="m242.15625 311.21875c-2.265625 0-4.433594-.898438-6.035156-2.5l-42.238282-42.238281c-6.664062-6.664063-6.664062-17.46875 0-24.132813l6.03125-6.03125c9.539063-9.558594 24.859376-10.0625 35.007813-1.15625s11.632813 24.164063 3.394531 34.859375h27.960938c4.714844 0 8.535156 3.820313 8.535156 8.535157 0 4.710937-3.820312 8.53125-8.535156 8.53125h-27.65625l9.566406 9.566406c2.441406 2.441406 3.171875 6.113281 1.851562 9.300781-1.320312 3.1875-4.433593 5.265625-7.882812 5.265625zm-24.140625-65.328125c-2.261719-.003906-4.433594.894531-6.035156 2.488281l-6.03125 6.035156 12.074219 12.074219 6.03125-6.042969c2.4375-2.441406 3.160156-6.109374 1.839843-9.292968-1.320312-3.1875-4.429687-5.261719-7.878906-5.261719zm0 0"/><path data-cppathid="10011" d="m290.421875 255.863281c-6.789063.011719-13.304687-2.679687-18.101563-7.484375l-24.132812-24.140625c-9.992188-9.996093-9.992188-26.199219 0-36.195312 10.128906-9.679688 26.078125-9.679688 36.207031 0l24.132813 24.121093c9.972656 10.011719 9.972656 26.199219 0 36.207032-4.796875 4.808594-11.316406 7.503906-18.105469 7.492187zm-24.132813-58.257812c-3.453124.003906-6.5625 2.082031-7.882812 5.269531s-.589844 6.859375 1.847656 9.296875l24.132813 24.144531c3.332031 3.328125 8.734375 3.328125 12.066406 0 1.601563-1.601562 2.503906-3.773437 2.503906-6.039062s-.902343-4.4375-2.503906-6.039063l-24.132813-24.128906c-1.59375-1.609375-3.769531-2.511719-6.03125-2.503906zm0 0"/><path data-cppathid="10012" d="m350.769531 202.609375c-1.550781-.003906-3.066406-.421875-4.394531-1.214844l-60.332031-36.207031c-2.613281-1.566406-4.195313-4.410156-4.140625-7.460938.050781-3.046874 1.722656-5.835937 4.390625-7.316406 2.664062-1.480468 5.914062-1.425781 8.53125.144532l31.058593 18.644531-18.636718-31.070313c-2.425782-4.039062-1.117188-9.285156 2.925781-11.710937 4.039063-2.425781 9.285156-1.117188 11.710937 2.921875l36.199219 60.347656c1.578125 2.636719 1.617188 5.917969.105469 8.589844-1.515625 2.675781-4.347656 4.328125-7.417969 4.332031zm0 0"/><path data-cppathid="10013" d="m386.976562 166.410156c-2.265624 0-4.433593-.902344-6.035156-2.5l-48.273437-48.28125c-3.332031-3.332031-3.332031-8.734375 0-12.066406l24.132812-24.140625c3.347657-3.234375 8.671875-3.1875 11.960938.101563 3.292969 3.292968 3.339843 8.613281.105469 11.964843l-18.097657 18.097657 36.265625 36.265624 18.347656-17.96875c3.367188-3.300781 8.769532-3.246093 12.070313.121094 3.296875 3.367188 3.242187 8.773438-.125 12.070313l-24.378906 23.894531c-1.597657 1.5625-3.742188 2.441406-5.972657 2.441406zm0 0"/><path data-cppathid="10014" d="m362.832031 142.269531c-3.449219 0-6.558593-2.082031-7.878906-5.269531s-.59375-6.855469 1.847656-9.296875l18.109375-18.101563c2.140625-2.214843 5.3125-3.105468 8.296875-2.324218s5.3125 3.109375 6.09375 6.09375-.109375 6.15625-2.324219 8.296875l-18.109374 18.101562c-1.601563 1.597657-3.769532 2.5-6.035157 2.5zm0 0"/><path data-cppathid="10015" d="m435.238281 118.128906c-2.261719 0-4.433593-.902344-6.03125-2.5l-48.265625-48.265625c-3.332031-3.332031-3.332031-8.734375 0-12.066406l6.035156-6.03125c13.328126-13.328125 34.933594-13.328125 48.261719 0l12.066407 12.0625c13.324218 13.332031 13.324218 34.9375 0 48.265625l-6.03125 6.035156c-1.601563 1.597656-3.769532 2.5-6.035157 2.5zm-36.199219-56.800781 36.199219 36.199219c6.664063-6.664063 6.664063-17.464844 0-24.132813l-12.066406-12.066406c-6.753906-6.4375-17.375-6.4375-24.132813 0zm0 0"/></g></svg>