<?xml version="1.0" encoding="UTF-8"?>
<svg xmlns="http://www.w3.org/2000/svg" onmouseup="{ if(window.parent.document.onmouseup) window.parent.document.onmouseup(arguments[0]);}" xml:space="preserve" style="enable-background:new 0 0 511.994 511.994;" viewBox="0 0 511.994 511.994" y="0px" x="0px" id="Capa_1" version="1.1" xmlns:xlink="http://www.w3.org/1999/xlink"><polygon data-cppathid="10000" points="326.152,274.831 326.152,319.535 255.528,358.991 186.066,319.525 184.925,274.831 " style="fill:#F8B64C;"/><g style="opacity:0.1;"><g><polygon data-cppathid="10001" points="326.13,274.831 326.109,315.727 265.928,364.239 216.818,312.698 248.594,274.831   " style="fill:#40596B;"/></g></g><g><path data-cppathid="10002" d="M185.97,182.469c1.579,17.877-7.104,33.227-19.349,34.315   c-12.267,1.067-23.477-12.555-25.045-30.432c-1.557-17.867,7.104-33.227,19.371-34.293   C173.213,150.991,184.402,164.613,185.97,182.469" style="fill:#F8B64C;"/><path data-cppathid="10003" d="M369.512,186.362c-1.579,17.867-12.768,31.488-25.045,30.432   c-12.245-1.088-20.939-16.437-19.349-34.315c1.547-17.856,12.768-31.477,25.024-30.421   C362.408,153.135,371.069,168.495,369.512,186.362" style="fill:#F8B64C;"/></g><path data-cppathid="10004" d="M255.549,33.285c-56.939,0-103.083,46.155-103.083,103.083v30.933c0,7.915,0.48,15.797,1.461,23.627  v0.032c4.896,40.043,22.144,77.557,49.355,107.339l9.771,10.709c8.981,9.835,21.685,15.445,34.997,15.445h14.933  c13.312,0,26.016-5.589,34.997-15.424l9.813-10.731c27.211-29.792,44.459-67.339,49.397-107.371  c0.981-7.861,1.419-15.712,1.419-23.627v-30.933C358.61,79.439,312.466,33.285,255.549,33.285" style="fill:#FFD15C;"/><path data-cppathid="10005" d="M358.13,181.359c6.315-9.109,11.232-58.997,11.232-58.997c17.856-51.029-48.683-92.235-48.683-92.235  C198.717-42.715,176.69,39.429,176.69,39.429c-61.813,19.477-34.709,88.064-34.709,88.064c0.832,27.104,10.56,46.08,10.56,46.08  s2.752-22.923,5.312-31.413c2.336-7.712,4.416-15.541,5.483-23.541c2.56-19.755,11.584-51.168,42.997-41.088  c0,0,41.771,51.125,143.275,71.008C357.17,150.031,358.13,181.359,358.13,181.359" style="fill:#40596B;"/><polygon data-cppathid="10006" points="352.05,373.978 353.778,358.991 156.904,358.991 158.845,374.191 255.325,470.703 " style="fill:#F2F2F2;"/><polygon data-cppathid="10007" points="255.336,494.511 162.344,401.519 176.466,511.994 336.072,511.994 348.925,400.922 " style="fill:#4CDBC4;"/><g><polygon data-cppathid="10008" points="143.656,358.991 119.816,358.991 162.344,401.519 158.845,374.181  " style="fill:#231F20;"/><polygon data-cppathid="10009" points="390.845,358.991 367.026,358.991 352.05,373.989 348.925,400.922  " style="fill:#231F20;"/></g><polygon data-cppathid="10010" points="348.925,400.922 352.05,373.978 255.325,470.693 158.845,374.191 162.344,401.519   255.325,494.522 " style="fill:#4CDBC4;"/><g><path data-cppathid="10011" d="M510.504,448.954v63.04H308.381l17.707-196.064l0.107-0.309l18.229,6.496l102.837,36.917   C485.128,372.677,510.504,408.645,510.504,448.954" style="fill:#334A5E;"/><path data-cppathid="10012" d="M203.528,511.994H1.49v-61.76c0-40.32,25.397-76.373,63.275-89.931l102.816-36.896l0.107-0.107   l18.144-6.517l0.107,0.117L203.528,511.994z" style="fill:#334A5E;"/></g><g><polygon data-cppathid="10013" points="255.549,358.991 326.13,315.589 318.066,404.645  " style="fill:#CDD6E0;"/><polygon data-cppathid="10014" points="255.464,358.991 185.864,316.495 193.842,404.645  " style="fill:#CDD6E0;"/></g><polygon data-cppathid="10015" points="229.298,444.666 255.325,470.703 281.341,444.687 271.506,412.261 287.72,382.629   255.282,358.991 222.962,382.629 239.069,412.261 " style="fill:#FF7058;"/><g/><g/><g/><g/><g/><g/><g/><g/><g/><g/><g/><g/><g/><g/><g/></svg>