<?xml version="1.0" encoding="UTF-8"?>
<svg xmlns="http://www.w3.org/2000/svg" onmouseup="{ if(window.parent.document.onmouseup) window.parent.document.onmouseup(arguments[0]);}" width="512" viewBox="0 0 64 64" height="512" enable-background="new 0 0 64 64" id="Layer_3"><g><g><path data-cppathid="10000" fill="#9d958c" d="m20 16h42v22h-42z"/></g><g><path data-cppathid="10001" fill="#b4e05d" d="m24 20h34v14h-34z"/></g><g><circle data-cppathid="10002" r="7" fill="#9d958c" cy="27" cx="41"/></g><g><path data-cppathid="10003" fill="#c4bfba" d="m34 27c0 1.38.405 2.663 1.094 3.747.612.159 1.248.253 1.906.253 4.418 0 8-3.806 8-8.5 0-.449-.042-.886-.106-1.316-1.113-.747-2.452-1.184-3.894-1.184-3.866 0-7 3.134-7 7z"/></g><g><path data-cppathid="10004" fill="#f7c190" d="m33 16h-13v8h7c1.657 0 3 1.343 3 3 0 1.657-1.343 3-3 3h-25v-14h4l9-6h12z"/></g><g><path data-cppathid="10005" fill="#fadabc" d="m15 10-9 6h-4v9.899c.658.065 1.325.101 2 .101 6.553 0 12.352-3.166 16-8.036v-1.964h1.302c1.065-1.838 1.86-3.852 2.296-6z"/></g><g><path data-cppathid="10006" fill="#f8cf6a" d="m48 7c1.868-.623 3.289-2.157 3.767-4.068l.233-.932.233.932c.478 1.911 1.899 3.445 3.767 4.068-1.868.623-3.289 2.157-3.767 4.068l-.233.932-.233-.932c-.478-1.911-1.899-3.445-3.767-4.068z"/></g><g><path data-cppathid="10007" fill="#f8cf6a" d="m8 45c1.868-.623 3.289-2.157 3.767-4.068l.233-.932.233.932c.478 1.911 1.899 3.445 3.767 4.068-1.868.623-3.289 2.157-3.767 4.068l-.233.932-.233-.932c-.478-1.911-1.899-3.445-3.767-4.068z"/></g><g><path data-cppathid="10008" fill="#f7c190" d="m55.102 45.226c-1.377-.803-2.942-1.226-4.535-1.226h-.246c-.876 0-1.747.128-2.586.38l-7.1 2.13c-.971.291-1.635 1.184-1.635 2.196 0 1.267 1.027 2.294 2.294 2.294h-1.294l-10.245-8.382c-.488-.399-1.1-.618-1.73-.618h-.292c-1.51 0-2.733 1.223-2.733 2.733 0 .804.354 1.567.968 2.086l12.032 10.181h16l8 5v-13z"/></g><g><path data-cppathid="10009" d="m62 39h-42c-.553 0-1-.448-1-1v-7h-17c-.553 0-1-.448-1-1v-14c0-.552.447-1 1-1h3.697l8.748-5.832c.164-.109.358-.168.555-.168h12c.266 0 .52.105.707.293l5.707 5.707h28.586c.553 0 1 .448 1 1v22c0 .552-.447 1-1 1zm-41-2h40v-20h-40v6h6c2.206 0 4 1.794 4 4s-1.794 4-4 4h-6zm-18-8h24c1.103 0 2-.897 2-2s-.897-2-2-2h-7c-.553 0-1-.448-1-1v-8c0-.552.447-1 1-1h10.586l-4-4h-11.283l-8.748 5.832c-.164.109-.358.168-.555.168h-3z"/></g><g><path data-cppathid="10010" d="m58 35h-34c-.553 0-1-.448-1-1v-4h2v3h32v-12h-32v3h-2v-4c0-.552.447-1 1-1h34c.553 0 1 .448 1 1v14c0 .552-.447 1-1 1z"/></g><g><path data-cppathid="10011" d="m41 35c-4.411 0-8-3.589-8-8s3.589-8 8-8 8 3.589 8 8-3.589 8-8 8zm0-14c-3.309 0-6 2.691-6 6s2.691 6 6 6 6-2.691 6-6-2.691-6-6-6z"/></g><g><g><path data-cppathid="10012" d="m62 63c-.185 0-.368-.051-.53-.152l-7.757-4.848h-15.713c-.236 0-.466-.084-.646-.237l-12.032-10.181c-.841-.71-1.322-1.749-1.322-2.85 0-2.058 1.675-3.732 3.732-3.732h.292c.859 0 1.698.3 2.363.844l7.665 6.271c.216-1.207 1.084-2.199 2.295-2.562l7.1-2.13c.935-.281 1.902-.423 2.874-.423h.245c1.77 0 3.513.471 5.039 1.362l6.874 3.76c.322.176.521.512.521.878v13c0 .364-.197.698-.516.875-.15.083-.317.125-.484.125zm-23.634-7h15.634c.188 0 .371.053.53.152l6.47 4.044v-10.603l-6.378-3.489c-1.246-.727-2.64-1.104-4.056-1.104h-.245c-.778 0-1.553.113-2.3.337l-7.1 2.13c-.551.166-.921.664-.921 1.24 0 .713.58 1.293 1.294 1.293h6.706v2h-8c-.23 0-.454-.08-.633-.226l-10.245-8.382c-.31-.253-.699-.392-1.098-.392h-.292c-.955 0-1.732.777-1.732 1.732 0 .511.224.993.613 1.323z"/></g></g><g><path data-cppathid="10013" d="m52 13c-.459 0-.858-.312-.97-.757l-.233-.932c-.397-1.587-1.561-2.844-3.113-3.362-.409-.137-.684-.519-.684-.949s.275-.812.684-.949c1.553-.518 2.716-1.774 3.113-3.362l.233-.932c.112-.445.511-.757.97-.757s.858.312.97.757l.233.932c.397 1.587 1.561 2.844 3.113 3.362.409.137.684.519.684.949s-.275.812-.684.949c-1.553.518-2.716 1.774-3.113 3.362l-.233.932c-.112.445-.511.757-.97.757zm-1.837-6c.745.541 1.369 1.229 1.837 2.022.468-.793 1.092-1.481 1.837-2.022-.745-.541-1.369-1.229-1.837-2.022-.468.793-1.092 1.481-1.837 2.022z"/></g><g><path data-cppathid="10014" d="m12 51c-.459 0-.858-.312-.97-.757l-.233-.932c-.397-1.587-1.561-2.844-3.113-3.362-.409-.137-.684-.519-.684-.949s.275-.812.684-.949c1.553-.518 2.716-1.774 3.113-3.362l.233-.932c.112-.445.511-.757.97-.757s.858.312.97.757l.233.932c.397 1.587 1.561 2.844 3.113 3.362.409.137.684.519.684.949s-.275.812-.684.949c-1.553.518-2.716 1.774-3.113 3.362l-.233.932c-.112.445-.511.757-.97.757zm-1.837-6c.745.541 1.369 1.229 1.837 2.022.468-.794 1.092-1.481 1.837-2.022-.745-.541-1.369-1.229-1.837-2.022-.468.793-1.092 1.481-1.837 2.022z"/></g></g></svg>