<?xml version="1.0" encoding="UTF-8"?>
<svg xmlns="http://www.w3.org/2000/svg" onmouseup="{ if(window.parent.document.onmouseup) window.parent.document.onmouseup(arguments[0]);}" width="512" viewBox="0 0 64 64" height="512" enable-background="new 0 0 64 64" id="Layer_5"><g><g><g><circle data-cppathid="10000" r="15" fill="#e6e9ed" cy="17" cx="47"/></g><g><circle data-cppathid="10001" r="15" fill="#e6e9ed" cy="47" cx="17"/></g><g><path data-cppathid="10002" fill="#ff826e" d="m24.65 7.53c-2.56.73-4.72 2.27-6.25 4.28-1.52 2.02-2.4 4.53-2.4 7.19h3l-6 8-6-8h3c0-7.73 6.27-14 14-14h6v1z"/></g><g><path data-cppathid="10003" fill="#ff826e" d="m39.35 56.47c2.56-.73 4.72-2.27 6.25-4.28 1.52-2.02 2.4-4.53 2.4-7.19h-3l6-8 6 8h-3c0 7.73-6.27 14-14 14h-6v-1z"/></g><g><path data-cppathid="10004" fill="#4fc1e9" d="m47 22c.83 0 1.58-.34 2.12-.88s.88-1.29.88-2.12v-.54c4.06 1.28 7 5.07 7 9.54v.16.01c-2.65 2.38-6.16 3.83-10 3.83-1.77 0-3.47-.32-5.04-.89-.26-2.96-1.81-5.55-4.09-7.2 1.17-2.58 3.4-4.59 6.13-5.44v.53c0 1.66 1.34 3 3 3z"/></g><g><path data-cppathid="10005" fill="#b4dd7f" d="m27 58.16v.01c-2.65 2.38-6.16 3.83-10 3.83s-7.35-1.45-10-3.83v-.01-.16c0-3.8 2.12-7.11 5.24-8.8l.76 6.8 4-3 4 3 .76-6.8c3.12 1.69 5.24 5 5.24 8.8z"/></g><g><path data-cppathid="10006" fill="#a0d468" d="m13.4 48.68 3.6 4.32-4 3-.76-6.8c.38-.2.76-.38 1.16-.52z"/></g><g><path data-cppathid="10007" fill="#a0d468" d="m21.76 49.2-.76 6.8-4-3 3.6-4.32c.4.14.78.32 1.16.52z"/></g><g><path data-cppathid="10008" fill="#f0d0b4" d="m17 48c1.27 0 2.48.24 3.6.68l-3.6 4.32-3.6-4.32c1.12-.44 2.33-.68 3.6-.68z"/></g><g><circle data-cppathid="10009" r="5" fill="#f0d0b4" cy="43" cx="17"/></g><g><path data-cppathid="10010" fill="#f0d0b4" d="m49.12 21.12c-.54.54-1.29.88-2.12.88-1.66 0-3-1.34-3-3v-.53c.95-.31 1.96-.47 3-.47 1.05 0 2.05.16 3 .46v.54c0 .83-.34 1.58-.88 2.12z"/></g><g><circle data-cppathid="10011" r="5" fill="#f0d0b4" cy="13" cx="47"/></g><g><path data-cppathid="10012" fill="#fcd770" d="m41.96 31.11c.03.29.04.59.04.89 0 5.52-4.48 10-10 10-.3 0-.6-.01-.89-.04-4.81-.43-8.64-4.26-9.07-9.07-.03-.29-.04-.59-.04-.89 0-5.52 4.48-10 10-10 .3 0 .6.01.89.04 1.85.16 3.56.83 4.98 1.87 2.28 1.65 3.83 4.24 4.09 7.2z"/></g></g><g><path data-cppathid="10013" d="m31 35c-.552 0-1-.448-1-1h-2c0 1.654 1.346 3 3 3v2h2v-2h3v-3c0-1.654-1.346-3-3-3h-2c-.552 0-1-.448-1-1v-1h3c.552 0 1 .448 1 1h2c0-1.654-1.346-3-3-3v-2h-2v2h-3v3c0 1.654 1.346 3 3 3h2c.552 0 1 .448 1 1v1z"/><path data-cppathid="10014" d="m32.473 42.976c5.687-.244 10.259-4.816 10.503-10.503 1.324.349 2.673.527 4.024.527 8.822 0 16-7.178 16-16s-7.178-16-16-16-16 7.178-16 16c0 1.351.178 2.7.527 4.024-5.687.244-10.259 4.816-10.503 10.503-1.324-.349-2.673-.527-4.024-.527-8.822 0-16 7.178-16 16s7.178 16 16 16 16-7.178 16-16c0-1.351-.178-2.7-.527-4.024zm10.389-12.628c-.404-2.664-1.759-5.017-3.718-6.695.917-1.653 2.305-2.958 3.965-3.757.334 1.449 1.456 2.589 2.89 2.962v6.142h2v-6.142c1.434-.373 2.556-1.512 2.89-2.961 2.938 1.416 4.989 4.376 5.096 7.825-2.433 2.042-5.566 3.278-8.985 3.278-1.391 0-2.779-.228-4.138-.652zm.138-17.348c0-2.206 1.794-4 4-4s4 1.794 4 4-1.794 4-4 4-4-1.794-4-4zm4 8c-1.019 0-1.853-.769-1.975-1.756.642-.146 1.299-.244 1.975-.244.68 0 1.34.082 1.977.226-.114.995-.952 1.774-1.977 1.774zm0-18c7.72 0 14 6.28 14 14 0 3.38-1.204 6.484-3.206 8.905-.739-3.816-3.458-6.925-7.041-8.232 1.368-1.1 2.247-2.785 2.247-4.673 0-3.309-2.691-6-6-6s-6 2.691-6 6c0 1.885.876 3.568 2.24 4.669-2.395.874-4.443 2.566-5.75 4.813-1.163-.673-2.458-1.135-3.838-1.344-.424-1.359-.652-2.747-.652-4.138 0-7.72 6.28-14 14-14zm-15 20c4.963 0 9 4.037 9 9s-4.037 9-9 9-9-4.037-9-9 4.037-9 9-9zm-23.986 34.721c.085-2.746 1.4-5.183 3.417-6.778l.768 6.907 4.801-3.6 4.801 3.6.768-6.907c2.018 1.595 3.333 4.032 3.417 6.778-2.434 2.043-5.567 3.279-8.986 3.279s-6.552-1.236-8.986-3.279zm4.986-14.721c0-2.206 1.794-4 4-4s4 1.794 4 4-1.794 4-4 4-4-1.794-4-4zm4 8.438-1.866-2.24c.602-.128 1.226-.198 1.866-.198s1.264.07 1.866.197zm3.64-1.244-.44 3.955-1.757-1.318zm-6.839 3.955-.44-3.955 2.197 2.637zm13.993 1.756c-.739-3.816-3.458-6.925-7.041-8.232 1.368-1.1 2.247-2.785 2.247-4.673 0-3.309-2.691-6-6-6s-6 2.691-6 6c0 1.888.879 3.573 2.246 4.674-3.583 1.307-6.301 4.415-7.041 8.232-2.001-2.422-3.205-5.526-3.205-8.906 0-7.72 6.28-14 14-14 1.391 0 2.779.228 4.138.652.719 4.742 4.468 8.49 9.21 9.21.424 1.359.652 2.747.652 4.138 0 3.38-1.204 6.484-3.206 8.905z"/><path data-cppathid="10015" d="m43 46h3.954c-.412 4.439-3.537 8.27-7.882 9.511l-6.072 1.735v2.754h7c7.935 0 14.45-6.193 14.967-14h4.033l-8-10.667zm10-2v1c0 7.168-5.832 13-13 13h-2.359l1.98-.565c5.523-1.579 9.379-6.692 9.379-12.435v-1h-2l4-5.333 4 5.333z"/><path data-cppathid="10016" d="m21 18h-3.954c.412-4.439 3.537-8.27 7.882-9.511l6.072-1.735v-2.754h-7c-7.935 0-14.45 6.193-14.967 14h-4.033l8 10.667zm-10 2v-1c0-7.168 5.832-13 13-13h2.359l-1.98.565c-5.523 1.579-9.379 6.692-9.379 12.435v1h2l-4 5.333-4-5.333z"/></g></g></svg>