<?xml version="1.0" encoding="UTF-8"?>
<svg xmlns="http://www.w3.org/2000/svg" onmouseup="{ if(window.parent.document.onmouseup) window.parent.document.onmouseup(arguments[0]);}" xml:space="preserve" style="enable-background:new 0 0 508 508;" viewBox="0 0 508 508" y="0px" x="0px" id="Capa_1" version="1.1" xmlns:xlink="http://www.w3.org/1999/xlink"><circle data-cppathid="10000" r="201.7" cy="201.7" cx="253.55" style="fill:#FFD15C;"/><g><path data-cppathid="10001" d="M90.15,319.7L20.75,440l81-4.3l36.8,72.3l64.2-111.3C156.75,384.8,117.25,357.1,90.15,319.7z" style="fill:#40596B;"/><path data-cppathid="10002" d="M417.35,319.1c-26.9,37.5-66.4,65.3-112.3,77.4l64.4,111.5l36.8-72.3l81,4.3L417.35,319.1z" style="fill:#40596B;"/></g><circle data-cppathid="10003" r="146.2" cy="201.7" cx="253.55" style="fill:#F8B64C;"/><path data-cppathid="10004" d="M353.75,185.9c4.5-4.4,2-12.1-4.2-13l-57.7-8.4c-2.5-0.4-4.6-1.9-5.7-4.2l-25.8-52.3  c-2.8-5.7-10.9-5.7-13.7,0l-25.7,52.3c-1.1,2.2-3.3,3.8-5.7,4.2l-57.7,8.4c-6.2,0.9-8.7,8.6-4.2,13l41.7,40.7  c1.8,1.8,2.6,4.3,2.2,6.7l-9.8,57.4c-1.1,6.2,5.5,11,11.1,8l51.6-27.1c2.2-1.2,4.9-1.2,7.1,0l51.6,27.1c5.6,2.9,12.1-1.8,11.1-8  l-9.9-57.4c-0.4-2.5,0.4-5,2.2-6.7L353.75,185.9z" style="fill:#FFFFFF;"/><g/><g/><g/><g/><g/><g/><g/><g/><g/><g/><g/><g/><g/><g/><g/></svg>