<?xml version="1.0" encoding="UTF-8"?>
<svg xmlns="http://www.w3.org/2000/svg" onmouseup="{ if(window.parent.document.onmouseup) window.parent.document.onmouseup(arguments[0]);}" width="512" viewBox="0 0 512.041 512.041" height="512" enable-background="new 0 0 512.041 512.041" id="Capa_1"><g><g><g><g><g><g><g><path data-cppathid="10000" fill="#faefdb" d="m159.332 150.833c-3.573-.448-6.26-3.475-6.275-7.077l-.138-32.76-50.054.211.138 32.76c.015 3.601-2.646 6.651-6.215 7.129 0 0-9.242 31.589 31.405 31.418s31.139-31.681 31.139-31.681z"/><path data-cppathid="10001" fill="#756e78" d="m162.8 191.391c.212-8.771-2.922-17.411-9.101-23.64-2.035-2.052-4.338-3.861-6.87-5.371-.918-.548-1.578-1.441-1.881-2.466l-16.806 10.61-31.355-19.427-1.878 1.62-15.936 2.437-3.805-.464c-7.919 1.642-16.538 3.861-22.076 6.355-12.442 5.609-19.327 18.148-18.952 30.995v64.495h128.67c-.015-36.563-.131-60.154-.01-65.144z"/><g><path data-cppathid="10002" fill="#665e66" d="m222.894 191.391c.333-13.739-7.255-25.464-19.784-30.979-5.614-2.471-14.118-4.586-22.129-6.169l-3 .557-16.602-2.616-2.046-1.352-17.051 10.765c3.081 1.652 5.853 3.734 8.253 6.154 6.179 6.228 9.313 14.869 9.101 23.64-.121 4.99-.005 28.58.01 65.144h63.259c-.016-36.563-.132-60.154-.011-65.144z"/></g></g><g><g><g><g><g><g><g><g><g><g><g><g><g><path data-cppathid="10003" fill="#faefdb" d="m107.93 122.331c9.003-7.819 13.957-19.296 14.162-31.199l-.11-29.119-.015-51.378c-10.548 1.374-18.757 6.093-24.841 11.377-9.06 7.868-13.938 19.517-13.887 31.517l.036 8.499.015 3.556-3.028.013c-4.439.019-8.022 3.632-8.003 8.071l.038 8.907c.019 4.439 3.632 8.022 8.071 8.003l3.04-.013c.3 11.664 5.249 22.871 14.137 30.459 1.878 1.603 3.955 3.152 6.237 4.566 1.476-1.046 2.859-2.14 4.148-3.259z"/></g><g><path data-cppathid="10004" fill="#756e78" d="m108.874 42.465.131-.001c5.41-.023 7.001 1.749 12.972 2.532l-.009-32.955-2.11-4.424-10.015.051c-6.36.027-11.75 4.119-13.724 9.804-.734 2.112-2.639 3.59-4.875 3.6l-.165.001c-8.124.034-14.682 6.648-14.648 14.772l.129 30.673s10.984-.177 16.128 3.161c.896.581 1.992.76 3.04.561l.056-.01c2.029-.386 3.495-2.163 3.486-4.229l-.083-13.753c-.023-5.376 4.312-9.754 9.687-9.783z"/></g></g><g><g><path data-cppathid="10005" fill="#f6e2bf" d="m183.207 73.199c-.019-4.439-3.632-8.022-8.071-8.003l-3.028.013-.015-3.556-.036-8.499c-.051-12-5.026-23.607-14.153-31.399-7.155-6.109-17.199-11.425-30.438-11.517-2.666.041-5.201.293-7.608.72l.018 50.695.108 28.537c-.201 11.666-5.056 22.914-13.879 30.577-1.367 1.187-2.842 2.346-4.426 3.445 17.317 11.993 39.847 11.141 56.642-3.445 8.823-7.662 13.678-18.911 13.879-30.577l3.04-.013c4.439-.019 8.022-3.632 8.004-8.071z"/></g><g><path data-cppathid="10006" fill="#665e66" d="m178.741 41.226c-.079-18.694-15.297-33.784-33.991-33.705l-24.893.105.013 37.022c1.945.387 3.92.603 5.912.595l1.72-.007c10.531-.044 12.23-2.9 18.647-2.927 5.385-.03 9.772 4.315 9.795 9.699l.082 13.735c.009 2.062 1.485 3.826 3.513 4.198 1.083.199 2.192-.039 3.118-.634 5.172-3.325 16.187-3.22 16.187-3.22z"/></g></g><g fill="#89808c"><path data-cppathid="10007" d="m75.168 154.69 18.928 27.398c4.202 6.083 12.77 7.138 18.323 2.257l15.723-13.821-31.355-19.427c-5.337.715-13.433 1.921-21.619 3.593z"/><path data-cppathid="10008" d="m180.98 154.244-18.751 27.6c-4.161 6.125-12.738 7.239-18.326 2.381l-15.761-13.702 31.19-19.691c5.343.671 13.448 1.809 21.648 3.412z"/></g></g><path data-cppathid="10009" fill="#e07f84" d="m103.801 256.535h49.001l-14.641-56.459-19.857.105z"/></g></g></g></g></g></g></g></g></g><g><path data-cppathid="10010" fill="#db636e" d="m143.592 183.955-15.45-13.431s-15.33 13.488-15.361 13.504l5.524 16.132 19.857-.084c-.001 0 5.465-16.103 5.43-16.121z"/></g></g></g></g><g><g><g><path data-cppathid="10011" fill="#faefdb" d="m413.798 150.833c-3.573-.448-6.26-3.475-6.275-7.077l-.138-32.76-50.055.211.138 32.76c.015 3.601-2.646 6.651-6.215 7.129 0 0-9.242 31.589 31.405 31.418 40.649-.171 31.14-31.681 31.14-31.681z"/><path data-cppathid="10012" fill="#c9e0fd" d="m417.266 191.391c.212-8.771-2.922-17.411-9.101-23.64-2.035-2.052-4.338-3.861-6.87-5.371-.918-.548-1.578-1.441-1.881-2.466l-16.806 10.61-31.355-19.427-1.878 1.62-15.936 2.437-3.805-.464c-7.919 1.642-16.538 3.861-22.076 6.355-12.442 5.609-19.327 18.148-18.952 30.995v64.495h128.671c-.016-36.563-.132-60.154-.011-65.144z"/><g><path data-cppathid="10013" fill="#bcd6f9" d="m477.36 191.391c.333-13.739-7.255-25.464-19.784-30.979-5.614-2.471-14.118-4.586-22.129-6.169l-3 .557-16.602-2.616-2.046-1.352-17.051 10.765c3.081 1.652 5.853 3.734 8.253 6.154 6.179 6.228 9.313 14.869 9.101 23.64-.121 4.99-.005 28.58.01 65.144h63.259c-.016-36.563-.132-60.154-.011-65.144z"/></g></g><g><g><g><g><g><g><g><g><g><g><g><g><g><path data-cppathid="10014" fill="#faefdb" d="m362.397 122.331c9.003-7.819 13.957-19.296 14.162-31.199l-.11-29.119-.015-51.378c-10.548 1.374-18.757 6.093-24.841 11.377-9.06 7.868-13.938 19.517-13.887 31.517l.036 8.499.015 3.556-3.028.013c-4.439.019-8.022 3.632-8.003 8.071l.038 8.907c.019 4.439 3.632 8.022 8.071 8.003l3.04-.013c.3 11.664 5.249 22.871 14.137 30.459 1.878 1.603 3.955 3.152 6.237 4.566 1.476-1.046 2.859-2.14 4.148-3.259z"/></g><g><path data-cppathid="10015" fill="#89808c" d="m363.34 42.465.131-.001c5.41-.023 7.001 1.749 12.972 2.532l-.009-32.955-2.11-4.424-10.015.051c-6.36.027-11.75 4.119-13.724 9.804-.734 2.112-2.639 3.59-4.875 3.6l-.165.001c-8.124.034-14.682 6.648-14.648 14.772l.129 30.673s10.984-.177 16.128 3.161c.896.581 1.992.76 3.04.561l.056-.01c2.029-.386 3.495-2.163 3.486-4.229l-.083-13.753c-.023-5.376 4.312-9.754 9.687-9.783z"/></g></g><g><g><path data-cppathid="10016" fill="#f6e2bf" d="m437.673 73.199c-.019-4.439-3.632-8.022-8.071-8.003l-3.028.013-.015-3.556-.036-8.499c-.051-12-5.026-23.607-14.153-31.399-7.155-6.109-17.199-11.425-30.438-11.517-2.666.041-5.201.293-7.608.72l.018 50.695.108 28.537c-.201 11.666-5.056 22.914-13.879 30.577-1.367 1.187-2.842 2.346-4.426 3.445 17.317 11.993 39.847 11.141 56.642-3.445 8.823-7.662 13.678-18.911 13.879-30.577l3.04-.013c4.439-.019 8.022-3.632 8.004-8.071z"/></g><g><path data-cppathid="10017" fill="#756e78" d="m433.207 41.226c-.079-18.694-15.297-33.784-33.991-33.705l-24.893.105.013 37.022c1.945.387 3.92.603 5.912.595l1.72-.007c10.531-.044 12.23-2.9 18.647-2.927 5.385-.03 9.772 4.315 9.795 9.699l.082 13.735c.009 2.062 1.485 3.826 3.513 4.198 1.083.199 2.192-.039 3.118-.634 5.172-3.325 16.187-3.22 16.187-3.22z"/></g></g><g fill="#9bc4f9"><path data-cppathid="10018" d="m329.634 154.69 18.928 27.398c4.202 6.083 12.77 7.138 18.323 2.257l15.723-13.821-31.355-19.427c-5.337.715-13.432 1.921-21.619 3.593z"/><path data-cppathid="10019" d="m435.447 154.244-18.751 27.6c-4.161 6.125-12.738 7.239-18.326 2.381l-15.761-13.702 31.19-19.691c5.342.671 13.448 1.809 21.648 3.412z"/></g></g><path data-cppathid="10020" fill="#a39ba3" d="m358.267 256.535h49.002l-14.642-56.459-19.857.105z"/></g></g></g></g></g></g></g></g></g><g><path data-cppathid="10021" fill="#938993" d="m398.058 183.955-15.45-13.431s-15.33 13.488-15.361 13.504l5.524 16.132 19.857-.084c-.001 0 5.466-16.103 5.43-16.121z"/></g></g></g></g><path data-cppathid="10022" fill="#c1a0a0" d="m444.074 433.465v-184.212c0-10.51-8.517-19.03-19.026-19.035h-398.471c-10.513 0-19.035 8.522-19.035 19.035v184.212c0 10.513 8.522 19.036 19.035 19.036h398.462c10.512-.001 19.035-8.523 19.035-19.036z"/><path data-cppathid="10023" fill="#b58c8c" d="m485.464 230.218h-63.259c10.513 0 19.035 8.522 19.035 19.035v184.212c0 10.513-8.522 19.035-19.035 19.035h63.259c10.513 0 19.035-8.522 19.035-19.035v-184.212c.001-10.513-8.522-19.035-19.035-19.035z"/><g><g><g><path data-cppathid="10024" fill="#faefdb" d="m159.33 398.818c-3.573-.448-6.26-3.475-6.275-7.077l-.138-32.76-50.054.211.138 32.76c.015 3.601-2.646 6.651-6.215 7.129 0 0-9.242 31.589 31.405 31.418s31.139-31.681 31.139-31.681z"/><g><path data-cppathid="10025" fill="#afe2f7" d="m162.808 437.743c.015 1.005.011-.175 0 0z"/><path data-cppathid="10026" fill="#c9e0fd" d="m150.659 504.521c6.707 0 12.142-5.442 12.134-12.149-.059-47.654-.008-54.253.015-54.628 0-.003 0-.006 0-.009-.129-8.437-3.528-16.589-9.584-22.465-2.917-2.83-6.355-5.174-10.211-6.871-.916-.403-1.897-.795-2.933-1.174l-.171-.545c-14.567 3.042-30.033.514-43.124-7.597-10.646 1.427-32.27 4.804-43.695 9.949-12.396 5.584-19.328 18.099-18.952 30.995v52.361c0 6.702 5.433 12.134 12.134 12.134h164.482.01-60.105z"/></g><g><path data-cppathid="10027" fill="#bcd6f9" d="m222.902 437.734c-.196-12.83-7.705-24.014-19.794-29.336-11.468-5.048-33.12-8.242-43.778-9.58-6.948 4.386-14.585 7.189-22.414 8.406 1.035.38 2.017.771 2.933 1.174 3.856 1.697 7.294 4.041 10.211 6.871 6.056 5.876 9.455 14.028 9.584 22.465v.009c.011-.175.015 1.005 0 0-.023.375-.074 6.974-.015 54.629.008 6.707-5.427 12.149-12.134 12.149h63.259c6.707 0 12.142-5.442 12.134-12.149-.059-47.654-.008-54.253.015-54.629-.001-.003-.001-.006-.001-.009z"/></g></g></g><g><g><path data-cppathid="10028" fill="#faefdb" d="m414.222 398.818c-3.573-.448-6.26-3.475-6.275-7.077l-.138-32.76-50.055.211.138 32.76c.015 3.601-2.646 6.651-6.215 7.129 0 0-9.242 31.589 31.405 31.418 40.648-.171 31.14-31.681 31.14-31.681z"/><path data-cppathid="10029" fill="#756e78" d="m417.704 492.372c-.079-58.997-.017-56.036-.124-57.176-.703-7.518-3.999-14.642-9.445-19.927-2.917-2.83-6.355-5.174-10.211-6.871-.918-.404-1.901-.796-2.939-1.176l-.027-.576c-14.613 3.093-30.144.576-43.282-7.564-10.646 1.427-32.27 4.804-43.695 9.949-12.393 5.581-19.328 18.097-18.952 30.995v52.361c0 6.701 5.432 12.134 12.134 12.134h104.407c6.707 0 12.142-5.442 12.134-12.149z"/><g><path data-cppathid="10030" fill="#665e66" d="m477.655 435.195c-1.117-11.946-8.523-21.897-19.656-26.798-11.468-5.048-33.12-8.242-43.778-9.58-6.944 4.384-14.576 7.185-22.401 8.403 1.037.38 2.021.772 2.939 1.176 3.856 1.697 7.294 4.041 10.211 6.871 5.446 5.284 8.743 12.409 9.445 19.927.107 1.14.044-1.821.124 57.176.008 6.707-5.427 12.149-12.134 12.149h63.24c6.707 0 12.142-5.442 12.134-12.149-.079-58.995-.017-56.034-.124-57.175z"/></g></g><g><path data-cppathid="10031" fill="#756e78" d="m399.64 255.506-34.908.147c-6.36.027-11.75 4.119-13.724 9.803-.734 2.112-2.639 3.59-4.875 3.6l-.165.001c-8.124.034-14.682 6.648-14.648 14.772l.08 38.274c.009 4.235 1.304 8.367 3.714 11.848l.016.023c1.912 2.762 3.095 5.949 3.543 9.278 1.336 9.928 6.076 19.195 13.761 25.757 7.155 6.109 17.199 11.425 30.438 11.516 13.238-.203 23.237-5.604 30.34-11.773 7.649-6.643 12.316-15.98 13.553-25.949.408-3.288 1.543-6.444 3.388-9.196 2.315-3.453 3.547-7.518 3.539-11.675l-.062-32.721c-.078-18.693-15.296-33.784-33.99-33.705z"/></g><path data-cppathid="10032" fill="#665e66" d="m433.631 289.211c-.079-18.694-15.297-33.784-33.991-33.705l-29.208.123-.005 82.546c-.201 11.666-5.056 22.914-13.879 30.577-.706.613-1.441 1.218-2.204 1.812 6.996 5.429 16.427 9.877 28.528 9.961 13.238-.203 23.237-5.604 30.34-11.773 7.649-6.643 12.316-15.98 13.553-25.949.408-3.288 1.543-6.444 3.388-9.196 2.315-3.453 3.547-7.518 3.539-11.675z"/><g><path data-cppathid="10033" fill="#89808c" d="m145.651 255.506-34.908.147c-6.36.027-11.75 4.119-13.724 9.803-.734 2.112-2.639 3.59-4.875 3.6l-.165.001c-8.124.034-14.682 6.648-14.648 14.772l.08 38.274c.009 4.235 1.304 8.367 3.714 11.848l.016.023c1.912 2.762 3.095 5.949 3.543 9.278 1.336 9.928 6.076 19.195 13.761 25.757 7.155 6.109 17.199 11.425 30.438 11.516 13.238-.203 23.237-5.604 30.34-11.773 7.649-6.643 12.316-15.98 13.553-25.949.408-3.288 1.543-6.444 3.388-9.196 2.315-3.453 3.547-7.518 3.539-11.675l-.062-32.721c-.078-18.693-15.296-33.784-33.99-33.705z"/></g><path data-cppathid="10034" fill="#756e78" d="m179.642 289.211c-.079-18.694-15.297-33.784-33.991-33.705l-29.002.122-.005 82.547c-.201 11.666-5.056 22.914-13.879 30.577-.737.64-1.506 1.272-2.307 1.891 6.986 5.393 16.384 9.798 28.425 9.882 13.238-.203 23.237-5.604 30.34-11.773 7.649-6.643 12.316-15.98 13.553-25.949.408-3.288 1.543-6.444 3.388-9.196 2.315-3.453 3.547-7.518 3.539-11.675z"/></g></g></g></g></g><g><g><path data-cppathid="10035" d="m504.521 298.331c-4.143 0-7.5 3.357-7.5 7.5v127.648c0 6.361-5.176 11.537-11.537 11.537h-.235c-.008-9.533-.019-9.632-.102-10.448l-.005-.056v-.001c-.881-9.412-5.033-18.153-11.691-24.612-12.158-11.794-33.606-15.396-57.992-18.474l-.062-14.756c11.174-8.598 17.258-20.301 18.827-32.935.269-2.167 1.021-4.223 2.176-5.945 3.156-4.71 4.819-10.196 4.809-15.865l-.062-32.741c-.094-22.626-18.418-41.177-41.346-41.177h-.18l-34.91.147c-8.863.037-16.821 5.388-20.245 13.459-11.557.814-20.688 10.501-20.639 22.234l.08 38.277c.012 5.76 1.744 11.308 5.01 16.048.018.026.035.052.054.078 1.192 1.722 1.979 3.799 2.276 6.009 1.678 12.475 7.79 24.142 19.091 32.686l.062 14.754c-12.936 1.744-35.595 5.467-47.18 11.311-13.6 6.857-22.104 21.425-21.688 37.135v4.872h-51.168c.013-8.014.066-6.734.034-7.383-.161-10.469-4.484-20.577-11.861-27.734-12.168-11.807-33.49-15.381-57.992-18.474l-.059-14.076c11.604-8.583 18.086-20.404 19.725-33.613.271-2.169 1.022-4.226 2.176-5.946 3.157-4.709 4.821-10.196 4.811-15.866l-.062-32.741c-.096-22.63-18.422-41.177-41.346-41.177h-.18l-34.91.147c-8.861.037-16.819 5.387-20.246 13.459-11.556.814-20.688 10.501-20.638 22.234l.079 38.279c.014 5.76 1.746 11.307 5.011 16.046.018.026.035.052.054.078 1.191 1.721 1.979 3.799 2.276 6.009 1.675 12.455 7.746 23.773 18.185 31.987l.065 15.453c-12.82 1.728-35.63 5.464-47.18 11.311-13.6 6.857-22.103 21.424-21.688 37.134v4.873h-.061c-6.361 0-11.537-5.176-11.537-11.537v-25.727c0-4.143-3.357-7.5-7.5-7.5s-7.5 3.357-7.5 7.5v25.727c0 14.633 11.904 26.537 26.537 26.537h.061v32.39c0 10.826 8.809 19.635 19.635 19.635h164.496c10.859 0 19.649-8.794 19.635-19.658-.017-14.151-.025-24.62-.027-32.366h51.175v32.39c0 10.826 8.809 19.635 19.635 19.635h164.496c10.861 0 19.647-8.795 19.635-19.659-.019-13.97-.03-24.466-.037-32.365h.223c14.633 0 26.537-11.904 26.537-26.537v-127.65c0-4.143-3.358-7.5-7.5-7.5zm-394.064 86.405c10.987 4.066 23.091 4.54 35.061.489l.028 6.56c.008 1.798.345 3.529.957 5.132-11.826 4.566-25.063 4.622-36.928.156.598-1.608.92-3.342.913-5.14zm-18.355-42.478c-.609-4.525-2.259-8.844-4.772-12.493-.017-.025-.034-.051-.052-.076-1.552-2.242-2.376-4.869-2.382-7.596l-.08-38.293c-.017-3.977 3.204-7.225 7.148-7.242h.201c5.347-.025 10.14-3.498 11.925-8.64.985-2.838 3.667-4.752 6.672-4.765l34.91-.147h.115c14.543 0 26.287 11.752 26.348 26.222l.062 32.724c.005 2.676-.779 5.264-2.271 7.487-2.452 3.659-4.043 7.963-4.602 12.448-1.043 8.409-4.96 15.942-11.026 21.211-15.168 13.167-35.801 13.192-50.998.216-6.094-5.204-10.071-12.681-11.198-21.056zm118.647 154.783h-164.496c-2.556 0-4.635-2.079-4.635-4.635v-52.365c0-.073-.001-.146-.003-.219-.291-9.961 4.987-19.154 13.451-23.423 9.26-4.668 29.858-8.073 40.142-9.521 20.304 11.416 45.538 11.308 65.742-.277 14.51 1.919 37.885 5.082 47.142 14.063 4.521 4.387 7.182 10.614 7.307 17.101-.029 1.671-.07 9.701-.015 54.636.004 2.563-2.071 4.64-4.635 4.64zm154.623-111.981c11.245 3.929 23.349 4.054 35.059-.148l.029 6.874c.008 1.798.345 3.529.957 5.132-11.826 4.566-25.063 4.622-36.928.156.598-1.608.92-3.342.912-5.14zm-19.26-42.8c-.608-4.524-2.258-8.844-4.773-12.495-.017-.025-.034-.051-.052-.076-1.552-2.241-2.375-4.868-2.381-7.596l-.08-38.293c-.017-3.977 3.205-7.225 7.149-7.242h.201c5.345-.025 10.137-3.497 11.925-8.641.985-2.837 3.666-4.751 6.671-4.764l34.91-.147h.115c14.569 0 26.287 11.781 26.348 26.222l.062 32.724c.005 2.676-.779 5.264-2.27 7.487-2.454 3.661-4.045 7.966-4.602 12.448-1.043 8.409-4.96 15.942-11.027 21.211-15.216 13.207-35.862 13.151-50.997.216-6.095-5.205-10.073-12.682-11.199-21.054zm119.551 154.781h-164.496c-2.556 0-4.635-2.079-4.635-4.635-.001-66.1.066-50.033-.003-52.584-.289-9.904 4.952-19.615 14.535-23.94 7.24-3.26 21.387-6.515 39.058-9.003 20.303 11.416 45.537 11.308 65.741-.277 14.662 1.939 37.901 5.101 47.143 14.063 4.096 3.974 6.652 9.387 7.2 15.243l.015.146c.021.644.024 3.989.031 13.412.007 8.248.017 21.505.046 42.935.002 2.564-2.07 4.64-4.635 4.64z"/><path data-cppathid="10036" d="m485.483 222.715h-.208c-.015-8.993-.061-27.512.028-31.148.266-11.005-3.844-21.613-11.275-29.105-12.062-12.153-34.267-15.975-58.567-19.042l-.062-14.756c10.651-8.194 16.758-19.298 18.627-31.495 6.543-1.689 11.657-7.688 11.626-15.108l-.037-8.91c-.018-4.094-1.623-7.917-4.377-10.751l-.09-21.222c-.096-22.569-18.361-41.178-41.345-41.178h-.18l-34.911.147c-8.861.037-16.818 5.387-20.246 13.459-11.455.797-20.689 10.354-20.638 22.251l.115 27.036c-2.731 2.858-4.304 6.695-4.286 10.789l.037 8.908c.031 7.409 5.182 13.374 11.754 15.012 1.963 12.12 8.127 23.198 18.892 31.336l.062 14.754c-12.9 1.739-35.572 5.456-47.18 11.311-13.601 6.858-22.104 21.426-21.688 37.137v30.574h-51.173c-.015-9.092-.061-27.544.028-31.148.266-11.006-3.845-21.614-11.276-29.104-12.035-12.136-34.213-15.969-58.566-19.042l-.063-14.756c10.633-8.178 16.754-19.275 18.627-31.495 6.571-1.695 11.658-7.715 11.627-15.109l-.038-8.906c-.016-4.096-1.622-7.92-4.377-10.754l-.089-21.222c-.096-22.631-18.422-41.178-41.345-41.178h-.18l-34.911.147c-8.86.037-16.818 5.387-20.245 13.459-11.557.812-20.688 10.5-20.638 22.25l.114 27.037c-2.73 2.858-4.303 6.695-4.285 10.789l.037 8.908c.031 7.41 5.181 13.375 11.753 15.013 1.959 12.093 8.105 23.18 18.891 31.336l.063 14.755c-12.846 1.732-35.635 5.466-47.18 11.311-13.6 6.857-22.103 21.424-21.688 37.134v30.577h-.062c-14.633 0-26.537 11.904-26.537 26.537v123.438c0 4.143 3.357 7.5 7.5 7.5s7.5-3.357 7.5-7.5v-123.439c0-6.361 5.176-11.537 11.537-11.537h458.926c6.361 0 11.537 5.176 11.537 11.537v21.519c0 4.143 3.357 7.5 7.5 7.5s7.5-3.357 7.5-7.5v-21.519c0-14.633-11.905-26.537-26.538-26.537zm-22.104-49.689c4.57 4.607 7.096 11.233 6.928 18.178-.095 3.889-.05 20.245-.032 31.511h-63.59l-5.798-22.358 2.012-5.937c.009-.025.017-.05.025-.075 7.917 1.627 15.95-1.719 20.415-8.292l15.937-23.458c9.629 2.13 17.961 4.243 24.103 10.431zm-101.01 5.681c-2.184 1.917-5.549 1.507-7.203-.888l-12.329-17.845c2.323-.376 4.724-.74 7.195-1.088l20.462 12.678c-4.536 3.988-3.765 3.31-8.125 7.143zm16.189 13.926-2.154-6.292 6.668-5.862 6.727 5.848c-.628 1.864-1.38 4.088-2.118 6.267zm25.17-14.073-8.151-7.085 20.38-12.866c2.47.327 4.872.67 7.195 1.026l-12.222 17.99c-1.635 2.406-5.004 2.846-7.202.935zm-3.296-41.654.029 6.873c.009 2.14.485 4.184 1.334 6.03l-18.788 11.861-18.887-11.702c.833-1.854 1.292-3.902 1.282-6.042l-.029-6.873c11.246 3.93 23.35 4.055 35.059-.147zm-21.4 70.725 8.236-.035 3.921 15.119h-16.039zm-33.054-179.079h.198c5.348-.023 10.141-3.496 11.927-8.64.985-2.838 3.666-4.752 6.672-4.765l34.911-.147h.115c14.379 0 26.286 11.589 26.347 26.24l.075 17.791c-2.475.312-5.233.831-7.821 1.689l-.053-8.763c-.048-11.26-10.634-20.912-26.13-15.708-5.122 1.724-13.089 2.189-19.531.083-15.639-5.112-26.147 4.804-26.101 15.941l.053 8.776c-2.548-.833-5.256-1.333-7.712-1.631l-.1-23.626c-.016-3.975 3.205-7.224 7.15-7.24zm-.175 61.806c-.104-4.067-3.432-7.308-7.496-7.308h-.032c-3.299.014-3.197.079-3.422-.144-.158-.156-.159-.324-.159-.379l-.035-8.443c3.569.238 7.403.932 8.847 1.869 7.591 4.925 18.205-.47 18.164-10.016l-.082-13.74c-.005-1.234.994-2.244 2.243-2.251l.108-.001c1.384.017 2.762.211 4.091.645 16.179 5.287 28.805-.784 33.065-.802 1.091-.065 2.249.891 2.254 2.245l.083 13.724c.04 9.215 10.28 14.924 18.188 9.84 1.489-.957 5.344-1.658 8.997-1.918.038 9.124.113 8.589-.121 8.825-.156.158-.324.159-.379.159l-3.04.013c-4.079.018-7.397 3.292-7.468 7.371-.169 9.828-4.288 18.957-11.298 25.045-15.287 13.273-35.929 13.094-50.997.216-7.063-6.03-11.258-15.123-11.511-24.95zm-49.272 101.458c-.289-9.904 4.952-19.615 14.535-23.94 3.633-1.636 9.001-3.27 15.679-4.806l16.079 23.274c4.589 6.642 12.702 9.806 20.508 8.127l2.054 5.998-5.725 22.246h-63.127v-30.68c0-.073-.001-.146-.003-.219zm-88.066-18.79c4.571 4.607 7.097 11.233 6.929 18.176-.095 3.881-.051 20.27-.032 31.513h-63.591l-5.798-22.358 2.012-5.937c.009-.025.017-.05.025-.075 7.917 1.627 15.95-1.719 20.415-8.292l15.937-23.458c9.648 2.134 17.976 4.255 24.103 10.431zm-101.011 5.681c-2.172 1.91-5.54 1.516-7.201-.888l-12.329-17.845c2.323-.376 4.724-.74 7.195-1.088l20.461 12.677c-4.591 4.036-3.776 3.32-8.126 7.144zm16.19 13.926-2.154-6.292 6.669-5.862 6.727 5.848c-.628 1.864-1.38 4.088-2.118 6.267zm25.17-14.073-8.151-7.086 20.379-12.866c2.471.327 4.873.67 7.197 1.026l-12.222 17.99c-1.635 2.407-5.005 2.847-7.203.936zm-3.295-41.654.029 6.873c.009 2.139.485 4.184 1.334 6.03l-18.788 11.862-18.887-11.702c.834-1.854 1.292-3.903 1.283-6.043l-.029-6.871c11.244 3.928 23.349 4.053 35.058-.149zm-21.401 70.725 8.236-.035 3.92 15.119h-16.039zm-33.055-179.079h.198c5.348-.023 10.142-3.496 11.928-8.64.985-2.838 3.666-4.752 6.671-4.765l34.912-.147h.114c14.354 0 26.287 11.57 26.348 26.239l.075 17.792c-2.476.312-5.233.831-7.821 1.689l-.053-8.763c-.04-9.515-7.756-17.169-17.232-17.169h-.096c-2.995.014-5.956.505-8.801 1.461-13.079 4.4-19.532-1.407-28.37-1.304l-.116.001c-9.495.052-17.188 7.818-17.147 17.327l.053 8.776c-2.548-.833-5.255-1.333-7.711-1.631l-.1-23.626c-.017-3.975 3.204-7.224 7.148-7.24zm-.173 61.806c-.104-4.067-3.432-7.308-7.496-7.308h-.032c-3.3.014-3.199.078-3.422-.144-.158-.156-.159-.324-.159-.379l-.035-8.443c3.569.239 7.402.932 8.846 1.869 7.582 4.919 18.206-.461 18.165-10.016l-.083-13.74c-.005-1.234.995-2.244 2.244-2.251l.108-.001c1.39.017 2.762.211 4.09.645 9.432 3.081 20.703 2.657 28.971-.122 1.323-.445 2.698-.674 4.096-.68h.013c1.222 0 2.236.977 2.241 2.245l.083 13.72c.021 5.668 4.085 10.524 9.663 11.547 2.949.54 5.976-.064 8.524-1.703 1.489-.957 5.343-1.658 8.996-1.918.039 9.124.114 8.589-.12 8.825-.157.158-.325.159-.38.159l-3.039.013c-4.079.018-7.396 3.291-7.468 7.37-.17 9.83-4.289 18.959-11.298 25.046-15.193 13.188-35.842 13.17-50.997.216-7.063-6.03-11.258-15.123-11.511-24.95zm-49.273 101.458c-.289-9.906 4.955-19.613 14.536-23.94 3.633-1.636 9.001-3.27 15.679-4.806l16.079 23.274c4.579 6.63 12.687 9.809 20.508 8.127l2.053 5.997-5.725 22.246h-63.127v-30.68c0-.072-.001-.144-.003-.218z"/></g></g></g></svg>