<?xml version="1.0" encoding="UTF-8"?>
<svg xmlns="http://www.w3.org/2000/svg" onmouseup="{ if(window.parent.document.onmouseup) window.parent.document.onmouseup(arguments[0]);}" width="512pt" viewBox="-68 0 512 512.00001" height="512pt"><path data-cppathid="10000" fill="#707487" d="m169.207031 0c-48.617187 0-88.03125 39.410156-88.03125 88.03125v34.5625c5.882813-5.453125 16.3125-8.417969 24.484375-7.324219v-4.386719c0-3.488281 2.980469-6.242187 6.429688-5.980468 34.035156 2.445312 66.613281-6.308594 92.804687-23.417969 2.445313-1.597656 5.679688-1.199219 7.667969.933594 22.390625 24.066406 20.195312 21.078125 20.195312 24.21875v8.613281c8.957032-1.339844 18.960938 1.425781 24.480469 6.558594v-33.777344c0-48.621094-39.410156-88.03125-88.03125-88.03125zm0 0"/><path data-cppathid="10001" fill="#5e6377" d="m112.085938 88.03125c0-43.34375 31.328124-79.34375 72.574218-86.652344-5.019531-.890625-10.179687-1.378906-15.453125-1.378906-48.617187 0-88.03125 39.410156-88.03125 88.03125v34.5625c5.882813-5.453125 16.3125-8.417969 24.484375-7.324219v-4.386719c0-3.484374 2.972656-6.238281 6.421875-5.980468v-16.871094zm0 0"/><path data-cppathid="10002" fill="#f0a479" d="m233.789062 113.191406v48.222656c0 .523438-.027343 1.039063-.042968 1.558594 17.066406 2.585938 30.433594-9.746094 30.433594-24.890625 0-15.171875-13.378907-27.441406-30.390626-24.890625zm0 0"/><path data-cppathid="10003" fill="#e5966e" d="m253.363281 117.460938c-5.257812-3.628907-12.058593-5.398438-19.578125-4.269532v48.222656c0 .523438-.023437 1.039063-.039062 1.558594 7.539062 1.140625 14.355468-.628906 19.613281-4.269531v-41.242187zm0 0"/><path data-cppathid="10004" fill="#f0a479" d="m104.632812 161.414062v-48.203124c-14.859374-1.984376-30.394531 9.417968-30.394531 24.875 0 15.121093 13.335938 27.472656 30.429688 24.886718-.011719-.519531-.035157-1.039062-.035157-1.558594zm0 0"/><path data-cppathid="10005" fill="#e5966e" d="m104.632812 158.710938c-6.65625-4.601563-10.820312-12.179688-10.820312-20.628907 0-8.25 4.429688-15.34375 10.820312-19.863281v-5.011719c-14.859374-1.984375-30.394531 9.417969-30.394531 24.875 0 15.125 13.335938 27.476563 30.429688 24.890625-.011719-.519531-.035157-1.039062-.035157-1.558594zm0 0"/><path data-cppathid="10006" fill="#f0a479" d="m170.144531 224.023438c-14.222656 0-26.71875-3.902344-36.941406-10.433594v34.003906l36.78125 45.402344 36.785156-45.402344v-34.980469c-10.417969 7.1875-23.035156 11.410157-36.625 11.410157zm0 0"/><path data-cppathid="10007" fill="#e5966e" d="m164.109375 223.773438c-11.738281-.9375-22.15625-4.59375-30.90625-10.183594v34.003906l30.90625 38.148438zm0 0"/><path data-cppathid="10008" fill="#e4eaf8" d="m304.082031 283.21875-63.035156-24.414062-26.644531 53.402343c-1.589844 3.1875-5.648438 4.199219-8.550782 2.140625l-34.804687-24.71875-1.058594 1.308594-1.042969-1.285156-34.769531 24.695312c-2.90625 2.058594-6.960937 1.046875-8.554687-2.140625l-26.644532-53.40625-62.984374 24.417969s-35.992188 14.796875-35.992188 55.828125v160.960937c0 6.621094 5.371094 11.992188 11.992188 11.992188h316.085937c6.621094 0 11.992187-5.371094 11.992187-11.992188 0-29.992187 0-123.835937 0-160.960937.003907-41.03125-35.988281-55.828125-35.988281-55.828125zm0 0"/><path data-cppathid="10009" fill="#d8dce5" d="m30.910156 500.007812c0-29.992187 0-146.851562 0-183.976562 0-15.039062 4.839844-26.539062 10.96875-35.09375l-5.886718 2.28125s-35.98828175 14.796875-35.98828175 55.824219v160.964843c0 6.621094 5.36718775 11.992188 11.99218775 11.992188h30.90625c-6.625 0-11.992188-5.371094-11.992188-11.992188zm0 0"/><path data-cppathid="10010" fill="#f7b594" d="m212.5625 78.296875c-1.988281-2.132813-5.226562-2.53125-7.667969-.933594-26.191406 17.109375-60.828125 27.921875-94.863281 25.480469-3.453125-.265625-6.429688 2.492188-6.429688 5.976562v52.59375c0 33.800782 26.484376 64.671876 66.542969 64.671876 35.660157 0 64.671875-29.011719 64.671875-64.671876v-56.835937c0-3.144531.136719-2.214844-22.253906-26.28125zm0 0"/><path data-cppathid="10011" fill="#f0a479" d="m134.507812 161.414062v-59.011718c-8.113281.84375-16.3125 1.027344-24.476562.441406-3.453125-.261719-6.429688 2.492188-6.429688 5.976562v52.59375c0 33.800782 26.484376 64.671876 66.542969 64.671876 5.140625 0 10.132813-.621094 14.929688-1.757813-30.96875-6.964844-50.566407-33.847656-50.566407-62.914063zm0 0"/><path data-cppathid="10012" fill="#707487" d="m207.398438 467.535156-23.714844-140.121094c-15.742188 0-11.621094 0-27.363282 0l-23.695312 140.121094c-.246094 1.796875.28125 3.621094 1.40625 4.859375l31.226562 34.394531c2.539063 2.792969 6.929688 2.796876 9.46875.003907l31.265626-34.398438c1.125-1.238281 1.652343-3.0625 1.40625-4.859375zm0 0"/><path data-cppathid="10013" fill="#52586d" d="m164.941406 472.394531c-1.128906-1.238281-1.65625-3.0625-1.40625-4.859375l21.921875-129.640625-1.773437-10.484375c-15.742188 0-11.621094 0-27.363282 0l-23.695312 140.121094c-.246094 1.796875.28125 3.625 1.40625 4.863281l31.226562 34.394531c2.539063 2.792969 6.929688 2.792969 9.46875 0l10.726563-11.800781zm0 0"/><path data-cppathid="10014" fill="#434a5e" d="m170.035156 290.96875v-.03125l-.023437.015625-.023438-.015625v.03125l-26.082031 17.496094 12.328125 19.585937h27.554687l12.328126-19.585937zm0 0"/><path data-cppathid="10015" fill="#d8dce5" d="m214.402344 314.265625 27.503906-55.125-35.136719-13.609375-36.78125 45.40625 35.863281 25.46875c2.902344 2.0625 6.957032 1.046875 8.550782-2.140625zm0 0"/><path data-cppathid="10016" fill="#d8dce5" d="m125.621094 314.265625-27.503906-55.125 35.136718-13.609375 36.78125 45.40625-35.859375 25.46875c-2.90625 2.0625-6.960937 1.046875-8.554687-2.140625zm0 0"/><path data-cppathid="10017" fill="#d8dce5" d="m68.984375 512v-158.851562c0-4.269532-3.457031-7.726563-7.726563-7.726563-4.265624 0-7.726562 3.457031-7.726562 7.726563v158.851562zm0 0"/><path data-cppathid="10018" fill="#d8dce5" d="m286.546875 512v-158.851562c0-4.269532-3.460937-7.726563-7.730469-7.726563-4.265625 0-7.726562 3.457031-7.726562 7.726563v158.851562zm0 0"/><path data-cppathid="10019" fill="#6fd844" d="m376 448.101562c0 35.289063-28.609375 63.898438-63.898438 63.898438-35.292968 0-63.902343-28.609375-63.902343-63.898438 0-35.292968 28.609375-63.902343 63.902343-63.902343 35.289063 0 63.898438 28.609375 63.898438 63.902343zm0 0"/><path data-cppathid="10020" fill="#5fbf32" d="m279.015625 448.101562c0-29.980468 20.644531-55.125 48.492187-62.019531-4.9375-1.222656-10.09375-1.882812-15.40625-1.882812-35.292968 0-63.898437 28.609375-63.898437 63.898437 0 35.292969 28.609375 63.902344 63.898437 63.902344 5.3125 0 10.46875-.660156 15.40625-1.882812-27.847656-6.894532-48.492187-32.039063-48.492187-62.015626zm0 0"/><path data-cppathid="10021" fill="#e4eaf8" d="m336.222656 426.699219-30.335937 30.335937-13.683594-13.679687c-3.015625-3.015625-7.910156-3.015625-10.925781 0-3.019532 3.015625-3.019532 7.910156 0 10.925781l19.144531 19.144531c3.019531 3.019531 7.910156 3.019531 10.925781 0l35.800782-35.800781c3.019531-3.015625 3.019531-7.910156 0-10.925781-3.015626-3.015625-7.910157-3.015625-10.925782 0zm0 0"/><path data-cppathid="10022" fill="#00aaf0" d="m364.675781 9.519531h-131.199219c-6.226562 0-11.324218 5.097657-11.324218 11.324219v102.808594c0 6.226562 5.097656 11.324218 11.324218 11.324218h93.757813c1.359375 0 2.363281 1.234376 2.125 2.574219-1.617187 9.027344-6.1875 17.035157-12.683594 22.972657-4.253906 3.886718-1.292969 10.996093 4.460938 10.695312.148437-.007812.296875-.019531.445312-.027344 19.132813-1.214844 34.839844-15.730468 37.828125-34.394531.167969-1.050781 1.070313-1.820313 2.132813-1.820313h3.132812c6.226563 0 11.324219-5.097656 11.324219-11.324218v-102.808594c0-6.230469-5.09375-11.324219-11.324219-11.324219zm0 0"/><g fill="#059adb"><path data-cppathid="10023" d="m359.410156 136.796875c.0625-.367187.214844-.703125.429688-.980469-.390625-.507812-.992188-.84375-1.699219-.84375h-30.90625c1.359375 0 2.363281 1.238282 2.125 2.574219-1.617187 9.03125-6.1875 17.035156-12.683594 22.976563-4.25 3.886718-1.289062 10.996093 4.460938 10.691406.148437-.007813.296875-.015625.449219-.023438 19.128906-1.214844 34.835937-15.730468 37.824218-34.394531zm0 0"/><path data-cppathid="10024" d="m253.0625 123.652344v-102.808594c0-6.230469 5.09375-11.324219 11.324219-11.324219h-30.910157c-6.226562 0-11.324218 5.09375-11.324218 11.324219v102.804688c0 6.230468 5.097656 11.324218 11.324218 11.324218h30.910157c-6.230469 0-11.324219-5.09375-11.324219-11.320312zm0 0"/><path data-cppathid="10025" d="m339.402344 93.964844h-82.710938c-4.265625 0-7.726562 3.460937-7.726562 7.726562 0 4.269532 3.460937 7.726563 7.726562 7.726563h82.710938c4.265625 0 7.726562-3.457031 7.726562-7.726563 0-4.265625-3.460937-7.726562-7.726562-7.726562zm0 0"/><path data-cppathid="10026" d="m339.402344 65.097656h-82.710938c-4.265625 0-7.726562 3.457032-7.726562 7.726563 0 4.265625 3.460937 7.726562 7.726562 7.726562h82.710938c4.265625 0 7.726562-3.460937 7.726562-7.726562 0-4.269531-3.460937-7.726563-7.726562-7.726563zm0 0"/><path data-cppathid="10027" d="m339.402344 36.226562h-82.710938c-4.265625 0-7.726562 3.460938-7.726562 7.726563 0 4.269531 3.460937 7.726563 7.726562 7.726563h82.710938c4.265625 0 7.726562-3.457032 7.726562-7.726563 0-4.265625-3.460937-7.726563-7.726562-7.726563zm0 0"/></g></svg>