<?xml version="1.0" encoding="UTF-8"?>
<svg xmlns="http://www.w3.org/2000/svg" onmouseup="{ if(window.parent.document.onmouseup) window.parent.document.onmouseup(arguments[0]);}" width="512" viewBox="0 0 512 512" height="512"><g id="Flat"><path data-cppathid="10000" fill="#eaae48" d="m328 272-24-32a24.721 24.721 0 0 1 35.777-22.111l28.223 14.111 28.223-14.111a24.721 24.721 0 0 1 35.777 22.111l-24 32v32l54.751 88.97a62.353 62.353 0 0 1 9.249 32.678 62.352 62.352 0 0 1 -62.352 62.352h-83.3a62.352 62.352 0 0 1 -62.348-62.352 62.353 62.353 0 0 1 9.249-32.678l54.751-88.97z"/><path data-cppathid="10001" fill="#b0792c" d="m376 361.045v-9.045h-16v9.045a22.834 22.834 0 0 0 -3.378 42.21l15.6 7.8a6.833 6.833 0 0 1 -3.055 12.945h-2.334a6.84 6.84 0 0 1 -6.833-6.833v-1.167h-16v1.167a22.874 22.874 0 0 0 16 21.788v9.045h16v-9.045a22.834 22.834 0 0 0 3.378-42.21l-15.6-7.8a6.833 6.833 0 0 1 3.055-12.945h2.334a6.84 6.84 0 0 1 6.833 6.833v1.167h16v-1.167a22.874 22.874 0 0 0 -16-21.788z"/><path data-cppathid="10002" fill="#b0792c" d="m408 392h16v16h-16z"/><path data-cppathid="10003" fill="#b0792c" d="m328 272h80v32h-80z"/><path data-cppathid="10004" fill="#676768" d="m312 368v120h-288v-120a79.954 79.954 0 0 1 72.72-79.67c2.4-.22 4.82-.33 7.28-.33h128c2.46 0 4.88.11 7.28.33a79.954 79.954 0 0 1 72.72 79.67z"/><path data-cppathid="10005" fill="#4e4e4f" d="m64 392h16v96h-16z"/><path data-cppathid="10006" fill="#4e4e4f" d="m160 392h16v96h-16z"/><path data-cppathid="10007" fill="#4e4e4f" d="m256 392h16v96h-16z"/><path data-cppathid="10008" fill="#4e4e4f" d="m192 448h16v16h-16z"/><path data-cppathid="10009" fill="#b3b1b3" d="m248 344-40 16 16 32-56 40-56-40 16-32-40-16v-54.39a80.3 80.3 0 0 1 8.72-1.28c2.4-.22 4.82-.33 7.28-.33h128c2.46 0 4.88.11 7.28.33a80.3 80.3 0 0 1 8.72 1.28z"/><path data-cppathid="10010" fill="#e4e4e3" d="m239.28 288.33-71.28 143.67-71.28-143.67c2.4-.22 4.82-.33 7.28-.33h128c2.46 0 4.88.11 7.28.33z"/><path data-cppathid="10011" fill="#0093b9" d="m152 352-8-24 24-24 24 24-8 24z"/><path data-cppathid="10012" fill="#067a98" d="m152 400v-48h32v48l-16 32z"/><path data-cppathid="10013" fill="#e99180" d="m264 152h16a24 24 0 0 1 24 24 24 24 0 0 1 -24 24h-16z"/><path data-cppathid="10014" fill="#e99180" d="m72 152h-16a24 24 0 0 0 -24 24 24 24 0 0 0 24 24h16z"/><path data-cppathid="10015" fill="#f8caa8" d="m183.122 304h-30.244a88.878 88.878 0 0 1 -67.478-31.037 88.876 88.876 0 0 1 -21.4-57.841v-87.122a104 104 0 0 1 104-104 104 104 0 0 1 104 104v87.122a88.876 88.876 0 0 1 -21.4 57.841 88.878 88.878 0 0 1 -67.478 31.037z"/><g fill="#a3783b"><path data-cppathid="10016" d="m168 216h-8a8 8 0 0 1 0-16h8v-32a16.019 16.019 0 0 1 16-16h40a8 8 0 0 1 0 16h-40v32a16.019 16.019 0 0 1 -16 16z"/><path data-cppathid="10017" d="m144 168h-32a8 8 0 0 1 0-16h32a8 8 0 0 1 0 16z"/><path data-cppathid="10018" d="m176 280h-16a8 8 0 0 1 0-16h16a8 8 0 0 1 0 16z"/><circle data-cppathid="10019" r="8" cy="184" cx="128"/><circle data-cppathid="10020" r="8" cy="184" cx="208"/></g></g></svg>