<?xml version="1.0" encoding="UTF-8"?>
<svg xmlns="http://www.w3.org/2000/svg" onmouseup="{ if(window.parent.document.onmouseup) window.parent.document.onmouseup(arguments[0]);}" width="512" viewBox="0 0 64 64" height="512"><g id="Management-Outsourcing-Process-Worker-Gear"><path data-cppathid="10000" fill="#3d9ae2" d="m33 41.6v9.4h-24a4 4 0 0 1 -4-4v-5.4a7.976 7.976 0 0 1 5.27-7.51l5.73-2.09a3 3 0 0 0 6 0l5.73 2.09a7.976 7.976 0 0 1 5.27 7.51z"/><path data-cppathid="10001" fill="#a97c50" d="m61 51v4h-3-52-3v-4h6 4 5 9 6 2 1 1 2 15.31z"/><path data-cppathid="10002" fill="#ff9811" d="m55.68 18.47a9.8 9.8 0 0 1 -1.09 2.62l2.02 2.69-2.83 2.83-2.69-2.02a9.8 9.8 0 0 1 -2.62 1.09l-.47 3.32h-4l-.47-3.32a9.8 9.8 0 0 1 -2.62-1.09l-2.69 2.02-2.83-2.83 2.02-2.69a9.8 9.8 0 0 1 -1.09-2.62l-3.32-.47v-4l3.32-.47a9.8 9.8 0 0 1 1.09-2.62l-2.02-2.69 2.83-2.83 2.69 2.02a9.8 9.8 0 0 1 2.62-1.09l.47-3.32h4l.47 3.32a9.8 9.8 0 0 1 2.62 1.09l2.69-2.02 2.83 2.83-2.02 2.69a9.8 9.8 0 0 1 1.09 2.62l3.32.47v4z"/><path data-cppathid="10003" fill="#d8d7da" d="m58.61 35.33-2.33 14a2.006 2.006 0 0 1 -1.97 1.67h-15.31l3-18h14.64a2 2 0 0 1 1.97 2.33z"/><path data-cppathid="10004" fill="#a97c50" d="m6 55h52v6h-52z"/><circle data-cppathid="10005" r="2" fill="#e6e7e8" cy="42" cx="49"/><circle data-cppathid="10006" r="5" fill="#ffd422" cy="16" cx="46"/><path data-cppathid="10007" fill="#acabb1" d="m42 33-3 18h-4l.67-4 1.91-11.49a3 3 0 0 1 2.96-2.51z"/><path data-cppathid="10008" fill="#898890" d="m33 47h-8v2a2.006 2.006 0 0 0 2 2h8l.67-4z"/><path data-cppathid="10009" fill="#57565c" d="m28 9v5.07c-2.64.34-4.03.93-7 .93-3.33 0-2.67-1-6-1v2a2.006 2.006 0 0 1 -2 2h-1v-5a4 4 0 0 1 4-4z"/><path data-cppathid="10010" fill="#ffc477" d="m22 29.75v2.25a3 3 0 0 1 -6 0v-3.08a7.851 7.851 0 0 0 4 1.08 8.239 8.239 0 0 0 2-.25z"/><path data-cppathid="10011" fill="#ffc477" d="m18 50v1h-5v-5h1a4 4 0 0 1 4 4z"/><path data-cppathid="10012" fill="#ffb655" d="m22 29.75v2a8.239 8.239 0 0 1 -2 .25 7.851 7.851 0 0 1 -4-1.08v-2a7.851 7.851 0 0 0 4 1.08 8.239 8.239 0 0 0 2-.25z"/><path data-cppathid="10013" fill="#ffc477" d="m21 15c-3.33 0-2.67-1-6-1v2a2.006 2.006 0 0 1 -2 2h-1a2 2 0 0 0 0 4 8.014 8.014 0 0 0 2.34 5.66 7.575 7.575 0 0 0 1.66 1.26 7.851 7.851 0 0 0 4 1.08 8.239 8.239 0 0 0 2-.25 8.006 8.006 0 0 0 6-7.75v-7.93c-2.64.34-4.03.93-7 .93z"/><path data-cppathid="10014" fill="#8b5e3c" d="m6 55h52v2h-52z"/><path data-cppathid="10015" d="m61 50h-3.87a2.121 2.121 0 0 0 .13-.51l2.34-14a3 3 0 0 0 -2.96-3.49h-16.1a3.986 3.986 0 0 0 -3.94 3.34l-1.78 10.66h-.82v-4.4a9 9 0 0 0 -5.93-8.45l-5.07-1.85v-.83a8.991 8.991 0 0 0 6-8.47v-13a1 1 0 0 0 -1-1h-12a5 5 0 0 0 -5 5v4.17a3 3 0 0 0 .04 5.67 8.93 8.93 0 0 0 2.6 5.53 9.634 9.634 0 0 0 1.36 1.12v1.81l-5.07 1.85a9 9 0 0 0 -5.93 8.45v5.4a4.924 4.924 0 0 0 1.03 3h-2.03a1 1 0 0 0 -1 1v4a1 1 0 0 0 1 1h2v5a1 1 0 0 0 1 1h52a1 1 0 0 0 1-1v-5h2a1 1 0 0 0 1-1v-4a1 1 0 0 0 -1-1zm-4.36-16a1 1 0 0 1 .76.35 1.014 1.014 0 0 1 .23.82l-2.34 14a.989.989 0 0 1 -.98.83h-14.13l2.67-16zm-18.07 1.67a1.989 1.989 0 0 1 1.97-1.67h.28l-2.67 16h-1.97zm-4.08 12.33-.34 2h-7.15a1 1 0 0 1 -1-1v-1zm-21.49-35a3.009 3.009 0 0 1 3-3h11v3.21c-.59.09-1.13.2-1.66.3a20.383 20.383 0 0 1 -4.34.49 6.157 6.157 0 0 1 -2.65-.44 8.214 8.214 0 0 0 -3.35-.56 1 1 0 0 0 -1 1v2a1 1 0 0 1 -1 1zm0 9a1 1 0 0 0 -1-1 1 1 0 0 1 0-2h1a3.009 3.009 0 0 0 3-3v-.96a5.222 5.222 0 0 1 1.65.4 8.214 8.214 0 0 0 3.35.56 22.337 22.337 0 0 0 4.73-.53c.4-.08.83-.16 1.27-.23v6.76a7 7 0 1 1 -14 0zm8 8.94v1.06a2 2 0 0 1 -4 0v-1.52a9.138 9.138 0 0 0 3 .52 8.262 8.262 0 0 0 1-.06zm-15 10.66a6.988 6.988 0 0 1 4.61-6.57l4.64-1.69a3.973 3.973 0 0 0 7.5 0l4.64 1.69a6.988 6.988 0 0 1 4.61 6.57v4.4h-3v-6h-2v6h-2a1 1 0 0 0 -1 1v2a3 3 0 0 0 .18 1h-5.18a5 5 0 0 0 -5-5h-3v-5h-2v6a1 1 0 0 0 1 1h2v3h-3a3.009 3.009 0 0 1 -3-3zm11 8.4h-3v-3a3.009 3.009 0 0 1 3 3zm40 10h-50v-4h50zm3-6h-56v-2h56z"/><path data-cppathid="10016" d="m49 45a3 3 0 1 0 -3-3 3 3 0 0 0 3 3zm0-4a1 1 0 1 1 -1 1 1 1 0 0 1 1-1z"/><path data-cppathid="10017" d="m17 18h2v2h-2z"/><path data-cppathid="10018" d="m23 18h2v2h-2z"/><path data-cppathid="10019" d="m32.858 18.99 2.682.383a10.86 10.86 0 0 0 .679 1.639l-1.625 2.167a1 1 0 0 0 .093 1.306l2.828 2.828a1 1 0 0 0 1.306.093l2.167-1.625a10.86 10.86 0 0 0 1.639.679l.383 2.682a1 1 0 0 0 .99.858h4a1 1 0 0 0 .99-.858l.383-2.682a10.9 10.9 0 0 0 1.639-.679l2.167 1.625a1 1 0 0 0 1.306-.093l2.828-2.828a1 1 0 0 0 .093-1.306l-1.625-2.167a10.86 10.86 0 0 0 .679-1.639l2.682-.383a1 1 0 0 0 .858-.99v-4a1 1 0 0 0 -.858-.99l-2.682-.383a10.86 10.86 0 0 0 -.679-1.639l1.625-2.167a1 1 0 0 0 -.093-1.306l-2.828-2.828a1 1 0 0 0 -1.306-.093l-2.167 1.625a10.9 10.9 0 0 0 -1.639-.679l-.383-2.682a1 1 0 0 0 -.99-.858h-4a1 1 0 0 0 -.99.858l-.383 2.682a10.86 10.86 0 0 0 -1.639.679l-2.167-1.625a1 1 0 0 0 -1.306.093l-2.828 2.828a1 1 0 0 0 -.093 1.306l1.625 2.167a10.86 10.86 0 0 0 -.679 1.639l-2.682.383a1 1 0 0 0 -.858.99v4a1 1 0 0 0 .858.99zm1.142-4.123 2.463-.351a1 1 0 0 0 .827-.744 8.9 8.9 0 0 1 .977-2.356 1 1 0 0 0 -.061-1.11l-1.492-1.991 1.6-1.6 1.991 1.492a1 1 0 0 0 1.11.061 8.9 8.9 0 0 1 2.356-.977 1 1 0 0 0 .744-.827l.352-2.464h2.266l.351 2.463a1 1 0 0 0 .744.827 8.9 8.9 0 0 1 2.356.977 1 1 0 0 0 1.11-.061l1.991-1.492 1.6 1.6-1.492 1.991a1 1 0 0 0 -.061 1.11 8.9 8.9 0 0 1 .977 2.356 1 1 0 0 0 .827.744l2.464.352v2.266l-2.463.351a1 1 0 0 0 -.827.744 8.9 8.9 0 0 1 -.977 2.356 1 1 0 0 0 .061 1.11l1.492 1.991-1.6 1.6-1.991-1.492a1 1 0 0 0 -1.11-.061 8.9 8.9 0 0 1 -2.356.977 1 1 0 0 0 -.744.827l-.352 2.464h-2.266l-.351-2.463a1 1 0 0 0 -.744-.827 8.9 8.9 0 0 1 -2.356-.977 1 1 0 0 0 -1.11.061l-1.991 1.492-1.6-1.6 1.492-1.991a1 1 0 0 0 .061-1.11 8.9 8.9 0 0 1 -.977-2.356 1 1 0 0 0 -.827-.744l-2.464-.352z"/><path data-cppathid="10020" d="m46 22a6 6 0 1 0 -6-6 6.006 6.006 0 0 0 6 6zm0-10a4 4 0 1 1 -4 4 4 4 0 0 1 4-4z"/><path data-cppathid="10021" d="m21 27a4 4 0 0 0 4-4h-2a2 2 0 0 1 -4 0h-2a4 4 0 0 0 4 4z"/></g></svg>