<?xml version="1.0" encoding="UTF-8"?>
<svg xmlns="http://www.w3.org/2000/svg" onmouseup="{ if(window.parent.document.onmouseup) window.parent.document.onmouseup(arguments[0]);}" width="464pt" viewBox="0 0 464 464" height="464pt"><path data-cppathid="10000" fill="#ccdce5" d="m440 152v288h-416v-288c0-22.089844 17.910156-40 40-40h336c22.089844 0 40 17.910156 40 40zm0 0"/><path data-cppathid="10001" fill="#abbac2" d="m344 464h-320c-13.253906 0-24-10.746094-24-24v-24h160l16 16h112l16-16h160v24c0 13.253906-10.746094 24-24 24zm0 0"/><path data-cppathid="10002" fill="#0093ba" d="m56 144h352v240h-352zm0 0"/><path data-cppathid="10003" fill="#047fa7" d="m408 144h-64l-240 240h304zm0 0"/><path data-cppathid="10004" fill="#ffc119" d="m144 280h176c17.671875 0 32 14.328125 32 32s-14.328125 32-32 32h-176c-17.671875 0-32-14.328125-32-32s14.328125-32 32-32zm0 0"/><path data-cppathid="10005" fill="#faac2b" d="m320 280h-112l-64 64h176c17.671875 0 32-14.328125 32-32s-14.328125-32-32-32zm0 0"/><path data-cppathid="10006" fill="#ccdce5" d="m200 112v-48c0-17.671875 14.328125-32 32-32s32 14.328125 32 32h32c0-35.347656-28.652344-64-64-64s-64 28.652344-64 64v48zm0 0"/><path data-cppathid="10007" fill="#ffc119" d="m328 112c0-8.835938-7.164062-16-16-16h-160c-8.835938 0-16 7.164062-16 16v112c0 8.835938 7.164062 16 16 16h96l80-80zm0 0"/><path data-cppathid="10008" fill="#faac2b" d="m248 240h64c8.835938 0 16-7.164062 16-16v-64zm0 0"/><g fill="#ea732d"><path data-cppathid="10009" d="m256 160c0 13.253906-10.746094 24-24 24s-24-10.746094-24-24 10.746094-24 24-24 24 10.746094 24 24zm0 0"/><path data-cppathid="10010" d="m224 176h16v32h-16zm0 0"/><path data-cppathid="10011" d="m144 304h16v16h-16zm0 0"/><path data-cppathid="10012" d="m176 304h16v16h-16zm0 0"/><path data-cppathid="10013" d="m208 304h16v16h-16zm0 0"/><path data-cppathid="10014" d="m240 304h16v16h-16zm0 0"/></g><path data-cppathid="10015" fill="#eb4042" d="m368 248c0 30.929688-25.070312 56-56 56s-56-25.070312-56-56 25.070312-56 56-56 56 25.070312 56 56zm0 0"/><path data-cppathid="10016" fill="#e9f0f1" d="m312 272c-2.121094 0-4.15625-.84375-5.65625-2.34375l-24-24 11.3125-11.3125 18.34375 18.34375 50.34375-50.34375 11.3125 11.3125-56 56c-1.5 1.5-3.535156 2.34375-5.65625 2.34375zm0 0"/></svg>