<?xml version="1.0" encoding="UTF-8"?>
<svg xmlns="http://www.w3.org/2000/svg" onmouseup="{ if(window.parent.document.onmouseup) window.parent.document.onmouseup(arguments[0]);}" width="512" viewBox="0 0 510 510" height="512" enable-background="new 0 0 510 510" id="Capa_1"><g><path data-cppathid="10000" fill="#eef4ff" d="m319 30v450c0 8.28-6.72 15-15 15h-274c-8.28 0-15-6.72-15-15v-450c0-8.28 6.72-15 15-15h274c8.28 0 15 6.72 15 15z"/><path data-cppathid="10001" fill="#d9e6fc" d="m319 30v450c0 8.28-6.72 15-15 15h-137v-480h137c8.28 0 15 6.72 15 15z"/><path data-cppathid="10002" fill="#4d578c" d="m304 118.573v-88.573h-210v49c0 8.284-6.716 15-15 15h-49v386h274v-120.573c0-8.074 6.201-15.024 14.265-15.41 8.614-.411 15.735 6.459 15.735 14.983v121c0 16.569-13.431 30-30 30h-274c-16.569 0-30-13.431-30-30v-450c0-16.569 13.431-30 30-30h274c16.569 0 30 13.431 30 30v89c0 8.523-7.121 15.394-15.735 14.982-8.064-.385-14.265-7.336-14.265-15.409z"/><path data-cppathid="10003" fill="#333e73" d="m334 30v89c0 8.28-6.72 15-15 15s-15-6.72-15-15v-89h-137v-30h137c16.54 0 30 13.46 30 30z"/><path data-cppathid="10004" fill="#333e73" d="m334 359v121c0 16.54-13.46 30-30 30h-137v-30h137v-121c0-8.28 6.72-15 15-15s15 6.72 15 15z"/><path data-cppathid="10005" fill="#4d578c" d="m222 431c0 8.28-6.72 15-15 15h-80c-8.28 0-15-6.72-15-15s6.72-15 15-15h80c8.28 0 15 6.72 15 15z"/><path data-cppathid="10006" fill="#333e73" d="m222 431c0 8.28-6.72 15-15 15h-40v-30h40c8.28 0 15 6.72 15 15z"/><path data-cppathid="10007" fill="#333e73" d="m455 211.14v55.72c8.28 0 15 6.71 15 15v62.14c0 16.54-13.46 30-30 30h-298c-16.54 0-30-13.46-30-30v-210c0-16.54 13.46-30 30-30h298c16.54 0 30 13.46 30 30v62.14c0 8.29-6.72 15-15 15z"/><path data-cppathid="10008" fill="#1f2859" d="m455 211.14v55.72c8.28 0 15 6.71 15 15v62.14c0 16.54-13.46 30-30 30h-149v-270h149c16.54 0 30 13.46 30 30v62.14c0 8.29-6.72 15-15 15z"/><path data-cppathid="10009" fill="#fb3" d="m480 184h-82c-16.542 0-30 13.458-30 30v50c0 16.542 13.458 30 30 30h82c16.542 0 30-13.458 30-30v-50c0-16.542-13.458-30-30-30z"/><path data-cppathid="10010" fill="#eef4ff" d="m238.438 302.004c-5.823 0-11.363-3.412-13.798-9.104-6.401-14.966-22.426-30.973-37.363-37.363-7.617-3.258-11.15-12.073-7.892-19.69s12.072-11.153 19.69-7.892c21.83 9.337 43.609 30.848 53.147 53.146 4.252 9.939-3.107 20.903-13.784 20.903z"/><path data-cppathid="10011" fill="#eef4ff" d="m295.01 279.38c-1.36 0-2.71-.19-4.01-.55-4.25-1.18-7.93-4.2-9.79-8.56-12.31-28.78-42.46-58.97-71.3-71.3-7.62-3.26-11.16-12.08-7.9-19.69 3.26-7.62 12.08-11.16 19.69-7.89 25.41 10.86 51.06 32.12 69.3 56.66 7.27 9.77 13.36 20.06 17.79 30.42 4.25 9.94-3.11 20.91-13.78 20.91z"/><path data-cppathid="10012" fill="#d9e6fc" d="m295.01 279.38c-1.36 0-2.71-.19-4.01-.55v-50.78c7.27 9.77 13.36 20.06 17.79 30.42 4.25 9.94-3.11 20.91-13.78 20.91z"/></g></svg>