<?xml version="1.0" encoding="UTF-8"?>
<svg xmlns="http://www.w3.org/2000/svg" onmouseup="{ if(window.parent.document.onmouseup) window.parent.document.onmouseup(arguments[0]);}" width="512" viewBox="0 0 512 512" height="512" enable-background="new 0 0 512 512" id="Capa_1"><g><g><path data-cppathid="10000" fill="#e4f6ff" d="m89.496 491.187v-426.667h333.008v426.667c0 11.495-9.318 20.813-20.813 20.813h-291.382c-11.495 0-20.813-9.318-20.813-20.813z"/></g><g><path data-cppathid="10001" fill="#b9e4ef" d="m398.569 64.52v426.667c0 11.495-9.318 20.813-20.813 20.813h23.935c11.495 0 20.813-9.318 20.813-20.813v-426.667z"/></g><g><path data-cppathid="10002" fill="#80b4fb" d="m89.496 64.52v-43.707c0-11.495 9.318-20.813 20.813-20.813h291.382c11.495 0 20.813 9.318 20.813 20.813v43.707z"/></g><g><path data-cppathid="10003" fill="#61a2f9" d="m401.691 0h-23.935c11.495 0 20.813 9.318 20.813 20.813v43.707h23.935v-43.707c0-11.495-9.318-20.813-20.813-20.813z"/></g><g><g><g><path data-cppathid="10004" fill="#e278b1" d="m162.341 358.567v-20.939c0-3.414 2.767-6.181 6.181-6.181h174.955c3.414 0 6.181 2.767 6.181 6.181v20.939c0 3.414-2.767 6.181-6.181 6.181h-174.954c-3.414 0-6.182-2.767-6.182-6.181z"/></g></g><g><g><path data-cppathid="10005" fill="#ffe07d" d="m261.572 123.479 5.486 11.43c.893 1.86 2.655 3.152 4.698 3.444l13.229 1.89c5.115.731 7.129 7.042 3.383 10.6l-9.143 8.686c-1.506 1.431-2.193 3.523-1.828 5.568l2.41 13.497c.902 5.05-4.385 8.937-8.936 6.571l-12.02-6.25c-1.787-.929-3.916-.929-5.703 0l-12.02 6.25c-4.551 2.367-9.838-1.521-8.936-6.571l2.41-13.497c.365-2.045-.321-4.137-1.828-5.568l-9.143-8.686c-3.746-3.559-1.732-9.87 3.383-10.6l13.229-1.89c2.043-.292 3.805-1.584 4.698-3.444l5.486-11.43c2.245-4.675 8.901-4.675 11.145 0z"/></g></g><g><g><path data-cppathid="10006" fill="#ffe07d" d="m344.824 123.479 5.486 11.43c.893 1.86 2.655 3.152 4.698 3.444l13.229 1.89c5.115.731 7.129 7.042 3.383 10.6l-9.143 8.686c-1.506 1.431-2.193 3.523-1.828 5.568l2.41 13.497c.902 5.05-4.385 8.937-8.936 6.571l-12.02-6.25c-1.788-.929-3.916-.929-5.703 0l-12.02 6.25c-4.551 2.367-9.838-1.521-8.936-6.571l2.41-13.497c.365-2.045-.321-4.137-1.828-5.568l-9.143-8.686c-3.746-3.559-1.732-9.87 3.383-10.6l13.229-1.89c2.043-.292 3.805-1.584 4.698-3.444l5.486-11.43c2.245-4.675 8.901-4.675 11.145 0z"/></g></g><g><g><path data-cppathid="10007" fill="#ffe07d" d="m167.176 123.479-5.486 11.43c-.893 1.86-2.655 3.152-4.698 3.444l-13.229 1.89c-5.115.731-7.129 7.042-3.383 10.6l9.143 8.686c1.506 1.431 2.193 3.523 1.828 5.568l-2.41 13.497c-.902 5.05 4.385 8.937 8.936 6.571l12.02-6.25c1.788-.929 3.916-.929 5.703 0l12.02 6.25c4.551 2.367 9.838-1.521 8.936-6.571l-2.41-13.497c-.365-2.045.321-4.137 1.828-5.568l9.143-8.686c3.746-3.559 1.732-9.87-3.383-10.6l-13.229-1.89c-2.043-.292-3.805-1.584-4.698-3.444l-5.486-11.43c-2.245-4.675-8.901-4.675-11.145 0z"/></g></g><g><g><g><path data-cppathid="10008" fill="#ffe07d" d="m303.198 230.666 5.486 11.43c.893 1.86 2.655 3.152 4.698 3.444l13.229 1.89c5.115.731 7.129 7.042 3.383 10.6l-9.143 8.686c-1.506 1.431-2.193 3.523-1.828 5.568l2.41 13.497c.902 5.05-4.385 8.937-8.936 6.571l-12.02-6.25c-1.788-.929-3.916-.929-5.703 0l-12.02 6.25c-4.551 2.367-9.838-1.521-8.936-6.571l2.41-13.497c.365-2.045-.321-4.137-1.828-5.568l-9.143-8.686c-3.746-3.559-1.732-9.87 3.383-10.6l13.229-1.89c2.043-.292 3.805-1.584 4.698-3.444l5.486-11.43c2.245-4.675 8.901-4.675 11.145 0z"/></g></g><g><g><path data-cppathid="10009" fill="#ffe07d" d="m208.802 230.666-5.486 11.43c-.893 1.86-2.655 3.152-4.698 3.444l-13.229 1.89c-5.115.731-7.129 7.042-3.383 10.6l9.143 8.686c1.506 1.431 2.193 3.523 1.828 5.568l-2.41 13.497c-.902 5.05 4.385 8.937 8.936 6.571l12.02-6.25c1.787-.929 3.916-.929 5.703 0l12.02 6.25c4.551 2.367 9.838-1.521 8.936-6.571l-2.41-13.497c-.365-2.045.321-4.137 1.828-5.568l9.143-8.686c3.746-3.559 1.732-9.87-3.383-10.6l-13.229-1.89c-2.043-.292-3.805-1.584-4.698-3.444l-5.486-11.43c-2.245-4.675-8.901-4.675-11.145 0z"/></g></g></g></g><g><circle data-cppathid="10010" r="8.325" fill="#a2f4c1" cy="32.26" cx="380.878"/></g><g><circle data-cppathid="10011" r="8.325" fill="#ffe07d" cy="32.26" cx="347.577"/></g><g><circle data-cppathid="10012" r="8.325" fill="#e278b1" cy="32.26" cx="314.276"/></g><g><path data-cppathid="10013" fill="#93d8e4" d="m174.829 405.775h-52.033c-4.267 0-7.726-3.459-7.726-7.726s3.459-7.726 7.726-7.726h52.033c4.267 0 7.726 3.459 7.726 7.726.001 4.267-3.458 7.726-7.726 7.726z"/></g><g><path data-cppathid="10014" fill="#93d8e4" d="m174.829 439.076h-52.033c-4.267 0-7.726-3.459-7.726-7.726s3.459-7.726 7.726-7.726h52.033c4.267 0 7.726 3.459 7.726 7.726.001 4.267-3.458 7.726-7.726 7.726z"/></g><g><path data-cppathid="10015" fill="#93d8e4" d="m164.423 472.377h-41.626c-4.267 0-7.726-3.459-7.726-7.726s3.459-7.726 7.726-7.726h41.626c4.267 0 7.726 3.459 7.726 7.726s-3.459 7.726-7.726 7.726z"/></g><g><path data-cppathid="10016" fill="#93d8e4" d="m287.219 405.775h-62.439c-4.267 0-7.726-3.459-7.726-7.726s3.459-7.726 7.726-7.726h62.439c4.267 0 7.726 3.459 7.726 7.726.001 4.267-3.459 7.726-7.726 7.726z"/></g><g><path data-cppathid="10017" fill="#93d8e4" d="m287.219 439.076h-62.439c-4.267 0-7.726-3.459-7.726-7.726s3.459-7.726 7.726-7.726h62.439c4.267 0 7.726 3.459 7.726 7.726.001 4.267-3.459 7.726-7.726 7.726z"/></g><g><path data-cppathid="10018" fill="#93d8e4" d="m276.813 472.377h-41.626c-4.267 0-7.726-3.459-7.726-7.726s3.459-7.726 7.726-7.726h41.626c4.267 0 7.726 3.459 7.726 7.726s-3.459 7.726-7.726 7.726z"/></g><g><path data-cppathid="10019" fill="#93d8e4" d="m389.203 405.775h-52.033c-4.267 0-7.726-3.459-7.726-7.726s3.459-7.726 7.726-7.726h52.033c4.267 0 7.726 3.459 7.726 7.726.001 4.267-3.459 7.726-7.726 7.726z"/></g><g><path data-cppathid="10020" fill="#93d8e4" d="m389.203 439.076h-52.033c-4.267 0-7.726-3.459-7.726-7.726s3.459-7.726 7.726-7.726h52.033c4.267 0 7.726 3.459 7.726 7.726.001 4.267-3.459 7.726-7.726 7.726z"/></g><g><path data-cppathid="10021" fill="#93d8e4" d="m389.203 472.377h-41.626c-4.267 0-7.726-3.459-7.726-7.726s3.459-7.726 7.726-7.726h41.626c4.267 0 7.726 3.459 7.726 7.726.001 4.267-3.459 7.726-7.726 7.726z"/></g></g></svg>