<?xml version="1.0" encoding="UTF-8"?>
<svg xmlns="http://www.w3.org/2000/svg" onmouseup="{ if(window.parent.document.onmouseup) window.parent.document.onmouseup(arguments[0]);}" width="370pt" viewBox="-18 0 370 370.00127" height="370pt"><path data-cppathid="10000" fill="#fedb41" d="m328.640625 246.019531c0 .660157-.011719 1.320313-.03125 1.980469h-29.21875c.019531-.660156.03125-1.320312.03125-1.980469.03125-22.527343-8.9375-44.132812-24.910156-60.019531l20.300781-20.300781.359375-.367188c21.460937 21.359375 33.507813 50.40625 33.46875 80.6875zm0 0"/><path data-cppathid="10001" fill="#fedb41" d="m328.320312 248h.289063c-.460937 29.789062-12.625 58.203125-33.859375 79.101562l-.347656-.359374-20.3125-20.3125c15.742187-15.425782 24.820312-36.394532 25.300781-58.429688zm0 0"/><path data-cppathid="10002" fill="#00efd1" d="m129.929688 248c-.019532-.660156-.027344-1.320312-.027344-1.980469.003906-45.902343 36.542968-83.460937 82.429687-84.730469.777344-.027343 1.546875-.039062 2.328125-.039062 46.8125.007812 84.757813 37.957031 84.761719 84.769531 0 .660157-.011719 1.320313-.03125 1.980469-1.09375 46.019531-38.699219 82.757812-84.730469 82.78125-.78125 0-1.550781-.011719-2.328125-.039062-45.113281-1.25-81.339843-37.625-82.402343-82.742188zm0 0"/><g fill="#fedb41"><path data-cppathid="10003" d="m295.171875 165.332031-.359375.367188-20.300781 20.300781c-15.871094-15.871094-37.40625-24.777344-59.851563-24.75-.78125 0-1.550781.011719-2.328125.039062l-.011719-.289062v-28.929688c.78125-.019531 1.558594-.03125 2.339844-.03125 30.195313-.039062 59.160156 11.941407 80.511719 33.292969zm0 0"/><path data-cppathid="10004" d="m294.402344 326.742188.347656.359374c-21.308594 21.105469-50.097656 32.929688-80.089844 32.890626-.78125 0-1.558594-.011719-2.339844-.03125v-28.960938l.011719-.257812c.777344.027343 1.546875.039062 2.328125.039062 22.246094.027344 43.601563-8.722656 59.429688-24.351562zm0 0"/><path data-cppathid="10005" d="m140.582031 159.398438c19.941407-17.113282 45.210938-26.769532 71.488281-27.316407.082032-.011719.167969-.011719.25-.011719v28.929688l.011719.289062c-21.871093.566407-42.664062 9.601563-58 25.203126l-.011719-.011719-20.738281-20.558594c2.230469-2.273437 4.5625-4.445313 7-6.523437zm0 0"/><path data-cppathid="10006" d="m212.332031 330.742188-.011719.257812v28.960938c-3.628906-.066407-7.214843-.308594-10.75-.71875-25.585937-2.929688-49.417968-14.464844-67.589843-32.710938l20.671875-20.671875c15.308594 15.40625 35.964844 24.320313 57.679687 24.882813zm0 0"/></g><path data-cppathid="10007" fill="#00acea" d="m212.070312 131.871094v.210937c-26.277343.546875-51.546874 10.203125-71.488281 27.316407h-108.980469c-14.140624 0-25.601562-11.460938-25.601562-25.597657 0-14.140625 11.460938-25.601562 25.601562-25.601562h154.9375c13.390626 0 24.523438 10.316406 25.53125 23.671875zm0 0"/><path data-cppathid="10008" fill="#00acea" d="m186.539062 5.789062c14.144532 0 25.605469 11.464844 25.605469 25.605469s-11.460937 25.605469-25.605469 25.605469h-154.9375c-14.140624 0-25.605468-11.464844-25.605468-25.605469s11.464844-25.605469 25.605468-25.605469zm0 0"/><path data-cppathid="10009" fill="#00ceb4" d="m186.539062 57c14.140626 0 25.601563 11.460938 25.601563 25.601562 0 14.136719-11.460937 25.597657-25.601563 25.597657h-154.9375c-14.140624 0-25.601562-11.460938-25.601562-25.597657 0-14.140624 11.460938-25.601562 25.601562-25.601562zm0 0"/><path data-cppathid="10010" fill="#00acea" d="m133.980469 326.53125c18.171875 18.246094 42.003906 29.78125 67.589843 32.710938l-.007812.097656c-4.367188 3.171875-9.625 4.878906-15.023438 4.871094h-154.9375c-14.140624 0-25.605468-11.464844-25.605468-25.605469s11.464844-25.605469 25.605468-25.605469h90.839844c3.488282 4.804688 7.34375 9.328125 11.539063 13.53125zm0 0"/><path data-cppathid="10011" fill="#fedb41" d="m122.441406 313c-11.011718-15.097656-18.113281-32.6875-20.671875-51.199219-.636719-4.574219-.992187-9.183593-1.058593-13.800781h29.21875c.476562 21.753906 9.332031 42.480469 24.722656 57.859375l-20.671875 20.671875c-4.195313-4.203125-8.050781-8.726562-11.539063-13.53125zm0 0"/><path data-cppathid="10012" fill="#fedb41" d="m154.320312 186.480469.011719.011719c-15.679687 15.839843-24.464843 37.238281-24.429687 59.527343 0 .660157.007812 1.320313.027344 1.980469h-29.21875c-.019532-.660156-.03125-1.320312-.03125-1.980469-.03125-29.996093 11.792968-58.785156 32.902343-80.097656zm0 0"/><path data-cppathid="10013" fill="#00ceb4" d="m133.582031 165.921875c-12.453125 12.574219-21.800781 27.882813-27.292969 44.707031l-.078124-.027344h-74.609376c-14.140624 0-25.601562-11.460937-25.601562-25.601562 0-14.136719 11.460938-25.601562 25.601562-25.601562h108.980469c-2.429687 2.070312-4.765625 4.246093-7 6.523437zm0 0"/><path data-cppathid="10014" fill="#00ceb4" d="m122.441406 313h-90.839844c-14.140624 0-25.601562-11.460938-25.601562-25.601562 0-14.136719 11.460938-25.597657 25.601562-25.597657h70.167969c2.558594 18.511719 9.660157 36.101563 20.671875 51.199219zm0 0"/><path data-cppathid="10015" fill="#00acea" d="m100.710938 248c.066406 4.617188.421874 9.226562 1.058593 13.800781h-70.167969c-14.140624 0-25.601562-11.460937-25.601562-25.601562 0-14.136719 11.460938-25.597657 25.601562-25.597657h74.609376l.078124.027344c-3.726562 11.425782-5.621093 23.371094-5.609374 35.390625 0 .660157.011718 1.320313.03125 1.980469zm0 0"/><path data-cppathid="10016" fill="#083863" d="m242.972656 209c3.3125 0 6-2.6875 6-6s-2.6875-6-6-6h-56.621094c-3.316406 0-6 2.6875-6 6s2.683594 6 6 6h16.199219c7.710938-.046875 14.617188 4.753906 17.257813 12h-33.457032c-3.316406 0-6 2.6875-6 6s2.683594 6 6 6h33.46875c-1.039062 2.496094-2.503906 4.792969-4.328124 6.789062-3.441407 3.402344-8.101563 5.28125-12.941407 5.210938h-16.199219c-2.472656.042969-4.671874 1.570312-5.574218 3.871094-.90625 2.300781-.332032 4.917968 1.453125 6.628906l40.488281 38.28125c1.152344 1.097656 2.695312 1.691406 4.289062 1.648438 1.589844-.039063 3.101563-.714844 4.195313-1.871094 2.273437-2.441406 2.167969-6.257813-.242187-8.566406l-29.523438-27.992188h1.113281c8.023438.074219 15.742188-3.070312 21.429688-8.730469 4.253906-4.125 7.140625-9.453125 8.269531-15.269531h10.722656c3.3125 0 6-2.6875 6-6s-2.6875-6-6-6h-10.730468c-.695313-4.441406-2.625-8.601562-5.566407-12zm0 0"/><path data-cppathid="10017" fill="#083863" d="m0 338.5c.0273438 17.425781 14.175781 31.527344 31.601562 31.5h154.9375c5.890626.046875 11.667969-1.570312 16.679688-4.664062 2.96875.285156 5.972656.511718 8.949219.570312.828125.019531 1.660156.058594 2.492187.058594 65.410156.007812 118.769532-52.390625 119.949219-117.789063.019531-.722656.03125-1.480469.03125-2.199219 0-32.101562-12.511719-61.976562-35.230469-84.976562-21.835937-21.882812-51.324218-34.421875-82.230468-34.972656-1.835938-7.175782-6.136719-13.484375-12.144532-17.820313 1.371094-.988281 2.664063-2.082031 3.859375-3.273437 6.550781-6.542969 9.898438-15.625 9.15625-24.851563-.738281-9.226562-5.488281-17.660156-12.996093-23.074219 1.367187-.988281 2.652343-2.082031 3.847656-3.269531 5.933594-5.875 9.265625-13.886719 9.25-22.238281-.03125-17.425781-14.183594-31.53125-31.613282-31.5h-154.9375c-13.6875-.0546875-25.839843 8.738281-30.0625 21.753906-4.226562 13.015625.445313 27.269532 11.554688 35.261719-1.363281.984375-2.644531 2.070313-3.835938 3.253906-6.546874 6.539063-9.894531 15.625-9.15625 24.847657.738282 9.226562 5.488282 17.660156 12.992188 23.074218-1.363281.988282-2.644531 2.082032-3.835938 3.269532-6.546874 6.539062-9.894531 15.625-9.15625 24.851562.738282 9.222656 5.488282 17.660156 12.992188 23.078125-1.363281.988281-2.644531 2.078125-3.835938 3.265625-6.546874 6.542969-9.894531 15.628906-9.15625 24.851562.738282 9.226563 5.488282 17.664063 12.992188 23.082032-1.363281.988281-2.644531 2.078125-3.835938 3.265625-6.546874 6.542969-9.894531 15.628906-9.15625 24.855469.738282 9.222656 5.488282 17.660156 12.992188 23.078124-1.363281.988282-2.644531 2.078126-3.835938 3.269532-6.546874 6.539062-9.894531 15.625-9.15625 24.851562.738282 9.226563 5.488282 17.664063 12.996094 23.082032-1.363281.96875-2.648437 2.046874-3.84375 3.21875-5.941406 5.894531-9.2734372 13.921874-9.253906 22.289062zm218.320312-1.800781c20.488282-.773438 40.101563-8.519531 55.585938-21.957031l12.214844 12.207031c-18.75 16.644531-42.742188 26.1875-67.800782 26.972656zm51.558594-34.535157c-14.691406 14.542969-34.546875 22.675782-55.21875 22.625-.699218 0-1.398437-.007812-2.171875-.039062-41.929687-1.164062-75.59375-34.984375-76.5625-76.921875-.015625-.601563-.023437-1.199219-.023437-1.800781.003906-42.679688 33.996094-77.589844 76.660156-78.734375.699219-.027344 1.398438-.035157 2.101562-.035157 20.863282-.058593 40.882813 8.222657 55.609376 23 14.867187 14.738282 23.207031 34.824219 23.148437 55.761719 0 .601563-.011719 1.199219-.03125 1.84375-.421875 20.480469-8.863281 39.972657-23.511719 54.292969zm4.472656-124.480468c-15.546874-13.675782-35.339843-21.566406-56.03125-22.34375v-17.230469c25.261719.78125 49.4375 10.46875 68.246094 27.351563zm-68.03125-39.292969v17.265625c-19.261718 1.730469-37.453124 9.617188-51.882812 22.492188l-12.25-12.148438c.761719-.6875 1.515625-1.382812 2.300781-2.046875 17.386719-14.847656 39.035157-23.800781 61.832031-25.5625zm-72.574218 36.140625 12.261718 12.15625c-13.398437 15.410156-21.160156 34.914062-22.011718 55.3125h-17.238282c.894532-24.941406 10.4375-48.792969 26.988282-67.46875zm-9.46875 79.46875c1.644531 19.144531 9.371094 37.257812 22.042968 51.699219l-12.199218 12.207031c-14.273438-15.925781-23.464844-35.75-26.398438-56.933594-.324218-2.300781-.566406-4.625-.730468-6.972656zm30.519531 60.199219c14.375 12.691406 32.425781 20.460937 51.523437 22.175781v17.289062c-1.363281-.101562-2.722656-.230468-4.070312-.386718-22.183594-2.582032-43.019531-11.972656-59.652344-26.878906zm139.867187 4.320312-12.207031-12.210937c13-14.523438 20.929688-32.882813 22.589844-52.308594h17.289063c-1.707032 24.007812-11.453126 46.738281-27.671876 64.519531zm27.894532-76.519531h-17.238282c-.851562-20.644531-8.789062-40.367188-22.472656-55.851562l12.210938-12.210938c16.898437 18.738281 26.636718 42.84375 27.5 68.0625zm-310.558594-210.601562c.007812-5.175782 2.082031-10.136719 5.761719-13.777344 3.679687-3.644532 8.660156-5.667969 13.839843-5.621094h154.9375c10.769532 0 19.5 8.730469 19.5 19.5s-8.730468 19.5-19.5 19.5h-154.9375c-10.820312-.011719-19.589843-8.78125-19.601562-19.601562zm0 51.101562c.007812-5.1875 2.078125-10.160156 5.753906-13.816406 3.675782-3.660156 8.660156-5.703125 13.847656-5.683594h154.9375c10.824219.007812 19.597657 8.777344 19.613282 19.601562-.011719 5.175782-2.085938 10.136719-5.769532 13.78125-3.679687 3.640626-8.664062 5.664063-13.84375 5.617188h-154.9375c-5.1875.015625-10.167968-2.027344-13.84375-5.6875-3.675781-3.65625-5.746093-8.625-5.757812-13.8125zm0 51.101562c.003906-10.824218 8.777344-19.597656 19.601562-19.601562h154.9375c7.972657-.011719 15.160157 4.808594 18.171876 12.1875-24.246094 2.011719-47.46875 11.8125-66.273438 26.8125h-106.835938c-5.175781.039062-10.152343-1.984375-13.832031-5.625-3.679687-3.640625-5.753906-8.597656-5.769531-13.773438zm0 51.597657c-.015625-5.289063 2.046875-10.375 5.742188-14.15625 3.636718-3.769531 8.621093-5.945313 13.859374-6.042969h94.226563c-10.363281 12-18.496094 25-23.785156 40h-70.441407c-10.859374-.105469-19.605468-8.941406-19.601562-19.800781zm0 51.101562c-.011719-5.15625 2.058594-10.101562 5.742188-13.707031 3.683593-3.648438 8.675781-5.664062 13.859374-5.59375h66.738282c-2.464844 9.542969-3.695313 19.363281-3.660156 29.21875 0 .722656.011718 1.441406.03125 2.070312.039062 2.566407.167968 4.710938.375 7.710938h-63.484376c-10.839843-.058594-19.597656-8.859375-19.601562-19.699219zm0 51.097657c.011719-5.175782 2.085938-10.132813 5.765625-13.777344 3.679687-3.640625 8.660156-5.664063 13.835937-5.621094h65.074219c2.515625 13.773438 7.480469 26.980469 14.65625 39h-79.730469c-10.820312-.011719-19.589843-8.78125-19.601562-19.601562zm5.738281 37.347656c3.667969-3.6875 8.660157-5.753906 13.863281-5.746094h87.855469c13.621094 17.640625 31.882813 31.144531 52.738281 39h-140.59375c-5.1875.015625-10.167968-2.027344-13.84375-5.6875-3.675781-3.65625-5.746093-8.625-5.757812-13.8125-.011719-5.167969 2.058594-10.125 5.738281-13.753906zm0 0"/></svg>