<?xml version="1.0" encoding="UTF-8"?>
<svg xmlns="http://www.w3.org/2000/svg" onmouseup="{ if(window.parent.document.onmouseup) window.parent.document.onmouseup(arguments[0]);}" data-name="Layer 3" width="512" viewBox="0 0 64 64" height="512" id="Layer_3"><path data-cppathid="10000" fill="#213d68" d="m1.894 18.043h60v40h-60z"/><path data-cppathid="10001" fill="#f2f2f2" d="m31.894 22.043a6 6 0 0 0 -6-6h-20v34h16.343a13.659 13.659 0 0 1 9.657 4z"/><path data-cppathid="10002" fill="#ddd" d="m7.894 50.043v4h24a13.659 13.659 0 0 0 -9.657-4z"/><path data-cppathid="10003" fill="#b5b5b5" d="m55.894 50.043v4h-24a13.655 13.655 0 0 1 9.656-4z"/><path data-cppathid="10004" fill="#ddd" d="m31.894 22.043a6 6 0 0 1 6-6h20v34h-16.344a13.655 13.655 0 0 0 -9.656 4z"/><path data-cppathid="10005" fill="#f4a93c" d="m51.894 50.043v12l-3-3-3 3v-12"/><path data-cppathid="10006" fill="#f6b940" d="m45.894 50.043v12l3-3v-9z"/><path data-cppathid="10007" fill="#ccc" d="m26 43h-7v-2h6v-2h-5a1 1 0 0 1 -1-1v-4a1 1 0 0 1 1-1h7v2h-6v2h5a1 1 0 0 1 1 1v4a1 1 0 0 1 -1 1z"/><path data-cppathid="10008" fill="#ccc" d="m16 43h-7v-2h6v-2h-5a1 1 0 0 1 -1-1v-4a1 1 0 0 1 1-1h7v2h-6v2h5a1 1 0 0 1 1 1v4a1 1 0 0 1 -1 1z"/><path data-cppathid="10009" fill="#b5b5b5" d="m45 43h-7a1 1 0 0 1 -1-1v-4a1 1 0 0 1 1-1h5v-2h-6v-2h7a1 1 0 0 1 1 1v4a1 1 0 0 1 -1 1h-5v2h6z"/><path data-cppathid="10010" fill="#b5b5b5" d="m55 43h-7a1 1 0 0 1 -1-1v-4a1 1 0 0 1 1-1h5v-2h-6v-2h7a1 1 0 0 1 1 1v4a1 1 0 0 1 -1 1h-5v2h6z"/><circle data-cppathid="10011" r="14" fill="#213d68" cy="16" cx="32"/><path data-cppathid="10012" fill="#3b5892" d="m35.093 16.229a20.711 20.711 0 0 0 -5.458-14.014 13.983 13.983 0 0 0 .365 27.626 20.71 20.71 0 0 0 5.093-13.612z"/><path data-cppathid="10013" fill="#ddd" d="m25.079 22.9a1.484 1.484 0 0 0 2.057 1.023l12.983-6.35a1.663 1.663 0 0 0 .881-1.505 1.663 1.663 0 0 0 -.881-1.507l-12.983-6.349a1.483 1.483 0 0 0 -2.057 1.022 1.78 1.78 0 0 0 .815 2.091l9.333 4.743-9.333 4.743a1.78 1.78 0 0 0 -.815 2.091z"/><g fill="#f2f2f2"><path data-cppathid="10014" d="m25.079 9.234a1.782 1.782 0 0 0 .816 2.091l9.187 4.669a20.91 20.91 0 0 0 -.452-4.118l-7.494-3.664a1.483 1.483 0 0 0 -2.057 1.022z"/><path data-cppathid="10015" d="m35.093 16.229c0-.03-.005-.06-.005-.09l-9.194 4.672a1.782 1.782 0 0 0 -.816 2.091 1.483 1.483 0 0 0 2.057 1.022l7.564-3.7a20.874 20.874 0 0 0 .394-3.995z"/></g></svg>