<?xml version="1.0" encoding="UTF-8"?>
<svg xmlns="http://www.w3.org/2000/svg" onmouseup="{ if(window.parent.document.onmouseup) window.parent.document.onmouseup(arguments[0]);}" width="512" viewBox="0 0 512 512" height="512" enable-background="new 0 0 512 512" id="Capa_1"><g><g><path data-cppathid="10000" fill="#ff8086" d="m328.506 401.367 103.286-75.652 64.393 87.914-7.955 7.712c2.603 3.554.593 8.608-3.741 9.402l-38.367 11.86c-4.49.823-8.357 3.655-10.496 7.688l-16.013 30.186-9.797 4.952c-2.065 3.892-7.489 4.285-10.093.73z"/><path data-cppathid="10001" fill="#e5646e" d="m499.6 432.803-53.48 9.8c-3.52.64-6.65 2.53-8.87 5.25l10.38-19.56c2.14-4.03 6-6.87 10.49-7.69l38.06-6.97 7.16 9.77c2.6 3.55.59 8.6-3.74 9.4z"/><path data-cppathid="10002" fill="#e5646e" d="m421.03 477.813-10.88 20.51c-2.07 3.89-7.49 4.28-10.1.73l-71.54-97.69 18.3-13.4 65.24 89.09c2.22 3.03 6.49 3.19 8.98.76z"/><path data-cppathid="10003" fill="#ff8086" d="m183.494 401.367-103.286-75.652-56.889 93.557c-2.603 3.554-.593 8.608 3.741 9.402l9.877 8.625 28.941 5.305c4.49.823 8.357 3.655 10.496 7.688l26.453 40.129c2.065 3.892 7.489 4.285 10.093.73l8.945-5.642z"/><path data-cppathid="10004" fill="#e5646e" d="m121.87 485.513-9.92 13.54c-2.61 3.55-8.03 3.16-10.1-.73l-25.48-48.03c-1.54-2.89-3.96-5.17-6.87-6.52l26.38 4.83c4.49.82 8.35 3.66 10.49 7.69z"/><path data-cppathid="10005" fill="#e5646e" d="m40.14 437.883-27.74-5.08c-4.33-.8-6.34-5.85-3.74-9.4l71.55-97.69 22.39 16.4-63.94 87.29c-2.09 2.85-1.2 6.68 1.48 8.48z"/><path data-cppathid="10006" fill="#ff8086" d="m380.231 393.34c-14.768.638-27.991 9.341-34.419 22.652-9.341 19.344-32.254 27.908-51.993 19.432-13.583-5.832-29.272-3.729-40.838 5.475-16.809 13.376-41.169 11.15-55.275-5.051-9.707-11.148-24.755-16.06-39.17-12.786-20.948 4.758-38.93.183-44.61-20.534-3.909-14.256-15.335-26.211-29.743-29.515l9.787-5.678c-16.757-3.843-35.233-28.527-32.515-43.365l-2.371-.352c2.664-14.54-2.878-29.367-14.425-38.596l2.371.352c-16.781-13.411-22.516-31.638-9.86-48.996l.34-1.017c8.709-11.944 9.809-26.691 3.409-40.016l.34-1.017c-9.3-19.364-3.96-39.292 14.974-49.44l-1.746-.34c13.029-6.983 21.166-20.56 21.182-35.342l1.746.34c.023-21.482 9.101-36.581 30.563-37.509 3.134-.135 8.655-5.84 11.6-6.669 10.931-3.076 20.212-10.703 25.276-21.189 9.341-19.344 32.254-27.908 51.993-19.432 13.583 5.832 29.272 3.729 40.838-5.475 16.809-13.376 41.169-11.15 55.275 5.051 9.707 11.148 24.755 16.06 39.17 12.786 20.948-4.758 41.93 7.817 47.61 28.534 3.909 14.256 15.335 25.21 29.743 28.515 20.938 4.802 34.386 25.235 30.515 46.365-2.664 14.54 2.878 29.367 14.425 38.596 16.781 13.411 20.031 37.656 7.376 55.013-8.709 11.944-10.149 27.708-3.75 41.033 9.3 19.364 1.709 42.618-17.224 52.765-13.029 6.983-21.166 20.56-21.182 35.342-.003 2.685-1.27-4.689-1.777-2.149-3.548 17.785-18.856 31.406-37.635 32.217z"/><path data-cppathid="10007" fill="#e5646e" d="m420.33 355.953c-.45 2.39-.69 4.84-.69 7.32-.01 10.74-4.25 20.52-11.16 27.74-6.92 7.22-16.52 11.86-27.25 12.33-14.77.64-27.99 9.34-34.42 22.65-6.9 14.29-21.21 22.7-36.17 22.7-5.29 0-10.66-1.05-15.82-3.27-5.09-2.19-10.48-3.26-15.83-3.26-8.93 0-17.78 2.98-25.01 8.74-7.38 5.87-16.2 8.73-24.98 8.73-11.23 0-22.38-4.69-30.29-13.78-7.72-8.87-18.82-13.79-30.28-13.79-2.96 0-5.94.33-8.89 1-2.99.68-5.98 1.01-8.92 1.01-17.7 0-33.82-11.78-38.69-29.54-1.95-7.13-5.79-13.44-10.94-18.37s-11.61-8.5-18.81-10.15c-18.51-4.25-31.17-20.72-31.17-39.09 0-2.4.21-4.83.66-7.27.44-2.41.66-4.83.66-7.23 0-12.08-5.46-23.67-15.09-31.37-9.89-7.91-15.08-19.58-15.08-31.38 0-8.22 2.51-16.51 7.71-23.63 5.1-7 7.71-15.3 7.71-23.66 0-5.91-1.31-11.86-3.96-17.38-2.69-5.6-3.97-11.52-3.97-17.35 0-14.36 7.73-28.2 21.19-35.41 6.52-3.49 11.81-8.63 15.47-14.75 3.67-6.12 5.71-13.2 5.71-20.6.02-10.74 4.25-20.52 11.17-27.74 6.92-7.21 16.51-11.86 27.25-12.32 4.06-.18 8.01-.96 11.72-2.29-23.04 33.12-36.84 73.14-37.67 116.33-5.72 17.03-8.82 35.26-8.82 54.21 0 93.98 76.18 170.17 170.16 170.17 18.96 0 37.2-3.1 54.24-8.83 44.91-.88 86.39-15.77 120.26-40.47z"/><path data-cppathid="10008" fill="#f7e365" d="m415.998 235.086c0 77.36-51.613 142.696-122.299 163.34-15.203 4.44-29.508-.7-45.701-.66-93.979.232-164.36-65.159-164.36-159.139 0-14.808-6.079-32.716-2.524-46.412 19.004-73.226 85.547-127.295 164.719-127.295 93.98.001 170.165 76.186 170.165 170.166z"/><path data-cppathid="10009" fill="#f4d242" d="m300.07 396.423c-17.04 5.73-35.28 8.83-54.24 8.83-93.98 0-170.16-76.19-170.16-170.17 0-18.95 3.1-37.18 8.82-54.21-.04 1.4-.05 2.8-.05 4.21 0 116.75 94.65 211.39 211.39 211.39 1.42 0 2.83-.01 4.24-.05z"/><path data-cppathid="10010" fill="#f2d1a5" d="m262.944 158.167 4.11-22.028c2.091-11.21-2.161-22.44-10.642-29.454-1.813-1.5-4.699-.975-6.878-2.048-5.107-2.514-7.625 1.275-9.447 6.688l-20.617 62.196c-5.646 16.78-11.24 35.965-26.919 44.061v78.82c0 12.911 2.567 31.452 32.504 31.452l73.552.028 32.828-10.533v-111.865l-31.384-12.963h-8.996c-18.225 0-31.469-16.353-28.111-34.354z"/><path data-cppathid="10011" fill="#f2bb88" d="m200.654 293.972v-68.822c0-4.85 2.16-9.458 5.923-12.518 12.351-10.046 21.711-28.463 26.518-42.748l19.641-58.368c.695-2.064 2.02-3.711 3.675-4.825-1.814-1.501-3.817-2.812-5.998-3.886-5.107-2.514-11.249.056-13.071 5.47l-19.641 58.368c-5.646 16.78-17.572 34.232-33.251 42.328l-8.102 51.23 8.102 44.303c0 12.911 13.281 23.351 43.218 23.351-.001 0-27.435-4.981-27.014-33.883z"/><path data-cppathid="10012" fill="#f2d1a5" d="m336.538 323.831h-37.931c-8.559 0-10.636-2.887-10.636-11.446 0-8.559 2.077-15.497 10.636-15.497h1.194l19.531-8.102 18.016 8.102c5.589 0 10.12 4.531 10.12 10.12v5.082c0 5.589-5.341 11.741-10.93 11.741z"/><path data-cppathid="10013" fill="#f2bb88" d="m314.811 311.678c-8.32 0-15.089-6.562-15.461-14.79h-.743c-8.559 0-15.497 6.938-15.497 15.497 0 8.559 6.938 15.497 15.497 15.497h38.741c5.589 0 10.12-4.531 10.12-10.12v-6.084z"/><path data-cppathid="10014" fill="#f2d1a5" d="m337.944 292.027-37.439.81c-9.607.81-11.723-12.379-11.723-13.344h-.81c0-9.607 2.927-17.395 12.533-17.395l18.224-8.102 24.886 8.102c6.987 0 12.651 5.664 12.651 12.651v6.247c0 6.987-11.336 11.841-18.322 11.031z"/><path data-cppathid="10015" fill="#f2bb88" d="m316.709 280.684c-9.607 0-17.395-7.788-17.395-17.395 0-.383.033-.757.057-1.133-9.076.586-16.261 8.113-16.261 17.337 0 9.607 7.788 17.395 17.395 17.395h43.111c6.987 0 12.651-5.664 12.651-12.651v-3.553z"/><path data-cppathid="10016" fill="#f2d1a5" d="m348.217 257.238-47.94.81c-9.607 0-12.533-3.737-12.533-13.344 0-9.607 2.927-17.395 12.533-17.395l23.657-8.102 20.548 8.102h10.216c6.987 0 12.651 5.664 12.651 12.651v6.247c.001 6.987-12.145 11.031-19.132 11.031z"/><path data-cppathid="10017" fill="#f2bb88" d="m316.482 245.895c-9.607 0-17.395-7.788-17.395-17.394 0-.383.033-.757.057-1.133-9.076.586-16.261 8.113-16.261 17.337 0 9.607 7.788 17.394 17.395 17.394h54.421c6.987 0 12.651-5.664 12.651-12.65v-3.554z"/><path data-cppathid="10018" fill="#f2d1a5" d="m336.323 223.259h-35.819c-9.607 0-11.723-13.344-11.723-13.344 0-9.607 2.116-17.395 11.723-17.395h43.111c6.987 0 12.651 5.664 12.651 12.651v6.247c0 6.987-12.956 11.841-19.943 11.841z"/><path data-cppathid="10019" fill="#f2bb88" d="m316.709 211.106c-9.607 0-17.395-7.788-17.395-17.395 0-.383.033-.757.057-1.133-9.076.586-16.261 8.113-16.261 17.337 0 9.607 7.788 17.395 17.395 17.395h43.111c6.987 0 12.651-5.664 12.651-12.651v-3.554h-39.558z"/><path data-cppathid="10020" fill="#f7f9fa" d="m166.691 322.874h-9.993c-6.712 0-7.352-11.078-7.352-17.79l-.414-95.169c0-6.712 1.054-17.395 7.766-17.395h15.599c6.712 0 12.153 5.441 12.153 12.153v111.055c0 6.713-11.048 7.146-17.759 7.146z"/><path data-cppathid="10021" fill="#e9edf1" d="m164.799 311.678c-2.237 0-4.051-1.814-4.051-4.051v-115.106h-4.051c-6.712 0-12.153 5.441-12.153 12.153v111.055c0 6.712 5.441 12.153 12.153 12.153h15.599c6.712 0 12.153-5.441 12.153-12.153v-4.051z"/></g><g><path data-cppathid="10022" d="m509.387 418.964-19.917-27.191c-2.447-3.342-7.141-4.065-10.482-1.619-3.342 2.448-4.066 7.141-1.619 10.482l18.476 25.224-51.079 9.363c-6.788 1.244-12.535 5.455-15.769 11.551l-24.336 45.874-49.065-66.987c5.703-8.787 15.315-14.37 25.956-14.83 25.536-1.104 45.561-21.991 45.588-47.552.008-7.773 2.775-15.108 7.582-20.868l21.966 29.989c1.469 2.006 3.747 3.069 6.057 3.069 1.538 0 3.09-.472 4.426-1.45 3.342-2.448 4.066-7.141 1.619-10.482l-22.18-30.282c20.868-12.655 28.888-39.079 18.198-61.336-5.212-10.853-4.044-23.638 3.049-33.367 15.059-20.653 11.214-49.332-8.753-65.289-9.405-7.517-13.9-19.544-11.73-31.386 4.606-25.141-11.302-49.312-36.215-55.026-11.735-2.691-21.003-11.576-24.186-23.187-6.758-24.651-31.58-39.525-56.503-33.864-11.74 2.665-23.945-1.317-31.852-10.397-16.784-19.277-45.6-21.911-65.601-5.995-9.421 7.497-22.146 9.203-33.209 4.452-23.486-10.087-50.591.046-61.705 23.063-5.235 10.842-15.96 17.9-27.988 18.42-25.537 1.104-45.561 21.991-45.588 47.551-.013 12.04-6.613 23.052-17.224 28.74-22.529 12.074-31.508 39.58-20.442 62.621 5.212 10.853 4.044 23.638-3.049 33.367-15.059 20.654-11.214 49.333 8.753 65.29 9.405 7.517 13.9 19.543 11.73 31.385-1.855 10.124-.379 20.088 3.667 28.755l-11.592 15.824c-2.448 3.342-1.723 8.034 1.619 10.482 2.155 1.631 7.048 2.406 10.482-1.619l8.51-11.618c6.191 6.364 14.231 11.068 23.528 13.201 11.735 2.691 21.003 11.576 24.187 23.188 5.275 19.239 21.55 32.522 40.293 34.736l-37.65 51.403-24.336-45.874c-3.234-6.097-8.982-10.306-15.77-11.551l-51.078-9.363 11.635-15.885c2.447-3.342 1.723-8.034-1.619-10.482-3.341-2.447-8.034-1.722-10.482 1.619l-13.076 17.851c-2.758 3.767-3.374 8.604-1.648 12.941s5.497 7.429 10.088 8.269l53.476 9.803c2.249.412 4.152 1.807 5.224 3.826l25.479 48.03c2.187 4.123 6.273 6.785 10.929 7.122.333.024.663.036.992.036 4.286-.001 8.286-2.016 10.848-5.513l46.639-63.678c10.637-1.25 21.274 2.777 28.41 10.97 9.417 10.816 22.623 16.392 35.934 16.392 10.412 0 20.889-3.412 29.668-10.397 9.419-7.496 22.143-9.203 33.208-4.452 19.7 8.46 41.942 2.689 55.162-12.974l46.979 64.139c2.561 3.497 6.561 5.513 10.848 5.513.329 0 .661-.013.992-.036 4.656-.337 8.741-3 10.929-7.123l25.479-48.029c1.071-2.02 2.974-3.414 5.222-3.826l53.476-9.803c4.591-.841 8.363-3.932 10.088-8.268 1.727-4.338 1.111-9.175-1.648-12.942zm-211.61 19.566c-16.147-6.934-34.718-4.442-48.467 6.498-13.704 10.904-33.447 9.1-44.949-4.107-9.169-10.53-22.298-16.364-35.902-16.364-3.517 0-7.064.39-10.584 1.189-17.078 3.877-34.084-6.313-38.715-23.203-4.646-16.946-18.172-29.914-35.299-33.842-8.091-1.742-16.636-7.907-20.884-15.302-3.821-6.519-5.397-14.387-3.929-22.401 3.167-17.283-3.393-34.835-17.119-45.805-13.681-10.934-16.316-30.585-5.997-44.736 10.352-14.199 12.057-32.859 4.45-48.698-7.582-15.787-1.43-34.633 14.006-42.908 15.488-8.3 25.12-24.372 25.139-41.944.018-17.513 13.739-31.825 31.236-32.581 17.555-.76 33.207-11.06 40.848-26.884 7.615-15.771 26.185-22.714 42.279-15.802 16.146 6.935 34.717 4.443 48.467-6.498 13.705-10.902 33.448-9.099 44.949 4.107 11.538 13.253 29.349 19.066 46.486 15.175 17.079-3.876 34.084 6.314 38.715 23.204 4.646 16.945 18.172 29.913 35.299 33.841 17.07 3.915 27.969 20.476 24.813 37.703-3.166 17.284 3.394 34.835 17.12 45.806 13.681 10.934 16.315 30.584 5.997 44.735-10.352 14.199-12.057 32.859-4.45 48.698 7.582 15.787 1.43 34.634-14.006 42.908-14.421 7.399-25.377 24.698-25.139 41.944-.019 17.513-13.739 31.826-31.236 32.582-17.554.758-33.207 11.059-40.848 26.882-7.615 15.771-26.186 22.714-42.28 15.803z"/><path data-cppathid="10023" d="m423.496 235.086c0-3.271-.09-6.577-.268-9.824-.226-4.136-3.759-7.295-7.898-7.08-4.136.227-7.306 3.763-7.079 7.898.163 2.976.245 6.006.245 9.006 0 89.692-72.97 162.663-162.663 162.663s-162.662-72.971-162.662-162.663 72.97-162.663 162.663-162.663c73.471 0 138.077 49.493 157.109 120.358 1.074 4 5.19 6.369 9.188 5.298 4-1.074 6.372-5.188 5.298-9.188-20.789-77.406-91.352-131.467-171.596-131.467-97.963 0-177.662 79.699-177.662 177.662s79.699 177.662 177.662 177.662 177.663-79.699 177.663-177.662z"/><path data-cppathid="10024" d="m374.848 249.448v-9.487c0-8.166-4.891-15.197-11.889-18.36.52-1.71.805-3.522.805-5.4v-12.571c0-10.262-8.348-18.609-18.608-18.609-5.658 0-50.326 0-54.101 0-6.429 0-12.188-2.671-16.217-7.52-4.085-4.917-5.733-11.463-4.521-17.957l4.11-22.028c3.144-16.85-5.369-33.89-20.702-41.439-4.368-2.149-9.451-2.31-13.944-.439-4.507 1.876-7.987 5.61-9.547 10.247l-10.357 30.779c-1.321 3.926.791 8.179 4.716 9.5 3.927 1.32 8.18-.79 9.5-4.717l10.357-30.778c.235-.699.725-1.029 1.094-1.183.359-.149.921-.264 1.556.049 9.323 4.59 14.496 14.965 12.581 25.229l-4.11 22.028c-2.033 10.893.785 21.934 7.728 30.293 3.966 4.775 9.045 8.356 14.721 10.529-1.539 3.066-2.411 6.523-2.411 10.181v4.241c0 6.128 2.437 11.694 6.388 15.791-4.102 4.44-6.615 10.369-6.615 16.876 0 6.823 2.761 13.012 7.222 17.513-4.326 4.48-6.995 10.57-6.995 17.275 0 6.481 2.492 12.39 6.565 16.824-4.057 4.149-6.565 9.819-6.565 16.067 0 2.811.509 5.505 1.436 7.997h-49.379c-22.031 0-35.717-6.084-35.717-15.877v-91.212c12.495-7.847 23.397-21.282 30.326-37.594 1.619-3.812-.159-8.217-3.971-9.836-3.812-1.618-8.216.158-9.835 3.971-4.491 10.574-11.08 19.815-18.509 26.281-3.19-6.553-9.897-11.092-17.662-11.092h-15.599c-10.836 0-19.653 8.816-19.653 19.653v111.053c0 10.837 8.816 19.653 19.653 19.653h15.599c6.987 0 13.118-3.676 16.604-9.185 7.439 5.199 19.441 9.185 38.766 9.185h109.679c9.716 0 17.62-7.904 17.62-17.62v-10.753c0-1.947-.33-3.815-.916-5.568 5.811-3.539 9.713-9.916 9.713-17.204v-9.487c0-2.373-.434-4.641-1.19-6.757 7.207-3.07 12.274-10.224 12.274-18.542zm-197.897 66.279c0 2.565-2.087 4.653-4.653 4.653h-15.599c-2.565 0-4.653-2.088-4.653-4.653v-111.053c0-2.565 2.087-4.653 4.653-4.653h15.599c2.565 0 4.653 2.088 4.653 4.653zm123.326-61.129c-5.456 0-9.894-4.438-9.894-9.894s4.438-9.894 9.894-9.894c6.829 0 49.329-.001 54.421 0 2.84 0 5.15 2.311 5.15 5.151v9.487c0 2.84-2.311 5.15-5.15 5.15zm48.487 20.151v9.487c0 2.84-2.311 5.15-5.15 5.15h-43.11c-5.456 0-9.894-4.438-9.894-9.894s4.438-9.894 9.894-9.894h43.11c2.839 0 5.15 2.311 5.15 5.151zm-3.608-74.728c1.99 0 3.608 1.619 3.608 3.609v12.571c0 1.989-1.619 3.608-3.608 3.608h-46.772c-4.287 0-7.774-3.487-7.774-7.773v-4.241c0-4.287 3.487-7.774 7.774-7.774zm-5.189 117.739c0 1.444-1.175 2.62-2.62 2.62h-38.741c-4.409 0-7.996-3.588-7.996-7.997s3.587-7.997 7.996-7.997c1.551-.008 36.717.005 38.741 0 1.445 0 2.62 1.176 2.62 2.621z"/></g></g></svg>