<?xml version="1.0" encoding="UTF-8"?>
<svg xmlns="http://www.w3.org/2000/svg" onmouseup="{ if(window.parent.document.onmouseup) window.parent.document.onmouseup(arguments[0]);}" width="512" viewBox="0 0 512 512" height="512" enable-background="new 0 0 512 512" id="Capa_1"><g><g><path data-cppathid="10000" fill="#fa0" d="m504.418 209.516-.16 264.931c-.01 16.554-13.431 29.97-29.981 29.97h-436.716c-16.559 0-29.99-13.435-29.981-30.01l.16-264.891z"/><path data-cppathid="10001" fill="#e10042" d="m504.418 209.516-248.339 219.086-101.294-89.36-142.708-125.898-4.337-3.828 4.337-3.319 11.283-8.627 232.889-178.13z"/><path data-cppathid="10002" fill="#bc003f" d="m256.247 19.443-15.001 11.473 205.389 157.308c14.206 10.88 14.571 32.162.747 43.524l-206.296 169.543 14.99 12.32 248.339-204.095z"/><path data-cppathid="10003" fill="#94a129" d="m337.305 7.584h-162.612c-16.558 0-29.981 13.427-29.981 29.99v278.151l222.572 3.54v-281.692c.001-16.563-13.422-29.989-29.979-29.989z"/><path data-cppathid="10004" fill="#bc003f" d="m144.711 297.196 10.073 42.046s-78.47-65.224-78.559-67.553l-68.485-62.173 15.62-11.946z"/><path data-cppathid="10005" fill="#bfb80f" d="m144.713 424.229v-356.666c33.116 0 59.961-26.854 59.961-59.98h102.65c0 33.126 26.845 59.98 59.961 59.98v356.666z"/><g><ellipse data-cppathid="10006" ry="75.713" rx="75.689" fill="#efebbf" cy="212.053" cx="255.999"/><path data-cppathid="10007" fill="#94a129" d="m279.446 191.225h-6.162c-.89-3.826-2.443-7.399-4.535-10.591h10.696c4.14 0 7.495-3.357 7.495-7.497s-3.355-7.497-7.495-7.497h-46.893c-4.14 0-7.495 3.357-7.495 7.497s3.355 7.497 7.495 7.497h8.527c7.295 0 13.58 4.353 16.435 10.591h-24.962c-4.14 0-7.495 3.357-7.495 7.497s3.355 7.497 7.495 7.497h24.962c-2.856 6.238-9.14 10.591-16.435 10.591h-8.527c-3 0-5.711 1.79-6.891 4.549s-.601 5.956 1.471 8.127l34.104 35.717c1.473 1.542 3.445 2.319 5.421 2.319 1.86 0 3.724-.689 5.176-2.076 2.993-2.86 3.102-7.606.243-10.6l-22.947-24.032c11.964-3.004 21.357-12.549 24.159-24.595h6.158c4.14 0 7.495-3.357 7.495-7.497s-3.355-7.497-7.495-7.497z"/></g><path data-cppathid="10008" fill="#94a129" d="m367.287 297.486v126.747h-222.576v-127.037l92.41 76.514c11.093 9.187 27.153 9.177 38.245-.02z"/><path data-cppathid="10009" fill="#fa0" d="m504.422 209.517v.116l-.165 264.81c0 8.213-3.309 15.65-8.676 21.067-5.425 5.495-12.966 8.902-21.302 8.902h-436.722c-8.249 0-15.723-3.34-21.148-8.737-5.454-5.437-8.841-12.96-8.831-21.271l.165-264.878v-.01l160.6 132.974 68.78 56.938c11.093 9.194 27.155 9.184 38.239-.019l68.547-56.822 53.475-44.337 107.028-88.723v-.01z"/><g fill="#e98701"><path data-cppathid="10010" d="m168.343 342.49-151.934 153.186c-5.454-5.437-8.841-12.96-8.831-21.271l.165-264.878z"/><path data-cppathid="10011" d="m504.422 209.634-.165 264.81c0 8.213-3.309 15.65-8.676 21.067l-151.672-152.924 53.475-44.337 107.028-88.733v.01z"/></g></g><path data-cppathid="10012" d="m266.662 267.527c1.861 0 3.725-.689 5.178-2.077 2.994-2.861 3.103-7.608.243-10.604l-22.955-24.041c11.968-3.005 21.364-12.553 24.167-24.603h6.16c4.141 0 7.498-3.358 7.498-7.5s-3.356-7.5-7.498-7.5h-6.164c-.89-3.828-2.444-7.401-4.536-10.594h10.7c4.141 0 7.498-3.358 7.498-7.5s-3.356-7.5-7.498-7.5h-46.909c-4.141 0-7.498 3.358-7.498 7.5s3.356 7.5 7.498 7.5h8.53c7.298 0 13.584 4.354 16.441 10.594h-24.97c-4.141 0-7.498 3.358-7.498 7.5s3.356 7.5 7.498 7.5h24.97c-2.857 6.24-9.143 10.595-16.441 10.595h-8.53c-3.001 0-5.713 1.791-6.893 4.551s-.601 5.958 1.471 8.129l34.115 35.729c1.473 1.544 3.446 2.321 5.423 2.321zm72.55-55.489c0-45.898-37.329-83.238-83.212-83.238s-83.212 37.34-83.212 83.238c0 45.897 37.329 83.238 83.212 83.238s83.212-37.34 83.212-83.238zm-151.429 0c0-37.627 30.602-68.238 68.217-68.238s68.217 30.611 68.217 68.238c0 37.626-30.602 68.238-68.217 68.238s-68.217-30.611-68.217-68.238zm324.208-2.708c-.048-2.266-1.15-4.394-2.934-5.785l-134.236-102.812v-63.233c0-20.678-16.817-37.5-37.488-37.5h-162.666c-20.671 0-37.488 16.822-37.488 37.5v63.492l-134.078 102.55c-1.85 1.411-2.958 3.682-2.94 6.008l-.161 264.926c-.006 10.022 3.891 19.445 10.974 26.534 7.082 7.087 16.498 10.99 26.514 10.99h436.863c10.22 0 19.496-4.119 26.266-10.779.112-.099.226-.193.333-.299.188-.187.365-.383.529-.584 6.406-6.727 10.354-15.816 10.36-25.814l.16-265.02c.001-.059-.006-.116-.008-.174zm-174.658-194.33c12.402 0 22.493 10.093 22.493 22.5v21.956c-22.949-3.299-41.144-21.5-44.442-44.456zm-185.159 22.5c0-12.407 10.091-22.5 22.493-22.5h21.949c-3.298 22.956-21.493 41.157-44.442 44.456zm0 37.073c31.228-3.47 56.085-28.336 59.555-59.573h88.543c3.469 31.237 28.327 56.103 59.555 59.573v214.712c0 4.142 3.356 7.5 7.498 7.5s7.498-3.358 7.498-7.5v-169.66l117.648 90.107-221.883 183.958c-8.312 6.892-20.381 6.894-28.695.01l-89.709-74.193c0-1.213-.01-244.934-.01-244.934zm-14.995 45.302v187.128l-117.484-97.27zm337.173 377.125h-436.864c-3.4 0-6.674-.774-9.656-2.196l64.844-65.381c2.916-2.94 2.898-7.689-.042-10.606s-7.687-2.9-10.603.042l-64.817 65.353c-1.439-3.001-2.222-6.3-2.22-9.727l.15-249.046 142.066 117.62-49.131 49.537c-2.916 2.94-2.898 7.689.042 10.606 1.462 1.451 3.371 2.176 5.281 2.176 1.928 0 3.857-.74 5.323-2.218l50.084-50.499 63.523 52.593c6.928 5.735 15.415 8.602 23.904 8.602 8.496 0 16.993-2.873 23.922-8.618l63.291-52.473 140.779 141.943c-2.984 1.466-6.335 2.292-9.876 2.292zm22.493-22.484c-.002 3.389-.762 6.604-2.112 9.489l-139.694-140.849 141.956-117.693z"/></g></svg>