<?xml version="1.0" encoding="UTF-8"?>
<svg xmlns="http://www.w3.org/2000/svg" onmouseup="{ if(window.parent.document.onmouseup) window.parent.document.onmouseup(arguments[0]);}" width="512" viewBox="0 0 512 512" height="512" enable-background="new 0 0 512 512" id="Capa_1"><g><g fill="#dff6fd"><path data-cppathid="10000" d="m106.309 303.051c-18.892 0-34.262 15.369-34.262 34.261v40.161h68.521v-40.161c0-18.892-15.369-34.261-34.259-34.261z"/><path data-cppathid="10001" d="m391.21 270.854c-3.212 1.965-7.262 1.965-10.474 0-61.172-37.434-101.842-76.54-101.842-153.079v-30.31h-208.241c-2.761 0-5 2.239-5 5v197.752c10.917-9.438 25.126-15.166 40.655-15.166 34.33 0 62.26 27.93 62.26 62.261v40.161h15.1c4.963 0 9 4.038 9 9v79.01h207.232c2.761 0 5-2.239 5-5v-198.279c-4.438 2.904-9.003 5.782-13.69 8.65z"/></g><g fill="#c8effe"><path data-cppathid="10002" d="m73.047 337.311v39.161h34.706v-72.385c-.48-.021-.961-.037-1.445-.037-18.34.001-33.261 14.922-33.261 33.261z"/><path data-cppathid="10003" d="m106.308 274.051c.485 0 .963.026 1.445.037v-181.623c0-2.761 2.239-5 5-5h-42.1c-2.761 0-5 2.239-5 5v196.391c10.996-9.235 25.172-14.805 40.655-14.805z"/></g><g><g><path data-cppathid="10004" fill="#fac600" d="m284.423 57.063c-3.389 1.694-5.529 5.157-5.529 8.945v51.767c0 76.539 40.669 115.646 101.842 153.079 3.212 1.965 7.263 1.965 10.474 0 61.172-37.434 101.842-76.54 101.842-153.079v-51.767c0-3.788-2.141-7.251-5.529-8.945l-97.08-48.518c-2.814-1.407-6.127-1.407-8.941 0z"/></g><g><path data-cppathid="10005" fill="#e8b800" d="m314.842 101.275v-59.415l-30.419 15.203c-3.389 1.694-5.53 5.157-5.53 8.945v51.767c0 76.539 40.669 115.646 101.842 153.079 3.212 1.965 7.262 1.965 10.474 0 8.909-5.452 17.379-10.94 25.355-16.573-61.105-37.411-101.722-76.517-101.722-153.006z"/></g><g><g><circle data-cppathid="10006" r="68.397" fill="#4fc123" cy="128.026" cx="385.523"/></g><g><path data-cppathid="10007" fill="#47a920" d="m346.131 128.026c0-32.796 23.088-60.188 53.894-66.841-4.676-1.01-9.525-1.555-14.503-1.555-37.774 0-68.397 30.622-68.397 68.397s30.622 68.397 68.397 68.397c4.978 0 9.827-.545 14.503-1.555-30.805-6.655-53.894-34.046-53.894-66.843z"/></g></g></g><g><path data-cppathid="10008" fill="#3675bb" d="m73.047 376.473v-39.161c0-18.34 14.921-33.261 33.261-33.261s33.261 14.921 33.261 33.261v39.161h30v-39.161c0-34.938-28.323-63.26-63.26-63.26s-63.26 28.323-63.26 63.26v39.161z"/><path data-cppathid="10009" fill="#2b68b6" d="m60 376.473v-39.161c0-32.062 23.857-58.534 54.784-62.679-2.774-.372-5.6-.582-8.476-.582-34.938 0-63.26 28.323-63.26 63.26v39.161h16.952z"/><g><path data-cppathid="10010" fill="#fac600" d="m183.668 504.5h-154.72c-5.523 0-10-4.477-10-10v-108.027c0-5.523 4.477-10 10-10h154.72c5.523 0 10 4.477 10 10v108.027c0 5.523-4.477 10-10 10z"/></g><g><path data-cppathid="10011" fill="#e8b800" d="m61 494.5v-108.027c0-5.523 4.477-10 10-10h-42.052c-5.523 0-10 4.477-10 10v108.027c0 5.523 4.477 10 10 10h42.052c-5.523 0-10-4.477-10-10z"/></g></g><g><path data-cppathid="10012" d="m148.042 236.722h42.958c4.143 0 7.5-3.358 7.5-7.5s-3.357-7.5-7.5-7.5h-42.958c-4.143 0-7.5 3.358-7.5 7.5s3.357 7.5 7.5 7.5z"/><path data-cppathid="10013" d="m148.042 273.07h174.47c4.143 0 7.5-3.358 7.5-7.5s-3.357-7.5-7.5-7.5h-174.47c-4.143 0-7.5 3.358-7.5 7.5s3.357 7.5 7.5 7.5z"/><path data-cppathid="10014" d="m322.512 294.417h-46.512c-4.143 0-7.5 3.358-7.5 7.5s3.357 7.5 7.5 7.5h46.512c4.143 0 7.5-3.358 7.5-7.5s-3.358-7.5-7.5-7.5z"/><path data-cppathid="10015" d="m490.875 50.354-97.078-48.517c-4.899-2.449-10.748-2.449-15.647 0l-97.08 48.517c-.001 0-.001 0-.001 0-5.968 2.983-9.676 8.981-9.676 15.654v13.957h-105.393c-4.143 0-7.5 3.358-7.5 7.5s3.357 7.5 7.5 7.5h105.394v22.809c0 10.94.82 21.34 2.461 31.252h-125.813c-4.143 0-7.5 3.358-7.5 7.5s3.357 7.5 7.5 7.5h129.023c1.966 7.4 4.452 14.507 7.455 21.348h-136.478c-4.143 0-7.5 3.358-7.5 7.5s3.357 7.5 7.5 7.5h144.146c2.634 4.477 5.519 8.832 8.663 13.072 2.07 2.792 4.258 5.547 6.573 8.276h-86.424c-4.143 0-7.5 3.358-7.5 7.5s3.357 7.5 7.5 7.5h100.732c14.14 13.307 32.012 26.408 55.089 40.53 2.822 1.727 5.986 2.59 9.151 2.59s6.329-.863 9.152-2.59c.767-.469 1.519-.936 2.274-1.402v182.134h-196.23v-13.984c0-4.142-3.357-7.5-7.5-7.5s-7.5 3.358-7.5 7.5v50.5c0 1.378-1.121 2.5-2.5 2.5h-154.72c-1.379 0-2.5-1.122-2.5-2.5v-108.027c0-1.378 1.121-2.5 2.5-2.5h154.72c1.379 0 2.5 1.122 2.5 2.5v22.527c0 4.142 3.357 7.5 7.5 7.5s7.5-3.358 7.5-7.5v-22.527c0-1.507-.212-2.963-.572-4.359h121.916c4.143 0 7.5-3.358 7.5-7.5s-3.357-7.5-7.5-7.5h-145.444v-21.348h145.443c4.143 0 7.5-3.358 7.5-7.5s-3.357-7.5-7.5-7.5h-145.757c-.693-7.515-2.56-14.693-5.426-21.348h77.672c4.143 0 7.5-3.358 7.5-7.5s-3.357-7.5-7.5-7.5h-86.467c-12.941-16.923-33.325-27.867-56.225-27.867-11.975 0-23.258 3-33.155 8.273v-179.859h57.847c4.143 0 7.5-3.358 7.5-7.5s-3.357-7.5-7.5-7.5h-60.347c-6.893 0-12.5 5.607-12.5 12.5v193.064c-13.893 12.928-22.605 31.353-22.605 51.782v31.661h-6.6c-9.649 0-17.5 7.851-17.5 17.5v108.028c0 9.649 7.851 17.5 17.5 17.5h154.72c9.649 0 17.5-7.851 17.5-17.5v-21.517h198.731c6.893 0 12.5-5.607 12.5-12.5v-194.268c26.696-17.865 45.179-34.541 58.695-52.769 19.821-26.73 29.457-58.025 29.457-95.671v-51.767c.001-6.672-3.707-12.67-9.676-15.654zm-358.806 318.619h-51.521v-31.661c0-14.205 11.557-25.761 25.761-25.761s25.761 11.556 25.761 25.761v31.661zm-81.521-31.661c0-30.747 25.015-55.761 55.761-55.761s55.76 25.014 55.76 55.761v31.661h-14.999v-31.661c0-22.476-18.285-40.761-40.761-40.761s-40.761 18.285-40.761 40.761v31.661h-15zm435.004-219.537c0 72.076-37.596 109.562-98.256 146.682-.806.493-1.844.492-2.646 0-60.661-37.121-98.257-74.606-98.257-146.682v-51.767c0-.954.53-1.811 1.383-2.237l97.079-48.518c.699-.35 1.534-.35 2.235 0l97.078 48.517c.853.426 1.383 1.283 1.383 2.237v51.768z"/><path data-cppathid="10016" d="m385.522 52.13c-41.85 0-75.896 34.047-75.896 75.896s34.047 75.896 75.896 75.896c32.017 0 60.75-20.26 71.498-50.415 1.391-3.901-.645-8.192-4.546-9.583s-8.192.645-9.583 4.546c-8.625 24.195-31.68 40.451-57.369 40.451-33.578 0-60.896-27.318-60.896-60.896s27.318-60.896 60.896-60.896c29.564 0 54.771 21.101 59.935 50.172.725 4.078 4.62 6.801 8.696 6.073 4.078-.724 6.797-4.618 6.073-8.696-6.438-36.243-37.855-62.548-74.704-62.548z"/><path data-cppathid="10017" d="m411.537 107.502-29.551 29.551-17.183-17.184c-2.929-2.929-7.677-2.93-10.607 0-2.929 2.929-2.929 7.678 0 10.606l22.486 22.487c1.407 1.407 3.314 2.197 5.304 2.197s3.896-.79 5.304-2.197l34.854-34.854c2.929-2.929 2.929-7.678 0-10.606s-7.677-2.928-10.607 0z"/></g></g></svg>