<?xml version="1.0" encoding="UTF-8"?>
<svg xmlns="http://www.w3.org/2000/svg" onmouseup="{ if(window.parent.document.onmouseup) window.parent.document.onmouseup(arguments[0]);}" width="512" viewBox="0 0 64 64" height="512" enable-background="new 0 0 64 64" id="Layer_35"><circle data-cppathid="10000" r="7" fill="#f0d0b4" cy="37" cx="14"/><path data-cppathid="10001" fill="#fcd770" d="m7 62h-5v-6c0-3.32 1.34-6.32 3.51-8.49 1.91-1.91 4.45-3.17 7.29-3.45l-.8 11.94 2 2 2-2-.8-11.94c6.06.6 10.8 5.71 10.8 11.94v6h-5z"/><path data-cppathid="10002" fill="#ff826e" d="m15.2 44.06.8 11.94-2 2-2-2 .8-11.94c.4-.04.8-.06 1.2-.06s.8.02 1.2.06z"/><path data-cppathid="10003" fill="#b4dd7f" d="m58 38h4v24h-4z"/><path data-cppathid="10004" fill="#b4dd7f" d="m34 48h4v14h-4z"/><path data-cppathid="10005" fill="#b4dd7f" d="m42 40h4v22h-4z"/><path data-cppathid="10006" fill="#b4dd7f" d="m50 44h4v18h-4z"/><g fill="#fcd770"><path data-cppathid="10007" d="m37.41 40.59c.37.36.59.86.59 1.41 0 1.1-.9 2-2 2s-2-.9-2-2 .9-2 2-2c.55 0 1.05.22 1.41.59z"/><path data-cppathid="10008" d="m44 32c1.1 0 2 .9 2 2 0 .32-.07.62-.21.89-.33.66-1.01 1.11-1.79 1.11-.55 0-1.05-.22-1.41-.59-.37-.36-.59-.86-.59-1.41 0-1.1.9-2 2-2z"/><path data-cppathid="10009" d="m53.6 36.8c.25.34.4.75.4 1.2 0 1.1-.9 2-2 2s-2-.9-2-2c0-.32.07-.62.21-.89.33-.66 1.01-1.11 1.79-1.11.65 0 1.23.32 1.6.8z"/><path data-cppathid="10010" d="m60 30c1.1 0 2 .9 2 2s-.9 2-2 2c-.65 0-1.23-.32-1.6-.8-.25-.34-.4-.75-.4-1.2 0-.94.66-1.74 1.55-1.95.14-.03.29-.05.45-.05z"/><path data-cppathid="10011" d="m50 8c3.31 0 6 2.69 6 6s-2.69 6-6 6-6-2.69-6-6 2.69-6 6-6zm2 6c0-1.1-.9-2-2-2s-2 .9-2 2 .9 2 2 2 2-.9 2-2z"/></g><path data-cppathid="10012" fill="#ffc729" d="m62 11v6l-2.71.68c-.04.1-.07.2-.12.3l1.44 2.38-2.68 2.68-1.57 1.57-2.38-1.44c-.1.05-.2.08-.3.12l-.68 2.71h-6l-.68-2.71c-.1-.04-.2-.07-.3-.12l-2.38 1.44-4.25-4.25 1.44-2.38c-.05-.1-.08-.2-.12-.3l-2.71-.68v-6l2.71-.68c.04-.1.07-.2.12-.3l-1.44-2.38 4.25-4.25 2.38 1.44c.1-.05.2-.08.3-.12l.68-2.71h6l.68 2.71c.1.04.2.07.3.12l2.38-1.44 4.25 4.25-1.44 2.38c.05.1.08.2.12.3zm-6 3c0-3.31-2.69-6-6-6s-6 2.69-6 6 2.69 6 6 6 6-2.69 6-6z"/><path data-cppathid="10013" fill="#e6e9ed" d="m34 16v10h-24c-3.31 0-6-2.69-6-6v-4c0-3.31 2.69-6 6-6h18c3.31 0 6 2.69 6 6z"/><path data-cppathid="10014" d="m18.289 43.742c2.227-1.422 3.711-3.909 3.711-6.742 0-4.411-3.589-8-8-8s-8 3.589-8 8c0 2.833 1.484 5.32 3.711 6.742-5.064 1.778-8.711 6.594-8.711 12.258v7h26v-7c0-5.664-3.647-10.48-8.711-12.258zm-3.317 11.872-.972.972-.972-.972.707-10.6c.089-.003.176-.014.265-.014s.176.011.265.013zm-6.972-18.614c0-3.309 2.691-6 6-6s6 2.691 6 6-2.691 6-6 6-6-2.691-6-6zm17 24h-3v-8h-2v8h-12v-8h-2v8h-3v-5c0-5.282 3.743-9.703 8.715-10.758l-.743 11.144 3.028 3.028 3.028-3.028-.743-11.144c4.972 1.055 8.715 5.476 8.715 10.758z"/><path data-cppathid="10015" d="m50 7c-3.859 0-7 3.14-7 7s3.141 7 7 7 7-3.14 7-7-3.141-7-7-7zm0 12c-2.757 0-5-2.243-5-5s2.243-5 5-5 5 2.243 5 5-2.243 5-5 5z"/><path data-cppathid="10016" d="m63 10.219-2.416-.603 1.281-2.134-5.345-5.348-2.136 1.281-.603-2.415h-7.562l-.603 2.416-2.136-1.282-5.346 5.347 1.281 2.134-2.415.604v7.562l2.415.603-1.28 2.135 5.346 5.347 2.136-1.281.602 2.415h7.562l.603-2.416 2.136 1.281.843-.844 1.028 4.454c-.834.535-1.391 1.464-1.391 2.525 0 .311.061.606.15.888l-3.488 2.616c-.477-.317-1.048-.504-1.662-.504-.807 0-1.537.324-2.077.844l-2.96-1.48c.015-.121.037-.24.037-.364 0-1.654-1.346-3-3-3s-3 1.346-3 3c0 .462.113.894.301 1.285l-4.015 4.015c-.392-.187-.824-.3-1.286-.3-1.654 0-3 1.346-3 3s1.346 3 3 3 3-1.346 3-3c0-.462-.113-.894-.301-1.285l4.015-4.015c.392.187.824.3 1.286.3.807 0 1.537-.324 2.077-.844l2.96 1.48c-.015.121-.037.24-.037.364 0 1.654 1.346 3 3 3s3-1.346 3-3c0-.311-.061-.606-.149-.888l3.489-2.617c.475.318 1.046.505 1.66.505 1.654 0 3-1.346 3-3 0-1.537-1.166-2.793-2.658-2.965l-1.311-5.681 2.834-2.835-1.28-2.135 2.415-.603zm-27 32.781c-.552 0-1-.449-1-1s.448-1 1-1 1 .449 1 1-.448 1-1 1zm8-8c-.552 0-1-.449-1-1s.448-1 1-1 1 .449 1 1-.448 1-1 1zm8 4c-.552 0-1-.449-1-1s.448-1 1-1 1 .449 1 1-.448 1-1 1zm9-7c0 .551-.448 1-1 1s-1-.449-1-1 .448-1 1-1 1 .449 1 1zm0-15.781-1.949.487-.534.202-.465 1.142 1.296 2.16-3.139 3.138-2.159-1.296-1.22.503-.611 2.445h-4.438l-.611-2.446-1.22-.503-2.159 1.296-3.139-3.138 1.296-2.16-.496-1.218-2.452-.612v-4.438l1.949-.487.535-.203.464-1.142-1.296-2.158 3.139-3.138 2.159 1.296 1.22-.503.611-2.446h4.438l.611 2.446 1.22.503 2.159-1.296 3.139 3.138-1.296 2.158.496 1.22 2.452.612z"/><path data-cppathid="10017" d="m33 63h6v-16h-6zm2-14h2v12h-2z"/><path data-cppathid="10018" d="m41 63h6v-24h-6zm2-22h2v20h-2z"/><path data-cppathid="10019" d="m49 63h6v-20h-6zm2-18h2v16h-2z"/><path data-cppathid="10020" d="m57 63h6v-26h-6zm2-24h2v22h-2z"/><path data-cppathid="10021" d="m10 27h25v-11c0-3.86-3.141-7-7-7h-18c-3.859 0-7 3.14-7 7v4c0 3.86 3.141 7 7 7zm-5-11c0-2.757 2.243-5 5-5h18c2.757 0 5 2.243 5 5v9h-23c-2.757 0-5-2.243-5-5z"/><path data-cppathid="10022" d="m7 13h2v2h-2z"/><path data-cppathid="10023" d="m11 13h2v2h-2z"/><path data-cppathid="10024" d="m15 13h16v2h-16z"/><path data-cppathid="10025" d="m7 17h24v2h-24z"/><path data-cppathid="10026" d="m7 21h24v2h-24z"/><path data-cppathid="10027" d="m50 11c-1.654 0-3 1.346-3 3s1.346 3 3 3 3-1.346 3-3-1.346-3-3-3zm0 4c-.552 0-1-.449-1-1s.448-1 1-1 1 .449 1 1-.448 1-1 1z"/></svg>