<?xml version="1.0" encoding="UTF-8"?>
<svg xmlns="http://www.w3.org/2000/svg" onmouseup="{ if(window.parent.document.onmouseup) window.parent.document.onmouseup(arguments[0]);}" width="512" viewBox="0 0 64 64" height="512" enable-background="new 0 0 64 64" id="_x33_0"><g><g><g><path data-cppathid="10000" fill="#e6e9ed" d="m28 3v29c-.55 0-1.05.22-1.41.59-.37.36-.59.86-.59 1.41v-2c0-.55-.22-1.05-.59-1.41-.36-.37-.86-.59-1.41-.59-1.1 0-2 .9-2 2 0-1.1-.9-2-2-2-.55 0-1.05.22-1.41.59-.37.36-.59.86-.59 1.41v-6-2c0-1.1-.9-2-2-2-.55 0-1.05.22-1.41.59-.37.36-.59.86-.59 1.41v2 4 5.7c0 1.27-1.03 2.3-2.3 2.3-.46 0-.9-.13-1.28-.39l-1.19-.79c-.8-.53-1.75-.82-2.71-.82-.7 0-1.32.28-1.78.74-.34.34-.58.77-.69 1.26h-1.05c-.55 0-1-.45-1-1v-34c0-.55.45-1 1-1h24c.55 0 1 .45 1 1z"/></g><g><path data-cppathid="10001" fill="#ff826e" d="m20 17v1h-10v-1c0-2.76 2.24-5 5-5 1.38 0 2.63.56 3.54 1.46.9.91 1.46 2.16 1.46 3.54z"/></g><g><circle data-cppathid="10002" r="3" fill="#f0d0b4" cy="9" cx="15"/></g><g><path data-cppathid="10003" fill="#656d78" d="m57.24 31.02c-.54-.63-1.34-1.02-2.24-1.02h-1v-2c0-1.1-.9-2-2-2h-8c-1.1 0-2-.9-2-2-2.21 0-4 1.79-4 4v2h-1c-.9 0-1.7.39-2.24 1.02l-.01-.01-.05-.22c-.47-1.85-.7-3.76-.7-5.67 0-1.21.41-2.34 1.12-3.25.7-.9 1.7-1.57 2.88-1.87.3-1.18.97-2.18 1.87-2.88.91-.71 2.04-1.12 3.25-1.12h12.88c1.1 0 2 .9 2 2v7.12c0 1.91-.23 3.82-.7 5.67l-.05.22z"/></g><g><path data-cppathid="10004" fill="#fcd770" d="m47 50 3 12h-8l3-12z"/></g><g><path data-cppathid="10005" fill="#ffc729" d="m47.94 47.17-.94 2.83h-2l-.94-2.83 1.94-1.17z"/></g><g><path data-cppathid="10006" fill="#3bafda" d="m51.91 44.45-.91 4.55-3.06-1.83-1.94-1.17 4-2c.65.11 1.29.26 1.91.45z"/></g><g><path data-cppathid="10007" fill="#3bafda" d="m46 46-1.94 1.17-3.06 1.83-.91-4.55c.62-.19 1.26-.34 1.91-.45z"/></g><g><path data-cppathid="10008" fill="#4fc1e9" d="m41 49 3.06-1.83.94 2.83-3 12h-6-6v-3.83c0-6.36 4.17-11.88 10.09-13.72z"/></g><g><path data-cppathid="10009" fill="#4fc1e9" d="m56 62h-6l-3-12 .94-2.83 3.06 1.83.91-4.55c5.92 1.84 10.09 7.36 10.09 13.72v3.83z"/></g><g><path data-cppathid="10010" fill="#4fc1e9" d="m28 50 2 12h-18l2-12z"/></g><g><path data-cppathid="10011" fill="#f0d0b4" d="m26 34c0-.55.22-1.05.59-1.41.36-.37.86-.59 1.41-.59 1.1 0 2 .9 2 2v9.39c0 2.36-.7 4.65-2 6.61h-14c-1.95-1.3-3.47-3.17-4.34-5.35l-.17-.43c-.32-.8-.84-1.5-1.52-2.04l-3.59-2.88c-.24-.19-.38-.48-.38-.78 0-.18.02-.35.05-.52.11-.49.35-.92.69-1.26.46-.46 1.08-.74 1.78-.74.96 0 1.91.29 2.71.82l1.19.79c.38.26.82.39 1.28.39 1.27 0 2.3-1.03 2.3-2.3v-5.7-4-2c0-.55.22-1.05.59-1.41.36-.37.86-.59 1.41-.59 1.1 0 2 .9 2 2v2 6c0-.55.22-1.05.59-1.41.36-.37.86-.59 1.41-.59 1.1 0 2 .9 2 2 0-1.1.9-2 2-2 .55 0 1.05.22 1.41.59.37.36.59.86.59 1.41z"/></g><g><path data-cppathid="10012" fill="#f0d0b4" d="m57.24 31.02c.47.53.76 1.22.76 1.98 0 .83-.34 1.58-.88 2.12s-1.29.88-2.12.88h-1v-6h1c.9 0 1.7.39 2.24 1.02z"/></g><g><path data-cppathid="10013" fill="#f0d0b4" d="m48 42c.44 0 .88-.05 1.29-.14l.71 2.14-4 2-4-2 .71-2.14c.41.09.85.14 1.29.14z"/></g><g><path data-cppathid="10014" fill="#f0d0b4" d="m54 30v6c0 2.87-2.02 5.27-4.71 5.86-.41.09-.85.14-1.29.14h-4c-.44 0-.88-.05-1.29-.14-2.69-.59-4.71-2.99-4.71-5.86v-6-2c0-2.21 1.79-4 4-4 0 1.1.9 2 2 2h8c1.1 0 2 .9 2 2z"/></g><g><path data-cppathid="10015" fill="#f0d0b4" d="m38 30v6h-1c-.83 0-1.58-.34-2.12-.88s-.88-1.29-.88-2.12c0-.76.29-1.45.76-1.98.54-.63 1.34-1.02 2.24-1.02z"/></g></g><g><circle data-cppathid="10016" r="1" cy="30" cx="42"/><circle data-cppathid="10017" r="1" cy="30" cx="50"/><path data-cppathid="10018" d="m51 35h-2c0 1.103-.897 2-2 2h-4v2h4c2.206 0 4-1.794 4-4z"/><path data-cppathid="10019" d="m50.768 43.142-.211-.633c2.298-.906 4.001-2.992 4.363-5.51h.08c2.206 0 4-1.794 4-4 0-.819-.249-1.581-.673-2.215.443-1.853.673-3.756.673-5.661v-7.123c0-1.654-1.346-3-3-3h-12.877c-2.69 0-5.05 1.699-5.926 4.198-2.498.875-4.197 3.235-4.197 5.925 0 1.905.23 3.807.673 5.662-.424.635-.673 1.396-.673 2.215 0 2.206 1.794 4 4 4h.08c.363 2.518 2.065 4.603 4.363 5.51l-.211.633c-5.642 1.171-10.014 5.313-11.589 10.634l-.595-3.572c1.273-2.049 1.952-4.392 1.952-6.81v-9.395c0-1.302-.839-2.402-2-2.816v-28.184c0-1.103-.897-2-2-2h-24c-1.103 0-2 .897-2 2v34c0 1.103.897 2 2 2h.062c.104.422.34.802.688 1.081l3.597 2.877c.538.431.958.997 1.215 1.639l.171.427c.87 2.174 2.311 4.033 4.179 5.423l-1.759 10.553h-10.153v2h62v-4.834c0-7.333-5.111-13.546-12.232-15.024zm-8.903 1.908 2.059 1.03-2.221 1.333-.446-2.233c.2-.048.403-.091.608-.13zm3.916 5.95h.438l2.5 10h-5.439zm.498-2h-.558l-.463-1.388.742-.446.742.445zm1.798-2.92 2.059-1.03c.205.039.408.082.609.13l-.446 2.233zm6.923-11.08v-4c1.103 0 2 .897 2 2s-.897 2-2 2zm-20-2c0-1.103.897-2 2-2v4c-1.103 0-2-.897-2-2zm2-5v1c-.568 0-1.107.123-1.596.337-.266-1.389-.404-2.801-.404-4.214 0-1.968 1.333-3.675 3.242-4.153l.582-.146.146-.582c.477-1.909 2.185-3.242 4.153-3.242h12.877c.552 0 1 .449 1 1v7.123c0 1.414-.138 2.826-.404 4.214-.49-.214-1.028-.337-1.596-.337v-1c0-1.654-1.346-3-3-3h-8c-.552 0-1-.449-1-1v-3h-2v2.101c-2.279.464-4 2.484-4 4.899zm2 8v-8c0-1.381.938-2.547 2.211-2.895.441 1.109 1.525 1.895 2.789 1.895h8c.552 0 1 .449 1 1v8c0 2.757-2.243 5-5 5h-4c-2.757 0-5-2.243-5-5zm5 7h4c.203 0 .404-.013.603-.031l.175.524-2.778 1.389-2.777-1.388.175-.524c.198.017.399.03.602.03zm-4.661 2.793.959 4.795 3.203-1.922.458 1.375-2.739 10.959h-4.22v-6h-2v6h-4v-2.834c0-5.556 3.376-10.372 8.339-12.373zm-36.339-42.793h24v28.184c-.038.014-.079.021-.116.036-.345-1.275-1.501-2.22-2.884-2.22-.771 0-1.468.301-2 .78-.532-.48-1.229-.78-2-.78-.352 0-.686.072-1 .184v-2.184h6v-2h-6v-1c0-.352-.072-.686-.184-1h6.184v-2h-14v2h2.184c-.112.314-.184.648-.184 1v1h-8v2h8v2h-8v2h8v4.697c0 .719-.584 1.303-1.303 1.303-.258 0-.508-.076-.723-.219l-1.188-.792c-.97-.647-2.099-.989-3.267-.989-1.394 0-2.59.821-3.16 2h-.359zm7.589 41.28-.171-.426c-.384-.961-1.014-1.811-1.822-2.458l-3.596-2.877c0-.838.682-1.519 1.52-1.519.771 0 1.517.226 2.157.653l1.188.792c.544.363 1.178.555 1.832.555 1.822 0 3.303-1.481 3.303-3.303v-11.697c0-.551.448-1 1-1s1 .449 1 1v15h2v-7c0-.551.448-1 1-1s1 .449 1 1v7h2v-7c0-.551.448-1 1-1s1 .449 1 1v7h2v-5c0-.551.448-1 1-1s1 .449 1 1v9.395c0 1.984-.534 3.911-1.551 5.605h-13.138c-1.674-1.184-2.957-2.81-3.722-4.72zm4.258 6.72h12.306l1.667 10h-15.64zm46.153 10h-4v-6h-2v6h-4.22l-2.739-10.96.458-1.375 3.203 1.922.959-4.795c4.963 2.002 8.339 6.818 8.339 12.374z"/><path data-cppathid="10020" d="m21 17c0-2.26-1.256-4.23-3.107-5.253.682-.718 1.107-1.682 1.107-2.747 0-2.206-1.794-4-4-4s-4 1.794-4 4c0 1.065.425 2.029 1.107 2.747-1.851 1.023-3.107 2.993-3.107 5.253v2h12zm-8-8c0-1.103.897-2 2-2s2 .897 2 2-.897 2-2 2-2-.897-2-2zm-2 8c0-2.206 1.794-4 4-4s4 1.794 4 4z"/><path data-cppathid="10021" d="m5 21h4v2h-4z"/></g></g></svg>