<?xml version="1.0" encoding="UTF-8"?>
<svg xmlns="http://www.w3.org/2000/svg" onmouseup="{ if(window.parent.document.onmouseup) window.parent.document.onmouseup(arguments[0]);}" width="512" viewBox="0 0 512 512" height="512" enable-background="new 0 0 512 512" id="Capa_1"><g><path data-cppathid="10000" fill="#dff6fd" d="m394.77 270.459c-1.467.897-3.152 1.372-4.874 1.372s-3.407-.474-4.873-1.372c-64.477-39.455-104.438-79.455-104.438-156.846v-31.234h-215.526c-2.845 0-5.151 2.306-5.151 5.151v293.579h121.576c5.13 0 9.303 4.173 9.303 9.302v81.395h213.456c2.845 0 5.151-2.306 5.151-5.151v-205.45c-4.721 3.1-9.598 6.179-14.624 9.254z"/><path data-cppathid="10001" fill="#c8effe" d="m103.279 381.109v-293.579c0-2.845 2.306-5.151 5.151-5.151h-43.371c-2.845 0-5.151 2.306-5.151 5.151v293.579z"/><g><g fill="#62dbfb"><path data-cppathid="10002" d="m283.235 146.024h-138.452c-4.143 0-7.5 3.358-7.5 7.5s3.357 7.5 7.5 7.5h141.822c-1.344-4.821-2.47-9.815-3.37-15z"/><path data-cppathid="10003" d="m294.972 183.469h-150.189c-4.143 0-7.5 3.358-7.5 7.5s3.357 7.5 7.5 7.5h158.508c-3.067-4.807-5.844-9.797-8.319-15z"/><path data-cppathid="10004" d="m320.805 220.914h-100.862c-4.143 0-7.5 3.358-7.5 7.5s3.357 7.5 7.5 7.5h104.575c3.076 0 5.715-1.853 6.873-4.502-3.713-3.418-7.244-6.912-10.586-10.498z"/></g><g><path data-cppathid="10005" fill="#62dbfb" d="m189.038 235.914h-44.255c-4.143 0-7.5-3.358-7.5-7.5s3.357-7.5 7.5-7.5h44.255c4.143 0 7.5 3.358 7.5 7.5s-3.357 7.5-7.5 7.5z"/></g><g><path data-cppathid="10006" fill="#01d0fb" d="m324.519 273.358h-179.736c-4.143 0-7.5-3.358-7.5-7.5s3.357-7.5 7.5-7.5h179.735c4.143 0 7.5 3.358 7.5 7.5s-3.357 7.5-7.499 7.5z"/></g><g><path data-cppathid="10007" fill="#01d0fb" d="m324.519 310.803h-47.915c-4.143 0-7.5-3.358-7.5-7.5s3.357-7.5 7.5-7.5h47.915c4.143 0 7.5 3.358 7.5 7.5s-3.358 7.5-7.5 7.5z"/></g><path data-cppathid="10008" fill="#01d0fb" d="m248.789 295.803h-100.318c4.194 4.451 7.757 9.497 10.554 15h89.765c4.143 0 7.5-3.358 7.5-7.5s-3.358-7.5-7.501-7.5z"/><path data-cppathid="10009" fill="#01d0fb" d="m324.519 333.248h-158.888c.217 2.143.329 4.317.329 6.517v8.483h158.559c4.143 0 7.5-3.358 7.5-7.5s-3.358-7.5-7.5-7.5z"/><path data-cppathid="10010" fill="#01d0fb" d="m324.519 370.693h-158.559v10.416h15.524c3.406 0 6.383 1.846 8.003 4.584h135.031c4.143 0 7.5-3.358 7.5-7.5s-3.357-7.5-7.499-7.5z"/></g><g><g><path data-cppathid="10011" fill="#fac600" d="m285.281 51.069c-3.491 1.745-5.696 5.312-5.696 9.215v53.329c0 78.849 41.897 119.136 104.915 157.699 3.309 2.025 7.482 2.025 10.791 0 63.019-38.563 104.915-78.85 104.915-157.699v-53.329c0-3.903-2.205-7.47-5.696-9.215l-100.009-49.982c-2.899-1.449-6.312-1.449-9.211 0z"/></g><g><path data-cppathid="10012" fill="#e8b800" d="m316.618 96.615v-61.207l-31.337 15.661c-3.491 1.745-5.696 5.312-5.696 9.215v53.329c0 78.849 41.897 119.136 104.915 157.699 3.309 2.025 7.482 2.025 10.79 0 9.178-5.616 17.903-11.27 26.121-17.073-62.95-38.54-104.793-78.826-104.793-157.624z"/></g><g><g><circle data-cppathid="10013" r="70.461" fill="#4fc123" cy="124.174" cx="389.432"/></g><g><path data-cppathid="10014" fill="#47a920" d="m348.852 124.174c0-33.786 23.785-62.004 55.52-68.858-4.817-1.04-9.812-1.602-14.94-1.602-38.914 0-70.461 31.546-70.461 70.461s31.546 70.461 70.461 70.461c5.128 0 10.123-.562 14.94-1.602-31.735-6.856-55.52-35.074-55.52-68.86z"/></g><g><path data-cppathid="10015" fill="#fff" d="m385.789 151.9c-1.919 0-3.839-.732-5.304-2.197l-23.166-23.166c-2.929-2.929-2.929-7.678 0-10.606 2.93-2.929 7.678-2.929 10.607 0l17.862 17.862 30.603-30.604c2.93-2.929 7.678-2.929 10.607 0s2.929 7.678 0 10.606l-35.906 35.907c-1.464 1.466-3.384 2.198-5.303 2.198z"/></g></g></g><g><path data-cppathid="10016" fill="#3675bb" d="m67.526 381.109v-41.343c0-18.893 15.371-34.265 34.265-34.265s34.265 15.371 34.265 34.265v41.343h30.905v-41.344c0-35.992-29.177-65.17-65.17-65.17s-65.17 29.177-65.17 65.17v41.344z"/><path data-cppathid="10017" fill="#2263aa" d="m54.084 381.109v-41.344c0-33.029 24.577-60.301 56.438-64.57-2.858-.383-5.769-.599-8.732-.599-35.992 0-65.17 29.177-65.17 65.17v41.344h17.464z"/><g><path data-cppathid="10018" fill="#fac600" d="m181.485 512h-159.389c-5.69 0-10.302-4.612-10.302-10.302v-111.288c0-5.69 4.612-10.302 10.302-10.302h159.389c5.69 0 10.302 4.612 10.302 10.302v111.288c0 5.69-4.613 10.302-10.302 10.302z"/></g><g><path data-cppathid="10019" fill="#e8b800" d="m55.115 501.698v-111.288c0-5.69 4.612-10.302 10.302-10.302h-43.321c-5.69 0-10.302 4.612-10.302 10.302v111.288c0 5.69 4.612 10.302 10.302 10.302h43.321c-5.69 0-10.302-4.612-10.302-10.302z"/></g></g></g></svg>