<?xml version="1.0" encoding="UTF-8"?>
<svg xmlns="http://www.w3.org/2000/svg" onmouseup="{ if(window.parent.document.onmouseup) window.parent.document.onmouseup(arguments[0]);}" data-name="Layer 3" width="512" viewBox="0 0 64 64" height="512" id="Layer_3"><rect data-cppathid="10000" y="36" x="2" width="60" rx="4" height="26" fill="#4d8c28"/><path data-cppathid="10001" fill="#559b2d" d="m6 36a4 4 0 0 0 -4 4v18a3.974 3.974 0 0 0 .108.892 3.974 3.974 0 0 0 .892.108h52a4 4 0 0 0 4-4v-18a3.974 3.974 0 0 0 -.108-.892 3.974 3.974 0 0 0 -.892-.108z"/><path data-cppathid="10002" fill="#6bc13b" d="m51 21a7.95 7.95 0 0 0 -1.961-5.237 5.93 5.93 0 0 1 -1.308-3.35 7.973 7.973 0 0 0 -7.144-7.144 5.93 5.93 0 0 1 -3.35-1.308 7.973 7.973 0 0 0 -10.474 0 5.93 5.93 0 0 1 -3.35 1.308 7.973 7.973 0 0 0 -7.144 7.144 5.93 5.93 0 0 1 -1.308 3.35 7.973 7.973 0 0 0 0 10.474 5.93 5.93 0 0 1 1.308 3.35 7.973 7.973 0 0 0 7.144 7.144 5.93 5.93 0 0 1 3.35 1.308 7.973 7.973 0 0 0 10.474 0 5.93 5.93 0 0 1 3.35-1.308 7.973 7.973 0 0 0 7.144-7.144 5.93 5.93 0 0 1 1.308-3.35 7.95 7.95 0 0 0 1.961-5.237z"/><circle data-cppathid="10003" r="13" fill="#f2f2f2" cy="21" cx="32"/><path data-cppathid="10004" fill="#7bdf45" d="m23 23 6 6 12-12-3-3-9 9-3-3z"/><g fill="#f2f2f2"><path data-cppathid="10005" d="m9.98 44.8a1 1 0 0 0 -.98-.8h-2a1 1 0 0 0 -.98.8l-1 5a1 1 0 0 0 -.02.2v4h2v-3h2v3h2v-4a1 1 0 0 0 -.02-.2zm-1.799 1.2.6 3h-1.561l.6-3z"/><path data-cppathid="10006" d="m15 44h-2a1 1 0 0 0 -1 1v9h2v-4h1a3 3 0 0 0 0-6zm0 4h-1v-2h1a1 1 0 0 1 0 2z"/><path data-cppathid="10007" d="m22 44h-2a1 1 0 0 0 -1 1v9h2v-4h1a3 3 0 0 0 0-6zm0 4h-1v-2h1a1 1 0 0 1 0 2z"/><path data-cppathid="10008" d="m32 47a3 3 0 0 0 -3-3h-2a1 1 0 0 0 -1 1v9h2v-4h.558a5.867 5.867 0 0 1 1.442 3.828v.172h2v-.172a7.879 7.879 0 0 0 -1.32-4.344 3 3 0 0 0 1.32-2.484zm-4-1h1a1 1 0 0 1 0 2h-1z"/><path data-cppathid="10009" d="m44 48.877-.781 3.123h-.438l-.781-3.123v-4.877h-2v5a.984.984 0 0 0 .03.242l1 4a1 1 0 0 0 .97.758h2a1 1 0 0 0 .97-.758l1-4a.984.984 0 0 0 .03-.242v-5h-2z"/><path data-cppathid="10010" d="m47 45v8a1 1 0 0 0 1 1h4v-2h-3v-2h3v-2h-3v-2h3v-2h-4a1 1 0 0 0 -1 1z"/><path data-cppathid="10011" d="m36 44a3 3 0 0 0 -3 3v4a3 3 0 0 0 6 0v-4a3 3 0 0 0 -3-3zm1 7a1 1 0 0 1 -2 0v-4a1 1 0 0 1 2 0z"/><path data-cppathid="10012" d="m56 44h-2a1 1 0 0 0 -1 1v8a1 1 0 0 0 1 1h2a3 3 0 0 0 3-3v-4a3 3 0 0 0 -3-3zm1 7a1 1 0 0 1 -1 1h-1v-6h1a1 1 0 0 1 1 1z"/></g><path data-cppathid="10013" d="m32 35a14 14 0 1 0 -14-14 14.015 14.015 0 0 0 14 14zm0-26a12 12 0 1 1 -12 12 12.013 12.013 0 0 1 12-12z"/><path data-cppathid="10014" d="m29 30a1 1 0 0 0 .707-.293l12-12a1 1 0 0 0 0-1.414l-3-3a1 1 0 0 0 -1.414 0l-8.293 8.293-2.293-2.293a1 1 0 0 0 -1.414 0l-3 3a1 1 0 0 0 0 1.414l6 6a1 1 0 0 0 .707.293zm-3-8.586 2.293 2.293a1 1 0 0 0 1.414 0l8.293-8.293 1.586 1.586-10.586 10.586-4.586-4.586z"/><path data-cppathid="10015" d="m58 35h-11.728a9 9 0 0 0 2.455-5.314 4.894 4.894 0 0 1 1.066-2.792 8.974 8.974 0 0 0 0-11.788 4.894 4.894 0 0 1 -1.066-2.793 8.973 8.973 0 0 0 -8.041-8.04 4.894 4.894 0 0 1 -2.792-1.066 8.974 8.974 0 0 0 -11.788 0 4.894 4.894 0 0 1 -2.793 1.066 8.973 8.973 0 0 0 -8.04 8.041 4.894 4.894 0 0 1 -1.066 2.792 8.974 8.974 0 0 0 0 11.788 4.894 4.894 0 0 1 1.066 2.793 9 9 0 0 0 2.455 5.313h-11.728a5.006 5.006 0 0 0 -5 5v18a5.006 5.006 0 0 0 5 5h52a5.006 5.006 0 0 0 5-5v-18a5.006 5.006 0 0 0 -5-5zm-42.285-9.419a6.976 6.976 0 0 1 0-9.162 6.839 6.839 0 0 0 1.549-3.906 6.968 6.968 0 0 1 6.248-6.249 6.84 6.84 0 0 0 3.907-1.549 6.976 6.976 0 0 1 9.162 0 6.839 6.839 0 0 0 3.906 1.549 6.968 6.968 0 0 1 6.249 6.248 6.84 6.84 0 0 0 1.549 3.907 6.976 6.976 0 0 1 0 9.162 6.839 6.839 0 0 0 -1.549 3.906 6.97 6.97 0 0 1 -6.248 6.249 6.84 6.84 0 0 0 -3.907 1.549 6.976 6.976 0 0 1 -9.162 0 6.839 6.839 0 0 0 -3.906-1.549 6.97 6.97 0 0 1 -6.249-6.248 6.84 6.84 0 0 0 -1.549-3.907zm45.285 32.419a3 3 0 0 1 -3 3h-52a3 3 0 0 1 -3-3v-18a3 3 0 0 1 3-3h14.586a8.993 8.993 0 0 0 2.728.727 4.894 4.894 0 0 1 2.792 1.066 8.974 8.974 0 0 0 11.788 0 4.894 4.894 0 0 1 2.793-1.066 8.995 8.995 0 0 0 2.727-.727h14.586a3 3 0 0 1 3 3z"/><path data-cppathid="10016" d="m9.98 44.8a1 1 0 0 0 -.98-.8h-2a1 1 0 0 0 -.98.8l-1 5a1 1 0 0 0 -.02.2v4h2v-3h2v3h2v-4a1 1 0 0 0 -.02-.2zm-1.799 1.2.6 3h-1.561l.6-3z"/><path data-cppathid="10017" d="m15 44h-2a1 1 0 0 0 -1 1v9h2v-4h1a3 3 0 0 0 0-6zm0 4h-1v-2h1a1 1 0 0 1 0 2z"/><path data-cppathid="10018" d="m22 44h-2a1 1 0 0 0 -1 1v9h2v-4h1a3 3 0 0 0 0-6zm0 4h-1v-2h1a1 1 0 0 1 0 2z"/><path data-cppathid="10019" d="m32 47a3 3 0 0 0 -3-3h-2a1 1 0 0 0 -1 1v9h2v-4h.558a5.867 5.867 0 0 1 1.442 3.828v.172h2v-.172a7.879 7.879 0 0 0 -1.32-4.344 3 3 0 0 0 1.32-2.484zm-4-1h1a1 1 0 0 1 0 2h-1z"/><path data-cppathid="10020" d="m44 48.877-.781 3.123h-.438l-.781-3.123v-4.877h-2v5a.984.984 0 0 0 .03.242l1 4a1 1 0 0 0 .97.758h2a1 1 0 0 0 .97-.758l1-4a.984.984 0 0 0 .03-.242v-5h-2z"/><path data-cppathid="10021" d="m47 45v8a1 1 0 0 0 1 1h4v-2h-3v-2h3v-2h-3v-2h3v-2h-4a1 1 0 0 0 -1 1z"/><path data-cppathid="10022" d="m36 44a3 3 0 0 0 -3 3v4a3 3 0 0 0 6 0v-4a3 3 0 0 0 -3-3zm1 7a1 1 0 0 1 -2 0v-4a1 1 0 0 1 2 0z"/><path data-cppathid="10023" d="m56 44h-2a1 1 0 0 0 -1 1v8a1 1 0 0 0 1 1h2a3 3 0 0 0 3-3v-4a3 3 0 0 0 -3-3zm1 7a1 1 0 0 1 -1 1h-1v-6h1a1 1 0 0 1 1 1z"/></svg>