<?xml version="1.0" encoding="UTF-8"?>
<svg xmlns="http://www.w3.org/2000/svg" onmouseup="{ if(window.parent.document.onmouseup) window.parent.document.onmouseup(arguments[0]);}" width="512" viewBox="0 0 60 60" height="512"><g fill="none" id="005---Question-Desk"><g transform="translate(1 5)" id="Layer_3"><rect data-cppathid="10000" y="26" width="58" rx="2" height="5" fill="#ff9801" id="Rectangle-path"/><path data-cppathid="10001" fill="#f57c00" d="m56 26h-3c1.1032019.0032948 1.9967052.8967981 2 2v1c-.0032948 1.1032019-.8967981 1.9967052-2 2h3c1.1032019-.0032948 1.9967052-.8967981 2-2v-1c-.0032948-1.1032019-.8967981-1.9967052-2-2z" id="Shape"/><path data-cppathid="10002" fill="#a0522d" d="m56 31v22c0 .5522847-.4477153 1-1 1h-4c-.5522847 0-1-.4477153-1-1v-1c0-.5522847-.4477153-1-1-1h-40c-.55228475 0-1 .4477153-1 1v1c0 .5522847-.44771525 1-1 1h-4c-.55228475 0-1-.4477153-1-1v-22z" id="Shape"/><path data-cppathid="10003" fill="#783e22" d="m53 31v22c0 .5522847-.4477153 1-1 1h3c.5522847 0 1-.4477153 1-1v-22z" id="Shape"/><circle data-cppathid="10004" r="10" fill="#02a9f4" cy="41" cx="29" id="Oval"/><path data-cppathid="10005" fill="#0377bc" d="m29 31c-.5024253.0040337-1.0038371.045818-1.5.125 4.8867805.7347638 8.5012202 4.9332896 8.5012202 9.875s-3.6144397 9.1402362-8.5012202 9.875c3.710451.5677523 7.4261819-.9912669 9.6206899-4.0365787s2.4977618-7.0634251.7851783-10.4036118c-1.7125836-3.3401866-5.152234-5.4392346-8.9058682-5.4348095z" id="Shape"/><path data-cppathid="10006" fill="#dfc49c" d="m32.98 15.34v4.66s-.48 2-3.99 2-4.01-2-4.01-2v-4.66c1.36 1.38 1.49 2.66 3.07 2.66h1.86c1.58 0 1.71-1.28 3.07-2.66z" id="Shape"/><path data-cppathid="10007" fill="#02a9f4" d="m42.98 26h-27.98c.17-3.33 2-3.82 2-3.82l7.98-2.18s.5 2 4.01 2 3.99-2 3.99-2l7.97 2.18s1.85.49 2.03 3.82z" id="Shape"/><path data-cppathid="10008" fill="#0377bc" d="m40.95 22.18-7.97-2.18c-.0838219.2616367-.2199054.5035251-.4.711l5.37 1.469s1.85.49 2.03 3.82h3c-.18-3.33-2.03-3.82-2.03-3.82z" id="Shape"/><path data-cppathid="10009" fill="#3f51b5" d="m18.98 6h4v6h-4z" id="Rectangle-path"/><path data-cppathid="10010" fill="#ffe0b2" d="m34.98 6v6c-.170656 1.1559036-.7487457 2.2127793-1.63 2.98-.1305208.1123844-.2540825.2326066-.37.36-1.36 1.38-1.49 2.66-3.07 2.66h-1.86c-1.58 0-1.71-1.28-3.07-2.66-.1159175-.1273934-.2394792-.2476156-.37-.36-.8812543-.7672207-1.459344-1.8240964-1.63-2.98v-6c0-3.3137085 2.6862915-6 6-6s6 2.6862915 6 6z" id="Shape"/><path data-cppathid="10011" fill="#3f51b5" d="m38.98 6v4c-.0032948 1.1032019-.8967981 1.9967052-2 2h-2v-6z" id="Shape"/></g><g fill="#000" id="Layer_11"><path data-cppathid="10012" d="m57 30h-12.128c-.516-3.169-2.57-3.761-2.658-3.784l-7.235-1.979v-3.478c.8421181-.7352682 1.4626645-1.6906741 1.792-2.759h1.208c1.6568542 0 3-1.3431458 3-3v-6c0-4.71-5.244-9-11-9s-11 4.29-11 9v11c0 1.1045695.8954305 2 2 2h1c.5522847 0 1-.4477153 1-1s-.4477153-1-1-1h-1v-2h2.2c.3343919 1.0684865.9572727 2.0239165 1.8 2.761v3.475l-7.237 1.978c-.1.025-2.132.618-2.637 3.786h-12.105c-1.65685425 0-3 1.3431458-3 3v1c.00525139 1.2667854.80564914 2.3937454 2 2.816v21.184c0 1.1045695.8954305 2 2 2h4c1.1045695 0 2-.8954305 2-2v-1h40v1c0 1.1045695.8954305 2 2 2h4c1.1045695 0 2-.8954305 2-2v-21.184c1.1943509-.4222546 1.9947486-1.5492146 2-2.816v-1c0-1.6568542-1.3431458-3-3-3zm-30.021-6.829c1.041 1.029 2.008.829 3.93.829.7755794.0253593 1.5263236-.2753011 2.07-.829v1.649c-.792 1.595-5.2 1.577-6 0zm12-8.171c0 .5522847-.4477153 1-1 1h-1v-4h2zm-9-13c5.068 0 9 3.763 9 7v1h-2.079c-.4927499-3.4433602-3.4420619-6.00066634-6.9205-6.00066634s-6.4277501 2.55730614-6.9205 6.00066634h-2.08v-1c0-3.237 3.931-7 9-7zm-7 14h-2v-4h2zm2-5c0-2.76142375 2.2385763-5 5-5s5 2.23857625 5 5v5.936c-.1530049.8901191-.6086847 1.7000987-1.29 2.293-1.697 1.489-1.778 2.771-2.78 2.771h-1.861c-1 0-1.084-1.283-2.785-2.776-.6645455-.5769837-1.116606-1.3599918-1.284-2.224zm-6.715 17.145 7.22-1.973c.59.8 1.861 1.828 4.5 1.828s3.9-1.024 4.49-1.827l7.183 1.964c.04.014.844.315 1.184 1.863h-25.711c.33-1.549 1.119-1.849 1.134-1.855zm-8.264 26.855c-1.1045695 0-2 .8954305-2 2v1h-4v-21h19.7c-2.9413405 2.0527201-4.6940267 5.4131986-4.6940267 9s1.7526862 6.9472799 4.6940267 9zm20-18c4.9705627 0 9 4.0294373 9 9s-4.0294373 9-9 9-9-4.0294373-9-9c.006061-4.9680501 4.0319499-8.993939 9-9zm26 21h-4v-1c0-1.1045695-.8954305-2-2-2h-13.695c2.9413405-2.0527201 4.6940267-5.4131986 4.6940267-9s-1.7526862-6.9472799-4.6940267-9h19.695zm2-24c0 .5522847-.4477153 1-1 1h-54c-.55228475 0-1-.4477153-1-1v-1c0-.5522847.44771525-1 1-1h54c.5522847 0 1 .4477153 1 1z" id="Shape"/><path data-cppathid="10013" d="m27 44c.5522847 0 1-.4477153 1-1 0-1.1045695.8954305-2 2-2s2 .8954305 2 2-.8954305 2-2 2c-.5522847 0-1 .4477153-1 1v2c0 .5522847.4477153 1 1 1s1-.4477153 1-1v-1.126c2.0125541-.5196393 3.2917506-2.4941161 2.9434376-4.5432811-.3483131-2.049165-2.208053-3.4900915-4.2792712-3.3155793-2.0712182.1745123-3.6636381 1.9063035-3.6641664 3.9848604 0 .5522847.4477153 1 1 1z" id="Shape"/><circle data-cppathid="10014" r="1" cy="52" cx="30" id="Oval"/></g></g></svg>