<?xml version="1.0" encoding="UTF-8"?>
<svg xmlns="http://www.w3.org/2000/svg" onmouseup="{ if(window.parent.document.onmouseup) window.parent.document.onmouseup(arguments[0]);}" width="512" viewBox="0 0 512 512" height="512" enable-background="new 0 0 512 512" id="Capa_1"><g><g><g><g><g><path data-cppathid="10000" fill="#d8ecfe" d="m22.5 91.5c-8.284 0-15-6.716-15-15v-24c0-24.813 20.187-45 45-45h24c8.284 0 15 6.716 15 15s-6.716 15-15 15h-24c-8.271 0-15 6.729-15 15v24c0 8.284-6.716 15-15 15z"/></g><g><path data-cppathid="10001" fill="#d8ecfe" d="m489.5 91.5c-8.284 0-15-6.716-15-15v-24c0-8.271-6.729-15-15-15h-24c-8.284 0-15-6.716-15-15s6.716-15 15-15h24c24.813 0 45 20.187 45 45v24c0 8.284-6.716 15-15 15z"/></g><g><path data-cppathid="10002" fill="#d8ecfe" d="m76.5 504.5h-24c-24.813 0-45-20.187-45-45v-24c0-8.284 6.716-15 15-15s15 6.716 15 15v24c0 8.271 6.729 15 15 15h24c8.284 0 15 6.716 15 15s-6.716 15-15 15z"/></g><g><path data-cppathid="10003" fill="#d8ecfe" d="m459.5 504.5h-24c-8.284 0-15-6.716-15-15s6.716-15 15-15h24c8.271 0 15-6.729 15-15v-24c0-8.284 6.716-15 15-15s15 6.716 15 15v24c0 24.813-20.187 45-45 45z"/></g></g><g><circle data-cppathid="10004" r="15" fill="#f58a97" cy="47.744" cx="170.084"/></g><g><g><g><path data-cppathid="10005" fill="#aee69c" d="m123.671 512c-3.866 0-7-3.134-7-7v-87.837c0-17.095 10.656-32.402 26.755-38.432l66.847-25.038c2.951-1.105 5.472-2.943 7.386-5.258 2.53-3.06 18.999-6.955 18.999-11.096v-26.723h38.685v26.723c0 4.141 16.47 8.036 18.999 11.096 1.914 2.315 4.435 4.153 7.386 5.258l66.847 25.038c16.099 6.03 26.755 21.337 26.755 38.432v87.837c0 3.866-3.134 7-7 7z"/><g><path data-cppathid="10006" fill="#89daa4" d="m368.574 378.731-66.847-25.038c-2.951-1.105-5.472-2.943-7.386-5.258-2.53-3.06-18.999-6.955-18.999-11.096v-26.723h-15v41.723c0 7.274 4.535 13.788 11.385 16.354l66.847 25.038c16.099 6.03 26.755 21.337 26.755 38.432v79.837h23c3.866 0 7-3.134 7-7v-87.837c0-17.095-10.656-32.402-26.755-38.432z"/></g><path data-cppathid="10007" fill="#ffcebf" d="m256 370.716c16.46 0 30.799-8.986 38.345-22.284-2.53-3.06-19.003-6.952-19.003-11.093v-26.723h-53.685v26.723c0 4.141-1.473 8.033-4.003 11.093 7.547 13.298 21.886 22.284 38.346 22.284z"/><path data-cppathid="10008" fill="#ffb09e" d="m270.635 368.236c10.105-3.544 18.516-10.652 23.71-19.804-2.559-3.093-4.001-7.076-4.003-11.093v-26.723h-30v41.723c0 6.88 4.059 13.073 10.293 15.897z"/></g><g><g><path data-cppathid="10009" fill="#e19974" d="m325.281 232.617h-138.562v-83.162c0-17.063 13.833-30.896 30.896-30.896h76.77c17.063 0 30.896 13.833 30.896 30.896z"/><path data-cppathid="10010" fill="#dc8758" d="m294.385 118.559h-30c17.063 0 30.896 13.833 30.896 30.896v83.162h30v-83.162c0-17.064-13.833-30.896-30.896-30.896z"/><path data-cppathid="10011" fill="#ffcebf" d="m325.281 209.83c-3.672-6.864-9.893-15.642-19.87-18.589-11.971-3.535-18.238 4.606-34.5 4.552-18.492-.062-22.868-10.63-37.783-11.792-10.723-.835-26.207 3.246-46.409 25.829v48.539c0 38.032 31.018 68.862 69.281 68.862 38.263 0 69.281-30.831 69.281-68.862z"/><path data-cppathid="10012" fill="#ffcebf" d="m325.281 209.83c-3.672-6.864-9.893-15.642-19.87-18.589-11.971-3.535-18.238 4.606-34.5 4.552-18.492-.062-22.868-10.63-37.783-11.792-10.723-.835-26.207 3.246-46.409 25.829v48.539c0 25.632 14.09 47.994 34.991 59.85 10.111 5.735 34.29 4.08 34.29 4.08 12.465 0 24.16 1.66 34.265-4.066 20.915-11.853 35.015-34.222 35.015-59.864v-48.539z"/><path data-cppathid="10013" fill="#ffb09e" d="m325.281 258.369v-48.539c-3.672-6.864-9.893-15.642-19.87-18.589-8.734-2.579-14.435 1.055-23.193 3.189.383.252.758.513 1.126.781 7.655 5.586 11.938 14.696 11.938 24.172v38.986c.207 4.305.812 26.032-15.497 43.398-22.582 24.046-56.116 16.887-58.064 16.435 10.111 5.736 21.805 9.03 34.28 9.03 38.262-.001 69.28-30.831 69.28-68.863z"/></g><g><path data-cppathid="10014" fill="#ffcebf" d="m335 245.906h-9.719v-36.664h9.719c10.124 0 18.332 8.208 18.332 18.332 0 10.124-8.208 18.332-18.332 18.332z"/><path data-cppathid="10015" fill="#ffb09e" d="m177 245.906h9.719v-36.664h-9.719c-10.124 0-18.332 8.208-18.332 18.332 0 10.124 8.208 18.332 18.332 18.332z"/></g></g></g></g></g><g><path data-cppathid="10016" fill="#aee69c" d="m497.5 216.891h-50.755c-1.857 0-3.637.738-4.95 2.05l-21.121 21.121c-2.52 2.52-6.828.735-6.828-2.828v-13.343c0-3.866-3.134-7-7-7h-16.692c-3.866 0-7-3.134-7-7v-62.513c0-3.866 3.134-7 7-7h107.346c3.866 0 7 3.134 7 7v62.513c0 3.866-3.134 7-7 7z"/><g><path data-cppathid="10017" fill="#89daa4" d="m497.5 140.378h-30c3.866 0 7 3.134 7 7v62.513c0 3.866-3.134 7-7 7h30c3.866 0 7-3.134 7-7v-62.513c0-3.866-3.134-7-7-7z"/></g></g></g><path data-cppathid="10018" d="m76.5 0h-24c-28.948 0-52.5 23.551-52.5 52.5v24c0 12.407 10.094 22.5 22.5 22.5s22.5-10.093 22.5-22.5v-24c0-4.136 3.364-7.5 7.5-7.5h24c12.406 0 22.5-10.093 22.5-22.5s-10.094-22.5-22.5-22.5zm0 30h-24c-12.406 0-22.5 10.093-22.5 22.5v24c0 4.136-3.364 7.5-7.5 7.5s-7.5-3.364-7.5-7.5v-24c0-20.678 16.822-37.5 37.5-37.5h24c4.136 0 7.5 3.364 7.5 7.5s-3.364 7.5-7.5 7.5zm80.39 335.679-16.091 6.028c-18.918 7.085-31.629 25.352-31.629 45.454v87.34c0 4.142 3.357 7.5 7.5 7.5s7.5-3.358 7.5-7.5v-87.34c0-13.881 8.797-26.503 21.891-31.407l16.091-6.028c3.879-1.453 5.846-5.775 4.393-9.654-1.454-3.879-5.778-5.844-9.655-4.393zm-80.39 101.321h-24c-4.136 0-7.5-3.364-7.5-7.5v-24c0-12.407-10.094-22.5-22.5-22.5s-22.5 10.093-22.5 22.5v24c0 28.949 23.552 52.5 52.5 52.5h24c12.406 0 22.5-10.093 22.5-22.5s-10.094-22.5-22.5-22.5zm0 30h-24c-20.678 0-37.5-16.822-37.5-37.5v-24c0-4.136 3.364-7.5 7.5-7.5s7.5 3.364 7.5 7.5v24c0 12.407 10.094 22.5 22.5 22.5h24c4.136 0 7.5 3.364 7.5 7.5s-3.364 7.5-7.5 7.5zm264.513-416.513c7.251 0 13.767-2.39 18.843-6.911 3.951-3.519 6.784-9.349 1.88-13.462-4.493-3.768-8.343-.869-11.856 2.26-2.319 2.065-5.302 3.113-8.866 3.113-9.783 0-17.743-7.96-17.743-17.744s7.958-17.743 17.742-17.743c3.557 0 6.985 1.046 9.916 3.026 3.432 2.319 8.095 1.416 10.413-2.017s1.416-8.095-2.017-10.413c-5.42-3.661-11.752-5.596-18.312-5.596-18.055 0-32.743 14.689-32.743 32.744s14.688 32.743 32.743 32.743zm-72.315 0h21.079c4.143 0 7.5-3.358 7.5-7.5s-3.357-7.5-7.5-7.5h-13.579v-10.013h12.024c4.143 0 7.5-3.358 7.5-7.5s-3.357-7.5-7.5-7.5h-12.024v-10.013h13.579c4.143 0 7.5-3.358 7.5-7.5s-3.357-7.5-7.5-7.5h-21.079c-4.143 0-7.5 3.358-7.5 7.5v50.026c0 4.142 3.358 7.5 7.5 7.5zm-53.289 0c4.143 0 7.5-3.358 7.5-7.5v-11.141l14.167 16.097c2.745 3.119 7.486 3.402 10.585.675 3.109-2.736 3.411-7.476.675-10.585l-11.658-13.246c7.911-3.025 13.528-10.466 13.528-19.165 0-11.371-9.584-20.621-21.364-20.621h-13.416c-.003 0-.006 0-.008 0-.003 0-.005 0-.008 0-4.143 0-7.5 3.358-7.5 7.5v50.487c-.001 4.141 3.357 7.499 7.499 7.499zm13.433-50.487c3.45 0 6.364 2.574 6.364 5.621s-2.914 5.621-6.364 5.621c-1.399 0-3.627.008-5.864.019-.054-4.845.006-6.274-.029-11.261zm-58.758 40.244c12.406 0 22.5-10.093 22.5-22.5s-10.094-22.5-22.5-22.5-22.5 10.093-22.5 22.5 10.094 22.5 22.5 22.5zm0-30c4.136 0 7.5 3.364 7.5 7.5s-3.364 7.5-7.5 7.5-7.5-3.364-7.5-7.5 3.364-7.5 7.5-7.5zm327.416 92.634h-34.587c-4.143 0-7.5 3.358-7.5 7.5s3.357 7.5 7.5 7.5h34.087v61.514h-50.255c-3.874 0-7.516 1.509-10.252 4.247l-15.147 15.146v-4.893c0-7.995-6.505-14.5-14.5-14.5h-16.191v-61.514h37.259c4.143 0 7.5-3.358 7.5-7.5s-3.357-7.5-7.5-7.5h-37.759c-7.995 0-14.5 6.505-14.5 14.5v62.514c0 7.995 6.505 14.5 14.5 14.5h16.191v12.843c0 4.668 2.787 8.838 7.1 10.625 4.266 1.767 9.215.827 12.531-2.493l20.977-20.975h50.546c7.995 0 14.5-6.505 14.5-14.5v-62.514c0-7.995-6.505-14.5-14.5-14.5zm-8 280.122c-12.406 0-22.5 10.093-22.5 22.5v24c0 4.136-3.364 7.5-7.5 7.5h-24c-12.406 0-22.5 10.093-22.5 22.5s10.094 22.5 22.5 22.5h24c28.948 0 52.5-23.551 52.5-52.5v-24c0-12.407-10.094-22.5-22.5-22.5zm7.5 46.5c0 20.678-16.822 37.5-37.5 37.5h-24c-4.136 0-7.5-3.364-7.5-7.5s3.364-7.5 7.5-7.5h24c12.406 0 22.5-10.093 22.5-22.5v-24c0-4.136 3.364-7.5 7.5-7.5s7.5 3.364 7.5 7.5zm-37.5-459.5h-24c-12.406 0-22.5 10.093-22.5 22.5s10.094 22.5 22.5 22.5h24c4.136 0 7.5 3.364 7.5 7.5v24c0 12.407 10.094 22.5 22.5 22.5s22.5-10.093 22.5-22.5v-24c0-28.949-23.552-52.5-52.5-52.5zm37.5 76.5c0 4.136-3.364 7.5-7.5 7.5s-7.5-3.364-7.5-7.5v-24c0-12.407-10.094-22.5-22.5-22.5h-24c-4.136 0-7.5-3.364-7.5-7.5s3.364-7.5 7.5-7.5h24c20.678 0 37.5 16.822 37.5 37.5zm-125.799 295.207-66.846-25.042c-3.897-1.457-6.516-5.204-6.516-9.325v-14.992c21.014-13.639 34.941-37.215 34.941-63.979v-4.963h2.22c14.244 0 25.832-11.588 25.832-25.832s-11.588-25.832-25.832-25.832h-2.219v-52.288c0-21.171-17.225-38.396-38.396-38.396h-76.77c-21.172 0-38.396 17.225-38.396 38.396v52.288h-2.219c-14.244 0-25.832 11.588-25.832 25.832s11.588 25.832 25.832 25.832h2.219v4.963c0 26.764 13.928 50.34 34.941 63.979v14.992c0 4.121-2.618 7.868-6.521 9.327l-17.603 6.595c-3.879 1.453-5.846 5.776-4.393 9.655 1.47 3.924 5.861 5.822 9.654 4.392l17.597-6.593c1.088-.407 2.13-.896 3.134-1.44 9.691 11.849 24.351 18.94 39.972 18.94 15.62 0 30.28-7.091 39.971-18.94 1.002.543 2.042 1.031 3.128 1.437l66.84 25.04c13.094 4.904 21.891 17.525 21.891 31.407v87.34c0 4.142 3.357 7.5 7.5 7.5s7.5-3.358 7.5-7.5v-87.34c0-20.101-12.711-38.368-31.629-45.453zm-38.42-154.965h2.219c5.973 0 10.832 4.859 10.832 10.832s-4.859 10.832-10.832 10.832h-2.219zm-153.562 21.664h-2.219c-5.973 0-10.832-4.859-10.832-10.832s4.859-10.832 10.832-10.832h2.219zm15-88.951c0-12.9 10.496-23.396 23.396-23.396h76.77c12.9 0 23.396 10.496 23.396 23.396v39.708c-3.185-2.328-6.604-4.038-10.247-5.114-8.696-2.569-15.126-.536-21.345 1.427-4.387 1.385-8.922 2.818-15.119 2.818-.045 0-.09 0-.134 0-8.217-.027-12.816-2.497-18.143-5.357-5.03-2.701-10.732-5.762-19.084-6.413-12.788-.997-26.023 4.213-39.491 15.501v-42.57zm61.781 213.761c-11.693 0-22.613-5.602-29.444-14.849 1.676-3.37 2.604-7.13 2.604-11.027v-7.433c8.36 3.113 17.401 4.825 26.84 4.825s18.48-1.712 26.84-4.825v7.433c0 3.897.929 7.657 2.604 11.027-6.831 9.247-17.751 14.849-29.444 14.849zm0-43.485c-34.066 0-61.781-27.527-61.781-61.362v-45.633c13.963-15.003 26.854-22.152 38.327-21.258 5.203.405 8.711 2.289 13.152 4.673 5.893 3.164 13.227 7.102 25.188 7.142 8.604.039 14.824-1.936 19.821-3.514 5.594-1.767 8.464-2.559 12.579-1.345 5.436 1.605 10.307 6.09 14.495 13.338v46.597c0 33.836-27.715 61.362-61.781 61.362zm159.102-141.096c0 4.142 3.357 7.5 7.5 7.5h42.451c4.143 0 7.5-3.358 7.5-7.5s-3.357-7.5-7.5-7.5h-42.451c-4.143 0-7.5 3.358-7.5 7.5zm-238.431 280.415c-4.143 0-7.5 3.358-7.5 7.5v37.95c0 4.142 3.357 7.5 7.5 7.5s7.5-3.358 7.5-7.5v-37.95c0-4.142-3.358-7.5-7.5-7.5zm45.902-232.07c-4.143 0-7.5 3.358-7.5 7.5v13.29c0 4.142 3.357 7.5 7.5 7.5s7.5-3.358 7.5-7.5v-13.29c0-4.142-3.357-7.5-7.5-7.5zm112.756 232.07c-4.143 0-7.5 3.358-7.5 7.5v37.95c0 4.142 3.357 7.5 7.5 7.5s7.5-3.358 7.5-7.5v-37.95c0-4.142-3.357-7.5-7.5-7.5zm-69.549-178.934c-2.133 1.163-5.555 2.524-9.993 2.494-4.209-.044-7.525-1.38-9.566-2.493-3.638-1.984-8.193-.642-10.176 2.994-1.982 3.637-.643 8.192 2.994 10.175 5.186 2.828 11.057 4.325 16.961 4.325 7.448 0 13.322-2.342 16.96-4.325 3.637-1.982 4.978-6.538 2.995-10.175-1.981-3.636-6.537-4.978-10.175-2.995zm23.647-53.136c-4.143 0-7.5 3.358-7.5 7.5v13.29c0 4.142 3.357 7.5 7.5 7.5s7.5-3.358 7.5-7.5v-13.29c0-4.142-3.358-7.5-7.5-7.5z"/></g></svg>