<?xml version="1.0" encoding="UTF-8"?>
<svg xmlns="http://www.w3.org/2000/svg" onmouseup="{ if(window.parent.document.onmouseup) window.parent.document.onmouseup(arguments[0]);}" data-name="Layer 1" width="512" viewBox="0 0 64 64" height="512" id="Layer_1"><path data-cppathid="10000" fill="#2199ea" d="m5 61h54a2 2 0 0 0 2-2v-2h-58v2a2 2 0 0 0 2 2z"/><path data-cppathid="10001" fill="#148cde" d="m59 59h-54a2 2 0 0 1 -2-2v2a2 2 0 0 0 2 2h54a2 2 0 0 0 2-2v-2a2 2 0 0 1 -2 2z"/><path data-cppathid="10002" fill="#ccedff" d="m5 20h54v37h-54z"/><path data-cppathid="10003" fill="#bde8ff" d="m5 20v37h4v-33h46v33h4v-37z"/><g fill="#ff5252"><path data-cppathid="10004" d="m17 43h6v11h-6z"/><path data-cppathid="10005" d="m29 38h6v16h-6z"/><path data-cppathid="10006" d="m41 30h6v24h-6z"/></g><path data-cppathid="10007" fill="#ff8e31" d="m42 3-8 8h4.636a22.771 22.771 0 0 1 -24.408 14.8l-.228-.034v13.234l4.228-.564a29.694 29.694 0 0 0 25.698-27.436h6.074z"/><path data-cppathid="10008" fill="#f77f1b" d="m48 9h-6.074a29.694 29.694 0 0 1 -25.7 27.436l-2.228.3v2.264l4.228-.564a29.694 29.694 0 0 0 25.7-27.436h6.074z"/><path data-cppathid="10009" fill="#de3a3a" d="m20 43v5a3 3 0 0 1 -3 3v3h6v-11z"/><path data-cppathid="10010" fill="#de3a3a" d="m32 38v10a3 3 0 0 1 -3 3v3h6v-16z"/><path data-cppathid="10011" fill="#de3a3a" d="m44 30v18a3 3 0 0 1 -3 3v3h6v-24z"/><path data-cppathid="10012" d="m61 56h-1v-36a1 1 0 0 0 -1-1h-15.706a30.391 30.391 0 0 0 1.553-7h5.153a1 1 0 0 0 .707-1.707l-8-8a1 1 0 0 0 -1.414 0l-8 8a1 1 0 0 0 .707 1.707h3.157a21.6 21.6 0 0 1 -4.957 7h-27.2a1 1 0 0 0 -1 1v36h-1a1 1 0 0 0 -1 1v2a3 3 0 0 0 3 3h54a3 3 0 0 0 3-3v-2a1 1 0 0 0 -1-1zm-21.424-44.659a1 1 0 0 0 -.94-1.341h-2.222l5.586-5.586 5.586 5.586h-3.66a1 1 0 0 0 -1 .934 28.77 28.77 0 0 1 -24.826 26.511l-3.1.412v-10.966a23.907 23.907 0 0 0 24.576-15.55zm-33.576 9.659h23.729a21.753 21.753 0 0 1 -15.365 3.806l-.228-.032a1 1 0 0 0 -1.136.992v13.234a1 1 0 0 0 1 1 .976.976 0 0 0 .132-.009l4.228-.563a30.779 30.779 0 0 0 24.155-18.428h15.485v35h-2v-32a1 1 0 0 0 -1-1h-11v2h10v31h-44v-31h2v-2h-3a1 1 0 0 0 -1 1v32h-2zm54 38a1 1 0 0 1 -1 1h-54a1 1 0 0 1 -1-1v-1h56z"/><path data-cppathid="10013" d="m12 55h40v-2h-4v-23a1 1 0 0 0 -1-1h-6a1 1 0 0 0 -1 1v23h-4v-15a1 1 0 0 0 -1-1h-6a1 1 0 0 0 -1 1v15h-4v-10a1 1 0 0 0 -1-1h-6a1 1 0 0 0 -1 1v10h-4zm30-24h4v22h-4zm-12 8h4v14h-4zm-12 5h4v9h-4z"/><path data-cppathid="10014" d="m27 2h2v2h-2z"/><path data-cppathid="10015" d="m29 4h2v2h-2z"/><path data-cppathid="10016" d="m27 6h2v2h-2z"/><path data-cppathid="10017" d="m25 4h2v2h-2z"/><path data-cppathid="10018" d="m23 10h2v2h-2z"/><path data-cppathid="10019" d="m60 12h2v2h-2z"/><path data-cppathid="10020" d="m58 14h2v2h-2z"/><path data-cppathid="10021" d="m56 12h2v2h-2z"/><path data-cppathid="10022" d="m58 10h2v2h-2z"/><path data-cppathid="10023" d="m54 6h2v2h-2z"/><path data-cppathid="10024" d="m18 32h-2v3a1 1 0 0 0 1 1 18.43 18.43 0 0 0 9.555-3.168l-1.11-1.664a17.082 17.082 0 0 1 -7.445 2.782z"/><path data-cppathid="10025" d="m16 28h2v2h-2z"/></svg>