<?xml version="1.0" encoding="UTF-8"?>
<svg xmlns="http://www.w3.org/2000/svg" onmouseup="{ if(window.parent.document.onmouseup) window.parent.document.onmouseup(arguments[0]);}" width="512" viewBox="0 0 64 64" height="512" enable-background="new 0 0 64 64" id="_x33_0"><g><g><g><path data-cppathid="10000" fill="#b27946" d="m44 58-.81 3.24c-.11.45-.51.76-.97.76h-36.44c-.46 0-.86-.31-.97-.76l-.81-3.24z"/></g><g><path data-cppathid="10001" fill="#aab2bd" d="m62 9v42c0 .55-.45 1-1 1h-3v-44h3c.55 0 1 .45 1 1z"/></g><g><path data-cppathid="10002" fill="#d3a06c" d="m44 58h-40c-1.105 0-2-.895-2-2v-52c0-1.105.895-2 2-2h40c1.105 0 2 .895 2 2v52c0 1.105-.895 2-2 2z"/></g><g><path data-cppathid="10003" fill="#ccd1d9" d="m58 8v44h-12-6v-44h6z"/></g><g><path data-cppathid="10004" fill="#e6e9ed" d="m8 8h32v44h-32z"/></g><g><path data-cppathid="10005" fill="#a0d468" d="m30 8c0 1.96-.58 3.87-1.66 5.5l-.34.5h-4l-.21-.42c-.88-1.76-1.44-3.64-1.67-5.58-.08-.66-.12-1.33-.12-2 3 0 5 .5 6.25 1s1.75 1 1.75 1z"/></g><g><path data-cppathid="10006" fill="#e6e9ed" d="m2 14h4v14h-4z"/></g><g><path data-cppathid="10007" fill="#969faa" d="m10 14v14h-2-2v-14h2z"/></g><g><path data-cppathid="10008" fill="#b4dd7f" d="m23.79 13.58.21.42h-4l-1.95-3.9-.05-.1c.61-1.23 1.87-2 3.24-2h.88c.23 1.94.79 3.82 1.67 5.58z"/></g><g><path data-cppathid="10009" fill="#f0d0b4" d="m32 18c1.1 0 2 .9 2 2 0 .55-.22 1.05-.59 1.41-.36.37-.86.59-1.41.59 1.1 0 2 .9 2 2 0 .55-.22 1.05-.59 1.41-.36.37-.86.59-1.41.59h-2c1.1 0 2 .9 2 2 0 .55-.22 1.05-.59 1.41-.36.37-.86.59-1.41.59h-.4-11.13c-.02 0-.05 0-.07 0-2.92-.01-5.79-.69-8.4-2v-14c1.09-1.09 2.34-1.98 3.71-2.64 1.36-.66 2.83-1.08 4.34-1.26l1.95 3.9h4 4 4c1.1 0 2 .9 2 2 0 .55-.22 1.05-.59 1.41-.36.37-.86.59-1.41.59z"/></g><g><path data-cppathid="10010" fill="#b4dd7f" d="m18.47 30h11.13l4.13 5.16c1.47 1.84 2.27 4.12 2.27 6.48 0 2.86-1.16 5.45-3.04 7.32-1.87 1.88-4.46 3.04-7.32 3.04h-3.28c-5.72 0-10.36-4.64-10.36-10.36 0-2.36.8-4.64 2.27-6.48l4.13-5.16z"/></g></g><g><path data-cppathid="10011" d="m27 45v-3c0-1.654-1.346-3-3-3-.552 0-1-.448-1-1v-1h1c.552 0 1 .448 1 1v1h2v-1c0-1.302-.839-2.402-2-2.816v-2.184h-2v2h-2v3c0 1.654 1.346 3 3 3 .552 0 1 .448 1 1v1h-1c-.552 0-1-.448-1-1v-1h-2v1c0 1.302.839 2.402 2 2.816v2.184h2v-2z"/><path data-cppathid="10012" d="m61 7h-14v-3c0-1.654-1.346-3-3-3h-40c-1.654 0-3 1.346-3 3v52c0 1.371.93 2.518 2.188 2.874l.653 2.61c.222.893 1.02 1.516 1.94 1.516h36.438c.92 0 1.718-.623 1.94-1.516l.653-2.61c1.258-.356 2.188-1.503 2.188-2.874v-3h14c1.103 0 2-.897 2-2v-42c0-1.103-.897-2-2-2zm-37.967.021c3.503.15 5.293 1.043 5.954 1.465-.087 1.591-.595 3.122-1.483 4.455l-.039.059h-2.839c-.911-1.863-1.458-3.908-1.593-5.979zm8.967 9.979h-11v2h11c.552 0 1 .448 1 1s-.448 1-1 1h-11v2h11c.552 0 1 .448 1 1s-.448 1-1 1h-11v2h9c.552 0 1 .448 1 1s-.448 1-1 1h-11.528c-2.567 0-5.136-.569-7.472-1.638v-12.924c1.795-1.684 4.06-2.815 6.481-3.239l1.901 3.801h12.618c.552 0 1 .448 1 1s-.448 1-1 1zm-23 10h-2v-12h2zm11.618-14-1.477-2.953c.489-.655 1.256-1.047 2.095-1.047h.021c.234 1.372.625 2.718 1.167 4zm-3.304-3.8c-2.883.469-5.592 1.793-7.719 3.8h-.595v-4h8.432c-.044.063-.078.134-.118.2zm-12.314 17.8h-2v-12h2zm4 2h.768c2.08 1.008 4.341 1.646 6.642 1.887l-2.919 3.649c-1.605 2.008-2.49 4.528-2.49 7.1 0 3.883 1.96 7.314 4.939 9.364h-6.94zm4 12.636c0-2.118.729-4.196 2.053-5.85l3.829-4.786h10.237l3.829 4.786c1.323 1.653 2.052 3.732 2.052 5.85 0 5.163-4.201 9.364-9.364 9.364h-3.271c-5.164 0-9.365-4.201-9.365-9.364zm24 0c0-2.571-.885-5.092-2.49-7.1l-3.116-3.895c.95-.504 1.606-1.492 1.606-2.641 0-.395-.081-.77-.22-1.116 1.275-.346 2.22-1.501 2.22-2.884 0-.771-.301-1.468-.78-2 .48-.532.78-1.229.78-2s-.301-1.468-.78-2c.48-.532.78-1.229.78-2 0-1.654-1.346-3-3-3h-2.221c.645-1.247 1.042-2.6 1.17-4h8.051v42h-6.939c2.979-2.051 4.939-5.481 4.939-9.364zm4-32.636h16v42h-16zm-37-6h40c.552 0 1 .448 1 1v3h-14.642c-.85-.633-3.276-2-8.358-2h-1v1c0 .333.011.667.029 1h-14.029v6h-4v-9c0-.552.448-1 1-1zm1.78 58-.5-2h37.439l-.501 2zm39.22-5c0 .552-.448 1-1 1h-40c-.552 0-1-.448-1-1v-27h4v24h38zm16-5h-2v-42h2z"/></g></g></svg>