<?xml version="1.0" encoding="UTF-8"?>
<svg xmlns="http://www.w3.org/2000/svg" onmouseup="{ if(window.parent.document.onmouseup) window.parent.document.onmouseup(arguments[0]);}" xml:space="preserve" style="enable-background:new 0 0 486.986 486.986;" viewBox="0 0 486.986 486.986" y="0px" x="0px" id="Capa_1" version="1.1" xmlns:xlink="http://www.w3.org/1999/xlink"><g><path data-cppathid="10000" d="M406.761,136.359v182.857c-11.494-6.792-24.555-11.494-38.139-12.539V136.359H406.761z" style="fill:#00EFD1;"/><path data-cppathid="10001" d="M289.732,339.069V188.604h38.661v123.82c-14.629,5.747-27.69,15.151-37.094,27.69L289.732,339.069z" style="fill:#00EFD1;"/><rect data-cppathid="10002" height="180.767" width="38.661" style="fill:#00EFD1;" y="246.074" x="211.365"/><rect data-cppathid="10003" height="157.78" width="38.661" style="fill:#00EFD1;" y="269.584" x="132.475"/><rect data-cppathid="10004" height="71.576" width="38.661" style="fill:#00EFD1;" y="355.788" x="53.585"/></g><path data-cppathid="10005" d="M421.389,7.314C417.732,2.612,411.463,0,405.193,0l-58.514,2.612  c-6.269,0-11.494,5.224-11.494,11.494S340.41,25.6,346.679,25.6l43.363-2.612l-107.625,106.58l-37.094-38.139  c-2.09-2.09-1.567-3.657-6.792-3.657c-2.612,0.522-5.747,1.567-7.837,3.135L37.912,283.167c-4.18,3.657-4.18,9.926-0.522,14.106  l0.522,0.522c3.657,4.18,9.926,4.18,14.106,0.522l0.522-0.522l184.947-184.947l37.616,37.616c2.09,2.09,4.702,3.135,7.314,3.135  s5.747-1.045,7.314-3.135L404.671,35.527V80.98c0,6.269,4.18,11.494,10.449,12.539c6.269-1.045,10.449-6.269,10.449-12.539V19.331  C425.569,15.151,424.002,10.449,421.389,7.314L421.389,7.314z" style="fill:#00ACEA;"/><path data-cppathid="10006" d="M327.349,309.812c10.449-4.18,21.943-6.269,33.437-6.269h7.314  c14.106,1.045,27.69,5.224,39.706,12.539c43.363,26.122,57.469,82.547,31.347,126.433c-26.122,43.363-82.547,57.469-126.433,31.347  c-27.167-16.196-43.886-45.453-44.408-77.322c0-20.898,7.314-41.273,20.375-57.992C298.614,325.486,312.198,315.559,327.349,309.812  z" style="fill:#FEDB41;"/><path data-cppathid="10007" d="M392.132,375.641h-7.837c-0.522,0-1.045,0-2.09-5.224h9.926c5.747,0,10.449-4.702,10.449-10.449  c0-5.747-4.702-10.449-10.449-10.449h-59.559c-5.747,0-10.449,4.702-10.449,10.449c0,5.747,4.702,10.449,10.449,10.449h17.241  c4.18,0,8.359,5.224,10.971,5.224h-28.212c-5.747,0-10.449,4.702-10.449,10.449s4.702,10.449,10.449,10.449h27.69  c-2.612,3.135-6.269,4.702-10.449,4.702h-17.241c-4.18-0.522-7.837,2.09-9.404,5.747c-1.567,3.657-1.045,8.359,2.09,10.971  l42.841,40.229c2.09,1.567,4.702,2.612,7.314,2.612s5.224-1.045,7.314-3.135c4.18-3.657,4.18-9.926,0.522-14.106l-0.522-0.522  l-24.555-23.51c6.269-1.567,12.539-4.702,17.241-8.882c4.18-4.18,7.314-8.882,8.882-14.106h7.837  c5.747,0,10.449-4.702,10.449-10.449S397.879,375.641,392.132,375.641z" style="fill:#3BB54A;"/><g/><g/><g/><g/><g/><g/><g/><g/><g/><g/><g/><g/><g/><g/><g/></svg>