<?xml version="1.0" encoding="UTF-8"?>
<svg xmlns="http://www.w3.org/2000/svg" onmouseup="{ if(window.parent.document.onmouseup) window.parent.document.onmouseup(arguments[0]);}" xml:space="preserve" style="enable-background:new 0 0 512.001 512.001;" viewBox="0 0 512.001 512.001" y="0px" x="0px" id="Capa_1" version="1.1" xmlns:xlink="http://www.w3.org/1999/xlink"><path data-cppathid="10000" d="M90.609,18.417C68.801,26.09,57.48,50.118,65.449,71.82l139.188,378.764  c12.3,33.498,49.425,51.438,82.894,39.058c33.771-12.492,50.785-50.41,37.313-84.092c-12.461-31.153-47.539-47.553-79.443-37.163  c-7.653,2.492-14.48,6.286-20.37,11.021L90.609,18.417L90.609,18.417z M255.06,401.665c15.337-5.631,32.335,2.237,37.966,17.573  c5.631,15.337-2.237,32.335-17.573,37.966c-15.337,5.631-32.335-2.237-37.966-17.573  C231.855,424.294,239.723,407.297,255.06,401.665z" style="fill:#2D5872;"/><path data-cppathid="10001" d="M324.843,405.55c-12.461-31.153-47.539-47.553-79.443-37.163c-1.913,0.623-3.775,1.328-5.583,2.108  c-2.712,1.17-5.305,2.511-7.771,4.003c-0.822,0.497-1.63,1.011-2.424,1.542c-1.588,1.06-3.119,2.185-4.591,3.369L90.61,18.417l0,0  c-0.791,0.278-1.564,0.584-2.327,0.905c-0.228,0.096-0.451,0.199-0.677,0.298c-0.547,0.241-1.088,0.492-1.62,0.754  c-0.229,0.113-0.457,0.227-0.683,0.344c-0.578,0.299-1.147,0.61-1.706,0.934c-0.142,0.082-0.286,0.159-0.427,0.242  c-0.722,0.429-1.429,0.875-2.117,1.343c-0.022,0.015-0.043,0.031-0.064,0.046c-0.656,0.448-1.293,0.915-1.918,1.396  c-0.123,0.095-0.243,0.192-0.365,0.287c-0.547,0.431-1.082,0.875-1.604,1.331c-0.098,0.085-0.197,0.17-0.294,0.256  c-1.253,1.117-2.434,2.3-3.534,3.549l0,0l140.521,378.523c0.723-0.581,1.461-1.147,2.212-1.7  c10.309-12.468,25.894-20.413,43.336-20.413c31.041,0,56.205,25.164,56.205,56.205c0,17.756-8.243,33.579-21.1,43.879  C323.551,471.78,337.36,436.843,324.843,405.55z" style="fill:#1D4859;"/><path data-cppathid="10002" d="M493.083,321.037H41.271c-6.458,0-11.693-5.235-11.693-11.693V83.513  c0-6.458,5.235-11.693,11.693-11.693h451.812c6.458,0,11.693,5.235,11.693,11.693v225.831  C504.776,315.802,499.541,321.037,493.083,321.037z" style="fill:#77DD00;"/><g><path data-cppathid="10003" d="M92.126,253.781c-20.344-0.329-34.125-11.321-34.125-19.36c0-3.938,3.445-9.352,7.547-9.352   c5.414,0,9.844,11.485,26.579,12.797V199.31c-14.766-5.25-31.172-11.157-31.172-32.157c0-20.673,15.586-28.875,31.172-30.516   v-4.758c0-1.969,1.969-3.774,4.758-3.774c2.461,0,4.922,1.805,4.922,3.774v4.43c11.157,0.328,26.907,3.774,26.907,11.813   c0,3.117-2.297,9.352-7.219,9.352c-3.937,0-8.203-5.25-19.688-6.07v33.305c14.274,5.25,29.86,12.469,29.86,34.782   c0,20.18-12.141,31.337-29.86,33.798v5.578c0,1.969-2.461,3.773-4.922,3.773c-2.789,0-4.758-1.805-4.758-3.773L92.126,253.781   L92.126,253.781z M93.111,181.591v-29.86c-9.188,1.148-15.75,5.25-15.75,13.781C77.36,174.864,84.415,178.31,93.111,181.591z    M100.822,202.92v34.618c8.86-1.641,14.438-6.891,14.438-16.243C115.26,210.959,108.861,206.365,100.822,202.92z" style="fill:#FFFFFF;"/><path data-cppathid="10004" d="M294.063,162.545H256.93c-2.712,0-4.131,2.664-4.131,5.295c0,3.12,1.737,5.385,4.131,5.385h12.869   v52.597c0,2.433,2.361,4.132,5.742,4.132c2.854,0,5.743-1.419,5.743-4.132v-52.597h12.779c2.433,0,4.132-2.251,4.132-5.475   C298.194,165.243,296.901,162.545,294.063,162.545z" style="fill:#FFFFFF;"/><path data-cppathid="10005" d="M352.539,165.913c-0.791-2.372-3.552-3.905-7.033-3.905c-3.427,0-6.153,1.533-6.951,3.928   l-17.798,57.958c-0.142,0.423-0.142,0.811-0.142,1.122c0,2.91,3.64,4.938,6.906,4.938c2.835,0,3.884-1.452,4.271-2.691   l3.459-11.982h20.597l3.466,12.004c0.539,1.722,2.022,2.67,4.176,2.67c3.302,0,6.995-2.111,6.995-4.938   c0-0.43-0.127-0.813-0.222-1.097L352.539,165.913z M337.891,205.673l7.615-26.117l7.615,26.117H337.891z" style="fill:#FFFFFF;"/><path data-cppathid="10006" d="M444.071,222.185l-15.188-25.986l14.752-25.814c0.558-1.006,0.841-1.952,0.841-2.813   c0-3.12-3.639-5.295-6.905-5.295c-1.903,0-3.495,1.157-4.457,3.205l-11.644,21.29l-11.469-21.279   c-1.407-2.659-3.204-3.217-4.463-3.217c-3.309,0-6.995,2.175-6.995,5.295c0,0.86,0.283,1.807,0.848,2.823l14.746,25.804   l-15.219,26.044c-0.432,0.865-0.643,1.626-0.643,2.326c0,3.132,3.876,5.653,7.085,5.653c1.501,0,2.925-0.964,3.918-2.666   l12.193-22.215l12.343,22.181c0.653,1.306,2.006,2.7,3.847,2.7c3.317,0,7.174-2.47,7.174-5.653   C444.835,223.853,444.542,223.121,444.071,222.185z" style="fill:#FFFFFF;"/></g><path data-cppathid="10007" d="M493.083,71.82h-33.229v217.664c0,6.458-5.235,11.693-11.693,11.693H29.578v8.167  c0,6.458,5.235,11.693,11.693,11.693h451.812c6.458,0,11.693-5.235,11.693-11.693V83.513  C504.776,77.055,499.541,71.82,493.083,71.82z" style="fill:#73CC00;"/><path data-cppathid="10008" d="M246.112,18.417L111.69,379.408c-5.89-4.735-12.717-8.529-20.37-11.021  c-31.903-10.39-66.982,6.01-79.443,37.163c-13.472,33.681,3.542,71.6,37.313,84.092c33.469,12.38,70.594-5.56,82.894-39.058  L271.272,71.82C279.241,50.118,267.921,26.09,246.112,18.417L246.112,18.417z M99.235,439.631  c-5.631,15.337-22.629,23.205-37.966,17.573c-15.337-5.631-23.205-22.629-17.573-37.966c5.631-15.337,22.629-23.205,37.966-17.573  C96.998,407.297,104.866,424.294,99.235,439.631z" style="fill:#2D5872;"/><path data-cppathid="10009" d="M249.784,19.914c6.463,10.454,8.25,23.664,3.678,36.114L114.274,434.792  c-12.3,33.498-49.425,51.438-82.894,39.058c-3.785-1.4-7.346-3.135-10.69-5.132c7.108,9.205,16.795,16.594,28.501,20.924  c33.469,12.38,70.594-5.559,82.894-39.058L271.272,71.82C278.78,51.373,269.161,28.867,249.784,19.914z" style="fill:#1D4859;"/><path data-cppathid="10010" d="M84.151,394.883c-19.052-6.995-40.243,2.812-47.238,21.865c-3.389,9.229-2.98,19.226,1.15,28.148  s11.487,15.702,20.716,19.09c4.171,1.532,8.444,2.258,12.649,2.258c15,0,29.126-9.242,34.589-24.123  c3.389-9.229,2.98-19.226-1.15-28.148S93.38,398.272,84.151,394.883z M92.452,437.141c-4.249,11.573-17.122,17.528-28.694,13.282  c-5.606-2.058-10.075-6.177-12.583-11.596c-2.508-5.42-2.756-11.492-0.698-17.098s6.176-10.075,11.596-12.583  c2.991-1.385,6.179-2.081,9.379-2.081c2.599,0,5.206,0.46,7.718,1.382c5.606,2.058,10.075,6.177,12.583,11.596  C94.263,425.463,94.511,431.535,92.452,437.141z"/><path data-cppathid="10011" d="M504.776,248.688c3.99,0,7.225-3.234,7.225-7.225V83.514c0-10.432-8.486-18.918-18.918-18.918h-212.55  c1.401-9.403,0.011-19.009-4.139-27.817c-5.596-11.878-15.5-20.818-27.885-25.176c-3.718-1.306-7.794,0.603-9.168,4.294  l-18.134,48.699H115.514l-18.134-48.7c-1.374-3.691-5.453-5.599-9.168-4.294c-12.386,4.357-22.288,13.299-27.885,25.177  c-4.15,8.807-5.539,18.413-4.139,27.817H41.271c-10.431,0-18.918,8.486-18.918,18.918v225.831c0,10.432,8.486,18.918,18.918,18.918  h81.755l-14.859,39.903c-4.589-2.751-9.476-4.976-14.61-6.648c-35.647-11.607-74.47,6.554-88.388,41.35  c-7.228,18.07-6.865,37.799,1.022,55.554c7.889,17.762,22.27,31.257,40.492,37.997c7.925,2.931,16.164,4.39,24.405,4.39  c10.153-0.001,20.307-2.216,29.857-6.624c17.722-8.177,31.189-22.777,37.92-41.109l29.494-80.261l29.494,80.26  c6.731,18.333,20.198,32.933,37.919,41.11c9.552,4.407,19.704,6.624,29.858,6.624c8.239,0,16.481-1.459,24.405-4.39  c18.223-6.74,32.603-20.234,40.493-37.996c7.887-17.755,8.25-37.484,1.022-55.554c-13.918-34.796-52.746-52.957-88.388-41.35  c-5.134,1.672-10.021,3.897-14.61,6.648l-14.859-39.903h279.389c10.431,0,18.918-8.486,18.918-18.918v-21.882  c0-3.991-3.235-7.225-7.225-7.225c-3.99,0-7.225,3.234-7.225,7.225v21.882c0,2.464-2.004,4.468-4.468,4.468H203.295h-13.252  l86.272-234.768h216.768c2.464,0,4.468,2.005,4.468,4.468v157.95C497.551,245.454,500.786,248.688,504.776,248.688z M73.398,42.937  c2.909-6.173,7.471-11.218,13.17-14.667l13.527,36.325H70.862C69.311,57.324,70.171,49.787,73.398,42.937z M41.271,313.813  c-2.464,0-4.468-2.005-4.468-4.468V83.514c0-2.464,2.004-4.468,4.468-4.468h116.042v19.248c0,3.991,3.235,7.225,7.225,7.225  s7.225-3.234,7.225-7.225V79.045h44.064L171.762,197.38v-53.669c0-3.991-3.235-7.225-7.225-7.225s-7.225,3.234-7.225,7.225v92.474  l-28.906,77.627L41.271,313.813L41.271,313.813z M198.276,328.262l19.984,53.667c0.81,2.175,2.615,3.829,4.853,4.445  c2.238,0.612,4.635,0.119,6.444-1.335c5.404-4.344,11.487-7.635,18.081-9.782c28.431-9.259,59.397,5.226,70.498,32.976  c5.768,14.42,5.479,30.16-0.811,44.323c-6.294,14.169-17.765,24.933-32.301,30.309c-14.064,5.202-29.405,4.562-43.196-1.801  c-14.211-6.557-25.01-18.266-30.41-32.972l-35.36-96.223l8.675-23.606h13.543V328.262z M264.491,69.328L125.303,448.094  c-5.399,14.705-16.199,26.414-30.41,32.971c-13.793,6.365-29.133,7.004-43.195,1.801c-14.535-5.376-26.007-16.141-32.3-30.31  c-6.291-14.163-6.579-29.903-0.811-44.323c8.834-22.085,30.249-35.767,52.957-35.767c5.825,0,11.736,0.9,17.541,2.791  c6.594,2.147,12.677,5.438,18.08,9.782c1.809,1.453,4.206,1.948,6.444,1.335c2.238-0.616,4.044-2.27,4.853-4.445l21.735-58.368  c0-0.001,0.001-0.002,0.001-0.002L250.153,28.27c5.699,3.449,10.262,8.494,13.17,14.667  C267.258,51.289,267.673,60.662,264.491,69.328z"/><path data-cppathid="10012" d="M265.294,466.244c4.204,0,8.479-0.726,12.649-2.258c9.229-3.389,16.587-10.168,20.716-19.09  c4.13-8.922,4.538-18.919,1.149-28.148c-6.996-19.053-28.186-28.864-47.239-21.865c-19.051,6.996-28.86,28.187-21.865,47.238  C236.169,457.003,250.292,466.244,265.294,466.244z M257.55,408.447c2.534-0.929,5.129-1.371,7.683-1.371  c9.112,0,17.691,5.614,21.01,14.653c2.059,5.606,1.811,11.678-0.698,17.098c-2.508,5.42-6.977,9.538-12.583,11.596  c-11.573,4.245-24.444-1.71-28.694-13.282C240.02,425.569,245.978,412.697,257.55,408.447z"/><g/><g/><g/><g/><g/><g/><g/><g/><g/><g/><g/><g/><g/><g/><g/></svg>