<?xml version="1.0" encoding="UTF-8"?>
<svg xmlns="http://www.w3.org/2000/svg" onmouseup="{ if(window.parent.document.onmouseup) window.parent.document.onmouseup(arguments[0]);}" width="512" viewBox="0 0 512 512" height="512" id="Filled"><path data-cppathid="10000" fill="#e9eef2" d="m256 24h-232v464h336v-360z"/><path data-cppathid="10001" fill="#dadcde" d="m256 24 104 104h-104z"/><path data-cppathid="10002" fill="#ffb632" d="m232 456h128v32h-128z"/><path data-cppathid="10003" fill="#ffd33a" d="m216 424h128v32h-128z"/><path data-cppathid="10004" fill="#ffb632" d="m232 392h128v32h-128z"/><path data-cppathid="10005" fill="#ffd33a" d="m360 456h128v32h-128z"/><path data-cppathid="10006" fill="#ffb632" d="m344 424h128v32h-128z"/><path data-cppathid="10007" fill="#ffd33a" d="m360 392h128v32h-128z"/><path data-cppathid="10008" fill="#ffb632" d="m328 360h128v32h-128z"/><circle data-cppathid="10009" r="56" fill="#ffd33a" cy="304" cx="400"/><path data-cppathid="10010" d="m24 496h464a8 8 0 0 0 8-8v-32a8 8 0 0 0 -8-8h-8v-16h8a8 8 0 0 0 8-8v-32a8 8 0 0 0 -8-8h-24v-24a8 8 0 0 0 -8-8h-13.736a63.956 63.956 0 0 0 -74.264-103.39v-120.61a8 8 0 0 0 -2.343-5.657l-104-104a8 8 0 0 0 -5.657-2.343h-232a8 8 0 0 0 -8 8v464a8 8 0 0 0 8 8zm200-48v-16h112v16zm16-32v-16h112v16zm112 64h-112v-16h112zm0-32v-16h112v16zm128 32h-112v-16h112zm0-80v16h-112v-16zm-32-32v16h-112v-16zm-48-112a48 48 0 1 1 -48 48 48.055 48.055 0 0 1 48-48zm-136-212.687 76.687 76.687h-76.687zm-232-11.313h216v96a8 8 0 0 0 8 8h96v125.736a63.846 63.846 0 0 0 5.736 90.264h-29.736a8 8 0 0 0 -8 8v24h-88a8 8 0 0 0 -8 8v24h-8a8 8 0 0 0 -8 8v32a8 8 0 0 0 8 8h8v16h-192z"/><path data-cppathid="10011" d="m64 216h256a8 8 0 0 0 0-16h-256a8 8 0 0 0 0 16z"/><path data-cppathid="10012" d="m64 256h256a8 8 0 0 0 0-16h-256a8 8 0 0 0 0 16z"/><path data-cppathid="10013" d="m64 296h240a8 8 0 0 0 0-16h-240a8 8 0 0 0 0 16z"/><path data-cppathid="10014" d="m312 328a8 8 0 0 0 -8-8h-240a8 8 0 0 0 0 16h240a8 8 0 0 0 8-8z"/><path data-cppathid="10015" d="m176 368a8 8 0 0 0 -8-8h-104a8 8 0 0 0 0 16h104a8 8 0 0 0 8-8z"/><path data-cppathid="10016" d="m64 176h136a8 8 0 0 0 0-16h-128v-4.687l24-24 10.343 10.344a8 8 0 0 0 11.314 0l26.343-26.344 10.343 10.344a8 8 0 0 0 11.314 0l26.343-26.344v4.687a8 8 0 0 0 16 0v-24a8 8 0 0 0 -8-8h-24a8 8 0 0 0 0 16h4.687l-20.687 20.687-10.343-10.344a8 8 0 0 0 -11.314 0l-26.343 26.344-10.343-10.344a8 8 0 0 0 -11.314 0l-18.343 18.344v-60.687a8 8 0 0 0 -16 0v96a8 8 0 0 0 8 8z"/><path data-cppathid="10017" d="m384 320a8 8 0 0 0 8 8 8 8 0 0 0 16 0v-2.165a15.986 15.986 0 0 0 -8-29.835h8a8 8 0 0 0 0-16 8 8 0 0 0 -16 0v2.165a15.986 15.986 0 0 0 8 29.835h-8a8 8 0 0 0 -8 8z"/></svg>