<?xml version="1.0" encoding="UTF-8"?>
<svg xmlns="http://www.w3.org/2000/svg" onmouseup="{ if(window.parent.document.onmouseup) window.parent.document.onmouseup(arguments[0]);}" width="512" viewBox="0 0 512 512" height="512" enable-background="new 0 0 512 512" id="Capa_1"><g id="Company"><path data-cppathid="10000" fill="#4db5ff" d="m128 16h256v480h-256z"/><path data-cppathid="10001" fill="#4d7cff" d="m128 105.6v390.4h32v-416z"/><path data-cppathid="10002" fill="#4d7cff" d="m352 208v288h32v-262.4z"/><path data-cppathid="10003" fill="#80eaff" d="m0 208v288h128v-390.4z"/><path data-cppathid="10004" fill="#80eaff" d="m384 233.6v262.4h128v-160z"/><g fill="#4db5ff"><path data-cppathid="10005" d="m448 368h64v32h-64z"/><path data-cppathid="10006" d="m448 432h64v32h-64z"/><path data-cppathid="10007" d="m0 368h64v32h-64z"/><path data-cppathid="10008" d="m0 304h64v32h-64z"/><path data-cppathid="10009" d="m0 240h64v32h-64z"/></g><path data-cppathid="10010" fill="#80eaff" d="m192 80h128v32h-128z"/><path data-cppathid="10011" fill="#80eaff" d="m192 144h128v32h-128z"/><path data-cppathid="10012" fill="#80eaff" d="m192 208h128v32h-128z"/><path data-cppathid="10013" fill="#80eaff" d="m192 272h128v32h-128z"/><path data-cppathid="10014" fill="#80eaff" d="m192 336h128v32h-128z"/><path data-cppathid="10015" fill="#4db5ff" d="m0 432h64v32h-64z"/><path data-cppathid="10016" fill="#80eaff" d="m224 432h64v64h-64z"/></g></svg>