<?xml version="1.0" encoding="UTF-8"?>
<svg xmlns="http://www.w3.org/2000/svg" onmouseup="{ if(window.parent.document.onmouseup) window.parent.document.onmouseup(arguments[0]);}" width="512" viewBox="0 0 512 512" height="512"><g data-name="Fill out line" id="Fill_out_line"><path data-cppathid="10000" fill="#966342" d="m344 88v-24a16 16 0 0 0 -16-16h-32v40z"/><path data-cppathid="10001" fill="#ad7d4d" d="m416 448h-128a72 72 0 0 1 -72-72v-.00014a320.18968 320.18968 0 0 1 30.82216-137.06886l28.17433-59.47915a48 48 0 0 1 43.37942-27.45185h67.24818a48 48 0 0 1 43.37942 27.45186l28.17433 59.47914a320.18968 320.18968 0 0 1 30.82216 137.06886v.00014a72 72 0 0 1 -72 72z"/><rect data-cppathid="10002" y="120" x="304" width="96" rx="16" height="32" fill="#396795"/><path data-cppathid="10003" fill="#ad7d4d" d="m424 64v24a32.00409 32.00409 0 0 1 -32 32h-80a32.00409 32.00409 0 0 1 -32-32v-24a16 16 0 1 1 32 0 24.002 24.002 0 0 0 24 24h8a24.00619 24.00619 0 0 0 24-24 15.97833 15.97833 0 0 1 16-16h24a15.99548 15.99548 0 0 1 16 16z"/><path data-cppathid="10004" fill="#349966" d="m280 320h208v72h-208z"/><path data-cppathid="10005" fill="#4ba477" d="m280 320h96v72h-96z"/><path data-cppathid="10006" fill="#eebe33" d="m416 320h32v72h-32z"/><path data-cppathid="10007" fill="#349966" d="m280 392h208v72h-208z"/><path data-cppathid="10008" fill="#4ba477" d="m280 392h96v72h-96z"/><path data-cppathid="10009" fill="#eebe33" d="m416 392h32v72h-32z"/><path data-cppathid="10010" fill="#8acce7" d="m280 208v232a24.01569 24.01569 0 0 1 -24 24h-184v-256a15.99548 15.99548 0 0 1 16-16h176a15.99548 15.99548 0 0 1 16 16z"/><path data-cppathid="10011" fill="#8acce7" d="m232 440a24 24 0 0 0 24 24h-208a24 24 0 0 1 -24-24v-8a16 16 0 0 1 16-16h176a16 16 0 0 1 16 16z"/><circle data-cppathid="10012" r="16" fill="#e88604" cy="232" cx="240"/><path data-cppathid="10013" d="m298.37012 125.61a23.94331 23.94331 0 0 0 .57983 21.9 56.18048 56.18048 0 0 0 -25.34985 18.85l12.7998 9.61a40.17734 40.17734 0 0 1 31.98-15.97h67.24024a40.16992 40.16992 0 0 1 36.14986 22.88l28.18 59.48a313.128 313.128 0 0 1 20.1501 55.64l15.49-4a329.59361 329.59361 0 0 0 -21.18018-58.49l-28.17992-59.48a56.1951 56.1951 0 0 0 -31.17993-28.52 23.94331 23.94331 0 0 0 .57983-21.9 40.06128 40.06128 0 0 0 26.3701-37.61v-24a24.03189 24.03189 0 0 0 -24-24h-24a24.03189 24.03189 0 0 0 -24 24 15.97389 15.97389 0 0 1 -8 13.84v-13.84a24.03189 24.03189 0 0 0 -24-24h-32a24.03189 24.03189 0 0 0 -24 24v24a40.06128 40.06128 0 0 0 26.37012 37.61zm85.62988 18.39h-64a8 8 0 0 1 0-16h64a8 8 0 0 1 0 16zm-56-88a8.01066 8.01066 0 0 1 8 8v16a16.02116 16.02116 0 0 1 -16-16 23.59674 23.59674 0 0 0 -1.37988-8zm-40 8a8 8 0 0 1 16 0 32.036 32.036 0 0 0 32 32h8a32.036 32.036 0 0 0 32-32 8.01066 8.01066 0 0 1 8-8h24a8.01066 8.01066 0 0 1 8 8v24a24.03189 24.03189 0 0 1 -24 24h-4.25a47.75219 47.75219 0 0 0 12.25-32v-8h-16v8a32.036 32.036 0 0 1 -32 32h-40a24.03189 24.03189 0 0 1 -24-24z"/><path data-cppathid="10014" d="m384 216v-4a28.03536 28.03536 0 0 0 -24-27.71v-16.29h-16v16.29a27.99847 27.99847 0 0 0 4 55.71h8a12 12 0 0 1 0 24h-8a12.00943 12.00943 0 0 1 -12-12v-4h-16v4a28.03545 28.03545 0 0 0 24 27.71v16.29h16v-16.29a27.99847 27.99847 0 0 0 -4-55.71h-8a12 12 0 0 1 0-24h8a12.00943 12.00943 0 0 1 12 12v4z"/><path data-cppathid="10015" d="m488 312h-208a7.99782 7.99782 0 0 0 -8 8v144a7.9979 7.9979 0 0 0 8 8h208a7.9979 7.9979 0 0 0 8-8v-144a7.99782 7.99782 0 0 0 -8-8zm-120 96h-64a8 8 0 0 0 0 16h64v8h-64a8 8 0 0 0 0 16h64v8h-80v-56h80zm0-72h-64a8 8 0 0 0 0 16h64v8h-64a8 8 0 0 0 0 16h64v8h-80v-56h80zm40 120h-24v-8h8a8 8 0 0 0 0-16h-8v-8h8a8 8 0 0 0 0-16h-8v-8h24zm0-72h-24v-8h8a8 8 0 0 0 0-16h-8v-8h8a8 8 0 0 0 0-16h-8v-8h24zm32 72h-16v-56h16zm0-72h-16v-56h16zm40 72h-24v-8h8a8 8 0 0 0 0-16h-8v-8h8a8 8 0 0 0 0-16h-8v-8h24zm0-72h-24v-8h8a8 8 0 0 0 0-16h-8v-8h8a8 8 0 0 0 0-16h-8v-8h24z"/><path data-cppathid="10016" d="m255.96662 456.00007a15.9646 15.9646 0 0 1 -15.96662-16.00007v-8a24 24 0 0 0 -24-24h-176a24 24 0 0 0 -24 24v8a32 32 0 0 0 32 32h207.71181a8.19229 8.19229 0 0 0 8.26246-7.34982 8.00114 8.00114 0 0 0 -8.00765-8.65011zm-207.96662-.00007a16 16 0 0 1 -16-16v-8a8 8 0 0 1 8-8h176a8 8 0 0 1 8 8v8a31.80424 31.80424 0 0 0 4.29492 16z"/><path data-cppathid="10017" d="m88 200h176a8 8 0 0 1 8 8v88h16v-88a24 24 0 0 0 -24-24h-176a24 24 0 0 0 -24 24v184h16v-184a8 8 0 0 1 8-8z"/><path data-cppathid="10018" d="m96 216h32v16h-32z"/><path data-cppathid="10019" d="m144 216h16v16h-16z"/><path data-cppathid="10020" d="m128 264h32v16h-32z"/><path data-cppathid="10021" d="m176 264h80v16h-80z"/><path data-cppathid="10022" d="m96 296h32v16h-32z"/><path data-cppathid="10023" d="m144 296h64v16h-64z"/><path data-cppathid="10024" d="m224 296h32v16h-32z"/><path data-cppathid="10025" d="m96 328h64v16h-64z"/><path data-cppathid="10026" d="m176 328h80v16h-80z"/><path data-cppathid="10027" d="m96 360h48v16h-48z"/><path data-cppathid="10028" d="m240 208a24 24 0 1 0 24 24 24.02718 24.02718 0 0 0 -24-24zm0 32a8 8 0 1 1 8-8 8.00917 8.00917 0 0 1 -8 8z"/></g></svg>