<?xml version="1.0" encoding="UTF-8"?>
<svg xmlns="http://www.w3.org/2000/svg" onmouseup="{ if(window.parent.document.onmouseup) window.parent.document.onmouseup(arguments[0]);}" width="512" viewBox="0 0 64 64" height="512" enable-background="new 0 0 64 64" id="Layer_3"><g><path data-cppathid="10000" d="m11 49h-2v2h-1c-.404 0-.77.244-.924.617-.155.374-.069.804.217 1.09l2.293 2.293h-2.586v2h2v2h2v-2h1c.404 0 .77-.244.924-.617.155-.374.069-.804-.217-1.09l-2.293-2.293h2.586v-2h-2z"/><path data-cppathid="10001" d="m17 57.184v-5.184c0-3.015-1.92-5.583-4.599-6.567l1.493-2.986c.155-.31.139-.678-.044-.973-.182-.294-.503-.474-.85-.474h-6c-.347 0-.668.18-.851.474-.183.295-.199.663-.044.973l1.493 2.986c-2.678.984-4.598 3.552-4.598 6.567v5.184c-1.161.414-2 1.514-2 2.816 0 1.654 1.346 3 3 3h12c1.654 0 3-1.346 3-3 0-1.302-.839-2.402-2-2.816zm-8.382-14.184h2.764l-1.009 2.019c-.125-.007-.247-.019-.373-.019s-.248.012-.372.019zm7.382 18h-12c-.552 0-1-.449-1-1s.448-1 1-1h2v-2h-1v-5c0-2.757 2.243-5 5-5s5 2.243 5 5v5h-1v2h2c.552 0 1 .449 1 1s-.448 1-1 1z"/><path data-cppathid="10002" d="m29 49h-2v2h-1c-.404 0-.77.244-.924.617-.155.374-.069.804.217 1.09l2.293 2.293h-2.586v2h2v2h2v-2h1c.404 0 .77-.244.924-.617.155-.374.069-.804-.217-1.09l-2.293-2.293h2.586v-2h-2z"/><path data-cppathid="10003" d="m35 57.184v-5.184c0-3.015-1.92-5.583-4.599-6.567l1.493-2.986c.155-.31.139-.678-.044-.973-.182-.294-.503-.474-.85-.474h-6c-.347 0-.668.18-.851.474-.183.295-.199.663-.044.973l1.493 2.986c-2.678.984-4.598 3.552-4.598 6.567v5.184c-1.161.414-2 1.514-2 2.816 0 1.654 1.346 3 3 3h12c1.654 0 3-1.346 3-3 0-1.302-.839-2.402-2-2.816zm-8.382-14.184h2.764l-1.009 2.019c-.125-.007-.247-.019-.373-.019s-.248.012-.372.019zm7.382 18h-12c-.552 0-1-.449-1-1s.448-1 1-1h2v-2h-1v-5c0-2.757 2.243-5 5-5s5 2.243 5 5v5h-1v2h2c.552 0 1 .449 1 1s-.448 1-1 1z"/><path data-cppathid="10004" d="m39 9h2v2h-2z"/><path data-cppathid="10005" d="m39 1h2v2h-2z"/><path data-cppathid="10006" d="m39 17h2v2h-2z"/><path data-cppathid="10007" d="m39 5h2v2h-2z"/><path data-cppathid="10008" d="m39 13h2v2h-2z"/><path data-cppathid="10009" d="m39 45h2v2h-2z"/><path data-cppathid="10010" d="m39 37h2v2h-2z"/><path data-cppathid="10011" d="m39 33h2v2h-2z"/><path data-cppathid="10012" d="m39 41h2v2h-2z"/><path data-cppathid="10013" d="m39 29h2v2h-2z"/><path data-cppathid="10014" d="m39 49h2v2h-2z"/><path data-cppathid="10015" d="m39 57h2v2h-2z"/><path data-cppathid="10016" d="m39 53h2v2h-2z"/><path data-cppathid="10017" d="m39 61h2v2h-2z"/><path data-cppathid="10018" d="m62 1h-10v2h7.586l-18.586 18.586v-.586h-2v2h.586l-4 4h-11.586c-.266 0-.52.105-.707.293l-9.707 9.707h-12.586v2h13c.266 0 .52-.105.707-.293l9.707-9.707h11.586c.266 0 .52-.105.707-.293l2.293-2.293v.586h2v-2h-.586l20.586-20.586v7.586h2v-10c0-.552-.447-1-1-1z"/></g></svg>