<?xml version="1.0" encoding="UTF-8"?>
<svg xmlns="http://www.w3.org/2000/svg" onmouseup="{ if(window.parent.document.onmouseup) window.parent.document.onmouseup(arguments[0]);}" width="512" viewBox="0 0 510.593 510.593" height="512" enable-background="new 0 0 510.593 510.593" id="Layer_1"><g><g><g><g><g><path data-cppathid="10000" fill="#ffb69e" d="m80.162 105.265-.562 3.869c-1.731 11.921 7.514 22.605 19.561 22.605 12.378 0 21.711-11.248 19.426-23.414l-.575-3.061h-37.85z"/><g id="XMLID_629_"><path data-cppathid="10001" fill="#414b82" d="m126.265 498c-12.774 0-23.13-10.356-23.13-23.13v-184.884c0-12.775 10.356-23.13 23.13-23.13s23.13 10.356 23.13 23.13v184.884c0 12.774-10.355 23.13-23.13 23.13z"/></g><g id="XMLID_628_"><path data-cppathid="10002" fill="#5f6e9b" d="m70.01 498c-12.774 0-23.13-10.356-23.13-23.13v-184.884c0-12.775 10.356-23.13 23.13-23.13s23.13 10.356 23.13 23.13v184.884c.001 12.774-10.355 23.13-23.13 23.13z"/></g><ellipse data-cppathid="10003" transform="matrix(.055 -.999 .999 .055 40.212 147.666)" ry="39.949" rx="39.949" fill="#ffb69e" cy="52.583" cx="98.141"/><path data-cppathid="10004" fill="#ffb69e" d="m0 199.041v93.316c0 10.646 8.63 19.276 19.275 19.276s19.275-8.63 19.275-19.276v-93.316l-15.678-12.26z"/><path data-cppathid="10005" fill="#64afff" d="m157.655 150.784h38.553v-.036c0-.033 0-.064-.001-.097-.125-25.026-20.907-45.386-46.326-45.386h-31.869c.04 9.951-9.257 18.302-18.959 18.302-10.398 0-18.135-8.322-18.891-18.302h-33.761c-25.46 0-46.275 20.36-46.401 45.386v.097 48.293h38.551v-48.223c.036-3.669 3.77-7.003 7.85-7.003h.479v146.171h102.515l-.179-146.171h.665c4.029.001 7.715 3.314 7.774 6.969z"/></g></g></g></g><g><g><g><g><path data-cppathid="10006" fill="#80391b" d="m237.436 107.09-.559 3.851c-1.722 11.865 7.479 22.498 19.468 22.498 12.32 0 21.608-11.195 19.334-23.303l-.572-3.046z"/><g id="XMLID_627_"><path data-cppathid="10007" fill="#55696e" d="m283.321 497.959c-12.714 0-23.02-10.306-23.02-23.02v-184.006c0-12.714 10.307-23.02 23.02-23.02s23.02 10.306 23.02 23.02v184.005c0 12.714-10.307 23.021-23.02 23.021z"/></g><g id="XMLID_626_"><path data-cppathid="10008" fill="#748488" d="m227.333 497.959c-12.714 0-23.02-10.306-23.02-23.02v-184.006c0-12.714 10.307-23.02 23.02-23.02s23.02 10.306 23.02 23.02v184.005c.001 12.714-10.306 23.021-23.02 23.021z"/></g><ellipse data-cppathid="10009" transform="matrix(.055 -.999 .999 .055 186.636 306.576)" ry="39.759" rx="39.759" fill="#80391b" cy="54.658" cx="255.33"/><path data-cppathid="10010" fill="#80391b" d="m157.656 200.42v92.872c0 10.595 8.589 19.184 19.184 19.184s19.184-8.589 19.184-19.184v-92.872l-15.604-12.202z"/><path data-cppathid="10011" fill="#e64937" d="m314.563 152.42s37.055-.796 37.055-.828c-.125-24.908-19.496-44.502-44.794-44.502h-31.718c.04 9.903-9.213 18.215-18.869 18.215-10.348 0-18.049-8.282-18.801-18.215h-33.6c-25.339 0-46.055 20.263-46.18 45.171-.001.032-.001.064-.001.096v48.063h38.368v-47.993c.036-3.651 3.752-6.969 7.813-6.969h.477v145.476h102.028l-.178-145.476h.662c4.019 0 7.698 3.314 7.738 6.962z"/></g></g></g></g><g><g><g><g><path data-cppathid="10012" fill="#ba6746" d="m394.547 105.223-.562 3.869c-1.731 11.921 7.514 22.605 19.561 22.605 12.378 0 21.711-11.248 19.426-23.414l-.575-3.061h-37.85z"/><path data-cppathid="10013" fill="#ba6746" d="m472.042 198.999v93.316c0 10.646 8.63 19.276 19.275 19.276s19.275-8.63 19.275-19.276v-93.316l-19.275-5.11z"/><g id="XMLID_625_"><path data-cppathid="10014" fill="#55696e" d="m440.65 497.959c-12.774 0-23.13-10.356-23.13-23.13v-184.884c0-12.775 10.356-23.13 23.13-23.13s23.13 10.356 23.13 23.13v184.884c0 12.774-10.355 23.13-23.13 23.13z"/></g><g id="XMLID_546_"><path data-cppathid="10015" fill="#748488" d="m384.395 497.959c-12.774 0-23.13-10.356-23.13-23.13v-184.884c0-12.775 10.356-23.13 23.13-23.13s23.13 10.356 23.13 23.13v184.884c.001 12.774-10.355 23.13-23.13 23.13z"/></g><ellipse data-cppathid="10016" transform="matrix(.055 -.999 .999 .055 337.253 461.531)" ry="39.949" rx="39.949" fill="#ba6746" cy="52.541" cx="412.526"/><path data-cppathid="10017" fill="#ba6746" d="m314.385 198.999v93.316c0 10.646 8.63 19.276 19.275 19.276 10.646 0 19.275-8.63 19.275-19.276v-93.316l-15.678-12.26z"/><path data-cppathid="10018" fill="#ffda52" d="m510.592 150.61c-.125-25.027-20.907-45.387-46.326-45.387h-31.869c.04 9.951-9.257 18.302-18.959 18.302-10.398 0-18.135-8.322-18.891-18.302h-33.761c-25.46 0-46.275 20.36-46.401 45.387v.097 48.293h38.551v-48.223c.036-3.668 3.77-7.002 7.85-7.002h.479v146.171h102.515l-.179-146.171h.665c4.039 0 7.735 3.33 7.776 6.996v48.229h38.551v-48.293c0-.033 0-.065-.001-.097z"/></g></g></g></g></g></svg>