<?xml version="1.0" encoding="UTF-8"?>
<svg xmlns="http://www.w3.org/2000/svg" onmouseup="{ if(window.parent.document.onmouseup) window.parent.document.onmouseup(arguments[0]);}" width="439pt" viewBox="-12 0 439 439.536" height="439pt"><path data-cppathid="10000" fill="#e48e66" d="m407.269531 175.574219v216.960937c0 22.09375-17.910156 40-40 40h-320c-22.09375 0-40-17.90625-40-40v-216.808594l80 67.738282 94.207031 79.769531c14.929688 12.640625 36.804688 12.632813 51.722657-.019531l94.070312-79.789063zm0 0"/><path data-cppathid="10001" fill="#f8ec7d" d="m407.269531 175.574219-80 67.851562v-135.589843zm0 0"/><path data-cppathid="10002" fill="#6fe3ff" d="m327.269531 107.835938v135.589843l-94.070312 79.789063c-14.917969 12.652344-36.792969 12.660156-51.722657.019531l-94.207031-79.769531v-204.757813c0-17.511719 14.195313-31.707031 31.707031-31.710937h120.972657l1.609375.160156v53.839844c-.003906 17.511718 14.195312 31.710937 31.710937 31.710937h54zm-30 82-20.160156-30.75-20.171875 30.75zm-159.839843 10.609374 20.167968-30.75h-40.328125zm0 0"/><path data-cppathid="10003" fill="#2561a1" d="m327.269531 92.527344v.179687h-54c-17.515625 0-31.714843-14.199219-31.710937-31.710937v-53.839844l.167968.019531zm0 0"/><path data-cppathid="10004" fill="#f8ec7d" d="m277.109375 159.085938 20.160156 30.75h-40.332031zm0 0"/><path data-cppathid="10005" fill="#f8ec7d" d="m157.597656 169.695312-20.167968 30.75-20.160157-30.75zm0 0"/><path data-cppathid="10006" fill="#f8ec7d" d="m87.269531 107.875v135.589844l-80-67.738282zm0 0"/><g fill="#63316d"><path data-cppathid="10007" d="m410.652344 169.269531-76.382813-64.679687v-12.0625c0-1.859375-.742187-3.644532-2.058593-4.957032l-85.542969-85.347656c-.007813-.007812-.015625-.015625-.023438-.023437-1.320312-1.40625-3.164062-2.199219-5.089843-2.199219-.265626 0-.527344.015625-.789063.046875l-.132813-.0117188c-.230468-.0234374-.460937-.0351562-.6875-.0351562h-120.96875c-21.367187.0234375-38.683593 17.339844-38.707031 38.707031v65.929688l-75.964843 64.429687c-2.460938 1.148438-4.035157 3.613282-4.035157 6.328125v217.140625c.027344 25.945313 21.054688 46.972656 47 47h320c25.945313-.027344 46.96875-21.054687 47-47v-217.140625c-.003906-2.546875-1.386719-4.890625-3.617187-6.125zm-14.210938 6.308594-62.171875 52.734375v-105.378906zm-147.882812-151.699219 61.964844 61.828125h-37.253907c-13.640625-.015625-24.695312-11.070312-24.710937-24.710937zm-129.582032-9.882812h115.582032v47c.023437 21.367187 17.339844 38.6875 38.710937 38.710937h47v140.480469l-91.601562 77.691406c-12.289063 10.480469-30.371094 10.488282-42.671875.015625l-91.726563-77.675781v-201.511719c.015625-13.640625 11.066407-24.695312 24.707031-24.710937zm-38.707031 109v105.371094l-62.175781-52.644532zm-33 302.539062c-7.226562.007813-14.25-2.371094-19.988281-6.761718l95.710938-97.882813c2.664062-2.769531 2.59375-7.171875-.152344-9.855469-2.746094-2.6875-7.148438-2.65625-9.855469.066406l-94.816406 96.972657c-2.5625-4.777344-3.902344-10.117188-3.898438-15.539063v-201.710937l68.527344 58.027343.027344.023438 94.128906 79.699219c17.515625 14.917969 43.269531 14.90625 60.773437-.019531l162.542969-137.863282v201.84375c.003907 5.445313-1.34375 10.804688-3.925781 15.59375l-95.375-97.039062c-1.746094-1.816406-4.335938-2.554688-6.777344-1.933594s-4.359375 2.507812-5.023437 4.9375c-.664063 2.433594.03125 5.03125 1.816406 6.808594l96.222656 97.902344c-5.726562 4.371093-12.734375 6.734374-19.9375 6.730468zm0 0"/><path data-cppathid="10008" d="m179.496094 167.375c0 3.867188 3.136718 7 7 7h20.570312c-.34375.511719-.730468.996094-1.152344 1.449219-1.941406 2.097656-4.664062 3.296875-7.523437 3.3125h-11.894531c-2.832032 0-5.386719 1.710937-6.46875 4.332031-1.082032 2.621094-.472656 5.632812 1.535156 7.632812l29.710938 29.53125c1.769531 1.789063 4.363281 2.492188 6.792968 1.84375 2.429688-.652343 4.324219-2.558593 4.960938-4.992187.636718-2.4375-.082032-5.023437-1.882813-6.78125l-18.121093-18.011719c5-.988281 9.558593-3.515625 13.046874-7.230468 2.953126-3.125 5.089844-6.933594 6.207032-11.085938h5.761718c3.863282 0 7-3.132812 7-7 0-3.863281-3.136718-7-7-7h-5.769531c-.449219-1.636719-1.054687-3.226562-1.808593-4.75h7.574218c3.867188 0 7-3.132812 7-7 0-3.863281-3.132812-7-7-7h-41.539062c-3.863282 0-7 3.136719-7 7 0 3.867188 3.136718 7 7 7h11.890625c3.5.046875 6.746093 1.828125 8.671875 4.75h-20.5625c-3.863282 0-7 3.136719-7 7zm0 0"/><path data-cppathid="10009" d="m250.777344 193.164062c1.222656 2.265626 3.589844 3.675782 6.160156 3.675782h11.519531c-7.132812 31.9375-36.253906 51.398437-61.320312 51.398437-18.550781 0-38.277344-10.566406-50.25-26.921875-2.285157-3.121094-6.664063-3.800781-9.785157-1.515625-3.121093 2.28125-3.800781 6.664063-1.515624 9.785157 14.746093 20.140624 38.328124 32.652343 61.550781 32.652343 16.984375 0 34.808593-6.929687 48.902343-19.015625 13.957032-11.9375 23.375-28.316406 26.683594-46.382812h14.546875c2.570313 0 4.933594-1.410156 6.15625-3.671875 1.222657-2.265625 1.105469-5.015625-.304687-7.164063l-20.160156-30.75c-1.292969-1.976562-3.492188-3.164062-5.851563-3.164062s-4.558594 1.1875-5.855469 3.160156l-20.167968 30.75c-1.410157 2.152344-1.527344 4.902344-.308594 7.164062zm26.328125-21.308593 7.203125 10.984375h-14.40625zm0 0"/><path data-cppathid="10010" d="m131.574219 204.285156c1.292969 1.972656 3.492187 3.160156 5.851562 3.160156s4.5625-1.1875 5.855469-3.160156l20.167969-30.75c1.414062-2.152344 1.53125-4.902344.308593-7.164062-1.222656-2.265625-3.589843-3.675782-6.160156-3.675782h-11.519531c7.132813-31.9375 36.253906-51.398437 61.320313-51.398437 18.550781 0 38.277343 10.566406 50.25 26.925781 2.285156 3.117188 6.664062 3.796875 9.785156 1.515625 3.121094-2.285156 3.800781-6.664062 1.515625-9.785156-14.746094-20.144531-38.328125-32.65625-61.546875-32.65625-16.988282 0-34.8125 6.929687-48.90625 19.015625-13.953125 11.941406-23.375 28.316406-26.679688 46.382812h-14.546875c-2.574219 0-4.9375 1.410157-6.160156 3.675782-1.222656 2.261718-1.105469 5.011718.304687 7.164062zm13.0625-27.589844-7.207031 10.984376-7.199219-10.984376zm0 0"/></g></svg>