<?xml version="1.0" encoding="UTF-8"?>
<svg xmlns="http://www.w3.org/2000/svg" onmouseup="{ if(window.parent.document.onmouseup) window.parent.document.onmouseup(arguments[0]);}" width="480pt" viewBox="0 -31 480.42495 480" height="480pt"><path data-cppathid="10000" fill="#71bf79" d="m104 8.210938v336l352-80v-256zm0 0"/><path data-cppathid="10001" fill="#5da364" d="m416 56.210938c-4.800781 0-8-3.199219-8-8v-8h-256v8c0 4.800781-3.199219 8-8 8h-8v208h288v-208zm0 0"/><path data-cppathid="10002" fill="#edc17c" d="m360 152.210938c0 44.183593-35.816406 80-80 80s-80-35.816407-80-80c0-44.179688 35.816406-80 80-80s80 35.820312 80 80zm0 0"/><path data-cppathid="10003" fill="#efccbf" d="m429.601562 215.414062-179.203124 92c-6.398438 3.199219-13.597657 2.398438-18.398438-3.203124l-24-24 17.601562-17.597657c12.796876-12.800781 12.796876-32.800781 0-45.601562l-33.601562-33.597657c-21.601562-21.601562-57.601562-21.601562-79.199219 0l-24.800781 25.597657v147.199219l112 49.601562c14.398438 6.398438 32 5.601562 45.601562-3.199219l212.796876-137.601562c8-5.597657 13.601562-14.398438 13.601562-24.800781 0-16-12.800781-29.597657-29.601562-29.597657-4 1.597657-8.796876 2.398438-12.796876 4.800781zm0 0"/><path data-cppathid="10004" fill="#676b7f" d="m24 200.210938h64v160h-64c-8.800781 0-16-7.199219-16-16v-128c0-8.796876 7.199219-16 16-16zm0 0"/><g fill="#5da364"><path data-cppathid="10005" d="m256 104.210938h16v16h-16zm0 0"/><path data-cppathid="10006" d="m272 184.210938h16v16h-16zm0 0"/><path data-cppathid="10007" d="m233.859375 187.128906 71.917969-87.9375 12.386718 10.128906-71.917968 87.9375zm0 0"/></g><path data-cppathid="10008" fill="#d8b4ad" d="m146.535156 230.363281 11.3125-11.316406 55.4375 55.4375-11.3125 11.3125zm0 0"/><path data-cppathid="10009" d="m464 210.613281v-210.402343h-368v152h16v-136h336v188c-8-.796876-15.199219 0-22.398438 4l-179.203124 92c-3.199219 1.601562-7.199219.800781-9.597657-1.597657l-18.402343-18.402343 12-12c15.203124-16 15.203124-40.796876 0-56.796876l-33.597657-33.601562c-13.601562-13.601562-33.601562-20.800781-53.601562-18.398438v-95.203124c8.800781 0 16-7.199219 16-16h240c0 8.800781 7.199219 16 16 16v120h16v-136h-16v-16h-271.199219v16h-16v116.800781c-8 3.199219-15.199219 8-21.601562 14.402343l-12.796876 12.796876h-69.601562c-13.601562 0-24 10.402343-24 24v128c0 13.601562 10.398438 24 24 24h70.398438l102.402343 45.601562c17.597657 8 37.597657 6.398438 52.800781-4l213.597657-137.601562c17.601562-11.199219 22.402343-34.398438 11.199219-51.199219-3.199219-4-6.398438-8-10.398438-10.398438zm-448 133.597657v-128c0-4.796876 3.199219-8 8-8h56v144h-56c-4.800781 0-8-3.199219-8-8zm438.398438-85.597657-212.796876 137.597657c-11.203124 7.203124-25.601562 8.800781-37.601562 3.203124l-107.199219-48v-139.203124l22.398438-22.398438c18.402343-18.398438 48.800781-18.398438 68 0l33.601562 33.601562c9.597657 9.597657 9.597657 24.796876 0 33.597657l-12.800781 12.800781-50.398438-50.398438-11.203124 11.199219 80 80c7.203124 7.199219 18.402343 8.800781 28 4l179.203124-92.800781c10.398438-5.601562 23.199219-1.601562 28.796876 8.800781 4 10.398438.800781 22.398438-8 28zm0 0"/><path data-cppathid="10010" d="m256 104.210938h16v16h-16zm0 0"/><path data-cppathid="10011" d="m272 184.210938h16v16h-16zm0 0"/><path data-cppathid="10012" d="m233.839844 187.089844 71.929687-87.925782 12.386719 10.128907-71.933594 87.929687zm0 0"/><path data-cppathid="10013" d="m368 152.210938c0-48.796876-39.199219-88-88-88-44.800781 0-83.199219 34.402343-87.199219 79.203124l16 1.597657c4-39.199219 39.199219-68.800781 79.199219-64.800781 39.199219 4 68.800781 39.203124 64.800781 79.203124-4 36.796876-34.402343 64.796876-72 64.796876v16c48 0 87.199219-39.199219 87.199219-88zm0 0"/></svg>