<?xml version="1.0" encoding="UTF-8"?>
<svg xmlns="http://www.w3.org/2000/svg" onmouseup="{ if(window.parent.document.onmouseup) window.parent.document.onmouseup(arguments[0]);}" xml:space="preserve" style="enable-background:new 0 0 512 512;" viewBox="0 0 512 512" y="0px" x="0px" id="Capa_1" version="1.1" xmlns:xlink="http://www.w3.org/1999/xlink"><path data-cppathid="10000" d="M318.314,463.959H10.969C4.911,463.959,0,459.048,0,452.989V11.607C0,5.55,4.911,0.639,10.969,0.639  h307.344c6.058,0,10.969,4.911,10.969,10.969v441.382C329.282,459.048,324.371,463.959,318.314,463.959z M21.939,442.02h285.406  V22.577H21.939V442.02z" style="fill:#4F2410;"/><path data-cppathid="10001" d="M176.449,48.474L14.042,1.078C10.728,0.11,7.15,0.76,4.389,2.832C1.626,4.904,0,8.155,0,11.607  v441.382c0,4.875,3.217,9.164,7.896,10.53l162.408,47.397c7.009,2.045,14.043-3.214,14.043-10.53V59.004  C184.346,54.13,181.129,49.84,176.449,48.474z" style="fill:#632C15;"/><path data-cppathid="10002" d="M149.318,323.443c-6.058,0-10.969-4.911-10.969-10.969v-69.725c0-6.058,4.911-10.969,10.969-10.969  c6.058,0,10.969,4.911,10.969,10.969v69.725C160.288,318.531,155.377,323.443,149.318,323.443z" style="fill:#80391B;"/><path data-cppathid="10003" d="M191.111,249.65c-5.024,0-10.025-2.064-13.628-6.113c-6.693-7.522-6.02-19.047,1.503-25.74  l69.745-62.052c2.777-2.471,6.244-4.034,9.934-4.479l90.535-10.927c10.003-1.209,19.079,5.919,20.286,15.916  c1.206,9.997-5.919,19.079-15.916,20.285l-84.866,10.243l-65.48,58.256C199.749,248.13,195.422,249.65,191.111,249.65z" style="fill:#252D5C;"/><path data-cppathid="10004" d="M341.579,478.067c-11.053-3.924-16.831-16.066-12.907-27.118l32.042-90.246l-53.573-84.139  c-6.299-9.893-3.386-23.021,6.508-29.32c9.891-6.299,23.02-3.386,29.319,6.507l59.139,92.883c3.514,5.518,4.287,12.347,2.098,18.511  l-35.51,100.014C364.791,476.163,352.679,482.008,341.579,478.067z" style="fill:#414B82;"/><path data-cppathid="10005" d="M400.355,144.46l-45.289-17.292c-14.026-5.356-29.737,1.673-35.092,15.699l-49.751,130.298  l-25.609,88.966l-45.263,86.038c-5.461,10.38-1.473,23.221,8.907,28.682c10.403,5.473,23.234,1.45,28.682-8.907l46.255-87.924  c0.66-1.254,1.193-2.572,1.59-3.932l25.587-87.592l5.765,2.201l54.807,6.996l45.109-118.139  C421.41,165.527,414.381,149.815,400.355,144.46z" style="fill:#53618C;"/><path data-cppathid="10006" d="M316.139,290.695l-45.914-17.532l49.751-130.297c5.356-14.026,21.066-21.054,35.092-15.699  l45.289,17.292c14.026,5.356,21.054,21.066,15.699,35.092l-45.109,118.139L316.139,290.695z" style="fill:#1B224A;"/><circle data-cppathid="10007" r="40.238" cy="87.135" cx="403.766" style="fill:#FFB69E;"/><path data-cppathid="10008" d="M185.089,212.368l-6.103,5.43c-7.523,6.693-8.195,18.217-1.503,25.739  c6.711,7.543,18.236,8.178,25.74,1.503l5.713-5.082L185.089,212.368z" style="fill:#FFFFFF;"/><path data-cppathid="10009" d="M178.986,217.798c-7.523,6.693-8.195,18.217-1.503,25.739c6.711,7.543,18.236,8.178,25.74,1.503  L178.986,217.798z" style="fill:#FFB69E;"/><path data-cppathid="10010" d="M469.267,311.312h-41.062c-4.418,0-7.999-3.581-7.999-7.999v-39.462c0-4.418,3.581-7.999,7.999-7.999  h41.062c4.418,0,7.999,3.581,7.999,7.999v39.462C477.266,307.731,473.685,311.312,469.267,311.312z M436.204,295.314h25.064V271.85  h-25.064V295.314z" style="fill:#59250F;"/><path data-cppathid="10011" d="M512,293.904v69.139c0,5.547-4.497,10.044-10.044,10.044H395.514  c-5.547,0-10.044-4.497-10.044-10.044v-69.14c0-5.547,4.497-10.044,10.044-10.044h106.442C507.503,283.86,512,288.356,512,293.904z" style="fill:#80391B;"/><path data-cppathid="10012" d="M451.922,278.554c-1.976,0.163-4.012,0.005-6.04-0.516l-70.548-18.132  c-5.914-1.52-10.672-5.898-12.681-11.665l-29.186-83.856c-3.311-9.51,1.716-19.902,11.226-23.212  c9.508-3.316,19.902,1.716,23.212,11.226l25.973,74.625l61.08,15.699c9.753,2.507,15.626,12.444,13.12,22.196  C466.094,272.643,459.445,277.933,451.922,278.554z" style="fill:#252D5C;"/><path data-cppathid="10013" d="M454.96,242.722l-9.069-2.331l-8.725,35.406l8.717,2.241c9.761,2.51,19.693-3.379,22.196-13.12  C470.585,255.165,464.713,245.229,454.96,242.722z" style="fill:#FFFFFF;"/><path data-cppathid="10014" d="M454.96,242.722l-9.077,35.316c9.761,2.51,19.693-3.379,22.196-13.12  C470.585,255.165,464.713,245.229,454.96,242.722z" style="fill:#FFB69E;"/><g/><g/><g/><g/><g/><g/><g/><g/><g/><g/><g/><g/><g/><g/><g/></svg>