<?xml version="1.0" encoding="UTF-8"?>
<svg xmlns="http://www.w3.org/2000/svg" onmouseup="{ if(window.parent.document.onmouseup) window.parent.document.onmouseup(arguments[0]);}" width="512" viewBox="0 0 64 64" height="512" enable-background="new 0 0 64 64" id="Layer_1_1_"><g><circle data-cppathid="10000" r="9" fill="#ffe38f" cy="16" cx="17"/></g><path data-cppathid="10001" fill="#b09b64" d="m17 15c-.552 0-1-.448-1-1s.448-1 1-1 1 .448 1 1h2c0-1.302-.839-2.402-2-2.816v-1.184h-2v1.184c-1.161.414-2 1.514-2 2.816 0 1.654 1.346 3 3 3 .552 0 1 .448 1 1s-.448 1-1 1-1-.448-1-1h-2c0 1.302.839 2.402 2 2.816v1.184h2v-1.184c1.161-.414 2-1.514 2-2.816 0-1.654-1.346-3-3-3z"/><g><circle data-cppathid="10002" r="9" fill="#ffe38f" cy="24" cx="48"/></g><path data-cppathid="10003" fill="#b09b64" d="m48 23c-.552 0-1-.448-1-1s.448-1 1-1 1 .448 1 1h2c0-1.302-.839-2.402-2-2.816v-1.184h-2v1.184c-1.161.414-2 1.514-2 2.816 0 1.654 1.346 3 3 3 .552 0 1 .448 1 1s-.448 1-1 1-1-.448-1-1h-2c0 1.302.839 2.402 2 2.816v1.184h2v-1.184c1.161-.414 2-1.514 2-2.816 0-1.654-1.346-3-3-3z"/><g><path data-cppathid="10004" fill="#858e99" d="m6 29h2v2h-2z"/></g><g><path data-cppathid="10005" fill="#858e99" d="m31 2h2v2h-2z"/></g><g><path data-cppathid="10006" fill="#858e99" d="m2 2h2v2h-2z"/></g><g><path data-cppathid="10007" fill="#858e99" d="m58 7h2v2h-2z"/></g><g><path data-cppathid="10008" fill="#858e99" d="m60 42h2v2h-2z"/></g><g><path data-cppathid="10009" fill="#858e99" d="m31 24h2v2h-2z"/></g><g><path data-cppathid="10010" fill="#858e99" d="m8 47h2v2h-2z"/></g><g><path data-cppathid="10011" fill="#ff8088" d="m51 11h-2c0-1.25.843-1.883 1.399-2.301.505-.379.601-.49.601-.701 0-.21-.096-.321-.6-.7-.557-.418-1.4-1.05-1.4-2.301 0-1.25.843-1.882 1.4-2.3.504-.377.6-.488.6-.697h2c0 1.249-.843 1.881-1.4 2.298-.504.379-.6.489-.6.699 0 .211.096.322.601.701.557.418 1.399 1.05 1.399 2.3s-.843 1.883-1.399 2.301c-.505.379-.601.49-.601.701z"/></g><g><path data-cppathid="10012" fill="#ff8088" d="m12 42h-2c0-1.25.843-1.883 1.399-2.301.505-.379.601-.49.601-.701 0-.21-.096-.321-.6-.7-.558-.418-1.4-1.05-1.4-2.301 0-1.25.843-1.882 1.4-2.3.504-.377.6-.488.6-.697h2c0 1.249-.843 1.881-1.4 2.298-.504.379-.6.489-.6.699 0 .211.096.322.601.701.558.418 1.399 1.05 1.399 2.3s-.843 1.883-1.399 2.301c-.505.379-.601.49-.601.701z"/></g><g><g><path data-cppathid="10013" fill="#759acc" d="m42 36-5.06 8.67h-9.88l-5.06-8.67-3 2 7 13v11h12v-11l7-13z"/></g></g><g><g><path data-cppathid="10014" fill="#e6e6e6" d="m32 49-2 7 2 3 2-3z"/></g></g><g><g><path data-cppathid="10015" fill="#ffdbac" d="m37 44c0 .21-.01.42-.05.62-.29 2.47-2.4 4.38-4.95 4.38s-4.66-1.91-4.95-4.38c-.04-.2-.05-.41-.05-.62 0-2.76 2.24-5 5-5s5 2.24 5 5z"/></g></g><g><g><path data-cppathid="10016" fill="#526273" d="m32 39c-2.76 0-5 2.24-5 5 0 .21.01.42.05.62 1.07-1.58 2.89-2.62 4.95-2.62s3.88 1.04 4.95 2.62c.04-.2.05-.41.05-.62 0-2.76-2.24-5-5-5z"/></g></g></svg>