<?xml version="1.0" encoding="UTF-8"?>
<svg xmlns="http://www.w3.org/2000/svg" onmouseup="{ if(window.parent.document.onmouseup) window.parent.document.onmouseup(arguments[0]);}" width="512" viewBox="0 0 511.983 511.983" height="512" enable-background="new 0 0 511.983 511.983" id="Capa_1"><g><g><g><ellipse data-cppathid="10000" transform="matrix(.707 -.707 .707 .707 -36.395 227.146)" ry="147.506" rx="147.506" fill="#bfdbff" cy="157.506" cx="255.991"/><path data-cppathid="10001" fill="#a0e5a5" d="m403.497 157.506c0-79.646-63.127-144.536-142.074-147.396.785 9.405 1.461 25.908-4.898 34.668-13.803 19.018-36.625 10.121-46.564 28.155-10.122 18.367-1.103 44.798 19.387 55.572 28.338 14.9 60.885-22.116 81.217-7.58 15.583 11.141.505 35.777 16.243 73.636.981 2.361 18.728 43.762 46.321 52.588 19.043-24.847 30.368-55.92 30.368-89.643z"/><path data-cppathid="10002" fill="#a0e5a5" d="m108.486 157.51c.003 81.463 66.042 147.501 147.505 147.501 17.35 0 33.996-3.005 49.458-8.507-4.408-23.734-8.636-30.406-28.341-40.251-17.912-8.95-26.192-.567-42.233-11.912-20.553-14.537-28.818-51.771-50.354-68.796-11.289-8.924-22.661-11.393-35.735-14.077-10.784-2.214-25.114-3.867-40.3-3.958z"/><path data-cppathid="10003" fill="#ffdcd5" d="m477.581 399.33h-99.95c10.11 10.11 10.71 26.74.6 36.84-9.98 9.98-26.07 10.1-36.21.37l-18.72-17c10.17 10.17 10.29 26.59.36 36.91-10.25 10.64-27.6 10.39-38.05-.06l-14.3-14.3c10.29 10.29 10.29 26.98 0 37.27-10.3 10.29-26.98 10.29-37.27 0l-18.66-18.21c6.75 10.23 5.63 24.13-3.38 33.13-10.29 10.29-26.97 10.29-37.27 0l-74.66-75.09c-12.63-12.71-29.81-19.86-47.73-19.86h-17.94v-127.23h40.5c10.85 0 21.54-2.62 31.15-7.64l38.55-20.12h230.61l29.18 17.86c10.58 6.48 22.74 9.9 35.14 9.9h38.05z"/></g></g><g><path data-cppathid="10004" d="m477.578 370.72c-5.522 0-10 4.477-10 10v8.615h-85.865l-102.291-100.105c-3.447-3.374-8.811-3.807-12.754-1.028l-42.079 29.647c-17.499 10.231-38.829 9.66-55.503-.643l88.373-57.691c.111-.073.222-.147.33-.225 4.553-3.238 9.913-4.95 15.502-4.95h2.17 96.936l26.771 16.389c12.155 7.441 26.113 11.374 40.365 11.374h28.045v8.615c0 5.523 4.478 10 10 10 5.523 0 10-4.477 10-10v-18.615c0-5.523-4.477-10-10-10h-38.045c-10.565 0-20.913-2.915-29.924-8.432l-20.218-12.377c15.801-25.068 24.109-53.815 24.109-83.786.001-86.849-70.657-157.508-157.509-157.508-86.851 0-157.51 70.659-157.51 157.51 0 31.035 8.846 60.605 25.676 86.223l-22.731 11.866c-8.152 4.256-17.324 6.506-26.522 6.506h-40.5c-5.523 0-10 4.477-10 10v127.23c0 5.523 4.477 10 10 10h17.937c15.148 0 29.962 6.161 40.643 16.903l74.68 75.115c7.087 7.087 16.396 10.63 25.706 10.63s18.619-3.543 25.706-10.63c4.063-4.063 6.988-8.917 8.727-14.113 6.763 6.353 15.548 9.837 24.869 9.837h.001c9.71 0 18.84-3.782 25.706-10.648 4.575-4.575 7.78-10.154 9.41-16.242 5.344 2.742 11.363 4.19 17.427 4.142 9.834-.093 18.942-3.979 25.648-10.943 4.409-4.58 7.369-10.065 8.888-15.863 13.944 9.458 33.282 7.989 45.55-4.279 6.802-6.8 10.427-15.932 10.208-25.713-.062-2.795-.445-5.539-1.112-8.196h83.181c5.523 0 10-4.477 10-10v-18.615c-.001-5.523-4.478-10-10.001-10zm-332.978-136.379c-.832 0-1.657.108-2.459.312-13.575-19.952-21.512-42.755-23.277-66.819 9.835.539 19.618 1.728 27.91 3.431 11.746 2.411 21.889 4.494 31.545 12.126 9.105 7.198 16.078 19.811 22.82 32.008 3.549 6.419 7.158 12.932 11.201 18.943h-67.74zm248.901-76.831c0 27.652-8.096 54.105-23.451 76.831h-.903c-19.856-12.097-32.963-43.286-33.102-43.62-7.105-17.093-7.277-31.466-7.414-43.016-.162-13.566-.314-26.381-12.255-34.921-14.214-10.159-30.852-3.619-45.531 2.152-13.478 5.298-26.21 10.3-36.841 4.712-7.997-4.204-14.129-11.763-16.824-20.739-2.3-7.663-1.753-15.175 1.539-21.151 2.815-5.105 7.348-6.565 15.783-8.905 9.432-2.617 21.17-5.874 30.111-18.198 4.853-6.685 7.251-16.481 7.276-29.731 68.361 7.907 121.612 66.139 121.612 136.586zm-141.593-137.444c.112 11.833-2.012 16.818-3.481 18.842-4.838 6.668-11.208 8.436-19.272 10.673-9.331 2.589-20.943 5.811-27.952 18.524-5.907 10.723-7.036 23.705-3.178 36.555 4.229 14.089 13.952 26.005 26.673 32.691 18.736 9.851 37.993 2.28 53.464-3.802 13.193-5.187 21.57-8.08 26.582-4.496 3.376 2.415 3.747 7.098 3.888 18.89.149 12.572.354 29.791 8.941 50.446 1.156 2.787 8.76 20.442 21.888 35.952h-64-2.17-34.953c-7.395-6.396-13.389-17.213-19.695-28.62-7.699-13.928-15.661-28.33-27.921-38.021-13.383-10.579-26.877-13.349-39.925-16.028-9.687-1.989-20.758-3.314-31.968-3.869 4.903-69.967 62.378-125.665 133.079-127.737zm-26.209 363.396c-3.947-3.863-10.278-3.794-14.141.153s-3.794 10.278.153 14.141l52.554 51.432c3.071 3.085 4.761 7.18 4.761 11.535 0 4.368-1.701 8.475-4.79 11.564s-7.195 4.79-11.563 4.79-8.475-1.701-11.564-4.79c-.028-.028-.057-.056-.085-.085 0 0-71.248-69.681-71.248-69.681-3.947-3.863-10.278-3.795-14.141.153-3.863 3.947-3.794 10.278.153 14.141l51.706 50.602c3.707 6.347 2.701 14.534-2.559 19.793-6.375 6.376-16.751 6.377-23.107.021l-74.66-75.094c-14.408-14.491-34.391-22.802-54.825-22.802h-7.937v-107.23h30.5c12.408 0 24.78-3.035 35.778-8.776l36.371-18.987h81.746l-82.199 53.658c-2.518 1.644-4.163 4.335-4.479 7.326-.315 2.991.733 5.966 2.854 8.099 23.913 24.05 60.982 28.75 90.146 11.432.223-.132.441-.274.654-.423l35.606-25.086 99.185 97.065c3.092 3.095 4.849 7.202 4.946 11.566.096 4.27-1.45 8.221-4.354 11.124-6.061 6.062-16.022 6.165-22.209.228-.066-.065-.134-.127-.203-.19l-71.054-68.222c-3.946-3.864-10.279-3.795-14.142.153-3.862 3.947-3.794 10.278.153 14.141l52.527 51.404c6.255 6.257 6.357 16.529.224 22.898-2.95 3.064-7.01 4.774-11.431 4.816-.054 0-.107 0-.162 0-4.561 0-8.991-1.82-12.18-5.008z"/><circle data-cppathid="10005" r="10" cy="335.72" cx="477.578"/></g></g></svg>