<?xml version="1.0" encoding="UTF-8"?>
<svg xmlns="http://www.w3.org/2000/svg" onmouseup="{ if(window.parent.document.onmouseup) window.parent.document.onmouseup(arguments[0]);}" data-name="filled outline" width="512" viewBox="0 0 512 512" height="512" id="filled_outline"><path data-cppathid="10000" fill="#ffc431" d="m296 88a32 32 0 0 1 32 32v24h-32v32h-80v-32h-32v-24a32 32 0 0 1 32-32z"/><path data-cppathid="10001" fill="#ffceb6" d="m184 144h32v32h-32z"/><path data-cppathid="10002" fill="#ffceb6" d="m296 144h32v32h-32z"/><path data-cppathid="10003" fill="#ffceb6" d="m232 64 24-16h24v24a24 24 0 0 1 -24 24 24 24 0 0 1 -24-24z"/><path data-cppathid="10004" fill="#c47220" d="m280 48 4.68629-4.68629a11.31372 11.31372 0 0 0 3.31371-8 11.31369 11.31369 0 0 0 -11.3137-11.31371h-20.6863a24 24 0 0 0 -24 24v16l24-16z"/><g fill="#02c26a"><path data-cppathid="10005" d="m24 240h40l32-24h56v56l-24 24 32 16v32l-56 24v40l-40-40v-48l-40-24z"/><path data-cppathid="10006" d="m184 280v-56l16-16h40v24z"/><path data-cppathid="10007" d="m200 312 48-48h40v-24l32-24h144v88l-48 40v24h-48v24l24 24v16h-24l-32-32v-32h-24l-16-24h-24l-24-24h-48z"/><path data-cppathid="10008" d="m192 352h40l32 32h32v56h-64v-32l-40-32z"/><path data-cppathid="10009" d="m424 456v-40l24-16 40 16v72h-24z"/><path data-cppathid="10010" d="m128 432v-32l32-16 32 24v48l-40 32v-40z"/></g><circle data-cppathid="10011" r="16" fill="#bed3f7" cy="272" cx="96"/><circle data-cppathid="10012" r="16" fill="#bed3f7" cy="272" cx="416"/><path data-cppathid="10013" d="m176 120v56a8.00039 8.00039 0 0 0 8 8h144a8.00039 8.00039 0 0 0 8-8v-56a40.04584 40.04584 0 0 0 -40-40h-9.0127a31.95275 31.95275 0 0 0 1.0127-8v-20.68555l2.34375-2.34375a19.31423 19.31423 0 0 0 -13.65723-32.9707h-20.68652a32.03667 32.03667 0 0 0 -32 32v24a31.95275 31.95275 0 0 0 1.0127 8h-9.0127a40.04584 40.04584 0 0 0 -40 40zm16 32h16v16h-16zm112 16v-16h16v16zm16-48v16h-16v-16h-16v48h-64v-48h-16v16h-16v-16a24.0275 24.0275 0 0 1 24-24h18.86816a31.90967 31.90967 0 0 0 42.26368 0h18.86816a24.0275 24.0275 0 0 1 24 24zm-80-48v-3.71875l18.42188-12.28125h13.57812v16a16 16 0 0 1 -32 0zm16-40h20.68652a3.31318 3.31318 0 0 1 2.34278 5.65625l-2.34375 2.34375h-20.68555a8.00221 8.00221 0 0 0 -4.4375 1.34375l-11.5625 7.70825v-1.052a16.01833 16.01833 0 0 1 16-16z"/><path data-cppathid="10014" d="m56 368a8.00235 8.00235 0 0 0 2.34277 5.65723l40 40a8.00066 8.00066 0 0 0 13.65723-5.65723v-34.72461l51.15137-21.92187a8.00075 8.00075 0 0 0 4.84863-7.35352v-32a8.00022 8.00022 0 0 0 -4.42188-7.15527l-22.07324-11.03614 16.15235-16.15136a8.00235 8.00235 0 0 0 2.34277-5.65723v-56a8.00039 8.00039 0 0 0 -8-8h-48v-29.19336l27.84473-34.80664h28.15527v-16h-32a8.00055 8.00055 0 0 0 -6.24707 3.00195l-32 40a8.0027 8.0027 0 0 0 -1.75293 4.99805v35.99976l-26.667 20.00024h-37.333a8.00039 8.00039 0 0 0 -8 8v56a8.00153 8.00153 0 0 0 3.88379 6.86035l36.11621 21.66895zm48-96a8 8 0 1 1 -8-8 8.00917 8.00917 0 0 1 8 8zm-72 19.4707v-43.4707h32a8.0033 8.0033 0 0 0 4.7998-1.59961l19.2002-14.40015v17.376a24 24 0 1 0 16 0v-25.37624h40v44.68652l-21.65723 21.65625a8.00105 8.00105 0 0 0 2.07911 12.8125l27.57812 13.78907v21.78027l-51.15137 21.92187a8.00075 8.00075 0 0 0 -4.84863 7.35352v20.68652l-24-24v-44.68652a8.00153 8.00153 0 0 0 -3.88379-6.86035z"/><path data-cppathid="10015" d="m176 280a7.99994 7.99994 0 0 0 13.20605 6.07422l56-48a7.99987 7.99987 0 0 0 2.79395-6.07422v-24a8.00039 8.00039 0 0 0 -8-8h-40a8.00235 8.00235 0 0 0 -5.65723 2.34277l-16 16a8.00235 8.00235 0 0 0 -2.34277 5.65723zm16-52.68652 11.31348-11.31348h28.68652v12.32031l-40 34.28614z"/><path data-cppathid="10016" d="m416 376a8.00039 8.00039 0 0 0 8-8v-20.25293l45.12109-37.60156a7.99862 7.99862 0 0 0 2.87891-6.14551v-88a8.00039 8.00039 0 0 0 -8-8h-40v-32a8.0027 8.0027 0 0 0 -1.75293-4.99805l-32-40a8.00055 8.00055 0 0 0 -6.24707-3.00195h-32v16h28.15527l27.84473 34.80664v29.19336h-88a8.0033 8.0033 0 0 0 -4.7998 1.59961l-32 24a8.00229 8.00229 0 0 0 -3.2002 6.40039v16h-32a8.00235 8.00235 0 0 0 -5.65723 2.34277l-48 48a8.00235 8.00235 0 0 0 -2.34277 5.65723v8a8.00039 8.00039 0 0 0 8 8h44.68652l21.65625 21.65723a8.00235 8.00235 0 0 0 5.65723 2.34277h19.71875l13.625 20.4375a7.99943 7.99943 0 0 0 6.65625 3.5625h16v24a8.00235 8.00235 0 0 0 2.34277 5.65723l32 32a8.00235 8.00235 0 0 0 5.65723 2.34277h24a8.00039 8.00039 0 0 0 8-8v-16a8.00235 8.00235 0 0 0 -2.34277-5.65723l-21.65723-21.65625v-12.68652zm-53.65723 21.65723 21.65723 21.65625v4.68652h-12.68652l-27.31348-27.31348v-28.68652a8.00039 8.00039 0 0 0 -8-8h-19.71875l-13.625-20.4375a7.99943 7.99943 0 0 0 -6.65625-3.5625h-20.68652l-21.65625-21.65723a8.00235 8.00235 0 0 0 -5.65723-2.34277h-36.68652l40-40h36.68652a8.00039 8.00039 0 0 0 8-8v-20l26.667-20h85.333v25.37622a24 24 0 1 0 16 0v-25.37622h32v76.25293l-45.12109 37.60156a7.99862 7.99862 0 0 0 -2.87891 6.14551v16h-40a8.00039 8.00039 0 0 0 -8 8v24a8.00235 8.00235 0 0 0 2.34277 5.65723zm61.65723-125.65723a8 8 0 1 1 -8-8 8.00917 8.00917 0 0 1 8 8z"/><path data-cppathid="10017" d="m232 448h64a8.00039 8.00039 0 0 0 8-8v-56a8.00039 8.00039 0 0 0 -8-8h-28.68652l-29.65625-29.65723a8.00235 8.00235 0 0 0 -5.65723-2.34277h-40a8.00039 8.00039 0 0 0 -8 8v24a8.00055 8.00055 0 0 0 3.00195 6.24707l36.99805 29.59766v28.15527a8.00039 8.00039 0 0 0 8 8zm-32-75.84473v-12.15527h28.68652l29.65625 29.65723a8.00235 8.00235 0 0 0 5.65723 2.34277h24v40h-48v-24a8.00055 8.00055 0 0 0 -3.00195-6.24707z"/><path data-cppathid="10018" d="m490.9707 408.57227-40-16a7.99678 7.99678 0 0 0 -7.4082.77148l-24 16a7.99943 7.99943 0 0 0 -3.5625 6.65625v40a8.00055 8.00055 0 0 0 3.002 6.24707l40 32a8.0027 8.0027 0 0 0 4.998 1.75293h24a8.00039 8.00039 0 0 0 8-8v-72a7.99873 7.99873 0 0 0 -5.0293-7.42773zm-10.9707 71.42773h-13.19336l-34.80664-27.84473v-31.874l16.93652-11.291 31.06348 12.42573z"/><path data-cppathid="10019" d="m148.53418 495.21a8 8 0 0 0 8.46387-.96289l40-32a8.00055 8.00055 0 0 0 3.00195-6.24711v-48a7.99952 7.99952 0 0 0 -3.2002-6.40039l-32-24a7.99639 7.99639 0 0 0 -8.37792-.75488l-32 16a8.00022 8.00022 0 0 0 -4.42188 7.15527v32a7.99943 7.99943 0 0 0 3.5625 6.65625l20.4375 13.625v35.71875a7.99936 7.99936 0 0 0 4.53418 7.21zm-12.53418-67.49125v-22.77441l23.15527-11.57813 24.84473 18.63379v40.15527l-24 19.19922v-23.35449a7.99943 7.99943 0 0 0 -3.5625-6.65625z"/></svg>