<?xml version="1.0" encoding="UTF-8"?>
<svg xmlns="http://www.w3.org/2000/svg" onmouseup="{ if(window.parent.document.onmouseup) window.parent.document.onmouseup(arguments[0]);}" width="441pt" viewBox="0 -5 441.63648 441" height="441pt"><path data-cppathid="10000" fill="#00efd1" d="m378.351562 269.367188c40.429688 11.828124 64.847657 52.894531 55.925782 94.066406s-48.144532 68.445312-89.847656 62.480468c-41.699219-5.96875-71.699219-43.152343-68.714844-85.171874 2.984375-42.023438 37.9375-74.589844 80.066406-74.605469 7.636719-.003907 15.238281 1.082031 22.570312 3.230469zm0 0"/><path data-cppathid="10001" fill="#00acea" d="m378.351562 230.097656v39.269532c-18.523437-5.417969-38.378906-3.984376-55.929687 4.042968l-.011719-.023437v-43.289063zm0 0"/><path data-cppathid="10002" fill="#00ceb4" d="m378.351562 174.148438v55.949218h-55.941406v-55.949218zm0 0"/><path data-cppathid="10003" fill="#fedb41" d="m322.410156 273.386719.011719.023437c-36.558594 16.800782-54.976563 58.117188-43.03125 96.539063h-12.929687v-251.742188h55.949218zm0 0"/><path data-cppathid="10004" fill="#00efd1" d="m266.460938 62.269531h55.949218v55.9375h-55.949218zm0 0"/><path data-cppathid="10005" fill="#00acea" d="m210.519531 244.078125h55.941407v125.871094h-55.941407zm0 0"/><path data-cppathid="10006" fill="#00ceb4" d="m210.519531 188.136719h55.941407v55.941406h-55.941407zm0 0"/><path data-cppathid="10007" fill="#fedb41" d="m210.519531 244.078125v125.871094h-55.941406v-223.769531h55.941406zm0 0"/><path data-cppathid="10008" fill="#00efd1" d="m210.519531 90.238281v55.941407h-55.941406v-55.941407zm0 0"/><path data-cppathid="10009" fill="#00acea" d="m154.578125 202.117188v167.832031h-55.949219v-167.832031zm0 0"/><path data-cppathid="10010" fill="#00ceb4" d="m154.578125 146.179688v55.9375h-55.949219v-69.929688h55.949219zm0 0"/><path data-cppathid="10011" fill="#fedb41" d="m42.691406 314.007812h55.9375v55.941407h-55.9375zm0 0"/><path data-cppathid="10012" fill="#00efd1" d="m42.691406 244.078125h55.9375v69.929687h-55.9375zm0 0"/><g fill="#083863"><path data-cppathid="10013" d="m384 265.019531v-90.871093c.074219-1.546876-.484375-3.054688-1.554688-4.171876-1.066406-1.121093-2.546874-1.753906-4.09375-1.75h-50.351562v-105.957031c0-3.3125-2.277344-6.042969-5.589844-6.042969h-55.949218c-3.316407 0-6.460938 2.730469-6.460938 6.042969v119.957031h-43v-91.988281c0-3.3125-3.167969-6.011719-6.480469-6.011719h-55.941406c-3.3125 0-5.578125 2.703126-5.578125 6.011719v35.988281h-50.371094c-1.546875.007813-3.027344.648438-4.089844 1.773438-1.066406 1.128906-1.621093 2.640625-1.539062 4.1875v106.039062h-50.308594c-1.546875-.019531-3.03125.59375-4.105468 1.703126-1.078126 1.105468-1.652344 2.605468-1.585938 4.148437v120.148437h-25v-357.910156c0-3.3125-2.6875-6-6-6s-6 2.6875-6 6v363.632813c.0820312 3.410156 2.808594 6.164062 6.21875 6.277343h268.894531c5.917969 15.460938 16.039063 28.957032 29.21875 38.96875 14.839844 11.117188 32.902344 17.089844 51.449219 17.011719 41.917969-.070312 77.679688-30.351562 84.65625-71.683593 6.976562-41.335938-16.863281-81.679688-56.4375-95.503907zm-28.601562-4.882812c-9.3125 0-18.5625 1.503906-27.398438 4.445312v-28.355469h44v25.523438c-5.464844-1.089844-11.027344-1.628906-16.601562-1.613281zm-250.398438-51.910157h44v156h-44zm56-56h44v212h-44zm56 98h43v114h-43zm55 74.695313v-200.695313h44v145.449219c-21.859375 11.3125-37.863281 31.40625-44 55.246094zm100-100.695313h-44v-44h44zm-56-156v44h-44v-44zm-56 170h-43v-44h43zm-99-142h44v44h-44zm-12 42v58h-44v-58zm-56 112v58h-44v-58zm-44 70h44v44h-44zm306.78125 99.910157c-31.96875.117187-60.359375-20.40625-70.273438-50.796875-.082031-.804688-.324218-1.582032-.714843-2.289063-7.566407-25.714843-.640625-53.507812 18.109375-72.664062 18.746094-19.160157 46.386718-26.683594 72.257812-19.671875.933594.589844 2.007813.90625 3.109375.921875 34.75 11.082031 56.238281 45.835937 50.628907 81.878906-5.609376 36.039063-36.644532 62.621094-73.117188 62.621094zm0 0"/><path data-cppathid="10014" d="m381.351562 313.226562c3.3125 0 6-2.683593 6-6 0-3.3125-2.6875-6-6-6h-51.140624c-3.316407 0-6 2.6875-6 6 0 3.316407 2.683593 6 6 6h14.628906c6.515625-.039062 12.386718 3.933594 14.769531 10h-29.398437c-3.316407 0-6 2.6875-6 6 0 3.316407 2.683593 6 6 6h29.40625c-.789063 1.992188-1.980469 3.796876-3.5 5.300782-2.980469 3.007812-7.042969 4.703125-11.277344 4.699218h-14.628906c-2.425782-.097656-4.65625 1.332032-5.578126 3.578126-.921874 2.246093-.339843 4.828124 1.457032 6.460937l36.582031 34.507813c2.421875 2.253906 6.210937 2.128906 8.480469-.28125 2.273437-2.410157 2.167968-6.210938-.242188-8.488282l-25.617187-24.199218c7.238281-.03125 14.171875-2.90625 19.3125-8 3.742187-3.722657 6.355469-8.429688 7.535156-13.578126h9.210937c3.3125 0 6-2.683593 6-6 0-3.3125-2.6875-6-6-6h-9.214843c-.726563-3.605468-2.210938-7.015624-4.363281-10zm0 0"/></g></svg>