<?xml version="1.0" encoding="UTF-8"?>
<svg xmlns="http://www.w3.org/2000/svg" onmouseup="{ if(window.parent.document.onmouseup) window.parent.document.onmouseup(arguments[0]);}" width="512" viewBox="0 0 512 512" height="512" enable-background="new 0 0 512 512" id="Capa_1"><g><g><path data-cppathid="10000" fill="#73e6ac" d="m0 226v270h512v-270z"/></g><path data-cppathid="10001" fill="#52cca3" d="m256 226h256v270h-256z"/><g id="Joint_Account_2_"><g><path data-cppathid="10002" fill="#ffe6cc" d="m166 106c-24.814 0-45-20.186-45-45s20.186-45 45-45 45 20.186 45 45-20.186 45-45 45z"/></g><g><path data-cppathid="10003" fill="#4d5e80" d="m241 196h-150v-15c0-41.353 33.633-75 75-75s75 33.647 75 75z"/></g><g><path data-cppathid="10004" fill="#ffccb3" d="m346 106c-24.814 0-45-20.186-45-45s20.186-45 45-45 45 20.186 45 45-20.186 45-45 45z"/></g><g><path data-cppathid="10005" fill="#e64d2e" d="m421 196h-150v-15c0-41.353 33.633-75 75-75s75 33.647 75 75z"/></g><g><path data-cppathid="10006" transform="matrix(.707 -.707 .707 .707 -224.219 180.688)" fill="#52cca3" d="m91.002 346.002h29.997v29.997h-29.997z"/></g><g><path data-cppathid="10007" transform="matrix(.707 -.707 .707 .707 -136.351 392.82)" fill="#48b3a1" d="m391.002 346.002h29.997v29.997h-29.997z"/></g><g><path data-cppathid="10008" fill="#52cca3" d="m271 257.199s-9.243 14.705-20.453 33.034l-9.547-33.034c-50.698 7.2-90 51-90 103.801s39.302 96.599 90 103.799l9.547-33.034c11.21 18.327 20.453 33.034 20.453 33.034 50.698-7.2 90-50.999 90-103.799s-39.302-96.601-90-103.801z"/></g></g><path data-cppathid="10009" fill="#48b3a1" d="m271 257.199s-6.456 10.291-15 24.163v159.274c8.544 13.872 15 24.163 15 24.163 50.698-7.2 90-50.999 90-103.799s-39.302-96.601-90-103.801z"/><path data-cppathid="10010" fill="#ecf2ff" d="m241 361c0 8.4 6.6 15 15 15h15v120h-30v-92.7c-17.4-6-30-22.8-30-42.3s12.6-36.3 30-42.3v-92.7h30v120h-15c-8.4 0-15 6.6-15 15z"/><g fill="#d9e5ff"><path data-cppathid="10011" d="m256 226h15v120h-15z"/><path data-cppathid="10012" d="m256 376h15v120h-15z"/></g></g></svg>