<?xml version="1.0" encoding="UTF-8"?>
<svg xmlns="http://www.w3.org/2000/svg" onmouseup="{ if(window.parent.document.onmouseup) window.parent.document.onmouseup(arguments[0]);}" data-name="File management" width="512" viewBox="0 0 64 64" height="512" id="File_management"><path data-cppathid="10000" fill="#365e7d" d="m7 10h50v14h-50z"/><path data-cppathid="10001" fill="#ffe027" d="m52 31h-38v-28h28l10 9z"/><path data-cppathid="10002" fill="#ffe464" d="m52 12h-10v-9z"/><path data-cppathid="10003" fill="#4a80aa" d="m25 24-4-8h-18v6.826 32.174h58v-31z"/><path data-cppathid="10004" fill="#23be99" d="m21 40h22v21h-22z"/><path data-cppathid="10005" fill="#fff" d="m32 28a9 9 0 0 0 -9 9v3h4v-3a5 5 0 0 1 10 0v3h4v-3a9 9 0 0 0 -9-9z"/><rect data-cppathid="10006" y="45" x="30" width="4" rx="2" height="9" fill="#3e3d42"/><g fill="#1a6fb0"><path data-cppathid="10007" d="m18 7h5v2h-5z"/><path data-cppathid="10008" d="m26 7h11v2h-11z"/><path data-cppathid="10009" d="m18 11h19v2h-19z"/><path data-cppathid="10010" d="m27 15h21v2h-21z"/><path data-cppathid="10011" d="m27 19h21v2h-21z"/></g></svg>