<?xml version="1.0" encoding="UTF-8"?>
<svg xmlns="http://www.w3.org/2000/svg" onmouseup="{ if(window.parent.document.onmouseup) window.parent.document.onmouseup(arguments[0]);}" width="512" viewBox="0 0 64 64" height="512" enable-background="new 0 0 64 64" id="Layer_5"><g><g><path data-cppathid="10000" fill="#5cd6b3" d="m7 40h29.51c-1.58 2.27-2.51 5.03-2.51 8s.93 5.73 2.51 8h-29.51l-5-8z"/><g fill="#ff826e"><circle data-cppathid="10001" r="2" cy="30" cx="20"/><circle data-cppathid="10002" r="2" cy="30" cx="28"/><circle data-cppathid="10003" r="2" cy="30" cx="12"/></g><path data-cppathid="10004" fill="#969faa" d="m34 16v4l-14.02 1.56c-2.65.29-5.32.44-7.98.44-1.1 0-2.1-.45-2.83-1.17-.72-.73-1.17-1.73-1.17-2.83s.45-2.1 1.17-2.83c.73-.72 1.73-1.17 2.83-1.17 2.66 0 5.33.15 7.98.44z"/><path data-cppathid="10005" fill="#ccd1d9" d="m40 15v6h-5c-.55 0-1-.45-1-1v-4c0-.55.45-1 1-1z"/><path data-cppathid="10006" fill="#ccd1d9" d="m60 17v2c0 1.1-.9 2-2 2h-2v-6h2c1.1 0 2 .9 2 2z"/><path data-cppathid="10007" fill="#cf9e76" d="m56 21v9h-16v-9-6-9h16v9z"/><path data-cppathid="10008" fill="#b27946" d="m58 3v2c0 .55-.45 1-1 1h-1-16-1c-.55 0-1-.45-1-1v-2c0-.55.45-1 1-1h18c.55 0 1 .45 1 1z"/><path data-cppathid="10009" fill="#b27946" d="m58 31v2c0 .55-.45 1-1 1h-9-9c-.55 0-1-.45-1-1v-2c0-.55.45-1 1-1h1 16 1c.55 0 1 .45 1 1z"/><path data-cppathid="10010" fill="#fcd770" d="m36.51 40c2.53-3.63 6.74-6 11.49-6 7.73 0 14 6.27 14 14s-6.27 14-14 14c-4.75 0-8.96-2.37-11.49-6-1.58-2.27-2.51-5.03-2.51-8s.93-5.73 2.51-8z"/></g><g><path data-cppathid="10011" d="m55.452 35h1.548c1.103 0 2-.897 2-2v-2c0-1.103-.897-2-2-2v-7h1c1.654 0 3-1.346 3-3v-2c0-1.654-1.346-3-3-3h-1v-7c1.103 0 2-.897 2-2v-2c0-1.103-.897-2-2-2h-18c-1.103 0-2 .897-2 2v2c0 1.103.897 2 2 2v7h-4c-.704 0-1.321.367-1.677.918l-13.237-1.471c-2.676-.297-5.397-.447-8.086-.447-2.757 0-5 2.243-5 5s2.243 5 5 5c2.689 0 5.41-.15 8.086-.447l13.237-1.471c.356.551.973.918 1.677.918h4v7c-1.103 0-2 .897-2 2v2c0 1.103.897 2 2 2h1.548c-1.766 1.016-3.3 2.381-4.52 4h-29.583l-5.625 9 5.625 9h29.583c2.74 3.635 7.079 6 11.972 6 8.271 0 15-6.729 15-15 0-5.558-3.045-10.409-7.548-13zm-35.587-14.436c-2.602.29-5.249.436-7.865.436-1.654 0-3-1.346-3-3s1.346-3 3-3c2.616 0 5.263.146 7.865.436l13.135 1.459v2.209zm38.135-4.564c.552 0 1 .448 1 1v2c0 .552-.448 1-1 1h-1v-4zm-19-13h18l.002 2h-18.002zm-4 17v-4h4v4zm6-13h14v22h-14zm-2 26v-2h18l.002 2zm-31.445 22-4.375-7 4.375-7h27.189c-1.11 2.092-1.744 4.472-1.744 7s.634 4.908 1.743 7zm40.445 6c-7.168 0-13-5.832-13-13s5.832-13 13-13 13 5.832 13 13-5.832 13-13 13z"/><path data-cppathid="10012" d="m52 49c-1.654 0-3 1.346-3 3s1.346 3 3 3 3-1.346 3-3-1.346-3-3-3zm0 4c-.552 0-1-.448-1-1s.448-1 1-1 1 .448 1 1-.448 1-1 1z"/><path data-cppathid="10013" d="m44 47c1.654 0 3-1.346 3-3s-1.346-3-3-3-3 1.346-3 3 1.346 3 3 3zm0-4c.552 0 1 .448 1 1s-.448 1-1 1-1-.448-1-1 .448-1 1-1z"/><path data-cppathid="10014" transform="matrix(.707 -.707 .707 .707 -19.882 48)" d="m38.101 47h19.799v2h-19.799z"/><path data-cppathid="10015" d="m9 45h2v8h2v-8h2v-2h-6z"/><path data-cppathid="10016" d="m20 43c-1.654 0-3 1.346-3 3v7h2v-2h2v2h2v-7c0-1.654-1.346-3-3-3zm-1 6v-3c0-.552.448-1 1-1s1 .448 1 1v3z"/><path data-cppathid="10017" d="m29 44.697-1 1.5-1-1.5v-1.697h-2v2.303l1.798 2.697-1.798 2.697v2.303h2v-1.697l1-1.5 1 1.5v1.697h2v-2.303l-1.798-2.697 1.798-2.697v-2.303h-2z"/><path data-cppathid="10018" d="m31 30c0-1.654-1.346-3-3-3s-3 1.346-3 3 1.346 3 3 3 3-1.346 3-3zm-4 0c0-.552.448-1 1-1s1 .448 1 1-.448 1-1 1-1-.448-1-1z"/><path data-cppathid="10019" d="m23 30c0-1.654-1.346-3-3-3s-3 1.346-3 3 1.346 3 3 3 3-1.346 3-3zm-4 0c0-.552.448-1 1-1s1 .448 1 1-.448 1-1 1-1-.448-1-1z"/><path data-cppathid="10020" d="m15 30c0-1.654-1.346-3-3-3s-3 1.346-3 3 1.346 3 3 3 3-1.346 3-3zm-4 0c0-.552.448-1 1-1s1 .448 1 1-.448 1-1 1-1-.448-1-1z"/></g></g></svg>