<?xml version="1.0" encoding="UTF-8"?>
<svg xmlns="http://www.w3.org/2000/svg" onmouseup="{ if(window.parent.document.onmouseup) window.parent.document.onmouseup(arguments[0]);}" width="512" viewBox="0 0 64 64" height="512"><g id="Application"><rect data-cppathid="10000" y="3" x="18" width="28" rx="2" height="46" fill="#46f8ff"/><path data-cppathid="10001" fill="#00b6bd" d="m46 5v42a2.006 2.006 0 0 1 -2 2h-4a2.006 2.006 0 0 0 2-2v-42a2.006 2.006 0 0 0 -2-2h4a2.006 2.006 0 0 1 2 2z"/><path data-cppathid="10002" fill="#d9ccbc" d="m43 7h18v10h-18z"/><path data-cppathid="10003" fill="#c0ab91" d="m57 7h4v10h-4z"/><g fill="#ffb655"><path data-cppathid="10004" d="m48 21a3 3 0 0 1 0 6h-4a3 3 0 0 1 0-6z"/><path data-cppathid="10005" d="m48 27a3 3 0 0 1 0 6h-4a3 3 0 0 1 0-6z"/><path data-cppathid="10006" d="m48 33a3 3 0 0 1 0 6h-4a3 3 0 0 1 0-6z"/><path data-cppathid="10007" d="m48 39a3 3 0 0 1 0 6h-4a3 3 0 0 1 0-6z"/></g><path data-cppathid="10008" fill="#ff9811" d="m51 24a3 3 0 0 1 -3 3h-4a3 3 0 0 0 0-6h4a3 3 0 0 1 3 3z"/><path data-cppathid="10009" fill="#ff9811" d="m51 30a3 3 0 0 1 -3 3h-4a3 3 0 0 0 0-6h4a3 3 0 0 1 3 3z"/><path data-cppathid="10010" fill="#ff9811" d="m51 36a3 3 0 0 1 -3 3h-4a3 3 0 0 0 0-6h4a3 3 0 0 1 3 3z"/><path data-cppathid="10011" fill="#ff9811" d="m51 42a3 3 0 0 1 -3 3h-4a3 3 0 0 0 0-6h4a3 3 0 0 1 3 3z"/><path data-cppathid="10012" fill="#ffb655" d="m41.2 49-4.2 6h-22l-2-21v-4a4 4 0 0 1 4-4h7a4 4 0 0 1 0 8h-6v13a2.006 2.006 0 0 0 2 2z"/><path data-cppathid="10013" fill="#ff9811" d="m28 30a4 4 0 0 1 -4 4h-4a4 4 0 1 0 0-8h4a3.995 3.995 0 0 1 4 4z"/><path data-cppathid="10014" fill="#ff7956" d="m41 3-.62 2.49a1.992 1.992 0 0 1 -1.94 1.51h-12.88a1.992 1.992 0 0 1 -1.94-1.51l-.62-2.49z"/><path data-cppathid="10015" fill="#ff5023" d="m41 3-.62 2.49a1.992 1.992 0 0 1 -1.94 1.51h-4a1.992 1.992 0 0 0 1.94-1.51l.62-2.49z"/><path data-cppathid="10016" fill="#2488ff" d="m15 55h22v6h-22z"/><path data-cppathid="10017" fill="#005ece" d="m33 55h4v6h-4z"/><path data-cppathid="10018" fill="#fee9ab" d="m23 10v12h-5-15v-12h15z"/><path data-cppathid="10019" fill="#ffd422" d="m19 10h4v12h-4z"/><path data-cppathid="10020" d="m25 44h14v2h-14z"/><path data-cppathid="10021" d="m21 44h2v2h-2z"/><path data-cppathid="10022" d="m61 6h-14v-1a3.009 3.009 0 0 0 -3-3h-24a3.009 3.009 0 0 0 -3 3v4h-14a1 1 0 0 0 -1 1v12a1 1 0 0 0 1 1h14v2a5 5 0 0 0 -5 5v4.09l2 20.95v5.96a1 1 0 0 0 1 1h22a1 1 0 0 0 1-1v-5.68l3.72-5.32h2.28a3.009 3.009 0 0 0 3-3v-1h1a3.985 3.985 0 0 0 2.62-7 3.951 3.951 0 0 0 0-6 3.951 3.951 0 0 0 0-6 3.985 3.985 0 0 0 -2.62-7h-1v-2h14a1 1 0 0 0 1-1v-10a1 1 0 0 0 -1-1zm-21.28-2-.31 1.24a1 1 0 0 1 -.97.76h-12.88a1 1 0 0 1 -.97-.76l-.31-1.24zm-35.72 17v-10h18v10zm32 39h-20v-4h20zm.48-6h-20.57l-1.91-20v-4a3.009 3.009 0 0 1 3-3h7a3 3 0 0 1 0 6h-6a1 1 0 0 0 -1 1v13a3.009 3.009 0 0 0 3 3h19.28zm8.52-7a1 1 0 0 1 -1 1h-24a1 1 0 0 1 -1-1v-12h5a5 5 0 0 0 0-10h-5v-2h4a1 1 0 0 0 1-1v-12a1 1 0 0 0 -1-1h-4v-4a1 1 0 0 1 1-1h2.22l.43 1.73a3 3 0 0 0 2.91 2.27h12.88a3 3 0 0 0 2.91-2.27l.43-1.73h2.22a1 1 0 0 1 1 1v1h-2a1 1 0 0 0 -1 1v10a1 1 0 0 0 1 1h2v2h-1a3.985 3.985 0 0 0 -2.62 7 3.951 3.951 0 0 0 0 6 3.951 3.951 0 0 0 0 6 3.985 3.985 0 0 0 2.62 7h1zm3-3h-4a2 2 0 0 1 0-4h4a2 2 0 0 1 0 4zm0-6h-4a2 2 0 0 1 0-4h4a2 2 0 0 1 0 4zm0-6h-4a2 2 0 0 1 0-4h4a2 2 0 0 1 0 4zm0-10a2 2 0 0 1 0 4h-4a2 2 0 0 1 0-4zm12-6h-16v-8h16z"/><path data-cppathid="10023" d="m6 13h2v2h-2z"/><path data-cppathid="10024" d="m10 13h10v2h-10z"/><path data-cppathid="10025" d="m6 17h14v2h-14z"/><path data-cppathid="10026" d="m46 11h4v2h-4z"/><path data-cppathid="10027" d="m52 11h6v2h-6z"/></g></svg>