<?xml version="1.0" encoding="UTF-8"?>
<svg xmlns="http://www.w3.org/2000/svg" onmouseup="{ if(window.parent.document.onmouseup) window.parent.document.onmouseup(arguments[0]);}" width="512" viewBox="0 0 58 58" height="512"><g fill-rule="evenodd" fill="none" id="Page-1"><g fill-rule="nonzero" id="001---Buy-Button"><path data-cppathid="10000" fill="#4fba6f" d="m30.95 26h24.05c1.6568542 0 3-1.3431458 3-3v-20c0-1.65685425-1.3431458-3-3-3h-52c-1.65685425 0-3 1.34314575-3 3v20c0 1.6568542 1.34314575 3 3 3z" id="Shape"/><g fill="#fff"><path data-cppathid="10001" d="m19.4 12.642c1.5062432-1.3953154 2.0029073-3.57142621 1.2512021-5.48208391s-2.5979978-3.16498501-4.6512021-3.15991609h-5c-.5522847 0-1 .44771525-1 1v16c0 .5522847.4477153 1 1 1h6c2.2807372.0067458 4.2749318-1.5358274 4.8415267-3.7450756.566595-2.2092483-.4390546-4.5211767-2.4415267-5.6129244zm-7.4-6.642h4c1.6568542 0 3 1.34314575 3 3 0 1.6568542-1.3431458 3-3 3h-4zm5 14h-5v-6h5c1.6568542 0 3 1.3431458 3 3s-1.3431458 3-3 3z" id="Shape"/><path data-cppathid="10002" d="m34 4c-.5522847 0-1 .44771525-1 1v11.5c0 1.9329966-1.5670034 3.5-3.5 3.5s-3.5-1.5670034-3.5-3.5v-11.5c0-.55228475-.4477153-1-1-1s-1 .44771525-1 1v11.5c0 3.0375661 2.4624339 5.5 5.5 5.5s5.5-2.4624339 5.5-5.5v-11.5c0-.55228475-.4477153-1-1-1z" id="Shape"/><path data-cppathid="10003" d="m50.555 4.168c-.2206502-.14722824-.4907558-.20075724-.7508787-.14880768s-.488948.20512081-.6361213.42580768l-5.168 7.755-5.168-7.755c-.1982824-.29724499-.5400812-.46612829-.8966441-.44303318s-.6737195.23465992-.832.55500002c-.1582805.32034009-.1336383.70078819.0646441.99803316l5.832 8.745v6.7c0 .5522847.4477153 1 1 1s1-.4477153 1-1v-6.7l5.832-8.748c.3045467-.45889784.1807043-1.07766251-.277-1.384z" id="Shape"/></g><path data-cppathid="10004" fill="#fdd7ad" d="m46 40.5v12.5c0 2.7614237-2.2385763 5-5 5h-11c-1.1748934.0029697-2.29113-.513061-3.05-1.41v-.01c-.1791211-.2044873-.3335193-.4293715-.46-.67-.7299538-1.4149876-1.6631884-2.7154518-2.77-3.86-2.0200089-1.9279046-4.1610292-3.724892-6.41-5.38-.8010373-.5938412-1.2723989-1.5328529-1.27-2.53-.0029326-1.1122322.5785268-2.1442688 1.5313562-2.7180156.9528294-.5737467 2.1369854-.6048764 3.1186438-.0819844l5.31 2.66v-17.5c0-1.3807119 1.1192881-2.5 2.5-2.5s2.5 1.1192881 2.5 2.5v8c-.0002425-1.1881715.8358344-2.2123657 2-2.45.1647784-.03198.3321518-.0487173.5-.05.6636932-.0021341 1.3008186.2605727 1.770123.729877.4693043.4693044.7320111 1.1064298.729877 1.770123v3c-.0002425-1.1881715.8358344-2.2123657 2-2.45.1647784-.03198.3321518-.0487173.5-.05.6636932-.0021341 1.3008186.2605727 1.770123.729877.4693043.4693044.7320111 1.1064298.729877 1.770123v3c-.0002425-1.1881715.8358344-2.2123657 2-2.45.1647784-.03198.3321518-.0487173.5-.05.6636932-.0021341 1.3008186.2605727 1.770123.729877.4693043.4693044.7320111 1.1064298.729877 1.770123z" id="Shape"/><path data-cppathid="10005" fill="#f9c795" d="m33 32.05v9.95c0 .5522847-.4477153 1-1 1s-1-.4477153-1-1v-7.5c-.0002425-1.1881715.8358344-2.2123657 2-2.45z" id="Shape"/><path data-cppathid="10006" fill="#f9c795" d="m38 35.05v6.95c0 .5522847-.4477153 1-1 1s-1-.4477153-1-1v-4.5c-.0002425-1.1881715.8358344-2.2123657 2-2.45z" id="Shape"/><path data-cppathid="10007" fill="#f9c795" d="m43 38.05v4.95c0 .5522847-.4477153 1-1 1s-1-.4477153-1-1v-2.5c-.0002425-1.1881715.8358344-2.2123657 2-2.45z" id="Shape"/></g></g></svg>