<?xml version="1.0" encoding="UTF-8"?>
<svg xmlns="http://www.w3.org/2000/svg" onmouseup="{ if(window.parent.document.onmouseup) window.parent.document.onmouseup(arguments[0]);}" width="512" viewBox="0 0 60 60" height="512"><g transform="translate(-1)" fill="none" id="059---Financial-Gain"><path data-cppathid="10000" fill="#a3d274" d="m23 35v-20c0-.5522847-.4477153-1-1-1h-2.45c-.4098334-.0014102-.7773196-.2527467-.9272453-.6341753-.1499256-.3814285-.0519373-.8157262.2472453-1.0958247l11.45-11c.381804-.36014795.978196-.36014795 1.36 0 2.06 1.91 8.3 8.07 11.46 11 .3005265.2813438.3979309.7181101.2454225 1.1004864-.1525085.3823764-.5237635.6322207-.9354225.6295136h-2.45c-.5522847 0-1 .4477153-1 1v20z" id="Path"/><rect data-cppathid="10001" y="53" x="36" width="24" rx="2" height="6" fill="#f2a95a" id="Rectangle"/><rect data-cppathid="10002" y="23" x="36" width="24" rx="2" height="6" fill="#fdd267" id="Rectangle"/><rect data-cppathid="10003" y="29" x="33" width="24" rx="2" height="6" fill="#f2a95a" id="Rectangle"/><rect data-cppathid="10004" y="35" x="34" width="24" rx="2" height="6" fill="#fdd267" id="Rectangle"/><rect data-cppathid="10005" y="41" x="35" width="24" rx="2" height="6" fill="#f2a95a" id="Rectangle"/><rect data-cppathid="10006" y="47" x="33" width="24" rx="2" height="6" fill="#fdd267" id="Rectangle"/><circle data-cppathid="10007" r="17" fill="#fab864" cy="42" cx="19" id="Oval"/><circle data-cppathid="10008" r="13" fill="#fdd267" cy="42" cx="19" id="Oval"/><g fill="#373737"><path data-cppathid="10009" d="m58 22h-18v-7h2.45c.8231607.0026348 1.5638623-.4993508 1.8664128-1.2648988.3025506-.7655479.1051481-1.6382797-.4974128-2.1991012-1.736-1.61-4.433-4.225-6.813-6.536-1.993-1.931-3.716-3.6-4.649-4.466-.7723107-.71280756-1.9645717-.70625427-2.729.015l-11.438 10.987c-.6013521.5597035-.7992785 1.4302136-.4990523 2.1949074.3002262.7646937 1.0375347 1.2680216 1.8590523 1.2690926h2.45v6c0 .5522847.4477153 1 1 1s1-.4477153 1-1v-6c0-1.1045695-.8954305-2-2-2l-2.438-.01 11.438-10.99c.914.848 2.711 2.59 4.614 4.435 2.386 2.318 5.093 4.942 6.836 6.565h-2.45c-1.1045695 0-2 .8954305-2 2v7c-1.6568542 0-3 1.3431458-3 3v2c.0033144.3414397.0655622.679743.184 1h-.184c-1.2086782.0004342-2.2990474.7261644-2.766 1.841-5.0924498-5.5457273-13.0994641-7.3341057-20.0675559-4.4821181-6.96809182 2.8519877-11.42346325 9.741127-11.16626152 17.2658851s5.17257673 14.0935984 12.31914412 16.4631367c7.1465674 2.3695383 15.0127804.0386014 19.7146733-5.8419037.5416488.482358 1.2407137.7504633 1.966.754h.184c-.1184378.320257-.1806856.6585603-.184 1v2c0 1.6568542 1.3431458 3 3 3h20c1.6568542 0 3-1.3431458 3-3v-2c0-1.6568542-1.3431458-3-3-3h-.184c.1184378-.320257.1806856-.6585603.184-1v-2c-.0010973-.3826652-.0757874-.7615475-.22-1.116 1.3052127-.3514286 2.2142178-1.5323163 2.22-2.884v-2c-.0018551-1.0273655-.5303387-1.9820333-1.4-2.529.2591718-.4471277.3970562-.9541978.4-1.471v-2c-.0018551-1.0273655-.5303387-1.9820333-1.4-2.529.2591718-.4471277.3970562-.9541978.4-1.471v-2c-.0033144-.3414397-.0655622-.679743-.184-1h.184c1.6568542 0 3-1.3431458 3-3v-2c0-1.6568542-1.3431458-3-3-3zm-2 14c.5522847 0 1 .4477153 1 1v2c0 .5522847-.4477153 1-1 1h-19.118c-.1552851-1.3648283-.4680331-2.7070945-.932-4zm-37 18c-6.627417 0-12-5.372583-12-12s5.372583-12 12-12 12 5.372583 12 12c-.0071648 6.624447-5.375553 11.9928352-12 12zm9.154-22.568c-2.2791857-1.9818295-5.1411623-3.1685284-8.154-3.381v-2c3.5424501.2184688 6.9102247 1.6147859 9.568 3.967zm-10.154-3.381c-3.0128377.2124716-5.8748143 1.3991705-8.154 3.381l-1.414-1.414c2.6577753-2.3522141 6.0255499-3.7485312 9.568-3.967zm-9.568 4.795c-1.9818295 2.2791857-3.16852841 5.1411623-3.381 8.154h-2c.21846878-3.5424501 1.61478586-6.9102247 3.967-9.568zm-3.381 10.154c.21247159 3.0128377 1.3991705 5.8748143 3.381 8.154l-1.414 1.414c-2.35221414-2.6577753-3.74853122-6.0255499-3.967-9.568zm4.8 9.568c2.2778448 1.9808322 5.1379078 3.1674653 8.149 3.381v2c-3.5424501-.2184688-6.9102247-1.6147859-9.568-3.967zm10.149 3.381c3.0128377-.2124716 5.8748143-1.3991705 8.154-3.381l1.414 1.414c-2.6577753 2.3522141-6.0255499 3.7485312-9.568 3.967zm9.568-4.795c1.9818295-2.2791857 3.1685284-5.1411623 3.381-8.154h2c-.2184688 3.5424501-1.6147859 6.9102247-3.967 9.568zm5.381-10.154h-2c-.2124716-3.0128377-1.3991705-5.8748143-3.381-8.154l1.414-1.414c2.3522141 2.6577753 3.7485312 6.0255499 3.967 9.568zm24.051 14v2c0 .5522847-.4477153 1-1 1h-20c-.5522847 0-1-.4477153-1-1v-2c0-.5522847.4477153-1 1-1h20c.5522847 0 1 .4477153 1 1zm-21-3h-3c-.3171184.0000805-.6148801-.1525224-.8-.41.7150372-1.1278562 1.3020015-2.3319717 1.75-3.59h19.05c.5522847 0 1 .4477153 1 1v2c0 .5522847-.4477153 1-1 1zm20-7c0 .5522847-.4477153 1-1 1h-20.464c.3042158-1.3117079.4598618-2.6534831.464-4h20c.5522847 0 1 .4477153 1 1zm-2-14v2c0 .5522847-.4477153 1-1 1h-19.9c-.3261254-.6649645-.6935088-1.3088874-1.1-1.928v-1.072c0-.5522847.4477153-1 1-1h20c.5522847 0 1 .4477153 1 1zm3-4c0 .5522847-.4477153 1-1 1h-20c-.5522847 0-1-.4477153-1-1v-2c0-.5522847.4477153-1 1-1h20c.5522847 0 1 .4477153 1 1z" id="Shape"/><path data-cppathid="10010" d="m22 38c0 .5522847.4477153 1 1 1s1-.4477153 1-1c-.0029983-2.3751008-1.6735832-4.4215673-4-4.9v-.1c0-.5522847-.4477153-1-1-1s-1 .4477153-1 1v.1c-2.330324.4731925-4.0050126 2.5221184-4.0050126 4.9s1.6746886 4.4268075 4.0050126 4.9v5.917c-1.1946951-.4223781-1.9951701-1.5498471-2-2.817 0-.5522847-.4477153-1-1-1s-1 .4477153-1 1c.0029983 2.3751008 1.6735832 4.4215673 4 4.9v.1c0 .5522847.4477153 1 1 1s1-.4477153 1-1v-.1c2.330324-.4731925 4.0050126-2.5221184 4.0050126-4.9s-1.6746886-4.4268075-4.0050126-4.9v-5.916c1.1943509.4222546 1.9947486 1.5492146 2 2.816zm-6 0c.0052514-1.2667854.8056491-2.3937454 2-2.816v5.632c-1.1943509-.4222546-1.9947486-1.5492146-2-2.816zm6 8c-.0052514 1.2667854-.8056491 2.3937454-2 2.816v-5.632c1.1943509.4222546 1.9947486 1.5492146 2 2.816z" id="Shape"/></g></g></svg>