<?xml version="1.0" encoding="UTF-8"?>
<svg xmlns="http://www.w3.org/2000/svg" onmouseup="{ if(window.parent.document.onmouseup) window.parent.document.onmouseup(arguments[0]);}" width="512" viewBox="0 0 512 512" height="512" enable-background="new 0 0 512 512" id="Layer_1"><g><g><path data-cppathid="10000" fill="#eff4f4" d="m466 256.087c0 180.17-106.97 248.41-210 248.41-5 0-10-.16-15-.49-98.15-6.39-195-76.49-195-247.92 0-174.59 97.61-241.95 195-248.12 5-.31 10.01-.47 15-.47 102.1 0 210 65.02 210 248.59z"/><path data-cppathid="10001" fill="#daeaef" d="m466 256.087c0 180.17-106.97 248.41-210 248.41-5 0-10-.16-15-.49 98.15-6.39 195-76.49 195-247.92 0-174.59-97.61-241.95-195-248.12 5-.31 10.01-.47 15-.47 102.1 0 210 65.02 210 248.59z"/><path data-cppathid="10002" fill="#ff6b81" d="m378.22 84.307c-15.09-14.88-33.28-26.46-53.64-34.39-20.93-8.15-44.14-12.42-68.58-12.42-48.21 0-91.62 16.63-122.22 46.81-38.34 37.83-57.78 95.62-57.78 171.78 0 39.5 5.55 74.66 16.49 104.49 9.61 26.2 23.43 48.42 41.08 66.05 30.89 30.87 74.37 47.87 122.43 47.87 23.98 0 46.82-4.23 67.52-12.31 20.8-8.11 39.43-20.09 54.91-35.56 17.65-17.63 31.47-39.85 41.08-66.05 10.94-29.83 16.49-64.99 16.49-104.49 0-76.16-19.44-133.95-57.78-171.78zm-122.22 296.69c-34.34 0-70-34.33-70-124.95 0-92.34 35.97-125.05 70-125.05s70 32.71 70 125.05c0 90.62-35.66 124.95-70 124.95z"/><path data-cppathid="10003" fill="#ed2061" d="m436 256.087c0 39.5-5.55 74.66-16.49 104.49-9.61 26.2-23.43 48.42-41.08 66.05-15.48 15.47-34.11 27.45-54.91 35.56 48.31-38.2 82.48-104.28 82.48-206.1 0-102.7-33.78-168.3-81.42-206.17 20.36 7.93 38.55 19.51 53.64 34.39 38.34 37.83 57.78 95.62 57.78 171.78z"/></g><g><path data-cppathid="10004" d="m98.603 78.302c3.112 2.734 7.852 2.425 10.584-.688 35.453-40.377 87.592-62.614 146.813-62.614 62.242 0 116.125 24.31 151.725 68.451 1.481 1.838 3.652 2.792 5.843 2.792 1.652 0 3.316-.544 4.703-1.662 3.225-2.601 3.73-7.322 1.13-10.546-38.503-47.742-96.533-74.035-163.401-74.035-63.6 0-119.743 24.049-158.084 67.718-2.733 3.112-2.426 7.851.687 10.584z"/><path data-cppathid="10005" d="m438.557 102.335c-2.036-3.606-6.608-4.878-10.219-2.842-3.606 2.037-4.879 6.611-2.842 10.219 21.899 38.776 33.003 88.024 33.003 146.376 0 42.153-6.011 79.916-17.865 112.239-10.742 29.291-26.319 54.264-46.298 74.224-35.147 35.112-84.275 54.449-138.336 54.449s-103.189-19.337-138.336-54.449c-19.979-19.96-35.557-44.933-46.298-74.224-11.855-32.323-17.866-70.086-17.866-112.239 0-62.312 12.628-114.125 37.535-154.003 2.194-3.513 1.125-8.14-2.388-10.334-3.515-2.193-8.141-1.126-10.334 2.389-26.418 42.297-39.813 96.784-39.813 161.948 0 43.921 6.319 83.421 18.782 117.404 11.499 31.353 28.247 58.157 49.78 79.67 37.98 37.942 90.873 58.838 148.938 58.838s110.958-20.896 148.937-58.838c21.533-21.513 38.282-48.317 49.78-79.67 12.463-33.983 18.782-73.483 18.782-117.404.001-60.968-11.755-112.697-34.942-153.753z"/><path data-cppathid="10006" d="m128.26 421.331c-2.928 2.931-2.925 7.679.005 10.606 32.313 32.283 77.677 50.062 127.735 50.062 50.057 0 95.42-17.778 127.735-50.062 18.426-18.407 32.831-41.546 42.816-68.775 11.246-30.664 16.948-66.688 16.948-107.074 0-78.242-20.191-137.833-60.015-177.116-32.012-31.581-77.287-48.973-127.484-48.973s-95.473 17.392-127.486 48.973c-39.822 39.283-60.014 98.874-60.014 177.116 0 40.386 5.702 76.41 16.948 107.074 5.581 15.217 12.621 29.307 20.927 41.878 2.284 3.457 6.937 4.407 10.392 2.124 3.456-2.283 4.407-6.936 2.124-10.392-7.666-11.603-14.179-24.648-19.359-38.774-10.638-29.005-16.032-63.292-16.032-101.91 0-74.079 18.689-130.077 55.548-166.438 29.188-28.793 70.723-44.65 116.952-44.65s87.763 15.857 116.952 44.65c36.858 36.361 55.548 92.359 55.548 166.438 0 38.618-5.394 72.905-16.03 101.91-9.229 25.166-22.464 46.473-39.336 63.328-29.481 29.452-71.08 45.673-117.133 45.673-46.054 0-87.653-16.221-117.133-45.673-2.931-2.927-7.68-2.926-10.608.005z"/><path data-cppathid="10007" d="m256 138.5c31.287 0 53.869 30.66 60.409 82.017.522 4.109 4.285 7.014 8.387 6.492 4.109-.522 7.016-4.278 6.492-8.387-4.017-31.551-13.401-55.951-27.893-72.521-12.929-14.786-29.318-22.601-47.395-22.601-21.294 0-40.468 11.085-53.988 31.212-15.601 23.226-23.512 57.318-23.512 101.332 0 43.38 7.863 77.229 23.371 100.608 13.622 20.537 32.846 31.848 54.129 31.848 21.284 0 40.506-11.311 54.129-31.848 15.507-23.379 23.37-57.229 23.37-100.608 0-4.143-3.357-7.5-7.5-7.5s-7.5 3.357-7.5 7.5c0 39.811-7.217 71.733-20.871 92.317-10.751 16.211-25.535 25.139-41.628 25.139-16.092 0-30.876-8.928-41.629-25.139-13.654-20.584-20.871-52.507-20.871-92.317 0-86.665 32.286-117.544 62.5-117.544z"/></g></g></svg>