<?xml version="1.0" encoding="UTF-8"?>
<svg xmlns="http://www.w3.org/2000/svg" onmouseup="{ if(window.parent.document.onmouseup) window.parent.document.onmouseup(arguments[0]);}" xml:space="preserve" style="enable-background:new 0 0 512 512;" viewBox="0 0 512 512" y="0px" x="0px" id="Capa_1" version="1.1" xmlns:xlink="http://www.w3.org/1999/xlink"><path data-cppathid="10000" d="M240,272V62h-15C100.8,62,0,162.8,0,287c0,62.1,25.201,118.2,66,159s96.899,66,159,66  c124.2,0,225-100.8,225-225v-15H240z" style="fill:#77DD00;"/><path data-cppathid="10001" d="M446,66C405.2,25.199,349.1,0,287,0h-15v240h240v-15C512,162.9,486.799,106.8,446,66z" style="fill:#FFD400;"/><path data-cppathid="10002" d="M240,272h210v15c0,124.2-100.8,225-225,225c-62.1,0-118.2-25.201-159-66L240,272z" style="fill:#66BB00;"/><path data-cppathid="10003" d="M512,225v15H272L446,66C486.799,106.8,512,162.9,512,225z" style="fill:#FF9F00;"/><g/><g/><g/><g/><g/><g/><g/><g/><g/><g/><g/><g/><g/><g/><g/></svg>