<?xml version="1.0" encoding="UTF-8"?>
<svg xmlns="http://www.w3.org/2000/svg" onmouseup="{ if(window.parent.document.onmouseup) window.parent.document.onmouseup(arguments[0]);}" xml:space="preserve" style="enable-background:new 0 0 494.3 494.3;" viewBox="0 0 494.3 494.3" y="0px" x="0px" id="Capa_1" version="1.1" xmlns:xlink="http://www.w3.org/1999/xlink"><g><g><path data-cppathid="10000" d="M416.138,313.3V136.2c0-5.5-4.5-9.3-10-9.3h-38.7c-5.5,0-10.3,3.8-10.3,9.3V296c-6.4,0.2-12.8,1-19,2.5V188.4    c0-5.5-4.7-9.5-10.2-9.5h-38.7c-5.5,0-10.1,3.9-10.1,9.5v149.3c-11.9,16.7-18.3,36.8-18.2,57.4c0,54.8,44.4,99.2,99.1,99.2    c54.8,0,99.2-44.4,99.2-99.1C459.238,362.4,443.138,331.8,416.138,313.3z M377.138,146.9h19v155.8c-6.1-2.4-12.5-4.2-19-5.2V146.9    z M299.138,198.9h19v106.5c-6.7,3.1-13.1,6.9-19,11.4V198.9z M428.238,435.4c-14.3,24.1-40.2,38.8-68.1,38.8    c-43.7,0-79.1-35.5-79.1-79.1c0-32,19.3-60.9,48.9-73.1c1.2-0.2,2.3-0.7,3.3-1.3c8.6-3.2,17.8-4.8,27-4.8c2.1,0,4.1,0.1,6.2,0.3    h0.1c12,0.9,23.7,4.6,34,10.8C438.138,349.3,450.538,397.8,428.238,435.4z"/></g></g><g><g><path data-cppathid="10001" d="M389.838,364.7h-8.4c-0.6-1.7-1.3-3.4-2.2-5h10.5c5.7,0.2,10.1-4.3,10.1-9.8s-4.5-10-10-10h-59.5c-5.5,0-10,4.5-10,10    s4.5,10,10,10h17c4.5,0,8.8,1.8,11.9,5h-29c-5.5,0-10,4.5-10,10s4.5,10,10,10h28.9c-0.3,1-0.6,0.9-0.9,1.2c-2.9,3-6.9,4.7-11,4.8    h-17c-5.4-0.1-9.9,4.1-10,9.5c-0.1,2.8,1.1,5.5,3.1,7.4l42.6,40.2c4,3.8,10.4,3.6,14.2-0.4s3.6-10.4-0.4-14.2l-25.1-23.8    c6.8-1.4,12.9-4.8,17.8-9.7c4.3-4.2,7.4-9.4,9-15.2h8.4c5.5,0,10-4.5,10-10S395.338,364.7,389.838,364.7z"/></g></g><g><g><path data-cppathid="10002" d="M171.138,258.9h-39c-5.5,0-10,4.5-10,10v157c0,5.5,4.5,10,10,10h39c5.5,0,10-4.5,10-10v-157    C181.138,263.4,176.638,258.9,171.138,258.9z M161.138,416.9h-19v-138h19V416.9z"/></g></g><g><g><path data-cppathid="10003" d="M250.138,235.9h-39c-5.5,0-10,4.5-10,10v181c0,5.5,4.5,10,10,10h39c5.5,0,10-4.5,10-10v-181    C260.138,240.4,255.638,235.9,250.138,235.9z M240.138,416.9h-19v-161h19V416.9z"/></g></g><g><g><path data-cppathid="10004" d="M92.138,344.9h-39c-5.5,0-10,4.5-10,10v71c0,5.5,4.5,10,10,10h39c5.5,0,10-4.5,10-10v-71    C102.138,349.4,97.638,344.9,92.138,344.9z M82.138,416.9h-19v-52h19V416.9z"/></g></g><g><g><path data-cppathid="10005" d="M414.638,0l-68.4,0.1c-5.5-0.1-10,4.4-10.1,9.9s4.4,10,9.9,10.1c0.1,0,0.1,0,0.2,0l44.3-0.1l-108.5,108.1l-37.9-37.6    c-1.9-1.8-4.5-2.7-7.1-2.6c-2.6-0.1-5.2,0.8-7.1,2.6l-192,192c-3.9,3.9-3.8,10.2,0.1,14.1c3.9,3.8,10.2,3.8,14.1-0.1l185-185    l37.9,38.2c1.8,2,4.4,3.1,7.1,3.2c2.7-0.1,5.2-1.3,7.1-3.2l115.4-115.5l-0.1,44.5c0,5.6,4.4,10.1,10,10.3c5.6-0.1,10-4.7,10-10.3    l0.1-68.6C424.638,4.6,420.138,0,414.638,0z"/></g></g><g/><g/><g/><g/><g/><g/><g/><g/><g/><g/><g/><g/><g/><g/><g/></svg>