<?xml version="1.0" encoding="UTF-8"?>
<svg xmlns="http://www.w3.org/2000/svg" onmouseup="{ if(window.parent.document.onmouseup) window.parent.document.onmouseup(arguments[0]);}" width="512" viewBox="0 0 512 512" height="512"><g id="Flat"><path data-cppathid="10000" fill="#eaae48" d="m344 80.753-24-32a24.721 24.721 0 0 1 35.777-22.111l28.223 14.111 28.223-14.111a24.721 24.721 0 0 1 35.777 22.111l-24 32v32l54.751 88.97a62.356 62.356 0 0 1 9.249 32.677 62.352 62.352 0 0 1 -62.352 62.351h-83.3a62.352 62.352 0 0 1 -62.348-62.351 62.356 62.356 0 0 1 9.249-32.678l54.751-88.969z"/><g fill="#b0792c"><path data-cppathid="10001" d="m392 169.8v-9.046h-16v9.046a22.833 22.833 0 0 0 -3.378 42.209l15.6 7.8a6.833 6.833 0 0 1 -3.056 12.944h-2.334a6.84 6.84 0 0 1 -6.832-6.833v-1.167h-16v1.167a22.873 22.873 0 0 0 16 21.788v9.045h16v-9.045a22.834 22.834 0 0 0 3.378-42.21l-15.6-7.8a6.833 6.833 0 0 1 3.056-12.945h2.334a6.841 6.841 0 0 1 6.832 6.833v1.167h16v-1.167a22.872 22.872 0 0 0 -16-21.786z"/><path data-cppathid="10002" d="m424 200.753h16v16h-16z"/><path data-cppathid="10003" d="m344 80.753h80v32h-80z"/></g><path data-cppathid="10004" fill="#85bb40" d="m128 448v-248h192v232z"/><path data-cppathid="10005" fill="#d1df87" d="m280 296h-16v-24a8 8 0 0 0 -8-8h-24v-24a8 8 0 0 0 -8-8h-32a8 8 0 0 0 -8 8v56h-16v16h112zm-32-16v16h-16v-16zm-48-32h16v48h-16z"/><path data-cppathid="10006" fill="#d1df87" d="m160 336h16v16h-16z"/><path data-cppathid="10007" fill="#d1df87" d="m192 336h96v16h-96z"/><path data-cppathid="10008" fill="#ed5749" d="m169.877 174.811 15.822 2.378a152.1 152.1 0 0 1 3.089-15.189l-15.494-3.99a167.792 167.792 0 0 0 -3.417 16.801z"/><path data-cppathid="10009" fill="#ed5749" d="m412.539 314a151.806 151.806 0 0 1 -70.131 34.958l3.184 15.68a167.835 167.835 0 0 0 77.535-38.638z"/><path data-cppathid="10010" fill="#ed5749" d="m290.529 39.589-45.537-15.179-5.058 15.18 24.809 8.269a169.41 169.41 0 0 0 -86.163 93.341l14.988 5.6a153.266 153.266 0 0 1 81.479-86.061l-9.816 29.448 15.18 5.058 15.179-45.537a8 8 0 0 0 -5.061-10.119z"/><path data-cppathid="10011" fill="#f8caa8" d="m64 360h28.278a178.893 178.893 0 0 1 80.006 18.887 48.44 48.44 0 0 0 21.66 5.113h62.056a20 20 0 0 1 20 20 20 20 0 0 1 -20 20h-.493a41.742 41.742 0 0 0 16.311-3.319l66.883-28.4a21.04 21.04 0 0 1 27.78 11.868 21.624 21.624 0 0 1 -12.215 28.131l-123.582 47.12a130.744 130.744 0 0 1 -95.943-1.06l-70.741-29.375-32-.965v-88z"/><path data-cppathid="10012" fill="#0093b9" d="m16 352h48v112h-48z"/><rect data-cppathid="10013" y="416" x="160" width="95.507" rx="8" height="16" fill="#e99180"/></g></svg>