<?xml version="1.0" encoding="UTF-8"?>
<svg xmlns="http://www.w3.org/2000/svg" onmouseup="{ if(window.parent.document.onmouseup) window.parent.document.onmouseup(arguments[0]);}" width="454pt" viewBox="0 -30 454.93922 454" height="454pt"><path data-cppathid="10000" fill="#6fe3ff" d="m357.941406 207.839844c49.886719-.320313 90.640625 39.761718 91.15625 89.648437.511719 49.886719-39.410156 90.796875-89.292968 91.503907-49.882813.707031-90.949219-39.054688-91.851563-88.933594-.902344-49.882813 38.699219-91.101563 88.578125-92.199219.46875-.019531.9375-.019531 1.410156-.019531zm0 0"/><path data-cppathid="10001" fill="#e48e66" d="m74.21875 318.191406c10.648438-6.164062 18.289062-16.4375 21.121094-28.410156l39.109375-138.101562c3.839843-16.179688 18.292969-27.601563 34.921875-27.601563h161.738281c10.734375.003906 20.90625 4.808594 27.71875 13.101563 6.816406 8.292968 9.5625 19.199218 7.480469 29.730468l-9.777344 40.949219c-28.289062.453125-54.71875 14.175781-71.363281 37.054687-16.644531 22.878907-21.566407 52.25-13.289063 79.304688h-220.097656c7.878906.007812 15.621094-2.074219 22.4375-6.027344zm0 0"/><path data-cppathid="10002" fill="#f8ec7d" d="m301.148438 80.449219v43.628906h-17.9375c0-15.519531-12.582032-28.097656-28.101563-28.097656h-7.777344c0-15.851563-12.851562-28.699219-28.703125-28.699219h-144.410156c-19.816406-.003906-35.882812 16.0625-35.878906 35.878906v219.007813c-18.644532-5.878907-31.328125-23.167969-31.339844-42.71875v-233.898438c0-21.03125 17.050781-38.082031 38.082031-38.082031h88.796875c8.660156 0 17.03125 3.132812 23.5625 8.820312l19.828125 17.261719c6.535157 5.679688 14.902344 8.808594 23.5625 8.808594h62.238281c21.035157 0 38.082032 17.054687 38.078126 38.089844zm0 0"/><path data-cppathid="10003" fill="#6fe3ff" d="m283.210938 124.078125h-113.839844c-16.628906 0-31.082032 11.421875-34.921875 27.601563l-39.109375 138.101562c-2.832032 11.972656-10.472656 22.246094-21.121094 28.410156v-186.332031c.003906-19.816406 16.066406-35.878906 35.882812-35.878906h145.007813c15.519531 0 28.101563 12.578125 28.101563 28.097656zm0 0"/><path data-cppathid="10004" fill="#6fe3ff" d="m247.332031 95.980469h-137.230469c-19.816406 0-35.878906 16.0625-35.882812 35.878906v186.332031c-10.875 6.289063-23.886719 7.730469-35.878906 3.976563v-219.007813c-.003906-19.816406 16.0625-35.882812 35.878906-35.878906h144.410156c15.851563 0 28.703125 12.847656 28.703125 28.699219zm0 0"/><g fill="#63316d"><path data-cppathid="10005" d="m365.335938 201.117188 7.785156-32.582032.058594-.269531c2.484374-12.585937-.796876-25.621094-8.941407-35.53125s-20.300781-15.65625-33.128906-15.65625h-22.960937v-36.628906c-.023438-24.886719-20.191407-45.058594-45.078126-45.089844h-62.238281c-6.96875 0-13.703125-2.519531-18.960937-7.089844l-19.832032-17.257812c-7.804687-6.796875-17.808593-10.542969-28.160156-10.542969h-88.796875c-24.886719.027344-45.0546872 20.195312-45.082031 45.082031v233.898438c-.0390625 13.742187 5.421875 26.925781 15.171875 36.609375 9.035156 9.070312 21.128906 14.449218 33.917969 15.085937v.074219h217.78125c6.492187 17.582031 17.898437 32.933594 32.855468 44.222656 29.394532 22.054688 68.722657 25.601563 101.589844 9.171875 32.867188-16.433593 53.625-50.027343 53.621094-86.769531-.058594-50.679688-39.074219-92.796875-89.601562-96.726562zm-34.226563-70.039063c8.617187 0 16.785156 3.847656 22.269531 10.492187 5.488282 6.644532 7.722656 15.394532 6.089844 23.855469l-8.519531 35.675781c-27.828125 2.007813-53.445313 15.902344-70.300781 38.132813-16.859376 22.234375-23.328126 50.648437-17.753907 77.984375h-175.75c7.382813-6.914062 12.585938-15.839844 14.96875-25.671875l39.070313-137.960937.078125-.289063c3.058593-13.046875 14.710937-22.253906 28.109375-22.21875zm-76-28.097656c8.945313.015625 16.910156 5.664062 19.882813 14.097656h-105.621094c-19.832032-.054687-37.097656 13.539063-41.695313 32.832031l-39.070312 137.960938-.078125.300781c-1.300782 5.449219-3.796875 10.542969-7.308594 14.90625v-171.21875c.019531-15.941406 12.9375-28.863281 28.882812-28.878906zm-145.007813-14c-23.671874.027343-42.855468 19.207031-42.882812 42.878906v182.039063c-6.847656 3.097656-14.472656 4.058593-21.878906 2.753906v-213.492188c.019531-15.941406 12.9375-28.863281 28.878906-28.878906h144.410156c9.28125.011719 17.53125 5.917969 20.535156 14.699219zm-96.101562 190.46875v-233.898438c.019531-17.15625 13.921875-31.0625 31.082031-31.082031h88.796875c6.972656 0 13.710938 2.519531 18.964844 7.101562l19.832031 17.261719c7.808594 6.789063 17.808594 10.527344 28.15625 10.527344h62.238281c17.160157.023437 31.0625 13.929687 31.078126 31.089844v36.628906h-4.640626c-3.347656-16.339844-17.71875-28.078125-34.402343-28.097656h-1.472657c-3.355468-16.675781-17.996093-28.679688-35.003906-28.699219h-144.410156c-23.667969.023438-42.851562 19.207031-42.878906 42.878906v208.035156c-2.261719-1.453124-4.363282-3.140624-6.269532-5.035156-7.113281-7.066406-11.097656-16.683594-11.070312-26.710937zm343.941406 101.402343c-17.96875.050782-35.460937-5.777343-49.800781-16.601562-14.03125-10.578125-24.378906-25.304688-29.570313-42.089844-7.644531-24.949218-3.109374-52.042968 12.242188-73.140625 15.351562-21.101562 39.734375-33.753906 65.824219-34.160156l.199219-.003906c.289062-.015625.578124-.015625.867187-.015625h.238281c45.84375 0 83.003906 37.164062 83.003906 83.003906 0 45.84375-37.160156 83.007812-83.003906 83.007812zm0 0"/><path data-cppathid="10006" d="m398.441406 290.839844h-33.5v-33.488282c0-3.867187-3.136718-7-7-7-3.867187 0-7 3.132813-7 7v33.488282h-33.5c-3.867187 0-7 3.132812-7 7 0 3.867187 3.132813 7 7 7h33.5v33.5c0 3.867187 3.132813 7 7 7 3.863282 0 7-3.132813 7-7v-33.5h33.5c3.863282 0 7-3.132813 7-7 0-3.867188-3.136718-7-7-7zm0 0"/></g></svg>