<?xml version="1.0" encoding="UTF-8"?>
<svg xmlns="http://www.w3.org/2000/svg" onmouseup="{ if(window.parent.document.onmouseup) window.parent.document.onmouseup(arguments[0]);}" width="512" viewBox="0 0 64 64" height="512"><g id="growth"><path data-cppathid="10000" fill="#0e9347" d="m56.06 29.15a3.72 3.72 0 0 0 -1.06-.15h-20a3 3 0 0 1 -3-3 3 3 0 0 1 -3 3h-20a4 4 0 0 0 -4 4v22a4 4 0 0 0 2.94 3.85 3.72 3.72 0 0 0 1.06.15h46a4 4 0 0 0 4-4v-22a4 4 0 0 0 -2.94-3.85zm-1.06 21.85a4 4 0 0 0 -4 4h-38a4 4 0 0 0 -4-4v-14a4 4 0 0 0 4-4h38a4 4 0 0 0 4 4z"/><path data-cppathid="10001" fill="#3bb54a" d="m55 37v14a4 4 0 0 0 -4 4h-38a4 4 0 0 0 -4-4v-14a4 4 0 0 0 4-4h38a4 4 0 0 0 4 4z"/><ellipse data-cppathid="10002" ry="7" rx="6" fill="#89c763" cy="44" cx="32"/><path data-cppathid="10003" fill="#0e9347" d="m32 15.86h-8.14a10.86 10.86 0 0 1 -10.86-10.86h8.14a10.86 10.86 0 0 1 10.44 7.86 11 11 0 0 1 .42 3z"/><path data-cppathid="10004" fill="#0e9347" d="m51 7a11 11 0 0 1 -11 11h-8a10.61 10.61 0 0 1 .42-3 11 11 0 0 1 10.58-8z"/><path data-cppathid="10005" fill="#3bb54a" d="m31.58 12.86h-7.72a10.86 10.86 0 0 1 -10.44-7.86h7.72a10.86 10.86 0 0 1 10.44 7.86z"/><path data-cppathid="10006" fill="#3bb54a" d="m50.58 7a11 11 0 0 1 -10.58 8h-7.58a11 11 0 0 1 10.58-8z"/><path data-cppathid="10007" fill="#0e9347" d="m32 31a1 1 0 0 1 -1-1v-16a1 1 0 0 1 2 0v16a1 1 0 0 1 -1 1z"/></g></svg>