<?xml version="1.0" encoding="UTF-8"?>
<svg xmlns="http://www.w3.org/2000/svg" onmouseup="{ if(window.parent.document.onmouseup) window.parent.document.onmouseup(arguments[0]);}" xml:space="preserve" style="enable-background:new 0 0 512 512;" viewBox="0 0 512 512" y="0px" x="0px" id="Layer_1" version="1.1" xmlns:xlink="http://www.w3.org/1999/xlink"><path data-cppathid="10000" d="M256,512C114.839,512,0,397.156,0,256S114.839,0,256,0s256,114.844,256,256S397.161,512,256,512z" style="fill:#FF5023;"/><path data-cppathid="10001" d="M512,256C512,114.844,397.161,0,256,0v512C397.161,512,512,397.156,512,256z" style="fill:#CD2A00;"/><path data-cppathid="10002" d="M204.752,394.612c-5.408,0-10.72-2.621-13.933-7.469c-5.099-7.686-3-18.047,4.686-23.146  l164.568-109.165L195.505,145.666c-7.686-5.099-9.785-15.46-4.686-23.146c5.099-7.697,15.455-9.785,23.146-4.686l185.546,123.082  c4.664,3.098,7.469,8.317,7.469,13.916s-2.805,10.818-7.469,13.916L213.966,391.829  C211.128,393.709,207.921,394.612,204.752,394.612z" style="fill:#FFFFFF;"/><path data-cppathid="10003" d="M399.511,240.915l-142.824-94.744v40.079l103.386,68.581l-103.386,68.581v40.079l142.825-94.744  c4.664-3.098,7.469-8.317,7.469-13.916S404.175,244.013,399.511,240.915z" style="fill:#FFE6B3;"/><g/><g/><g/><g/><g/><g/><g/><g/><g/><g/><g/><g/><g/><g/><g/></svg>