<?xml version="1.0" encoding="UTF-8"?>
<svg xmlns="http://www.w3.org/2000/svg" onmouseup="{ if(window.parent.document.onmouseup) window.parent.document.onmouseup(arguments[0]);}" width="512" viewBox="0 0 511.409 511.409" height="512" enable-background="new 0 0 511.409 511.409" id="Capa_1"><g><g><path data-cppathid="10000" fill="#7a6d79" d="m86.459 164.464h137.83v97.02h-137.83z"/><path data-cppathid="10001" fill="#685e68" d="m224.289 164.464v97.02h-38.43c-.77-3.11-1.17-6.36-1.17-9.71v-60.73c0-14.68 11.9-26.58 26.58-26.58z"/><path data-cppathid="10002" fill="#7a6d79" d="m86.457 164.465v97.017h-26.287c-4.872 0-8.822-3.95-8.822-8.822v-53.764c0-19.015 15.415-34.43 34.43-34.43h.679z"/><path data-cppathid="10003" fill="#edf4ff" d="m169.786 164.463-18.675 47.324-3.839 9.732c-2.203 5.585-10.107 5.586-12.312.001l-3.84-9.729-18.675-47.329h57.341z"/><path data-cppathid="10004" fill="#ffdfcf" d="m156.78 164.464-7.024 4.747c-5.219 3.527-12.057 3.527-17.276 0l-7.025-4.747v-27.398h31.325z"/><path data-cppathid="10005" fill="#7a6d79" d="m289.735 164.463h136.587v97.019h-136.587z"/><path data-cppathid="10006" fill="#685e68" d="m402.818 164.463h23.503v97.019h-23.503z"/><path data-cppathid="10007" fill="#7a6d79" d="m426.32 164.465v97.017h26.287c4.872 0 8.822-3.95 8.822-8.822v-53.764c0-19.015-15.415-34.43-34.43-34.43h-.679z"/><path data-cppathid="10008" fill="#edf4ff" d="m342.992 164.463 18.675 47.324 3.839 9.732c2.203 5.585 10.107 5.586 12.312.001l3.84-9.729 18.675-47.329h-57.341z"/><path data-cppathid="10009" fill="#f0bdb1" d="m355.998 164.464 7.024 4.747c5.219 3.527 12.057 3.527 17.276 0l7.025-4.747v-27.398h-31.325z"/><path data-cppathid="10010" fill="#7a6d79" d="m200.24 314.182h109.324v97.019h-109.324z"/><path data-cppathid="10011" fill="#685e68" d="m286.061 314.182h23.503v97.019h-23.503z"/><path data-cppathid="10012" fill="#7a6d79" d="m309.562 314.184v97.017h25.774c5.156 0 9.335-4.18 9.335-9.336v-53.251c0-19.015-15.415-34.43-34.43-34.43z"/><path data-cppathid="10013" fill="#7a6d79" d="m165.131 348.614v53.251c0 5.156 4.18 9.336 9.335 9.336h25.774v-97.017h-.679c-19.015 0-34.43 15.415-34.43 34.43z"/><path data-cppathid="10014" fill="#edf4ff" d="m226.234 314.182 18.675 47.324 3.839 9.732c2.203 5.585 10.107 5.586 12.312.001l3.84-9.729 18.675-47.329h-57.341z"/><path data-cppathid="10015" fill="#ffdfcf" d="m239.24 314.183 7.024 4.747c5.219 3.527 12.057 3.527 17.276 0l7.025-4.747v-27.398h-31.325z"/><path data-cppathid="10016" fill="#e5646e" d="m290.716 455.115c-3.471-7.946-12.414-11.951-20.653-9.247l-12.41 4.072c-1.146.376-2.383.376-3.529 0l-12.41-4.072c-8.239-2.704-17.183 1.301-20.653 9.247-2.858 6.545-1.407 14.173 3.655 19.211l27.18 27.052c2.208 2.197 5.777 2.197 7.984 0l27.18-27.052c5.063-5.038 6.514-12.666 3.656-19.211z"/><g><path data-cppathid="10017" fill="#db4655" d="m290.716 455.115c-3.47-7.947-12.414-11.951-20.653-9.247l-6.19 2.031c2.575 1.73 4.7 4.183 6.025 7.216 2.858 6.545 1.407 14.173-3.655 19.211l-20.763 20.665 6.417 6.387c2.208 2.198 5.776 2.198 7.984 0l27.18-27.052c5.062-5.038 6.513-12.667 3.655-19.211z"/></g><path data-cppathid="10018" fill="#7a6d79" d="m187.449 88.778h-92.663v-35.029l-5.705-4.485c-10.105-7.944-9.783-23.356.644-30.871 3.291-2.372 7.244-3.648 11.3-3.648h59.841c14.681 0 26.583 11.902 26.583 26.583z"/><path data-cppathid="10019" fill="#685e68" d="m160.866 14.745h-23.503c14.681 0 26.583 11.902 26.583 26.583v47.45h23.503v-47.45c0-14.682-11.902-26.583-26.583-26.583z"/><g><path data-cppathid="10020" fill="#ffdfcf" d="m94.786 53.749v48.309c0 22.412 18.168 40.58 40.58 40.58h11.498c22.414 0 40.585-18.17 40.585-40.585v-48.304l-15.657 9.313c-3.716 2.21-8.104 3.008-12.36 2.247z"/></g><path data-cppathid="10021" fill="#ffcebf" d="m171.791 63.062c-2.406 1.431-5.095 2.26-7.846 2.467v36.524c0 20.374-15.015 37.238-34.582 40.14 1.959.291 3.963.445 6.002.445h11.498c22.414 0 40.585-18.171 40.585-40.585v-48.304z"/><path data-cppathid="10022" fill="#eac89f" d="m414.919 98.193h-85.319c-18.849 0-34.129-15.28-34.129-34.129v-21.542c0-18.849 15.28-34.129 34.129-34.129h85.319c18.849 0 34.129 15.28 34.129 34.129v21.542c.001 18.849-15.279 34.129-34.129 34.129z"/><path data-cppathid="10023" fill="#d2af8c" d="m414.92 8.393h-30.94c18.849 0 34.129 15.28 34.129 34.129v21.542c0 18.849-15.28 34.129-34.129 34.129h30.939c18.849 0 34.129-15.28 34.129-34.129v-21.542c.001-18.849-15.279-34.129-34.128-34.129z"/><g><path data-cppathid="10024" fill="#f0bdb1" d="m417.991 53.749v48.309c0 22.412-18.168 40.58-40.58 40.58h-11.498c-22.416 0-40.585-18.169-40.585-40.58v-48.309s42.766 16.561 92.663 0z"/></g><path data-cppathid="10025" fill="#eaa998" d="m394.488 59.386v42.671c0 20.372-15.013 37.234-34.578 40.135 1.959.291 3.963.445 6.003.445h11.498c22.412 0 40.58-18.168 40.58-40.58v-48.308c-8.073 2.68-15.954 4.482-23.503 5.637z"/><g><path data-cppathid="10026" fill="#78c2a4" d="m495.578 304.792c3.751 12.185 7.755 38.464-19.692 54.825-2.848 1.697-6.55.391-7.717-2.711-4.29-11.399-10.134-37.91 18.781-55.399 3.263-1.975 7.506-.361 8.628 3.285z"/><path data-cppathid="10027" fill="#78c2a4" d="m503.094 395.409c-6.45 10.997-23.122 31.702-53.727 22.516-3.175-.953-4.713-4.565-3.214-7.522 5.507-10.864 21.107-33.081 53.535-23.575 3.66 1.072 5.336 5.291 3.406 8.581z"/><path data-cppathid="10028" fill="#95d6a4" d="m430.222 353.443c-6.255 11.109-15.754 35.937 7.589 57.758 2.422 2.264 6.317 1.775 8.117-1.009 6.615-10.227 17.96-34.889-6.577-58.125-2.769-2.623-7.258-1.948-9.129 1.376z"/><path data-cppathid="10029" fill="#95d6a4" d="m382.835 405.241c-6.255 11.109-15.754 35.937 7.589 57.758 2.422 2.264 6.317 1.775 8.117-1.009 6.615-10.227 17.96-34.889-6.577-58.125-2.769-2.623-7.257-1.948-9.129 1.376z"/><path data-cppathid="10030" fill="#78c2a4" d="m455.573 472.019c-10.264 7.561-33.751 20.013-58.252-.498-2.542-2.128-2.531-6.054.013-8.18 9.345-7.811 32.442-22.075 58.493-.551 2.94 2.43 2.817 6.967-.254 9.229z"/></g><g><path data-cppathid="10031" fill="#95d6a4" d="m15.83 304.792c-3.751 12.185-7.755 38.464 19.692 54.825 2.848 1.697 6.55.391 7.717-2.711 4.29-11.399 10.134-37.91-18.781-55.399-3.263-1.975-7.505-.361-8.628 3.285z"/><path data-cppathid="10032" fill="#95d6a4" d="m8.315 395.409c6.45 10.997 23.122 31.702 53.727 22.516 3.175-.953 4.713-4.565 3.214-7.522-5.507-10.864-21.107-33.081-53.535-23.575-3.66 1.072-5.336 5.291-3.406 8.581z"/><path data-cppathid="10033" fill="#78c2a4" d="m81.187 353.443c6.255 11.109 15.754 35.937-7.589 57.758-2.422 2.264-6.317 1.775-8.117-1.009-6.615-10.227-17.96-34.889 6.577-58.125 2.769-2.623 7.257-1.948 9.129 1.376z"/><path data-cppathid="10034" fill="#78c2a4" d="m128.573 405.241c6.255 11.109 15.754 35.937-7.589 57.758-2.422 2.264-6.317 1.775-8.117-1.009-6.615-10.227-17.96-34.889 6.577-58.125 2.769-2.623 7.258-1.948 9.129 1.376z"/><path data-cppathid="10035" fill="#95d6a4" d="m55.836 472.019c10.264 7.561 33.751 20.013 58.252-.498 2.542-2.128 2.531-6.054-.013-8.18-9.345-7.811-32.442-22.075-58.493-.551-2.941 2.43-2.817 6.967.254 9.229z"/></g><path data-cppathid="10036" fill="#ffd15b" d="m208.571 238.497h92.663v-35.029l5.705-4.485c10.105-7.944 9.784-23.356-.644-30.871-3.29-2.372-7.244-3.648-11.3-3.648h-59.841c-14.681 0-26.583 11.902-26.583 26.583z"/><path data-cppathid="10037" fill="#ffc344" d="m306.295 168.111c-3.291-2.372-7.244-3.648-11.3-3.648h-23.503c4.056 0 8.009 1.276 11.3 3.648 10.428 7.516 10.749 22.927.644 30.871l-5.705 4.485v35.029h23.503v-35.029l5.705-4.485c10.105-7.943 9.783-23.355-.644-30.871z"/><g><path data-cppathid="10038" fill="#ffdfcf" d="m208.571 203.468v48.309c0 22.411 18.169 40.58 40.585 40.58h11.498c22.412 0 40.58-18.168 40.58-40.58v-48.309s-14.868 10.728-30.668 10.088c-22.661-.918-28.253-16.741-28.253-16.741z"/></g><path data-cppathid="10039" fill="#ffcebf" d="m277.73 213.124v38.652c0 20.372-15.013 37.234-34.578 40.135 1.959.29 3.963.445 6.003.445h11.498c22.412 0 40.58-18.168 40.58-40.58v-48.309c.001.001-10.65 7.684-23.503 9.657z"/></g><g><path data-cppathid="10040" d="m510.461 387.526c-1.527-3.851-4.685-6.729-8.664-7.896-10.973-3.215-21.13-3.476-30.357-.821.631-1.45 4.764-11.314 4.764-11.314 1.224-.299 2.412-.775 3.522-1.436 32.458-19.347 26.912-50.834 23.021-63.475v.001c-1.219-3.959-4.136-7.076-8.004-8.551-3.872-1.475-8.126-1.092-11.675 1.055-14.529 8.788-23.064 20.641-25.368 35.23-1.845 11.68.858 22.341 3.45 29.227.307.815.701 1.583 1.155 2.307l-2.84 6.789c-.003.008-.005.016-.009.024-.003.006-.006.012-.009.019-.013.032-.028.064-.041.097-2.727-7.924-7.692-15.338-14.896-22.16-3.01-2.852-7.09-4.13-11.179-3.513-4.095.618-7.609 3.043-9.643 6.653-.001 0-.001.001-.001.001-6.466 11.484-18.513 40.912 8.729 66.655-5.512 7.392-11.51 14.458-17.974 21.177.645-14.491-5.171-27.67-17.32-39.174-3.01-2.852-7.088-4.129-11.182-3.513-4.094.619-7.607 3.044-9.64 6.654-6.225 11.055-17.619 38.737 5.838 63.754-12.357 8.682-25.579 16.079-39.587 22.095-3.806 1.636-5.566 6.046-3.932 9.852 1.636 3.844 6.139 5.554 9.852 3.931 15.414-6.621 29.942-14.8 43.48-24.439 11.328 9.928 23.482 13.581 33.726 13.531 15.332 0 27.949-7.517 34.344-12.227 0-.001 0-.001 0-.001 3.336-2.457 5.315-6.24 5.43-10.379.115-4.141-1.651-8.029-4.847-10.671-10.041-8.296-20.619-12.65-31.564-13.046 5.773-6.285 11.184-12.834 16.204-19.646 27.218 12.433 57.475-9.217 64.318-25.111 2.097-3.574 2.424-7.831.899-11.679zm-21.451-78.453c3.592 13.294 3.381 30.592-14.698 42.671-3.612-11.292-5.182-29.554 14.698-42.671zm-53.281 49.951c16.637 17.041 11.221 34.551 5.293 44.819-15.097-15.646-11.627-32.593-5.293-44.819zm-47.385 51.799c16.634 17.041 11.22 34.554 5.292 44.82-15.097-15.646-11.626-32.594-5.292-44.82zm15.887 56.615c9.469-7.135 26.191-14.642 45.132-.205-11.364 7.775-27.764 13.284-45.132.205zm49.876-55.992c.527-.921 1.123-1.812 1.675-2.72 6.436-9.755 18.613-20.561 39.716-15.266-7.375 11.627-20.275 23.154-41.391 17.986z"/><path data-cppathid="10041" d="m166.925 486.573c-13.297-5.865-25.874-12.976-37.657-21.254 23.461-25.017 12.067-52.701 5.841-63.756-2.032-3.61-5.546-6.035-9.64-6.654-4.098-.612-8.172.661-11.183 3.513-12.15 11.505-17.965 24.685-17.319 39.177-6.464-6.721-12.458-13.791-17.971-21.184 27.237-25.74 15.191-55.166 8.725-66.651-2.032-3.61-5.547-6.035-9.641-6.653-4.095-.62-8.17.661-11.181 3.512-7.204 6.822-12.169 14.236-14.897 22.159-.013-.032-.028-.064-.041-.096-.003-.007-.006-.012-.009-.019-.003-.008-.005-.016-.009-.024l-2.84-6.789c11.201-21.479 4.278-53.756-20.765-66.765-3.547-2.145-7.801-2.53-11.672-1.054-3.868 1.475-6.786 4.591-8.005 8.55-4.925 12.093-7.68 50.125 26.542 64.911 0 0 2.905 6.941 2.906 6.944.603 1.466 1.227 2.92 1.858 4.37-9.227-2.655-19.385-2.395-30.357.821-3.979 1.166-7.137 4.044-8.663 7.894-1.526 3.849-1.2 8.105.896 11.679v.001c6.89 15.937 37.086 37.532 64.328 25.108 5.019 6.811 10.421 13.364 16.192 19.648-10.941.396-21.52 4.754-31.559 13.05-3.195 2.641-4.962 6.529-4.847 10.67.114 4.139 2.094 7.922 5.43 10.379v.001c15.735 13.273 47.918 18.684 68.074-1.309 12.927 9.203 26.758 17.085 41.411 23.547 3.699 1.658 8.215-.007 9.889-3.836 1.671-3.791-.046-8.219-3.836-9.89zm-43.86-75.75c6.335 12.226 9.806 29.173-5.293 44.819-5.927-10.267-11.34-27.778 5.293-44.819zm-47.386-51.799c6.334 12.227 9.805 29.174-5.293 44.819-5.928-10.267-11.341-27.777 5.293-44.819zm-53.28-49.95c19.876 13.116 18.308 31.379 14.698 42.67-18.079-12.079-18.289-29.377-14.698-42.67zm34.902 102.372c-21.121 5.17-34.016-6.359-41.392-17.986 21.098-5.296 33.265 5.495 39.703 15.245.559.911 1.163 1.811 1.689 2.741zm4.745 55.787c18.936-14.434 35.662-6.93 45.131.205-17.367 13.079-33.765 7.572-45.131-.205z"/><path data-cppathid="10042" d="m267.724 438.741-11.835 3.884-11.836-3.884c-11.979-3.933-24.817 1.817-29.864 13.371-4.127 9.449-2.071 20.255 5.236 27.528l27.182 27.054c2.559 2.547 5.92 3.82 9.282 3.82 3.361 0 6.724-1.274 9.283-3.821l27.181-27.053c7.308-7.273 9.363-18.079 5.236-27.528-5.047-11.552-17.887-17.302-29.865-13.371zm14.046 30.269-25.882 25.76-25.882-25.76c-7.172-6.565.124-19.386 9.369-16.017l12.411 4.073c2.683.88 5.519.881 8.205-.001l12.408-4.072c4.59-1.506 9.509.696 11.442 5.123 1.634 3.74.821 8.015-2.071 10.894z"/><path data-cppathid="10043" d="m352.172 401.865v-53.251c0-23.121-18.81-41.931-41.931-41.931-4.596 0-28.055 0-32.173 0v-10.105c17.925-6.992 30.665-24.432 30.665-44.802 0-8.68 0-35.578 0-44.664l2.842-2.234c6.686-5.256 10.418-13.146 10.24-21.648-.083-3.997-1.034-7.817-2.725-11.266h18.795l20.644 52.296c4.147 11.736 22.097 11.747 26.266.018l20.638-52.313h13.386v82.021h-80.824c-4.143 0-7.5 3.357-7.5 7.5s3.357 7.5 7.5 7.5c19.411.001 96.79-.002 114.613-.003 9 0 16.322-7.322 16.322-16.322v-53.765c0-23.12-18.81-41.93-41.931-41.93-4.597-.002-28.061 0-32.181-.001v-10.101c17.252-6.726 29.699-23.128 30.615-42.51 18.141-4.649 31.116-20.915 31.116-40.289v-21.54c0-22.955-18.675-41.631-41.63-41.631h-85.32c-22.955 0-41.63 18.676-41.63 41.631v21.54c0 18.7 12.471 34.843 29.909 39.949.786 19.526 13.27 36.081 30.621 42.847v10.103c-55.575-.001-128.521 0-184.221 0v-10.079c18.32-7.083 30.67-24.752 30.67-44.831.001-8.727.001-51.133.001-60.727 0-18.793-15.29-34.083-34.083-34.083h-59.842c-5.665 0-11.089 1.751-15.685 5.064-15.756 10.733-14.128 35.453 1.946 45.084-.002 9.234.002 35.846.003 44.661 0 20.082 12.354 37.753 30.67 44.832v10.078c-4.01.001-27.681-.001-32.181.001-23.121 0-41.931 18.81-41.931 41.93v53.765c0 9 7.322 16.322 16.322 16.322 23.87-.001 119.047.003 144.098.003 4.855 12.618 14.879 22.683 27.471 27.594v10.105c-4 0-27.686 0-32.177 0-23.121 0-41.931 18.81-41.931 41.931v53.251c0 9.283 7.553 16.835 16.836 16.835 34.829.005 126.034.005 160.869 0 9.285 0 16.838-7.551 16.838-16.835zm81.648-229.025c11.558 3.027 20.109 13.562 20.109 26.055v53.765c0 .729-.593 1.322-1.322 1.322h-18.787zm-96.648 175.775v53.251c0 1.012-.823 1.835-1.836 1.835h-18.268v-81.14c11.555 3.029 20.104 13.562 20.104 26.054zm-95.103-23.467c9.656 6.843 21.791 4.006 30.374-3.179l-17.538 44.436-17.53-44.428zm59.841-150.952c9.736 7.785 3.647 18.069-5.156 23.253-1.215.841-13.542 9.137-25.885 8.613-16.477-.667-21.093-10.814-21.502-11.799-1.17-3.607-4.773-5.535-8.506-4.807l-24.79 4.888v-3.297c0-10.522 8.561-19.084 19.083-19.084h54.561c3.914-.013 8.965-.436 12.195 2.233zm69.756 42.488-17.539-44.431 4.698 3.179c3.896 2.629 8.362 3.943 12.831 3.943 4.47 0 8.942-1.316 12.846-3.949l4.693-3.175zm-68.697-152.619v-21.54c0-14.685 11.946-26.631 26.63-26.631h85.32c14.684 0 26.63 11.946 26.63 26.631v21.54c0 10.978-6.51 20.396-16.058 24.471v-34.787c.136-4.959-5.199-8.809-9.862-7.118-46.56 15.454-87.199.274-87.593.124-4.713-1.982-10.353 1.886-10.208 6.994v34.212c-8.863-4.376-14.859-13.521-14.859-23.896zm29.859 37.993v-38.193c14.784 3.776 44.019 8.586 77.663-.092v38.285c0 18.24-14.84 33.08-33.08 33.08h-11.498c-18.243 0-33.085-14.84-33.085-33.08zm46.99 48.019v10.407c-6.118 5.043-10.215 5.029-16.319 0v-10.407c.8.039 14.721.114 16.319 0zm-230.54-.017v10.423c-6.118 5.043-10.215 5.029-16.319 0v-10.423c.802.04 14.717.133 16.319 0zm-20.993 25.372c3.896 2.629 8.362 3.943 12.831 3.943 4.47 0 8.942-1.316 12.846-3.949l4.688-3.173-17.539 44.43-17.529-44.434zm-34.177-150.955c2.027-1.46 4.419-2.232 6.916-2.232h59.842c10.522 0 19.083 8.561 19.083 19.083v8.153l-11.998 7.141c-2.161 1.287-4.713 1.751-7.202 1.3l-62.807-11.233-4.226-3.322c-2.947-2.316-4.593-5.795-4.515-9.544.078-3.748 1.867-7.155 4.907-9.346zm8.181 77.577v-39.35l55.805 9.979c6.035 1.095 12.262-.035 17.531-3.175l4.323-2.572v35.117c0 15.2-10.278 28.395-24.995 32.086-.003.001-.006.002-.01.002-2.608.658-5.325.992-8.074.992h-11.5c-2.75 0-5.467-.334-8.085-.994-14.717-3.69-24.995-16.885-24.995-32.085zm-23.332 151.928h-18.787c-.729 0-1.322-.593-1.322-1.322v-53.765c0-12.493 8.552-23.027 20.109-26.055zm15.002-82.018h13.386l20.641 52.322c4.163 11.721 22.119 11.703 26.259-.02l20.647-52.303h32.036c-3.695 5.449-5.857 12.018-5.857 19.083.05 16.806-.099 46.169.056 62.938h-5.349-101.819zm122.112 79.813c0-8.566 0-33.234 0-42.144l22.388-4.414c4.327 6.188 13.662 15.096 31.803 15.831 8.743.352 17.082-2.174 23.472-4.948v35.675c0 18.24-14.84 33.08-33.08 33.08h-11.498c-18.243 0-33.085-14.84-33.085-33.08zm46.997 48.018v10.405c-6.281 5.072-10.062 5.061-16.33-.001v-10.404c.801.04 14.724.115 16.33 0zm-90.437 102.07v-53.251c0-12.494 8.553-23.028 20.11-26.056v26.247c0 4.143 3.357 7.5 7.5 7.5s7.5-3.357 7.5-7.5v-27.122h13.394l20.635 52.297c4.139 11.736 22.116 11.744 26.266.017l20.647-52.313h13.38v82.021h-94.321v-20.159c0-4.143-3.357-7.5-7.5-7.5s-7.5 3.357-7.5 7.5v20.154h-18.274c-1.014 0-1.837-.823-1.837-1.835z"/><path data-cppathid="10044" d="m372.313 122.729c4.308 0 8.955-1.27 13.274-4.846 3.191-2.642 3.637-7.369.995-10.56-2.641-3.19-7.37-3.636-10.56-.995-3.753 3.106-10.245-.526-11.118-1.128 0 0-5.507-3.129-8.908 1.502-4.446 6.055 2.102 11.468 2.102 11.468 2.906 2.113 8.234 4.559 14.215 4.559z"/><path data-cppathid="10045" d="m142.054 122.729c4.308 0 8.955-1.27 13.274-4.846 3.191-2.642 3.637-7.369.995-10.56-2.641-3.19-7.37-3.636-10.56-.995-3.753 3.106-10.245-.526-11.118-1.128 0 0-5.507-3.129-8.908 1.502-4.446 6.055 2.102 11.468 2.102 11.468 2.905 2.113 8.233 4.559 14.215 4.559z"/><path data-cppathid="10046" d="m255.837 271.808c4.308 0 8.955-1.27 13.274-4.846 3.191-2.642 3.637-7.369.995-10.56-2.641-3.19-7.37-3.636-10.56-.995-3.753 3.106-10.245-.526-11.118-1.128 0 0-5.507-3.129-8.908 1.502-4.446 6.055 2.102 11.468 2.102 11.468 2.906 2.114 8.234 4.559 14.215 4.559z"/></g></g></svg>