<?xml version="1.0" encoding="UTF-8"?>
<svg xmlns="http://www.w3.org/2000/svg" onmouseup="{ if(window.parent.document.onmouseup) window.parent.document.onmouseup(arguments[0]);}" width="478pt" viewBox="-107 0 478 478" height="478pt"><path data-cppathid="10000" fill="#00efd1" d="m132.300781 149c-17.507812 0-31.699219 14.191406-31.699219 31.699219 0 17.507812 14.191407 31.699219 31.699219 31.699219 17.507813 0 31.699219-14.191407 31.699219-31.699219-.003906-17.503907-14.195312-31.695313-31.699219-31.699219zm0-67.898438h37.597657c11.863281.003907 23.113281 5.28125 30.703124 14.398438l44.699219 53.601562c6.007813 7.175782 9.296875 16.238282 9.300781 25.597657v253.300781c.003907 22.09375-17.90625 40.007812-40 40h-164.601562c-22.09375.007812-40.007812-17.90625-40-40v-253.300781c0-9.359375 3.292969-18.421875 9.300781-25.597657l44.699219-53.601562c7.601562-9.101562 18.839844-14.371094 30.699219-14.398438zm0 0"/><path data-cppathid="10001" fill="#00acea" d="m132.300781 149c17.507813 0 31.699219 14.191406 31.699219 31.699219 0 17.507812-14.191406 31.699219-31.699219 31.699219-17.507812 0-31.699219-14.191407-31.699219-31.699219.003907-17.503907 14.191407-31.695313 31.699219-31.699219zm0 0"/><g fill="#083863"><path data-cppathid="10002" d="m208.398438 89c-9.484376-11.414062-23.558594-18.007812-38.398438-18h-27.699219v-61c0-5.523438-4.476562-10-10-10-5.523437 0-10 4.476562-10 10v61h-27.601562c-14.839844-.007812-28.914063 6.585938-38.398438 18l-44.699219 53.601562c-7.496093 8.976563-11.601562 20.300782-11.601562 32v253.398438c.0117188 27.609375 22.390625 49.988281 50 50h164.601562c27.609376-.011719 49.988282-22.390625 50-50v-253.300781c0-11.695313-4.105468-23.019531-11.601562-32zm36.203124 339c-.050781 16.546875-13.453124 29.953125-30 30h-164.601562c-16.546875-.046875-29.953125-13.453125-30-30v-253.300781c.019531-7.019531 2.496094-13.8125 7-19.199219l44.699219-53.601562c5.664062-6.859376 14.105469-10.820313 23-10.796876h27.601562v49.199219c-20.46875 5.054688-33.941406 24.589844-31.394531 45.519531 2.546875 20.925782 20.3125 36.664063 41.394531 36.664063s38.847657-15.738281 41.394531-36.664063c2.546876-20.929687-10.929687-40.464843-31.394531-45.519531v-49.300781h27.597657c8.898437-.023438 17.335937 3.9375 23 10.800781l44.703124 53.597657c4.503907 5.386718 6.980469 12.179687 7 19.203124zm-114.902343-268.800781c.851562.203125 1.726562.304687 2.601562.300781.875 0 1.746094-.101562 2.597657-.300781 11.398437 1.375 19.75 11.390625 19.0625 22.847656s-10.183594 20.398437-21.660157 20.398437c-11.480469 0-20.972656-8.941406-21.660156-20.398437-.691406-11.457031 7.664063-21.472656 19.058594-22.847656zm0 0"/><path data-cppathid="10003" d="m171.898438 288.300781c5.523437 0 10-4.476562 10-10 0-5.523437-4.476563-10-10-10h-79.199219c-5.523438 0-10 4.476563-10 10 0 5.523438 4.476562 10 10 10h22.699219c9.378906.007813 17.894531 5.476563 21.800781 14h-44.398438c-5.523437 0-10 4.476563-10 10 0 5.523438 4.476563 10 10 10h44.5c-1.199219 2.582031-2.824219 4.949219-4.800781 7-4.472656 4.496094-10.558594 7.015625-16.898438 7h-22.703124c-4.101563.003907-7.785157 2.503907-9.304688 6.3125-1.519531 3.808594-.566406 8.160157 2.40625 10.988281l56.601562 53.5c1.867188 1.746094 4.335938 2.714844 6.898438 2.699219 2.75-.019531 5.378906-1.136719 7.300781-3.101562 1.820313-1.921875 2.800781-4.488281 2.722657-7.132813-.074219-2.644531-1.199219-5.152344-3.125-6.964844l-38.398438-36.300781c10.8125-.605469 21.027344-5.160156 28.699219-12.800781 5.816406-5.789062 9.871093-13.101562 11.699219-21.101562h13.703124c5.519532 0 10-4.476563 10-10 0-5.519532-4.480468-10-10-10h-13.703124c-1.164063-4.980469-3.191407-9.71875-6-14h19.5zm0 0"/></g></svg>