<?xml version="1.0" encoding="UTF-8"?>
<svg xmlns="http://www.w3.org/2000/svg" onmouseup="{ if(window.parent.document.onmouseup) window.parent.document.onmouseup(arguments[0]);}" width="512" viewBox="0 0 64 64" height="512" enable-background="new 0 0 64 64" id="Layer_1_1_"><path data-cppathid="10000" fill="#50b6cf" d="m39 19h-14v-16h8l6 6z"/><path data-cppathid="10001" fill="#50b6cf" d="m17 19h-14v-16h8l6 6z"/><path data-cppathid="10002" fill="#3cadc9" d="m11 3v6h6z"/><path data-cppathid="10003" fill="#50b6cf" d="m61 19h-14v-16h8l6 6z"/><path data-cppathid="10004" fill="#3cadc9" d="m33 3v6h6z"/><path data-cppathid="10005" fill="#3cadc9" d="m55 3v6h6z"/><g fill="#f5a947"><path data-cppathid="10006" d="m24 29h16v8h-16z"/><path data-cppathid="10007" d="m24 41h16v8h-16z"/><path data-cppathid="10008" d="m24 53h16v8h-16z"/></g><path data-cppathid="10009" fill="#3cadc9" d="m39 11.34021c-2.69702 2.8858-7.87817 5.1712-14 5.58759v2.0722h14z"/><path data-cppathid="10010" fill="#3cadc9" d="m61 11.34021c-2.69702 2.8858-7.87817 5.1712-14 5.58759v2.0722h14z"/><path data-cppathid="10011" fill="#f09d3a" d="m40 31c-3.08231 2.26048-9.00363 4.05066-16 4.37682v1.62318h16z"/><path data-cppathid="10012" fill="#f09d3a" d="m40 43c-3.08231 2.26048-9.00363 4.05066-16 4.37682v1.62318h16z"/><path data-cppathid="10013" fill="#f09d3a" d="m40 55c-3.08231 2.26048-9.00363 4.05066-16 4.37682v1.62318h16z"/><path data-cppathid="10014" fill="#3cadc9" d="m17 11.34021c-2.69702 2.8858-7.87817 5.1712-14 5.58759v2.0722h14z"/><path data-cppathid="10015" fill="#0d0f23" d="m55.70703 2.29297c-.1875-.1875-.44189-.29297-.70703-.29297h-8c-.55225 0-1 .44775-1 1v16c0 .55225.44775 1 1 1h6v3h-20v-3h6c.55225 0 1-.44775 1-1v-10c0-.26514-.10547-.51953-.29297-.70703l-6-6c-.1875-.1875-.44189-.29297-.70703-.29297h-8c-.55225 0-1 .44775-1 1v16c0 .55225.44775 1 1 1h6v3h-20v-3h6c.55225 0 1-.44775 1-1v-10c0-.26514-.10547-.51953-.29297-.70703l-6-6c-.1875-.1875-.44189-.29297-.70703-.29297h-8c-.55225 0-1 .44775-1 1v16c0 .55225.44775 1 1 1h6v4c0 .55225.44775 1 1 1h21v3h-7c-.55225 0-1 .44775-1 1v8c0 .55225.44775 1 1 1h16c.55225 0 1-.44775 1-1v-3h8c2.75684 0 5 2.24316 5 5s-2.24316 5-5 5h-4.58594l1.29297-1.29297-1.41406-1.41406-3 3c-.19531.19531-.29297.45117-.29297.70703s.09766.51172.29297.70703l3 3 1.41406-1.41406-1.29297-1.29297h4.58594c3.85986 0 7-3.14014 7-7s-3.14014-7-7-7h-8v-3c0-.55225-.44775-1-1-1h-7v-3h21c.55225 0 1-.44775 1-1v-4h6c.55225 0 1-.44775 1-1v-10c0-.26514-.10547-.51953-.29297-.70703zm-29.70703 1.70703h6.58594l4 4h-2.58594v-2h-2v3c0 .55225.44775 1 1 1h5v8h-12zm-22 0h6.58594l4 4h-2.58594v-2h-2v3c0 .55225.44775 1 1 1h5v8h-12zm35 32h-14v-6h14zm9-18v-14h6.58594l4 4h-2.58594v-2h-2v3c0 .55225.44775 1 1 1h5v8z"/><path data-cppathid="10016" fill="#0d0f23" d="m40 40h-16c-.55225 0-1 .44775-1 1v3h-8c-3.85986 0-7 3.14014-7 7s3.14014 7 7 7h4.58594l-1.29297 1.29297 1.41406 1.41406 3-3c.19531-.19531.29297-.45117.29297-.70703s-.09766-.51172-.29297-.70703l-3-3-1.41406 1.41406 1.29297 1.29297h-4.58594c-2.75684 0-5-2.24316-5-5s2.24316-5 5-5h8v3c0 .55225.44775 1 1 1h16c.55225 0 1-.44775 1-1v-4-4c0-.55225-.44775-1-1-1zm-1 8h-14v-6h14z"/><path data-cppathid="10017" fill="#0d0f23" d="m24 62h16c.55225 0 1-.44775 1-1v-8c0-.55225-.44775-1-1-1h-16c-.55225 0-1 .44775-1 1v4 4c0 .55225.44775 1 1 1zm1-8h14v6h-14z"/></svg>