<?xml version="1.0" encoding="UTF-8"?>
<svg xmlns="http://www.w3.org/2000/svg" onmouseup="{ if(window.parent.document.onmouseup) window.parent.document.onmouseup(arguments[0]);}" width="494pt" viewBox="0 -24 494 494" height="494pt"><path data-cppathid="10000" fill="#00acea" d="m486.210938 52.769531v70.808594h-88.78125v-70.808594c-.042969-24.472656 19.765624-44.347656 44.242187-44.390625h.21875c24.449219 0 44.28125 19.800782 44.320313 44.25zm0 0"/><path data-cppathid="10001" fill="#00efd1" d="m122.46875 8.378906h319.203125c-24.476563.042969-44.285156 19.917969-44.242187 44.390625v325.261719c-.039063 32.921875-26.738282 59.585938-59.660157 59.589844h-.179687c-1.378906 0-2.738282-.050782-4.101563-.152344-31.277343-2.183594-55.523437-28.214844-55.488281-59.570312v-38.570313h-199.921875v-.527344l2.113281-288.671875c0-23.25 19.027344-41.75 42.277344-41.75zm173.953125 141.152344v-57.0625l-62.910156-30.898438-62.902344 30.808594v57.152344c0 14.617188 9.46875 32.527344 21.5625 40.777344l41.339844 28.191406 41.339843-28.191406c12.089844-8.25 21.570313-26.160156 21.570313-40.777344zm0 0"/><path data-cppathid="10002" fill="#00acea" d="m333.488281 437.46875-.007812.152344h-266.03125c-32.921875-.003906-59.617188-26.667969-59.660157-59.589844v-38.703125h270.210938v38.570313c-.035156 31.355468 24.210938 57.386718 55.488281 59.570312zm0 0"/><path data-cppathid="10003" fill="#00acea" d="m296.421875 92.46875v57.0625c0 14.617188-9.480469 32.527344-21.570313 40.777344l-41.339843 28.191406-41.339844-28.191406c-12.09375-8.25-21.5625-26.160156-21.5625-40.777344v-57.152344l62.902344-30.808594zm0 0"/><g fill="#083863"><path data-cppathid="10004" d="m441.820312 0h-319.351562c-27.722656 0-50.277344 22.34375-50.277344 49.714844l-2.054687 281.285156h-62.347657c-4.417968 0-7.789062 3.910156-7.789062 8.328125v38.710937c0 36.222657 29 65.871094 64 67.5v.460938h269v-.519531c2 .085937 3.21875.519531 4.589844.519531h.179687c37.261719 0 67.230469-30.699219 67.230469-67.96875v-246.03125h81.210938c4.417968 0 7.789062-4 7.789062-8.421875v-70.960937c0-28.804688-23.308594-52.617188-52.179688-52.617188zm-374.371093 430c-28.449219 0-51.449219-23.527344-51.449219-51.96875v-31.03125h254v30.890625c-.027344 20.601563 9.3125 39.109375 24.0625 52.109375zm321.550781-377.230469v325.25c0 28.453125-22.777344 51.980469-51.289062 51.980469h-.121094c-1.191406 0-2.339844-.230469-3.550782-.320312-26.972656-1.859376-48.074218-24.703126-48.039062-51.78125v-38.570313c.023438-4.480469-3.519531-8.171875-8-8.328125h-191.863281l2.054687-281.226562c0-18.609376 15.375-33.773438 34.277344-33.773438h281.636719c-9.554688 9.871094-14.960938 23.03125-15.105469 36.769531zm89 63.230469h-73v-63.242188c.136719-20.210937 16.460938-36.570312 36.671875-36.757812h.21875c19.992187 0 36.109375 16.648438 36.109375 36.628906zm0 0"/><path data-cppathid="10005" d="m187.855469 196.917969 41.246093 28.191406c2.691407 1.855469 6.246094 1.855469 8.9375 0l41.121094-28.191406c14.285156-9.75 24.839844-30.117188 24.839844-47.386719v-57.0625c.085938-3.015625-1.574219-5.808594-4.261719-7.179688l-62.804687-30.898437c-2.207032-1.09375-4.792969-1.09375-6.996094 0l-62.675781 30.808594c-2.691407 1.367187-4.351563 4.164062-4.261719 7.179687v57.152344c0 17.269531 10.574219 37.640625 24.855469 47.386719zm-8.855469-99.550781 54.488281-26.886719 54.511719 26.972656v52.078125c0 12.039062-7.898438 27.367188-17.867188 34.167969l-36.734374 25.117187-36.578126-25.117187c-9.960937-6.800781-17.820312-22.125-17.820312-34.167969zm0 0"/><path data-cppathid="10006" d="m219.964844 161.601562c1.492187 1.519532 3.53125 2.386719 5.664062 2.398438h.019532c2.125-.007812 4.160156-.859375 5.660156-2.367188l31.828125-31.832031c3.128906-3.125 3.128906-8.191406.007812-11.320312-3.125-3.125-8.191406-3.128907-11.320312-.003907l-26.144531 26.132813-10.445313-10.546875c-3.113281-3.140625-8.179687-3.164062-11.320313-.050781-3.140624 3.113281-3.160156 8.179687-.050781 11.320312zm0 0"/><path data-cppathid="10007" d="m141 264h192c4.417969 0 8-3.582031 8-8s-3.582031-8-8-8h-192c-4.417969 0-8 3.582031-8 8s3.582031 8 8 8zm0 0"/><path data-cppathid="10008" d="m141 301h192c4.417969 0 8-3.582031 8-8s-3.582031-8-8-8h-192c-4.417969 0-8 3.582031-8 8s3.582031 8 8 8zm0 0"/></g></svg>