<?xml version="1.0" encoding="UTF-8"?>
<svg xmlns="http://www.w3.org/2000/svg" onmouseup="{ if(window.parent.document.onmouseup) window.parent.document.onmouseup(arguments[0]);}" width="512" viewBox="0 0 511.997 511.997" height="512" enable-background="new 0 0 511.997 511.997" id="Capa_1"><g><g><path data-cppathid="10000" fill="#eaac9d" d="m216.69 233.551h-176.58c-14.179 0-25.674-11.495-25.674-25.674 0-14.179 11.495-25.674 25.674-25.674h176.58c14.179 0 25.674 11.495 25.674 25.674 0 14.179-11.495 25.674-25.674 25.674z"/><path data-cppathid="10001" fill="#ffddce" d="m128.4 315.983c-41.053 0-74.333-33.28-74.333-74.332v-70.42c0-41.053 33.28-74.332 74.332-74.332 41.053 0 74.332 33.28 74.332 74.332v70.42c.001 41.053-33.278 74.332-74.331 74.332z"/><path data-cppathid="10002" fill="#ffcbbe" d="m147.479 313.518c-6.088 1.618-12.471 2.471-19.073 2.471-41.059 0-74.338-33.279-74.338-74.338v-70.412c0-41.059 33.279-74.338 74.338-74.338 6.603 0 12.985.853 19.073 2.471-31.823 8.426-55.265 37.412-55.265 71.867v70.412c0 34.456 23.441 63.441 55.265 71.867z"/><path data-cppathid="10003" fill="#be694f" d="m64.696 82.309h6.531c19.807 0 35.864 16.057 35.864 35.864v.275c0 19.807-16.057 35.864-35.864 35.864h-6.531c-19.807 0-35.864-16.057-35.864-35.864v-.275c0-19.807 16.057-35.864 35.864-35.864z"/><path data-cppathid="10004" fill="#aa593d" d="m80.805 153.001c-3.051.859-6.263 1.307-9.575 1.307h-6.525c-19.81 0-35.873-16.05-35.873-35.86v-.274c0-19.81 16.062-35.86 35.873-35.86h6.525c3.312 0 6.525.448 9.575 1.307-15.166 4.171-26.298 18.055-26.298 34.553v.274c0 16.498 11.132 30.382 26.298 34.553z"/><path data-cppathid="10005" fill="#be694f" d="m100.865 107.729c0 28.471 23.08 51.551 51.551 51.551 46.308 0 83.848-37.54 83.848-83.848v-6.832h-98.148c-21.318 0-38.299 17.837-37.251 39.129z"/><path data-cppathid="10006" fill="#aa593d" d="m169.149 157.61c-5.404 1.096-11.007 1.669-16.735 1.669-28.477 0-51.549-23.073-51.549-51.549-1.046-21.292 15.938-39.123 37.255-39.123h29.809c-21.317 0-38.301 17.831-37.255 39.123 0 23.956 16.336 44.09 38.475 49.88z"/><path data-cppathid="10007" fill="#ffe07d" d="m379.602 161.43v197.23l-191.43-65.64v-65.95z"/><path data-cppathid="10008" fill="#ffd064" d="m379.602 298.211v60.449l-191.43-65.64v-21.69z"/><path data-cppathid="10009" fill="#cbe2ff" d="m240.152 412.821c-26.36 20.06-58.49 30.57-90.94 30.57-29.76 0-59.79-8.83-85.93-27.22-24.95-17.56-43.7-41.92-54.23-70.45-4.78-12.95 1.84-27.33 14.8-32.11 12.95-4.78 27.32 1.84 32.11 14.79 7 18.98 19.48 35.19 36.1 46.88 34.9 24.56 80.25 23.52 113.59.78z"/><path data-cppathid="10010" fill="#bed8fb" d="m210.652 430.301c-19.34 8.64-40.32 13.09-61.44 13.09-29.76 0-59.79-8.83-85.93-27.22-24.95-17.56-43.7-41.92-54.23-70.45-4.78-12.95 1.84-27.33 14.8-32.11 3.38-1.25 6.86-1.72 10.23-1.5-6.91 6.67-9.62 17.04-6.08 26.63 10.53 28.53 29.28 52.89 54.23 70.45 26.14 18.39 56.17 27.22 85.93 27.22 14.39-.001 28.71-2.07 42.49-6.11z"/><path data-cppathid="10011" fill="#ffddce" d="m271.803 379.928c-9.05 12.85-19.76 23.85-31.65 32.89l-34.49-36.76c9.59-6.54 18.19-14.87 25.25-24.91 7.95-11.29 23.55-14.01 34.84-6.06s14 23.55 6.05 34.84z"/><g fill="#e28086"><path data-cppathid="10012" d="m430.245 336.334 1.093-2.038c3.856-7.189 12.62-10.164 20.056-6.809l22.872 10.32c8.193 3.697 11.541 13.559 7.292 21.479l-2.717 5.065c-4.249 7.92-14.317 10.586-21.928 5.805l-21.249-13.347c-6.906-4.339-9.275-13.286-5.419-20.475z"/><path data-cppathid="10013" d="m448.396 261.631-.072-2.312c-.255-8.154 5.847-15.113 13.965-15.925l24.968-2.498c8.943-.895 16.774 5.972 17.055 14.955l.18 5.745c.281 8.984-7.106 16.326-16.087 15.991l-25.075-.934c-8.155-.304-14.68-6.868-14.934-15.022z"/><path data-cppathid="10014" d="m426.763 187.862-1.219-1.966c-4.298-6.934-2.492-16.012 4.131-20.774l20.374-14.648c7.298-5.247 17.512-3.215 22.247 4.424l3.028 4.885c4.735 7.64 2.009 17.691-5.937 21.892l-22.183 11.729c-7.211 3.814-16.144 1.392-20.441-5.542z"/></g><path data-cppathid="10015" fill="#2b4d66" d="m130.787 214.621h14.882c7.277 0 13.176 5.899 13.176 13.176v26.063c0 11.387-9.231 20.618-20.618 20.618-11.387 0-20.618-9.231-20.618-20.618v-26.063c.002-7.277 5.901-13.176 13.178-13.176z"/></g><g><path data-cppathid="10016" d="m119.005 202.946c4.143 0 7.5-3.358 7.5-7.5v-15.016c0-4.142-3.357-7.5-7.5-7.5s-7.5 3.358-7.5 7.5v15.016c0 4.143 3.357 7.5 7.5 7.5z"/><path data-cppathid="10017" d="m157.795 202.946c4.143 0 7.5-3.358 7.5-7.5v-15.016c0-4.142-3.357-7.5-7.5-7.5s-7.5 3.358-7.5 7.5v15.016c0 4.143 3.357 7.5 7.5 7.5z"/><path data-cppathid="10018" d="m383.968 155.324c-1.972-1.408-4.499-1.778-6.791-.992l-29 9.94c-3.919 1.343-6.006 5.608-4.663 9.526 1.342 3.919 5.606 6.008 9.526 4.663l19.068-6.536v176.231l-176.44-60.497v-55.236l129.623-44.442c3.918-1.344 6.006-5.609 4.662-9.527s-5.609-6.005-9.527-4.662l-71.93 24.662c-4.073-13.716-16.787-23.752-31.807-23.752h-6.45v-28.606c20.452-16.766 33.525-42.216 33.525-70.664v-6.832c0-4.142-3.357-7.5-7.5-7.5h-98.147c-12.384 0-23.905 4.939-32.444 13.908-2.784 2.925-5.116 6.149-6.985 9.591-7.625-6.26-17.252-9.784-27.458-9.784h-6.537c-23.909 0-43.361 19.452-43.361 43.361v.274c0 17.437 10.352 32.493 25.228 39.372v16.887h-6.449c-8.869 0-17.202 3.449-23.465 9.712s-9.711 14.592-9.71 23.451c0 8.866 3.452 17.199 9.721 23.464 6.266 6.263 14.596 9.712 23.457 9.711h6.446v.596c0 45.132 36.709 81.85 81.83 81.85 21.473 0 42.094-8.58 57.277-23.411.024.009.046.022.07.031l26.078 8.942-3.607 8.739c-5.723 13.845-2.583 29.604 7.293 40.234-30.992 31.927-81.595 37.534-119.123 11.13-15.371-10.828-26.914-25.816-33.383-43.346-6.206-16.813-24.931-25.444-41.744-19.239-16.813 6.207-25.443 24.933-19.237 41.745 4.895 13.253 11.531 25.758 19.724 37.166 2.416 3.365 7.104 4.132 10.467 1.717 3.364-2.416 4.133-7.103 1.717-10.467-7.407-10.313-13.408-21.623-17.836-33.612-3.342-9.052 1.307-19.135 10.36-22.477 9.054-3.341 19.137 1.307 22.478 10.361 7.525 20.395 20.948 37.828 38.82 50.417 35.661 25.092 81.475 25.322 116.7 4.309l24.336 25.93c-23.195 15.572-50.839 24.237-79.57 24.237-29.357 0-57.575-8.943-81.609-25.867-5.193-3.648-10.18-7.672-14.82-11.96-3.041-2.812-7.787-2.624-10.598.417-2.812 3.042-2.625 7.787.418 10.598 5.129 4.741 10.64 9.188 16.371 13.214 26.568 18.708 57.772 28.598 90.238 28.598 51.23 0 99.352-24.917 128.722-66.651.611-.867 1.174-1.758 1.693-2.667 14.186-.972 26.789-9.863 32.339-23.31l5.379-13.033 59.836 20.516c.793.272 1.615.405 2.432.405 1.544 0 3.071-.477 4.36-1.397 1.971-1.408 3.141-3.681 3.141-6.103v-197.23c-.004-2.423-1.174-4.696-3.144-6.105zm-167.28 34.378c8.451 0 15.552 5.804 17.58 13.63l-24.03 8.239v-21.869zm-100.152-104.35c5.68-5.966 13.344-9.251 21.58-9.251h90.645c-.361 41.792-34.47 75.68-76.345 75.68-24.29 0-44.052-19.761-44.052-44.051 0-.123-.003-.246-.009-.368-.404-8.228 2.5-16.044 8.181-22.01zm-80.206 33.097v-.274c0-15.638 12.723-28.361 28.361-28.361h6.537c8.852 0 17.029 4.061 22.375 10.967-.262 2.343-.348 4.724-.24 7.13.023 7.534 1.48 14.732 4.086 21.357-4.338 10.587-14.573 17.541-26.222 17.541h-6.537c-15.637.001-28.36-12.721-28.36-28.36zm3.78 107.598c-4.855 0-9.42-1.889-12.853-5.32-3.434-3.432-5.324-7.998-5.324-12.856-.001-4.853 1.888-9.414 5.317-12.843 3.429-3.43 7.995-5.318 12.858-5.318h6.448v36.338zm88.278 82.445c-36.851 0-66.83-29.989-66.83-66.85v-79.958c1.036.074 2.079.125 3.134.125h6.537c14.115 0 26.876-6.685 34.867-17.521 10.824 13.685 27.558 22.492 46.321 22.492 15.465 0 30.042-3.868 42.822-10.68v60.614l-9.503 3.258c-3.031 1.04-5.067 3.89-5.067 7.095v56.233c-12.761 16.04-31.678 25.192-52.281 25.192zm137.276 67.119c-7.138 10.144-15.511 19.177-24.826 26.981l-23.961-25.531c7.519-6.087 14.327-13.301 20.163-21.595 2.692-3.823 6.712-6.369 11.319-7.169 4.603-.8 9.248.241 13.074 2.936 3.82 2.687 6.365 6.703 7.165 11.308s-.241 9.246-2.934 13.07zm32.432-23.065c-2.641 6.397-7.932 11.074-14.24 13.063 0-1.871-.151-3.755-.478-5.636-1.485-8.555-6.214-16.017-13.311-21.007-7.099-4.999-15.72-6.932-24.274-5.447-8.324 1.446-15.609 5.969-20.603 12.754-4.924-6.337-6.311-15.031-3.119-22.752l3.958-9.589 77.095 26.436z"/><path data-cppathid="10019" d="m477.353 330.971-22.873-10.321c-10.986-4.955-24.053-.52-29.749 10.1l-1.094 2.039c-.001 0-.001 0-.001.001-5.696 10.621-2.164 23.961 8.041 30.371l21.249 13.347c3.692 2.32 7.963 3.521 12.266 3.521 1.966 0 3.939-.251 5.866-.761 6.144-1.626 11.39-5.771 14.395-11.371l2.717-5.065c3.004-5.6 3.555-12.263 1.512-18.281-2.044-6.017-6.538-10.966-12.329-13.58zm-2.403 24.77-2.717 5.064c-1.062 1.979-2.843 3.386-5.014 3.961-2.17.574-4.413.234-6.315-.961l-21.249-13.347c-3.555-2.232-4.785-6.879-2.801-10.579l1.094-2.038c1.983-3.699 6.535-5.244 10.361-3.518l22.874 10.321c2.046.923 3.571 2.603 4.293 4.729.723 2.128.536 4.389-.526 6.368z"/><path data-cppathid="10020" d="m511.986 261.362-.18-5.744c-.198-6.351-3.052-12.396-7.829-16.586-4.777-4.189-11.142-6.23-17.469-5.598l-24.968 2.499c-11.992 1.201-21.091 11.577-20.714 23.622l.072 2.312c.376 12.046 10.105 21.833 22.148 22.282l25.076.935c.283.011.565.016.848.016 6.054 0 11.931-2.413 16.236-6.693 4.509-4.482 6.979-10.694 6.78-17.045zm-17.353 6.405c-1.593 1.583-3.702 2.411-5.95 2.326l-25.076-.935c-4.194-.156-7.583-3.565-7.715-7.761l-.072-2.312c-.131-4.195 3.038-7.81 7.216-8.228l24.967-2.499c2.242-.226 4.397.469 6.085 1.95 1.688 1.48 2.657 3.532 2.728 5.777l.18 5.745c.068 2.245-.77 4.354-2.363 5.937z"/><path data-cppathid="10021" d="m440.013 202.689c3.628 0 7.299-.856 10.698-2.653l22.183-11.729c5.617-2.97 9.794-8.191 11.457-14.325 1.663-6.133.696-12.748-2.651-18.149l-3.027-4.886c-3.349-5.401-8.843-9.21-15.076-10.449-6.229-1.24-12.766.177-17.924 3.887l-20.374 14.647c-9.786 7.035-12.479 20.57-6.128 30.815l1.218 1.965c4.323 6.976 11.878 10.877 19.624 10.877zm-5.959-31.477 20.374-14.648c1.384-.995 2.994-1.511 4.652-1.511.527 0 1.06.052 1.591.158 2.203.438 4.067 1.73 5.251 3.639l3.027 4.886c1.184 1.909 1.512 4.154.924 6.322s-2.005 3.939-3.991 4.989l-22.183 11.729c-3.711 1.961-8.351.703-10.562-2.864 0 0-.001 0-.001-.001l-1.218-1.965c-2.211-3.569-1.273-8.284 2.136-10.734z"/><path data-cppathid="10022" d="m145.669 207.121h-14.882c-11.401 0-20.677 9.275-20.677 20.677v26.063c0 15.504 12.613 28.117 28.118 28.117 15.504 0 28.117-12.613 28.117-28.117v-26.063c.001-11.402-9.275-20.677-20.676-20.677zm5.677 46.74c0 7.233-5.885 13.117-13.117 13.117-7.233 0-13.118-5.884-13.118-13.117v-26.063c0-3.13 2.547-5.677 5.677-5.677h14.882c3.13 0 5.677 2.546 5.677 5.677v26.063z"/></g></g></svg>