<?xml version="1.0" encoding="UTF-8"?>
<svg xmlns="http://www.w3.org/2000/svg" onmouseup="{ if(window.parent.document.onmouseup) window.parent.document.onmouseup(arguments[0]);}" xml:space="preserve" style="enable-background:new 0 0 416.091 416.091;" viewBox="0 0 416.091 416.091" y="0px" x="0px" id="Capa_1" version="1.1" xmlns:xlink="http://www.w3.org/1999/xlink"><path data-cppathid="10000" d="M333.346,236.891l9.9,169.2h-270.4l9.9-169.2c3.1-51.8,37.3-94.8,83.8-111.1c13-4.6,27-7,41.5-7  c10.4,0,20.5,1.3,30.1,3.7c21.3,5.3,40.5,15.9,55.9,30.5C316.646,174.291,331.346,203.791,333.346,236.891z" style="fill:#ED664C;"/><path data-cppathid="10001" d="M292.046,11.791c8.8-2,15.8,7.3,11.5,15.1l-53.5,88.7l-11.9,6.8c-9.7-2.4-19.7-3.7-30.1-3.7  c-14.5,0-28.5,2.5-41.5,7l-1.6-11.7l-53.3-88.7c-4.1-7.6,2.4-16.7,11-15.2l48.5,8.3c34.7,6,70.2,5,104.5-2.9L292.046,11.791z" style="fill:#FDC75B;"/><path data-cppathid="10002" d="M343.346,236.291c-2-34.6-17.1-66.8-42.3-90.6c-12-11.4-26-20.4-41.3-26.7l52.5-87c0.1-0.1,0.2-0.3,0.2-0.4  c3.9-7.1,3.2-15.6-1.7-22c-4.9-6.5-12.9-9.4-20.9-7.6l-16.4,3.8c-33.2,7.6-67,8.6-100.6,2.8l-48.5-8.3c-7.8-1.3-15.5,1.8-20.1,8.3  c-4.6,6.4-5.1,14.7-1.4,21.6c0.1,0.1,0.1,0.3,0.2,0.4l53.2,88.5c-47.9,19.8-80.4,65-83.5,117.3l-9.9,169.2c-0.2,2.7,0.8,5.4,2.7,7.4  c1.9,2,4.5,3.1,7.3,3.1h270.4c2.8,0,5.4-1.1,7.3-3.1s2.9-4.7,2.7-7.4L343.346,236.291z M120.446,20.191c0.2-0.2,0.3-0.2,0.4-0.2  l48.5,8.3c36.2,6.2,72.7,5.2,108.5-3l16.3-3.8c0.2,0,0.3-0.1,0.5,0.2c0.1,0.2,0.1,0.2,0.1,0.3l-53.4,88.4c-0.4,0.7-0.8,1.5-1,2.3  c-2.4-0.6-4.8-1.1-7.2-1.6c0-0.1,0.1-0.2,0.1-0.4l8.3-32.6c1.4-5.4-1.9-10.8-7.2-12.1c-5.4-1.4-10.8,1.9-12.1,7.2l-8.3,32.6  c-0.3,1-0.3,2-0.3,3c-1.9-0.1-3.8-0.1-5.7-0.1c-1.3,0-2.7,0-4,0.1l-16.4-51.7c-1.7-5.3-7.3-8.2-12.6-6.5s-8.2,7.3-6.5,12.6  l15.2,47.8c-3,0.5-5.9,1.2-8.9,1.9c-0.2-1.4-0.6-2.7-1.4-3.9l-53.1-88.4C120.346,20.491,120.346,20.391,120.446,20.191z   M83.446,396.091l9.3-158.6c2.8-46.7,33-86.8,77.1-102.2c12.2-4.3,25-6.5,38.2-6.5c9.4,0,18.8,1.1,27.7,3.4l0,0  c19.3,4.8,37.1,14.5,51.5,28.1c21.6,20.3,34.4,47.7,36.1,77.2l9.3,158.6H83.446z"/><path data-cppathid="10003" d="M247.146,212.091c5.5,0,10-4.5,10-10s-4.5-10-10-10h-55.8h-22.4c-5.5,0-10,4.5-10,10s4.5,10,10,10h22.4  c9.4,0,17.5,6,21.3,14h-43.6c-5.5,0-10,4.5-10,10s4.5,10,10,10h43.7c-1.1,2-2.7,4.9-4.7,6.9c-4.4,4.4-10.3,7.1-16.6,7.1h-22.4  c-4.1,0-7.8,2.3-9.3,6.1c-1.5,3.8-0.6,8,2.4,10.8l55.9,52.7c1.9,1.8,4.4,2.7,6.9,2.7c2.7,0,5.3-1.1,7.3-3.1c3.8-4,3.6-10.4-0.4-14.1  l-37.8-35.7c10.6-0.6,20.5-5.1,28.1-12.7c5.8-5.8,9.8-12.8,11.6-20.8h13.4c5.5,0,10-4.5,10-10s-4.5-10-10-10h-13.4  c-1.2-5-3.1-9-5.8-14h19.2V212.091z"/><g/><g/><g/><g/><g/><g/><g/><g/><g/><g/><g/><g/><g/><g/><g/></svg>