<?xml version="1.0" encoding="UTF-8"?>
<svg xmlns="http://www.w3.org/2000/svg" onmouseup="{ if(window.parent.document.onmouseup) window.parent.document.onmouseup(arguments[0]);}" width="512" viewBox="0 0 256 256" height="512"><path data-cppathid="10000" fill="#f46275" d="m43.806 148.242h35.869v73.112h-35.869z"/><path data-cppathid="10001" fill="#f43075" d="m43.806 148.242h18.5v73.112h-18.5z"/><path data-cppathid="10002" fill="#63bce7" d="m103.872 122.798h35.869v98.556h-35.869z"/><path data-cppathid="10003" fill="#f46275" d="m163.937 97.353h35.869v124h-35.869z"/><path data-cppathid="10004" fill="#f48875" d="m181.306 97.353h18.5v124h-18.5z"/><circle data-cppathid="10005" r="30.322" fill="#f8af23" cy="53.215" cx="181.872"/><path data-cppathid="10006" fill="#f8d323" d="m193.694 53.215a30.331 30.331 0 0 0 -21.072-28.88 30.322 30.322 0 1 1 0 57.76 30.332 30.332 0 0 0 21.072-28.88z"/><g fill="#3f3679"><path data-cppathid="10007" d="m197.25 53.2v10.551a2.9 2.9 0 0 1 -.925 2.14 3.028 3.028 0 0 1 -2.194.907h-9.285v7.435a2.911 2.911 0 0 1 -.906 2.158 2.956 2.956 0 0 1 -2.14.888 3.04 3.04 0 0 1 -2.212-.888 2.909 2.909 0 0 1 -.907-2.158v-7.508h-9.212a2.953 2.953 0 0 1 -2.14-.888 2.909 2.909 0 0 1 -.907-2.158 3.033 3.033 0 0 1 3.047-3.047h21.544v-4.389h-21.473a2.968 2.968 0 0 1 -2.158-.871 2.918 2.918 0 0 1 -.889-2.176v-10.518a3.035 3.035 0 0 1 3.047-3.047h9.14v-7.431a3.009 3.009 0 0 1 3.156-3.047 2.9 2.9 0 0 1 2.122.888 2.94 2.94 0 0 1 .888 2.158v7.435h9.354a3.03 3.03 0 0 1 2.194.906 2.9 2.9 0 0 1 .925 2.14 3.159 3.159 0 0 1 -3.119 3.12h-21.541v4.35h21.472a3.031 3.031 0 0 1 2.194.907 2.9 2.9 0 0 1 .925 2.143z"/><path data-cppathid="10008" d="m181.872 85.037a31.822 31.822 0 1 0 -31.822-31.822 31.858 31.858 0 0 0 31.822 31.822zm0-60.645a28.822 28.822 0 1 1 -28.822 28.823 28.855 28.855 0 0 1 28.822-28.822z"/><path data-cppathid="10009" d="m61.741 137.354a1.5 1.5 0 0 0 1.5-1.5v-44.524a7.735 7.735 0 0 1 7.727-7.73h41.611a10.739 10.739 0 0 0 10.727-10.728v-10.431a7.735 7.735 0 0 1 7.727-7.727h11.567l-6.809 6.809a1.5 1.5 0 1 0 2.121 2.121l9.369-9.369a1.5 1.5 0 0 0 0-2.121l-9.369-9.369a1.5 1.5 0 0 0 -2.121 2.121l6.809 6.809h-11.567a10.739 10.739 0 0 0 -10.727 10.727v10.434a7.736 7.736 0 0 1 -7.727 7.728h-41.611a10.739 10.739 0 0 0 -10.727 10.726v44.523a1.5 1.5 0 0 0 1.5 1.501z"/><path data-cppathid="10010" d="m25.89 231.607h-18.5a1.5 1.5 0 1 0 0 3h18.5a1.5 1.5 0 1 0 0-3z"/><path data-cppathid="10011" d="m248.61 231.607h-18.5a1.5 1.5 0 0 0 0 3h18.5a1.5 1.5 0 0 0 0-3z"/><path data-cppathid="10012" d="m215.337 231.607h-174.674a1.5 1.5 0 0 0 0 3h174.674a1.5 1.5 0 0 0 0-3z"/><path data-cppathid="10013" d="m7.39 222.854h7.944a1.5 1.5 0 1 0 0-3h-7.944a1.5 1.5 0 1 0 0 3z"/><path data-cppathid="10014" d="m240.667 222.854h7.943a1.5 1.5 0 0 0 0-3h-7.943a1.5 1.5 0 0 0 0 3z"/><path data-cppathid="10015" d="m25.89 222.854h204.22a1.5 1.5 0 0 0 0-3h-28.8v-122.5a1.5 1.5 0 0 0 -1.5-1.5h-35.873a1.5 1.5 0 0 0 -1.5 1.5v122.5h-21.2v-97.054a1.5 1.5 0 0 0 -1.5-1.5h-35.865a1.5 1.5 0 0 0 -1.5 1.5v97.056h-21.2v-71.615a1.5 1.5 0 0 0 -1.5-1.5h-35.866a1.5 1.5 0 0 0 -1.5 1.5v71.612h-16.416a1.5 1.5 0 0 0 0 3zm139.548-124h32.868v121h-32.869zm-60.066 25.446h32.868v95.556h-32.868zm-60.066 25.441h32.869v70.112h-32.869z"/></g></svg>