<?xml version="1.0" encoding="UTF-8"?>
<svg xmlns="http://www.w3.org/2000/svg" onmouseup="{ if(window.parent.document.onmouseup) window.parent.document.onmouseup(arguments[0]);}" width="512" viewBox="0 0 24 24" height="512" enable-background="new 0 0 24 24"><g id="color"><g><g><path data-cppathid="10000" fill="#4caf50" d="m15.561 15.25h7.042c.003-.008.009-.015.012-.023.357-.057.635-.353.635-.727v-11.75c0-1.517-1.233-2.75-2.75-2.75h-17.75c-1.517 0-2.75 1.233-2.75 2.75v9.75c0 1.517 1.233 2.75 2.75 2.75h5.704z"/></g></g><g><circle data-cppathid="10001" r="2.187" fill="#fafafa" cy="8" cx="12"/></g><g><circle data-cppathid="10002" r="6" fill="#ffc107" cy="17.5" cx="17.5"/></g></g><g id="regular"><g><path data-cppathid="10003" d="m19.75 20.5c-.177 0-.355-.062-.498-.189l-2.25-2c-.16-.142-.252-.346-.252-.561v-3c0-.414.336-.75.75-.75s.75.336.75.75v2.663l1.998 1.776c.31.275.338.749.062 1.059-.147.167-.353.252-.56.252z"/></g><g><path data-cppathid="10004" d="m17.5 24c-3.584 0-6.5-2.916-6.5-6.5s2.916-6.5 6.5-6.5 6.5 2.916 6.5 6.5-2.916 6.5-6.5 6.5zm0-11.5c-2.757 0-5 2.243-5 5s2.243 5 5 5 5-2.243 5-5-2.243-5-5-5z"/></g><g><path data-cppathid="10005" d="m9.31 16h-6.56c-1.517 0-2.75-1.233-2.75-2.75v-10.5c0-1.517 1.233-2.75 2.75-2.75h18.5c1.517 0 2.75 1.233 2.75 2.75v8.5c0 .414-.336.75-.75.75s-.75-.336-.75-.75v-8.5c0-.689-.561-1.25-1.25-1.25h-18.5c-.689 0-1.25.561-1.25 1.25v10.5c0 .689.561 1.25 1.25 1.25h6.56c.414 0 .75.336.75.75s-.336.75-.75.75z"/></g><g><path data-cppathid="10006" d="m6.25 4.5h-2.5c-.414 0-.75-.336-.75-.75s.336-.75.75-.75h2.5c.414 0 .75.336.75.75s-.336.75-.75.75z"/></g><g><path data-cppathid="10007" d="m12 11c-1.654 0-3-1.346-3-3s1.346-3 3-3 3 1.346 3 3-1.346 3-3 3zm0-4.5c-.827 0-1.5.673-1.5 1.5s.673 1.5 1.5 1.5 1.5-.673 1.5-1.5-.673-1.5-1.5-1.5z"/></g></g></svg>