<?xml version="1.0" encoding="UTF-8"?>
<svg xmlns="http://www.w3.org/2000/svg" onmouseup="{ if(window.parent.document.onmouseup) window.parent.document.onmouseup(arguments[0]);}" width="512" viewBox="0 0 512 512" height="512" enable-background="new 0 0 512 512" id="Capa_1"><g><path data-cppathid="10000" fill="#f03800" d="m256 0c-141.61 0-256 114.43-256 256 0 141.61 114.43 256 256 256 141.61 0 256-114.43 256-256 0-141.61-114.43-256-256-256z"/><path data-cppathid="10001" fill="#cd0000" d="m512 256c0 141.57-114.39 256-256 256v-512c141.57 0 256 114.39 256 256z"/><path data-cppathid="10002" fill="#f0f7ff" d="m414.302 371.875c13.666-19.126 37.698-58.155 37.698-115.875 0-108.52-87.52-196-196-196-57.859 0-96.763 24.028-115.872 37.701z"/><path data-cppathid="10003" fill="#dfe7f4" d="m414.302 371.875c13.666-19.126 37.698-58.155 37.698-115.875 0-108.52-87.52-196-196-196v153.573z"/><path data-cppathid="10004" fill="#f0f7ff" d="m97.698 140.125c-13.666 19.127-37.698 58.155-37.698 115.875 0 108.52 87.52 196 196 196 57.859 0 96.763-24.028 115.872-37.701z"/><path data-cppathid="10005" fill="#dfe7f4" d="m256 298.427v153.573c57.859 0 96.763-24.028 115.872-37.701z"/></g></svg>