<?xml version="1.0" encoding="UTF-8"?>
<svg xmlns="http://www.w3.org/2000/svg" onmouseup="{ if(window.parent.document.onmouseup) window.parent.document.onmouseup(arguments[0]);}" width="512" viewBox="0 0 64 64" height="512"><g data-name="Hand-Washing Hand-Hygiene-Clean-Safe" id="Hand-Washing_Hand-Hygiene-Clean-Safe"><path data-cppathid="10000" fill="#ffc477" d="m43 15v26l-.74 1.86-1.26 3.14v5h-20v-4.54l-11.2-19.39a2.976 2.976 0 0 1 -.4-1.49 3 3 0 0 1 5.6-1.51l4 6.93v-20a2.993 2.993 0 0 1 .88-2.12 2.838 2.838 0 0 1 1.12-.7 2.772 2.772 0 0 1 1-.18 3 3 0 0 1 3 3v-5a2.993 2.993 0 0 1 .88-2.12 2.838 2.838 0 0 1 1.12-.7 2.772 2.772 0 0 1 1-.18 3 3 0 0 1 3 3v5a2.993 2.993 0 0 1 .88-2.12 2.838 2.838 0 0 1 1.12-.7 2.772 2.772 0 0 1 1-.18 3 3 0 0 1 3 3v4a2.993 2.993 0 0 1 .88-2.12 2.838 2.838 0 0 1 1.12-.7 2.772 2.772 0 0 1 1-.18 3 3 0 0 1 3 3z"/><g fill="#ffb655"><path data-cppathid="10001" d="m21 8.18v20.82a2 2 0 0 1 -2 2v-20a2.993 2.993 0 0 1 .88-2.12 2.838 2.838 0 0 1 1.12-.7z"/><path data-cppathid="10002" d="m27 3.18v21.82a1 1 0 0 1 -1 1 1 1 0 0 1 -1-1v-19a2.993 2.993 0 0 1 .88-2.12 2.838 2.838 0 0 1 1.12-.7z"/><path data-cppathid="10003" d="m33 8.18v16.82a1 1 0 0 1 -1 1 1 1 0 0 1 -1-1v-14a2.993 2.993 0 0 1 .88-2.12 2.838 2.838 0 0 1 1.12-.7z"/><path data-cppathid="10004" d="m39 12.18v12.82a1 1 0 0 1 -1 1 1 1 0 0 1 -1-1v-10a2.993 2.993 0 0 1 .88-2.12 2.838 2.838 0 0 1 1.12-.7z"/></g><path data-cppathid="10005" fill="#3d9ae2" d="m43 51v11h-24v-11h2 20z"/><path data-cppathid="10006" fill="#ff5023" d="m45 20-2 1-6 3-2 1v6.21a12 12 0 0 0 5.83 10.29l1.59.95 2.58 1.55 4.17-2.5a12 12 0 0 0 5.83-10.29v-6.21z"/><path data-cppathid="10007" fill="#ffb655" d="m22 51h-2v-4.272l-11.066-19.158a4 4 0 0 1 6.931-4l3.712 6.43h2.423a9.01 9.01 0 0 1 9 9v2h-2v-2a7.008 7.008 0 0 0 -7-7h-3a1 1 0 0 1 -.866-.5l-4-6.93a2 2 0 0 0 -3.734 1.01 1.969 1.969 0 0 0 .267.992l11.2 19.388a1 1 0 0 1 .134.5z"/><path data-cppathid="10008" fill="#ed1c24" d="m45 45a.994.994 0 0 1 -.515-.143l-4.173-2.5a13.066 13.066 0 0 1 -6.312-11.151v-6.206a1 1 0 0 1 .553-.895l10-5a1 1 0 0 1 .894 0l10 5a1 1 0 0 1 .553.895v6.206a13.066 13.066 0 0 1 -6.312 11.147l-4.173 2.5a.994.994 0 0 1 -.515.147zm-9-19.382v5.588a11.056 11.056 0 0 0 5.341 9.432l3.659 2.196 3.659-2.2a11.056 11.056 0 0 0 5.341-9.428v-5.588l-9-4.5z"/><path data-cppathid="10009" fill="#d80027" d="m44 35a1 1 0 0 1 -.707-.293l-3-3 1.414-1.414 2.293 2.293 4.293-4.293 1.414 1.414-5 5a1 1 0 0 1 -.707.293z"/></g></svg>