<?xml version="1.0" encoding="UTF-8"?>
<svg xmlns="http://www.w3.org/2000/svg" onmouseup="{ if(window.parent.document.onmouseup) window.parent.document.onmouseup(arguments[0]);}" width="466pt" viewBox="-78 0 466 466.40926" height="466pt"><path data-cppathid="10000" fill="#fedb41" d="m245.285156 96.128906 41.128906 45.242188h-29.5v62l-.058593.058594c-7.636719-7.195313-16.007813-13.5625-24.980469-19l.039062-.058594v-43h-27.75zm0 0"/><path data-cppathid="10001" fill="#00acea" d="m173.914062 164.1875c20.527344 2.617188 40.273438 9.511719 57.960938 20.242188 56.839844 34.425781 83.902344 102.410156 66.269531 166.480468-17.628906 64.070313-75.664062 108.636719-142.113281 109.136719-66.449219.496094-125.148438-43.191406-143.738281-106.992187-18.589844-63.796876 7.449219-132.179688 63.761719-167.457032 17.589843-11.035156 37.308593-18.238281 57.871093-21.136718 13.257813-1.867188 26.707031-1.957032 39.988281-.273438zm95.839844 147.511719c0-63.425781-51.414062-114.839844-114.839844-114.839844-63.421874 0-114.839843 51.414063-114.839843 114.839844s51.417969 114.839843 114.839843 114.839843c63.425782 0 114.84375-51.414062 114.839844-114.839843zm0 0"/><path data-cppathid="10002" fill="#00efd1" d="m154.914062 196.871094c63.421876 0 114.835938 51.417968 114.832032 114.839844-.003906 63.421874-51.417969 114.832031-114.839844 114.828124-63.421875-.003906-114.832031-51.417968-114.832031-114.839843.003906-63.421875 51.421875-114.832031 114.839843-114.828125zm0 0"/><path data-cppathid="10003" fill="#00efd1" d="m154.914062 6 64.882813 71.371094h-45.882813v86.816406c-13.28125-1.683594-26.730468-1.59375-39.988281.273438l-.011719-.089844v-87h-43.878906zm0 0"/><path data-cppathid="10004" fill="#fedb41" d="m64.546875 96.128906 41.117187 45.242188h-29.75v44l.140626.226562c-8.863282 5.554688-17.113282 12.027344-24.617188 19.3125l-.523438-.539062v-63h-27.5zm0 0"/><g fill="#083863"><path data-cppathid="10005" d="m154.914062 190.871094c-66.734374 0-120.832031 54.101562-120.828124 120.839844.003906 66.734374 54.105468 120.832031 120.839843 120.828124 66.734375-.003906 120.832031-54.105468 120.828125-120.839843-.078125-66.703125-54.132812-120.757813-120.839844-120.828125zm0 229.667968c-60.105468-.003906-108.828124-48.730468-108.828124-108.835937s48.726562-108.832031 108.832031-108.832031c60.109375-.003906 108.835937 48.722656 108.835937 108.828125-.066406 60.082031-48.753906 108.773437-108.839844 108.839843zm0 0"/><path data-cppathid="10006" d="m262.914062 200.941406v-53.570312h23.5c2.375-.003906 4.527344-1.402344 5.488282-3.574219.960937-2.171875.550781-4.707031-1.046875-6.464844l-41.128907-45.238281c-1.136718-1.25-2.75-1.964844-4.441406-1.964844s-3.300781.714844-4.441406 1.964844l-41.117188 45.238281c-1.597656 1.757813-2.007812 4.292969-1.046874 6.464844.960937 2.171875 3.109374 3.574219 5.484374 3.574219h21.75v26.847656c-14.421874-7.488281-29.953124-12.625-46-15.210938v-75.636718h39.882813c2.375-.003906 4.523437-1.402344 5.484375-3.574219s.550781-4.707031-1.046875-6.464844l-64.878906-71.367187c-1.136719-1.253906-2.75-1.964844-4.441407-1.964844-1.6875 0-3.300781.710938-4.4375 1.964844l-64.878906 71.367187c-1.597656 1.757813-2.007812 4.292969-1.046875 6.464844.957031 2.171875 3.109375 3.570313 5.484375 3.574219h37.878906v75.976562c-16.085937 2.808594-31.617187 8.1875-46 15.921875v-27.898437h23.75c2.375 0 4.527344-1.402344 5.488282-3.574219.960937-2.171875.550781-4.707031-1.046875-6.464844l-41.121094-45.238281c-1.136719-1.25-2.75-1.964844-4.4375-1.964844-1.691406 0-3.304687.714844-4.441406 1.964844l-41.128907 45.238281c-1.597656 1.757813-2.007812 4.292969-1.046874 6.464844.960937 2.171875 3.109374 3.570313 5.484374 3.574219h21.5v55.558594c-28.765624 28.871093-44.8554682 68.011718-44.707031 108.769531 0 85.308593 69.398438 154.710937 154.707031 154.710937 85.3125 0 154.710938-69.402344 154.710938-154.710937.171875-41.742188-16.699219-81.746094-46.710938-110.757813zm-45.1875-65.570312 27.558594-30.320313 27.566406 30.320313h-15.9375c-3.3125 0-6 2.683594-6 6v49.015625c-4.171874-3.308594-8.507812-6.398438-13-9.257813v-39.757812c0-3.316406-2.683593-6-6-6zm-114.125-64 51.3125-56.453125 51.316407 56.453125h-32.316407c-3.3125 0-6 2.683594-6 6v80.175781c-9.320312-.765625-18.6875-.707031-28 .179687v-80.355468c0-3.316406-2.683593-6-6-6zm-66.621093 64 27.5625-30.320313 27.5625 30.320313h-16.191407c-3.3125 0-6 2.683594-6 6v41.046875c-4.496093 2.964843-8.835937 6.160156-13 9.578125v-50.625c0-3.316406-2.683593-6-6-6zm117.933593 319.039062c-78.6875 0-142.707031-64.019531-142.707031-142.710937-.015625-71.042969 52.230469-131.273438 122.558594-141.300781 12.726563-1.789063 25.636719-1.875 38.390625-.257813 19.695312 2.488281 38.644531 9.105469 55.609375 19.417969 8.609375 5.222656 16.644531 11.332031 23.976563 18.238281 28.777343 26.871094 45.042968 64.527344 44.882812 103.898437 0 78.695313-64.019531 142.714844-142.710938 142.714844zm0 0"/><path data-cppathid="10007" d="m205.464844 243.371094c0-3.316406-2.683594-6-6-6h-89.097656c-3.316407 0-6 2.683594-6 6 0 3.3125 2.683593 6 6 6h25.5c15.441406-.109375 28.757812 10.828125 31.648437 26h-57.148437c-3.316407 0-6 2.683594-6 6 0 3.3125 2.683593 6 6 6h57.15625c-1.035157 6.527344-4.144532 12.546875-8.871094 17.171875-5.988282 6.167969-14.1875 9.703125-22.785156 9.828125h-25.5c-2.429688-.089844-4.65625 1.347656-5.578126 3.597656-.917968 2.25-.339843 4.835938 1.457032 6.476562l63.71875 60.160157c2.421875 2.257812 6.210937 2.136719 8.480468-.273438 1.09375-1.121093 1.683594-2.636719 1.640626-4.199219-.046876-1.566406-.722657-3.042968-1.878907-4.101562l-52.753906-49.660156h10.414063c11.785156-.117188 23.039062-4.917969 31.277343-13.347656 6.9375-6.902344 11.351563-15.9375 12.53125-25.652344h19.789063c3.316406 0 6-2.6875 6-6 0-3.316406-2.683594-6-6-6h-19.800782c-1.492187-9.9375-6.265624-19.089844-13.558593-26h33.359375c3.3125 0 6-2.6875 6-6zm0 0"/></g></svg>