<?xml version="1.0" encoding="UTF-8"?>
<svg xmlns="http://www.w3.org/2000/svg" onmouseup="{ if(window.parent.document.onmouseup) window.parent.document.onmouseup(arguments[0]);}" xml:space="preserve" style="enable-background:new 0 0 512 512;" viewBox="0 0 512 512" y="0px" x="0px" id="Capa_1" version="1.1" xmlns:xlink="http://www.w3.org/1999/xlink"><circle data-cppathid="10000" r="256" cy="256" cx="256" style="fill:#FF6838;"/><path data-cppathid="10001" d="M503.792,320.526l-109.76-110.605l-28.695,63.416L276,184l-45.003,49.16l71.765,69.36l-1.528,1.528  l-24.702-24.702l-17.246,19.504l-73.504-73.504l-71,179l105.107,105.106C231.688,511.119,243.74,512,256,512  C375.095,512,475.19,430.672,503.792,320.526z" style="fill:#AE4E32;"/><rect data-cppathid="10002" height="81" width="71" style="fill:#FFC000;" y="323.35" x="296.28"/><rect data-cppathid="10003" height="125" width="71" style="fill:#FFDC00;" y="279.35" x="205.53"/><rect data-cppathid="10004" height="125" width="35.5" style="fill:#FFC000;" y="279.35" x="241.03"/><rect data-cppathid="10005" height="179" width="71" style="fill:#FFDC00;" y="225.35" x="114.78"/><polygon data-cppathid="10006" points="371.839,304.576 265.708,198.445 230.997,233.16 121.776,123.942 140.161,105.557   230.994,196.39 265.708,161.676 390.224,286.191 " style="fill:#005C83;"/><polygon data-cppathid="10007" points="265.708,198.445 349.647,282.384 295.568,282.384 295.568,308.384 394.032,308.384   394.032,209.921 368.032,209.921 368.032,263.999 265.708,161.676 " style="fill:#00263F;"/><g/><g/><g/><g/><g/><g/><g/><g/><g/><g/><g/><g/><g/><g/><g/></svg>