<?xml version="1.0" encoding="UTF-8"?>
<svg xmlns="http://www.w3.org/2000/svg" onmouseup="{ if(window.parent.document.onmouseup) window.parent.document.onmouseup(arguments[0]);}" width="512" viewBox="0 0 497 497" height="512" enable-background="new 0 0 497 497" id="Capa_1"><g id="_x3C_Group_x3E__24_"><path data-cppathid="10000" fill="#ffe07d" d="m298.89 62.119-22.992 61.959-9.48 14.325c-1.84 4.94-7.15 7.71-12.22 6.27-10.65-3.02-23.985-3.216-35.625-3.076-14.81.18-28.97 3.13-41.99 8.36l-29.663-41.174-7.43-53.574c26.15-10.83 54.73-16.84 84.6-16.89 23.22-.03 46.28 3.53 68.37 10.56 5.53 1.76 8.45 7.8 6.43 13.24z"/><path data-cppathid="10001" fill="#94d4a2" d="m176.583 151.129c-12.56 5.03-25.009 14.59-35.009 23.39l-42.464-32.267-17.81-51.813c17.4-14.51 37-26.46 58.19-35.23l30.611 72.53z"/><path data-cppathid="10002" fill="#7fcb8f" d="m102.161 263.793c.34 21.03.72 44.251 10.72 61.211l-31.581 37.431-49.36 15.084c-20.2-33.57-31.87-72.74-31.94-114.43-.11-69.04 31.66-131.28 81.3-172.65l48.371 61.979 10.911 22.476c-25.009 22.04-39.001 53.159-38.421 88.899z"/><path data-cppathid="10003" fill="#d5717f" d="m448.86 262.409c.18 123.12-100.97 224.58-224.09 224.77-81.43.12-153.39-44.09-192.83-109.66l67.172-40.636 16.29-17.491c20.65 35.01 62.587 68.887 106.257 68.437 64.62-.66 124.858-59.986 124.208-124.606-.03-3.56-.529-6.617-.869-10.097-.52-5.26 2.607-7.537 7.817-8.477l17.075-8.297 65.099-11.813c5.71-1.04 11.15 2.89 11.91 8.64 1.291 9.69 1.941 19.45 1.961 29.23z"/><path data-cppathid="10004" fill="#ffd064" d="m275.9 124.079-7.15 19.26c-1.84 4.94-7.15 7.71-12.22 6.27-10.65-3.02-21.91-4.57-33.55-4.43-14.81.18-28.97 3.13-41.99 8.36l-10.89-11.288v-14.512c.15-.06.3-.12.45-.18 16.6-6.67 34.12-10.16 52.09-10.38.6-.01 15.48.38 16.08.38 3.15 0 19.22 2.79 37.18 6.52z"/><path data-cppathid="10005" fill="#7fcb8f" d="m180.99 153.539c-12.56 5.03-24.07 12.18-34.07 20.98l-17.25-5.405v-16.695c12.11-10.43 25.72-18.73 40.43-24.68z"/><path data-cppathid="10006" fill="#71bf7e" d="m106.86 264.709c.34 21.03 6.21 40.72 16.21 57.68l-7.258 14.49h-16.702c-.05-.09-.11-.18-.16-.27-12.73-21.6-19.68-46.3-20.09-71.45-.69-42.6 17.37-83.29 49.56-111.66.41-.36.83-.73 1.25-1.08l17.25 22.1c-25.01 22.04-40.64 54.45-40.06 90.19z"/><path data-cppathid="10007" fill="#cd5668" d="m369.99 264.789c-1.09 78.67-64.99 142.72-144.05 143.53-.51 0-1.02.01-1.53.01-51.18 0-99.17-27.37-125.3-71.45l23.96-14.49c20.65 35.01 58.91 58.38 102.58 57.93 64.62-.66 117-54.16 116.35-118.78-.03-3.56-.23-7.08-.57-10.56-.52-5.26 3.1-10.03 8.31-10.97l20.15-3.66c1.13 12.88.1 28.44.1 28.44z"/><path data-cppathid="10008" fill="#bed9fd" d="m406.177 186.433 14.533 4.376 67.926-12.227c5.698-1.026 9.4-6.607 8.105-12.251-7.875-34.314-23.75-66.345-46.388-93.437-22.637-27.092-51.336-48.408-83.705-62.256-5.323-2.277-11.474.374-13.496 5.799l-23.66 63.483 1.66 17.855c-1.852 4.97.447 10.503 5.251 12.75 31.163 14.574 49.243 34.603 58.162 68.477 1.35 5.128 6.393 8.371 11.612 7.431z"/><path data-cppathid="10009" fill="#9ec8fc" d="m420.71 190.809-17.08 3.08c-5.22.93-10.27-2.31-11.62-7.44-8.91-33.87-32.61-61.75-63.78-76.32-4.8-2.25-7.1-7.78-5.25-12.75l6.51-17.46c12.19 7.9 21.48 13.96 21.48 13.96 28.24 16.66 49.75 42.4 61.08 73.09 0 0 4.33 10.5 8.66 23.84z"/><path data-cppathid="10010" fill="#cd5668" d="m272.64 44.319c-.25-.01-.35-.02-.28-.05.04-.02.14 0 .28.05z"/></g></svg>