<?xml version="1.0" encoding="UTF-8"?>
<svg xmlns="http://www.w3.org/2000/svg" onmouseup="{ if(window.parent.document.onmouseup) window.parent.document.onmouseup(arguments[0]);}" width="512" viewBox="0 0 24 24" height="512" enable-background="new 0 0 24 24" id="_x31_px"><path data-cppathid="10000" fill="#ffcc80" d="m8.476 9.09c-.461 0-.787 0-.859.009l-.949.723-.931.705c-1.682 1.275-2.685 3.291-2.685 5.398v6.872c0 .19.109.353.271.416.054.027.118.036.181.036h7.234c.253 0 .452-.199.452-.452v-1.393c.977-.163 1.781-.85 2.107-1.772.099-.28.154-.588.154-.904v-9.62c-.002 0-3.148-.018-4.975-.018z"/><path data-cppathid="10001" fill="#ffa726" d="m13.449 17.825v.904c0 .316-.054.624-.154.904-.326.922-1.13 1.609-2.107 1.772v1.393c0 .253-.199.452-.452.452h-6.781v-5.425z"/><path data-cppathid="10002" fill="#ffa726" d="m8.25 9.766-1.582 1.574c-.908.904-1.424 2.129-1.434 3.411h3.016z"/><path data-cppathid="10003" fill="#607d8b" d="m21.25 4h-11.25c-.25 0-.48-.09-.66-.25h-.09c-.83 0-1.5-.67-1.5-1.5v14c0 1.1.9 2 2 2h11.5z"/><path data-cppathid="10004" fill="#ffcc80" d="m11.978 12.514-2.146 2.146c.217.443.326.913.326 1.383 0 .714-.244 1.411-.723 1.98l-1.411 1.691v3.536h-4.521c-.063 0-.127-.009-.181-.036-.163-.063-.271-.226-.271-.416v-5.597l8.303-7.734c.181-.163.452-.163.624.009.425.416.633.968.633 1.519s-.208 1.103-.633 1.519z"/><path data-cppathid="10005" d="m7.75 12.91c-.414 0-.75-.336-.75-.75v-9.91c0-1.241 1.01-2.25 2.25-2.25h10c.414 0 .75.336.75.75v3c0 .414-.336.75-.75.75h-10c-.263 0-.516-.045-.75-.128v7.789c0 .413-.336.749-.75.749zm.75-10.66c0 .414.337.75.75.75h9.25v-1.5h-9.25c-.413 0-.75.336-.75.75z"/><path data-cppathid="10006" d="m21.25 19h-11.5c-.414 0-.75-.336-.75-.75s.336-.75.75-.75h10.75v-13h-1.25c-.414 0-.75-.336-.75-.75s.336-.75.75-.75h2c.414 0 .75.336.75.75v14.5c0 .414-.336.75-.75.75z"/><path data-cppathid="10007" d="m8.749 20c-.163 0-.327-.053-.465-.162-.324-.257-.379-.729-.122-1.054l.818-1.032c.69-.829.823-1.968.349-2.917-.145-.289-.088-.637.141-.866l1.81-1.81c.31-.31.48-.722.48-1.16 0-.357-.113-.697-.323-.978l-5.178 4.779c-.305.282-.779.262-1.06-.042-.281-.305-.263-.779.042-1.06l5.367-4.954c.496-.457 1.256-.441 1.732.036.592.592.919 1.381.919 2.22s-.327 1.627-.92 2.22l-1.455 1.455c.47 1.366.201 2.894-.74 4.023l-.807 1.018c-.148.187-.366.284-.588.284z"/><path data-cppathid="10008" d="m11.25 24h-8.5c-.414 0-.75-.336-.75-.75v-7.938c0-2.063.924-3.985 2.536-5.273l2.345-1.875c.324-.257.795-.207 1.055.118.259.324.206.795-.117 1.054l-2.346 1.875c-1.254 1.001-1.973 2.497-1.973 4.101v7.188h7v-1.248c0-.414.336-.75.75-.75.965 0 1.75-.785 1.75-1.75v-.502c0-.414.336-.75.75-.75s.75.336.75.75v.502c0 1.534-1.068 2.823-2.5 3.163v1.335c0 .414-.336.75-.75.75z"/></svg>