<?xml version="1.0" encoding="UTF-8"?>
<svg xmlns="http://www.w3.org/2000/svg" onmouseup="{ if(window.parent.document.onmouseup) window.parent.document.onmouseup(arguments[0]);}" xml:space="preserve" style="enable-background:new 0 0 468.293 468.293;" viewBox="0 0 468.293 468.293" y="0px" x="0px" id="Capa_1" version="1.1" xmlns:xlink="http://www.w3.org/1999/xlink"><path data-cppathid="10000" d="M468.293,108.174H0V45.735c0-6.897,5.591-12.488,12.488-12.488h443.317  c6.897,0,12.488,5.591,12.488,12.488V108.174z" style="fill:#FCD462;"/><path data-cppathid="10001" d="M455.805,435.046H12.488C5.591,435.046,0,429.455,0,422.558V108.174h468.293v314.384  C468.293,429.455,462.702,435.046,455.805,435.046z" style="fill:#E1E6E9;"/><circle data-cppathid="10002" r="18.732" cy="70.712" cx="56.626" style="fill:#44C4A1;"/><circle data-cppathid="10003" r="18.732" cy="70.712" cx="112.821" style="fill:#27A2DB;"/><circle data-cppathid="10004" r="18.732" cy="70.712" cx="169.016" style="fill:#E56353;"/><path data-cppathid="10005" d="M424.157,86.32H256.346c-3.448,0-6.244-2.795-6.244-6.244V61.344c0-3.448,2.796-6.244,6.244-6.244  h167.811c3.448,0,6.244,2.795,6.244,6.244v18.732C430.401,83.525,427.605,86.32,424.157,86.32z" style="fill:#F6C358;"/><g><rect data-cppathid="10006" height="24.976" width="149.854" style="fill:#44C4A1;" y="143.803" x="37.894"/><rect data-cppathid="10007" height="24.976" width="149.854" style="fill:#44C4A1;" y="201.459" x="37.894"/><rect data-cppathid="10008" height="24.976" width="149.854" style="fill:#44C4A1;" y="259.122" x="37.894"/><rect data-cppathid="10009" height="24.976" width="149.854" style="fill:#44C4A1;" y="316.753" x="37.894"/><rect data-cppathid="10010" height="24.976" width="149.854" style="fill:#44C4A1;" y="374.447" x="37.894"/></g><rect data-cppathid="10011" height="68.683" width="180.299" style="fill:#E56353;" y="237.268" x="250.1"/><rect data-cppathid="10012" height="68.683" width="180.299" style="fill:#27A2DB;" y="143.803" x="250.1"/><rect data-cppathid="10013" height="68.683" width="180.299" style="fill:#1C75A1;" y="330.74" x="250.1"/><g/><g/><g/><g/><g/><g/><g/><g/><g/><g/><g/><g/><g/><g/><g/></svg>