<?xml version="1.0" encoding="UTF-8"?>
<svg xmlns="http://www.w3.org/2000/svg" onmouseup="{ if(window.parent.document.onmouseup) window.parent.document.onmouseup(arguments[0]);}" width="512" viewBox="0 0 512.001 512.001" height="512" enable-background="new 0 0 512.001 512.001" id="Layer_1"><g><g fill-rule="evenodd" clip-rule="evenodd"><path data-cppathid="10000" fill="#cc9081" d="m100 225.946c18.929 0 34.897-13.326 38.986-31.059.663-2.877 1.014-5.87 1.014-8.94v-20c0-22-18-40-40-40s-40 18-40 40v20c0 3.071.351 6.063 1.014 8.94 4.089 17.733 20.056 31.059 38.986 31.059z"/><path data-cppathid="10001" fill="#fff" d="m138.986 194.887c-4.089 17.734-20.057 31.059-38.986 31.059s-34.897-13.326-38.985-31.06c-30.118 14.594-51.015 45.506-51.015 81.062l40-.003v70.002h100v-70.002l40 .003c0-35.556-20.897-66.467-51.014-81.061z"/><path data-cppathid="10002" fill="#cc9081" d="m50 345.948v-70.002l-40 .003v70c0 11 9 20 20 20h20z"/><path data-cppathid="10003" fill="#cc9081" d="m150 275.945v70.002 20.001h20c11 0 20-9 20-20v-70z"/><path data-cppathid="10004" fill="#8690af" d="m150 345.948h-100v20 119.999h100v-119.999z"/><path data-cppathid="10005" fill="#ffdcd5" d="m412.001 225.946c18.929 0 34.897-13.326 38.986-31.059.663-2.877 1.014-5.87 1.014-8.94v-20c0-22-18-40-40-40s-40 18-40 40v20c0 3.071.351 6.063 1.014 8.94 4.089 17.733 20.057 31.059 38.986 31.059z"/><path data-cppathid="10006" fill="#ff9346" d="m450.987 194.887c-4.089 17.734-20.057 31.059-38.986 31.059s-34.897-13.326-38.985-31.06c-30.118 14.594-51.015 45.506-51.015 81.062l40-.003v70.002h100v-70.002l40 .003c0-35.556-20.897-66.467-51.014-81.061z"/><path data-cppathid="10007" fill="#ffdcd5" d="m362.001 345.948v-70.002l-40 .003v70c0 11 9 20 20 20h20z"/><path data-cppathid="10008" fill="#ffdcd5" d="m462.001 275.945v70.002 20.001h20c11 0 20-9 20-20v-70z"/><path data-cppathid="10009" fill="#8481e2" d="m462.001 345.948h-100v20 119.999h100v-119.999z"/><g fill="#ffc144"><path data-cppathid="10010" d="m186.001 26.055h140v40h-140z"/><path data-cppathid="10011" d="m186.001 106.055h140v40h-140z"/></g></g><g><path data-cppathid="10012" d="m482.001 375.948c16.542 0 30-13.458 30-30v-70c0-18.825-5.318-37.199-15.38-53.137-8.731-13.83-20.673-25.294-34.751-33.446.077-1.131.13-2.268.13-3.419v-20c0-27.57-22.43-50-50-50s-50 22.43-50 50v20c0 1.149.053 2.286.13 3.416-14.035 8.127-25.947 19.547-34.674 33.327-10.111 15.967-15.456 34.383-15.456 53.258v70c0 16.542 13.458 30 30 30h10v99.999h-50.996c-5.523 0-10 4.477-10 10s4.477 10 10 10h200.997c5.523 0 10-4.477 10-10s-4.477-10-10-10h-30v-99.999h10zm10-30c0 5.514-4.486 10-10 10h-10v-70.002l20 .001zm-110-180.003c0-16.542 13.458-30 30-30 16.542 0 30 13.458 30 30v20c0 16.542-13.458 30-30 30s-30-13.458-30-30zm-40 190.003c-5.514 0-10-4.486-10-10v-60.001l20-.001v70.002zm80 119.998v-85.528c0-5.523-4.477-10-10-10s-10 4.477-10 10v85.528h-30v-119.999h80v119.999zm40.001-210.001c-2.652 0-5.196 1.054-7.071 2.929s-2.929 4.419-2.929 7.071v60.002h-80v-60.002c0-2.652-1.054-5.196-2.929-7.071s-4.419-2.929-7.071-2.929l-29.38.002c2.88-23.112 15.666-43.673 35.205-56.615 8.407 15.815 25.05 26.614 44.175 26.614 19.123 0 35.766-10.796 44.173-26.61 19.534 12.945 32.324 33.513 35.207 56.611z"/><path data-cppathid="10013" d="m186 76.055h140c5.523 0 10-4.477 10-10v-40c0-5.523-4.477-10-10-10h-140c-5.523 0-10 4.477-10 10v40c0 5.523 4.478 10 10 10zm10-40h120v20h-120z"/><path data-cppathid="10014" d="m186 156.054h140c5.523 0 10-4.477 10-10v-40c0-5.523-4.477-10-10-10h-140c-5.523 0-10 4.477-10 10v40c0 5.523 4.478 10 10 10zm10-40h120v20h-120z"/><path data-cppathid="10015" d="m211.005 475.946h-51.005v-99.999h10c16.542 0 30-13.458 30-30v-70c0-18.825-5.318-37.199-15.38-53.137-8.731-13.83-20.673-25.294-34.751-33.446.077-1.131.13-2.268.13-3.419v-20c0-27.57-22.43-50-50-50s-50 22.43-50 50v20c0 1.149.053 2.286.13 3.416-14.035 8.127-25.947 19.547-34.674 33.327-10.11 15.968-15.455 34.384-15.455 53.26v70c0 16.542 13.458 30 30 30h10v99.999h-30c-5.523 0-10 4.477-10 10s4.477 10 10 10h201.005c5.523 0 10-4.477 10-10s-4.477-10.001-10-10.001zm-31.005-129.998c0 5.514-4.486 10-10 10h-10v-70.002l20 .001zm-110-180.003c0-16.542 13.458-30 30-30 16.542 0 30 13.458 30 30v20c0 16.542-13.458 30-30 30s-30-13.458-30-30zm-14.175 43.387c8.407 15.815 25.05 26.614 44.175 26.614 19.123 0 35.766-10.796 44.173-26.61 19.534 12.945 32.324 33.513 35.207 56.611l-29.38-.002c-2.652 0-5.196 1.054-7.071 2.929s-2.929 4.419-2.929 7.071v60.002h-80v-60.002c0-2.652-1.054-5.196-2.929-7.071s-4.419-2.929-7.071-2.929l-29.38.002c2.879-23.112 15.665-43.673 35.205-56.615zm-25.825 146.616c-5.514 0-10-4.486-10-10v-60.001l20-.001v70.002zm80 119.998v-85.528c0-5.523-4.477-10-10-10s-10 4.477-10 10v85.528h-30v-119.999h80v119.999z"/><path data-cppathid="10016" d="m256.008 475.946h-.007c-5.523 0-9.996 4.477-9.996 10s4.48 10 10.003 10 10-4.477 10-10-4.477-10-10-10z"/></g></g></svg>