<?xml version="1.0" encoding="UTF-8"?>
<svg xmlns="http://www.w3.org/2000/svg" onmouseup="{ if(window.parent.document.onmouseup) window.parent.document.onmouseup(arguments[0]);}" xml:space="preserve" style="enable-background:new 0 0 512 512;" viewBox="0 0 512 512" y="0px" x="0px" id="Capa_1" version="1.1" xmlns:xlink="http://www.w3.org/1999/xlink"><path data-cppathid="10000" d="M361.385,508.469c-2.648-0.883-6.179-1.766-8.828-2.648l0,0c-2.648-0.883-5.297-1.766-7.945-3.531  l0,0c-13.241-6.179-25.6-15.007-35.31-26.483l-0.883-0.883c-1.766-1.766-2.648-3.531-3.531-5.297  c-0.883-0.883-1.766-1.766-1.766-2.648c-0.883-1.766-1.766-3.531-2.648-4.414c-0.883-0.883-1.766-2.648-2.648-3.531  c-0.883-1.766-1.766-2.648-2.648-4.414c-0.883-1.766-1.766-2.648-1.766-4.414c-0.883-1.766-0.883-2.648-1.766-4.414  s-0.883-3.531-1.766-5.297s-0.883-2.648-1.766-4.414s-0.883-3.531-1.766-5.297c0-1.766-0.883-2.648-0.883-4.414  s-0.883-4.414-0.883-6.179c0-0.883,0-2.648-0.883-3.531c0-3.531-0.883-7.062-0.883-10.593c0-3.531,0-7.062,0.883-10.593  c0-0.883,0-2.648,0.883-3.531c0-2.648,0.883-4.414,0.883-6.179c0-1.766,0.883-2.648,0.883-4.414s0.883-3.531,1.766-5.297  c0-1.766,0.883-2.648,1.766-4.414s0.883-3.531,1.766-5.297s0.883-2.648,1.766-4.414s1.766-2.648,1.766-4.414  c0.883-1.766,1.766-2.648,2.648-4.414c0.883-0.883,1.766-2.648,1.766-3.531c0.883-1.766,1.766-3.531,2.648-4.414  c0.883-0.883,1.766-1.766,1.766-2.648c0.883-1.766,2.648-3.531,3.531-5.297l0.883-0.883c9.71-11.476,22.069-20.303,35.31-26.483l0,0  c2.648-0.883,5.297-2.648,7.945-3.531l0,0c2.648-0.883,5.297-1.766,8.828-2.648l0,0c2.648-0.883,6.179-1.766,8.828-1.766V0H17.992  v512h353.103v-1.766C368.447,510.234,364.916,509.352,361.385,508.469C362.268,508.469,361.385,508.469,361.385,508.469z" style="fill:#DB8D07;"/><circle data-cppathid="10001" r="105.93" cy="406.07" cx="388.078" style="fill:#841F19;"/><path data-cppathid="10002" d="M417.206,359.283l-22.952,22.952c-3.531,3.531-8.828,3.531-12.359,0l-22.952-22.952  c-3.531-3.531-8.828-3.531-12.359,0l-5.297,5.297c-3.531,3.531-3.531,8.828,0,12.359l22.952,22.952  c3.531,3.531,3.531,8.828,0,12.359l-22.951,22.95c-3.531,3.531-3.531,8.828,0,12.359l5.297,5.297c3.531,3.531,8.828,3.531,12.359,0  l22.952-22.952c3.531-3.531,8.828-3.531,12.359,0l22.952,22.952c3.531,3.531,8.828,3.531,12.359,0l5.297-5.297  c3.531-3.531,3.531-8.828,0-12.359l-22.952-22.952c-3.531-3.531-3.531-8.828,0-12.359l22.952-22.952  c3.531-3.531,3.531-8.828,0-12.359l-5.297-5.297C426.033,355.752,420.737,355.752,417.206,359.283z" style="fill:#DDDDDB;"/><path data-cppathid="10003" d="M282.144,406.069c0-26.22,9.531-50.211,25.312-68.709c0.026-0.049,0.057-0.097,0.081-0.146  l0.272-0.272c1.261-1.463,2.563-2.89,3.901-4.282c5.582-5.922,11.889-11.06,18.638-15.418c0.363-0.236,0.726-0.471,1.092-0.703  c0.14-0.088,0.281-0.176,0.422-0.263c4.917-3.085,10.104-5.778,15.521-8.034c1.431-0.714,2.861-1.447,4.292-1.924  c2.648-0.883,5.297-1.766,8.828-2.648c2.413-0.804,5.551-1.601,8.095-1.737c0.245-0.045,0.488-0.096,0.733-0.14V0H17.992v512  h353.103v-1.361C320.664,502.513,282.144,458.793,282.144,406.069z" style="fill:#DB8D07;"/><g><circle data-cppathid="10004" r="17.655" cy="61.793" cx="168.058" style="fill:#7E3B04;"/><circle data-cppathid="10005" r="17.655" cy="132.41" cx="238.678" style="fill:#7E3B04;"/><path data-cppathid="10006" d="M238.681,203.034H168.06c-5.297,0-8.828-3.531-8.828-8.828l0,0c0-5.297,3.531-8.828,8.828-8.828   h70.621c5.297,0,8.828,3.531,8.828,8.828l0,0C247.509,199.503,243.978,203.034,238.681,203.034z" style="fill:#7E3B04;"/><path data-cppathid="10007" d="M309.302,247.172H168.061c-5.297,0-8.828-3.531-8.828-8.828l0,0c0-5.297,3.531-8.828,8.828-8.828   h141.241c5.297,0,8.828,3.531,8.828,8.828l0,0C318.13,243.641,314.599,247.172,309.302,247.172z" style="fill:#7E3B04;"/><path data-cppathid="10008" d="M309.302,291.31H79.785c-5.297,0-8.828-3.531-8.828-8.828l0,0c0-5.297,3.531-8.828,8.828-8.828   h229.517c5.297,0,8.828,3.531,8.828,8.828l0,0C318.13,287.779,314.599,291.31,309.302,291.31z" style="fill:#7E3B04;"/><path data-cppathid="10009" d="M309.302,203.034h-35.31c-5.297,0-8.828-3.531-8.828-8.828l0,0c0-5.297,3.531-8.828,8.828-8.828   h35.31c5.297,0,8.828,3.531,8.828,8.828l0,0C318.13,199.503,314.599,203.034,309.302,203.034z" style="fill:#7E3B04;"/><path data-cppathid="10010" d="M247.509,335.448H79.785c-5.297,0-8.828-3.531-8.828-8.828l0,0c0-5.297,3.531-8.828,8.828-8.828   h167.724c5.297,0,8.828,3.531,8.828,8.828l0,0C256.337,331.917,252.806,335.448,247.509,335.448z" style="fill:#7E3B04;"/><path data-cppathid="10011" d="M247.509,379.586H79.785c-5.297,0-8.828-3.531-8.828-8.828l0,0c0-5.297,3.531-8.828,8.828-8.828   h167.724c5.297,0,8.828,3.531,8.828,8.828l0,0C256.337,376.055,252.806,379.586,247.509,379.586z" style="fill:#7E3B04;"/><path data-cppathid="10012" d="M115.095,423.724h-35.31c-5.297,0-8.828-3.531-8.828-8.828l0,0c0-5.297,3.531-8.828,8.828-8.828   h35.31c5.297,0,8.828,3.531,8.828,8.828l0,0C123.923,420.193,120.392,423.724,115.095,423.724z" style="fill:#7E3B04;"/><path data-cppathid="10013" d="M247.509,423.724h-97.103c-5.297,0-8.828-3.531-8.828-8.828l0,0c0-5.297,3.531-8.828,8.828-8.828   h97.103c5.297,0,8.828,3.531,8.828,8.828l0,0C256.337,420.193,252.806,423.724,247.509,423.724z" style="fill:#7E3B04;"/><path data-cppathid="10014" d="M123.923,203.034H79.785c-5.297,0-8.828-3.531-8.828-8.828l0,0c0-5.297,3.531-8.828,8.828-8.828   h44.138c5.297,0,8.828,3.531,8.828,8.828l0,0C132.75,199.503,129.219,203.034,123.923,203.034z" style="fill:#7E3B04;"/><path data-cppathid="10015" d="M132.75,247.172H79.785c-5.297,0-8.828-3.531-8.828-8.828l0,0c0-5.297,3.531-8.828,8.828-8.828   h52.966c5.297,0,8.828,3.531,8.828,8.828l0,0C141.578,243.641,138.047,247.172,132.75,247.172z" style="fill:#7E3B04;"/><path data-cppathid="10016" d="M150.406,150.069L150.406,150.069c-3.531-3.531-3.531-8.828,0-12.359l93.572-93.572   c3.531-3.531,8.828-3.531,12.359,0l0,0c3.531,3.531,3.531,8.828,0,12.359l-93.572,93.572   C159.233,153.6,153.937,153.6,150.406,150.069z" style="fill:#7E3B04;"/></g><g/><g/><g/><g/><g/><g/><g/><g/><g/><g/><g/><g/><g/><g/><g/></svg>