<?xml version="1.0" encoding="UTF-8"?>
<svg xmlns="http://www.w3.org/2000/svg" onmouseup="{ if(window.parent.document.onmouseup) window.parent.document.onmouseup(arguments[0]);}" width="512" viewBox="0 0 497 497" height="512" enable-background="new 0 0 497 497" id="Capa_1"><g><g><path data-cppathid="10000" fill="#b5dbff" d="m16.567 397.6v66.267c0 18.299 14.834 33.133 33.133 33.133h397.6c18.299 0 33.133-14.834 33.133-33.133v-66.267z"/><path data-cppathid="10001" fill="#97d0ff" d="m457.433 397.6v66.268c0 18.298-14.834 33.132-33.132 33.132h23c18.299 0 33.133-14.834 33.133-33.132v-66.268z"/><path data-cppathid="10002" fill="#edf5ff" d="m16.567 132.533v298.2c0 18.298 14.834 33.132 33.132 33.132h397.601c18.299 0 33.133-14.834 33.133-33.132v-298.2z"/><path data-cppathid="10003" fill="#d5e8fe" d="m457.433 132.533v298.2c0 18.298-14.834 33.132-33.133 33.132h23c18.299 0 33.133-14.834 33.133-33.132v-298.2z"/><path data-cppathid="10004" fill="#ff435b" d="m480.433 149.1v-82.834c0-18.299-14.834-33.132-33.133-33.132h-397.6c-18.299 0-33.132 14.834-33.132 33.132v82.834z"/><g><path data-cppathid="10005" fill="#e3374e" d="m115.967 73.767h-16.567c-4.142 0-7.5-3.358-7.5-7.5s3.358-7.5 7.5-7.5h16.567c4.142 0 7.5 3.358 7.5 7.5s-3.358 7.5-7.5 7.5z"/></g><g><path data-cppathid="10006" fill="#e3374e" d="m165.666 73.767h-16.566c-4.142 0-7.5-3.358-7.5-7.5s3.358-7.5 7.5-7.5h16.566c4.142 0 7.5 3.358 7.5 7.5s-3.357 7.5-7.5 7.5z"/></g><g><path data-cppathid="10007" fill="#e3374e" d="m347.9 73.767h-16.566c-4.142 0-7.5-3.358-7.5-7.5s3.358-7.5 7.5-7.5h16.566c4.142 0 7.5 3.358 7.5 7.5s-3.358 7.5-7.5 7.5z"/></g><g><path data-cppathid="10008" fill="#e3374e" d="m397.6 73.767h-16.567c-4.142 0-7.5-3.358-7.5-7.5s3.358-7.5 7.5-7.5h16.567c4.142 0 7.5 3.358 7.5 7.5s-3.358 7.5-7.5 7.5z"/></g><path data-cppathid="10009" fill="#596c76" d="m115.967 66.267c0 9.149 7.417 16.567 16.567 16.567s16.567-7.417 16.567-16.567v-49.7c-.001-9.15-7.418-16.567-16.568-16.567s-16.567 7.417-16.567 16.567v49.7z"/><path data-cppathid="10010" fill="#596c76" d="m347.9 66.267c0 9.149 7.417 16.567 16.567 16.567s16.567-7.417 16.567-16.567v-49.7c0-9.15-7.417-16.567-16.567-16.567s-16.567 7.417-16.567 16.567z"/><g fill="#e3374e"><path data-cppathid="10011" d="m447.3 33.133h-23c18.299 0 33.133 14.834 33.133 33.132v82.835h23v-82.834c0-18.299-14.834-33.133-33.133-33.133z"/><path data-cppathid="10012" d="m16.567 108.467h463.866v15h-463.866z"/></g></g><g fill="#596c76"><path data-cppathid="10013" d="m211.986 306.483c12.256-11.355 19.947-27.572 19.947-45.558 0-34.256-27.869-62.125-62.125-62.125s-62.125 27.869-62.125 62.125c0 9.15 7.417 16.567 16.567 16.567 9.149 0 16.567-7.417 16.567-16.567 0-15.986 13.005-28.992 28.992-28.992 15.986 0 28.992 13.005 28.992 28.992s-13.005 28.992-28.992 28.992c-9.149 0-16.567 7.417-16.567 16.567s7.417 16.567 16.567 16.567c15.986 0 28.992 13.005 28.992 28.992 0 15.986-13.005 28.992-28.992 28.992-15.986 0-28.992-13.005-28.992-28.992 0-9.15-7.417-16.567-16.567-16.567-9.149 0-16.567 7.417-16.567 16.567 0 34.256 27.869 62.125 62.125 62.125s62.125-27.869 62.125-62.125c0-17.987-7.69-34.204-19.947-45.56z"/><path data-cppathid="10014" d="m327.192 414.167c-34.256 0-62.125-27.869-62.125-62.125v-91.117c0-34.256 27.869-62.125 62.125-62.125s62.125 27.869 62.125 62.125v91.117c0 34.255-27.87 62.125-62.125 62.125zm0-182.234c-15.986 0-28.992 13.005-28.992 28.992v91.117c0 15.986 13.005 28.992 28.992 28.992 15.986 0 28.992-13.005 28.992-28.992v-91.117c-.001-15.986-13.006-28.992-28.992-28.992z"/></g></g></svg>