<?xml version="1.0" encoding="UTF-8"?>
<svg xmlns="http://www.w3.org/2000/svg" onmouseup="{ if(window.parent.document.onmouseup) window.parent.document.onmouseup(arguments[0]);}" width="512" viewBox="0 0 512 512" height="512" enable-background="new 0 0 512 512" id="Capa_1"><g><path data-cppathid="10000" fill="#86e4a9" d="m148.277 104.042-89.753-89.752h-58.524v184.76l30.84 30.84z"/><path data-cppathid="10001" fill="#c83c50" d="m363.723 104.042 89.753-89.752h58.524v184.76l-30.84 30.84z"/><g><g><path data-cppathid="10002" fill="#ffbeaa" d="m248.42 142.001c-49.78-49.78-130.488-49.78-180.268 0-49.78 49.78-49.78 130.488 0 180.268l175.441 175.441 34.461-34.461 4.516-16.697 31.719 10.506 23.854-23.854 3.744-17.469 32.491 11.278 23.854-23.854.805-20.408 35.43 14.217 34.461-34.461-32.66-32.66-64.664-84.664-70.537-50.537z"/><g fill="#faa68e"><path data-cppathid="10003" d="m301.067 194.648-41.586 41.586c-12.445 12.445-32.622 12.445-45.067 0l-22.533-22.534 71.671-71.671c49.78-49.78 130.488-49.78 180.268 0 49.78 49.78 49.78 130.489 0 180.268l-7.552 7.552z"/><path data-cppathid="10004" d="m208.932 351.702-21.213 21.213 90.334 90.335 10.607-10.607 15.022 15.023 10.607-10.607z"/></g></g></g><g fill="#faa68e"><path data-cppathid="10005" d="m253.999 306.635-21.213 21.213 105.357 105.357 10.606-10.606 15.022 15.022 10.607-10.606z"/><path data-cppathid="10006" d="m299.066 261.569-21.212 21.212 120.378 120.379 10.607-10.606 15.022 15.022 10.607-10.606z"/></g></g></svg>