<?xml version="1.0" encoding="UTF-8"?>
<svg xmlns="http://www.w3.org/2000/svg" onmouseup="{ if(window.parent.document.onmouseup) window.parent.document.onmouseup(arguments[0]);}" height="512" width="512" viewBox="0 0 512 512" data-name="Layer 1" id="Layer_1"><title/><path data-cppathid="10000" d="M428.871,298.681l-2.144,1.157c-9.331-11.2-25.4-15.524-37.645-9.315l-.134.07-5.279,2.844a41.281,41.281,0,0,0-47.16-4.182l-29.074,15.809h-38.7a55.781,55.781,0,0,1-24.142-5.531l-5.331-2.578a91.651,91.651,0,0,0-95.392,9.316c-.131.1-.259.2-.382.312l-12.87,11.458a44.427,44.427,0,0,1-16.572,9.289l-7.254-23.791a6,6,0,0,0-5.739-4.25H38.806a6,6,0,0,0-5.956,6.726L53.6,476.147a6,6,0,0,0,5.956,5.273h93.365a6,6,0,0,0,5.74-7.75l-12.225-40.1L184.5,409.51a22.8,22.8,0,0,1,16.616-2.148c.124.032.249.058.375.082l77.705,14.308a100.766,100.766,0,0,0,62.264-8.791,6.033,6.033,0,0,0,.733-.43l134.4-92.281a6,6,0,0,0,1.744-8.041A37.094,37.094,0,0,0,428.871,298.681Zm-34.3,2.515c6.9-3.454,15.573-.691,21.2,4.553l-50.719,27.362-2.78,1.466a44.389,44.389,0,0,0-6.785-12.323Zm-52.257-1.437.142-.079a29.268,29.268,0,0,1,29.458.093L346.429,313.5a44.255,44.255,0,0,0-15.993-7.287ZM64.866,469.42,45.582,311.289H96.605L144.816,469.42Zm270.889-67.027a88.69,88.69,0,0,1-54.407,7.554L203.84,395.675a34.755,34.755,0,0,0-25.335,3.435c-.093.053-.186.108-.277.165L142.8,421.67l-25.258-82.846A56.467,56.467,0,0,0,138.594,327l12.682-11.291a79.71,79.71,0,0,1,82.758-7.956l5.33,2.578a67.832,67.832,0,0,0,29.367,6.729h51.693a32.49,32.49,0,0,1,31.817,26.128l-37.206-1.683a224.6,224.6,0,0,0-40.812,1.885,6,6,0,0,0,1.646,11.887,212.445,212.445,0,0,1,38.624-1.784l44.092,2c.091,0,.181.006.271.006a6,6,0,0,0,6-6c0-.9-.034-1.787-.087-2.672L370.7,343.7l63.872-34.457a25.111,25.111,0,0,1,30.051,4.67Z"/><path data-cppathid="10001" d="M82.9,445.653A18.449,18.449,0,1,0,101.344,427.2,18.469,18.469,0,0,0,82.9,445.653Zm18.448-6.449a6.449,6.449,0,1,1-6.448,6.449A6.456,6.456,0,0,1,101.344,439.2Z"/><path data-cppathid="10002" d="M256,261.42a106,106,0,1,0-106-106A106.12,106.12,0,0,0,256,261.42Zm0-200a94,94,0,1,1-94,94A94.106,94.106,0,0,1,256,61.42Z"/><path data-cppathid="10003" d="M242.711,155.039h-.224l-17.786-.191h-.065a6,6,0,0,0-4.167,10.317l44,42.483a6,6,0,0,0,8.335-8.633l-33.15-32,2.7.029a32.673,32.673,0,0,0,32.391-26.323l12.264.131h.066a6,6,0,0,0,.063-12l-12.257-.131a32.319,32.319,0,0,0-6.654-14.742l19.068.2h.066a6,6,0,0,0,.063-12l-44.369-.476-17.786-.191a6,6,0,1,0-.128,12l17.785.191a20.7,20.7,0,0,1,19.63,14.881l-37.573-.4h-.066a6,6,0,0,0-.063,12l37.561.4A20.7,20.7,0,0,1,242.711,155.039Z"/><path data-cppathid="10004" d="M403.35,98.249a6,6,0,0,0-6,6v10a6,6,0,1,0,12,0v-10A6,6,0,0,0,403.35,98.249Z"/><path data-cppathid="10005" d="M403.35,128.249a6,6,0,0,0-6,6v10a6,6,0,1,0,12,0v-10A6,6,0,0,0,403.35,128.249Z"/><path data-cppathid="10006" d="M383.35,118.249a6,6,0,0,0,0,12h10a6,6,0,0,0,0-12Z"/><path data-cppathid="10007" d="M423.35,130.249a6,6,0,0,0,0-12h-10a6,6,0,0,0,0,12Z"/><path data-cppathid="10008" d="M140.212,30.58a6,6,0,0,0-6,6v10a6,6,0,0,0,12,0v-10A6,6,0,0,0,140.212,30.58Z"/><path data-cppathid="10009" d="M140.212,60.58a6,6,0,0,0-6,6v10a6,6,0,0,0,12,0v-10A6,6,0,0,0,140.212,60.58Z"/><path data-cppathid="10010" d="M120.212,50.58a6,6,0,0,0,0,12h10a6,6,0,0,0,0-12Z"/><path data-cppathid="10011" d="M160.212,50.58h-10a6,6,0,0,0,0,12h10a6,6,0,0,0,0-12Z"/></svg>