<?xml version="1.0" encoding="UTF-8"?>
<svg xmlns="http://www.w3.org/2000/svg" onmouseup="{ if(window.parent.document.onmouseup) window.parent.document.onmouseup(arguments[0]);}" data-name="Layer 1" width="512" viewBox="0 0 512 512" height="512" id="Layer_1"><path data-cppathid="10000" fill="#8baf46" d="m504 512v-33.805l-56-126.195h-384l-56 120v40"/><path data-cppathid="10001" fill="#0e161c" d="m336 144 24-40-8-32h-192l-8 32 24 40z"/><path data-cppathid="10002" fill="#f7ac79" d="m200 264v88l56 56 56-56v-88z"/><path data-cppathid="10003" fill="#ea8e50" d="m200 329.347c52.244 18.922 94.943-7.19 112-20.387v-30.825h-112z"/><path data-cppathid="10004" fill="#f7ac79" d="m330.413 260.789-45.919 39.359a16 16 0 0 1 -10.413 3.852h-36.162a16 16 0 0 1 -10.413-3.852l-45.919-39.359a16 16 0 0 1 -5.587-12.148v-144.641c0-8.837 23.163-32 32-32h104c8.837 0 24 23.163 24 32v144.641a16 16 0 0 1 -5.587 12.148z"/><g opacity=".2"><path data-cppathid="10005" fill="#f9f2ed" d="m291.016 294.557-53.421-38.852a50.121 50.121 0 0 1 -20.607-42.389v-141.316h-8.988c-8.836 0-32 23.164-32 32v144.641a16 16 0 0 0 5.587 12.148l40.915 35.07 5 4.289a16 16 0 0 0 10.416 3.852h36.162a16 16 0 0 0 10.412-3.851z"/></g><path data-cppathid="10006" fill="#ef9a60" d="m176 216-24-24v-48l24 8z"/><path data-cppathid="10007" fill="#ef9a60" d="m336 216 24-16v-56l-24 8z"/><path data-cppathid="10008" fill="#1d2b38" d="m352 72h-192l1.953-34.079c-1.953-13.921 2.987-33.184 14.047-29.921 8.992 2.653 18.242 16 24 16l16-16s32 16 48 16 64 0 88 48z"/><g opacity=".2"><path data-cppathid="10009" fill="#f9f2ed" d="m8 472c20.241-8.384 40.86-26.227 59.316-44.684 25.857-25.857 39.057-47.956 44.684-75.316h-48z"/></g><path data-cppathid="10010" d="m234.343 133.657 11.314-11.313-8-8a8 8 0 0 0 -5.657-2.344h-32v16h28.687z"/><path data-cppathid="10011" d="m283.313 128h28.687v-16h-32a8 8 0 0 0 -5.657 2.343l-8 8 11.314 11.313z"/><path data-cppathid="10012" d="m511.313 474.949-56-126.194a8 8 0 0 0 -7.313-4.755h-128v-63.749l15.619-13.387a23.972 23.972 0 0 0 8.381-18.223v-28.36l20.438-13.625a8 8 0 0 0 3.562-6.656v-56a8 8 0 0 0 -10.53-7.589l-9.482 3.161 18.873-31.455a8 8 0 0 0 .9-6.057l-8-32h-.013a7.977 7.977 0 0 0 -.593-1.64c-26.211-52.42-78.103-52.42-95.155-52.42-11.553 0-35.984-10.94-44.424-15.156a8 8 0 0 0 -9.233 1.5l-11.974 11.973c-1.247-1.011-2.644-2.244-3.741-3.212-4.745-4.189-10.128-8.937-16.364-10.778a15.52 15.52 0 0 0 -14.964 3.235c-8.157 7.035-10.859 22.578-9.379 34.652l-1.866 32.581-7.816 31.265a8 8 0 0 0 .9 6.057l18.873 31.455-9.482-3.161a8 8 0 0 0 -10.53 7.589v48a8 8 0 0 0 2.343 5.657l21.657 21.657v29.327a23.974 23.974 0 0 0 8.381 18.222l15.619 13.388v63.749h-128a8 8 0 0 0 -7.249 4.617l-56 120a7.991 7.991 0 0 0 -.751 3.383v40h16v-38.225l53.095-113.775h127.591l53.657 53.657a8 8 0 0 0 11.314 0l53.657-53.657h127.486l53.2 119.89v32.11h16v-33.806a8.007 8.007 0 0 0 -.687-3.245zm-159.313-279.23-8 5.333v-43.286l8-2.667zm-6.246-115.719 5.681 22.726-7.435 12.392v-11.118c0-5.724-4.159-15.529-10.16-24zm-175.879-43.19c-1.475-10.516 1.895-19.655 3.86-21.137 2.839.838 6.979 4.491 10.3 7.427 5.191 4.577 10.088 8.9 15.965 8.9a8 8 0 0 0 5.657-2.343l11.991-11.991c10.287 4.786 32.537 14.334 46.352 14.334 14.571 0 50.918 0 73.89 32h-169.418l1.468-25.622a8.1 8.1 0 0 0 -.065-1.568zm-3.629 43.19h15.827c-5.662 5.813-14.073 15.823-14.073 24v11.118l-7.436-12.392zm-6.246 108.687v-33.587l8 2.667v38.92zm24 59.955v-144.442c1.208-5.839 18.36-22.992 24.2-24.2h103.457c1.354.53 5.267 3.587 9.906 10.432 4.518 6.668 6.421 12.126 6.437 13.568v144.641a7.994 7.994 0 0 1 -2.793 6.074l-45.921 39.36a8 8 0 0 1 -5.205 1.925h-36.162a8 8 0 0 1 -5.207-1.926l-45.919-39.358a7.994 7.994 0 0 1 -2.793-6.075zm72 148.045-48-48v-54.722l14.3 12.256a24.013 24.013 0 0 0 15.619 5.779h36.162a24.012 24.012 0 0 0 15.618-5.778l14.301-12.257v54.722z"/><path data-cppathid="10013" d="m208 144h16v16h-16z"/><path data-cppathid="10014" d="m288 144h16v16h-16z"/><path data-cppathid="10015" d="m285.657 237.657 8-8-11.314-11.313-5.656 5.656h-49.374l-5.656-5.657-11.314 11.313 8 8a8 8 0 0 0 5.657 2.344h56a8 8 0 0 0 5.657-2.343z"/><path data-cppathid="10016" d="m248 248h16v16h-16z"/><path data-cppathid="10017" d="m112 416h16v96h-16z"/><path data-cppathid="10018" d="m377 416h16v96h-16z"/><path data-cppathid="10019" d="m241.694 204.923a8 8 0 0 0 6.306 3.077h32v-16h-21.754l5.515-22.06a7.975 7.975 0 0 0 .239-1.94v-8h-16v7.015l-7.761 31.044a8 8 0 0 0 1.455 6.864z"/></svg>