<?xml version="1.0" encoding="UTF-8"?>
<svg xmlns="http://www.w3.org/2000/svg" onmouseup="{ if(window.parent.document.onmouseup) window.parent.document.onmouseup(arguments[0]);}" width="512" viewBox="0 0 512 512" height="512"><g id="flat"><path data-cppathid="10000" fill="#026ca2" d="m296 344 147.882 73.941a60 60 0 0 1 32.564 45.18l3.554 24.879h-448l3.554-24.879a60 60 0 0 1 32.564-45.18l147.882-73.941z"/><path data-cppathid="10001" fill="#cbcbcb" d="m216 344h80v144h-80z"/><path data-cppathid="10002" fill="#fdc9a6" d="m216 312v32l-8 24v8h96v-8l-8-24v-32z"/><path data-cppathid="10003" fill="#fdc9a6" d="m296 312v19.64c-.08.06-.17.11-.25.17a70.9 70.9 0 0 1 -79.75-.17v-19.64z"/><path data-cppathid="10004" fill="#e6af89" d="m296 312v19.64c-.08.06-.17.11-.25.17a70.9 70.9 0 0 1 -79.75-.17v-19.64z"/><path data-cppathid="10005" fill="#015078" d="m72 488v-32a8 8 0 0 1 16 0v32z"/><path data-cppathid="10006" fill="#015078" d="m424 488v-32a8 8 0 0 1 16 0v32z"/><path data-cppathid="10007" fill="#0296e5" d="m230.857 388.571 9.143 27.429h32l9.143-27.429-25.143-12.571z"/><path data-cppathid="10008" fill="#026ca2" d="m240 416-8 72h48l-8-72z"/><path data-cppathid="10009" fill="#55300b" d="m360.925 171.923 3.421-13.6a91.909 91.909 0 0 0 -19.565-82.485 84.136 84.136 0 0 0 -86.433-31.538c-5.306 1.236-10.592 2.465-15.636 3.637a76.04 76.04 0 0 0 -50.812 40.063h-2.124a43.754 43.754 0 0 0 -35 17.5 43.754 43.754 0 0 0 -8.311 32.44l5.435 38.06 2.913 24h197.187l6.585-20.007q1.315-3.993 2.34-8.07z"/><path data-cppathid="10010" fill="#fdc9a6" d="m256 328a70.9 70.9 0 0 1 -65.827-44.567 198.156 198.156 0 0 1 -14.173-73.596v-57.837l24-40.73a136.076 136.076 0 0 0 97.087 40.73h38.913v57.837a198.156 198.156 0 0 1 -14.173 73.6 70.9 70.9 0 0 1 -65.827 44.563z"/><g fill="#55300b"><path data-cppathid="10011" d="m304 184h-24a8 8 0 0 1 0-16h24a8 8 0 0 1 0 16z"/><circle data-cppathid="10012" r="10" cy="202" cx="290"/><path data-cppathid="10013" d="m232 184h-24a8 8 0 0 1 0-16h24a8 8 0 0 1 0 16z"/><circle data-cppathid="10014" r="10" cy="202" cx="222"/></g><path data-cppathid="10015" fill="#e6af89" d="m272 280h-32a8 8 0 0 1 0-16h32a8 8 0 0 1 0 16z"/><path data-cppathid="10016" fill="#e6af89" d="m264 248h-16a8 8 0 0 1 -8-8v-24a8 8 0 0 1 16 0v16h8a8 8 0 0 1 0 16z"/><path data-cppathid="10017" fill="#fdc9a6" d="m176 176h-11.056a20.944 20.944 0 0 0 -20.944 20.944v14.112a20.944 20.944 0 0 0 2.211 9.366 20.944 20.944 0 0 0 18.733 11.578h14.056z"/><path data-cppathid="10018" fill="#fdc9a6" d="m336 176h11.056a20.944 20.944 0 0 1 20.944 20.944v14.112a20.944 20.944 0 0 1 -2.211 9.366 20.944 20.944 0 0 1 -18.733 11.578h-14.056z"/><path data-cppathid="10019" fill="#ebebeb" d="m216 344 40 32-48 24v-32z"/><path data-cppathid="10020" fill="#ebebeb" d="m296 344-40 32 48 24v-32z"/><path data-cppathid="10021" fill="#0296e5" d="m216 488h-40l-24-72 64-72z"/><path data-cppathid="10022" fill="#0296e5" d="m296 488h40l24-72-64-72z"/></g></svg>