<?xml version="1.0" encoding="UTF-8"?>
<svg xmlns="http://www.w3.org/2000/svg" onmouseup="{ if(window.parent.document.onmouseup) window.parent.document.onmouseup(arguments[0]);}" width="512" viewBox="0 0 497 497" height="512" enable-background="new 0 0 497 497" id="Capa_1"><g><path data-cppathid="10000" fill="#fac75a" d="m120.5 0 75.5 120.5-75.5 120.5c66.55 0 120.5-53.95 120.5-120.5s-53.95-120.5-120.5-120.5z"/><path data-cppathid="10001" fill="#fce06f" d="m211 120.5c0-66.55-40.518-120.5-90.5-120.5-66.55 0-120.5 53.95-120.5 120.5s53.95 120.5 120.5 120.5c49.982 0 90.5-53.95 90.5-120.5zm-90.5 60.5c-33.413 0-60.5-27.087-60.5-60.5s27.087-60.5 60.5-60.5 60.5 27.087 60.5 60.5-27.087 60.5-60.5 60.5z"/><path data-cppathid="10002" fill="#fac75a" d="m376.5 256 75.5 120.5-75.5 120.5c66.55 0 120.5-53.95 120.5-120.5s-53.95-120.5-120.5-120.5z"/><path data-cppathid="10003" fill="#fce06f" d="m467 376.5c0-66.55-40.518-120.5-90.5-120.5-66.55 0-120.5 53.95-120.5 120.5s53.95 120.5 120.5 120.5c49.982 0 90.5-53.95 90.5-120.5zm-90.5 60.5c-33.413 0-60.5-27.087-60.5-60.5s27.087-60.5 60.5-60.5 60.5 27.087 60.5 60.5-27.087 60.5-60.5 60.5z"/><path data-cppathid="10004" fill="#fac75a" d="m488.213 8.787-31.82 10.607-437 437-10.607 31.82c11.716 11.716 30.711 11.716 42.426 0l437-437c11.717-11.716 11.717-30.712.001-42.427z"/><path data-cppathid="10005" fill="#fce06f" d="m445.787 8.787-437 437c-11.716 11.716-11.716 30.711 0 42.426l479.426-479.426c-11.716-11.716-30.71-11.716-42.426 0z"/></g></svg>