<?xml version="1.0" encoding="UTF-8"?>
<svg xmlns="http://www.w3.org/2000/svg" onmouseup="{ if(window.parent.document.onmouseup) window.parent.document.onmouseup(arguments[0]);}" width="512" viewBox="0 0 256 256" height="512"><path data-cppathid="10000" fill="#ff9c1a" d="m142 217v13l25-2v-13z"/><path data-cppathid="10001" fill="#39bdbd" d="m142 217v13l25-2v-13z"/><path data-cppathid="10002" fill="#ff9c1a" d="m37 214v13l16 13v-13z"/><path data-cppathid="10003" fill="#39bdbd" d="m37 214v13l16 13v-13z"/><path data-cppathid="10004" fill="#ff9c1a" d="m19 121v13l9 23v-13z"/><path data-cppathid="10005" fill="#00537d" d="m19 121v13l9 23v-13z"/><path data-cppathid="10006" fill="#ff9c1a" d="m61 148v13l19-10v-13z"/><path data-cppathid="10007" fill="#00537d" d="m61 148v13l19-10v-13z"/><path data-cppathid="10008" fill="#ff9c1a" d="m197 162v13l17 10v-13z"/><path data-cppathid="10009" fill="#39bdbd" d="m197 162v13l17 10v-13z"/><path data-cppathid="10010" fill="#ff9c1a" d="m40 67v13l22.15 15.03 5.85-9.03z"/><path data-cppathid="10011" fill="#00537d" d="m40 67v13l22.15 15.03 5.85-9.03z"/><path data-cppathid="10012" fill="#ff9c1a" d="m200.4 35.32 2.6-3.32v-13l-11 14z"/><path data-cppathid="10013" fill="#00537d" d="m200.4 35.32 2.6-3.32v-13l-11 14z"/><path data-cppathid="10014" fill="#ff9c1a" d="m221.13 77.88 8.87-8.88v-13l-17 17z"/><path data-cppathid="10015" fill="#00537d" d="m221.13 77.88 8.87-8.88v-13l-17 17z"/><path data-cppathid="10016" fill="#ff9c1a" d="m214 185 20-17v-13l-20 17z"/><path data-cppathid="10017" fill="#00537d" d="m214 185 20-17v-13l-20 17z"/><path data-cppathid="10018" fill="#ff9c1a" d="m102 171v13l4.02 8.03 4.98-3.03z"/><path data-cppathid="10019" fill="#00537d" d="m102 171v13l4.02 8.03 4.98-3.03z"/><path data-cppathid="10020" fill="#ff9c1a" d="m244 123-20 12 5 10 15-9z"/><path data-cppathid="10021" fill="#00537d" d="m244 123-20 12 5 10 15-9z"/><path data-cppathid="10022" fill="#ff9c1a" d="m107 243v13l35-26v-13z"/><path data-cppathid="10023" fill="#00537d" d="m107 243v13l35-26v-13z"/><path data-cppathid="10024" fill="#ff9c1a" d="m53 227h34v13h-34z"/><path data-cppathid="10025" fill="#00537d" d="m53 227h34v13h-34z"/><path data-cppathid="10026" fill="#ff9c1a" d="m178 180-11 35v13l11-35 19-18v-13z"/><path data-cppathid="10027" fill="#00537d" d="m178 180-11 35v13l11-35 19-18v-13z"/><path data-cppathid="10028" fill="#ff9c1a" d="m87 227v13l20 16v-13z"/><path data-cppathid="10029" fill="#39bdbd" d="m87 227v13l20 16v-13z"/><path data-cppathid="10030" fill="#39bdbd" d="m80 138v13l27.21 13.99 7.79-8.99z"/><path data-cppathid="10031" fill="#ff9c1a" d="m28 144v13l33 4v-13z"/><path data-cppathid="10032" fill="#39bdbd" d="m28 144v13l33 4v-13z"/><path data-cppathid="10033" fill="#d9e021" d="m244 123-11-38-20-12 17-17-9-15-29-8 11-14-22-13-40 13-10 18-26-6-24 27-17-8-24 17 28 19-11 17-23 4-15 14 9 23 33 4 19-10 35 18-13 15 9 18-23 14-31-6-20 17 16 13h34l20 16 35-26 25-2 11-35 19-18 17 10 20-17-10-20z"/><path data-cppathid="10034" fill="#ff9c1a" d="m244 123-11-38-20-12 17-17-9-15-29-8 11-14-22-13-40 13-10 18-26-6-24 27-17-8-24 17 28 19-11 17-23 4-15 14 9 23 33 4 19-10 35 18-13 15 9 18-23 14-31-6-20 17 16 13h34l20 16 35-26 25-2 11-35 19-18 17 10 20-17-10-20z"/><ellipse data-cppathid="10035" ry="32" rx="50" fill="#e64e17" cy="119" cx="146.5"/><ellipse data-cppathid="10036" ry="25" rx="40" fill="#ecffd7" cy="118" cx="146.5"/><ellipse data-cppathid="10037" ry="18.5" rx="30" fill="#e64e17" cy="117.5" cx="146.5"/><ellipse data-cppathid="10038" ry="12" rx="20" fill="#ecffd7" cy="117" cx="146.5"/><path data-cppathid="10039" fill="#00537d" d="m155 117v-112l-8 5v112z"/><path data-cppathid="10040" fill="#e64e17" d="m147 10-8-5v112l8 5z"/><path data-cppathid="10041" fill="#39bdbd" d="m147 23v50l67 39v-52z"/><path data-cppathid="10042" fill="#48d7d9" d="m147 23 8-4 66 37-7 4z"/><path data-cppathid="10043" fill="#00537d" d="m221 56v52l-7 4v-52z"/><path data-cppathid="10044" fill="#ecffd7" d="m196 72-8-5v-11l-17-10v12l-8-5v21l12 6.91v-10.91l7 4v10.94l14 8.06z"/><path data-cppathid="10045" fill="#ff9c1a" d="m139 5 8-5 8 5-8 5z"/></svg>