<?xml version="1.0" encoding="UTF-8"?>
<svg xmlns="http://www.w3.org/2000/svg" onmouseup="{ if(window.parent.document.onmouseup) window.parent.document.onmouseup(arguments[0]);}" viewBox="0 0 100 100" height="100" width="100" xmlns:xlink="http://www.w3.org/1999/xlink"><g><g style="fill:#FFFFFF" transform="translate(50 50) scale(0.69 0.69) rotate(0) translate(-50 -50)"><svg xml:space="preserve" style="enable-background:new -949 951 100 100;" viewBox="-949 951 100 100" y="0px" x="0px" version="1.1" fill="#FFFFFF" xmlns:xlink="http://www.w3.org/1999/xlink" xmlns:graph="http://ns.adobe.com/Graphs/1.0/" xmlns:i="http://ns.adobe.com/AdobeIllustrator/10.0/" xmlns:x="http://ns.adobe.com/Extensibility/1.0/"><g><g i:extraneous="self"><g><path data-cppathid="10000" d="M-918.7,1015.1c-0.4-2.3-2.5-3.8-4.8-3.5l0,0c-1.2,0.2-2.1,1.4-1.9,2.6l5,30.9c0.2,1.2,1.4,2.1,2.6,1.9     c2.3-0.4,3.8-2.5,3.5-4.8L-918.7,1015.1z"/><path data-cppathid="10001" d="M-874.4,1011.6c-2.3-0.4-4.4,1.2-4.8,3.5l-4.4,27.1c-0.4,2.3,1.2,4.4,3.5,4.8c1.2,0.2,2.4-0.6,2.6-1.9l5-30.9     C-872.3,1013-873.1,1011.8-874.4,1011.6z"/><path data-cppathid="10002" d="M-851.8,1003.2c0-27.4-21.2-49.7-47.2-49.7c-26,0-47.2,22.3-47.2,49.7c0,6.2,1.1,12.2,3.1,17.8     c-1.9,3.3-2.8,7.2-2.1,11.2l0.3,2.1c1.5,9.2,10.1,15.4,19.3,14h0c1.6-0.3,2.6-1.7,2.4-3.3l-4.8-29.7c-0.3-1.6-1.7-2.6-3.3-2.4     c-2,0.3-3.8,1-5.4,1.9c-1-3.7-1.5-7.6-1.5-11.6c0-11.8,4.7-22.5,12.1-30.1c1,0.9,2.3,1.4,3.6,1.4c1.4,0,2.7-0.5,3.7-1.5     c5.3-5.3,12.3-7.5,19.5-7.5c6.8,0,13.4,1.9,18.6,6.6c2.1,1.9,5.3,1.8,7.3-0.2c8.2,7.6,13.3,18.8,13.3,31.3     c0,3.9-0.5,7.8-1.5,11.5c-1.6-0.9-3.4-1.5-5.3-1.8c-1.6-0.3-3.1,0.8-3.3,2.4l-4.8,29.7c-0.3,1.6,0.8,3.1,2.4,3.3     c9.2,1.5,17.8-4.8,19.3-14l0.3-2.1c0.7-4.1-0.2-8.1-2.2-11.4C-852.9,1015.2-851.8,1009.3-851.8,1003.2z"/></g></g></g></svg></g></g></svg>