<?xml version="1.0" encoding="UTF-8"?>
<svg xmlns="http://www.w3.org/2000/svg" onmouseup="{ if(window.parent.document.onmouseup) window.parent.document.onmouseup(arguments[0]);}" width="36" viewBox="0 0 36 36" id="S_Paste_18_N_2x" height="36" data-name="S_Paste_18_N@2x"><defs><style>
      .fill {
        fill: #6e6e6e;
      }

      
    </style></defs><path data-cppathid="10000" d="M28,6v5a1,1,0,0,1-1,1H9a1,1,0,0,1-1-1V6H5A1,1,0,0,0,4,7V33a1,1,0,0,0,1,1H31a1,1,0,0,0,1-1V7a1,1,0,0,0-1-1Z" class="fill"/><path data-cppathid="10001" d="M22,6V4a4,4,0,0,0-8,0V6H10v4H26V6ZM20,6H16V4a2,2,0,0,1,4,0Z" class="fill"/></svg>