<?xml version="1.0" encoding="UTF-8"?>
<svg xmlns="http://www.w3.org/2000/svg" onmouseup="{ if(window.parent.document.onmouseup) window.parent.document.onmouseup(arguments[0]);}" width="36" viewBox="0 0 36 36" id="S_CreditCard_18_N_2x" height="36" data-name="S_CreditCard_18_N@2x"><defs><style>
      .fill {
        fill: #6e6e6e;
      }

      
    </style></defs><path data-cppathid="10000" d="M2,32.512A1.488,1.488,0,0,0,3.488,34H30.266a1.488,1.488,0,0,0,1.488-1.488V30H2Z" class="fill"/><path data-cppathid="10001" d="M30.065,19.026C27.724,20.2,19.579,23.98,19.276,24.121a6.419,6.419,0,0,1-2.646.6,4.686,4.686,0,0,1-4.378-2.82,5.272,5.272,0,0,1,1.163-5.757H3.488A1.488,1.488,0,0,0,2,17.635v8.926H31.754v-8.73A8.22,8.22,0,0,1,30.065,19.026Z" class="fill"/><path data-cppathid="10002" d="M11.5,13.172s.265-1.214.791-3.135c.358-1.31,4.972-7.053,6.739-7.642,1.743-.582,11.51-1.125,11.51-1.125L35,9.05s-3.936,6.15-6.266,7.315S17.98,21.442,17.98,21.442s-2.194,1.061-3.016-.761c-.625-1.385.788-2.662.788-2.662s3.218-2.232,4.461-3.211c.9-.713,1.861-2.133.586-3.408s-2.575-.012-3.251.574-1.338,1.2-1.338,1.2Z" class="fill"/></svg>