<?xml version="1.0" encoding="UTF-8"?>
<svg xmlns="http://www.w3.org/2000/svg" onmouseup="{ if(window.parent.document.onmouseup) window.parent.document.onmouseup(arguments[0]);}" width="36" viewBox="0 0 36 36" id="S_Dropdown_18_N_2x" height="36" data-name="S_Dropdown_18_N@2x"><defs><style>
      .fill {
        fill: #6e6e6e;
      }

      
    </style></defs><path data-cppathid="10000" d="M30.5,2H3.5A1.5,1.5,0,0,0,2,3.5V8.463a1.5,1.5,0,0,0,1.5,1.5h27a1.5,1.5,0,0,0,1.5-1.5V3.5A1.5,1.5,0,0,0,30.5,2ZM25,8.764,21.28,4.726a.432.432,0,0,1,.332-.708H28.4a.432.432,0,0,1,.332.708Z" class="fill"/><path data-cppathid="10001" d="M30.5,12H3.5A1.5,1.5,0,0,0,2,13.5v19A1.5,1.5,0,0,0,3.5,34h27A1.5,1.5,0,0,0,32,32.5v-19A1.5,1.5,0,0,0,30.5,12ZM6,15.75A.75.75,0,0,1,6.75,15h20.5a.75.75,0,0,1,.75.75v1.5a.75.75,0,0,1-.75.75H6.75A.75.75,0,0,1,6,17.25Zm22,13.5a.75.75,0,0,1-.75.75H6.75A.75.75,0,0,1,6,29.25v-1.5A.75.75,0,0,1,6.75,27h20.5a.75.75,0,0,1,.75.75Zm-2-6a.75.75,0,0,1-.75.75H6.75A.75.75,0,0,1,6,23.25v-1.5A.75.75,0,0,1,6.75,21h18.5a.75.75,0,0,1,.75.75Z" class="fill"/></svg>