<?xml version="1.0" encoding="UTF-8"?>
<svg xmlns="http://www.w3.org/2000/svg" onmouseup="{ if(window.parent.document.onmouseup) window.parent.document.onmouseup(arguments[0]);}" width="512" viewBox="0 0 510 510" height="512" enable-background="new 0 0 510 510" id="Layer_1"><g><path data-cppathid="10000" d="m395 300 80-60-80-60h-54.189l-10-30 10-30h54.189l80-60-80-60h-235.811l20 60-10 30h-54.189l-80 60 80 60h54.189l10 30-20 60h50.811v95.076c-6.824-3.251-14.452-5.076-22.5-5.076-22.419 0-41.592 14.13-49.104 33.948-5.621-2.529-11.843-3.948-18.396-3.948-24.813 0-45 20.187-45 45v15h-30v30h420v-30h-90v-37.5c0-28.949-23.552-52.5-52.5-52.5-8.048 0-15.677 1.825-22.5 5.076v-95.076zm-194.189-270h184.189l40 30-40 30c-22.881 0-164.158 0-184.189 0l10-30zm-75.811 150-40-30 40-30h184.189l-10 30 10 30c-20.021 0-161.306 0-184.189 0zm75.811 90 10-30-10-30h184.189l40 30-40 30c-19.211 0-164.852 0-184.189 0zm-95.811 210v-15c0-8.271 6.729-15 15-15s15 6.729 15 15v15zm60 0c0-13.006 0-24.453 0-37.5 0-12.407 10.094-22.5 22.5-22.5s22.5 10.093 22.5 22.5v37.5zm157.5-60c12.406 0 22.5 10.093 22.5 22.5v37.5h-45v-37.5c0-12.407 10.094-22.5 22.5-22.5zm-52.5 60h-30c0-18.267 0-160.82 0-180h30z"/></g></svg>