<?xml version="1.0" encoding="UTF-8"?>
<svg xmlns="http://www.w3.org/2000/svg" onmouseup="{ if(window.parent.document.onmouseup) window.parent.document.onmouseup(arguments[0]);}" xml:space="preserve" style="enable-background:new 0 0 512 512;" viewBox="0 0 512 512" y="0px" x="0px" id="Capa_1" version="1.1" xmlns:xlink="http://www.w3.org/1999/xlink"><path data-cppathid="10000" d="M468.15,112.685c-1.625-2.4-4.193-3.997-7.066-4.389c-2.871-0.392-5.775,0.456-7.984,2.333  L303.578,237.661c-2.81,2.387-4.113,6.106-3.407,9.725c0.706,3.62,3.311,6.576,6.812,7.733l186.313,61.542  c1.043,0.345,2.123,0.515,3.199,0.515c1.766,0,3.522-0.459,5.085-1.358c2.516-1.447,4.296-3.897,4.895-6.736  c3.666-17.386,5.525-35.245,5.525-53.081C512,204.628,496.838,155.07,468.15,112.685z" style="fill:#E63950;"/><path data-cppathid="10001" d="M253.026,221.61c1.625,2.399,4.194,3.993,7.065,4.384c0.46,0.063,0.92,0.094,1.378,0.094  c2.404,0,4.749-0.851,6.604-2.426l163.21-138.661c2.21-1.878,3.516-4.608,3.592-7.506c0.077-2.899-1.086-5.693-3.194-7.683  C383.986,24.793,321.596,0.001,256,0.001c-41.578,0-82.882,10.215-119.447,29.539c-2.563,1.355-4.428,3.736-5.129,6.548  c-0.702,2.813-0.174,5.791,1.452,8.191L253.026,221.61z" style="fill:#009954;"/><path data-cppathid="10002" d="M482.578,348.569l-211.869-65.861c-12.524-3.893-23.504-11.997-30.917-22.817L105.006,63.15  c-1.634-2.386-4.205-3.966-7.072-4.346c-2.871-0.38-5.761,0.474-7.961,2.351C33.165,109.605,0.372,180.153,0.003,254.71  c-0.34,68.786,26.024,133.389,74.235,181.91c48.201,48.51,112.617,75.281,181.382,75.38c0.128,0,0.25,0,0.378,0  c49.908-0.001,98.273-14.37,139.874-41.563c40.629-26.558,72.77-63.862,92.948-107.879c1.222-2.666,1.237-5.729,0.042-8.407  C487.668,351.473,485.378,349.439,482.578,348.569z" style="fill:#D2D2EA;"/><path data-cppathid="10003" d="M256,0.001c-41.578,0-82.882,10.215-119.447,29.539c-2.563,1.355-4.428,3.736-5.129,6.548  c-0.702,2.813-0.174,5.791,1.452,8.191l120.15,177.331c0.791,1.168,1.806,2.145,2.971,2.885L256,0.001z" style="fill:#00F085;"/><path data-cppathid="10004" d="M255.999,275.752c-6.348-4.165-11.884-9.551-16.208-15.861L105.006,63.15  c-1.635-2.386-4.205-3.966-7.072-4.346c-2.871-0.38-5.761,0.474-7.961,2.351C33.165,109.605,0.372,180.153,0.003,254.71  c-0.34,68.786,26.024,133.389,74.235,181.91c48.201,48.51,112.617,75.281,181.382,75.38c0.128,0,0.25,0,0.378,0L255.999,275.752z" style="fill:#F5F5FD;"/><g/><g/><g/><g/><g/><g/><g/><g/><g/><g/><g/><g/><g/><g/><g/></svg>