<?xml version="1.0" encoding="UTF-8"?>
<svg xmlns="http://www.w3.org/2000/svg" onmouseup="{ if(window.parent.document.onmouseup) window.parent.document.onmouseup(arguments[0]);}" height="512" width="512" viewBox="0 0 512 512"><g id="outline"><path data-cppathid="10000" d="M405.637,146.38A23.957,23.957,0,0,0,401.869,120a23.953,23.953,0,0,0-3.248-35.013l6.354-19.09A29.11,29.11,0,0,0,361.966,31.92a12.951,12.951,0,0,1-16.154-1.852,47.667,47.667,0,0,0-67.624,0,12.95,12.95,0,0,1-16.152,1.853l-.307-.192A29.11,29.11,0,0,0,218.685,65.6l6.436,19.591a23.95,23.95,0,0,0-2.99,34.81,23.956,23.956,0,0,0-3.764,26.388C189.875,177.321,128,251.5,128,312c0,21.569,3.714,41.7,11.05,60.031L128,374.241V368a8,8,0,0,0-8-8H24a8,8,0,0,0-8,8V488a8,8,0,0,0,8,8h96a8,8,0,0,0,8-8V465.512l174.629,30.37A8.083,8.083,0,0,0,304,496h64a8,8,0,0,0,2.2-.308l56-16a8.01,8.01,0,0,0,3.46-2.035l27.03-27.029a24.939,24.939,0,0,0,.547-34.722C482.625,388.4,496,352.655,496,312c0-25.086-10.627-55.146-31.586-89.345C445.842,192.351,423.336,165.5,405.637,146.38ZM232,136a8.009,8.009,0,0,1,8-8H384a8,8,0,0,1,0,16H240A8.009,8.009,0,0,1,232,136Zm0-32a8.009,8.009,0,0,1,8-8H384a8,8,0,0,1,0,16H240A8.009,8.009,0,0,1,232,104Zm6.286-57.948a12.678,12.678,0,0,1,14.934-.774l.306.193a28.866,28.866,0,0,0,36-4.116,31.67,31.67,0,0,1,44.946,0,28.868,28.868,0,0,0,36,4.116,12.741,12.741,0,0,1,14.956.788,12.951,12.951,0,0,1,4.363,14.586L383.417,80H240.258l-6.372-19.4A12.956,12.956,0,0,1,238.286,46.052ZM112,480H32V376h80Zm333.372-40.687-25.563,25.564L366.88,480H304.69L128,449.271V390.559L200.792,376h74.1a13.108,13.108,0,0,1,1.447,26.135l-53.224,5.914a8,8,0,0,0-1.85,15.47l88,32A8.016,8.016,0,0,0,312,456h48a8.026,8.026,0,0,0,1.569-.155l40-8a8.005,8.005,0,0,0,4.092-2.193l13.315-13.336A28.148,28.148,0,0,1,439.029,424a8.97,8.97,0,0,1,6.343,15.313ZM384,248H240V237.952l72-21.6,72,21.6Zm16,16v16H224V264Zm-56,64V296h32v32Zm-16-32v32H296V296Zm-48,0v32H248V296Zm120,48v16H224V344Zm42.437,64.239a25.037,25.037,0,0,0-3.408-.239,44.044,44.044,0,0,0-31.376,13.012l-11.6,11.619L359.208,440h-45.8l-54.524-19.827,19.222-2.136A29.085,29.085,0,0,0,300.869,376H408a8,8,0,0,0,8-8V336a8,8,0,0,0-8-8H392V296h16a8,8,0,0,0,8-8V256a8,8,0,0,0-8-8h-8V232a8,8,0,0,0-5.7-7.663l-80-24a8.016,8.016,0,0,0-4.6,0l-80,24A8,8,0,0,0,224,232v16h-8a8,8,0,0,0-8,8v32a8,8,0,0,0,8,8h16v32H216a8,8,0,0,0-8,8v24h-8a8.026,8.026,0,0,0-1.569.155l-43.38,8.676C147.722,351.668,144,332.6,144,312c0-21.782,10.1-49.789,29.225-80.992,14.41-23.518,34.257-49.245,56.486-73.33A23.857,23.857,0,0,0,240,160H384a23.849,23.849,0,0,0,10.291-2.323c17.1,18.518,38.7,44.331,56.481,73.339C469.894,262.216,480,290.22,480,312,480,350.125,467.021,383.332,442.437,408.239Z"/></g></svg>