<?xml version="1.0" encoding="UTF-8"?>
<svg xmlns="http://www.w3.org/2000/svg" onmouseup="{ if(window.parent.document.onmouseup) window.parent.document.onmouseup(arguments[0]);}" width="512" viewBox="0 0 128 128" height="512"><rect data-cppathid="10000" y="9.565" x="34.987" width="66.026" rx="8" height="116.87" fill="#e6e7e8"/><path data-cppathid="10001" fill="#0089ef" d="m39.03 6.609h49.94a7 7 0 0 1 7 7v100.747a7.035 7.035 0 0 1 -7.035 7.035h-49.869a7.035 7.035 0 0 1 -7.035-7.035v-100.747a7 7 0 0 1 6.999-7z"/><path data-cppathid="10002" transform="matrix(0 1 -1 0 125.66 -2.34)" fill="#d4fbff" d="m19.831 29.691h88.338v63.939h-88.338z"/><path data-cppathid="10003" fill="#fff" d="m32.03 102.699h63.939v3.13h-63.939z"/><rect data-cppathid="10004" y="10.977" x="54.02" width="19.96" rx="1.026" height="2.368" fill="#6dc9f7"/><circle data-cppathid="10005" r="1.299" fill="#6dc9f7" cy="12.161" cx="78.716"/><rect data-cppathid="10006" y="110.072" x="55.373" width="17.253" rx="2.492" height="5.751" fill="#6dc9f7"/><g fill="#3a2c60"><path data-cppathid="10007" d="m51.761 48.909a1.435 1.435 0 0 0 -1.531-1.53 1.47 1.47 0 0 0 -1.1.417 1.523 1.523 0 0 0 -.408 1.113v6.94a3.728 3.728 0 0 1 -.775 2.535 3.244 3.244 0 0 1 -4.447.016 3.758 3.758 0 0 1 -.766-2.546v-6.94a1.523 1.523 0 0 0 -.408-1.113 1.47 1.47 0 0 0 -1.1-.417 1.437 1.437 0 0 0 -1.531 1.53v6.8a5.973 5.973 0 0 0 1.541 4.444 6.122 6.122 0 0 0 4.484 1.521 6.134 6.134 0 0 0 4.494-1.531 5.961 5.961 0 0 0 1.55-4.434z"/><path data-cppathid="10008" d="m66.376 50.719a5.833 5.833 0 0 0 -2.525-2.406 8.624 8.624 0 0 0 -3.937-.835h-4a1.316 1.316 0 0 0 -1.451 1.452v11.115a1.317 1.317 0 0 0 1.454 1.455h4a8.676 8.676 0 0 0 3.957-.835 5.755 5.755 0 0 0 2.515-2.416 7.731 7.731 0 0 0 .865-3.767 7.616 7.616 0 0 0 -.878-3.763zm-6.676 8.271h-2.132v-9.007h2.132q4.473 0 4.473 4.5-.004 4.507-4.473 4.507z"/><path data-cppathid="10009" d="m71.188 61.615a1.441 1.441 0 0 0 1.551-1.551v-11.155a1.5 1.5 0 0 0 -.418-1.113 1.749 1.749 0 0 0 -2.267 0 1.5 1.5 0 0 0 -.417 1.113v11.155a1.44 1.44 0 0 0 1.551 1.551z"/><path data-cppathid="10010" d="m87.433 50.719a5.835 5.835 0 0 0 -2.526-2.406 8.621 8.621 0 0 0 -3.937-.835h-4a1.315 1.315 0 0 0 -1.451 1.452v11.115a1.316 1.316 0 0 0 1.455 1.455h4a8.67 8.67 0 0 0 3.957-.835 5.757 5.757 0 0 0 2.516-2.416 7.742 7.742 0 0 0 .865-3.767 7.616 7.616 0 0 0 -.879-3.763zm-6.681 8.271h-2.128v-9.007h2.128q4.475 0 4.474 4.5 0 4.507-4.474 4.507z"/><path data-cppathid="10011" d="m39.692 65.246h3.881v15.375h-3.881z"/><path data-cppathid="10012" d="m70.76 65.246h3.881v15.375h-3.881z"/><path data-cppathid="10013" d="m52.564 65.246h4.813v15.375h-4.813z"/><path data-cppathid="10014" d="m83.494 65.246h4.813v15.375h-4.813z"/><path data-cppathid="10015" d="m46.419 65.246h2.199v15.375h-2.199z"/><path data-cppathid="10016" d="m62.215 65.246h2.199v15.375h-2.199z"/><path data-cppathid="10017" d="m67.927 65.246h1.849v15.375h-1.849z"/><path data-cppathid="10018" d="m79.853 65.246h1.849v15.375h-1.849z"/><path data-cppathid="10019" d="m49.782 65.246h1.499v15.375h-1.499z"/><path data-cppathid="10020" d="m58.851 65.246h1.499v15.375h-1.499z"/><path data-cppathid="10021" d="m65.578 65.246h1.187v15.375h-1.187z"/><path data-cppathid="10022" d="m75.614 65.246h2.254v15.375h-2.254z"/><path data-cppathid="10023" d="m88.97 5.608h-49.94a8.009 8.009 0 0 0 -8 8v100.784a8.009 8.009 0 0 0 8 8h49.94a8.009 8.009 0 0 0 8-8v-21.871a1 1 0 1 0 -2 0v12.308h-61.94v-86.338h61.94v56.117a1 1 0 0 0 2 0v-61a8.009 8.009 0 0 0 -8-8zm6 101.221v7.563a6.007 6.007 0 0 1 -6 6h-49.94a6.007 6.007 0 0 1 -6-6v-7.563zm-61.94-90.338v-2.883a6.007 6.007 0 0 1 6-6h49.94a6.007 6.007 0 0 1 6 6v2.883z"/><path data-cppathid="10024" d="m95.97 78.392a1 1 0 0 0 -1 1v7.782a1 1 0 0 0 2 0v-7.782a1 1 0 0 0 -1-1z"/></g></svg>