<?xml version="1.0" encoding="UTF-8"?>
<svg xmlns="http://www.w3.org/2000/svg" onmouseup="{ if(window.parent.document.onmouseup) window.parent.document.onmouseup(arguments[0]);}" width="512" viewBox="0 0 256 256" height="512"><path data-cppathid="10000" fill="#a58bc9" d="m86.145 163.456h-11.829a2.5 2.5 0 0 1 -2.5-2.5v-11.828a2.5 2.5 0 0 1 2.5-2.5h11.829a2.5 2.5 0 0 1 2.5 2.5v11.828a2.5 2.5 0 0 1 -2.5 2.5zm-9.329-5h6.829v-6.828h-6.829z"/><path data-cppathid="10001" fill="#a58bc9" d="m86.145 190.668h-11.829a2.5 2.5 0 0 1 -2.5-2.5v-11.828a2.5 2.5 0 0 1 2.5-2.5h11.829a2.5 2.5 0 0 1 2.5 2.5v11.828a2.5 2.5 0 0 1 -2.5 2.5zm-9.329-5h6.829v-6.828h-6.829z"/><path data-cppathid="10002" fill="#a58bc9" d="m86.145 217.881h-11.829a2.5 2.5 0 0 1 -2.5-2.5v-11.829a2.5 2.5 0 0 1 2.5-2.5h11.829a2.5 2.5 0 0 1 2.5 2.5v11.829a2.5 2.5 0 0 1 -2.5 2.5zm-9.329-5h6.829v-6.829h-6.829z"/><g fill="#846f75"><path data-cppathid="10003" d="m74.129 107.781a28.783 28.783 0 1 0 -28.782-28.781 28.816 28.816 0 0 0 28.782 28.781zm0-5a23.815 23.815 0 0 1 -23.663-21.407 28.837 28.837 0 0 0 23.663-16.948 28.843 28.843 0 0 0 23.664 16.948 23.816 23.816 0 0 1 -23.664 21.407zm23.632-26.434a23.824 23.824 0 0 1 -20.98-20.98 23.825 23.825 0 0 1 20.98 20.98zm-26.283-20.98a23.824 23.824 0 0 1 -20.978 20.98 23.823 23.823 0 0 1 20.978-20.98z"/><path data-cppathid="10004" d="m172.568 90.01a34.031 34.031 0 1 0 -34.03-34.031 34.07 34.07 0 0 0 34.03 34.031zm0-5a29.064 29.064 0 0 1 -28.924-26.64 34.093 34.093 0 0 0 28.924-21.139 34.1 34.1 0 0 0 28.925 21.139 29.064 29.064 0 0 1 -28.925 26.64zm28.907-31.655a29.07 29.07 0 0 1 -26.282-26.282 29.072 29.072 0 0 1 26.282 26.282zm-31.531-26.282a29.07 29.07 0 0 1 -26.282 26.282 29.072 29.072 0 0 1 26.282-26.282z"/><path data-cppathid="10005" d="m200.454 99.367h-55.77a30.532 30.532 0 0 0 -30.472 29.387h-53.993a2.5 2.5 0 0 0 -2.5 2.5v81.192h-27.673v-67.2a25.529 25.529 0 0 1 25.5-25.5h52.267a2.5 2.5 0 1 0 0-5h-52.267a30.535 30.535 0 0 0 -30.5 30.5v69.7a2.5 2.5 0 0 0 2.5 2.5h30.173v14.1a2.5 2.5 0 0 0 2.5 2.5h76.673a2.5 2.5 0 0 0 2.5-2.5v-100.3a2.5 2.5 0 0 0 -2.5-2.5h-17.68a25.528 25.528 0 0 1 25.472-24.387h55.77a25.529 25.529 0 0 1 25.5 25.5v82.579h-78.454a2.5 2.5 0 0 0 0 5h80.954a2.5 2.5 0 0 0 2.5-2.5v-85.071a30.536 30.536 0 0 0 -30.5-30.5zm-66.062 129.684h-71.673v-95.3h71.673z"/><path data-cppathid="10006" d="m168.648 63.43c-3.265 1.428-8.957 3.553-10.754 3.431a1.545 1.545 0 0 1 -1.4-1.034 2.5 2.5 0 0 0 -3.335-3.706 4.631 4.631 0 0 0 -1.428 5.225 6.533 6.533 0 0 0 5.949 4.511h.247c3.723 0 11.225-3.2 12.72-3.852a2.5 2.5 0 1 0 -2-4.58z"/><path data-cppathid="10007" d="m191.974 62.121a2.5 2.5 0 0 0 -3.335 3.706 1.546 1.546 0 0 1 -1.4 1.034c-1.8.117-7.39-1.961-10.755-3.431a2.5 2.5 0 0 0 -2 4.58c1.495.654 9 3.852 12.72 3.852h.248a6.531 6.531 0 0 0 5.948-4.511 4.629 4.629 0 0 0 -1.426-5.23z"/><path data-cppathid="10008" d="m98.555 157.542h25.866a2.5 2.5 0 1 0 0-5h-25.866a2.5 2.5 0 0 0 0 5z"/><path data-cppathid="10009" d="m98.555 184.754h25.866a2.5 2.5 0 1 0 0-5h-25.866a2.5 2.5 0 1 0 0 5z"/><path data-cppathid="10010" d="m98.555 211.966h25.866a2.5 2.5 0 0 0 0-5h-25.866a2.5 2.5 0 0 0 0 5z"/><path data-cppathid="10011" d="m175.487 198.136a28.367 28.367 0 1 0 -28.366-28.366 28.4 28.4 0 0 0 28.366 28.366zm0-51.733a23.367 23.367 0 1 1 -23.366 23.367 23.394 23.394 0 0 1 23.366-23.37z"/></g><path data-cppathid="10012" fill="#a58bc9" d="m173.832 181.163a2.5 2.5 0 0 1 -1.643-.615l-8.121-7.08a2.5 2.5 0 1 1 3.286-3.77l6.2 5.408 12.427-14.783a2.5 2.5 0 0 1 3.828 3.217l-14.066 16.731a2.5 2.5 0 0 1 -1.721.884c-.061.005-.122.008-.19.008z"/></svg>