<?xml version="1.0" encoding="UTF-8"?>
<svg xmlns="http://www.w3.org/2000/svg" onmouseup="{ if(window.parent.document.onmouseup) window.parent.document.onmouseup(arguments[0]);}" height="512" width="512" xml:space="preserve" style="enable-background:new 0 0 485.005 485.005;" viewBox="0 0 485.005 485.005" y="0px" x="0px" id="Layer_1" version="1.1" xmlns:xlink="http://www.w3.org/1999/xlink"><g><path data-cppathid="10000" d="M343.246,211.652c-0.11,0.42-2.3,8.61-6.03,18.35c-0.85,2.22-1.78,4.52-2.78,6.82   c-8.37,19.26-17.38,28.62-27.54,28.62c-19.94,0-26.74-16.83-35.35-38.14c-0.78-1.93-1.59-3.92-2.43-5.97   c-1.57-3.84,0.26-8.22,4.09-9.79c3.83-1.57,8.22,0.26,9.79,4.09c0.85,2.08,1.67,4.1,2.45,6.05c8.79,21.73,12.39,28.76,21.45,28.76   c1.45,0,6.76-3.5,13.72-19.46c0.73-1.68,1.42-3.36,2.06-5c3.77-9.58,6.05-18.09,6.08-18.19c1.07-4,5.18-6.38,9.17-5.32   C341.936,203.542,344.316,207.652,343.246,211.652z" style="fill:#BDD9E5;"/><path data-cppathid="10001" d="M260.786,266.082c0,0,0,142.69-16.62,218.92h-18.57c0,0-2.93-85.36-23.45-180.17h-15.64   c-20.53,94.81-23.46,180.17-23.46,180.17h-18.57c-16.61-76.23-16.61-218.92-16.61-218.92c0-70.37,26.38-121.2,26.38-121.2h20.53   l12.05,17.47l7.5,10.88l7.5-10.88l12.04-17.47h20.53C234.396,144.882,260.786,195.712,260.786,266.082z" style="fill:#E3F4FC;"/><path data-cppathid="10002" d="M201.826,162.352v112.21c0,4.14-3.36,7.5-7.5,7.5c-4.15,0-7.5-3.36-7.5-7.5v-112.21H201.826z" style="fill:#BDD9E5;"/><path data-cppathid="10003" d="M169.181,144.885c0,0-16.55,50.82-16.55,121.19c0,0,0,142.7,10.42,218.93h-18.57   c-16.61-76.23-16.61-218.93-16.61-218.93c0-70.37,26.38-121.19,26.38-121.19H169.181z" style="fill:#BDD9E5;"/><path data-cppathid="10004" d="M260.78,266.072c0,0,0,142.7-16.61,218.93H225.6c0,0-2.93-85.37-23.46-180.18h-15.64   c-20.52,94.81-23.45,180.18-23.45,180.18h-18.57c-16.62-76.23-16.62-218.93-16.62-218.93c8.24-1.17,16.51-2.13,24.78-2.86   C188.649,260.022,224.939,260.972,260.78,266.072z" style="fill:#34ABE0;"/><path data-cppathid="10005" d="M153.049,485.005h-8.569c-16.62-76.23-16.62-218.93-16.62-218.93c8.24-1.17,16.51-2.13,24.78-2.86   c-0.01,0.95-0.01,1.9-0.01,2.86C152.63,266.075,142.629,408.775,153.049,485.005z" style="fill:#1895B7;"/><path data-cppathid="10006" d="M163.048,485.005h-35.186c-4.142,0-7.5-3.358-7.5-7.5s3.358-7.5,7.5-7.5h35.186   c4.142,0,7.5,3.358,7.5,7.5S167.19,485.005,163.048,485.005z" style="fill:#3B3D4C;"/><path data-cppathid="10007" d="M230.889,477.412c0,2.61,0,5.14-0.02,7.59h-5.27c0,0-2.93-85.37-23.46-180.18h18.32   C220.459,304.822,230.889,338.622,230.889,477.412z" style="fill:#1895B7;"/><path data-cppathid="10008" d="M260.785,485.005h-35.186c-4.142,0-7.5-3.358-7.5-7.5s3.358-7.5,7.5-7.5h35.186   c4.142,0,7.5,3.358,7.5,7.5S264.927,485.005,260.785,485.005z" style="fill:#3B3D4C;"/><path data-cppathid="10009" d="M255.307,48.966c-2.345,0-4.577,0.481-6.606,1.345c-2.256-28.155-25.803-50.305-54.539-50.305h0   c-28.736,0-52.283,22.15-54.539,50.305c-2.029-0.865-4.261-1.345-6.606-1.345c-9.314,0-16.864,7.55-16.864,16.864   s7.55,16.864,16.864,16.864c2.473,0,4.814-0.545,6.929-1.501c3.632,26.706,26.513,47.292,54.216,47.292h0   c27.703,0,50.583-20.586,54.216-47.292c2.116,0.956,4.457,1.501,6.929,1.501c9.314,0,16.864-7.55,16.864-16.864   S264.621,48.966,255.307,48.966z" style="fill:#FFDC8D;"/><path data-cppathid="10010" d="M206.003,127.19c-3.81,0.85-7.77,1.29-11.84,1.29c-27.71,0-50.59-20.59-54.22-47.29   c-2.11,0.95-4.46,1.5-6.93,1.5c-9.31,0-16.86-7.55-16.86-16.86c0-9.32,7.55-16.87,16.86-16.87c2.35,0,4.58,0.48,6.61,1.35   c1.13-14.08,7.57-26.66,17.34-35.72c9.76-9.05,22.83-14.59,37.2-14.59c4.07,0,8.03,0.44,11.84,1.29   c-24.36,5.38-42.59,27.11-42.59,53.09V74.1C163.412,100.08,181.642,121.81,206.003,127.19z" style="fill:#E8C57E;"/><path data-cppathid="10011" d="M247.612,42.996l1.089,7.315c-49.36,6.46-72.189-20.865-72.189-20.865   c-8.25,14.77-20.409,20.865-36.889,20.865l0.129-1.435c1.44-13.49,7.78-25.53,17.21-34.28c9.77-9.05,22.83-14.59,37.2-14.59   C220.362,0.006,242.242,18.406,247.612,42.996z" style="fill:#5C5E70;"/><path data-cppathid="10012" d="M206.002,1.296c-20.66,4.56-37.131,21.966-41.591,42.666c-6.7,4.46-15.008,6.349-24.788,6.349   l0.129-1.435c1.44-13.49,7.78-25.53,17.21-34.28c9.77-9.05,22.83-14.59,37.2-14.59c4.05,0,7.99,0.44,11.79,1.27   C205.972,1.286,205.982,1.296,206.002,1.296z" style="fill:#3B3D4C;"/><g><path data-cppathid="10013" d="M209.823,84.831c-4.143,0-7.5-3.358-7.5-7.5v-9.857c0-4.142,3.357-7.5,7.5-7.5s7.5,3.358,7.5,7.5    v9.857C217.323,81.473,213.965,84.831,209.823,84.831z" style="fill:#3B3D4C;"/><path data-cppathid="10014" d="M178.825,84.831c-4.143,0-7.5-3.358-7.5-7.5v-9.857c0-4.142,3.357-7.5,7.5-7.5s7.5,3.358,7.5,7.5    v9.857C186.325,81.473,182.967,84.831,178.825,84.831z" style="fill:#3B3D4C;"/></g><path data-cppathid="10015" d="M153.856,167.952c-26.31,9.51-64.09,63.21-56.53,124.95c0.8,6.54,2.11,13.17,3.99,19.85   c1.12,3.99-1.2,8.13-5.19,9.25c-0.79,0.23-1.59,0.31-2.37,0.28c-3.14-0.14-5.98-2.26-6.88-5.46c-2.1-7.44-3.55-14.88-4.41-22.27   c-7.81-66.16,30.83-127.89,66.3-140.7c3.89-1.41,8.19,0.61,9.6,4.5C159.766,162.252,157.756,166.552,153.856,167.952z" style="fill:#BDD9E5;"/><polygon data-cppathid="10016" points="313.637,100.332 223.718,100.332 223.718,223.481 322.676,223.481  " style="fill:#D83F67;"/><rect data-cppathid="10017" height="123.149" width="89.918" style="fill:#FF75B1;" y="100.332" x="313.637"/><path data-cppathid="10018" d="M288.225,205.547H249.13c-4.143,0-7.5-3.358-7.5-7.5s3.357-7.5,7.5-7.5h39.095   c4.143,0,7.5,3.358,7.5,7.5S292.368,205.547,288.225,205.547z" style="fill:#E3F4FC;"/><path data-cppathid="10019" d="M96.126,322.002c-0.79,0.23-1.59,0.31-2.37,0.28c-3.14-0.14-5.98-2.26-6.88-5.46   c-2.1-7.44-3.55-14.88-4.41-22.27l14.86-1.65c0.8,6.54,2.11,13.17,3.99,19.85C102.436,316.742,100.116,320.882,96.126,322.002z" style="fill:#FFDC8D;"/><path data-cppathid="10020" d="M343.246,211.652c-0.11,0.42-2.3,8.61-6.03,18.35l-14.54-4.02c3.77-9.58,6.05-18.09,6.08-18.19   c1.07-4,5.18-6.38,9.17-5.32C341.936,203.542,344.316,207.652,343.246,211.652z" style="fill:#FFDC8D;"/><g><circle data-cppathid="10021" r="25.64" cy="142.722" cx="268.677" style="fill:#E3F4FC;"/><path data-cppathid="10022" d="M268.677,171.51c-15.874,0-28.787-12.914-28.787-28.788s12.914-28.787,28.787-28.787    c15.874,0,28.787,12.914,28.787,28.787S284.551,171.51,268.677,171.51z M268.677,120.229c-12.403,0-22.493,10.09-22.493,22.493    s10.09,22.493,22.493,22.493c12.403,0,22.493-10.091,22.493-22.493S281.08,120.229,268.677,120.229z" style="fill:#BDD9E5;"/><path data-cppathid="10023" d="M268.677,171.51c-4.188,0-7.883-3.358-10.403-9.455c-2.156-5.215-3.343-12.081-3.343-19.333    s1.187-14.117,3.343-19.333c2.52-6.097,6.215-9.455,10.403-9.455c4.188,0,7.883,3.358,10.403,9.455    c2.156,5.215,3.343,12.081,3.343,19.333s-1.187,14.118-3.343,19.333C276.56,168.152,272.866,171.51,268.677,171.51z     M268.677,120.229c-2.529,0-7.452,7.939-7.452,22.493c0,14.554,4.923,22.493,7.452,22.493c2.529,0,7.452-7.939,7.452-22.493    C276.129,128.168,271.206,120.229,268.677,120.229z" style="fill:#BDD9E5;"/><path data-cppathid="10024" d="M294.318,145.869h-51.28c-1.738,0-3.147-1.409-3.147-3.147s1.409-3.147,3.147-3.147h51.28    c1.738,0,3.147,1.409,3.147,3.147S296.056,145.869,294.318,145.869z" style="fill:#BDD9E5;"/></g></g></svg>