<?xml version="1.0" encoding="UTF-8"?>
<svg xmlns="http://www.w3.org/2000/svg" onmouseup="{ if(window.parent.document.onmouseup) window.parent.document.onmouseup(arguments[0]);}" data-name="Layer 1" width="512" viewBox="0 0 512 512" height="512" id="Layer_1"><path data-cppathid="10000" fill="#ad5e73" d="m153 434v32.24a19.7 19.7 0 0 0 19.68 19.76h196.64a19.7 19.7 0 0 0 19.68-19.76v-33.24z"/><path data-cppathid="10001" fill="#e87187" d="m381.81 192.27-24.27-19.07.46 259.8h31v-225.45a19.707 19.707 0 0 0 -7.19-15.28z"/><path data-cppathid="10002" fill="#88ced8" d="m123 403v33.24a19.7 19.7 0 0 0 19.68 19.76h196.64a19.7 19.7 0 0 0 19.68-19.76v-33.24z"/><path data-cppathid="10003" fill="#a0eaea" d="m241 71.36 110.85 90.91a19.7 19.7 0 0 1 7.23 15.28v225.09h-236.16v-225.09a19.744 19.744 0 0 1 7.23-15.28zm29.03 99.04a16.115 16.115 0 0 0 -16.13-16.12h-25.8a16.125 16.125 0 1 0 0 32.25h25.8a16.128 16.128 0 0 0 16.13-16.13z"/><path data-cppathid="10004" fill="#71abaf" d="m153 436.24v-33.24h-30v33.24a19.7 19.7 0 0 0 19.68 19.76h30a19.7 19.7 0 0 1 -19.68-19.76z"/><path data-cppathid="10005" fill="#87c1bf" d="m160.15 162.27 95.85-78.608-15-12.3-110.85 90.908a19.744 19.744 0 0 0 -7.23 15.28v225.09h30v-225.09a19.744 19.744 0 0 1 7.23-15.28z"/><g fill="#284268"><path data-cppathid="10006" d="m173.8 286h75.128a6 6 0 1 0 0-12h-75.128a6 6 0 0 0 0 12z"/><path data-cppathid="10007" d="m308.2 306h-134.4a6 6 0 0 0 0 12h134.4a6 6 0 0 0 0-12z"/><path data-cppathid="10008" d="m308.2 339h-134.4a6 6 0 0 0 0 12h134.4a6 6 0 0 0 0-12z"/><path data-cppathid="10009" d="m149 186.218a6 6 0 0 0 -6 6v4.782a6 6 0 0 0 12 0v-4.778a6 6 0 0 0 -6-6.004z"/><path data-cppathid="10010" d="m149 212.818a6 6 0 0 0 -6 6v62.182a6 6 0 0 0 12 0v-62.182a6 6 0 0 0 -6-6z"/><path data-cppathid="10011" d="m142.764 462h4.236v4.236a25.723 25.723 0 0 0 25.681 25.764h196.638a25.723 25.723 0 0 0 25.681-25.764v-258.687a25.635 25.635 0 0 0 -9.385-19.921l-21.825-17.915a25.533 25.533 0 0 0 -8.175-12.085l-108.615-89.111v-42.265a6.167 6.167 0 0 0 -5.815-6.252 6 6 0 0 0 -6.185 6v42.517l-108.615 89.111a25.635 25.635 0 0 0 -9.385 19.921v258.687a25.764 25.764 0 0 0 25.764 25.764zm240.236 4.236a13.709 13.709 0 0 1 -13.681 13.764h-196.638a13.709 13.709 0 0 1 -13.681-13.764v-4.236h180.319a25.682 25.682 0 0 0 25.541-23h18.14zm-129.1-306.236c5.583 0 10.125 4.917 10.125 10.5s-4.542 10.5-10.125 10.5h-25.8c-5.583 0-10.125-4.917-10.125-10.5s4.542-10.5 10.125-10.5zm-124.9 17.549a13.674 13.674 0 0 1 4.994-10.642l101.006-82.871v63.964h-6.016c-10.988 0-20.73 7.684-22.654 18.5-2.467 13.859 8.256 26.5 21.77 26.5h24.916c10.988 0 20.73-7.684 22.654-18.5 2.467-13.859-8.256-26.5-21.77-26.5h-6.9v-63.964l101.006 82.871a13.674 13.674 0 0 1 4.994 10.642v56.451a6 6 0 0 0 12 0v-47.772l13 10.679a13.679 13.679 0 0 1 5 10.642v219.451h-18v-151a6 6 0 0 0 -12 0v121h-224zm0 231.451h224v27.236a13.709 13.709 0 0 1 -13.681 13.764h-196.638a13.709 13.709 0 0 1 -13.681-13.764z"/></g></svg>