<?xml version="1.0" encoding="UTF-8"?>
<svg xmlns="http://www.w3.org/2000/svg" onmouseup="{ if(window.parent.document.onmouseup) window.parent.document.onmouseup(arguments[0]);}" width="512" viewBox="0 0 512 512" height="512" enable-background="new 0 0 512 512" id="Capa_1"><g><path data-cppathid="10000" d="m330.016 195c0-74.439-60.561-135-135-135s-135 60.561-135 135 60.561 135 135 135 135-60.561 135-135zm-240 0c0-57.897 47.103-105 105-105s105 47.103 105 105-47.103 105-105 105-105-47.103-105-105z"/><path data-cppathid="10001" d="m135.016 150h30v30h-30z"/><path data-cppathid="10002" d="m225.016 150h30v30h-30z"/><path data-cppathid="10003" d="m496.295 348.713c-12.53-10.967-45.265-46.226-46.256-77.262-.848-26.542-7.792-52.525-20.083-75.14-11.53-21.216-27.58-39.072-46.637-52-22.37-83.025-98.308-144.311-188.303-144.311-107.523 0-195 87.477-195 195 0 101.158 77.428 184.562 176.131 194.084 2.583 15.768 3.869 30.598 3.869 45.013v77.903h150v-46.978c71.302 18.739 111.311 14.281 120 14.978v-81.387l61.969-36.168zm-466.279-153.713c0-90.981 74.019-165 165-165s165 74.019 165 165-74.019 165-165 165-165-74.019-165-165zm390 186.387v68.214c-55.998-2.92-105.792-20.688-120-24.615v57.014h-90v-47.903c0-14.383-1.132-29.058-3.412-44.451 103.309-6.085 185.705-93.147 183.357-199.031 18.103 21.872 29.108 50.91 30.095 81.793 1.088 34.08 25.616 66.482 42.009 84.437z"/><path data-cppathid="10004" d="m225.016 231.213 19.393 19.394 21.213-21.214-40.606-40.606-30 30-30-30-40.607 40.606 21.213 21.214 19.394-19.394 30 30z"/></g></svg>