<?xml version="1.0" encoding="UTF-8"?>
<svg xmlns="http://www.w3.org/2000/svg" onmouseup="{ if(window.parent.document.onmouseup) window.parent.document.onmouseup(arguments[0]);}" width="512" viewBox="0 0 512 512" height="512" id="Flat"><path data-cppathid="10000" fill="#efdece" d="m40 152h448v256h-448z"/><path data-cppathid="10001" fill="#93573d" d="m416 336a8 8 0 0 0 0-16h-96a8 8 0 0 0 0 16h16v72a8 8 0 0 0 16 0v-72h32v72a8 8 0 0 0 16 0v-72z"/><path data-cppathid="10002" fill="#93573d" d="m312 352h-24v-48a8 8 0 0 0 -16 0v104a8 8 0 0 0 16 0v-40h16v40a8 8 0 0 0 16 0v-48a8 8 0 0 0 -8-8z"/><path data-cppathid="10003" fill="#93573d" d="m456 296a8 8 0 0 0 -8 8v48h-24a8 8 0 0 0 -8 8v48a8 8 0 0 0 16 0v-40h16v40a8 8 0 0 0 16 0v-104a8 8 0 0 0 -8-8z"/><path data-cppathid="10004" fill="#d8c8b9" d="m152 152h96v256h-96z"/><path data-cppathid="10005" fill="#e74444" d="m256 424v-264h-112v264zm-96-16v-104h80v104m-80-120v-112h80v112z"/><path data-cppathid="10006" fill="#155384" d="m24 408h464v32h-464z"/><path data-cppathid="10007" fill="#93573d" d="m24 296h96v144h-96z"/><g fill="#efdece"><path data-cppathid="10008" d="m88 336h-32a8 8 0 0 1 0-16h32a8 8 0 0 1 0 16z"/><path data-cppathid="10009" d="m88 368h-32a8 8 0 0 1 0-16h32a8 8 0 0 1 0 16z"/><path data-cppathid="10010" d="m88 400h-32a8 8 0 0 1 0-16h32a8 8 0 0 1 0 16z"/></g><path data-cppathid="10011" fill="#155384" d="m448 72h-368l-40 80v32h448v-32z"/><path data-cppathid="10012" fill="#fdd14b" d="m104 152h64a0 0 0 0 1 0 0v32a32 32 0 0 1 -32 32 32 32 0 0 1 -32-32v-32a0 0 0 0 1 0 0z"/><path data-cppathid="10013" fill="#e74444" d="m168 152h64a0 0 0 0 1 0 0v32a32 32 0 0 1 -32 32 32 32 0 0 1 -32-32v-32a0 0 0 0 1 0 0z"/><path data-cppathid="10014" fill="#e74444" d="m40 152h64a0 0 0 0 1 0 0v32a32 32 0 0 1 -32 32 32 32 0 0 1 -32-32v-32a0 0 0 0 1 0 0z"/><path data-cppathid="10015" fill="#fdd14b" d="m232 152h64a0 0 0 0 1 0 0v32a32 32 0 0 1 -32 32 32 32 0 0 1 -32-32v-32a0 0 0 0 1 0 0z"/><path data-cppathid="10016" fill="#e74444" d="m296 152h64a0 0 0 0 1 0 0v32a32 32 0 0 1 -32 32 32 32 0 0 1 -32-32v-32a0 0 0 0 1 0 0z"/><path data-cppathid="10017" fill="#fdd14b" d="m360 152h64a0 0 0 0 1 0 0v32a32 32 0 0 1 -32 32 32 32 0 0 1 -32-32v-32a0 0 0 0 1 0 0z"/><path data-cppathid="10018" fill="#e74444" d="m424 184v-32h64v32a32 32 0 0 1 -32 32 32 32 0 0 1 -32-32"/></svg>