<?xml version="1.0" encoding="UTF-8"?>
<svg xmlns="http://www.w3.org/2000/svg" onmouseup="{ if(window.parent.document.onmouseup) window.parent.document.onmouseup(arguments[0]);}" width="36" viewBox="0 0 36 36" id="S_SentimentNegative_18_N_2x" height="36" data-name="S_SentimentNegative_18_N@2x"><defs><style>
      .fill {
        fill: #6e6e6e;
      }

      
    </style></defs><path data-cppathid="10000" d="M18,2A16,16,0,1,0,34,18,16,16,0,0,0,18,2Zm5.473,6.432c1.657,0,3,1.679,3,3.75s-1.343,3.75-3,3.75-3-1.679-3-3.75S21.816,8.432,23.473,8.432Zm-11.108.1c1.656,0,3,1.679,3,3.75s-1.344,3.75-3,3.75-3-1.679-3-3.75S10.708,8.534,12.365,8.534ZM26.877,24.642l-.942.476a1,1,0,0,1-1.124-.152c-.333-.3-.727-.659-.829-.73A10.487,10.487,0,0,0,18.041,22.5a10.474,10.474,0,0,0-6,1.771c-.124.088-.489.424-.8.717a1,1,0,0,1-1.134.161l-.928-.47a1,1,0,0,1-.29-1.564c.232-.257.442-.483.526-.558A13.008,13.008,0,0,1,18.041,19.5a12.969,12.969,0,0,1,8.729,3.15c.047.043.208.219.4.432A1,1,0,0,1,26.877,24.642Z" class="fill"/></svg>