<?xml version="1.0" encoding="UTF-8"?>
<svg xmlns="http://www.w3.org/2000/svg" onmouseup="{ if(window.parent.document.onmouseup) window.parent.document.onmouseup(arguments[0]);}" width="512" viewBox="0 0 512 512" height="512" enable-background="new 0 0 512 512" id="Capa_1"><g><g><path data-cppathid="10000" fill="#f9f2e8" d="m0 190.124v313.034h256l51.028-333.09-51.028-37.598z"/></g><g><g><path data-cppathid="10001" fill="#ede0c2" d="m512 190.124-256-57.654v370.688h256z"/></g></g><g><g><g><g><path data-cppathid="10002" fill="#422e6c" d="m114.334 141.423h-30v-82.077c0-27.849 22.657-50.505 50.505-50.505s50.505 22.656 50.505 50.505v37.53h-30v-37.53c0-11.307-9.199-20.505-20.505-20.505s-20.505 9.198-20.505 20.505z"/></g></g><g><path data-cppathid="10003" fill="#2b1951" d="m356.655 141.423h-30v-82.077c0-27.849 22.657-50.505 50.505-50.505s50.505 22.656 50.505 50.505v37.53h-30v-37.53c0-11.307-9.199-20.505-20.505-20.505s-20.505 9.198-20.505 20.505z"/></g></g><g><g><path data-cppathid="10004" fill="#d4c2a2" d="m226.673 412.517h-30l.001-135.615h-20.473v-30h50.473z"/></g><g><path data-cppathid="10005" fill="#ad9d8c" d="m321.651 412.517h-44.974v-30h44.974c13.775 0 24.982-11.207 24.982-24.982s-11.207-24.982-24.982-24.982h-44.974v-85.65h84.956v30h-54.956v25.65h14.974c30.317 0 54.982 24.665 54.982 54.982s-24.665 54.982-54.982 54.982z"/></g></g></g><g><g><path data-cppathid="10006" fill="#27d072" d="m0 81.877v108.247h256l42.037-48.701-42.037-59.546z"/></g><g><path data-cppathid="10007" fill="#1da55a" d="m256 81.877h256v108.248h-256z"/></g></g><g><g><path data-cppathid="10008" fill="#422e6c" d="m84.334 59.346h30v82.077h-30z"/></g></g><g><path data-cppathid="10009" fill="#2b1951" d="m326.655 59.346h30v82.077h-30z"/></g></g></svg>