<?xml version="1.0" encoding="UTF-8"?>
<svg xmlns="http://www.w3.org/2000/svg" onmouseup="{ if(window.parent.document.onmouseup) window.parent.document.onmouseup(arguments[0]);}" width="512pt" viewBox="-1 0 512 512.00005" height="512pt"><path data-cppathid="10000" fill="#5db33a" d="m357.230469 496.925781c-80.65625 0-146.273438-65.613281-146.273438-146.261719 0-37.71875 14.371094-73.550781 40.464844-100.894531 20.0625-21.035156 45.511719-35.492187 73.597656-41.8125l10.152344-2.28125-5.523437-8.820312c-1.480469-2.367188-2.199219-5.109375-2.082032-7.925781.144532-3.746094 1.738282-7.191407 4.476563-9.71875 2.582031-2.386719 5.933593-3.699219 9.441406-3.699219.832031 0 1.667969.074219 2.484375.222656 3.046875.535156 5.742188 2.003906 7.828125 4.257813l26.679687 28.902343c5.03125 5.445313 4.929688 13.878907-.222656 19.210938l-27.457031 28.339843c-2.59375 2.675782-5.878906 4.292969-9.253906 4.550782-.371094.027344-.746094.042968-1.113281.042968-3.65625 0-7.113282-1.398437-9.734376-3.9375-2.835937-2.742187-4.339843-6.449218-4.238281-10.425781l.28125-10.855469-10.1875 3.746094c-46.441406 17.054688-77.640625 61.703125-77.640625 111.097656 0 65.234376 53.078125 118.304688 118.320313 118.304688 65.234375 0 118.304687-53.070312 118.304687-118.304688 0-29.5-10.914062-57.757812-30.734375-79.574218-5.003906-5.511719-5.035156-13.691406-.070312-19.03125l.105469-.109375c2.652343-2.855469 6.285156-4.4375 10.210937-4.4375s7.535156 1.585937 10.167969 4.464843c24.683594 27.003907 38.273437 62.050782 38.273437 98.6875 0 80.648438-65.613281 146.261719-146.257812 146.261719zm0 0"/><path data-cppathid="10001" fill="#ffb52d" d="m104.078125 98.15625c-7.203125 8.394531-16.394531 14.074219-26.285156 16.941406-17.191407 5.003906-36.492188 1.503906-51.09375-11.027344-22.996094-19.738281-25.640625-54.375-5.914063-77.371093 14.492188-16.878907 37-22.800781 57.050782-16.949219 7.261718 2.109375 14.207031 5.78125 20.328124 11.027344 22.996094 19.734375 25.640626 54.375 5.914063 77.378906zm0 0"/><path data-cppathid="10002" fill="#ffb52d" d="m208.308594 160.390625c-4.652344 19.96875-19.667969 34.832031-38.039063 40.21875-8.769531 2.574219-18.3125 2.988281-27.847656.769531-29.515625-6.882812-47.867187-36.375-40.988281-65.886718 1.878906-8.054688 5.441406-15.289063 10.222656-21.390626h.011719c6.40625-8.175781 15.011719-14.347656 24.71875-17.832031 9.59375-3.449219 20.261719-4.257812 30.933593-1.773437.992188.230468 1.960938.484375 2.917969.765625 27.796875 8.082031 44.71875 36.59375 38.070313 65.128906zm0 0"/><g fill="#ffc14f"><path data-cppathid="10003" d="m104.078125 98.15625c-7.203125 8.394531-16.394531 14.074219-26.285156 16.941406-7.261719-2.109375-14.207031-5.78125-20.328125-11.027344-22.996094-19.738281-25.648438-54.375-5.914063-77.371093 7.203125-8.402344 16.394531-14.085938 26.285157-16.949219 7.261718 2.109375 14.207031 5.78125 20.328124 11.027344 22.996094 19.734375 25.640626 54.375 5.914063 77.378906zm0 0"/><path data-cppathid="10004" d="m136.386719 96.269531c-.503907.636719-1.019531 1.261719-1.554688 1.886719-6.4375 7.507812-14.46875 12.84375-23.164062 15.941406 6.40625-8.171875 15.011719-14.347656 24.71875-17.828125zm0 0"/><path data-cppathid="10005" d="m208.308594 160.390625c-4.652344 19.96875-19.667969 34.832031-38.039063 40.21875-27.796875-8.082031-44.71875-36.59375-38.082031-65.117187 4.652344-19.980469 19.675781-34.84375 38.050781-40.230469 27.796875 8.082031 44.71875 36.59375 38.070313 65.128906zm0 0"/></g><path data-cppathid="10006" fill="#ae583e" d="m247.699219 395.46875c0 54.179688-39.5625 99.121094-91.363281 107.515625-6.21875 1.011719-12.605469 1.496094-19.121094 1.402344-58.675782-.816407-106.5625-48.710938-107.367188-107.394531-.574218-42.582032 23.277344-79.640626 58.429688-98.066407.234375-.121093.453125-.242187.675781-.371093 9.332031-5.296876 13.722656-16.46875 10.554687-26.800782l-3.875-12.660156h-.007812l-28.554688-93.210938c-1.242187-4.058593 1.792969-8.164062 6.03125-8.164062h131.441407c4.207031 0 7.234375 4.046875 6.054687 8.09375l-27.394531 93.28125-3.996094 13.589844c-2.894531 9.859375 1.089844 20.339844 9.578125 25.871094.53125.351562 1.089844.683593 1.664063.996093 34.09375 18.40625 57.25 54.457031 57.25 95.917969zm0 0"/><path data-cppathid="10007" fill="#c0694e" d="m247.699219 395.46875c0 54.179688-39.5625 99.121094-91.363281 107.515625-51.175782-8.34375-90.699219-52.730469-91.4375-105.992187-.574219-42.582032 23.277343-79.640626 58.433593-98.066407.230469-.121093.453125-.242187.675781-.371093 9.332032-5.296876 13.71875-16.46875 10.550782-26.800782l-3.871094-12.660156h-.011719l-28.554687-93.210938c-1.242188-4.058593 1.796875-8.164062 6.035156-8.164062h96.386719c4.207031 0 7.234375 4.046875 6.054687 8.09375l-27.394531 93.28125-3.996094 13.589844c-2.894531 9.859375 1.089844 20.339844 9.578125 25.871094.53125.351562 1.089844.683593 1.664063.996093 34.09375 18.40625 57.25 54.457031 57.25 95.917969zm0 0"/><path data-cppathid="10008" fill="#ffa90b" d="m188.785156 298.550781h-99.832031c9.332031-5.296875 13.722656-16.464843 10.554687-26.796875l-3.875-12.664062h87.570313l-3.996094 13.59375c-2.894531 9.855468 1.089844 20.339844 9.578125 25.867187zm0 0"/><path data-cppathid="10009" fill="#ffc14f" d="m149.113281 388.257812c-10.886719-4.035156-21.625-6.136718-21.625-15.3125 0-15.695312 20.597657-9.3125 35.25-4.597656 9.804688-.605468 22.484375-21.144531-12.179687-27.132812v-9.871094c0-6.511719-5.277344-11.789062-11.789063-11.789062s-11.789062 5.277343-11.789062 11.789062v11.476562c-.164063.117188-22.65625 4.539063-22.65625 31 0 22.878907 16.316406 29.011719 29.425781 33.9375 13.121094 4.929688 18.921875 7.558594 18.921875 18.199219 0 13.566407-9.929687 12.246094-15.949219 13.300781-15.464844-.492187-14.632812-11.980468-24.210937-11.980468-5.988281 0-10.8125 6.609375-10.8125 12.082031 0 15.488281 25.03125 21.339844 25.191406 21.421875h.089844v9.921875c0 6.511719 5.277343 11.789063 11.789062 11.789063s11.789063-5.277344 11.789063-11.789063v-10.167969h.046875c.882812-.648437 25.234375-5.148437 25.234375-35.449218 0-29.710938-24.414063-35.089844-26.726563-36.828126zm0 0"/><path data-cppathid="10010" fill="#f29500" d="m134.558594 271.753906-3.871094-12.664062h-35.054688l3.875 12.664062c3.167969 10.332032-1.222656 21.5-10.554687 26.796875h35.054687c9.332032-5.296875 13.71875-16.464843 10.550782-26.796875zm0 0"/><path data-cppathid="10011" d="m136.300781 431.664062c-5.023437-.300781-6.792969-2.125-9.414062-4.828124-2.917969-3.007813-6.917969-7.128907-14.375-7.128907-18.09375 0-32.941407 32.421875 6.902343 46.664063v4.332031c0 10.671875 8.683594 19.355469 19.355469 19.355469 10.675781 0 19.359375-8.679688 19.359375-19.355469v-4.882813c16.347656-6.917968 25.28125-21.21875 25.28125-40.734374 0-25.082032-13.988281-37.871094-36.632812-45.679688-7.082032-2.441406-11.71875-4.210938-11.71875-6.457031 0-1.359375.257812-1.828125.253906-1.828125 3.488281-2.664063 21.585938 3.296875 25.109375 4.429687 7.375 2.375 20.472656-6.34375 20.472656-18.851562 0-6.09375-3.132812-16.492188-22.765625-21.597657v-3.753906c0-10.675781-8.683594-19.359375-19.359375-19.359375-10.671875 0-19.355469 8.683594-19.355469 19.359375v6.078125c-11.753906 5.039063-22.65625 16.621094-22.65625 36.394531 0 28.121094 20.660157 35.882813 34.332032 41.019532 13.589844 5.109375 14.019531 6.195312 14.019531 11.117187 0 5.71875-.820313 4.554688-8.808594 5.707031zm-24.410156-57.84375c0-17.382812 11.75-22.308593 16.800781-23.621093 7.265625-1.898438 5.859375-8.207031 5.859375-18.855469 0-2.328125 1.890625-4.21875 4.21875-4.21875s4.222657 1.890625 4.222657 4.21875v9.871094c0 3.679687 2.652343 6.828125 6.277343 7.457031 12.097657 2.089844 16.488281 5.945313 16.488281 8.027344 0 1.5-1.523437 3.152343-2.695312 3.804687-8.675781-2.753906-17.027344-5.09375-24.324219-5.09375-11.78125 0-18.816406 6.554688-18.816406 17.535156 0 15.578126 16.394531 18.285157 28.40625 23.289063 9.863281 4.113281 19.945313 10.753906 19.945313 28.851563 0 14.453124-6.414063 23.847656-19.074219 27.914062-4.316407 1.398438-6.203125 4.179688-6.203125 7.535156v10.167969c0 2.328125-1.894532 4.21875-4.222656 4.21875-2.328126 0-4.222657-1.890625-4.222657-4.21875v-9.925781c0-3.125-1.96875-6.261719-5.910156-7.367188-6.699219-1.773437-19.367187-7-19.367187-14.050781 0-1.90625 2.066406-4.519531 3.242187-4.519531.851563 0 1.144531.09375 3.511719 2.535156 3.507812 3.613281 8.804687 9.074219 20.460937 9.445312.742188.03125 1.492188-.148437 3.941407-.410156 5.421874-.574218 19.816406-2.101562 19.816406-20.453125-.003906-33.292969-48.355469-17.144531-48.355469-52.136719zm0 0"/><path data-cppathid="10012" d="m470.796875 246.871094c-8.449219-9.238282-22.96875-9.257813-31.53125-.050782-7.121094 7.121094-8.289063 20.28125-.070313 29.351563 45.984376 50.609375 36.238282 132.316406-24.761718 169.28125-3.570313 2.167969-4.722656 6.820313-2.550782 10.390625 2.167969 3.574219 6.820313 4.710938 10.390626 2.554688 68.132812-41.28125 81.191406-134.003907 28.132812-192.394532-5.929688-6.542968 3.6875-14.964844 9.222656-8.921875 23.40625 25.597657 36.292969 58.835938 36.292969 93.574219 0 76.484375-62.214844 138.695312-138.695313 138.695312-44.296874 0-83.796874-20.863281-109.214843-53.285156 1.886719-5.042968 3.398437-10.230468 4.558593-15.527344 30.890626 46.113282 87.730469 66.40625 140.320313 50.855469 4.007813-1.191406 6.296875-5.398437 5.117187-9.40625-1.191406-4.003906-5.398437-6.296875-9.402343-5.105469-54.496094 16.089844-111.546875-11.714843-133.359375-63.039062-.203125-14.945312-3.25-29.425781-8.757813-42.792969-.011719-.132812-.011719-.261719-.011719-.394531 0-46.128906 29.089844-87.84375 72.40625-103.886719 0 19.761719 23.464844 29.292969 37.351563 14.933594l27.457031-28.339844c8.011719-8.28125 8.046875-21.292969.34375-29.605469l-26.679687-28.898437c-13.164063-14.234375-37.371094-5.121094-37.371094 14.660156 0 3.9375 1.078125 7.769531 3.105469 11.121094-54.621094 12.371094-96.460938 53.304687-112.421875 103.140625-5.15625-4.046875-10.695313-7.691406-16.585938-10.867188-6.429687-3.476562-9.691406-10.933593-7.609375-18.101562l33.761719-114.957031c.664063-2.289063.222656-4.761719-1.210937-6.667969-.515626-.6875-1.121094-1.273438-1.804688-1.726562 1.691406-29.734376-18.214844-57.351563-48.179688-64.332032-39.960937-9.308594-77.972656 21.785156-76.59375 63.019532h-27.867187c-2.402344 0-4.664063 1.140624-6.085937 3.070312-1.433594 1.9375-1.855469 4.429688-1.148438 6.71875 37.710938 123.113281 35.617188 115.292969 35.617188 118.566406 0 5.453125-2.925782 10.941406-8.40625 13.832032-38.414063 20.230468-62.285157 59.753906-62.285157 103.210937.03125 38.949219 19.777344 75.25 52.820313 97.117187 3.480468 2.300782 8.171875 1.351563 10.484375-2.140624 2.300781-3.480469 1.351562-8.171876-2.140625-10.484376-28.796875-19.058593-46-50.648437-46.027344-84.574218 0-37.46875 20.480469-71.621094 53.480469-89.34375h95.8125c20.816406 11.445312 35.773437 28.113281 44.695312 48.136718 35.109375 78.96875-39.945312 164.15625-122.632812 137.910157-3.988281-1.261719-8.246094.9375-9.507813 4.925781-1.269531 3.984375.941406 8.230469 4.925782 9.503906 53.160156 16.875 110.4375-6.941406 136.839843-55.234375 28.230469 32.519531 69.863281 53.125 116.207031 53.125 84.824219 0 153.828126-69.003906 153.828126-153.832031 0-38.523438-14.296876-75.390625-40.257813-103.785156zm-340.910156-139.097656c32.207031-20.042969 74.039062 4.328124 72.234375 42.375h-30.054688c-2.332031-5.074219-6.539062-7.625-9.75-9.058594l.03125-.089844c-9.84375-3.640625-10.453125-3.769531-10.453125-5.742188 0-1.34375.433594-1.585937.789063-1.777343 1.441406-.804688 5.242187-1.214844 8.867187.65625 6.863281 3.535156 11.078125-2.128907 11.078125-6.476563 0-2.5625-1.390625-6.910156-10.25-8.628906-.132812-4.035156-3.453125-7.273438-7.507812-7.273438-4.136719 0-7.507813 3.371094-7.507813 7.507813v.734375c-6.546875 2.585938-10.25 8.195312-10.25 15.652344 0 7.867187 3.894531 11.976562 8.242188 14.496094h-37.753907c-.738281-16.457032 7.082032-32.929688 22.285157-42.375zm43.199219 183.214843h-67.648438c3.96875-8.910156 2.9375-16.125.425781-24.324219h67.230469c-1.316406 4.484376-4.640625 13.226563-.007812 24.324219zm-71.859376-39.460937-26.417968-86.242188h128.050781c-11.589844 39.496094-5.335937 18.1875-25.320313 86.242188zm132.265626 76.085937c-3.148438-4.390625-6.597657-8.566406-10.34375-12.503906 12.953124-49.042969 52.746093-88.355469 103.535156-99.765625 10.113281-2.273438 13.582031-2.214844 15.464844-6.75 1.902343-4.546875-.5625-6.933594-6.082032-15.753906-2.8125-4.488282.914063-10.648438 6.589844-9.652344 2.957031.527344 1.050781-.804688 30.257812 30.84375 2.320313 2.511719 2.261719 6.363281-.101562 8.808594-29.679688 30.640625-28.613281 30.355468-31.851562 30.613281-3.613282.292969-6.941407-2.5-6.941407-6.398437.28125-11.105469 1.21875-14.453126-2.867187-17.386719-4.09375-2.9375-7.027344-.945313-17.214844 2.796875-42.042969 15.4375-72.351562 52.152344-80.445312 95.148437zm0 0"/><path data-cppathid="10013" d="m124.238281 53.566406c-.589843-4.136718-4.433593-7.007812-8.5625-6.421875-4.136719.59375-7.011719 4.425781-6.421875 8.5625 1.976563 13.828125-2.242187 27.40625-10.921875 37.519531-28.507812 33.230469-83.199219 12.929688-83.199219-30.824218 0-43.699219 55.203126-64.386719 83.675782-30.230469 2.675781 3.210937 7.449218 3.644531 10.65625.96875 3.210937-2.675781 3.644531-7.449219.96875-10.660156-24.785156-29.722657-70.273438-29.984375-95.386719-.710938-22.425781 26.136719-19.457031 65.574219 6.730469 88.042969 43.226562 37.085938 110.648437 1.078125 102.460937-56.246094zm0 0"/><path data-cppathid="10014" d="m61.972656 77.691406c-3.398437 0-4.492187-1.175781-5.753906-2.542968-9.589844-10.335938-22.242188 9.945312-1.292969 16.042968.050781 4.09375 3.398438 7.410156 7.507813 7.410156 4.140625 0 7.507812-3.367187 7.507812-7.507812v-.113281c7.207032-2.554688 11.441406-8.992188 11.441406-17.589844 0-11.246094-6.8125-15.714844-11.507812-17.816406l.039062-.089844c-9.835937-3.621094-10.460937-3.773437-10.460937-5.742187 0-1.34375.4375-1.585938.785156-1.777344.78125-.433594 2.054688-.671875 3.582031-.671875 5.046876 0 5.640626 2.511719 9.246094 2.511719 7.242188 0 12.820313-13.199219-3.128906-16.285157-.296875-9.511719-15.011719-10.121093-15.011719.96875-6.546875 2.578125-10.253906 8.1875-10.253906 15.652344 0 11.855469 8.863281 15.1875 14.730469 17.390625 6.019531 2.261719 7.199218 2.992188 7.199218 6.253906 0 2.476563-.757812 3.90625-4.628906 3.90625zm0 0"/></svg>