<?xml version="1.0" encoding="UTF-8"?>
<svg xmlns="http://www.w3.org/2000/svg" onmouseup="{ if(window.parent.document.onmouseup) window.parent.document.onmouseup(arguments[0]);}" overflow="hidden" height="1050" width="1921" xmlns:xlink="http://www.w3.org/1999/xlink"><defs><clipPath id="clip0"><rect data-cppathid="10000" height="1050" width="1921" y="334" x="1521"/></clipPath><clipPath id="clip1"><rect data-cppathid="10001" height="1045" width="1911" y="337" x="1526"/></clipPath><clipPath id="clip2"><rect data-cppathid="10002" height="1045" width="1911" y="337" x="1526"/></clipPath><clipPath id="clip3"><rect data-cppathid="10003" height="1045" width="1911" y="337" x="1526"/></clipPath><clipPath id="clip4"><rect data-cppathid="10004" height="1045" width="1911" y="337" x="1526"/></clipPath><clipPath id="clip5"><rect data-cppathid="10005" height="1045" width="1911" y="337" x="1526"/></clipPath><clipPath id="clip6"><rect data-cppathid="10006" height="1045" width="1911" y="337" x="1526"/></clipPath><clipPath id="clip7"><rect data-cppathid="10007" height="1045" width="1911" y="337" x="1526"/></clipPath><clipPath id="clip8"><rect data-cppathid="10008" height="1045" width="1911" y="337" x="1526"/></clipPath><clipPath id="clip9"><rect data-cppathid="10009" height="1045" width="1911" y="337" x="1526"/></clipPath><clipPath id="clip10"><rect data-cppathid="10010" height="1045" width="1911" y="337" x="1526"/></clipPath></defs><g transform="translate(-1521 -334)" clip-path="url(#clip0)"><rect data-cppathid="10011" fill-opacity="1" fill="#FFFFFF" height="1045" width="1910" y="337" x="1527"/><g clip-path="url(#clip1)"><path data-cppathid="10012" fill-opacity="1" fill-rule="evenodd" fill="#70AD47" stroke-opacity="1" stroke-miterlimit="10" stroke-linejoin="round" stroke-linecap="butt" stroke-width="6.875" stroke="#FFFFFF" d="M2482.05 452.781C2706.7 452.781 2888.82 634.898 2888.82 859.551 2888.82 1084.2 2706.7 1266.32 2482.05 1266.32 2367.07 1266.32 2257.45 1217.66 2180.33 1132.37L2482.05 859.551Z"/></g><g clip-path="url(#clip2)"><path data-cppathid="10013" fill-opacity="1" fill-rule="evenodd" fill="#5B9BD5" stroke-opacity="1" stroke-miterlimit="10" stroke-linejoin="round" stroke-linecap="butt" stroke-width="6.875" stroke="#FFFFFF" d="M2180.33 1132.37C2029.66 965.732 2042.6 708.504 2209.24 557.832 2254.29 517.095 2307.89 486.964 2366.11 469.652L2482.05 859.551Z"/></g><g clip-path="url(#clip3)"><path data-cppathid="10014" fill-opacity="1" fill-rule="evenodd" fill="#FFC000" stroke-opacity="1" stroke-miterlimit="10" stroke-linejoin="round" stroke-linecap="butt" stroke-width="6.875" stroke="#FFFFFF" d="M2366.11 469.653C2403.74 458.464 2442.79 452.781 2482.05 452.781L2482.05 859.551Z"/></g><g clip-path="url(#clip4)"><path data-cppathid="10015" fill-rule="nonzero" fill="none" stroke-opacity="1" stroke-miterlimit="10" stroke-linejoin="round" stroke-linecap="butt" stroke-width="3.4375" stroke="#A6A6A6" d="M2423.5 457.5 2417.58 393.5 2397.5 393.5"/></g><g clip-path="url(#clip5)"><text data-cppathid="10016" transform="matrix(1 0 0 1 2685.04 991)" text-decoration="none" unicode-bidi="normal" writing-mode="lr-tb" direction="ltr" text-anchor="start" font-size="41" font-stretch="normal" font-weight="400" font-variant="normal" font-style="normal" font-family="Calibri,Calibri_MSFontService,sans-serif" fill-opacity="1" fill="#000000">Large cap </text></g><g clip-path="url(#clip6)"><text data-cppathid="10017" transform="matrix(1 0 0 1 2729.2 1042)" text-decoration="none" unicode-bidi="normal" writing-mode="lr-tb" direction="ltr" text-anchor="start" font-size="41" font-stretch="normal" font-weight="400" font-variant="normal" font-style="normal" font-family="Calibri,Calibri_MSFontService,sans-serif" fill-opacity="1" fill="#000000">63%</text></g><g clip-path="url(#clip7)"><text data-cppathid="10018" transform="matrix(1 0 0 1 2110.98 782)" text-decoration="none" unicode-bidi="normal" writing-mode="lr-tb" direction="ltr" text-anchor="start" font-size="41" font-stretch="normal" font-weight="400" font-variant="normal" font-style="normal" font-family="Calibri,Calibri_MSFontService,sans-serif" fill-opacity="1" fill="#000000">Mid cap </text></g><g clip-path="url(#clip8)"><text data-cppathid="10019" transform="matrix(1 0 0 1 2142.62 833)" text-decoration="none" unicode-bidi="normal" writing-mode="lr-tb" direction="ltr" text-anchor="start" font-size="41" font-stretch="normal" font-weight="400" font-variant="normal" font-style="normal" font-family="Calibri,Calibri_MSFontService,sans-serif" fill-opacity="1" fill="#000000">32%</text></g><g clip-path="url(#clip9)"><text data-cppathid="10020" transform="matrix(1 0 0 1 2231.29 393)" text-decoration="none" unicode-bidi="normal" writing-mode="lr-tb" direction="ltr" text-anchor="start" font-size="41" font-stretch="normal" font-weight="400" font-variant="normal" font-style="normal" font-family="Calibri,Calibri_MSFontService,sans-serif" fill-opacity="1" fill="#000000">Small cap </text></g><g clip-path="url(#clip10)"><text data-cppathid="10021" transform="matrix(1 0 0 1 2285.49 444)" text-decoration="none" unicode-bidi="normal" writing-mode="lr-tb" direction="ltr" text-anchor="start" font-size="41" font-stretch="normal" font-weight="400" font-variant="normal" font-style="normal" font-family="Calibri,Calibri_MSFontService,sans-serif" fill-opacity="1" fill="#000000">5%</text></g><rect data-cppathid="10022" fill="none" stroke-opacity="1" stroke-miterlimit="10" stroke-linejoin="round" stroke-linecap="butt" stroke-width="3.4375" stroke="#D9D9D9" height="1045" width="1910" y="337.5" x="1527.5"/></g></svg>