<?xml version="1.0" encoding="UTF-8"?>
<svg xmlns="http://www.w3.org/2000/svg" onmouseup="{ if(window.parent.document.onmouseup) window.parent.document.onmouseup(arguments[0]);}" width="512" viewBox="0 0 512 512" height="512" enable-background="new 0 0 512 512" id="Capa_1"><g><g><path data-cppathid="10000" fill="#ffa6d4" d="m103.321 278.4c7.11-7.279 11.497-17.228 11.497-28.206 0-22.3-18.078-40.378-40.378-40.378s-40.378 18.078-40.378 40.378c0 11.041 4.436 21.043 11.618 28.333-17.99 4.854-37.68 16.028-37.68 41.697v53.767c0 8.939 7.247 16.186 16.186 16.186s16.186-7.247 16.186-16.186v72.679c0 9.489 7.692 17.181 17.181 17.181s17.181-7.692 17.181-17.181c0 9.489 7.692 17.181 17.181 17.181s17.181-7.692 17.181-17.181v-72.679c0 8.939 7.247 16.186 16.186 16.186 8.939 0 16.186-7.247 16.186-16.186v-53.767c-.001-25.891-20.033-37.037-38.147-41.824z"/><g><path data-cppathid="10001" fill="#f690d2" d="m91.915 445.852c-5.401 0-10.22-2.492-13.369-6.389-1.94-2.401-5.683-2.401-7.623 0-3.15 3.897-7.969 6.389-13.37 6.389-9.489 0-17.181-7.692-17.181-17.181v17.55c0 9.63 7.881 17.808 17.509 17.628 9.337-.175 16.853-7.799 16.853-17.178 0 9.379 7.515 17.003 16.853 17.178 9.628.181 17.509-7.998 17.509-17.628v-17.55c0 9.488-7.693 17.181-17.181 17.181z"/></g><path data-cppathid="10002" fill="#eef2f5" d="m40.372 347.387v22.139s20.352 22.139 34.362 22.139 34.362-22.139 34.362-22.139v-22.139z"/><path data-cppathid="10003" fill="#deeaf3" d="m74.734 373.666c-14.01 0-34.362-22.139-34.362-22.139v18s20.352 22.139 34.362 22.139 34.362-22.139 34.362-22.139v-18c0-.001-20.352 22.139-34.362 22.139z"/><g><path data-cppathid="10004" fill="#ffdd91" d="m280.582 195.932c7.856-8.043 12.704-19.036 12.704-31.167 0-24.641-19.975-44.617-44.617-44.617s-44.617 19.975-44.617 44.617c0 12.2 4.902 23.252 12.837 31.307-19.878 5.365-41.635 17.711-41.635 46.075v95.412c0 9.878 8.007 17.885 17.885 17.885s17.885-8.007 17.885-17.885v107.309c0 10.485 8.5 18.984 18.984 18.984 10.485 0 18.985-8.5 18.985-18.984 0 10.485 8.5 18.984 18.984 18.984 10.485 0 18.984-8.5 18.984-18.984v-107.31c0 9.878 8.007 17.885 17.885 17.885 9.878 0 17.885-8.007 17.885-17.885v-95.412c.003-28.608-22.133-40.925-42.149-46.214z"/></g><g><path data-cppathid="10005" fill="#f9cd80" d="m267.979 445.852c-6.102 0-11.532-2.879-15.005-7.354-2.03-2.615-5.928-2.615-7.958 0-3.473 4.474-8.903 7.354-15.006 7.354-10.485 0-18.984-8.5-18.984-18.984v17.545c0 10.294 8.005 19.061 18.292 19.427 10.8.384 19.676-8.258 19.676-18.972 0 10.715 8.876 19.356 19.677 18.972 10.288-.366 18.292-9.133 18.292-19.427v-17.545c.001 10.484-8.499 18.984-18.984 18.984z"/></g><g><path data-cppathid="10006" fill="#b1e6a0" d="m461.849 123.932c7.856-8.043 12.704-19.036 12.704-31.167 0-24.641-19.976-44.617-44.617-44.617s-44.616 19.976-44.616 44.617c0 12.2 4.902 23.252 12.837 31.307-19.878 5.365-41.635 17.711-41.635 46.075v131.412c0 9.878 8.007 17.885 17.885 17.885s17.885-8.007 17.885-17.885v143.309c0 10.485 8.5 18.984 18.984 18.984 10.485 0 18.984-8.5 18.984-18.984 0 10.485 8.5 18.984 18.984 18.984 10.485 0 18.984-8.5 18.984-18.984v-143.31c0 9.878 8.007 17.885 17.885 17.885 9.878 0 17.885-8.007 17.885-17.885v-131.411c.002-28.609-22.134-40.926-42.149-46.215z"/></g><g><path data-cppathid="10007" fill="#96d5a9" d="m449.245 445.852c-6.102 0-11.533-2.879-15.005-7.354-2.03-2.615-5.928-2.615-7.958 0-3.473 4.474-8.903 7.354-15.006 7.354-10.485 0-18.984-8.5-18.984-18.984v17.545c0 10.294 8.005 19.061 18.292 19.427 10.8.384 19.677-8.257 19.677-18.972 0 10.715 8.876 19.356 19.677 18.972 10.288-.366 18.292-9.133 18.292-19.427v-17.545c0 10.484-8.5 18.984-18.985 18.984z"/></g></g><g><path data-cppathid="10008" d="m115.377 274.616c4.354-7.328 6.679-15.716 6.679-24.434 0-26.452-21.52-47.972-47.972-47.972s-47.972 21.52-47.972 47.972c0 8.803 2.365 17.259 6.792 24.63-21.32 8.757-32.904 24.635-32.904 45.538v12.186c0 4.15 3.365 7.515 7.515 7.515s7.515-3.365 7.515-7.515v-12.186c0-17.143 10.833-28.759 32.197-34.525 2.58-.697 4.596-2.711 5.295-5.29s-.024-5.336-1.9-7.239c-6.112-6.204-9.478-14.412-9.478-23.114 0-18.164 14.778-32.942 32.942-32.942s32.942 14.778 32.942 32.942c0 8.645-3.331 16.818-9.381 23.01-1.868 1.912-2.579 4.674-1.868 7.251s2.739 4.582 5.323 5.265c21.65 5.722 32.627 17.377 32.627 34.641v53.872c0 4.799-3.904 8.703-8.703 8.703s-8.703-3.904-8.703-8.703v-26.656-21.996c0-4.15-3.365-7.515-7.515-7.515s-7.515 3.365-7.515 7.515v14.481h-53.828v-14.481c0-4.15-3.365-7.515-7.515-7.515s-7.515 3.365-7.515 7.515v21.996 26.656c0 4.799-3.904 8.703-8.703 8.703s-8.703-3.904-8.703-8.703v-11.627c0-4.15-3.365-7.515-7.515-7.515s-7.514 3.366-7.514 7.516v11.627c0 13.086 10.646 23.732 23.732 23.732 3.071 0 6.007-.586 8.703-1.653v50.742c0 13.635 11.094 24.729 24.729 24.729 6.685 0 12.759-2.666 17.215-6.992 4.455 4.326 10.529 6.992 17.214 6.992 13.636 0 24.729-11.094 24.729-24.729v-50.742c2.696 1.066 5.632 1.653 8.703 1.653 13.086 0 23.732-10.646 23.732-23.732v-53.872c.001-21.07-11.752-37.018-33.38-45.734zm-14.083 80.464v11.678c-11.811 12.16-22.709 17.659-26.914 17.659-4.206 0-15.105-5.5-26.914-17.659v-11.678zm-44.13 101.664c-5.348 0-9.7-4.351-9.7-9.7v-60.05c5.704 4.565 12.577 9.086 19.4 11.204v48.846c.001 5.348-4.351 9.7-9.7 9.7zm34.429 0c-5.348 0-9.7-4.351-9.7-9.7v-48.846c6.823-2.118 13.696-6.639 19.4-11.204v60.05c.001 5.348-4.351 9.7-9.7 9.7z"/><path data-cppathid="10009" d="m293.124 191.976c5.048-8.162 7.75-17.583 7.75-27.389 0-28.793-23.425-52.219-52.219-52.219s-52.219 23.425-52.219 52.219c0 9.897 2.747 19.392 7.876 27.598-23.791 9.479-36.73 26.912-36.73 49.935v95.598c0 14.025 11.41 25.434 25.435 25.434 3.705 0 7.228-.796 10.406-2.227v84.311c0 14.632 11.904 26.536 26.536 26.536 7.452 0 14.197-3.088 19.021-8.051 4.825 4.963 11.57 8.051 19.022 8.051 14.632 0 26.536-11.904 26.536-26.536v-25.749c0-4.15-3.364-7.515-7.515-7.515-4.15 0-7.515 3.364-7.515 7.515v25.749c0 6.345-5.162 11.507-11.507 11.507s-11.507-5.162-11.507-11.507v-105.986c0-4.15-3.365-7.515-7.515-7.515s-7.515 3.365-7.515 7.515v105.986c0 6.345-5.162 11.507-11.507 11.507s-11.507-5.162-11.507-11.507v-197.35c0-4.15-3.364-7.515-7.515-7.515-4.15 0-7.515 3.365-7.515 7.515v89.831c0 5.737-4.668 10.405-10.406 10.405s-10.406-4.668-10.406-10.405v-95.597c0-19.344 12.166-32.436 36.16-38.91 2.58-.697 4.596-2.71 5.295-5.29.699-2.579-.024-5.336-1.9-7.239-6.901-7.004-10.701-16.271-10.701-26.094 0-20.506 16.683-37.189 37.189-37.189s37.189 16.683 37.189 37.189c0 9.76-3.761 18.985-10.59 25.977-1.868 1.913-2.58 4.674-1.868 7.251s2.739 4.582 5.324 5.265c24.312 6.425 36.639 19.559 36.639 39.04v95.598c0 5.737-4.668 10.405-10.406 10.405s-10.406-4.668-10.406-10.405v-89.831c0-4.15-3.364-7.515-7.515-7.515-4.15 0-7.515 3.365-7.515 7.515v141.542c0 4.15 3.365 7.515 7.515 7.515s7.515-3.364 7.515-7.515v-28.503c3.178 1.43 6.701 2.227 10.406 2.227 14.025 0 25.435-11.41 25.435-25.434v-95.599c.005-23.204-13.123-40.712-37.25-50.144z"/><path data-cppathid="10010" d="m474.745 119.835c5.048-8.162 7.75-17.583 7.75-27.389 0-28.794-23.425-52.219-52.219-52.219-28.793 0-52.218 23.425-52.218 52.219 0 9.897 2.747 19.392 7.876 27.598-23.791 9.479-36.73 26.912-36.73 49.935v44.908c0 4.15 3.364 7.515 7.515 7.515s7.515-3.365 7.515-7.515v-44.908c0-19.344 12.166-32.436 36.16-38.91 2.58-.697 4.596-2.71 5.295-5.29.699-2.579-.025-5.336-1.9-7.239-6.9-7.004-10.701-16.271-10.701-26.094 0-20.506 16.683-37.189 37.189-37.189s37.189 16.683 37.189 37.189c0 9.76-3.761 18.985-10.59 25.977-1.868 1.913-2.579 4.674-1.868 7.251.712 2.577 2.739 4.582 5.324 5.265 24.312 6.425 36.639 19.559 36.639 39.04v131.669c0 5.737-4.668 10.405-10.406 10.405-5.737 0-10.405-4.668-10.405-10.405v-125.902c0-4.15-3.365-7.515-7.515-7.515s-7.515 3.365-7.515 7.515v269.491c0 6.345-5.162 11.507-11.507 11.507s-11.507-5.162-11.507-11.507v-142.057c0-4.15-3.364-7.515-7.515-7.515s-7.515 3.364-7.515 7.515v142.057c0 6.345-5.162 11.507-11.507 11.507s-11.507-5.162-11.507-11.507v-269.491c0-4.15-3.365-7.515-7.515-7.515s-7.515 3.365-7.515 7.515v125.902c0 5.737-4.668 10.405-10.405 10.405-5.738 0-10.406-4.668-10.406-10.405v-56.702c0-4.15-3.364-7.515-7.515-7.515s-7.515 3.365-7.515 7.515v56.702c0 14.025 11.41 25.435 25.435 25.435 3.705 0 7.228-.797 10.405-2.227v120.381c0 14.632 11.904 26.536 26.536 26.536 7.453 0 14.197-3.088 19.022-8.051 4.825 4.964 11.569 8.051 19.022 8.051 14.632 0 26.536-11.904 26.536-26.536v-120.381c3.178 1.43 6.701 2.227 10.406 2.227 14.024 0 25.434-11.41 25.434-25.435v-131.669c.003-23.204-13.125-40.712-37.252-50.144z"/></g></g></svg>