<?xml version="1.0" encoding="UTF-8"?>
<svg xmlns="http://www.w3.org/2000/svg" onmouseup="{ if(window.parent.document.onmouseup) window.parent.document.onmouseup(arguments[0]);}" width="512" viewBox="0 0 60 60" height="512"><g fill-rule="evenodd" fill="none" id="Page-1"><g transform="translate(0 -1)" fill-rule="nonzero" id="017---Box-of-Points"><g transform="translate(1 2)" id="Icons"><path data-cppathid="10000" fill="#a0522d" d="m29 27.9999757-4.72 9.4500243c-.1710655.3395038-.5198431.5526457-.9.55h-21.76c-.3483719.002433-.67290102-.1766148-.8566239-.4726128-.18372288-.2959979-.20015577-.6662778-.0433761-.9773872l4-8c.17106553-.3395038.51984313-.5526457.9-.55z" id="Shape"/><path data-cppathid="10001" fill="#783e22" d="m26 28-4.72 9.45c-.1710655.3395038-.5198431.5526457-.9.5500243l3-.0000243c.3801569.0026457.7289345-.2104962.9-.55l4.72-9.45z" id="Shape"/><path data-cppathid="10002" fill="#a0522d" d="m56.38 38h-21.76c-.3801569.0026457-.7289345-.2104962-.9-.55l-4.72-9.4500243 23.38.0000243c.3801569-.0026457.7289345.2104962.9.55l4 8c.1567797.3111094.1403468.6813893-.0433761.9773872-.1837229.295998-.508252.4750458-.8566239.4726128z" id="Shape"/><path data-cppathid="10003" fill="#783e22" d="m57.28 36.55-4-8c-.1710655-.3395038-.5198431-.5526457-.9-.55l-3-.0000243c.3801569-.0026214.7289345.2105205.9.5500243l4 8c.1567797.3111094.1403468.6813893-.0433761.9773872-.1837229.295998-.508252.4750458-.8566239.4726128h3c.3483719.002433.672901-.1766148.8566239-.4726128.1837229-.2959979.2001558-.6662778.0433761-.9773872z" id="Shape"/><path data-cppathid="10004" fill="#91562d" d="m29 28v30h-22c-1.10320187-.0032948-1.9967052-.8967981-2-2v-18h18.38c.3801569.0026457.7289345-.2104962.9-.55z" id="Shape"/><path data-cppathid="10005" fill="#6d4122" d="m26 34.006v23.994h3v-30z" id="Shape"/><path data-cppathid="10006" fill="#91562d" d="m53 38v18c-.0032948 1.1032019-.8967981 1.9967052-2 2h-22v-30l4.72 9.45c.1710655.3395038.5198431.5526457.9.55z" id="Shape"/><path data-cppathid="10007" fill="#6d4122" d="m50 38v18c-.0032948 1.1032019-.8967981 1.9967052-2 2h3c1.1032019-.0032948 1.9967052-.8967981 2-2v-18z" id="Shape"/><path data-cppathid="10008" fill="#ffdc00" d="m30.571 1.023 2.361 4.977c.2469969.53239915.7424796.90719694 1.322 1l5.236.791c.679496.13516328 1.2296864.63290523 1.4320212 1.29550963.2023347.6626044.0240552 1.38279397-.4640212 1.87449037l-3.758 3.808c-.4251169.4379237-.6160289 1.0522595-.514 1.654l.891 5.4c.1439457.6696062-.1092922 1.3623846-.6511381 1.7813068-.5418459.4189223-1.2760653.4895856-1.8878619.1816932l-4.73-2.586c-.5030489-.277028-1.1129511-.277028-1.616 0l-4.732 2.588c-.6117966.3078924-1.346016.2372291-1.8878619-.1816932-.5418459-.4189222-.7950838-1.1117006-.6511381-1.7813068l.891-5.4c.1020289-.6017405-.0888831-1.2160763-.514-1.654l-3.756-3.807c-.4880764-.4916964-.6663559-1.21188597-.4640212-1.87449037.2023348-.6626044.7525252-1.16034635 1.4320212-1.29550963l5.236-.794c.5795204-.09280306 1.0750031-.46760085 1.322-1l2.361-4.973c.274382-.62206948.8898046-1.02380707 1.5696981-1.02467263.6798934-.00086555 1.296337.39930378 1.5723019 1.02067263z" id="Shape"/><path data-cppathid="10009" fill="#fec108" d="m40.458 10.962c.4880764-.4916964.6663559-1.21188597.4640212-1.87449037-.2023348-.6626044-.7525252-1.16034635-1.4320212-1.29550963l-5.236-.792c-.5795204-.09280306-1.0750031-.46760085-1.322-1l-2.361-4.977c-.2648496-.59807506-.8480013-.99236884-1.5016913-1.01535761s-1.2630995.32936537-1.5693087.90735761c.022.039.052.067.071.108l2.361 4.977c.2469969.53239915.7424796.90719694 1.322 1l5.236.791c.679496.13516328 1.2296864.63290523 1.4320212 1.29550963.2023347.6626044.0240552 1.38279397-.4640212 1.87449037l-3.758 3.808c-.4251169.4379237-.6160289 1.0522595-.514 1.654l.891 5.4c.093136.531936-.0467205 1.0782504-.384 1.5l.845.462c.6117966.3078924 1.346016.2372291 1.8878619-.1816932.5418459-.4189222.7950838-1.1117006.6511381-1.7813068l-.891-5.4c-.1020289-.6017405.0888831-1.2160763.514-1.654z" id="Shape"/><path data-cppathid="10010" fill="#ffdc00" d="m10.786 12.512 1.18 2.488c.1234275.2662568.371204.4536824.661.5l2.618.4c.3399623.0672739.615333.3161459.7165442.6475919.1012113.3314459.0118437.6916954-.2325442.9374081l-1.878 1.9c-.2126299.2189194-.3080974.5261242-.257.827l.446 2.7c.0714424.3347666-.0554398.6808399-.3263381.8900929-.2708983.2092529-.6377996.2445982-.9436619.0909071l-2.37-1.293c-.2516452-.1380437-.55635484-.1380437-.808 0l-2.362 1.294c-.30586233.1536911-.67276358.1183458-.9436619-.0909071-.27089833-.209253-.39778048-.5553263-.3263381-.8900929l.446-2.7c.05109742-.3008758-.0443701-.6080806-.257-.827l-1.878-1.9c-.24495284-.2456635-.33468389-.6062738-.23342482-.9380855.10125906-.3318117.377045-.5808772.71742482-.6479145l2.618-.4c.28979599-.0463176.53757254-.2337432.661-.5l1.18-2.486c.13692359-.3116429.44495241-.5130351.785348-.5134682.3403956-.0004331.6489359.2001747.786652.5114682z" id="Shape"/><path data-cppathid="10011" fill="#ffdc00" d="m48.786 12.512 1.18 2.488c.1234275.2662568.371204.4536824.661.5l2.618.4c.3399623.0672739.615333.3161459.7165442.6475919.1012113.3314459.0118437.6916954-.2325442.9374081l-1.878 1.9c-.2126299.2189194-.3080974.5261242-.257.827l.446 2.7c.0714424.3347666-.0554398.6808399-.3263381.8900929-.2708983.2092529-.6377996.2445982-.9436619.0909071l-2.37-1.293c-.2516452-.1380437-.5563548-.1380437-.808 0l-2.362 1.294c-.3058623.1536911-.6727636.1183458-.9436619-.0909071-.2708983-.209253-.3977805-.5553263-.3263381-.8900929l.446-2.7c.0510974-.3008758-.0443701-.6080806-.257-.827l-1.878-1.9c-.2443879-.2457127-.3337555-.6059622-.2325442-.9374081.1012112-.331446.3765819-.580318.7165442-.6475919l2.618-.4c.289796-.0463176.5375725-.2337432.661-.5l1.18-2.486c.1367249-.3117309.444626-.5133199.785022-.5139695s.6490643.1997627.786978.5109695z" id="Shape"/><path data-cppathid="10012" fill="#fec108" d="m53.729 17.481c.2443879-.2457127.3337555-.6059622.2325442-.9374081-.1012112-.331446-.3765819-.580318-.7165442-.6475919l-2.618-.4c-.289796-.0463176-.5375725-.2337432-.661-.5l-1.18-2.486c-.1373203-.3114676-.4456047-.5124672-.786-.5124672s-.6486797.2009996-.786.5124672l-.714 1.5.466.981c.1234275.2662568.371204.4536824.661.5l2.618.4c.3399623.0672739.615333.3161459.7165442.6475919.1012113.3314459.0118437.6916954-.2325442.9374081l-1.878 1.9c-.2124626.2186098-.3079288.5254391-.257.826l.446 2.7v.036l1.729.945c.3058623.1536911.6727636.1183458.9436619-.0909071.2708983-.209253.3977805-.5553263.3263381-.8900929l-.446-2.7c-.0509288-.3005609.0445374-.6073902.257-.826z" id="Shape"/></g><g fill="#000" id="Icons_copy"><path data-cppathid="10013" d="m2.618 41h2.382v17c0 1.6568542 1.34314575 3 3 3h44c1.6568542 0 3-1.3431458 3-3v-17h2.382c.6947884.0010227 1.3403254-.3586134 1.7051109-.9499369.3647854-.5913236.396545-1.3295969.0838891-1.9500631l-4-8c-.3380169-.6775994-1.0317821-1.1041738-1.789-1.1h-46.764c-.75826995-.0029956-1.45220632.4256236-1.789 1.105l-4 8c-.31027239.6200482-.27727143 1.3565593.08721145 1.9463736.36448288.5898144 1.00844249.9487762 1.70178855.9486264zm4.382 17v-17h17.382c.7571514.0039364 1.4508012-.4225671 1.789-1.1l2.829-5.664v24.764h-21c-.55228475 0-1-.4477153-1-1zm46 0c0 .5522847-.4477153 1-1 1h-21v-24.764l2.829 5.658c.336329.6799318 1.0304388 1.1090461 1.789 1.106h17.382zm.382-27 4 8h-21.764l-4-8zm-46.764 0h21.764l-4 8h-21.764z" id="Shape"/><path data-cppathid="10014" d="m42.17 13.665c.7686009-.7825985 1.030851-1.9313933.678-2.97-.3186734-.99822188-1.1729901-1.73143301-2.208-1.895l-5.24-.788c-.2517158-.04428565-.4647619-.21119676-.568-.445l-2.357-4.967c-.4407374-.97105269-1.4086076-1.59465722-2.475-1.59465722s-2.0342626.62360453-2.475 1.59465722l-2.36 4.972c-.1032381.23380324-.3162842.40071435-.568.445l-5.237.783c-1.0362718.16441632-1.8909001.89983022-2.208 1.9-.352851 1.0386067-.0906009 2.1874015.678 2.97l3.757 3.807c.2003201.2097871.2890333.5022809.239.788l-.891 5.4c-.1920426 1.0907174.2615269 2.194468 1.165 2.835.8358894.600621 1.9428625.666401 2.844.169l4.732-2.586c.2042794-.1149231.4537206-.1149231.658 0l4.732 2.586c.9011375.497401 2.0081106.431621 2.844-.169.9012274-.6416097 1.3527088-1.7446254 1.16-2.834l-.891-5.4c-.0502022-.2860341.0385124-.5789036.239-.789zm-5.181 2.4c-.6483658.6661324-.9409595 1.6010955-.788 2.518l.892 5.4c.0673764.3347976-.0671219.6780812-.344.878-.2121837.1593043-.4988346.1769988-.729.045l-4.732-2.586c-.8019359-.4414197-1.7740641-.4414197-2.576 0l-4.732 2.591c-.2301027.1322668-.5169115.1145626-.729-.045-.2768781-.1999188-.4113764-.5432024-.344-.878l.892-5.4c.1529595-.9169045-.1396342-1.8518676-.788-2.518l-3.757-3.81c-.237875-.2480825-.3152877-.6092127-.2-.933.0818293-.2831364.317726-.4949779.608-.546l5.238-.791c.9093187-.14368635 1.6875564-.73036362 2.076-1.565l2.36-4.972c.1089088-.27353705.3735791-.45303572.668-.45303572s.5590912.17949867.668.45303572l2.36 4.973c.3871625.83214268 1.1618792 1.41805028 2.068 1.564l5.237.791c.290274.0510221.5261707.2628636.608.546.1152877.3237873.037875.6849175-.2.933z" id="Shape"/><path data-cppathid="10015" d="m6.42 22.048-.446 2.7c-.12831012.7336696.17676213 1.4757267.784 1.907.57421221.4113249 1.33381068.4556867 1.952.114l2.29-1.249 2.29 1.251c.6180203.3424302 1.3780422.2980436 1.952-.114.6072379-.4312733.9123101-1.1733304.784-1.907l-.464-2.663 1.879-1.9c.5194509-.5246917.6972285-1.2981597.459-1.997-.2178289-.6764601-.7979513-1.1726581-1.5-1.283l-2.548-.385-1.159-2.439c-.3025996-.6599169-.9620132-1.0829813-1.688-1.0829813s-1.38540044.4230644-1.688 1.0829813l-1.164 2.439-2.548.385c-.70394757.1086003-1.28636805.6051089-1.505 1.283-.23700758.6976071-.06015924 1.4692386.457 1.994zm2.1-3.559c.61961565-.0956002 1.15073138-.493937 1.416-1.062l1.064-2.238 1.062 2.238c.2652686.568063.7963844.9663998 1.416 1.062l2.459.372-1.8 1.823c-.4360216.4470432-.6331937 1.074949-.531 1.691l.464 2.544-2.187-1.2c-.550484-.3026231-1.217516-.3026231-1.768 0l-2.138 1.174.416-2.519c.10177231-.6165057-.09573394-1.2446647-.532-1.692l-1.819-1.818z" id="Shape"/><path data-cppathid="10016" d="m50.688 14.083c-.3025996-.6599169-.9620132-1.0829813-1.688-1.0829813s-1.3854004.4230644-1.688 1.0829813l-1.159 2.439-2.548.385c-.7020487.1103419-1.2821711.6065399-1.5 1.283-.2370076.6976071-.0601592 1.4692386.457 1.994l1.861 1.864-.446 2.7c-.1283101.7336696.1767621 1.4757267.784 1.907.5742122.4113249 1.3338107.4556867 1.952.114l2.287-1.249 2.29 1.251c.6180203.3424302 1.3780422.2980436 1.952-.114.6072379-.4312733.9123101-1.1733304.784-1.907l-.464-2.663 1.879-1.9c.5194509-.5246917.6972285-1.2981597.459-1.997-.2178289-.6764601-.7979513-1.1726581-1.5-1.283l-2.548-.385zm1.45 6.6c-.4360216.4470432-.6331937 1.074949-.531 1.691l.464 2.544-2.187-1.2c-.550484-.3026231-1.217516-.3026231-1.768 0l-2.139 1.169.416-2.519c.1017723-.6165057-.0957339-1.2446647-.532-1.692l-1.819-1.818 2.48-.375c.6196156-.0956002 1.1507314-.493937 1.416-1.062l1.062-2.232 1.062 2.238c.2652686.568063.7963844.9663998 1.416 1.062l2.459.372z" id="Shape"/><path data-cppathid="10017" d="m23 5c.3475069.00190212.6710847-.17674355.8546237-.47183356.1835391-.29509001.2007194-.66430762.0453763-.97516644l-1-2c-.2468713-.49429485-.8477051-.69487128-1.342-.448s-.6948713.84770515-.448 1.342l1 2c.1686168.3374448.5127763.55128772.89.553z" id="Shape"/><path data-cppathid="10018" d="m18.293 6.707c.3923789.37897221 1.0160848.37355237 1.4018186-.01218142.3857338-.3857338.3911536-1.00943969.0121814-1.40181858l-1-1c-.3923789-.37897221-1.0160848-.37355237-1.4018186.01218142-.3857338.3857338-.3911536 1.00943969-.0121814 1.40181858z" id="Shape"/><path data-cppathid="10019" d="m37 5c.3808256.00207881.7297741-.21233064.9-.553l1-2c.2468713-.49705627.0440563-1.10012872-.453-1.347s-1.1001287-.04405627-1.347.453l-1 2c-.1553431.31085882-.1381628.68007643.0453763.97516644.183539.29509001.5071168.47373568.8546237.47183356z" id="Shape"/><path data-cppathid="10020" d="m41.707 6.707 1-1c.2599566-.25107447.3642126-.62287789.2726972-.97250732-.0915155-.34962944-.3645604-.6226744-.7141899-.71418984-.3496294-.09151544-.7214328.01274058-.9725073.27269716l-1 1c-.2599566.25107447-.3642126.62287789-.2726972.97250732.0915155.34962944.3645604.6226744.7141899.71418984.3496294.09151544.7214328-.01274058.9725073-.27269716z" id="Shape"/></g></g></g></svg>