<?xml version="1.0" encoding="UTF-8"?>
<svg xmlns="http://www.w3.org/2000/svg" onmouseup="{ if(window.parent.document.onmouseup) window.parent.document.onmouseup(arguments[0]);}" width="512" viewBox="0 0 6.3499999 6.3500002" height="512" id="svg8" xmlns:svg="http://www.w3.org/2000/svg"><g transform="translate(0 -290.65)" id="layer1"><path data-cppathid="10000" vector-effect="none" solid-opacity="1" solid-color="rgb(0,0,0)" mix-blend-mode="normal" isolation="auto" shape-padding="0" white-space="normal" text-orientation="mixed" text-transform="none" text-decoration-color="rgb(0,0,0)" text-decoration-style="solid" text-decoration-line="none" text-align="start" text-indent="0" font-feature-settings="normal" font-variant-alternates="normal" font-variant-numeric="normal" font-variant-caps="normal" font-variant-position="normal" font-variant-ligatures="normal" d="m1.8487919 291.17924a.26420917.26426366 0 0 0 -.1816256.08l-1.05673093 1.05694a.26420917.26426366 0 0 0 0 .37468l1.05673093 1.05696a.26420917.26426366 0 1 0 .3725389-.37417l-.6047308-.60486h4.1170197a.26424431.2642988 0 0 0 0-.52847h-4.1190836l.6067947-.60692a.26420917.26426366 0 0 0 -.1909133-.45416zm2.6459553 2.64289a.26420917.26426366 0 0 0 -.1831737.45467l.6047309.60434h-4.11701967a.2642493.26430381 0 1 0 0 .52848h4.11908347l-.6067947.60692a.26420917.26426366 0 1 0 .3746029.37262l1.0567309-1.05541a.26420917.26426366 0 0 0 0-.37468l-1.0567309-1.05694a.26420917.26426366 0 0 0 -.1914292-.08z" id="path49"/></g></svg>