<?xml version="1.0" encoding="UTF-8"?>
<svg xmlns="http://www.w3.org/2000/svg" onmouseup="{ if(window.parent.document.onmouseup) window.parent.document.onmouseup(arguments[0]);}" xml:space="preserve" style="enable-background:new 0 0 456.832 456.832;" viewBox="0 0 456.832 456.832" y="0px" x="0px" id="Layer_1" version="1.1" xmlns:xlink="http://www.w3.org/1999/xlink"><g><g><g><polygon data-cppathid="10000" points="399.083,15.083 399.083,70.251 328.832,0 298.667,30.165 368.917,100.416 313.749,100.416 313.749,143.083      441.749,143.083 441.749,15.083    "/><polygon data-cppathid="10001" points="143.083,356.416 143.083,313.749 15.083,313.749 15.083,441.749 57.749,441.749 57.749,386.581 128,456.832      158.165,426.667 87.915,356.416    "/><path data-cppathid="10002" d="M377.749,164.416H228.416c-23.531,0-42.667,19.157-42.667,42.667v192c0,23.531,19.136,42.667,42.667,42.667h149.333     c23.531,0,42.667-19.136,42.667-42.667v-192C420.416,183.573,401.28,164.416,377.749,164.416z M228.416,399.083v-192h149.333     l0.021,192H228.416z"/><path data-cppathid="10003" d="M79.083,57.749h149.333v85.333h42.667V57.749c0-23.509-19.136-42.667-42.667-42.667H79.083     c-23.531,0-42.667,19.157-42.667,42.667v192c0,23.531,19.136,42.667,42.667,42.667h85.333v-42.667H79.083V57.749z"/></g></g></g><g/><g/><g/><g/><g/><g/><g/><g/><g/><g/><g/><g/><g/><g/><g/></svg>