<?xml version="1.0" encoding="UTF-8"?>
<svg xmlns="http://www.w3.org/2000/svg" onmouseup="{ if(window.parent.document.onmouseup) window.parent.document.onmouseup(arguments[0]);}" width="512" viewBox="0 0 64 64" height="512"><g id="Icons"><g><g><g><path data-cppathid="10000" fill="#f0f0f0" d="m48 12v43c0 .55-.44 1-1 1h-38c-.55 0-1-.45-1-1v-50c0-.55.45-1 1-1h31z"/></g><g><path data-cppathid="10001" fill="#d2d2d2" d="m43.5 31.131c0-4.361 0-4.011 0-6.922l.942-.432c.737-.369.737-1.42 0-1.789l-14.997-6.882c-.282-.141-.613-.141-.894 0l-14.993 6.882c-.737.368-.737 1.42 0 1.789l5.442 2.497v9.726c0 .55.44 1 1 1h18c.55 0 1-.45 1-1 0-3.681 0-6.001 0-9.726l3.5-1.606v6.461c-.864.221-1.505.998-1.505 1.931v3c0 .552.448 1 1 1h2c.552 0 1-.448 1-1v-3c0-.93-.636-1.704-1.495-1.929z"/></g><g><path data-cppathid="10002" fill="#d2d2d2" d="m48 12v1h-7c-1.1 0-2-.9-2-2v-7h1z"/></g><g><path data-cppathid="10003" fill="#f0f0f0" d="m48 12h-7c-.552 0-1-.448-1-1v-7z"/></g></g><g><g><path data-cppathid="10004" fill="#fab400" d="m41.5 22.062h1v10h-1z"/></g><g><path data-cppathid="10005" fill="#dc9600" d="m42.5 22.062v2.6l-1 .46v-3.06z"/></g><g><path data-cppathid="10006" fill="#0a5078" d="m38 24.03v10.97c0 .55-.45 1-1 1h-18c-.56 0-1-.45-1-1v-10.97z"/></g><g><path data-cppathid="10007" fill="#00325a" d="m38 24.03v2.25l-9.55 4.38c-.29.14-.62.14-.9 0l-9.55-4.38v-2.25z"/></g><g><path data-cppathid="10008" fill="#00143c" d="m42.995 36.059h-2c-.552 0-1-.448-1-1v-3c0-1.105.895-2 2-2 1.105 0 2 .895 2 2v3c0 .552-.448 1-1 1z"/></g><g><path data-cppathid="10009" fill="#0a5078" d="m27.551 29.658-14.993-6.882c-.737-.369-.737-1.42 0-1.789l14.993-6.882c.282-.141.613-.141.894 0l14.997 6.882c.737.369.737 1.42 0 1.789l-14.997 6.882c-.281.141-.613.141-.894 0z"/></g></g><g><path data-cppathid="10010" fill="#c80a50" d="m60 45v14c0 .55-.45 1-1 1h-26c-.55 0-1-.45-1-1v-14c0-.55.45-1 1-1h26c.55 0 1 .45 1 1z"/></g><g><path data-cppathid="10011" fill="#a00028" d="m57 44v12c0 .55-.45 1-1 1h-24v-12c0-.55.45-1 1-1z"/></g><g><path data-cppathid="10012" fill="#f0f0f0" d="m58 49v6c0 .55-.45 1-1 1s-1 .45-1 1-.45 1-1 1h-18c-.55 0-1-.45-1-1s-.45-1-1-1-1-.45-1-1v-6c0-.55.45-1 1-1s1-.45 1-1 .45-1 1-1h18c.55 0 1 .45 1 1s.45 1 1 1 1 .45 1 1z"/></g><g><path data-cppathid="10013" fill="#d2d2d2" d="m57 48v8c-.55 0-1 .45-1 1h-20c0-.55-.45-1-1-1s-1-.45-1-1v-6c0-.55.45-1 1-1s1-.45 1-1 .45-1 1-1h18c.55 0 1 .45 1 1s.45 1 1 1z"/></g><g><path data-cppathid="10014" fill="#00a0c8" d="m55 56h-26c-.552 0-1-.448-1-1v-14c0-.552.448-1 1-1h26c.552 0 1 .448 1 1v14c0 .552-.448 1-1 1z"/></g><g><path data-cppathid="10015" fill="#f0f0f0" d="m54 45v6c0 .552-.448 1-1 1-.552 0-1 .448-1 1 0 .552-.448 1-1 1h-18c-.552 0-1-.448-1-1 0-.552-.448-1-1-1-.552 0-1-.448-1-1v-6c0-.552.448-1 1-1 .552 0 1-.448 1-1 0-.552.448-1 1-1h18c.552 0 1 .448 1 1 0 .552.448 1 1 1 .552 0 1 .448 1 1z"/></g><g><circle data-cppathid="10016" r="4" fill="#00a0c8" cy="48" cx="42"/></g><g><circle data-cppathid="10017" r="2" fill="#f0f0f0" cy="48" cx="42"/></g><g><path data-cppathid="10018" fill="#00a0c8" d="m34 50c-.552 0-1-.448-1-1v-2c0-.552.448-1 1-1 .552 0 1 .448 1 1v2c0 .552-.448 1-1 1z"/></g><g><path data-cppathid="10019" fill="#00a0c8" d="m50 50c-.552 0-1-.448-1-1v-2c0-.552.448-1 1-1 .552 0 1 .448 1 1v2c0 .552-.448 1-1 1z"/></g><g><path data-cppathid="10020" fill="#00325a" d="m19 10h-6c-.552 0-1-.448-1-1 0-.552.448-1 1-1h6c.552 0 1 .448 1 1 0 .552-.448 1-1 1z"/></g><g><path data-cppathid="10021" fill="#00325a" d="m23 48h-10c-.552 0-1-.448-1-1 0-.552.448-1 1-1h10c.552 0 1 .448 1 1 0 .552-.448 1-1 1z"/></g><g><path data-cppathid="10022" fill="#00325a" d="m23 44h-10c-.552 0-1-.448-1-1 0-.552.448-1 1-1h10c.552 0 1 .448 1 1 0 .552-.448 1-1 1z"/></g><g><path data-cppathid="10023" fill="#c80a50" d="m19 14h-6c-.552 0-1-.448-1-1 0-.552.448-1 1-1h6c.552 0 1 .448 1 1 0 .552-.448 1-1 1z"/></g></g></g></svg>