<?xml version="1.0" encoding="UTF-8"?>
<svg xmlns="http://www.w3.org/2000/svg" onmouseup="{ if(window.parent.document.onmouseup) window.parent.document.onmouseup(arguments[0]);}" width="512" viewBox="0 0 58 58" height="512"><g fill-rule="evenodd" fill="none" id="Page-1"><g transform="translate(-1 -1)" fill-rule="nonzero" id="082---Financial-Basket"><path data-cppathid="10000" fill="#7ed09e" d="m58.71 12.62-4.09-4.1-3.15-3.15-4.08-4.08c-.3900375-.38772359-1.0199625-.38772359-1.41 0l-3.78 3.79-3.2 3.19v-6.27c0-.55228475-.4477153-1-1-1h-16c-.5522847 0-1 .44771525-1 1v6.27l-3.2-3.19-3.78-3.79c-.3900375-.38772359-1.0199625-.38772359-1.41 0l-4.08 4.08-3.15 3.15-4.09 4.1c-.38772359.3900375-.38772359 1.0199625 0 1.41l3.79 3.79 5.96 5.96c-.03.4-.04.81-.04 1.22v1l2 2 2-2h30l2 2 2-2v-1c0-.41-.01-.82-.04-1.22l5.97-5.96 3.78-3.79c.3877236-.3900375.3877236-1.0199625 0-1.41z" id="Shape"/><path data-cppathid="10001" fill="#f0c419" d="m8 34 3.326 20.79c.3881691 2.4259074 2.4812335 4.2103953 4.938 4.21h27.472c2.4567665.0003953 4.5498309-1.7840926 4.938-4.21l3.326-20.79-22-2z" id="Shape"/><path data-cppathid="10002" fill="#a56a43" d="m49 25v1l-2 2-2-2v-1c.0057795-3.9787553-1.5782889-7.7949201-4.4-10.6-.5001638-.503268-1.0347922-.9710679-1.6-1.4-4.5452647-3.40894853-10.6264435-3.95728808-15.7082039-1.4164079-5.0817605 2.5408802-8.2917961 7.734827-8.2917961 13.4164079v1l-2 2-2-2v-1c0-.41.01-.82.04-1.22.4294255-6.5395976 4.1919399-12.3986938 9.96-15.51 1.3109041-.71465748 2.7046901-1.26545485 4.15-1.64 3.1787787-.83998402 6.5212213-.83998402 9.7 0 1.4453099.37454515 2.8390959.92534252 4.15 1.64 5.7789376 3.0995528 9.5457879 8.965401 9.96 15.51.03.4.04.81.04 1.22z" id="Shape"/><path data-cppathid="10003" fill="#4fba6f" d="m45 25 .0000158 1h-6.0000158v-13c.5652078.4289321 1.0998362.896732 1.6 1.4 2.8217111 2.8050799 4.4057795 6.6212447 4.4 10.6z" id="Shape"/><path data-cppathid="10004" fill="#4fba6f" d="m21 13v13h-6v-1c0-4.7213595 2.2229124-9.1671843 6-12z" id="Shape"/><path data-cppathid="10005" fill="#7ed09e" d="m39 13v13h-18v-13c5.3333333-4 12.6666667-4 18 0z" id="Shape"/><path data-cppathid="10006" fill="#4fba6f" d="m28.0000052 1c.0027192 2.22390612-1.0561159 4.31556973-2.8500052 5.63-1.4453099.37454515-2.8390959.92534252-4.15 1.64v-6.27c0-.55228475.4477153-1 1-1z" id="Shape"/><path data-cppathid="10007" fill="#4fba6f" d="m39 2v6.27c-1.3109041-.71465748-2.7046901-1.26545485-4.15-1.64-1.7938893-1.31443027-2.8527244-3.40609388-2.8500052-5.63h6.0000052c.2652165 0 .5195704.10535684.7071068.29289322s.2928932.44189029.2928932.70710678z" id="Shape"/><path data-cppathid="10008" fill="#24ae5f" d="m30 23c-2.7614237 0-5-2.2385763-5-5s2.2385763-5 5-5 5 2.2385763 5 5c-.0033061 2.7600532-2.2399468 4.9966939-5 5zm0-8c-1.6568542 0-3 1.3431458-3 3s1.3431458 3 3 3 3-1.3431458 3-3-1.3431458-3-3-3z" id="Shape"/><g fill="#4fba6f"><path data-cppathid="10009" d="m17.8 5.08c-1.295042 1.22993617-3.0139817 1.91393092-4.8 1.91-1.6351406.00818308-3.21977093-.56611249-4.47-1.62l4.08-4.08c.3900375-.38772359 1.0199625-.38772359 1.41 0z" id="Shape"/><path data-cppathid="10010" d="m7 13c.00412195 1.7909177-.68375666 3.5141969-1.92 4.81v.01l-3.79-3.79c-.38772359-.3900375-.38772359-1.0199625 0-1.41l4.09-4.1c1.05259565 1.25488598 1.62655052 2.8421192 1.62 4.48z" id="Shape"/><path data-cppathid="10011" d="m58.71 14.03-3.78 3.79-.01-.01c-2.4408224-2.5727582-2.5697471-6.5651244-.3-9.29l4.09 4.1c.3877236.3900375.3877236 1.0199625 0 1.41z" id="Shape"/><path data-cppathid="10012" d="m51.47 5.37c-1.2502291 1.05388751-2.8348594 1.62818308-4.47 1.62-1.7860183.00393092-3.504958-.68006383-4.8-1.91l3.78-3.79c.3900375-.38772359 1.0199625-.38772359 1.41 0z" id="Shape"/></g><path data-cppathid="10013" fill="#b19046" d="m40 38h-14c0-.5522847-.4477153-1-1-1s-1 .4477153-1 1h-4c0-.5522847-.4477153-1-1-1s-1 .4477153-1 1h-4c-.5522847 0-1 .4477153-1 1s.4477153 1 1 1h4v3h-1c-.5522847 0-1 .4477153-1 1s.4477153 1 1 1h1v1c0 .5522847.4477153 1 1 1s1-.4477153 1-1v-1h4v1c0 .5522847.4477153 1 1 1s1-.4477153 1-1v-1h12c.5522847 0 1-.4477153 1-1s-.4477153-1-1-1h-12v-3h14c.5522847 0 1-.4477153 1-1s-.4477153-1-1-1zm-16 5h-4v-3h4z" id="Shape"/><rect data-cppathid="10014" y="26" x="5" width="50" rx="2" height="8" fill="#f3d55b" id="Rectangle-path"/></g></g></svg>