<?xml version="1.0" encoding="UTF-8"?>
<svg xmlns="http://www.w3.org/2000/svg" onmouseup="{ if(window.parent.document.onmouseup) window.parent.document.onmouseup(arguments[0]);}" width="512" viewBox="0 0 512 512" height="512" enable-background="new 0 0 512 512" id="Layer_1"><g><path data-cppathid="10000" fill="#fdfdfd" d="m16 154.8389v266.7021c0 7.6865 6.2412 13.9399 13.9121 13.9399h325.5547c43.2773 0 70.0654-37.252 70.0654-71.7661 0-2.5024 1.1709-4.8604 3.1641-6.373 1.9941-1.5132 4.5811-2.0059 6.9902-1.3315l60.3135 16.8618v-218.0332z"/><path data-cppathid="10001" fill="#212121" d="m299.6406 206.1245c-2.3125-2.2212-5.7246-2.8481-8.6787-1.5908-2.9492 1.2563-4.8643 4.1533-4.8643 7.3599v30.749h-78.7393c-46.3779 0-84.1094 37.7441-84.1094 84.1377v51.6182c0 4.0146 2.9756 7.4077 6.9561 7.9316.3525.0464.7031.0688 1.0508.0688 3.5732 0 6.7744-2.396 7.7207-5.9312 5.8271-21.7578 24.1992-32.79 54.6055-32.79h92.5156v30.7207c0 3.2061 1.9141 6.1025 4.8633 7.3594 2.9502 1.2568 6.3643.6318 8.6777-1.5884l43.3438-41.6162 43.3125-41.6401c1.5693-1.5088 2.4561-3.5918 2.4561-5.7686s-.8877-4.2593-2.458-5.7676zm32.2569 124.8911-29.7998 28.6113v-19.9492c0-4.4185-3.582-8-8-8h-100.5157c-26.6172 0-43.5742 7.458-54.333 17.5767v-22.4741c0-37.5713 30.5537-68.1377 68.1094-68.1377h86.7393c4.418 0 8-3.5815 8-8v-19.9688l67.1084 64.4741zm150.1914-269.6181h-47.8418v-19.1553c0-10.415-10.8848-18.5732-24.7813-18.5732-13.8955 0-24.7803 8.1582-24.7803 18.5732v19.1553h-52.7393v-19.1553c0-10.415-10.8848-18.5732-24.7813-18.5732s-24.7813 8.1582-24.7813 18.5732v19.1553h-52.7676v-19.1553c0-10.415-10.8848-18.5732-24.7803-18.5732-13.8965 0-24.7813 8.1582-24.7813 18.5732v19.1553h-52.7393v-19.1553c0-10.415-10.8848-18.5732-24.7803-18.5732-13.8965 0-24.7813 8.1582-24.7813 18.5732v19.1553h-47.8414c-16.4932 0-29.9121 13.4184-29.9121 29.9116v367.1104c0 16.4932 13.4189 29.9116 29.9121 29.9116h452.1768c16.4932 0 29.9111-13.4185 29.9111-29.9116v-367.1104c0-16.4932-13.418-29.9116-29.9111-29.9116zm-46.4024 294.6128c-2.4092-.6743-4.9961-.1816-6.9902 1.3315-1.9932 1.5127-3.1641 3.8706-3.1641 6.373 0 34.5142-26.7881 71.7661-70.0654 71.7661h-325.5547c-7.6709.0001-13.9121-6.2534-13.9121-13.9399v-266.7021h480v218.0332zm48.1377 30.0712-59.2139 35.1226c-2.6699 1.5801-5.3232 3.0195-7.9775 4.3242.6924-.7271 1.375-1.4697 2.0459-2.2251 12.1895-13.7246 20.0166-31.23 22.2168-49.2231zm-83.1387-343.5449c.6553-.9409 3.7754-2.8677 8.7803-2.8677 4.9971 0 8.1201 1.9292 8.7813 2.874v18.8545h-17.5615v-18.8608zm-102.3017 0c.6553-.9409 3.7764-2.8677 8.7813-2.8677 4.9961 0 8.1201 1.9297 8.7813 2.874v18.8545h-17.5625v-18.8608zm-102.3291.0064c.6611-.9448 3.7842-2.874 8.7813-2.874 5.0049 0 8.125 1.9268 8.7803 2.8677v18.8608h-17.5615v-18.8545zm-102.3008-.0064c.6553-.9409 3.7754-2.8677 8.7813-2.8677 5.0049 0 8.125 1.9268 8.7803 2.8677v18.8608h-17.5616zm-63.8418 34.8609h47.8418v12.6645c0 10.4307 10.8848 18.6011 24.7813 18.6011 4.418 0 8-3.5815 8-8s-3.582-8-8-8c-5.0146 0-8.1328-1.9438-8.7813-2.8906v-12.375h86.3008v12.6645c0 10.4307 10.8848 18.6011 24.7813 18.6011 4.418 0 8-3.5815 8-8s-3.582-8-8-8c-5.0059 0-8.127-1.9468-8.7813-2.8965v-12.3691h86.3291v12.6645c0 10.4307 10.8848 18.6011 24.7813 18.6011 4.418 0 8-3.5815 8-8s-3.582-8-8-8c-5.0137 0-8.1328-1.9438-8.7813-2.8906v-12.375h86.3018v12.6645c0 10.4307 10.8848 18.6011 24.7803 18.6011 4.418 0 8-3.5815 8-8s-3.582-8-8-8c-5.0137 0-8.1318-1.9438-8.7803-2.8906v-12.375h81.4033c7.6709 0 13.9111 6.2407 13.9111 13.9116v47.5298h-480v-47.5298c0-7.6709 6.2412-13.9116 13.9121-13.9116zm452.1768 394.9336h-452.1768c-7.6709 0-13.9121-6.2407-13.9121-13.9116v-10.3785c4.1582 2.1963 8.8926 3.4399 13.9121 3.4399h342.6475c22.0381 0 41.167-5.2451 60.2061-16.5112l63.2343-37.5074v60.9572c0 7.6708-6.2402 13.9116-13.9111 13.9116z"/><path data-cppathid="10002" fill="#4cd3aa" d="m294.0977 331.6777c4.418 0 8 3.5815 8 8v19.9492l29.7998-28.6113 37.3086-35.8677-67.1084-64.4741v19.9688c0 4.4185-3.582 8-8 8h-86.7393c-37.5557 0-68.1094 30.5664-68.1094 68.1377v22.4741c10.7588-10.1187 27.7158-17.5767 54.333-17.5767z"/><path data-cppathid="10003" fill="#686bdf" d="m482.0889 77.3975h-81.4033v12.375c.6484.9468 3.7666 2.8906 8.7803 2.8906 4.418 0 8 3.5815 8 8s-3.582 8-8 8c-13.8955 0-24.7803-8.1704-24.7803-18.6011v-12.6645h-86.3018v12.375c.6484.9468 3.7676 2.8906 8.7813 2.8906 4.418 0 8 3.5815 8 8s-3.582 8-8 8c-13.8965 0-24.7813-8.1704-24.7813-18.6011v-12.6645h-86.3291v12.3691c.6543.9497 3.7754 2.8965 8.7813 2.8965 4.418 0 8 3.5815 8 8s-3.582 8-8 8c-13.8965 0-24.7813-8.1704-24.7813-18.6011v-12.6645h-86.3008v12.375c.6484.9468 3.7666 2.8906 8.7813 2.8906 4.418 0 8 3.5815 8 8s-3.582 8-8 8c-13.8965 0-24.7813-8.1704-24.7813-18.6011v-12.6645h-47.8418c-7.6709 0-13.9121 6.2407-13.9121 13.9116v47.5298h480v-47.5298c0-7.6709-6.2402-13.9116-13.9111-13.9116z"/><path data-cppathid="10004" fill="#e3e6ea" d="m440.8955 374.0801c-2.2002 17.9932-10.0273 35.4985-22.2168 49.2231-.6709.7554-1.3535 1.498-2.0459 2.2251 2.6543-1.3047 5.3076-2.7441 7.9775-4.3242l59.2139-35.1226z"/><path data-cppathid="10005" fill="#ced4df" d="m372.5596 451.481h-342.6475c-5.0195 0-9.7539-1.2437-13.9121-3.4399v10.3784c0 7.6709 6.2412 13.9116 13.9121 13.9116h452.1768c7.6709 0 13.9111-6.2407 13.9111-13.9116v-60.957l-63.2344 37.5073c-19.039 11.266-38.1679 16.5112-60.206 16.5112z"/></g></svg>