<?xml version="1.0" encoding="UTF-8"?>
<svg xmlns="http://www.w3.org/2000/svg" onmouseup="{ if(window.parent.document.onmouseup) window.parent.document.onmouseup(arguments[0]);}" width="512" viewBox="0 0 512.019 512.019" height="512" enable-background="new 0 0 512.019 512.019" id="Capa_1"><g><path data-cppathid="10000" d="m256.009 120.009c8.284 0 15-6.716 15-15v-53c0-8.284-6.716-15-15-15s-15 6.716-15 15v53c0 8.285 6.716 15 15 15z"/><path data-cppathid="10001" d="m173.277 145.491c5.857 5.858 15.355 5.859 21.213 0 5.858-5.858 5.858-15.355 0-21.213l-37.477-37.477c-5.857-5.858-15.355-5.858-21.213 0s-5.858 15.355 0 21.213z"/><path data-cppathid="10002" d="m328.134 149.884c3.839 0 7.678-1.464 10.606-4.394l37.477-37.477c5.858-5.858 5.858-15.355 0-21.213-5.857-5.858-15.355-5.858-21.213 0l-37.477 37.477c-9.477 9.477-2.636 25.607 10.607 25.607z"/><path data-cppathid="10003" d="m511.326 455.535-40-128c-1.957-6.262-7.757-10.526-14.317-10.526h-69.972l-36.711-117.474c-1.957-6.262-7.757-10.526-14.317-10.526h-160c-6.561 0-12.36 4.264-14.317 10.526l-36.711 117.474h-69.972c-6.561 0-12.36 4.264-14.317 10.526l-40 128c-3.012 9.637 4.189 19.474 14.317 19.474h482c10.096 0 17.337-9.806 14.317-19.474zm-324.289-236.526h137.944l30.625 98c-23.722 0-175.471 0-199.194 0zm68.972 190.711-19.597-62.71h39.194zm-220.597 35.289 30.625-98h138.944l30.625 98zm241 0 30.625-98h138.943l30.625 98z"/></g></svg>