<?xml version="1.0" encoding="UTF-8"?>
<svg xmlns="http://www.w3.org/2000/svg" onmouseup="{ if(window.parent.document.onmouseup) window.parent.document.onmouseup(arguments[0]);}" width="512" viewBox="0 0 512 512" height="512" enable-background="new 0 0 512 512" id="Capa_1"><g><path data-cppathid="10000" d="m233 40h-40c-5.523 0-10 4.478-10 10v56h-30c-5.523 0-10 4.478-10 10v50h-20v-30c0-5.522-4.477-10-10-10h-40c-5.523 0-10 4.478-10 10v110h-13c-5.523 0-10 4.478-10 10s4.477 10 10 10h246c5.523 0 10-4.478 10-10s-4.477-10-10-10h-13v-50c0-5.522-4.477-10-10-10h-30v-136c0-5.522-4.477-10-10-10zm-130 206h-20v-100h20zm40 0h-20v-60h20zm40 0h-20v-120h20zm40 0h-20v-186h20zm40-40v40h-20v-40z"/><path data-cppathid="10001" d="m482 246h-136v-216c0-16.542-13.458-30-30-30h-98c-5.523 0-10 4.478-10 10s4.477 10 10 10h98c5.514 0 10 4.486 10 10v246c0 5.514-4.486 10-10 10h-186c-1.974 0-3.904.584-5.547 1.68l-44.453 29.634v-21.314c0-5.522-4.477-10-10-10h-40c-5.514 0-10-4.486-10-10v-246c0-5.514 4.486-10 10-10h98c5.523 0 10-4.478 10-10s-4.477-10-10-10h-98c-16.542 0-30 13.458-30 30v246c0 16.542 13.458 30 30 30h30v30c0 3.688 2.03 7.076 5.281 8.816 3.243 1.737 7.189 1.554 10.266-.496l57.481-38.32h112.972v136c0 16.542 13.458 30 30 30h122.972l57.481 38.32c3.021 2.015 6.968 2.262 10.266.496 3.251-1.74 5.281-5.129 5.281-8.816v-30h10c16.542 0 30-13.458 30-30v-166c0-16.542-13.458-30-30-30zm10 196c0 5.514-4.486 10-10 10h-20c-5.523 0-10 4.478-10 10v21.314l-44.453-29.635c-1.643-1.096-3.573-1.68-5.547-1.68h-126c-5.514 0-10-4.486-10-10v-135.999h50c16.542 0 30-13.458 30-30v-10h136c5.514 0 10 4.486 10 10z"/><path data-cppathid="10002" d="m462 346h-166c-5.523 0-10 4.478-10 10s4.477 10 10 10h166c5.523 0 10-4.478 10-10s-4.477-10-10-10z"/><path data-cppathid="10003" d="m356 326h66c5.523 0 10-4.478 10-10s-4.477-10-10-10h-66c-5.523 0-10 4.478-10 10s4.477 10 10 10z"/><path data-cppathid="10004" d="m442 386h-126c-5.523 0-10 4.478-10 10s4.477 10 10 10h126c5.523 0 10-4.478 10-10s-4.477-10-10-10z"/><circle data-cppathid="10005" r="10" cy="10" cx="173"/></g></svg>