<?xml version="1.0" encoding="UTF-8"?>
<svg xmlns="http://www.w3.org/2000/svg" onmouseup="{ if(window.parent.document.onmouseup) window.parent.document.onmouseup(arguments[0]);}" width="512" viewBox="0 0 74 74" height="512" id="Icons"><path data-cppathid="10000" d="m46.333 10.008h-18.666a1 1 0 0 1 -1-1v-6.008a1 1 0 0 1 1-1h18.666a1 1 0 0 1 1 1v6.008a1 1 0 0 1 -1 1zm-17.666-2h16.666v-4.008h-16.666z"/><path data-cppathid="10001" d="m35.27 72h-2.9a1 1 0 0 1 0-2h2.9a1 1 0 1 1 0 2z"/><path data-cppathid="10002" d="m71 72h-18.76a1 1 0 0 1 0-2h17.76v-2.99h-66v2.99h21.37a1 1 0 1 1 0 2h-22.37a1 1 0 0 1 -1-1v-4.99a1 1 0 0 1 1-1h68a1 1 0 0 1 1 1v4.99a1 1 0 0 1 -1 1z"/><path data-cppathid="10003" d="m45.24 72h-2.97a1 1 0 0 1 0-2h2.97a1 1 0 1 1 0 2z"/><path data-cppathid="10004" d="m52 67.008h-30a1 1 0 0 1 -1-1v-57a1 1 0 0 1 1-1h30a1 1 0 0 1 1 1v57a1 1 0 0 1 -1 1zm-29-2h28v-55h-28z"/><path data-cppathid="10005" d="m67 67.008h-15a1 1 0 0 1 -1-1v-36a1 1 0 0 1 1-1h15a1 1 0 0 1 1 1v36a1 1 0 0 1 -1 1zm-14-2h13v-34h-13z"/><path data-cppathid="10006" d="m22 67.008h-15a1 1 0 0 1 -1-1v-34a1 1 0 0 1 1-1h15a1 1 0 0 1 1 1v34a1 1 0 0 1 -1 1zm-14-2h13v-32h-13z"/><path data-cppathid="10007" d="m22 33.008h-11.25a1 1 0 0 1 -1-1v-5.446a1 1 0 0 1 1-1h11.25a1 1 0 0 1 1 1v5.446a1 1 0 0 1 -1 1zm-10.25-2h9.25v-3.446h-9.25z"/><path data-cppathid="10008" d="m22 53.984h-8.5a1 1 0 0 1 0-2h8.5a1 1 0 1 1 0 2z"/><path data-cppathid="10009" d="m22 40h-8.5a1 1 0 0 1 0-2h8.5a1 1 0 0 1 0 2z"/><path data-cppathid="10010" d="m22 46.992h-8.5a1 1 0 0 1 0-2h8.5a1 1 0 0 1 0 2z"/><path data-cppathid="10011" d="m22 60.977h-8.5a1 1 0 0 1 0-2h8.5a1 1 0 1 1 0 2z"/><path data-cppathid="10012" d="m58.5 40.008h-6.5a1 1 0 0 1 0-2h6.5a1 1 0 0 1 0 2z"/><path data-cppathid="10013" d="m58.5 49.008h-6.5a1 1 0 0 1 0-2h6.5a1 1 0 0 1 0 2z"/><path data-cppathid="10014" d="m58.5 58.008h-6.5a1 1 0 0 1 0-2h6.5a1 1 0 0 1 0 2z"/><path data-cppathid="10015" d="m45.583 19.258h-17.166a1 1 0 0 1 0-2h17.166a1 1 0 0 1 0 2z"/><path data-cppathid="10016" d="m45.583 28.3h-17.166a1 1 0 0 1 0-2h17.166a1 1 0 0 1 0 2z"/><path data-cppathid="10017" d="m45.583 37.333h-17.166a1 1 0 0 1 0-2h17.166a1 1 0 0 1 0 2z"/><path data-cppathid="10018" d="m44.333 67.008h-14.666a1 1 0 0 1 -1-1v-17.016a1 1 0 0 1 1-1h14.666a1 1 0 0 1 1 1v17.016a1 1 0 0 1 -1 1zm-13.666-2h12.666v-15.016h-12.666z"/></svg>