<?xml version="1.0" encoding="UTF-8"?>
<svg xmlns="http://www.w3.org/2000/svg" onmouseup="{ if(window.parent.document.onmouseup) window.parent.document.onmouseup(arguments[0]);}" width="512pt" viewBox="0 0 511 512" height="512pt"><path data-cppathid="10000" d="m512.359375 66.761719c0-36.8125-29.953125-66.761719-66.761719-66.761719-33.417968 0-61.171875 24.679688-66.011718 56.765625h-369.085938c-5.523438 0-10 4.476563-10 10v218.648437.007813.003906 58.261719c0 5.523438 4.476562 10 10 10h133.097656v34.84375c0 5.523438 4.476563 10 10 10 5.519532 0 10-4.476562 10-10v-145.351562c0-12.640626 9.894532-22.539063 22.527344-22.539063 6.019531 0 11.683594 2.34375 15.9375 6.597656 4.257812 4.257813 6.601562 9.917969 6.601562 15.941407v85.191406c0 1.007812.046876 2.003906.125 2.996094.542969 6.609374 2.871094 12.859374 6.8125 18.226562.003907.003906.007813.007812.007813.011719.003906 0 .003906.003906.003906.003906.003907.003906.007813.007813.011719.011719 6.738281 9.1875 17.558594 14.675781 28.960938 14.675781 9.589843 0 18.605468-3.738281 25.394531-10.527344l.082031-.082031h80.453125l-54.265625 83.179688c-.191406.292968-.363281.59375-.523438.902343-4.128906 8.050781-6.3125 17.089844-6.3125 26.144531v38.085938c0 5.523438 4.480469 10 10 10 5.523438 0 10-4.476562 10-10v-38.085938c0-5.730468 1.34375-11.453124 3.890626-16.582031l54.394531-83.382812c.1875-.289063.363281-.585938.519531-.894531 1.550781-3.015626 2.8125-6.148438 3.800781-9.367188h73.578125c5.519532 0 10-4.476562 10-10v-58.261719-.003906c0-.003906 0-.003906 0-.007813v-152.640624c32.082032-4.839844 56.761719-32.597657 56.761719-66.011719zm-98.902344 58.496093c5.953125 3.285157 12.414063 5.648438 19.082031 6.976563.722657.140625 1.449219.269531 2.175782.386719.28125.046875.5625.101562.84375.144531.011718.003906.023437.003906.035156.007813v100.199218c-21.433594 4.078125-38.363281 21.007813-42.441406 42.441406h-89.695313c21.5-25.136718 34.195313-60.898437 34.195313-98.839843 0-38.570313-12.992188-74.660157-35.003906-99.808594h76.925781c.164062 1.089844.367187 2.171875.582031 3.246094 3.007812 14.882812 11.214844 28.496093 22.914062 38.167969 3.238282 2.675781 6.707032 5.046874 10.386719 7.078124zm22.140625 179.292969h-206.933594v-9.125h206.933594zm-21.867187-29.136719c3.265625-10.382812 11.480469-18.597656 21.867187-21.863281v21.863281zm-393.230469 0v-21.863281c10.386719 3.265625 18.601562 11.480469 21.867188 21.863281zm0 20.011719h123.097656v9.125h-123.097656zm123.097656-42.871093v22.859374h-80.65625c-4.078125-21.433593-21.003906-38.359374-42.441406-42.441406v-113.765625c21.4375-4.078125 38.363281-21.007812 42.441406-42.441406h97.101563c-22.011719 25.148437-35.003907 61.238281-35.003907 99.808594-.003906 27.394531 6.421876 53.59375 18.558594 75.980469zm-123.097656-175.789063h21.867188c-3.265626 10.386719-11.480469 18.601563-21.867188 21.867187zm0 256.921875v-9.136719h123.097656v9.136719zm165.625-133.046875c-13.109375 0-25.710938 6.253906-33.703125 16.636719-.320313.417968-.632813.839844-.9375 1.265625-.101563.148437-.214844.285156-.316406.433593-4.042969-13.351562-6.132813-27.660156-6.132813-42.402343 0-41.558594 16.871094-79.464844 44.21875-99.808594h84.183594c27.347656 20.34375 44.214844 58.25 44.214844 99.808594 0 40.75-16.378906 78.277343-42.941406 98.839843h-46.046876v-28.359374c1.140626.453124 2.378907.707031 3.679688.707031 5.519531 0 10-4.476563 10-10v-6.542969c12.628906-.460938 22.761719-10.871094 22.761719-23.609375v-18.402344c0-13.03125-10.601563-23.632812-23.632813-23.632812h-18.257812c-2.003906 0-3.632813-1.628907-3.632813-3.632813v-17.371094c0-2.003906 1.628907-3.632812 3.632813-3.632812h18.257812c2.003906 0 3.632813 1.628906 3.632813 3.632812 0 5.523438 4.480469 10 10 10 5.523437 0 10-4.476562 10-10 0-12.738281-10.132813-23.148437-22.761719-23.609374v-6.542969c0-5.523438-4.476562-10-9.996094-10-.003906 0-.003906 0-.003906 0-5.519531 0-10 4.476562-10 10v6.542969c-12.625.460937-22.757812 10.871093-22.761719 23.609374v17.375c0 13.03125 10.601563 23.628907 23.632813 23.628907h18.257812c2.003906 0 3.632813 1.632812 3.632813 3.636719v18.398437c0 2.003906-1.628907 3.632813-3.632813 3.632813h-9.125s0 0-.003906 0h-.003906-9.125c-2.003906 0-3.632813-1.628907-3.632813-3.625v-1.683594c.003907-5.523438-4.472656-10.003906-9.992187-10.007813-.003906 0-.003906 0-.007813 0-4.488281 0-8.289062 2.960938-9.550781 7.035157-3.761719-1.296876-7.71875-2.070313-11.785156-2.269532-.703125-.035156-1.410156-.050781-2.121094-.050781zm177.929688 133.046875h-134.476563c-.019531-.058594-.042969-.117188-.0625-.175781-.082031-.234375-.152344-.476563-.21875-.714844-.414063-1.433594-.632813-2.933594-.632813-4.425781v-3.820313h206.933594v9.136719zm81.574218-220.164062c-.011718 0-.023437-.003907-.03125-.003907-9.671875 0-18.664062-2.949219-26.128906-7.996093-12.441406-8.410157-20.632812-22.648438-20.632812-38.761719 0-25.785157 20.976562-46.761719 46.761718-46.761719 25.78125 0 46.761719 20.976562 46.761719 46.761719 0 25.773437-20.960937 46.742187-46.730469 46.761719zm0 0"/><path data-cppathid="10001" d="m467.304688 54.765625h-11.707032v-11.707031c0-5.523438-4.480468-10-10-10-5.523437 0-10 4.476562-10 10v11.707031h-11.710937c-5.523438 0-10 4.476563-10 10s4.476562 10 10 10h11.710937v11.710937c0 5.523438 4.476563 10 10 10 5.519532 0 10-4.476562 10-10v-11.710937h11.707032c5.523437 0 10-4.476563 10-10s-4.476563-10-10-10zm0 0"/><path data-cppathid="10002" d="m153.597656 460.09375c-5.523437 0-10 4.476562-10 10v31.90625c0 5.523438 4.476563 10 10 10 5.519532 0 10-4.476562 10-10v-31.90625c0-5.523438-4.480468-10-10-10zm0 0"/><path data-cppathid="10003" d="m162.828125 425.011719c-1.613281-3.941407-5.707031-6.457031-9.949219-6.148438-4.144531.300781-7.75 3.230469-8.894531 7.226563-1.15625 4.019531.398437 8.433594 3.792969 10.871094 3.339844 2.402343 7.949218 2.472656 11.371094.191406 3.917968-2.613282 5.488281-7.800782 3.679687-12.140625zm0 0"/></svg>