<?xml version="1.0" encoding="UTF-8"?>
<svg xmlns="http://www.w3.org/2000/svg" onmouseup="{ if(window.parent.document.onmouseup) window.parent.document.onmouseup(arguments[0]);}" width="512" viewBox="0 0 512.005 512.005" height="512" enable-background="new 0 0 512.005 512.005" id="Capa_1"><g><g><path data-cppathid="10000" d="m442.003 512.003c5.522 0 10-4.478 10-10 0-48.221 47.3-47.842 54.078-50.869 5.043-2.252 7.305-8.166 5.053-13.209-2.073-4.641-7.248-6.927-11.988-5.506-17.767 3.184-33.122 6.935-47.143 19.89v-67.031c33.876-4.869 60-34.073 60-69.274v-240c0-5.522-4.478-10-10-10s-10 4.478-10 10v20.726c-15.567 2.237-29.49 9.613-40 20.352v-36.079c0-5.522-4.478-10-10-10s-10 4.478-10 10v36.077c-10.51-10.739-24.433-18.114-40-20.352v-20.725c0-5.522-4.478-10-10-10s-10 4.478-10 10v240c0 35.202 26.124 64.406 60 69.274v116.726c0 5.522 4.477 10 10 10zm-50-310.152c4.043 3.967 8.617 7.375 13.659 10.086 16.247 8.75 26.341 25.635 26.341 44.065v40.998c-4.875-4.974-10.534-9.266-16.863-12.675-14.055-7.558-23.137-24.088-23.137-42.112zm60 54.152c0-18.431 10.094-35.315 26.336-44.062 5.044-2.713 9.62-6.122 13.664-10.09v40.362c0 18.024-9.082 34.555-23.142 42.115-6.327 3.407-11.984 7.699-16.858 12.671zm0 108.993v-18.994c0-18.431 10.094-35.315 26.336-44.063 5.044-2.713 9.62-6.122 13.664-10.09v24.152c0 24.148-17.206 44.35-40 48.995zm40-247.987v35.204c0 18.024-9.082 34.555-23.142 42.115-6.327 3.407-11.984 7.699-16.858 12.671v-40.996c0-24.147 17.205-44.349 40-48.994zm-60 48.994v40.997c-4.875-4.974-10.534-9.266-16.863-12.675-14.055-7.558-23.137-24.088-23.137-42.112v-35.204c22.794 4.645 40 24.847 40 48.994zm-40 150v-24.152c4.043 3.967 8.617 7.375 13.659 10.086 16.247 8.75 26.341 25.635 26.341 44.065v18.994c-22.795-4.645-40-24.847-40-48.993z"/><path data-cppathid="10001" d="m256.003 512.003c5.522 0 10-4.478 10-10v-56.726c33.876-4.869 60-34.073 60-69.274v-330c0-5.522-4.478-10-10-10s-10 4.478-10 10v20.726c-15.567 2.237-29.49 9.613-40 20.352v-77.078c0-5.522-4.478-10-10-10s-10 4.478-10 10v77.077c-10.51-10.739-24.433-18.114-40-20.352v-20.725c0-5.522-4.478-10-10-10s-10 4.478-10 10v330c0 35.202 26.124 64.406 60 69.274v56.726c0 5.522 4.477 10 10 10zm-50-250.152c4.043 3.967 8.617 7.375 13.659 10.086 16.247 8.75 26.341 25.635 26.341 44.065v40.998c-4.875-4.974-10.534-9.266-16.863-12.675-14.055-7.558-23.137-24.088-23.137-42.112zm0-90c4.043 3.967 8.617 7.375 13.659 10.086 16.247 8.75 26.341 25.635 26.341 44.065v40.998c-4.875-4.974-10.534-9.266-16.863-12.675-14.055-7.558-23.137-24.088-23.137-42.112zm60 144.152c0-18.431 10.094-35.315 26.336-44.063 5.044-2.713 9.62-6.122 13.664-10.09v40.362c0 18.024-9.082 34.555-23.142 42.115-6.327 3.407-11.984 7.699-16.858 12.671zm16.858-61.675c-6.327 3.407-11.984 7.699-16.858 12.671v-40.996c0-18.431 10.094-35.315 26.336-44.063 5.044-2.713 9.62-6.122 13.664-10.09v40.362c0 18.025-9.082 34.555-23.142 42.116zm-16.858 170.668v-18.994c0-18.431 10.094-35.315 26.336-44.063 5.044-2.713 9.62-6.122 13.664-10.09v24.152c0 24.148-17.206 44.35-40 48.995zm40-337.987v35.204c0 18.024-9.082 34.555-23.142 42.115-6.327 3.407-11.984 7.699-16.858 12.671v-40.996c0-24.147 17.205-44.349 40-48.994zm-60 48.994v40.997c-4.875-4.974-10.534-9.266-16.863-12.675-14.055-7.558-23.137-24.088-23.137-42.112v-35.204c22.794 4.645 40 24.847 40 48.994zm-40 240v-24.152c4.043 3.967 8.617 7.375 13.659 10.086 16.247 8.75 26.341 25.635 26.341 44.065v18.994c-22.795-4.645-40-24.847-40-48.993z"/><circle data-cppathid="10002" r="10" cy="36.003" cx="442.003"/></g><path data-cppathid="10003" d="m12.861 432.419c-4.747-1.421-9.917.865-11.989 5.506-2.252 5.043.01 10.957 5.053 13.209 6.8 3.036 54.078 2.652 54.078 50.869 0 5.522 4.478 10 10 10s10-4.478 10-10v-116.726c33.876-4.869 60-34.073 60-69.274v-240c0-5.522-4.478-10-10-10s-10 4.478-10 10v20.726c-15.567 2.237-29.49 9.613-40 20.352v-71.078c0-5.522-4.478-10-10-10s-10 4.478-10 10v71.077c-10.51-10.739-24.433-18.114-40-20.352v-20.725c0-5.522-4.478-10-10-10s-10 4.478-10 10v240c0 35.202 26.124 64.406 60 69.274v67.031c-13.985-12.921-29.576-16.733-47.142-19.889zm7.142-230.568c4.043 3.967 8.617 7.375 13.659 10.086 16.247 8.75 26.341 25.635 26.341 44.065v40.998c-4.875-4.974-10.534-9.266-16.863-12.675-14.055-7.558-23.137-24.088-23.137-42.112zm60 54.152c0-18.431 10.094-35.315 26.336-44.062 5.044-2.713 9.62-6.122 13.664-10.09v40.362c0 18.024-9.082 34.555-23.142 42.115-6.327 3.407-11.984 7.699-16.858 12.671zm0 108.993v-18.994c0-18.431 10.094-35.315 26.336-44.063 5.044-2.713 9.62-6.122 13.664-10.09v24.152c0 24.148-17.206 44.35-40 48.995zm40-247.987v35.204c0 18.024-9.082 34.555-23.142 42.115-6.327 3.407-11.984 7.699-16.858 12.671v-40.996c0-24.147 17.205-44.349 40-48.994zm-60 48.994v40.997c-4.875-4.974-10.534-9.266-16.863-12.675-14.055-7.558-23.137-24.088-23.137-42.112v-35.204c22.794 4.645 40 24.847 40 48.994zm-40 150v-24.152c4.043 3.967 8.617 7.375 13.659 10.086 16.247 8.75 26.341 25.635 26.341 44.065v18.994c-22.795-4.645-40-24.847-40-48.993z"/></g></svg>