<?xml version="1.0" encoding="UTF-8"?>
<svg xmlns="http://www.w3.org/2000/svg" onmouseup="{ if(window.parent.document.onmouseup) window.parent.document.onmouseup(arguments[0]);}" width="512" viewBox="0 0 128 128" height="512" id="icon"><path data-cppathid="10000" fill="#e2a120" d="m72.08 88.532-8.628-35.337h-32.214l-21.61 21.61 13.485 11.667-.503 2.06h2.884l24.976 21.61z"/><path data-cppathid="10001" fill="#2f3a5a" d="m50.47 111.142a1 1 0 0 1 -.654-.244l-24.695-21.366h-2.512a1 1 0 0 1 -.972-1.237l.363-1.466-13.026-11.268a1 1 0 0 1 -.053-1.461l21.61-21.609a1 1 0 0 1 .707-.293h32.214a1 1 0 0 1 .972.763l8.628 35.337a1 1 0 0 1 -.265.944l-21.61 21.61a1 1 0 0 1 -.707.29zm-26.587-23.61h1.611a1 1 0 0 1 .654.244l24.272 21 20.556-20.553-8.309-34.023h-31.015l-20.557 20.552 12.672 10.964a1 1 0 0 1 .317.994z"/><path data-cppathid="10002" fill="#f7b521" d="m50.47 110.142h-49.47l8.628-35.337h32.214z"/><path data-cppathid="10003" fill="#2f3a5a" d="m50.47 111.142h-49.47a1 1 0 0 1 -.972-1.242l8.628-35.333a1 1 0 0 1 .972-.763h32.214a1 1 0 0 1 .972.763l8.627 35.333a1 1 0 0 1 -.972 1.237zm-48.2-2h46.93l-8.143-33.342h-30.644z"/><path data-cppathid="10004" fill="#ffc943" d="m41.842 74.805 21.61-21.61h-32.214l-21.61 21.61z"/><path data-cppathid="10005" fill="#2f3a5a" d="m41.842 75.8h-32.214a1 1 0 0 1 -.707-1.7l21.61-21.609a1 1 0 0 1 .707-.293h32.214a1 1 0 0 1 .707 1.707l-21.61 21.607a1 1 0 0 1 -.707.288zm-29.8-2h29.386l19.61-19.6h-29.386z"/><path data-cppathid="10006" fill="#e2a120" d="m127 88.532-8.628-35.337h-32.214l-21.61 21.61 13.485 11.667-.503 2.06h2.884l24.976 21.61z"/><path data-cppathid="10007" fill="#2f3a5a" d="m105.391 111.142a1 1 0 0 1 -.654-.244l-24.695-21.366h-2.512a1 1 0 0 1 -.972-1.237l.358-1.466-13.022-11.268a1 1 0 0 1 -.053-1.463l21.61-21.609a1 1 0 0 1 .707-.293h32.214a1 1 0 0 1 .972.763l8.628 35.337a1 1 0 0 1 -.265.944l-21.607 21.609a1 1 0 0 1 -.709.293zm-26.591-23.61h1.61a1 1 0 0 1 .654.244l24.273 21 20.563-20.553-8.313-34.023h-31.015l-20.557 20.552 12.673 10.964a1 1 0 0 1 .317.994z"/><path data-cppathid="10008" fill="#f7b521" d="m105.39 110.142h-49.47l8.628-35.337h32.214z"/><path data-cppathid="10009" fill="#2f3a5a" d="m105.391 111.142h-49.471a1 1 0 0 1 -.972-1.237l8.628-35.337a1 1 0 0 1 .972-.763h32.214a1 1 0 0 1 .972.763l8.629 35.337a1 1 0 0 1 -.972 1.237zm-48.2-2h46.924l-8.138-33.342h-30.644z"/><path data-cppathid="10010" fill="#ffc943" d="m96.762 74.805 21.61-21.61h-32.214l-21.61 21.61z"/><path data-cppathid="10011" fill="#2f3a5a" d="m96.762 75.8h-32.214a1 1 0 0 1 -.707-1.707l21.61-21.609a1 1 0 0 1 .707-.293h32.214a1 1 0 0 1 .707 1.707l-21.61 21.614a1 1 0 0 1 -.707.288zm-29.8-2h29.386l19.61-19.6h-29.386z"/><path data-cppathid="10012" fill="#e2a120" d="m100.088 53.195-8.628-35.337h-32.214l-21.609 21.61 13.484 11.667-.503 2.06h2.884l24.976 21.61z"/><path data-cppathid="10013" fill="#2f3a5a" d="m78.479 75.8a1 1 0 0 1 -.654-.244l-24.7-21.366h-2.507a1 1 0 0 1 -.972-1.237l.354-1.462-13.018-11.267a1 1 0 0 1 -.053-1.463l21.609-21.61a1 1 0 0 1 .707-.293h32.215a1 1 0 0 1 .972.763l8.628 35.337a1 1 0 0 1 -.265.944l-21.609 21.61a1 1 0 0 1 -.707.288zm-26.587-23.605h1.608a1 1 0 0 1 .654.244l24.273 21 20.556-20.553-8.308-34.028h-31.015l-20.56 20.557 12.675 10.963a1 1 0 0 1 .317.994z"/><path data-cppathid="10014" fill="#f7b521" d="m78.479 74.805h-49.471l8.629-35.337h32.213z"/><path data-cppathid="10015" fill="#2f3a5a" d="m78.479 75.8h-49.47a1 1 0 0 1 -.972-1.237l8.628-35.333a1 1 0 0 1 .972-.763h32.214a1 1 0 0 1 .972.763l8.627 35.337a1 1 0 0 1 -.972 1.237zm-48.2-2h46.926l-8.14-33.337h-30.643z"/><path data-cppathid="10016" fill="#ffc943" d="m69.85 39.468 21.61-21.61h-32.214l-21.609 21.61z"/><path data-cppathid="10017" fill="#2f3a5a" d="m69.851 40.468h-32.214a1 1 0 0 1 -.707-1.707l21.609-21.61a1 1 0 0 1 .707-.293h32.214a1 1 0 0 1 .707 1.707l-21.609 21.61a1 1 0 0 1 -.707.293zm-29.8-2h29.386l19.609-19.61h-29.386z"/><path data-cppathid="10018" fill="#fff" d="m73.339 33.062-3.656-6.686-3.657 6.686-6.686 3.656 6.686 3.657 3.657 6.686 3.656-6.686 6.686-3.657z"/><path data-cppathid="10019" fill="#2f3a5a" d="m69.683 48.061a1 1 0 0 1 -.877-.52l-3.517-6.429-6.429-3.512a1 1 0 0 1 0-1.755l6.429-3.516 3.517-6.429a1.04 1.04 0 0 1 1.754 0l3.517 6.429 6.423 3.512a1 1 0 0 1 0 1.755l-6.429 3.516-3.511 6.429a1 1 0 0 1 -.877.52zm-8.259-11.343 5.082 2.782a1 1 0 0 1 .4.4l2.779 5.082 2.78-5.082a1 1 0 0 1 .4-.4l5.081-2.779-5.086-2.782a1 1 0 0 1 -.4-.4l-2.78-5.082-2.78 5.085a1 1 0 0 1 -.4.4z"/><path data-cppathid="10020" fill="#fff" d="m98.785 70.11-2.071-3.787-2.071 3.787-3.786 2.07 3.786 2.071 2.071 3.787 2.071-3.787 3.786-2.071z"/><path data-cppathid="10021" fill="#2f3a5a" d="m96.714 79.038a1 1 0 0 1 -.877-.52l-1.931-3.529-3.529-1.931a1 1 0 0 1 0-1.755l3.529-1.93 1.931-3.529a1.04 1.04 0 0 1 1.754 0l1.931 3.529 3.529 1.93a1 1 0 0 1 0 1.755l-3.529 1.931-1.931 3.529a1 1 0 0 1 -.877.52zm-3.774-6.858 2.183 1.194a1 1 0 0 1 .4.4l1.193 2.182 1.194-2.182a1 1 0 0 1 .4-.4l2.182-1.194-2.182-1.193a1 1 0 0 1 -.4-.4l-1.194-2.182-1.193 2.182a1 1 0 0 1 -.4.4z"/></svg>