<?xml version="1.0" encoding="UTF-8"?>
<svg xmlns="http://www.w3.org/2000/svg" onmouseup="{ if(window.parent.document.onmouseup) window.parent.document.onmouseup(arguments[0]);}" xml:space="preserve" style="enable-background:new 0 0 512 512.001;" viewBox="0 0 512 512.001" y="0px" x="0px" id="Capa_1" version="1.1" xmlns:xlink="http://www.w3.org/1999/xlink"><g><g><path data-cppathid="10000" d="M479.827,32.173c-42.897-42.897-112.696-42.897-155.594,0l-146.03,146.03l-146.03,146.03    c-42.898,42.899-42.898,112.698,0,155.595c42.894,42.895,112.695,42.899,155.594,0l146.03-146.03l146.03-146.03    C522.725,144.87,522.725,75.071,479.827,32.173z M319.651,319.655l-146.03,146.03c-35.097,35.098-92.206,35.098-127.304,0    c-35.097-35.097-35.097-92.206,0-127.303l101.298-101.3c-3.038,17.379-1.897,35.513,3.723,52.856l-76.724,76.734    c-19.525,19.511-19.53,51.203-0.004,70.716c19.512,19.525,51.203,19.53,70.719,0.002l80.93-80.93    c0.091-0.084,0.18-0.17,0.268-0.258l64.832-64.842c19.515-19.515,19.532-51.197,0.002-70.713    c-7.734-7.739-17.607-12.626-28.293-14.131l31.74-31.742c9.185,4.383,17.529,10.261,24.844,17.577    c8.851,8.851,15.635,19.198,20.165,30.753C352.881,256.444,344.966,294.342,319.651,319.655z M159.917,309.649    c4.916,8.806,11.03,16.893,18.286,24.149c7.256,7.256,15.342,13.371,24.141,18.286l-71.163,71.163    c-11.693,11.701-30.721,11.709-42.426-0.004c-11.7-11.692-11.708-30.721,0.002-42.425L159.917,309.649z M234.787,277.213    c-11.701-11.701-11.713-30.72,0.005-42.431c0.1-0.1,0.465-0.465,0.365-0.365c11.41-11.149,30.456-11.237,42.059,0.372    c11.702,11.696,11.704,30.716-0.003,42.425C265.509,288.918,246.489,288.923,234.787,277.213z M333.797,178.204    c-7.255-7.255-15.339-13.369-24.138-18.284l71.16-71.165c11.693-11.701,30.721-11.708,42.426,0.004    c11.7,11.692,11.708,30.721-0.002,42.425l-71.16,71.169C347.167,193.547,341.053,185.459,333.797,178.204z M465.682,173.622    L364.385,274.921c3.038-17.379,1.897-35.513-3.723-52.856l76.724-76.734c19.521-19.508,19.533-51.2,0.004-70.717    c-19.512-19.525-51.202-19.531-70.719-0.002c-5.397,5.398-140.962,140.973-145.261,145.272    c-20.779,19.982-20.093,52.151-0.77,71.473c7.75,7.755,17.612,12.639,28.299,14.137l-31.735,31.74    c-9.19-4.383-17.538-10.262-24.856-17.58c-8.851-8.851-15.635-19.198-20.165-30.753c-13.065-33.339-5.149-71.237,20.165-96.55    l146.03-146.032c35.097-35.098,92.206-35.098,127.304,0C500.779,81.416,500.779,138.525,465.682,173.622z"/></g></g><g><g><path data-cppathid="10001" d="M149.909,135.764L107.48,93.335c-3.906-3.906-10.239-3.906-14.146,0c-3.906,3.906-3.906,10.239,0,14.146l42.429,42.429    c3.906,3.906,10.24,3.907,14.146,0C153.814,146.004,153.814,139.671,149.909,135.764z"/></g></g><g><g><path data-cppathid="10002" d="M109.189,181.986H49.177c-5.523,0-10.002,4.478-10.002,10.002c0,5.524,4.478,10.002,10.002,10.002h60.012    c5.524,0,10.002-4.478,10.002-10.002S114.713,181.986,109.189,181.986z"/></g></g><g><g><path data-cppathid="10003" d="M191.986,39.176c-5.524,0-10.002,4.478-10.002,10.002v60.012c0,5.524,4.478,10.002,10.002,10.002    s10.002-4.478,10.002-10.002V49.178C201.988,43.654,197.51,39.176,191.986,39.176z"/></g></g><g><g><path data-cppathid="10004" d="M418.665,404.52l-42.429-42.429c-3.907-3.906-10.24-3.906-14.146,0c-3.906,3.906-3.906,10.239,0,14.146l42.429,42.429    c3.906,3.906,10.239,3.906,14.146,0C422.57,414.76,422.57,408.427,418.665,404.52z"/></g></g><g><g><path data-cppathid="10005" d="M319.012,392.809c-5.524,0-10.002,4.478-10.002,10.002v60.012c0,5.524,4.478,10.002,10.002,10.002    c5.524,0,10.002-4.478,10.002-10.002v-60.012C329.014,397.287,324.536,392.809,319.012,392.809z"/></g></g><g><g><path data-cppathid="10006" d="M462.822,309.012h-60.012c-5.524,0-10.002,4.478-10.002,10.002c0,5.524,4.478,10.002,10.002,10.002h60.012    c5.524,0,10.002-4.478,10.002-10.002C472.824,313.49,468.346,309.012,462.822,309.012z"/></g></g><g/><g/><g/><g/><g/><g/><g/><g/><g/><g/><g/><g/><g/><g/><g/></svg>