<?xml version="1.0" encoding="UTF-8"?>
<svg xmlns="http://www.w3.org/2000/svg" onmouseup="{ if(window.parent.document.onmouseup) window.parent.document.onmouseup(arguments[0]);}" width="512" viewBox="0 0 58 60" height="512"><g fill="none" id="045---Stamp-Collecting"><g transform="translate(2)" id="Icons"><path data-cppathid="10000" fill="#dfc49c" d="m34.46 10.89c.3443486.1591277.5578951.5110839.54.89v2.44c.0123198.3381354-.1550162.657595-.44.84-.223-.081-.122-.06-2.782-.06-.3782499-.0183487-.7297031.1949771-.888.539-.809 1.94-4.971 1.942-5.78 0-.158561-.3443811-.5102987-.558035-.889-.54h-2.221c-.5522847 0-1 .4477153-1 1v2.221c-.018035.3787013.1956189.730439.54.889 1.94.808 1.941 4.971 0 5.78-.3443811.158561-.558035.5102987-.54.889v2.442c-.018035.3787013.1956189.730439.54.889 1.94.808 1.941 4.971 0 5.78-.3443811.158561-.558035.5102987-.54.889v2.442c-.018208.3784646.1950099.7301358.539.889 1.94.809 1.941 4.971 0 5.78-.0361128.0104053-.0700081.027353-.1.05-.2479244-.0659104-.4511522-.2432727-.55-.48-.809-1.94-4.971-1.941-5.78 0-.1591277.3443486-.5110839.5578951-.89.54h-2.439c-.3789161.0178951-.7308723-.1956514-.89-.54-.809-1.94-4.971-1.941-5.78 0-.15912772.3443486-.51108394.5578951-.89.54h-2.22c-.55228475 0-1-.4477153-1-1v-2.219c-.01789511-.3789161.19565136-.7308723.54-.89 1.94-.808 1.941-4.971 0-5.78-.34434864-.1591277-.55789511-.5110839-.54-.89v-2.44c-.01789511-.3789161.19565136-.7308723.54-.89 1.94-.808 1.941-4.971 0-5.78-.34434864-.1591277-.55789511-.5110839-.54-.89v-2.44c-.01789511-.3789161.19565136-.7308723.54-.89 1.94-.808 1.941-4.971 0-5.78-.34434864-.1591277-.55789511-.5110839-.54-.89v-2.44c-.01789511-.3789161.19565136-.7308723.54-.89 1.94-.808 1.941-4.971 0-5.78-.34434864-.15912772-.55789511-.51108394-.54-.89v-2.22c0-.55228475.44771525-1 1-1h2.22c.37891606-.01789511.73087228.19565136.89.54.808 1.94 4.971 1.941 5.78 0 .1591277-.34434864.5110839-.55789511.89-.54h2.44c.3789161-.01789511.7308723.19565136.89.54.808 1.94 4.971 1.941 5.78 0 .1591277-.34434864.5110839-.55789511.89-.54h2.44c.3789161-.01789511.7308723.19565136.89.54.808 1.94 4.971 1.941 5.78 0 .1591277-.34434864.5110839-.55789511.89-.54h2.22c.5522847 0 1 .44771525 1 1v2.22c.0178951.37891606-.1956514.73087228-.54.89-1.94.808-1.941 4.971 0 5.78z" id="Shape"/><path data-cppathid="10001" fill="#0377bc" d="m29 8v8.88c-1.418.366-3.379-.115-3.89-1.34-.158561-.3443811-.5102987-.558035-.889-.54h-2.221c-.5522847 0-1 .4477153-1 1v2.221c-.018035.3787013.1956189.730439.54.889 1.94.808 1.941 4.971 0 5.78-.3443811.158561-.558035.5102987-.54.889v2.442c-.018035.3787013.1956189.730439.54.889 1.94.808 1.941 4.971 0 5.78-.3443811.158561-.558035.5102987-.54.889v2.442c-.0075272.2993121.1212173.5858605.35.779h-13.35c-.55228475 0-1-.4477153-1-1v-30c0-.55228475.44771525-1 1-1h20c.5522847 0 1 .44771525 1 1z" id="Shape"/><path data-cppathid="10002" fill="#02a9f4" d="m26 8v8.48c-.3924376-.2063124-.7054241-.5368824-.89-.94-.158561-.3443811-.5102987-.558035-.889-.54h-2.221c-.5522847 0-1 .4477153-1 1v2.221c-.018035.3787013.1956189.730439.54.889 1.94.808 1.941 4.971 0 5.78-.3443811.158561-.558035.5102987-.54.889v2.442c-.018035.3787013.1956189.730439.54.889 1.94.808 1.941 4.971 0 5.78-.3443811.158561-.558035.5102987-.54.889v2.442c-.0075272.2993121.1212173.5858605.35.779h-13.35c-.55228475 0-1-.4477153-1-1v-30c0-.55228475.44771525-1 1-1h17c.5522847 0 1 .44771525 1 1z" id="Shape"/><path data-cppathid="10003" fill="#ffe0b2" d="m54.461 24.89c.3402823.1624617.5519276.5111463.539.888v2.444c.0129276.3768537-.1987177.7255383-.539.888-1.943.815-1.943 4.965 0 5.78.3402823.1624617.5519276.5111463.539.888v2.444c.0129276.3768537-.1987177.7255383-.539.888-1.943.815-1.943 4.965 0 5.78.3402823.1624617.5519276.5111463.539.888v2.444c.0129276.3768537-.1987177.7255383-.539.888-1.943.815-1.943 4.965 0 5.78.3402823.1624617.5519276.5111463.539.888v2.222c0 .5522847-.4477153 1-1 1h-2.224c-.376114.0130879-.7241419-.1982428-.886-.538-.816-1.943-4.964-1.943-5.78 0-.1618581.3397572-.509886.5510879-.886.538h-2.448c-.376114.0130879-.7241419-.1982428-.886-.538-.816-1.943-4.964-1.943-5.78 0-.1618581.3397572-.509886.5510879-.886.538h-2.448c-.376114.0130879-.7241419-.1982428-.886-.538-.816-1.943-4.964-1.943-5.78 0-.1618581.3397572-.509886.5510879-.886.538h-2.224c-.5522847 0-1-.4477153-1-1v-2.224c-.0130879-.376114.1982428-.7241419.538-.886 1.944-.816 1.943-4.965 0-5.78-.3397572-.1618581-.5510879-.509886-.538-.886v-2.448c-.0126456-.3762767.1990353-.7242345.539-.886 1.943-.815 1.943-4.965 0-5.78-.3402589-.1630107-.5518062-.5119262-.539-.889v-2.442c-.0123647-.3772362.1995328-.7260823.54-.889 1.943-.815 1.942-4.965 0-5.78-.3404672-.1629177-.5523647-.5117638-.54-.889v-2.442c-.0123647-.3772362.1995328-.7260823.54-.889 1.943-.815 1.942-4.965 0-5.78-.3404672-.1629177-.5523647-.5117638-.54-.889v-2.221c0-.5522847.4477153-1 1-1h2.221c.3772362-.0123647.7260823.1995328.889.54.815 1.943 4.965 1.942 5.78 0 .1621671-.3406723.5109147-.5527486.888-.54h2.446c.376114-.0130879.7241419.1982428.886.538.816 1.944 4.965 1.943 5.78 0 .1618581-.3397572.509886-.5510879.886-.538h2.448c.376114-.0130879.7241419.1982428.886.538.816 1.944 4.965 1.943 5.78 0 .1618581-.3397572.509886-.5510879.886-.538h2.224c.5522847 0 1 .4477153 1 1v2.222c.0129276.3768537-.1987177.7255383-.539.888-1.943.815-1.943 4.965 0 5.78z" id="Shape"/><path data-cppathid="10004" fill="#dfc49c" d="m54.461 24.89c.3440229.1582969.5573487.5097501.539.888v2.444c.0183487.3782499-.1949771.7297031-.539.888-1.94.809-1.941 4.971 0 5.78.3440229.1582969.5573487.5097501.539.888v2.444c.0183487.3782499-.1949771.7297031-.539.888-1.94.809-1.941 4.971 0 5.78.3440229.1582969.5573487.5097501.539.888v2.444c.0183487.3782499-.1949771.7297031-.539.888-1.94.809-1.941 4.971 0 5.78.3440229.1582969.5573487.5097501.539.888v2.222c0 .5522847-.4477153 1-1 1-2.352 0-2.388.031-2.61-.08.3695049-.1564992.609673-.5187198.61-.92v-2.22c.0178951-.3789161-.1956514-.7308723-.54-.89-1.94-.808-1.941-4.971 0-5.78.3443486-.1591277.5578951-.5110839.54-.89v-2.44c.0178951-.3789161-.1956514-.7308723-.54-.89-1.94-.808-1.941-4.971 0-5.78.3443486-.1591277.5578951-.5110839.54-.89v-2.44c.0178951-.3789161-.1956514-.7308723-.54-.89-1.94-.808-1.941-4.971 0-5.78.3443486-.1591277.5578951-.5110839.54-.89v-2.44c.0178951-.3789161-.1956514-.7308723-.54-.89-1.94-.808-1.941-4.971 0-5.78.3443486-.1591277.5578951-.5110839.54-.89v-2.22c-.000327-.4012802-.2404951-.7635008-.61-.92.227-.114.263-.08 2.61-.08.5522847 0 1 .4477153 1 1v2.222c.0183487.3782499-.1949771.7297031-.539.888-1.94.809-1.941 4.971 0 5.78z" id="Shape"/><rect data-cppathid="10005" y="21" x="26" width="24" rx="1" height="32" fill="#c81e1e" id="Rectangle-path"/><rect data-cppathid="10006" y="21" x="26" width="21" rx="1" height="32" fill="#f44335" id="Rectangle-path"/><path data-cppathid="10007" fill="#fb7b76" d="m35.11 41.54c-.3717995.3779279-.7730643.7256907-1.2 1.04z" id="Shape"/><path data-cppathid="10008" fill="#e91e63" d="m47.97 38.62c-2.37-2.16-2.29-6.01-2.13-7.64.4984682-.1106385.9320662-.4158601 1.2043692-.847789s.3607352-.954755.2456308-1.452211c-.45-3.2-4.64-2.82-4.64-2.82l-1.36-4.68c-.029086-.1016194-.1189381-.1739654-.2244235-.1806985s-.2038065.0536018-.2455765.1506985c-.2689168.7389719-.8510281 1.3210832-1.59 1.59-.7330141.1028341-1.472163-.141085-2-.66-.0700813-.0596275-.1678307-.0745562-.2525152-.0385653-.0846846.035991-.1417764.1167272-.1474848.2085653.0015412.7836553-.3335118 1.5302408-.92 2.05-.678.534-1.864-.057-2.55-.58-.0767976-.0598317-.1814986-.0691964-.2676952-.0239432-.0861965.0452532-.1379436.1367532-.1323048.2339432.2 2.112-.934 3.484-2.71 2.3-.0671268-.0375105-.1307197-.0810214-.19-.13-.0833949-.063692-.1975302-.0690396-.286515-.0134241-.0889849.0556155-.1341924.1605524-.113485.2634241.339 1.839-.635 2.805-2.4 2.75-.1019864-.0058318-.1970405.0517193-.2391447.1447917s-.0225704.2024609.0491447.2752083c1.019846 1.1986925 2.1048162 2.3404151 3.25 3.42 0 0-3.2 2.34-.49 4.57 0 0-3.05 2.45.76 3.54.028531.5178314.1611738 1.0245949.39 1.49.41.75 1.24 1.27 2.93.04.1048192 1.3714667.1014755 2.7490583-.01 4.12-.193 2.338-2.06 1.5-2.06 2.22-.04.491 1.339.11 1.71.11 3.561-.436 4 .228 7.36 2.56 1.8 1.25 3.34 2.22 3.17.77-.26-2.33-2.65-4.19-3.26-4.65-.177-.133-.12-.16-.12-2.28.0009166-.0968877.0485708-.1873677.1279479-.2429316.079377-.055564.1807029-.0693701.2720521-.0370684.29.1.72.24 1.18.38 4.764 1.336 2.189-.97 4.21-3.26.7616656-.8788524 1.3305743-1.9076573 1.67-3.02.0677389-.2290987-.0068905-.476554-.19-.63z" id="Shape"/></g><g transform="translate(0 -1)" fill="#000" id="Outline"><path data-cppathid="10009" d="m48.791 32.657c1.1403999-.5837583 1.7499591-1.8577329 1.489-3.112-.4-2.821-3.025-3.632-4.883-3.7l-1.15-3.945c-.1468083-.5011104-.5896389-.8581653-1.1104834-.8953844-.5208446-.0372191-1.009946.2532407-1.2265166.7283844-.1516493.4502571-.4751627.8222976-.9 1.035-.417396.0160327-.8225735-.1427041-1.118-.438-.3564174-.310555-.8579706-.3924598-1.2946662-.2114219-.4366955.1810379-.7331856.593782-.7653338 1.0654219.0052373.4906425-.1813509.9639306-.52 1.319-.4990752-.0311667-.9719162-.2343682-1.338-.575-.3916523-.3009774-.9238882-.3428711-1.3578069-.1068764-.4339187.2359946-.6879988.7055407-.6481931 1.1978764.1040057.5483034-.0100892 1.1155489-.318 1.581-.241.2-.725-.1-.991-.3-.4116908-.3091794-.9709163-.3340564-1.4084341-.0626538-.4375179.2714027-.6636667.7834658-.5695659 1.2896538.1166569.4049653.064726.8398864-.144 1.206-.3468913.2948532-.8029654.4279657-1.254.366-.5044953-.0128191-.9671351.2792202-1.172563.7401748-.2054278.4609547-.1132745 1.0002416.233563 1.3668252l2.563 2.7c-1.263 1.4-1.621 3.1-.466 4.6-1.29 1.626-1 3.4 1.235 4.29.367 1.856 1.619 2.905 3.305 2.388.012.72 0 1.562-.072 2.423-.067.775-.248.821-.734.944-.6888347.0777897-1.2370017.6131894-1.331 1.3-.0262861.3547922.1084939.702576.367.947.982.924 3.289-.339 5.385.268 1.7.489 5.32 4.021 7.1 4.021.817 0 1.526-.642 1.387-1.844-.263-2.277-2.116-4.115-3.377-5.12v-.723c2.984.914 3.665.4 3.972.163 1.254-.958.439-2.347 1.569-3.629.8520855-.9852651 1.4899268-2.1369892 1.873-3.382.187317-.6019722.0036778-1.2578264-.469-1.675-1.818-1.644-1.951-4.577-1.86-6.22zm-16.091-4.104c1.459.442 2.9-.392 3.214-2.341.7040779.3868405 1.5501809.4157087 2.2789881.077757.7288071-.3379518 1.2534056-1.0024216 1.4130119-1.789757 1.0560811.5319669 2.3350138.3192159 3.162-.526l.665 2.28c-3.906532 1.6710754-7.5969239 3.8078832-10.991 6.364l-1.654-1.743c1.0398556-.3286546 1.78897-1.2384055 1.912-2.322zm15.045 14.054c-.7676759.9404116-1.2131987 2.1024163-1.271 3.315-1.0453781-.0804142-2.0719357-.3226319-3.043-.718-.3982108-.1395736-.8393927-.0771905-1.1832944.1673176-.3439017.2445082-.5477365.6407208-.5467056 1.0626824v2.036c-.002372.4069617.1883249.7909526.514 1.035 1.1653726.801926 2.087687 1.90898 2.666 3.2-1.718-1.036-4.155-3.1-5.729-3.551-.8174509-.2171755-1.6657919-.2942667-2.509-.228.3479834-1.6029055.4491495-3.2495519.3-4.883.283-.232.572-.489.873-.784.2719839-.2462596.3872675-.6216904.300362-.9781542-.0869055-.3564639-.3620425-.6367105-.716847-.7301599-.3548045-.0934493-.7322928.0149072-.983515.2823141-1.376 1.352-2.134 1.553-2.346 1.474-.235-.093-.454-.783-.479-1.29-.0172875-.4307481-.3086741-.8019335-.723-.921-.917-.264-1.167-.561-1.186-.653-.05-.244.388-.831.782-1.151.2353416-.1886615.3729544-.4734696.3745072-.7750926s-.1331205-.5878329-.3665072-.7789074c-.739-.6-.729-1.054-.725-1.2.1563928-.7234261.5790084-1.3616326 1.184-1.788 3.6361607-2.8434756 7.6511794-5.1658521 11.929-6.9.6-.03 3.162-.026 3.445 1.978.087.614-.121.819-.2.9-.664516.4120149-1.450146.5838935-2.226.487-.0615465-.3725133-.1620995-.7375209-.3-1.089-.2200043-.5029932-.8043823-.7345638-1.3092081-.5187981-.5048259.2157657-.7413037.7981752-.5297919 1.3047981.2674242.6220575.2627112 1.3275708-.013 1.946-.39.552-1.419.813-2.9.737-.5522847-.0276142-1.0223858.3977153-1.05.95s.3977153 1.0223858.95 1.05c.115.006.223.006.333.009.0182687.143489-.0150467.2888009-.094.41-.587.683-3.215.1-4.086-.123-.3514542-.1038739-.7315735-.0071767-.9906692.2520128-.2590958.2591896-.3556554.6393439-.2516542.9907604.1040012.3514166.3918999.6177911.7503234.6942268.135.035.247.054.377.085.2 1.886 1.426 3.748 3.421 3.885v1.112c0 .5522847.4477153 1 1 1s1-.4477153 1-1v-1.554c.5005448-.2436075.7125879-.8440994.476-1.348-.2444808-.4950151-.8438673-.6982424-1.339-.454-.911.449-1.379.214-1.653 0-.3833673-.3425336-.6591728-.7888938-.794-1.285 1.306.12 2.759.038 3.616-.973.4179077-.5310111.6126621-1.203864.543-1.876 1.2458351-.1823517 2.2913426-1.0331943 2.723-2.216.3426592.0155053.6859391.0104963 1.028-.015-.023 2 .328 5.024 2.353 7-.307728.8868321-.780741 1.7073094-1.394 2.418z" id="Shape"/><path data-cppathid="10010" d="m56.85 21.032c.7126949-.3152676 1.1661961-1.027856 1.15-1.807v-2.225c0-1.1045695-.8954305-2-2-2h-2.225c-.7793824-.0160242-1.4920372.4379136-1.807 1.151-.5110809.5419798-1.2230531.849198-1.968.849198s-1.4569191-.3072182-1.968-.849198c-.3153166-.7132443-1.0283329-1.1671612-1.808-1.151h-2.448c-.7799518-.0162983-1.4933297.4375977-1.809 1.151-.4642745.6046991-1.208519.9259312-1.967.849-.758481.0769312-1.5027255-.2443009-1.967-.849-.0457643-.088555-.0982515-.1734706-.157-.254.162-.474.124-.415.124-3.117.0220428-.7839697-.4359245-1.5022177-1.156-1.813-.6037726-.464654-.9232706-1.20926599-.844-1.967-.0788438-.75382769.2358995-1.49515583.833-1.962.7251785-.30914346 1.1878765-1.02995328 1.167-1.818v-2.22c0-1.1045695-.8954305-2-2-2h-2.22c-.783728-.0222108-1.5019073.43531653-1.813 1.155-.4644306.60414735-1.2090802.92404003-1.967.845-.7531211.07895181-1.4939122-.23496834-1.961-.831-.308653-.72630937-1.0301067-1.1899594-1.819-1.169h-2.44c-.783728-.0222108-1.5019073.43531653-1.813 1.155-.4644306.60414735-1.2090802.92404003-1.967.845-.7531211.07895181-1.4939122-.23496834-1.961-.831-.308653-.72630937-1.0301067-1.1899594-1.819-1.169h-2.44c-.783728-.0222108-1.5019073.43531653-1.813 1.155-.4644306.60414735-1.2090802.92404003-1.967.845-.75312109.07895181-1.49391219-.23496834-1.961-.831-.30865297-.72630937-1.03010669-1.1899594-1.819-1.169h-2.22c-1.1045695 0-2 .8954305-2 2v2.22c-.02204284.7839697.43592448 1.50221774 1.156 1.813.60377259.46465398.92327057 1.20926599.844 1.967.07884383.75382769-.23589946 1.4951558-.833 1.962-.72517845.3091435-1.18787651 1.0299533-1.167 1.818v2.44c-.02204284.7839697.43592448 1.5022177 1.156 1.813.60377259.464654.92327057 1.209266.844 1.967.07884383.7538277-.23589946 1.4951558-.833 1.962-.72517845.3091435-1.18787651 1.0299533-1.167 1.818v2.44c-.02204284.7839697.43592448 1.5022177 1.156 1.813.60377259.464654.92327057 1.209266.844 1.967.07884383.7538277-.23589946 1.4951558-.833 1.962-.72517845.3091435-1.18787651 1.0299533-1.167 1.818v2.44c-.02204284.7839697.43592448 1.5022177 1.156 1.813.60377259.464654.92327057 1.209266.844 1.967.07884383.7538277-.23589946 1.4951558-.833 1.962-.72517845.3091435-1.18787651 1.0299533-1.167 1.818v2.22c0 1.1045695.8954305 2 2 2h2.22c.78372804.0222108 1.5019073-.4353165 1.813-1.155.46443059-.6041474 1.20908017-.92404 1.967-.845.7531211-.0789518 1.4939122.2349683 1.961.831.308653.7263094 1.0301067 1.1899594 1.819 1.169h2.44c.783728.0222108 1.5019073-.4353165 1.813-1.155.4644306-.6041474 1.2090802-.92404 1.967-.845.7579198-.07904 1.5025694.2408526 1.967.845.0426138.094105.093128.1844283.151.27-.169.5-.118.6-.118 3.11-.015754.7793067.4380965 1.4918243 1.151 1.807.5433246.5103349.8514936 1.2225852.8514936 1.968s-.308169 1.4576651-.8514936 1.968c-.7127208.3153882-1.1664841 1.0277691-1.151 1.807v2.225c0 1.1045695.8954305 2 2 2h2.224c.7799518.0162983 1.4933297-.4375977 1.809-1.151.4642745-.6046991 1.208519-.9259312 1.967-.849.758481-.0769312 1.5027255.2443009 1.967.849.3156703.7134023 1.0290482 1.1672983 1.809 1.151h2.448c.7799518.0162983 1.4933297-.4375977 1.809-1.151.4642745-.6046991 1.208519-.9259312 1.967-.849.758481-.0769312 1.5027255.2443009 1.967.849.3156703.7134023 1.0290482 1.1672983 1.809 1.151h2.448c.7796671.0161612 1.4926834-.4377557 1.808-1.151.5103349-.5433246 1.2225852-.8514936 1.968-.8514936s1.4576651.308169 1.968.8514936c.3149628.7130864 1.0276176 1.1670242 1.807 1.151h2.225c1.1045695 0 2-.8954305 2-2v-2.225c.0160242-.7793824-.4379136-1.4920372-1.151-1.807-.5433246-.5103349-.8514936-1.2225852-.8514936-1.968s.308169-1.4576651.8514936-1.968c.7130864-.3149628 1.1670242-1.0276176 1.151-1.807v-2.45c.0160242-.7793824-.4379136-1.4920372-1.151-1.807-.605021-.4644697-.9262906-1.2091795-.849-1.968-.0770601-.7590063.2446041-1.5037537.85-1.968.7126949-.3152676 1.1661961-1.027856 1.15-1.807v-2.45c.0160242-.7793824-.4379136-1.4920372-1.151-1.807-.605021-.4644697-.9262906-1.2091795-.849-1.968-.0770601-.7590063.2446041-1.5037537.85-1.968.7126949-.3152676 1.1661961-1.027856 1.15-1.807v-2.45c.0160242-.7793824-.4379136-1.4920372-1.151-1.807-.605021-.4644697-.9262906-1.2091795-.849-1.968-.0770601-.7590063.2446041-1.5037537.85-1.968zm-40.63 23.968h-2.442c-1.215-2.65-6.323-2.67-7.558 0h-2.22v-2.223c2.649-1.214 2.666-6.327 0-7.556 0-.02 0-.946 0-2.444 2.649-1.214 2.664-6.327 0-7.556 0-.02 0-.946 0-2.444 2.649-1.214 2.664-6.327 0-7.556 0-.02 0-.946 0-2.444 2.654-1.214 2.669-6.327 0-7.556v-2.221h2.222c1.215 2.647 6.323 2.67 7.558 0h2.442c1.215 2.647 6.323 2.67 7.558 0h2.442c1.215 2.65 6.323 2.67 7.558 0h2.22v2.223c-2.649 1.214-2.666 6.327 0 7.556v2.221h-2.22c-.757655-.0139321-1.4535718.4161288-1.78 1.1v-7.1c0-1.1045695-.8954305-2-2-2h-20c-1.1045695 0-2 .8954305-2 2v30c0 1.1045695.8954305 2 2 2h13.1c.966.444 1.212 2.53.452 3.6-1.579-2.293-6.183-2.089-7.332.4zm6.931-23.965c.6040561.463884.9252132 1.2071982.849 1.965.0770601.7590063-.2446041 1.5037537-.85 1.968-.7123294.3156926-1.1656563 1.0280072-1.15 1.807v2.45c-.015754.7793067.4380965 1.4918243 1.151 1.807.605021.4644697.9262906 1.2091795.849 1.968.0770601.7590063-.2446041 1.5037537-.85 1.968-.7123294.3156926-1.1656563 1.0280072-1.15 1.807v2.225h-12v-30h20v8c-.758481.0769312-1.5027255-.2443009-1.967-.849-.3156703-.7134023-1.0290482-1.1672983-1.809-1.151h-2.224c-1.1045695 0-2 .8954305-2 2v2.225c-.015754.7793067.4380965 1.4918243 1.151 1.807zm32.849-1.811c-2.653 1.22-2.665 6.334 0 7.555v2.445c-2.653 1.22-2.665 6.334 0 7.555v2.445c-2.653 1.22-2.665 6.334 0 7.555v2.445c-2.653 1.22-2.663 6.334 0 7.555v2.221h-2.224c-1.222-2.659-6.337-2.66-7.555 0h-2.444c-1.225-2.659-6.337-2.66-7.556 0h-2.444c-1.224-2.655-6.335-2.66-7.556 0h-2.221v-2.224c2.653-1.22 2.665-6.334 0-7.555v-2.445c2.653-1.22 2.665-6.334 0-7.555v-2.445c2.653-1.22 2.665-6.334 0-7.555v-2.445c2.653-1.22 2.663-6.334 0-7.555v-2.221h2.223c1.226 2.659 6.338 2.66 7.556 0h2.444c1.225 2.659 6.337 2.66 7.556 0h2.444c1.225 2.658 6.337 2.658 7.556 0h2.221z" id="Shape"/><path data-cppathid="10011" d="m1 56c1.1 0 1.345 2 3.6 2 2.281 0 2.476-2 3.6-2 .419 0 .6.163 1.056.669.59032146.8162468 1.5289013 1.3088532 2.536 1.331 1.010011-.0204348 1.9520485-.5131074 2.545-1.331.456-.506.639-.669 1.059-.669 1.107 0 1.346 2 3.6 2 .5522847 0 1-.4477153 1-1s-.4477153-1-1-1c-.42 0-.6-.163-1.059-.669-.5912635-.8156791-1.5298259-1.3080821-2.537-1.331-2.251 0-2.505 2-3.6 2s-1.346-2-3.6-2-2.509 2-3.6 2-1.348-2-3.6-2c-.55228475 0-1 .4477153-1 1s.44771525 1 1 1z" id="Shape"/><path data-cppathid="10012" d="m1 51c1.1 0 1.345 2 3.6 2 2.281 0 2.476-2 3.6-2 .419 0 .6.163 1.056.669.59032146.8162468 1.5289013 1.3088532 2.536 1.331 1.010011-.0204348 1.9520485-.5131074 2.545-1.331.456-.506.639-.669 1.059-.669 1.107 0 1.346 2 3.6 2 .5522847 0 1-.4477153 1-1s-.4477153-1-1-1c-.42 0-.6-.163-1.059-.669-.5912635-.8156791-1.5298259-1.3080821-2.537-1.331-2.251 0-2.505 2-3.6 2s-1.346-2-3.6-2-2.509 2-3.6 2-1.348-2-3.6-2c-.55228475 0-1 .4477153-1 1s.44771525 1 1 1z" id="Shape"/></g></g></svg>