<?xml version="1.0" encoding="UTF-8"?>
<svg xmlns="http://www.w3.org/2000/svg" onmouseup="{ if(window.parent.document.onmouseup) window.parent.document.onmouseup(arguments[0]);}" xml:space="preserve" style="enable-background:new 0 0 512 512;" viewBox="0 0 512 512" y="0px" x="0px" id="Capa_1" version="1.1" xmlns:xlink="http://www.w3.org/1999/xlink"><path data-cppathid="10000" d="M476.69,0c-19.5,0-35.31,15.81-35.31,35.31v17.655H512V35.31C512,15.81,496.19,0,476.69,0z" style="fill:#C7C7C7;"/><path data-cppathid="10001" d="M441.379,0H105.931c-19.5,0-35.31,15.81-35.31,35.31V512h335.448c19.5,0,35.31-15.81,35.31-35.31  V35.31c0-19.5,15.81-35.31,35.31-35.31H441.379z" style="fill:#E0E0E0;"/><path data-cppathid="10002" d="M441.379,0h-41.313C349.714,183.349,232.068,340.957,70.621,441.379V512h335.448  c19.5,0,35.31-15.81,35.31-35.31V35.31c0-19.5,15.81-35.31,35.31-35.31H441.379z" style="fill:#D9D9D9;"/><g><rect data-cppathid="10003" height="17.655" width="114.759" style="fill:#C7C7C7;" y="79.448" x="194.207"/><rect data-cppathid="10004" height="17.655" width="282.483" style="fill:#C7C7C7;" y="132.414" x="114.759"/><rect data-cppathid="10005" height="17.655" width="194.207" style="fill:#C7C7C7;" y="185.379" x="114.759"/><rect data-cppathid="10006" height="17.655" width="52.966" style="fill:#C7C7C7;" y="185.379" x="344.276"/><rect data-cppathid="10007" height="17.655" width="282.483" style="fill:#C7C7C7;" y="238.345" x="114.759"/><rect data-cppathid="10008" height="17.655" width="105.931" style="fill:#C7C7C7;" y="291.31" x="114.759"/><rect data-cppathid="10009" height="17.655" width="44.138" style="fill:#C7C7C7;" y="335.448" x="114.759"/><rect data-cppathid="10010" height="17.655" width="26.483" style="fill:#C7C7C7;" y="335.448" x="194.207"/></g><path data-cppathid="10011" d="M370.759,476.69v-17.655H0v17.655C0,496.19,15.81,512,35.31,512h370.759  C386.569,512,370.759,496.19,370.759,476.69z" style="fill:#EBEBEB;"/><polygon data-cppathid="10012" points="317.793,361.931 317.793,423.724 344.276,406.069 370.759,423.724 370.759,361.931 " style="fill:#F46B27;"/><path data-cppathid="10013" d="M317.793,370.759v17.655c15.616,12.014,37.35,12.014,52.966,0v-17.655H317.793z" style="fill:#E65F1C;"/><circle data-cppathid="10014" r="44.138" cy="335.448" cx="344.276" style="fill:#FDB62F;"/><circle data-cppathid="10015" r="26.483" cy="335.448" cx="344.276" style="fill:#FFA83D;"/><g/><g/><g/><g/><g/><g/><g/><g/><g/><g/><g/><g/><g/><g/><g/></svg>