<?xml version="1.0" encoding="UTF-8"?>
<svg xmlns="http://www.w3.org/2000/svg" onmouseup="{ if(window.parent.document.onmouseup) window.parent.document.onmouseup(arguments[0]);}" width="512" viewBox="0 0 512 512" height="512" enable-background="new 0 0 512 512" id="Layer_1"><g><path data-cppathid="10000" fill="#e19974" d="m490.881 147.575v216.316c0 20.068-16.267 36.335-36.335 36.335h-397.093c-20.068 0-36.335-16.267-36.335-36.335v-216.316z"/><path data-cppathid="10001" fill="#e19974" d="m490.881 147.575v216.316c0 20.068-16.267 36.335-36.335 36.335h-397.093c-20.068 0-36.335-16.267-36.335-36.335v-216.316z"/><path data-cppathid="10002" fill="#dc8758" d="m459.976 147.575v216.316c0 20.068-16.267 36.335-36.335 36.335h30.905c20.068 0 36.335-16.267 36.335-36.335v-216.316z"/><path data-cppathid="10003" fill="#d77f4a" d="m383.742 147.575h41.207v252.651h-41.207z"/><path data-cppathid="10004" fill="#d77f4a" d="m185.948 147.575h41.207v252.651h-41.207z"/><path data-cppathid="10005" fill="#dc8758" d="m21.119 204.491h469.763v41.207h-469.763z"/><path data-cppathid="10006" fill="#d77f4a" d="m459.976 204.491h30.905v41.207h-30.905z"/><path data-cppathid="10007" fill="#dc8758" d="m21.119 300.298h469.763v41.207h-469.763z"/><g fill="#d77f4a"><path data-cppathid="10008" d="m459.976 300.298h30.905v41.207h-30.905z"/><path data-cppathid="10009" d="m87.05 147.575h41.207v252.651h-41.207z"/><path data-cppathid="10010" d="m284.845 147.575h41.207v252.651h-41.207z"/></g><path data-cppathid="10011" fill="#dc8758" d="m505.819 163.284h-499.638c-3.414 0-6.181-2.767-6.181-6.181v-39.147c0-3.414 2.767-6.181 6.181-6.181h499.638c3.414 0 6.181 2.767 6.181 6.181v39.147c0 3.413-2.767 6.181-6.181 6.181z"/><path data-cppathid="10012" fill="#d77f4a" d="m505.819 111.775h-30.905c3.414 0 6.181 2.767 6.181 6.181v39.147c0 3.414-2.767 6.181-6.181 6.181h30.905c3.414 0 6.181-2.767 6.181-6.181v-39.147c0-3.414-2.767-6.181-6.181-6.181z"/></g></svg>