<?xml version="1.0" encoding="UTF-8"?>
<svg xmlns="http://www.w3.org/2000/svg" onmouseup="{ if(window.parent.document.onmouseup) window.parent.document.onmouseup(arguments[0]);}" width="512" viewBox="0 0 61.999 61.987" height="512" enable-background="new 0 0 61.999 61.987" id="Layer_5"><g><path data-cppathid="10000" d="m19 36.987c.552 0 1 .449 1 1h2c0-1.654-1.346-3-3-3s-3 1.346-3 3h2c0-.551.448-1 1-1z"/><path data-cppathid="10001" d="m11 36.987c.552 0 1 .449 1 1h2c0-1.654-1.346-3-3-3s-3 1.346-3 3h2c0-.551.448-1 1-1z"/><path data-cppathid="10002" d="m19.999 40.987v-1h-10v1c0 2.757 2.243 5 5 5s5-2.243 5-5zm-5 3c-1.304 0-2.416-.836-2.829-2h5.658c-.413 1.164-1.525 2-2.829 2z"/><path data-cppathid="10003" d="m36 53.987h14v-8h-14zm6-2v-4h2v4zm6 0h-2v-4h2zm-10-4h2v4h-2z"/><path data-cppathid="10004" d="m60.601 10.449-15.219-9.763c-1.426-.914-3.338-.914-4.764 0l-15.211 9.759c-1.4.878-1.827 2.732-.951 4.132.366.586.916.996 1.544 1.219v8.039c-2.126-2.355-5.191-3.847-8.606-3.847h-4.787c-6.4-.001-11.607 5.206-11.607 11.606 0 1.404.264 2.769.754 4.073-.47.656-.754 1.454-.754 2.32 0 .801.242 1.545.649 2.171-1.077 2.104-1.649 4.449-1.649 6.829 0 8.271 6.729 15 15 15 3.923 0 7.488-1.526 10.164-4h25.836c1.654 0 3-1.346 3-3v-21h6v-18.192c.627-.222 1.178-.632 1.543-1.217.877-1.401.45-3.255-.942-4.129zm-34.122 1.684 15.22-9.764c.39-.25.84-.382 1.302-.382s.912.132 1.302.382l15.228 9.769c.468.293.61.912.317 1.38-.281.452-.947.585-1.362.327l-15.486-10.05-15.468 10.04c-.462.288-1.098.135-1.381-.319-.292-.466-.149-1.084.328-1.383zm25.521 21.854h-23.248c.164-.782.248-1.582.248-2.393 0-.546-.051-1.08-.125-1.606h22.125c.552 0 1 .449 1 1v2zm-27.295 21.62c-.675-2.804-2.508-5.124-4.971-6.441 2.813-1.29 4.851-3.981 5.207-7.179h.059c.644 0 1.244-.167 1.784-.439.783 1.699 1.216 3.552 1.216 5.439 0 3.309-1.253 6.323-3.295 8.62zm-9.705-3.62c-1.119 0-2.101-.616-2.615-1.559.82-.281 1.697-.441 2.615-.441s1.796.16 2.615.441c-.514.944-1.496 1.559-2.615 1.559zm-1-4c-3.859 0-7-3.14-7-7v-7.066c2.084-.276 3.938-1.41 5.134-3.136 1.695 1.967 4.201 3.202 6.938 3.202h3.928v7c0 3.86-3.141 7-7 7zm11-12c1.103 0 2 .897 2 2s-.897 2-2 2zm3.444 0h23.556v4h-23.556c.344-.591.556-1.268.556-2s-.212-1.409-.556-2zm10.556-20v12h-5v-12zm3-4c0-.551.448-1 1-1s1 .449 1 1-.448 1-1 1-1-.448-1-1zm-1 16v-12h4v12zm11 .185c-.314-.112-.648-.184-1-.184h-4v-12h5zm-6.78-14.185c.48-.532.78-1.229.78-2 0-1.654-1.346-3-3-3s-3 1.346-3 3c0 .771.301 1.468.78 2h-9.81l12.03-7.807 12.031 7.808h-9.811zm-17.22 2h4v12h-3.581c-.122-.371-.262-.733-.419-1.086zm-15.394 6h4.787c5.297 0 9.606 4.31 9.606 9.606 0 .934-.141 1.847-.404 2.73-.49-.214-1.028-.337-1.596-.337v-2h-5.929c-3.536 0-6.581-2.64-7.081-6.142l-1.98.283c.144 1.004.451 1.952.892 2.82l-.007.013c-.933 1.868-2.808 3.027-4.894 3.027h-1v2c-.568 0-1.106.122-1.596.337-.263-.884-.404-1.797-.404-2.73 0-5.297 4.31-9.607 9.606-9.607zm-7.606 18c-1.103 0-2-.897-2-2s.897-2 2-2zm-3 7c0-1.888.433-3.74 1.216-5.439.539.272 1.14.439 1.784.439h.059c.355 3.198 2.394 5.889 5.207 7.179-2.463 1.317-4.296 3.637-4.971 6.441-2.042-2.297-3.295-5.311-3.295-8.62zm5.052 10.265c.226-2.505 1.569-4.656 3.538-5.953.691 1.33 1.933 2.279 3.41 2.578v4.11h2v-4.11c1.477-.299 2.718-1.248 3.41-2.578 1.969 1.296 3.312 3.448 3.538 5.953-2.2 1.707-4.953 2.735-7.948 2.735s-5.747-1.027-7.948-2.735zm43.948-1.265h-24.028c1.892-2.51 3.028-5.621 3.028-9 0-1.71-.298-3.402-.862-5h22.862v13c0 .552-.448 1-1 1zm3-24v-1-15h4v16z"/></g></svg>