<?xml version="1.0" encoding="UTF-8"?>
<svg xmlns="http://www.w3.org/2000/svg" onmouseup="{ if(window.parent.document.onmouseup) window.parent.document.onmouseup(arguments[0]);}" xml:space="preserve" style="enable-background:new 0 0 512.001 512.001;" viewBox="0 0 512.001 512.001" y="0px" x="0px" id="Capa_1" version="1.1" xmlns:xlink="http://www.w3.org/1999/xlink"><polyline data-cppathid="10000" points="131.202,348.955 131.202,455.833 86.363,455.833 86.363,348.938 " style="fill:#C97523;"/><polyline data-cppathid="10001" points="106.363,348.955 106.363,455.833 86.363,455.833 86.363,348.938 " style="fill:#A85613;"/><ellipse data-cppathid="10002" ry="171.015" rx="108.782" cy="201.393" cx="108.782" style="fill:#8CC928;"/><path data-cppathid="10003" d="M108.782,372.411C48.698,372.411,0,295.84,0,201.396S48.698,30.381,108.782,30.381  c-26.601,0-48.155,76.571-48.155,171.015S82.181,372.411,108.782,372.411z" style="fill:#82B20B;"/><polygon data-cppathid="10004" points="468.698,263.882 468.698,481.621 183.04,481.621 183.04,263.882 326.674,124.549 " style="fill:#E9EAEF;"/><polyline data-cppathid="10005" points="398.802,187.006 398.802,146.786 470.217,146.786 470.217,255.017 " style="fill:#9EB1B7;"/><polyline data-cppathid="10006" points="398.802,187.006 398.802,146.786 415.953,146.786 415.953,255.017 " style="fill:#879BA0;"/><g><path data-cppathid="10007" d="M354.204,435.996h143.137c8.096,0,14.66,6.563,14.66,14.66v30.967H339.544v-30.967   C339.544,442.559,346.107,435.996,354.204,435.996z" style="fill:#85C10D;"/><path data-cppathid="10008" d="M14.66,435.996h166.026c8.096,0,14.66,6.563,14.66,14.66v30.967H0v-30.967   C0,442.559,6.563,435.996,14.66,435.996z" style="fill:#85C10D;"/></g><polygon data-cppathid="10009" points="468.698,272.43 468.698,313.129 325.869,176.757 183.04,313.129 183.04,272.43   314.525,147.203 325.869,136.666 337.204,147.203 " style="fill:#D2D4D8;"/><polygon data-cppathid="10010" points="325.865,154.108 163.246,309.368 140.507,290.279 314.527,124.549 325.865,114.017   337.205,124.549 511.225,290.279 488.486,309.368 " style="fill:#EA4756;"/><rect data-cppathid="10011" height="163.132" width="94.204" style="fill:#C97523;" y="318.486" x="217.982"/><path data-cppathid="10012" d="M318.971,481.621h-13.556V325.262h-80.65v156.359h-13.556V318.484c0-3.744,3.034-6.778,6.778-6.778  h94.207c3.744,0,6.778,3.034,6.778,6.778V481.621z" style="fill:#8E480E;"/><rect data-cppathid="10013" height="94.204" width="107.281" style="fill:#A0D9F2;" y="318.486" x="339.549"/><rect data-cppathid="10014" height="28.626" width="107.281" style="fill:#C97523;" y="318.486" x="339.549"/><g><path data-cppathid="10015" d="M446.822,419.47H339.544c-3.744,0-6.778-3.034-6.778-6.778v-94.206c0-3.744,3.034-6.778,6.778-6.778   h107.279c3.744,0,6.778,3.034,6.778,6.778v94.206C453.6,416.434,450.566,419.47,446.822,419.47z M346.322,405.914h93.723v-80.65   h-93.723V405.914z" style="fill:#8E480E;"/><path data-cppathid="10016" d="M291.023,406.308h-13.674c-3.744,0-6.778-3.034-6.778-6.778s3.034-6.778,6.778-6.778h13.674   c3.744,0,6.778,3.034,6.778,6.778S294.766,406.308,291.023,406.308z" style="fill:#8E480E;"/></g><circle data-cppathid="10017" r="26.205" cy="245.69" cx="325.868" style="fill:#413740;"/><rect data-cppathid="10018" height="13.556" width="107.281" style="fill:#8E480E;" y="340.332" x="339.549"/><path data-cppathid="10019" d="M325.869,278.679c-18.189,0-32.987-14.798-32.987-32.987s14.797-32.987,32.987-32.987  s32.988,14.798,32.988,32.987C358.856,263.881,344.058,278.679,325.869,278.679z M325.869,226.261  c-10.713,0-19.431,8.717-19.431,19.431s8.717,19.431,19.431,19.431s19.432-8.717,19.432-19.431S336.583,226.261,325.869,226.261z" style="fill:#EA4756;"/><g><path data-cppathid="10020" d="M46.925,449.03c-4.32,0-7.821-3.502-7.821-7.821v-19.787c0-4.319,3.501-7.821,7.821-7.821   s7.821,3.502,7.821,7.821v19.787C54.746,445.529,51.244,449.03,46.925,449.03z" style="fill:#85C10D;"/><path data-cppathid="10021" d="M21.803,449.03c-4.32,0-7.821-3.502-7.821-7.821v-19.787c0-4.319,3.501-7.821,7.821-7.821   s7.821,3.502,7.821,7.821v19.787C29.624,445.529,26.123,449.03,21.803,449.03z" style="fill:#85C10D;"/><path data-cppathid="10022" d="M157.12,449.03c-4.32,0-7.821-3.502-7.821-7.821v-19.787c0-4.319,3.501-7.821,7.821-7.821   c4.32,0,7.821,3.502,7.821,7.821v19.787C164.941,445.529,161.441,449.03,157.12,449.03z" style="fill:#85C10D;"/></g><g/><g/><g/><g/><g/><g/><g/><g/><g/><g/><g/><g/><g/><g/><g/></svg>