<?xml version="1.0" encoding="UTF-8"?>
<svg xmlns="http://www.w3.org/2000/svg" onmouseup="{ if(window.parent.document.onmouseup) window.parent.document.onmouseup(arguments[0]);}" xml:space="preserve" style="enable-background:new 0 0 512 512;" viewBox="0 0 512 512" y="0px" x="0px" id="Capa_1" version="1.1" xmlns:xlink="http://www.w3.org/1999/xlink"><rect data-cppathid="10000" height="460.8" width="238.933" style="fill:#4398D1;" y="38.4" x="136.533"/><polygon data-cppathid="10001" points="136.533,371.2 136.533,499.2 375.467,499.2 375.467,105.719 " style="fill:#3F8FC4;"/><rect data-cppathid="10002" height="34.133" width="170.667" style="fill:#4398D1;" y="4.267" x="170.667"/><rect data-cppathid="10003" height="17.067" width="170.667" style="fill:#3F8FC4;" y="21.333" x="170.667"/><g><rect data-cppathid="10004" height="34.133" width="34.133" style="fill:#87CED9;" y="81.067" x="170.667"/><rect data-cppathid="10005" height="34.133" width="34.133" style="fill:#87CED9;" y="81.067" x="238.933"/><rect data-cppathid="10006" height="34.133" width="34.133" style="fill:#87CED9;" y="81.067" x="307.2"/><rect data-cppathid="10007" height="34.133" width="34.133" style="fill:#87CED9;" y="149.333" x="170.667"/><rect data-cppathid="10008" height="34.133" width="34.133" style="fill:#87CED9;" y="149.333" x="238.933"/><rect data-cppathid="10009" height="34.133" width="34.133" style="fill:#87CED9;" y="149.333" x="307.2"/><rect data-cppathid="10010" height="34.133" width="34.133" style="fill:#87CED9;" y="217.6" x="170.667"/><rect data-cppathid="10011" height="34.133" width="34.133" style="fill:#87CED9;" y="217.6" x="238.933"/><rect data-cppathid="10012" height="34.133" width="34.133" style="fill:#87CED9;" y="217.6" x="307.2"/><rect data-cppathid="10013" height="34.133" width="34.133" style="fill:#87CED9;" y="285.867" x="170.667"/><rect data-cppathid="10014" height="34.133" width="34.133" style="fill:#87CED9;" y="285.867" x="238.933"/><rect data-cppathid="10015" height="34.133" width="34.133" style="fill:#87CED9;" y="285.867" x="307.2"/><rect data-cppathid="10016" height="34.133" width="34.133" style="fill:#87CED9;" y="354.133" x="170.667"/><rect data-cppathid="10017" height="34.133" width="34.133" style="fill:#87CED9;" y="354.133" x="238.933"/><rect data-cppathid="10018" height="34.133" width="34.133" style="fill:#87CED9;" y="354.133" x="307.2"/><rect data-cppathid="10019" height="68.267" width="102.4" style="fill:#87CED9;" y="430.933" x="204.8"/></g><rect data-cppathid="10020" height="68.267" width="17.067" style="fill:#61ACC9;" y="430.933" x="247.467"/><path data-cppathid="10021" d="M83.627,364.792c2.057-6.238,2.278-12.928,0.657-19.285c-3.089-12.16-12.663-21.615-24.866-24.55  c-18.338-4.506-36.855,6.707-41.361,25.045c-0.657,2.662-0.99,5.393-0.99,8.132c0,3.021,0.401,6.025,1.195,8.934  c3.823,12.689,2.381,26.385-4.011,37.999c-11.785,20.412-4.787,46.498,15.616,58.283s46.507,4.787,58.283-15.616  c7.364-12.757,7.629-28.416,0.7-41.412C82.039,391.057,80.145,377.489,83.627,364.792z" style="fill:#88B337;"/><rect data-cppathid="10022" height="153.6" width="17.067" style="fill:#79A125;" y="354.133" x="42.667"/><path data-cppathid="10023" d="M493.227,364.792c2.057-6.238,2.278-12.928,0.657-19.285c-3.089-12.16-12.663-21.615-24.866-24.55  c-18.338-4.506-36.855,6.707-41.361,25.045c-0.657,2.662-0.99,5.393-0.99,8.132c0,3.021,0.401,6.025,1.195,8.934  c3.831,12.698,2.389,26.411-4.011,38.033c-11.785,20.412-4.787,46.498,15.616,58.283c20.403,11.785,46.498,4.787,58.283-15.616  c7.364-12.757,7.629-28.416,0.7-41.412C491.631,391.083,489.737,377.498,493.227,364.792z" style="fill:#88B337;"/><rect data-cppathid="10024" height="153.6" width="17.067" style="fill:#79A125;" y="354.133" x="452.267"/><rect data-cppathid="10025" height="17.067" width="512" style="fill:#E0D2C1;" y="490.667"/><g/><g/><g/><g/><g/><g/><g/><g/><g/><g/><g/><g/><g/><g/><g/></svg>