<?xml version="1.0" encoding="UTF-8"?>
<svg xmlns="http://www.w3.org/2000/svg" onmouseup="{ if(window.parent.document.onmouseup) window.parent.document.onmouseup(arguments[0]);}" width="512" viewBox="0 0 512 512" height="512" id="Filled"><path data-cppathid="10000" fill="#dadcde" d="m256 304-80 144h160z"/><path data-cppathid="10001" fill="#eb423f" d="m296.731 279.388 191.269 16.734-77.532-167.395z"/><path data-cppathid="10002" transform="matrix(.996 .087 -.087 .996 21.818 -7.682)" fill="#ffb632" d="m42.886 230.018h112v32h-112z"/><path data-cppathid="10003" transform="matrix(.996 .087 -.087 .996 18.868 -6.663)" fill="#ffd33a" d="m29.736 196.745h112v32h-112z"/><path data-cppathid="10004" transform="matrix(.996 .087 -.087 .996 16.283 -8.411)" fill="#ffb632" d="m48.464 166.261h112v32h-112z"/><path data-cppathid="10005" transform="matrix(.996 .087 -.087 .996 13.333 -7.392)" fill="#ffd33a" d="m35.314 132.988h112v32h-112z"/><circle data-cppathid="10006" r="56" fill="#ffd33a" cy="211.748" cx="166.129"/><path data-cppathid="10007" transform="matrix(.996 .087 -.087 .996 10.838 -9.832)" fill="#ffb632" d="m62.012 103.202h112v32h-112z"/><path data-cppathid="10008" transform="matrix(.996 .087 -.087 .996 7.797 -8.12)" fill="#ffd33a" d="m40.892 69.232h112v32h-112z"/><path data-cppathid="10009" transform="matrix(.087 -.996 .996 .087 -57.509 520.921)" fill="#dadcde" d="m239.488 59.841h32v464h-32z"/><path data-cppathid="10010" d="m22.279 295.529 218.648 19.13-71.92 129.456a8 8 0 0 0 6.993 11.885h160a8 8 0 0 0 6.993-11.885l-70.38-126.684 211.9 18.539c.237.02.472.031.706.031a8 8 0 0 0 7.961-7.3l2.789-31.878a8.006 8.006 0 0 0 -.718-4.056h.007l-77.53-167.402a8 8 0 0 0 -13.645-1.458l-111.069 147.125-88.962-7.783a63.988 63.988 0 0 0 -48.46-114.636l.176-2.016 15.939 1.394c.233.021.466.03.7.03a8 8 0 0 0 7.969-7.3l2.789-31.878a8 8 0 0 0 -7.273-8.667l-15.939-1.4 2.092-23.908a8 8 0 0 0 -7.272-8.667l-111.573-9.759a8 8 0 0 0 -8.667 7.273l-2.792 31.878a8 8 0 0 0 7.272 8.667l15.939 1.394-1.394 15.94-15.939-1.394a8 8 0 0 0 -8.667 7.273l-2.789 31.877a8 8 0 0 0 7.273 8.667l7.969.7-1.4 15.938-7.969-.7a8.012 8.012 0 0 0 -8.667 7.273l-2.789 31.878a8 8 0 0 0 7.272 8.667l7.97.7-1.395 15.938-7.969-.7a8.008 8.008 0 0 0 -8.667 7.272l-2.789 31.878a8 8 0 0 0 7.272 8.667zm300.121 144.471h-132.8l66.4-119.527zm86.411-295.806 66.119 142.754-163.11-14.271zm-242.717 19.552c1.394 0 2.8.061 4.218.185a48 48 0 0 1 -4.148 95.819c-1.39 0-2.795-.061-4.2-.184h-.025a48 48 0 0 1 4.16-95.818zm-57.933 75.054a64.452 64.452 0 0 0 11.681 17.083l-69.47-6.083 1.394-15.939zm-2.376-48.392-49.835-4.36 1.394-15.939 56.4 4.934a63.6 63.6 0 0 0 -7.959 15.364zm44.8-76.386 15.938 1.395-1.394 15.938-15.929-1.395-79.7-6.972 1.395-15.939 79.695 6.972zm-102.211-25 1.395-15.939 95.634 8.367-1.394 15.939zm-4.183 47.818 95.635 8.366-.751 8.577a64.3 64.3 0 0 0 -10.869 6.468l-85.406-7.477zm-5.578 63.756 63.756 5.578a63.945 63.945 0 0 0 .631 16.112l-65.773-5.755zm-5.578 63.757 446.3 39.046-1.4 15.938-446.291-39.05z"/><path data-cppathid="10011" d="m156.067 234.959a8 8 0 0 0 7.273 8.667q.355.03.706.03a8 8 0 0 0 7.961-7.3l.186-2.128a16.093 16.093 0 0 0 3.523-2.251 16 16 0 0 0 -8.89-28.2l7.969.7a8 8 0 0 0 1.4-15.94 8 8 0 1 0 -15.939-1.394l-.188 2.153a15.988 15.988 0 0 0 5.369 30.422l-7.97-.7a8 8 0 1 0 -1.395 15.939z"/><path data-cppathid="10012" d="m400.732 192.12a8.006 8.006 0 0 0 -8.667 7.273l-2.789 31.878a8 8 0 0 0 7.273 8.667q.356.03.706.03a8 8 0 0 0 7.961-7.3l2.789-31.878a8 8 0 0 0 -7.273-8.67z"/><path data-cppathid="10013" d="m395.154 255.877a8 8 0 1 0 7.273 8.666 8 8 0 0 0 -7.273-8.666z"/></svg>