<?xml version="1.0" encoding="UTF-8"?>
<svg xmlns="http://www.w3.org/2000/svg" onmouseup="{ if(window.parent.document.onmouseup) window.parent.document.onmouseup(arguments[0]);}" data-name="filled outline" width="512" viewBox="0 0 512 512" height="512" id="filled_outline"><path data-cppathid="10000" fill="#91c0ff" d="m375.877 337.87 96.123 102.13 16-16v64h-64l16-16-98.112-98.112z"/><path data-cppathid="10001" fill="#91c0ff" d="m136.123 337.87-96.123 102.13-16-16v64h64l-16-16 98.112-98.112z"/><path data-cppathid="10002" fill="#548aff" d="m208 232h-136v-16l-48 40 48 40v-16h136z"/><path data-cppathid="10003" fill="#548aff" d="m304 232h136v-16l48 40-48 40v-16h-136z"/><path data-cppathid="10004" fill="#91c0ff" d="m320.988 233.845 95.261-105.845 16 16v-64h-64l16 16-96.249 96.249z"/><path data-cppathid="10005" fill="#91c0ff" d="m191.261 233.845-95.261-105.845-16 16v-64h64l-16 16 96.249 96.249z"/><path data-cppathid="10006" fill="#548aff" d="m280 160v-88h16l-40-48-40 48h16v88z"/><path data-cppathid="10007" fill="#548aff" d="m232 352v88h-16l40 48 40-48h-16v-88z"/><path data-cppathid="10008" fill="#ffc431" d="m400 372.68949a19.31054 19.31054 0 0 0 -2.15079-8.85663l-118.51093-229.61494a26.26347 26.26347 0 0 0 -23.33828-14.21792 26.26347 26.26347 0 0 0 -23.33826 14.21792l-118.51095 229.61492a19.31054 19.31054 0 0 0 -2.15079 8.85663 19.31051 19.31051 0 0 0 19.31051 19.31053h249.379a19.31051 19.31051 0 0 0 19.31049-19.31051z"/><circle data-cppathid="10009" r="16" fill="#ffa100" cy="328" cx="256"/><path data-cppathid="10010" fill="#ffa100" d="m248 288h16l16-80h-48z"/><path data-cppathid="10011" d="m256 352a24 24 0 1 1 24-24 24.02718 24.02718 0 0 1 -24 24zm0-32a8 8 0 1 0 8 8 8.00917 8.00917 0 0 0 -8-8z"/><path data-cppathid="10012" d="m264 296h-16a8 8 0 0 1 -7.84473-6.43066l-16-80a8.00012 8.00012 0 0 1 7.84473-9.56934h48a8.00012 8.00012 0 0 1 7.84473 9.56934l-16 80a8 8 0 0 1 -7.84473 6.43066zm-9.44141-16h2.88282l12.80029-64h-28.4834z"/><path data-cppathid="10013" d="m380.68945 400h-249.3789a27.31076 27.31076 0 0 1 -24.26855-39.83691l118.51073-229.61426a34.26349 34.26349 0 0 1 60.89454 0l118.51073 229.61523a27.31 27.31 0 0 1 -24.26855 39.83594zm-124.68945-272a18.19566 18.19566 0 0 0 -16.22949 9.88672l-118.51074 229.61528a11.31053 11.31053 0 0 0 10.05078 16.498h249.3789a11.30975 11.30975 0 0 0 10.05078-16.49707l-118.51074-229.61621a18.19566 18.19566 0 0 0 -16.22949-9.88672z"/><path data-cppathid="10014" d="m288 104h-16v-32a8.00079 8.00079 0 0 1 6.97412-7.93457l-22.97412-27.56934-22.97412 27.56934a8.00079 8.00079 0 0 1 6.97412 7.93457v32h-16v-24h-8a7.9999 7.9999 0 0 1 -6.146-13.12109l40-48a7.99981 7.99981 0 0 1 12.292 0l40 48a7.9999 7.9999 0 0 1 -6.146 13.12109h-8z"/><path data-cppathid="10015" d="m72.00146 304a7.99889 7.99889 0 0 1 -5.123-1.85449l-48-40a7.99963 7.99963 0 0 1 0-12.291l48-40a7.99967 7.99967 0 0 1 13.12154 6.14549v8h72v16h-80a8.00164 8.00164 0 0 1 -7.93506-6.97363l-27.56836 22.97363 27.56836 22.97363a8.00164 8.00164 0 0 1 7.93506-6.97363h56v16h-48v8a7.99911 7.99911 0 0 1 -7.99854 8z"/><path data-cppathid="10016" d="m256 496a8.00036 8.00036 0 0 1 -6.146-2.87891l-40-48a7.9999 7.9999 0 0 1 6.146-13.12109h8v-16h16v24a8.00079 8.00079 0 0 1 -6.97412 7.93457l22.97412 27.56934 22.97412-27.56934a8.00079 8.00079 0 0 1 -6.97412-7.93457v-24h16v16h8a7.9999 7.9999 0 0 1 6.146 13.12109l-40 48a8.00036 8.00036 0 0 1 -6.146 2.87891z"/><path data-cppathid="10017" d="m439.99854 304a7.99911 7.99911 0 0 1 -7.99854-8v-8h-48v-16h56a8.00164 8.00164 0 0 1 7.93506 6.97363l27.56836-22.97363-27.56836-22.97363a8.00164 8.00164 0 0 1 -7.93506 6.97363h-80v-16h72v-8a7.99967 7.99967 0 0 1 13.12158-6.14551l48 40a7.99963 7.99963 0 0 1 0 12.291l-48 40a7.99889 7.99889 0 0 1 -5.12304 1.85451z"/><path data-cppathid="10018" d="m162.05371 213.35156-66.35937-73.73242-10.0376 10.03809a8.00038 8.00038 0 0 1 -13.65674-5.65723v-64a8.00008 8.00008 0 0 1 8-8h64a8.0001 8.0001 0 0 1 5.65674 13.65723l-10.34326 10.34277 58.34326 58.34277-11.31348 11.31446-64-64a8.00034 8.00034 0 0 1 0-11.31446l2.34326-2.34277h-36.68652v36.68652l2.34326-2.34375a8.00041 8.00041 0 0 1 11.603.30567l72 80z"/><path data-cppathid="10019" d="m488 496h-64a8.0001 8.0001 0 0 1 -5.65674-13.65723l10.34274-10.34277-50.34278-50.34277 11.31348-11.31446 56 56a8.00034 8.00034 0 0 1 0 11.31446l-2.3427 2.34277h36.686v-36.68652l-2.34326 2.34375a7.90288 7.90288 0 0 1 -5.77783 2.34179 8.00313 8.00313 0 0 1 -5.70459-2.51562l-52.70606-56 11.65137-10.9668 47.0542 49.9961 10.16943-10.16993a8.00038 8.00038 0 0 1 13.65674 5.65723v64a8.00008 8.00008 0 0 1 -8 8z"/><path data-cppathid="10020" d="m88 496h-64a8.00008 8.00008 0 0 1 -8-8v-64a8.00038 8.00038 0 0 1 13.65674-5.65723l10.16943 10.16993 47.0542-49.9961 11.65137 10.9668-52.70606 56a8.00313 8.00313 0 0 1 -5.70459 2.51562 7.8645 7.8645 0 0 1 -5.77783-2.34179l-2.34326-2.34375v36.68652h36.686l-2.34278-2.34277a8.00034 8.00034 0 0 1 0-11.31446l56-56 11.31348 11.31446-50.3427 50.34277 10.34278 10.34277a8.0001 8.0001 0 0 1 -5.65678 13.65723z"/><path data-cppathid="10021" d="m349.94629 213.35156-11.89258-10.70312 72-80a8.00041 8.00041 0 0 1 11.603-.30567l2.34329 2.34375v-36.68652h-36.68652l2.34326 2.34277a8.00034 8.00034 0 0 1 0 11.31446l-64 64-11.31348-11.31446 58.34326-58.34277-10.34326-10.34277a8.0001 8.0001 0 0 1 5.65674-13.65723h64a8.00008 8.00008 0 0 1 8 8v64a8.00038 8.00038 0 0 1 -13.65674 5.65723l-10.0376-10.03809z"/></svg>