<?xml version="1.0" encoding="UTF-8"?>
<svg xmlns="http://www.w3.org/2000/svg" onmouseup="{ if(window.parent.document.onmouseup) window.parent.document.onmouseup(arguments[0]);}" height="512" width="512" viewBox="0 0 512 512" data-name="Layer 1" id="Layer_1"><title/><path data-cppathid="10000" style="fill:#6fe3ff" d="M374.5,137.49a115.03,115.03,0,1,1-115,115A115,115,0,0,1,374.5,137.49Zm90,115a90.009,90.009,0,1,0-90,90A89.994,89.994,0,0,0,464.5,252.49Z"/><path data-cppathid="10001" style="fill:#6fe3ff" d="M374.5,162.49a90.02,90.02,0,1,1-90,90A89.994,89.994,0,0,1,374.5,162.49Z"/><polygon data-cppathid="10002" style="fill:#6fe3ff" points="338.7 448.35 313.84 423.49 364 423.49 364 473.65 338.7 448.35"/><polygon data-cppathid="10003" style="fill:#6fe3ff" points="160.84 63.65 185.7 88.51 135.54 88.51 135.54 38.35 160.84 63.65"/><path data-cppathid="10004" style="fill:#e48e66" d="M182.5,345.75v43.97H148.09V345.75a31.2,31.2,0,0,1,17.16-25.34l.01-.03.08.03A31.224,31.224,0,0,1,182.5,345.75Z"/><path data-cppathid="10005" style="fill:#f8ec7d" d="M172.76,211.43a14.886,14.886,0,0,1-11.86,18.23v.1a58.55,58.55,0,1,1-117.1,0v-.09a14.91,14.91,0,0,1-11.9-18.24,11.237,11.237,0,0,1,10.04-8.55l.07-.02a4.832,4.832,0,0,0,2.49,3.19s8.7,3.49,8.76,2.63l2.07-25.78a2.4,2.4,0,0,1,2.65-2.2l9.61,1.04a56.591,56.591,0,0,0,52.18-23.48l5.72.25a24.372,24.372,0,0,1,21.33,14.79l9.15,37.73,4.93-4.61a5.932,5.932,0,0,0,1.84-3.53h.02A11.206,11.206,0,0,1,172.76,211.43Z"/><path data-cppathid="10006" style="fill:#e48e66" d="M165.26,320.38l-.01.03a31.2,31.2,0,0,0-17.16,25.34v43.97H120.88L109.32,327.4l11.19,7.46,18.02-24.02v-.1h.03Z"/><path data-cppathid="10007" style="fill:#e48e66" d="M102.35,116.55a61.942,61.942,0,0,1,61.8,66.2l-1.36,19.7c-.01.15-.03.3-.05.44a5.932,5.932,0,0,1-1.84,3.53l-4.93,4.61-9.15-37.73a24.372,24.372,0,0,0-21.33-14.79l-5.72-.25a56.591,56.591,0,0,1-52.18,23.48l-9.61-1.04a2.4,2.4,0,0,0-2.65,2.2l-2.07,25.78c-.06.86-8.76-2.63-8.76-2.63a4.832,4.832,0,0,1-2.49-3.19,3.967,3.967,0,0,1-.12-.78l-1.34-19.33c-.1-1.46-.15-2.9-.15-4.34A61.949,61.949,0,0,1,102.35,116.55Z"/><polygon data-cppathid="10008" style="fill:#af593c" points="122.24 309.69 138.53 298.83 138.53 310.74 138.53 310.84 120.51 334.86 109.32 327.4 109.32 327.39 102.5 322.85 122.24 309.69"/><path data-cppathid="10009" style="fill:#f8ec7d" d="M122.24,292.12v17.57L102.5,322.85,82.81,309.72V285.19l.07-.2a58.663,58.663,0,0,0,39.36-.14v7.27Z"/><polygon data-cppathid="10010" style="fill:#6fe3ff" points="120.88 389.72 121.01 390.41 103 414.43 84.98 390.41 85.11 389.72 96.83 326.63 102.5 322.85 109.32 327.39 109.32 327.4 120.88 389.72"/><polygon data-cppathid="10011" style="fill:#af593c" points="82.81 309.72 102.5 322.85 96.83 326.63 84.49 334.86 66.47 310.84 66.47 310.75 66.47 298.83 82.81 309.72"/><path data-cppathid="10012" style="fill:#e48e66" d="M96.83,326.63,85.11,389.72H57.07V345.75a31.224,31.224,0,0,0-17.16-25.34l-.03-.08,26.54-9.58h.05v.09l18.02,24.02Z"/><path data-cppathid="10013" style="fill:#e48e66" d="M57.07,345.75v43.97H22.5V345.75a31.224,31.224,0,0,1,17.16-25.34l.22-.08.03.08A31.224,31.224,0,0,1,57.07,345.75Z"/><path data-cppathid="10014" style="fill:#63316d" d="M374.5,156.49a96,96,0,1,0,96,96A96.109,96.109,0,0,0,374.5,156.49Zm0,180a84,84,0,1,1,84-84A84.092,84.092,0,0,1,374.5,336.49Z"/><path data-cppathid="10015" style="fill:#63316d" d="M374.5,131.49a121,121,0,1,0,121,121A121.137,121.137,0,0,0,374.5,131.49Zm0,230a109,109,0,1,1,109-109A109.122,109.122,0,0,1,374.5,361.49Z"/><path data-cppathid="10016" style="fill:#63316d" d="M359.165,91.132A6,6,0,0,0,369,84.249,143.047,143.047,0,0,0,161.171,55.5L139.783,34.107a5.634,5.634,0,0,0-6.309-1.3A5.8,5.8,0,0,0,130,38.35V88.51c0,3.313,2.227,6.49,5.54,6.49H185.7a6.275,6.275,0,0,0,4.243-10.611L169.7,64.085A131.036,131.036,0,0,1,359.165,91.132ZM142,83V52.835l14.777,15.008c.017.017-.087.037-.07.054s-.019.275,0,.292L171.214,83Z"/><path data-cppathid="10017" style="fill:#63316d" d="M364,417H313.84a6.275,6.275,0,0,0-4.243,10.611l20.244,20.305a131.026,131.026,0,0,1-189.466-27.063,6,6,0,0,0-9.83,6.894A143.047,143.047,0,0,0,338.369,456.5l21.388,21.388A6,6,0,0,0,370,473.65V423.49C370,420.177,367.313,417,364,417Zm-6,42.165-14.839-14.839c-.036-.04-.059-.085-.1-.124-.075-.078-.162-.383-.24-.457L328.326,429H358Z"/><path data-cppathid="10018" style="fill:#63316d" d="M182.5,396c3.313,0,5.5-2.967,5.5-6.28V345.75c0-.167.243-.334.229-.5A37.315,37.315,0,0,0,167.9,315.043a4.77,4.77,0,0,0-.5-.245c-.028-.011.13-.051.1-.062l-22.5-8.22V298.83a6.228,6.228,0,0,0-3.4-5.29c-.179-.1-.482-.171-.668-.248l-.054-.01-11.7-4.806a65,65,0,0,0,18.832-13.063A64.1,64.1,0,0,0,166.76,234.1a20.9,20.9,0,0,0,11.83-24.09,17.008,17.008,0,0,0-9.509-11.554l1.055-15.293A67.942,67.942,0,0,0,102.35,110.55,67.982,67.982,0,0,0,34.4,178.41c0,1.558.055,3.155.164,4.755l1.059,15.268A17.042,17.042,0,0,0,26.073,210a20.918,20.918,0,0,0,11.871,24.124,64.078,64.078,0,0,0,18.764,41.288,64.915,64.915,0,0,0,18.925,13.1l-11.447,4.715.025.061c-.193.078-.621.157-.807.257a6.228,6.228,0,0,0-3.4,5.29v7.689l-22.41,8.173-.1.08a5.089,5.089,0,0,0-.568.271,37.69,37.69,0,0,0-20.678,30.206c-.015.167-.242.334-.242.5v43.97A6.691,6.691,0,0,0,22.5,396H81.463L98.2,418.17a6.136,6.136,0,0,0,9.6.034L124.528,396Zm-64.7-55.661a5.887,5.887,0,0,0,2.708.591,6.033,6.033,0,0,0,4.805-2.434l15.421-20.575,11.986,4.319a37.435,37.435,0,0,0-10.652,23.019c-.013.165-.065.326-.065.491V384H125.871ZM63,384V345.75c0-.167.028-.334.014-.5a37.421,37.421,0,0,0-10.631-23.06L64.261,317.9l15.425,20.556a6.005,6.005,0,0,0,8.132,1.391l.516-.2L80.122,384Zm50.314-61.148,17.412-11.608-11.61,15.476ZM116,306.479l-13.525,9.16L89,306.512v-13.62a63.027,63.027,0,0,0,27-.07ZM91.685,322.85l-5.8,3.869L74.27,311.238ZM176,346.015V384H154V346.012c1-7.6,4.694-14.513,10.994-18.7C171.292,331.5,176,338.405,176,346.015ZM102.35,122.55a55.942,55.942,0,0,1,55.814,59.787l-.661,9.557-4.852-20.008a6.054,6.054,0,0,0-.311-.937,30.52,30.52,0,0,0-26.588-18.433l-5.72-.25a6,6,0,0,0-5.153,2.518,50.649,50.649,0,0,1-46.644,20.991L58.6,174.732a8.4,8.4,0,0,0-9.253,7.688l-1.486,18.506-.04-.016-1.287-18.568c-.092-1.342-.136-2.627-.136-3.932A55.968,55.968,0,0,1,102.35,122.55ZM49.8,229.67a6,6,0,0,0-4.962-5.909,8.909,8.909,0,0,1-7.11-10.9,5.047,5.047,0,0,1,1.9-2.922,10.815,10.815,0,0,0,2.122,1.447q.252.13.515.235c8.771,3.52,11.411,3.937,14.125,2.234a6.106,6.106,0,0,0,2.85-4.692l1.774-22.1,5.933.643a62.661,62.661,0,0,0,55.717-23.314l2.556.112a18.465,18.465,0,0,1,15.893,10.725l9.025,37.215a6,6,0,0,0,9.929,2.968l4.917-4.6c.17-.158.327-.326.487-.493a5.054,5.054,0,0,1,1.461,2.54,8.885,8.885,0,0,1-7.08,10.891,6.107,6.107,0,0,0-4.953,6.008,52.215,52.215,0,0,1-15.393,37.168,52.89,52.89,0,0,1-19.311,12.28A52.564,52.564,0,0,1,49.8,229.67ZM28,346.015a26.54,26.54,0,0,1,11.505-18.753A26.555,26.555,0,0,1,51,346.015V384H28Zm75,58.415L91.361,388.918l10.905-58.7.237-.159,1.378.917,10.748,57.943Z"/><path data-cppathid="10019" style="fill:#63316d" d="M409.5,215a6,6,0,0,0,0-12h-70a6,6,0,0,0,0,12h20.03c11.179,0,20.6,7,23.272,18H339.5a6,6,0,0,0,0,12h43.308a24.45,24.45,0,0,1-6.281,10.977,23.86,23.86,0,0,1-17,7.023H339.5a5.93,5.93,0,0,0-4.121,10.263l50.06,47.293a5.981,5.981,0,0,0,8.242-8.67L354.584,275h4.946a35.784,35.784,0,0,0,25.483-10.538A36.913,36.913,0,0,0,395.057,245H409.5a6,6,0,0,0,0-12H395.051a35.408,35.408,0,0,0-8.7-18Z"/></svg>