<?xml version="1.0" encoding="UTF-8"?>
<svg xmlns="http://www.w3.org/2000/svg" onmouseup="{ if(window.parent.document.onmouseup) window.parent.document.onmouseup(arguments[0]);}" width="512" viewBox="0 0 512 512" height="512" enable-background="new 0 0 512 512" id="Capa_1"><path data-cppathid="10000" fill="#f6e781" d="m246.985 214.148-114.053 197.544c-4.007 6.94 1.002 15.615 9.015 15.615h228.105c8.014 0 13.022-8.675 9.015-15.615l-114.052-197.544c-4.006-6.941-14.024-6.941-18.03 0z"/><path data-cppathid="10001" fill="#f4dd45" d="m379.068 411.692-114.053-197.545c-4.007-6.94-14.024-6.94-18.031 0l-5.211 9.026 79.857 138.317c11.757 20.363-2.939 45.817-26.453 45.817h-159.713l-2.532 4.385c-4.007 6.94 1.002 15.615 9.016 15.615h228.105c8.013 0 13.022-8.675 9.015-15.615z"/><path data-cppathid="10002" fill="#efecef" d="m97.688 169.064-14.611-54.53c-.946-3.531-5.36-4.714-7.945-2.129l-39.919 39.919c-2.585 2.585-1.402 6.999 2.129 7.945l54.53 14.611c3.531.947 6.762-2.285 5.816-5.816z"/><path data-cppathid="10003" fill="#958b95" d="m256 343.525c-6.153 0-11.234-4.81-11.57-10.954l-2.56-46.791c-.444-8.107 6.011-14.924 14.13-14.924s14.573 6.817 14.13 14.924l-2.56 46.791c-.336 6.144-5.417 10.954-11.57 10.954z"/><circle data-cppathid="10004" r="14.67" fill="#958b95" cy="384.199" cx="256"/><path data-cppathid="10005" fill="#f6e781" d="m256 84.692c-44.844 0-86.914 11.879-123.234 32.661l39.019 67.582c24.859-14.176 53.608-22.282 84.216-22.282s59.357 8.105 84.216 22.282l39.019-67.582c-36.322-20.782-78.392-32.661-123.236-32.661z"/><path data-cppathid="10006" fill="#e4989d" d="m379.234 117.353-39.019 67.582c51.516 29.378 86.323 84.829 86.323 148.257h77.962c0-92.398-50.429-173.018-125.266-215.839z"/><path data-cppathid="10007" fill="#f4dd45" d="m375.964 123.018 3.271-5.665c-10.445-5.977-21.366-11.216-32.691-15.65 10.334 6.394 20.165 13.523 29.42 21.315z"/><path data-cppathid="10008" fill="#e28086" d="m379.234 117.353-3.271 5.665c47.564 40.05 79.892 97.617 87.041 162.759 1.607 14.646-9.959 27.415-24.694 27.415h-12.939c.77 6.561 1.166 13.235 1.166 20h77.963c0-92.398-50.429-173.018-125.266-215.839z"/><circle data-cppathid="10009" r="28.974" fill="#90dfc3" cy="398.333" cx="45.537"/><circle data-cppathid="10010" r="28.974" fill="#e4989d" cy="398.333" cx="466.463"/><path data-cppathid="10011" fill="#90dfc3" d="m132.766 117.353c-14.692 8.407-28.443 18.271-41.057 29.394l5.98 22.317c.946 3.531-2.285 6.763-5.816 5.816l-22.317-5.98c-38.623 43.797-62.056 101.308-62.056 164.292h77.962c0-63.428 34.807-118.879 86.323-148.257z"/><path data-cppathid="10012" d="m271.511 210.397c-6.891-11.937-24.122-11.951-31.021 0l-114.053 197.545c-6.891 11.936 1.71 26.865 15.51 26.865h182.567c4.142 0 7.5-3.358 7.5-7.5s-3.358-7.5-7.5-7.5h-182.567c-2.239 0-3.648-2.411-2.52-4.365l114.052-197.545c1.117-1.935 3.911-1.958 5.041 0l114.052 197.545c1.12 1.94-.263 4.365-2.52 4.365h-10.538c-4.142 0-7.5 3.358-7.5 7.5s3.358 7.5 7.5 7.5h10.538c13.782 0 22.41-14.914 15.51-26.865z"/><path data-cppathid="10013" d="m256 351.025c10.134 0 18.505-7.926 19.059-18.044l2.56-46.792c.677-12.39-9.211-22.833-21.619-22.833-12.409 0-22.296 10.444-21.619 22.833l2.56 46.792c.554 10.118 8.925 18.044 19.059 18.044zm0-72.669c3.806 0 6.85 3.186 6.641 7.014l-2.56 46.792c-.119 2.167-1.911 3.864-4.081 3.864s-3.962-1.697-4.081-3.864l-2.56-46.792c-.208-3.807 2.814-7.014 6.641-7.014z"/><path data-cppathid="10014" d="m256 406.369c12.225 0 22.17-9.945 22.17-22.17s-9.945-22.17-22.17-22.17-22.17 9.945-22.17 22.17 9.945 22.17 22.17 22.17zm0-29.34c3.954 0 7.17 3.216 7.17 7.17s-3.216 7.17-7.17 7.17-7.17-3.216-7.17-7.17 3.216-7.17 7.17-7.17z"/><path data-cppathid="10015" d="m476.383 202.857c-46.155-77.88-129.705-125.665-220.383-125.665-24.434 0-48.605 3.439-71.843 10.221-3.977 1.161-6.259 5.325-5.099 9.301 1.162 3.977 5.328 6.26 9.301 5.099 21.873-6.383 44.63-9.62 67.641-9.62 39.446 0 78.32 9.673 112.915 28.035l-31.543 54.635c-25.062-12.914-53.036-19.709-81.371-19.709s-56.309 6.795-81.371 19.709l-31.544-54.636c4.398-2.336 8.878-4.542 13.382-6.587 3.771-1.712 5.441-6.158 3.729-9.93s-6.158-5.442-9.93-3.729c-19.406 8.811-37.656 20.038-54.363 33.44l-5.581-20.829c-2.436-9.088-13.835-12.149-20.493-5.491l-39.919 39.919c-6.652 6.653-3.605 18.055 5.492 20.493l20.829 5.581c-36.346 45.313-56.232 101.704-56.232 160.098 0 4.142 3.358 7.5 7.5 7.5h77.961c4.142 0 7.5-3.358 7.5-7.5 0-88.619 72.055-163.039 163.039-163.039 91.069 0 163.039 74.477 163.039 163.039 0 4.142 3.358 7.5 7.5 7.5h77.961c4.142 0 7.5-3.358 7.5-7.5 0-45.949-12.316-91.018-35.617-130.335zm-399.317-81.779c2.396 8.942 9.725 36.295 12.145 45.325-9.051-2.425-36.339-9.737-45.325-12.145zm1.055 204.614h-63.005c1.689-54.503 21.761-106.747 57.037-148.331l17.777 4.763c9.053 2.425 17.45-5.864 15.002-15.002l-4.763-17.777c9.396-7.971 19.413-15.233 29.894-21.672l31.535 54.62c-49.661 31.173-80.996 85.002-83.477 143.399zm355.758 0c-2.481-58.397-33.817-112.227-83.478-143.398l31.535-54.62c69.031 42.403 112.413 117.134 114.947 198.019h-63.004z"/><path data-cppathid="10016" d="m45.537 361.858c-2.543 0-5.087.265-7.559.786-4.053.855-6.645 4.833-5.79 8.887.855 4.052 4.831 6.646 8.887 5.79 1.456-.307 2.958-.463 4.462-.463 11.841 0 21.475 9.633 21.475 21.475s-9.633 21.475-21.475 21.475-21.475-9.633-21.475-21.475c0-1.089.082-2.183.244-3.251.62-4.096-2.198-7.918-6.293-8.538-4.096-.623-7.918 2.197-8.538 6.293-.274 1.809-.413 3.658-.413 5.496 0 20.112 16.362 36.475 36.475 36.475s36.475-16.362 36.475-36.475-16.363-36.475-36.475-36.475z"/><path data-cppathid="10017" d="m466.463 361.858c-20.112 0-36.475 16.362-36.475 36.475s16.362 36.475 36.475 36.475 36.475-16.362 36.475-36.475-16.363-36.475-36.475-36.475zm0 57.95c-11.841 0-21.475-9.633-21.475-21.475s9.633-21.475 21.475-21.475 21.475 9.633 21.475 21.475-9.634 21.475-21.475 21.475z"/></svg>