<?xml version="1.0" encoding="UTF-8"?>
<svg xmlns="http://www.w3.org/2000/svg" onmouseup="{ if(window.parent.document.onmouseup) window.parent.document.onmouseup(arguments[0]);}" xml:space="preserve" style="enable-background:new 0 0 38.692 38.693;" viewBox="0 0 38.692 38.693" height="38.693px" width="38.692px" y="0px" x="0px" id="Capa_1" version="1.1" xmlns:xlink="http://www.w3.org/1999/xlink"><g><polygon data-cppathid="10000" points="37.02,35.367 37.02,4.128 32.648,1.216 16.992,8.643 16.992,13.886 8.257,16.798 8.257,20.604 1.752,22.419    1.752,35.232 0,35.232 0,37.357 1.752,37.357 1.752,37.367 3.72,37.357 3.743,23.83 14.689,21.169 14.625,37.326 16.189,37.337    16.189,37.357 19.875,37.357 19.875,35.232 18.75,35.232 18.75,22.423 16.083,18.419 10.296,20.035 10.296,18.4 21.655,14.54    21.655,37.328 29.737,37.328 29.737,35.219 28.207,35.219 28.207,14.177 23.768,11.409 19.107,13.012 19.179,10.099 30.537,4.71    30.537,37.476 38.692,37.476 38.692,35.367  "/><polygon data-cppathid="10001" points="23.346,21.246 15.346,21.246 15.346,18.869 23.346,17.446  "/><polygon data-cppathid="10002" points="23.346,19.824 15.346,21.246 15.346,18.868 23.346,17.446  "/><polygon data-cppathid="10003" points="23.346,19.824 15.346,21.246 15.346,18.87 23.346,17.446  "/><polygon data-cppathid="10004" points="23.346,19.824 15.346,21.246 15.346,18.869 23.346,17.446  "/></g><g/><g/><g/><g/><g/><g/><g/><g/><g/><g/><g/><g/><g/><g/><g/></svg>