<?xml version="1.0" encoding="UTF-8"?>
<svg xmlns="http://www.w3.org/2000/svg" onmouseup="{ if(window.parent.document.onmouseup) window.parent.document.onmouseup(arguments[0]);}" width="512" viewBox="0 0 64 64" height="512"><g id="seller"><path data-cppathid="10000" fill="#00d7df" d="m53 27s-7 10.77-7 11v19h-28v-19l-7-11h6l3.91 4.78.14.18a7.788 7.788 0 0 1 3.95-1.96h14a7.788 7.788 0 0 1 3.95 1.96l.14-.18 3.91-4.78z"/><path data-cppathid="10001" fill="#00b6bd" d="m53 27s-7 10.77-7 11v19h-28v-4h12a12 12 0 0 0 12-12v-7c0-.09.98-1.65 2.21-3.58.02-.02.03-.03.03-.05l2.76-3.37z"/><path data-cppathid="10002" fill="#c6c5ca" d="m61 57v4h-58v-4h2 16 22 16z"/><path data-cppathid="10003" fill="#ffdaaa" d="m51 23h10a3.995 3.995 0 0 1 -4 4h-10a3.995 3.995 0 0 1 4-4z"/><path data-cppathid="10004" fill="#c0ab91" d="m43 41h16v16h-16z"/><circle data-cppathid="10005" r="8" fill="#57a4ff" cy="11" cx="53"/><path data-cppathid="10006" fill="#2488ff" d="m61 11a7.991 7.991 0 0 1 -14.56 4.56 7.873 7.873 0 0 0 4.56 1.44 8 8 0 0 0 8-8 7.873 7.873 0 0 0 -1.44-4.56 7.948 7.948 0 0 1 3.44 6.56z"/><path data-cppathid="10007" fill="#ffde55" d="m49 41h4v4h-4z"/><path data-cppathid="10008" fill="#c0ab91" d="m41 18v1a1 1 0 0 1 -1 1h-2v-3h2a1 1 0 0 1 1 1z"/><path data-cppathid="10009" fill="#898890" d="m41 13v1l-3 3v-3l-8-2-4 2v3l-3-3v-1a6 6 0 0 1 6-6h6a6 6 0 0 1 6 6z"/><path data-cppathid="10010" fill="#787680" d="m41 13v1l-3 3v-2l1-1v-1a6 6 0 0 0 -6-6h2a6 6 0 0 1 6 6z"/><path data-cppathid="10011" fill="#ff7956" d="m39 30-5 7h-4l-5-7 3-1 1 1 3 3 3-3 1-1z"/><path data-cppathid="10012" fill="#ffdaaa" d="m38 17v3a6 6 0 1 1 -12 0v-6l4-2 8 2z"/><path data-cppathid="10013" fill="#ff7956" d="m34.67 41 1.33 8-4 4-4-4 1.33-8z"/><path data-cppathid="10014" fill="#ffdaaa" d="m34.26 25.56.74 4.44-3 3-3-3 .74-4.44a6.024 6.024 0 0 0 4.52 0z"/><path data-cppathid="10015" fill="#ffde55" d="m34 37 .67 4h-5.34l.67-4z"/><path data-cppathid="10016" fill="#ff6243" d="m39 30-5 7h-2l5-7-1.5-.5.5-.5z"/><path data-cppathid="10017" fill="#ff6243" d="m36 49-4 4-1-1 3-3-1.33-8h2z"/><path data-cppathid="10018" fill="#ffcd00" d="m34.67 41h-2l-.67-4h2z"/><path data-cppathid="10019" fill="#c0ab91" d="m26 17v3h-2a1 1 0 0 1 -1-1v-1a1 1 0 0 1 1-1z"/><path data-cppathid="10020" fill="#c0ab91" d="m5 41h16v16h-16z"/><rect data-cppathid="10021" y="3" x="3" width="16" rx="2" height="16" fill="#ebe5dd"/><path data-cppathid="10022" fill="#d9ccbc" d="m19 5v12a2.006 2.006 0 0 1 -2 2h-12a2.006 2.006 0 0 1 -2-2h12a2.006 2.006 0 0 0 2-2v-12a2.006 2.006 0 0 1 2 2z"/><path data-cppathid="10023" fill="#ffdaaa" d="m17 27h-10a3.995 3.995 0 0 1 -4-4h10a3.995 3.995 0 0 1 4 4z"/><path data-cppathid="10024" fill="#ffc477" d="m61 23a3.995 3.995 0 0 1 -4 4h-10a3.989 3.989 0 0 1 .54-2h9.46a4.025 4.025 0 0 0 2.83-1.17 4.225 4.225 0 0 0 .63-.83z"/><path data-cppathid="10025" fill="#ffc477" d="m17 27h-10a3.995 3.995 0 0 1 -4-4h.54a4.225 4.225 0 0 0 .63.83 4.025 4.025 0 0 0 2.83 1.17h9.46a3.989 3.989 0 0 1 .54 2z"/><path data-cppathid="10026" fill="#ffde55" d="m11 41h4v4h-4z"/><path data-cppathid="10027" fill="#ffc477" d="m38 14v6a6 6 0 0 1 -8.26 5.56 5.938 5.938 0 0 1 -2.85-2.43 5.212 5.212 0 0 0 .85.43 6 6 0 0 0 8.26-5.56v-4.5z"/><path data-cppathid="10028" fill="#ffc477" d="m35 30-3 3-1-1 2-2-.67-4.02a5.893 5.893 0 0 0 1.93-.42z"/><path data-cppathid="10029" d="m53 20a9 9 0 1 0 -9-9 9.01 9.01 0 0 0 9 9zm0-16a7 7 0 1 1 -7 7 7.008 7.008 0 0 1 7-7z"/><path data-cppathid="10030" d="m52 14a1 1 0 0 0 .707-.293l5-5-1.414-1.414-4.293 4.293-2.293-2.293-1.414 1.414 3 3a1 1 0 0 0 .707.293z"/><path data-cppathid="10031" d="m61 56h-1v-15a1 1 0 0 0 -1-1h-12v-1.76c.63-1.09 4.15-6.56 6.54-10.24h3.46a5 5 0 0 0 5-5 1 1 0 0 0 -1-1h-10a4.989 4.989 0 0 0 -4.96 4.59l-3.26 3.99a7.979 7.979 0 0 0 -3.48-1.53l-2.98-1a.97.97 0 0 0 -.63.01l-.32-1.93a7.023 7.023 0 0 0 3.55-5.13h1.08a2.006 2.006 0 0 0 2-2v-1a2 2 0 0 0 -1.62-1.96l1.33-1.33a1.033 1.033 0 0 0 .29-.71v-1a7.008 7.008 0 0 0 -7-7h-6a7.008 7.008 0 0 0 -7 7v1a1.033 1.033 0 0 0 .29.71l1.33 1.33a2 2 0 0 0 -1.62 1.96v1a2.006 2.006 0 0 0 2 2h1.08a7.023 7.023 0 0 0 3.55 5.13l-.32 1.93a.97.97 0 0 0 -.63-.01l-2.98 1a7.979 7.979 0 0 0 -3.48 1.53l-3.26-3.99a4.989 4.989 0 0 0 -4.96-4.59h-10a1 1 0 0 0 -1 1 5 5 0 0 0 5 5h3.45l6.55 10.29v1.71h-12a1 1 0 0 0 -1 1v15h-1a1 1 0 0 0 -1 1v4a1 1 0 0 0 1 1h58a1 1 0 0 0 1-1v-4a1 1 0 0 0 -1-1zm-11-14h2v2h-2zm-2 0v3a1 1 0 0 0 1 1h4a1 1 0 0 0 1-1v-3h4v14h-14v-14zm3-18h8.83a3.014 3.014 0 0 1 -2.83 2h-8.83a3.014 3.014 0 0 1 2.83-2zm-11-5h-1v-1h1zm-15 0h-1v-1h1zm0-5v.59l-1-1v-.59a5 5 0 0 1 5-5h6a5 5 0 0 1 5 5v.59l-1 1v-.59a1 1 0 0 0 -.76-.97l-8-2a.972.972 0 0 0 -.69.08l-4 2a.977.977 0 0 0 -.55.89zm2 6v-5.38l3.12-1.56 6.88 1.72v5.22a5 5 0 0 1 -10 0zm6.93 9.66-1.93 1.93-1.93-1.93.47-2.82a6.741 6.741 0 0 0 2.92 0zm-6.2.48 3.56 3.57a1.008 1.008 0 0 0 1.42 0l3.56-3.57 1.13.38-3.91 5.48h-2.98l-3.91-5.48zm6.09 11.86 1.11 6.66-2.93 2.93-2.93-2.93 1.11-6.66zm-3.31-2 .34-2h2.3l.34 2zm-23.51-14a3.014 3.014 0 0 1 -2.83-2h8.83a3.014 3.014 0 0 1 2.83 2zm5.82 2h3.71l8.7 10.63 1.54-1.26-4.29-5.25a6.55 6.55 0 0 1 2.09-1.01l4.38 6.13-1.94 11.6a1.011 1.011 0 0 0 .28.87l4 4a1.014 1.014 0 0 0 1.42 0l4-4a1.011 1.011 0 0 0 .28-.87l-1.94-11.6 4.38-6.13a6.55 6.55 0 0 1 2.09 1.01l-4.29 5.25 1.54 1.26 8.7-10.63h3.69c-6.16 9.49-6.16 9.64-6.16 10v2h-2a1 1 0 0 0 -1 1v15h-20v-15a1 1 0 0 0 -1-1h-2v-2a.949.949 0 0 0 -.16-.54zm-.82 14h2v2h-2zm-6 0h4v3a1 1 0 0 0 1 1h4a1 1 0 0 0 1-1v-3h4v14h-14zm54 18h-56v-2h56z"/><path data-cppathid="10032" d="m5 20h12a3 3 0 0 0 3-3v-12a3 3 0 0 0 -3-3h-12a3 3 0 0 0 -3 3v12a3 3 0 0 0 3 3zm-1-15a1 1 0 0 1 1-1h12a1 1 0 0 1 1 1v12a1 1 0 0 1 -1 1h-12a1 1 0 0 1 -1-1z"/><path data-cppathid="10033" d="m6 6h2v2h-2z"/><path data-cppathid="10034" d="m10 6h6v2h-6z"/><path data-cppathid="10035" d="m6 10h10v2h-10z"/><path data-cppathid="10036" d="m6 14h10v2h-10z"/></g></svg>