<?xml version="1.0" encoding="UTF-8"?>
<svg xmlns="http://www.w3.org/2000/svg" onmouseup="{ if(window.parent.document.onmouseup) window.parent.document.onmouseup(arguments[0]);}" width="512" viewBox="0 0 512 512" height="512" enable-background="new 0 0 512 512" id="Capa_1"><g><g><g><g><g><path data-cppathid="10000" fill="#3630a2" d="m241 180h30v122h-30z"/></g><path data-cppathid="10001" fill="#2e2654" d="m256 180h15v122h-15z"/><g><g><path data-cppathid="10002" transform="matrix(.955 -.297 .297 .955 -92.227 70.139)" fill="#3630a2" d="m125.77 324.034h118.565v29.999h-118.565z"/></g><g><path data-cppathid="10003" transform="matrix(.297 -.955 .955 .297 -93.8 550.717)" fill="#2e2654" d="m311.948 279.751h29.999v118.565h-29.999z"/></g></g></g><circle data-cppathid="10004" r="37.5" fill="#00ec89" cy="317" cx="256"/></g><g><g><g><g><g><g><g><path data-cppathid="10005" fill="#ffef4a" d="m175 512h-160c-8.284 0-15-6.716-15-15v-20c0-41.355 33.645-75 75-75h40c41.355 0 75 33.645 75 75v20c0 8.284-6.716 15-15 15z"/></g><path data-cppathid="10006" fill="#ffcb00" d="m95 512h80c8.284 0 15-6.716 15-15v-20c0-41.355-33.645-75-75-75h-20z"/><g><path data-cppathid="10007" fill="#ffd7aa" d="m95 422c-33.084 0-60-26.916-60-60s26.916-60 60-60 60 26.916 60 60-26.916 60-60 60z"/></g></g></g></g></g><path data-cppathid="10008" fill="#ffc58f" d="m95 302v120c33.084 0 60-26.916 60-60s-26.916-60-60-60z"/></g></g><g><g><g><g><g><g><g><path data-cppathid="10009" fill="#bceaf9" d="m497 512h-160c-8.284 0-15-6.716-15-15v-20c0-41.355 33.645-75 75-75h40c41.355 0 75 33.645 75 75v20c0 8.284-6.716 15-15 15z"/></g><path data-cppathid="10010" fill="#7dd5f4" d="m417 512h80c8.284 0 15-6.716 15-15v-20c0-41.355-33.645-75-75-75h-20z"/><g><path data-cppathid="10011" fill="#ffd7aa" d="m417 422c-33.084 0-60-26.916-60-60s26.916-60 60-60 60 26.916 60 60-26.916 60-60 60z"/></g></g></g></g></g><path data-cppathid="10012" fill="#ffc58f" d="m417 302v120c33.084 0 60-26.916 60-60s-26.916-60-60-60z"/></g></g><g><g><g><g><g><g><g><path data-cppathid="10013" fill="#ff8493" d="m336 210h-160c-8.284 0-15-6.716-15-15v-20c0-41.355 33.645-75 75-75h40c41.355 0 75 33.645 75 75v20c0 8.284-6.716 15-15 15z"/></g><path data-cppathid="10014" fill="#ff1f3d" d="m256 210h80c8.284 0 15-6.716 15-15v-20c0-41.355-33.645-75-75-75h-20z"/><g><path data-cppathid="10015" fill="#ffd7aa" d="m256 120c-33.084 0-60-26.916-60-60s26.916-60 60-60 60 26.916 60 60-26.916 60-60 60z"/></g></g></g></g></g><path data-cppathid="10016" fill="#ffc58f" d="m256 0v120c33.084 0 60-26.916 60-60s-26.916-60-60-60z"/></g></g></g><path data-cppathid="10017" fill="#00cb75" d="m256 279.5v75c20.711 0 37.5-16.789 37.5-37.5s-16.789-37.5-37.5-37.5z"/></g></svg>