<?xml version="1.0" encoding="UTF-8"?>
<svg xmlns="http://www.w3.org/2000/svg" onmouseup="{ if(window.parent.document.onmouseup) window.parent.document.onmouseup(arguments[0]);}" width="512" viewBox="0 0 16.933333 16.933334" height="512" id="svg14078" xmlns:svg="http://www.w3.org/2000/svg"><g transform="translate(0 -280.067)" id="layer1"><path data-cppathid="10000" vector-effect="none" solid-opacity="1" solid-color="rgb(0,0,0)" mix-blend-mode="normal" isolation="auto" shape-padding="0" white-space="normal" text-orientation="mixed" text-transform="none" text-decoration-color="rgb(0,0,0)" text-decoration-style="solid" text-decoration-line="none" text-align="start" text-indent="0" font-feature-settings="normal" font-variant-alternates="normal" font-variant-numeric="normal" font-variant-caps="normal" font-variant-position="normal" font-variant-ligatures="normal" d="m5.8213595 280.59632c-1.1680601 0-2.1171801.94913-2.1171801 2.11719v.99366c-.1609201.14573-.2645801.36096-.2645801.5928 0 .48331.3887002.80271.8118401.79272.0572.39761.24281.75558.51108 1.02991v1.08779c-.93398 0-1.7384601.53894-2.12804 1.32292h-.5178c-.43516 0-.79375.35859-.79375.79375v1.05833c-.005.3578.53423.3578.52917 0v-1.05833c0-.15116.11342-.26459.26458-.26459h7.9374996c.15116 0 .26458.11343.26458.26459v4.4974h-8.4666596v-1.05782c.002-.14916-.11956-.27053-.26872-.2682-.14592.002-.26245.12228-.26045.2682v1.5875c0 .19326.0562.37274.14779.52917h-.67696003c-.14612-.00053-.26503.11743-.26561.26355v1.05885c-.0005292.14693.11868.26618.26561.26561h15.34584063c.14612-.00053.2641-.11949.26355-.26561v-1.05885c-.000582-.14531-.11824-.26297-.26355-.26355h-1.85932c.11722-.15471.20483-.3324.24495-.52917h.29248c.43516 0 .79272-.35807.79272-.79323v-.52917c.000529-.14612-.11743-.26503-.26355-.26561h-.79478v-.26356c.000529-.14632-.11775-.26531-.26407-.26561h-2.646351c-.14612.00053-.2641.1195-.26355.26561v1.58802c0 .29864.10378.57095.27182.79272h-.94981c.0916-.15643.14779-.33591.14779-.52917v-5.02708c0-.43516-.35858-.79375-.79375-.79375h-.5177996c-.3895701-.78398-1.1940601-1.32292-2.12803-1.32292v-1.08779c.2404899-.22609.4513699-.60977.51004-1.02784.5099801-.00015.8128701-.39774.8128701-.79479 0-.23235-.0999-.4511-.2645802-.59169l-.00101-.99477c-.0009946-1.16806-.9470446-2.11719-2.1151046-2.11719zm0 .52917h.5291699c.8840499 0 1.5859501.70397 1.5859501 1.58802v.79271h-.154l-.7167502-.71675c-.1032099-.10259-.2698898-.10259-.3730998 0 0 0-.7400102.71675-1.6660501.71675h-.7932301v-.79271c0-.88405.7039502-1.58802 1.5880102-1.58802zm1.04325 2.21165.5437399.54322v.94878c0 .73748-.5854499 1.32292-1.3229201 1.32292-.73748 0-1.32292-.58544-1.32292-1.32292v-.79323h.2640701c.9061001 0 1.5612399-.4876 1.8380301-.69877zm-2.6312602 1.22742c-.1511599 0-.26459-.12267-.26459-.26459 0-.14191.1122501-.26267.2632901-.26406zm3.9687501-.26459c0 .14496-.11343.26459-.2645899.26459l.00101-.52865c.1510199.001.2632602.12005.2632602.26406zm-2.9104201 2.19987c.2409801.11495.5093801.18138.79375.18138.2843702 0 .5527601-.0664.79375-.18138v.71055s-.00201.52917-.79375.52917c-.7921998 0-.79375-.52917-.79375-.52917zm-.3601901 1.23972s.25645.52916 1.1539401.52916c.8974902 0 1.15394-.52916 1.15394-.52916h.1689801c.63353 0 1.18334.31517 1.5166999.79375h-5.6792398c.3333699-.47858.8831598-.79375 1.5166998-.79375zm7.4992898 2.37815c-.14552.003-.26165.12216-.25993.26768v1.05833c-.008.36048.53695.36048.52916 0v-1.05833c.002-.14917-.12008-.2703-.26923-.26768zm1.05833 0c-.14531.003-.26113.12235-.25941.26768v1.05833c-.008.36079.53726.36079.52916 0v-1.05833c.002-.14937-.12039-.2706-.26975-.26768zm-7.4041996.5333c-.4352399 0-.7927099.35954-.7927099.79478s.35747.79324.7927099.79324c.4352401 0 .7952999-.358.7952999-.79324s-.3600598-.79478-.7952999-.79478zm-4.50153.52451c-.14592.002-.26245.12228-.26045.2682v.26459c-.005.3578.53423.3578.52917 0v-.26459c.002-.14916-.11956-.27052-.26872-.2682zm4.50153.005c.1492599 0 .26562.11636.26562.26562s-.1163601.26355-.26562.26355-.2635499-.11429-.2635499-.26355.11429-.26562.2635499-.26562zm5.8203196 1.58595h2.11718v1.32447c0 .44431-.34839.79271-.79271.79271h-.52969c-.44431 0-.79478-.3484-.79478-.79271zm2.646871.52917h.52916v.26561c0 .15116-.11239.26356-.26355.26356h-.26561zm-12.7000006 1.05884h8.4666596c0 .29774-.23142.52917-.5291596.52917h-7.40834c-.29774 0-.52916-.23143-.52916-.52917zm-.7942699 1.05834h14.8161505v.52968h-14.8161505z" id="path9033"/></g></svg>