<?xml version="1.0" encoding="UTF-8"?>
<svg xmlns="http://www.w3.org/2000/svg" onmouseup="{ if(window.parent.document.onmouseup) window.parent.document.onmouseup(arguments[0]);}" width="512" viewBox="0 0 256 256" height="512" enable-background="new 0 0 256 256"><g id="Layer_1"><g><g><g><path data-cppathid="10000" fill="#efefef" d="m203.6 38.25v81.87h-12.72c-4.932 0-9.574-2.331-12.52-6.287l-5.988-8.041c-2.949-3.96-7.595-6.293-12.532-6.293h-17.74c-2.36-1.77-5.29-2.82-8.41-2.82h-31.269c-5.36 0-10.496 2.155-14.251 5.98l-4.843 4.933c-3.759 3.829-8.9 5.987-14.267 5.987h-16.33v-95.829c0-2.761 2.239-5 5-5h120.37z"/></g><g><path data-cppathid="10001" fill="#efefef" d="m184.32 182.13h19.28v56.12c0 2.761-2.239 5-5 5h-140.87c-2.761 0-5-2.239-5-5v-62.67h7.35c4.74 0 9.23 1.7 12.71 4.67 3.55 3.01 8.06 4.66 12.71 4.66h8.22c1.19 3.49 4.51 5.99 8.37 5.99h54.98c3.02 0 6.01-.69 8.74-2.01l9.77-4.75c2.72-1.32 5.71-2.01 8.74-2.01z"/></g><g><path data-cppathid="10002" fill="#7c7b7a" d="m184.32 182.13c-3.03 0-6.02.69-8.74 2.01l-9.77 4.75c-2.73 1.32-5.72 2.01-8.74 2.01h-54.98c-3.86 0-7.18-2.5-8.37-5.99h-8.22c-4.65 0-9.16-1.65-12.71-4.66-3.48-2.97-7.97-4.67-12.71-4.67h-7.35v11.72h7.35c4.74 0 9.23 1.7 12.71 4.67 3.55 3.01 8.06 4.66 12.71 4.66h8.22c1.19 3.49 4.51 5.99 8.37 5.99h54.98c3.02 0 6.01-.69 8.74-2.01l9.77-4.75c2.72-1.32 5.71-2.01 8.74-2.01h19.28v-11.72z"/></g><g><path data-cppathid="10003" fill="#fc5d3d" d="m29.73 110.637c-.21-2.56-2.36-4.56-4.97-4.56-8.039 0-13.142 0-21.19 0v75.97h21.19c2.61 0 4.76-2 4.97-4.56.02-.14.03-.29.03-.44 0-8.117 0-59.056 0-65.97 0-.15-.01-.3-.03-.44z"/></g><g><path data-cppathid="10004" fill="#fff" d="m226.27 185.52h-10.7c-2.26 0-4.1-1.51-4.73-3.39 0 0-.27-1.3-.27-2.01v-56.45c0-1.36.56-2.63 1.48-3.55.9-.89 2.13-1.45 3.52-1.45h10.7z"/></g><g><path data-cppathid="10005" fill="#ffcbc2" d="m18.25 161.446c-1.381 0-2.5-1.119-2.5-2.5v-1.283c0-1.381 1.119-2.5 2.5-2.5s2.5 1.119 2.5 2.5v1.283c0 1.381-1.119 2.5-2.5 2.5zm0-16.283c-1.381 0-2.5-1.119-2.5-2.5v-22.875h-2.125c-1.381 0-2.5-1.119-2.5-2.5s1.119-2.5 2.5-2.5h4.625c1.381 0 2.5 1.119 2.5 2.5v25.375c0 1.381-1.119 2.5-2.5 2.5z"/></g><g><path data-cppathid="10006" fill="#ffb69f" d="m210.57 180.12c0 .71.27 2.01.27 2.01h-26.52c-3.03 0-6.02.69-8.74 2.01l-9.77 4.75c-2.73 1.32-5.72 2.01-8.74 2.01h-54.98c-3.86 0-7.18-2.5-8.37-5.99h-8.22c-4.65 0-9.16-1.65-12.71-4.66-3.48-2.97-7.97-4.67-12.71-4.67h-15.74c.69-.85 1.09-1.93 1.09-3.09v-56.85c0-.73-.16-1.43-.45-2.06h24.08c5.37 0 10.51-2.16 14.27-5.99l4.84-4.93c3.76-3.83 8.9-5.98 14.27-5.98h31.25c3.12 0 6.05 1.05 8.41 2.82h17.74c4.94 0 9.58 2.33 12.53 6.29l5.98 8.03c2.95 3.96 7.59 6.3 12.53 6.3h21.17c-.92.92-1.48 2.19-1.48 3.55z"/></g><path data-cppathid="10007" fill="#fff" d="m44.98 113.58c-.78-1.71-2.49-2.94-4.55-2.94h-10.7c.02.14.03.29.03.44v65.97c0 .15-.01.3-.03.44h10.7c1.59 0 3.01-.75 3.91-1.91.69-.85 1.09-1.93 1.09-3.09v-56.85c0-.73-.16-1.43-.45-2.06z"/><g><path data-cppathid="10008" fill="#72c1e8" d="m231.24 114.107c-2.61 0-4.76 2-4.97 4.56v.003 66.85c.21 2.56 2.36 4.56 4.97 4.56h21.19v-.003-75.967-.003z"/></g><g><path data-cppathid="10009" fill="#fff" d="m226.27 118.67h-10.7c-1.39 0-2.62.56-3.52 1.45-.92.92-1.48 2.19-1.48 3.55v56.45c0 .71.27 2.01.27 2.01.63 1.88 2.47 3.39 4.73 3.39h10.7c0-.003 0-66.847 0-66.85z"/></g><g><path data-cppathid="10010" fill="#c5e5ff" d="m241.663 167.119c-1.381 0-2.5-1.119-2.5-2.5v-3.283c0-1.381 1.119-2.5 2.5-2.5s2.5 1.119 2.5 2.5v3.283c0 1.381-1.12 2.5-2.5 2.5zm0-13.283c-1.381 0-2.5-1.119-2.5-2.5v-25.875h-2.125c-1.381 0-2.5-1.119-2.5-2.5s1.119-2.5 2.5-2.5h4.625c1.381 0 2.5 1.119 2.5 2.5v28.375c0 1.381-1.12 2.5-2.5 2.5z"/></g><path data-cppathid="10011" fill="#f0c020" d="m159.75 37.38-8.82-1.28-3.95-8.01c-1.05-2.12-4.07-2.12-5.13 0l-3.93 8.01-5.65.82c-.53-1.05-1.02-2.06-1.44-2.89-1.04-2.12-4.06-2.12-5.12 0-1.56 3.16-1.11 2.24-1.46 2.96l-6.17-.89-3.94-8.01c-1.05-2.12-4.08-2.12-5.12 0l-3.95 8.01-8.82 1.28c-2.35.33-3.27 3.21-1.59 4.86l6.4 6.23-1.52 8.79c-.4 2.34 2.05 4.11 4.15 3.01l7.89-4.15 5.38 2.84-.73 4.24c-.4 2.33 2.05 4.11 4.15 3.01l7.89-4.15 7.91 4.15c2.08 1.1 4.53-.68 4.13-3.01l-.77-4.52 4.88-2.56 7.89 4.15c2.1 1.1 4.55-.67 4.15-3.01l-1.52-8.79 6.4-6.23c1.68-1.65.76-4.53-1.59-4.86z"/></g><path data-cppathid="10012" d="m228.77 118.787c.144-1.229 1.213-2.18 2.47-2.18h21.104c1.41.042 2.586-1.091 2.586-2.5 0-1.381-1.119-2.5-2.5-2.5h-21.19c-3.055 0-5.734 1.881-6.885 4.563h-8.795c-1.585 0-3.138.523-4.411 1.45h-5.049v-79.37c0-.694-.295-1.332-.735-1.77l-25.495-25.495c-.432-.433-1.092-.735-1.77-.735h-120.37c-4.136 0-7.5 3.364-7.5 7.5v93.33h-3.879c-1.404-1.818-3.576-2.94-5.921-2.94h-8.785c-1.15-2.682-3.83-4.563-6.885-4.563h-21.19c-1.381 0-2.5 1.119-2.5 2.5s1.119 2.5 2.5 2.5h21.19c1.286 0 2.374.995 2.478 2.264.041.463.018 66.231 0 66.441-.104 1.27-1.192 2.264-2.478 2.264h-21.19c-1.381 0-2.5 1.119-2.5 2.5s1.119 2.5 2.5 2.5h21.19c3.052 0 5.73-1.878 6.882-4.557h8.788c1.87 0 3.625-.693 4.979-1.91h4.821v60.17c0 4.136 3.364 7.5 7.5 7.5h140.87c4.136 0 7.5-3.364 7.5-7.5v-53.62h3.227c1.358 2.059 3.672 3.374 6.243 3.39h8.787c1.151 2.681 3.829 4.56 6.883 4.56h21.19c1.381 0 2.5-1.122 2.5-2.503 0-1.409-1.155-2.541-2.586-2.497h-21.104c-1.257 0-2.326-.951-2.47-2.18 0-9.821 0-58.041 0-66.612zm-20.7 4.883v55.96h-23.75c-3.385 0-6.784.782-9.833 2.262l-9.765 4.748c-2.382 1.152-5.028 1.761-7.652 1.761h-54.98c-3.54 0-6.545-2.941-6.324-6.743.181-3.054 2.679-5.833 6.722-5.955h31.909c1.381 0 2.5-1.119 2.5-2.5s-1.119-2.5-2.5-2.5h-43.676c-3.583 0-6.351-2.913-6.351-6.342 0-3.501 2.849-6.35 6.35-6.35h42.97c1.381 0 2.5-1.119 2.5-2.5s-1.119-2.5-2.5-2.5c-8.757 0-36.62 0-48.38 0-3.501 0-6.35-2.849-6.35-6.35s2.849-6.35 6.348-6.35c19.289.019-4.441 0 48.382 0 1.381 0 2.5-1.119 2.5-2.5s-1.119-2.5-2.5-2.5h-38.55c-3.581 0-6.34-2.918-6.34-6.35 0-3.496 2.844-6.34 6.34-6.34h38.769l3.451 5.202c3.419 5.209 10.497 6.696 15.786 3.309 5.39-3.479 6.873-10.674 3.337-15.984l-8.732-13.148h12.089c4.126 0 8.061 1.975 10.525 5.283l5.98 8.03c3.408 4.576 8.841 7.307 14.535 7.307h17.266c-.036.243-.076.722-.076 1.05zm-27.47-104.884 16.964 16.964h-16.964zm-125.37-1.036c0-1.378 1.122-2.5 2.5-2.5h117.87v23c0 1.381 1.119 2.5 2.5 2.5h23v76.87h-10.22c-4.122 0-8.056-1.979-10.525-5.293l-5.98-8.03c-3.404-4.569-8.837-7.297-14.535-7.297h-16.944c-2.719-1.824-5.955-2.82-9.206-2.82h-31.25c-6.004 0-11.856 2.453-16.054 6.729l-4.84 4.93c-3.27 3.331-7.821 5.242-12.486 5.242h-13.83zm-22.97 157.24v-61.85h8.17c1.474 0 2.5 1.231 2.5 2.5v56.85c0 1.337-1.097 2.5-2.5 2.5zm15.67-2.5v-56.41h21.13c5.998 0 11.85-2.456 16.054-6.739l4.84-4.93c3.264-3.325 7.815-5.231 12.486-5.231h31.25c2.497 0 4.887.802 6.91 2.32.002.001.004.002.006.004.002.001.003.003.004.004 1.089.809 2.016 1.793 2.756 2.928.002.003.005.007.007.011.004.006.01.01.013.016.004.007.007.014.011.021l8.921 13.433c2.018 3.029 1.114 7.079-1.877 9.009-2.986 1.913-6.979 1.083-8.909-1.857l-4.2-6.33c-.463-.698-1.245-1.118-2.083-1.118h-40.109c-6.253 0-11.34 5.087-11.34 11.34 0 2.351.716 4.537 1.942 6.351-7.222-.008-11.782 5.485-11.782 11.35 0 5.01 3.263 9.271 7.774 10.773-1.481 1.917-2.364 4.321-2.364 6.927 0 6.258 5.091 11.35 11.35 11.35h2.017c-1.344 1.935-2.05 4.228-1.977 6.7h-5.26c-4.061 0-8-1.444-11.087-4.062-3.981-3.397-9.071-5.268-14.333-5.268h-12.172c.015-.197.022-.394.022-.592zm153.17 65.76c0 1.378-1.122 2.5-2.5 2.5h-140.87c-1.378 0-2.5-1.122-2.5-2.5v-60.17h4.85c4.073 0 8.01 1.446 11.093 4.077 3.996 3.388 9.083 5.253 14.327 5.253h6.589c1.95 3.645 5.771 5.99 10.001 5.99h54.98c3.373 0 6.771-.781 9.833-2.261l9.769-4.75c2.371-1.151 5.016-1.759 7.648-1.759h16.78zm14.43-55.23c-1.073 0-2.46-.771-2.46-2.9 0-49.077 0-7.549 0-56.45 0-1.195.962-2.5 2.5-2.5h8.2c-.012 6.06-.016 56.077 0 61.85z"/><path data-cppathid="10013" d="m82.75 84h90.5c1.381 0 2.5-1.119 2.5-2.5s-1.119-2.5-2.5-2.5h-90.5c-1.381 0-2.5 1.119-2.5 2.5s1.119 2.5 2.5 2.5z"/><path data-cppathid="10014" d="m181.212 213.583h-106.424c-1.381 0-2.5 1.119-2.5 2.5s1.119 2.5 2.5 2.5h106.424c1.381 0 2.5-1.119 2.5-2.5s-1.119-2.5-2.5-2.5z"/><path data-cppathid="10015" d="m98.369 49.342-1.292 7.495c-.755 4.375 3.847 7.711 7.773 5.647l6.727-3.535 2.613 1.376-.419 2.448c-.754 4.372 3.841 7.715 7.773 5.648l6.729-3.537 6.734 3.534c3.931 2.076 8.52-1.284 7.767-5.641l-.464-2.723 2.11-1.106 6.729 3.536c3.927 2.064 8.529-1.269 7.773-5.647l-1.292-7.495 5.455-5.313c.002-.001.003-.003.005-.005 3.166-3.099 1.402-8.498-2.978-9.118l-7.525-1.091-3.368-6.837c-1.971-3.963-7.63-3.977-9.613.011l-3.352 6.826-2.554.37-.625-1.26c-1.956-3.976-7.623-3.988-9.602-.008l-.665 1.34-3.066-.442-3.362-6.826c-1.956-3.979-7.648-3.984-9.605-.002l-3.364 6.829-7.516 1.09c-4.393.621-6.154 6.018-2.982 9.124zm39.906-10.768c.817-.118 1.522-.631 1.886-1.372l3.928-7.998c.136-.28.522-.268.649-.008l3.946 8.009c.364.739 1.069 1.251 1.884 1.369l8.836 1.281c.296.044.393.397.19.595l-6.395 6.229c-.59.575-.859 1.404-.719 2.216l1.517 8.792c.049.296-.255.512-.521.371l-7.891-4.147c-.736-.387-1.605-.378-2.324-.001l-.794.417 4.467-4.36c3.175-3.086 1.435-8.489-2.954-9.136-.002 0-.004-.001-.006-.001l-7.539-1.091-.414-.838zm-9.683-3.436s3.86 7.824 3.944 7.994c.364.738 1.069 1.249 1.883 1.367l8.833 1.279c.29.043.41.397.194.608l-6.386 6.232c-.589.575-.857 1.402-.718 2.213.622 3.611.267 1.536 1.505 8.792.05.287-.245.514-.51.371l-7.903-4.147c-.728-.381-1.596-.381-2.325.001l-7.891 4.147c-.256.141-.572-.067-.52-.376l1.504-8.788c.139-.811-.129-1.639-.718-2.213l-6.39-6.236c-.212-.207-.091-.561.204-.604l8.827-1.28c.814-.118 1.518-.629 1.882-1.367.989-2.002 2.951-5.992 3.943-7.992.138-.27.509-.273.642-.001zm-31.988 4.716 8.827-1.28c.815-.118 1.52-.63 1.884-1.369l3.947-8.012c.128-.262.501-.264.632.002l3.945 8.009c.364.74 1.07 1.252 1.886 1.37l2.761.398-.378.766-7.53 1.092c-4.397.644-6.144 6.049-2.972 9.133l5.113 4.99-1.978-1.041c-.728-.383-1.598-.383-2.328 0l-7.891 4.147c-.265.142-.569-.076-.521-.372l1.517-8.792c.14-.812-.129-1.641-.719-2.216l-6.394-6.228c-.198-.197-.116-.552.199-.597z"/></g></g></svg>