<?xml version="1.0" encoding="UTF-8"?>
<svg xmlns="http://www.w3.org/2000/svg" onmouseup="{ if(window.parent.document.onmouseup) window.parent.document.onmouseup(arguments[0]);}" width="492pt" viewBox="0 -10 492.07422 492" height="492pt"><path data-cppathid="10000" d="m426.832031 328.101562c.015625-.199218.238281-.398437.238281-.605468v-13.222656c0-20.953126-17.464843-38.246094-38.417968-38.246094h-134.582032v-23.136719c0-4.417969-3.582031-8-8-8-4.417968 0-8 3.582031-8 8v23.136719h-134.582031c-20.953125 0-38.417969 17.292968-38.417969 38.246094v13.222656c0 .25.222657.5.246094.742187l-62.585937 54.289063c-2.515625 2.285156-3.390625 5.863281-2.214844 9.050781 1.171875 3.1875 4.160156 5.34375 7.554687 5.449219h7v66.03125c.078126 4.421875 3.671876 7.96875 8.09375 8l103.777344.96875h.074219c4.429687 0 8.03125-3.578125 8.054687-8.007813v-66.992187h8.480469c3.390625-.074219 6.378907-2.242188 7.5-5.445313 1.121094-3.199219.140625-6.757812-2.464843-8.933593l-67.515626-58.550782v-9.824218c.191407-12.273438 10.144532-22.148438 22.417969-22.246094h134.582031v34.234375l-64.976562 56.265625c-2.53125 2.28125-3.425781 5.867187-2.257812 9.066406 1.140624 3.183594 4.117187 5.339844 7.5 5.433594h7.734374v66.027344c-.042968 2.089843.746094 4.105468 2.195313 5.609374 1.449219 1.503907 3.441406 2.363282 5.527344 2.390626l103.40625.972656h.074219c2.082031 0 4.070312-.835938 5.527343-2.320313 1.492188-1.515625 2.308594-3.5625 2.269531-5.6875v-66.992187h8.742188c3.367188-.101563 6.332031-2.246094 7.488281-5.414063 1.152344-3.164062.265625-6.714843-2.246093-8.964843l-64.984376-56.535157v-34.085937h134.582032c12.273437.097656 22.226562 9.972656 22.417968 22.246094v9.976562l-67.507812 58.277344c-2.558594 2.261718-3.492188 5.847656-2.363281 9.066406 1.097656 3.171875 4.039062 5.335938 7.390625 5.433594h7.480468v66.03125c-.03125 4.375 3.476563 7.949218 7.851563 8l103.539063.96875h.074218c2.042969-.003906 3.992188-.839844 5.398438-2.320313 1.453125-1.527343 2.222656-3.582031 2.136718-5.6875v-66.992187h9c3.359376-.121094 6.3125-2.25 7.484376-5.398438 1.171874-3.148437.328124-6.695312-2.136719-8.980468zm-341.761719 127.527344-18-.167968v-21.433594h18zm34 .3125-18-.164062v-30.058594c.011719-2.082031-.824218-4.074219-2.316406-5.527344-1.488281-1.449218-3.503906-2.230468-5.582031-2.164062h-34.171875c-2.082031-.066406-4.101562.714844-5.59375 2.164062-1.496094 1.449219-2.339844 3.441406-2.335938 5.527344v29.597656l-20-.1875v-58.101562h88zm-89.542968-74.914062 46.363281-40.148438 46.242187 40.148438zm225.542968 74.601562-18-.167968v-21.433594h18zm34 .3125-18-.164062v-30.058594c.070313-2.050781-.710937-4.042969-2.15625-5.496094-1.445312-1.457031-3.429687-2.25-5.480468-2.195312h-34.175782c-2.105468-.074219-4.15625.695312-5.695312 2.136718-1.539062 1.445313-2.4375 3.445313-2.492188 5.554688v29.597656l-19-.179687v-58.109375h87zm-89.28125-74.914062 46.363282-40.148438 46.242187 40.148438zm216.621094-40.148438 46.242188 40.148438h-92.605469zm9.660156 114.75-19-.167968v-21.433594h19zm33 .3125-17-.164062v-30.058594c0-4.417969-3.957031-7.691406-8.378906-7.691406h-34.171875c-4.417969 0-8.449219 3.273437-8.449219 7.691406v29.597656l-19-.179687v-58.109375h87zm0 0"/><path data-cppathid="10001" d="m246.070312 99.816406c27.554688 0 49.890626-22.335937 49.890626-49.890625 0-27.550781-22.335938-49.8906248-49.890626-49.8867185-27.554687 0-49.890624 22.3359375-49.890624 49.8906255.03125 27.539062 22.351562 49.855468 49.890624 49.886718zm0-83.777344c18.71875 0 33.890626 15.171876 33.890626 33.886719 0 18.71875-15.171876 33.890625-33.890626 33.890625-18.714843 0-33.890624-15.171875-33.890624-33.886718.019531-18.710938 15.183593-33.871094 33.890624-33.890626zm0 0"/><path data-cppathid="10002" d="m160.070312 146.433594v74.007812c-.027343 2.058594.792969 4.039063 2.269532 5.472656 1.476562 1.433594 3.476562 2.199219 5.535156 2.113282h156.394531c2.058594.085937 4.058594-.679688 5.535157-2.113282 1.472656-1.4375 2.292968-3.414062 2.265624-5.472656v-74.007812c.019532-12.0625-4.769531-23.636719-13.304687-32.15625-8.539063-8.523438-20.117187-13.289063-32.179687-13.25-2.527344-.054688-4.925782 1.101562-6.449219 3.117187-8.007813 10.769531-20.636719 17.121094-34.058594 17.125-13.421875.003907-26.054687-6.339843-34.070313-17.109375-1.519531-2.019531-3.921874-3.183594-6.449218-3.132812-12.0625-.042969-23.644532 4.726562-32.179688 13.25-8.539062 8.519531-13.328125 20.09375-13.308594 32.15625zm16 0c-.023437-14.949219 11.082032-27.582032 25.914063-29.472656 10.996094 12.933593 27.113281 20.386718 44.089844 20.386718 16.976562 0 33.097656-7.453125 44.09375-20.386718 14.828125 1.890624 25.933593 14.523437 25.902343 29.472656v65.59375h-140zm0 0"/></svg>