<?xml version="1.0" encoding="UTF-8"?>
<svg xmlns="http://www.w3.org/2000/svg" onmouseup="{ if(window.parent.document.onmouseup) window.parent.document.onmouseup(arguments[0]);}" width="512" viewBox="0 0 135 135" height="512" enable-background="new 0 0 135 135" id="Layer_1"><g><g><path data-cppathid="10000" fill="#7a8490" d="m3.5 113.066h128v3.16h-128z"/><g><g><path data-cppathid="10001" fill="#dda272" d="m22.803 49.655h24.082v63.411h-24.082z"/><path data-cppathid="10002" fill="#dda272" d="m55.456 49.655h24.082v63.411h-24.082z"/><path data-cppathid="10003" fill="#dda272" d="m88.11 49.655h24.082v63.411h-24.082z"/><path data-cppathid="10004" opacity=".08" fill="#2c2c34" d="m22.803 82.816h24.082v2.611h-24.082z"/><path data-cppathid="10005" opacity=".08" fill="#2c2c34" d="m55.456 82.816h24.082v2.611h-24.082z"/><path data-cppathid="10006" opacity=".08" fill="#2c2c34" d="m88.11 82.816h24.082v2.611h-24.082z"/><path data-cppathid="10007" fill="#fc9" d="m88.11 79.905h24.082v2.91h-24.082z"/><path data-cppathid="10008" fill="#fc9" d="m55.456 79.905h24.082v2.91h-24.082z"/><path data-cppathid="10009" fill="#fc9" d="m22.803 79.905h24.082v2.91h-24.082z"/><g fill="#2c2c34"><path data-cppathid="10010" opacity=".08" d="m22.803 49.655h2.185v63.25h-2.185z"/><path data-cppathid="10011" opacity=".08" d="m44.7 49.655h2.185v63.25h-2.185z"/><path data-cppathid="10012" opacity=".08" d="m55.459 49.655h2.185v63.25h-2.185z"/><path data-cppathid="10013" opacity=".08" d="m77.356 49.655h2.185v63.25h-2.185z"/><path data-cppathid="10014" opacity=".08" d="m88.11 49.655h2.185v63.25h-2.185z"/><path data-cppathid="10015" opacity=".08" d="m110.007 49.655h2.185v63.25h-2.185z"/></g><g><g><path data-cppathid="10016" fill="#fc9" d="m110.013 49.655h12.944v5.027h-12.944z"/><path data-cppathid="10017" fill="#fc9" d="m110.013 108.039h12.944v5.027h-12.944z"/><path data-cppathid="10018" fill="#f2bc8b" d="m112.197 54.683h8.575v53.356h-8.575z"/></g><g><path data-cppathid="10019" fill="#fc9" d="m77.356 49.655h12.944v5.027h-12.944z"/><path data-cppathid="10020" fill="#fc9" d="m77.356 108.039h12.944v5.027h-12.944z"/><path data-cppathid="10021" fill="#f2bc8b" d="m79.541 54.683h8.575v53.356h-8.575z"/></g><g><path data-cppathid="10022" fill="#fc9" d="m44.7 49.655h12.944v5.027h-12.944z"/><path data-cppathid="10023" fill="#fc9" d="m44.7 108.039h12.944v5.027h-12.944z"/><path data-cppathid="10024" fill="#f2bc8b" d="m46.885 54.683h8.575v53.356h-8.575z"/></g><g><path data-cppathid="10025" fill="#fc9" d="m12.043 49.655h12.944v5.027h-12.944z"/><path data-cppathid="10026" fill="#fc9" d="m12.043 108.039h12.944v5.027h-12.944z"/><path data-cppathid="10027" fill="#f2bc8b" d="m14.228 54.683h8.575v53.356h-8.575z"/></g></g><path data-cppathid="10028" fill="#9e5c30" d="m8.739 47.45h117.522v2.206h-117.522z"/><path data-cppathid="10029" fill="#9e5c30" d="m8.739 37.997h117.522v2.206h-117.522z"/><path data-cppathid="10030" fill="#fc9" d="m10.405 40.205h114.19v7.24h-114.19z"/><path data-cppathid="10031" opacity=".08" fill="#2c2c34" d="m10.405 40.205h114.19v1.315h-114.19z"/><path data-cppathid="10032" opacity=".08" fill="#2c2c34" d="m10.405 46.134h114.19v1.315h-114.19z"/><g><g><path data-cppathid="10033" fill="#44433f" d="m41.7340698 64.1334991v15.104805h-13.958046v-15.104805c0-3.8544006 3.1246128-6.9790115 6.9790154-6.9790115h.0000153c3.8544044 0 6.9790153 3.1246109 6.9790153 6.9790115z"/></g><g><g><path data-cppathid="10034" fill="#f9f6c9" d="m42.4012909 79.9053116h-15.2924442v-15.7718887c0-4.2161026 3.4296837-7.6460037 7.6462231-7.6460037s7.6462212 3.4299011 7.6462212 7.6460037v15.7718887zm-13.958437-1.3340073h12.6244297v-14.4378814c0-3.4804878-2.8312912-6.3119965-6.3122139-6.3119965s-6.3122158 2.8315086-6.3122158 6.3119965z"/></g></g><g><g><path data-cppathid="10035" fill="#f9f6c9" d="m27.776 63.466h13.958v1.334h-13.958z"/></g></g><g><g><path data-cppathid="10036" fill="#f9f6c9" d="m34.088 64.133h1.334v15.105h-1.334z"/></g></g></g><g><g><path data-cppathid="10037" fill="#44433f" d="m74.4763412 64.1334991v15.104805h-13.9580421v-15.104805c0-3.8544006 3.1246109-6.9790115 6.9790154-6.9790115h.0000153c3.8544005 0 6.9790114 3.1246109 6.9790114 6.9790115z"/></g><g><g><path data-cppathid="10038" fill="#f9f6c9" d="m75.1435623 79.9053116h-15.2924423v-15.7718887c0-4.2161026 3.4296837-7.6460037 7.646225-7.6460037s7.6462173 3.4299011 7.6462173 7.6460037zm-13.958435-1.3340073h12.6244278v-14.4378814c0-3.4804878-2.8312912-6.3119965-6.3122101-6.3119965-3.4809265 0-6.3122177 2.8315086-6.3122177 6.3119965z"/></g></g><g><g><path data-cppathid="10039" fill="#f9f6c9" d="m60.518 63.466h13.958v1.334h-13.958z"/></g></g><g><g><path data-cppathid="10040" fill="#f9f6c9" d="m66.83 64.133h1.334v15.105h-1.334z"/></g></g></g><g><g><path data-cppathid="10041" fill="#44433f" d="m107.130043 64.1334991v15.104805h-13.9580383v-15.104805c0-3.8544006 3.1246109-6.9790115 6.9790115-6.9790115h.0000153c3.8544006 0 6.9790115 3.1246109 6.9790115 6.9790115z"/></g><g><g><path data-cppathid="10042" fill="#f9f6c9" d="m107.7972641 79.9053116h-15.2924423v-15.7718887c0-4.2161026 3.4296875-7.6460037 7.646225-7.6460037s7.6462173 3.4299011 7.6462173 7.6460037zm-13.9584351-1.3340073h12.6244354v-14.4378814c0-3.4804878-2.8312912-6.3119965-6.3122177-6.3119965s-6.3122177 2.8315086-6.3122177 6.3119965z"/></g></g><g><g><path data-cppathid="10043" fill="#f9f6c9" d="m93.172 63.466h13.958v1.334h-13.958z"/></g></g><g><g><path data-cppathid="10044" fill="#f9f6c9" d="m99.484 64.133h1.334v15.105h-1.334z"/></g></g></g><g><g><path data-cppathid="10045" fill="#44433f" d="m41.7340698 93.0726929v15.1048126h-13.958046v-15.1048126c0-3.8544006 3.1246128-6.9790115 6.9790154-6.9790115h.0000153c3.8544044-.0000001 6.9790153 3.1246108 6.9790153 6.9790115z"/></g><g><g><path data-cppathid="10046" fill="#f9f6c9" d="m42.4012909 108.8445053h-15.2924442v-15.7718887c0-4.2161026 3.4296837-7.6460037 7.6462231-7.6460037s7.6462212 3.4299011 7.6462212 7.6460037v15.7718887zm-13.958437-1.3340073h12.6244297v-14.4378814c0-3.4804916-2.8312912-6.3119965-6.3122139-6.3119965s-6.3122158 2.8315048-6.3122158 6.3119965z"/></g></g><g><g><path data-cppathid="10047" fill="#f9f6c9" d="m27.776 92.406h13.958v1.334h-13.958z"/></g></g><g><g><path data-cppathid="10048" fill="#f9f6c9" d="m34.088 93.073h1.334v15.105h-1.334z"/></g></g></g><g><g><path data-cppathid="10049" fill="#44433f" d="m107.130043 93.0726929v15.1048126h-13.9580383v-15.1048126c0-3.8544006 3.1246109-6.9790115 6.9790115-6.9790115h.0000153c3.8544006-.0000001 6.9790115 3.1246108 6.9790115 6.9790115z"/></g><g><g><path data-cppathid="10050" fill="#f9f6c9" d="m107.7972641 108.8445053h-15.2924423v-15.7718887c0-4.2161026 3.4296875-7.6460037 7.646225-7.6460037s7.6462173 3.4299011 7.6462173 7.6460037zm-13.9584351-1.3340073h12.6244354v-14.4378814c0-3.4804916-2.8312912-6.3119965-6.3122177-6.3119965s-6.3122177 2.8315048-6.3122177 6.3119965z"/></g></g><g><g><path data-cppathid="10051" fill="#f9f6c9" d="m93.172 92.406h13.958v1.334h-13.958z"/></g></g><g><g><path data-cppathid="10052" fill="#f9f6c9" d="m99.484 93.073h1.334v15.105h-1.334z"/></g></g></g><path data-cppathid="10053" opacity=".08" fill="#2c2c34" d="m12.043 49.655h110.913v1.988h-110.913z"/><g><path data-cppathid="10054" fill="#f9f6c9" d="m58.796 88.949h17.403v24.116h-17.403z"/><g><path data-cppathid="10055" transform="matrix(0 1 -1 0 165.553 38.041)" fill="#44433f" d="m52.487 98.407h22.538v6.779h-22.538z"/><path data-cppathid="10056" fill="#807f84" d="m61.232 91.394h5.048v5.047h-5.048z"/><path data-cppathid="10057" fill="#807f84" d="m61.232 98.127h5.048v7.645h-5.048z"/><path data-cppathid="10058" fill="#fff" d="m67.1452789 106.8547668h-1.0934525c-.582016 0-1.0554962-.4735641-1.0554962-1.0554962v-4.5437241c0-.5819397.4734802-1.0554962 1.0554962-1.0554962h1.0934525v.5193787h-1.0934525c-.2956161 0-.5361176.2404099-.5361176.5361176v4.5437241c0 .2955322.2405014.5361176.5361176.5361176h1.0934525z"/></g><g><path data-cppathid="10059" transform="matrix(0 1 -1 0 173.036 30.558)" fill="#44433f" d="m59.97 98.407h22.538v6.779h-22.538z"/><path data-cppathid="10060" fill="#807f84" d="m68.715 91.394h5.048v5.047h-5.048z"/><path data-cppathid="10061" fill="#807f84" d="m68.715 98.127h5.048v7.645h-5.048z"/><path data-cppathid="10062" fill="#fff" d="m67.8494263 106.8547668h1.0934525c.582016 0 1.0554962-.4735641 1.0554962-1.0554962v-4.5437241c0-.5819397-.4734802-1.0554962-1.0554962-1.0554962h-1.0934525v.5193787h1.0934525c.2956161 0 .5361176.2404099.5361176.5361176v4.5437241c0 .2955322-.2405014.5361176-.5361176.5361176h-1.0934525z"/></g></g></g><path data-cppathid="10063" fill="#dda272" d="m10.405 32.507h114.19v5.49h-114.19z"/><path data-cppathid="10064" fill="#fc9" d="m8.739 30.325h117.522v2.181h-117.522z"/><path data-cppathid="10065" fill="#fc9" d="m110.0072403 37.9969635h-85.0144806l42.530426-19.2232513z"/><path data-cppathid="10066" fill="#dda272" d="m98.8951645 37.9969635h-62.7903328l31.4122887-14.1979866z"/></g></g></g></svg>