<?xml version="1.0" encoding="UTF-8"?>
<svg xmlns="http://www.w3.org/2000/svg" onmouseup="{ if(window.parent.document.onmouseup) window.parent.document.onmouseup(arguments[0]);}" width="512" viewBox="0 0 256 256" height="512"><path data-cppathid="10000" fill="#ffb69f" d="m112.289 30v13.106a15.711 15.711 0 0 0 31.422 0v-13.106z"/><path data-cppathid="10001" fill="#7c7b7a" d="m145 7.819-6.771 3.535a12.176 12.176 0 0 1 -5.648 1.387h-13.045a8.193 8.193 0 0 0 -8.071 9.483l.824 7.776h31.422c4.667-4.973 4.768-15.228 1.289-22.181z"/><path data-cppathid="10002" fill="#fc5d3d" d="m154.82 80.653v7.27h-53.64v-7.27a21.842 21.842 0 0 1 21.84-21.84h9.96a21.842 21.842 0 0 1 21.84 21.84z"/><path data-cppathid="10003" fill="#7c7b7a" d="m244.9 220.763h-10.8v-117.415a15.427 15.427 0 0 0 -15.426-15.426h-181.352a15.427 15.427 0 0 0 -15.422 15.426v117.415h-10.8a6.85 6.85 0 0 0 -6.849 6.85 20.568 20.568 0 0 0 20.568 20.568h206.363a20.568 20.568 0 0 0 20.568-20.568 6.85 6.85 0 0 0 -6.85-6.85z"/><rect data-cppathid="10004" y="61.607" x="74.951" width="106.099" transform="matrix(0 1 -1 0 282.342 26.342)" rx="3" height="185.469" fill="#f0c020"/><path data-cppathid="10005" transform="matrix(0 1 -1 0 236.82 -19.18)" fill="#72c1e8" d="m123.472 16.086h12.057a0 0 0 0 1 0 0v185.469a0 0 0 0 1 0 0h-12.057a3 3 0 0 1 -3-3v-179.469a3 3 0 0 1 3-3z"/><path data-cppathid="10006" fill="#afafaf" d="m162.113 220.764-1.906 9.57a5.142 5.142 0 0 1 -5.043 4.139h-54.328a5.142 5.142 0 0 1 -5.043-4.139l-1.906-9.57z"/><path data-cppathid="10007" fill="#ffb69f" d="m70.07 147.959v7.876a9.442 9.442 0 0 0 18.883 0v-7.876z"/><path data-cppathid="10008" fill="#7c7b7a" d="m89.729 134.629-4.07 2.125a7.315 7.315 0 0 1 -3.393.833h-7.841a4.924 4.924 0 0 0 -4.85 5.7l.495 4.673h18.883c2.804-2.99 2.865-9.153.776-13.331z"/><path data-cppathid="10009" fill="#fc5d3d" d="m76.522 165.272h5.978a13.126 13.126 0 0 1 13.128 13.128v10.355a0 0 0 0 1 0 0h-32.228a0 0 0 0 1 0 0v-10.355a13.126 13.126 0 0 1 13.122-13.128z"/><path data-cppathid="10010" fill="#afafaf" d="m231.182 240.682h-30.6a2.5 2.5 0 0 1 0-5h30.6a8.04 8.04 0 0 0 7.7-5.666 2.5 2.5 0 0 1 4.771 1.5 13.017 13.017 0 0 1 -12.471 9.166zm-40.6 0h-18.144a2.5 2.5 0 0 1 0-5h18.146a2.5 2.5 0 0 1 0 5z"/><path data-cppathid="10011" fill="#afafaf" d="m72 240.682h-4a2.5 2.5 0 0 1 0-5h4a2.5 2.5 0 1 1 0 5zm-14 0h-33.182a13.017 13.017 0 0 1 -12.474-9.171 2.5 2.5 0 1 1 4.771-1.5 8.04 8.04 0 0 0 7.7 5.666h33.185a2.5 2.5 0 1 1 0 5z"/><path data-cppathid="10012" fill="#f2e1d6" d="m210.49 200.182a2.5 2.5 0 0 1 -2.5-2.5v-1.588a2.5 2.5 0 0 1 5 0v1.588a2.5 2.5 0 0 1 -2.5 2.5zm0-11.588a2.5 2.5 0 0 1 -2.5-2.5v-57.375h-15.625a2.5 2.5 0 0 1 0-5h18.125a2.5 2.5 0 0 1 2.5 2.5v59.875a2.5 2.5 0 0 1 -2.5 2.5z"/><circle data-cppathid="10013" r="2.5" cy="87.923" cx="183.46"/><path data-cppathid="10014" d="m35.27 186.892a2.5 2.5 0 1 0 -2.5-2.5 2.5 2.5 0 0 0 2.5 2.5z"/><path data-cppathid="10015" d="m32.77 204.392a5.5 5.5 0 0 0 5.5 5.5h179.459a5.5 5.5 0 0 0 5.5-5.5c0-83.4 0-99.037 0-100.1a5.506 5.506 0 0 0 -5.5-5.5h-179.463a5.506 5.506 0 0 0 -5.5 5.5v12.057.038 58.005a2.5 2.5 0 0 0 5 0c0-.009 0-.009-.01-.019v-55.524h180.473v85.543a.5.5 0 0 1 -.5.5h-179.459a.517.517 0 0 1 -.51-.5v-10a2.5 2.5 0 1 0 -4.99 0zm5-90.543v-9.557a.5.5 0 0 1 .5-.5h179.459a.5.5 0 0 1 .5.5v9.556z"/><path data-cppathid="10016" d="m244.9 218.264h-8.3v-114.912a17.944 17.944 0 0 0 -17.92-17.929h-25.22a2.5 2.5 0 0 0 0 5h25.22a12.98 12.98 0 0 1 12.929 12.929v114.911h-207.219l.01-114.911a12.968 12.968 0 0 1 12.92-12.929h136.14a2.5 2.5 0 1 0 0-5h-16.14v-4.77a24.379 24.379 0 0 0 -17.82-23.446 18.176 18.176 0 0 0 6.709-14.1v-12.207c5-6.275 4.512-17.225 1.027-24.2a2.5 2.5 0 0 0 -3.393-1.1l-6.771 3.535a9.619 9.619 0 0 1 -4.491 1.1h-13.046a10.7 10.7 0 0 0 -10.55 12.308l.8 7.586v12.977a18.17 18.17 0 0 0 6.712 14.1 24.379 24.379 0 0 0 -17.817 23.447v4.77h-61.361a17.944 17.944 0 0 0 -17.919 17.929v114.912h-8.3a9.36 9.36 0 0 0 -9.35 9.349 23.1 23.1 0 0 0 23.068 23.069h206.364a23.1 23.1 0 0 0 23.068-23.069 9.36 9.36 0 0 0 -9.35-9.349zm-125.365-203.023h13.048a14.772 14.772 0 0 0 6.805-1.671l4.359-2.275c1.931 5.669 1.462 12.5-1.211 16.2h-28c-.012-.115-.587-5.557-.6-5.669a5.69 5.69 0 0 1 5.599-6.585zm-4.746 27.865v-10.606h26.422v10.606a13.211 13.211 0 0 1 -26.422 0zm-11.109 37.547a19.362 19.362 0 0 1 19.34-19.341h9.96a19.362 19.362 0 0 1 19.34 19.341v4.77h-48.64zm127.5 165.029h-206.362a18.089 18.089 0 0 1 -18.068-18.069 4.354 4.354 0 0 1 4.35-4.349h80.731l1.509 7.558a7.665 7.665 0 0 0 7.5 6.151h11.15a2.5 2.5 0 0 0 .02-5h-11.17a2.665 2.665 0 0 1 -2.6-2.13l-1.31-6.579h62.129l-1.309 6.579a2.646 2.646 0 0 1 -2.59 2.13h-23.17a2.5 2.5 0 0 0 0 5h23.17a7.665 7.665 0 0 0 7.5-6.151l1.5-7.558h80.74a4.354 4.354 0 0 1 4.35 4.349 18.089 18.089 0 0 1 -18.068 18.069z"/><circle data-cppathid="10017" r="2.5" cy="234.473" cx="121.99"/><path data-cppathid="10018" d="m60.9 178.4v10.356a2.5 2.5 0 0 0 2.5 2.5h32.228a2.5 2.5 0 0 0 2.5-2.5v-10.356a15.64 15.64 0 0 0 -9.835-14.5 11.881 11.881 0 0 0 3.16-8.063v-6.979c3.071-4.149 2.747-10.875.512-15.345a2.5 2.5 0 0 0 -3.394-1.1l-4.071 2.124a4.788 4.788 0 0 1 -2.237.55h-7.838a7.425 7.425 0 0 0 -7.329 8.521l.474 4.485v7.742a11.875 11.875 0 0 0 3.162 8.062 15.639 15.639 0 0 0 -9.832 14.503zm11.67-27.941h13.883v5.376a6.942 6.942 0 0 1 -13.883 0zm1.855-10.372h7.841a9.881 9.881 0 0 0 4.55-1.117l1.534-.8a10.76 10.76 0 0 1 -.643 7.29h-15.388l-.257-2.437c0-.043-.011-.087-.018-.13a2.423 2.423 0 0 1 2.381-2.806zm-8.525 38.313a10.637 10.637 0 0 1 10.625-10.626h5.975a10.639 10.639 0 0 1 10.628 10.626v7.856h-27.228z"/><path data-cppathid="10019" d="m115.314 149.932h18.25a2.5 2.5 0 0 0 0-5h-18.25a2.5 2.5 0 0 0 0 5z"/><path data-cppathid="10020" d="m115.314 184.129h18.25a2.5 2.5 0 0 0 0-5h-18.25a2.5 2.5 0 0 0 0 5z"/><path data-cppathid="10021" d="m115.314 167.03h18.25a2.5 2.5 0 0 0 0-5h-18.25a2.5 2.5 0 0 0 0 5z"/><path data-cppathid="10022" d="m152.272 149.932h40.328a2.5 2.5 0 0 0 0-5h-40.328a2.5 2.5 0 0 0 0 5z"/><path data-cppathid="10023" d="m152.272 167.03h18.041a2.5 2.5 0 0 0 0-5h-18.041a2.5 2.5 0 0 0 0 5z"/><path data-cppathid="10024" d="m152.272 184.129h32.328a2.5 2.5 0 0 0 0-5h-32.328a2.5 2.5 0 0 0 0 5z"/></svg>