<?xml version="1.0" encoding="UTF-8"?>
<svg xmlns="http://www.w3.org/2000/svg" onmouseup="{ if(window.parent.document.onmouseup) window.parent.document.onmouseup(arguments[0]);}" width="512" viewBox="0 0 512.002 512.002" height="512" enable-background="new 0 0 512.002 512.002" id="Layer_1"><g><g><path data-cppathid="10000" d="m502.002 442.002h-10v-319.999c0-16.542-13.458-30-30-30h-20.002v-72.003c0-11.028-8.972-20-20-20h-331.998c-11.028 0-20 8.972-20 20v72.004h-20.001c-16.542 0-30 13.458-30 30v319.999h-10.001c-5.523 0-10 4.477-10 10v30c0 16.542 13.458 30 30 30h452.001c16.542 0 30-13.458 30-30v-30c.001-5.524-4.476-10.001-9.999-10.001zm-60.003-289.998s.001 0 0 0h30.001v249.996h-30.001zm.001-40.001h20.001c5.514 0 10 4.486 10 10v10.001h-30.001v-20.001c-.001 0 0 0 0 0zm-401.999 40.001h30.001v249.996h-30.001zm10-40.001h20.001v20.001h-30.001v-10.001c0-5.514 4.486-10 10-10zm-10 329.998v-20.001h170.996c5.523 0 10-4.477 10-10s-4.477-10-10-10h-120.994v-382h331.997v382h-121.003c-5.523 0-10 4.477-10 10s4.477 10 10 10h171.003v20.001h-156c-5.523 0-10 4.477-10 10h-100c0-5.523-4.477-10-10-10h-155.999c0 .001 0 .001 0 0zm452.001 40.001c0 5.514-4.486 10-10 10h-452.002c-5.514 0-10-4.486-10-10v-20h168.685c3.463 5.974 9.928 10 17.316 10h100c7.388 0 13.853-4.026 17.316-10h168.685z"/><path data-cppathid="10001" d="m372 273.191c-8.013 0-15.546 3.121-21.212 8.787l-27.6 27.6-4.69-4.69c-5.666-5.666-13.199-8.786-21.212-8.786s-15.546 3.121-21.211 8.786c-5.666 5.666-8.787 13.199-8.787 21.212s3.121 15.546 8.786 21.212l25.902 25.902c5.848 5.848 13.53 8.772 21.212 8.772s15.364-2.924 21.212-8.772l48.812-48.812c11.696-11.696 11.696-30.727 0-42.424-5.666-5.666-13.199-8.787-21.212-8.787zm7.07 37.068-48.812 48.812c-3.897 3.898-10.241 3.898-14.139 0l-25.902-25.902c-1.889-1.888-2.928-4.399-2.928-7.069 0-2.671 1.04-5.181 2.928-7.069 1.888-1.889 4.399-2.928 7.069-2.928s5.181 1.04 7.069 2.928l11.761 11.761c1.875 1.875 4.419 2.929 7.071 2.929s5.196-1.054 7.071-2.929l34.671-34.671c1.888-1.889 4.399-2.928 7.07-2.928 2.67 0 5.181 1.04 7.069 2.928 3.9 3.897 3.9 10.24.002 14.138z"/><path data-cppathid="10002" d="m140.005 40.001c-16.542 0-30 13.458-30 30s13.458 30 30 30 30-13.458 30-30-13.458-30-30-30zm0 40c-5.514 0-10-4.486-10-10s4.486-10 10-10 10 4.486 10 10-4.486 10-10 10z"/><path data-cppathid="10003" d="m200.005 60.001h191.993c5.523 0 10-4.477 10-10s-4.477-10-10-10h-191.993c-5.523 0-10 4.477-10 10s4.477 10 10 10z"/><path data-cppathid="10004" d="m200.005 100.001h191.993c5.523 0 10-4.477 10-10s-4.477-10-10-10h-191.993c-5.523 0-10 4.477-10 10s4.477 10 10 10z"/><path data-cppathid="10005" d="m140.005 130.003c-16.542 0-30 13.458-30 30s13.458 30 30 30 30-13.458 30-30-13.458-30-30-30zm0 40c-5.514 0-10-4.486-10-10s4.486-10 10-10 10 4.486 10 10-4.486 10-10 10z"/><path data-cppathid="10006" d="m200.005 150.003h191.993c5.523 0 10-4.477 10-10s-4.477-10-10-10h-191.993c-5.523 0-10 4.477-10 10s4.477 10 10 10z"/><path data-cppathid="10007" d="m200.005 190.002h191.993c5.523 0 10-4.477 10-10s-4.477-10-10-10h-191.993c-5.523 0-10 4.477-10 10s4.477 10 10 10z"/><path data-cppathid="10008" d="m140.005 220.004c-16.542 0-30 13.458-30 30s13.458 30 30 30 30-13.458 30-30-13.458-30-30-30zm0 40c-5.514 0-10-4.486-10-10s4.486-10 10-10 10 4.486 10 10-4.486 10-10 10z"/><path data-cppathid="10009" d="m200.005 240.004h191.993c5.523 0 10-4.477 10-10s-4.477-10-10-10h-191.993c-5.523 0-10 4.477-10 10s4.477 10 10 10z"/><path data-cppathid="10010" d="m200.005 280.004h95.997c5.523 0 10-4.477 10-10s-4.477-10-10-10h-95.997c-5.523 0-10 4.477-10 10s4.477 10 10 10z"/><path data-cppathid="10011" d="m140.005 310.005c-16.542 0-30 13.458-30 30s13.458 30 30 30 30-13.458 30-30-13.458-30-30-30zm0 40.001c-5.514 0-10-4.486-10-10s4.486-10 10-10 10 4.486 10 10-4.486 10-10 10z"/><path data-cppathid="10012" d="m200.005 330.006h36.795c5.523 0 10-4.477 10-10s-4.477-10-10-10h-36.794c-5.523 0-10 4.477-10 10s4.476 10 9.999 10z"/><path data-cppathid="10013" d="m246.8 360.005c0-5.523-4.477-10-10-10h-36.794c-5.523 0-10 4.477-10 10s4.477 10 10 10h36.794c5.523 0 10-4.477 10-10z"/><path data-cppathid="10014" d="m256.001 402h-.007c-5.523 0-9.996 4.477-9.996 10s4.48 10 10.003 10 10-4.477 10-10-4.477-10-10-10z"/></g></g></svg>