<?xml version="1.0" encoding="UTF-8"?>
<svg xmlns="http://www.w3.org/2000/svg" onmouseup="{ if(window.parent.document.onmouseup) window.parent.document.onmouseup(arguments[0]);}" width="512" viewBox="0 0 64 64" height="512" id="Business"><path data-cppathid="10000" fill="#42bfff" d="m53 53h-41v-46a4 4 0 0 1 4-4h41l-4 5z"/><path data-cppathid="10001" fill="#2b86bb" d="m49 61h-40a4 4 0 0 1 -4-4v-4h40z"/><path data-cppathid="10002" fill="#42bfff" d="m49 61a4 4 0 0 1 -4-4v-4h8v4a4 4 0 0 1 -4 4z"/><path data-cppathid="10003" fill="#2b86bb" d="m57 3a4 4 0 0 0 -4 4v4h8v-4a4 4 0 0 0 -4-4z"/><path data-cppathid="10004" fill="#ff4b3c" d="m14 25-5 11-2-4h-4l7-9z"/><path data-cppathid="10005" fill="#ff4b3c" d="m14 25 5 11 2-4h4l-7-9z"/><circle data-cppathid="10006" r="9" fill="#ffda44" cy="20" cx="14"/><circle data-cppathid="10007" r="5" fill="#ff4b3c" cy="20" cx="14"/><path data-cppathid="10008" fill="#1a6fb0" d="m28 13h21v2h-21z"/><path data-cppathid="10009" fill="#1a6fb0" d="m28 18h21v2h-21z"/><path data-cppathid="10010" fill="#1a6fb0" d="m28 23h21v2h-21z"/><path data-cppathid="10011" fill="#1a6fb0" d="m28 28h21v2h-21z"/><g fill="#ffddce"><path data-cppathid="10012" d="m39 55h12l2-2h2v-12h-3l-2-2-.645-3.868a2.551 2.551 0 0 0 -4.936-.388l-.419 1.256v3h-5z"/><rect data-cppathid="10013" y="39" x="34" width="7" rx="2" height="4"/><rect data-cppathid="10014" y="43" x="34" width="7" rx="2" height="4"/><rect data-cppathid="10015" y="47" x="34" width="7" rx="2" height="4"/><rect data-cppathid="10016" y="51" x="35" width="7" rx="2" height="4"/></g><path data-cppathid="10017" fill="#ffcbbe" d="m55 40h-2.59l-1.48-1.48-.59-3.55a3.549 3.549 0 0 0 -6.87-.54l-.42 1.25a1.185 1.185 0 0 0 -.05.32v2h-7a3.009 3.009 0 0 0 -3 3 2.974 2.974 0 0 0 .78 2 2.954 2.954 0 0 0 0 4 2.973 2.973 0 0 0 .62 4.53 2.942 2.942 0 0 0 -.4 1.47 3.009 3.009 0 0 0 3 3h14a1.033 1.033 0 0 0 .71-.29l1.7-1.71h1.59a1 1 0 0 0 1-1v-12a1 1 0 0 0 -1-1zm-19 0h3a1 1 0 0 1 0 2h-3a1 1 0 0 1 0-2zm0 4h3a1 1 0 0 1 0 2h-3a1 1 0 0 1 0-2zm-1 5a1 1 0 0 1 1-1h3a1 1 0 0 1 0 2h-3a1 1 0 0 1 -1-1zm5 5h-3a1 1 0 0 1 0-2h3a1 1 0 0 1 0 2zm14-2h-1a1.033 1.033 0 0 0 -.71.29l-1.7 1.71h-7.77a2.957 2.957 0 0 0 -1.22-3.53 2.942 2.942 0 0 0 .4-1.47 2.974 2.974 0 0 0 -.78-2 2.954 2.954 0 0 0 0-4 2.974 2.974 0 0 0 .78-2 3 3 0 0 0 -.18-1h1.18v3.74a5.019 5.019 0 0 0 2.43 4.28l3.06 1.84 1.02-1.72-3.05-1.83a3.022 3.022 0 0 1 -1.46-2.57v-7.58l.37-1.1a1.55 1.55 0 0 1 3 .24l.64 3.86a1.113 1.113 0 0 0 .28.55l2 2a1.033 1.033 0 0 0 .71.29h2z"/><path data-cppathid="10018" transform="matrix(-1 0 0 -1 115 94)" fill="#244c54" d="m54 39h7v16h-7z"/></svg>