<?xml version="1.0" encoding="UTF-8"?>
<svg xmlns="http://www.w3.org/2000/svg" onmouseup="{ if(window.parent.document.onmouseup) window.parent.document.onmouseup(arguments[0]);}" width="512" viewBox="0 0 64 64" height="512" enable-background="new 0 0 64 64" id="Layer_5"><g><g><g><path data-cppathid="10000" fill="#ff826e" d="m50 6h-36c-1.1 0-2 .9-2 2v6h40v-6c0-1.1-.9-2-2-2z"/></g><g><path data-cppathid="10001" fill="#aab2bd" d="m48 6v3c0 .55-.45 1-1 1h-2c-.55 0-1-.45-1-1v-3-3c0-.55.45-1 1-1h2c.55 0 1 .45 1 1z"/></g><g><path data-cppathid="10002" fill="#aab2bd" d="m40 6v3c0 .55-.45 1-1 1h-2c-.55 0-1-.45-1-1v-3-3c0-.55.45-1 1-1h2c.55 0 1 .45 1 1z"/></g><g><path data-cppathid="10003" fill="#aab2bd" d="m28 6v3c0 .55-.45 1-1 1h-2c-.55 0-1-.45-1-1v-3-3c0-.55.45-1 1-1h2c.55 0 1 .45 1 1z"/></g><g><path data-cppathid="10004" fill="#aab2bd" d="m20 6v3c0 .55-.45 1-1 1h-2c-.55 0-1-.45-1-1v-3-3c0-.55.45-1 1-1h2c.55 0 1 .45 1 1z"/></g><g><path data-cppathid="10005" fill="#ccd1d9" d="m52 14v18h-4v-14h-32v8.07c-1.17-.68-2.54-1.07-4-1.07v-11z"/></g><g><path data-cppathid="10006" fill="#e6e9ed" d="m18 41h-6c4.42 0 8-3.58 8-8 0-2.96-1.61-5.55-4-6.93v-8.07h32v14h-2-4-2c-1.1 0-2 .9-2 2v4h-2.9c-1.36 0-2.68.46-3.74 1.31l-3.36 2.69-.24.05c-.34-.62-1-1.05-1.76-1.05h-4z"/></g><g><path data-cppathid="10007" fill="#b4dd7f" d="m28 43v10c0 .34-.09.67-.24.95-.34.62-1 1.05-1.76 1.05h-4v-14h4c.76 0 1.42.43 1.76 1.05.15.28.24.61.24.95z"/></g><g><path data-cppathid="10008" fill="#b4dd7f" d="m18 41v14h-16v-14h10z"/></g><g><path data-cppathid="10009" fill="#a0d468" d="m18 41h4v14h-4z"/></g><g><path data-cppathid="10010" fill="#aab2bd" d="m56 62h-10v-20.76l-.01-.01c.05-.03.09-.07.13-.11.54-.54.88-1.29.88-2.12 0-.55-.45-1-1-1v-6h2 4 4c1.1 0 2 .9 2 2v8 4 4 4 4 2c0 1.1-.9 2-2 2z"/></g><g><path data-cppathid="10011" fill="#aab2bd" d="m38 58v-15l1-1h3v20h-2c-1.1 0-2-.9-2-2z"/></g><g><path data-cppathid="10012" fill="#aab2bd" d="m42 32v6h-4v-4c0-1.1.9-2 2-2z"/></g><g><path data-cppathid="10013" fill="#f0d0b4" d="m60 42c1.1 0 2 .9 2 2 0 .55-.22 1.05-.59 1.41-.36.37-.86.59-1.41.59h-2v-4z"/></g><g><path data-cppathid="10014" fill="#f0d0b4" d="m60 46c1.1 0 2 .9 2 2 0 .55-.22 1.05-.59 1.41-.36.37-.86.59-1.41.59h-2v-4z"/></g><g><path data-cppathid="10015" fill="#f0d0b4" d="m60 50c1.1 0 2 .9 2 2 0 .55-.22 1.05-.59 1.41-.36.37-.86.59-1.41.59h-2v-4z"/></g><g><path data-cppathid="10016" fill="#f0d0b4" d="m60 54c1.1 0 2 .9 2 2 0 .55-.22 1.05-.59 1.41-.36.37-.86.59-1.41.59h-2v-4z"/></g><g><path data-cppathid="10017" fill="#f0d0b4" d="m38 43v15h-2.9c-1.36 0-2.68-.46-3.74-1.31l-3.36-2.69-.24-.05c.15-.28.24-.61.24-.95v-10c0-.34-.09-.67-.24-.95l.24-.05 3.36-2.69c1.06-.85 2.38-1.31 3.74-1.31h2.9 4 4c.55 0 1 .45 1 1 0 .83-.34 1.58-.88 2.12-.04.04-.08.08-.13.11-.53.48-1.22.77-1.99.77h-2-3z"/></g><g><path data-cppathid="10018" fill="#fcd770" d="m46 41.24v20.76h-4v-20h2c.77 0 1.46-.29 1.99-.77z"/></g><g><path data-cppathid="10019" fill="#fcd770" d="m42 32h4v6h-4z"/></g><g><circle data-cppathid="10020" r="2" fill="#fcd770" cy="38" cx="52"/></g><g><path data-cppathid="10021" fill="#ff826e" d="m16 26.07c2.39 1.38 4 3.97 4 6.93 0 4.42-3.58 8-8 8s-8-3.58-8-8 3.58-8 8-8c1.46 0 2.83.39 4 1.07z"/></g></g><g><path data-cppathid="10022" d="m62.22 46c.48-.532.78-1.229.78-2 0-1.654-1.346-3-3-3h-1v-7c0-1.654-1.346-3-3-3h-3v-23c0-1.654-1.346-3-3-3h-1v-2c0-1.103-.897-2-2-2h-2c-1.103 0-2 .897-2 2v2h-2v-2c0-1.103-.897-2-2-2h-2c-1.103 0-2 .897-2 2v2h-6v-2c0-1.103-.897-2-2-2h-2c-1.103 0-2 .897-2 2v2h-2v-2c0-1.103-.897-2-2-2h-2c-1.103 0-2 .897-2 2v2h-1c-1.654 0-3 1.346-3 3v16.059c-4.493.5-8 4.317-8 8.941 0 2.826 1.312 5.349 3.356 7h-5.356v16h25c.754 0 1.435-.289 1.963-.75l2.769 2.215c1.236.99 2.789 1.535 4.372 1.535h1.896v1c0 1.654 1.346 3 3 3h16c1.654 0 3-1.346 3-3v-1h1c1.654 0 3-1.346 3-3 0-.771-.301-1.468-.78-2 .48-.532.78-1.229.78-2s-.301-1.468-.78-2c.48-.532.78-1.229.78-2s-.301-1.468-.78-2zm-17.22-43h2l.001 6h-2.001zm-8 0h2l.001 6h-2.001zm-12 0h2l.001 6h-2.001zm-8 0h2l.001 6h-2.001zm-4 5c0-.551.449-1 1-1h1v2c0 1.103.897 2 2 2h2c1.103 0 2-.897 2-2v-2h2v2c0 1.103.897 2 2 2h2c1.103 0 2-.897 2-2v-2h6v2c0 1.103.897 2 2 2h2c1.103 0 2-.897 2-2v-2h2v2c0 1.103.897 2 2 2h2c1.103 0 2-.897 2-2v-2h1c.551 0 1 .449 1 1v5h-38zm0 7h38v16h-2v-14h-34v7.525c-.638-.227-1.306-.389-2-.466zm28 16v-12h6v12zm4 2v4h-2v-4zm-6 1c0-.551.449-1 1-1h1v4h-2zm-2 0v3h-1.896c-.718 0-1.426.126-2.104.341v-18.341h6v12.184c-1.161.414-2 1.514-2 2.816zm-32-1c0-3.86 3.14-7 7-7s7 3.14 7 7-3.14 7-7 7-7-3.14-7-7zm12 21h-14v-12h14zm4-21c0-3.113-1.59-5.861-4-7.478v-6.522h6v21h-5.356c2.044-1.651 3.356-4.174 3.356-7zm0 21h-2v-12h2zm6-1c0 .551-.449 1-1 1h-3v-12h3c.551 0 1 .449 1 1zm-1-13h-1v-21h6v19.355c-.087.063-.184.112-.268.179l-2.769 2.215c-.528-.46-1.209-.749-1.963-.749zm15 21h-1c-.551 0-1-.449-1-1v-1-2-13.586l.414-.414h1.586zm4 0h-2v-18h1c.347 0 .678-.058 1-.142zm-1-20h-5.414l-1.536 1.536c-.944.944-2.2 1.464-3.535 1.464h-.515v2h.515c1.244 0 2.436-.329 3.485-.934v11.934h-1.896c-1.131 0-2.24-.389-3.124-1.096l-3.03-2.424c.027-.157.05-.315.05-.48v-10c0-.165-.023-.323-.049-.481l3.03-2.424c.884-.706 1.993-1.095 3.123-1.095h10.896c0 1.103-.897 2-2 2zm13 19c0 .551-.449 1-1 1h-9v-19.382c.615-.703 1-1.612 1-2.618 0-.737-.405-1.375-1-1.722v-4.278h9c.551 0 1 .449 1 1zm3-3h-1v-2h1c.551 0 1 .449 1 1s-.449 1-1 1zm0-4h-1v-2h1c.551 0 1 .449 1 1s-.449 1-1 1zm0-4h-1v-2h1c.551 0 1 .449 1 1s-.449 1-1 1zm0-4h-1v-2h1c.551 0 1 .449 1 1s-.449 1-1 1z"/><path data-cppathid="10023" d="m52 35c-1.654 0-3 1.346-3 3s1.346 3 3 3 3-1.346 3-3-1.346-3-3-3zm0 4c-.551 0-1-.449-1-1s.449-1 1-1 1 .449 1 1-.449 1-1 1z"/><path data-cppathid="10024" d="m53 53h2v6h-2z"/><path data-cppathid="10025" d="m49 53h2v6h-2z"/><path data-cppathid="10026" d="m16.707 30.707-1.414-1.414-5.293 5.293-1.293-1.293-1.414 1.414 2.707 2.707z"/></g></g></svg>