<?xml version="1.0" encoding="UTF-8"?>
<svg xmlns="http://www.w3.org/2000/svg" onmouseup="{ if(window.parent.document.onmouseup) window.parent.document.onmouseup(arguments[0]);}" width="512" viewBox="0 0 64 64" height="512"><g id="advisor"><path data-cppathid="10000" fill="#ffdaaa" d="m55 49h6v12h-6z"/><path data-cppathid="10001" fill="#57a4ff" d="m61 38v11h-6v12h-20a2.006 2.006 0 0 1 -2-2v-7l-14-21h6l8 10v-3a8.012 8.012 0 0 1 7-8h14a8.012 8.012 0 0 1 7 8z"/><path data-cppathid="10002" fill="#2488ff" d="m61 38v11h-6v12h-20a2.006 2.006 0 0 1 -2-2v-1h8a12 12 0 0 0 12-12v-11a8.092 8.092 0 0 0 -1.72-5h2.72a8.012 8.012 0 0 1 7 8z"/><path data-cppathid="10003" fill="#c0ab91" d="m56 18v1a1 1 0 0 1 -1 1h-2v-3h2a1 1 0 0 1 1 1z"/><path data-cppathid="10004" fill="#c0ab91" d="m56 13v1l-3 3v-3l-4-2-8 2v3l-3-3v-1a6 6 0 0 1 6-6h6a6 6 0 0 1 6 6z"/><path data-cppathid="10005" fill="#b39a7c" d="m56 13v1l-3 3v-2l1-1v-1a6 6 0 0 0 -6-6h2a6 6 0 0 1 6 6z"/><path data-cppathid="10006" fill="#00d7df" d="m54 30-5 7h-4l-5-7 3-1 1 1 3 3 3-3 1-1z"/><path data-cppathid="10007" fill="#ffdaaa" d="m53 17v3a6 6 0 1 1 -12 0v-6l8-2 4 2z"/><path data-cppathid="10008" fill="#ffc477" d="m53 14v6a5.994 5.994 0 0 1 -6 6 5.47 5.47 0 0 1 -1-.09 5.869 5.869 0 0 0 1.26-.35 6.009 6.009 0 0 0 3.74-5.56v-6l-3.33-1.67 1.33-.33z"/><path data-cppathid="10009" fill="#00d7df" d="m49.67 41 1.33 8-4 4-4-4 1.33-8z"/><path data-cppathid="10010" fill="#ffdaaa" d="m49.26 25.56.74 4.44-3 3-3-3 .74-4.44a6.024 6.024 0 0 0 4.52 0z"/><path data-cppathid="10011" fill="#e0e0e2" d="m49 37 .67 4h-5.34l.67-4z"/><path data-cppathid="10012" fill="#c0ab91" d="m41 17v3h-2a1 1 0 0 1 -1-1v-1a1 1 0 0 1 1-1z"/><rect data-cppathid="10013" y="3" x="3" width="28" rx="2" height="20" fill="#00d7df"/><path data-cppathid="10014" fill="#00b6bd" d="m31 5v16a2.006 2.006 0 0 1 -2 2h-24a2.006 2.006 0 0 1 -2-2v-2h17.25a6.773 6.773 0 0 0 6.75-6.75v-9.25h2a2.006 2.006 0 0 1 2 2z"/><path data-cppathid="10015" fill="#ffdaaa" d="m25 31h-10a3.995 3.995 0 0 1 -4-4h10a3.995 3.995 0 0 1 4 4z"/><path data-cppathid="10016" fill="#ffc477" d="m25 31h-10a3.995 3.995 0 0 1 -4-4h.54a4.225 4.225 0 0 0 .63.83 4.025 4.025 0 0 0 2.83 1.17h9.46a3.989 3.989 0 0 1 .54 2z"/><path data-cppathid="10017" fill="#c0ab91" d="m19 55-1.98.49 1.05 1.75-2.83 2.83-1.75-1.05-.49 1.98h-4l-.49-1.98-1.75 1.05-2.83-2.83 1.05-1.75-1.98-.49v-4l1.98-.49-1.05-1.75 2.83-2.83 1.75 1.05.49-1.98h4l.49 1.98 1.75-1.05 2.83 2.83-1.05 1.75 1.98.49z"/><path data-cppathid="10018" fill="#b39a7c" d="m19 55-1.98.49 1.05 1.75-2.83 2.83-1.75-1.05-.49 1.98h-4l-.49-1.98-1.75 1.05-2.83-2.83.14-.24h6.93a4 4 0 0 0 4-4v-6.93l.24-.14 2.83 2.83-1.05 1.75 1.98.49z"/><circle data-cppathid="10019" r="3" fill="#ffde55" cy="53" cx="11"/><path data-cppathid="10020" fill="#ffcd00" d="m14 53a3 3 0 0 1 -5.87.87 3.1 3.1 0 0 0 .87.13 3 3 0 0 0 3-3 3.1 3.1 0 0 0 -.13-.87 2.982 2.982 0 0 1 2.13 2.87z"/><path data-cppathid="10021" fill="#ffc477" d="m50 30-3 3-1-1 2-2-.67-4.02a5.893 5.893 0 0 0 1.93-.42z"/><path data-cppathid="10022" fill="#ffc477" d="m59 49h2v12h-2z"/><path data-cppathid="10023" fill="#acabb1" d="m49.67 41 1.33 8-4 4-1-1 3-3-1.33-8-.67-4 5-7-1.5-.5.5-.5 3 1-5 7z"/><path data-cppathid="10024" fill="#00b6bd" d="m51 49-4 4-1-1 3-3-1.33-8h2z"/><path data-cppathid="10025" fill="#00b6bd" d="m54 30-5 7h-2l5-7-1.5-.5.5-.5z"/><path data-cppathid="10026" d="m54.25 29.03-2.93-.98a.97.97 0 0 0 -.63.01l-.32-1.93a7.023 7.023 0 0 0 3.55-5.13h1.08a2.006 2.006 0 0 0 2-2v-1a2 2 0 0 0 -1.62-1.96l1.33-1.33a1.033 1.033 0 0 0 .29-.71v-1a7.008 7.008 0 0 0 -7-7h-6a7.008 7.008 0 0 0 -7 7v1a1.033 1.033 0 0 0 .29.71l1.33 1.33a2 2 0 0 0 -1.62 1.96v1a2.006 2.006 0 0 0 2 2h1.08a7.023 7.023 0 0 0 3.55 5.13l-.32 1.93a.97.97 0 0 0 -.63-.01l-2.93.98a9 9 0 0 0 -7.75 8.97v.15l-6.04-7.55a4.99 4.99 0 0 0 -4.96-4.6h-10a1 1 0 0 0 -1 1 5 5 0 0 0 5 5h3.46l13.54 20.3v6.7a3.009 3.009 0 0 0 3 3h26a1 1 0 0 0 1-1v-23a9 9 0 0 0 -7.75-8.97zm.75-10.03h-1v-1h1zm-15 0h-1v-1h1zm0-5v.59l-1-1v-.59a5 5 0 0 1 5-5h6a5 5 0 0 1 5 5v.59l-1 1v-.59a.977.977 0 0 0 -.55-.89l-4-2a.978.978 0 0 0 -.69-.08l-8 2a1 1 0 0 0 -.76.97zm2 6v-5.22l6.88-1.72 3.12 1.56v5.38a5 5 0 0 1 -10 0zm6.93 9.66-1.93 1.93-1.93-1.93.47-2.82a6.741 6.741 0 0 0 2.92 0zm-6.2.48 3.56 3.57a1.008 1.008 0 0 0 1.42 0l3.56-3.57 1.13.38-3.91 5.48h-2.98l-3.91-5.48zm6.09 11.86 1.11 6.66-2.93 2.93-2.93-2.93 1.11-6.66zm-3.31-2 .34-2h2.3l.34 2zm-30.51-10a3.014 3.014 0 0 1 -2.83-2h8.83a3.014 3.014 0 0 1 2.83 2zm45 30h-4v-10h4zm0-12h-5a1 1 0 0 0 -1 1v11h-19a1 1 0 0 1 -1-1v-7a.967.967 0 0 0 -.17-.55l-12.96-19.45h3.65l7.7 9.62a.983.983 0 0 0 1.11.32 1 1 0 0 0 .67-.94v-3a7.015 7.015 0 0 1 5.55-6.91l4.4 6.15-1.94 11.6a1.011 1.011 0 0 0 .28.87l4 4a1.014 1.014 0 0 0 1.42 0l4-4a1.011 1.011 0 0 0 .28-.87l-1.94-11.6 4.4-6.15a7.015 7.015 0 0 1 5.55 6.91z"/><path data-cppathid="10027" d="m5 24h24a3 3 0 0 0 3-3v-16a3 3 0 0 0 -3-3h-24a3 3 0 0 0 -3 3v16a3 3 0 0 0 3 3zm-1-19a1 1 0 0 1 1-1h24a1 1 0 0 1 1 1v16a1 1 0 0 1 -1 1h-24a1 1 0 0 1 -1-1z"/><path data-cppathid="10028" d="m6 6h2v2h-2z"/><path data-cppathid="10029" d="m10 6h18v2h-18z"/><path data-cppathid="10030" d="m6 14h22v2h-22z"/><path data-cppathid="10031" d="m6 10h22v2h-22z"/><path data-cppathid="10032" d="m6 18h22v2h-22z"/><path data-cppathid="10033" d="m11 49a4 4 0 1 0 4 4 4 4 0 0 0 -4-4zm0 6a2 2 0 1 1 2-2 2 2 0 0 1 -2 2z"/><path data-cppathid="10034" d="m19.243 50.03-.669-.167.355-.591a1 1 0 0 0 -.151-1.222l-2.828-2.828a1 1 0 0 0 -1.222-.151l-.591.355-.167-.669a1 1 0 0 0 -.97-.757h-4a1 1 0 0 0 -.97.757l-.167.669-.591-.355a1 1 0 0 0 -1.222.151l-2.828 2.828a1 1 0 0 0 -.151 1.222l.355.591-.669.167a1 1 0 0 0 -.757.97v4a1 1 0 0 0 .757.97l.669.167-.355.591a1 1 0 0 0 .151 1.222l2.828 2.828a1 1 0 0 0 1.222.151l.591-.355.167.669a1 1 0 0 0 .97.757h4a1 1 0 0 0 .97-.757l.167-.669.591.355a1 1 0 0 0 1.222-.151l2.828-2.828a1 1 0 0 0 .151-1.222l-.355-.591.669-.167a1 1 0 0 0 .757-.97v-4a1 1 0 0 0 -.757-.97zm-1.243 4.189-1.221.3a1 1 0 0 0 -.614 1.485l.647 1.079-1.724 1.724-1.079-.647a1 1 0 0 0 -1.485.614l-.305 1.226h-2.438l-.3-1.221a1 1 0 0 0 -1.485-.614l-1.079.647-1.729-1.724.647-1.079a1 1 0 0 0 -.614-1.485l-1.221-.305v-2.438l1.221-.3a1 1 0 0 0 .614-1.485l-.647-1.079 1.724-1.724 1.079.647a1 1 0 0 0 1.485-.615l.3-1.22h2.438l.3 1.22a1 1 0 0 0 1.485.615l1.079-.647 1.724 1.724-.647 1.079a1 1 0 0 0 .614 1.485l1.221.3z"/><path data-cppathid="10035" d="m10 40h2v2h-2z"/><path data-cppathid="10036" d="m10 33h2v5h-2z"/><path data-cppathid="10037" d="m22 52h2v2h-2z"/><path data-cppathid="10038" d="m26 52h4v2h-4z"/></g></svg>