<?xml version="1.0" encoding="UTF-8"?>
<svg xmlns="http://www.w3.org/2000/svg" onmouseup="{ if(window.parent.document.onmouseup) window.parent.document.onmouseup(arguments[0]);}" width="512" viewBox="0 0 512 512" height="512" enable-background="new 0 0 512 512" id="Layer_1"><g><path data-cppathid="10000" fill="#fff" d="m48.8 148.9c-10.2 0-18.6 8.3-18.6 18.6v295.8c0 10.2 8.3 18.6 18.6 18.6h414.4c10.2 0 18.6-8.3 18.6-18.6v-295.9c0-10.2-8.3-18.6-18.6-18.6h-117.8v22.2c0 7.8-6.3 14.1-14.1 14.1h-150.6c-7.8 0-14.1-6.3-14.1-14.1v-22.1z"/><path data-cppathid="10001" fill="#56ace0" d="m58.4 191.2v248.3c0 7.8 6.3 14.1 14.1 14.1h366.9c7.8 0 14.1-6.3 14.1-14.1v-248.3c0-7.8-6.3-14.1-14.1-14.1h-95.5c-2.3 4.7-7.1 8-12.7 8h-150.5c-5.6 0-10.4-3.3-12.7-8h-95.4c-7.8 0-14.2 6.3-14.2 14.1z"/><path data-cppathid="10002" fill="#ffc10d" d="m159.7 363.3c-26.7 0-49.2 17.5-56.7 41.9h113.3c-7.4-24.4-30-41.9-56.6-41.9z"/><path data-cppathid="10003" fill="#194f82" d="m159.7 335.1c-46.9 0-85.3 36.7-87.4 83.6 0 7 5.9 14.7 14.1 14.7h146.6c9.3 0 13.8-6.5 14.1-14.7-2.1-46.9-40.5-83.6-87.4-83.6zm-56.7 70.1c7.4-24.4 30-41.9 56.7-41.9 26.6 0 49.2 17.5 56.7 41.9z"/><path data-cppathid="10004" fill="#ffc10d" d="m159.7 251.5c-12.1 0-21.9 9.8-21.9 21.9s9.8 21.9 21.9 21.9 21.9-9.8 21.9-21.9-9.9-21.9-21.9-21.9z"/><path data-cppathid="10005" fill="#194f82" d="m159.7 223.3c-27.6 0-50.1 22.5-50.1 50.1s22.5 50.1 50.1 50.1 50.1-22.5 50.1-50.1-22.5-50.1-50.1-50.1zm0 71.9c-12.1 0-21.9-9.8-21.9-21.9s9.8-21.9 21.9-21.9 21.9 9.8 21.9 21.9-9.9 21.9-21.9 21.9z"/><path data-cppathid="10006" fill="#ffc10d" d="m194.8 112.6h122.3v44.2h-122.3z"/><path data-cppathid="10007" fill="#ffc10d" d="m231.8 30.2h48.3v54.2h-48.3z"/><g fill="#194f82"><path data-cppathid="10008" d="m425.5 237.3h-144.2c-7.8 0-14.1 6.3-14.1 14.1s6.3 14.1 14.1 14.1h144.2c7.8 0 14.1-6.3 14.1-14.1s-6.3-14.1-14.1-14.1z"/><path data-cppathid="10009" d="m425.5 319.5h-144.2c-7.8 0-14.1 6.3-14.1 14.1s6.3 14.1 14.1 14.1h144.2c7.8 0 14.1-6.3 14.1-14.1s-6.3-14.1-14.1-14.1z"/><path data-cppathid="10010" d="m425.5 401.6h-144.2c-7.8 0-14.1 6.3-14.1 14.1s6.3 14.1 14.1 14.1h144.2c7.8 0 14.1-6.3 14.1-14.1 0-7.7-6.3-14.1-14.1-14.1z"/><path data-cppathid="10011" d="m463.2 120.6h-117.8v-22.1c0-7.8-6.3-14.1-14.1-14.1h-22.9v-68.3c0-7.8-6.3-14.1-14.1-14.1h-76.5c-7.8 0-14.1 6.3-14.1 14.1v68.3h-22.9c-7.8 0-14.1 6.3-14.1 14.1v22.1h-117.9c-25.8 0-46.8 21-46.8 46.8v295.8c0 25.8 21 46.8 46.8 46.8h414.4c25.8 0 46.8-21 46.8-46.8v-295.8c0-25.8-21-46.8-46.8-46.8zm-231.4-90.4h48.3v54.2h-48.3zm-37 82.4h122.3v44.2h-122.3zm287 350.6c0 10.2-8.3 18.6-18.6 18.6h-414.4c-10.2 0-18.6-8.3-18.6-18.6v-295.8c0-10.2 8.3-18.6 18.6-18.6h117.8v22.2c0 7.8 6.3 14.1 14.1 14.1h150.6c7.8 0 14.1-6.3 14.1-14.1v-22.1h117.8c10.2 0 18.6 8.3 18.6 18.6z"/></g></g></svg>