<?xml version="1.0" encoding="UTF-8"?>
<svg xmlns="http://www.w3.org/2000/svg" onmouseup="{ if(window.parent.document.onmouseup) window.parent.document.onmouseup(arguments[0]);}" xml:space="preserve" style="enable-background:new 0 0 512 512;" viewBox="0 0 512 512" y="0px" x="0px" id="Capa_1" version="1.1" xmlns:xlink="http://www.w3.org/1999/xlink"><rect data-cppathid="10000" height="15.004" width="22.505" style="fill:#B2B2B2;" y="354.457" x="390.095"/><rect data-cppathid="10001" height="159.539" width="142.535" style="fill:#94A5A6;" y="7.502" x="7.502"/><polyline data-cppathid="10002" points="7.502,167.041 7.502,7.502 150.037,7.502 " style="fill:#566573;"/><rect data-cppathid="10003" height="48.762" width="82.52" style="fill:#F8BF3B;" y="90.022" x="37.509"/><rect data-cppathid="10004" height="48.762" width="41.26" style="fill:#FBD989;" y="90.022" x="37.509"/><polyline data-cppathid="10005" points="365.714,436.982 390.095,436.982 390.095,286.945 75.018,286.945 75.018,309.451 " style="fill:#38D6C7;"/><polyline data-cppathid="10006" points="343.209,459.487 367.59,459.487 367.59,309.451 52.513,309.451 52.513,331.956 " style="fill:#95D122;"/><polyline data-cppathid="10007" points="320.703,481.993 345.084,481.993 345.084,331.956 30.007,331.956 30.007,354.462 " style="fill:#38D6C7;"/><rect data-cppathid="10008" height="15.004" width="15.004" style="fill:#DADADA;" y="354.457" x="427.604"/><g><path data-cppathid="10009" d="M483.868,369.465h-26.256v-15.004h26.256c6.205,0,11.253-5.048,11.253-11.253   c0-6.204-5.048-11.253-11.253-11.253h-71.267v-15.004h71.267c14.478,0,26.256,11.779,26.256,26.256   S498.346,369.465,483.868,369.465z" style="fill:#B2B2B2;"/><path data-cppathid="10010" d="M45.011,294.447H26.256C11.779,294.447,0,282.668,0,268.19s11.779-26.256,26.256-26.256h270.066   c6.205,0,11.253-5.048,11.253-11.253s-5.048-11.253-11.253-11.253h-46.886c-14.478,0-26.256-11.779-26.256-26.256   c0-14.478,11.779-26.256,26.256-26.256h20.63v15.004h-20.63c-6.205,0-11.253,5.048-11.253,11.253   c0,6.205,5.048,11.253,11.253,11.253h46.886c14.478,0,26.256,11.779,26.256,26.256c0,14.478-11.779,26.256-26.256,26.256H26.256   c-6.205,0-11.253,5.048-11.253,11.253s5.048,11.253,11.253,11.253h18.755V294.447z" style="fill:#B2B2B2;"/></g><path data-cppathid="10011" d="M112.527,84.521V65.766c0-18.615-15.144-33.758-33.758-33.758S45.011,47.152,45.011,65.766v18.755H30.007v60.015h97.524  V84.521H112.527z M60.015,65.766c0-10.342,8.413-18.755,18.755-18.755s18.755,8.413,18.755,18.755v18.755H60.015V65.766z   M112.527,129.532H45.011V99.524h67.516V129.532z"/><rect data-cppathid="10012" height="15.004" width="15.004" y="107.026" x="71.267"/><rect data-cppathid="10013" height="15.004" width="15.004" style="fill:#DADADA;" y="76.894" x="187.546"/><rect data-cppathid="10014" height="15.004" width="20.63" style="fill:#B2B2B2;" y="76.894" x="151.907"/><rect data-cppathid="10015" height="15.004" width="15.004" style="fill:#DADADA;" y="166.911" x="285.07"/><g><path data-cppathid="10016" d="M384.469,181.919h-69.392v-15.004h69.392c8.273,0,15.004-6.731,15.004-15.004   c0-16.546,13.461-30.007,30.007-30.007h52.513c8.273,0,15.004-6.731,15.004-15.004s-6.731-15.004-15.004-15.004h-264.44V76.894   h264.44c16.546,0,30.007,13.461,30.007,30.007s-13.461,30.007-30.007,30.007H429.48c-8.273,0-15.004,6.731-15.004,15.004   C414.476,168.458,401.015,181.919,384.469,181.919z" style="fill:#B2B2B2;"/><rect data-cppathid="10017" height="15.004" width="60.015" style="fill:#B2B2B2;" y="31.883" x="157.538"/><rect data-cppathid="10018" height="15.004" width="82.52" style="fill:#B2B2B2;" y="31.883" x="262.564"/><polygon data-cppathid="10019" points="415.814,11.367 405.637,22.391 415.92,31.883 360.088,31.883 360.088,46.886    416.996,46.886 407.296,56.586 417.905,67.194 445.932,39.169  " style="fill:#B2B2B2;"/></g><rect data-cppathid="10020" height="15.004" width="15.004" style="fill:#DADADA;" y="31.883" x="232.557"/><path data-cppathid="10021" d="M157.538,174.543H0V0h157.538V174.543z M15.004,159.539h127.531V15.004H15.004V159.539z"/><rect data-cppathid="10022" height="150.037" width="315.077" style="fill:#95D122;" y="354.457" x="7.502"/><polyline data-cppathid="10023" points="217.553,481.993 277.568,481.993 277.568,459.487 300.073,459.487 300.073,399.473   277.568,399.473 277.568,376.967 215.678,376.967 114.403,376.967 52.513,376.967 52.513,399.473 30.007,399.473 30.007,459.487   52.513,459.487 52.513,481.993 112.527,481.993 " style="fill:#FFFFFF;"/><circle data-cppathid="10024" r="73.138" cy="429.475" cx="165.04" style="fill:#38D6C7;"/><g><circle data-cppathid="10025" r="52.513" cy="429.475" cx="165.04" style="fill:#FFFFFF;"/><rect data-cppathid="10026" height="15.004" width="15.004" style="fill:#FFFFFF;" y="369.46" x="22.505"/><rect data-cppathid="10027" height="15.004" width="15.004" style="fill:#FFFFFF;" y="474.486" x="22.505"/><rect data-cppathid="10028" height="15.004" width="15.004" style="fill:#FFFFFF;" y="369.46" x="292.571"/></g><path data-cppathid="10029" d="M397.597,279.443H67.516v22.505H45.011v22.505H22.505v22.505H0V512h330.081v-22.505h22.505v-22.505h22.505v-22.505h22.506  V279.443z M15.004,361.963h106.013c-3.448,2.256-6.718,4.76-9.773,7.502H45.011v22.506H22.505v75.018h22.505v22.505h66.232  c3.056,2.742,6.326,5.246,9.773,7.502H15.004V361.963z M292.571,406.974v45.011h-22.505v22.505h-38.142  c8.685-12.864,13.761-28.356,13.761-45.011c0-16.655-5.076-32.147-13.761-45.011h38.142v22.505H292.571z M230.681,429.48  c0,36.195-29.446,65.641-65.641,65.641s-65.641-29.446-65.641-65.641s29.446-65.641,65.641-65.641S230.681,393.285,230.681,429.48z   M37.509,451.985v-45.011h22.505v-22.505h38.142c-8.685,12.864-13.761,28.356-13.761,45.011c0,16.655,5.076,32.147,13.761,45.011  H60.015v-22.505H37.509z M315.077,496.996H209.064c3.448-2.256,6.718-4.76,9.773-7.502h66.232v-22.505h22.505v-75.018H285.07  v-22.506h-66.232c-3.056-2.742-6.326-5.246-9.773-7.502h106.013V496.996z M337.582,474.491h-7.502V346.96H37.509v-7.502h300.073  V474.491z M360.088,451.985h-7.502V324.454H60.015v-7.502h300.073V451.985z M382.593,429.48h-7.502V301.949H82.52v-7.502h300.073  V429.48z"/><path data-cppathid="10030" d="M165.04,369.465c-33.092,0-60.015,26.923-60.015,60.015s26.923,60.015,60.015,60.015s60.015-26.923,60.015-60.015  S198.132,369.465,165.04,369.465z M165.04,474.491c-24.819,0-45.011-20.192-45.011-45.011c0-24.819,20.192-45.011,45.011-45.011  s45.011,20.192,45.011,45.011C210.051,454.299,189.859,474.491,165.04,474.491z"/><rect data-cppathid="10031" height="15.004" width="15.004" style="fill:#FFFFFF;" y="474.486" x="292.571"/><path data-cppathid="10032" d="M176.293,421.978h-3.751v-7.502h22.506c0-8.273-6.731-15.004-15.004-15.004h-7.502v-7.502h-15.004v7.502h-3.751  c-10.342,0-18.755,8.413-18.755,18.755c0,10.341,8.413,18.755,18.755,18.755h3.751v7.502h-22.505  c0,8.273,6.731,15.004,15.004,15.004h7.502v7.502h15.004v-7.502h3.751c10.342,0,18.755-8.413,18.755-18.755  C195.048,430.391,186.635,421.978,176.293,421.978z M153.788,421.978c-2.068,0-3.751-1.682-3.751-3.751  c0-2.069,1.682-3.751,3.751-3.751h3.751v7.502H153.788z M176.293,444.484h-3.751v-7.502h3.751c2.068,0,3.751,1.682,3.751,3.751  C180.044,442.801,178.362,444.484,176.293,444.484z"/><g/><g/><g/><g/><g/><g/><g/><g/><g/><g/><g/><g/><g/><g/><g/></svg>