<?xml version="1.0" encoding="UTF-8"?>
<svg xmlns="http://www.w3.org/2000/svg" onmouseup="{ if(window.parent.document.onmouseup) window.parent.document.onmouseup(arguments[0]);}" width="512" viewBox="0 0 64 64" height="512" enable-background="new 0 0 64 64" id="Layer_5"><g><g><g><path data-cppathid="10000" fill="#969faa" d="m12 2h30c2.21 0 4 1.79 4 4v10.19c-1.04.26-1.99.8-2.76 1.57l-1.24 1.24v-8c0-.55-.45-1-1-1h-28c-.55 0-1 .45-1 1v30c0 .55.45 1 1 1h.47c-.5 1.72-1.16 3.38-1.96 4.98-.31.62-.95 1.02-1.66 1.02-1.02 0-1.85-.83-1.85-1.85v-16.15-24c0-2.21 1.79-4 4-4z"/></g><g><path data-cppathid="10001" fill="#969faa" d="m20 49.67c0-.45-.02-.89-.05-1.33l-.49-6.34h21.54c.55 0 1-.45 1-1v-6l4-4v19c0 2.21-1.79 4-4 4h-22.55-.01c.37-1.41.56-2.87.56-4.33z"/></g><g><path data-cppathid="10002" fill="#69d6f4" d="m41 10h-28c-.55 0-1 .45-1 1v30c0 .55.45 1 1 1h28c.55 0 1-.45 1-1v-30c0-.55-.45-1-1-1z"/></g><g><path data-cppathid="10003" fill="#e6e9ed" d="m32 47c0 .83-.34 1.58-.88 2.12s-1.29.88-2.12.88h-4c-1.66 0-3-1.34-3-3 0-.55.45-1 1-1h8c.55 0 1 .45 1 1z"/></g><g><path data-cppathid="10004" fill="#ef7385" d="m16 14h22v4h-22z"/></g><g><path data-cppathid="10005" fill="#ef7385" d="m6 58h12v4h-12z"/></g><g><path data-cppathid="10006" fill="#cf9e76" d="m41 36-4.7 1.88c-.2.08-.41.12-.62.12-.93 0-1.68-.75-1.68-1.68 0-.21.04-.42.12-.62l1.88-4.7z"/></g><g><path data-cppathid="10007" fill="#b4dd7f" d="m62 13.54c0 .93-.37 1.83-1.04 2.5l-3.39 3.39-6.57 6.57-3.09-2.47c-.89-.71-1.93-1.19-3.04-1.4l6.13-6.13 4.96-4.96c.67-.67 1.57-1.04 2.5-1.04.98 0 1.86.4 2.5 1.04s1.04 1.52 1.04 2.5z"/></g><g><path data-cppathid="10008" fill="#b4dd7f" d="m41.28 25.72c.84.95.9.98.96 1.02l5.01 3.01-1.25 1.25-4 4-1 1-5-5 3.1-3.1z"/></g><g><path data-cppathid="10009" fill="#f0d0b4" d="m41.75 22.75c-.47.46-.75 1.09-.75 1.8 0 .42.1.82.28 1.17l-2.18 2.18c-.6-.16-1.13-.52-1.5-.99-.38-.48-.6-1.09-.6-1.74 0-.75.3-1.47.83-2l4.17-4.17 1.24-1.24c.77-.77 1.72-1.31 2.76-1.57.48-.13.98-.19 1.49-.19h3.51l-6.13 6.13c-.43-.09-.87-.13-1.32-.13-.71 0-1.34.28-1.8.75z"/></g><g><path data-cppathid="10010" fill="#f0d0b4" d="m42.24 26.74c-.06-.04-.12-.07-.96-1.02-.18-.35-.28-.75-.28-1.17 0-.71.28-1.34.75-1.8.46-.47 1.09-.75 1.8-.75.45 0 .89.04 1.32.13 1.11.21 2.15.69 3.04 1.4l3.09 2.47 6.57-6.57 3.43 2.57h1v8h-1l-4.6 1.53c-.93.31-1.9.47-2.88.47-1.65 0-3.27-.45-4.68-1.3l-1.59-.95z"/></g><g><path data-cppathid="10011" fill="#f0d0b4" d="m19.95 48.34c.03.44.05.88.05 1.33 0 1.46-.19 2.92-.56 4.33-.18.71-.41 1.41-.68 2.1l-.76 1.9h-12l-1.3-3.26c-.47-1.16-.8-2.36-1.01-3.59l-1.55-9.33c-.09-.55-.14-1.1-.14-1.65 0-2.67 1.06-5.23 2.95-7.12l3.05-3.05v16.15c0 1.02.83 1.85 1.85 1.85.71 0 1.35-.4 1.66-1.02.8-1.6 1.46-3.26 1.96-4.98l.34-1.23.75-2.99c.26-1.05 1.19-1.78 2.27-1.78.61 0 1.17.24 1.59.62.42.39.7.93.75 1.54l.29 3.84z"/></g></g><g><path data-cppathid="10012" d="m31 45h-8c-1.103 0-2 .897-2 2 0 2.206 1.794 4 4 4h4c2.206 0 4-1.794 4-4 0-1.103-.897-2-2-2zm-2 4h-4c-1.103 0-2-.897-2-2h8c0 1.103-.897 2-2 2z"/><circle data-cppathid="10013" r="1" cy="6" cx="42"/><circle data-cppathid="10014" r="1" cy="6" cx="38"/><path data-cppathid="10015" d="m23 5h8v2h-8z"/><path data-cppathid="10016" d="m59.093 19.32 2.578-2.578c.857-.856 1.329-1.996 1.329-3.207 0-2.501-2.035-4.535-4.536-4.535-1.212 0-2.351.472-3.207 1.328l-4.671 4.672h-3.101c-.163 0-.324.013-.485.024v-9.024c0-2.757-2.243-5-5-5h-30c-2.757 0-5 2.243-5 5v23.586l-2.76 2.761c-2.09 2.089-3.24 4.866-3.24 7.82 0 .606.051 1.218.15 1.818l1.556 9.332c.216 1.298.573 2.574 1.061 3.792l1.233 3.084v4.807h14v-4.807l.69-1.725c.193-.483.357-.974.508-1.468h21.802c2.757 0 5-2.243 5-5v-18.586l.405-.405.918.551c1.569.942 3.368 1.44 5.2 1.44 1.087 0 2.162-.175 3.195-.52l4.444-1.48h1.838v-10h-1.667zm-2.422-7.578c.479-.478 1.116-.742 1.793-.742 1.398 0 2.536 1.138 2.536 2.535 0 .677-.264 1.313-.743 1.793l-9.331 9.332-2.391-1.913c-.549-.439-1.153-.798-1.792-1.076zm-8.085 5.258-4.066 4.066c-.32-.039-.642-.066-.966-.066-1.96 0-3.554 1.594-3.554 3.554 0 .311.042.617.121.912l-1.251 1.251c-.527-.328-.87-.902-.87-1.546 0-.481.195-.952.536-1.293l5.414-5.414c.944-.944 2.199-1.464 3.535-1.464zm-39.586-11c0-1.654 1.346-3 3-3h30c1.654 0 3 1.346 3 3v9.459c-.722.274-1.398.664-2 1.169v-5.628c0-1.103-.897-2-2-2h-28c-1.103 0-2 .897-2 2v30c0 .8.476 1.488 1.157 1.807-.431 1.273-.938 2.52-1.539 3.72-.145.292-.438.473-.764.473-.471 0-.854-.384-.854-.854zm8 55h-10v-2h10zm.833-5.274-.51 1.274h-10.646l-1.054-2.634c-.434-1.085-.752-2.221-.945-3.377l-1.556-9.332c-.08-.492-.122-.993-.122-1.49 0-2.42.942-4.694 2.654-6.406l1.346-1.347v13.731c0 1.575 1.28 2.855 2.854 2.855 1.088 0 2.066-.604 2.553-1.578 1.02-2.039 1.816-4.194 2.37-6.406l.75-2.998c.149-.599.685-1.018 1.303-1.018.698 0 1.287.545 1.34 1.241l.783 10.172c.031.416.047.834.047 1.252 0 2.085-.393 4.124-1.167 6.061zm-1.003-20.726c-1.537 0-2.871 1.042-3.244 2.533l-.586 2.344v-28.877h28v7.586l-3.878 3.878c-.724.723-1.122 1.683-1.122 2.707 0 1.187.556 2.265 1.439 2.976l-2.292 2.292-1.956 4.889c-.127.318-.191.652-.191.995 0 1.476 1.201 2.677 2.677 2.677.341 0 .675-.064.994-.191l4.329-1.732v3.923h-20.612l-.224-2.912c-.133-1.732-1.598-3.088-3.334-3.088zm19.535-2.221 2.855 2.855-3.291 1.317c-.434.174-.929-.169-.929-.628 0-.087.016-.171.049-.252zm8.635 17.221c0 1.654-1.346 3-3 3h-21.311c.203-1.095.311-2.209.311-3.335 0-.469-.018-.938-.054-1.405l-.404-5.26h20.458c1.103 0 2-.897 2-2v-5.586l2-2zm-4-15.414-3.586-3.586 3.791-3.79c.162.144.332.279.521.392l3.912 2.347zm20-5.586h-.162l-4.752 1.584c-2.226.743-4.729.466-6.733-.739l-6.597-3.958c-.467-.28-.756-.79-.756-1.333 0-.857.697-1.554 1.554-1.554 1.351 0 2.676.465 3.731 1.31l3.364 2.69h5.351v-2h-2.586l4.251-4.251 3.002 2.251h.333z"/><path data-cppathid="10017" d="m39 13h-24v6h24zm-2 4h-20v-2h20z"/><path data-cppathid="10018" d="m21 21h13v2h-13z"/><path data-cppathid="10019" d="m32 25h2v2h-2z"/><path data-cppathid="10020" d="m21 25h9v2h-9z"/><path data-cppathid="10021" d="m21 29h13v2h-13z"/><path data-cppathid="10022" d="m21 33h11v2h-11z"/><path data-cppathid="10023" d="m21 37h11v2h-11z"/></g></g></svg>