<?xml version="1.0" encoding="UTF-8"?>
<svg xmlns="http://www.w3.org/2000/svg" onmouseup="{ if(window.parent.document.onmouseup) window.parent.document.onmouseup(arguments[0]);}" width="512" viewBox="0 0 64 64" height="512" enable-background="new 0 0 64 64" id="Layer_2"><path data-cppathid="10000" fill="#52b8d9" d="m57.857 60.805-1.824-15.432c0-7.876-6.385-14.26-14.26-14.26h-14.121c-7.873 0-14.258 6.384-14.258 14.26v15.432z"/><path data-cppathid="10001" fill="#63312d" d="m57.857 61.305h-44.462c-.276 0-.5-.224-.5-.5v-15.432c0-8.139 6.62-14.76 14.758-14.76h14.121c8.139 0 14.76 6.621 14.76 14.76l1.82 15.373c.018.142-.027.284-.122.391s-.232.168-.375.168zm-43.962-1h43.4l-1.758-14.873c-.004-7.646-6.177-13.818-13.764-13.818h-14.121c-7.586 0-13.758 6.173-13.758 13.76v14.931z"/><path data-cppathid="10002" fill="#82d9ff" d="m51.109 60.805-1.826-15.432c0-7.876-6.383-14.26-14.258-14.26h-14.119c-7.875 0-14.26 6.384-14.26 14.26l-1.826 15.432z"/><path data-cppathid="10003" fill="#caf4ff" d="m6.92 60.805 1.82-15.111c0-6.896 5.59-12.485 12.486-12.485h17.666c1.836 0 3.574.406 5.145 1.118-2.457-2.007-5.592-3.213-9.012-3.213h-14.119c-7.875 0-14.26 6.384-14.26 14.26l-1.826 15.431z"/><path data-cppathid="10004" fill="#63312d" d="m51.109 61.305h-46.289c-.143 0-.279-.062-.374-.168s-.14-.249-.122-.391l1.826-15.432c-.004-8.08 6.617-14.701 14.756-14.701h14.119c8.138 0 14.758 6.621 14.758 14.76l1.822 15.373c.018.142-.027.284-.122.391s-.231.168-.374.168zm-45.726-1h45.164l-1.76-14.873c-.004-7.646-6.176-13.818-13.762-13.818h-14.119c-7.587 0-13.76 6.173-13.76 13.76z"/><path data-cppathid="10005" fill="#f8f3f3" d="m20.906 31.113 6.774 29.563 6.775-29.563z"/><path data-cppathid="10006" fill="#f9a287" d="m28.904 38.981 1.227-1.953-2.451-2.269-2.45 2.269 1.225 1.953-2.416 5.81 3.641 15.885 3.64-15.885z"/><path data-cppathid="10007" fill="#63312d" d="m27.68 61.176c-.233 0-.436-.161-.487-.389l-3.641-15.885c-.023-.101-.015-.207.025-.304l2.317-5.57-1.088-1.734c-.127-.203-.092-.469.084-.633l2.449-2.27c.191-.178.488-.178.68 0l2.451 2.27c.177.164.212.43.084.633l-1.09 1.734 2.317 5.57c.04.097.049.203.025.304l-3.641 15.885c-.05.228-.252.389-.485.389zm-3.117-16.341 3.117 13.603 3.117-13.603-2.354-5.661c-.063-.15-.048-.321.038-.458l1.007-1.603-1.808-1.673-1.806 1.673 1.005 1.603c.086.138.1.308.038.458z"/><path data-cppathid="10008" fill="#f8f3f3" d="m27.68 34.759-4.899 4.54-1.875-8.186.588-.008z"/><path data-cppathid="10009" fill="#f8f3f3" d="m20.906 31.113 6.773 29.563-8.742-12.23 1.039-5.891-4.856-3.465 2.467-7.586c.001 0 1.518-.397 3.319-.391z"/><path data-cppathid="10010" fill="#f8f3f3" d="m27.68 34.759 4.898 4.54 1.877-8.186-.59-.008z"/><path data-cppathid="10011" fill="#63312d" d="m22.781 39.799c-.049 0-.099-.007-.147-.022-.171-.053-.3-.191-.34-.366l-1.875-8.186c-.034-.146.001-.302.094-.42.094-.119.236-.189.387-.191l.588-.008c.101-.02.182.023.261.069l6.186 3.653c.137.08.227.221.243.377.017.157-.041.313-.157.421l-4.898 4.54c-.096.087-.218.133-.342.133zm-1.221-8.074 1.516 6.62 3.772-3.497z"/><path data-cppathid="10012" fill="#63312d" d="m32.578 39.799c-.124 0-.246-.046-.34-.133l-4.898-4.54c-.116-.107-.174-.264-.157-.421.017-.156.106-.297.243-.377l6.186-3.653c.079-.046.164-.087.261-.069l.59.008c.15.002.293.072.387.191.093.118.128.273.094.42l-1.877 8.186c-.04.175-.17.313-.34.366-.05.015-.1.022-.149.022zm-4.066-4.951 3.772 3.497 1.518-6.621z"/><path data-cppathid="10013" fill="#f8f3f3" d="m34.455 31.113-6.775 29.563 8.742-12.23-1.039-5.891 4.855-3.465-2.536-7.726s-1.446-.257-3.247-.251z"/><path data-cppathid="10014" fill="#63312d" d="m27.68 61.176c-.157 0-.311-.074-.407-.209l-8.742-12.23c-.078-.109-.108-.246-.085-.378l.984-5.58-4.599-3.281c-.178-.127-.253-.354-.186-.562l2.467-7.586c.053-.162.185-.286.35-.329.063-.018 1.578-.407 3.404-.407.231.004.473.147.527.389l6.773 29.563c.054.231-.064.47-.282.567-.066.028-.135.043-.204.043zm-8.213-12.851 7.168 10.029-6.126-26.736c-1.123.033-2.088.213-2.533.309l-2.266 6.969 4.557 3.252c.157.112.235.305.202.494z"/><path data-cppathid="10015" fill="#63312d" d="m27.68 61.176c-.069 0-.139-.015-.205-.044-.218-.098-.336-.336-.282-.567l6.775-29.563c.057-.247.296-.386.549-.389 1.795 0 3.213.248 3.273.259.181.032.33.161.387.336l2.536 7.726c.068.208-.006.437-.185.563l-4.599 3.281.984 5.58c.023.132-.007.269-.085.378l-8.742 12.23c-.096.136-.249.21-.406.21zm7.173-29.56-6.128 26.737 7.168-10.028-1.002-5.684c-.033-.189.045-.382.202-.494l4.556-3.251-2.326-7.085c-.45-.063-1.374-.174-2.47-.195z"/><path data-cppathid="10016" fill="#63312d" d="m26.455 38.481h2.582v1h-2.582z"/><path data-cppathid="10017" fill="#f9dd9d" d="m21.494 31.105 6.186 3.654 6.185-3.654z"/><path data-cppathid="10018" fill="#63312d" d="m27.68 35.259c-.088 0-.176-.023-.254-.069l-6.186-3.653c-.194-.115-.288-.345-.229-.563s.257-.368.482-.368h12.371c.226 0 .423.15.482.368s-.034.447-.229.563l-6.186 3.653c-.076.045-.163.069-.251.069zm-4.356-3.654 4.355 2.572 4.355-2.572z"/><path data-cppathid="10019" fill="#efc36a" d="m33.758 3.195h-6.078v27.936h6.078c7.715 0 13.967-6.253 13.967-13.967 0-7.715-6.252-13.969-13.967-13.969z"/><path data-cppathid="10020" fill="#db785a" d="m33.758 3.195h-6.078v12.912h19.992c-.543-7.218-6.557-12.912-13.914-12.912z"/><g fill="#63312d"><path data-cppathid="10021" d="m47.672 16.607h-19.992c-.276 0-.5-.224-.5-.5v-12.912c0-.276.224-.5.5-.5h6.078c7.518 0 13.849 5.875 14.413 13.375.01.139-.038.275-.133.377-.095.103-.227.16-.366.16zm-19.492-1h18.942c-.779-6.722-6.547-11.912-13.364-11.912h-5.578z"/><path data-cppathid="10022" d="m33.758 31.631h-6.078c-.276 0-.5-.224-.5-.5v-27.936c0-.276.224-.5.5-.5h6.078c7.977 0 14.467 6.49 14.467 14.469 0 7.977-6.491 14.467-14.467 14.467zm-5.578-1h5.578c7.426 0 13.467-6.041 13.467-13.467 0-7.427-6.041-13.469-13.467-13.469h-5.578z"/><path data-cppathid="10023" d="m14.621 43.166h1v17.51h-1z"/><path data-cppathid="10024" d="m41.359 43.166h1v17.51h-1z"/></g><path data-cppathid="10025" fill="#f9dd9d" d="m41.646 17.164c0 7.714-6.252 13.967-13.967 13.967-7.713 0-13.967-6.253-13.967-13.967 0-7.715 6.254-13.969 13.967-13.969 7.715 0 13.967 6.254 13.967 13.969z"/><path data-cppathid="10026" fill="#f9a287" d="m27.687 12.442 2.859 3.665h11.047c-.54-7.218-6.556-12.912-13.913-12.912-7.355 0-13.373 5.693-13.914 12.912h11.061z"/><path data-cppathid="10027" fill="#ffc8bb" d="m28.721 3.246c-.346-.025-.689-.051-1.041-.051-7.355 0-13.373 5.693-13.914 12.912h2.078c.517-6.875 6-12.353 12.877-12.861z"/><path data-cppathid="10028" fill="#63312d" d="m41.594 16.607h-11.047c-.154 0-.3-.071-.395-.192l-2.465-3.16-2.467 3.16c-.095.121-.24.192-.395.192h-11.059c-.139 0-.271-.058-.366-.16s-.143-.238-.133-.377c.562-7.5 6.893-13.375 14.413-13.375s13.85 5.875 14.413 13.375c.01.139-.038.275-.133.377-.095.103-.228.16-.366.16zm-10.803-1h10.253c-.777-6.721-6.546-11.912-13.364-11.912s-12.587 5.19-13.364 11.912h10.267l2.711-3.473c.095-.121.24-.192.395-.192.154 0 .3.071.395.192z"/><path data-cppathid="10029" fill="#63312d" d="m27.68 31.631c-7.977 0-14.467-6.49-14.467-14.467 0-7.979 6.49-14.469 14.467-14.469s14.467 6.49 14.467 14.469c-.001 7.977-6.491 14.467-14.467 14.467zm0-27.936c-7.426 0-13.467 6.042-13.467 13.469 0 7.426 6.041 13.467 13.467 13.467s13.467-6.041 13.467-13.467c-.001-7.427-6.042-13.469-13.467-13.469z"/><path data-cppathid="10030" fill="#db785a" d="m47.01 36.393h-4.061v24.34h4.061c6.721 0 12.17-5.449 12.17-12.17 0-6.722-5.45-12.17-12.17-12.17z"/><path data-cppathid="10031" fill="#63312d" d="m47.01 61.232h-4.061c-.276 0-.5-.224-.5-.5v-24.34c0-.276.224-.5.5-.5h4.061c6.986 0 12.67 5.684 12.67 12.67s-5.684 12.67-12.67 12.67zm-3.561-1h3.561c6.435 0 11.67-5.235 11.67-11.67s-5.235-11.67-11.67-11.67h-3.561z"/><path data-cppathid="10032" fill="#f9a287" d="m30.777 48.563c0 6.721 5.449 12.17 12.172 12.17 6.721 0 12.17-5.449 12.17-12.17 0-6.722-5.449-12.17-12.17-12.17-6.722 0-12.172 5.448-12.172 12.17z"/><path data-cppathid="10033" fill="#ffc8bb" d="m32.777 48.563c0-6.385 4.92-11.609 11.172-12.119-.33-.027-.662-.051-1-.051-6.723 0-12.172 5.448-12.172 12.17 0 6.721 5.449 12.17 12.172 12.17.338 0 .67-.023 1-.051-6.252-.51-11.172-5.737-11.172-12.119z"/><path data-cppathid="10034" fill="#63312d" d="m42.949 61.232c-6.987 0-12.672-5.684-12.672-12.67s5.685-12.67 12.672-12.67c6.986 0 12.67 5.684 12.67 12.67s-5.683 12.67-12.67 12.67zm0-24.339c-6.436 0-11.672 5.235-11.672 11.67s5.236 11.67 11.672 11.67c6.435 0 11.67-5.235 11.67-11.67s-5.235-11.67-11.67-11.67z"/><path data-cppathid="10035" fill="#f9dd9d" d="m40.658 53.564c-.318 0-.637-.123-.879-.366l-4.406-4.381c-.484-.487-.48-1.273.004-1.756.486-.485 1.271-.481 1.758.005l3.58 3.551 6.832-6.237c.516-.453 1.301-.405 1.752.11.455.514.406 1.299-.107 1.752l-7.711 7.012c-.235.209-.53.31-.823.31z"/><path data-cppathid="10036" fill="#63312d" d="m40.658 54.064c-.466 0-.903-.183-1.233-.514l-4.404-4.379c-.678-.682-.676-1.787.003-2.464.679-.678 1.784-.675 2.465.005l3.241 3.214 6.48-5.916c.358-.315.809-.472 1.273-.438.464.03.887.239 1.191.588.307.346.461.794.433 1.259-.028.464-.236.89-.585 1.197l-7.706 7.007c-.319.286-.729.441-1.158.441zm-4.407-6.863c-.189 0-.377.071-.521.214-.29.289-.291.76-.003 1.05l4.404 4.379c.275.274.739.282 1.016.037l7.708-7.009c.153-.136.242-.316.254-.514s-.054-.389-.185-.536c-.131-.15-.311-.238-.507-.251-.198-.012-.391.053-.541.185l-6.825 6.23c-.196.182-.5.173-.689-.014l-3.58-3.551c-.146-.147-.339-.22-.531-.22z"/></svg>