<?xml version="1.0" encoding="UTF-8"?>
<svg xmlns="http://www.w3.org/2000/svg" onmouseup="{ if(window.parent.document.onmouseup) window.parent.document.onmouseup(arguments[0]);}" width="512" viewBox="0 0 48 48" height="512" enable-background="new 0 0 48 48" id="Layer_1"><g><path data-cppathid="10000" d="m29.66 11.69c-.27 0-.52.11-.71.29l-4.95 4.95-4.95-4.95c-.38-.38-1.04-.38-1.41 0l-5.66 5.66c-.39.39-.39 1.02 0 1.41l4.95 4.95-4.95 4.95c-.39.39-.39 1.02 0 1.41l5.66 5.66c.19.19.44.29.71.29s.52-.11.71-.29l4.94-4.95 4.95 4.95c.19.19.44.29.71.29s.52-.11.71-.29l5.66-5.66c.39-.39.39-1.02 0-1.41l-4.96-4.95 4.95-4.95c.39-.39.39-1.02 0-1.41l-5.66-5.66c-.18-.19-.44-.29-.7-.29zm-.71 11.6c-.39.39-.39 1.02 0 1.41l4.95 4.95-4.24 4.24-4.95-4.95c-.2-.2-.45-.29-.71-.29s-.51.1-.71.29l-4.95 4.95-4.24-4.24 4.95-4.95c.39-.39.39-1.02 0-1.41l-4.95-4.95 4.24-4.24 4.95 4.95c.39.39 1.02.39 1.41 0l4.95-4.95 4.24 4.24z"/><path data-cppathid="10001" d="m35.17 5.65c-.18-.31-.51-.5-.87-.5h-20.61c-.36 0-.69.19-.87.5l-10.3 17.85c-.18.31-.18.69 0 1l10.31 17.85c.18.31.51.5.87.5h20.62c.36 0 .69-.19.87-.5l10.29-17.85c.18-.31.18-.69 0-1zm-1.44 35.2h-19.46l-9.73-16.85 9.73-16.85h19.46l9.73 16.85z"/></g></svg>