<?xml version="1.0" encoding="UTF-8"?>
<svg xmlns="http://www.w3.org/2000/svg" onmouseup="{ if(window.parent.document.onmouseup) window.parent.document.onmouseup(arguments[0]);}" xml:space="preserve" style="enable-background:new 0 0 512.002 512.002;" viewBox="0 0 512.002 512.002" y="0px" x="0px" id="Capa_1" version="1.1" xmlns:xlink="http://www.w3.org/1999/xlink"><polygon data-cppathid="10000" points="188.594,201.012 188.593,201.013 188.593,395.728 323.407,395.728 323.407,201.013   323.406,201.012 " style="fill:#FFFFFF;"/><polygon data-cppathid="10001" points="256,139.621 188.594,201.012 323.406,201.012 " style="fill:#DB9970;"/><path data-cppathid="10002" d="M458.217,201.01h3.924c22.881,0.001,41.26-19.282,39.775-42.485  c-1.272-19.87-17.425-35.952-37.299-37.162c-3.445-0.21-6.802,0.022-10.021,0.639c-1.505,0.288-3.03-0.272-4-1.46  c-7.588-9.29-19.54-13.397-30.998-11.053c-2.081,0.425-4.101-0.804-4.724-2.834c-6.646-21.676-26.805-37.442-50.659-37.442  c-28.475,0-51.698,22.461-52.935,50.631c-0.001,0.016-0.007,0.026-0.008,0.042c-0.289,3.702-4.61,2.98-4.61,2.98l0.006,0.009  c-3.185-0.588-6.501-0.804-9.906-0.575c-15.021,1.007-27.851,10.617-33.544,23.893l60.186,54.816h0.004" style="fill:#B3FFF9;"/><polygon data-cppathid="10003" points="390.813,139.621 323.407,201.012 458.218,201.012 " style="fill:#FF8951;"/><polygon data-cppathid="10004" points="323.407,201.012 323.406,201.013 323.406,395.728 458.219,395.728 458.219,201.013   458.218,201.012 " style="fill:#FCC595;"/><rect data-cppathid="10005" height="44.3" width="134.81" style="fill:#DB9970;" y="395.73" x="188.59"/><rect data-cppathid="10006" height="44.3" width="134.81" style="fill:#FF8951;" y="395.73" x="323.41"/><rect data-cppathid="10007" height="44.3" width="134.81" style="fill:#F9AE62;" y="395.73" x="53.779"/><path data-cppathid="10008" d="M134.919,114.979c21.617,0,39.14-17.524,39.14-39.14s-17.524-39.14-39.14-39.14  c-3.161,0-6.231,0.385-9.175,1.092c-4.866-16.08-19.794-27.79-37.463-27.79c-21.463,0-38.883,17.278-39.129,38.684  c-1.87-0.325-3.79-0.504-5.752-0.504C24.954,48.181,10,63.134,10,81.58s14.953,33.399,33.399,33.399  C43.399,114.979,134.919,114.979,134.919,114.979z" style="fill:#4BC6FF;"/><path data-cppathid="10009" d="M134.919,124.979h-91.52C19.469,124.979,0,105.511,0,81.58c0-22.911,17.845-41.732,40.366-43.295  c4.981-21.858,24.66-38.284,47.915-38.284c18.852,0,35.527,10.471,43.786,26.782c0.95-0.056,1.901-0.084,2.852-0.084  c27.096,0,49.14,22.044,49.14,49.14S162.015,124.979,134.919,124.979z M43.399,58.181C30.497,58.181,20,68.678,20,81.58  s10.497,23.399,23.399,23.399h91.52c16.068,0,29.14-13.072,29.14-29.141c0-16.067-13.072-29.14-29.14-29.14  c-2.289,0-4.589,0.274-6.837,0.814c-5.15,1.236-10.374-1.755-11.909-6.826c-3.686-12.18-15.155-20.687-27.892-20.687  c-15.88,0-28.947,12.919-29.129,28.799c-0.034,2.931-1.352,5.698-3.605,7.573c-2.253,1.873-5.215,2.664-8.103,2.164  C46.078,58.301,44.717,58.181,43.399,58.181z"/><rect data-cppathid="10010" height="61.973" width="491" style="fill:#18BB7D;" y="440.03" x="10.501"/><path data-cppathid="10011" d="M449.8,480.35c-0.65,0-1.31-0.07-1.95-0.2s-1.27-0.319-1.87-0.569c-0.61-0.25-1.19-0.561-1.73-0.92  c-0.55-0.36-1.06-0.78-1.52-1.24s-0.88-0.97-1.24-1.521c-0.36-0.54-0.67-1.13-0.92-1.729c-0.25-0.601-0.44-1.23-0.57-1.87  c-0.13-0.64-0.2-1.3-0.2-1.95c0-0.66,0.07-1.31,0.2-1.96c0.13-0.64,0.32-1.27,0.57-1.87s0.56-1.18,0.92-1.72  c0.36-0.55,0.78-1.06,1.24-1.52c0.46-0.47,0.97-0.88,1.52-1.25c0.54-0.359,1.12-0.67,1.73-0.92c0.6-0.25,1.23-0.439,1.87-0.569  c1.29-0.261,2.62-0.261,3.91,0c0.63,0.13,1.26,0.319,1.87,0.569c0.6,0.25,1.18,0.561,1.72,0.92c0.55,0.37,1.06,0.78,1.52,1.25  c0.46,0.461,0.88,0.971,1.25,1.52c0.36,0.54,0.67,1.12,0.92,1.72c0.25,0.601,0.44,1.23,0.57,1.87c0.13,0.65,0.19,1.3,0.19,1.96  c0,2.63-1.07,5.21-2.93,7.07c-0.46,0.46-0.97,0.88-1.52,1.24c-0.539,0.359-1.12,0.67-1.72,0.92c-0.61,0.25-1.24,0.439-1.87,0.569  C451.11,480.28,450.45,480.35,449.8,480.35z"/><path data-cppathid="10012" d="M409.8,480.348H62.199c-5.523,0-10-4.478-10-10s4.477-10,10-10H409.8c5.523,0,10,4.478,10,10S415.323,480.348,409.8,480.348  z"/><rect data-cppathid="10013" height="152.38" width="53.902" style="fill:#CCCCCC;" y="243.34" x="229.05"/><rect data-cppathid="10014" height="152.38" width="53.902" style="fill:#FFFFFF;" y="243.34" x="363.86"/><polygon data-cppathid="10015" points="121.186,139.621 53.78,201.012 188.591,201.012 " style="fill:#F9AE62;"/><polygon data-cppathid="10016" points="53.78,201.012 53.779,201.013 53.779,395.728 188.593,395.728 188.593,201.013   188.591,201.012 " style="fill:#FFD77F;"/><rect data-cppathid="10017" height="152.38" width="53.902" style="fill:#FFFFFF;" y="243.34" x="94.23"/><path data-cppathid="10018" d="M501.499,430.027H468.22v-34.299l-0.001-185.093c11.499-1.425,22.296-6.853,30.291-15.376  c9.525-10.154,14.279-23.427,13.386-37.372c-1.6-24.989-21.664-44.981-46.67-46.504c-3.059-0.187-6.126-0.095-9.154,0.274  c-8.69-9.039-20.883-13.652-33.301-12.692c-9.456-23.973-32.393-39.749-58.555-39.749c-31.383,0-57.454,22.791-62.212,53.064  c-1.968-0.101-3.942-0.086-5.909,0.045c-13.836,0.927-26.659,7.882-35.229,18.559c-3.677-2.049-8.363-1.602-11.598,1.344  l-60.674,55.259l-60.673-55.259c-3.816-3.475-9.651-3.475-13.467,0l-67.406,61.391c-0.054,0.049-0.106,0.098-0.158,0.148  c-0.011,0.011-0.022,0.022-0.034,0.033c-0.042,0.041-0.085,0.082-0.126,0.123c-0.015,0.015-0.03,0.03-0.045,0.045  c-0.039,0.039-0.078,0.079-0.116,0.119c-0.014,0.014-0.028,0.029-0.041,0.043c-0.047,0.049-0.093,0.099-0.139,0.149  c-0.004,0.004-0.008,0.008-0.012,0.013c-0.05,0.055-0.1,0.111-0.148,0.167c-0.013,0.015-0.025,0.03-0.038,0.044  c-0.034,0.039-0.067,0.079-0.1,0.118c-0.02,0.023-0.039,0.047-0.058,0.071c-0.025,0.03-0.049,0.061-0.074,0.091  c-0.023,0.029-0.047,0.058-0.069,0.088c-0.015,0.019-0.029,0.038-0.044,0.057c-1.295,1.686-2.065,3.796-2.065,6.085v229.015h-33.28  c-5.523,0-10,4.477-10,10v61.974c0,5.522,4.477,10,10,10h490.998c5.523,0,10-4.477,10-10v-61.974  C511.499,434.505,507.022,430.027,501.499,430.027z M297.432,132.279c2.477-0.168,4.972-0.021,7.418,0.431  c0.35,0.065,0.701,0.11,1.05,0.138c2.152,0.209,6.586,0.184,10.423-2.816c2.776-2.172,4.501-5.346,4.883-8.972  c0.024-0.197,0.042-0.395,0.055-0.59c0.004-0.062,0.007-0.123,0.01-0.186c1.012-23.029,19.875-41.068,42.945-41.068  c19.013,0,35.529,12.206,41.1,30.376c2.145,6.986,9.142,11.154,16.288,9.696c7.957-1.627,16.099,1.276,21.248,7.581  c3.295,4.034,8.516,5.935,13.625,4.955c2.466-0.472,5.001-0.635,7.533-0.479c14.964,0.911,26.97,12.87,27.927,27.818  c0.536,8.372-2.31,16.331-8.014,22.411c-5.708,6.085-13.443,9.436-21.781,9.436h-0.052l-64.543-58.783  c-3.816-3.475-9.65-3.475-13.467,0l-60.673,55.259l-17.55-15.984l-30.008-27.33C280.942,137.337,288.863,132.853,297.432,132.279z   M407.764,385.728h-33.902V253.344h33.902V385.728z M448.22,405.728v24.299H333.407v-24.299H448.22z M427.764,385.728V243.344  c0-5.523-4.477-10-10-10h-53.902c-5.523,0-10,4.477-10,10v142.385h-20.456l0.001-174.717l114.813,0.001v174.716h-20.456V385.728z   M349.238,191.012l41.575-37.865l41.575,37.865H349.238z M256,153.146l28.112,25.604l13.462,12.261h-83.149L256,153.146z   M313.406,211.012v174.717h-20.455V243.344c0-5.523-4.477-10-10-10H229.05c-5.523,0-10,4.477-10,10v142.385h-20.457l-0.001-174.717  L313.406,211.012L313.406,211.012z M313.406,405.728v24.299H198.593v-24.299H313.406z M239.049,385.728V253.344h33.901v132.385  h-33.901V385.728z M121.186,153.146l41.575,37.865h-83.15L121.186,153.146z M63.78,211.012l114.813,0.001v174.716h-20.456V243.344  c0-5.523-4.477-10-10-10H94.235c-5.523,0-10,4.477-10,10v142.385H63.779L63.78,211.012z M138.137,253.344v132.385h-33.902V253.344  H138.137z M63.779,405.728h114.814v24.299H63.779V405.728z M491.499,492.001H20.501v-41.974h470.998V492.001z"/><g/><g/><g/><g/><g/><g/><g/><g/><g/><g/><g/><g/><g/><g/><g/></svg>