<?xml version="1.0" encoding="UTF-8"?>
<svg xmlns="http://www.w3.org/2000/svg" onmouseup="{ if(window.parent.document.onmouseup) window.parent.document.onmouseup(arguments[0]);}" width="512pt" viewBox="0 0 512 512.002" height="512pt"><path data-cppathid="10000" fill="#abffdb" d="m256.207031 7.5c-138.765625 0-248.5 113.433594-248.5 248.5 0 138.265625 113.101563 248.5 248.5 248.5 32.417969 0 64.558594-6.417969 94.113281-18.511719 63.414063-25.953125 110.398438-75.550781 134.972657-134.496093l.128906.199218c68.101563-161.859375-51.203125-344.191406-229.214844-344.191406zm0 0"/><path data-cppathid="10001" fill="#fff" d="m256.207031 46.363281c-113.382812 0-207.5625 91.691407-209.589843 205.890625-2.210938 116.851563 93 213.382813 209.589843 213.382813 94.484375 0 177.519531-63.515625 202.402344-155.554688l.070313.109375c35.808593-132.9375-65.585938-263.828125-202.472657-263.828125zm0 0"/><path data-cppathid="10002" fill="#ffc850" d="m186.878906 144.835938c-25.675781 0-45.308594 10.875-45.308594 40.78125v42.894531c0 29.90625 19.632813 40.777343 45.308594 40.777343 25.375 0 45.3125-10.875 45.3125-40.777343v-42.894531c0-29.90625-19.9375-40.78125-45.3125-40.78125zm15.105469 83.675781c0 9.96875-5.742187 14.5-15.105469 14.5-9.363281 0-14.800781-4.53125-14.800781-14.5v-42.894531c0-9.96875 5.4375-14.5 14.800781-14.5 9.363282 0 15.105469 4.53125 15.105469 14.5zm0 0"/><path data-cppathid="10003" fill="#ffc850" d="m324.625 154.203125-106.328125 217.792969c-2.117187 4.53125-7.855469 7.550781-13.59375 7.550781-11.863281 0-20.332031-11.902344-15.40625-21.75l106.027344-217.792969c2.414062-5.136718 7.25-7.550781 12.6875-7.550781 12.617187 0 21.390625 12.191406 16.613281 21.75zm0 0"/><path data-cppathid="10004" fill="#ffc850" d="m325.53125 242.105469c-25.675781 0-45.308594 10.875-45.308594 40.777343v42.894532c0 29.90625 19.632813 40.78125 45.308594 40.78125 25.375 0 45.3125-10.875 45.3125-40.78125v-42.894532c0-29.902343-19.9375-40.777343-45.3125-40.777343zm15.101562 83.671875c0 9.96875-5.738281 14.5-15.101562 14.5s-14.800781-4.53125-14.800781-14.5v-42.894532c0-9.96875 5.4375-14.5 14.800781-14.5s15.101562 4.53125 15.101562 14.5zm0 0"/><g fill="#fea82f"><path data-cppathid="10005" d="m161.570312 228.511719v-42.894531c0-25.863282 14.6875-37.484376 35.265626-40.15625-3.199219-.417969-6.523438-.625-9.957032-.625-25.675781 0-45.308594 10.875-45.308594 40.78125v42.894531c0 29.902343 19.632813 40.777343 45.308594 40.777343 3.433594 0 6.761719-.207031 9.957032-.625-20.578126-2.671874-35.265626-14.292968-35.265626-40.152343zm0 0"/><path data-cppathid="10006" d="m209.296875 357.796875 106.027344-217.792969c.828125-1.753906 1.9375-3.183594 3.257812-4.316406-2.925781-1.996094-6.550781-3.238281-10.570312-3.238281-5.4375 0-10.269531 2.417969-12.6875 7.554687l-106.027344 217.792969c-4.925781 9.847656 3.542969 21.75 15.40625 21.75 3.621094 0 7.238281-1.203125 9.949219-3.230469-5.867188-4.210937-8.695313-11.835937-5.355469-18.519531zm0 0"/><path data-cppathid="10007" d="m300.222656 325.777344v-42.894532c0-25.859374 14.6875-37.480468 35.261719-40.152343-3.195313-.417969-6.519531-.625-9.953125-.625-25.675781 0-45.308594 10.871093-45.308594 40.777343v42.894532c0 29.90625 19.632813 40.78125 45.308594 40.78125 3.433594 0 6.757812-.207032 9.953125-.625-20.574219-2.671875-35.261719-14.292969-35.261719-40.15625zm0 0"/><path data-cppathid="10008" d="m503.695312 380.042969-64.054687-99.398438c-2.472656-3.839843-8.085937-3.839843-10.5625 0l-64.050781 99.398438c-2.695313 4.179687.304687 9.683593 5.277344 9.683593h28.714843c2.597657 0 4.707031 2.109376 4.707031 4.710938v99.070312c0 6.070313 4.921876 10.992188 10.992188 10.992188h39.28125c6.070312 0 10.992188-4.921875 10.992188-10.992188v-99.070312c0-2.601562 2.109374-4.710938 4.707031-4.710938h28.714843c4.972657 0 7.972657-5.503906 5.28125-9.683593zm0 0"/></g><path data-cppathid="10009" fill="#92e0c0" d="m27.707031 256c0-131.871094 104.613281-243.101562 238.710938-248.289062-3.382813-.132813-6.785157-.210938-10.210938-.210938-138.765625 0-248.5 113.433594-248.5 248.5 0 138.265625 113.101563 248.5 248.5 248.5 3.335938 0 6.671875-.085938 10-.21875-130.917969-5.269531-238.5-113.4375-238.5-248.28125zm0 0"/><path data-cppathid="10010" fill="#e4eaf8" d="m66.617188 252.253906c1.96875-110.773437 90.640624-200.363281 199.4375-205.640625-3.261719-.152343-6.542969-.25-9.847657-.25-113.382812 0-207.5625 91.6875-209.589843 205.890625-2.210938 116.851563 93 213.382813 209.589843 213.382813 3.347657 0 6.683594-.089844 10-.246094-111.980469-5.332031-201.738281-99.644531-199.589843-213.136719zm0 0"/><path data-cppathid="10011" fill="#ff9052" d="m385.027344 380.042969 59.335937-92.074219-4.722656-7.328125c-2.472656-3.835937-8.085937-3.835937-10.558594 0l-64.054687 99.402344c-2.695313 4.179687.308594 9.683593 5.28125 9.683593h20c-4.972656 0-7.972656-5.503906-5.28125-9.683593zm0 0"/><path data-cppathid="10012" fill="#ff9052" d="m423.730469 493.507812v-99.070312c0-2.601562-2.109375-4.710938-4.710938-4.710938h-20c2.597657 0 4.707031 2.109376 4.707031 4.710938v99.070312c0 6.070313 4.921876 10.992188 10.992188 10.992188h20c-6.070312 0-10.988281-4.921875-10.988281-10.992188zm0 0"/><path data-cppathid="10013" fill="#ff9052" d="m204.496094 387.046875c-8.5 0-16.527344-4.445313-20.949219-11.601563-4.039063-6.535156-4.472656-14.386718-1.164063-21l44.535157-91.488281c-9.015625 9.007813-22.664063 13.832031-40.242188 13.832031-33.5625 0-52.8125-17.597656-52.8125-48.277343v-42.894531c0-30.683594 19.25-48.28125 52.8125-48.28125s52.8125 17.597656 52.8125 48.28125v42.894531c0 3.597656-.265625 7.019531-.789062 10.25l49.675781-102.042969c3.453125-7.332031 10.730469-11.765625 19.433594-11.765625 8.996094 0 17.445312 4.628906 22.050781 12.082031 3.984375 6.445313 4.464844 14.097656 1.289063 20.480469l-43.066407 88.21875c8.933594-7.265625 21.519531-11.132813 37.246094-11.132813 33.5625 0 52.8125 17.601563 52.8125 48.28125v42.894532c0 30.683594-19.25 48.28125-52.8125 48.28125s-52.8125-17.597656-52.8125-48.28125v-42.894532c0-1.972656.082031-3.894531.238281-5.757812l-47.898437 98.109375c-3.339844 7.070313-11.507813 11.8125-20.359375 11.8125zm103.308594-247.09375c-2.898438 0-4.886719 1.089844-5.898438 3.242187l-106.070312 217.886719c-1.378907 2.757813-.296876 5.238281.472656 6.476563 1.339844 2.171875 4.195312 4.488281 8.1875 4.488281 3.167968 0 6.070312-1.664063 6.796875-3.222656.019531-.039063.039062-.078125.058593-.117188l106.328126-217.796875c.011718-.019531.023437-.042968.03125-.0625 1.1875-2.371094.125-4.730468-.613282-5.925781-1.484375-2.402344-4.703125-4.96875-9.292968-4.96875zm17.519531 109.652344c-25.441407 0-37.808594 10.886719-37.808594 33.277343v42.894532c0 22.394531 12.367187 33.28125 37.808594 33.28125 37.8125 0 37.8125-25.050782 37.8125-33.28125v-42.894532c0-8.230468 0-33.277343-37.8125-33.277343zm-138.648438-97.269531c-25.441406 0-37.8125 10.886718-37.8125 33.28125v42.894531c0 22.394531 12.367188 33.277343 37.8125 33.277343 37.808594 0 37.808594-25.046874 37.808594-33.277343v-42.894531c0-8.230469 0-33.28125-37.808594-33.28125zm138.648438 195.441406c-13.964844 0-22.300781-8.222656-22.300781-22v-42.894532c0-13.773437 8.335937-22 22.300781-22 13.941406 0 22.605469 8.429688 22.605469 22v42.894532c0 13.570312-8.660157 22-22.605469 22zm0-71.894532c-5.660157 0-7.300781 1.570313-7.300781 7v42.894532c0 5.429687 1.640624 7 7.300781 7 6.429687 0 7.605469-2.355469 7.605469-7v-42.894532c0-4.640624-1.175782-7-7.605469-7zm-138.648438-25.371093c-13.964843 0-22.304687-8.226563-22.304687-22v-42.894531c0-13.777344 8.339844-22 22.304687-22 13.941407 0 22.605469 8.429687 22.605469 22v42.894531c-.003906 13.570312-8.664062 22-22.605469 22zm0-71.894531c-5.664062 0-7.300781 1.570312-7.300781 7v42.894531c0 5.429687 1.636719 7 7.300781 7 6.425781 0 7.601563-2.359375 7.601563-7v-42.894531c0-4.640626-1.175782-7-7.601563-7zm0 0"/><path data-cppathid="10014" fill="#474d54" d="m509.792969 375.980469-16.148438-25.058594c9.886719-24.558594 15.839844-50.410156 17.707031-76.894531.292969-4.132813-2.820312-7.71875-6.953124-8.007813-4.128907-.304687-7.71875 2.820313-8.007813 6.953125-1.503906 21.316406-5.820313 42.199219-12.859375 62.253906l-37.792969-58.648437c-.277343-.429687-.578125-.84375-.894531-1.238281-2.605469-3.203125-6.496094-5.078125-10.6875-5.078125-3.820312 0-7.394531 1.558593-9.96875 4.265625-.003906 0-.007812.003906-.007812.007812-.148438.152344-.292969.3125-.429688.472656-.046875.054688-.09375.109376-.140625.164063-.09375.113281-.1875.226563-.277344.339844-.265625.339843-.523437.699219-.761719 1.070312l-64.054687 99.398438c-2.730469 4.242187-2.929687 9.632812-.515625 14.0625 2.417969 4.433593 7.054688 7.1875 12.101562 7.1875h25.921876v54.597656c-36.261719 26.046875-78.722657 41.441406-123.050782 44.566406-4.128906.289063-7.242187 3.875-6.953125 8.007813.277344 3.953125 3.570313 6.972656 7.476563 6.972656.175781 0 .351562-.003906.535156-.019531 43.582031-3.070313 85.464844-17.296875 121.992188-41.328125v28.191406c0 7.601562 6.183593 13.785156 13.78125 13.785156h48.699218c7.601563 0 13.785156-6.183594 13.785156-13.785156v-100.992188h25.917969c5.046875 0 9.683594-2.753906 12.101563-7.183593 2.414062-4.429688 2.21875-9.820313-.515625-14.0625zm-45.003907 6.246093c-4.144531 0-7.5 3.355469-7.5 7.5v107.273438h-46.265624v-107.273438c0-4.144531-3.359376-7.5-7.5-7.5h-31.1875l61.816406-95.933593 61.820312 95.933593zm0 0"/><path data-cppathid="10015" fill="#474d54" d="m238.507812 511.371094c-.179687 0-.355468-.007813-.535156-.019532-133.441406-9.398437-237.972656-121.5625-237.972656-255.351562 0-68.105469 26.707031-132.316406 75.195312-180.804688 48.488282-48.492187 112.699219-75.195312 180.804688-75.195312 133.789062 0 245.953125 104.53125 255.351562 237.972656.292969 4.132813-2.820312 7.71875-6.953124 8.007813-4.160157.300781-7.71875-2.824219-8.011719-6.953125-8.847657-125.625-114.4375-224.027344-240.386719-224.027344-132.886719 0-241 108.113281-241 241 0 125.945312 98.40625 231.539062 224.027344 240.386719 4.132812.292969 7.246094 3.878906 6.953125 8.011719-.277344 3.953124-3.570313 6.972656-7.472657 6.972656zm0 0"/></svg>