<?xml version="1.0" encoding="UTF-8"?>
<svg xmlns="http://www.w3.org/2000/svg" onmouseup="{ if(window.parent.document.onmouseup) window.parent.document.onmouseup(arguments[0]);}" height="512" width="512" xml:space="preserve" style="enable-background:new 0 0 64 64;" viewBox="0 0 64 64" y="0px" x="0px" id="Layer_3" version="1.1" xmlns:xlink="http://www.w3.org/1999/xlink"><g><rect data-cppathid="10000" height="16" width="50" style="fill:#586773;" y="2" x="7"/><rect data-cppathid="10001" height="16" width="47" style="fill:#758999;" y="2" x="7"/><path data-cppathid="10002" d="M60,52H36c-1.105,0-2-0.895-2-2V36c0-1.105,0.895-2,2-2h24c1.105,0,2,0.895,2,2v14   C62,51.105,61.105,52,60,52z" style="fill:#586773;"/><path data-cppathid="10003" d="M59,50V36c0-1.105-0.895-2-2-2H36c-1.105,0-2,0.895-2,2v14c0,1.105,0.895,2,2,2h21   C58.105,52,59,51.105,59,50z" style="fill:#758999;"/><path data-cppathid="10004" d="M62,48H34V36c0-1.105,0.895-2,2-2h24c1.105,0,2,0.895,2,2V48z" style="fill:#7FCDEE;"/><path data-cppathid="10005" d="M57,34H36c-1.105,0-2,0.895-2,2v12h25V36C59,34.895,58.105,34,57,34z" style="fill:#A9DDF3;"/><path data-cppathid="10006" d="M28,52H4c-1.105,0-2-0.895-2-2V36c0-1.105,0.895-2,2-2h24c1.105,0,2,0.895,2,2v14   C30,51.105,29.105,52,28,52z" style="fill:#586773;"/><path data-cppathid="10007" d="M27,50V36c0-1.105-0.895-2-2-2H4c-1.105,0-2,0.895-2,2v14c0,1.105,0.895,2,2,2h21   C26.105,52,27,51.105,27,50z" style="fill:#758999;"/><path data-cppathid="10008" d="M30,48H2V36c0-1.105,0.895-2,2-2h24c1.105,0,2,0.895,2,2V48z" style="fill:#7FCDEE;"/><path data-cppathid="10009" d="M25,34H4c-1.105,0-2,0.895-2,2v12h25V36C27,34.895,26.105,34,25,34z" style="fill:#A9DDF3;"/><rect data-cppathid="10010" height="16" width="14" style="fill:#BF5043;" y="26" x="9"/><rect data-cppathid="10011" height="16" width="11" style="fill:#FF6A59;" y="26" x="9"/><rect data-cppathid="10012" height="16" width="14" style="fill:#BFB563;" y="26" x="41"/><rect data-cppathid="10013" height="16" width="11" style="fill:#FFF284;" y="26" x="41"/><path data-cppathid="10014" d="M26,62H6v-2c0-1.105,0.895-2,2-2h16c1.105,0,2,0.895,2,2V62z" style="fill:#586773;"/><path data-cppathid="10015" d="M21,58H8c-1.105,0-2,0.895-2,2v2h17v-2C23,58.895,22.105,58,21,58z" style="fill:#758999;"/><path data-cppathid="10016" d="M58,62H38v-2c0-1.105,0.895-2,2-2h16c1.105,0,2,0.895,2,2V62z" style="fill:#586773;"/><path data-cppathid="10017" d="M53,58H40c-1.105,0-2,0.895-2,2v2h17v-2C55,58.895,54.105,58,53,58z" style="fill:#758999;"/><rect data-cppathid="10018" height="6" width="6" style="fill:#3B454D;" y="52" x="13"/><rect data-cppathid="10019" height="6" width="3" style="fill:#586773;" y="52" x="13"/><rect data-cppathid="10020" height="6" width="6" style="fill:#3B454D;" y="52" x="45"/><rect data-cppathid="10021" height="6" width="3" style="fill:#586773;" y="52" x="45"/><g><rect data-cppathid="10022" height="2" width="8" style="fill:#CCCCCC;" y="29" x="12"/></g><g><rect data-cppathid="10023" height="2" width="8" style="fill:#CCCCCC;" y="33" x="12"/></g><g><rect data-cppathid="10024" height="2" width="8" style="fill:#CCCCCC;" y="37" x="12"/></g><g><rect data-cppathid="10025" height="2" width="8" style="fill:#CCCCCC;" y="29" x="44"/></g><g><rect data-cppathid="10026" height="2" width="8" style="fill:#CCCCCC;" y="33" x="44"/></g><g><rect data-cppathid="10027" height="2" width="8" style="fill:#CCCCCC;" y="37" x="44"/></g><g><path data-cppathid="10028" d="M10,8c0,1.654,1.346,3,3,3c0.551,0,1,0.448,1,1s-0.449,1-1,1h-3v2h3c1.654,0,3-1.346,3-3    s-1.346-3-3-3c-0.551,0-1-0.448-1-1s0.449-1,1-1h3V5h-3C11.346,5,10,6.346,10,8z" style="fill:#CCCCCC;"/><path data-cppathid="10029" d="M22,12c0,0.552-0.449,1-1,1s-1-0.448-1-1V5h-2v7c0,1.654,1.346,3,3,3s3-1.346,3-3V5h-2V12z" style="fill:#CCCCCC;"/><path data-cppathid="10030" d="M27,15h2c1.654,0,3-1.346,3-3c0-0.771-0.301-1.468-0.78-2C31.699,9.468,32,8.771,32,8    c0-1.654-1.346-3-3-3h-2c-0.552,0-1,0.447-1,1v4v4C26,14.553,26.448,15,27,15z M29,13h-1v-2h1c0.551,0,1,0.448,1,1    S29.551,13,29,13z M28,7h1c0.551,0,1,0.448,1,1s-0.449,1-1,1h-1V7z" style="fill:#CCCCCC;"/><path data-cppathid="10031" d="M41.23,5.026c-0.454-0.104-0.917,0.111-1.125,0.526L38,9.764l-2.105-4.211    c-0.208-0.415-0.669-0.63-1.125-0.526C34.319,5.134,34,5.536,34,6v9h2v-4.764l1.105,2.211c0.339,0.678,1.45,0.678,1.789,0    L40,10.236V15h2V6C42,5.536,41.681,5.134,41.23,5.026z" style="fill:#CCCCCC;"/><rect data-cppathid="10032" height="10" width="2" style="fill:#CCCCCC;" y="5" x="44"/><polygon data-cppathid="10033" points="54,5 48,5 48,7 50,7 50,15 52,15 52,7 54,7   " style="fill:#CCCCCC;"/><path data-cppathid="10034" d="M34.707,20.293l-1.414,1.414L34.586,23h-5.172l1.293-1.293l-1.414-1.414l-3,3    c-0.391,0.391-0.391,1.023,0,1.414l3,3l1.414-1.414L29.414,25h5.172l-1.293,1.293l1.414,1.414l3-3    c0.391-0.391,0.391-1.023,0-1.414L34.707,20.293z" style="fill:#CCCCCC;"/></g></g></svg>