<?xml version="1.0" encoding="UTF-8"?>
<svg xmlns="http://www.w3.org/2000/svg" onmouseup="{ if(window.parent.document.onmouseup) window.parent.document.onmouseup(arguments[0]);}" width="512" viewBox="0 0 496.491 496.491" height="512" enable-background="new 0 0 496.491 496.491" id="Capa_1"><g><g><path data-cppathid="10000" fill="#e79098" d="m317.701 290.855 43.341 29.807c18.349 12.619 29.311 33.462 29.311 55.732v30.755c0 6.512-5.279 11.791-11.791 11.791h-245.111c-6.512 0-11.791-5.279-11.791-11.791v-30.755c0-22.27 10.962-43.113 29.311-55.732l43.341-29.807 18.227-12.882 43.967 17.679 43.893-17.679z"/><path data-cppathid="10001" fill="#ffd1c2" d="m218.882 198.388h74.249v104.784h-74.249z"/><path data-cppathid="10002" fill="#a59ca6" d="m307.533 37.461 5.41.805c27.368 4.07 46.333 29.45 42.478 56.85l-6.344 45.1-4.513 20.083h-66.748l-2.567-125.719h19.804z"/><path data-cppathid="10003" fill="#8f8390" d="m319.688 133.859 7.351-38.777c5.448-17.596 5.009-36.031-1.094-53.058-4.057-1.797-8.401-3.074-13.001-3.759l-5.41-.805-12.48-2.882h-19.804l2.567 125.719h7.449l1.319-.305z"/><path data-cppathid="10004" fill="#a59ca6" d="m305.994 125.559-26.064 20.577-103.914 24.007-11.386-32.031c-13.504-32.755-10.425-70.007 8.276-100.1 18.944-30.487 55.786-44.744 90.317-34.953l2.289.649c37.654 10.677 58.948 50.452 46.954 87.707z"/><path data-cppathid="10005" fill="#ffd1c2" d="m177.807 181.093c-11.869 0-21.491-9.622-21.491-21.491 0-11.869 9.622-21.491 21.491-21.491h45.197v42.982z"/><g><path data-cppathid="10006" fill="#ffd1c2" d="m334.205 181.093c11.869 0 21.491-9.622 21.491-21.491 0-11.869-9.622-21.491-21.491-21.491h-43.127v42.982z"/><path data-cppathid="10007" fill="#ffe0d1" d="m256.006 246.707c38.421 0 69.567-31.146 69.567-69.567v-48.478c0-17.338-7.564-33.813-20.712-45.115l-9.535-8.196c-2.215-1.904-5.474-1.954-7.746-.119l-10.178 8.221h-47.474c-24.017 0-43.487 19.47-43.487 43.487v50.199c-.002 38.422 31.144 69.568 69.565 69.568z"/><path data-cppathid="10008" fill="#ffd1c2" d="m226.146 105.374h60.711c5.056 0 9.959-1.733 13.892-4.91l8.613-6.956c1.025-.828 2.208-1.401 3.422-1.698-2.35-2.978-4.999-5.749-7.923-8.262l-9.535-8.196c-2.215-1.904-5.474-1.954-7.746-.118l-10.178 8.221h-47.474c-21.285 0-39.001 15.302-42.755 35.499 10.704-8.491 24.248-13.58 38.973-13.58z"/><path data-cppathid="10009" fill="#e17983" d="m263.506 418.94v-108.586c0-4.143-3.358-7.5-7.5-7.5s-7.5 3.357-7.5 7.5v108.586z"/><path data-cppathid="10010" fill="#e17983" d="m317.701 290.855-17.301-12.882-43.893 17.679-14.379-5.782-.049.025.041-.029-29.58-11.894-18.227 12.882-43.341 29.807c-18.349 12.62-29.311 33.462-29.311 55.732v30.755c0 6.512 5.279 11.791 11.791 11.791h18.534c-.005-.137-.021-.271-.021-.409v-30.755c0-22.27 10.962-43.112 29.311-55.732l10.957-7.535c3.142-2.161 7.43-1.455 9.714 1.599 3.622 4.843 8.894 8.307 14.857 9.314 3.554.6 7.157.365 10.558-.671l28.644-8.717 28.646 8.718c2.169.66 4.424.996 6.691.996 7.208 0 14.091-3.446 18.41-9.221l20.299-27.14c-.003-.016-.004-.024-.006-.039z"/><path data-cppathid="10011" fill="#f9f7f7" d="m218.882 266.762 37.124 18.203v25.389l-33.011 10.046c-3.22.98-6.708-.163-8.724-2.858l-19.959-26.686c-2.314-3.094-1.821-7.454 1.124-9.954l15.496-13.15c2.218-1.882 5.339-2.27 7.95-.99z"/><path data-cppathid="10012" fill="#f9f7f7" d="m293.13 266.762-37.124 18.203v25.389l33.011 10.046c3.22.98 6.708-.163 8.724-2.858l19.959-26.686c2.314-3.094 1.821-7.454-1.124-9.954l-15.496-13.15c-2.217-1.882-5.339-2.27-7.95-.99z"/><path data-cppathid="10013" fill="#fbe88c" d="m367.223 434.197 8.434 17.089c.351.711 1.029 1.204 1.814 1.318l18.859 2.74c1.976.287 2.765 2.715 1.335 4.109l-13.646 13.302c-.568.553-.827 1.351-.693 2.132l3.221 18.782c.338 1.968-1.728 3.469-3.495 2.539l-16.868-8.868c-.702-.369-1.54-.369-2.242 0l-16.868 8.868c-1.767.929-3.833-.572-3.495-2.539l3.221-18.782c.134-.781-.125-1.579-.693-2.132l-13.646-13.302c-1.43-1.394-.641-3.822 1.335-4.109l18.859-2.74c.785-.114 1.463-.607 1.814-1.318l8.434-17.089c.883-1.79 3.437-1.79 4.32 0z"/><path data-cppathid="10014" fill="#fbe88c" d="m144.789 434.197-8.434 17.089c-.351.711-1.029 1.204-1.814 1.318l-18.859 2.74c-1.976.287-2.765 2.715-1.335 4.109l13.646 13.302c.568.553.827 1.351.693 2.132l-3.221 18.782c-.338 1.968 1.728 3.469 3.495 2.539l16.868-8.868c.702-.369 1.54-.369 2.242 0l16.868 8.868c1.767.929 3.833-.572 3.495-2.539l-3.221-18.782c-.134-.781.125-1.579.693-2.132l13.646-13.302c1.43-1.394.641-3.822-1.335-4.109l-18.859-2.74c-.785-.114-1.463-.607-1.814-1.318l-8.434-17.089c-.883-1.79-3.436-1.79-4.32 0z"/><g fill="#e17983"><path data-cppathid="10015" d="m178.878 418.94v-42.35c0-4.143-3.358-7.5-7.5-7.5s-7.5 3.357-7.5 7.5v42.351h15z"/><path data-cppathid="10016" d="m348.134 376.59c0-4.143-3.358-7.5-7.5-7.5s-7.5 3.357-7.5 7.5c0 0-.066 39.338-.128 42.351h15c.039-1.823.128-42.351.128-42.351z"/></g></g><path data-cppathid="10017" fill="#fbe88c" d="m260.273 387.372 14.707 29.8c.612 1.24 1.795 2.099 3.163 2.298l32.886 4.779c3.446.501 4.822 4.735 2.328 7.165l-23.797 23.196c-.99.965-1.442 2.356-1.208 3.718l5.618 32.753c.589 3.432-3.013 6.049-6.095 4.428l-29.414-15.464c-1.224-.643-2.686-.643-3.91 0l-29.414 15.464c-3.082 1.62-6.684-.997-6.095-4.428l5.618-32.753c.234-1.363-.218-2.753-1.208-3.718l-23.797-23.196c-2.493-2.43-1.117-6.665 2.328-7.165l32.886-4.779c1.368-.199 2.551-1.058 3.163-2.298l14.707-29.8c1.541-3.122 5.993-3.122 7.534 0z"/><path data-cppathid="10018" fill="#fbe372" d="m293.971 491.082-.858-5-33.325-17.52c-1.439-.756-3.158-.756-4.596 0l-17.91 9.416c-1.754.922-3.804-.567-3.469-2.521l4.197-24.474c.234-1.363-.218-2.753-1.208-3.718l-11.615-11.322c-2.177-2.122-.976-5.82 2.033-6.258l18.96-2.755c1.368-.199 2.551-1.058 3.163-2.298l14.66-29.704-3.73-7.557c-1.541-3.122-5.993-3.122-7.534 0l-14.707 29.8c-.612 1.24-1.795 2.099-3.163 2.298l-32.886 4.779c-3.446.501-4.821 4.735-2.328 7.165l23.797 23.196c.99.965 1.442 2.355 1.208 3.718l-5.618 32.753c-.589 3.432 3.013 6.049 6.095 4.429l29.414-15.464c1.224-.643 2.686-.643 3.91 0l29.414 15.464c3.082 1.622 6.684-.995 6.096-4.427z"/></g><g fill="#fbe88c"><path data-cppathid="10019" d="m374.197 304.876c-3.969 10.111-11.355 17.322-21.791 21.941-2.238.99-2.157 4.172.116 5.077 10.024 3.992 17.442 11.047 21.59 21.917.861 2.255 3.927 2.447 5.046.308 5.078-9.712 12.913-16.976 23.097-22.156 2.017-1.026 2.041-3.862.041-4.92-10.224-5.41-17.958-12.854-23.119-22.402-1.11-2.053-4.127-1.937-4.98.235z"/><path data-cppathid="10020" d="m114.846 214.169c-3.75 9.554-10.73 16.369-20.592 20.733-2.114.936-2.038 3.942.11 4.798 9.472 3.773 16.482 10.439 20.402 20.711.813 2.131 3.711 2.312 4.768.291 4.798-9.177 12.202-16.042 21.826-20.937 1.906-.97 1.929-3.649.039-4.65-9.661-5.112-16.969-12.147-21.847-21.169-1.049-1.939-3.901-1.83-4.706.223z"/></g></g></svg>