<?xml version="1.0" encoding="UTF-8"?>
<svg xmlns="http://www.w3.org/2000/svg" onmouseup="{ if(window.parent.document.onmouseup) window.parent.document.onmouseup(arguments[0]);}" width="480pt" viewBox="-48 0 480 480" height="480pt"><path data-cppathid="10000" fill="#e2c8ac" d="m312 8h-288c-8.800781 0-16 7.199219-16 16v384l64 64h240c8.800781 0 16-7.199219 16-16v-432c0-8.800781-7.199219-16-16-16zm0 0"/><path data-cppathid="10001" fill="#ceb195" d="m56 408h-48l64 64v-48c0-8.800781-7.199219-16-16-16zm0 0"/><path data-cppathid="10002" fill="#5b4349" d="m371.199219 387.199219-163.199219-163.199219-24 24 163.199219 163.199219c6.402343 6.402343 17.601562 6.402343 24 0 6.402343-6.398438 6.402343-17.597657 0-24zm0 0"/><path data-cppathid="10003" fill="#704d4d" d="m71.789062 239.71875 119.925782-119.925781 63.921875 63.921875-119.925781 119.925781zm0 0"/><path data-cppathid="10004" fill="#5b4349" d="m284.800781 156.800781-65.601562-65.601562c-6.398438-6.398438-16-6.398438-22.398438 0-3.199219 3.199219-4.800781 7.199219-4.800781 11.199219v17.601562l64 64h17.601562c8.796876 0 16-7.199219 16-16 0-4-1.601562-8-4.800781-11.199219zm0 0"/><path data-cppathid="10005" fill="#5b4349" d="m54.398438 240c-8.796876 0-16 7.199219-16 16 0 4 1.601562 8 4.800781 11.199219l65.601562 65.601562c6.398438 6.398438 16 6.398438 22.398438 0 3.199219-3.199219 4.800781-7.199219 4.800781-11.199219v-17.601562l-64-64zm0 0"/><path data-cppathid="10006" fill="#8e6a65" d="m242.421875 74.265625 15.835937-15.839844 11.316407 11.3125-15.839844 15.839844zm0 0"/><path data-cppathid="10007" fill="#8e6a65" d="m266.5 98.183594 32.246094-32.242188 11.3125 11.3125-32.242188 32.242188zm0 0"/><path data-cppathid="10008" fill="#8e6a65" d="m290.582031 122.101562 48.082031-48.082031 11.3125 11.316407-48.082031 48.082031zm0 0"/><g fill="#5da364"><path data-cppathid="10009" d="m120 40h96v16h-96zm0 0"/><path data-cppathid="10010" d="m40 80h128v16h-128zm0 0"/><path data-cppathid="10011" d="m40 120h96v16h-96zm0 0"/><path data-cppathid="10012" d="m40 160h64v16h-64zm0 0"/><path data-cppathid="10013" d="m40 200h24v16h-24zm0 0"/><path data-cppathid="10014" d="m40 360h224v16h-224zm0 0"/><path data-cppathid="10015" d="m104 392h192v16h-192zm0 0"/><path data-cppathid="10016" d="m104 424h192v16h-192zm0 0"/></g><path data-cppathid="10017" d="m376.800781 381.601562-40.800781-40.800781v-204.800781h-16v188.800781l-96.800781-96.800781 36-36h14.402343c13.597657 0 24-10.398438 24-24 0-6.398438-2.402343-12.800781-7.203124-16.800781l-65.597657-65.597657c-9.601562-9.601562-24.800781-9.601562-33.601562 0-4.800781 4.796876-7.199219 10.398438-7.199219 16.796876v14.402343l-115.199219 115.199219h-14.402343c-13.597657 0-24 10.398438-24 24 0 6.398438 2.402343 12.800781 7.203124 16.800781l65.597657 65.597657c9.601562 9.601562 24.800781 9.601562 33.601562 0 4.800781-4.796876 7.199219-10.398438 7.199219-16.796876v-14.402343l44-44 132 132v60.800781c0 4.800781-3.199219 8-8 8h-232v-40c0-13.601562-10.398438-24-24-24h-40v-376c0-4.800781 3.199219-8 8-8h288c4.800781 0 8 3.199219 8 8v32h16v-32c0-13.601562-10.398438-24-24-24h-288c-13.601562 0-24 10.398438-24 24v387.199219l68.800781 68.800781h243.199219c13.601562 0 24-10.398438 24-24v-44.800781l5.601562 5.601562c9.597657 9.597657 25.597657 9.597657 35.199219 0 9.597657-9.601562 9.597657-25.601562 0-35.199219zm-312.800781 42.398438v28.800781l-36.800781-36.800781h28.800781c4.800781 0 8 3.199219 8 8zm138.398438-327.199219c3.203124-3.199219 8-3.199219 11.203124 0l65.597657 65.597657c3.199219 3.203124 3.199219 8 0 11.203124-1.597657 1.597657-3.199219 2.398438-5.597657 2.398438h-14.402343l-59.199219-59.199219v-14.402343c0-1.597657.800781-4 2.398438-5.597657zm-10.398438 34.398438 52.800781 52.800781-108.800781 108.800781-52.800781-52.800781zm-66.398438 196c-3.203124 3.199219-8 3.199219-11.203124 0l-65.597657-65.597657c-3.199219-3.203124-3.199219-8 0-11.203124 1.597657-1.597657 3.199219-2.398438 5.597657-2.398438h14.402343l59.199219 59.199219v14.402343c0 1.597657-.800781 4-2.398438 5.597657zm233.597657 80.800781c-2.398438 0-4.800781-.800781-6.398438-2.398438l-153.601562-153.601562 12.800781-12.800781 153.601562 153.601562c3.199219 3.199219 3.199219 8.800781 0 12.800781-1.601562 1.597657-4 2.398438-6.402343 2.398438zm0 0"/><path data-cppathid="10018" d="m242.421875 74.265625 15.835937-15.839844 11.316407 11.3125-15.839844 15.839844zm0 0"/><path data-cppathid="10019" d="m266.5 98.183594 32.246094-32.242188 11.3125 11.3125-32.242188 32.242188zm0 0"/><path data-cppathid="10020" d="m290.582031 122.101562 48.082031-48.082031 11.3125 11.316407-48.082031 48.082031zm0 0"/><path data-cppathid="10021" d="m120 40h96v16h-96zm0 0"/><path data-cppathid="10022" d="m40 80h128v16h-128zm0 0"/><path data-cppathid="10023" d="m40 120h96v16h-96zm0 0"/><path data-cppathid="10024" d="m40 160h64v16h-64zm0 0"/><path data-cppathid="10025" d="m40 200h24v16h-24zm0 0"/><path data-cppathid="10026" d="m40 360h224v16h-224zm0 0"/><path data-cppathid="10027" d="m104 392h192v16h-192zm0 0"/><path data-cppathid="10028" d="m104 424h192v16h-192zm0 0"/></svg>