<?xml version="1.0" encoding="UTF-8"?>
<svg xmlns="http://www.w3.org/2000/svg" onmouseup="{ if(window.parent.document.onmouseup) window.parent.document.onmouseup(arguments[0]);}" width="512" viewBox="0 0 520 520" height="512" enable-background="new 0 0 520 520"><g id="_x38_10_x2C__Auction_x2C__Court_x2C__Justice"><g><g><path data-cppathid="10000" fill="#414a56" d="m450 327v150h-365v-150z"/><path data-cppathid="10001" fill="#ecebed" d="m125 362h285v80h-285z"/><path data-cppathid="10002" fill="#ff5856" d="m412.779 279h-60.549v-54.11c0-4.85-.541-9.57-1.57-14.11 9.07-7.7 20.8-12.34 33.619-12.34h4.33 4.341c28.75 0 52.05 23.31 52.05 52.06v28.5z"/><path data-cppathid="10003" fill="#7da8ff" d="m224.45 279h-51.11v-54.11c0-35.004 28.349-63.67 63.66-63.67h51.561c35.153 0 63.67 28.506 63.67 63.67v54.11h-51.121z"/><path data-cppathid="10004" fill="#ff5856" d="m112.22 279h-32.22v-28.5c0-28.75 23.31-52.06 52.05-52.06h4.34 4.34c13.05 0 24.96 4.82 34.09 12.74-.97 4.42-1.48 9-1.48 13.71v54.11z"/><path data-cppathid="10005" fill="#5085fe" d="m224.45 284c-2.761 0-5-2.238-5-5v-28.33c0-2.761 2.239-5 5-5s5 2.239 5 5v28.33c0 2.762-2.239 5-5 5z"/><path data-cppathid="10006" fill="#5085fe" d="m301.109 284c-2.761 0-5-2.238-5-5v-28.33c0-2.761 2.239-5 5-5 2.762 0 5 2.239 5 5v28.33c0 2.762-2.238 5-5 5z"/><path data-cppathid="10007" fill="#db4040" d="m412.779 284c-2.761 0-5-2.238-5-5v-24.17c0-2.761 2.239-5 5-5 2.762 0 5 2.239 5 5v24.17c0 2.762-2.238 5-5 5z"/><path data-cppathid="10008" fill="#db4040" d="m112.22 284c-2.761 0-5-2.238-5-5v-24.17c0-2.761 2.239-5 5-5s5 2.239 5 5v24.17c0 2.762-2.239 5-5 5z"/><path data-cppathid="10009" fill="#fc974d" d="m455 63c11.05 0 20 8.95 20 20s-8.95 20-20 20c-11.04 0-20-8.95-20-20s8.96-20 20-20z"/><circle data-cppathid="10010" r="30" fill="#fc974d" cy="73" cx="90"/><path data-cppathid="10011" fill="#57606f" d="m475 278v50c-19.094 0-402.095 0-415 0v-50z"/><path data-cppathid="10012" fill="#eab883" d="m388.609 134c17.801 0 32.23 14.43 32.23 32.22 0 17.8-14.43 32.22-32.23 32.22-17.789 0-32.219-14.42-32.219-32.22.001-17.79 14.43-32.22 32.219-32.22z"/><circle data-cppathid="10013" r="51.11" fill="#eab883" cy="110.11" cx="262.779"/><path data-cppathid="10014" fill="#eab883" d="m136.39 134c17.8 0 32.22 14.43 32.22 32.22 0 17.8-14.42 32.22-32.22 32.22-17.79 0-32.22-14.42-32.22-32.22 0-17.79 14.43-32.22 32.22-32.22z"/><g fill="#bdf9ff"><path data-cppathid="10015" d="m457.5 168c4.15 0 7.5 3.36 7.5 7.5s-3.35 7.5-7.5 7.5c-4.141 0-7.5-3.36-7.5-7.5s3.359-7.5 7.5-7.5z"/><path data-cppathid="10016" d="m337.5 73c4.15 0 7.5 3.36 7.5 7.5s-3.35 7.5-7.5 7.5c-4.141 0-7.5-3.36-7.5-7.5s3.359-7.5 7.5-7.5z"/><path data-cppathid="10017" d="m182.5 43c4.15 0 7.5 3.36 7.5 7.5s-3.35 7.5-7.5 7.5c-4.14 0-7.5-3.36-7.5-7.5s3.36-7.5 7.5-7.5z"/><path data-cppathid="10018" d="m57.5 128c4.15 0 7.5 3.36 7.5 7.5s-3.35 7.5-7.5 7.5c-4.14 0-7.5-3.36-7.5-7.5s3.36-7.5 7.5-7.5z"/><path data-cppathid="10019" d="m52.5 213c4.15 0 7.5 3.36 7.5 7.5s-3.35 7.5-7.5 7.5c-4.14 0-7.5-3.36-7.5-7.5s3.36-7.5 7.5-7.5z"/></g></g></g></g></svg>