<?xml version="1.0" encoding="UTF-8"?>
<svg xmlns="http://www.w3.org/2000/svg" onmouseup="{ if(window.parent.document.onmouseup) window.parent.document.onmouseup(arguments[0]);}" width="480pt" viewBox="0 0 480 480" height="480pt"><path data-cppathid="10000" fill="#ccc" d="m377.566406 113.742188-11.132812-11.484376-126.257813 122.429688-122.433593-126.253906-11.484376 11.132812 122.429688 126.257813-126.253906 122.433593 11.132812 11.484376 126.257813-122.429688 122.433593 126.253906 11.484376-11.132812-122.429688-126.257813zm0 0"/><path data-cppathid="10001" fill="#89d8f9" d="m344 240c0 57.4375-46.5625 104-104 104s-104-46.5625-104-104 46.5625-104 104-104 104 46.5625 104 104zm0 0"/><path data-cppathid="10002" fill="#c0c0c0" d="m288 332.207031c33.257812-17.351562 56-52.09375 56-92.207031h-56zm0 0"/><path data-cppathid="10003" fill="#c0c0c0" d="m192 332.207031c-33.257812-17.351562-56-52.09375-56-92.207031h56zm0 0"/><path data-cppathid="10004" fill="#ccc" d="m192 192v140.207031c14.367188 7.496094 30.671875 11.792969 48 11.792969s33.632812-4.296875 48-11.792969v-140.207031zm0 0"/><path data-cppathid="10005" fill="#b3b5b0" d="m184 327.542969c2.59375 1.664062 5.257812 3.234375 8 4.664062v-92.207031h-8zm0 0"/><path data-cppathid="10006" fill="#b3b5b0" d="m296 327.542969c-2.59375 1.664062-5.257812 3.234375-8 4.664062v-92.207031h8zm0 0"/><path data-cppathid="10007" fill="#31bdf9" d="m240 304c-8.800781 0-16 7.199219-16 16v22.648438c5.230469.808593 10.542969 1.351562 16 1.351562s10.769531-.542969 16-1.351562v-22.648438c0-4.398438-1.761719-8.398438-4.71875-11.28125-2.882812-2.957031-6.882812-4.71875-11.28125-4.71875zm0 0"/><path data-cppathid="10008" fill="#31bdf9" d="m144 72c0 39.765625-32.234375 72-72 72s-72-32.234375-72-72 32.234375-72 72-72 72 32.234375 72 72zm0 0"/><path data-cppathid="10009" fill="#f25f5c" d="m89.761719 72c4.878906-5.441406 7.4375-12.960938 5.679687-21.121094-2-9.359375-9.761718-16.878906-19.203125-18.480468-15.117187-2.636719-28.238281 8.960937-28.238281 23.601562 0 6.160156 2.398438 11.761719 6.238281 16-6.160156 0-11.679687 2.480469-15.757812 6.480469-4 4.078125-6.480469 9.597656-6.480469 15.757812v37.617188c11.441406 7.664062 25.191406 12.144531 40 12.144531s28.558594-4.480469 40-12.144531v-37.617188c0-12.316406-9.921875-22.238281-22.238281-22.238281zm0 0"/><path data-cppathid="10010" fill="#31bdf9" d="m480 72c0 39.765625-32.234375 72-72 72s-72-32.234375-72-72 32.234375-72 72-72 72 32.234375 72 72zm0 0"/><path data-cppathid="10011" fill="#f25f5c" d="m425.761719 72c4.878906-5.441406 7.4375-12.960938 5.679687-21.121094-2-9.359375-9.761718-16.878906-19.203125-18.480468-15.117187-2.636719-28.238281 8.960937-28.238281 23.601562 0 6.160156 2.398438 11.761719 6.238281 16-6.160156 0-11.679687 2.480469-15.757812 6.480469-4 4.078125-6.480469 9.597656-6.480469 15.757812v37.617188c11.441406 7.664062 25.191406 12.144531 40 12.144531s28.558594-4.480469 40-12.144531v-37.617188c0-12.316406-9.921875-22.238281-22.238281-22.238281zm0 0"/><path data-cppathid="10012" fill="#31bdf9" d="m144 408c0 39.765625-32.234375 72-72 72s-72-32.234375-72-72 32.234375-72 72-72 72 32.234375 72 72zm0 0"/><path data-cppathid="10013" fill="#f25f5c" d="m89.761719 408c4.878906-5.441406 7.4375-12.960938 5.679687-21.121094-2-9.359375-9.761718-16.878906-19.203125-18.480468-15.117187-2.636719-28.238281 8.960937-28.238281 23.601562 0 6.160156 2.398438 11.761719 6.238281 16-6.160156 0-11.679687 2.480469-15.757812 6.480469-4 4.078125-6.480469 9.597656-6.480469 15.757812v37.617188c11.441406 7.664062 25.191406 12.144531 40 12.144531s28.558594-4.480469 40-12.144531v-37.617188c0-12.316406-9.921875-22.238281-22.238281-22.238281zm0 0"/><path data-cppathid="10014" fill="#31bdf9" d="m480 408c0 39.765625-32.234375 72-72 72s-72-32.234375-72-72 32.234375-72 72-72 72 32.234375 72 72zm0 0"/><path data-cppathid="10015" fill="#f25f5c" d="m425.761719 408c4.878906-5.441406 7.4375-12.960938 5.679687-21.121094-2-9.359375-9.761718-16.878906-19.203125-18.480468-15.117187-2.636719-28.238281 8.960937-28.238281 23.601562 0 6.160156 2.398438 11.761719 6.238281 16-6.160156 0-11.679687 2.480469-15.757812 6.480469-4 4.078125-6.480469 9.597656-6.480469 15.757812v37.617188c11.441406 7.664062 25.191406 12.144531 40 12.144531s28.558594-4.480469 40-12.144531v-37.617188c0-12.316406-9.921875-22.238281-22.238281-22.238281zm0 0"/><g fill="#31bdf9"><path data-cppathid="10016" d="m216 216h48v16h-48zm0 0"/><path data-cppathid="10017" d="m216 256h48v16h-48zm0 0"/><path data-cppathid="10018" d="m341.105469 264h-37.105469v16h32c2.144531-5.128906 3.800781-10.496094 5.105469-16zm0 0"/><path data-cppathid="10019" d="m144 280h32v-16h-37.105469c1.304688 5.503906 2.960938 10.871094 5.105469 16zm0 0"/></g><path data-cppathid="10020" fill="#bf4b48" d="m56 104h8v24h16v-24h8v-16h-32zm0 0"/><path data-cppathid="10021" fill="#bf4b48" d="m392 104h8v24h16v-24h8v-16h-32zm0 0"/><path data-cppathid="10022" fill="#bf4b48" d="m56 440h8v24h16v-24h8v-16h-32zm0 0"/><path data-cppathid="10023" fill="#bf4b48" d="m392 440h8v24h16v-24h8v-16h-32zm0 0"/></svg>