<?xml version="1.0" encoding="UTF-8"?>
<svg xmlns="http://www.w3.org/2000/svg" onmouseup="{ if(window.parent.document.onmouseup) window.parent.document.onmouseup(arguments[0]);}" width="512" viewBox="0 0 64 64" height="512" enable-background="new 0 0 64 64" id="Layer_35"><path data-cppathid="10000" fill="#e6e9ed" d="m16 10h44v38h-44z"/><path data-cppathid="10001" fill="#969faa" d="m40 23v4h-8v-4h4z"/><path data-cppathid="10002" fill="#969faa" d="m40 27c2.96 1.47 5 4.47 5 8 0 4.97-4.03 9-9 9s-9-4.03-9-9c0-3.53 2.04-6.53 5-8z"/><path data-cppathid="10003" fill="#fcd770" d="m51 6h-26c0-2.21 1.79-4 4-4h18c2.21 0 4 1.79 4 4z"/><path data-cppathid="10004" fill="#ffeaa7" d="m62 7v2c0 .55-.45 1-1 1h-1-44-1c-.55 0-1-.45-1-1v-2c0-.55.45-1 1-1h10 26 10c.55 0 1 .45 1 1z"/><path data-cppathid="10005" fill="#b4dd7f" d="m7 62h-5v-4c0-3.86 1.57-7.36 4.1-9.9.58-.58 1.22-1.11 1.9-1.58l1 4.48 2 2-1 2 4 7z"/><path data-cppathid="10006" fill="#b4dd7f" d="m25 62h-7l4-7-1-2 2-2 .94-4.53c.66.46 1.29.97 1.86 1.53 2.59 2.55 4.2 6.09 4.2 10v4z"/><path data-cppathid="10007" fill="#a0d468" d="m11.02 44.92 4.98 17.08h-2l-4-7 1-2-2-2-1-4.48v-.01c.93-.65 1.94-1.18 3.02-1.59z"/><path data-cppathid="10008" fill="#a0d468" d="m18 62h-2l4.98-17.08c1.05.4 2.05.92 2.96 1.55l-.94 4.53-2 2 1 2z"/><path data-cppathid="10009" fill="#ccd1d9" d="m20.98 44.92-4.98 17.08-4.98-17.08c1.55-.6 3.23-.92 4.98-.92s3.43.32 4.98.92z"/><circle data-cppathid="10010" r="7" fill="#f0d0b4" cy="37" cx="16"/><path data-cppathid="10011" d="m61 5h-9.101c-.465-2.279-2.485-4-4.899-4h-18c-2.414 0-4.434 1.721-4.899 4h-9.101c-1.103 0-2 .897-2 2v2c0 1.103.897 2 2 2v18.069c-3.94.495-7 3.859-7 7.931 0 2.78 1.427 5.231 3.585 6.665-6.123 1.89-10.585 7.6-10.585 14.335v5h30v-5c0-3.379-1.136-6.49-3.028-9h33.028v-38c1.103 0 2-.897 2-2v-2c0-1.103-.897-2-2-2zm-32-2h18c1.302 0 2.402.839 2.816 2h-23.632c.414-1.161 1.514-2 2.816-2zm-19 34c0-3.309 2.691-6 6-6s6 2.691 6 6-2.691 6-6 6-6-2.691-6-6zm10.866 17.969-3.446 6.031h-.087l4.286-14.705c.411.198.81.417 1.196.656l-.734 3.554-2.298 2.298zm-6.286 6.031-3.446-6.031 1.083-2.166-2.304-2.304-.782-3.515c.403-.252.82-.481 1.25-.688l4.286 14.704zm5.171-15.443-3.751 12.869-3.751-12.869c1.189-.359 2.447-.557 3.751-.557s2.562.198 3.751.557zm-16.751 12.443c0-3.857 1.698-7.316 4.374-9.699l.713 3.2 1.696 1.696-.917 1.834 3.411 5.969h-4.277v-5h-2v5h-3zm26 3h-3v-5h-2v5h-4.277l3.411-5.969-.917-1.834 1.702-1.702.667-3.23c2.7 2.384 4.414 5.859 4.414 9.735zm30-14h-32.836c-1.628-1.505-3.579-2.665-5.749-3.335 2.158-1.434 3.585-3.885 3.585-6.665 0-4.072-3.06-7.436-7-7.931v-18.069h42zm2-38h-46v-2h46z"/><path data-cppathid="10012" d="m26 35c0 5.514 4.486 10 10 10s10-4.486 10-10c0-3.567-1.909-6.784-5-8.57v-4.43h-4c0-3.859 3.141-7 7-7s7 3.141 7 7v3h2v-3c0-4.963-4.037-9-9-9s-9 4.037-9 9h-4v4.43c-3.091 1.786-5 5.003-5 8.57zm13-11v2h-6v-2zm-6.758 4h7.516c2.623 1.396 4.242 4.058 4.242 7 0 4.411-3.589 8-8 8s-8-3.589-8-8c0-2.942 1.619-5.604 4.242-7z"/><path data-cppathid="10013" d="m51 31h2v2h-2z"/><path data-cppathid="10014" d="m53 29h2v2h-2z"/><path data-cppathid="10015" d="m49 29h2v2h-2z"/><path data-cppathid="10016" d="m51 27h2v2h-2z"/><path data-cppathid="10017" d="m47 35h10v2h-10z"/><path data-cppathid="10018" d="m47 39h10v2h-10z"/><path data-cppathid="10019" d="m47 43h2v2h-2z"/><path data-cppathid="10020" d="m51 43h2v2h-2z"/><path data-cppathid="10021" d="m55 43h2v2h-2z"/><path data-cppathid="10022" d="m19 13h2v2h-2z"/><path data-cppathid="10023" d="m23 13h2v2h-2z"/><path data-cppathid="10024" d="m27 13h2v2h-2z"/><path data-cppathid="10025" d="m19 17h10v2h-10z"/><path data-cppathid="10026" d="m19 21h10v2h-10z"/><path data-cppathid="10027" d="m36 41v-2c-2.206 0-4-1.794-4-4h-2c0 3.309 2.691 6 6 6z"/></svg>