<?xml version="1.0" encoding="UTF-8"?>
<svg xmlns="http://www.w3.org/2000/svg" onmouseup="{ if(window.parent.document.onmouseup) window.parent.document.onmouseup(arguments[0]);}" width="512" viewBox="0 0 64 64" height="512"><g data-name="Fill Outline" id="Fill_Outline"><g id="Color"><g><path data-cppathid="10000" fill="#f9e109" d="m17 31a15 15 0 0 1 30 0h7a21.938 21.938 0 0 0 -1.264-7.353l5.513-3.183-4-6.928-5.519 3.186a22.176 22.176 0 0 0 -2.452-2.452l3.186-5.519-6.928-4-3.183 5.513a21.678 21.678 0 0 0 -3.353-.894v-6.37h-8v6.37a21.678 21.678 0 0 0 -3.353.894l-3.183-5.513-6.928 4 3.186 5.519a22.176 22.176 0 0 0 -2.452 2.452l-5.519-3.186-4 6.928 5.513 3.183a21.938 21.938 0 0 0 -1.264 7.353z"/><path data-cppathid="10001" fill="#fcbc04" d="m30.79 16.05a15.006 15.006 0 0 0 -13.79 14.95h-7a22.074 22.074 0 0 1 1.26-7.35l-5.51-3.19 4-6.92 5.52 3.18a21.8 21.8 0 0 1 2.45-2.45l-3.18-5.52 3.78-2.19c2.09 3.92 6.56 7.27 12.47 9.49z"/><path data-cppathid="10002" fill="#fcbc04" d="m52.74 23.65a22.074 22.074 0 0 1 1.26 7.35h-7a14.966 14.966 0 0 0 -6.81-12.56 53.367 53.367 0 0 0 7.81.56 52.863 52.863 0 0 0 8.97-.75l1.28 2.21z"/><g><path data-cppathid="10003" fill="#57b7eb" d="m12 22a8 8 0 0 1 8 8v2a6 6 0 0 1 -6 6h-10a0 0 0 0 1 0 0v-8a8 8 0 0 1 8-8z"/><path data-cppathid="10004" fill="#4891d3" d="m19.65 34a5.981 5.981 0 0 1 -5.65 4h-10v-8a8 8 0 0 1 8-8 7.673 7.673 0 0 1 1.37.12 4.923 4.923 0 0 0 -.37 1.88 5 5 0 0 0 3.21 4.67 2.741 2.741 0 0 1 1.79 2.55 1.567 1.567 0 0 1 -.12.6 1.59 1.59 0 0 0 1.48 2.18z"/><g><path data-cppathid="10005" fill="#a1d51c" d="m9 35h6a6 6 0 0 1 6 6v10a0 0 0 0 1 0 0h-18a0 0 0 0 1 0 0v-10a6 6 0 0 1 6-6z"/><path data-cppathid="10006" fill="#7ab92d" d="m21 45v6h-18v-10a5.99 5.99 0 0 1 5-5.91v.91a9 9 0 0 0 7 8.77v-2.77a2.006 2.006 0 0 1 2-2v5z"/><path data-cppathid="10007" fill="#5ba006" d="m7 40a0 0 0 0 1 0 0v4a0 0 0 0 1 0 0h-1a0 0 0 0 1 0 0v-3a1 1 0 0 1 1-1z"/></g><path data-cppathid="10008" fill="#f9e109" d="m17 44h4v7h-4z"/><path data-cppathid="10009" fill="#f9e109" d="m3 44h4v7h-4z"/><path data-cppathid="10010" fill="#fcbc04" d="m19 47v2a2.006 2.006 0 0 0 2 2h-4v-7h4v1a2.006 2.006 0 0 0 -2 2z"/><path data-cppathid="10011" fill="#fcbc04" d="m7 44v7h-4a2.006 2.006 0 0 0 2-2v-2a2.006 2.006 0 0 0 -2-2v-1z"/><path data-cppathid="10012" fill="#7ab92d" d="m11 36a3.919 3.919 0 0 1 -2.58-.97 5.49 5.49 0 0 1 .58-.03h4.61a3.873 3.873 0 0 1 -2.61 1z"/><path data-cppathid="10013" fill="#fcbc04" d="m14 36.945-2.036 2-1.964-2v-4h4z"/><path data-cppathid="10014" fill="#e59730" d="m14 34.63a4.038 4.038 0 0 1 -1.84 1.18 4.005 4.005 0 0 0 1.84 1.06v.07l-2.04 2-1.96-2v-4h4z"/><path data-cppathid="10015" fill="#f9e109" d="m15.99 30.97a4.1 4.1 0 0 1 -3.6 4.01 4 4 0 0 1 -4.39-3.98v-1a3 3 0 0 1 3-3h1.03a4.478 4.478 0 0 0 3.96 3.97z"/><path data-cppathid="10016" fill="#fcbc04" d="m10 29v1a4 4 0 0 0 4.39 3.98 2.512 2.512 0 0 0 .27-.04 3.917 3.917 0 0 1 -2.27 1.04 4 4 0 0 1 -4.39-3.98v-1a3 3 0 0 1 3-3h1.03a4.478 4.478 0 0 0 3.96 3.97 4.08 4.08 0 0 1 -.15.98 4.47 4.47 0 0 1 -3.81-3.95h-1.03a3.036 3.036 0 0 0 -.86.14 3.036 3.036 0 0 0 -.14.86z"/></g><g><path data-cppathid="10017" fill="#57b7eb" d="m19 41h6a6 6 0 0 1 6 6v8a0 0 0 0 1 0 0h-18a0 0 0 0 1 0 0v-8a6 6 0 0 1 6-6z"/><path data-cppathid="10018" fill="#4891d3" d="m31 51v4h-18v-8a6 6 0 0 1 5.07-5.92 10.861 10.861 0 0 0 1.75 4.98l.02-.07a1.175 1.175 0 0 1 2.32 0l.5 2.99a11.217 11.217 0 0 0 2.34 1.26v-2.24a2.006 2.006 0 0 1 2-2v4.81a11.023 11.023 0 0 0 2 .19z"/><path data-cppathid="10019" fill="#4891d3" d="m21 42a3.966 3.966 0 0 1 -2.59-.97 5.683 5.683 0 0 1 .59-.03h4.63a3.954 3.954 0 0 1 -2.63 1z"/><path data-cppathid="10020" fill="#fcbc04" d="m24 42.945-2.036 2-1.964-2v-4h4z"/><path data-cppathid="10021" fill="#e59730" d="m24 40.63a3.987 3.987 0 0 1 -2.66 1.34 4 4 0 0 0 2.6 1.03l-1.98 1.94-1.96-2v-4h4z"/><path data-cppathid="10022" fill="#f9e109" d="m18 33h8a0 0 0 0 1 0 0v4a4 4 0 0 1 -4 4 4 4 0 0 1 -4-4v-4a0 0 0 0 1 0 0z"/><path data-cppathid="10023" fill="#57b7eb" d="m18 29h4a4 4 0 0 1 4 4 0 0 0 0 1 0 0h-8a0 0 0 0 1 0 0v-4a0 0 0 0 1 0 0z"/><path data-cppathid="10024" fill="#fcbc04" d="m21 35v1a3.989 3.989 0 0 0 3.66 3.98 3.95 3.95 0 0 1 -2.66 1.02 4 4 0 0 1 -4-4v-4h8v2z"/><path data-cppathid="10025" fill="#4891d3" d="m26 33h-8v-4h1.18a2.968 2.968 0 0 0 2.82 2h3.46a3.989 3.989 0 0 1 .54 2z"/><path data-cppathid="10026" fill="#2d72bc" d="m17 46a0 0 0 0 1 0 0v9a0 0 0 0 1 0 0h-1a0 0 0 0 1 0 0v-8a1 1 0 0 1 1-1z"/><path data-cppathid="10027" fill="#a1d51c" d="m24 51-1.9 3-2.1-3 .836-5.014a1.179 1.179 0 0 1 1.164-.986 1.179 1.179 0 0 1 1.164.986z"/><path data-cppathid="10028" fill="#7ab92d" d="m23.72 51.44-1.62 2.56-2.1-3 .84-5.01a1.171 1.171 0 0 1 1.95-.68l-.66 3.92a1.628 1.628 0 0 0 -.03.31 1.937 1.937 0 0 0 1.62 1.9z"/></g><g><path data-cppathid="10029" fill="#57b7eb" d="m52 27a8 8 0 0 1 8 8v9a0 0 0 0 1 0 0h-16a0 0 0 0 1 0 0v-9a8 8 0 0 1 8-8z"/><path data-cppathid="10030" fill="#4891d3" d="m60 40.46v3.54h-16v-9a8 8 0 0 1 8-8 6 6 0 0 0 3.66 5.53 4 4 0 0 1 2.34 3.72v.75a3.98 3.98 0 0 0 2 3.46z"/><path data-cppathid="10031" fill="#a1d51c" d="m49 41h6a6 6 0 0 1 6 6v8a0 0 0 0 1 0 0h-18a0 0 0 0 1 0 0v-8a6 6 0 0 1 6-6z"/><path data-cppathid="10032" fill="#7ab92d" d="m61 51v4h-18v-8a5.99 5.99 0 0 1 5-5.91v.91a9 9 0 0 0 7 8.77v-2.77a2.006 2.006 0 0 1 2-2v5z"/><path data-cppathid="10033" fill="#7ab92d" d="m51 42a3.919 3.919 0 0 1 -2.58-.97 5.49 5.49 0 0 1 .58-.03h4.61a3.873 3.873 0 0 1 -2.61 1z"/><path data-cppathid="10034" fill="#fcbc04" d="m54 42.945-2.036 2-1.964-2v-4h4z"/><path data-cppathid="10035" fill="#f9e109" d="m57 50h4v5h-4z"/><path data-cppathid="10036" fill="#f9e109" d="m43 50h4v5h-4z"/><path data-cppathid="10037" fill="#e59730" d="m54 40.63a4.038 4.038 0 0 1 -1.84 1.18 4.005 4.005 0 0 0 1.84 1.06v.07l-2.04 2-1.96-2v-4h4z"/><path data-cppathid="10038" fill="#f9e109" d="m52 41a4 4 0 0 1 -4-4v-3a4.828 4.828 0 0 0 3.414-1.414l.586-.586.586.586a4.828 4.828 0 0 0 3.414 1.414v3a4 4 0 0 1 -4 4z"/><path data-cppathid="10039" fill="#fcbc04" d="m50 35.55v.45a4 4 0 0 0 4 4 2.971 2.971 0 0 0 .73-.08 4 4 0 0 1 -6.73-2.92v-3a4.829 4.829 0 0 0 3.41-1.41l.59-.59.59.59a4.829 4.829 0 0 0 3.41 1.41v2a4.829 4.829 0 0 1 -3.41-1.41l-.59-.59-.59.59a4.829 4.829 0 0 1 -1.41.96z"/><path data-cppathid="10040" fill="#5ba006" d="m47 46a0 0 0 0 1 0 0v4a0 0 0 0 1 0 0h-1a0 0 0 0 1 0 0v-3a1 1 0 0 1 1-1z"/><g fill="#fcbc04"><path data-cppathid="10041" d="m61 50v2a2.006 2.006 0 0 0 -2 2v1h-2v-5z"/><path data-cppathid="10042" d="m43 50v2a2.006 2.006 0 0 1 2 2v1h2v-5z"/></g></g><g><path data-cppathid="10043" fill="#57b7eb" d="m40 25a6.966 6.966 0 0 0 -4.536 1.674 4.945 4.945 0 0 0 -2.464-.674 5 5 0 1 0 1.158 9.852 7 7 0 1 0 5.842-10.852z"/><path data-cppathid="10044" fill="#4891d3" d="m46.2 35.25a6.995 6.995 0 0 1 -12.04.6 4.994 4.994 0 0 1 -2.9-9.54 4.889 4.889 0 0 0 4.9 1.54 6.97 6.97 0 0 0 7.36 2.98 1.2 1.2 0 0 1 1.48 1.17 4.965 4.965 0 0 0 1.2 3.25z"/><path data-cppathid="10045" fill="#4891d3" d="m47 49v12h-20v-12a6 6 0 0 1 4.45-5.79 5.633 5.633 0 0 1 1.55-.21h8a5.633 5.633 0 0 1 1.55.21 6 6 0 0 1 4.45 5.79z"/><path data-cppathid="10046" fill="#2d72bc" d="m44 57a10.887 10.887 0 0 1 -6-1.79v-1.33a10.033 10.033 0 0 0 -.68-3.63l-1.04-2.67.72-.58-3.33-3h-.67v-1a5.633 5.633 0 0 0 -1.55.21 6 6 0 0 0 -4.45 5.79v12h20v-4zm-9.25-6.82a11.176 11.176 0 0 0 -.38 1.11 11.157 11.157 0 0 1 -.73-1.61l1.95-1.55z"/><path data-cppathid="10047" fill="#fcbc04" d="m40 44-2.98 3-3.02-3v-5h6z"/><path data-cppathid="10048" fill="#a1d51c" d="m37.8 58.176-.84.824-.817-.833a4 4 0 0 1 -1.143-2.801v-1.4a10 10 0 0 1 .748-3.795l1.303-3.171 1.266 3.248a10.01 10.01 0 0 1 .683 3.632v1.441a4 4 0 0 1 -1.2 2.855z"/><path data-cppathid="10049" fill="#e59730" d="m40 39v3.31a5.965 5.965 0 0 1 -2.5 2.14 5.727 5.727 0 0 0 1.59.47l-2.07 2.08-3.02-3v-5z"/><path data-cppathid="10050" fill="#84d2f4" d="m37 47-4 2-1.55-5.79a5.633 5.633 0 0 1 1.55-.21h.67z"/><path data-cppathid="10051" fill="#2d72bc" d="m41 50-4-3 3.33-3h.67c.54 0 .06.07.55.21z"/><path data-cppathid="10052" fill="#84d2f4" d="m42.55 43.21-1.55 5.79-4-2 3.33-4h.67a5.633 5.633 0 0 1 1.55.21z"/><path data-cppathid="10053" fill="#7ab92d" d="m38.73 56.76a4.023 4.023 0 0 1 -.93 1.42l-.84.82-.82-.83a4.026 4.026 0 0 1 -1.14-2.8v-1.4a9.853 9.853 0 0 1 .75-3.79l1.3-3.18.58 1.48a9.927 9.927 0 0 0 -.63 3.49v1.4a4.026 4.026 0 0 0 1.14 2.8z"/><path data-cppathid="10054" fill="#f9e109" d="m43 32.79v4.21a6 6 0 0 1 -12 0v-3l3.58-4c1.08 1.76 3.55 3 6.42 3a9.222 9.222 0 0 0 2-.21z"/><path data-cppathid="10055" fill="#fcbc04" d="m33 34.77v.23a5.989 5.989 0 0 0 9.13 5.11 6 6 0 0 1 -11.13-3.11v-3l3.58-4c1.08 1.76 3.55 3 6.42 3a9.222 9.222 0 0 0 2-.21v3a9.222 9.222 0 0 1 -2 .21c-2.87 0-5.34-1.24-6.42-3z"/></g><path data-cppathid="10056" fill="#e59730" d="m46 50h1v5h-1z"/></g></g><g data-name="Outline copy" id="Outline_copy"><g fill="#39519d"><path data-cppathid="10057" d="m5.693 20.558a1 1 0 0 0 1.367-.366l3.056-5.287 4.655 2.681a1 1 0 0 0 1.26-.218 20.9 20.9 0 0 1 2.338-2.338 1 1 0 0 0 .217-1.259l-2.681-4.655 5.19-3 2.69 4.645a1 1 0 0 0 1.2.442 21.053 21.053 0 0 1 3.2-.849 1 1 0 0 0 .815-.984v-5.37h6v5.37a1 1 0 0 0 .82.984 21.053 21.053 0 0 1 3.2.849 1 1 0 0 0 1.2-.442l2.69-4.645 5.19 3-2.681 4.655a1 1 0 0 0 .217 1.259 20.9 20.9 0 0 1 2.338 2.338 1 1 0 0 0 1.26.218l4.655-2.681 3 5.191-4.645 2.689a1 1 0 0 0 1 1.731l5.51-3.191a1 1 0 0 0 .365-1.365l-4-6.92a1 1 0 0 0 -1.365-.366l-4.813 2.772c-.441-.481-.9-.944-1.384-1.384l2.773-4.813a1 1 0 0 0 -.367-1.365l-6.919-4a1 1 0 0 0 -1.366.365l-2.786 4.806c-.623-.2-1.256-.363-1.892-.5v-5.555a1 1 0 0 0 -1-1h-8a1 1 0 0 0 -1 1v5.552c-.636.14-1.269.308-1.892.5l-2.783-4.803a1 1 0 0 0 -1.366-.365l-6.919 4a1 1 0 0 0 -.367 1.365l2.773 4.813c-.48.44-.943.9-1.384 1.384l-4.813-2.772a1 1 0 0 0 -1.365.365l-3.556 6.151a1 1 0 0 0 .365 1.368z"/><circle data-cppathid="10058" r="1" cy="48" cx="52"/><circle data-cppathid="10059" r="1" cy="52" cx="52"/><path data-cppathid="10060" d="m55.919 40.067a4.947 4.947 0 0 0 1.081-3.067v-3a1 1 0 0 0 -1-1 3.8 3.8 0 0 1 -2.707-1.121l-.586-.586a1 1 0 0 0 -1.414 0l-.586.586a3.8 3.8 0 0 1 -2.707 1.121c-.026 0-.049.013-.075.015a7.617 7.617 0 0 0 -.311-3.462 6.992 6.992 0 0 1 11.386 5.447v3.686a1 1 0 1 0 2 0v-3.686a8.983 8.983 0 0 0 -13.462-7.8 15.99 15.99 0 0 0 -27.879-6.368 1 1 0 0 0 1.541 1.268 13.979 13.979 0 0 1 23.756 3.631 7.967 7.967 0 0 0 -9.61-.236 5.814 5.814 0 0 0 -2.346-.495 5.988 5.988 0 0 0 -3 11.178v.822a6.977 6.977 0 0 0 2.171 5.055 6.483 6.483 0 0 0 -.978.188 7.02 7.02 0 0 0 -.814.291 6.982 6.982 0 0 0 -4.457-2.47 4.95 4.95 0 0 0 1.078-3.064v-4a5.006 5.006 0 0 0 -5-5h-1.233a9 9 0 0 0 -17.767 2v2.686a1 1 0 0 0 2 0v-2.686a6.994 6.994 0 0 1 13.7-2h-.7a1 1 0 0 0 -1 1v5.3a6.936 6.936 0 0 0 -1.12-.248 5.232 5.232 0 0 0 1.109-3.052 1 1 0 0 0 -.89-1.023 3.461 3.461 0 0 1 -3.075-3.085 1 1 0 0 0 -.994-.892h-1.03a4 4 0 0 0 -4 4v1a5 5 0 0 0 1.074 3.069 7 7 0 0 0 -6.074 6.931v10a1 1 0 0 0 2 0v-6h2v6a1 1 0 0 0 1 1h5v3a1 1 0 0 0 1 1h10a1 1 0 0 0 1-1 .986.986 0 0 0 -.746-.949l1.591-2.517a.991.991 0 0 0 .141-.7l-.835-5.015a2.173 2.173 0 0 0 -.534-1.1l1.083-1.062a1 1 0 0 0 .3-.713v-.944a4.993 4.993 0 0 1 3.626 1.569 6.977 6.977 0 0 0 -2.626 5.431v12a1 1 0 0 0 1 1h16a1 1 0 0 0 1-1v-8a1 1 0 0 0 -2 0v7h-5.039a1 1 0 0 0 .7-.286l.84-.824a5.029 5.029 0 0 0 1.499-3.57v-1.439a10.965 10.965 0 0 0 -.751-4l-.311-.8 1.615.808a1 1 0 0 0 1.413-.636l.619-2.315a1 1 0 0 0 -1.931-.517l-.3 1.131-1.775-.888 2.221-2.664h.2a4.677 4.677 0 0 1 1.293.177 4.913 4.913 0 0 1 1.1.454l.008.009c.011.006.022.008.032.014a4.982 4.982 0 0 1 2.567 4.346v12a1 1 0 0 0 2 0v-12a6.986 6.986 0 0 0 -2.619-5.429 4.958 4.958 0 0 1 3.619-1.571v.944a1 1 0 0 0 .287.7l1.964 2a1 1 0 0 0 .705.3h.008a.994.994 0 0 0 .7-.287l2.036-2a1 1 0 0 0 .3-.713v-.944a5.006 5.006 0 0 1 5 5v2h-2v-2a1 1 0 0 0 -2 0v7h-5a1 1 0 0 0 0 2h6a1 1 0 0 0 1-1v-4h2v4a1 1 0 0 0 2 0v-8a7.007 7.007 0 0 0 -6.081-6.933zm-33.858 12.133-1.007-1.435.768-4.61a.187.187 0 0 1 .356 0l.773 4.638zm-.061-12.2a3 3 0 0 1 -3-3v-3h6v3a3 3 0 0 1 -3 3zm-.023 3.53-.977-1v-.63a5 5 0 0 0 2 0v.626zm2.852-11.53h-5.829v-2h3a3.006 3.006 0 0 1 2.829 2zm-13.829 3.89a5.055 5.055 0 0 0 1.006.11c.161 0 .321-.008.482-.023a4.827 4.827 0 0 0 .512-.1v.823l-1.02 2-.98-2zm-2-5.89a2 2 0 0 1 2-2h.207a5.433 5.433 0 0 0 3.657 3.756 3.157 3.157 0 0 1 -1.264 1.755.658.658 0 0 0 -.07.047 2.839 2.839 0 0 1 -1.235.427 2.976 2.976 0 0 1 -2.31-.762 3.013 3.013 0 0 1 -.985-2.223zm-1 20v-9a1 1 0 0 0 -2 0v2h-2v-2a5.006 5.006 0 0 1 5-5v.944a.992.992 0 0 0 .1.441l1.964 4a1 1 0 0 0 .89.559h.007a1 1 0 0 0 .891-.547l2.036-4a.986.986 0 0 0 .112-.453v-.944a5.01 5.01 0 0 1 2 .425v.575a4.947 4.947 0 0 0 1.081 3.067 7.007 7.007 0 0 0 -6.081 6.933v3zm6-3a5.006 5.006 0 0 1 5-5v.944a1 1 0 0 0 .287.7l1.077 1.1a2.188 2.188 0 0 0 -.515 1.08l-.835 5.014a1 1 0 0 0 .167.738l1.701 2.424h-2.882v-7a1 1 0 0 0 -2 0v7h-2zm35-12.085a5.777 5.777 0 0 0 3-1.5 5.777 5.777 0 0 0 3 1.5v2.085a3 3 0 0 1 -6 0zm-16-7.915a3.942 3.942 0 0 1 1.968.542 1 1 0 0 0 1.145-.107 5.992 5.992 0 0 1 7.887 9.021v-3.666a1 1 0 0 0 -1.216-.977 8.182 8.182 0 0 1 -1.784.187c-2.4 0-4.642-1.014-5.568-2.523a1 1 0 0 0 -.762-.477.981.981 0 0 0 -.835.329l-3.58 4a1 1 0 0 0 -.2.363 3.991 3.991 0 0 1 2.945-6.692zm-1 10v-2.618l2.535-2.832a9.135 9.135 0 0 0 6.465 2.45c.339 0 .673-.016 1-.045v3.045a5 5 0 0 1 -10 0zm1 7h.2l2.223 2.67-1.775.888-.948-3.538c.1-.006.2-.02.3-.02zm4 1.437-1.3-1.563a6.78 6.78 0 0 0 2.6 0zm-5 14.563v-7a1 1 0 0 0 -2 0v7h-2v-11a4.986 4.986 0 0 1 2.772-4.456l1.262 4.715a1 1 0 0 0 1.413.636l1.68-.84-.3.742a10.944 10.944 0 0 0 -.827 4.174v1.4a4.971 4.971 0 0 0 1.43 3.5l.817.833a1 1 0 0 0 .7.3zm6-4.68a3.02 3.02 0 0 1 -.9 2.142l-.126.124-.117-.119a2.988 2.988 0 0 1 -.858-2.1v-1.4a8.96 8.96 0 0 1 .673-3.414l.354-.864.358.918a8.966 8.966 0 0 1 .616 3.274zm5.618-12.788a6.861 6.861 0 0 0 -.794-.284 6.5 6.5 0 0 0 -1-.192 7 7 0 0 0 1.858-2.983 7.981 7.981 0 0 0 3.318-3.247v1.174a4.951 4.951 0 0 0 1.077 3.062 6.953 6.953 0 0 0 -4.459 2.47zm8.359 1-.977-1v-.632a5 5 0 0 0 2 0v.626z"/><circle data-cppathid="10061" r="1" cy="36" cx="35"/><circle data-cppathid="10062" r="1" cy="36" cx="39"/></g></g></g></svg>