<?xml version="1.0" encoding="UTF-8"?>
<svg xmlns="http://www.w3.org/2000/svg" onmouseup="{ if(window.parent.document.onmouseup) window.parent.document.onmouseup(arguments[0]);}" width="500pt" viewBox="-72 0 500 500" height="500pt"><path data-cppathid="10000" fill="#00acea" d="m348.238281 290.261719v201.738281h-340.476562v-201.738281zm-35.6875 144.726562v-87.71875c-24.402343-.398437-38.25-14.167969-39.039062-31.078125h-190.621094c-.800781 16.910156-15.039063 30.679688-39.441406 31.078125v87.71875c24.402343.390625 38.640625 13.773438 39.441406 31.082031h190.21875c.800781-16.921874 15.039063-30.691406 39.441406-31.082031zm0 0"/><path data-cppathid="10001" fill="#00acea" d="m178 159.589844c-.03125-9.8125-3.859375-19.234375-10.679688-26.289063-7.007812-6.894531-16.460937-10.738281-26.289062-10.691406-9.847656-.128906-19.328125 3.726563-26.292969 10.691406-6.960937 6.960938-10.816406 16.441407-10.6875 26.289063-.027343-9.8125-3.855469-19.238282-10.679687-26.289063-7.007813-6.894531-16.460938-10.738281-26.292969-10.691406-9.8125.03125-19.234375 3.863281-26.289063 10.691406-6.570312 6.980469-10.679687 22.589844-10.679687 22.589844 0-81.679687 66.214844-147.890625 147.890625-147.890625s147.890625 66.210938 147.890625 147.890625c0 0-1.03125-3.902344-2.878906-8.679687-1.851563-4.78125-4.511719-10.421876-7.800781-13.910157-7.007813-6.894531-16.460938-10.738281-26.289063-10.691406-9.847656-.128906-19.328125 3.726563-26.289063 10.6875-6.964843 6.964844-10.816406 16.445313-10.683593 26.292969-.03125-9.816406-3.863281-19.238282-10.6875-26.289063-7.011719-6.894531-16.460938-10.738281-26.292969-10.691406-9.84375-.128906-19.324219 3.726563-26.289062 10.6875-6.960938 6.964844-10.8125 16.445313-10.679688 26.292969zm0 0"/><path data-cppathid="10002" fill="#00efd1" d="m312.550781 347.269531v87.71875c-24.402343.390625-38.640625 14.160157-39.441406 31.082031h-190.21875c-.800781-17.308593-15.039063-30.691406-39.441406-31.082031v-87.71875c24.402343-.398437 38.640625-14.167969 39.441406-31.078125h190.621094c.789062 16.910156 14.636719 30.679688 39.039062 31.078125zm0 0"/><g fill="#083863"><path data-cppathid="10003" d="m348 282h-340c-4.417969 0-8 3.582031-8 8v202c0 4.417969 3.582031 8 8 8h340c4.417969 0 8-3.582031 8-8v-202c0-4.417969-3.582031-8-8-8zm-8 202h-324v-186h324zm0 0"/><path data-cppathid="10004" d="m43.101562 442.988281c18.820313.300781 31.03125 9.25 31.6875 23.414063.25 4.285156 3.808594 7.625 8.097657 7.601562h190.222656c4.265625.015625 7.789063-3.328125 7.992187-7.585937.660157-13.957031 13.28125-23.144531 31.800782-23.441407 4.410156-.042968 7.992187-3.574218 8.101562-7.984374v-87.722657c-.109375-4.410156-3.683594-7.945312-8.097656-8-18.289062-.300781-30.640625-9.597656-31.292969-23.546875-.242187-4.308594-3.785156-7.6875-8.097656-7.722656h-190.625c-4.289063.042969-7.796875 3.429688-7.992187 7.714844-.660157 13.949218-13.28125 23.199218-31.800782 23.507812-4.421875.074219-7.996094 3.625-8.097656 8.046875v87.71875c.109375 4.414063 3.6875 7.949219 8.101562 8zm7.898438-88.273437c23-2.835938 35.0625-15.714844 38.742188-30.714844h176.902343c3.648438 15 16.355469 27.855469 38.355469 30.707031v72.832031c-23 2.835938-35.0625 16.460938-38.746094 30.460938h-176.453125c-4-16-18.800781-27.800781-38.800781-30.4375zm0 0"/><path data-cppathid="10005" d="m145.410156 375c0 4.417969 3.582032 8 8 8h24.429688c-.339844 0-.699219.8125-1.101563 1.210938-2.453125 2.453124-5.789062 3.816406-9.257812 3.789062h-14.070313c-3.25-.09375-6.214844 1.839844-7.441406 4.851562-1.222656 3.011719-.449219 6.46875 1.941406 8.671876l35.167969 33.191406c3.230469 3 8.277344 2.832031 11.296875-.375 3.023438-3.210938 2.886719-8.257813-.304688-11.300782l-21.101562-19.941406c5.699219-.996094 10.960938-3.707031 15.082031-7.765625 3.355469-3.507812 5.886719-7.722656 7.414063-12.332031h7.125c4.417968 0 8-3.582031 8-8s-3.582032-8-8-8h-7.136719c-.527344-2.042969-1.195313-4.050781-2-6h9.136719c4.417968 0 8-3.582031 8-8s-3.582032-8-8-8h-49.179688c-4.417968 0-8 3.582031-8 8s3.582032 8 8 8h14.070313c4.285156-.042969 8.253906 2.257812 10.347656 6h-24.417969c-4.417968 0-8 3.582031-8 8zm0 0"/><path data-cppathid="10006" d="m157.460938 253.109375c-3.34375.050781-6.5625-1.253906-8.925782-3.617187-2.363281-2.363282-3.667968-5.582032-3.613281-8.921876 0-4.417968-3.582031-8-8-8-4.421875 0-8 3.582032-8 8 0 15.761719 12.777344 28.539063 28.539063 28.539063 15.761718 0 28.539062-12.777344 28.539062-28.539063v-80.980468c-.132812-7.722656 2.878906-15.167969 8.339844-20.632813 5.460937-5.464843 12.90625-8.476562 20.628906-8.347656 7.667969-.042969 15.046875 2.921875 20.550781 8.261719 5.367188 5.566406 8.386719 12.984375 8.429688 20.71875 0 4.417968 3.582031 8 8 8s8-3.582032 8-8c-.128907-7.722656 2.882812-15.167969 8.34375-20.632813 5.460937-5.460937 12.902343-8.472656 20.628906-8.347656 7.660156-.042969 15.035156 2.921875 20.539063 8.253906 1.148437 1.246094 3.40625 4.324219 6.089843 11.234375 1.648438 4.261719 2.597657 7.800782 2.601563 7.835938 1.027344 3.886718 4.777344 6.410156 8.765625 5.894531 3.988281-.519531 6.972656-3.917969 6.972656-7.9375 0-86.097656-69.796875-155.890625-155.890625-155.890625s-155.890625 69.792969-155.890625 155.890625c0 4.023437 2.984375 7.417969 6.972656 7.9375 3.988281.515625 7.742188-2.011719 8.765625-5.902344.921875-3.5 4.457032-14.394531 8.617188-18.980469 5.546875-5.324218 12.929687-8.308593 20.613281-8.335937 7.667969-.042969 15.046875 2.921875 20.550781 8.261719 5.378906 5.558594 8.394532 12.984375 8.421875 20.71875 0 4.417968 3.582031 8 8 8s8-3.582032 8-8c-.125-7.722656 2.886719-15.167969 8.347657-20.628906 5.464843-5.464844 12.90625-8.476563 20.632812-8.351563 7.664062-.042969 15.042969 2.921875 20.546875 8.261719 5.363281 5.566406 8.378906 12.988281 8.421875 20.71875v80.980468c.035156 3.335938-1.273438 6.546876-3.632812 8.90625-2.359376 2.359376-5.570313 3.667969-8.90625 3.632813zm-16.429688-138.5c-11.863281 0-23.257812 4.617187-31.777344 12.871094-.117187.105469-.226562.21875-.335937.332031-1.773438 1.878906-3.398438 3.890625-4.863281 6.019531-1.464844-2.128906-3.089844-4.140625-4.863282-6.019531-.050781-.054688-.105468-.113281-.160156-.164062-15.273438-14.980469-38.914062-17.320313-56.828125-5.625 15.566406-62.300782 71.523437-106.019532 135.738281-106.046876 64.214844-.023437 120.210938 43.648438 135.824219 105.933594-17.875-11.523437-41.332031-9.214844-56.621094 5.570313-.117187.105469-.226562.21875-.335937.332031-1.773438 1.878906-3.398438 3.890625-4.863282 6.019531-1.464843-2.128906-3.089843-4.140625-4.863281-6.019531-.054687-.054688-.105469-.109375-.160156-.164062-17.6875-17.320313-45.953125-17.394532-63.730469-.167969-.117187.105469-.226562.21875-.335937.335937-1.773438 1.878906-3.394531 3.886719-4.855469 6.011719-1.460938-2.125-3.082031-4.132813-4.855469-6.011719-.050781-.054687-.109375-.113281-.164062-.167968-8.515625-8.386719-20-13.070313-31.949219-13.039063zm0 0"/></g></svg>