<?xml version="1.0" encoding="UTF-8"?>
<svg xmlns="http://www.w3.org/2000/svg" onmouseup="{ if(window.parent.document.onmouseup) window.parent.document.onmouseup(arguments[0]);}" width="512" viewBox="0 0 48 48" height="512"><g id="flat"><circle data-cppathid="10000" r="22.5" fill="#fbc533" cy="24" cx="24"/><path data-cppathid="10001" fill="#ffd54b" d="m24 1.5a22.4 22.4 0 0 0 -10.29 2.486c-5.11 4.124-9.257 10.597-9.257 17.679 0 15.105 9.841 22.641 22.268 22.641a27.414 27.414 0 0 0 11.392-2.784 22.5 22.5 0 0 0 -14.113-40.022z"/><path data-cppathid="10002" fill="#ef9c35" d="m22.934 4.025a20.5 20.5 0 1 0 20.5 20.5 20.519 20.519 0 0 0 -20.5-20.5zm0 39.416a18.92 18.92 0 1 1 18.919-18.92 18.941 18.941 0 0 1 -18.919 18.92z"/><path data-cppathid="10003" fill="#fbbe3d" d="m24.027 3.491a20.5 20.5 0 1 0 20.5 20.5 20.519 20.519 0 0 0 -20.5-20.5zm0 39.416a18.92 18.92 0 1 1 18.919-18.92 18.941 18.941 0 0 1 -18.919 18.92z"/></g><g data-name="Layer 1 copy" id="Layer_1_copy"><path data-cppathid="10004" fill="#b5843a" d="m29.583 17.4h-1.078a7.093 7.093 0 0 0 -.914-1.776h1.992a1.5 1.5 0 0 0 0-3h-7.625c-.055 0-.108-.008-.164-.008h-3.967a1.5 1.5 0 0 0 0 3h3.967a4.1 4.1 0 0 1 3.383 1.784h-7.288a1.5 1.5 0 0 0 0 3h7.945a4.105 4.105 0 0 1 -4.04 3.432h-3.967a1.5 1.5 0 0 0 -1.088 2.532l8.11 8.551a1.5 1.5 0 1 0 2.176-2.065l-5.708-6.018h.477a7.116 7.116 0 0 0 7.075-6.432h.714a1.5 1.5 0 0 0 0-3z"/><path data-cppathid="10005" fill="#8f5f00" d="m25.937 34.883a.991.991 0 0 1 -.725-.312l-8.112-8.55a1 1 0 0 1 .726-1.688h3.967a4.589 4.589 0 0 0 4.534-3.849l.1-.583h-8.538a1 1 0 0 1 0-2h8.24l-.541-.783a4.611 4.611 0 0 0 -3.794-2h-3.967a1 1 0 0 1 0-2h3.973l.157.008h7.625a1 1 0 0 1 0 2h-2.958l.559.789a6.628 6.628 0 0 1 .851 1.652l.116.335h1.433a1 1 0 0 1 0 2h-1.169l-.043.453a6.578 6.578 0 0 1 -6.577 5.979h-1.64l6.509 6.866a1 1 0 0 1 -.726 1.688z"/><g fill="#7a4818"><path data-cppathid="10006" d="m21.794 24.333h-3.967a1 1 0 0 0 -.731.317 1.011 1.011 0 0 1 .24-.03h3.964a4.578 4.578 0 0 0 2.564-.779 4.584 4.584 0 0 1 -2.07.492z"/><path data-cppathid="10007" d="m17.159 18.218a1 1 0 0 1 .24-.029h8.24l-.2-.288h-7.55a1 1 0 0 0 -.73.317z"/><path data-cppathid="10008" d="m17.336 13.4h3.975l.157.008h7.625a1 1 0 0 1 .729 1.684 1 1 0 0 0 -.239-1.971h-7.625l-.157-.008h-3.974a1 1 0 0 0 -.73.316 1.049 1.049 0 0 1 .239-.029z"/><path data-cppathid="10009" d="m29.583 17.9h-1.433l-.116-.335a6.628 6.628 0 0 0 -.851-1.652l-.355-.5h-.694l.559.79a6.669 6.669 0 0 1 .85 1.651l.117.336h1.433a1 1 0 0 1 .73 1.683 1 1 0 0 0 -.24-1.971z"/><path data-cppathid="10010" d="m27.923 20.189-.043.452a6.576 6.576 0 0 1 -2.98 4.927 6.578 6.578 0 0 0 3.473-5.214l.015-.165z"/><path data-cppathid="10011" d="m20.426 26.62h-.763l6.509 6.863a1 1 0 0 1 0 1.371 1 1 0 0 0 .487-1.659z"/></g></g></svg>