<?xml version="1.0" encoding="UTF-8"?>
<svg xmlns="http://www.w3.org/2000/svg" onmouseup="{ if(window.parent.document.onmouseup) window.parent.document.onmouseup(arguments[0]);}" width="512" viewBox="0 0 512 512" height="512" enable-background="new 0 0 512 512" id="Capa_1"><g><g><path data-cppathid="10000" fill="#9bd069" d="m385.301 243.878h60.61v260.622h-60.61z"/></g><g><path data-cppathid="10001" fill="#7dbe3b" d="m425.707 243.878h20.203v260.622h-20.203z"/></g><g><path data-cppathid="10002" fill="#e28086" d="m280.244 363.077h60.61v141.423h-60.61z"/></g><g><path data-cppathid="10003" fill="#dd636e" d="m320.65 363.077h20.203v141.423h-20.203z"/></g><g><path data-cppathid="10004" fill="#ffe07d" d="m175.187 302.467h60.61v202.033h-60.61z"/></g><g><path data-cppathid="10005" fill="#ffd064" d="m215.593 302.467h20.203v202.033h-20.203z"/></g><g><path data-cppathid="10006" fill="#e28086" d="m70.13 383.28h60.61v121.22h-60.61z"/></g><g><path data-cppathid="10007" fill="#dd636e" d="m110.537 383.28h20.203v121.22h-20.203z"/></g><g><circle data-cppathid="10008" r="30.305" fill="#cbe2ff" cy="163.065" cx="415.606"/></g><g><circle data-cppathid="10009" r="30.305" fill="#cbe2ff" cy="282.264" cx="310.549"/></g><g><circle data-cppathid="10010" r="30.305" fill="#cbe2ff" cy="221.654" cx="205.492"/></g><g><circle data-cppathid="10011" r="30.305" fill="#cbe2ff" cy="302.467" cx="100.435"/></g><g><g><path data-cppathid="10012" transform="matrix(0 1 -1 0 144.301 -88.894)" fill="#e28086" d="m96.394-18.764h40.407v92.935h-40.407z"/></g><g><path data-cppathid="10013" transform="matrix(0 1 -1 0 199.86 -63.64)" fill="#ffe07d" d="m111.547 6.49h40.407v123.24h-40.407z"/></g><g><path data-cppathid="10014" transform="matrix(0 1 -1 0 259.459 -42.427)" fill="#9bd069" d="m130.74 27.703h40.407v161.626h-40.407z"/></g></g><g><path data-cppathid="10015" d="m504.5 497h-51.089v-187.571c0-4.143-3.358-7.5-7.5-7.5s-7.5 3.357-7.5 7.5v187.571h-45.61v-245.622h45.61v23.015c0 4.143 3.358 7.5 7.5 7.5s7.5-3.357 7.5-7.5v-30.515c0-4.143-3.358-7.5-7.5-7.5h-60.61c-4.142 0-7.5 3.357-7.5 7.5v253.122h-29.447v-133.923c0-4.143-3.358-7.5-7.5-7.5h-60.609c-4.142 0-7.5 3.357-7.5 7.5v32.337c0 4.143 3.358 7.5 7.5 7.5s7.5-3.357 7.5-7.5v-24.837h45.609v126.423h-45.609v-66.5c0-4.143-3.358-7.5-7.5-7.5s-7.5 3.357-7.5 7.5v66.5h-29.447v-194.532c0-4.143-3.358-7.5-7.5-7.5h-60.61c-4.142 0-7.5 3.357-7.5 7.5v45.746c0 4.143 3.358 7.5 7.5 7.5s7.5-3.357 7.5-7.5v-38.246h45.61v187.032h-45.61v-113.75c0-4.143-3.358-7.5-7.5-7.5s-7.5 3.357-7.5 7.5v113.75h-29.448v-113.72c0-4.143-3.358-7.5-7.5-7.5h-60.61c-4.142 0-7.5 3.357-7.5 7.5v113.72h-47.63v-47.63h16.744c4.142 0 7.5-3.357 7.5-7.5s-3.358-7.5-7.5-7.5h-16.744v-97.128h16.744c4.142 0 7.5-3.357 7.5-7.5s-3.358-7.5-7.5-7.5h-16.744v-97.128h16.744c4.142 0 7.5-3.357 7.5-7.5s-3.358-7.5-7.5-7.5h-16.744v-97.129h16.744c4.142 0 7.5-3.357 7.5-7.5s-3.358-7.5-7.5-7.5h-16.744v-90.485c0-4.143-3.358-7.5-7.5-7.5s-7.5 3.357-7.5 7.5v497c0 4.143 3.358 7.5 7.5 7.5h497c4.142 0 7.5-3.357 7.5-7.5s-3.358-7.5-7.5-7.5zm-426.87 0v-106.22h45.61v106.22z"/><path data-cppathid="10016" d="m100.435 340.272c20.846 0 37.805-16.959 37.805-37.805 0-5.97-1.397-11.619-3.872-16.645l46.346-35.652c6.641 5.778 15.304 9.288 24.777 9.288 11.269 0 21.396-4.962 28.328-12.81l40.894 23.598c-1.27 3.778-1.969 7.816-1.969 12.017 0 20.846 16.959 37.805 37.805 37.805s37.805-16.959 37.805-37.805c0-8.567-2.869-16.475-7.691-22.822l56.084-63.634c5.555 3.212 11.993 5.061 18.859 5.061 20.846 0 37.805-16.959 37.805-37.805s-16.959-37.806-37.805-37.806-37.805 16.96-37.805 37.806c0 8.569 2.87 16.478 7.693 22.825l-56.082 63.632c-5.556-3.214-11.996-5.063-18.863-5.063-11.267 0-21.391 4.96-28.323 12.805l-40.896-23.599c1.269-3.776 1.967-7.812 1.967-12.01 0-20.846-16.959-37.805-37.805-37.805s-37.805 16.959-37.805 37.805c0 5.968 1.395 11.614 3.868 16.638l-46.349 35.654c-6.64-5.775-15.301-9.283-24.772-9.283-20.846 0-37.805 16.959-37.805 37.805s16.96 37.805 37.806 37.805zm315.17-200.012c12.575 0 22.805 10.23 22.805 22.806 0 12.574-10.23 22.805-22.805 22.805-5.771 0-11.045-2.159-15.066-5.706 0 0 0 0-.001-.001 0 0-.001 0-.001-.001-4.739-4.182-7.737-10.294-7.737-17.097.001-12.576 10.231-22.806 22.805-22.806zm-105.056 119.199c12.575 0 22.805 10.23 22.805 22.806 0 12.574-10.23 22.805-22.805 22.805s-22.805-10.23-22.805-22.805c0-12.576 10.23-22.806 22.805-22.806zm-105.057-60.609c12.575 0 22.805 10.23 22.805 22.805s-10.23 22.805-22.805 22.805-22.805-10.23-22.805-22.805 10.23-22.805 22.805-22.805zm-105.057 80.813c12.575 0 22.805 10.23 22.805 22.805s-10.23 22.805-22.805 22.805-22.805-10.23-22.805-22.805 10.23-22.805 22.805-22.805z"/><path data-cppathid="10017" d="m70.13 136.22h161.626c4.142 0 7.5-3.357 7.5-7.5v-40.407c0-4.143-3.358-7.5-7.5-7.5h-30.886v-32.907c0-4.143-3.358-7.5-7.5-7.5h-22.805v-32.906c0-4.143-3.358-7.5-7.5-7.5h-92.935c-4.142 0-7.5 3.357-7.5 7.5v121.22c0 4.142 3.358 7.5 7.5 7.5zm154.126-15h-146.626v-25.407h146.626zm-38.386-40.407h-108.24v-25.407h108.24zm-108.24-65.813h77.935v25.406h-77.935z"/><path data-cppathid="10018" d="m272.163 15h57.579c4.142 0 7.5-3.357 7.5-7.5s-3.358-7.5-7.5-7.5h-57.579c-4.142 0-7.5 3.357-7.5 7.5s3.358 7.5 7.5 7.5z"/><path data-cppathid="10019" d="m362.067 15h19.193c4.142 0 7.5-3.357 7.5-7.5s-3.358-7.5-7.5-7.5h-19.193c-4.142 0-7.5 3.357-7.5 7.5s3.358 7.5 7.5 7.5z"/><path data-cppathid="10020" d="m381.26 32.325h-50.508c-4.142 0-7.5 3.357-7.5 7.5s3.358 7.5 7.5 7.5h50.508c4.142 0 7.5-3.357 7.5-7.5s-3.358-7.5-7.5-7.5z"/><path data-cppathid="10021" d="m272.163 47.325h26.264c4.142 0 7.5-3.357 7.5-7.5s-3.358-7.5-7.5-7.5h-26.264c-4.142 0-7.5 3.357-7.5 7.5s3.358 7.5 7.5 7.5z"/><path data-cppathid="10022" d="m272.163 79.65h109.097c4.142 0 7.5-3.357 7.5-7.5s-3.358-7.5-7.5-7.5h-109.097c-4.142 0-7.5 3.357-7.5 7.5s3.358 7.5 7.5 7.5z"/></g></g></svg>