<?xml version="1.0" encoding="UTF-8"?>
<svg xmlns="http://www.w3.org/2000/svg" onmouseup="{ if(window.parent.document.onmouseup) window.parent.document.onmouseup(arguments[0]);}" width="480pt" viewBox="0 -28 480 480" height="480pt"><path data-cppathid="10000" d="m160 320v-24h24c4.417969 0 8-3.582031 8-8v-136c0-.175781-.089844-.320312-.097656-.496094-.046875-.722656-.191406-1.429687-.429688-2.113281-.074218-.253906-.164062-.503906-.265625-.75-.375-.839844-.890625-1.609375-1.527343-2.273437l-48-48c-.664063-.640626-1.433594-1.164063-2.28125-1.535157-.222657-.09375-.453126-.179687-.6875-.25-.714844-.253906-1.464844-.40625-2.222657-.445312-.152343 0-.28125-.089844-.433593-.089844h-96.054688c-4.417969 0-8 3.582031-8 8v24h-24c-4.417969 0-8 3.582031-8 8v183.953125c0 4.417969 3.582031 8 8 8h144c4.417969 0 8-3.582031 8-8zm-16-196.6875 20.6875 20.6875h-20.6875zm-96 12.6875v-24h80v40c0 4.417969 3.582031 8 8 8h40v120h-128zm96 176h-128v-168h16v144c0 4.417969 3.582031 8 8 8h104zm0 0"/><path data-cppathid="10001" d="m479.472656 173.390625c-.074218-.253906-.164062-.503906-.265625-.75-.375-.839844-.890625-1.609375-1.527343-2.273437l-48-48c-.664063-.640626-1.4375-1.160157-2.28125-1.535157-.226563-.097656-.457032-.179687-.695313-.25-.710937-.253906-1.457031-.40625-2.214844-.445312-.152343 0-.28125-.089844-.433593-.089844h-96.054688c-4.417969 0-8 3.582031-8 8v183.953125c0 4.417969 3.582031 8 8 8h144c4.417969 0 8-3.582031 8-8v-136c0-.175781-.089844-.320312-.097656-.496094-.046875-.722656-.191406-1.429687-.429688-2.113281zm-47.472656-26.078125 20.6875 20.6875h-20.6875zm32 156.6875h-128v-168h80v40c0 4.417969 3.582031 8 8 8h40zm0 0"/><path data-cppathid="10002" d="m64 168h56v16h-56zm0 0"/><path data-cppathid="10003" d="m64 200h96v16h-96zm0 0"/><path data-cppathid="10004" d="m64 232h96v16h-96zm0 0"/><path data-cppathid="10005" d="m360 232c.027344 2.292969.257812 4.578125.6875 6.832031.152344.863281.335938 1.703125.535156 2.550781.328125 1.28125.738282 2.542969 1.183594 3.800782.679688 1.90625 1.503906 3.753906 2.464844 5.535156.320312.601562.578125 1.214844.929687 1.800781.070313.128907.167969.230469.246094.359375.65625 1.074219 1.378906 2.082032 2.128906 3.082032.664063.878906 1.367188 1.710937 2.089844 2.527343.71875.816407 1.261719 1.503907 1.972656 2.191407 1.472657 1.425781 3.058594 2.734374 4.738281 3.910156.542969.386718 1.101563.738281 1.664063 1.097656 1.671875 1.078125 3.417969 2.027344 5.230469 2.847656.257812.113282.496094.257813.761718.367188 2.136719.878906 4.347657 1.566406 6.605469 2.058594.523438.109374 1.035157.207031 1.601563.300781 4.75.972656 9.648437.972656 14.398437 0 .53125-.09375 1.042969-.191407 1.601563-.300781 2.257812-.492188 4.46875-1.179688 6.609375-2.058594.261719-.109375.503906-.253906.757812-.367188 1.8125-.820312 3.5625-1.769531 5.234375-2.847656.558594-.359375 1.117188-.710938 1.664063-1.097656 1.679687-1.175782 3.265625-2.484375 4.742187-3.910156.703125-.679688 1.304688-1.449219 1.960938-2.183594.65625-.738282 1.429687-1.65625 2.09375-2.542969.761718-.988281 1.472656-2.015625 2.128906-3.074219.082031-.128906.175781-.230468.25-.359375.070312-.128906.054688-.191406.101562-.28125 3.660157-6.117187 5.601563-13.109375 5.617188-20.238281 0-22.09375-17.910156-40-40-40s-40 17.90625-40 40zm16.503906 4.800781c-.339844-1.578125-.507812-3.1875-.503906-4.800781.011719-1.480469.160156-2.957031.449219-4.410156.078125-.445313.207031-.871094.320312-1.308594.234375-.984375.535157-1.949219.894531-2.890625.175782-.449219.351563-.894531.550782-1.328125.433594-.933594.925781-1.839844 1.472656-2.710938.207031-.328124.390625-.679687.609375-1 .796875-1.140624 1.6875-2.210937 2.664063-3.199218.167968-.167969.359374-.304688.527343-.464844.847657-.808594 1.75-1.554688 2.703125-2.230469.367188-.257812.753906-.488281 1.128906-.730469.84375-.53125 1.726563-1.003906 2.632813-1.421874.40625-.191407.800781-.394532 1.246094-.5625.257812-.09375.535156-.152344.800781-.246094v18zm31.496094-27.328125c11.28125 3.945313 17.910156 15.617188 15.519531 27.328125l-15.519531-9.328125zm7.199219 40.957032-.421875.355468c-.839844.667969-1.722656 1.273438-2.648438 1.8125-.21875.128906-.449218.242188-.671875.371094-7.175781 3.710938-15.707031 3.710938-22.882812 0-.222657-.128906-.453125-.242188-.671875-.371094-.921875-.539062-1.808594-1.144531-2.644532-1.8125l-.417968-.347656 15.160156-9.109375zm0 0"/><path data-cppathid="10006" d="m352 80h40c4.417969 0 8-3.582031 8-8v-40h-16v23.0625c-86.695312-77.628906-219.316406-72.589844-299.863281 11.402344l11.542969 11.070312c73.378906-76.5 193.707031-82.4375 274.265624-13.535156h-17.945312zm0 0"/><path data-cppathid="10007" d="m129.910156 344h-40c-4.417968 0-8 3.582031-8 8v40h16v-23.066406c86.695313 77.632812 219.316406 72.589844 299.867188-11.398438l-11.554688-11.070312c-73.375 76.472656-193.671875 82.410156-274.222656 13.535156h17.953125zm0 0"/></svg>