<?xml version="1.0" encoding="UTF-8"?>
<svg xmlns="http://www.w3.org/2000/svg" onmouseup="{ if(window.parent.document.onmouseup) window.parent.document.onmouseup(arguments[0]);}" width="512" viewBox="0 0 511.992 511.992" height="512" enable-background="new 0 0 511.992 511.992" id="Layer_1"><g><g><g><g><g><g><g><path d="m276.77 329.795h-55.781s-81.53 104.253-89.515 138.975c-2.477 10.772-1.755 22.623-1.755 35.722h250.912c0-44.167-.928-72.393-60.671-108.877-20.176-12.321-43.19-27.302-43.19-65.82z" fill="#ffd1c9"/><path d="m319.96 395.615c-20.177-12.321-43.19-27.303-43.19-65.82l-30-.004c0 38.518 23.013 53.503 43.19 65.825 59.743 36.484 60.671 64.71 60.671 108.877h30c0-44.168-.927-72.394-60.671-108.878z" fill="#ffbeb3"/></g><g fill="#ff80bb"><path d="m215.465 405.81c9.767 21.937 23.843 59.673 25.923 98.683h-57.955s-.837-10.34-.837-25.419c0-13.415 0-73.264 0-73.264z"/><path d="m321.755 397.191c9.234 41.634 6.191 107.302 6.191 107.302h-58.983c3.231-60.601 35.414-118.127 35.414-118.127z"/></g></g></g><g><path d="m405.391 373.083c-17.868-16.696-3.609-33.681 4.992-42.881 36.361-38.892 20.956-67.32.755-92.938-30.507-38.689-18.51-79.09-21.201-125.311-6.141-105.478-87.782-89.712-87.782-89.712-63.042-35.941-181.155-8.742-177.732 109.809 1.253 43.381.826 69.896-24.039 105.215-18.779 26.675-35.605 54.046.755 92.938 8.601 9.2 20.353 22.273 4.992 42.881-21.069 28.265-18.347 68.19 27.187 89.81 34.963 16.601 75.689 8.369 75.689 8.369s-12.477-14.517-13.945-35.051c-1.409-19.696 20.779-31.084 33.797-44.735 18.09-18.971 13.218-44.899 0-58.764-15.213-5.72-31.358-14.227-41.86-20.279-32.268-18.594-35.948-36.086-36.367-62.138l-.418-.02c25.85-3.887 32.208-21.912 34.693-33.553 3.349-15.688 11.074-26.706 35.649-26.706 39.762 0 44.896-50.073 48.674-69.161 5.425-27.402 20.567-38.595 38.411-38.594 17.924.001 32.16 10.708 37.877 28.836 0 0 14.256 68.647 14.256 129.239 0 31.749-.208 51.228-36.421 72.096-11.974 6.9-31.282 16.993-48.18 22.505s-2.064 19.363 15.25 39.796c7.103 8.383 18.227 16.555 32.9 24.259 53.333 28 55.565 69.849 55.565 69.849 56.557-20.511 57.453-66.839 26.503-95.759z" fill="#6362b5"/></g><g fill="#4e4fa1"><path d="m235.395 341.81c-1.81-3.382-4.021-6.46-6.537-9.099-15.213-5.72-31.358-14.227-41.86-20.279-32.268-18.594-35.948-36.086-36.367-62.138l-.418-.02c25.85-3.887 32.208-21.912 34.693-33.553 3.349-15.688 11.074-26.706 35.649-26.706 39.762 0 44.896-50.073 48.674-69.161 3.277-16.555 10.105-27.185 18.929-33.014-5.923-3.631-12.884-5.58-20.518-5.58-17.845-.001-32.987 11.191-38.411 38.594-3.779 19.088-8.912 69.161-48.674 69.161-24.575 0-32.3 11.017-35.649 26.706-2.485 11.641-8.843 29.667-34.693 33.553l.418.02c.419 26.052 4.099 43.544 36.367 62.138 10.502 6.052 26.647 14.559 41.86 20.279 13.218 13.865 18.09 39.793 0 58.764-13.017 13.651-35.205 25.039-33.797 44.735 1.468 20.534 13.945 35.051 13.945 35.051s-1.571.317-4.35.7c24.156 3.381 44.35-.7 44.35-.7s-12.477-14.517-13.945-35.051c-1.409-19.696 20.779-31.084 33.797-44.735 9.246-9.697 12.483-21.208 11.684-32-3.301-7.038-4.636-13.25-5.147-17.665z"/><path d="m405.391 373.083c-17.868-16.696-3.609-33.681 4.992-42.881 36.361-38.892 20.956-67.32.755-92.938-30.507-38.689-18.51-79.09-21.201-125.311-6.141-105.478-87.782-89.712-87.782-89.712s47.782 8.251 47.782 89.712c0 8.74.492 17.242.338 25.58 3.314 20.412 7.399 50.166 8.904 80.252 2.986 6.553 6.881 13.04 11.958 19.479 20.201 25.618 35.605 54.046-.755 92.938-8.601 9.2-22.86 26.185-4.992 42.881 22.69 21.202 28.262 51.761 7.333 74.643 5.687 12.272 6.163 21.115 6.163 21.115 56.559-20.51 57.455-66.838 26.505-95.758z"/></g><path d="m347.849 293.058c6.656 6.166 15.564 9.935 25.352 9.935 20.608 0 37.315-16.706 37.315-37.315s-16.706-37.315-37.315-37.315h-17.545" fill="#fed33a"/><path d="m373.201 228.363h-17.545l-.248 2.053c14.611 5.058 25.108 18.93 25.108 35.261 0 15.272-9.178 28.392-22.316 34.168 4.592 2.019 9.664 3.147 15.001 3.147 20.608 0 37.315-16.706 37.315-37.315s-16.707-37.314-37.315-37.314z" fill="#f5bf00"/><path d="m339.773 228.363h35.082c10.601 0 19.195-8.584 19.195-19.173s-8.594-19.173-19.195-19.173l-37.536.42z" fill="#ffbeb3"/><path d="m150.631 250.295c.419 26.052 4.099 43.544 36.367 62.138 17.217 9.922 49.606 26.457 68.177 26.457s50.96-16.536 68.177-26.457c36.213-20.868 36.421-40.347 36.421-72.096 0-60.592-14.256-129.239-14.256-129.239-5.717-18.128-19.953-28.835-37.877-28.836-17.845-.001-32.987 11.191-38.411 38.594-3.779 19.088-8.912 69.161-48.674 69.161-24.575 0-32.3 11.017-35.649 26.706-2.485 11.641-8.843 29.666-34.693 33.553" fill="#ffd1c9"/><path d="m345.518 111.098c-5.717-18.128-19.953-28.835-37.877-28.836-5.169 0-10.109.946-14.654 2.946 10.525 4.345 18.572 13.336 22.531 25.89 0 0 14.256 68.647 14.256 129.239 0 31.749-.208 51.228-36.421 72.096-13.174 7.591-35.225 19.047-53.177 24.013 5.51 1.524 10.639 2.444 15 2.444 18.571 0 50.96-16.536 68.177-26.457 36.213-20.868 36.421-40.347 36.421-72.096-.001-60.592-14.256-129.239-14.256-129.239z" fill="#ffbeb3"/></g></g></g><g fill="#060606"><path d="m273.732 200.161c4.143 0 7.5-3.358 7.5-7.5 0-6.357 5.172-11.528 11.528-11.528s11.528 5.171 11.528 11.528c0 9.386 15 9.813 15 0 0-14.628-11.9-26.528-26.528-26.528s-26.528 11.9-26.528 26.528c0 4.142 3.358 7.5 7.5 7.5z"/><path d="m255.4 289.258c9.233 0 19.84-3.13 30.925-12.473 7.178-6.048-2.164-17.796-9.666-11.47-12.311 10.375-30.367 12.167-42.528.401-6.659-6.581-17.499 3.722-10.572 10.641.193.193 13.234 12.901 31.841 12.901z"/><path d="m416.68 372.224c-10.495-13.925-15.763-20.915-.818-36.899 39.165-41.892 23.706-74.119 1.167-102.704-20.934-26.547-20.253-53.951-19.464-85.681.792-31.807.874-65.917-15.636-94.32-15.976-27.485-46.977-42.009-78.409-38.16-22.769-12.22-51.747-17.024-80.026-13.147-31.532 4.323-59.291 18.916-78.163 41.089-6.255 7.35 5.212 17.017 11.424 9.722 16.478-19.36 40.903-32.128 68.777-35.95 26.041-3.57 52.619 1.015 72.908 12.583 1.514.862 3.405 1.173 5.114.853 26.828-4.93 53.93 9.076 66.688 32.767 13.734 25.503 13.025 56.107 12.327 84.19-.315 12.656-.618 25.044.468 37.236-6.104-1.969-12.786-1.179-19.085-1.028-2.501-23.829-5.561-47.984-10.728-71.412-4.812-21.823-24.944-37.466-47.51-36.526-27.587 1.149-40.606 26.315-44.915 50.373-4.956 27.727-12.562 57.307-40.245 57.307-24.908 0-38.165 10.066-42.983 32.64-2.404 11.266-7.813 24.596-28.473 27.702-24.202 3.639-34.001 24.159-34.406 25.03-3.953 8.504 9.442 15.274 13.58 6.369.228-.472 4.763-9.647 15.208-14.29 1.129 17.608 7.133 32.959 20.308 45.054 16.646 15.282 39.844 26.013 60.722 34.071 8.953 10.499 14.231 31.15-1.08 47.206-14.078 14.76-37.552 26.647-35.85 50.446.837 11.709 4.831 21.628 8.588 28.588-13.84 1.104-38.059 1.028-59.634-9.215-18.7-8.88-30.564-21.544-34.311-36.625-3.389-13.643.228-28.924 9.92-41.928 19.316-25.913 2.537-43.86-5.526-52.485-9.973-10.667-19.145-23.826-19.399-38.966-.28-16.683 10.106-31.477 19.297-44.533 26.121-37.103 26.67-65.876 25.403-109.749-.441-15.304 1.24-29.577 4.997-42.421 2.704-9.243-11.689-13.467-14.396-4.211-4.199 14.354-6.081 30.188-5.595 47.065 1.248 43.221.807 67.329-22.675 100.682-17.096 24.283-40.508 57.541 1.41 102.377 9.835 10.519 15.458 18.519 4.458 33.276-12.39 16.62-16.928 36.488-12.452 54.508 3.154 12.697 12.127 30.15 36.61 43.578-3.352 11.634-2.057 25.84-2.057 37.805 0 4.142 3.357 7.5 7.5 7.5h160.772c9.386 0 9.813-15 0-15h-13.449c4.14-43.393 22.539-84.361 30.353-100.138 2.531 1.499 5.057 3.005 7.579 4.519 8.244 40.282 5.509 102.139 5.479 102.772-.19 4.202 3.282 7.847 7.492 7.847h52.686c4.143 0 7.5-3.358 7.5-7.5 0-10.361-.007-20.44-1.007-30.27 17.255-6.933 29.883-16.698 37.559-29.072 15.218-24.529 8.267-51.335-8.002-72.925zm-49.407-136.361h-.027c18.167 0 35.769 9.139 35.769 29.814 0 22.573-25.441 37.178-44.927 25.698 9.183-15.019 9.185-35.833 9.185-55.512zm27.925-9.207c-.043-.024-.085-.05-.129-.074.019-.021.037-.043.056-.064.025.046.049.092.073.138zm-20.264-29.139c14.994.097 15.025 23.346-.078 23.346h-8.019c-.334-7.769-.843-15.523-1.473-23.117zm-216.636 58.73c18.203-4.903 29.607-17.643 33.943-37.96 2.808-13.155 8.341-20.771 28.313-20.771 18.682 0 33.015-9.282 42.602-27.588 11.619-22.187 8.683-74.653 38.414-79.523 16.834-2.757 31.601 6.935 36.68 22.591 1.119 5.522 14.023 70.482 14.023 127.341 0 31.143 0 46.774-32.666 65.598-21.354 12.306-49.495 25.456-64.432 25.456-23.496 0-51.5-16.674-70.409-29.137-17.2-11.338-25.587-25.484-26.468-46.007zm-19.855 216.916c12.618 4.674 25.422 6.714 36.673 7.387.1 6.635.279 12.264.447 16.442h-38.32c.066-8.814.319-16.598 1.2-23.829zm52.134 23.829c-.167-4.058-.353-9.674-.456-16.266 11.689-.413 19.626-1.963 20.373-2.113 5.508-1.114 7.839-7.947 4.219-12.221-12.304-14.446-17.004-35.406-2.717-49.658 7.91 19.067 18.319 49.01 21.312 80.258zm71.405 0h-13.61c-3.057-34.757-14.553-67.711-24.532-90.757 3.61-3.069 7.251-6.234 10.446-9.584 14.606-15.317 16.637-35.079 10.832-51.345 8.361 1.612 16.393 1.052 24.611-.997 2.255 22.618 12.776 35.165 25.005 44.268-7.945 15.65-28.498 60.089-32.752 108.415zm73.726 0c.424-15.886.779-52.791-3.617-84.361 38.256 27.711 40.852 50.762 41.028 84.361zm48.89-37.976c-8.339-34.462-37.383-56.025-66.372-73.176-17.269-10.216-32.297-19.125-33.819-46.199 22.068-8.309 47.162-19.767 64.208-36.502 7.258 4.772 15.763 7.354 24.586 7.354 26.715 0 47.931-24.289 44.409-50.753 10.36 18.49 12.148 38.757-12.706 65.341-23.552 25.191-10.606 42.369-.204 56.172 5.804 7.7 11.805 15.663 13.078 25.518 3.061 23.68-8.105 41.226-33.18 52.245z"/></g></g></svg>