<?xml version="1.0" encoding="UTF-8"?>
<svg xmlns="http://www.w3.org/2000/svg" onmouseup="{ if(window.parent.document.onmouseup) window.parent.document.onmouseup(arguments[0]);}" width="512" viewBox="0 0 64 64" height="512" enable-background="new 0 0 64 64"><g id="_x31_4"><g><circle cx="12" cy="16" r="1"/><circle cx="20" cy="16" r="1"/><path d="m21 20v-1h-10v1c0 2.757 2.243 5 5 5s5-2.243 5-5zm-7.829 1h5.657c-.413 1.164-1.525 2-2.829 2s-2.415-.836-2.828-2z"/><path d="m36 9c-2.38 0-4.725.327-7 .936v-5.936c0-1.654-1.346-3-3-3h-12.162c-5.976 0-10.838 4.862-10.838 10.838 0 1.693.22 3.377.635 5.017-.397.622-.635 1.355-.635 2.145 0 2.206 1.794 4 4 4h.08c.366 2.538 2.093 4.636 4.419 5.53l-.221.568c-.374.093-.72.254-1.025.474-4.612 1.92-7.942 5.961-8.943 10.857-.191.371-.31.791-.31 1.248 0 .343.064.678.191.994l.593 1.482c.825 2.063 1.402 4.222 1.716 6.419l.256 1.793c.189 1.327.715 2.596 1.52 3.669l1.638 2.185-1.195 4.781h20.562l-.503-2.012c3.235 1.329 6.663 2.012 10.222 2.012 14.888 0 27-12.112 27-27s-12.112-27-27-27zm-13.116 28.22c-.167-.614-.521-1.145-1.001-1.537l.697-3.482c3.811 2.223 6.264 6.245 6.413 10.798h-1.993v-3c0-1.654-1.346-3-3-3-.395.001-.77.082-1.116.221zm-2.811-6.138c.217.072.436.141.647.223l-.422 2.107-2.221-1.332zm-4.352 3.918-.463-1.388.742-.446.742.445-.463 1.389zm2.778-.334.74.444c-.393.104-.751.284-1.063.525zm8.501 16.729v-6.395h4v-1.56c0-6.52-4.096-12.172-10.236-14.234l-.263-.676c2.326-.894 4.053-2.992 4.419-5.53h.08c2.206 0 4-1.794 4-4 0-.211-.031-.414-.062-.617 2.244-.901 4.611-1.383 7.062-1.383 10.477 0 19 8.523 19 19s-8.523 19-19 19c-3.18 0-6.3-.804-9.072-2.314.043-.428.072-.858.072-1.291zm-2-34.395c1.103 0 2 .897 2 2s-.897 2-2 2zm12 39.949c5.035-.239 9.602-2.25 13.101-5.434l2.844 2.844c-4.23 3.907-9.806 6.372-15.945 6.615zm14.515-6.847c3.184-3.5 5.195-8.067 5.434-13.102h4.025c-.243 6.14-2.708 11.716-6.615 15.946zm5.434-15.102c-.239-5.035-2.25-9.602-5.434-13.102l2.844-2.844c3.907 4.23 6.372 9.806 6.615 15.946zm-4.003-17.36-2.844 2.844c-3.732-3.394-8.672-5.484-14.102-5.484-2.602 0-5.127.469-7.523 1.391.328-1.437.504-2.903.517-4.377 2.268-.662 4.618-1.014 7.006-1.014 6.534 0 12.487 2.522 16.946 6.64zm-47.946 1.36c0-1.103.897-2 2-2v4c-1.103 0-2-.897-2-2zm4 3v-8c0-1.619 1.291-2.934 2.897-2.99.592 1.12 1.458 2.095 2.548 2.822l1.109-1.664c-1.599-1.066-2.554-2.851-2.554-4.773v-.395h-2v.395c0 .575.073 1.138.195 1.687-2.373.387-4.195 2.437-4.195 4.918v1c-.591 0-1.148.137-1.654.368-.226-1.162-.346-2.344-.346-3.53 0-4.873 3.965-8.838 8.838-8.838h12.162c.551 0 1 .449 1 1v7.838c0 1.186-.12 2.368-.346 3.53-.506-.231-1.063-.368-1.654-.368v-1c0-1.654-1.346-3-3-3h-1c-2.206 0-4-1.794-4-4h-2c0 3.309 2.691 6 6 6h1c.551 0 1 .449 1 1v8c0 2.757-2.243 5-5 5h-4c-2.757 0-5-2.243-5-5zm5 7h4c.178 0 .353-.014.527-.027l.21.54-2.737 1.369-1.792-.896c-.247-.271-.542-.493-.873-.659l.138-.354c.174.013.349.027.527.027zm-5 3.494v12.423c0 .086-.152.098-.165.015l-.293-1.76c-.393-2.36-2.379-4.076-4.753-4.157.972-2.7 2.802-4.978 5.211-6.521zm-3.264 19.589-.256-1.794c-.336-2.354-.955-4.669-1.838-6.878l-.593-1.484c-.033-.079-.049-.163-.049-.309 0-.341.277-.618.618-.618 1.469 0 2.71 1.052 2.952 2.5l.293 1.76c.168 1.009 1.032 1.74 2.054 1.74 1.149 0 2.083-.935 2.083-2.083v-12.917c0-.551.449-1 1-1s1 .449 1 1v13h2v-7c0-.552.449-1 1-1s1 .448 1 1v7h2v-7c0-.552.449-1 1-1s1 .448 1 1v7h2v-5c0-.552.449-1 1-1s1 .448 1 1v11.395c0 1.986-.541 3.911-1.558 5.605h-14.942l-1.624-2.165c-.604-.806-.998-1.757-1.14-2.752zm2.545 8.917.5-2h14.438l.5 2zm16.791-2.835c.658-1.067 1.153-2.213 1.476-3.409 2.622 1.322 5.504 2.071 8.452 2.211v4.005c-3.443-.133-6.746-.954-9.838-2.446z"/><path d="m37.707 26.293-1.414 1.414 3.815 3.815 6.692-8.922-1.6-1.2-5.308 7.078z"/><path d="m36 35h8c1.654 0 3-1.346 3-3v-4h-2v4c0 .551-.449 1-1 1h-8c-.551 0-1-.449-1-1v-8c0-.551.449-1 1-1h5v-2h-5c-1.654 0-3 1.346-3 3v8c0 1.654 1.346 3 3 3z"/><path d="m39.892 44.478-2.185-2.185-1.414 1.414 3.815 3.815 6.692-8.922-1.6-1.2z"/><path d="m44 51c1.654 0 3-1.346 3-3v-4h-2v4c0 .552-.449 1-1 1h-8c-.551 0-1-.448-1-1v-8c0-.552.449-1 1-1h5v-2h-5c-1.654 0-3 1.346-3 3v8c0 1.654 1.346 3 3 3z"/></g></g></svg>