<?xml version="1.0" encoding="UTF-8"?>
<svg xmlns="http://www.w3.org/2000/svg" onmouseup="{ if(window.parent.document.onmouseup) window.parent.document.onmouseup(arguments[0]);}" width="512" viewBox="0 0 64 64" height="512" enable-background="new 0 0 64 64" id="Layer_5"><g><g><g><path d="m58 2h-52c-2.21 0-4 1.79-4 4v2h60v-2c0-2.21-1.79-4-4-4z" fill="#aab2bd"/></g><g><path d="m4 8v38h56v-38z" fill="#e6e9ed"/></g><g><path d="m40 8v1c0 .55-.45 1-1 1h-14c-.55 0-1-.45-1-1v-1-1c0-.55.45-1 1-1h14c.55 0 1 .45 1 1z" fill="#5cd6b3"/></g><g><path d="m27 46-9.33 14.93c-.42.66-1.15 1.07-1.94 1.07h-2.44c-.63 0-1.21-.26-1.62-.67s-.67-.99-.67-1.62c0-.46.14-.91.41-1.3l8.59-12.41z" fill="#cf9e76"/></g><g><path d="m52.59 58.41c.27.39.41.84.41 1.3 0 .63-.26 1.21-.67 1.62s-.99.67-1.62.67h-2.44c-.79 0-1.52-.41-1.94-1.07l-9.33-14.93h7z" fill="#cf9e76"/></g><g><path d="m35 46v13.71c0 1.27-1.02 2.29-2.29 2.29h-1.42c-1.27 0-2.29-1.02-2.29-2.29v-13.71z" fill="#cf9e76"/></g><g><path d="m30 29v4h-20c-1.1 0-2-.9-2-2v-14c0-1.1.9-2 2-2h22c1.1 0 2 .9 2 2v3 4h-2c-1.1 0-2 .9-2 2z" fill="#ff826e"/></g><g><path d="m34 24h20c1.1 0 2 .9 2 2v14c0 1.1-.9 2-2 2h-22c-1.1 0-2-.9-2-2v-3-4-4-3c0-1.1.9-2 2-2z" fill="#fcd770"/></g></g><g><path d="m63 6c0-2.757-2.243-5-5-5h-52c-2.757 0-5 2.243-5 5v3h2v38h15.091l-7.507 10.844c-.382.551-.584 1.198-.584 1.87 0 1.811 1.475 3.286 3.286 3.286h2.447c1.14 0 2.182-.577 2.786-1.544l9.035-14.456h.446v12.714c0 1.811 1.475 3.286 3.286 3.286h1.428c1.811 0 3.286-1.475 3.286-3.286v-12.714h.446l9.035 14.456c.604.967 1.646 1.544 2.786 1.544h2.447c1.811 0 3.286-1.475 3.286-3.286 0-.672-.202-1.319-.584-1.87l-7.507-10.844h15.091v-38h2zm-46.176 54.396c-.237.378-.644.604-1.091.604h-2.447c-.709 0-1.286-.577-1.286-1.286 0-.263.079-.516.229-.731l8.295-11.983h4.672zm17.176-.682c0 .709-.577 1.286-1.286 1.286h-1.428c-.709 0-1.286-.577-1.286-1.286v-12.714h4zm17.771-.732c.15.216.229.469.229.732 0 .709-.577 1.286-1.286 1.286h-2.447c-.446 0-.854-.226-1.091-.604l-8.372-13.396h4.672zm7.229-13.982h-54v-36h18c0 1.103.897 2 2 2h14c1.103 0 2-.897 2-2h18zm-34-36v-2h14l.002 2zm36-2h-20c0-1.103-.897-2-2-2h-14c-1.103 0-2 .897-2 2h-20v-1c0-1.654 1.346-3 3-3h52c1.654 0 3 1.346 3 3z"/><path d="m54 23h-19v-6c0-1.654-1.346-3-3-3h-22c-1.654 0-3 1.346-3 3v14c0 1.654 1.346 3 3 3h19v6c0 1.654 1.346 3 3 3h22c1.654 0 3-1.346 3-3v-14c0-1.654-1.346-3-3-3zm-44 9c-.552 0-1-.448-1-1v-14c0-.552.448-1 1-1h22c.552 0 1 .448 1 1v6h-1c-1.654 0-3 1.346-3 3v.586l-6-6-4 4-4.586-4.586h1.586v-2h-5v5h2v-1.586l6 6 4-4 6 6v2.586zm45 8c0 .552-.448 1-1 1h-22c-.552 0-1-.448-1-1v-14c0-.552.448-1 1-1h22c.552 0 1 .448 1 1z"/><path d="m48 29h1.586l-4.586 4.586-4-4-7.707 7.707 1.414 1.414 6.293-6.293 4 4 6-6v1.586h2v-5h-5z"/><path d="m37 15h2v2h-2z"/><path d="m41 15h16v2h-16z"/><path d="m37 19h20v2h-20z"/><path d="m7 36h2v2h-2z"/><path d="m11 36h16v2h-16z"/><path d="m7 40h20v2h-20z"/></g></g></svg>