<?xml version="1.0" encoding="UTF-8"?>
<svg xmlns="http://www.w3.org/2000/svg" onmouseup="{ if(window.parent.document.onmouseup) window.parent.document.onmouseup(arguments[0]);}" width="512" viewBox="0 0 64 64" height="512" enable-background="new 0 0 64 64" id="_x33_0"><g><g><g><path d="m48 6c5.52 0 10 4.48 10 10 0 4.86-3.47 8.91-8.07 9.81-.62.13-1.27.19-1.93.19-2.32 0-4.45-.79-6.14-2.11-1.45-1.12-2.57-2.65-3.23-4.4v-.01c2.07-1.83 3.37-4.5 3.37-7.48 0-1.23-.22-2.4-.63-3.49 1.77-1.56 4.09-2.51 6.63-2.51z" fill="#fcd770"/></g><g><path d="m41.37 8.51c.41 1.09.63 2.26.63 3.49 0 2.98-1.3 5.65-3.37 7.48-1.76 1.57-4.09 2.52-6.63 2.52s-4.87-.95-6.63-2.52c-2.07-1.83-3.37-4.5-3.37-7.48 0-1.23.22-2.4.63-3.49 1.41-3.8 5.08-6.51 9.37-6.51s7.96 2.71 9.37 6.51z" fill="#fcd770"/></g><g><path d="m22 12c0 2.98 1.3 5.65 3.37 7.48v.01c-.65 1.75-1.78 3.28-3.23 4.4-1.69 1.32-3.82 2.11-6.14 2.11-.69 0-1.36-.07-2.01-.2-4.56-.94-7.99-4.97-7.99-9.8 0-5.52 4.48-10 10-10 2.54 0 4.86.95 6.63 2.51-.41 1.09-.63 2.26-.63 3.49z" fill="#fcd770"/></g><g><path d="m13.93 26.19c4.6.9 8.07 4.95 8.07 9.81 0 5.52-4.48 10-10 10s-10-4.48-10-10 4.48-10 10-10c.66 0 1.31.06 1.93.19z" fill="#fcd770"/></g><g><path d="m53.93 26.19c4.6.9 8.07 4.95 8.07 9.81 0 5.52-4.48 10-10 10s-10-4.48-10-10 4.48-10 10-10c.66 0 1.31.06 1.93.19z" fill="#fcd770"/></g><g><path d="m34.96 33.04c.64.64 1.04 1.52 1.04 2.5 0 .15-.01.3-.03.45h-.01c-.09.77-.44 1.49-1 2.05l-.96.96v15.76c0 2.71 1.08 5.32 3 7.24h-10c1.92-1.92 3-4.53 3-7.24v-15.76l-.96-.96c-.56-.56-.91-1.28-1-2.05h-.01c-.02-.15-.03-.3-.03-.45 0-1.04.44-1.97 1.16-2.61.63-.58 1.46-.93 2.38-.93h.46.46c.92 0 1.75.35 2.38.93.04.03.08.07.12.11z" fill="#cf9e76"/></g><g><path d="m52 56c3.31 0 6 1.34 6 3s-2.69 3-6 3-6-1.34-6-3c0-.35.12-.69.35-1 .78-1.12 2.84-1.92 5.3-1.99.11-.01.23-.01.35-.01z" fill="#aab2bd"/></g><g><path d="m18 52c3.31 0 6 1.34 6 3s-2.69 3-6 3c-.12 0-.23 0-.35 0-.78-1.12-2.84-1.92-5.3-1.99-.23-.32-.35-.66-.35-1.01 0-1.66 2.69-3 6-3z" fill="#aab2bd"/></g><g><path d="m52 55c0 .35-.12.69-.35 1.01-2.46.07-4.52.87-5.3 1.99-.12 0-.23 0-.35 0-3.31 0-6-1.34-6-3s2.69-3 6-3 6 1.34 6 3z" fill="#ccd1d9"/></g><g><path d="m18 59c0 1.66-2.69 3-6 3s-6-1.34-6-3 2.69-3 6-3c.12 0 .24 0 .35.01 2.46.07 4.52.87 5.3 1.99.23.31.35.65.35 1z" fill="#ccd1d9"/></g></g><g><path d="m31 16.816v2.184h2v-2h2v-3c0-1.654-1.346-3-3-3-.552 0-1-.448-1-1v-1h1c.552 0 1 .448 1 1v1h2v-1c0-1.302-.839-2.402-2-2.816v-2.184h-2v2h-2v3c0 1.654 1.346 3 3 3 .552 0 1 .448 1 1v1h-1c-.552 0-1-.448-1-1v-1h-2v1c0 1.302.839 2.402 2 2.816z"/><path d="m17 23v-2h2v-3c0-1.654-1.346-3-3-3-.552 0-1-.448-1-1v-1h1c.552 0 1 .448 1 1v1h2v-1c0-1.302-.839-2.402-2-2.816v-2.184h-2v2h-2v3c0 1.654 1.346 3 3 3 .552 0 1 .448 1 1v1h-1c-.552 0-1-.448-1-1v-1h-2v1c0 1.302.839 2.402 2 2.816v2.184z"/><path d="m47 20.816v2.184h2v-2h2v-3c0-1.654-1.346-3-3-3-.552 0-1-.448-1-1v-1h1c.552 0 1 .448 1 1v1h2v-1c0-1.302-.839-2.402-2-2.816v-2.184h-2v2h-2v3c0 1.654 1.346 3 3 3 .552 0 1 .448 1 1v1h-1c-.552 0-1-.448-1-1v-1h-2v1c0 1.302.839 2.402 2 2.816z"/><path d="m13 31.184v-2.184h-2v2h-2v3c0 1.654 1.346 3 3 3 .552 0 1 .448 1 1v1h-1c-.552 0-1-.448-1-1v-1h-2v1c0 1.302.839 2.402 2 2.816v2.184h2v-2h2v-3c0-1.654-1.346-3-3-3-.552 0-1-.448-1-1v-1h1c.552 0 1 .448 1 1v1h2v-1c0-1.302-.839-2.402-2-2.816z"/><path d="m51 29v2h-2v3c0 1.654 1.346 3 3 3 .552 0 1 .448 1 1v1h-1c-.552 0-1-.448-1-1v-1h-2v1c0 1.302.839 2.402 2 2.816v2.184h2v-2h2v-3c0-1.654-1.346-3-3-3-.552 0-1-.448-1-1v-1h1c.552 0 1 .448 1 1v1h2v-1c0-1.302-.839-2.402-2-2.816v-2.184z"/><path d="m52 47c6.065 0 11-4.935 11-11 0-5.374-3.876-9.853-8.978-10.806 2.994-1.967 4.978-5.351 4.978-9.194 0-6.065-4.935-11-11-11-2.243 0-4.411.691-6.238 1.951-1.833-3.53-5.517-5.951-9.762-5.951s-7.929 2.421-9.762 5.951c-1.827-1.26-3.995-1.951-6.238-1.951-6.065 0-11 4.935-11 11 0 3.843 1.984 7.227 4.978 9.194-5.102.953-8.978 5.432-8.978 10.806 0 6.065 4.935 11 11 11 5.728 0 10.442-4.402 10.949-10h2.637l-1.293 1.293 1.414 1.414 1.914-1.914c.197.34.422.665.707.95l.672.671v15.344c0 2.336-.87 4.533-2.441 6.242h-8.443c.563-.582.884-1.261.884-2 0-.014-.003-.027-.003-.041 3.482-.261 6.003-1.873 6.003-3.959 0-2.28-3.01-4-7-4s-7 1.72-7 4c0 .014.003.028.003.041-3.482.261-6.003 1.873-6.003 3.959 0 2.28 3.01 4 7 4h40c3.99 0 7-1.72 7-4 0-2.086-2.521-3.698-6.003-3.959 0-.013.003-.027.003-.041 0-2.28-3.01-4-7-4s-7 1.72-7 4c0 2.086 2.521 3.698 6.003 3.959 0 .014-.003.027-.003.041 0 .739.321 1.418.884 2h-8.443c-1.571-1.709-2.441-3.906-2.441-6.242v-15.344l.672-.672c.285-.285.51-.61.707-.95l1.914 1.914 1.414-1.414-1.293-1.292h2.637c.507 5.598 5.221 10 10.949 10zm-34 6c3.052 0 5 1.185 5 2 0 .805-1.904 1.965-4.89 1.995-1.026-1.055-2.863-1.783-5.102-1.952-.001-.014-.008-.029-.008-.043 0-.815 1.948-2 5-2zm-11 6c0-.815 1.948-2 5-2s5 1.185 5 2-1.948 2-5 2-5-1.185-5-2zm34-4c0-.815 1.948-2 5-2s5 1.185 5 2c0 .014-.007.029-.008.042-2.239.17-4.077.897-5.102 1.952-2.986-.029-4.89-1.189-4.89-1.994zm6 4c0-.815 1.948-2 5-2s5 1.185 5 2-1.948 2-5 2-5-1.185-5-2zm-10.054-24c-.093-.782-.374-1.503-.815-2.112l.691-.888h4.178v-2h-2.622l3.696-4.753c1.182.758 2.506 1.291 3.908 1.556-2.733 1.795-4.62 4.769-4.931 8.197zm-13.997 0c-.311-3.427-2.198-6.402-4.931-8.197 1.402-.265 2.726-.798 3.908-1.556l2.918 3.753h-1.844v2h3.4l1.469 1.888c-.441.608-.721 1.329-.815 2.112zm6.429-3.429-5.868-7.545c.907-.846 1.671-1.85 2.255-2.974 1.515 1.047 3.303 1.723 5.236 1.898v2.637l-1.293-1.293-1.414 1.414 2.706 2.706v2.64c-.583.07-1.128.247-1.622.517zm3.622-1.157 2.707-2.707-1.414-1.414-1.293 1.293v-4.637c1.932-.175 3.72-.851 5.236-1.898.584 1.124 1.348 2.128 2.255 2.974l-5.868 7.545c-.494-.27-1.039-.447-1.622-.517v-.639zm28 5.586c0 4.963-4.037 9-9 9s-9-4.037-9-9 4.037-9 9-9 9 4.037 9 9zm-13-29c4.963 0 9 4.037 9 9s-4.037 9-9 9c-3.528 0-6.722-2.108-8.171-5.286 1.958-1.987 3.171-4.71 3.171-7.714 0-1.093-.165-2.147-.464-3.144 1.565-1.198 3.48-1.856 5.464-1.856zm-16-4c4.963 0 9 4.037 9 9s-4.037 9-9 9-9-4.037-9-9 4.037-9 9-9zm-25 13c0-4.963 4.037-9 9-9 1.984 0 3.899.658 5.464 1.856-.299.997-.464 2.051-.464 3.144 0 3.004 1.213 5.727 3.171 7.714-1.449 3.178-4.643 5.286-8.171 5.286-4.963 0-9-4.037-9-9zm5 29c-4.963 0-9-4.037-9-9s4.037-9 9-9 9 4.037 9 9-4.037 9-9 9zm22.258-7.672-1.258 1.258v16.172c0 2.256.661 4.41 1.889 6.242h-5.778c1.228-1.832 1.889-3.986 1.889-6.242v-16.172l-1.258-1.258c-.478-.478-.742-1.115-.742-1.793 0-1.397 1.138-2.535 2.535-2.535h.93c1.397 0 2.535 1.138 2.535 2.535 0 .678-.264 1.315-.742 1.793z"/></g></g></svg>