<?xml version="1.0" encoding="UTF-8"?>
<svg xmlns="http://www.w3.org/2000/svg" onmouseup="{ if(window.parent.document.onmouseup) window.parent.document.onmouseup(arguments[0]);}" width="512" viewBox="0 0 67 67" height="512" enable-background="new 0 0 67 67" id="Layer_1"><g><g><g><g><g><g><g><g><g><g enable-background="new"><g><path d="m10.1412849 65.3949738-3.7870545-2.2382469c-.2793713-.1623535-.4526052-.5075836-.4539962-.998188l3.787055 2.2382507c.0013905.4906005.1746245.8358306.4539957.9981842z" fill="#c4c2c0"/></g><g><g><path d="m9.6872892 64.3967896-3.787055-2.2382508-.0797348-33.7867126 3.787055 2.2382507z" fill="#d6d4d2"/></g></g><g><g><path d="m9.6872892 64.3967896-3.787055-2.2382508-.0797348-26.6823005 3.787055 2.2382507z" fill="#c4c2c0"/></g></g><g><g><path d="m9.6872892 64.3967896-3.787055-2.2382508-.0797348-12.4734764 3.787055 2.2382507z" fill="#d6d4d2"/></g></g><g><path d="m49.1338196 7.7895756.0797348 33.7867126c.0028.9874306-.6915741 2.1903839-1.5511169 2.6866417l-36.4141093 21.0236988c-.8593264.4961319-1.5582399.0975876-1.561039-.8898392l-.0797348-33.7867126z" fill="#e9e8e6"/><path d="m47.9645844 41.5783844c0 .539917-.460022 1.3299561-.9300537 1.5999756l-36.0899649 20.8400879-.0900269-32.6900635 37.0400381-21.3800058z" fill="#fff"/></g></g><g enable-background="new"><g><path d="m7.3632317 22.7373333c-.8595738.4958839-1.5540557 1.69874-1.5510859 2.6860161l.0081482 2.9480457 3.7873979 2.23839-.0085287-2.9480457c-.0025883-.9872761.6914368-2.1902065 1.5510101-2.6863956l4.2028351-2.4264984-3.7867136-2.238163z" fill="#3f9ae0"/><path d="m11.5662947 20.3106823 3.7867136 2.238163 9.2459011-5.3381462-3.786789-2.2382384z" fill="#006cb5"/><path d="m44.830265 5.5302272-3.7870903-2.2384663-10.7206115 6.1896472 3.7870178 2.23839z" fill="#006cb5"/><g fill="#3f9ae0"><path d="m30.3225632 9.4814081-9.5104428 5.4910526 3.786789 2.2382384 9.5106716-5.490901z"/><path d="m47.5644073 3.9516516c.4323769-.2497699.8243179-.2727671 1.1071358-.1083605l-3.7870178-2.2383142c-.2828178-.1644826-.6747589-.1410285-1.1075134.1083605l-2.7338371 1.5784236 3.7870903 2.2384663z"/></g></g><g><path d="m47.5642052 3.9517822c.8595467-.4962585 1.5584564-.0979695 1.5612564.8894553l.008358 2.9480834-39.5262661 22.8205004-.008358-2.948082c-.002799-.9874249.6915741-2.1901283 1.5509005-2.6862602z" fill="#0074d1"/></g></g></g></g><g fill="#fff"><path d="m12.0343037 26.0594749c.4753799-.2744617.8673315-.0585728.8689013.4951611.0015697.5537071-.3878574 1.2282486-.8632374 1.5027084-.4818726.2782097-.8803806.0585842-.8819504-.4951229-.0015698-.5537338.3944139-1.2245369.8762865-1.5027466z"/><path d="m14.8930559 24.4089737c.4818716-.2782097.8738451-.0623341.8754148.4913998.0015697.553709-.3878794 1.2282619-.869751 1.5064697-.4818945.278223-.8738899.0548363-.8754597-.4988708-.0015696-.5537339.3879014-1.2207776.8697959-1.4989987z"/><path d="m17.7582989 22.7547245c.4818726-.2782097.8738461-.0623341.8754158.4913998.0015697.553709-.3878803 1.2282619-.869751 1.5064697-.4818954.278223-.873867.0548229-.8754368-.4988842-.0015697-.5537338.3878784-1.2207642.869772-1.4989853z"/></g></g></g></g></g></g><g><g><g><g><g><path d="m38.0137596 31.9329052c1.6451645 1.3822536 2.6402245 3.7742176 2.656929 6.9975605l-4.8099823 2.7770424c-.0129318-1.8929138-.5967712-3.2997894-1.5596542-4.1228409z" fill="#81d672"/></g></g><g><g><path d="m40.0198174 39.5101929c-.0700645 0-.1389351-.0366287-.1763573-.1019173-.0565338-.0975342-.0230904-.2221413.0744438-.2782745l.6509018-.3758087c.0963402-.0565338.2221413-.0234909.2782745.0744438.05653.0975342.0230904.2221413-.0744438.2782745l-.6509018.3758125c-.0322456.0187111-.0672798.0274697-.1019172.0274697z" fill="#494846"/></g></g><g><g><path d="m28.7821674 32.1930962c3.7226391-2.1492672 7.0506763-2.0920582 9.2315922-.260191l-3.7127075 5.651762c-.6335487-.5405807-1.4331474-.8260765-2.3452187-.8262482.6073036-2.3178024 1.0830879-4.1401482 1.1081276-4.2360611-.0366058.0965538-.7320747 1.9310646-1.6144581 4.2640724-.8190956.0898018-1.7144413.3954926-2.6516571.9365959z" fill="#ffd651"/></g></g><g><g><path d="m33.063961 32.5223579c-.0250397.0959129-.500824 1.9182587-1.1081276 4.2360611-.8907547 3.3996429-2.0105038 7.6587601-2.1145077 7.9840698-.1300583.4020424-.4092369.7563858-.7019024.9253578-.1066589.0615807-.2150707.0985527-.3187599.1042328-.3907127.0199203-.5633526-.4047623-.3859138-.9562416.1040001-.3235779 1.7208691-4.6083717 3.0147533-8.0294075.8823834-2.3330078 1.5778523-4.1675186 1.6144581-4.2640724z" fill="#494846"/></g></g><g><g><path d="m28.7821674 32.1930962.0156784 5.5299301c-3.8736534 2.236454-7.0071812 7.6494255-7.0147057 12.1121674l-4.8124905 2.7784958c-.0011367-7.5140305 5.2773992-16.6481171 11.8115178-20.4205933z" fill="#f25a5a"/></g></g><g><g><path d="m16.970768 52.817627c-.0700665 0-.1389389-.0366249-.1763611-.1019135-.05653-.097538-.0230904-.2221413.0744457-.2782745l.9132519-.5274887c.0967388-.0573273.2221413-.0230904.2782745.0744438.0565319.097538.0230904.2221451-.0744457.2782745l-.9132519.5274887c-.0322456.0187111-.0672798.0274697-.1019134.0274697z" fill="#494846"/></g></g></g><g><g><path d="m28.7976532 33.8001785c-.1114693 0-.2026348-.0895729-.2038288-.2014389l-.0139332-1.2508469c-.0011959-.1126633.0891743-.2050209.2014408-.2062149h.002388c.1114693 0 .2026348.0895729.2038288.2014389l.0139351 1.250843c.001194.1126633-.0891762.2050247-.2014408.2062187-.0007973.0000001-.0015926.0000001-.0023899.0000001z" fill="#494846"/></g></g><g><g><path d="m37.4858856 32.9402733c-.0386162 0-.0776329-.0107498-.1118698-.0334396-.0939522-.0617065-.1202278-.1883049-.0585213-.2822571l.5278893-.8033752c.061306-.0947475.1883011-.1202259.2822533-.0585213.0939522.0617065.1202278.1883049.0585213.2822571l-.5278854.8033752c-.039013.0597152-.1043016.0919609-.1703874.0919609z" fill="#494846"/></g></g><g><g><path d="m23.3245144 38.6733742c-.0660858 0-.1313744-.0322456-.1703892-.0919609l-.5278873-.8033752c-.0617046-.0939522-.0354309-.2205505.0585232-.2822571.0919609-.0621033.2197533-.0366249.2822552.0585213l.5278873.8033752c.0617046.0939522.0354309.2205505-.0585232.2822571-.0342369.0226936-.0732498.0334396-.111866.0334396z" fill="#494846"/></g></g></g><g><g><path d="m13.5707874 53.3597755c.0603647.1109734.090827.2658768.0913992.4678383.0005684.2004166-.0289125.3914833-.0884523.571701-.0581694.1794281-.1409664.3385544-.245657.4758453-.1060562.1380768-.2258492.2448616-.3607349.3227386-.134882.077877-.2548876.1095352-.3613787.0941734-.1051254-.0161552-.1885538-.0793076-.2475529-.1910896-.0617208-.1102066-.090827-.2674522-.0913944-.467865-.0005732-.2019615.0275517-.3906937.0884476-.5716743.0581732-.1794281.1409712-.3385773.2456617-.4758453.1060562-.1380806.2258492-.2448883.3607302-.3227615.1348867-.077877.2548923-.1095161.3613834-.0941505.1051255.0161286.1885529.0793076.2475481.1910896zm-.3719148 1.190094c.056941-.131649.0851278-.2984695.084547-.5035744-.0005817-.2050819-.0296249-.3404312-.087122-.4044609-.0561399-.0663834-.1339426-.0700645-.2334032-.0126381-.0980949.056633-.1742563.1492043-.2311983.2808762-.0569506.1301079-.0837679.2977066-.0831861.5027885.0005808.2051048.0282545.3396721.0857601.4052467.0575008.0656013.1339388.0700874.2320337.0134544.0994597-.0574225.1769877-.1508063.2325688-.2816924" fill="#383836"/></g><g><path d="m15.1895847 52.0080261.2779465-.1604728-1.1078291 2.5151176-.2765856.159687z" fill="#383836"/></g><g><path d="m15.620245 52.7630005c.0751963.0491066.113699.1523247.1141472.3104553.0004444.1565437-.0373487.303833-.1120167.4410172-.0746765.1356354-.1726389.2392426-.2925377.3084641-.0776606.044838-.1458445.0638275-.2072725.0569496-.0614328-.0068817-.1092873-.038826-.1435699-.0974541-.0342827-.058609-.0522537-.1391754-.0525465-.2425079-.0002928-.1033287.0171623-.2043762.0509968-.3038826.0338392-.0979347.081357-.1849632.1425505-.262619.0611925-.0761032.1292562-.1373711.2069168-.182209.1198987-.0692254.2181271-.0788881.293332-.0282136zm-.1658993.6916885c.0298319-.067421.04461-.1496544.0443392-.2451439-.0002747-.097084-.0154705-.1620102-.0455866-.1947937-.0301199-.034359-.0724297-.0350342-.1255646-.0043564-.0504122.0291061-.0912151.0777664-.1224079.1459465-.0311966.0682068-.0459747.1504402-.0456953.2490692.0002747.0970688.0154753.1635628.0469513.1939926.031477.0320244.0724211.0334587.1228342.0043526.0531349-.0306777.0953026-.0800971.1251297-.1490669" fill="#383836"/></g><g><path d="m14.5135441 53.270237c-.0746689.1371803-.1712694.2400017-.2911692.309227-.1185341.0684357-.2154055.0773163-.2919674.0274467-.0752048-.0506783-.1137075-.1538925-.114151-.3104591-.0004444-.1565628.0373478-.3038254.1120205-.4410362.0760288-.1379662.1726341-.2407913.2911692-.309227.1198988-.0692215.2167664-.0781021.2919674-.0274467.0752001.0506821.1123419.1546822.1127863.311245.0004434.1565627-.0359879.3030394-.1106558.4402503zm-.414629.0841407c.0314808.0335732.0724258.0350075.122839.0059013.053134-.0306778.0953016-.0800972.1251335-.1475182.0298319-.0673981.04461-.1496277.0443306-.2482605-.0002756-.0970612-.0154753-.163559-.0455914-.1963501-.0301151-.0328064-.0724211-.0319061-.125555-.0012283-.0504131.0291023-.0912161.0777626-.1224079.1459427-.0311928.0697556-.0459709.1520119-.0457001.2475014.0002747.0970612.0154705.1619912.0469513.1940117" fill="#383836"/></g></g><g><g><path d="m17.5482044 36.7978249c.1212597-.0700073.2275944-.1094513.317646-.1159477.0914154-.0073051.1624451.0159836.211729.0706291.0520096.053093.0768147.1375694.0771294.2487106.000288.1017761-.0185165.2082825-.0550499.3187485-.0365334.1104889-.1084557.253933-.2157669.4303627l-.3735294.6218147.7003098-.4043236.0010033.3538132-1.2303123.7103195-.0007973-.2818031.6261673-1.0436478c.0665531-.1121216.1113358-.2007256.1343479-.2673111.023016-.0650368.0351315-.1237793.0349846-.1754417-.0002136-.0751495-.0221767-.120491-.0672531-.1352386-.0437107-.0139656-.1091671.0034294-.1936398.0522003-.0722103.0416908-.1362038.0943108-.1933384.1586723-.0571346.0643578-.1046886.1388397-.144022.2242699l-.2744331-.0453987c.0623627-.1457787.1493206-.2806549.26087-.4062309.1115455-.1271211.2395324-.230816.3839549-.3141976z" fill="#383836"/></g><g><path d="m19.4925404 35.7066345.0009842.3475494-.6785107.3917351-.0248795.3703499.1321602-.0763016c.230257-.1329384.3993549-.1772652.5086498-.1352997.1106567.0411835.165556.1506119.1660576.3275375.0003242.1142845-.0239086.2317696-.0740528.3548164-.0487823.122242-.1248684.2414398-.2255363.3544579-.1020241.1153526-.227293.2159004-.3758011.3016434-.1144485.0660744-.227581.1141434-.3380394.1434174-.1118202.0300598-.2059727.0342445-.2838154.0148888l.1475677-.4176369c.0628242.0170288.1337929.0184021.2142639.0017433.081831-.0174484.1649818-.0513535.2494564-.1001244.0953732-.0550652.1688843-.1194572.2232628-.1931992.0543785-.0737228.0814552-.1505241.0812416-.2256737-.0002308-.0814133-.0290108-.1243744-.0849915-.1343994-.0573406-.0076675-.1554947.0286255-.2958298.1096497l-.415554.2399178.0801239-1.1016235z" fill="#383836"/></g><g><path d="m20.3928757 36.0587158c-.073307.1364021-.1699142.2392273-.2898083.3084488-.1198997.0692215-.2167664.0781021-.2919674.0274391-.0752048-.0506706-.1137085-.1538925-.114151-.3104553-.0004444-.156559.0373478-.3038254.1120205-.4410362.0746727-.1356354.1712742-.2384491.291172-.3076744.1198959-.0692215.2167683-.0781059.2906036-.0282135.0751991.0506821.1137028.1539001.1141472.3104591.0004426.1565628-.0373497.3038292-.1120166.4410324zm-.4132729.0833397c.0301247.0343742.0724297.0350266.1228428.0059204.0531349-.0306778.0939369-.0793114.1237736-.1467323.0311928-.0681801.0459709-.1504135.0456905-.2490501-.0002747-.0970612-.0154743-.1635551-.0469513-.1955795-.0301151-.0312157-.0710602-.0326691-.1241951-.0019913-.0504131.0291023-.0925751.0785446-.1224117.1459465-.031189.0697517-.0459671.1519814-.0456963.2474937.0002747.097065.0154705.1619911.0469475.1939926" fill="#383836"/></g><g><path d="m21.0702782 34.7957268.2765808-.1596833-1.1064682 2.5143052-.2765808.1596832z" fill="#383836"/></g><g><path d="m21.4995728 35.551487c.0765648.0498695.1137028.1523209.114151.3104362.0004444.156559-.0359879.3030396-.1120205.4410362-.0746727.1356354-.171278.2384529-.2911739.3076744-.0776596.044838-.1472054.0645905-.2086372.0577354-.0614281-.0068779-.1092834-.0388298-.1435699-.0974541-.0342827-.0586014-.0508881-.1399841-.0511818-.243309-.0002918-.1033325.0157986-.2035675.049633-.3030739.0338421-.0979385.0813599-.1849709.1425495-.2626457.0611973-.0761032.130621-.138134.2082825-.182972.1198939-.0692214.2167662-.0781058.2919673-.0274275zm-.1658917.6932335c.031189-.0697556.0459671-.1519852.0456963-.2474976-.0002747-.097065-.0154705-.1619873-.0469475-.1939926-.0301247-.0343552-.0710697-.0358124-.1242046-.0051346-.0504112.0291061-.0925751.0785446-.1224079.1459465-.0311966.0681801-.0473347.1512222-.0470562.249836.0002766.0970802.0168362.1627922.0483131.1932182.0301151.0327911.072422.0334625.1228333.0043564.0531348-.0306778.0939369-.0793305.1237735-.1467323" fill="#383836"/></g></g><g><g><path d="m26.9080563 28.6052818.0009861.3475475-.6785107.391737-.0248795.3703289.1321602-.0763035c.230257-.1329384.3993549-.1772442.5086498-.1352768.1106567.0411835.165556.15061.1660576.3275356.0003242.1142845-.0239086.2317715-.0740528.3547974-.0487881.1206894-.1248722.2398891-.2255363.3544769-.1020241.1153526-.227293.2159004-.3758011.3016434-.1144485.0660763-.227581.1141434-.3380394.1434174-.1118202.0300617-.2059727.0342464-.2838154.0148907l.1475677-.4176598c.0628242.0170517.1337929.018425.2156258.0009766.0804653-.0182323.16362-.0505657.2480946-.0993366.0953732-.0550632.1688843-.1194553.2232628-.1931973.0543747-.0752945.0814552-.150526.0812378-.2272472-.000227-.0798416-.0290108-.1243706-.0849876-.1328259-.0573406-.0076694-.1554947.0286255-.2944679.10886l-.4169159.2407074.0801239-1.1016235z" fill="#383836"/></g><g><path d="m28.4692631 28.1210308c.0603638.1109886.090826.2658997.0913982.4678612.0005684.2003937-.0289116.3914776-.0884514.5716991-.0581703.179409-.1409721.3369846-.2470264.4750595-.1046906.1372929-.2244797.2456493-.3593655.3235264-.134882.0778732-.2548923.1079636-.3613834.092598-.1051254-.0161495-.188549-.077755-.248909-.1887321-.06036-.1109962-.0894661-.2682552-.0900345-.4686489-.0005722-.2019615.0275517-.3906975.0870876-.5709095.0595341-.1801968.1423321-.3393421.2470226-.476635.1060562-.1380539.2258492-.2448635.3607292-.3227367.1348877-.077877.2548923-.1095161.3600178-.0933876.1064911.0153655.1899205.0785407.2489148.1903056zm-.3719158 1.1901169c.056942-.1316719.0851288-.2984905.084547-.5035744s-.0296249-.3404312-.087122-.4044609c-.0561447-.0663815-.1339417-.0700855-.2334023-.012661-.0980949.0566349-.1742573.1492271-.2311993.280899-.0569496.130106-.0837669.2977047-.0831852.5027885.0005798.2050838.0282536.3396511.0857601.4052467.0575008.0655975.1339378.0700874.2320328.0134525.0994607-.0574225.176983-.1508024.2325689-.2816904" fill="#383836"/></g><g><path d="m30.5187168 27.5242786c.0751991.0490837.1137028.1523228.114151.3104343.0004444.1565647-.0373497.3038273-.1120262.4394684-.074667.1372032-.1726303.2408104-.2925282.3100338-.0776615.044838-.1458454.0638065-.2072735.056942-.0614319-.0068779-.1092873-.0388432-.1435699-.0974483-.0342827-.0586071-.0522537-.1392021-.0525455-.2425289-.0002975-.1049004.0171623-.2043533.0509968-.3038597.0338383-.0979557.081356-.1849651.1425495-.2626457.0611877-.0776711.1292572-.1373482.2069168-.1821842.1198997-.0692235.2181282-.078888.2933292-.0282117zm-.1658954.6916619c.0298309-.0673943.0446091-.1496277.0443382-.2451401-.0002747-.0970631-.0154705-.1619892-.0455856-.1947746-.0301208-.0343628-.0724297-.0350304-.1255646-.0043526-.0504131.0291061-.0912151.0777588-.1224079.1459446-.0311966.0681877-.0459747.1504154-.0456963.2490501.0002747.0970612.0154705.1620102.0469513.1940098.031477.0319996.072422.0334606.1228352.0043545.0531349-.0306759.0953025-.0801239.1251297-.1490917" fill="#383836"/></g><g><path d="m29.4120197 28.0314922c-.0746689.1372013-.1712742.2400265-.2911701.309248-.1185341.0684357-.2167664.0781002-.2919674.0274258-.0752048-.0506592-.1137066-.1538925-.114151-.3104362-.0004444-.1565628.0373497-.3038311.1120205-.4410362.0746689-.137207.172636-.2408123.2911701-.309248.119894-.0692215.2167664-.0781059.2919674-.0274258.0751991.0506763.1123409.1546803.1127853.3112431.0004445.1565436-.0359878.3030414-.1106548.4402293zm-.414629.084137c.031477.0320244.0724258.0350342.122839.005928.053133-.0306778.0953007-.0801239.1251335-.1475182.0298309-.0674.0446091-.1496277.0443306-.2482643-.0002747-.097065-.0154762-.1635628-.0455914-.1963673-.0301151-.0327892-.072422-.0318871-.125555-.0012112-.0504131.0291061-.091217.0777645-.1224079.1459446-.0311985.0681877-.0459709.1519909-.0457001.2475033.0002747.0970613.0154706.1619893.0469513.1939851" fill="#383836"/></g><g><path d="m30.0880604 26.7693043.2779465-.1604729-1.1078339 2.5135403-.2765846.159687z" fill="#383836"/></g></g><g><path d="m40.3867722 28.9382057.0007476.2643795-.563301 1.8199539-.3847466.2221337.5443192-1.7413101-.506176.292242.0008049.2849388-.3144417.1815453-.001751-.6168938z" fill="#383836"/></g><g><path d="m41.567852 28.2563076.000927.3260765-.6378365.3682556-.0233421.3474293.1239891-.0715847c.2160187-.1247196.3746605-.1662865.4784775-.1276493.1025352.0393734.1540413.1420345.1545105.3080006.0003052.1072388-.0224304.2174606-.0694733.33288-.0457687.1132259-.1171532.2250557-.2115898.3325386-.0957184.1082401-.2132378.2025719-.3525658.2830124-.1073723.0619907-.2135086.1070862-.3171387.1345501-.1049042.0282021-.1932373.0321083-.2662659.0139503l.138443-.3918152c.0589409.015995.1255188.0172844.2022934.0008965.075489-.0171051.1535034-.0474205.2327538-.0931759.0894775-.0516586.1584435-.1120701.2094574-.1812534.0510178-.0691833.0764198-.1412163.0762177-.2131939-.0002136-.0749054-.0272141-.1152287-.0797348-.1246147-.0537949-.0071945-.1458817.0268364-.2762604.1021099l-.3911362.2258244.0764465-1.0342464z" fill="#383836"/></g><g><path d="m43.4495087 28.1114883c.0718269.0453358.1066742.1429234.1070938.2912598.0004158.146883-.0337639.2843075-.1050949.4137669-.0700531.1272469-.1606865.2237129-.2731667.2886543-.0728607.0420647-.1381035.0605984-.1957397.0541458-.0576286-.0064392-.1025238-.0364285-.1346893-.0914116-.0321655-.0549984-.0477448-.1313267-.0480194-.2282696-.0002747-.0969372.0148201-.1909733.046566-.2843342.0317459-.0918999.0763283-.1735287.1337318-.2463989.057415-.0713997.1225471-.1295986.1954041-.1716633.1124839-.0649414.2033653-.0732727.2739143-.0257492zm-.1556321.6503907c.0292587-.0654411.0431252-.1426086.0428696-.2321968-.0002594-.0910606-.0145149-.151968-.0440445-.1820126-.0282593-.0322323-.0666733-.0335827-.1165237-.0048027-.0472946.0273056-.0855751.072937-.1148376.1369209-.0292702.0639725-.0431328.1411209-.0428734.2336521.0002594.0910645.0145187.15345.0440483.1820145.0295334.0300236.0679436.0313911.115242.0040836.0498466-.0287799.0881309-.0744266.1161193-.137659" fill="#383836"/></g><g><path d="m42.4125175 28.5866203c-.0700493.1287251-.1606827.2251854-.2731667.2901268-.1112022.0642052-.2033615.0732784-.2739143.0257301-.0705528-.0475197-.1066742-.1443768-.1070938-.2912598-.0004158-.1468639.0350418-.2850399.1050949-.4137478.0700531-.1287174.1619644-.2244492.2731705-.2886543.1124802-.0649414.2033615-.0747433.2739105-.0272007.0692749.0482635.1053963.1451149.1058121.2919788.0004158.1468831-.035038.2850648-.1038132.4130269zm-.3889923.0789414c.0295372.031496.0679474.0328617.1152458.0055561.0498466-.02878.0881271-.0744247.1173973-.1383972.0279846-.0632286.041851-.1403961.0415878-.2329311-.0002594-.0910606-.0145187-.1534462-.0427704-.1842079-.0295334-.0285454-.0679436-.029911-.117794-.0011311-.0472946.0273056-.0855751.0729523-.1148415.1369209-.0292625.065443-.0431252.1425877-.0428734.2321758.0002595.0910835.0145151.1519909.0440484.1820145" fill="#383836"/></g><g><path d="m43.0467606 27.4024563.2594795-.1498108-1.0380516 2.3588638-.2594834.1498127z" fill="#383836"/></g><g><path d="m42.5486031 36.9672699.0039825 1.4054222-.2822494.1629562-.0032425-1.1445426-.2444115.1411132-.0007401-.2608795z" fill="#383836"/></g><g><path d="m43.7439346 36.5902405c.0442848.0838966.0671501.2001686.0675774.351757.0004311.1515732-.0217018.2938347-.0653648.4284973-.0446854.1352654-.1068306.2547188-.1854095.3577499-.0796051.1036415-.1695175.1837921-.2707596.2422447s-.1913109.0822144-.271244.0706787c-.078907-.012104-.1415215-.0595284-.1858063-.143425-.0453072-.0832977-.0681725-.1995773-.0686035-.3511505-.0004272-.1515884.0217056-.2938423.066391-.4291077.043663-.1346779.1058083-.2541313.184391-.3571625.0796013-.1036339.1695137-.1837883.2707558-.2422409.1012383-.0584488.1913147-.0822144.271244-.0706825.0789031.0121042.1415252.0595285.1868285.1428415zm-.2791557.89328c.0417252-.0970688.0628738-.2234535.062439-.3773842-.0004387-.1539497-.0222321-.2555275-.0643692-.3041878-.0431595-.049221-.1015549-.052002-.1762085-.0088997-.0736313.042511-.1307945.112011-.1735344.2108231-.0417213.0970764-.0628738.2234535-.062439.3773994.0004349.1539345.0222359.2555237.0643692.3041725.0431595.0492325.1005325.0525894.1741638.0100784.0746537-.0431022.1328392-.1131781.1755791-.2120017" fill="#383836"/></g><g><path d="m44.9291801 35.9059372c.0453033.0833092.0671463.2001686.0675774.351757.0004311.1515732-.0206795.2932472-.0653648.4285011-.0446854.1352615-.1068344.2547188-.1854095.3577461-.0796051.1036415-.1695175.1837959-.2707596.2422447-.1012421.0584526-.1913147.0822182-.2702217.0700912-.0799294-.0115128-.1415253-.0595284-.1868286-.1428337-.045311-.0832977-.0681725-.1995811-.0686035-.3511543-.0004311-.1515884.0217018-.2938385.066391-.4291039.0446854-.1352692.1058083-.2541313.1854095-.3577538.0785789-.1030426.1684952-.183197.2697372-.2416496.1012383-.0584526.1913109-.0822144.271244-.0706863.0789032.012108.1415215.0595285.1868286.1428415zm-.2791557.89328c.0417213-.097065.0628738-.2234497.062439-.3773842-.0004387-.1539459-.0222359-.2555237-.064373-.304184-.0431595-.049221-.1015511-.052002-.1762047-.0088997-.0726089.0419197-.1307983.1120071-.1735344.2108231-.0417213.0970764-.0628777.2234497-.062439.3773994.0004349.1539307.0222359.2555199.0643692.3041687.0431595.0492325.1015511.052002.1741638.0100822.0746537-.0431021.1328392-.1131781.1755791-.2120055" fill="#383836"/></g><g><path d="m46.4664383 35.4585991c.0564423.0380363.0853424.1155128.0856743.2330246.0003357.1175156-.0280304.2280464-.0840759.3310318-.0560493.1018066-.1285591.1789627-.2185478.2309189-.0582962.0336571-.1104889.0485001-.156601.043335-.0461082-.005146-.0820274-.0291405-.1077614-.0731277-.0257301-.0440025-.0381966-.105072-.0384178-.1826248-.0002174-.0775566.0118599-.1527977.0372581-.2263222.0253983-.0746841.0610619-.1400108.1069946-.1982956.0459328-.0571251.0980377-.1036835.1563301-.1373367.0899926-.0519563.1626969-.0586397.2191468-.0206033zm-.1245194.5203438c.0234146-.052372.0345078-.11409.0343018-.1857681-.000206-.0728531-.0116119-.1215858-.0352402-.1456184-.0226059-.0257874-.0533409-.0268669-.0932198-.0038414-.0388603.022438-.0694923.0589409-.0918808.1095314-.0234146.0511894-.0355301.1135025-.0353203.1875381.000206.0728493.0126381.1221695.0362625.1450272.0226021.0246086.0533409.0256844.0922012.0032501.039879-.0230256.0705072-.0595284.0928956-.1101189" fill="#383836"/></g><g><path d="m46.1442184 34.8913422.2075959-.1198578-.830494 1.887207-.2075958.1198578z" fill="#383836"/></g><g><path d="m45.6357689 35.8393173c-.0550232.1023979-.1275291.1795731-.2175255.2315292-.0899887.0519562-.1626968.0586205-.2191429.0205841s-.0853424-.1155128-.0856781-.2330246c-.0003319-.1175117.0280342-.2280464.0840797-.3310127.0560493-.1018066.1285553-.1789818.2185478-.230938.0899925-.05196.1627007-.0586205.2181206-.0211716.0564461.0380173.0843239.1160812.0846596.2335892.0003319.1175156-.0270119.2274629-.0830612.3304444zm-.3101921.0625687c.0226097.0257874.0543671.0262909.0922012.0044479.0398865-.0230293.0705109-.0595512.0929031-.1101341.0234146-.0511971.0345078-.1129189.0342979-.1869545-.000206-.0728493-.0116158-.1227608-.0352402-.1455994-.0226059-.0246277-.0533371-.0257034-.0932236-.0026779-.0378342.0218468-.0694847.0589409-.091877.1095428-.023407.0523567-.0355263.1146736-.0353203.1863441.0002062.0728532.0126345.1210099.0362589.1450311" fill="#383836"/></g><g><g><path d="m28.6171951 48.1618996c.0424423.0491982.0644913.1242905.0647659.2213516.0003281.1158562-.0279903.2341309-.0849724.3532753-.0583439.1199303-.1385384.2336769-.2419529.3404312-.1034145.1067314-.2232418.1994362-.3608551.2788887-.1362476.0786629-.2562084.1243973-.3585281.1364479-.1036797.0128098-.1842575-.0081139-.2403622-.0619659-.0574703-.0530663-.0863705-.1383057-.0867004-.2541618-.0002747-.0970612.0212765-.1973267.0633068-.2952957.0433865-.1003189.1031609-.1959763.1820488-.2885704-.0600662-.0076714-.1065388-.0341606-.1394253-.0810204-.0328865-.0468903-.0494461-.1110229-.0496864-.1955605-.0003071-.108036.02668-.2176933.0782223-.3290024.0529079-.1105156.1263084-.2140656.2215576-.3129578.0938892-.0981064.2028217-.1829681.3240814-.2529793.1253471-.0723686.2344093-.1133652.3299065-.1245995s.1692448.0073586.2226048.0565224c.0533657.0507355.0795193.129715.0798244.237751.0002403.0845375-.0158997.1675491-.0484123.2521973-.0325127.0846214-.0786839.1645966-.1412373.2430611.0805149.0005646.1420002.0262108.1858139.0761872zm-.3993168.67276c.0557232-.0807762.0827885-.1622734.0825577-.2436867-.0002346-.082962-.027668-.1314201-.0836658-.1477127-.0546379-.0170517-.1296387.0027237-.2250118.0577888-.0926476.0534897-.1661549.1194534-.2205162.19944-.0543633.0800056-.0800686.1591454-.0798321.2421074.0002346.0829887.0263081.1337814.080946.1508598.054636.0170746.1282768-.0019379.2209244-.0554276.0953731-.055065.1702365-.1233634.2245978-.203369m-.4093132-.9288216c-.0462055.0690269-.0692024.1403275-.0689983.2123337.0002041.0720291.0235252.1150093.0686054.1297569.0450764.0147476.1064434-.0003052.1827412-.0443535.0776615-.044838.1402779-.101368.1864872-.1688194.0462074-.0674515.069212-.1371803.0690079-.2092056-.0002041-.07201-.0235329-.1165619-.0699749-.1320992-.046442-.0139618-.1091766.0003128-.1868382.0451469-.074934.0432664-.1361847.1005746-.1810303.1672402" fill="#383836"/></g><g><path d="m29.4779682 46.5923233.0053082 1.8724442-.3760434.2171096-.004322-1.5248756-.3269939.1887894-.0009842-.3475685z" fill="#383836"/></g><g><path d="m31.5381355 46.406498c.0765667.0498924.1137085.1538925.114151.3104553.0004444.1565437-.0359879.3030434-.1120205.4410133-.0746727.1356354-.1712742.2384567-.291172.307682-.0776615.044838-.1472054.0646095-.2086372.0577354-.0614243-.0053139-.1092834-.0388298-.1435661-.0974579-.0342884-.0586052-.0508938-.1399651-.0511856-.2432938-.0002937-.1033249.0157967-.2035866.0496407-.3015213.0338383-.0979347.0813522-.1865387.1425457-.2626419.0611916-.0776558.1306171-.1397095.2082767-.1845474.1198997-.0692252.2167663-.078102.2919673-.0274237zm-.1658897.6932334c.0311871-.0697517.0459652-.1519852.0456944-.2474785-.0002747-.0970612-.0154705-.1620102-.0469475-.1940079-.0301151-.0327911-.0710678-.0358162-.1242027-.0051384-.0504131.0291023-.092577.0785484-.1224079.1459427-.0311966.0682068-.0459747.1504364-.0456963.249073.0002804.0986328.0154762.1635628.0469513.1939888.030117.0328026.0724258.0350266.122839.0059242.0531348-.0306777.0939368-.0808867.1237697-.1483039" fill="#383836"/></g><g><path d="m30.4314384 46.9137306c-.073307.1363945-.1699085.2392159-.2898083.3084412-.1198978.0692253-.2167664.0781021-.2919674.0274467-.0752048-.0506783-.1137066-.1538925-.114151-.3104553s.0373478-.303833.1120205-.4410362c.0746727-.1356354.1712742-.2384377.2911739-.3076591.1198997-.0692253.2167664-.0781212.2906017-.0282288.075201.0506744.1137085.1538925.114151.3104553.0004446.1565628-.0373515.3038292-.1120204.4410362zm-.4132671.083355c.0301189.034359.0724258.0350075.122839.0059052.053133-.0306778.0939369-.0793114.1237717-.1467361.0311928-.0681839.0459709-.1504135.0456924-.2490463-.0002766-.0970612-.0154705-.1619911-.0469475-.1940117-.0301208-.0327835-.0710659-.0342445-.1241989-.0035667-.0504131.0291061-.092577.0785484-.1224079.1459427-.0311928.0697594-.0459709.1520119-.0457001.2475052.0002747.097061.0154705.1619871.0469513.1940077" fill="#383836"/></g><g><path d="m31.1088409 45.6507339.2765847-.1596832-1.1064682 2.514328-.2765847.1596871z" fill="#383836"/></g></g></g><g><g enable-background="new"><g><path d="m61.1878624 31.2743225-.049305 17.3916969-4.5674896 2.6543389.049305-17.3917008z" fill="#cc4848"/></g><g><path d="m56.6203728 33.9286575-.049305 17.3917008-4.5962295-2.653637.0493049-17.3916988z" fill="#dd4a4a"/></g><g><path d="m61.1878624 31.2743225-4.5674896 2.654335-4.5962296-2.653635 4.5674896-2.654335z" fill="#f25a5a"/></g></g><g><g enable-background="new"><g><g><path d="m55.4441071 39.0720978-.049305 12.9318275-4.5674896 2.6543389.0493049-12.9318314z" fill="#3db542"/></g></g><g><g><path d="m50.8766174 41.7264328-.0493049 12.9318314-4.5962296-2.653637.049305-12.9318275z" fill="#6dcb60"/></g></g><g><g><path d="m55.4441071 39.0720978-4.5674897 2.654335-4.5962295-2.6536331 4.5674896-2.654335z" fill="#81d672"/></g></g></g><g><g enable-background="new"><g><g><path d="m49.6992226 46.870533-.049305 8.4719581-4.5674934 2.6543351.0493087-8.4719582z" fill="#cea03a"/></g></g><g><g><path d="m45.1317329 49.524868-.0493087 8.4719582-4.5962296-2.653637.049305-8.4719581z" fill="#efc348"/></g></g><g><g><path d="m49.6976318 46.8690491-4.564476 2.6533699-4.5977096-2.6533699 4.5700187-2.6534043z" fill="#ffd651"/></g></g></g><g enable-background="new"><g><g><path d="m43.9554672 54.6683083-.0493049 4.0120887-4.5686226 2.6549912.0493049-4.012085z" fill="#3f9ae0"/></g></g><g><g><path d="m39.3868446 57.3233032-.0493049 4.012085-4.5962334-2.6536331.049305-4.0120888z" fill="#82c6e0"/></g></g><g><g><path d="m43.9554672 54.6683083-4.5686226 2.6549949-4.5962333-2.6536369 4.5686226-2.6549912z" fill="#b5e5f4"/></g></g></g></g></g></g></g></g></svg>