<?xml version="1.0" encoding="UTF-8"?>
<svg xmlns="http://www.w3.org/2000/svg" onmouseup="{ if(window.parent.document.onmouseup) window.parent.document.onmouseup(arguments[0]);}" xml:space="preserve" style="enable-background:new 0 0 512 512;" viewBox="0 0 512 512" y="0px" x="0px" id="Capa_1" version="1.1" xmlns:xlink="http://www.w3.org/1999/xlink">
<g>
	<g>
		<path d="M481.509,170.887c-0.002-0.001-0.003-0.002-0.005-0.003l-14.036-10.768c-3.953-3.029-9.636-2.281-12.668,1.671    l-14.928,19.46l-0.69-0.529c-4.807-3.69-11.723-2.78-15.416,2.031L255.29,402.371c-0.001,0.002-0.002,0.003-0.003,0.005    c-0.001,0.001-0.002,0.003-0.003,0.004c-0.131,0.171-0.234,0.359-0.348,0.54c-0.092,0.145-0.197,0.281-0.278,0.431    c-0.183,0.341-0.34,0.696-0.467,1.063l-22.036,63.406c-0.001,0.003-0.002,0.006-0.003,0.009l-0.014,0.041    c-1.232,3.546-0.057,7.462,2.921,9.746c1.559,1.195,3.421,1.797,5.287,1.797c1.699,0,3.402-0.5,4.881-1.504l0.042-0.028    c0.001,0,0.001-0.001,0.002-0.001l55.531-37.709c0.312-0.212,0.609-0.451,0.887-0.712c0.117-0.11,0.216-0.237,0.325-0.354    c0.145-0.155,0.3-0.303,0.431-0.468c0.01-0.013,0.018-0.027,0.028-0.039c0.005-0.007,0.012-0.013,0.018-0.02l151.624-197.653    l4.518,3.466l-62.105,80.958c-2.449,3.193-1.846,7.767,1.347,10.216c1.323,1.015,2.881,1.506,4.429,1.506    c2.189,0,4.352-0.982,5.787-2.852l64.003-83.434c3.843-5.01,2.896-12.213-2.116-16.058l-6.993-5.365l7.984-10.408    c3.687-4.809,2.776-11.723-2.033-15.414l-0.69-0.529l14.926-19.458C486.204,179.604,485.458,173.922,481.509,170.887z     M251.733,455.877l12.917-37.169l19.636,15.064L251.733,455.877z M295.375,423.912l-24.074-18.468l161.851-210.985l24.075,18.468    L295.375,423.912z M456.683,194.142l-5.248-4.025l11.557-15.066l5.248,4.025L456.683,194.142z"/>
	</g>
</g>
<g>
	<g>
		<path d="M366.35,229.53H79.1c-4.025,0-7.287,3.262-7.287,7.287c0,4.024,3.262,7.287,7.287,7.287h287.25    c4.025-0.001,7.287-3.263,7.287-7.287C373.637,232.793,370.375,229.53,366.35,229.53z"/>
	</g>
</g>
<g>
	<g>
		<path d="M296.721,304.72H79.1c-4.025,0-7.287,3.262-7.287,7.287c0,4.024,3.262,7.287,7.287,7.287h217.621    c4.025-0.001,7.287-3.263,7.287-7.287C304.008,307.983,300.746,304.72,296.721,304.72z"/>
	</g>
</g>
<g>
	<g>
		<path d="M210.581,455.098H79.1c-4.025,0-7.287,3.262-7.287,7.287c0,4.025,3.262,7.287,7.287,7.287h131.481    c4.025,0,7.287-3.262,7.287-7.287C217.868,458.36,214.606,455.098,210.581,455.098z"/>
	</g>
</g>
<g>
	<g>
		<path d="M366.35,455.098h-64.445c-4.025,0-7.287,3.262-7.287,7.287c0,4.025,3.262,7.287,7.287,7.287h64.445    c4.025,0,7.287-3.262,7.287-7.287C373.637,458.36,370.375,455.098,366.35,455.098z"/>
	</g>
</g>
<g>
	<g>
		<path d="M413.777,180.272c4.025,0,7.287-3.262,7.287-7.287v-49.347c0-0.083-0.009-0.164-0.012-0.246    c-0.003-0.082-0.007-0.163-0.012-0.244c-0.021-0.311-0.055-0.62-0.115-0.923c-0.001-0.003-0.001-0.006-0.001-0.009    c-0.061-0.309-0.15-0.61-0.25-0.907c-0.025-0.076-0.052-0.15-0.08-0.225c-0.106-0.282-0.223-0.558-0.363-0.825    c-0.007-0.014-0.013-0.029-0.02-0.043c-0.148-0.278-0.321-0.544-0.505-0.802c-0.046-0.065-0.094-0.129-0.142-0.192    c-0.196-0.256-0.402-0.505-0.633-0.735L302.579,2.134c-0.231-0.23-0.479-0.437-0.735-0.633c-0.064-0.049-0.128-0.097-0.194-0.144    c-0.258-0.183-0.522-0.356-0.8-0.503c-0.017-0.009-0.034-0.015-0.051-0.024c-0.264-0.138-0.537-0.255-0.816-0.359    c-0.077-0.029-0.153-0.056-0.231-0.083c-0.295-0.099-0.594-0.187-0.9-0.248c-0.011-0.002-0.022-0.003-0.033-0.005    c-0.294-0.057-0.594-0.091-0.896-0.111c-0.087-0.006-0.173-0.01-0.26-0.013C297.584,0.009,297.506,0,297.426,0H42.099    c-8.345,0-15.135,6.789-15.135,15.134v481.732c0,8.345,6.789,15.134,15.135,15.134h363.829c8.345,0,15.135-6.789,15.135-15.134    V350.679c0-4.024-3.262-7.286-7.287-7.286c-4.025,0-7.287,3.262-7.287,7.287v146.186c0,0.309-0.252,0.561-0.562,0.561H42.099    c-0.309,0-0.562-0.252-0.562-0.561V15.134c0-0.309,0.252-0.561,0.562-0.561H290.14v100.954c0,8.49,6.907,15.397,15.397,15.397    H406.49v42.061C406.49,177.009,409.752,180.272,413.777,180.272z M305.536,116.35c-0.454,0-0.824-0.37-0.824-0.824V24.878h0.001    l91.472,91.472H305.536z"/>
	</g>
</g>
<g>
	<g>
		<path d="M206.507,103.892l-60.93-57.238c-2.805-2.635-7.173-2.635-9.977,0l-60.93,57.238c-2.934,2.755-3.078,7.367-0.323,10.3    c2.756,2.932,7.366,3.077,10.3,0.322l55.941-52.551l55.941,52.551c1.407,1.32,3.2,1.975,4.988,1.975    c1.942,0,3.879-0.771,5.313-2.297C209.585,111.259,209.441,106.647,206.507,103.892z"/>
	</g>
</g>
<g>
	<g>
		<path d="M186.132,113.287L148.837,78.25c-4.624-4.344-11.871-4.344-16.495,0l-37.297,35.037c-2.414,2.268-3.798,5.468-3.798,8.779    v50.966c0,6.642,5.404,12.046,12.046,12.046h74.592c6.642,0,12.046-5.404,12.046-12.046v-50.966    C189.931,118.755,188.547,115.555,186.132,113.287z M145.933,170.505h-10.687v-25.26h10.687V170.505z M160.506,170.505v-29.877    c0-5.49-4.466-9.956-9.955-9.956h-19.922c-5.49,0-9.955,4.466-9.955,9.956v29.877H105.82V123.16l34.769-32.663l34.769,32.663    v47.345H160.506z"/>
	</g>
</g>
<g>
	<g>
		<path d="M231.878,379.909h-81.284c-4.025,0-7.287,3.262-7.287,7.287c0,4.025,3.262,7.287,7.287,7.287h81.284    c4.025-0.001,7.287-3.263,7.287-7.287S235.903,379.909,231.878,379.909z"/>
	</g>
</g>
<g>
	<g>
		<path d="M105.323,379.908H79.995c-4.025,0-7.287,3.262-7.287,7.287c0,4.025,3.263,7.287,7.287,7.287h25.328    c4.025,0,7.287-3.262,7.287-7.287C112.61,383.17,109.348,379.908,105.323,379.908z"/>
	</g>
</g>
<g>
</g>
<g>
</g>
<g>
</g>
<g>
</g>
<g>
</g>
<g>
</g>
<g>
</g>
<g>
</g>
<g>
</g>
<g>
</g>
<g>
</g>
<g>
</g>
<g>
</g>
<g>
</g>
<g>
</g>
</svg>