<?xml version="1.0" encoding="UTF-8"?>
<svg xmlns="http://www.w3.org/2000/svg" onmouseup="{ if(window.parent.document.onmouseup) window.parent.document.onmouseup(arguments[0]);}" width="512" viewBox="0 0 128 128" height="512"><g><g><path d="m25.746 14.25h76.508v103.997h-76.508z" fill="#fff5f5"/><path d="m14.808 118.247h98.383v8h-98.383z" fill="#47568c"/><path d="m41.759 82.021h44.482v8h-44.482z" fill="#fbc56d"/><path d="m47.312 90.021h33.375v28.226h-33.375z" fill="#f1e4e0"/><path d="m32.125 1.747h63.75v12.503h-63.75z" fill="#fbc56d"/><path d="m65.75 90.021h-3.5v28.226h3.5z" fill="#47568c"/><g fill="#f1e4e0"><path d="m35.746 24.25h56.508v9.934h-56.508z"/><path d="m35.746 43.165h56.508v9.934h-56.508z"/><path d="m35.746 62.079h56.508v9.934h-56.508z"/></g></g><g><path d="m102.254 38.207a1.749 1.749 0 0 0 -1.75 1.75v6.178a1.75 1.75 0 1 0 3.5 0v-6.178a1.749 1.749 0 0 0 -1.75-1.75z"/><path d="m113.191 116.5h-9.191v-59.625a1.75 1.75 0 0 0 -3.5 0v59.625h-18.063v-24.729h3.8a1.75 1.75 0 0 0 1.75-1.75v-8a1.75 1.75 0 0 0 -1.75-1.75h-44.478a1.75 1.75 0 0 0 -1.75 1.75v8a1.75 1.75 0 0 0 1.75 1.75h3.8v24.729h-18.059v-100.5h73v13.217a1.75 1.75 0 0 0 3.5 0v-14.967a1.75 1.75 0 0 0 -1.75-1.75h-4.625v-10.753a1.75 1.75 0 0 0 -1.75-1.747h-63.75a1.751 1.751 0 0 0 -1.75 1.75v10.75h-4.629a1.751 1.751 0 0 0 -1.746 1.75v102.25h-9.191a1.75 1.75 0 0 0 -1.75 1.75v8a1.75 1.75 0 0 0 1.75 1.75h19.066a1.75 1.75 0 1 0 0-3.5h-17.316v-4.5h94.882v4.5h-64.941a1.75 1.75 0 0 0 0 3.5h66.691a1.75 1.75 0 0 0 1.75-1.75v-8a1.75 1.75 0 0 0 -1.75-1.75zm-79.316-113h60.25v9h-60.25zm9.634 80.274h40.982v4.5h-40.982zm5.553 8h13.188v24.726h-13.188zm16.688 24.726v-24.729h13.187v24.729z"/><path d="m94 24.25a1.75 1.75 0 0 0 -1.75-1.75h-56.504a1.751 1.751 0 0 0 -1.746 1.75v9.934a1.751 1.751 0 0 0 1.75 1.75h56.504a1.75 1.75 0 0 0 1.746-1.75zm-3.5 8.184h-53v-6.434h53z"/><path d="m94 43.165a1.749 1.749 0 0 0 -1.75-1.75h-56.504a1.75 1.75 0 0 0 -1.746 1.75v9.935a1.75 1.75 0 0 0 1.75 1.75h56.504a1.749 1.749 0 0 0 1.746-1.75zm-3.5 8.183h-53v-6.433h53z"/><path d="m92.254 60.329h-56.508a1.751 1.751 0 0 0 -1.746 1.75v9.934a1.751 1.751 0 0 0 1.75 1.75h56.504a1.75 1.75 0 0 0 1.746-1.75v-9.934a1.75 1.75 0 0 0 -1.746-1.75zm-1.754 9.934h-53v-6.434h53z"/></g></g></svg>