<?xml version="1.0" encoding="UTF-8"?>
<svg xmlns="http://www.w3.org/2000/svg" onmouseup="{ if(window.parent.document.onmouseup) window.parent.document.onmouseup(arguments[0]);}" width="511pt" viewBox="0 0 511 511.99972" height="511pt"><path d="m479.339844 379.324219h-446.539063c-17.839843 0-32.300781-14.464844-32.300781-32.304688v-314.71875c0-17.839843 14.460938-32.300781 32.300781-32.300781h446.539063c17.839844 0 32.300781 14.460938 32.300781 32.300781v314.71875c0 17.839844-14.460937 32.304688-32.300781 32.304688zm0 0" fill="#5290d9"/><path d="m511.636719 32.304688v314.71875c0 17.839843-14.453125 32.292968-32.292969 32.292968h-20.949219c17.839844 0 32.304688-14.453125 32.304688-32.292968v-314.71875c0-17.839844-14.464844-32.304688-32.304688-32.304688h20.949219c17.839844 0 32.292969 14.464844 32.292969 32.304688zm0 0" fill="#3c7dbc"/><path d="m454.582031 142.171875h-274.734375c-2.839844 0-5.144531-2.304687-5.144531-5.144531v-27.070313c0-2.84375 2.304687-5.144531 5.144531-5.144531h274.734375c2.84375 0 5.144531 2.300781 5.144531 5.144531v27.070313c0 2.84375-2.300781 5.144531-5.144531 5.144531zm0 0" fill="#e6f2ec"/><path d="m459.726562 109.957031v27.074219c0 2.839844-2.304687 5.144531-5.144531 5.144531h-20.851562c2.835937 0 5.140625-2.304687 5.140625-5.144531v-27.074219c0-2.839843-2.300782-5.144531-5.140625-5.144531h20.851562c2.839844 0 5.144531 2.304688 5.144531 5.144531zm0 0" fill="#d5e2db"/><path d="m296.363281 386.222656h-80.585937v119.488282c0 4.410156 4.425781 7.445312 8.542968 5.859374l29.492188-11.363281c1.453125-.558593 3.0625-.558593 4.515625 0l29.496094 11.363281c4.113281 1.585938 8.539062-1.453124 8.539062-5.859374zm0 0" fill="#ff5426"/><path d="m296.363281 386.21875v119.492188c0 4.410156-4.421875 7.449218-8.539062 5.863281l-6.316407-2.433594v-122.921875zm0 0" fill="#f04424"/><path d="m360.542969 334.574219c0 10.679687-12.441407 19.257812-15.570313 28.890625-3.242187 9.984375 1.671875 24.214844-4.375 32.527344-6.109375 8.390624-21.203125 8.089843-29.597656 14.199218-8.3125 6.046875-12.652344 20.53125-22.636719 23.773438-9.632812 3.125-21.617187-5.9375-32.292969-5.9375-10.675781 0-22.660156 9.0625-32.292968 5.9375-9.984375-3.242188-14.324219-17.726563-22.636719-23.773438-8.390625-6.109375-23.488281-5.804687-29.597656-14.199218-6.046875-8.3125-1.132813-22.542969-4.375-32.527344-3.128907-9.632813-15.570313-18.210938-15.570313-28.890625 0-10.675781 12.441406-19.253907 15.570313-28.886719 3.242187-9.984375-1.671875-24.214844 4.375-32.527344 6.109375-8.390625 21.203125-8.089844 29.597656-14.199218 8.3125-6.046876 12.652344-20.53125 22.636719-23.773438 9.632812-3.125 21.617187 5.933594 32.292968 5.933594 10.675782 0 22.660157-9.058594 32.292969-5.933594 9.984375 3.242188 14.324219 17.726562 22.636719 23.773438 8.390625 6.109374 23.488281 5.804687 29.597656 14.199218 6.046875 8.308594 1.132813 22.542969 4.375 32.527344 3.128906 9.632812 15.570313 18.210938 15.570313 28.886719zm0 0" fill="#ffcd6b"/><path d="m344.972656 363.464844c-3.242187 9.984375 1.667969 24.21875-4.375 32.523437-6.109375 8.394531-21.203125 8.09375-29.597656 14.203125-8.3125 6.046875-12.652344 20.523438-22.632812 23.769532-5.277344 1.714843-11.246094-.222657-17.324219-2.332032 2.457031.851563 9.105469-10.675781 10.242187-12.328125 6.234375-9.039062 16.308594-13.976562 24.8125-20.492187 8.726563-6.6875 13.625-13.808594 16.082032-24.839844 1.359374-6.105469 1.628906-12.011719 5.375-17.324219 4.941406-7.011719 11.96875-13.609375 11.96875-22.609375 0-10.683594-12.453126-19.273437-15.589844-28.917968-2.78125-8.566407-.503906-18.273438-5.199219-26.28125-3.859375-6.582032-10.78125-11.378907-17.21875-15.171876-5.257813-3.097656-10.5625-6.226562-14.742187-10.75-1.53125-1.65625-12.613282-16.460937-14.734376-15.734374 5.730469-1.964844 11.34375-3.601563 16.324219-1.988282 9.984375 3.242188 14.324219 17.71875 22.636719 23.769532 8.394531 6.105468 23.484375 5.808593 29.59375 14.199218 6.046875 8.308594 1.136719 22.542969 4.378906 32.523438 3.125 9.636718 15.570313 18.21875 15.570313 28.894531s-12.445313 19.25-15.570313 28.886719zm0 0" fill="#ffc143"/><path d="m321.453125 334.574219c0 36.113281-29.273437 65.386719-65.382813 65.386719-36.109374 0-65.382812-29.273438-65.382812-65.386719 0-36.109375 29.273438-65.382813 65.382812-65.382813 36.109376 0 65.382813 29.273438 65.382813 65.382813zm0 0" fill="#fa0"/><path d="m321.457031 334.578125c0 36.105469-29.273437 65.378906-65.386719 65.378906-12.117187 0-23.46875-3.292969-33.191406-9.039062 5.957032 1.785156 12.273438 2.746093 18.808594 2.746093 36.113281 0 65.382812-29.269531 65.382812-65.382812 0-23.996094-12.925781-44.972656-32.199218-56.339844 26.949218 8.070313 46.585937 33.058594 46.585937 62.636719zm0 0" fill="#ff9500"/><path d="m366.828125 77.421875c4.261719 0 7.714844-3.457031 7.714844-7.71875 0-4.257813-3.453125-7.714844-7.714844-7.714844h-192.125c-4.261719 0-7.714844 3.457031-7.714844 7.714844 0 4.261719 3.453125 7.71875 7.714844 7.71875zm0 0" fill="#e6f2ec"/><path d="m174.703125 182.835938h285.023437c4.261719 0 7.714844-3.453126 7.714844-7.71875 0-4.257813-3.453125-7.714844-7.714844-7.714844h-285.023437c-4.261719 0-7.714844 3.457031-7.714844 7.714844 0 4.265624 3.453125 7.71875 7.714844 7.71875zm0 0" fill="#e6f2ec"/><path d="m459.726562 77.421875c4.261719 0 7.714844-3.457031 7.714844-7.71875 0-4.257813-3.453125-7.714844-7.714844-7.714844h-55.746093c-4.261719 0-7.714844 3.457031-7.714844 7.714844 0 4.261719 3.453125 7.71875 7.714844 7.71875zm0 0" fill="#e6f2ec"/><path d="m65.136719 149.742188c-4.808594 0-8.6875 6.515624-8.6875 10.859374 0 8.683594 14.117187 18.769532 32.886719 19.234376v4.34375c0 2.015624 2.324218 3.878906 5.273437 3.878906 2.636719 0 5.273437-1.863282 5.273437-3.878906v-4.808594c17.375-2.792969 29.316407-13.808594 29.316407-32.886719 0-21.097656-15.511719-28.078125-29.316407-33.199219v-27.300781c10.394532.777344 13.960938 5.742187 18.304688 5.742187 5.742188 0 8.222656-7.136718 8.222656-10.703124 0-9-16.445312-11.945313-26.527344-12.257813v-4.03125c0-2.015625-2.636718-3.878906-5.273437-3.878906-2.949219 0-5.273437 1.863281-5.273437 3.878906v4.34375c-15.515626 2.015625-30.09375 10.546875-30.09375 30.25 0 19.855469 15.976562 25.90625 30.09375 31.179687v30.871094c-13.652344-1.554687-18.304688-11.636718-24.199219-11.636718zm33.503906-15.511719c6.671875 2.949219 11.636719 6.671875 11.636719 14.273437 0 7.289063-4.808594 11.320313-11.636719 12.71875zm-20.476563-36.921875c0-5.894532 4.65625-9.617188 12.410157-10.859375v23.425781c-7.132813-2.792969-12.410157-5.738281-12.410157-12.566406zm0 0" fill="#fa0"/><g fill="#e6f2ec"><path d="m46.03125 252.308594c0 4.261718 3.453125 7.714844 7.714844 7.714844h91.40625c4.261718 0 7.714844-3.453126 7.714844-7.714844 0-4.261719-3.453126-7.714844-7.714844-7.714844h-91.40625c-4.261719 0-7.714844 3.453125-7.714844 7.714844zm0 0"/><path d="m53.746094 292.605469h74.066406c4.261719 0 7.71875-3.453125 7.71875-7.714844s-3.457031-7.714844-7.71875-7.714844h-74.066406c-4.261719 0-7.714844 3.453125-7.714844 7.714844s3.453125 7.714844 7.714844 7.714844zm0 0"/><path d="m53.746094 325.1875h61.722656c4.261719 0 7.71875-3.453125 7.71875-7.714844 0-4.261718-3.457031-7.714844-7.71875-7.714844h-61.722656c-4.261719 0-7.714844 3.453126-7.714844 7.714844 0 4.261719 3.453125 7.714844 7.714844 7.714844zm0 0"/><path d="m458.394531 244.59375h-91.402343c-4.261719 0-7.71875 3.457031-7.71875 7.714844 0 4.261718 3.457031 7.71875 7.71875 7.71875h91.402343c4.261719 0 7.714844-3.457032 7.714844-7.71875 0-4.261719-3.453125-7.714844-7.714844-7.714844zm0 0"/><path d="m458.394531 277.175781h-74.066406c-4.261719 0-7.714844 3.453125-7.714844 7.714844s3.453125 7.714844 7.714844 7.714844h74.066406c4.261719 0 7.714844-3.453125 7.714844-7.714844s-3.453125-7.714844-7.714844-7.714844zm0 0"/><path d="m458.394531 309.757812h-61.722656c-4.261719 0-7.714844 3.453126-7.714844 7.714844 0 4.261719 3.453125 7.714844 7.714844 7.714844h61.722656c4.261719 0 7.714844-3.453125 7.714844-7.714844 0-4.261718-3.453125-7.714844-7.714844-7.714844zm0 0"/></g></svg>