<?xml version="1.0" encoding="UTF-8"?>
<svg xmlns="http://www.w3.org/2000/svg" onmouseup="{ if(window.parent.document.onmouseup) window.parent.document.onmouseup(arguments[0]);}" width="512" viewBox="0 0 512 512" height="512" enable-background="new 0 0 512 512" id="Capa_1"><g><g><path d="m203.366 50.004-37.651-50.004h-165.715v252.788l289.009 23.395 44.229-107.032-44.229-119.147z" fill="#7270d5"/><path d="m512 50.004h-222.991v209.688l222.991-6.904z" fill="#5d519d"/></g><g><g><g><path d="m256 119.333v164.61l4.232-.535 154.692 20.63v-182.616z" fill="#fab600"/><path d="m97.076 119.887v184.151l158.924-20.095v-164.61z" fill="#feca20"/></g><g><path d="m97.076 304.038h158.924l22.89-32.522-22.89-95.545z" fill="#fab600"/></g><path d="m256 175.971v128.067h158.924z" fill="#f59c00"/><g><g><path d="m97.076 110.022v9.312c0 22.836 11.701 43.586 31.3 55.507l127.624 77.618 24.12-72.593-24.12-69.844z" fill="#fde01d"/></g><path d="m256 110.022v142.438l127.624-77.619c19.599-11.92 31.3-32.67 31.3-55.507v-9.312z" fill="#feca20"/></g></g></g><g><path d="m0 252.788v259.212h256l54.24-113.166-54.24-146.046z" fill="#7d89e5"/><path d="m256 252.788h256v259.212h-256z" fill="#7270d5"/></g><g><path d="m208.002 459.499h-155.834v-77.105h155.834z" fill="#e7ffff"/></g></g></svg>