<?xml version="1.0" encoding="UTF-8"?>
<svg xmlns="http://www.w3.org/2000/svg" onmouseup="{ if(window.parent.document.onmouseup) window.parent.document.onmouseup(arguments[0]);}" width="512" viewBox="0 0 62 62.236" height="512" enable-background="new 0 0 62 62.236" id="_x33_0"><g><g><g><path d="m19.45 41.536v.01c-.78-.21-1.61-.31-2.45-.31s-1.67.1-2.45.31v-.01l1.45-6.3h2z" fill="#ff826e"/></g><g><path d="m19.2 33.436-1.2 1.8h-2l-1.2-1.8 2.2-2.2z" fill="#fc6e51"/></g><g><path d="m25 45.236c-1.36-1.8-3.3-3.13-5.55-3.69v-.01l-1.45-6.3 1.2-1.8 1.8 1.8 1.8-4.2c.24-.06.48-.13.71-.2 4.45 2.34 7.49 7.02 7.49 12.4v8h-4c0-2.25-.75-4.33-2-6z" fill="#e6e9ed"/></g><g><path d="m9 45.236c-1.25 1.67-2 3.75-2 6h-4v-8c0-5.38 3.04-10.06 7.5-12.4.23.08.46.14.7.2l1.8 4.2 1.8-1.8 1.2 1.8-1.45 6.3v.01c-2.25.56-4.19 1.89-5.55 3.69z" fill="#e6e9ed"/></g><g><path d="m22.8 31.036-1.8 4.2-1.8-1.8-2.2-2.2h4c.62 0 1.22-.07 1.8-.2z" fill="#ccd1d9"/></g><g><path d="m17 31.236-2.2 2.2-1.8 1.8-1.8-4.2c.58.13 1.18.2 1.8.2z" fill="#ccd1d9"/></g><g><path d="m33 11.526c0 1.13-.14 2.27-.42 3.37l-.33 1.35-.01.01c-.54-.63-1.34-1.02-2.24-1.02h-1l-.32-.42c-1.76-2.36-4.05-4.26-6.68-5.58l-4 5c-1.98-1.98-4.34-3.54-6.94-4.58l-1.06-.42-4.25 3.4c-.47.38-.75.95-.75 1.56v1.04h-1c-.86 0-1.63.36-2.18.94l-.74-4.46c-.05-.32-.08-.64-.08-.97 0-1.08.3-2.12.83-3.01.53-.9 1.3-1.66 2.25-2.18l7.92-4.32 2 2 5-2 2 3 5-2 1 3 4-1 .53 1.06c.97 1.93 1.47 4.07 1.47 6.23z" fill="#b27946"/></g><g><path d="m61 11.236v16c0 1.1-.9 2-2 2h-12l-3.59 3.59c-.26.26-.62.41-1 .41-.78 0-1.41-.63-1.41-1.41v-2.59h-6c-1.1 0-2-.9-2-2v-9-6.71-.29c0-1.1.9-2 2-2h24c1.1 0 2 .9 2 2z" fill="#e6e9ed"/></g><g><circle cx="51" cy="21.236" fill="#ff826e" r="2"/></g><g><circle cx="43" cy="17.236" fill="#ff826e" r="2"/></g><g><path d="m51 37.236h10v4h-10z" fill="#ffc729"/></g><g><path d="m61 45.236v4h-8-2v-4z" fill="#ffc729"/></g><g><path d="m53 53.236h8v4h-8z" fill="#ffc729"/></g><g><path d="m43 57.236h10v4h-10z" fill="#ffc729"/></g><g><path d="m53 49.236v4h-10v-4h4 4z" fill="#ffc729"/></g><g><path d="m37 53.236h6v4h-6z" fill="#ffc729"/></g><g><path d="m47 45.236v4h-4-6v-4z" fill="#ffc729"/></g><g><path d="m61 57.236v3c0 .55-.45 1-1 1h-7v-4z" fill="#fcd770"/></g><g><path d="m53 49.236h8v4h-8z" fill="#fcd770"/></g><g><path d="m51 41.236h10v4h-10z" fill="#fcd770"/></g><g><path d="m61 34.236v3h-10v-3c0-.55.45-1 1-1h8c.55 0 1 .45 1 1z" fill="#fcd770"/></g><g><path d="m43 53.236h10v4h-10z" fill="#fcd770"/></g><g><path d="m43 57.236v4h-5c-.55 0-1-.45-1-1v-3z" fill="#fcd770"/></g><g><path d="m37 49.236h6v4h-6z" fill="#fcd770"/></g><g><path d="m47 42.236v3h-10v-3c0-.55.45-1 1-1h8c.55 0 1 .45 1 1z" fill="#fcd770"/></g><g><path d="m32.24 16.256c.47.53.76 1.22.76 1.98 0 .83-.34 1.58-.88 2.12s-1.29.88-2.12.88h-1v-6h1c.9 0 1.7.39 2.24 1.02z" fill="#f0d0b4"/></g><g><path d="m29 21.236v2c0 3.54-2.3 6.55-5.49 7.6-.23.07-.47.14-.71.2-.58.13-1.18.2-1.8.2h-4-4c-.62 0-1.22-.07-1.8-.2-.24-.06-.47-.12-.7-.2-3.2-1.05-5.5-4.05-5.5-7.6v-2-6-1.04c0-.61.28-1.18.75-1.56l4.25-3.4 1.06.42c2.6 1.04 4.96 2.6 6.94 4.58l4-5c2.63 1.32 4.92 3.22 6.68 5.58l.32.42z" fill="#f0d0b4"/></g><g><path d="m25 45.236c1.25 1.67 2 3.75 2 6 0 5.52-4.48 10-10 10s-10-4.48-10-10c0-2.25.75-4.33 2-6 1.36-1.8 3.3-3.13 5.55-3.69.78-.21 1.61-.31 2.45-.31s1.67.1 2.45.31c2.25.56 4.19 1.89 5.55 3.69z" fill="#fcd770"/></g><g><circle cx="23" cy="17.236" fill="#d3a06c" r="2"/></g><g><path d="m13 23.236h8c0 1.1-.45 2.1-1.17 2.83-.73.72-1.73 1.17-2.83 1.17-2.21 0-4-1.79-4-4z" fill="#ff826e"/></g><g><circle cx="11" cy="17.236" fill="#d3a06c" r="2"/></g><g><path d="m5 15.236v6h-1c-.83 0-1.58-.34-2.12-.88s-.88-1.29-.88-2.12c0-.8.32-1.53.82-2.06.55-.58 1.32-.94 2.18-.94z" fill="#f0d0b4"/></g></g><g><path d="m14 17.236c0-1.654-1.346-3-3-3s-3 1.346-3 3 1.346 3 3 3 3-1.345 3-3zm-3 1c-.552 0-1-.449-1-1s.448-1 1-1 1 .449 1 1-.448 1-1 1z"/><path d="m23 14.236c-1.654 0-3 1.346-3 3s1.346 3 3 3 3-1.346 3-3-1.346-3-3-3zm0 4c-.552 0-1-.449-1-1s.448-1 1-1 1 .449 1 1-.448 1-1 1z"/><path d="m12 23.236c0 2.757 2.243 5 5 5s5-2.243 5-5v-1h-10zm7.829 1c-.413 1.164-1.525 2-2.829 2s-2.416-.836-2.829-2z"/><path d="m18 46.421v-2.184h-2v2h-2v3c0 1.654 1.346 3 3 3 .552 0 1 .449 1 1v1h-1c-.552 0-1-.449-1-1v-1h-2v1c0 1.302.839 2.402 2 2.816v2.184h2v-2h2v-3c0-1.654-1.346-3-3-3-.552 0-1-.449-1-1v-1h1c.552 0 1 .449 1 1v1h2v-1c0-1.303-.839-2.402-2-2.816z"/><path d="m60 32.236h-8c-1.103 0-2 .897-2 2v14h-2v-6c0-1.103-.897-2-2-2h-8c-1.103 0-2 .897-2 2v18c0 1.103.897 2 2 2h22c1.103 0 2-.897 2-2v-26c0-1.103-.897-2-2-2zm0 2v2h-8v-2zm-8 6v-2h8v2zm8 2v2h-8v-2zm-8 4h8v2h-8zm-8 10v-2h8v2zm8 2v2h-8v-2zm0-8v2h-8v-2zm-10 2h-4v-2h4zm0 2v2h-4v-2zm12 0h6v2h-6zm0-2v-2h6v2zm-16-4v-2h8v2zm8-6v2h-8v-2zm-8 16h4v2h-4zm16 2v-2h6v2z"/><path d="m59 8.236h-24c-.476 0-.92.121-1.32.319-.261-1.283-.67-2.536-1.255-3.706l-.889-1.778-3.88.97-1.043-3.127-5.231 2.092-2-3-5.141 2.057-2.063-2.063-8.574 4.677c-2.223 1.213-3.604 3.538-3.604 6.07 0 .375.031.757.094 1.137l.671 4.02c-.476.658-.765 1.46-.765 2.332 0 2.206 1.794 4 4 4v1c0 3.278 1.767 6.143 4.393 7.717-3.983 2.788-6.392 7.338-6.392 12.283v9h4.05c.508 5.598 5.221 10 10.949 10s10.442-4.402 10.949-10h4.051l.001-9c0-4.945-2.41-9.496-6.393-12.283 2.625-1.574 4.392-4.439 4.392-7.717v-1c.732 0 1.409-.212 2-.556v5.556c0 1.654 1.346 3 3 3h5v1.586c0 1.331 1.083 2.414 2.414 2.414.637 0 1.259-.258 1.707-.707l3.293-3.293h11.586c1.654 0 3-1.346 3-3v-16c0-1.654-1.346-3-3-3zm-57 10c0-1.103.897-2 2-2v4c-1.103 0-2-.897-2-2zm2-4.038v.039c-.509 0-.992.105-1.44.279l-.494-2.958c-.044-.271-.066-.544-.066-.811 0-1.799.981-3.452 2.561-4.314l7.262-3.96 1.937 1.937 4.859-1.943 2 3 4.769-1.908.957 2.873 4.12-1.03.172.343c.891 1.783 1.363 3.782 1.363 5.777 0 1.033-.128 2.064-.374 3.067-.498-.223-1.046-.353-1.626-.353h-.5l-.017-.022c-1.848-2.464-4.281-4.495-7.036-5.872l-.722-.362-3.825 4.781c-1.902-1.719-4.073-3.072-6.468-4.029l-1.602-.641-4.704 3.764c-.716.573-1.126 1.427-1.126 2.343zm12.796 22.038h.409l.937 4.06c-.375-.039-.756-.06-1.141-.06s-.766.021-1.141.06zm.669-2h-.93l-.448-.672.913-.914.913.913zm1.949-2h1.586c.068 0 .135-.009.203-.01l-.539 1.259zm-6.077 1.249-.539-1.259c.068.002.134.01.203.01h1.586zm-9.336 9.751c0-4.674 2.486-8.938 6.514-11.26l2.148 5.012 1.981-1.982.284.426-1.226 5.311c-1.368.431-2.622 1.121-3.702 2.015v-4.521h-2v6.695c-1.075 1.53-1.771 3.342-1.949 5.305h-2.05zm12.999 17c-4.963 0-9-4.038-9-9s4.037-9 9-9 9 4.038 9 9-4.037 9-9 9zm13.001-17-.001 7h-2.051c-.178-1.963-.875-3.776-1.95-5.306l.001-6.694h-2l-.001 4.521c-1.08-.893-2.334-1.584-3.702-2.014l-1.226-5.311.284-.426 1.981 1.982 2.149-5.013c4.03 2.322 6.516 6.587 6.516 11.261zm-2.001-20c0 3.86-3.141 7-7 7h-8c-3.859 0-7-3.14-7-7v-9.039c0-.305.137-.59.376-.781l3.794-3.035.52.208c2.487.994 4.709 2.459 6.604 4.354l.79.79 4.181-5.227c2.187 1.221 4.118 2.905 5.619 4.907l.116.156zm2-3v-4c1.103 0 2 .897 2 2s-.897 2-2 2zm30 7c0 .551-.448 1-1 1h-12.414l-3.88 3.879c-.235.238-.706.046-.706-.293v-3.586h-7c-.552 0-1-.449-1-1v-16c0-.551.448-1 1-1h24c.552 0 1 .449 1 1z"/><path d="m39.789 18.236h14.422v2h-14.422z" transform="matrix(.555 -.832 .832 .555 4.924 47.672)"/><path d="m51 18.236c-1.654 0-3 1.346-3 3s1.346 3 3 3 3-1.346 3-3-1.346-3-3-3zm0 4c-.552 0-1-.449-1-1s.448-1 1-1 1 .449 1 1-.448 1-1 1z"/><path d="m46 17.236c0-1.654-1.346-3-3-3s-3 1.346-3 3 1.346 3 3 3 3-1.345 3-3zm-4 0c0-.551.448-1 1-1s1 .449 1 1-.448 1-1 1-1-.448-1-1z"/></g></g></svg>