<?xml version="1.0" encoding="UTF-8"?>
<svg xmlns="http://www.w3.org/2000/svg" onmouseup="{ if(window.parent.document.onmouseup) window.parent.document.onmouseup(arguments[0]);}" width="512" viewBox="0 0 512 512" height="512"><g id="Filled_outline" data-name="Filled outline"><path d="m392 400a24 24 0 0 1 -24 24h-224a24 24 0 0 1 -19.2-38.4l19.2-25.6v-102.42c0-.78.01-1.55.02-2.33a99.525 99.525 0 0 1 79.98-95.25h64a99.307 99.307 0 0 1 57.44 34.49c1.53 1.87 3 3.8 4.39 5.78a99.209 99.209 0 0 1 18.17 57.31v102.42l19.2 25.6a23.969 23.969 0 0 1 4.8 14.4z" fill="#7eb457"/><path d="m238.55 175.19 10.44 32.81-33.63 7.36-7.36 33.63-32.81-10.44-23.19 25.45-7.98-8.75a99.525 99.525 0 0 1 79.98-95.25h31.22z" fill="#79ad54"/><path d="m392 400a24 24 0 0 1 -24 24h-224a24 24 0 0 1 -19.2-38.4l19.2-25.6v-1.39c76-30.91 149.37-81.23 205.83-158.34a99.209 99.209 0 0 1 18.17 57.31v102.42l19.2 25.6a23.969 23.969 0 0 1 4.8 14.4z" fill="#79ad54"/><path d="m224 160-16-56h96l-16 56z" fill="#74a650"/><path d="m368 376h88v112h-88z" fill="#348fd9"/><path d="m136 24 23.19 25.453 32.81-10.448 7.357 33.638 33.638 7.357-10.448 32.81 25.453 23.19-25.453 23.19 10.448 32.81-33.638 7.357-7.357 33.638-32.81-10.448-23.19 25.453-23.19-25.453-32.81 10.448-7.357-33.638-33.638-7.357 10.448-32.81-25.453-23.19 25.453-23.19-10.448-32.81 33.638-7.357 7.357-33.638 32.81 10.448z" fill="#ffb531"/><path d="m368 376v112h-169.34a95.922 95.922 0 0 1 -42.93-10.14l-93.28-46.63a26.169 26.169 0 0 1 -14.45-23.39v-1.74a26.145 26.145 0 0 1 37.03-23.77l90.97 41.67h16a24 24 0 0 1 0-48h61.33l.75-.45a109.177 109.177 0 0 1 104.97-4.03l2 1z" fill="#fec9a3"/><path d="m368 376v112h-169.34a96.008 96.008 0 0 1 -27.35-3.98c92.69-28.02 140.69-60.02 189.74-111.5z" fill="#fec093"/><rect fill="#feb784" height="16" rx="8" width="80" x="184" y="416"/><path d="m368 448h88v40h-88z" fill="#3086cd"/><path d="m248 208v16h-8a28 28 0 0 0 0 56h32a12 12 0 0 1 0 24h-52v16h28v16h16v-16h8a28 28 0 0 0 0-56h-32a12 12 0 0 1 0-24h52v-16h-28v-16z"/><path d="m456 368h-72l-8-10.667v-99.753a107.486 107.486 0 0 0 -78.024-103.374l13.716-48.006a8 8 0 0 0 -7.692-10.2h-48v16h37.4l-11.429 40h-25.971v16h31.191a91.521 91.521 0 0 1 72.809 89.58v102.42a7.987 7.987 0 0 0 .821 3.5 117.143 117.143 0 0 0 -109.692 4.5h-59.129a32.041 32.041 0 0 0 -30.9 40.379l-31.849-14.59a16 16 0 0 1 1.949-3.389l19.2-25.6a8 8 0 0 0 1.6-4.8v-88h-16v85.333l-17.6 23.467a32 32 0 0 0 -3.684 6.328l-26.352-12.07a34.132 34.132 0 0 0 -44.264 14.833 37.069 37.069 0 0 0 -4.1 17.949 33.973 33.973 0 0 0 18.872 30.545l93.283 46.641a104.565 104.565 0 0 0 46.505 10.974h257.34a8 8 0 0 0 8-8v-112a8 8 0 0 0 -8-8zm-96 112h-161.34a88.5 88.5 0 0 1 -39.351-9.285l-93.278-46.639a18.059 18.059 0 0 1 -10.031-16.236 22.069 22.069 0 0 1 2.187-10.363 18.086 18.086 0 0 1 23.513-7.877l90.971 41.67a8 8 0 0 0 3.329.73h88v-16h-72a16 16 0 0 1 0-32h61.33a8 8 0 0 0 4.117-1.141l.75-.45a101.177 101.177 0 0 1 97.272-3.735l4.531 2.268zm88 0h-72v-96h72z"/><circle cx="408" cy="448" r="16"/><path d="m72.185 234.7a8 8 0 0 0 10.243 5.914l27.922-8.892 19.736 21.662a8 8 0 0 0 11.828 0l19.736-21.662 27.922 8.892a8 8 0 0 0 10.243-5.914l6.261-28.627 28.628-6.262a8 8 0 0 0 5.914-10.243l-8.892-27.922 21.662-19.736a8 8 0 0 0 0-11.828l-21.662-19.732 8.892-27.922a8 8 0 0 0 -5.918-10.243l-28.628-6.262-6.257-28.623a8 8 0 0 0 -10.243-5.914l-27.922 8.888-19.736-21.662a8 8 0 0 0 -11.828 0l-19.736 21.662-27.922-8.892a8 8 0 0 0 -10.243 5.918l-6.261 28.623-28.624 6.262a8 8 0 0 0 -5.914 10.243l8.892 27.922-21.666 19.736a8 8 0 0 0 0 11.828l21.662 19.736-8.892 27.922a8 8 0 0 0 5.918 10.243l28.628 6.262zm-17.344-81.423-18.962-17.277 18.962-17.277a8 8 0 0 0 2.235-8.341l-7.784-24.443 25.061-5.481a8 8 0 0 0 6.106-6.106l5.48-25.06 24.443 7.784a8.005 8.005 0 0 0 8.342-2.235l17.276-18.963 17.276 18.963a8 8 0 0 0 8.342 2.235l24.443-7.784 5.48 25.06a8 8 0 0 0 6.106 6.106l25.061 5.481-7.784 24.443a8 8 0 0 0 2.235 8.341l18.962 17.277-18.962 17.277a8 8 0 0 0 -2.235 8.341l7.784 24.443-25.061 5.481a8 8 0 0 0 -6.106 6.106l-5.48 25.06-24.443-7.784a8 8 0 0 0 -8.342 2.235l-17.276 18.963-17.276-18.963a8 8 0 0 0 -8.342-2.235l-24.443 7.784-5.48-25.06a8 8 0 0 0 -6.106-6.106l-25.061-5.481 7.784-24.443a8 8 0 0 0 -2.235-8.341z"/><path d="m79.431 128h113.137v16h-113.137z" transform="matrix(.707 -.707 .707 .707 -56.333 136)"/><path d="m104 128a24 24 0 1 0 -24-24 24.027 24.027 0 0 0 24 24zm0-32a8 8 0 1 1 -8 8 8.009 8.009 0 0 1 8-8z"/><path d="m152 160a24 24 0 1 0 24-24 24.027 24.027 0 0 0 -24 24zm32 0a8 8 0 1 1 -8-8 8.009 8.009 0 0 1 8 8z"/></g></svg>