<?xml version="1.0" encoding="UTF-8"?>
<svg xmlns="http://www.w3.org/2000/svg" onmouseup="{ if(window.parent.document.onmouseup) window.parent.document.onmouseup(arguments[0]);}" width="512" viewBox="0 0 512 512" height="512" enable-background="new 0 0 512 512" id="Icons"><g><path d="m256 0c-70.036 0-133.485 28.128-179.689 73.703s-75.161 108.595-76.212 178.381h255.901 255.901c-1.051-69.786-30.009-132.807-76.212-178.381s-109.653-73.703-179.689-73.703z" fill="#e8f3fc"/><path d="m.099 252.084c-.01.654-.035 1.305-.057 1.956s-.042 1.303-.042 1.96c0 70.692 28.654 134.692 74.981 181.019s110.326 74.981 181.019 74.981 134.693-28.654 181.019-74.981 74.981-110.326 74.981-181.019c0-.657-.02-1.309-.042-1.96s-.047-1.302-.057-1.956h-255.901z" fill="#052481"/><path d="m344.854 409.614h-111.221-111.221c-8.171 0-15.569-3.312-20.924-8.667s-8.667-12.753-8.667-20.924v-139.791-139.792c0-8.171 3.312-15.569 8.667-20.924s12.753-8.667 20.924-8.667h111.221 111.221c8.171 0 15.569 3.312 20.924 8.667s8.667 12.753 8.667 20.924v139.791 139.791c0 8.171-3.312 15.569-8.667 20.924-5.355 5.356-12.752 8.668-20.924 8.668z" fill="#f4b500"/><path d="m340.093 379.513h-107.14-107.139v-139.281-139.281h107.139 107.14v139.281z" fill="#fff"/><path d="m261.481 111.665h-28.528-28.528c-3.088 0-5.883-1.252-7.907-3.275-2.023-2.023-3.275-4.819-3.275-7.907v-12.797-12.798c0-3.088 1.252-5.883 3.275-7.907 2.023-2.023 4.819-3.275 7.907-3.275h28.528 28.528c3.088 0 5.883 1.252 7.907 3.275 2.023 2.023 3.275 4.819 3.275 7.907v12.797 12.797c0 3.088-1.252 5.883-3.275 7.907-2.024 2.024-4.819 3.276-7.907 3.276z" fill="#052481"/><path d="m252.437 129.456h-19.484-19.484c-2.716 0-5.179-1.105-6.963-2.888s-2.889-4.246-2.889-6.962v-34.391-34.391c0-2.716 1.105-5.179 2.889-6.963s4.247-2.889 6.963-2.889h19.484 19.484c2.716 0 5.179 1.105 6.963 2.889s2.888 4.247 2.888 6.963v34.391 34.391c0 2.716-1.105 5.178-2.888 6.962-1.784 1.783-4.247 2.888-6.963 2.888zm-36.193-12.626h16.709 16.709v-31.616-31.616h-16.709-16.709v31.616z" fill="#052481"/><path d="m220.198 87.686c0 1.409-.571 2.684-1.494 3.608-.923.923-2.199 1.494-3.608 1.494s-2.684-.571-3.608-1.494c-.923-.923-1.494-2.199-1.494-3.608s.571-2.684 1.494-3.608c.923-.923 2.199-1.494 3.608-1.494s2.684.571 3.608 1.494c.923.923 1.494 2.199 1.494 3.608z" fill="#f4b500"/><path d="m255.912 87.686c0 1.409-.571 2.684-1.494 3.608-.923.923-2.199 1.494-3.608 1.494s-2.684-.571-3.608-1.494c-.923-.923-1.494-2.199-1.494-3.608s.571-2.684 1.494-3.608 2.199-1.494 3.608-1.494 2.684.571 3.608 1.494c.923.923 1.494 2.199 1.494 3.608z" fill="#f4b500"/><g fill="#98cbef"><path d="m226.021 156.521h-39.623-39.623v-7.22-7.22h39.623 39.623v7.22z"/><path d="m319.132 187.752h-86.179-86.178v-7.22-7.221h86.178 86.179v7.221z"/><path d="m319.132 218.983h-86.179-86.178v-7.221-7.22h86.178 86.179v7.22z"/><path d="m319.132 250.214h-86.179-86.178v-7.221-7.22h86.178 86.179v7.22z"/><path d="m319.132 281.444h-86.179-86.178v-7.22-7.221h86.178 86.179v7.221z"/><path d="m319.132 312.675h-86.179-86.178v-7.22-7.221h86.178 86.179v7.221z"/></g><g><path d="m417.963 358.917c0 21.503-8.716 40.971-22.808 55.063s-33.559 22.808-55.063 22.808-40.971-8.716-55.063-22.808-22.808-33.559-22.808-55.063 8.716-40.971 22.808-55.063 33.559-22.808 55.063-22.808 40.971 8.716 55.063 22.808 22.808 33.56 22.808 55.063z" fill="#f95d95"/><path d="m405.079 358.917c0 17.946-7.274 34.192-19.034 45.953s-28.007 19.034-45.953 19.034-34.192-7.274-45.953-19.034-19.034-28.007-19.034-45.953 7.274-34.192 19.034-45.953 28.007-19.034 45.953-19.034 34.192 7.274 45.953 19.034 19.034 28.007 19.034 45.953z" fill="#fff"/></g><g fill="#06daf7"><path d="m345.811 410.878h-5.718-5.719v-5.719-5.719h5.719 5.718v5.719z"/><path d="m345.811 318.394h-5.718-5.719v-5.719-5.718h5.719 5.718v5.718z"/><path d="m380.878 391.615-4.044 4.044-4.043 4.044-4.044-4.044-4.044-4.044 4.044-4.044 4.044-4.043 4.043 4.043z"/><path d="m315.482 326.219-4.044 4.044-4.043 4.043-4.044-4.043-4.044-4.044 4.044-4.044 4.044-4.043 4.043 4.043z"/><path d="m392.053 353.198v5.719 5.719h-5.718-5.719v-5.719-5.719h5.719z"/><path d="m299.569 353.198v5.719 5.719h-5.718-5.719v-5.719-5.719h5.719z"/><path d="m372.791 318.132 4.043 4.043 4.044 4.044-4.044 4.044-4.043 4.043-4.044-4.043-4.044-4.044 4.044-4.044z"/><path d="m307.395 383.528 4.043 4.043 4.044 4.044-4.044 4.044-4.043 4.044-4.044-4.044-4.044-4.044 4.044-4.044z"/></g><path d="m341.769 356.769h-1.775-1.775v-22.406-22.406h1.775 1.775v22.406z" fill="#052481"/><path d="m388.634 363.094-.147 1.768-.148 1.769-25.06-2.088-25.06-2.089.148-1.768.147-1.769 25.06 2.088z" fill="#a54f2d"/><path d="m340.093 358.874-.484.744-.483.744-22.818-14.828-22.818-14.829.483-.744.484-.744 22.818 14.829z" fill="#f95d95"/><path d="m349.931 358.917c0 2.717-1.101 5.176-2.882 6.957-1.78 1.78-4.24 2.882-6.957 2.882s-5.176-1.101-6.957-2.882c-1.78-1.78-2.882-4.24-2.882-6.957s1.101-5.176 2.882-6.957c1.78-1.78 4.24-2.882 6.957-2.882s5.176 1.101 6.957 2.882 2.882 4.24 2.882 6.957z" fill="#052481"/></g></svg>