<?xml version="1.0" encoding="UTF-8"?>
<svg xmlns="http://www.w3.org/2000/svg" onmouseup="{ if(window.parent.document.onmouseup) window.parent.document.onmouseup(arguments[0]);}" viewBox="0 0 648.60069 736.67681" height="736.67681" width="648.60069" data-name="Layer 1" id="efec5e00-3a03-4cc7-a116-3276bdc4c472"><ellipse data-cppathid="10000" fill="#e6e6e6" transform="translate(-478.54174 1340.81747) rotate(-89.90804)" ry="98.0657" rx="5.51263" cy="812.82349" cx="610.96096"/><path data-cppathid="10001" fill="#e6e6e6" transform="translate(-275.69966 -81.66159)" d="M598.57568,615.54492a250.68464,250.68464,0,1,1,177.26026-73.42383A249.04472,249.04472,0,0,1,598.57568,615.54492Zm0-499.36865c-137.125,0-248.68408,111.55908-248.68408,248.68408S461.45068,613.54492,598.57568,613.54492c137.12452,0,248.68409-111.55957,248.68409-248.68457S735.7002,116.17627,598.57568,116.17627Z"/><rect data-cppathid="10002" fill="#3f3d56" height="65.86179" width="19.02674" y="291.28877" x="163.92283"/><polygon data-cppathid="10003" fill="#3f3d56" points="195.515 344.761 149.239 289.708 56.349 290.557 0 345.442 1.139 346.174 0.732 346.174 0.732 460.334 195.39 460.334 195.39 346.174 195.515 344.761"/><polygon data-cppathid="10004" fill="#6c63ff" points="149.287 289.825 91.475 357.603 91.475 460.334 195.39 460.334 195.39 344.71 149.287 289.825"/><rect data-cppathid="10005" fill="#3f3d56" height="18.75793" width="21.22214" y="403.52263" x="133.18731"/><rect data-cppathid="10006" fill="#3f3d56" height="18.46045" width="21.22214" y="371.05471" x="133.18731"/><rect data-cppathid="10007" fill="#fff" height="18.75793" width="21.22214" y="403.52263" x="133.18731"/><rect data-cppathid="10008" fill="#fff" height="18.46045" width="21.22214" y="371.05471" x="133.18731"/><rect data-cppathid="10009" fill="#3f3d56" height="18.75793" width="21.22215" y="398.54533" x="38.87462"/><rect data-cppathid="10010" fill="#3f3d56" height="18.46045" width="21.22215" y="366.07742" x="38.87462"/><rect data-cppathid="10011" fill="#fff" height="18.75793" width="21.22215" y="398.54533" x="38.87462"/><rect data-cppathid="10012" fill="#fff" height="18.46045" width="21.22215" y="366.07742" x="38.87462"/><rect data-cppathid="10013" fill="#3f3d56" height="65.86179" width="19.02674" y="1.58093" x="465.65112"/><polygon data-cppathid="10014" fill="#3f3d56" points="453.211 56.466 453.211 236.624 647.869 236.624 647.869 56.466 647.462 56.466 648.601 55.734 592.252 0.849 499.362 0 453.086 55.053 453.211 56.466"/><polygon data-cppathid="10015" fill="#6c63ff" points="453.211 55.002 453.211 236.624 557.126 236.624 557.126 67.896 499.314 0.117 453.211 55.002"/><rect data-cppathid="10016" fill="#3f3d56" height="18.75793" width="21.22214" y="113.81479" x="494.19124"/><rect data-cppathid="10017" fill="#3f3d56" height="18.46045" width="21.22214" y="81.34688" x="494.19124"/><rect data-cppathid="10018" fill="#fff" height="18.75793" width="21.22214" y="113.81479" x="494.19124"/><rect data-cppathid="10019" fill="#fff" height="18.46045" width="21.22214" y="81.34688" x="494.19124"/><rect data-cppathid="10020" fill="#3f3d56" height="18.75793" width="21.22215" y="108.83749" x="588.50392"/><rect data-cppathid="10021" fill="#3f3d56" height="18.46045" width="21.22215" y="76.36958" x="588.50392"/><rect data-cppathid="10022" fill="#fff" height="18.75793" width="21.22215" y="108.83749" x="588.50392"/><rect data-cppathid="10023" fill="#fff" height="18.46045" width="21.22215" y="76.36958" x="588.50392"/><rect data-cppathid="10024" fill="#fff" height="18.75793" width="21.22214" y="179.81225" x="494.19124"/><rect data-cppathid="10025" fill="#fff" height="18.46045" width="21.22214" y="147.34433" x="494.19124"/><rect data-cppathid="10026" fill="#fff" height="18.75793" width="21.22215" y="174.83494" x="588.50392"/><rect data-cppathid="10027" fill="#fff" height="18.46045" width="21.22215" y="142.36703" x="588.50392"/><circle data-cppathid="10028" fill="#a0616a" r="30.58812" cy="179.97807" cx="334.41991"/><path data-cppathid="10029" fill="#a0616a" transform="translate(-275.69966 -81.66159)" d="M578.70474,317.029l52.08248-.82671c-4.47987-12.344-6.4213-23.902-3.30682-33.89494l-39.68189-4.13354Q595.841,297.60139,578.70474,317.029Z"/><path data-cppathid="10030" fill="#a0616a" transform="translate(-275.69966 -81.66159)" d="M533.23591,522.05207l8.6487,23.0632a13.96613,13.96613,0,0,1-11.38624,18.76725h0a13.96613,13.96613,0,0,1-15.64647-14.40019l1.02321-26.60357,7.44036-136.40649,30.58812,9.09376Z"/><polygon data-cppathid="10031" fill="#2f2e41" points="289.778 696.669 314.579 694.189 336.9 477.592 368.315 698.323 391.463 697.496 397.25 455.271 286.471 455.271 289.778 696.669"/><path data-cppathid="10032" fill="#2f2e41" transform="translate(-275.69966 -81.66159)" d="M646.49463,250.06578s-8.26706,18.18753-14.054,19.01424-15.70741,9.92047-14.054,14.054.82671,16.53412-15.70742,14.88071-15.70741-3.30682-15.70741-3.30682-26.45459-50.42907.82671-63.65637S639.05428,227.74472,646.49463,250.06578Z"/><path data-cppathid="10033" fill="#2f2e41" transform="translate(-275.69966 -81.66159)" d="M668.427,767.32533l-.99365,20.86654s15.14469,23.62066-3.73456,23.62066c-.18879,0,.18641.00059,0,0-13.65339-.04323-25.99342,6.10144-24.3794-7.45628l2.2792-19.14531,3.97458-20.86654Z"/><path data-cppathid="10034" fill="#2f2e41" transform="translate(-275.69966 -81.66159)" d="M565.68423,767.32533l.99364,20.86654s-15.14469,23.62066,3.73456,23.62066c.1888,0-.18641.00059,0,0,13.6534-.04323,25.99342,6.10144,24.37941-7.45628l-2.27921-19.14531-3.97457-20.86654Z"/><path data-cppathid="10035" fill="#e6e6e6" transform="translate(-275.69966 -81.66159)" d="M553.07685,546.85325l123.1792-5.78694c-22.97278-73.72-23.14272-134.041,5.78694-189.58558a29.74026,29.74026,0,0,0-17.9743-27.31383l-35.76159-15.405L582.83836,311.242,552.8359,327.74335A35.715,35.715,0,0,0,534.37929,360.863C560.64618,423.56619,562.1464,485.3961,553.07685,546.85325Z"/><path data-cppathid="10036" fill="#e6e6e6" transform="translate(-275.69966 -81.66159)" d="M575.39792,403.0064l-68.61661-11.57389,11.3049-28.06733a73.96326,73.96326,0,0,1,44.77157-42.38384l6.75319-2.299Z"/><path data-cppathid="10037" fill="#a0616a" transform="translate(-275.69966 -81.66159)" d="M790.63436,339.90593l21.12184-8.80075a15.91941,15.91941,0,0,0,7.34454-23.18348l0,0a15.9194,15.9194,0,0,0-25.54645-1.88069l-15.67316,18.2574-61.4352,44.0851-41.76339-17.336-4.97519,34.63933,52.17621,13.58949Z"/><path data-cppathid="10038" fill="#e6e6e6" transform="translate(-275.69966 -81.66159)" d="M679.30034,399.10317l34-32-9-11c-8.04381-19.97084-26.53769-28.18352-46.919-35.12183l-6.7532-2.299-5.32782,54.42079Z"/></svg>