<?xml version="1.0" encoding="UTF-8"?>
<svg xmlns="http://www.w3.org/2000/svg" onmouseup="{ if(window.parent.document.onmouseup) window.parent.document.onmouseup(arguments[0]);}" height="512" width="512" viewBox="0 0 512 512" data-name="Out line" id="Out_line"><title/><path data-cppathid="10000" d="M490.12793,80.28809l-232-64a8.00948,8.00948,0,0,0-4.25586,0l-232,64A8,8,0,0,0,16,88v64a8.00008,8.00008,0,0,0,8,8H40v40a24.03813,24.03813,0,0,0,16,22.62384V417.37622A24.038,24.038,0,0,0,40,440v8a24.02718,24.02718,0,0,0-24,24v16a8.00008,8.00008,0,0,0,8,8H344V480H32v-8a8.00917,8.00917,0,0,1,8-8H344V448H184v-8a24.0384,24.0384,0,0,0-16-22.62378V222.62378A24.03853,24.03853,0,0,0,184,200v-8h96V176H56V160H280V144H32V94.0918l224-61.793,224,61.793V144H464a8.00008,8.00008,0,0,0-8,8v48a8.03762,8.03762,0,0,1-4.00586,6.93457l8.01172,13.84961A24.08453,24.08453,0,0,0,472,200V160h16a8.00008,8.00008,0,0,0,8-8V88A8,8,0,0,0,490.12793,80.28809ZM56,440a8.00917,8.00917,0,0,1,8-8h9.37622A23.88238,23.88238,0,0,0,72,440v8H56ZM88,200v-8h16v8a23.88212,23.88212,0,0,0,1.37622,8H96A8.00917,8.00917,0,0,1,88,200Zm16,248H88v-8a8.00917,8.00917,0,0,1,8-8h9.37622A23.88238,23.88238,0,0,0,104,440Zm16-224V416H104V224Zm16,0h16V416H136Zm-48,0V416H72V224Zm32,224v-8a8.00917,8.00917,0,0,1,8-8h32a8.00917,8.00917,0,0,1,8,8v8Zm48-248a8.00917,8.00917,0,0,1-8,8H128a8.00917,8.00917,0,0,1-8-8v-8h48Zm-96-8v8a23.88212,23.88212,0,0,0,1.37622,8H64a8.00917,8.00917,0,0,1-8-8v-8Z"/><path data-cppathid="10001" d="M256,48a40,40,0,1,0,40,40A40.04552,40.04552,0,0,0,256,48Zm0,64a24,24,0,1,1,24-24A24.0275,24.0275,0,0,1,256,112Z"/><rect data-cppathid="10002" height="16" width="32" y="80" x="312"/><rect data-cppathid="10003" height="16" width="32" y="80" x="168"/><rect data-cppathid="10004" height="16" width="152" y="112" x="48"/><rect data-cppathid="10005" height="16" width="152" y="112" x="312"/><path data-cppathid="10006" d="M408,272a40,40,0,1,0-40,40A40.04552,40.04552,0,0,0,408,272Zm-64,0a24,24,0,1,1,24,24A24.0275,24.0275,0,0,1,344,272Z"/><path data-cppathid="10007" d="M367.60156,409.09082,387.05591,448H368a8.00008,8.00008,0,0,0-8,8v40h16V464h96v32h16V456a8.00008,8.00008,0,0,0-8-8h-6.24146L493.542,349.08154a44.6952,44.6952,0,0,0-3-27.05957l-17.48437-39.33886A44.9759,44.9759,0,0,0,440,256.721V152a8.00008,8.00008,0,0,0-8-8H304a8.00008,8.00008,0,0,0-8,8V392a8.00008,8.00008,0,0,0,8,8h59.82324A71.62493,71.62493,0,0,0,367.60156,409.09082ZM440,392V273.12939a28.95422,28.95422,0,0,1,18.43652,16.05127L475.9209,328.52a28.77852,28.77852,0,0,1,1.93164,17.42383L457.44141,448H404.94434l-23.03223-46.06445A56.28216,56.28216,0,0,1,376,376.8916V352a8,8,0,0,1,16,0v24a24.0275,24.0275,0,0,0,24,24h16A8.00008,8.00008,0,0,0,440,392Zm-32-16V360.00281a39.88516,39.88516,0,0,1,16-7.18762V384h-8A8.00917,8.00917,0,0,1,408,376Zm16-216v31.19507A40.12035,40.12035,0,0,1,392.80493,160Zm-112,0h31.19507A40.12035,40.12035,0,0,1,312,191.19507Zm0,224V352.80493A40.12034,40.12034,0,0,1,343.19507,384Zm47.41943,0A56.11348,56.11348,0,0,0,312,336.58057V207.41943A56.11355,56.11355,0,0,0,359.41943,160h17.16114A56.11355,56.11355,0,0,0,424,207.41943V336.57812a55.85327,55.85327,0,0,0-18.00439,5.83423A23.99629,23.99629,0,0,0,360,352v24.8916c0,2.37293.127,4.74585.36377,7.1084Z"/></svg>