<?xml version="1.0" encoding="UTF-8"?>
<svg xmlns="http://www.w3.org/2000/svg" onmouseup="{ if(window.parent.document.onmouseup) window.parent.document.onmouseup(arguments[0]);}" width="496pt" viewBox="0 0 496 496" height="496pt"><g fill="#f0bc5e"><path data-cppathid="10000" d="m496 134.550781v-45.109375l-28.742188-5.753906c-1.226562-3.625-2.683593-7.160156-4.363281-10.566406l16.25-24.367188-31.90625-31.90625-24.367187 16.25c-3.414063-1.683594-6.941406-3.136718-10.566406-4.363281l-5.753907-28.734375h-45.109375l-5.753906 28.742188c-3.625 1.226562-7.160156 2.683593-10.566406 4.363281l-24.367188-16.25-31.90625 31.90625 16.25 24.367187c-1.683594 3.414063-3.136718 6.941406-4.363281 10.566406l-28.734375 5.753907v45.109375l28.742188 5.753906c1.226562 3.625 2.683593 7.160156 4.363281 10.566406l-16.25 24.367188 31.90625 31.90625 24.367187-16.25c3.414063 1.683594 6.941406 3.136718 10.566406 4.363281l5.753907 28.734375h45.109375l5.753906-28.742188c3.625-1.226562 7.160156-2.683593 10.566406-4.363281l24.367188 16.25 31.90625-31.90625-16.25-24.367187c1.683594-3.414063 3.136718-6.941406 4.363281-10.566406zm-112 25.449219c-26.511719 0-48-21.488281-48-48s21.488281-48 48-48 48 21.488281 48 48-21.488281 48-48 48zm0 0"/><path data-cppathid="10001" d="m152 0c-48.519531 0-88 39.480469-88 88v40h8c0-13.257812 10.742188-24 24-24v8l48-16v16c21.039062 0 41.800781-4.894531 60.625-14.3125l3.375-1.6875v8c13.257812 0 24 10.742188 24 24h8v-40c0-48.519531-39.480469-88-88-88zm0 0"/><path data-cppathid="10002" d="m392 496c-57.34375 0-104-46.65625-104-104s46.65625-104 104-104 104 46.65625 104 104-46.65625 104-104 104zm0 0"/></g><path data-cppathid="10003" d="m392 416c-4.414062 0-8-3.59375-8-8h-16c0 10.414062 6.710938 19.214844 16 22.527344v9.472656h16v-9.472656c9.289062-3.3125 16-12.113282 16-22.527344 0-13.230469-10.769531-24-24-24-4.414062 0-8-3.59375-8-8s3.585938-8 8-8 8 3.59375 8 8h16c0-10.414062-6.710938-19.214844-16-22.527344v-9.472656h-16v9.472656c-9.289062 3.3125-16 12.113282-16 22.527344 0 13.230469 10.769531 24 24 24 4.414062 0 8 3.59375 8 8s-3.585938 8-8 8zm0 0"/><path data-cppathid="10004" d="m392 320c-16.097656 0-31.34375 5.246094-44.113281 15.167969l9.816406 12.632812c9.9375-7.722656 21.800781-11.800781 34.296875-11.800781 30.871094 0 56 25.121094 56 56 0 12.496094-4.078125 24.359375-11.808594 34.296875l12.640625 9.816406c9.929688-12.777343 15.167969-28.023437 15.167969-44.113281 0-39.695312-32.296875-72-72-72zm0 0"/><path data-cppathid="10005" d="m392 448c-30.871094 0-56-25.121094-56-56 0-12.496094 4.078125-24.359375 11.808594-34.296875l-12.640625-9.816406c-9.929688 12.777343-15.167969 28.023437-15.167969 44.113281 0 39.695312 32.296875 72 72 72 16.097656 0 31.34375-5.246094 44.113281-15.167969l-9.816406-12.632812c-9.9375 7.722656-21.800781 11.800781-34.296875 11.800781zm0 0"/><path data-cppathid="10006" d="m32 336h-16v40h-16v120h48v-120h-16zm0 144h-16v-88h16zm0 0"/><path data-cppathid="10007" d="m104 336h-16v40h-16v56h16v64h16v-64h16v-56h-16zm0 80h-16v-24h16zm0 0"/><path data-cppathid="10008" d="m176 336h-16v80h-16v48h16v32h16v-32h16v-48h-16zm0 112h-16v-16h16zm0 0"/><path data-cppathid="10009" d="m248 336h-16v16h-16v72h16v72h16v-72h16v-72h-16zm0 72h-16v-40h16zm0 0"/><path data-cppathid="10010" d="m255.878906 218.816406-55.878906-16.769531v-15.855469c6.664062-7.566406 11.542969-16.710937 14.046875-26.800781 14.761719-2.847656 25.953125-15.816406 25.953125-31.390625 0-14.863281-10.230469-27.289062-24-30.863281v-9.136719h-16v2.992188c-14.960938 7.3125-31.382812 11.695312-48 12.761718v-18.84375l-48 16v-12.910156h-16v9.136719c-13.769531 3.574219-24 16-24 30.863281 0 15.574219 11.191406 28.542969 25.953125 31.390625 2.503906 10.089844 7.382813 19.234375 14.046875 26.800781v15.855469l-55.878906 16.769531c-14.199219 4.253906-24.832032 15.9375-27.738282 30.472656l-14.144531 70.710938h291.523438l-14.144531-70.71875c-2.90625-14.539062-13.527344-26.210938-27.738282-30.464844zm-135.878906-19.472656c9.425781 5.472656 20.335938 8.65625 32 8.65625s22.574219-3.183594 32-8.65625v4.128906l-32 19.199219-32-19.199219zm73.089844 17.335938 6.910156 2.074218v17.933594l-16 16-19.097656-19.09375zm30.910156-88.679688c0 5.894531-3.238281 11-8 13.777344v-27.546875c4.761719 2.769531 8 7.875 8 13.769531zm-88-20.902344v12.902344h8c19.167969 0 38.335938-3.9375 56-11.398438v35.398438c0 26.472656-21.527344 48-48 48s-48-21.527344-48-48v-26.230469zm-56 20.902344c0-5.894531 3.238281-11 8-13.777344v27.546875c-4.761719-2.769531-8-7.875-8-13.769531zm30.910156 88.679688 28.1875 16.914062-19.097656 19.09375-16-16v-17.933594zm120.035156 87.320312-7.015624-49.136719-15.839844 2.265625 6.6875 46.871094h-125.554688l6.699219-46.863281-15.84375-2.265625-7.023437 49.128906h-47.292969l10.308593-51.574219c1.746094-8.722656 8.128907-15.730469 16.640626-18.28125l35.289062-10.59375v19.761719l32 32 32-32 32 32 32-32v-19.761719l35.289062 10.585938c8.511719 2.550781 14.894532 9.558593 16.640626 18.277343l10.308593 51.585938zm0 0"/><path data-cppathid="10011" d="m384 168c30.871094 0 56-25.121094 56-56s-25.128906-56-56-56-56 25.121094-56 56 25.128906 56 56 56zm0-96c22.054688 0 40 17.945312 40 40s-17.945312 40-40 40-40-17.945312-40-40 17.945312-40 40-40zm0 0"/></svg>