<?xml version="1.0" encoding="UTF-8"?>
<svg xmlns="http://www.w3.org/2000/svg" onmouseup="{ if(window.parent.document.onmouseup) window.parent.document.onmouseup(arguments[0]);}" width="512" viewBox="0 0 510 510" height="512" enable-background="new 0 0 510 510" id="Capa_1"><g><path data-cppathid="10000" fill="#5b362a" d="m494 416-7.67 15.99 7.67 14.01v49c0 8.28-6.72 15-15 15h-448c-8.28 0-15-6.72-15-15v-49l10.55-12.22-10.55-17.78v-109.27c0-8.28 6.72-15 15-15h448c8.28 0 15 6.72 15 15z"/><path data-cppathid="10001" fill="#38211a" d="m494 416-7.67 15.99 7.67 14.01v49c0 8.28-6.72 15-15 15h-224v-218.27h224c8.28 0 15 6.72 15 15z"/><path data-cppathid="10002" fill="#5b362a" d="m398 143c0 8.28-6.72 15-15 15s-15-6.72-15-15c0-62.31-50.69-113-113-113s-113 50.69-113 113c0 8.28-6.72 15-15 15s-15-6.72-15-15c0-78.85 64.15-143 143-143s143 64.15 143 143z"/><path data-cppathid="10003" fill="#38211a" d="m398 143c0 8.28-6.72 15-15 15s-15-6.72-15-15c0-62.31-50.69-113-113-113v-30c78.85 0 143 64.15 143 143z"/><path data-cppathid="10004" fill="#704c55" d="m510 200-7.96 15 7.96 15v73c0 7.15-5.05 13.31-12.06 14.71-6.556 1.315-145.825-15.812-151.367-14.704-1.719.337-48.153 27.516-91.573 55.002-8.846 5.6-23.576-.009-40-.009-1.864 0 13.039 3.018-202.94-40.29-7.01-1.399-12.06-7.559-12.06-14.709v-73l5.03-12.75-5.03-17.25v-57c0-8.28 6.72-15 15-15h480c8.28 0 15 6.72 15 15z"/><path data-cppathid="10005" fill="#5b362a" d="m510 200-7.96 15 7.96 15v73c0 7.15-5.05 13.31-12.06 14.71-6.556 1.315-194.459 38.892-200 40-2.104.412.48.29-42.94.29v-230h240c8.28 0 15 6.72 15 15z"/><path data-cppathid="10006" fill="#fdbf00" d="m310 279v88c0 8.28-6.72 15-15 15h-80c-8.28 0-15-6.72-15-15v-88c0-8.28 6.72-15 15-15h80c8.28 0 15 6.72 15 15z"/><path data-cppathid="10007" fill="#ff9100" d="m310 279v88c0 8.28-6.72 15-15 15h-40v-118h40c8.28 0 15 6.72 15 15z"/><path data-cppathid="10008" fill="#704c55" d="m16 416h478v30h-478z"/><path data-cppathid="10009" fill="#5b362a" d="m0 200h510v30h-510z"/><path data-cppathid="10010" fill="#5b362a" d="m255 416h239v30h-239z"/><path data-cppathid="10011" fill="#38211a" d="m255 200h255v30h-255z"/></g></svg>