<?xml version="1.0" encoding="UTF-8"?>
<svg xmlns="http://www.w3.org/2000/svg" onmouseup="{ if(window.parent.document.onmouseup) window.parent.document.onmouseup(arguments[0]);}" xml:space="preserve" style="enable-background:new 0 0 512 512;" viewBox="0 0 512 512" y="0px" x="0px" id="Capa_1" version="1.1" xmlns:xlink="http://www.w3.org/1999/xlink"><g><circle data-cppathid="10000" r="32" cy="256" cx="470" style="fill:#52E7EF;"/><circle data-cppathid="10001" r="32" cy="256" cx="42" style="fill:#52E7EF;"/></g><g><circle data-cppathid="10002" r="32" cy="470" cx="256" style="fill:#FFC44D;"/><circle data-cppathid="10003" r="32" cy="42" cx="256" style="fill:#FFC44D;"/></g><g><circle data-cppathid="10004" r="32" cy="407.32" cx="104.68" style="fill:#F75857;"/><circle data-cppathid="10005" r="32" cy="104.68" cx="407.32" style="fill:#F75857;"/></g><g><circle data-cppathid="10006" r="32" cy="104.68" cx="104.68" style="fill:#006AB2;"/><circle data-cppathid="10007" r="32" cy="407.32" cx="407.32" style="fill:#006AB2;"/></g><circle data-cppathid="10008" r="140" cy="256" cx="256" style="fill:#A0E070;"/><path data-cppathid="10009" d="M339.127,299.101c0-17.481-12.459-32.479-29.644-35.684l-21.143-3.943l-64.76,0.015l-21.063,3.928  c-17.184,3.205-29.644,18.203-29.644,35.684V321.5c21.175,21.467,145.079,21.467,166.254,0L339.127,299.101L339.127,299.101z" style="fill:#F75857;"/><path data-cppathid="10010" d="M256,169.986L256,169.986c-21.862,0-39.584,17.722-39.584,39.584v25.759  c0,21.862,17.722,39.584,39.584,39.584l0,0c21.862,0,39.584-17.722,39.584-39.584V209.57  C295.584,187.708,277.862,169.986,256,169.986z" style="fill:#FFBC8F;"/><path data-cppathid="10011" d="M149.901,347.95l-0.09,0.091c-3.884,3.926-3.85,10.258,0.076,14.142c1.949,1.928,4.492,2.891,7.033,2.891  c2.577,0,5.153-0.99,7.109-2.967l0.09-0.091c3.884-3.926,3.85-10.258-0.076-14.142C160.118,343.989,153.787,344.024,149.901,347.95z  "/><path data-cppathid="10012" d="M470,214c-19.713,0-36.289,13.655-40.788,32h-23.548c-2.157-32.988-14.963-63.906-36.764-88.757l16.651-16.651  c6.665,4.039,14.215,6.068,21.77,6.068c10.755,0,21.51-4.094,29.698-12.281c7.933-7.933,12.302-18.48,12.302-29.699  s-4.369-21.766-12.302-29.699c-16.377-16.375-43.021-16.374-59.397,0c-7.933,7.933-12.302,18.48-12.302,29.699  c0,7.804,2.12,15.281,6.077,21.781l-16.64,16.64c-24.851-21.8-55.77-34.607-88.757-36.764v-23.55c18.346-4.499,32-21.075,32-40.787  c0-23.159-18.841-42-42-42s-42,18.841-42,42c0,19.713,13.654,36.288,32,40.787v23.548c-32.987,2.157-63.906,14.964-88.757,36.764  l-16.64-16.64c3.958-6.5,6.077-13.977,6.077-21.781c0-11.219-4.369-21.766-12.302-29.699c-16.376-16.374-43.02-16.376-59.397,0  c-7.933,7.933-12.302,18.48-12.302,29.699c0,11.218,4.369,21.766,12.302,29.699c8.188,8.188,18.943,12.281,29.698,12.281  c7.555,0,15.105-2.028,21.77-6.068l16.647,16.647c-19.321,22.013-31.593,48.775-35.658,77.982  c-0.498,3.581-0.857,7.177-1.092,10.779H82.788C78.289,227.655,61.713,214,42,214c-23.159,0-42,18.841-42,42s18.841,42,42,42  c19.713,0,36.289-13.655,40.788-32h23.588c1.447,21.34,7.391,42.332,17.515,61.121c2.621,4.862,8.688,6.679,13.547,4.06  c4.862-2.62,6.68-8.685,4.061-13.546c-27.003-50.116-17.719-113.261,22.578-153.558C188.63,139.522,221.275,126,256,126  s67.37,13.522,91.923,38.076C372.478,188.629,386,221.275,386,256s-13.522,67.371-38.077,91.924  c-40.297,40.298-103.44,49.583-153.56,22.577c-4.862-2.62-10.926-0.802-13.547,4.06c-2.619,4.862-0.802,10.927,4.061,13.547  c18.79,10.125,39.782,16.065,61.123,17.512v23.593c-18.346,4.499-32,21.075-32,40.787c0,23.159,18.841,42,42,42s42-18.841,42-42  c0-19.713-13.654-36.288-32-40.787v-23.56c3.602-0.235,7.198-0.592,10.778-1.091c29.207-4.064,55.969-16.337,77.983-35.658  l16.636,16.636c-3.958,6.5-6.077,13.977-6.077,21.781c0,11.219,4.369,21.766,12.302,29.699c8.188,8.188,18.943,12.281,29.699,12.281  c10.755,0,21.51-4.094,29.698-12.281c7.933-7.933,12.302-18.48,12.302-29.699c0-11.218-4.369-21.766-12.302-29.699  c-13.94-13.939-35.314-16.003-51.468-6.213L368.9,354.757c21.8-24.851,34.607-55.77,36.764-88.757h23.548  c4.499,18.345,21.075,32,40.788,32c23.159,0,42-18.841,42-42S493.159,214,470,214z M42,278c-12.131,0-22-9.869-22-22  c0-12.131,9.869-22,22-22s22,9.869,22,22S54.131,278,42,278z M391.765,89.123c4.289-4.289,9.923-6.433,15.556-6.433  c5.634,0,11.268,2.144,15.557,6.433c4.155,4.155,6.444,9.68,6.444,15.556s-2.289,11.401-6.444,15.556  c-8.577,8.578-22.535,8.579-31.112,0c-4.155-4.155-6.444-9.68-6.444-15.556S387.609,93.278,391.765,89.123z M234,42  c0-12.131,9.869-22,22-22c12.131,0,22,9.869,22,22s-9.869,22-22,22S234,54.131,234,42z M89.123,120.235  c-4.155-4.155-6.444-9.68-6.444-15.556s2.289-11.401,6.444-15.556c8.578-8.577,22.534-8.579,31.112,0  c4.155,4.155,6.444,9.68,6.444,15.556s-2.289,11.401-6.444,15.556C111.657,128.814,97.701,128.813,89.123,120.235z M278,470  c0,12.131-9.869,22-22,22s-22-9.869-22-22s9.869-22,22-22C268.131,448,278,457.869,278,470z M407.321,385.332  c5.633,0,11.268,2.145,15.556,6.433c4.155,4.155,6.444,9.68,6.444,15.556s-2.289,11.401-6.444,15.556  c-8.577,8.578-22.533,8.579-31.112,0c-4.155-4.155-6.444-9.68-6.444-15.556s2.289-11.401,6.444-15.556  C396.054,387.475,401.687,385.332,407.321,385.332z M470,278c-12.131,0-22-9.869-22-22c0-12.131,9.869-22,22-22s22,9.869,22,22  S482.131,278,470,278z"/><path data-cppathid="10013" d="M144.571,367.429c-3.906-3.905-10.236-3.905-14.143,0l-3.98,3.98c-16.154-9.79-37.528-7.724-51.468,6.214  c-7.933,7.933-12.302,18.48-12.302,29.699s4.369,21.766,12.302,29.699c8.188,8.188,18.943,12.281,29.698,12.281  c10.756,0,21.511-4.094,29.699-12.281c7.933-7.933,12.302-18.48,12.302-29.699c0-7.804-2.12-15.281-6.077-21.781l3.969-3.969  C148.477,377.666,148.477,371.334,144.571,367.429z M120.235,422.877c-8.578,8.579-22.534,8.578-31.112,0  c-4.155-4.155-6.444-9.68-6.444-15.556s2.289-11.401,6.444-15.556c4.289-4.29,9.922-6.433,15.557-6.433  c5.633,0,11.268,2.145,15.556,6.433c4.155,4.155,6.444,9.68,6.444,15.556S124.391,418.722,120.235,422.877z"/><path data-cppathid="10014" d="M344.34,330.954c3.46-1.667,5.66-5.168,5.66-9.009v-21.487c0-22.47-16.032-41.77-38.122-45.889l-8.827-1.646  c1.905-5.284,2.949-10.975,2.949-16.907v-26.029c0-27.57-22.43-50-50-50s-50,22.43-50,50v26.029c0,5.932,1.044,11.624,2.949,16.907  l-8.827,1.646C178.032,258.688,162,277.987,162,300.458v21.487c0,3.841,2.2,7.342,5.66,9.009c1.785,0.86,44.231,21.061,88.34,21.061  S342.555,331.813,344.34,330.954z M226,209.986c0-16.542,13.458-30,30-30s30,13.458,30,30v26.029c0,16.542-13.458,30-30,30  s-30-13.458-30-30V209.986z M182,300.458c0-12.843,9.163-23.873,21.788-26.228l16.654-3.106  c9.071,9.186,21.659,14.891,35.558,14.891s26.487-5.705,35.558-14.891l16.654,3.106C320.837,276.584,330,287.615,330,300.458v14.958  c-12.407,5.168-43.317,16.598-74,16.598c-30.686,0-61.598-11.431-74-16.598V300.458z"/><g/><g/><g/><g/><g/><g/><g/><g/><g/><g/><g/><g/><g/><g/><g/></svg>