<?xml version="1.0" encoding="UTF-8"?>
<svg xmlns="http://www.w3.org/2000/svg" onmouseup="{ if(window.parent.document.onmouseup) window.parent.document.onmouseup(arguments[0]);}" width="512" viewBox="0 0 64 64" height="512" enable-background="new 0 0 64 64" id="Layer_5"><g><g><circle data-cppathid="10000" r="10" fill="#f0bc5e" cy="12" cx="32"/></g><g><circle data-cppathid="10001" r="10" fill="#f0bc5e" cy="32" cx="32"/></g><g><circle data-cppathid="10002" r="10" fill="#f0bc5e" cy="52" cx="32"/></g><g><path data-cppathid="10003" d="m53 15h-2c-.552 0-1-.449-1-1h-2c0 1.654 1.346 3 3 3v2h2v-2c1.654 0 3-1.346 3-3s-1.346-3-3-3h-2c-.552 0-1-.449-1-1s.448-1 1-1h2c.552 0 1 .449 1 1h2c0-1.654-1.346-3-3-3v-2h-2v2c-1.654 0-3 1.346-3 3s1.346 3 3 3h2c.552 0 1 .449 1 1s-.448 1-1 1z"/><path data-cppathid="10004" d="m13 15h-2c-.552 0-1-.449-1-1h-2c0 1.654 1.346 3 3 3v2h2v-2c1.654 0 3-1.346 3-3s-1.346-3-3-3h-2c-.552 0-1-.449-1-1s.448-1 1-1h2c.552 0 1 .449 1 1h2c0-1.654-1.346-3-3-3v-2h-2v2c-1.654 0-3 1.346-3 3s1.346 3 3 3h2c.552 0 1 .449 1 1s-.448 1-1 1z"/><path data-cppathid="10005" d="m63 36v-2c0-1.654-1.346-3-3-3h-1.184c.112-.314.184-.648.184-1v-2c0-1.654-1.346-3-3-3h-12c-1.072 0-2.008.57-2.538 1.418-1.143-1.93-2.854-3.479-4.906-4.418 3.795-1.736 6.444-5.561 6.444-10 0-6.065-4.935-11-11-11s-11 4.935-11 11c0 4.439 2.649 8.264 6.444 10-3.564 1.63-6.106 5.103-6.404 9.197-.325-.121-.673-.197-1.04-.197h-12c-1.654 0-3 1.346-3 3v2c0 .352.072.686.184 1h-1.184c-1.654 0-3 1.346-3 3v2c0 1.654 1.346 3 3 3h1.184c-.112.314-.184.648-.184 1v2c0 .352.072.686.184 1h-1.184c-1.654 0-3 1.346-3 3v2c0 1.654 1.346 3 3 3h1.184c-.112.314-.184.648-.184 1v2c0 1.654 1.346 3 3 3h12c1.654 0 3-1.346 3-3v-1.695c1.992 2.834 5.28 4.695 9 4.695 4.534 0 8.435-2.759 10.116-6.685.517.422 1.167.685 1.884.685h1.184c-.112.314-.184.648-.184 1v2c0 1.654 1.346 3 3 3h12c1.654 0 3-1.346 3-3v-2c0-1.654-1.346-3-3-3h-1.184c.112-.314.184-.648.184-1v-2c0-.352-.072-.686-.184-1h1.184c1.654 0 3-1.346 3-3v-2c0-1.654-1.346-3-3-3h-1.184c.112-.314.184-.648.184-1v-2c0-.352-.072-.686-.184-1h1.184c1.654 0 3-1.346 3-3zm-20-8c0-.551.448-1 1-1h1v2h2v-2h2v2h2v-2h2v2h2v-2h1c.552 0 1 .449 1 1v2c0 .551-.448 1-1 1h-8-4c-.552 0-1-.449-1-1zm8 13v-2h2v2h2v-2h1c.552 0 1 .448 1 1v2c0 .552-.448 1-1 1h-8-4c-.552 0-1-.448-1-1v-2c0-.552.448-1 1-1h1v2h2v-2h1 1v2zm-14.444 1c3.564-1.63 6.106-5.103 6.404-9.197.325.121.673.197 1.04.197h1.184c-.112.314-.184.648-.184 1v2c0 .352.072.686.184 1h-1.184c-1.654 0-3 1.346-3 3v2c0 1.654 1.346 3 3 3h1.184c-.112.314-.184.648-.184 1v2c0 .352.072.686.184 1h-1.184c-.484 0-.936.126-1.341.331-.819-3.267-3.096-5.955-6.103-7.331zm-13.583 3.732c-.138-1.527-1.411-2.732-2.973-2.732h-1.184c.112-.314.184-.648.184-1v-2c0-.352-.072-.686-.184-1h1.184c1.072 0 2.008-.57 2.538-1.418 1.143 1.93 2.854 3.479 4.906 4.418-1.804.825-3.348 2.119-4.471 3.732zm-11.973 1.268v-2h2v2h2v-2h1 1v2h2v-2h1c.552 0 1 .448 1 1v2c0 .552-.448 1-1 1h-4-8c-.552 0-1-.448-1-1v-2c0-.552.448-1 1-1h1v2zm14.57-8.714c1.505-2.064 3.852-3.286 6.43-3.286s4.925 1.222 6.43 3.286c-1.635 1.672-3.912 2.714-6.43 2.714s-4.795-1.042-6.43-2.714zm3.43-8.286c0-1.654 1.346-3 3-3s3 1.346 3 3-1.346 3-3 3-3-1.346-3-3zm3-27c4.963 0 9 4.038 9 9 0 1.701-.483 3.287-1.306 4.645-1.14-1.392-2.609-2.422-4.263-3.026.961-.912 1.569-2.193 1.569-3.619 0-2.757-2.243-5-5-5s-5 2.243-5 5c0 1.426.608 2.707 1.569 3.619-1.654.604-3.123 1.635-4.263 3.026-.823-1.358-1.306-2.944-1.306-4.645 0-4.962 4.037-9 9-9zm-3 7c0-1.654 1.346-3 3-3s3 1.346 3 3-1.346 3-3 3-3-1.346-3-3zm-3.43 8.286c1.505-2.064 3.852-3.286 6.43-3.286s4.925 1.222 6.43 3.286c-1.636 1.672-3.912 2.714-6.43 2.714s-4.794-1.042-6.43-2.714zm6.43 4.714c4.963 0 9 4.038 9 9 0 1.701-.483 3.287-1.306 4.645-1.14-1.392-2.609-2.422-4.263-3.026.961-.912 1.569-2.193 1.569-3.619 0-2.757-2.243-5-5-5s-5 2.243-5 5c0 1.426.608 2.707 1.569 3.619-1.654.604-3.123 1.634-4.263 3.026-.823-1.358-1.306-2.944-1.306-4.645 0-4.962 4.037-9 9-9zm-25 11c0-.552.448-1 1-1h1v2h2v-2h2v2h2v-2h2v2h2v-2h1c.552 0 1 .448 1 1v2c0 .552-.448 1-1 1h-4-8c-.552 0-1-.448-1-1zm-3 9c-.552 0-1-.448-1-1v-2c0-.552.448-1 1-1h1v2h2v-2h1 1v2h2v-2h2v2h2v-2h1c.552 0 1 .448 1 1v2c0 .552-.448 1-1 1h-8zm0 12c-.552 0-1-.448-1-1v-2c0-.552.448-1 1-1h1v2h2v-2h1 1v2h2v-2h2v2h2v-2h1c.552 0 1 .448 1 1v2c0 .552-.448 1-1 1h-8zm17 5c0 .552-.448 1-1 1h-12c-.552 0-1-.448-1-1v-2c0-.552.448-1 1-1h1v2h2v-2h2v2h2v-2h1 1v2h2v-2h1c.552 0 1 .448 1 1zm-1-5h-1.184c.112-.314.184-.648.184-1v-2c0-.352-.072-.686-.184-1h1.184c.378 0 .736-.078 1.07-.206-.044.397-.07.798-.07 1.206 0 1.206.202 2.364.563 3.451-.457-.281-.989-.451-1.563-.451zm12-12c4.963 0 9 4.037 9 9 0 1.701-.483 3.287-1.306 4.645-1.14-1.392-2.609-2.422-4.263-3.026.961-.912 1.569-2.193 1.569-3.619 0-2.757-2.243-5-5-5s-5 2.243-5 5c0 1.426.608 2.707 1.569 3.619-1.654.604-3.123 1.634-4.263 3.026-.823-1.358-1.306-2.944-1.306-4.645 0-4.963 4.037-9 9-9zm-3 7c0-1.654 1.346-3 3-3s3 1.346 3 3-1.346 3-3 3-3-1.346-3-3zm3 11c-2.518 0-4.795-1.042-6.43-2.714 1.505-2.064 3.852-3.286 6.43-3.286s4.925 1.222 6.43 3.286c-1.635 1.672-3.912 2.714-6.43 2.714zm12-6c-.552 0-1-.448-1-1v-2c0-.552.448-1 1-1h1v2h2v-2h1 1v2h2v-2h2v2h2v-2h1c.552 0 1 .448 1 1v2c0 .552-.448 1-1 1h-8zm15 4v-2h1c.552 0 1 .448 1 1v2c0 .552-.448 1-1 1h-12c-.552 0-1-.448-1-1v-2c0-.552.448-1 1-1h1v2h2v-2h2v2h2v-2h1 1v2zm0-12v-2h1c.552 0 1 .448 1 1v2c0 .552-.448 1-1 1h-4-8c-.552 0-1-.448-1-1v-2c0-.552.448-1 1-1h1v2h2v-2h2v2h2v-2h1 1v2zm-3-10h-8c-.552 0-1-.448-1-1v-2c0-.552.448-1 1-1h1v2h2v-2h2v2h2v-2h1 1v2h2v-2h1c.552 0 1 .448 1 1v2c0 .552-.448 1-1 1z"/></g></g></svg>