<?xml version="1.0" encoding="UTF-8"?>
<svg xmlns="http://www.w3.org/2000/svg" onmouseup="{ if(window.parent.document.onmouseup) window.parent.document.onmouseup(arguments[0]);}" xml:space="preserve" style="enable-background:new 0 0 511.999 511.999;" viewBox="0 0 511.999 511.999" y="0px" x="0px" id="Capa_1" version="1.1" xmlns:xlink="http://www.w3.org/1999/xlink"><path data-cppathid="10000" d="M196.431,7.882c-52.35,0-94.785,42.436-94.785,94.786v38.325c6.335-5.872,15.347-9.064,24.144-7.888  v-4.723c0-3.754,3.206-6.72,6.923-6.439c36.647,2.632,73.942-9.013,102.141-27.434c2.632-1.72,6.118-1.292,8.258,1.007  c24.108,25.914,23.962,24.912,23.962,28.295v9.275c9.643-1.445,18.197,1.535,24.139,7.06v-37.477  C291.217,50.318,248.782,7.882,196.431,7.882z" style="fill:#707487;"/><path data-cppathid="10001" d="M123.832,102.668c0-48.595,36.573-88.622,83.692-94.119c-3.641-0.425-7.338-0.667-11.094-0.667  c-52.35,0-94.785,42.436-94.785,94.786v38.325c5.865-5.436,14.026-8.569,22.186-8.07L123.832,102.668L123.832,102.668z" style="fill:#5B5D6E;"/><path data-cppathid="10002" d="M266.949,129.653v52.125c0,0.565-0.03,1.123-0.043,1.686c18.446,2.793,32.893-10.535,32.893-26.904  C299.799,140.159,285.34,126.897,266.949,129.653z" style="fill:#F0A479;"/><path data-cppathid="10003" d="M289.305,135.146c-5.827-4.509-13.65-6.798-22.356-5.493v52.125c0,0.565-0.03,1.123-0.043,1.686  c8.734,1.322,16.567-0.973,22.399-5.49V135.146z" style="fill:#E59770;"/><path data-cppathid="10004" d="M126.002,181.842v-52.237c-16.1-2.15-32.934,10.206-32.934,26.956  c0,16.389,14.451,29.775,32.975,26.972C126.03,182.968,126.002,182.406,126.002,181.842z" style="fill:#F0A479;"/><path data-cppathid="10005" d="M126.002,178.21c-6.64-5.032-10.749-12.914-10.749-21.649c0-8.514,4.355-15.889,10.749-20.804v-6.151  c-16.1-2.15-32.934,10.207-32.934,26.956c0,16.389,14.452,29.775,32.975,26.972c-0.014-0.564-0.041-1.125-0.041-1.69V178.21z" style="fill:#E59770;"/><path data-cppathid="10006" d="M197.441,247.986c-15.313,0-28.771-4.204-39.777-11.237v38.832l39.606,48.888l39.606-48.888V235.7  C225.658,243.44,212.073,247.986,197.441,247.986z" style="fill:#F0A479;"/><path data-cppathid="10007" d="M180.282,246.112c-8.352-1.877-15.938-5.094-22.617-9.362v38.832l22.617,27.918V246.112z" style="fill:#E59770;"/><path data-cppathid="10008" d="M341.655,312.832l-104.777-40.577l-39.606,48.888l-39.606-48.888L52.996,312.832  c0,0-38.753,15.932-38.753,60.11c0,39.974,0,86.015,0,118.309c0,7.131,5.782,12.914,12.914,12.914c5.434,0,334.819,0,340.338,0  c7.131,0,12.914-5.782,12.914-12.914c0-32.293,0-78.335,0-118.309C380.408,328.764,341.655,312.832,341.655,312.832z" style="fill:#E4EAF8;"/><path data-cppathid="10009" d="M177.346,504.164l-39.572-224.199l-84.777,32.866c0,0-38.753,15.932-38.753,60.11  c0,39.974,0,86.015,0,118.309c0,7.131,5.782,12.914,12.914,12.914C29.658,504.164,100.767,504.164,177.346,504.164z" style="fill:#D8DCE5;"/><path data-cppathid="10010" d="M243.114,92.189c-2.14-2.299-5.625-2.727-8.258-1.007c-28.199,18.421-65.494,30.066-102.141,27.434  c-3.717-0.282-6.923,2.684-6.923,6.438v56.626c0,36.394,28.517,69.634,71.65,69.634c38.397,0,69.635-31.238,69.635-69.634v-61.198  C267.076,117.1,267.221,118.102,243.114,92.189z" style="fill:#F0A479;"/><path data-cppathid="10011" d="M147.977,181.68v-62.783c-5.083,0.164-10.179,0.083-15.263-0.282  c-3.717-0.281-6.923,2.684-6.923,6.439v56.626c0,36.393,28.517,69.633,71.65,69.633c3.425,0,6.79-0.259,10.085-0.739  C173.893,245.673,147.977,216.65,147.977,181.68z" style="fill:#E59770;"/><g><path data-cppathid="10012" d="M245.093,346.263l29.617-59.357l-37.832-14.652l-39.606,48.888l38.614,27.425   C239.011,350.787,243.381,349.694,245.093,346.263z" style="fill:#C3C8D1;"/><path data-cppathid="10013" d="M149.504,346.263l-29.617-59.357l37.832-14.652l39.606,48.888l-38.615,27.425   C155.585,350.787,151.216,349.694,149.504,346.263z" style="fill:#C3C8D1;"/></g><path data-cppathid="10014" d="M158.234,504.164c25.627,0,52.501,0,78.129,0l-24.23-143.425h-14.81h-0.048h-14.81L158.234,504.164z" style="fill:#FF5050;"/><g><polygon data-cppathid="10015" points="197.322,321.176 197.322,321.142 197.298,321.159 197.274,321.142 197.274,321.176    169.188,341.124 182.464,361.104 197.274,361.104 197.322,361.104 212.132,361.104 225.408,341.124  " style="fill:#ED3A3A;"/><path data-cppathid="10016" d="M197.322,360.739h-0.048h-14.81l-24.23,143.425c7.312,0,14.728,0,22.185,0l24.23-143.425   L197.322,360.739L197.322,360.739z" style="fill:#ED3A3A;"/></g><path data-cppathid="10017" d="M208.392,329.038l-11.069-7.861v-0.034l-0.024,0.017l-0.024-0.017v0.034l-28.086,19.946  l13.276,19.981h14.81h0.048h7.327l-11.501-17.309c-0.989-1.489-0.617-3.495,0.84-4.53L208.392,329.038z" style="fill:#DB2A2A;"/><g><path data-cppathid="10018" d="M236.362,504.164c68.912,0,128.805,0,131.132,0c7.131,0,12.914-5.782,12.914-12.914   c0-32.293,0-78.335,0-118.309c0-44.178-38.753-60.11-38.753-60.11l-66.944-25.926l0,0L236.362,504.164z" style="fill:#707487;"/><path data-cppathid="10019" d="M119.877,286.903l-66.881,25.929c0,0-38.753,15.932-38.753,60.11c0,39.974,0,86.015,0,118.309   c0,7.131,5.782,12.914,12.914,12.914c2.291,0,62.167,0,131.077,0l-38.347-217.258L119.877,286.903z" style="fill:#707487;"/></g><path data-cppathid="10020" d="M36.352,491.251c0-32.293,0-90.536,0-130.511c0-25.626,13.035-41.733,23.986-50.754l-7.341,2.846  c0,0-38.753,15.932-38.753,60.11c0,39.974,0,86.015,0,118.309c0,7.131,5.782,12.914,12.914,12.914c0.815,0,8.916,0,22.108,0  C42.135,504.164,36.352,498.381,36.352,491.251z" style="fill:#5B5D6E;"/><path data-cppathid="10021" d="M409.565,7.691c-46.002,0.922-83.647,38.178-85.019,84.168c-0.894,29.963,13.399,56.635,35.75,72.906  c0.772,0.562,1.122,1.541,0.842,2.454c-3.302,10.802-8.107,21.905-15.105,31.304c-1.223,1.643,0.456,3.869,2.373,3.148  c8.906-3.349,24.96-10.408,39.549-22.148c0.791-0.636,1.826-0.866,2.812-0.626c7.452,1.812,15.279,2.666,23.346,2.414  c46.101-1.439,83.354-39.312,84.063-85.43C498.933,46.701,458.798,6.705,409.565,7.691z" style="fill:#FFC850;"/><path data-cppathid="10022" d="M381.637,167.221c0.279-0.913-0.07-1.892-0.842-2.454c-22.351-16.27-36.644-42.944-35.75-72.906  c1.287-43.134,34.482-78.584,76.552-83.581c-3.937-0.463-7.952-0.669-12.032-0.587c-46.002,0.922-83.647,38.178-85.019,84.168  c-0.894,29.963,13.399,56.635,35.75,72.906c0.772,0.562,1.122,1.541,0.842,2.454c-3.302,10.801-8.107,21.905-15.105,31.304  c-1.223,1.643,0.456,3.869,2.373,3.148c5.63-2.117,14.12-5.723,23.287-11.052C375.989,183.181,379.221,175.123,381.637,167.221z" style="fill:#F9B938;"/><path data-cppathid="10023" d="M375.011,93.821c-2.995,2.862-3.103,7.609-0.24,10.605l20.447,21.393c2.933,3.069,7.816,3.088,10.778,0.069l50.686-51.691  c2.899-2.958,2.854-7.706-0.104-10.607c-2.956-2.899-7.705-2.854-10.607,0.104l-45.261,46.16l-15.095-15.793  C382.752,91.066,378.003,90.958,375.011,93.821z"/><path data-cppathid="10024" d="M430.137,1.917c-4.056-0.83-8.021,1.785-8.853,5.844c-0.83,4.058,1.786,8.021,5.844,8.852  c36.703,7.51,63.343,40.2,63.343,77.729c0,51.647-49.016,90.027-99.573,76.735c-2.338-0.615-4.829-0.065-6.691,1.478  c-7.707,6.383-15.973,11.37-23.252,15.096c2.945-6.076,5.493-12.764,7.623-20.015c0.906-3.088-0.258-6.411-2.895-8.258  c-21.222-14.861-33.892-39.173-33.892-65.036c0-37.528,26.64-70.217,63.344-77.729c4.058-0.83,6.674-4.793,5.844-8.852  s-4.785-6.679-8.853-5.844C348.474,10.85,316.79,49.72,316.79,94.342c0,28.898,13.302,56.166,35.838,74.008  c-3.382,10.044-7.68,18.603-12.805,25.494c-2.563,3.444-2.553,8.059,0.026,11.485c2.572,3.415,6.99,4.693,10.99,3.188  c8.646-3.252,24.874-10.301,39.972-22.033c59.182,12.999,114.66-32.311,114.66-92.142C505.473,49.719,473.79,10.85,430.137,1.917z"/><path data-cppathid="10025" d="M344.503,305.71c-0.047-0.02-0.095-0.039-0.143-0.057l-100.054-38.748v-24.306c15.984-12.297,27.024-30.698,29.613-51.688  c19.155-1.008,33.35-16.391,33.35-34.635c0-8.459-3.091-16.53-8.589-22.778v-31.149C298.681,45.913,252.768,0,196.334,0  S93.988,45.913,93.988,102.347v31.958c-5.559,6.193-8.585,13.849-8.585,21.969c0,18.203,14.145,33.623,33.342,34.634  c2.032,16.639,9.366,32.085,21.191,44.231c3.121,3.205,6.51,6.086,10.105,8.667v23.1l-99.946,38.747  c-0.047,0.018-0.094,0.037-0.141,0.056c-14.925,6.135-43.427,27.44-43.427,67.085l0,0v118.782c0,11.261,9.162,20.422,20.422,20.422  c15.375,0,326.27,0,340.557,0c11.261,0,20.422-9.162,20.422-20.422v-47.023c0-4.142-3.357-7.5-7.5-7.5c-4.143,0-7.5,3.358-7.5,7.5  v47.023c0,2.989-2.432,5.42-5.421,5.42h-41.878V394.369c0-4.142-3.357-7.5-7.5-7.5c-4.143,0-7.5,3.358-7.5,7.5v102.629h-65.353  l35.192-200.003l7.211,2.793l51.163,19.815c0.007,0.003,0.022,0.01,0.03,0.013c1.68,0.725,34.054,15.26,34.054,53.179v36.757  c0,4.142,3.357,7.5,7.5,7.5c4.143,0,7.5-3.358,7.5-7.5v-36.757C387.929,324.123,346.277,306.439,344.503,305.71z M238.967,341.445  c-1.165-0.828-10.686-7.59-30.933-21.971l31.159-38.463l25.081,9.714L238.967,341.445z M208.024,353.449H186.38l-7.034-10.587  l17.856-12.682l17.855,12.681L208.024,353.449z M34.767,335.613c11.728-13.934,24.254-17.331,31.409-20.105l47.759-18.515  l35.19,200.005H83.831V394.369c0-4.142-3.357-7.5-7.5-7.5c-4.143,0-7.5,3.358-7.5,7.5v102.629h-41.88  c-2.989,0-5.421-2.432-5.421-5.42V372.796C21.529,358.463,26.129,345.847,34.767,335.613z M155.436,341.445l-25.308-50.72  l25.039-9.698l31.168,38.471C171.438,330.078,159.099,338.844,155.436,341.445z M136.071,336.233l6.594,13.215l0.001,0.001  c3.754,7.519,13.366,9.972,20.267,5.07l4.176-2.966l7.358,11.075l-16.549,97.774L136.071,336.233z M274.526,175.805v-39.056  c10.365,1.222,17.743,9.6,17.743,19.526C292.269,166.052,285.056,174.563,274.526,175.805z M108.989,102.347  c0-48.163,39.183-87.346,87.345-87.346c48.163,0,87.346,39.183,87.346,87.346v21.147c-2.922-0.99-5.992-1.594-9.155-1.812v-1.568  l0,0c0.002-5.614-0.803-6.471-14.233-20.79c-3.076-3.279-6.928-7.386-11.755-12.574c-4.647-4.993-12.162-5.897-17.855-2.177  c-27.921,18.24-63.117,28.56-96.93,26.289c-8.173-0.55-14.036,4.439-15.31,11.048c-2.868,0.284-6.538,1.116-9.453,2.204v-21.766  H108.989z M100.404,156.274c0-9.707,8.314-17.431,17.743-19.167v38.696C107.601,174.565,100.404,166.042,100.404,156.274z   M133.149,181.41c0-11.377,0-44.328,0-55.548c35.314,2.27,73.49-7.893,105.002-28.252c12.652,13.593,19.417,20.608,21.373,23.085  c0,6.669,0,53.261,0,60.715c0,33.83-27.548,62.179-62.18,62.179C158.476,243.589,133.149,213.328,133.149,181.41z M229.306,251.652  v17.733l-32.104,39.628l-32.158-39.695v-17.103C184.499,260.394,208.425,261.198,229.306,251.652z M166.938,496.999l21.758-128.549  h17.012l21.757,128.549H166.938z M236.484,460.402l-16.549-97.774l7.358-11.075l4.177,2.967c6.883,4.889,16.501,2.473,20.267-5.07  l0.001-0.001l6.593-13.215L236.484,460.402z"/><g/><g/><g/><g/><g/><g/><g/><g/><g/><g/><g/><g/><g/><g/><g/></svg>