<?xml version="1.0" encoding="UTF-8"?>
<svg xmlns="http://www.w3.org/2000/svg" onmouseup="{ if(window.parent.document.onmouseup) window.parent.document.onmouseup(arguments[0]);}" width="512" viewBox="0 0 512 512" height="512"><g id="FLAT"><rect data-cppathid="10000" y="232" x="272" width="216" rx="16" height="160" fill="#bebebe"/><rect data-cppathid="10001" y="24" x="272" width="216" rx="16" height="176" fill="#bebebe"/><rect data-cppathid="10002" y="232" x="24" width="216" rx="16" height="160" fill="#bebebe"/><path data-cppathid="10003" fill="#3192d3" d="m48 256h40v16h-40z"/><path data-cppathid="10004" fill="#3192d3" d="m112 256h64v16h-64z"/><path data-cppathid="10005" fill="#3192d3" d="m48 288h40v16h-40z"/><path data-cppathid="10006" fill="#3192d3" d="m112 288h64v16h-64z"/><path data-cppathid="10007" fill="#3192d3" d="m48 352h40v16h-40z"/><path data-cppathid="10008" fill="#3192d3" d="m112 352h24v16h-24z"/><path data-cppathid="10009" fill="#3192d3" d="m48 320h40v16h-40z"/><path data-cppathid="10010" fill="#3192d3" d="m112 320h64v16h-64z"/><rect data-cppathid="10011" y="24" x="24" width="216" rx="16" height="176" fill="#bebebe"/><path data-cppathid="10012" fill="#353535" d="m256 432h112a48 48 0 0 1 48 48v8h-320v-8a48 48 0 0 1 48-48z"/><path data-cppathid="10013" fill="#353535" d="m304 360-4.97014-19.88057a16 16 0 0 0 -15.52228-12.11943h-55.01516a16 16 0 0 0 -15.52228 12.11943l-4.97014 19.88057z"/><path data-cppathid="10014" fill="#edad2e" d="m256 168a56 56 0 0 0 -56 56v28a55.99938 55.99938 0 0 0 22.3999 44.7998l3.2002 2.4004a15.99947 15.99947 0 0 1 6.3999 12.7998v16h48v-16a15.99947 15.99947 0 0 1 6.3999-12.7998l3.2002-2.4004a55.99938 55.99938 0 0 0 22.3999-44.7998v-28a56 56 0 0 0 -56-56z"/><path data-cppathid="10015" fill="#ededed" d="m48 56h40v16h-40z"/><path data-cppathid="10016" fill="#ededed" d="m112 56h40v16h-40z"/><path data-cppathid="10017" fill="#ededed" d="m176 56h40v16h-40z"/><path data-cppathid="10018" fill="#ededed" d="m48 88h40v16h-40z"/><path data-cppathid="10019" fill="#ededed" d="m112 88h40v16h-40z"/><path data-cppathid="10020" fill="#ededed" d="m176 88h40v16h-40z"/><path data-cppathid="10021" fill="#ededed" d="m48 152h40v16h-40z"/><path data-cppathid="10022" fill="#ededed" d="m112 152h40v16h-40z"/><path data-cppathid="10023" fill="#ededed" d="m176 152h32v16h-32z"/><path data-cppathid="10024" fill="#ededed" d="m48 120h40v16h-40z"/><path data-cppathid="10025" fill="#ededed" d="m112 120h40v16h-40z"/><path data-cppathid="10026" fill="#ededed" d="m176 120h40v16h-40z"/><path data-cppathid="10027" fill="#6bad55" d="m301.657 149.657-11.314-11.314 45.657-45.656 24 24 40-40 24 24 34.343-34.344 11.314 11.314-45.657 45.656-24-24-40 40-24-24z"/><g fill="#ededed"><path data-cppathid="10028" d="m296 48h48v16h-48z"/><path data-cppathid="10029" d="m336 160h32v16h-32z"/><path data-cppathid="10030" d="m384 160h32v16h-32z"/><path data-cppathid="10031" d="m432 160h32v16h-32z"/><path data-cppathid="10032" d="m448 256h16v16h-16z"/><path data-cppathid="10033" d="m448 288h16v16h-16z"/><path data-cppathid="10034" d="m448 352h16v16h-16z"/><path data-cppathid="10035" d="m448 320h16v16h-16z"/><path data-cppathid="10036" d="m336 256h48v16h-48z"/><path data-cppathid="10037" d="m336 288h48v16h-48z"/><path data-cppathid="10038" d="m336 320h48v16h-48z"/><path data-cppathid="10039" d="m408 256h16v16h-16z"/><path data-cppathid="10040" d="m408 288h16v16h-16z"/><path data-cppathid="10041" d="m408 352h16v16h-16z"/><path data-cppathid="10042" d="m408 320h16v16h-16z"/></g><path data-cppathid="10043" fill="#575757" d="m373.8999 391.7334a32.00007 32.00007 0 0 0 -22.20141-19.8086l-47.69849-11.9248h-96l-47.69849 11.9248a32.00007 32.00007 0 0 0 -22.20141 19.8086l-18.1001 48.2666h272z"/><path data-cppathid="10044" fill="#f9c7b2" d="m232 312h48v16h-48z"/></g></svg>