<?xml version="1.0" encoding="UTF-8"?>
<svg xmlns="http://www.w3.org/2000/svg" onmouseup="{ if(window.parent.document.onmouseup) window.parent.document.onmouseup(arguments[0]);}" width="512" viewBox="0 0 64 64" height="512" enable-background="new 0 0 64 64" id="Layer_5"><g><g><g><path data-cppathid="10000" fill="#969faa" d="m40 48.45v3.55c0 2.21-1.79 4-4 4h-17.2c.51-1.29.86-2.63 1.04-4h3.16c.83 0 1.58-.34 2.12-.88s.88-1.29.88-2.12c0-.55-.45-1-1-1h-5.08l-.3-4h11.33.15c1.88 0 3.69.66 5.13 1.85l1.54 1.3c.67.56 1.42 1 2.23 1.3z"/></g><g><path data-cppathid="10001" fill="#969faa" d="m39 28.12c0 .56.22 1.1.62 1.5-.4-.4-.94-.62-1.5-.62-.58 0-1.12.24-1.5.62s-.62.92-.62 1.5v-21.08l.04-.01c.01.13.04.27.07.4l1.22 4.87c.33 1.33 1.38 2.32 2.67 2.61v8.41c-.14.09-.27.19-.38.3-.38.38-.62.92-.62 1.5z"/></g><g><path data-cppathid="10002" fill="#969faa" d="m36 10.04h-24v35.9.01c-.16.35-.32.69-.49 1.03-.31.62-.95 1.02-1.66 1.02-1.02 0-1.85-.83-1.85-1.85v-16.15-23.96c0-2.21 1.79-4 4-4h6v2c0 1.1.9 2 2 2h8c1.1 0 2-.9 2-2v-2h6.04c2.19 0 3.96 1.77 3.96 3.96h-.44c-1.97 0-3.56 1.59-3.56 3.56 0 .16.01.31.04.47z"/></g><g><path data-cppathid="10003" fill="#69d6f4" d="m12 10.04v35.9c.76-1.66 1.36-3.39 1.81-5.17l.75-2.99c.26-1.05 1.19-1.78 2.27-1.78.61 0 1.17.24 1.59.62.42.39.7.93.75 1.54l.45 5.84h16.38v-33.96z"/></g><g><path data-cppathid="10004" fill="#ef7385" d="m26 14h6v4h-6z"/></g><g><path data-cppathid="10005" fill="#ef7385" d="m32 22v4h-3.81-.1-2.09v-4z"/></g><g><path data-cppathid="10006" fill="#ef7385" d="m16 30h6v4h-6z"/></g><g><path data-cppathid="10007" fill="#ef7385" d="m16 22h6v4h-6z"/></g><g><path data-cppathid="10008" fill="#ef7385" d="m16 14h6v4h-6z"/></g><g><path data-cppathid="10009" fill="#e6e9ed" d="m62 9.56c0 .29-.04.58-.11.87l-1.22 4.87c-.39 1.59-1.82 2.7-3.45 2.7h-7.22l-3.6 2.7c-.26.19-.58.3-.9.3-.83 0-1.5-.67-1.5-1.5v-1.5h-3.22c-.27 0-.53-.03-.78-.09-1.29-.29-2.34-1.28-2.67-2.61l-1.22-4.87c-.03-.13-.06-.27-.07-.4-.03-.16-.04-.31-.04-.47 0-1.97 1.59-3.56 3.56-3.56h.44 18.44c.98 0 1.88.4 2.52 1.04s1.04 1.54 1.04 2.52z"/></g><g><path data-cppathid="10010" fill="#e6e9ed" d="m30 2.04v2c0 1.1-.9 2-2 2h-8c-1.1 0-2-.9-2-2v-2z"/></g><g><path data-cppathid="10011" fill="#e6e9ed" d="m34 49v1c0 1.1-.9 2-2 2s-2-.9-2-2v-1c0-.55.45-1 1-1h2c.55 0 1 .45 1 1z"/></g><g><path data-cppathid="10012" fill="#e6e9ed" d="m19.92 48h5.08c.55 0 1 .45 1 1 0 .83-.34 1.58-.88 2.12s-1.29.88-2.12.88h-3.16c.11-.77.16-1.55.16-2.33 0-.45-.02-.89-.05-1.33z"/></g><g><path data-cppathid="10013" transform="matrix(.707 -.707 .707 .707 -17.625 52.45)" fill="#fcd770" d="m48.136 43.257h12.728v8.485h-12.728z"/></g><g><path data-cppathid="10014" fill="#fcd770" d="m6 58h12v4h-12z"/></g><g><path data-cppathid="10015" fill="#f0d0b4" d="m44.62 28.62c-.4-.4-.62-.94-.62-1.5 0-.58.24-1.12.62-1.5s.92-.62 1.5-.62c.56 0 1.1.22 1.5.62l6.04 6.04c1.5 1.5 2.34 3.53 2.34 5.65v2.69l-9 9h-4.1c-1 0-1.98-.19-2.9-.55-.81-.3-1.56-.74-2.23-1.3l-1.54-1.3c-1.44-1.19-3.25-1.85-5.13-1.85h-.15c-.54 0-1.03-.22-1.38-.57s-.57-.84-.57-1.38c0-.66.33-1.27.87-1.63l.37-.25c1.15-.76 2.49-1.17 3.87-1.17 1.49 0 2.93.48 4.12 1.36l1.77 1.64-.96-.96c-.25-.25-.52-.48-.81-.68l-11.56-10.74c-.43-.4-.67-.95-.67-1.53 0-.57.24-1.1.61-1.48.38-.37.91-.61 1.48-.61h.1c.52 0 1.02.2 1.41.55l6.4 5.87 5 4.58-4.38-4.38c-.4-.4-.62-.94-.62-1.5 0-.58.24-1.12.62-1.5s.92-.62 1.5-.62c.56 0 1.1.22 1.5.62-.4-.4-.62-.94-.62-1.5 0-.58.24-1.12.62-1.5.11-.11.24-.21.38-.3.33-.2.71-.32 1.12-.32.56 0 1.1.22 1.5.62z"/></g><g><path data-cppathid="10016" fill="#f0d0b4" d="m19.95 48.34c.03.44.05.88.05 1.33 0 .78-.05 1.56-.16 2.33-.18 1.37-.53 2.71-1.04 4-.01.03-.03.07-.04.1l-.76 1.9h-12l-1.3-3.26c-.47-1.16-.8-2.36-1.01-3.59l-1.55-9.33c-.09-.55-.14-1.1-.14-1.65 0-2.67 1.06-5.23 2.95-7.12l3.05-3.05v16.15c0 1.02.83 1.85 1.85 1.85.71 0 1.35-.4 1.66-1.02.17-.34.33-.68.49-1.03v-.01c.76-1.66 1.36-3.39 1.81-5.17l.75-2.99c.26-1.05 1.19-1.78 2.27-1.78.61 0 1.17.24 1.59.62.42.39.7.93.75 1.54l.45 5.84.3 4z"/></g></g><g><path data-cppathid="10017" d="m33 47h-2c-1.103 0-2 .897-2 2v1c0 1.654 1.346 3 3 3s3-1.346 3-3v-1c0-1.103-.897-2-2-2zm0 3c0 .551-.448 1-1 1s-1-.449-1-1v-1h2z"/><path data-cppathid="10018" d="m41 9h16v2h-16z"/><path data-cppathid="10019" d="m55 13h2v2h-2z"/><path data-cppathid="10020" d="m41 13h12v2h-12z"/><path data-cppathid="10021" d="m63.414 46-6.414-6.414v-2.272c0-2.404-.936-4.664-2.636-6.364l-6.036-6.036c-.581-.581-1.385-.914-2.207-.914-1.273 0-2.368.769-2.853 1.865-.576-.547-1.35-.865-2.147-.865-.041 0-.08.011-.121.012v-6.012h2v.5c0 1.378 1.121 2.5 2.5 2.5.537 0 1.069-.177 1.5-.5l3.333-2.5h6.886c2.098 0 3.917-1.421 4.426-3.455l1.22-4.878c.089-.362.135-.734.135-1.105 0-2.516-2.046-4.562-4.562-4.562h-17.54c-.464-2.258-2.466-3.96-4.859-3.96h-24.039c-2.757 0-5 2.243-5 5v23.546l-2.761 2.76c-2.089 2.089-3.239 4.866-3.239 7.821 0 .606.051 1.218.15 1.818l1.556 9.332c.215 1.293.571 2.569 1.061 3.792l1.233 3.084v4.807h14v-4.807l.477-1.193h16.523c2.757 0 5-2.243 5-5v-2.211c.621.134 1.255.211 1.896.211h3.689l6.415 6.414zm-25.403-17.989c-.356.013-.695.083-1.011.206v-11.231c.493.732 1.191 1.294 2 1.638v7.221c-.586.546-.958 1.311-.989 2.166zm-11.011-3.011v-2h4v2zm-2-4v6h.208c-.129.34-.208.704-.208 1.089 0 .856.36 1.682.987 2.264l8.241 7.653c-.039-.001-.077-.006-.117-.006-1.579 0-3.108.463-4.423 1.339l-.373.248c-.823.549-1.315 1.468-1.315 2.459 0 .336.068.653.172.954h-7.631l-.378-4.913c-.133-1.731-1.597-3.087-3.333-3.087-1.537 0-2.871 1.042-3.243 2.533l-.587 2.345v-28.838h22v19.104l-3.43-3.144h1.43v-6zm-4.025 28h4.025c0 1.103-.897 2-2 2h-2.063c.032-.443.063-.887.063-1.335 0-.222-.017-.443-.025-.665zm40.025-39.438c0 .208-.025.417-.076.621l-1.219 4.877c-.286 1.142-1.309 1.94-2.486 1.94h-7.552l-3.865 2.899c-.309.233-.802-.016-.802-.399v-2.5h-4.219c-1.178 0-2.2-.798-2.486-1.94l-1.218-4.876c-.052-.205-.077-.414-.077-.622 0-1.413 1.149-2.562 2.562-2.562h18.877c1.412 0 2.561 1.149 2.561 2.562zm-42-6.522h10v1c0 .551-.448 1-1 1h-8c-.552 0-1-.449-1-1zm-10 3c0-1.654 1.346-3 3-3h5v1c0 1.654 1.346 3 3 3h8c1.654 0 3-1.346 3-3v-1h5.04c1.306 0 2.405.857 2.797 2.034-1.999.323-3.549 1.94-3.784 3.966h-24.053v36.669c-.126.273-.247.55-.382.819-.145.291-.438.472-.764.472-.47 0-.854-.383-.854-.854zm-5.877 35.617c-.082-.491-.123-.992-.123-1.49 0-2.42.942-4.696 2.653-6.407l1.347-1.346v13.732c0 1.574 1.28 2.854 2.854 2.854 1.087 0 2.065-.604 2.553-1.578 1.02-2.041 1.817-4.196 2.369-6.407l.75-2.998c.151-.599.687-1.017 1.304-1.017.697 0 1.285.545 1.339 1.24l.783 10.174c.032.416.048.834.048 1.251 0 2.086-.393 4.125-1.167 6.06l-.51 1.275h-10.646l-1.053-2.633c-.436-1.09-.754-2.227-.945-3.378zm13.877 19.343h-10v-2h10zm22-9c0 1.654-1.346 3-3 3h-15.801c.201-.659.366-1.325.491-2h2.31c2.206 0 4-1.794 4-4 0-1.103-.897-2-2-2h-4.151l-.154-2h10.259.149c1.634 0 3.226.576 4.481 1.622l1.551 1.292c.572.477 1.2.874 1.864 1.193v2.893zm-.585-5.622-1.551-1.292c-1.613-1.345-3.66-2.086-5.76-2.086h-.149c-.527 0-.955-.428-.955-.954 0-.32.158-.617.425-.794l.373-.249c.984-.656 2.131-1.003 3.313-1.003 1.259 0 2.456.392 3.461 1.11l1.747 1.623.681-.733.707-.707-.957-.958c-.277-.276-.575-.522-.883-.752l-11.519-10.696c-.221-.206-.348-.496-.348-.798 0-.601.488-1.089 1.188-1.089.273 0 .534.102.735.287l11.401 10.451.676-.738.707-.707-4.379-4.379c-.212-.212-.328-.493-.328-.793 0-.618.503-1.121 1.121-1.121.295 0 .584.12.793.328l4.379 4.379 1.414-1.414-4.379-4.379c-.212-.212-.328-.493-.328-.793 0-.618.503-1.121 1.121-1.121.295 0 .584.12.793.328l2 2 2.379 2.379 1.414-1.414-2.379-2.379c-.212-.212-.328-.493-.328-.793 0-.618.503-1.121 1.121-1.121.295 0 .584.12.793.328l6.036 6.036c1.321 1.322 2.05 3.08 2.05 4.95v2.272l-8.414 8.414h-3.689c-1.634 0-3.226-.576-4.482-1.622zm17.585-4.964 4.586 4.586-7.586 7.586-4.586-4.586z"/><path data-cppathid="10022" d="m15 19h8v-6h-8zm2-4h4v2h-4z"/><path data-cppathid="10023" d="m33 13h-8v6h8zm-2 4h-4v-2h4z"/><path data-cppathid="10024" d="m15 27h8v-6h-8zm2-4h4v2h-4z"/><path data-cppathid="10025" d="m23 29h-8v6h1.83 6.17zm-2 4h-4v-2h4z"/></g></g></svg>