<?xml version="1.0" encoding="UTF-8"?>
<svg xmlns="http://www.w3.org/2000/svg" onmouseup="{ if(window.parent.document.onmouseup) window.parent.document.onmouseup(arguments[0]);}" width="512" viewBox="0 0 64 64" height="512" enable-background="new 0 0 64 64" id="Layer_5"><g><g><g><path data-cppathid="10000" fill="#aab2bd" d="m62 32v26c0 2.21-1.79 4-4 4h-52c-2.21 0-4-1.79-4-4v-26c0-2.21 1.79-4 4-4h23 6 23c2.21 0 4 1.79 4 4z"/></g><g><path data-cppathid="10001" fill="#e6e9ed" d="m10 41v8c0 .55-.45 1-1 1h-2c-.55 0-1-.45-1-1v-8c0-.55.45-1 1-1h2c.55 0 1 .45 1 1z"/></g><g><path data-cppathid="10002" fill="#69d6f4" d="m15 32h38c.55 0 1 .45 1 1v24c0 .55-.45 1-1 1h-38c-.55 0-1-.45-1-1v-24c0-.55.45-1 1-1z"/></g><g><path data-cppathid="10003" fill="#aab2bd" d="m34.59 51.59c.26.26.41.62.41 1 0 .78-.63 1.41-1.41 1.41h-3.18c-.78 0-1.41-.63-1.41-1.41v-6.59h1.53c.83 0 1.66.05 2.47.17v3.24c0 .38.15.74.41 1z"/></g><g><path data-cppathid="10004" fill="#e6e9ed" d="m33 46.17c-.81-.12-1.64-.17-2.47-.17h-1.53c-1.1 0-2.1-.45-2.83-1.17-.72-.73-1.17-1.73-1.17-2.83 0-2.21 1.79-4 4-4h1.53c2.94 0 5.84-.68 8.47-2v12c-1.89-.95-3.92-1.57-6-1.83z"/></g><g><path data-cppathid="10005" fill="#fcd770" d="m39 36h4v12h-4z"/></g><g><circle data-cppathid="10006" r="10" fill="#fcd770" cy="12" cx="52"/></g><g><path data-cppathid="10007" fill="#b4dd7f" d="m22 18v2h-8-8v-2c0-4.42 3.58-8 8-8 2.21 0 4.21.9 5.66 2.34 1.44 1.45 2.34 3.45 2.34 5.66z"/></g><g><circle data-cppathid="10008" r="4" fill="#f0d0b4" cy="6" cx="14"/></g></g><g><path data-cppathid="10009" d="m58 27h-22v-13c0-.551.449-1 1-1h4.051c.507 5.598 5.221 10 10.949 10 6.065 0 11-4.935 11-11s-4.935-11-11-11c-5.728 0-10.442 4.402-10.949 10h-4.051c-1.654 0-3 1.346-3 3v13h-4v-1c0-1.654-1.346-3-3-3h-11c-.551 0-1-.449-1-1v-1h8v-3c0-3.768-2.33-6.998-5.623-8.337.991-.914 1.623-2.212 1.623-3.663 0-2.757-2.243-5-5-5s-5 2.243-5 5c0 1.451.632 2.749 1.623 3.663-3.293 1.339-5.623 4.569-5.623 8.337v3h8v1c0 1.654 1.346 3 3 3h11c.551 0 1 .449 1 1v1h-22c-2.757 0-5 2.243-5 5v26c0 2.757 2.243 5 5 5h52c2.757 0 5-2.243 5-5v-26c0-2.757-2.243-5-5-5zm-6-24c4.962 0 9 4.038 9 9s-4.038 9-9 9-9-4.038-9-9 4.038-9 9-9zm-41 3c0-1.654 1.346-3 3-3s3 1.346 3 3-1.346 3-3 3-3-1.346-3-3zm-4 12c0-3.86 3.14-7 7-7s7 3.14 7 7v1h-14zm54 40c0 1.654-1.346 3-3 3h-52c-1.654 0-3-1.346-3-3v-26c0-1.654 1.346-3 3-3h52c1.654 0 3 1.346 3 3z"/><path data-cppathid="10010" d="m9 39h-2c-1.103 0-2 .897-2 2v8c0 1.103.897 2 2 2h2c1.103 0 2-.897 2-2v-8c0-1.103-.897-2-2-2zm-2 10v-8h2l.001 8z"/><path data-cppathid="10011" d="m57 39h2v2h-2z"/><path data-cppathid="10012" d="m57 43h2v8h-2z"/><path data-cppathid="10013" d="m53 31h-38c-1.103 0-2 .897-2 2v24c0 1.103.897 2 2 2h38c1.103 0 2-.897 2-2v-24c0-1.103-.897-2-2-2zm-38 26v-24h38l.001 24z"/><path data-cppathid="10014" d="m38.553 35.105c-2.478 1.24-5.253 1.895-8.025 1.895h-1.528c-2.757 0-5 2.243-5 5 0 2.414 1.721 4.434 4 4.899v5.687c0 1.331 1.083 2.414 2.414 2.414h3.172c1.331 0 2.414-1.083 2.414-2.414 0-.645-.251-1.251-.707-1.707l-1.172-1.172c-.077-.077-.121-.184-.121-.293v-2.065c1.578.312 3.116.827 4.553 1.546l.211.105h5.236v-14h-5.236zm-12.553 6.895c0-1.654 1.346-3 3-3h1.528c2.552 0 5.105-.504 7.472-1.459v8.918c-2.367-.955-4.92-1.459-7.472-1.459h-1.528c-1.654 0-3-1.346-3-3zm6.707 9.121 1.172 1.172c.077.077.121.184.121.293 0 .228-.186.414-.414.414h-3.172c-.228 0-.414-.186-.414-.414v-5.586h.528c.491 0 .982.028 1.472.069v2.345c0 .645.251 1.251.707 1.707zm9.293-4.121h-2v-10h2z"/><path data-cppathid="10015" d="m51 15c-.551 0-1-.449-1-1h-2c0 1.654 1.346 3 3 3v2h2v-2h3v-3c0-1.654-1.346-3-3-3h-2c-.551 0-1-.449-1-1v-1h3c.551 0 1 .449 1 1h2c0-1.654-1.346-3-3-3v-2h-2v2h-3v3c0 1.654 1.346 3 3 3h2c.551 0 1 .449 1 1v1z"/><path data-cppathid="10016" d="m17 39h2v2h-2z"/><path data-cppathid="10017" d="m17 35h2v2h-2z"/><path data-cppathid="10018" d="m17 43h2v2h-2z"/><path data-cppathid="10019" d="m49 45h2v2h-2z"/><path data-cppathid="10020" d="m49 49h2v2h-2z"/><path data-cppathid="10021" d="m49 53h2v2h-2z"/></g></g></svg>