<?xml version="1.0" encoding="UTF-8"?>
<svg xmlns="http://www.w3.org/2000/svg" onmouseup="{ if(window.parent.document.onmouseup) window.parent.document.onmouseup(arguments[0]);}" width="512" viewBox="0 0 60 60" height="512" id="Icons"><rect data-cppathid="10000" y="1" x="13" width="34" rx="4" height="58" fill="#b9dbf4"/><path data-cppathid="10001" fill="#373644" d="m21 1h18a0 0 0 0 1 0 0v3a2 2 0 0 1 -2 2h-14a2 2 0 0 1 -2-2v-3a0 0 0 0 1 0 0z"/><path data-cppathid="10002" fill="#373644" d="m43 60h-26a5.006 5.006 0 0 1 -5-5v-50a5.006 5.006 0 0 1 5-5h26a5.006 5.006 0 0 1 5 5v50a5.006 5.006 0 0 1 -5 5zm-26-58a3 3 0 0 0 -3 3v50a3 3 0 0 0 3 3h26a3 3 0 0 0 3-3v-50a3 3 0 0 0 -3-3z"/><rect data-cppathid="10003" y="12" x="1" width="58" rx="4" height="38" fill="#2783ec"/><rect data-cppathid="10004" y="17" x="5" width="10" rx="1" height="8" fill="#fccb55"/><path data-cppathid="10005" fill="#d1a23b" d="m15 20h-5v-3h-2v3h-3v2h5v3h2v-3h3z"/><path data-cppathid="10006" fill="#282733" d="m34 4h-4a1 1 0 0 1 0-2h4a1 1 0 0 1 0 2z"/><path data-cppathid="10007" fill="#282733" d="m26 4a1 1 0 0 1 0-2 1 1 0 0 1 0 2z"/><path data-cppathid="10008" fill="#fff" d="m17 7a1 1 0 0 1 -1-1v-1a1 1 0 0 1 2 0v1a1 1 0 0 1 -1 1z"/><path data-cppathid="10009" fill="#fff" d="m43 7a1 1 0 0 1 -1-1v-1a1 1 0 0 1 2 0v1a1 1 0 0 1 -1 1z"/><path data-cppathid="10010" fill="#8eadc1" d="m36 56h-12a1 1 0 0 1 0-2h12a1 1 0 0 1 0 2z"/><g fill="#0f66b5"><path data-cppathid="10011" d="m33 44h-2a1 1 0 0 1 0-2h2a1 1 0 0 1 0 2z"/><path data-cppathid="10012" d="m27 44h-2a1 1 0 0 1 0-2h2a1 1 0 0 1 0 2z"/><path data-cppathid="10013" d="m21 44h-16a1 1 0 0 1 0-2h16a1 1 0 0 1 0 2z"/><path data-cppathid="10014" d="m54 18h-16a1 1 0 0 1 0-2h16a1 1 0 0 1 0 2z"/><path data-cppathid="10015" d="m5 39a1 1 0 0 1 -1-1v-2a1 1 0 0 1 2 0v2a1 1 0 0 1 -1 1z"/><path data-cppathid="10016" d="m9 39a1 1 0 0 1 -1-1v-2a1 1 0 0 1 2 0v2a1 1 0 0 1 -1 1z"/><path data-cppathid="10017" d="m13 39a1 1 0 0 1 -1-1v-2a1 1 0 0 1 2 0v2a1 1 0 0 1 -1 1z"/><path data-cppathid="10018" d="m17 39a1 1 0 0 1 -1-1v-2a1 1 0 0 1 2 0v2a1 1 0 0 1 -1 1z"/><path data-cppathid="10019" d="m25 39a1 1 0 0 1 -1-1v-2a1 1 0 0 1 2 0v2a1 1 0 0 1 -1 1z"/><path data-cppathid="10020" d="m29 39a1 1 0 0 1 -1-1v-2a1 1 0 0 1 2 0v2a1 1 0 0 1 -1 1z"/><path data-cppathid="10021" d="m33 39a1 1 0 0 1 -1-1v-2a1 1 0 0 1 2 0v2a1 1 0 0 1 -1 1z"/><path data-cppathid="10022" d="m41 39a1 1 0 0 1 -1-1v-2a1 1 0 0 1 2 0v2a1 1 0 0 1 -1 1z"/><path data-cppathid="10023" d="m45 39a1 1 0 0 1 -1-1v-2a1 1 0 0 1 2 0v2a1 1 0 0 1 -1 1z"/><path data-cppathid="10024" d="m49 39a1 1 0 0 1 -1-1v-2a1 1 0 0 1 2 0v2a1 1 0 0 1 -1 1z"/></g></svg>