<?xml version="1.0" encoding="UTF-8"?>
<svg xmlns="http://www.w3.org/2000/svg" onmouseup="{ if(window.parent.document.onmouseup) window.parent.document.onmouseup(arguments[0]);}" width="512" viewBox="0 0 512 512" height="512" enable-background="new 0 0 512 512" id="Capa_1"><g><g><path data-cppathid="10000" fill="#faf7f5" d="m205.347 116.279h-103.496c-16.612 0-30.078 13.509-30.078 30.172v50.987h368.453v-50.987c0-16.663-13.466-30.172-30.078-30.172h-103.495"/><path data-cppathid="10001" fill="#c193dc" d="m471.613 482.82h-431.226c-16.782 0-30.387-13.604-30.387-30.387v-224.607c0-16.783 13.605-30.387 30.387-30.387h431.225c16.782 0 30.387 13.605 30.387 30.387v224.607c.001 16.783-13.604 30.387-30.386 30.387z"/><path data-cppathid="10002" fill="#a0e5a5" d="m207.347 29.18h97.307v127.679h-97.307z"/><g><g><ellipse data-cppathid="10003" ry="45.405" rx="45.264" fill="#ffd0c7" cy="308.073" cx="121.976"/><g><path data-cppathid="10004" fill="#ccf5fc" d="m185.022 423.532h-126.092v-57.182c0-7.109 5.763-12.872 12.872-12.872h100.349c7.109 0 12.872 5.763 12.872 12.872v57.182z"/></g></g></g><g><g><path data-cppathid="10005" fill="#faf7f5" d="m307.141 423.532h-55.518v-61.582h201.447v61.582h-55.517"/></g></g></g><g><path data-cppathid="10006" d="m352.53 433.53c-4.121 0-7.889-2.62-9.347-6.468s-.346-8.334 2.753-11.048c3.189-2.792 7.921-3.249 11.591-1.138 3.672 2.113 5.63 6.451 4.803 10.603-.92 4.622-5.085 8.051-9.8 8.051z"/><path data-cppathid="10007" d="m453.07 433.531h-55.517c-5.523 0-10-4.478-10-10 0-5.523 4.477-10 10-10h45.517v-41.581h-181.447v41.581h45.518c5.523 0 10 4.477 10 10 0 5.522-4.477 10-10 10h-55.518c-5.523 0-10-4.478-10-10v-61.581c0-5.522 4.477-10 10-10h201.447c5.523 0 10 4.478 10 10v61.581c0 5.523-4.477 10-10 10z"/><g><path data-cppathid="10008" d="m420.149 330.276h-168.526c-5.523 0-10-4.478-10-10s4.477-10 10-10h168.526c5.523 0 10 4.478 10 10 0 5.523-4.477 10-10 10z"/></g><g><path data-cppathid="10009" d="m379.553 289.681h-127.93c-5.523 0-10-4.478-10-10s4.477-10 10-10h127.93c5.523 0 10 4.478 10 10s-4.477 10-10 10z"/></g><path data-cppathid="10010" d="m172.151 343.478h-7.697c7.981-9.607 12.786-21.954 12.786-35.405 0-30.551-24.791-55.405-55.264-55.405s-55.264 24.854-55.264 55.405c0 13.451 4.806 25.798 12.787 35.405h-7.697c-12.611 0-22.872 10.26-22.872 22.871v57.182c0 5.522 4.477 10 10 10h126.092c5.523 0 10-4.478 10-10v-57.181c.001-12.612-10.26-22.872-22.871-22.872zm-85.439-35.405c0-19.522 15.819-35.405 35.264-35.405 19.444 0 35.264 15.883 35.264 35.405s-15.819 35.405-35.264 35.405c-19.444 0-35.264-15.882-35.264-35.405zm88.311 105.458h-106.093v-47.181c0-1.583 1.288-2.871 2.872-2.871h100.349c1.584 0 2.872 1.288 2.872 2.871z"/><path data-cppathid="10011" d="m471.613 187.439h-21.386v-40.987c0-22.15-17.979-40.172-40.078-40.172h-95.495v-77.1c0-5.523-4.477-10-10-10h-97.307c-5.523 0-10 4.477-10 10v77.1h-95.495c-22.099 0-40.078 18.021-40.078 40.172v40.987h-21.387c-22.269 0-40.387 18.118-40.387 40.387v224.607c0 22.27 18.118 40.387 40.387 40.387h431.226c22.27 0 40.387-18.117 40.387-40.387v-224.607c0-22.269-18.118-40.387-40.387-40.387zm-254.266-148.259h77.307v107.679h-77.307zm-135.574 107.271c0-11.123 9.007-20.172 20.078-20.172h95.495v20.579h-38.106c-5.523 0-10 4.478-10 10 0 5.523 4.477 10 10 10h193.52c5.523 0 10-4.477 10-10 0-5.522-4.477-10-10-10h-38.106v-20.579h95.495c11.071 0 20.078 9.049 20.078 20.172v40.987h-348.454zm410.227 305.983c0 11.241-9.146 20.387-20.387 20.387h-431.226c-11.241-.001-20.387-9.146-20.387-20.387v-224.608c0-11.242 9.146-20.388 20.387-20.388h431.226c11.242 0 20.387 9.145 20.387 20.388z"/></g></g></svg>