<?xml version="1.0" encoding="UTF-8"?>
<svg xmlns="http://www.w3.org/2000/svg" onmouseup="{ if(window.parent.document.onmouseup) window.parent.document.onmouseup(arguments[0]);}" width="36" viewBox="0 0 36 36" id="S_CoverImage_18_N_2x" height="36" data-name="S_CoverImage_18_N@2x"><defs><style>
      .fill {
        fill: #707070;
      }

      
    </style></defs><circle data-cppathid="10000" r="2.5" cy="12.6" cx="23.8" class="fill"/><path data-cppathid="10001" d="M34.875,4H1.125A1.068,1.068,0,0,0,0,5V27a1.068,1.068,0,0,0,1.125,1h2.4a13.248,13.248,0,0,1,3.24-1.088,11.565,11.565,0,0,1-2.131-6.469c0-.046.01-.086.01-.131C3.152,22.2,2,24,2,24V6H34V22a15.164,15.164,0,0,0-6.182-2c-2.463,0-4.647,2.785-7.019,3.7a11.691,11.691,0,0,1-1.55,3.242A13.647,13.647,0,0,1,22.383,28H34.875A1.068,1.068,0,0,0,36,27V5A1.068,1.068,0,0,0,34.875,4Z" class="fill"/><path data-cppathid="10002" d="M24,34.038a3.12,3.12,0,0,0-1.048-2.353,10.109,10.109,0,0,0-5.738-2.234,1.144,1.144,0,0,1-.99-1.148V26.645a1.114,1.114,0,0,1,.276-.721,8.747,8.747,0,0,0,2.007-5.481C18.507,16.31,16.315,14,13,14s-5.567,2.4-5.567,6.443a8.853,8.853,0,0,0,2.1,5.485,1.106,1.106,0,0,1,.273.717V28.3a1.138,1.138,0,0,1-.993,1.148,9.693,9.693,0,0,0-5.809,2.232A3.125,3.125,0,0,0,2,34v2H24Z" class="fill"/></svg>