<?xml version="1.0" encoding="UTF-8"?>
<svg xmlns="http://www.w3.org/2000/svg" onmouseup="{ if(window.parent.document.onmouseup) window.parent.document.onmouseup(arguments[0]);}" width="36" viewBox="0 0 36 36" id="S_Duplicate_18_N_2x" height="36" data-name="S_Duplicate_18_N@2x"><defs><style>
      .fill {
        fill: #6e6e6e;
      }

      
    </style></defs><path data-cppathid="10000" d="M9,8H26V3a1,1,0,0,0-1-1H3A1,1,0,0,0,2,3V25a1,1,0,0,0,1,1H8V9A1,1,0,0,1,9,8Z" class="fill"/><path data-cppathid="10001" d="M33,10H11a1,1,0,0,0-1,1V33a1,1,0,0,0,1,1H33a1,1,0,0,0,1-1V11A1,1,0,0,0,33,10ZM29,23.5H23.5V29h-3V23.5H15v-3h5.5V15h3v5.5H29Z" class="fill"/></svg>