<?xml version="1.0" encoding="UTF-8"?>
<svg xmlns="http://www.w3.org/2000/svg" onmouseup="{ if(window.parent.document.onmouseup) window.parent.document.onmouseup(arguments[0]);}" xml:space="preserve" style="enable-background:new 0 0 96 96;" viewBox="0 0 96 96" y="0px" x="0px" id="Layer_1" version="1.1" xmlns:xlink="http://www.w3.org/1999/xlink"><style type="text/css">
	.st0{fill:#333333;}
</style><g id="XMLID_1_"><path data-cppathid="10000" d="M79.1,33.6L49.5,15.9c-0.9-0.6-2.1-0.6-3,0L16.9,33.6c-1.1,0.7-1.7,2-1.3,3.3   c0.4,1.3,1.5,2.2,2.8,2.2v41.4h5.9V39.1h47.3v41.4h5.9V39.1c1.3,0,2.5-0.9,2.8-2.2C80.7,35.7,80.2,34.3,79.1,33.6z" class="st0" id="XMLID_3_"/><polygon data-cppathid="10001" points="39.1,42.1 39.1,59.8 56.9,59.8 56.9,42.1 51,42.1 51,48 45,48 45,42.1  " class="st0" id="XMLID_4_"/><polygon data-cppathid="10002" points="39.1,68.7 33.2,68.7 33.2,62.8 27.3,62.8 27.3,80.5 45,80.5 45,62.8 39.1,62.8  " class="st0" id="XMLID_5_"/><polygon data-cppathid="10003" points="62.8,68.7 56.9,68.7 56.9,62.8 51,62.8 51,80.5 68.7,80.5 68.7,62.8 62.8,62.8  " class="st0" id="XMLID_6_"/></g></svg>