<?xml version="1.0" encoding="UTF-8"?>
<svg xmlns="http://www.w3.org/2000/svg" onmouseup="{ if(window.parent.document.onmouseup) window.parent.document.onmouseup(arguments[0]);}" width="512" viewBox="0 0 64 64" height="512" enable-background="new 0 0 64 64" id="Layer_5"><g><g><g><path data-cppathid="10000" fill="#969faa" d="m46 58v2c0 1.1-.9 2-2 2h-30c-1.1 0-2-.9-2-2v-2c0-1.1.9-2 2-2h3 24 3c1.1 0 2 .9 2 2z"/></g><g><path data-cppathid="10001" fill="#aab2bd" d="m41 56h-24c1.87-1.25 3-3.35 3-5.61v-.39h18v.39c0 2.26 1.13 4.36 3 5.61z"/></g><g><path data-cppathid="10002" fill="#ccd1d9" d="m30 15v1h-23c-.55 0-1 .45-1 1v24c0 .55.45 1 1 1h44c.55 0 1-.45 1-1v-10.36c.28-.13.56-.27.83-.42l2.36 1.21.81-.8v15.37c0 2.21-1.79 4-4 4h-14-18-14c-2.21 0-4-1.79-4-4v-30c0-2.21 1.79-4 4-4h27.36c-.33.7-.61 1.43-.82 2.19z"/></g><g><path data-cppathid="10003" fill="#69d6f4" d="m6 41v-24c0-.55.45-1 1-1h23v5l2.54.81c.3 1.06.72 2.07 1.24 3.02l-1.22 2.36 4.25 4.24 2.36-1.21c.95.52 1.96.94 3.02 1.24l.81 2.54h6l.81-2.54c.76-.21 1.49-.49 2.19-.82v10.36c0 .55-.45 1-1 1h-44c-.55 0-1-.45-1-1z"/></g><g><path data-cppathid="10004" fill="#d3a06c" d="m24 38h-12c-1.105 0-2-.895-2-2v-10c0-1.105.895-2 2-2h12c1.105 0 2 .895 2 2v10c0 1.105-.895 2-2 2z"/></g><g><path data-cppathid="10005" fill="#b27946" d="m16 24h4v4h-4z"/></g><g><path data-cppathid="10006" fill="#fcd770" d="m46 8c5.52 0 10 4.48 10 10s-4.48 10-10 10-10-4.48-10-10 4.48-10 10-10zm4 10c0-2.21-1.79-4-4-4s-4 1.79-4 4 1.79 4 4 4 4-1.79 4-4z"/></g><g><path data-cppathid="10007" fill="#ffc729" d="m62 15v6l-2.54.81c-.3 1.06-.72 2.07-1.24 3.02l1.22 2.36-3.44 3.44-.81.8-2.36-1.21c-.27.15-.55.29-.83.42-.7.33-1.43.61-2.19.82l-.81 2.54h-6l-.81-2.54c-1.06-.3-2.07-.72-3.02-1.24l-2.36 1.21-4.25-4.24 1.22-2.36c-.52-.95-.94-1.96-1.24-3.02l-2.54-.81v-5-1l2.54-.81c.21-.76.49-1.49.82-2.19.13-.28.27-.56.42-.83l-1.22-2.36 4.25-4.25 2.36 1.22c.95-.52 1.96-.94 3.02-1.24l.81-2.54h6l.81 2.54c1.06.3 2.07.72 3.02 1.24l2.36-1.22 4.25 4.25-1.22 2.36c.52.95.94 1.96 1.24 3.02zm-6 3c0-5.52-4.48-10-10-10s-10 4.48-10 10 4.48 10 10 10 10-4.48 10-10z"/></g></g><g><path data-cppathid="10008" d="m49 45h2v2h-2z"/><path data-cppathid="10009" d="m45 45h2v2h-2z"/><path data-cppathid="10010" d="m41 45h2v2h-2z"/><path data-cppathid="10011" d="m46 7c-6.065 0-11 4.935-11 11s4.935 11 11 11 11-4.935 11-11-4.935-11-11-11zm0 20c-4.962 0-9-4.038-9-9s4.038-9 9-9 9 4.038 9 9-4.038 9-9 9z"/><path data-cppathid="10012" d="m63 21.729v-7.459l-2.734-.876c-.248-.772-.556-1.519-.919-2.229l1.312-2.549-5.274-5.274-2.549 1.312c-.71-.363-1.457-.671-2.229-.919l-.878-2.735h-7.459l-.876 2.734c-.772.248-1.519.556-2.229.919l-2.549-1.312-5.274 5.274 1.226 2.385h-26.568c-2.757 0-5 2.243-5 5v30c0 2.757 2.243 5 5 5h12.963c-.168 1.595-.997 3.041-2.296 4h-2.667c-1.654 0-3 1.346-3 3v2c0 1.654 1.346 3 3 3h30c1.654 0 3-1.346 3-3v-2c0-1.654-1.346-3-3-3h-2.666c-1.299-.959-2.128-2.405-2.296-4h12.962c2.757 0 5-2.243 5-5v-14.958l3.658-3.658-1.312-2.548c.363-.709.67-1.456.919-2.229zm-18 36.271v2c0 .552-.449 1-1 1h-30c-.551 0-1-.448-1-1v-2c0-.552.449-1 1-1h30c.551 0 1 .448 1 1zm-6.471-3h-19.058c.858-1.155 1.378-2.536 1.492-4h16.075c.114 1.464.634 2.845 1.491 4zm13.471-6h-46c-1.654 0-3-1.346-3-3v-30c0-1.654 1.346-3 3-3h25.879c-.047.132-.101.26-.144.394l-2.735.877v.729h-22c-1.103 0-2 .897-2 2v24c0 1.103.897 2 2 2h44c1.103 0 2-.897 2-2v-9.568l2 1.029v13.539c0 1.654-1.346 3-3 3zm-15.384-16.342 2.549-1.312c.71.363 1.457.671 2.229.919l.877 2.735h7.459l.876-2.734c.134-.043.262-.098.394-.144v8.878h-44v-24h22v4.729l2.734.876c.249.773.556 1.52.919 2.229l-1.312 2.548zm22.028-11.633-.146.517c-.279.988-.667 1.928-1.153 2.795l-.263.469 1.13 2.195-3.211 3.211-2.195-1.129-.468.262c-.869.486-1.81.875-2.796 1.153l-.517.146-.754 2.356h-4.541l-.755-2.356-.517-.146c-.986-.279-1.927-.667-2.796-1.153l-.468-.262-2.195 1.129-3.211-3.211 1.13-2.195-.263-.469c-.486-.867-.874-1.808-1.153-2.795l-.146-.517-2.356-.754v-4.541l2.356-.755.146-.517c.279-.986.667-1.927 1.153-2.796l.262-.468-1.129-2.195 3.211-3.211 2.195 1.129.468-.262c.869-.486 1.81-.875 2.796-1.153l.517-.146.754-2.356h4.541l.755 2.356.517.146c.986.279 1.927.667 2.796 1.153l.468.262 2.195-1.129 3.211 3.211-1.129 2.195.262.468c.486.869.875 1.81 1.153 2.796l.146.517 2.356.754v4.541z"/><path data-cppathid="10013" d="m46 13c-2.757 0-5 2.243-5 5s2.243 5 5 5 5-2.243 5-5-2.243-5-5-5zm0 8c-1.654 0-3-1.346-3-3s1.346-3 3-3 3 1.346 3 3-1.346 3-3 3z"/><path data-cppathid="10014" d="m24 23h-12c-1.654 0-3 1.346-3 3v10c0 1.654 1.346 3 3 3h12c1.654 0 3-1.346 3-3v-10c0-1.654-1.346-3-3-3zm-7 2h2v2h-2zm8 11c0 .552-.449 1-1 1h-12c-.551 0-1-.448-1-1v-10c0-.551.449-1 1-1h3v4h6v-4h3c.551 0 1 .449 1 1z"/><path data-cppathid="10015" d="m9 19h2v2h-2z"/><path data-cppathid="10016" d="m13 19h14v2h-14z"/><path data-cppathid="10017" d="m39 37h2v2h-2z"/><path data-cppathid="10018" d="m43 37h2v2h-2z"/><path data-cppathid="10019" d="m47 37h2v2h-2z"/></g></g></svg>