<?xml version="1.0" encoding="UTF-8"?>
<svg xmlns="http://www.w3.org/2000/svg" onmouseup="{ if(window.parent.document.onmouseup) window.parent.document.onmouseup(arguments[0]);}" width="512" viewBox="0 0 64 64" height="512" enable-background="new 0 0 64 64" id="Layer_35"><path data-cppathid="10000" fill="#e6e9ed" d="m50 2h-34c2.21 0 4 1.79 4 4v40h34v-40c0-2.21-1.79-4-4-4z"/><path data-cppathid="10001" fill="#ffeaa7" d="m44 18h-6-6-8v8.1c.91.2 1.75.65 2.41 1.31l5.59 5.59 4.59 4.59c.9.9 1.41 2.13 1.41 3.41v1h6 6v-24z"/><path data-cppathid="10002" fill="#fcd770" d="m50 14v4h-6-6-6v-4z"/><path data-cppathid="10003" fill="#b4dd7f" d="m24 14h8v4h-8z"/><path data-cppathid="10004" fill="#ff826e" d="m42 6h8v4h-8z"/><path data-cppathid="10005" fill="#ffeaa7" d="m20 6v16h-8v-16c0-1.1.45-2.1 1.17-2.83.73-.72 1.73-1.17 2.83-1.17 2.21 0 4 1.79 4 4z"/><path data-cppathid="10006" fill="#fcd770" d="m62 46v4c0 2.21-1.79 4-4 4h-31l8-8h19z"/><path data-cppathid="10007" fill="#4fc1e9" d="m24 26.1c.91.2 1.75.65 2.41 1.31l5.59 5.59 4.59 4.59c.9.9 1.41 2.13 1.41 3.41s-.51 2.51-1.41 3.41l-1.59 1.59-8 8-6.59 6.59c-.9.9-2.13 1.41-3.41 1.41s-2.51-.51-3.41-1.41l-10.18-10.18c-.9-.9-1.41-2.13-1.41-3.41s.51-2.51 1.41-3.41l16.18-16.18c.13-.13.27-.25.41-.36.85-.68 1.91-1.05 3-1.05.34 0 .67.04 1 .1z"/><path data-cppathid="10008" fill="#ffc729" d="m18 47-6 6-3-3 3-3-3-3 3-3z"/><path data-cppathid="10009" transform="matrix(.707 -.707 .707 .707 -30.598 20.13)" fill="#fcd770" d="m6.879 44.879h4.243v4.243h-4.243z"/><path data-cppathid="10010" fill="#b4dd7f" d="m23 30-3 3-3 3 3 3 3-3 3-3z"/><path data-cppathid="10011" d="m55 45v-39c0-2.757-2.243-5-5-5h-34c-2.757 0-5 2.243-5 5v17h8v3.597c-.04.038-.082.071-.121.11l-16.172 16.172c-1.085 1.085-1.707 2.587-1.707 4.121s.622 3.036 1.707 4.121l10.172 10.172c1.1 1.101 2.564 1.707 4.121 1.707s3.021-.606 4.121-1.707l6.293-6.293h30.586c2.757 0 5-2.243 5-5v-5zm-42-24v-15c0-1.654 1.346-3 3-3s3 1.346 3 3v15zm6.974-18h30.026c1.654 0 3 1.346 3 3v39h-15.598c.545-.577.962-1.26 1.233-2h12.365v-30h-28v12c-.694 0-1.367.127-2 .358v-19.358c0-1.13-.391-2.162-1.026-3zm19.026 16h4v22h-4zm6 0h4v22h-4zm4-2h-16v-2h16zm-18 0h-6v-2h6zm-6 2h6v11.586l-3.879-3.879c-.61-.61-1.334-1.062-2.121-1.349zm8 0h4v17.586l-4-4zm-13.293 40.879c-1.446 1.445-3.968 1.445-5.414 0l-10.172-10.172c-.712-.713-1.121-1.699-1.121-2.707s.409-1.994 1.121-2.707l16.172-16.172c.723-.723 1.685-1.121 2.707-1.121s1.984.398 2.707 1.121l10.172 10.172c.712.713 1.121 1.699 1.121 2.707s-.409 1.994-1.121 2.707zm41.293-9.879c0 1.654-1.346 3-3 3h-28.586l6-6h25.586z"/><path data-cppathid="10012" d="m4.586 47 7.414 7.414 7.414-7.414-7.414-7.414zm4.414-1.586 1.586 1.586-1.586 1.586-1.586-1.586zm3 6.172-1.586-1.586 3-3-3-3 1.586-1.586 4.586 4.586z"/><path data-cppathid="10013" d="m23 28.586-7.414 7.414 4.414 4.414 7.414-7.414zm1.586 4.414-1.586 1.586-1.586-1.586 1.586-1.586zm-6.172 3 1.586-1.586 1.586 1.586-1.586 1.586z"/><path data-cppathid="10014" transform="matrix(.707 -.707 .707 .707 -19.74 35.757)" d="m32.293 40.707h2v2h-2z"/><path data-cppathid="10015" transform="matrix(.707 -.707 .707 .707 -22.568 34.586)" d="m29.464 43.535h2v2h-2z"/><path data-cppathid="10016" transform="matrix(.707 -.707 .707 .707 -25.362 33.429)" d="m26.722 46.329h1.899v2h-1.899z"/><path data-cppathid="10017" transform="matrix(.707 -.707 .707 .707 -22.29 31.186)" d="m20.136 41.5h12.728v2h-12.728z"/><path data-cppathid="10018" d="m51 5h-10v6h10zm-2 4h-6v-2h6z"/><path data-cppathid="10019" d="m23 5h2v2h-2z"/><path data-cppathid="10020" d="m27 5h2v2h-2z"/><path data-cppathid="10021" d="m31 5h2v2h-2z"/><path data-cppathid="10022" d="m57 49h2v2h-2z"/><path data-cppathid="10023" d="m53 49h2v2h-2z"/><path data-cppathid="10024" d="m49 49h2v2h-2z"/></svg>