<?xml version="1.0" encoding="UTF-8"?>
<svg xmlns="http://www.w3.org/2000/svg" onmouseup="{ if(window.parent.document.onmouseup) window.parent.document.onmouseup(arguments[0]);}" width="512" viewBox="0 0 64 64" height="512"><g data-name="Fill Outline" id="Fill_Outline"><g id="Color"><path data-cppathid="10000" fill="#656b76" d="m48 23a10 10 0 0 1 10 10v8a4 4 0 0 1 -4 4h-12a4 4 0 0 1 -4-4v-8a10 10 0 0 1 10-10z"/><path data-cppathid="10001" fill="#464a51" d="m56 35v-2.879a3.124 3.124 0 0 0 -3.136-3.121h-.076a6.729 6.729 0 0 1 -4.76-1.972l-1.154-1.153a2.98 2.98 0 0 1 -.874-2.121v-.046a3.119 3.119 0 0 1 .047-.514 10 10 0 0 0 -8.047 9.806v8a4 4 0 0 0 4 4h12a4 4 0 0 0 4-4v-2.023a4.974 4.974 0 0 1 -2-3.977z"/><path data-cppathid="10002" fill="#00b4d8" d="m43 43h10a4 4 0 0 1 4 4v10a0 0 0 0 1 0 0h-18a0 0 0 0 1 0 0v-10a4 4 0 0 1 4-4z"/><path data-cppathid="10003" fill="#0096c7" d="m52 52a8 8 0 0 1 -8-8v-.349a5.912 5.912 0 0 0 5.291-.651h-6.291a4 4 0 0 0 -4 4v10h18v-5z"/><path data-cppathid="10004" fill="#ffd000" d="m45 40h6a0 0 0 0 1 0 0v3a3 3 0 0 1 -3 3 3 3 0 0 1 -3-3v-3a0 0 0 0 1 0 0z"/><path data-cppathid="10005" fill="#ffea00" d="m39 51v2h-4a2 2 0 0 0 0 4h8v-6z"/><path data-cppathid="10006" fill="#ffea00" d="m53 51v2h-4a2 2 0 0 0 0 4h8v-6z"/><path data-cppathid="10007" fill="#ffb700" d="m50 45a2.988 2.988 0 0 1 -2.4-1.221 6 6 0 0 0 3.4-2.479v-1.3h-6v3a2.989 2.989 0 0 0 5.242 1.976c-.082.006-.159.024-.242.024z"/><path data-cppathid="10008" fill="#0096c7" d="m53 49a0 0 0 0 1 0 0v4a0 0 0 0 1 0 0h-1a0 0 0 0 1 0 0v-3a1 1 0 0 1 1-1z"/><path data-cppathid="10009" fill="#ffd000" d="m55 53v-2h-2v2a2 2 0 0 1 -2 2h-4a2 2 0 0 0 2 2h8v-2a2 2 0 0 1 -2-2z"/><path data-cppathid="10010" fill="#ffd000" d="m43 51h-4v2a2 2 0 0 1 -2 2h-4a2 2 0 0 0 2 2h8z"/><path data-cppathid="10011" fill="#ffea00" d="m48 42a6 6 0 0 1 -6-6v-5a4.162 4.162 0 0 0 3.949-2.846l.051-.154a10.242 10.242 0 0 0 7.243 3h.757v5a6 6 0 0 1 -6 6z"/><path data-cppathid="10012" fill="#ffd000" d="m53.243 31a10.242 10.242 0 0 1 -7.243-3l-.051.154a4.162 4.162 0 0 1 -3.949 2.846v5a6 6 0 0 0 11.117 3.121 5.993 5.993 0 0 1 -9.117-5.121v-1.521a4.157 4.157 0 0 0 1.949-2.325l.051-.154a10.242 10.242 0 0 0 7.243 3h.757v-2z"/><path data-cppathid="10013" fill="#e9f1f2" d="m3 57h58v4h-58z"/><path data-cppathid="10014" fill="#d0d8da" d="m8 57h-5v4h58v-2h-51a2 2 0 0 1 -2-2z"/><rect data-cppathid="10015" y="29" x="5" width="28" rx="3" height="20" fill="#d0d8da"/><path data-cppathid="10016" fill="#e9f1f2" d="m31 53a2 2 0 0 1 2 2v2a0 0 0 0 1 0 0h-4a0 0 0 0 1 0 0v-2a2 2 0 0 1 2-2z"/><path data-cppathid="10017" fill="#93999a" d="m33 45v1a3 3 0 0 1 -3 3h-22a3 3 0 0 1 -3-3v-14a3 3 0 0 1 3-3h1v6a9.989 9.989 0 0 0 4.11 8.08 4 4 0 0 1 3.89-3.08h2a2.006 2.006 0 0 1 2 2v3z"/><path data-cppathid="10018" fill="#e9f1f2" d="m19 40a4 4 0 0 1 4 4v11a0 0 0 0 1 0 0h-8a0 0 0 0 1 0 0v-11a4 4 0 0 1 4-4z"/><path data-cppathid="10019" fill="#d0d8da" d="m23 50.91v4.09h-8v-11a3.992 3.992 0 0 1 3-3.87v4.87a5.99 5.99 0 0 0 5 5.91z"/><path data-cppathid="10020" fill="#e9f1f2" d="m11 53h16a2 2 0 0 1 2 2v2a0 0 0 0 1 0 0h-20a0 0 0 0 1 0 0v-2a2 2 0 0 1 2-2z"/><path data-cppathid="10021" fill="#d0d8da" d="m29 55v2h-20v-2a2.006 2.006 0 0 1 2-2h.18a2.968 2.968 0 0 0 2.82 2z"/><path data-cppathid="10022" fill="#e9f1f2" d="m33 32v10a2.006 2.006 0 0 1 -2-2v-7a2.006 2.006 0 0 0 -2-2h-11a2.015 2.015 0 0 1 -2-2h14a3 3 0 0 1 3 3z"/><path data-cppathid="10023" fill="#ffea00" d="m41 13a6.832 6.832 0 0 0 -.09-1.11l2.25-1.29-3-5.2-2.24 1.3a7.814 7.814 0 0 0 -1.92-1.11v-2.59h-6v2.59a7.814 7.814 0 0 0 -1.92 1.11l-2.24-1.3-3 5.2 2.25 1.29a6.89 6.89 0 0 0 0 2.22l-2.25 1.29 3 5.2 2.24-1.3a7.814 7.814 0 0 0 1.92 1.11v2.59h6v-2.59a7.814 7.814 0 0 0 1.92-1.11l2.24 1.3 3-5.2-2.25-1.29a6.832 6.832 0 0 0 .09-1.11zm-8 3a3 3 0 1 1 3-3 3 3 0 0 1 -3 3z"/><path data-cppathid="10024" fill="#ffd000" d="m37 18a13 13 0 0 1 -12.65-10.01l-1.51 2.61 2.25 1.29a6.89 6.89 0 0 0 0 2.22l-2.25 1.29 3 5.2 2.24-1.3a7.814 7.814 0 0 0 1.92 1.11v2.59h6v-2.59a7.814 7.814 0 0 0 1.92-1.11l2.24 1.3 2.15-3.73a13.059 13.059 0 0 1 -5.31 1.13z"/><path data-cppathid="10025" fill="#ffb700" d="m33 8a5 5 0 1 0 5 5 5 5 0 0 0 -5-5zm0 8a3 3 0 1 1 3-3 3 3 0 0 1 -3 3z"/><path data-cppathid="10026" fill="#ffb700" d="m28.27 14.63a5.01 5.01 0 0 0 4.73 3.37 4.914 4.914 0 0 0 1.54-.24 12.865 12.865 0 0 1 -6.27-3.13z"/><path data-cppathid="10027" fill="#ffa200" d="m28.27 14.63a5.01 5.01 0 0 0 4.73 3.37 4.914 4.914 0 0 0 1.54-.24 12.865 12.865 0 0 1 -6.27-3.13z"/><path data-cppathid="10028" fill="#ffea00" d="m20 17a6.065 6.065 0 0 0 -.1-1.094l2.032-1.174-2-3.464-2.032 1.174a5.965 5.965 0 0 0 -1.9-1.093v-2.349h-4v2.349a5.965 5.965 0 0 0 -1.895 1.093l-2.033-1.174-2 3.464 2.028 1.174a5.806 5.806 0 0 0 0 2.188l-2.028 1.174 2 3.464 2.033-1.174a5.965 5.965 0 0 0 1.895 1.093v2.349h4v-2.349a5.965 5.965 0 0 0 1.9-1.093l2.033 1.174 2-3.464-2.033-1.174a6.065 6.065 0 0 0 .1-1.094zm-6 2a2 2 0 1 1 2-2 2 2 0 0 1 -2 2z"/><path data-cppathid="10029" fill="#ffd000" d="m21.85 19.22a9.7 9.7 0 0 1 -3.85.78 9.839 9.839 0 0 1 -4.46-1.06 1.911 1.911 0 0 1 -.95-.53.01.01 0 0 1 -.01-.01 9.927 9.927 0 0 1 -4.49-7.12l-.02-.01-2 3.46 2.03 1.18a5.991 5.991 0 0 0 0 2.18l-2.03 1.18 2 3.46 2.03-1.17a6.188 6.188 0 0 0 1.9 1.09v2.35h4v-2.35a6.188 6.188 0 0 0 1.9-1.09l2.03 1.17 2-3.46z"/><path data-cppathid="10030" fill="#ffb700" d="m14 13a4 4 0 1 0 4 4 4 4 0 0 0 -4-4zm0 6a2 2 0 1 1 2-2 2.006 2.006 0 0 1 -2 2z"/><path data-cppathid="10031" fill="#ffa200" d="m13.54 18.94a1.911 1.911 0 0 1 -.95-.53l-.01-.01a9.972 9.972 0 0 1 -2.48-2.28 3.654 3.654 0 0 0 -.1.88 4 4 0 0 0 6.73 2.92 9.564 9.564 0 0 1 -3.19-.98z"/><path data-cppathid="10032" fill="#ade8f4" d="m47 8.5v6a2 2 0 0 0 2 2v4l6-4h4a2 2 0 0 0 2-2v-6a2 2 0 0 0 -2-2h-10a2 2 0 0 0 -2 2z"/><path data-cppathid="10033" fill="#48cae4" d="m61 13v1.5a2.006 2.006 0 0 1 -2 2h-4l-6 4v-4a2.006 2.006 0 0 1 -2-2v-6a2.006 2.006 0 0 1 2-2h1v2.5a4 4 0 0 0 4 4z"/></g><g data-name="Outline copy" fill="#323232" id="Outline_copy"><circle data-cppathid="10034" r="1" cy="34" cx="46"/><circle data-cppathid="10035" r="1" cy="34" cx="50"/><path data-cppathid="10036" d="m61 56h-3.184a2.966 2.966 0 0 0 .184-1v-8a4.942 4.942 0 0 0 -.614-2.351 4.92 4.92 0 0 0 1.614-3.649v-8a11 11 0 0 0 -22 0v3a1 1 0 0 0 2 0v-3a9 9 0 0 1 18 0v8a2.94 2.94 0 0 1 -.9 2.112 4.95 4.95 0 0 0 -3.1-1.112h-1v-.264a6.993 6.993 0 0 0 3-5.736v-1a1 1 0 0 0 -2 0v1a5 5 0 0 1 -10 0v-4.1a5.152 5.152 0 0 0 3.341-2.269 11.157 11.157 0 0 0 6.901 2.369h.758a1 1 0 0 0 0-2h-.758a9.18 9.18 0 0 1 -6.535-2.707 1 1 0 0 0 -1.655.389l-.052.156a3.16 3.16 0 0 1 -3 2.162 1 1 0 0 0 -1 1v5a6.993 6.993 0 0 0 3 5.736v.264h-1a4.95 4.95 0 0 0 -3.1 1.112 2.94 2.94 0 0 1 -.9-2.112v-1a1 1 0 0 0 -2 0v1a4.92 4.92 0 0 0 1.614 3.649 4.942 4.942 0 0 0 -.614 2.351v5h-3a2.981 2.981 0 0 0 -2 .78 2.954 2.954 0 0 0 -4 0 2.981 2.981 0 0 0 -2-.78h-3v-2h6a4 4 0 0 0 4-4v-14a4 4 0 0 0 -4-4h-22a4 4 0 0 0 -4 4v14a4 4 0 0 0 4 4h3a1 1 0 0 0 0-2h-3a2 2 0 0 1 -2-2v-14a2 2 0 0 1 2-2h22a2 2 0 0 1 2 2v14a2 2 0 0 1 -2 2h-6v-4a5 5 0 0 0 -10 0v8h-3a3 3 0 0 0 -3 3v1h-5a1 1 0 0 0 0 2h58a1 1 0 0 0 0-2zm-9.586-12h.109l-.994 2.484-.96-.639zm-1.575-1.253-1.839 1.839-1.839-1.839a6.81 6.81 0 0 0 3.678 0zm-5.253 1.253 1.845 1.845-.96.639-.994-2.484zm-2.233.075 1.718 4.3a1 1 0 0 0 1.484.461l2.445-1.636 2.445 1.63a1 1 0 0 0 1.484-.461l1.718-4.3a3 3 0 0 1 2.353 2.931v3h-2v-1a1 1 0 0 0 -2 0v3h-2.893a3.084 3.084 0 0 0 -3.067 2.5 3.023 3.023 0 0 0 .148 1.5h-2.188v-7a1 1 0 0 0 -2 0v1h-2v-3a3 3 0 0 1 2.353-2.925zm-26.353-.075a3 3 0 0 1 6 0v8h-6zm-6 11a1 1 0 0 1 1-1h16a1 1 0 0 1 1 1v1h-18zm20 1v-1a1 1 0 0 1 2 0v1zm5 0a1 1 0 0 1 0-2h4a1 1 0 0 0 1-1v-1h2v4zm14 0a1 1 0 0 1 -.985-1.175 1.083 1.083 0 0 1 1.092-.825h3.893a1 1 0 0 0 1-1v-1h2v3a1 1 0 0 1 -1 1z"/><path data-cppathid="10037" d="m61 60h-58a1 1 0 0 0 0 2h58a1 1 0 0 0 0-2z"/><path data-cppathid="10038" d="m24 36a1 1 0 0 0 0-2h-10a1 1 0 0 0 0 2z"/><path data-cppathid="10039" d="m21.974 15.9 3 5.2a1 1 0 0 0 1.366.366l1.684-.972a8.966 8.966 0 0 0 .976.566v1.94a1 1 0 0 0 1 1h6a1 1 0 0 0 1-1v-1.942a9.076 9.076 0 0 0 .977-.566l1.683.972a1 1 0 0 0 1.366-.366l3-5.2a1 1 0 0 0 -.366-1.366l-1.681-.971c.014-.2.021-.382.021-.565s-.007-.369-.021-.565l1.681-.971a1 1 0 0 0 .366-1.366l-3-5.2a1 1 0 0 0 -1.732 1l2.5 4.329-1.379.8a1 1 0 0 0 -.49 1 7.156 7.156 0 0 1 .075.977 7.156 7.156 0 0 1 -.075.97 1 1 0 0 0 .49 1l1.379.8-2 3.462-1.378-.794a1 1 0 0 0 -1.115.078 7.024 7.024 0 0 1 -1.677.971 1 1 0 0 0 -.624.927v1.586h-4v-1.587a1 1 0 0 0 -.624-.927 7.044 7.044 0 0 1 -1.677-.971 1 1 0 0 0 -1.115-.078l-1.378.794-2-3.462 1.379-.8a1 1 0 0 0 .491-1 6.228 6.228 0 0 1 0-1.94 1 1 0 0 0 -.491-1l-1.379-.8 2-3.462 1.378.794a1 1 0 0 0 1.116-.076 7.044 7.044 0 0 1 1.677-.971 1 1 0 0 0 .623-.927v-1.587h4v1.587a1 1 0 1 0 2 0v-2.587a1 1 0 0 0 -1-1h-6a1 1 0 0 0 -1 1v1.942a8.966 8.966 0 0 0 -.976.566l-1.684-.972a1 1 0 0 0 -1.366.366l-3 5.2a1 1 0 0 0 .366 1.366l1.681.971c-.014.2-.021.382-.021.565s.007.369.021.565l-1.681.971a1 1 0 0 0 -.366 1.36z"/><path data-cppathid="10040" d="m33 9a4 4 0 1 0 4 4 4 4 0 0 0 -4-4zm0 6a2 2 0 1 1 2-2 2 2 0 0 1 -2 2z"/><path data-cppathid="10041" d="m11 17a3 3 0 1 0 3-3 3 3 0 0 0 -3 3zm4 0a1 1 0 1 1 -1-1 1 1 0 0 1 1 1z"/><path data-cppathid="10042" d="m5.106 19.009a1 1 0 0 0 .1.759l2 3.464a1 1 0 0 0 .607.466 1.021 1.021 0 0 0 .759-.1l1.454-.84a6.962 6.962 0 0 0 .974.56v1.682a1 1 0 0 0 1 1h4a1 1 0 0 0 1-1v-1.681a6.962 6.962 0 0 0 .974-.56l1.454.84a1.007 1.007 0 0 0 .759.1 1 1 0 0 0 .607-.466l2-3.464a1 1 0 0 0 -.366-1.367l-1.452-.838c.016-.189.024-.376.024-.563a7.005 7.005 0 0 0 -.121-1.275 1 1 0 1 0 -1.967.361 4.791 4.791 0 0 1 0 1.828 1 1 0 0 0 .484 1.047l1.166.673-1 1.732-1.162-.675a1 1 0 0 0 -1.15.107 5 5 0 0 1 -1.579.91 1 1 0 0 0 -.667.942v1.349h-2.004v-1.349a1 1 0 0 0 -.667-.942 5 5 0 0 1 -1.579-.91 1 1 0 0 0 -1.15-.107l-1.166.674-1-1.732 1.162-.673a1 1 0 0 0 .484-1.047 4.791 4.791 0 0 1 0-1.828 1 1 0 0 0 -.484-1.047l-1.166-.673 1-1.732 1.166.674a.994.994 0 0 0 1.15-.107 5 5 0 0 1 1.579-.91 1 1 0 0 0 .671-.942v-1.349h2v1.349a1 1 0 0 0 .667.942 5 5 0 0 1 1.579.91 1 1 0 0 0 1.15.107l2.032-1.174a1 1 0 0 0 -1-1.733l-1.454.84a6.962 6.962 0 0 0 -.974-.56v-1.681a1 1 0 0 0 -1-1h-4a1 1 0 0 0 -1 1v1.681a6.962 6.962 0 0 0 -.974.56l-1.454-.841a1.02 1.02 0 0 0 -.759-.1 1 1 0 0 0 -.607.466l-2 3.464a1 1 0 0 0 .366 1.37l1.452.838c-.016.188-.024.375-.024.562s.008.374.024.563l-1.452.837a1 1 0 0 0 -.466.609z"/><path data-cppathid="10043" d="m59 5.5h-2a1 1 0 0 0 0 2h2a1 1 0 0 1 1 1v6a1 1 0 0 1 -1 1h-4a1.006 1.006 0 0 0 -.555.168l-4.445 2.964v-2.132a1 1 0 0 0 -1-1 1 1 0 0 1 -1-1v-6a1 1 0 0 1 1-1h4a1 1 0 0 0 0-2h-4a3 3 0 0 0 -3 3v6a3.006 3.006 0 0 0 2 2.829v3.171a1 1 0 0 0 1.555.832l5.745-3.832h3.7a3 3 0 0 0 3-3v-6a3 3 0 0 0 -3-3z"/></g></g></svg>