<?xml version="1.0" encoding="UTF-8"?>
<svg xmlns="http://www.w3.org/2000/svg" onmouseup="{ if(window.parent.document.onmouseup) window.parent.document.onmouseup(arguments[0]);}" height="512" width="512" viewBox="0 0 60 60" id="icons"><rect data-cppathid="10000" fill="#a3bdce" height="7" width="6" y="22" x="10"/><rect data-cppathid="10001" fill="#a3bdce" height="7" width="6" y="22" x="44"/><polygon data-cppathid="10002" fill="#8486d0" points="32.11 33.39 38 54 38 55 22 55 22 54 27.89 33.39 30 32 32.11 33.39"/><path data-cppathid="10003" fill="#c4ddf0" d="M33.46,32H57a2.015,2.015,0,0,0,2-2,2.006,2.006,0,0,0-2-2H3a1.955,1.955,0,0,0-1.41.59A1.955,1.955,0,0,0,1,30a2.006,2.006,0,0,0,2,2H33.46Z"/><path data-cppathid="10004" fill="#926153" d="M25,10V21a2.006,2.006,0,0,1-2,2H3a2.006,2.006,0,0,1-2-2V10Z"/><path data-cppathid="10005" fill="#926153" d="M59,10V21a2.006,2.006,0,0,1-2,2H37a2.006,2.006,0,0,1-2-2V10Z"/><circle data-cppathid="10006" fill="#9e9ceb" r="4" cy="30" cx="30"/><path data-cppathid="10007" fill="#c4ddf0" d="M18,54H42a3,3,0,0,1,3,3v1a1,1,0,0,1-1,1H16a1,1,0,0,1-1-1V57A3,3,0,0,1,18,54Z"/><rect data-cppathid="10008" fill="#a97866" rx="2" height="7" width="24" y="5" x="1"/><path data-cppathid="10009" fill="#fde36e" d="M11,12h4a0,0,0,0,1,0,0v2a2,2,0,0,1-2,2h0a2,2,0,0,1-2-2V12A0,0,0,0,1,11,12Z"/><rect data-cppathid="10010" fill="#a97866" rx="2" height="7" width="24" y="5" x="35"/><path data-cppathid="10011" fill="#fde36e" d="M45,12h4a0,0,0,0,1,0,0v2a2,2,0,0,1-2,2h0a2,2,0,0,1-2-2V12A0,0,0,0,1,45,12Z"/><path data-cppathid="10012" fill="#373737" d="M57,4H52V3a3,3,0,0,0-3-3H45a3,3,0,0,0-3,3V4H37a3,3,0,0,0-3,3V21a3,3,0,0,0,3,3h6v3H33.974a4.948,4.948,0,0,0-7.948,0H17V24h6a3,3,0,0,0,3-3V7a3,3,0,0,0-3-3H18V3a3,3,0,0,0-3-3H11A3,3,0,0,0,8,3V4H3A3,3,0,0,0,0,7V21a3,3,0,0,0,3,3H9v3H3a2.92,2.92,0,0,0-2.107.873A2.937,2.937,0,0,0,0,30a3,3,0,0,0,3,3H26.026a4.841,4.841,0,0,0,5.435,1.757L36.674,53H23.326L27.82,37.274a1,1,0,1,0-1.924-.548L21.245,53H18a4,4,0,0,0-4,4v1a2,2,0,0,0,2,2H44a2,2,0,0,0,2-2V57a4,4,0,0,0-4-4H38.755l-5.5-19.238A4.927,4.927,0,0,0,33.974,33H57a3.015,3.015,0,0,0,3-3,3,3,0,0,0-3-3H51V24h6a3,3,0,0,0,3-3V7A3,3,0,0,0,57,4ZM44,57l0,1H16V57a2,2,0,0,1,2-2H42A2,2,0,0,1,44,57ZM44,3a1,1,0,0,1,1-1h4a1,1,0,0,1,1,1V4H44ZM36,7a1,1,0,0,1,1-1H57a1,1,0,0,1,1,1v3a1,1,0,0,1-1,1H37a1,1,0,0,1-1-1Zm10,6h2v1a1,1,0,0,1-2,0ZM10,3a1,1,0,0,1,1-1h4a1,1,0,0,1,1,1V4H10ZM2,7A1,1,0,0,1,3,6H23a1,1,0,0,1,1,1v3a1,1,0,0,1-1,1H3a1,1,0,0,1-1-1Zm10,6h2v1a1,1,0,0,1-2,0ZM2,21V12.816A2.966,2.966,0,0,0,3,13h7v1a3,3,0,0,0,6,0V13h7a2.966,2.966,0,0,0,1-.184V21a1,1,0,0,1-1,1H3A1,1,0,0,1,2,21Zm9,3h4v3H11ZM3,31a1,1,0,0,1-1-1,.977.977,0,0,1,.307-.713A.959.959,0,0,1,3,29H25.1a5,5,0,0,0,0,2Zm24-1a3,3,0,1,1,3,3A3,3,0,0,1,27,30Zm31,0a.977.977,0,0,1-.307.713A.959.959,0,0,1,57,31H34.9a5,5,0,0,0,0-2H57A1,1,0,0,1,58,30Zm-9-3H45V24h4Zm8-5H37a1,1,0,0,1-1-1V12.816A2.966,2.966,0,0,0,37,13h7v1a3,3,0,0,0,6,0V13h7a2.966,2.966,0,0,0,1-.184V21A1,1,0,0,1,57,22Z"/></svg>