<?xml version="1.0" encoding="UTF-8"?>
<svg xmlns="http://www.w3.org/2000/svg" onmouseup="{ if(window.parent.document.onmouseup) window.parent.document.onmouseup(arguments[0]);}" width="512" viewBox="0 0 62 62" height="512" enable-background="new 0 0 62 62" id="_x33_0"><g><g><g><path data-cppathid="10000" fill="#ff826e" d="m33 2v17.25c-1.01-1.83-2.38-3.44-4-4.74v-12.51c0-.55.45-1 1-1h2c.55 0 1 .45 1 1z"/></g><g><path data-cppathid="10001" fill="#ff826e" d="m25 6v6.12l-.02.04c-1.25-.51-2.59-.86-3.98-1.04v-5.12c0-.55.45-1 1-1h2c.55 0 1 .45 1 1z"/></g><g><path data-cppathid="10002" fill="#ff826e" d="m17 2v9.12c-1.39.18-2.73.53-3.98 1.04l-.02-.04v-10.12c0-.55.45-1 1-1h2c.55 0 1 .45 1 1z"/></g><g><path data-cppathid="10003" fill="#ff826e" d="m9 6v8.51c-1.62 1.3-2.99 2.91-4 4.74v-13.25c0-.55.45-1 1-1h2c.55 0 1 .45 1 1z"/></g><g><path data-cppathid="10004" fill="#fcd770" d="m43 35 14 1c0 8.28-6.72 15-15 15-3.9 0-7.46-1.49-10.13-3.94z"/></g><g><path data-cppathid="10005" fill="#b4dd7f" d="m42 21 1 14-11.13 12.06c-1.93-1.76-3.4-4.03-4.2-6.6v-.01c4.41-2.85 7.33-7.81 7.33-13.45 0-1.38-.17-2.72-.5-4 2.21-1.27 4.77-2 7.5-2z"/></g><g><path data-cppathid="10006" fill="#ff826e" d="m61 32-14-1-1-14c8.28 0 15 6.72 15 15z"/></g><g><path data-cppathid="10007" fill="#ff826e" d="m11 47v8l-10 3v-13z"/></g><g><path data-cppathid="10008" fill="#f0d0b4" d="m27 51c1.1 0 2 .9 2 2 0 .55-.22 1.05-.59 1.41-.36.37-.86.59-1.41.59h-2c-1.1 0-2-.9-2-2 0-.55.22-1.05.59-1.41.36-.37.86-.59 1.41-.59z"/></g><g><path data-cppathid="10009" fill="#f0d0b4" d="m27 55c1.1 0 2 .9 2 2 0 .55-.22 1.05-.59 1.41-.36.37-.86.59-1.41.59h-2c-1.1 0-2-.9-2-2 0-.55.22-1.05.59-1.41.36-.37.86-.59 1.41-.59z"/></g><g><path data-cppathid="10010" fill="#f0d0b4" d="m25 47h2c1.1 0 2 .9 2 2 0 .55-.22 1.05-.59 1.41-.36.37-.86.59-1.41.59h-2c-1.1 0-2-.9-2-2 0-.55.22-1.05.59-1.41.36-.37.86-.59 1.41-.59z"/></g><g><path data-cppathid="10011" fill="#f0d0b4" d="m25 44c0 .83-.34 1.58-.88 2.12-.31.31-.69.56-1.12.7-.31.12-.65.18-1 .18h-3c-1.1 0-2 .9-2 2v10c-1.89 0-3.67-.89-4.8-2.4l-1.2-1.6v-8l2.26-1.81c1.77-1.42 3.98-2.19 6.25-2.19h4.49c.55 0 1 .45 1 1z"/></g><g><path data-cppathid="10012" fill="#969faa" d="m23 49v4 4 2c0 1.1-.9 2-2 2h-2c-1.1 0-2-.9-2-2v-10c0-1.1.9-2 2-2h3c.35 0 .69-.06 1-.18v.01z"/></g><g><path data-cppathid="10013" fill="#fcd770" d="m34.5 23c.33 1.28.5 2.62.5 4 0 5.64-2.92 10.6-7.33 13.45-2.5 1.61-5.47 2.55-8.67 2.55-8.84 0-16-7.16-16-16 0-2.81.72-5.45 2-7.75 1.01-1.83 2.38-3.44 4-4.74 1.21-.97 2.56-1.77 4.02-2.35 1.25-.51 2.59-.86 3.98-1.04.66-.08 1.32-.12 2-.12s1.34.04 2 .12c1.39.18 2.73.53 3.98 1.04 1.46.58 2.81 1.38 4.02 2.35 1.62 1.3 2.99 2.91 4 4.74.65 1.17 1.16 2.43 1.5 3.75z"/></g><g><circle data-cppathid="10014" r="12" fill="#69d6f4" cy="27" cx="19"/></g></g><g><path data-cppathid="10015" d="m32 27c0-7.168-5.832-13-13-13s-13 5.832-13 13 5.832 13 13 13 13-5.832 13-13zm-24 0c0-6.065 4.935-11 11-11s11 4.935 11 11-4.935 11-11 11-11-4.935-11-11z"/><path data-cppathid="10016" d="m42.931 20h-.931c-2.397 0-4.759.543-6.905 1.57-.299-.884-.661-1.74-1.095-2.553v-17.017c0-1.103-.897-2-2-2h-2c-1.103 0-2 .897-2 2v10.604c-.64-.402-1.307-.763-2-1.078v-5.526c0-1.103-.897-2-2-2h-2c-1.103 0-2 .897-2 2v4.051c-.333-.02-.662-.051-1-.051s-.667.031-1 .051v-8.051c0-1.103-.897-2-2-2h-2c-1.103 0-2 .897-2 2v9.526c-.693.315-1.36.677-2 1.078v-6.604c0-1.103-.897-2-2-2h-2c-1.103 0-2 .897-2 2v13.017c-1.273 2.382-2 5.098-2 7.983 0 7.739 5.203 14.274 12.291 16.322-.581.312-1.137.673-1.656 1.088l-1.897 1.517-10.738-2.147v15.564l10.619-3.186.781 1.042c1.147 1.529 2.887 2.521 4.768 2.749.4 1.188 1.511 2.051 2.832 2.051h2c1.383 0 2.539-.945 2.884-2.22.346.139.721.22 1.116.22h2c1.654 0 3-1.346 3-3 0-.771-.301-1.468-.78-2 .48-.532.78-1.229.78-2s-.301-1.468-.78-2c.48-.532.78-1.229.78-2 0-1.654-1.346-3-3-3h-1.539c.342-.589.539-1.272.539-2 0-.499-.19-.949-.493-1.3.557-.232 1.101-.49 1.627-.777 2.407 6.075 8.233 10.077 14.866 10.077 8.822 0 16-7.178 16-16v-.931l-14.064-1.004zm-12.931-18h2v14.068c-.609-.724-1.28-1.393-2-2.006zm-8 4h2v4.753c-.65-.2-1.32-.35-2-.471zm-8-4h2v8.281c-.68.122-1.35.271-2 .471zm-8 4h2v8.062c-.72.613-1.391 1.283-2 2.006zm-2 21c0-8.271 6.729-15 15-15s15 6.729 15 15-6.729 15-15 15-15-6.729-15-15zm6 27.256-8 2.4v-10.436l8 1.6zm3 1.744-1-1.333v-7.186l1.886-1.509c1.59-1.271 3.587-1.972 5.622-1.972h4.492c0 1.103-.897 2-2 2h-3c-1.654 0-3 1.346-3 3v8.891c-1.185-.245-2.264-.91-3-1.891zm15-3c0 .551-.448 1-1 1h-2c-.552 0-1-.449-1-1s.448-1 1-1h2c.552 0 1 .449 1 1zm-6 6c0 .551-.448 1-1 1h-2c-.552 0-1-.449-1-1v-10c0-.551.448-1 1-1h3zm5-1h-2c-.552 0-1-.449-1-1s.448-1 1-1h2c.552 0 1 .449 1 1s-.448 1-1 1zm1-9c0 .551-.448 1-1 1h-2c-.552 0-1-.449-1-1s.448-1 1-1h2c.552 0 1 .449 1 1zm.863-8.18c4.312-3.087 7.137-8.125 7.137-13.82 0-1.183-.123-2.337-.354-3.453 1.686-.861 3.528-1.391 5.425-1.517l.901 12.609-10.145 10.991c-1.28-1.355-2.295-2.98-2.964-4.81zm13.137 9.18c-3.259 0-6.289-1.112-8.698-3.02l10.107-10.948 12.561.897c-.48 7.288-6.562 13.071-13.97 13.071z"/><path data-cppathid="10017" d="m46 16h-1.074l1.139 15.936 15.935 1.138v-1.074c0-8.822-7.178-16-16-16zm1.936 14.064-.858-12.023c6.862.524 12.357 6.019 12.882 12.882z"/><path data-cppathid="10018" d="m38 4h2v2h-2z"/><path data-cppathid="10019" d="m42 4h14v2h-14z"/><path data-cppathid="10020" d="m38 8h2v2h-2z"/><path data-cppathid="10021" d="m42 8h14v2h-14z"/><path data-cppathid="10022" d="m38 12h2v2h-2z"/><path data-cppathid="10023" d="m42 12h14v2h-14z"/></g></g></svg>