<?xml version="1.0" encoding="UTF-8"?>
<svg xmlns="http://www.w3.org/2000/svg" onmouseup="{ if(window.parent.document.onmouseup) window.parent.document.onmouseup(arguments[0]);}" width="512" viewBox="0 0 62 62" height="512" enable-background="new 0 0 62 62" id="_x33_0"><g><g><path data-cppathid="10000" fill="#f0bc5e" d="m38 4h18v10h-18z"/></g><g><path data-cppathid="10001" fill="#f0bc5e" d="m19 10c-9.374 0-17 7.626-17 17 0 8.301 5.984 15.22 13.862 16.697 1.155-.452 2.388-.697 3.646-.697h4.492c.151 0 .291.039.419.099 6.722-2.27 11.581-8.621 11.581-16.099 0-9.374-7.626-17-17-17zm0 29c-6.617 0-12-5.383-12-12s5.383-12 12-12 12 5.383 12 12-5.383 12-12 12z"/></g><g><path data-cppathid="10002" d="m27 46h-1.539c.342-.589.539-1.272.539-2 0-1.103-.897-2-2-2h-4.492c-2.488 0-4.929.856-6.872 2.411l-1.897 1.517-10.739-2.148v15.564l10.619-3.186.781 1.042c1.147 1.529 2.887 2.521 4.768 2.749.4 1.188 1.511 2.051 2.832 2.051h2c1.383 0 2.539-.945 2.884-2.22.346.139.721.22 1.116.22h2c1.654 0 3-1.346 3-3 0-.771-.301-1.468-.78-2 .48-.532.78-1.229.78-2s-.301-1.468-.78-2c.48-.532.78-1.229.78-2 0-1.654-1.346-3-3-3zm1 3c0 .551-.448 1-1 1h-2c-.552 0-1-.449-1-1s.448-1 1-1h2c.552 0 1 .449 1 1zm0 4c0 .551-.448 1-1 1h-2c-.552 0-1-.449-1-1s.448-1 1-1h2c.552 0 1 .449 1 1zm-18 1.256-8 2.4v-10.436l8 1.6zm3 1.744-1-1.333v-7.186l1.886-1.509c1.59-1.271 3.587-1.972 5.622-1.972h4.492c0 1.103-.897 2-2 2h-3c-1.654 0-3 1.346-3 3v8.891c-1.185-.245-2.264-.91-3-1.891zm9 3c0 .551-.448 1-1 1h-2c-.552 0-1-.449-1-1v-10c0-.551.448-1 1-1h3zm5-1h-2c-.552 0-1-.449-1-1s.448-1 1-1h2c.552 0 1 .449 1 1s-.448 1-1 1z"/><path data-cppathid="10003" d="m6 6h2v8.062c.628-.535 1.298-1.017 2-1.458v-6.604c0-1.103-.897-2-2-2h-2c-1.103 0-2 .897-2 2v13.017c.564-1.055 1.235-2.041 2-2.949z"/><path data-cppathid="10004" d="m14 2h2v8.281c.654-.117 1.322-.191 2-.231v-8.05c0-1.103-.897-2-2-2h-2c-1.103 0-2 .897-2 2v9.526c.648-.294 1.312-.561 2-.773z"/><path data-cppathid="10005" d="m30 2h2v14.068c.765.908 1.436 1.894 2 2.949v-17.017c0-1.103-.897-2-2-2h-2c-1.103 0-2 .897-2 2v10.604c.702.44 1.372.923 2 1.458z"/><path data-cppathid="10006" d="m22 6h2v4.753c.688.212 1.352.479 2 .773v-5.526c0-1.103-.897-2-2-2h-2c-1.103 0-2 .897-2 2v4.051c.678.04 1.346.114 2 .231z"/><path data-cppathid="10007" d="m46 16h-1.074l1.139 15.936 15.935 1.138v-1.074c0-8.822-7.178-16-16-16zm1.936 14.064-.858-12.023c6.862.524 12.357 6.019 12.882 12.882z"/><path data-cppathid="10008" d="m38 4h2v2h-2z"/><path data-cppathid="10009" d="m42 4h14v2h-14z"/><path data-cppathid="10010" d="m38 8h2v2h-2z"/><path data-cppathid="10011" d="m42 8h14v2h-14z"/><path data-cppathid="10012" d="m38 12h2v2h-2z"/><path data-cppathid="10013" d="m42.931 20h-.931c-2.397 0-4.759.543-6.905 1.57.218.645.411 1.301.551 1.978 1.686-.861 3.528-1.391 5.425-1.517l.901 12.609-10.14 10.984c-1.279-1.357-2.302-2.978-2.971-4.809-.554.396-1.134.758-1.735 1.087 2.403 6.087 8.234 10.098 14.874 10.098 8.822 0 16-7.178 16-16v-.931l-14.064-1.004zm-.931 30c-3.259 0-6.29-1.111-8.697-3.022l10.105-10.947 12.561.897c-.479 7.289-6.561 13.072-13.969 13.072z"/><path data-cppathid="10014" d="m6 27c0 7.168 5.832 13 13 13s13-5.832 13-13-5.832-13-13-13-13 5.832-13 13zm13-11c6.065 0 11 4.935 11 11s-4.935 11-11 11-11-4.935-11-11 4.935-11 11-11z"/><path data-cppathid="10015" d="m42 12h14v2h-14z"/></g></g></svg>