<?xml version="1.0" encoding="UTF-8"?>
<svg xmlns="http://www.w3.org/2000/svg" onmouseup="{ if(window.parent.document.onmouseup) window.parent.document.onmouseup(arguments[0]);}" width="512" viewBox="0 0 256 256" height="512"><circle data-cppathid="10000" r="12.5" fill="#f87023" cy="85.877" cx="83.853"/><circle data-cppathid="10001" r="12.5" fill="#f8af23" cy="85.877" cx="172.147"/><path data-cppathid="10002" fill="#63bce7" d="m195.688 219.507h-135.375l2.187-18.056a53.944 53.944 0 0 1 53.944-53.944h23.111a53.944 53.944 0 0 1 53.945 53.944z"/><rect data-cppathid="10003" y="111.504" x="114.5" width="27" rx="13.5" height="53.419" fill="#f8af23"/><path data-cppathid="10004" fill="#f87023" d="m114.5 125v26.419a13.554 13.554 0 0 0 11.686 13.381v-53.174a13.554 13.554 0 0 0 -11.686 13.374z"/><rect data-cppathid="10005" y="28.524" x="83.853" width="88.294" rx="44.147" height="110.075" fill="#f8af23"/><path data-cppathid="10006" fill="#f87023" d="m102.353 94.452v-21.781a44.314 44.314 0 0 1 34.9-43.157 43.876 43.876 0 0 0 -9.25-.99 44.277 44.277 0 0 0 -44.15 44.147v21.781a44.277 44.277 0 0 0 44.147 44.148 43.876 43.876 0 0 0 9.25-.99 44.314 44.314 0 0 1 -34.897-43.158z"/><path data-cppathid="10007" fill="#f46275" d="m114.5 147.541 13.5 17.591-14.625 7.875-5.918-24.755 7.043-7.995z"/><path data-cppathid="10008" fill="#f46275" d="m141.5 147.541-13.5 17.591 14.625 7.875 5.918-24.755-7.043-7.995z"/><path data-cppathid="10009" fill="#3f3679" d="m114.541 93.778a2.779 2.779 0 0 1 -2.779 2.78 2.779 2.779 0 0 1 -2.777-2.78v-3.9a2.779 2.779 0 0 1 2.777-2.779 2.78 2.78 0 0 1 2.779 2.779z"/><path data-cppathid="10010" fill="#9e9e9e" d="m164.8 24.739a22.328 22.328 0 0 0 -17.4 8.312 43.732 43.732 0 0 0 -19.4-4.527 44.277 44.277 0 0 0 -44.147 44.147v9.78h7.272v-5.9s14.722-3.714 14.861-19.964c0 0 18.732 16.629 52.487 11.988a22.375 22.375 0 1 0 6.327-43.836z"/><path data-cppathid="10011" fill="#707070" d="m137.226 29.519a43.768 43.768 0 0 0 -9.226-1 44.277 44.277 0 0 0 -44.147 44.152v9.78h7.272v-5.9a21.634 21.634 0 0 0 11.45-8.284 44.36 44.36 0 0 1 34.651-38.748z"/><path data-cppathid="10012" fill="#3f3679" d="m147.015 93.778a2.781 2.781 0 0 1 -2.781 2.78 2.779 2.779 0 0 1 -2.777-2.78v-3.9a2.779 2.779 0 0 1 2.777-2.779 2.781 2.781 0 0 1 2.781 2.779z"/><path data-cppathid="10013" fill="#63bce7" d="m204.023 134.312 26.356 9.454-27.169 75.741h-14.916c-6.318-2.266-9.6-14.576-7.336-20.894z"/><path data-cppathid="10014" fill="#63e2e7" d="m230.379 143.766-16.391-5.88-29.278 81.621h18.5z"/><path data-cppathid="10015" transform="matrix(-.941 -.338 .338 -.941 370.686 350.316)" fill="#f46275" d="m201.808 138.796h28v8.252h-28z"/><path data-cppathid="10016" transform="matrix(.338 -.941 .941 .338 10.031 303.674)" fill="#f48875" d="m216.664 136.003h8.252v17.414h-8.252z"/><path data-cppathid="10017" fill="#f8af23" d="m226.742 142.461 19.275-7.5a2.62 2.62 0 0 0 1.67-2.442v-1.953a2.62 2.62 0 0 0 -2.62-2.62h-32.847a5.322 5.322 0 0 0 -5.078 3.728l-1.06 3.375z"/><path data-cppathid="10018" fill="#f8d323" d="m245.067 127.947h-18.5a2.62 2.62 0 0 1 2.62 2.62v1.953a2.62 2.62 0 0 1 -1.67 2.442l-10.4 4.047 9.626 3.453 19.275-7.5a2.62 2.62 0 0 0 1.67-2.442v-1.953a2.62 2.62 0 0 0 -2.621-2.62z"/><path data-cppathid="10019" fill="#63bce7" d="m51.977 134.312-26.356 9.454 27.169 75.741h14.916c6.318-2.266 9.6-14.576 7.336-20.894z"/><path data-cppathid="10020" fill="#6377e7" d="m25.621 143.766 16.391-5.88 29.278 81.621h-18.5z"/><path data-cppathid="10021" transform="matrix(.941 -.338 .338 .941 -45.896 21.964)" fill="#f46275" d="m26.192 138.796h28v8.252h-28z"/><path data-cppathid="10022" transform="matrix(.941 -.338 .338 .941 -46.792 20.386)" fill="#f43075" d="m26.503 140.584h17.414v8.252h-17.414z"/><path data-cppathid="10023" fill="#f8af23" d="m29.258 142.461-19.275-7.5a2.62 2.62 0 0 1 -1.67-2.442v-1.953a2.62 2.62 0 0 1 2.62-2.62h32.847a5.322 5.322 0 0 1 5.078 3.728l1.06 3.375z"/><path data-cppathid="10024" fill="#f87023" d="m10.933 127.947h18.5a2.62 2.62 0 0 0 -2.62 2.62v1.953a2.62 2.62 0 0 0 1.67 2.442l10.4 4.047-9.626 3.453-19.275-7.5a2.62 2.62 0 0 1 -1.67-2.442v-1.953a2.62 2.62 0 0 1 2.621-2.62z"/><path data-cppathid="10025" fill="#f46275" d="m14.709 90.725h10.536v27.9h-10.536z"/><path data-cppathid="10026" fill="#63bce7" d="m32.353 81.015h10.536v37.609h-10.536z"/><path data-cppathid="10027" fill="#f8af23" d="m49.996 71.306h10.536v47.319h-10.536z"/><path data-cppathid="10028" transform="matrix(-1 0 0 -1 472.046 209.349)" fill="#f8af23" d="m230.755 90.725h10.536v27.9h-10.536z"/><path data-cppathid="10029" transform="matrix(-1 0 0 -1 436.759 199.64)" fill="#63bce7" d="m213.111 81.015h10.536v37.609h-10.536z"/><path data-cppathid="10030" transform="matrix(-1 0 0 -1 401.472 189.93)" fill="#f46275" d="m195.468 71.306h10.536v47.319h-10.536z"/><path data-cppathid="10031" fill="#f46275" d="m44.866 51.2v12.36a.5.5 0 0 1 -.5.5h-13.487a.5.5 0 0 1 -.5-.5v-12.36a.5.5 0 0 0 -.5-.5h-2.434a.5.5 0 0 1 -.356-.859l10.176-10.183a.5.5 0 0 1 .712 0l10.175 10.176a.5.5 0 0 1 -.356.859h-2.427a.5.5 0 0 0 -.503.507z"/><path data-cppathid="10032" fill="#63bce7" d="m211.134 52.374v-12.36a.5.5 0 0 1 .5-.5h13.484a.5.5 0 0 1 .5.5v12.36a.5.5 0 0 0 .5.5h2.427a.5.5 0 0 1 .356.859l-10.166 10.179a.5.5 0 0 1 -.712 0l-10.175-10.175a.5.5 0 0 1 .356-.859h2.427a.5.5 0 0 0 .503-.504z"/><g fill="#3f3679"><path data-cppathid="10033" d="m131.124 115.977a1.5 1.5 0 0 0 0 3 6.137 6.137 0 0 0 1.5-12.09v-8.51a1.5 1.5 0 0 0 -3 0v9.83a1.5 1.5 0 0 0 1.5 1.5c.021 0 .04-.005.061-.006a3.139 3.139 0 0 1 -.061 6.277z"/><path data-cppathid="10034" d="m134.428 123.169a1.5 1.5 0 0 0 -2.121 0 6.427 6.427 0 0 1 -10.974-4.544 1.5 1.5 0 0 0 -3 0 9.431 9.431 0 0 0 16.095 6.666 1.5 1.5 0 0 0 0-2.122z"/><path data-cppathid="10035" d="m121.032 81.568a1.5 1.5 0 0 0 -.325-2.1 10.915 10.915 0 0 0 -8.461-2.034 9.821 9.821 0 0 0 -6.487 4.18 1.5 1.5 0 0 0 2.512 1.641 6.813 6.813 0 0 1 4.514-2.87 7.961 7.961 0 0 1 6.151 1.5 1.5 1.5 0 0 0 2.096-.317z"/><path data-cppathid="10036" d="m137.114 83.695a1.5 1.5 0 0 0 2.076-.436 6.813 6.813 0 0 1 4.515-2.87 7.958 7.958 0 0 1 6.151 1.5 1.5 1.5 0 0 0 1.771-2.422 10.919 10.919 0 0 0 -8.462-2.033 9.823 9.823 0 0 0 -6.487 4.18 1.5 1.5 0 0 0 .436 2.081z"/><path data-cppathid="10037" d="m25.89 229.761h-18.5a1.5 1.5 0 1 0 0 3h18.5a1.5 1.5 0 1 0 0-3z"/><path data-cppathid="10038" d="m248.61 229.761h-18.5a1.5 1.5 0 0 0 0 3h18.5a1.5 1.5 0 0 0 0-3z"/><path data-cppathid="10039" d="m215.337 229.761h-174.674a1.5 1.5 0 0 0 0 3h174.674a1.5 1.5 0 0 0 0-3z"/><path data-cppathid="10040" d="m7.39 221.007h241.22a1.5 1.5 0 0 0 0-3h-43.269l23.659-65.968 2.786-7.767a1.464 1.464 0 0 0 -.8-1.855l15.569-6.058a4.1 4.1 0 0 0 2.626-3.84v-1.952a4.125 4.125 0 0 0 -4.12-4.12h-32.841a6.793 6.793 0 0 0 -6.509 4.779l-.592 1.885-.59-.212a1.511 1.511 0 0 0 -.288-.072 1.5 1.5 0 0 0 -1.631.977l-2.786 7.767-11.814 32.938a55.578 55.578 0 0 0 -38.682-27.634l-6.328-7.185v-2.135a45.756 45.756 0 0 0 30.321-37.737 13.986 13.986 0 0 0 .311-27.846q-.02-1.324-.115-2.635a23.872 23.872 0 1 0 -26.507-38.137 44.929 44.929 0 0 0 -19.01-4.176 45.691 45.691 0 0 0 -45.629 44.947 13.986 13.986 0 0 0 .308 27.846 45.756 45.756 0 0 0 30.321 37.737v2.135l-6.331 7.187a55.537 55.537 0 0 0 -38.682 27.624l-11.811-32.926-2.786-7.767a1.5 1.5 0 0 0 -1.919-.906l-.589.211-.591-1.885a6.8 6.8 0 0 0 -6.51-4.779h-32.848a4.125 4.125 0 0 0 -4.12 4.12v1.952a4.1 4.1 0 0 0 2.626 3.84l15.569 6.058a1.464 1.464 0 0 0 -.8 1.855l2.792 7.766 23.664 65.968h-43.274a1.5 1.5 0 1 0 0 3zm219.3-71.393-23.533-8.441 1.773-4.943.646.232 20.661 7.411 2.221.8zm-18.114-17.49a3.805 3.805 0 0 1 3.646-2.677h32.848a1.122 1.122 0 0 1 1.12 1.12v1.952a1.113 1.113 0 0 1 -.714 1.044l-18.752 7.3-18.777-6.735zm-65.883 16.33a1.5 1.5 0 0 0 .31-.913v-3.312l3.9 4.431-5.284 22.1-11.356-6.115zm40.456-62.577a11.009 11.009 0 0 1 -9.559 10.894q.058-1.153.059-2.32v-19.466a10.984 10.984 0 0 1 9.497 10.892zm-55.149-55.853a41.988 41.988 0 0 1 18.74 4.376 1.5 1.5 0 0 0 1.83-.4 20.873 20.873 0 1 1 10.33 33.137 1.51 1.51 0 0 0 -.628-.047c-32.61 4.481-51.1-11.464-51.286-11.624a1.5 1.5 0 0 0 -2.5 1.109c-.128 14.855-13.175 18.381-13.728 18.525a1.5 1.5 0 0 0 -1.133 1.455v4.4h-4.271v-8.28a42.7 42.7 0 0 1 42.646-42.651zm-55.146 55.853a10.983 10.983 0 0 1 9.5-10.893v19.468q0 1.167.059 2.32a11.009 11.009 0 0 1 -9.559-10.895zm12.5 8.575v-10.5h5.771a1.5 1.5 0 0 0 1.5-1.5v-4.815c3.375-1.237 13.221-5.857 14.681-18.137 6.025 4.263 23.552 14.289 51.057 10.6a23.856 23.856 0 0 0 12.21.177c.044.794.074 1.592.074 2.39v21.785a42.646 42.646 0 1 1 -85.293 0zm42.646 45.648a45.522 45.522 0 0 0 12-1.612v8.545l-12 15.636-12-15.636v-8.545a45.522 45.522 0 0 0 12 1.612zm-15 4.13v3.312a1.5 1.5 0 0 0 .31.913l12.428 16.193-11.356 6.115-5.284-22.1zm-85.461.442 2.221-.8 20.66-7.411.646-.232 1.773 4.943-23.533 8.441zm-17.726-12.152v-1.952a1.122 1.122 0 0 1 1.12-1.12h32.847a3.807 3.807 0 0 1 3.647 2.677l.628 2-18.777 6.735-18.752-7.3a1.113 1.113 0 0 1 -.713-1.04zm20.513 19.919 23.532-8.439 17.532 48.874a1.5 1.5 0 1 0 2.824-1.013l-4.852-13.526a52.54 52.54 0 0 1 36.971-28.335l5.583 23.352a1.5 1.5 0 0 0 2.17.972l13.914-7.489 13.914 7.492a1.5 1.5 0 0 0 2.17-.972l5.583-23.355a52.582 52.582 0 0 1 36.974 28.324l-4.854 13.534a1.5 1.5 0 1 0 2.824 1.013l17.531-48.871 23.533 8.441-23.521 65.568h-30.321v-19.836a1.5 1.5 0 0 0 -3 0v19.833h-81.666v-19.833a1.5 1.5 0 0 0 -3 0v19.833h-30.321z"/><path data-cppathid="10041" d="m14.709 120.125h10.536a1.5 1.5 0 0 0 1.5-1.5v-27.9a1.5 1.5 0 0 0 -1.5-1.5h-10.536a1.5 1.5 0 0 0 -1.5 1.5v27.9a1.5 1.5 0 0 0 1.5 1.5zm1.5-27.9h7.536v24.9h-7.536z"/><path data-cppathid="10042" d="m42.889 79.515h-10.536a1.5 1.5 0 0 0 -1.5 1.5v37.609a1.5 1.5 0 0 0 1.5 1.5h10.536a1.5 1.5 0 0 0 1.5-1.5v-37.609a1.5 1.5 0 0 0 -1.5-1.5zm-1.5 37.609h-7.536v-34.609h7.536z"/><path data-cppathid="10043" d="m48.5 71.306v47.319a1.5 1.5 0 0 0 1.5 1.5h10.532a1.5 1.5 0 0 0 1.5-1.5v-47.319a1.5 1.5 0 0 0 -1.5-1.5h-10.532a1.5 1.5 0 0 0 -1.5 1.5zm3 1.5h7.536v44.319h-7.536z"/><path data-cppathid="10044" d="m229.255 90.725v27.9a1.5 1.5 0 0 0 1.5 1.5h10.536a1.5 1.5 0 0 0 1.5-1.5v-27.9a1.5 1.5 0 0 0 -1.5-1.5h-10.536a1.5 1.5 0 0 0 -1.5 1.5zm3 1.5h7.536v24.9h-7.536z"/><path data-cppathid="10045" d="m213.111 79.515a1.5 1.5 0 0 0 -1.5 1.5v37.609a1.5 1.5 0 0 0 1.5 1.5h10.536a1.5 1.5 0 0 0 1.5-1.5v-37.609a1.5 1.5 0 0 0 -1.5-1.5zm9.036 37.609h-7.536v-34.609h7.536z"/><path data-cppathid="10046" d="m195.468 120.125h10.532a1.5 1.5 0 0 0 1.5-1.5v-47.319a1.5 1.5 0 0 0 -1.5-1.5h-10.532a1.5 1.5 0 0 0 -1.5 1.5v47.319a1.5 1.5 0 0 0 1.5 1.5zm1.5-47.319h7.532v44.319h-7.536z"/><path data-cppathid="10047" d="m27.444 52.193h1.431v11.364a2.006 2.006 0 0 0 2 2h13.487a2.006 2.006 0 0 0 2-2v-11.364h1.438a2 2 0 0 0 1.416-3.42l-10.178-10.173a2.052 2.052 0 0 0 -2.834 0l-10.176 10.173a2 2 0 0 0 1.416 3.42zm10.176-10.77 7.771 7.77h-.021a2.006 2.006 0 0 0 -2 2v11.367h-11.495v-11.36a2.006 2.006 0 0 0 -2-2h-.021z"/><path data-cppathid="10048" d="m216.963 64.973a2 2 0 0 0 2.833 0l10.175-10.173a2 2 0 0 0 -1.415-3.421h-1.431v-11.365a2.006 2.006 0 0 0 -2-2h-13.487a2.006 2.006 0 0 0 -2 2v11.363h-1.438a2 2 0 0 0 -1.416 3.42zm-6.332-10.6a2.006 2.006 0 0 0 2-2v-11.363h11.491v11.364a2.006 2.006 0 0 0 2 2h.021l-7.77 7.77-7.771-7.77z"/></g></svg>