<?xml version="1.0" encoding="UTF-8"?>
<svg xmlns="http://www.w3.org/2000/svg" onmouseup="{ if(window.parent.document.onmouseup) window.parent.document.onmouseup(arguments[0]);}" width="512" viewBox="0 0 512 512" height="512" enable-background="new 0 0 512 512" id="Capa_1"><g><path data-cppathid="10000" fill="#fed843" d="m90 362v135h-61.5l-28.5-15v-120z"/><path data-cppathid="10001" fill="#fabe2c" d="m30 362h60v135h-60z"/><path data-cppathid="10002" fill="#fed843" d="m60 272h90v225h-90z"/><path data-cppathid="10003" fill="#fabe2c" d="m90 272h60v225h-60z"/><path data-cppathid="10004" fill="#fed843" d="m120 182h90v315h-90z"/><path data-cppathid="10005" fill="#fabe2c" d="m150 182h60v315h-60z"/><path data-cppathid="10006" fill="#fed843" d="m180 90h60v407h-60z"/><path data-cppathid="10007" fill="#fabe2c" d="m210 90h30v407h-30z"/><path data-cppathid="10008" fill="#59c36a" d="m422 0-90 120h45v107c0 140.832-116.168 255-257 255h-120v30h180c100.908 0 191.357-52.584 242-131.7 28.354-44.293 45-96.806 45-153.3v-107h45z"/><path data-cppathid="10009" fill="#00a66c" d="m467 120h45l-90-120v380.3c28.354-44.293 45-96.806 45-153.3z"/></g></svg>