<?xml version="1.0" encoding="UTF-8"?>
<svg xmlns="http://www.w3.org/2000/svg" onmouseup="{ if(window.parent.document.onmouseup) window.parent.document.onmouseup(arguments[0]);}" width="512" viewBox="0 0 64 64" height="512" enable-background="new 0 0 64 64" id="_x33_0"><g><g><g><path data-cppathid="10000" fill="#e6e9ed" d="m54.24 24.74-2.24 7.26-9-4 .46-3c-.69-1.2-1.98-2-3.46-2-2.21 0-4 1.79-4 4 0 .9.3 1.73.8 2.4l-.17.13c-2.48-5.62-8.09-9.53-14.63-9.53-3.14 0-6.08.91-8.55 2.47-.29-.76-.45-1.6-.45-2.47 0-3.87 3.13-7 7-7 .7 0 1.37.1 2.01.29-.01-.1-.01-.19-.01-.29 0-6.08 4.92-11 11-11 5.21 0 9.56 3.61 10.7 8.46.71-.3 1.49-.46 2.3-.46 2.85 0 5.24 2 5.85 4.67-1.14 1.09-1.85 2.63-1.85 4.33 0 2.7 1.79 4.99 4.24 5.74z"/></g><g><path data-cppathid="10001" fill="#ff826e" d="m50 46h4v16h-4z"/></g><g><path data-cppathid="10002" fill="#ff826e" d="m42 38h4v24h-4z"/></g><g><path data-cppathid="10003" fill="#ff826e" d="m38 42v20h-4v-15.42-4.58h2.84z"/></g><g><path data-cppathid="10004" fill="#ff826e" d="m58 32h4v30h-4z"/></g><g><path data-cppathid="10005" fill="#ff826e" d="m30 50v12h-4v-10.5-1.5h3.75z"/></g><g><path data-cppathid="10006" fill="#969faa" d="m15.3 50.53-7.92 10.3c-.58.74-1.44 1.17-2.38 1.17-.66 0-1.31-.22-1.83-.62-1.31-1.01-1.56-2.89-.55-4.21l7.8-10.13c1.38 1.45 3.04 2.64 4.88 3.49z"/></g><g><path data-cppathid="10007" fill="#fcd770" d="m36.63 29.53c.88 1.98 1.37 4.17 1.37 6.47 0 2.12-.41 4.15-1.16 6h-2.84v4.58c-1.21 1.37-2.64 2.53-4.25 3.42h-3.75v1.5c-1.28.32-2.62.5-4 .5-2.39 0-4.66-.52-6.7-1.47-1.84-.85-3.5-2.04-4.88-3.49-2.74-2.87-4.42-6.76-4.42-11.04 0-5.7 2.97-10.69 7.45-13.53 2.47-1.56 5.41-2.47 8.55-2.47 6.54 0 12.15 3.91 14.63 9.53z"/></g><g><path data-cppathid="10008" fill="#69d6f4" d="m33.32 32.01c.44 1.25.68 2.59.68 3.99 0 6.63-5.37 12-12 12s-12-5.37-12-12 5.37-12 12-12c5.23 0 9.68 3.34 11.32 8.01z"/></g><g><path data-cppathid="10009" fill="#fc6e51" d="m56 13c3.31 0 6 2.69 6 6s-2.69 6-6 6c-.61 0-1.2-.09-1.76-.26-2.45-.75-4.24-3.04-4.24-5.74 0-1.7.71-3.24 1.85-4.33 1.07-1.04 2.53-1.67 4.15-1.67z"/></g><g><path data-cppathid="10010" fill="#fc6e51" d="m50.15 31.23c.31-.72 1.02-1.23 1.85-1.23.21 0 .41.03.59.09.82.25 1.41 1.02 1.41 1.91 0 1.1-.9 2-2 2s-2-.9-2-2c0-.27.05-.53.15-.77z"/></g><g><path data-cppathid="10011" fill="#fc6e51" d="m44 27c0 .55-.11 1.07-.31 1.54-.6 1.45-2.03 2.46-3.69 2.46-1.31 0-2.47-.63-3.2-1.6-.5-.67-.8-1.5-.8-2.4 0-2.21 1.79-4 4-4 1.48 0 2.77.8 3.46 2 .34.59.54 1.27.54 2z"/></g><g><path data-cppathid="10012" fill="#fc6e51" d="m30.4 34.2c.37.5.6 1.12.6 1.8 0 1.66-1.34 3-3 3s-3-1.34-3-3 1.34-3 3-3c.98 0 1.85.47 2.4 1.2z"/></g></g><g><path data-cppathid="10013" d="m57 61h-2v-16h-6v16h-2v-24h-6v24h-2v-20h-.755c.497-1.613.755-3.288.755-5 0-1.479-.209-2.907-.566-4.276.496.165 1.016.276 1.566.276 1.717 0 3.234-.871 4.135-2.194l4.881 2.034c-.003.054-.016.105-.016.16 0 1.654 1.346 3 3 3s3-1.346 3-3c0-.984-.482-1.85-1.216-2.398l1.137-3.694c.353.055.711.092 1.079.092 3.859 0 7-3.14 7-7s-3.141-7-7-7c-1.348 0-2.604.39-3.674 1.053-1.134-2.409-3.591-4.053-6.326-4.053-.554 0-1.096.063-1.621.188-1.613-4.872-6.149-8.188-11.379-8.188-6.303 0-11.486 4.884-11.964 11.066-.342-.044-.688-.066-1.036-.066-4.411 0-8 3.589-8 8 0 .707.094 1.402.275 2.077-4.392 3.077-7.275 8.166-7.275 13.923 0 4.23 1.563 8.095 4.128 11.073l-7.303 9.492c-1.342 1.75-1.013 4.265.731 5.603.697.537 1.563.832 2.442.832 1.25 0 2.406-.569 3.172-1.561l7.455-9.691c1.971.801 4.12 1.252 6.375 1.252 1.01 0 2.014-.094 3-.27v10.27h38v-32h-6zm-6-14h2v14h-2zm-8-8h2v22h-2zm-13-3c0 1.103-.897 2-2 2s-2-.897-2-2 .897-2 2-2 2 .897 2 2zm.483-3.112c-.685-.547-1.54-.888-2.483-.888-2.206 0-4 1.794-4 4s1.794 4 4 4 4-1.794 4-4c0-.539-.11-1.052-.304-1.522l1.055-.791c.16.746.249 1.519.249 2.313 0 6.065-4.935 11-11 11s-11-4.935-11-11 4.935-11 11-11c4.528 0 8.423 2.751 10.108 6.669zm6.517 10.112v18h-2v-18zm-3.003-2c.644-1.54 1.003-3.229 1.003-5 0-1.254-.188-2.462-.521-3.61l1.69-1.268c.53 1.532.831 3.169.831 4.878 0 1.722-.304 3.397-.871 5zm6.003-11c-1.654 0-3-1.346-3-3s1.346-3 3-3 3 1.346 3 3-1.346 3-3 3zm12 3c-.552 0-1-.449-1-1s.448-1 1-1 1 .449 1 1-.448 1-1 1zm9-14c0 2.757-2.243 5-5 5s-5-2.243-5-5 2.243-5 5-5 5 2.243 5 5zm-47 1c0-3.309 2.691-6 6-6 .589 0 1.17.083 1.726.249l1.424.423-.145-1.479c-.006-.067-.005-.127-.005-.193 0-5.514 4.486-10 10-10 4.662 0 8.662 3.162 9.727 7.689l.271 1.153 1.091-.46c.599-.254 1.242-.382 1.911-.382 2.144 0 4.047 1.414 4.724 3.414-1.07 1.23-1.724 2.832-1.724 4.586 0 2.789 1.644 5.195 4.009 6.319l-1.137 3.694c-.828.036-1.565.405-2.087.981l-4.882-2.034c.061-.312.097-.631.097-.96 0-2.757-2.243-5-5-5-2.2 0-4.052 1.438-4.719 3.417-3.117-3.904-7.908-6.417-13.281-6.417-2.857 0-5.548.716-7.913 1.966-.052-.318-.087-.639-.087-.966zm-7.415 40.219c-.65.846-1.96 1.021-2.809.364-.872-.669-1.035-1.926-.364-2.8l7.127-9.264c.984.901 2.064 1.697 3.238 2.349zm15.415-9.219c-8.271 0-15-6.729-15-15s6.729-15 15-15c5.833 0 10.885 3.353 13.366 8.226l-1.629 1.221c-2.088-4.394-6.557-7.447-11.737-7.447-7.168 0-13 5.832-13 13s5.832 13 13 13c4.633 0 8.697-2.444 11-6.104v3.285c-1.031 1.115-2.214 2.062-3.528 2.819h-4.472v1.696c-.983.199-1.988.304-3 .304zm7 10h-2v-10h2zm2-10.592c.703-.44 1.37-.927 2-1.463v12.055h-2zm28-17.408h2v28h-2z"/><path data-cppathid="10014" d="m28 15h2v2h-2z"/><path data-cppathid="10015" d="m32 15h2v2h-2z"/><path data-cppathid="10016" d="m36 15h2v2h-2z"/></g></g></svg>