<?xml version="1.0" encoding="UTF-8"?>
<svg xmlns="http://www.w3.org/2000/svg" onmouseup="{ if(window.parent.document.onmouseup) window.parent.document.onmouseup(arguments[0]);}" width="512" viewBox="0 0 58 58" height="512"><g fill-rule="evenodd" fill="none" id="Page-1"><g transform="translate(0 -1)" id="015---Financial-Profit"><path data-cppathid="10000" fill="#4fba6f" d="m58 2.273-.5 6.442c-.0395612.54260518-.392044 1.0122522-.9019958 1.20181656-.5099518.18956434-1.0836199.06419536-1.4680042-.32081656l-1.45-1.451-9.642 9.655c-1.5637124 1.5602187-4.0952876 1.5602187-5.659 0l-4.463-4.465c-.3904999-.3903819-1.0235001-.3903819-1.414 0l-14.671 14.677c-.750273.7511082-1.768363 1.1731466-2.83 1.1731466s-2.079727-.4220384-2.83-1.1731466l-2.463-2.464c-.39038508-.3897159-1.02261492-.3897159-1.413 0l-4.883 4.875c-.78252302.7694891-2.03747698.7694891-2.82 0-.37849763-.3717318-.59171348-.8799861-.59171348-1.4105s.21321585-1.0387682.59171348-1.4105l5.58-5.592c.75023257-.7508021 1.76810816-1.1726462 2.8295-1.1726462 1.0613918 0 2.0792674.4218441 2.8295 1.1726462l3.169 3.171 15.38-15.381c.7502326-.75080205 1.7681082-1.17264616 2.8295-1.17264616s2.0792674.42184411 2.8295 1.17264616l4.461 4.46c.1875683.187777.4420908.2932867.7075.2932867s.5199317-.1055097.7075-.2932867l8.942-8.946-1.45-1.45c-.3834925-.38332842-.5080245-.95518745-.3186513-1.46326711.1893732-.50807965.6578178-.85892241 1.1986513-.89773289l6.45-.503c.3430962-.02230961.6790523.10499135.9212097.34906611.2421574.24407475.366805.58102432.3417903.92393389z" id="Path"/><rect data-cppathid="10001" y="55" x="1" width="16" rx="2" height="4" fill="#f0c419" id="Rectangle"/><rect data-cppathid="10002" y="55" x="21" width="16" rx="2" height="4" fill="#f0c419" id="Rectangle"/><rect data-cppathid="10003" y="51" x="21" width="16" rx="2" height="4" fill="#f3d55b" id="Rectangle"/><rect data-cppathid="10004" y="47" x="21" width="16" rx="2" height="4" fill="#f0c419" id="Rectangle"/><rect data-cppathid="10005" y="55" x="41" width="16" rx="2" height="4" fill="#f0c419" id="Rectangle"/><circle data-cppathid="10006" r="9" fill="#f3d55b" cy="38" cx="29" id="Oval"/><rect data-cppathid="10007" y="51" x="41" width="16" rx="2" height="4" fill="#f3d55b" id="Rectangle"/><rect data-cppathid="10008" y="47" x="41" width="16" rx="2" height="4" fill="#f0c419" id="Rectangle"/><rect data-cppathid="10009" y="43" x="41" width="16" rx="2" height="4" fill="#f3d55b" id="Rectangle"/><rect data-cppathid="10010" y="39" x="41" width="16" rx="2" height="4" fill="#f0c419" id="Rectangle"/><circle data-cppathid="10011" r="9" fill="#f3d55b" cy="30" cx="49" id="Oval"/><circle data-cppathid="10012" r="9" fill="#f3d55b" cy="46" cx="9" id="Oval"/><g fill="#b19046"><path data-cppathid="10013" d="m29 37c-.4851707-.000473-.9000069-.3491365-.9839455-.8269912-.0839386-.4778548.1872399-.9470217.6432053-1.1128119.4559653-.1657902.9651545.0196329 1.2077402.4398031.1727115.3209394.5063525.5225002.8707953.5260692.3644429.003569.7019673-.1914191.880931-.5089145s.1710225-.7072132-.0207263-1.0171547c-.3625283-.608365-.9285888-1.0688648-1.598-1.3v-.2c0-.5522847-.4477153-1-1-1s-1 .4477153-1 1v.184c-1.3765475.4848523-2.2026937 1.8918441-1.9553873 3.330178s1.49595 2.4885874 2.9553873 2.485822c.4851707.000473.9000069.3491365.9839455.8269912.0839386.4778548-.1872399.9470217-.6432053 1.1128119-.4559653.1657902-.9651545-.0196329-1.2077402-.4398031-.2843876-.4596821-.882589-.61017-1.3506397-.3397768s-.6365131.8637835-.3803603 1.3397768c.3630242.6087308.9298468 1.0692742 1.6 1.3v.2c0 .5522847.4477153 1 1 1s1-.4477153 1-1v-.184c1.3769108-.4849733 2.2030823-1.8925391 1.9552305-3.3311676-.2478517-1.4386286-1.4974125-2.4885802-2.9572305-2.4848324z" id="Path"/><path data-cppathid="10014" d="m52 32c0-1.6568542-1.3431458-3-3-3-.4851707-.000473-.9000069-.3491365-.9839455-.8269912-.0839386-.4778548.1872399-.9470217.6432053-1.1128119.4559653-.1657902.9651545.0196329 1.2077402.4398031.2843876.4596821.882589.61017 1.3506397.3397768s.6365131-.8637835.3803603-1.3397768c-.3620629-.6087671-.9282899-1.0694024-1.598-1.3v-.2c0-.5522847-.4477153-1-1-1s-1 .4477153-1 1v.184c-1.3765475.4848523-2.2026937 1.8918441-1.9553873 3.330178s1.49595 2.4885874 2.9553873 2.485822c.4851707.000473.9000069.3491365.9839455.8269912.0839386.4778548-.1872399.9470217-.6432053 1.1128119-.4559653.1657902-.9651545-.0196329-1.2077402-.4398031-.2843876-.4596821-.882589-.61017-1.3506397-.3397768s-.6365131.8637835-.3803603 1.3397768c.3625581.6091337.9295478 1.0698128 1.6 1.3v.2c0 .5522847.4477153 1 1 1s1-.4477153 1-1v-.184c1.1935621-.4229269 1.99305-1.5497326 1.998-2.816z" id="Path"/><path data-cppathid="10015" d="m9 45c-.48517068-.000473-.90000691-.3491365-.9839455-.8269912-.08393858-.4778548.1872399-.9470217.64320526-1.1128119s.96515455.0196329 1.20774024.4398031c.1727115.3209394.5063525.5225002.8707953.5260692.3644429.003569.7019673-.1914191.880931-.5089145s.1710225-.7072132-.0207263-1.0171547c-.3625283-.608365-.9285888-1.0688648-1.598-1.3v-.2c0-.5522847-.44771525-1-1-1s-1 .4477153-1 1v.184c-1.37654748.4848523-2.2026937 1.8918441-1.95538732 3.330178.24730637 1.4383339 1.49595006 2.4885874 2.95538732 2.485822.48517068.000473.90000691.3491365.9839455.8269912.0839386.4778548-.1872399.9470217-.64320526 1.1128119s-.96515455-.0196329-1.20774024-.4398031c-.17271151-.3209394-.50635246-.5225002-.87079533-.5260692s-.70196724.1914191-.88093096.5089145-.17102255.7072132.02072629 1.0171547c.36302417.6087308.92984682 1.0692742 1.6 1.3v.2c0 .5522847.44771525 1 1 1s1-.4477153 1-1v-.184c1.3769108-.4849733 2.2030823-1.8925391 1.9552305-3.3311676-.2478517-1.4386286-1.4974125-2.4885802-2.9572305-2.4848324z" id="Path"/></g></g></g></svg>