<?xml version="1.0" encoding="UTF-8"?>
<svg xmlns="http://www.w3.org/2000/svg" onmouseup="{ if(window.parent.document.onmouseup) window.parent.document.onmouseup(arguments[0]);}" width="468pt" viewBox="0 -21 468 468" height="468pt"><path data-cppathid="10000" fill="#00efd1" d="m462 192.320312v69.949219c0 20.160157-15.578125 36.5-34.808594 36.5h-141.691406v-18.929687h-103v18.929687h-141.691406c-19.230469 0-34.808594-16.339843-34.808594-36.5v-155.121093c0-20.148438 15.578125-36.5 34.808594-36.5h386.382812c19.230469 0 34.808594 16.351562 34.808594 36.5zm-151.5-19.820312c0-42.25-34.25-76.5-76.5-76.5s-76.5 34.25-76.5 76.5 34.25 76.5 76.5 76.5 76.5-34.25 76.5-76.5zm0 0"/><path data-cppathid="10001" fill="#00acea" d="m462 262.269531v121.671875c0 20.148438-15.578125 36.5-34.808594 36.5h-386.382812c-19.230469 0-34.808594-16.351562-34.808594-36.5v-121.671875c0 20.160157 15.578125 36.5 34.808594 36.5h141.691406v26.839844h103v-26.839844h141.691406c19.230469 0 34.808594-16.339843 34.808594-36.5zm0 0"/><path data-cppathid="10002" fill="#fedb41" d="m310.5 172.5c0 42.25-34.25 76.5-76.5 76.5s-76.5-34.25-76.5-76.5 34.25-76.5 76.5-76.5 76.5 34.25 76.5 76.5zm0 0"/><path data-cppathid="10003" fill="#f4b844" d="m285.5 298.769531v26.839844h-103v-45.769531h103zm0 0"/><g fill="#083863"><path data-cppathid="10004" d="m261.070312 142c3.3125 0 6-2.6875 6-6s-2.6875-6-6-6h-54.140624c-3.3125 0-6 2.6875-6 6s2.6875 6 6 6h15.492187c7.082031.140625 13.410156 4.457031 16.128906 11h-31.621093c-3.3125 0-6 2.6875-6 6s2.6875 6 6 6h31.632812c-.851562 3-2.175781 4.285156-3.949219 6.066406-3.242187 3.210938-7.632812 4.988282-12.191406 4.933594h-15.492187c-2.488282.101562-4.675782 1.671875-5.570313 3.992188-.894531 2.324218-.324219 4.953124 1.449219 6.699218l38.71875 36.644532c1.152344 1.101562 2.691406 1.703124 4.285156 1.664062 1.589844-.039062 3.101562-.707031 4.199219-1.863281 2.273437-2.492188 2.167969-6.335938-.242188-8.695313l-27.753906-26.441406h.40625c7.742187.058594 15.1875-2.980469 20.675781-8.449219 4.109375-3.894531 6.886719-8.984375 7.933594-14.550781h10.039062c3.3125 0 6-2.6875 6-6s-2.6875-6-6-6h-10.042968c-.820313-3.996094-2.535156-7.757812-5.015625-11zm0 0"/><path data-cppathid="10005" d="m427.191406 65h-98.191406v-22.941406c0-23.433594-18.546875-42.058594-41.050781-42.058594h-107.898438c-22.503906 0-41.050781 18.625-41.050781 42.058594v22.941406h-98.191406c-22.5 0-40.808594 18.714844-40.808594 42.148438v276.792968c0 23.433594 18.308594 42.058594 40.808594 42.058594h386.382812c22.5 0 40.808594-18.625 40.808594-42.058594v-276.792968c0-23.433594-18.308594-42.148438-40.808594-42.148438zm-276.191406-22.941406c0-16.816406 13.164062-30.058594 29.050781-30.058594h107.898438c15.886719 0 29.050781 13.242188 29.050781 30.058594v22.941406h-166zm276.191406 371.941406h-386.382812c-15.882813 0-28.808594-13.242188-28.808594-30.058594v-91.601562c7.476562 7.96875 17.882812 12.542968 28.808594 12.660156h135.191406v20.609375c.203125 3.484375 3.011719 6.246094 6.5 6.390625h103c3.3125 0 5.5-3.078125 5.5-6.390625v-20.609375h136.191406c10.925782-.117188 21.332032-4.691406 28.808594-12.660156v91.601562c0 16.816406-12.925781 30.058594-28.808594 30.058594zm-239.191406-94v-34h91v34zm239.191406-27h-136.191406v-13.160156c0-3.3125-2.1875-5.839844-5.5-5.839844h-103c-3.3125 0-6.5 2.527344-6.5 5.839844v13.160156h-135.191406c-15.882813 0-28.808594-13.910156-28.808594-30.730469v-155.121093c0-16.816407 12.925781-30.148438 28.808594-30.148438h386.382812c15.882813 0 28.808594 13.332031 28.808594 30.148438v155.121093c0 16.820313-12.925781 30.730469-28.808594 30.730469zm0 0"/><path data-cppathid="10006" d="m234 90c-45.5625 0-82.5 36.9375-82.5 82.5s36.9375 82.5 82.5 82.5 82.5-36.9375 82.5-82.5c-.050781-45.542969-36.957031-82.449219-82.5-82.5zm0 153c-38.9375 0-70.5-31.5625-70.5-70.5s31.5625-70.5 70.5-70.5 70.5 31.5625 70.5 70.5c-.042969 38.917969-31.582031 70.457031-70.5 70.5zm0 0"/></g></svg>