<?xml version="1.0" encoding="UTF-8"?>
<svg xmlns="http://www.w3.org/2000/svg" onmouseup="{ if(window.parent.document.onmouseup) window.parent.document.onmouseup(arguments[0]);}" width="512" viewBox="0 0 64 64" height="512" enable-background="new 0 0 64 64" id="Layer_3"><g><path data-cppathid="10000" fill="#a8b0bc" d="m58 52h-52c-2.209 0-4-1.791-4-4v-10c0-2.209 1.791-4 4-4h52c2.209 0 4 1.791 4 4v10c0 2.209-1.791 4-4 4z"/><path data-cppathid="10001" fill="#fadfb2" d="m54 48v-5h-6v5"/><circle data-cppathid="10002" r="7" fill="#f5cf88" cy="37" cx="51"/><path data-cppathid="10003" fill="#c18e59" d="m57.896 38.052-1.213.607c-1.764.882-3.71 1.341-5.683 1.341-1.973 0-3.919-.459-5.683-1.342l-1.24-.62c-.046-.323-.077-.702-.077-1.038 0-3.866 3.134-7 7-7s7 3.134 7 7c0 .336-.058.728-.104 1.052z"/><path data-cppathid="10004" fill="#c66b60" d="m54 48 5.404 2.027c1.562.585 2.596 2.078 2.596 3.745v8.228h-22v-8.228c0-1.667 1.034-3.16 2.596-3.745l5.404-2.027z"/><path data-cppathid="10005" fill="#fadfb2" d="m16 48v-5h-6v5"/><circle data-cppathid="10006" r="7" fill="#f5cf88" cy="37" cx="13"/><path data-cppathid="10007" fill="#c18e59" d="m19.896 38.052-1.213.607c-1.764.882-3.71 1.341-5.683 1.341-1.973 0-3.919-.459-5.683-1.342l-1.24-.62c-.046-.323-.077-.702-.077-1.038 0-3.866 3.134-7 7-7s7 3.134 7 7c0 .336-.058.728-.104 1.052z"/><path data-cppathid="10008" fill="#758190" d="m35 18 5.404 2.027c1.562.585 2.596 2.078 2.596 3.745v10.228h-22v-10.228c0-1.667 1.034-3.16 2.596-3.745l5.404-2.027"/><path data-cppathid="10009" fill="#e7e4dd" d="m31 23-1 3 2 8 2-8-1-3"/><path data-cppathid="10010" fill="#d5cec2" d="m31 19-1 3 2 2 2-2-1-3"/><path data-cppathid="10011" fill="#fadfb2" d="m29 15v3l3 2 3-2v-3z"/><circle data-cppathid="10012" r="7" fill="#fadfb2" cy="9" cx="32"/><path data-cppathid="10013" fill="#c18e59" d="m38.925 7.975-5.925-1.975-8 3c0-3.866 3.134-7 7-7 3.518 0 6.43 2.595 6.925 5.975z"/><path data-cppathid="10014" fill="#78b75b" d="m16 48 5.404 2.027c1.562.585 2.596 2.078 2.596 3.745v8.228h-22v-8.228c0-1.667 1.034-3.16 2.596-3.745l5.404-2.027z"/><path data-cppathid="10015" fill="#96cc7f" d="m21.231 49.962-5.231-1.962h-6l-5.404 2.027c-1.562.585-2.596 2.078-2.596 3.745v8.228h12.122c3.409-3.207 5.921-7.357 7.109-12.038z"/><path data-cppathid="10016" fill="#e47c6e" d="m59.231 49.962-5.231-1.962h-6l-5.404 2.027c-1.562.585-2.596 2.078-2.596 3.745v8.228h12.122c3.409-3.207 5.921-7.357 7.109-12.038z"/><path data-cppathid="10017" d="m62.07 50.883c.597-.839.929-1.833.929-2.884v-9.999c0-2.757-2.243-5-5-5h-.082c-1.386-2.387-3.964-4-6.917-4-2.954 0-5.532 1.613-6.918 4h-.083v-9.228c0-2.072-1.303-3.954-3.244-4.682l-4.756-1.784v-1.389c2.387-1.386 4-3.964 4-6.918 0-4.412-3.588-8-8-8s-8 3.588-8 8c0 2.953 1.613 5.531 4 6.917v1.39l-4.756 1.784c-1.94.728-3.243 2.609-3.243 4.681v9.229h-.082c-1.386-2.387-3.964-4-6.917-4-2.954 0-5.532 1.613-6.918 4h-.083c-2.757 0-5 2.243-5 5v10c0 1.055.327 2.052.925 2.89-.586.827-.925 1.829-.925 2.881v8.228c0 .553.447 1 1 1h22c.553 0 1-.447 1-1v-8.227c0-.261-.021-.52-.061-.773h14.123c-.041.253-.062.511-.062.772v8.228c0 .553.447 1 1 1h22c.553 0 1-.447 1-1v-8.228c0-1.055-.341-2.058-.93-2.888zm-1.071-12.883v10c0 .539-.152 1.05-.416 1.503-.262-.159-.534-.303-.828-.413l-4.756-1.784v-3.389c2.387-1.386 4-3.964 4-6.918 0-.652-.087-1.282-.234-1.889 1.282.342 2.234 1.502 2.234 2.89zm-9.999 4.999c-2.239 0-4.193-1.235-5.223-3.058 1.654.681 3.435 1.058 5.223 1.058s3.569-.377 5.223-1.058c-1.031 1.823-2.984 3.058-5.223 3.058zm-2.001 1.737c.641.166 1.309.263 2.001.263.691 0 1.359-.097 2-.263v2.264h-4v-2.264zm2.001-13.736c3.308 0 6 2.691 6 6 0 .132-.011.262-.02.392l-.744.372c-3.234 1.616-7.239 1.616-10.472 0l-.744-.372c-.009-.131-.02-.26-.02-.392 0-3.309 2.691-6 6-6zm-9.001-7.229v9.229h-8.719l1.689-6.758c.046-.185.039-.378-.021-.559l-.804-2.413.563-.563c.268-.268.361-.664.241-1.023l-.668-2.004.847-.565 4.925 1.847c1.165.437 1.947 1.566 1.947 2.809zm-10.554-2.939c.168.112.361.167.555.167.193 0 .387-.056.555-.168l.001-.001.299.899-.855.856-.856-.856.299-.899zm.004 3.979c.168.113.355.188.55.188s.381-.075.55-.188l.409 1.228-.958 3.837-.959-3.837zm.551-21.811c2.382 0 4.437 1.398 5.406 3.414l-4.09-1.363c-.214-.071-.451-.068-.667.012l-6.447 2.417c.676-2.574 3.015-4.48 5.798-4.48zm-5.959 6.677 6.979-2.617 4.966 1.655c.004.095.014.188.014.285 0 3.308-2.691 6-6 6-3.079-.001-5.621-2.333-5.959-5.323zm5.959 7.322c.691 0 1.359-.097 1.999-.263v.728l-2 1.333-2-1.333v-.728c.641.166 1.309.263 2.001.263zm-10 6.772c0-1.243.782-2.373 1.947-2.809l4.925-1.847.847.565-.668 2.003c-.12.359-.026.755.241 1.023l.563.563-.804 2.413c-.061.18-.068.374-.021.559l1.689 6.759h-8.719zm-7 23.229h-4v-2.264c.641.166 1.309.263 2.001.263.691 0 1.359-.097 2-.263v2.264zm-2-4.001c-2.239 0-4.193-1.235-5.223-3.058 1.654.681 3.435 1.058 5.223 1.058s3.569-.377 5.223-1.058c-1.031 1.823-2.984 3.058-5.223 3.058zm0-11.999c3.308 0 6 2.691 6 6 0 .132-.011.262-.02.392l-.744.372c-3.234 1.616-7.239 1.616-10.472 0l-.744-.372c-.009-.131-.02-.26-.02-.392 0-3.309 2.691-6 6-6zm-10 7c0-1.388.953-2.548 2.235-2.889-.148.607-.235 1.237-.235 1.889 0 2.953 1.613 5.531 4 6.917v3.39l-4.756 1.783c-.293.11-.565.253-.826.412-.265-.452-.418-.962-.418-1.502zm19.999 22.999h-19.999v-7.227c0-1.244.783-2.373 1.947-2.81l5.234-1.962h5.637l5.235 1.963c1.165.437 1.947 1.565 1.946 2.809zm1.149-9.999c-.57-.853-1.395-1.535-2.393-1.91l-4.756-1.784v-3.389c2.387-1.386 4-3.964 4-6.918 0-.692-.097-1.36-.263-2h.258c.002 0 .004.001.006.001l22-.001h.264c-.167.641-.264 1.309-.264 2.001 0 2.953 1.613 5.531 4 6.917v3.39l-4.756 1.784c-.998.374-1.822 1.056-2.393 1.91h-15.703zm36.852 9.999h-20v-7.227c0-1.244.783-2.373 1.947-2.81l5.234-1.962h5.637l5.235 1.963c1.164.436 1.947 1.565 1.947 2.808z"/></g></svg>