<?xml version="1.0" encoding="UTF-8"?>
<svg xmlns="http://www.w3.org/2000/svg" onmouseup="{ if(window.parent.document.onmouseup) window.parent.document.onmouseup(arguments[0]);}" height="512" width="512" viewBox="0 0 512 512"><g id="outline"><path data-cppathid="10000" d="M488,400H441.869a23.98,23.98,0,0,0-40.493,8H304V384c0-.152-31.156-71.8-31.156-71.8l14.288-28.576A84.427,84.427,0,0,0,296,246.059V224c0-.024,0-.047,0-.07,0-.1-.01-.206-.015-.309,0-.036,0-.072-.006-.107q8.2,1.267,16.356,2.746a7.988,7.988,0,0,0,4.091,4.9L328,236.944V240a8,8,0,0,0,8,8h24a8,8,0,0,0,7.155-4.422l2.425-4.849L478.2,263.8a8,8,0,1,0,3.6-15.59L376,223.79a7.982,7.982,0,0,0-.408-2.32L368,198.7V152a8,8,0,0,0-3.562-6.656l-48-32a8,8,0,0,0-2.869-1.189L280,105.441V74.422l9.5-14.241A24.037,24.037,0,0,0,272.476,23l-55.484-6.935A8,8,0,0,0,208,24v6.111A36.7,36.7,0,0,0,222.434,59.4L216.411,77.47a8,8,0,0,0,1.932,8.187L224,91.313V104a8,8,0,0,0,8,8h8v4l-11.2,8.4a52.062,52.062,0,0,0-15.925,19.738,7.923,7.923,0,0,0-1.489,1.163l-30.7,30.7H120a8,8,0,0,0-5.657,2.343l-16,16a8,8,0,0,0-1,10.095l2.081,3.122a656.15,656.15,0,0,0-72.949,15.473l-4.58,1.249A8,8,0,1,0,26.1,239.718l4.582-1.249a640.135,640.135,0,0,1,78.562-16.175l4.1,6.144a8,8,0,0,0,10.234,2.717L137.889,224H192a8,8,0,0,0,4.438-1.344L208,214.948v6.01c-8.274,9.308-39.88,44.862-54.49,61.271A37.563,37.563,0,0,0,144,307.238v.2a36.205,36.205,0,0,0,1.862,11.473l20.354,61.037-9.794,4.9A8,8,0,0,0,152,392v16H112a8.043,8.043,0,0,0-1.335.12A23.979,23.979,0,0,0,70.131,400H24a8,8,0,0,0-8,8v80a8,8,0,0,0,8,8H72a8,8,0,0,0,8-8V438.624a23.984,23.984,0,0,0,30.665-14.744A8.043,8.043,0,0,0,112,424H401.376A23.985,23.985,0,0,0,432,438.624V488a8,8,0,0,0,8,8h48a8,8,0,0,0,8-8V408A8,8,0,0,0,488,400ZM64,480H32V416H64Zm24-56a8,8,0,1,1,8-8A8.009,8.009,0,0,1,88,424Zm144-32v16h-8s-.014-24.291-.022-24.437c0-.1-22.956-69.8-22.956-69.8L216.7,295.479a47.605,47.605,0,0,0,3.4,27.435l25.489,57.35-9.163,4.581A8,8,0,0,0,232,392Zm56.2-200.195L293.958,163,320,173.416V198.7l-3.989,11.967c-7.991-1.459-16.047-2.777-24.082-3.938ZM344,232a8,8,0,0,0-4.422-7.155l-9.794-4.9L333.766,208h20.468l5.129,15.386L355.056,232ZM270.492,38.874a8.037,8.037,0,0,1,5.69,12.432l-5.425,8.137-9.1-9.1A8,8,0,0,0,256,48H234.048a20.792,20.792,0,0,1-9.84-14.912ZM237.657,82.343l-4.5-4.5L237.766,64h14.92l6.188,6.188L264,75.314v30.92l-8,2.666V104a8,8,0,0,0-8-8h-8V88A8,8,0,0,0,237.657,82.343ZM238.4,137.2l13.36-10.02,20.754-6.918,36.365,7.272L352,156.281V192H336V168a8,8,0,0,0-5.029-7.428l-40-16a8,8,0,0,0-10.816,5.859l-8,40a8.008,8.008,0,0,0,.084,3.509L277.754,216H224V166A36.171,36.171,0,0,1,238.4,137.2ZM136,208a7.994,7.994,0,0,0-3.578.845l-9.683,4.842-8.445-12.667,9.019-9.02H144v16Zm53.578,0H160V192h24a8,8,0,0,0,5.657-2.343L208,171.314v24.405ZM160,307.438v-.2a21.584,21.584,0,0,1,5.46-14.37c14.4-16.176,45.323-50.958,54.132-60.868H280v14.059a68.337,68.337,0,0,1-7.179,30.41l-15.976,31.953a8,8,0,0,0-.156,6.827l27,60.751H261.2l-26.482-59.584a31.528,31.528,0,0,1-.462-24.513l13.173-32.932a8,8,0,0,0-13.5-8.177l-48,56a8,8,0,0,0-1.515,7.736L204.9,376H181.765l-20.724-62.149A20.24,20.24,0,0,1,160,307.438ZM168,408V396.944L177.889,392H208v16Zm80,0V396.944L257.889,392H288v16Zm176,16a8,8,0,1,1,8-8A8.009,8.009,0,0,1,424,424Zm56,56H448V416h32Z"/></g></svg>