<?xml version="1.0" encoding="UTF-8"?>
<svg xmlns="http://www.w3.org/2000/svg" onmouseup="{ if(window.parent.document.onmouseup) window.parent.document.onmouseup(arguments[0]);}" height="512" width="512" xml:space="preserve" style="enable-background:new 0 0 497.007 497.007;" viewBox="0 0 497.007 497.007" y="0px" x="0px" id="Layer_1" version="1.1" xmlns:xlink="http://www.w3.org/1999/xlink"><g><path data-cppathid="10000" d="M485.667,279.038c-15.082-15.082-39.621-15.082-54.703,0l-34.759,34.758c-0.989,0.99-2.358,1.558-3.755,1.558H277.91   c-2.944,0-5.34-2.396-5.34-5.34c0-2.956,2.4-5.35,5.34-5.35h50.89c20.165,0,36.57-16.401,36.57-36.561   c0-20.351-16.488-36.57-36.57-36.57H223.83c-30.705,0-59.566,13.457-79.289,36.946l-44.114,45.13L87.96,301.141   c-5.905-5.905-15.453-5.79-21.216,0.003L4.393,363.495C1.58,366.308,0,370.123,0,374.101v105.78c0,8.284,6.716,15,15,15h144.49   c3.978,0,7.793-1.58,10.606-4.394c1.158-1.158,18.879-18.876,43-42.997c5.853-5.854,5.864-15.353,0-21.216l-12.398-12.398   c4.587-5.723,11.645-12.713,18.961-12.713h181.767c10.908-0.048,21.15-4.318,28.83-12.014l55.409-55.397   c0-0.001,0.001-0.001,0.001-0.002C500.787,318.631,500.787,294.158,485.667,279.038z M170.802,447.357L66.88,343.434   c3.457-3.457,6.932-6.932,10.472-10.472c11.885,11.88,90.283,90.281,103.923,103.921L170.802,447.357z M30,380.314l15.667-15.667   l100.234,100.234H30V380.314z M464.454,312.538l-55.421,55.41c-2.057,2.061-4.806,3.203-7.673,3.216h-181.7   c-16.08,0-29.816,9.094-40.297,21.377c-13.662-13.663-43.997-44.004-57.717-57.721c47.746-48.846,44.961-45.957,45.58-46.7   c14.013-16.896,34.645-26.587,56.604-26.587H328.8c3.593,0,6.57,2.915,6.57,6.57c0,3.617-2.947,6.561-6.57,6.561h-50.89   c-19.525,0-35.34,15.806-35.34,35.35c0,19.486,15.854,35.34,35.34,35.34h114.54c9.292,0,18.392-3.77,24.967-10.343l34.76-34.76   c3.385-3.385,8.893-3.385,12.277,0C467.842,303.638,467.842,309.15,464.454,312.538z"/><path data-cppathid="10001" d="M293.502,134.623l-2.863,55.264c-0.566,10.913,10.379,18.744,20.521,14.716l50.844-20.21l50.845,20.21   c10.141,4.027,21.087-3.794,20.521-14.716l-2.863-55.264l34.313-41.677c6.876-8.352,2.9-21.046-7.522-23.975l-52.955-14.88   L374.526,8.87c-2.775-4.21-7.48-6.744-12.523-6.744s-9.748,2.534-12.523,6.744l-29.813,45.222l-52.955,14.88   c-10.414,2.926-14.403,15.617-7.522,23.975L293.502,134.623z M333.169,81.46c3.474-0.976,6.479-3.172,8.466-6.185l20.368-30.896   l20.369,30.896c1.986,3.013,4.992,5.209,8.466,6.185l36.202,10.172l-23.396,28.418c-2.381,2.892-3.594,6.569-3.399,10.311   l1.954,37.726l-34.654-13.774c-3.559-1.414-7.523-1.414-11.082,0l-34.653,13.774l1.954-37.726   c0.194-3.741-1.019-7.419-3.399-10.311l-23.396-28.418L333.169,81.46z"/></g></svg>