<?xml version="1.0" encoding="UTF-8"?>
<svg xmlns="http://www.w3.org/2000/svg" onmouseup="{ if(window.parent.document.onmouseup) window.parent.document.onmouseup(arguments[0]);}" width="512" viewBox="0 0 256 256" height="512" enable-background="new 0 0 256 256"><g id="Layer_80"><g><g><g><path data-cppathid="10000" fill="#edf4fc" d="m225.112 144.601h-6.485c-1.222 0-2.297-.814-2.617-1.993-.869-3.209-2.143-6.251-3.763-9.07-.61-1.061-.427-2.397.438-3.263l4.59-4.591c1.087-1.086 1.087-2.848 0-3.935l-7.525-7.525c-1.086-1.086-2.848-1.086-3.934 0l-4.59 4.589c-.866.866-2.202 1.048-3.264.438-2.819-1.62-5.86-2.893-9.069-3.762-1.179-.319-1.993-1.395-1.993-2.617v-6.485c0-1.537-1.246-2.782-2.782-2.782h-10.643c-1.537 0-2.782 1.245-2.782 2.782v6.485c0 1.222-.814 2.298-1.993 2.617-3.209.869-6.251 2.142-9.07 3.762-1.061.61-2.398.427-3.264-.438l-4.59-4.589c-1.087-1.086-2.848-1.086-3.934 0l-7.526 7.525c-1.087 1.087-1.087 2.849 0 3.935l4.59 4.591c.866.866 1.048 2.202.438 3.263-1.619 2.819-2.893 5.861-3.762 9.07-.32 1.179-1.395 1.993-2.617 1.993h-6.485c-1.536 0-2.782 1.245-2.782 2.782v10.643c0 1.537 1.245 2.783 2.782 2.783h6.485c1.222 0 2.297.813 2.617 1.993.869 3.209 2.143 6.251 3.762 9.069.61 1.061.427 2.398-.438 3.264l-4.59 4.59c-1.087 1.086-1.087 2.849 0 3.935l7.525 7.525c1.086 1.086 2.848 1.086 3.934 0l4.59-4.59c.866-.866 2.202-1.048 3.264-.438 2.819 1.619 5.861 2.893 9.07 3.762 1.179.32 1.993 1.395 1.993 2.617v6.485c0 1.537 1.245 2.782 2.782 2.782h10.643c1.537 0 2.782-1.246 2.782-2.782v-6.485c0-1.222.814-2.297 1.993-2.617 3.209-.869 6.251-2.143 9.069-3.762 1.061-.61 2.398-.427 3.264.438l4.59 4.59c1.086 1.086 2.848 1.086 3.934 0l7.526-7.525c1.087-1.086 1.087-2.849 0-3.935l-4.59-4.59c-.866-.866-1.048-2.202-.438-3.264 1.619-2.819 2.893-5.86 3.763-9.069.319-1.18 1.395-1.993 2.617-1.993h6.485c1.536 0 2.782-1.246 2.782-2.783v-10.643c0-1.537-1.245-2.782-2.782-2.782z"/></g></g><g><g><path data-cppathid="10001" fill="#f9d0b4" d="m139.895 71.985c-.759 0-1.502.064-2.229.177v26.293c0 .783-.036 1.558-.088 2.329.756.122 1.526.202 2.316.202 8.009 0 14.501-6.492 14.501-14.501.001-8.008-6.492-14.5-14.5-14.5z"/></g></g><g><g><path data-cppathid="10002" fill="#f9d0b4" d="m119.547 60.642c-5.29 6.174-24.047 24.906-51.344 17.13v20.684c0 19.102 15.629 34.732 34.732 34.732 19.102 0 34.732-15.629 34.732-34.732v-28.06c0-1.276-.893-2.358-2.136-2.646-3.514-.814-7.782-2.85-12.673-7.294-.969-.879-2.461-.807-3.311.186z"/></g></g><g><g><path data-cppathid="10003" fill="#f9d0b4" d="m68.203 77.771c-2.385-.679-4.834-1.559-7.346-2.668-1.619-.715-3.511-.386-4.803.825-2.817 2.641-4.581 6.39-4.581 10.557 0 8.008 6.492 14.501 14.501 14.501.79 0 1.56-.08 2.316-.202-.052-.771-.088-1.546-.088-2.329v-20.684z"/></g></g><g><g><g><path data-cppathid="10004" fill="#754e34" d="m56.054 75.929c1.291-1.211 3.183-1.54 4.803-.825 2.512 1.109 4.961 1.988 7.346 2.668 27.297 7.776 46.055-10.956 51.344-17.13.85-.992 2.342-1.065 3.309-.186 4.892 4.445 9.159 6.48 12.673 7.294 1.243.288 2.136 1.37 2.136 2.646v1.766c.727-.113 1.47-.177 2.229-.177 4.012 0 7.643 1.63 10.268 4.263v-8.494c0-25.976-21.253-47.229-47.229-47.229s-47.229 21.253-47.229 47.229v8.535c.12-.118.228-.246.35-.36z"/></g></g></g><g><g><path data-cppathid="10005" fill="#f9d0b4" d="m173.475 201.802c-1.536 0-2.782-1.246-2.782-2.783v-6.484c0-1.222-.814-2.297-1.993-2.617-3.209-.869-6.251-2.143-9.07-3.762-1.061-.61-2.398-.427-3.264.438l-4.59 4.59c-1.087 1.086-2.848 1.086-3.934 0l-7.526-7.526c-1.087-1.086-1.087-2.848 0-3.935l4.59-4.59c.866-.866 1.048-2.203.438-3.264-1.619-2.818-2.893-5.86-3.762-9.069-.319-1.18-1.395-1.993-2.617-1.993h-6.485c-1.536 0-2.782-1.246-2.782-2.783v-7.457l-4.859-2.396c-3.298-1.626-5.386-4.983-5.386-8.66v-10.533c-4.92 2.682-10.551 4.208-16.52 4.208-5.97 0-11.6-1.526-16.52-4.208v10.533c0 3.677-2.088 7.034-5.386 8.66l-8.587 4.234c-1.919.946-3.933 1.687-6.009 2.209l-24.831 6.27c-6.044 1.521-10.396 6.796-10.743 13.019l-2.745 75.418c-.126 2.269 1.68 4.179 3.953 4.179h21.99c1.478 0 2.677-1.198 2.677-2.677v-47.143l3.883 12.438c2.539 8.133 3.83 16.604 3.83 25.125v9.58c0 1.479 1.198 2.677 2.677 2.677h30.345 10.937 30.345c1.478 0 2.677-1.198 2.677-2.677v-9.58c0-8.521 1.291-16.991 3.83-25.125l3.883-12.438v47.143c0 1.479 1.198 2.677 2.677 2.677h21.99c2.273 0 4.079-1.91 3.953-4.179l-1.729-47.519z"/></g></g><g><g><path data-cppathid="10006" fill="#5b5d60" d="m173.475 201.802c-1.536 0-2.782-1.246-2.782-2.783v-6.484c0-1.222-.814-2.297-1.993-2.617-3.209-.869-6.251-2.143-9.07-3.762-1.061-.61-2.398-.427-3.264.438l-4.59 4.59c-1.087 1.086-2.848 1.086-3.934 0l-7.526-7.526c-1.087-1.086-1.087-2.848 0-3.935l4.59-4.59c.866-.866 1.048-2.203.438-3.264-1.619-2.818-2.893-5.86-3.762-9.069-.319-1.18-1.395-1.993-2.617-1.993h-6.485c-1.536 0-2.782-1.246-2.782-2.783v-7.457l-4.859-2.396c-.274-.135-.526-.298-.782-.457l-20.446 79.733c-.449 1.75-.677 3.577-.677 5.415v20.638h5.468 30.345c1.478 0 2.677-1.198 2.677-2.677v-9.58c0-8.521 1.291-16.991 3.83-25.125l3.883-12.438v47.143c0 1.479 1.198 2.677 2.677 2.677h21.99c2.273 0 4.079-1.91 3.953-4.179l-1.729-47.519z"/></g></g><g><g><path data-cppathid="10007" fill="#5b5d60" d="m81.811 147.715c-.256.158-.508.322-.782.457l-8.587 4.234c-1.919.946-3.933 1.687-6.009 2.209l-24.833 6.269c-6.044 1.521-10.396 6.796-10.743 13.019l-2.744 75.418c-.127 2.269 1.68 4.179 3.953 4.179h21.99c1.478 0 2.677-1.198 2.677-2.677v-47.143l3.883 12.439c2.539 8.133 3.83 16.604 3.83 25.124v9.58c0 1.478 1.198 2.677 2.677 2.677h30.345 5.468v-20.636c0-1.838-.229-3.664-.677-5.415z"/></g></g><g><g><path data-cppathid="10008" fill="#9be5f9" d="m102.257 227.449c.148.576.263 1.163.362 1.753.021.124.04.248.059.373.089.586.16 1.176.201 1.771.035.504.056 1.011.056 1.518 0-.508.021-1.014.056-1.518.041-.595.112-1.185.201-1.771.019-.125.038-.248.059-.373.1-.59.215-1.177.362-1.753l15.02-58.572c-4.525 2.921-9.91 4.623-15.697 4.623s-11.172-1.703-15.697-4.623z"/></g></g><g><g><path data-cppathid="10009" fill="#754e34" d="m129.699 147.382c0-1.537 1.246-2.782 2.782-2.782h6.485c1.222 0 2.297-.814 2.617-1.993.869-3.209 2.143-6.25 3.762-9.07.61-1.061.427-2.397-.438-3.263l-4.59-4.591c-1.086-1.086-1.086-2.848 0-3.935l7.526-7.525c.043-.043.093-.073.138-.112 1.609-6.717 1.35-12.085.55-15.996-2.414 1.795-5.395 2.871-8.634 2.871-.79 0-1.56-.081-2.316-.202-.816 12.152-7.945 22.646-18.124 28.194v10.533c0 3.677 2.088 7.034 5.386 8.66l4.859 2.396v-3.185z"/></g></g><g><g><path data-cppathid="10010" fill="#754e34" d="m66.433 154.615c2.075-.523 4.089-1.263 6.009-2.209l8.587-4.234c3.298-1.626 5.386-4.984 5.386-8.66v-10.533c-10.179-5.548-17.308-16.042-18.124-28.194-.756.122-1.526.202-2.316.202-3.239 0-6.22-1.075-8.634-2.87-1.075 5.253-1.18 13.133 2.92 23.384 4.655 11.637-12.887 21.309-11.338 37.536z"/></g></g><g><g><path data-cppathid="10011" fill="#818182" d="m139.887 168.629-1.142-7.822h-6.265c-1.536 0-2.782-1.246-2.782-2.783v-7.457l-4.859-2.396c-.274-.135-.526-.298-.782-.457l-20.446 79.733c-.325 1.267-.531 2.575-.621 3.896l31.937-39.785c.578-.72.706-1.828.315-2.722l-4.727-10.796c-.529-1.207-.092-2.719.933-3.229l7.311-3.643c.813-.402 1.285-1.465 1.128-2.539z"/></g></g><g><g><path data-cppathid="10012" fill="#818182" d="m102.257 227.449-20.447-79.734c-.256.158-.508.322-.782.457l-8.587 4.234c-1.402.691-2.856 1.27-4.346 1.737l-2.114 14.487c-.157 1.074.315 2.136 1.128 2.541l7.31 3.643c1.025.511 1.462 2.022.933 3.23l-4.727 10.796c-.391.894-.263 2.002.315 2.722l31.937 39.785c-.09-1.324-.295-2.631-.62-3.898z"/></g></g><g><g><path data-cppathid="10013" d="m139.895 103.486c-.512 0-1.044-.028-1.581-.084-1.373-.142-2.372-1.369-2.229-2.743.141-1.373 1.356-2.385 2.743-2.229.367.037.727.057 1.067.057 6.617 0 12.001-5.383 12.001-12s-5.384-12.001-12.001-12.001c-.367 0-.729.019-1.088.053-1.394.125-2.594-.88-2.724-2.255-.129-1.375.88-2.594 2.255-2.724.524-.049 1.049-.074 1.557-.074 9.374 0 17.001 7.627 17.001 17.001s-7.627 16.999-17.001 16.999z"/></g></g><g><g><path data-cppathid="10014" d="m102.935 135.687c-20.53 0-37.232-16.702-37.232-37.231v-20.685c0-.784.368-1.522.994-1.995s1.44-.624 2.19-.409c25.92 7.384 43.876-10.649 48.762-16.353.85-.991 2.034-1.581 3.335-1.662 1.292-.081 2.59.376 3.555 1.254 3.951 3.59 7.839 5.847 11.556 6.708 2.397.556 4.072 2.646 4.072 5.081v28.06c-.001 20.529-16.703 37.232-37.232 37.232zm-32.233-54.708v17.477c0 17.772 14.459 32.231 32.232 32.231 17.772 0 32.231-14.459 32.231-32.231v-28.06c0-.113-.101-.187-.201-.21-4.514-1.046-9.108-3.656-13.656-7.759-5.357 6.199-23.794 24.436-50.606 18.552zm50.743-18.71c-.001.001-.001.001 0 0z"/></g></g><g><g><path data-cppathid="10015" d="m65.974 103.486c-9.374 0-17-7.626-17-17 0-4.669 1.957-9.182 5.37-12.382 2.032-1.903 4.983-2.406 7.522-1.288 2.328 1.028 4.69 1.887 7.021 2.551 1.327.379 2.097 1.762 1.719 3.09-.379 1.327-1.759 2.099-3.09 1.719-2.552-.728-5.133-1.665-7.67-2.785-.7-.308-1.519-.167-2.083.362-2.444 2.291-3.79 5.393-3.79 8.733 0 6.617 5.383 12 12 12 .356 0 .708-.021 1.055-.055 1.366-.141 2.6.865 2.736 2.238.138 1.373-.864 2.599-2.238 2.736-.528.054-1.05.081-1.552.081z"/></g></g><g><g><g><path data-cppathid="10016" d="m55.705 78.465c-1.381 0-2.5-1.119-2.5-2.5v-8.21c0-27.42 22.309-49.729 49.729-49.729s49.729 22.309 49.729 49.729v7.787c0 1.381-1.119 2.5-2.5 2.5s-2.5-1.119-2.5-2.5v-7.787c0-24.663-20.065-44.729-44.729-44.729s-44.729 20.065-44.729 44.729v8.21c0 1.381-1.119 2.5-2.5 2.5z"/></g></g></g><g><g><path data-cppathid="10017" d="m129.182 152.814c-.371 0-.748-.083-1.104-.259l-4.344-2.142c-4.183-2.063-6.78-6.24-6.78-10.902v-9.514c0-1.381 1.119-2.5 2.5-2.5s2.5 1.119 2.5 2.5v9.514c0 2.744 1.529 5.204 3.991 6.418l4.344 2.142c1.238.61 1.747 2.109 1.137 3.348-.436.883-1.322 1.395-2.244 1.395z"/></g></g><g><g><path data-cppathid="10018" d="m173.804 256h-21.989c-2.854 0-5.177-2.322-5.177-5.177v-30.476c-1.802 6.816-2.713 13.828-2.713 20.896v9.579c0 2.854-2.322 5.177-5.177 5.177h-71.627c-2.854 0-5.177-2.322-5.177-5.177v-9.579c0-7.068-.911-14.081-2.713-20.896v30.476c0 2.854-2.322 5.177-5.177 5.177h-21.989c-1.768 0-3.479-.736-4.693-2.021-1.215-1.284-1.854-3.033-1.756-4.798l2.742-75.369c.412-7.403 5.487-13.554 12.631-15.353l24.831-6.268c1.903-.479 3.759-1.161 5.516-2.027l8.587-4.234c2.462-1.214 3.991-3.673 3.991-6.418v-9.921c0-1.381 1.119-2.5 2.5-2.5s2.5 1.119 2.5 2.5v9.921c0 4.663-2.598 8.841-6.78 10.902l-8.587 4.234c-2.072 1.022-4.261 1.827-6.504 2.392l-24.831 6.268c-5.013 1.262-8.572 5.575-8.859 10.733l-2.742 75.37c-.032.595.233.962.395 1.132.161.171.514.457 1.061.457h21.989c.098 0 .177-.079.177-.177v-47.143c0-1.235.902-2.285 2.123-2.472 1.22-.188 2.395.547 2.764 1.727l3.883 12.438c2.616 8.382 3.943 17.086 3.943 25.87v9.579c0 .098.079.177.177.177h71.627c.098 0 .177-.079.177-.177v-9.579c0-8.784 1.327-17.488 3.943-25.87l3.883-12.438c.369-1.179 1.545-1.915 2.764-1.727 1.221.187 2.123 1.236 2.123 2.472v47.143c0 .098.079.177.177.177h21.989c.547 0 .898-.286 1.06-.456.161-.171.428-.539.397-1.085l-1.711-47c-.051-1.38 1.027-2.539 2.407-2.589 1.355-.048 2.539 1.027 2.589 2.407l1.709 46.952c.096 1.718-.545 3.466-1.76 4.75-1.216 1.285-2.926 2.021-4.693 2.021z"/></g></g><g><g><path data-cppathid="10019" d="m102.935 117.757c-4.776 0-9.263-1.949-11.999-5.215-.887-1.058-.748-2.635.311-3.521s2.636-.749 3.521.311c1.798 2.145 4.852 3.426 8.167 3.426s6.368-1.281 8.167-3.427c.89-1.058 2.465-1.195 3.522-.31 1.058.888 1.196 2.464.31 3.522-2.739 3.265-7.224 5.214-11.999 5.214z"/></g></g><g><g><path data-cppathid="10020" d="m102.935 254.831c-1.381 0-2.5-1.119-2.5-2.5v-19.468c0-1.631-.201-3.243-.6-4.792l-20.181-78.697c-.343-1.338.464-2.7 1.801-3.043 1.333-.336 2.699.464 3.043 1.801l20.181 78.696c.501 1.954.756 3.985.756 6.035v19.468c0 1.381-1.12 2.5-2.5 2.5z"/></g></g><g><g><path data-cppathid="10021" d="m102.935 176c-5.811 0-11.497-1.604-16.444-4.64-1.177-.722-1.545-2.262-.823-3.438.723-1.177 2.264-1.543 3.438-.823 4.159 2.553 8.941 3.901 13.829 3.901 4.932 0 9.748-1.37 13.93-3.963 1.173-.725 2.714-.367 3.442.808.728 1.174.366 2.715-.808 3.442-4.973 3.083-10.701 4.713-16.564 4.713z"/></g></g><g><g><path data-cppathid="10022" d="m148.066 116.251c-.187 0-.376-.021-.565-.065-1.345-.311-2.184-1.653-1.872-2.999 1.116-4.825 1.329-9.395.635-13.58-.227-1.361.694-2.649 2.057-2.875 1.363-.237 2.648.694 2.875 2.057.804 4.835.569 10.059-.695 15.525-.269 1.155-1.297 1.937-2.435 1.937z"/></g></g><g><g><path data-cppathid="10023" d="m48.879 161.063c-1.298 0-2.395-1.002-2.49-2.317-.634-8.643 3.51-15.414 7.165-21.39 3.882-6.346 6.171-10.462 4.385-14.927-3.453-8.633-4.523-16.75-3.182-24.126.247-1.358 1.548-2.256 2.907-2.013 1.358.247 2.26 1.549 2.013 2.907-.806 4.426-.955 11.726 2.904 21.374 2.808 7.02-1.041 13.311-4.763 19.394-3.421 5.593-6.959 11.376-6.443 18.415.101 1.377-.934 2.575-2.311 2.676-.062.005-.124.007-.185.007z"/></g></g><g><g><path data-cppathid="10024" d="m102.989 233.846c-.305 0-.612-.056-.909-.172-1.018-.397-1.659-1.409-1.584-2.499.103-1.487.336-2.949.694-4.348l20.259-79.005c.344-1.338 1.713-2.139 3.043-1.801 1.337.343 2.144 1.705 1.801 3.043l-18.56 72.379 25.245-31.448c-.008-.002-.005-.104-.026-.152l-4.727-10.797c-1.075-2.452-.13-5.355 2.108-6.47l7.083-3.529c0-.018-.001-.036-.004-.056l-1.011-6.925c-.199-1.366.746-2.636 2.112-2.835 1.37-.202 2.635.747 2.835 2.112l1.011 6.924c.313 2.141-.709 4.255-2.486 5.141l-7.084 3.53c-.001.035.003.073.015.101l4.728 10.797c.771 1.759.514 3.835-.655 5.29l-31.938 39.785c-.484.604-1.208.935-1.95.935z"/></g></g><g><g><path data-cppathid="10025" d="m102.564 233.451c-.732 0-1.458-.319-1.951-.935l-31.621-39.391c-1.168-1.454-1.426-3.53-.657-5.288l4.729-10.798c.012-.027.017-.065.016-.102l-7.084-3.53c-1.776-.885-2.799-2.998-2.487-5.139l1.999-13.694c.199-1.365 1.462-2.314 2.835-2.112 1.366.199 2.312 1.469 2.112 2.835l-1.999 13.693c-.003.02-.004.038-.004.055l7.084 3.53c2.236 1.113 3.183 4.016 2.108 6.469l-4.728 10.797c-.021.049-.019.15.001.192l31.595 39.352c.864 1.077.692 2.65-.384 3.515-.462.371-1.015.551-1.564.551zm-34.097-64.315h.011z"/></g></g><g><g><circle data-cppathid="10026" r="4" cy="90.816" cx="120.224"/></g></g><g><g><circle data-cppathid="10027" r="4" cy="90.816" cx="86.645"/></g></g><g><g><path data-cppathid="10028" d="m106.826 91.172h-7.783c-1.381 0-2.5-1.119-2.5-2.5s1.119-2.5 2.5-2.5h7.783c1.381 0 2.5 1.119 2.5 2.5s-1.119 2.5-2.5 2.5z"/></g></g><g><g><path data-cppathid="10029" d="m126.701 106.182h-8.617c-7.05 0-12.785-5.735-12.785-12.784v-5.961c0-5.296 4.309-9.604 9.604-9.604h14.979c5.296 0 9.604 4.309 9.604 9.604v5.961c0 7.048-5.735 12.784-12.785 12.784zm-11.799-23.35c-2.538 0-4.604 2.065-4.604 4.604v5.961c0 4.292 3.492 7.784 7.785 7.784h8.617c4.293 0 7.785-3.492 7.785-7.784v-5.961c0-2.539-2.065-4.604-4.604-4.604z"/></g></g><g><g><path data-cppathid="10030" d="m87.785 106.182h-8.617c-7.05 0-12.785-5.735-12.785-12.784v-5.961c0-5.296 4.309-9.604 9.604-9.604h14.979c5.295 0 9.604 4.309 9.604 9.604v5.961c-.001 7.048-5.736 12.784-12.785 12.784zm-11.799-23.35c-2.538 0-4.604 2.065-4.604 4.604v5.961c0 4.292 3.492 7.784 7.785 7.784h8.617c4.292 0 7.784-3.492 7.784-7.784v-5.961c0-2.539-2.065-4.604-4.604-4.604z"/></g></g><g><g><circle data-cppathid="10031" r="26" fill="#fcdd86" cy="152.704" cx="178.796"/></g></g><g><g><path data-cppathid="10032" fill="#f5c84c" d="m178.083 135.784c-7.693.358-13.984 6.754-14.225 14.452-.166 5.32 2.454 10.027 6.506 12.801 1.121.767 1.766 2.06 1.766 3.418v1.556c0 1.533 1.243 2.777 2.777 2.777h7.779c1.534 0 2.777-1.243 2.777-2.777v-1.556c0-1.365.655-2.656 1.78-3.427 3.923-2.692 6.5-7.197 6.5-12.314 0-8.491-7.081-15.329-15.66-14.93z"/></g></g><g><g><path data-cppathid="10033" fill="#70d6f9" d="m182.686 170.788h-7.779c-.485 0-.934-.135-1.331-.354v7.745c1.686.344 3.432.525 5.22.525s3.534-.181 5.22-.525v-7.745c-.396.219-.845.354-1.33.354z"/></g></g><g><g><path data-cppathid="10034" d="m184.118 204.302h-10.644c-2.912 0-5.281-2.369-5.281-5.282v-6.485c0-.097-.061-.18-.146-.203-3.37-.913-6.621-2.262-9.661-4.008-.081-.045-.182-.029-.252.038l-4.59 4.59c-2.059 2.063-5.411 2.061-7.47 0l-7.525-7.525c-.998-.996-1.548-2.323-1.548-3.734 0-1.412.55-2.739 1.549-3.736l4.589-4.589c.068-.068.084-.172.039-.251-1.748-3.042-3.097-6.292-4.009-9.661-.023-.086-.106-.146-.203-.146h-6.485c-2.912 0-5.281-2.369-5.281-5.282v-10.643c0-2.913 2.369-5.282 5.281-5.282h6.485c.097 0 .18-.061.203-.146.912-3.368 2.261-6.619 4.008-9.661.047-.081.031-.182-.038-.251l-4.59-4.591c-.998-.996-1.548-2.323-1.548-3.734s.55-2.737 1.548-3.735l7.525-7.524c2.06-2.063 5.412-2.06 7.47 0l4.59 4.589c.069.067.171.082.251.039 3.037-1.746 6.288-3.095 9.662-4.009.086-.023.146-.108.146-.203v-6.485c0-2.912 2.369-5.281 5.282-5.281h10.643c2.913 0 5.282 2.369 5.282 5.281v6.485c0 .095.061.18.145.203 3.373.913 6.624 2.262 9.663 4.008.082.049.182.03.251-.038l4.59-4.589c.998-.998 2.324-1.548 3.735-1.548s2.738.55 3.735 1.549l7.524 7.523c.998.998 1.548 2.324 1.548 3.735s-.55 2.738-1.549 3.735l-4.589 4.59c-.068.069-.084.171-.038.251 1.747 3.042 3.096 6.293 4.008 9.661.023.086.106.146.203.146h6.485c2.913 0 5.282 2.369 5.282 5.282v10.643c0 2.913-2.369 5.282-5.282 5.282h-6.485c-.097 0-.18.061-.203.146-.912 3.369-2.261 6.619-4.008 9.66-.046.079-.029.184.039.253l4.589 4.589c.998.996 1.548 2.323 1.548 3.735 0 1.411-.55 2.738-1.549 3.735l-7.524 7.524c-.996.998-2.323 1.548-3.734 1.548s-2.737-.55-3.735-1.548l-4.59-4.59c-.068-.068-.169-.085-.25-.039-3.044 1.748-6.294 3.097-9.663 4.009-.086.023-.146.106-.146.203v6.485c0 2.913-2.369 5.282-5.282 5.282zm-25.826-21.003c.887 0 1.779.226 2.585.689 2.668 1.532 5.521 2.716 8.477 3.517 2.261.612 3.84 2.681 3.84 5.029v6.485c0 .155.126.282.281.282h10.644c.155 0 .282-.127.282-.282v-6.485c0-2.349 1.578-4.417 3.839-5.029 2.955-.8 5.808-1.983 8.479-3.518 2.035-1.17 4.614-.823 6.276.839l4.59 4.59c.109.108.287.108.398.001l7.526-7.526c.055-.056.083-.122.083-.199 0-.078-.028-.145-.082-.199l-4.591-4.591c-1.661-1.663-2.006-4.244-.839-6.277 1.534-2.67 2.717-5.521 3.518-8.477.612-2.261 2.68-3.84 5.029-3.84h6.485c.155 0 .282-.127.282-.282v-10.643c0-.155-.127-.282-.282-.282h-6.485c-2.349 0-4.417-1.579-5.029-3.84-.8-2.954-1.983-5.807-3.518-8.478-1.167-2.033-.822-4.613.838-6.275l4.591-4.592c.055-.056.083-.122.083-.199 0-.078-.028-.145-.083-.2l-7.525-7.524c-.113-.11-.29-.109-.399 0l-4.59 4.589c-1.663 1.662-4.246 2.007-6.277.838-2.667-1.532-5.52-2.716-8.478-3.517-2.26-.61-3.839-2.679-3.839-5.029v-6.485c0-.155-.127-.281-.282-.281h-10.643c-.155 0-.282.126-.282.281v6.485c0 2.351-1.58 4.419-3.841 5.029-2.958.802-5.811 1.985-8.476 3.517-2.034 1.172-4.615.824-6.278-.838l-4.59-4.589c-.109-.109-.288-.109-.399 0l-7.525 7.524c-.055.056-.083.122-.083.2 0 .077.028.144.082.198l4.591 4.592c1.663 1.662 2.008 4.244.838 6.277-1.533 2.67-2.717 5.522-3.517 8.477-.612 2.261-2.681 3.84-5.029 3.84h-6.485c-.155 0-.281.127-.281.282v10.643c0 .155.126.282.281.282h6.485c2.35 0 4.417 1.579 5.029 3.84.801 2.955 1.983 5.807 3.518 8.477 1.169 2.033.824 4.614-.839 6.277l-4.59 4.59c-.055.056-.083.122-.083.2 0 .077.028.144.082.198l7.526 7.526c.111.109.288.11.399 0l4.59-4.59c1.004-1.004 2.341-1.527 3.693-1.527z"/></g></g><g><g><path data-cppathid="10035" d="m178.797 171.352c-1.381 0-2.5-1.119-2.5-2.5v-13c0-1.381 1.119-2.5 2.5-2.5s2.5 1.119 2.5 2.5v13c0 1.38-1.119 2.5-2.5 2.5z"/></g></g><g><g><path data-cppathid="10036" d="m181.797 157.352h-6c-1.381 0-2.5-1.119-2.5-2.5s1.119-2.5 2.5-2.5h6c1.381 0 2.5 1.119 2.5 2.5s-1.119 2.5-2.5 2.5z"/></g></g><g><g><path data-cppathid="10037" d="m178.797 181.204c-15.715 0-28.5-12.785-28.5-28.5s12.785-28.5 28.5-28.5 28.5 12.785 28.5 28.5-12.785 28.5-28.5 28.5zm0-52c-12.958 0-23.5 10.542-23.5 23.5s10.542 23.5 23.5 23.5 23.5-10.542 23.5-23.5-10.542-23.5-23.5-23.5z"/></g></g><g><g><path data-cppathid="10038" d="m182.686 173.288h-7.778c-2.909 0-5.276-2.367-5.276-5.276v-1.556c0-.558-.254-1.065-.679-1.356-4.941-3.382-7.78-8.968-7.594-14.941.282-9.04 7.577-16.45 16.608-16.871 4.839-.229 9.395 1.483 12.875 4.807 3.483 3.324 5.401 7.807 5.401 12.62 0 5.742-2.836 11.116-7.585 14.376-.436.298-.695.809-.695 1.365v1.557c0 2.908-2.367 5.275-5.277 5.275zm-4.487-35.007c-6.439.3-11.642 5.586-11.843 12.033-.133 4.261 1.893 8.245 5.42 10.66 1.787 1.224 2.854 3.272 2.854 5.481v1.556c0 .152.124.276.276.276h7.778c.153 0 .277-.124.277-.276v-1.557c0-2.206 1.071-4.258 2.866-5.488 3.39-2.326 5.414-6.159 5.414-10.253 0-3.434-1.368-6.632-3.854-9.004-2.482-2.37-5.773-3.576-9.188-3.428z"/></g></g><g><g><path data-cppathid="10039" d="m178.797 181.204c-1.921 0-3.846-.193-5.72-.576-1.165-.237-2.001-1.261-2.001-2.449v-7.745c0-.884.467-1.702 1.228-2.152.763-.449 1.705-.462 2.478-.038.024.014.086.045.126.045h7.778c.04 0 .1-.03.123-.043.775-.428 1.716-.415 2.479.036.762.449 1.229 1.268 1.229 2.152v7.745c0 1.188-.836 2.212-2.001 2.449-1.874.383-3.798.576-5.719.576zm-2.721-5.156c1.804.207 3.637.207 5.44 0v-2.76h-5.44z"/></g></g><g><g><path data-cppathid="10040" fill="#f5c84c" d="m38.822 94.33c-4.498-.838-8.043-4.31-8.898-8.716-.043-.221-.352-.221-.395 0-.855 4.406-4.4 7.879-8.898 8.716-.226.042-.226.345 0 .387 4.498.838 8.043 4.31 8.898 8.717.043.221.352.221.395 0 .855-4.406 4.4-7.879 8.898-8.717.225-.042.225-.344 0-.387z"/></g></g><g><g><path data-cppathid="10041" fill="#fc657e" d="m183.515 80.101c-2.862-.533-5.118-2.743-5.663-5.547-.027-.141-.224-.141-.251 0-.544 2.804-2.8 5.014-5.663 5.547-.144.027-.144.219 0 .246 2.862.533 5.118 2.743 5.663 5.547.027.141.224.141.251 0 .544-2.804 2.8-5.014 5.663-5.547.143-.027.143-.219 0-.246z"/></g></g><g><g><path data-cppathid="10042" fill="#70d6f9" d="m152.246 25.75h2.33v-2.33c0-1.744 1.413-3.157 3.157-3.157s3.157 1.413 3.157 3.157v2.33h2.329c1.744 0 3.157 1.413 3.157 3.157s-1.413 3.157-3.157 3.157h-2.329v2.33c0 1.744-1.413 3.157-3.157 3.157s-3.157-1.413-3.157-3.157v-2.33h-2.33c-1.744 0-3.157-1.413-3.157-3.157s1.413-3.157 3.157-3.157z"/></g></g><g><g><circle data-cppathid="10043" r="3.377" fill="#87d147" cy="128.825" cx="23.755"/></g></g><g><g><circle data-cppathid="10044" r="3.377" fill="#f5c84c" cy="3.377" cx="144.755"/></g></g></g></g></svg>