<?xml version="1.0" encoding="UTF-8"?>
<svg xmlns="http://www.w3.org/2000/svg" onmouseup="{ if(window.parent.document.onmouseup) window.parent.document.onmouseup(arguments[0]);}" width="512" viewBox="0 0 64 64" height="512" enable-background="new 0 0 64 64" id="Layer_35"><path data-cppathid="10000" fill="#5cd6b3" d="m16 62h-10c0-6.05 3.66-11.5 9.26-13.79l5.77-2.36c1.33 3 3.85 5.35 6.97 6.45v9.7z"/><path data-cppathid="10001" fill="#5cd6b3" d="m48 62h-12v-9.7c3.12-1.1 5.64-3.45 6.97-6.45l5.77 2.36c2.8 1.15 5.12 3.08 6.73 5.49 1.61 2.4 2.53 5.28 2.53 8.3z"/><path data-cppathid="10002" fill="#fcd770" d="m28 62v-9.7c-3.12-1.1-5.64-3.45-6.97-6.45l4.48-1.83c.52-.21.98-.53 1.36-.93 1.05 1.74 2.95 2.91 5.13 2.91s4.08-1.17 5.13-2.91c.38.4.84.72 1.36.93l4.48 1.83c-1.33 3-3.85 5.35-6.97 6.45v9.7z"/><path data-cppathid="10003" fill="#656d78" d="m20 24.35c0 6.04 3.09 11.54 8 14.72v1.24c0 .48-.09.96-.25 1.4h-.01c-2.37-.32-4.5-.86-6.28-1.43-3.27-1.05-5.46-4.15-5.46-7.59v-14.69c0-8.84 7.16-16 16-16s16 7.16 16 16v14.69c0 3.44-2.19 6.54-5.46 7.59-1.78.57-3.91 1.11-6.28 1.43h-.01c-.16-.44-.25-.92-.25-1.4v-1.24l4.69-4.46c2.1-2.92 3.31-6.49 3.31-10.26v-4.35h-2c-2.56 0-5.02-1.02-6.83-2.83l-.17-.17v3c-1.28 0-2.54-.26-3.7-.74s-2.22-1.18-3.13-2.09l-.17-.17v3c-1.28 0-2.54-.26-3.7-.74s-2.22-1.18-3.13-2.09l-.17-.17h-1z"/><path data-cppathid="10004" fill="#f0d0b4" d="m36.25 41.71c.19.52.49.99.88 1.38-1.05 1.74-2.95 2.91-5.13 2.91s-4.08-1.17-5.13-2.91c.39-.39.69-.86.88-1.38.16-.44.25-.92.25-1.4v-1.24c1.23.8 2.57 1.45 4 1.93 1.43-.48 2.77-1.13 4-1.93v1.24c0 .48.09.96.25 1.4z"/><path data-cppathid="10005" fill="#f0d0b4" d="m44 20v4.35c0 3.77-1.21 7.34-3.31 10.26l-4.69 4.46c-1.23.8-2.57 1.45-4 1.93-1.43-.48-2.77-1.13-4-1.93-4.91-3.18-8-8.68-8-14.72v-7.35h1l.17.17c.91.91 1.97 1.61 3.13 2.09s2.42.74 3.7.74v-3l.17.17c.91.91 1.97 1.61 3.13 2.09s2.42.74 3.7.74v-3l.17.17c1.81 1.81 4.27 2.83 6.83 2.83z"/><circle data-cppathid="10006" r="1" cy="24" cx="26"/><circle data-cppathid="10007" r="1" cy="24" cx="38"/><path data-cppathid="10008" d="m32 34c-1.103 0-2-.897-2-2h-2c0 2.206 1.794 4 4 4s4-1.794 4-4h-2c0 1.103-.897 2-2 2z"/><path data-cppathid="10009" d="m49.123 47.288-10.259-4.197c-.365-.149-.682-.368-.952-.631 1.65-.294 3.302-.703 4.93-1.227 3.683-1.185 6.158-4.618 6.158-8.54v-14.693c0-9.374-7.626-17-17-17s-17 7.626-17 17v14.693c0 3.922 2.475 7.355 6.158 8.541 1.628.523 3.28.933 4.93 1.227-.271.263-.588.482-.953.631l-10.259 4.197c-5.999 2.453-9.876 8.229-9.876 14.711v1h54v-1c0-6.482-3.877-12.258-9.877-14.712zm-17.123-7.346c-6.594-2.345-11-8.568-11-15.591v-5.972c1.94 1.696 4.398 2.621 7 2.621h1v-1.846c1.755 1.2 3.827 1.846 6 1.846h1v-1.846c1.755 1.2 3.827 1.846 6 1.846h1v3.351c0 7.023-4.406 13.247-11 15.591zm-3.036.854c.864.45 1.772.837 2.719 1.152l.317.106.316-.105c.947-.316 1.855-.702 2.719-1.152.082.857.371 1.662.842 2.349-.944 1.17-2.349 1.854-3.877 1.854s-2.933-.684-3.878-1.856c.471-.686.76-1.491.842-2.348zm-11.964-8.103v-14.693c0-8.271 6.729-15 15-15s15 6.729 15 15v14.693c0 3.051-1.917 5.718-4.771 6.636-1.72.553-3.468.966-5.209 1.247-.008-.087-.02-.173-.02-.262v-.718c4.921-3.401 8-9.039 8-15.245v-5.351h-3c-2.312 0-4.486-.9-6.121-2.536l-1.879-1.873v4.353c-1.935-.221-3.725-1.082-5.122-2.48l-1.878-1.873v4.353c-1.935-.221-3.725-1.082-5.122-2.48l-.465-.464h-2.413v8.351c0 6.206 3.079 11.845 8 15.245v.718c0 .089-.012.175-.02.262-1.741-.281-3.489-.694-5.209-1.247-2.854-.918-4.771-3.585-4.771-6.636zm8.894 12.249c.279-.114.538-.258.787-.415 1.318 1.561 3.233 2.473 5.319 2.473s4.001-.912 5.32-2.473c.248.157.507.301.787.415l3.48 1.424c-1.301 2.311-3.41 4.105-5.92 4.994l-.667.236v9.404h-6v-9.404l-.666-.235c-2.511-.89-4.619-2.683-5.92-4.994zm-10.259 4.198 4.921-2.013c1.412 2.625 3.694 4.712 6.444 5.862v8.011h-10v-6h-2v6h-7.965c.373-5.255 3.665-9.842 8.6-11.86zm33.365 11.86v-6h-2v6h-10v-8.012c2.75-1.149 5.032-3.237 6.444-5.862l4.921 2.013c4.935 2.019 8.227 6.605 8.6 11.86h-7.965z"/><path data-cppathid="10010" d="m31 57h2v2h-2z"/><path data-cppathid="10011" d="m31 53h2v2h-2z"/><path data-cppathid="10012" d="m31 49h2v2h-2z"/><path data-cppathid="10013" d="m32 7v-2c-3.693 0-7.225 1.58-9.689 4.333l1.49 1.334c2.086-2.331 5.074-3.667 8.199-3.667z"/><path data-cppathid="10014" d="m22.471 12.5-1.73-1.002c-.398.688-.735 1.418-1 2.168l1.885.667c.224-.634.508-1.25.845-1.833z"/></svg>