<?xml version="1.0" encoding="UTF-8"?>
<svg xmlns="http://www.w3.org/2000/svg" onmouseup="{ if(window.parent.document.onmouseup) window.parent.document.onmouseup(arguments[0]);}" xml:space="preserve" style="enable-background:new 0 0 512 512;" viewBox="0 0 512 512" y="0px" x="0px" id="Capa_1" version="1.1" xmlns:xlink="http://www.w3.org/1999/xlink"><path data-cppathid="10000" d="M361.645,316.653h-43.639l0,0v-58.794H193.994v58.794h-43.639  c-55.394,0-100.301,44.906-100.301,100.301V512h411.892v-95.047C461.946,361.558,417.04,316.653,361.645,316.653z" style="fill:#F2EEE6;"/><path data-cppathid="10001" d="M361.645,316.653h-43.639l0,0v-58.794H256V512h205.946v-95.047  C461.946,361.558,417.04,316.653,361.645,316.653z" style="fill:#E8E4DC;"/><path data-cppathid="10002" d="M134.546,115.814h242.909v48.636c0,67.077-54.377,121.455-121.454,121.455l0,0  c-67.077,0-121.455-54.377-121.455-121.455L134.546,115.814L134.546,115.814z" style="fill:#F2D1A5;"/><path data-cppathid="10003" d="M256,115.814h121.455v48.636c0,67.077-54.377,121.455-121.454,121.455l0,0  C256,232.473,256,115.814,256,115.814z" style="fill:#F2BB88;"/><rect data-cppathid="10004" height="30.646" width="39.84" style="fill:#544F43;" y="182.079" x="192.325"/><rect data-cppathid="10005" height="30.646" width="39.84" style="fill:#423E35;" y="182.079" x="279.829"/><polygon data-cppathid="10006" points="160.689,153.845 353.252,153.845 256.97,52.84 " style="fill:#F2EEE6;"/><polygon data-cppathid="10007" points="256,153.845 353.252,153.845 256.97,52.84 " style="fill:#E8E4DC;"/><path data-cppathid="10008" d="M322.102,17.465C302.606,6.353,280.046,0,256,0c-73.83,0-133.682,59.852-133.682,133.682  c0,24.084,6.368,46.679,17.513,66.196L256.026,83.592l116.143,116.286c11.145-19.516,17.513-42.112,17.513-66.196  C389.682,83.898,362.466,40.473,322.102,17.465z" style="fill:#FC9942;"/><path data-cppathid="10009" d="M322.102,17.465C302.606,6.353,280.046,0,256,0c0,26.673,0.026,83.592,0.026,83.592l116.143,116.286  c11.145-19.516,17.513-42.112,17.513-66.196C389.682,83.898,362.466,40.473,322.102,17.465z" style="fill:#FF873C;"/><g><rect data-cppathid="10010" height="30.646" width="30.646" style="fill:#544F43;" y="361.746" x="240.674"/><rect data-cppathid="10011" height="30.646" width="30.646" style="fill:#544F43;" y="421.547" x="240.674"/></g><g><rect data-cppathid="10012" height="30.646" width="15.323" style="fill:#423E35;" y="361.746" x="255.997"/><rect data-cppathid="10013" height="30.646" width="15.323" style="fill:#423E35;" y="421.547" x="255.997"/></g><g><path data-cppathid="10014" d="M389.682,133.682c0-49.785-27.217-93.209-67.581-116.217l-66.076,66.127l116.143,116.286   C383.314,180.361,389.682,157.766,389.682,133.682z" style="fill:#FA732D;"/><path data-cppathid="10015" d="M361.645,316.653h-43.639V512h61.371c0,0,0-159.038,0-193.784   C373.622,317.189,367.696,316.653,361.645,316.653z" style="fill:#FA732D;"/></g><path data-cppathid="10016" d="M150.355,316.653h43.639V512h-61.371c0,0,0-159.038,0-193.784  C138.379,317.189,144.304,316.653,150.355,316.653z" style="fill:#FF873C;"/><g/><g/><g/><g/><g/><g/><g/><g/><g/><g/><g/><g/><g/><g/><g/></svg>