<?xml version="1.0" encoding="UTF-8"?>
<svg xmlns="http://www.w3.org/2000/svg" onmouseup="{ if(window.parent.document.onmouseup) window.parent.document.onmouseup(arguments[0]);}" viewBox="0 0 840.5 427.81293" height="427.81293" width="840.5" data-name="Layer 1" id="bfca6550-aec3-4c0b-b342-e4bc13b78253"><ellipse data-cppathid="10000" fill="#e6e6e6" ry="59.37437" rx="29.09932" cy="328.665" cx="180.87223"/><path data-cppathid="10001" fill="#3f3d56" transform="translate(-179.75 -236.14703)" d="M363.30943,661.99829c-11.65458-69.92526-.11734-139.59789.00056-140.29293l2.267.384c-.11734.69168-11.58834,69.99825.00056,139.53165Z"/><rect data-cppathid="10002" fill="#3f3d56" transform="translate(-399.75211 6.28694) rotate(-28.1416)" height="2.29972" width="29.84136" y="558.94618" x="358.70631"/><rect data-cppathid="10003" fill="#3f3d56" transform="translate(-497.13412 368.28467) rotate(-61.84204)" height="29.84239" width="2.29972" y="552.22913" x="344.7038"/><rect data-cppathid="10004" fill="#3f3d56" height="165.09473" width="47.69403" y="3.9629" x="720.05882"/><polygon data-cppathid="10005" fill="#3f3d56" points="799.25 138 683.25 0 450.404 2.129 309.156 139.707 312.01 141.542 310.991 141.542 310.991 427.706 798.937 427.706 798.937 141.542 799.25 138"/><polygon data-cppathid="10006" fill="#6c63ff" points="683.371 0.294 538.455 170.193 538.455 427.706 798.937 427.706 798.937 137.873 683.371 0.294"/><rect data-cppathid="10007" fill="#3f3d56" height="47.02019" width="53.19723" y="285.29778" x="643.01459"/><rect data-cppathid="10008" fill="#3f3d56" height="46.27453" width="53.19723" y="203.91097" x="643.01459"/><rect data-cppathid="10009" fill="#fff" height="47.02019" width="53.19723" y="285.29778" x="643.01459"/><rect data-cppathid="10010" fill="#fff" height="46.27453" width="53.19723" y="203.91097" x="643.01459"/><path data-cppathid="10011" fill="#e6e6e6" transform="translate(-179.75 -236.14703)" d="M682.07942,655.46236s1.14042-23.89608,24.51916-21.11849"/><circle data-cppathid="10012" fill="#6c63ff" r="11.70089" cy="384.87436" cx="495.72365"/><rect data-cppathid="10013" fill="#e6e6e6" height="23.12018" width="3.30288" y="404.57796" x="493.81974"/><ellipse data-cppathid="10014" fill="#6c63ff" ry="116.12927" rx="56.91484" cy="237.09638" cx="110.9552"/><path data-cppathid="10015" fill="#3f3d56" transform="translate(-179.75 -236.14703)" d="M297.04464,663.14809c-22.76458-136.5853-.22962-272.67317.00057-274.03181l2.267.384c-.22962,1.35528-22.69834,137.0771.00056,273.27052Z"/><rect data-cppathid="10016" fill="#3f3d56" transform="translate(-361.23295 -32.18428) rotate(-28.1416)" height="2.29972" width="58.36761" y="462.86926" x="286.95709"/><rect data-cppathid="10017" fill="#3f3d56" transform="translate(-462.75097 247.02458) rotate(-61.84258)" height="58.36761" width="2.29972" y="448.63286" x="260.66997"/><ellipse data-cppathid="10018" fill="#6c63ff" ry="158.91374" rx="77.88347" cy="167.20096" cx="245.75351"/><path data-cppathid="10019" fill="#3f3d56" transform="translate(-179.75 -236.14703)" d="M434.59671,663.14809c-31.1399-186.83717-.3144-372.9922.00056-374.85051l2.267.384c-.3144,1.85494-31.07366,187.64393.00056,374.08922Z"/><rect data-cppathid="10020" fill="#3f3d56" transform="translate(-309.62058 27.14913) rotate(-28.1416)" height="2.29972" width="79.87126" y="389.57518" x="420.37482"/><rect data-cppathid="10021" fill="#3f3d56" transform="translate(-337.04307 320.472) rotate(-61.84329)" height="79.87126" width="2.29972" y="369.67007" x="384.82647"/><rect data-cppathid="10022" fill="#3f3d56" height="2" width="840.5" y="425.81293"/><rect data-cppathid="10023" fill="#3f3d56" height="47.02019" width="53.19723" y="272.82126" x="406.60242"/><rect data-cppathid="10024" fill="#3f3d56" height="46.27453" width="53.19723" y="191.43445" x="406.60242"/><rect data-cppathid="10025" fill="#fff" height="47.02019" width="53.19723" y="272.82126" x="406.60242"/><rect data-cppathid="10026" fill="#fff" height="46.27453" width="53.19723" y="191.43445" x="406.60242"/></svg>