<?xml version="1.0" encoding="UTF-8"?>
<svg xmlns="http://www.w3.org/2000/svg" onmouseup="{ if(window.parent.document.onmouseup) window.parent.document.onmouseup(arguments[0]);}" width="512" viewBox="0 0 64 64" height="512" enable-background="new 0 0 64 64" id="Layer_5"><g><path data-cppathid="10000" d="m49 27h-2v2c-1.654 0-3 1.346-3 3s1.346 3 3 3h2c.551 0 1 .448 1 1s-.449 1-1 1h-3v-1h-2v3h3v2h2v-2c1.654 0 3-1.346 3-3s-1.346-3-3-3h-2c-.551 0-1-.448-1-1s.449-1 1-1h3v1h2v-3h-3z"/><path data-cppathid="10001" d="m60 55h-16c-.475 0-.919.121-1.319.319.198-.4.319-.844.319-1.319v-2c0-1.654-1.346-3-3-3h-16c-.475 0-.919.121-1.319.319.198-.4.319-.844.319-1.319v-2c0-1.654-1.346-3-3-3h-16c-1.654 0-3 1.346-3 3v2c0 .771.301 1.468.78 2-.479.532-.78 1.229-.78 2v2c0 .771.301 1.468.78 2-.479.532-.78 1.229-.78 2v2c0 1.654 1.346 3 3 3h16c.771 0 1.468-.301 2-.78.532.48 1.229.78 2 .78h16c.771 0 1.468-.301 2-.78.532.48 1.229.78 2 .78h16c1.654 0 3-1.346 3-3v-2c0-1.654-1.346-3-3-3zm-36-4h1v2h2v-2h2v2h2v-2h2v2h2v-2h2v2h2v-2h1c.551 0 1 .448 1 1v2c0 .552-.449 1-1 1h-16c-.551 0-1-.448-1-1v-2c0-.552.449-1 1-1zm-20 4c-.551 0-1-.448-1-1v-2c0-.552.449-1 1-1h1v2h2v-2h2v2h2v-2h2v2h2v-2h2v2h2v-2h1c.551 0 1 .448 1 1v2c0 .552-.449 1-1 1zm-1-9c0-.552.449-1 1-1h1v2h2v-2h2v2h2v-2h2v2h2v-2h2v2h2v-2h1c.551 0 1 .448 1 1v2c0 .552-.449 1-1 1h-16c-.551 0-1-.448-1-1zm17 15h-16c-.551 0-1-.448-1-1v-2c0-.552.449-1 1-1h1v2h2v-2h2v2h2v-2h2v2h2v-2h2v2h2v-2h1c.551 0 1 .448 1 1v2c0 .552-.449 1-1 1zm20 0h-16c-.551 0-1-.448-1-1v-2c0-.552.449-1 1-1h1v2h2v-2h2v2h2v-2h2v2h2v-2h2v2h2v-2h1c.551 0 1 .448 1 1v2c0 .552-.449 1-1 1zm21-1c0 .552-.449 1-1 1h-16c-.551 0-1-.448-1-1v-2c0-.552.449-1 1-1h1v2h2v-2h2v2h2v-2h2v2h2v-2h2v2h2v-2h1c.551 0 1 .448 1 1z"/><path data-cppathid="10002" d="m63 15v-11h-11v2h7.586l-9.713 9.713-6.028-4.019-12.845 13.915v11.391h-14v-4-1-3h5c4.962 0 9-4.037 9-9v-1h-7c-2.826 0-5.349 1.312-7 3.356v-7.356h5c4.962 0 9-4.037 9-9v-1h-7c-2.904 0-5.484 1.389-7.131 3.53-.705-4.264-4.408-7.53-8.869-7.53h-7v1c0 4.963 4.038 9 9 9h5v3 1 11.356c-1.651-2.044-4.174-3.356-7-3.356h-7v1c0 4.963 4.038 9 9 9h5v4h-14v2h37.214c1.825 3.556 5.521 6 9.786 6s7.961-2.444 9.786-6h5.214v-2h-4.426c.271-.955.426-1.959.426-3 0-2.346-.744-4.517-2-6.305v-16.281l4-4v7.586zm-39 6h4.929c-.487 3.388-3.408 6-6.929 6h-4.929c.487-3.388 3.408-6 6.929-6zm0-14h4.929c-.487 3.388-3.408 6-6.929 6h-4.929c.487-3.388 3.408-6 6.929-6zm-14 2c-3.521 0-6.442-2.612-6.929-6h4.929c3.521 0 6.442 2.612 6.929 6zm0 22c-3.521 0-6.442-2.612-6.929-6h4.929c3.521 0 6.442 2.612 6.929 6zm38-8c-1.041 0-2.045.155-3 .426v-8.558l4 2.667v5.515c-.33-.029-.662-.05-1-.05zm-5 1.214c-1.6.821-2.973 2.019-4 3.481v-7.804l4-4.333zm-10 12.786v-10.609l4-4.333v11.942c0 1.041.155 2.045.426 3zm15 6c-4.962 0-9-4.037-9-9s4.038-9 9-9 9 4.037 9 9-4.038 9-9 9zm7-17.479c-1.158-.957-2.517-1.674-4-2.095v-6.012l4-4z"/></g></svg>