<?xml version="1.0" encoding="UTF-8"?>
<svg xmlns="http://www.w3.org/2000/svg" onmouseup="{ if(window.parent.document.onmouseup) window.parent.document.onmouseup(arguments[0]);}" width="512" viewBox="0 0 64 64" height="512" enable-background="new 0 0 64 64" id="Layer_5"><g><path data-cppathid="10000" d="m58.066 51.684-1.898.632.736 2.208c.064.191.096.391.096.593 0 1.038-.845 1.883-1.883 1.883h-5.117v2h5.117c2.141 0 3.883-1.742 3.883-3.883 0-.418-.066-.83-.198-1.226z"/><path data-cppathid="10001" d="m21.199 53.89c-.042.126-.077.254-.106.384l1.953.434c.014-.063.031-.126.052-.187l.538-1.616-1.898-.632z"/><path data-cppathid="10002" transform="matrix(.317 -.949 .949 .317 -31.031 56.419)" d="m22.636 48.744h2v1.999h-2z"/><path data-cppathid="10003" transform="matrix(.317 -.949 .949 .317 -26.567 55.025)" d="m23.9 44.949h2v1.999h-2z"/><path data-cppathid="10004" d="m59.374 42.962c2.029-.192 3.626-1.885 3.626-3.962 0-2.206-1.794-4-4-4h-.261c-.727-7.617-3.085-15.122-6.879-21.76-.789-1.382-2.268-2.24-3.86-2.24s-3.071.858-3.86 2.24c-1.932 3.381-3.491 6.988-4.657 10.718-1.281-1.198-2.811-2.059-4.483-2.53v-10.428c1.103 0 2-.897 2-2v-2c0-1.103-.897-2-2-2h-16.382l-2-4h-11.618v4h-2c-1.103 0-2 .897-2 2v2c0 1.103.897 2 2 2v16c-1.103 0-2 .897-2 2v2c0 1.103.897 2 2 2v16c-1.103 0-2 .897-2 2v2c0 1.103.897 2 2 2h14.009c0 .039-.009.078-.009.117 0 4.347 3.536 7.883 7.883 7.883h30.234c4.347 0 7.883-3.536 7.883-7.883 0-.85-.137-1.689-.405-2.493zm1.626-3.962c0 1.103-.897 2-2 2h-38c-1.103 0-2-.897-2-2s.897-2 2-2h38c1.103 0 2 .897 2 2zm-14-22h2v2h-2zm2 4v2h-2v-2zm2 14v-2h2v2zm-8-10h2v2h-2zm10 2h-2v-2h2zm-4 0h-2v-2h2zm0 2v2h-2v-2zm-6 0h2v2h-2zm2 4v2h-2v-2zm2 0h2v2h-2zm4-2v-2h2v2zm4-5.085c.475 1.676.872 3.372 1.178 5.085h-1.178zm-2-2.915h-2v-2h2zm-8 0h-2v-2h2zm-4 8h-1.178c.306-1.713.703-3.409 1.178-5.085zm-1.504 2h1.504v2h-1.728c.066-.668.132-1.335.224-2zm15.504 2v-2h1.504c.092.665.158 1.332.225 2zm-2.482-16h-1.518v-3.129c.538 1.026 1.049 2.067 1.518 3.129zm-3.518-5.764v1.764h-2v-1.764c.312-.141.647-.236 1-.236s.688.095 1 .236zm-4 2.635v3.129h-1.518c.469-1.062.98-2.103 1.518-3.129zm-6.15 10.314c-.772 2.893-1.305 5.844-1.589 8.815h-13.739c-.34-.96-.522-1.965-.522-3 0-4.962 4.037-9 9-9 2.67 0 5.135 1.162 6.85 3.185zm-31.85-23.185h8.382l1 2h-9.382zm-4 4h32l.001 2h-32.001zm2 4h28v10.057c-.331-.03-.663-.057-1-.057-4.264 0-7.961 2.444-9.786 6h-17.214zm-2 18h18.426c-.183.645-.313 1.313-.376 2h-18.05zm2 4h16.051c.061.68.191 1.347.376 2h-.427c-2.206 0-4 1.794-4 4 0 2.077 1.597 3.77 3.626 3.962l-2.013 6.038h-13.613zm-2 20v-2h14.946l-.541 1.624c-.041.123-.058.252-.093.376zm52.117 8h-30.234c-3.244 0-5.883-2.639-5.883-5.883 0-.634.102-1.26.302-1.86l3.418-10.257h34.56l3.419 10.257c.2.6.302 1.226.302 1.86-.001 3.244-2.64 5.883-5.884 5.883z"/><path data-cppathid="10005" d="m30 26h-2c0 1.682 1.757 3 4 3s4-1.318 4-3h-2c0 .408-.779 1-2 1s-2-.592-2-1z"/><path data-cppathid="10006" d="m42 57h2v2h-2z"/><path data-cppathid="10007" d="m46 57h2v2h-2z"/></g></svg>