<?xml version="1.0" encoding="UTF-8"?>
<svg xmlns="http://www.w3.org/2000/svg" onmouseup="{ if(window.parent.document.onmouseup) window.parent.document.onmouseup(arguments[0]);}" width="512" viewBox="0 0 512 512" height="512" enable-background="new 0 0 512 512" id="Capa_1"><g><g><path data-cppathid="10000" fill="#f5fcff" d="m251.507 248.232c35.977-21.511 60.065-60.839 60.065-105.792v-90.493h-.001v-.002h-234.784v90.497c0 45.004 24.145 84.379 60.199 105.867 8.262 4.929 8.285 16.978.035 21.931-36.113 21.663-60.234 60.701-60.234 105.728v90.497h234.784l.001-90.495c0-44.953-24.088-84.281-60.065-105.792-8.273-4.948-8.273-16.999 0-21.946z"/><path data-cppathid="10001" fill="#e0f5fc" d="m76.79 445.22h234.78v21.24h-234.78z"/><path data-cppathid="10002" fill="#f9af38" d="m487.66 241.69v90.2c0 .336-.011.67-.033 1-.515 7.823-11.704 11.046-19.648 11.046l-66.957-.086c-8.28 0-15-6.71-15-15l-2.151-87.844 52.637-10.432z"/><path data-cppathid="10003" fill="#f48931" d="m487.62 332.89c-.37 7.687-7.27 14.138-14.96 14h-77.24c-8.28 0-15-6.71-15-15v-90.2l6.367-4.477 7.633 4.477v87.2c0 2.2 1.8 4 4 4z"/><path data-cppathid="10004" fill="#f9af38" d="m486.98 336.35c.34-1.1.56-2.26.64-3.46-.07 1.2-.29 2.36-.64 3.46z"/><path data-cppathid="10005" fill="#f48931" d="m480.03 177.5-31.08-34.77c-1.987-2.225-4.348-3.894-6.895-5.006-7.642-3.337-15.347 2.431-21.31 9.106l-27.604 32.394c-4.91 5.5-7.63 12.62-7.63 19.99l-5.091 42.476h107.24v-44.2c0-7.37-2.72-14.49-7.63-19.99zm-45.99 30.05c-8.28 0-15-6.71-15-15 0-8.28 6.72-15 15-15s15 6.72 15 15c0 8.29-6.72 15-15 15z"/><path data-cppathid="10006" fill="#e1761c" d="m441.94 137.68-43.45 49.14c-2.62 2.95-4.07 6.73-4.07 10.67v44.2h-14v-44.2c0-7.37 2.72-14.49 7.63-19.99l31.08-34.77c5.93-6.64 15.19-8.33 22.81-5.05z"/><path data-cppathid="10007" fill="#e0f5fc" d="m323.07 74.78v-22.84h-226.28-20v90.5c0 45.01 24.14 84.38 60.2 105.87 8.26 4.93 8.28 16.98.03 21.93-36.11 21.66-60.23 60.7-60.23 105.73v90.49h20v-90.49c0-36.49 18.88-69.6 50.52-88.58 9.96-5.98 15.9-16.5 15.89-28.15-.02-11.64-5.99-22.15-15.97-28.11-31.12-18.54-50.44-52.53-50.44-88.69v-57.66c0-5.523 4.477-10 10-10z"/><g><path data-cppathid="10008" fill="#855b51" d="m326.572 500c-8.284 0-6.933-9.357-6.933-17.641l-.767-452.719c0-8.284-.585-14.64 7.699-14.64s15 6.716 15 15v455c.001 8.284-6.715 15-14.999 15z"/></g><g><path data-cppathid="10009" fill="#855b51" d="m61.369 500c8.284 0 15-6.716 15-15v-455c0-8.284-6.716-15-15-15s-4.454 33.716-4.454 42l-.766 415.38c0 8.284-3.064 27.62 5.22 27.62z"/></g><path data-cppathid="10010" fill="#f9af38" d="m276.49 408.341c-.975-32.76-21.68-60.309-50.371-72.249-8.72-3.629-14.418-12.12-14.418-21.562v-75.424c0-9.557 5.876-18.027 14.707-21.689 27.527-11.358 47.811-37.501 49.9-68.698.24-3.389-2.434-6.279-5.833-6.279-.003.002-152.588.002-152.588.002-3.403 0 .837 9.493 1.07 12.883 2.096 31.205 20.679 48.844 48.199 60.201 8.833 3.659 14.706 12.131 14.706 21.686l2.573 79.495c0 9.439-5.698 17.934-14.415 21.558-28.666 11.933-52.603 41.84-53.617 74.584-.035.897-4.577 53.615-4.577 53.615h153.683s11.018-9.739 11.013-21.245c-.005-16.387-.017-36.359-.032-36.878z"/><g fill="#724d44"><path data-cppathid="10011" d="m62.37 30c0-5.34 2.8-10.03 7-12.69-2.551-1.606-5.611-2.474-8.886-2.284-8.002.462-14.114 7.378-14.114 15.393v192.171 69.82 154.35 38.24c0 8.28 6.72 15 15 15 2.819-.009 5.616-.811 8-2.31-.005-.003-.01-.007-.015-.01 4.209-2.658 7.015-7.338 7.015-12.68v-39.78h-11c-1.657 0-3-1.343-3-3v-144.848c0-1.035.789-1.913 1.822-1.989 4.294-.315 8.399-1.339 12.178-2.974v-69.82c-3.779-1.635-7.884-2.659-12.178-2.974-1.032-.076-1.822-.954-1.822-1.989z"/><path data-cppathid="10012" d="m341.57 292.41v-69.82c-3.779-1.635-7.884-2.659-12.178-2.974-1.032-.076-1.822-.954-1.822-1.989v-187.627c0-5.34 2.8-10.03 7-12.69-2.53-1.599-5.575-2.466-8.847-2.287-8.014.44-14.153 7.351-14.153 15.377v192.19 69.82 152.81 39.78c0 8.28 6.72 15 15 15 2.819-.009 5.618-.807 8-2.31-.004-.003-.009-.006-.013-.009 4.21-2.657 7.013-7.338 7.013-12.681v-38.34c-2.524-.626-7.896-1.057-11.203-1.275-1.573-.104-2.797-1.408-2.797-2.984v-145.028c0-1.035.789-1.913 1.822-1.989 4.294-.315 8.399-1.339 12.178-2.974z"/></g><path data-cppathid="10013" fill="#f5fcff" d="m307.881 258.035c0 12.703 5.986 19.008 18.689 19.008 8.818 0 16.479-1.505 20.339-8.79 1.7-3.209 2.663-6.868 2.663-10.753 0-12.703-10.297-23-23-23-3.308 0-6.453.698-9.295 1.956-8.073 3.57-9.396 12.185-9.396 21.579z"/><path data-cppathid="10014" fill="#f5fcff" d="m84.369 257.5c0 3.535-.797 6.884-2.222 9.876-3.695 7.76-10.609 9.667-19.777 9.667-12.703 0-19.753-6.84-19.753-19.543 0-8.921.831-16.655 8.254-20.47 3.147-1.617 6.716-2.53 10.498-2.53 12.703 0 23 10.297 23 23z"/><path data-cppathid="10015" fill="#e0f5fc" d="m348.51 264.43c-2.94 9.31-11.65 16.07-21.94 16.07-12.7 0-23-10.3-23-23 0-10.28 6.75-18.99 16.06-21.93-.69 2.19-1.06 4.52-1.06 6.93 0 12.7 10.3 23 23 23 2.42 0 4.75-.37 6.94-1.07z"/><path data-cppathid="10016" fill="#e0f5fc" d="m83.31 264.43c-2.94 9.31-11.65 16.07-21.94 16.07-12.7 0-23-10.3-23-23 0-10.28 6.75-18.99 16.06-21.93-.69 2.19-1.06 4.52-1.06 6.93 0 12.7 10.3 23 23 23 2.42 0 4.75-.37 6.94-1.07z"/><path data-cppathid="10017" fill="#855b51" d="m323.07 46.149h-260.283c-18.933 0-29.277-5.578-29.277-24.511v-7c0-1.657 1.343-3 3-3l6.03-4.138h318.475c1.657 0 3 1.343 3 3v7c0 5.49-1.291 10.679-3.585 15.28-5.618 11.264-23.917 13.369-37.36 13.369z"/><path data-cppathid="10018" fill="#724d44" d="m360.43 32.78c-5.61 11.26-17.25 19-30.7 19h-271.11c-18.93 0-34.28-15.35-34.28-34.28v-7c0-1.66 1.35-3 3-3h15.2c3.95 14.57 17.26 25.28 33.08 25.28z"/><path data-cppathid="10019" fill="#f48931" d="m276.52 445.22h-143.669c-3.315 0-6.001-2.692-6-6.007.007-16.172.013-29.631.019-30.563.84-25.62 16.97-48.65 41.13-58.71 14.37-5.97 23.65-19.87 23.65-35.41v-75.43c0-15.56-9.4-29.51-23.96-35.54-10.648-4.396-19.783-11.43-26.694-20.13-8.271-10.411-12.556-23.436-12.556-36.733v-4.258c-6.61 0-10.55 0-10.55 0-3.41 0-6.07 2.89-5.84 6.28 2.1 31.21 22.38 57.34 49.9 68.7 8.83 3.66 14.7 12.13 14.7 21.68v75.43c0 9.44-5.7 17.94-14.41 21.56-28.67 11.93-49.35 39.46-50.37 72.2-.023.702-.04 57.361-.04 58.006v.164h164.7c0 .001 0-9.739-.01-21.239z"/><path data-cppathid="10020" fill="#855b51" d="m356.638 502.255-316.768-2.255c-1.657 0-3-1.343-3-3v-7c0-13.647-4.553-20.931 6.99-26.448 4.471-2.137 9.478-3.334 14.764-3.334h271.109c15.455 0 28.521 10.227 32.8 24.283.963 3.163-2.555 6.68-2.555 10.158l-.34 4.596c0 1.657-1.343 3-3 3z"/><path data-cppathid="10021" fill="#724d44" d="m364.02 494.5v7c0 1.66-1.35 3-3 3h-333.68c-1.65 0-3-1.34-3-3v-7c0-14.68 9.23-27.2 22.19-32.09-1.41 3.76-2.19 7.84-2.19 12.09v7c0 1.66 1.35 3 3 3h315.2c.96 3.16 1.48 6.52 1.48 10z"/></g><g><path data-cppathid="10022" d="m487.656 282.527c4.143 0 7.5-3.358 7.5-7.5v-77.534c0-9.231-3.387-18.105-9.537-24.987l-31.073-34.773c-4.71-5.372-13.522-9.59-21.657-9.145-12.814-35.053-40.344-65.485-75.328-79.957 8.556-7.656 13.953-18.773 13.953-31.131v-10c0-4.142-3.357-7.5-7.5-7.5h-234.684c-4.143 0-7.5 3.358-7.5 7.5s3.357 7.5 7.5 7.5h227.185v2.5c0 14.767-12.014 26.781-26.781 26.781h-271.109c-14.768 0-26.781-12.014-26.781-26.781v-2.5h62.486c4.143 0 7.5-3.358 7.5-7.5s-3.357-7.5-7.5-7.5h-69.986c-4.143 0-7.5 3.358-7.5 7.5v10c0 16.08 9.137 30.058 22.486 37.041v181.909c-5.235 5.479-8.461 12.893-8.461 21.051s3.226 15.572 8.461 21.051v178.909c-13.349 6.982-22.486 20.961-22.486 37.041v10c0 4.142 3.357 7.5 7.5 7.5h236.591c4.143 0 7.5-3.358 7.5-7.5s-3.357-7.5-7.5-7.5h-229.091v-2.5c0-14.767 12.014-26.781 26.781-26.781h18.146 252.963c14.768 0 26.781 12.014 26.781 26.781v2.5h-60.58c-4.143 0-7.5 3.358-7.5 7.5s3.357 7.5 7.5 7.5h68.08c4.143 0 7.5-3.358 7.5-7.5v-10c0-15.88-8.906-29.716-21.984-36.783v-180.174c4.69-5.365 7.541-12.376 7.541-20.045s-2.851-14.68-7.541-20.045v-175.945l3.261 1.396c30.63 13.113 54.274 39.188 65.87 70.366-1.87 1.261-3.598 2.751-5.126 4.462l-31.074 34.773c-6.15 6.882-9.537 15.756-9.537 24.987v134.4c0 12.407 10.094 22.5 22.5 22.5h77.233c12.406 0 22.5-10.093 22.5-22.5v-21.866c0-4.142-3.357-7.5-7.5-7.5s-7.5 3.358-7.5 7.5v21.866c0 4.136-3.364 7.5-7.5 7.5h-77.233c-4.136 0-7.5-3.364-7.5-7.5v-82.702h92.233v25.836c-.002 4.141 3.356 7.499 7.498 7.499zm-153.126-223.53v169.063c-2.539-.687-5.206-1.06-7.959-1.06-2.424 0-4.779.293-7.041.829.244-42.775-.687-125.9-.46-168.548 5.87-.106 9.345.274 15.46-.284zm-50.543 349.119c-1.032-34.489-22.615-65.479-54.984-78.95-5.955-2.479-9.803-8.224-9.803-14.636v-75.42c0-6.429 3.957-12.223 10.071-14.757 30.918-12.763 52.319-42.253 54.521-75.105.261-3.688-1.036-7.356-3.558-10.061-2.515-2.699-6.07-4.247-9.754-4.247h-152.59c-3.683 0-7.235 1.542-9.747 4.23-2.522 2.699-3.825 6.364-3.576 10.053 2.213 32.881 23.614 62.372 54.512 75.125 6.119 2.536 10.072 8.327 10.072 14.752v75.43c0 6.418-3.842 12.163-9.792 14.636-10.158 4.228-19.361 10.199-27.353 17.75-3.011 2.845-3.145 7.591-.3 10.602 2.844 3.012 7.591 3.144 10.603.3 6.664-6.297 14.34-11.278 22.811-14.803 11.561-4.805 19.031-15.987 19.031-28.486v-75.429c0-12.512-7.587-23.742-19.339-28.613-25.129-10.373-42.689-34.011-45.141-60.547h149.02c-2.441 26.531-20.003 50.17-45.152 60.552-11.747 4.869-19.338 16.103-19.338 28.618v75.42c0 12.489 7.473 23.67 19.038 28.484 26.939 11.211 44.899 36.941 45.753 65.461.015 1.159.033 26.866.038 44.244h-149.699c.004-16.883.021-43.068.035-44.195.26-8.346 1.931-16.487 4.966-24.199 1.517-3.854-.379-8.209-4.233-9.726-3.853-1.517-8.209.378-9.726 4.232-3.667 9.32-5.686 19.153-6 29.245-.023.823-.037 29.589-.042 44.643h-20.001v-79.229c.837-39.938 21.832-75.995 56.548-96.819 6.156-3.693 9.826-10.201 9.818-17.409-.009-7.21-3.695-13.711-9.866-17.395-34.185-20.372-55.663-57.383-56.5-97.025-.052-1.706-.042-82.128-.04-85.561h219.78v83.159c0 40.476-21.615 78.546-56.409 99.353-6.175 3.691-9.861 10.201-9.861 17.413 0 7.211 3.687 13.721 9.86 17.412 35.079 20.977 56.87 59.099 56.87 99.49v76.612h-20.501c-.005-15.421-.02-43.809-.042-44.604zm-238.118-150.616c0-8.547 6.953-15.5 15.5-15.5s15.5 6.953 15.5 15.5-6.953 15.5-15.5 15.5-15.5-6.953-15.5-15.5zm38.461 20.042c4.689-5.365 7.539-12.375 7.539-20.042s-2.85-14.678-7.539-20.042v-34.132c.822 1.56 1.665 3.109 2.552 4.636 11.164 19.226 27.163 35.406 46.265 46.789 2.298 1.372 2.549 3.625 2.55 4.53.001.904-.244 3.154-2.535 4.528-21.184 12.708-37.844 30.449-48.831 51.198v-37.465zm171.028-13.8c-2.309-1.38-2.559-3.633-2.559-4.537 0-.905.25-3.158 2.56-4.538 19.06-11.398 35.021-27.574 46.158-46.78 1.055-1.82 2.049-3.672 3.013-5.538v34.102c-5.234 5.478-8.459 12.892-8.459 21.049s3.225 15.57 8.459 21.049v37.244c-11.124-21.181-28-39.39-49.172-52.051zm55.713-6.242c0-8.547 6.953-15.5 15.5-15.5s15.5 6.953 15.5 15.5-6.953 15.5-15.5 15.5-15.5-6.953-15.5-15.5zm-252.446-198.219h10.665c-.021 42.721.06 126.147.04 168.78-2.54-.688-5.207-1.061-7.961-1.061-2.423 0-4.778.292-7.039.829v-168.768c1.412.145 2.845.22 4.295.22zm-4.295 393.658v-165.768c2.261.536 4.616.829 7.039.829 2.754 0 5.421-.373 7.961-1.061.023 41.959-.058 124.109-.04 165.78-5.35.086-9.521-.22-14.96.22zm275.403-.22h-10.203v-165.548c2.262.537 4.617.829 7.041.829 2.753 0 5.42-.373 7.959-1.06v166.063c-1.575-.181-3.174-.284-4.797-.284zm104.307-267.666c4.136 0 7.5 3.364 7.5 7.5s-3.364 7.5-7.5 7.5-7.5-3.364-7.5-7.5 3.364-7.5 7.5-7.5zm-46.117 49.138v-36.698c0-5.539 2.032-10.863 5.723-14.992l29.777-33.322c1.652 7.243 2.665 14.674 2.992 22.206-8.664 3.131-14.875 11.436-14.875 21.167 0 12.407 10.094 22.5 22.5 22.5s22.5-10.093 22.5-22.5c0-9.818-6.323-18.181-15.109-21.247-.365-9.254-1.682-18.368-3.831-27.229 2.196.645 4.177 1.88 5.76 3.651l31.073 34.773c3.69 4.129 5.723 9.454 5.723 14.992v36.698h-92.233z"/><path data-cppathid="10023" d="m405.9 321.979c1.465 1.464 3.385 2.197 5.304 2.197s3.839-.732 5.304-2.197l45-45c2.929-2.929 2.929-7.678 0-10.606-2.93-2.929-7.678-2.929-10.607 0l-45 45c-2.929 2.928-2.929 7.677-.001 10.606z"/><path data-cppathid="10024" d="m411.256 279.208c4.143 0 7.5-3.358 7.5-7.5s-3.357-7.5-7.5-7.5h-.01c-4.142 0-7.495 3.358-7.495 7.5s3.363 7.5 7.505 7.5z"/><path data-cppathid="10025" d="m456.256 324.208c4.143 0 7.5-3.358 7.5-7.5s-3.357-7.5-7.5-7.5h-.01c-4.142 0-7.495 3.358-7.495 7.5s3.363 7.5 7.505 7.5z"/></g></g></svg>