<?xml version="1.0" encoding="UTF-8"?>
<svg xmlns="http://www.w3.org/2000/svg" onmouseup="{ if(window.parent.document.onmouseup) window.parent.document.onmouseup(arguments[0]);}" width="503pt" viewBox="0 -9 503.888 503" height="503pt"><path data-cppathid="10000" fill="#f9d335" d="m495.882812 109.0625c0 36.253906-29.386718 65.644531-65.644531 65.644531-36.253906 0-65.640625-29.390625-65.640625-65.644531s29.386719-65.640625 65.640625-65.640625c36.257813 0 65.644531 29.386719 65.644531 65.640625zm0 0"/><path data-cppathid="10001" fill="#f9d335" d="m495.882812 279.589844c0 36.253906-29.386718 65.640625-65.644531 65.640625-36.253906 0-65.640625-29.386719-65.640625-65.640625 0-36.257813 29.386719-65.644532 65.640625-65.644532 36.257813 0 65.644531 29.386719 65.644531 65.644532zm0 0"/><path data-cppathid="10002" fill="#f2c300" d="m495.875 109.0625c0 36.261719-29.382812 65.640625-65.640625 65.640625-5.160156 0-10.179687-.597656-15-1.71875 29.039063-6.78125 50.640625-32.820313 50.640625-63.921875 0-31.097656-21.601562-57.136719-50.640625-63.917969 4.820313-1.121093 9.839844-1.71875 15-1.71875 36.257813 0 65.640625 29.378907 65.640625 65.636719zm0 0"/><path data-cppathid="10003" fill="#f2c300" d="m495.875 279.585938c0 36.257812-29.382812 65.636718-65.640625 65.636718-5.160156 0-10.179687-.597656-15-1.71875 29.039063-6.78125 50.640625-32.820312 50.640625-63.917968 0-31.082032-21.601562-57.121094-50.640625-63.921876 4.820313-1.121093 9.839844-1.71875 15-1.71875 36.257813 0 65.640625 29.398438 65.640625 65.640626zm0 0"/><path data-cppathid="10004" fill="#f9e27d" d="m445.234375 172.984375c-4.820313 1.121094-9.839844 1.71875-15 1.71875-36.242187 0-65.640625-29.378906-65.640625-65.640625 0-36.257812 29.398438-65.636719 65.640625-65.636719 5.160156 0 10.179687.597657 15 1.71875-29.019531 6.78125-50.640625 32.820313-50.640625 63.917969 0 31.101562 21.621094 57.140625 50.640625 63.921875zm0 0"/><path data-cppathid="10005" fill="#f9e27d" d="m445.234375 343.503906c-4.820313 1.121094-9.839844 1.71875-15 1.71875-36.242187 0-65.640625-29.378906-65.640625-65.636718 0-36.242188 29.398438-65.640626 65.640625-65.640626 5.160156 0 10.179687.597657 15 1.71875-29.019531 6.800782-50.640625 32.839844-50.640625 63.921876 0 31.097656 21.621094 57.136718 50.640625 63.917968zm0 0"/><g fill="#5f266d"><path data-cppathid="10006" d="m134.605469 366.378906c1.25.71875 2.625 1.066406 3.984375 1.066406 2.386718 0 4.734375-1.066406 6.296875-3.058593l84-107c.667969-.855469 1.160156-1.835938 1.4375-2.882813l24.996093-93.851562 22.339844-21.671875 22.097656 109.546875c.382813 1.914062 1.460938 3.625 3.023438 4.800781l55.5 41.871094c7.179688 33.128906 36.710938 58.03125 71.960938 58.03125 40.609374 0 73.644531-33.035157 73.644531-73.640625 0-40.609375-33.035157-73.644532-73.644531-73.644532-38.746094 0-70.574219 30.082032-73.414063 68.113282l-41.984375-31.671875-23.527344-116.648438 32.003906-31.046875 33.75 22.589844c4.101563 36.753906 35.34375 65.429688 73.171876 65.429688 40.609374 0 73.644531-33.039063 73.644531-73.644532 0-40.605468-33.035157-73.644531-73.644531-73.644531-36.929688 0-67.59375 27.332031-72.84375 62.828125l-30.554688-20.453125c-3.136719-2.097656-7.3125-1.722656-10.019531.90625l-29.269531 28.394531-8.113282-40.234375c-.734375-3.640625-3.882812-6.300781-7.597656-6.414062-3.714844-.101563-7.019531 2.347656-7.976562 5.9375l-22.863282 85.867187-48.371094 46.910156-31.734374-40.640624c-2.707032-3.472657-7.71875-4.101563-11.203126-1.402344l-91.691406 71.035156v-219.710938c0-4.417968-3.582031-8-8-8-4.417968 0-8 3.582032-8 8v416.355469h-34.003906c-4.417969 0-8 3.582031-8 8s3.582031 8 8 8h34.003906v35.644531c0 4.417969 3.582032 8 8 8 4.417969 0 8-3.582031 8-8v-35.644531h417.996094c4.417969 0 8-3.582031 8-8s-3.582031-8-8-8h-417.996094v-102.519531zm295.632812-144.433594c31.789063 0 57.644531 25.859376 57.644531 57.644532 0 31.78125-25.859374 57.640625-57.644531 57.640625-31.78125 0-57.640625-25.859375-57.640625-57.640625 0-31.785156 25.855469-57.644532 57.640625-57.644532zm0-170.523437c31.789063 0 57.644531 25.859375 57.644531 57.640625 0 31.785156-25.859374 57.644531-57.644531 57.644531-31.78125 0-57.640625-25.859375-57.640625-57.644531 0-31.78125 25.855469-57.640625 57.640625-57.640625zm-159.71875 52.148437 3.378907 16.765626-10.578126 10.257812zm-117.324219 71.078126 32.308594 41.382812c1.398438 1.789062 3.488282 2.902344 5.753906 3.058594 2.289063.160156 4.492188-.65625 6.121094-2.238282l35.613282-34.546874-17.703126 66.488281-78.707031 100.261719-78.578125-45.238282v-55.417968zm0 0"/><path data-cppathid="10007" d="m438.003906 128.398438h-20.625c-.308594 0-.574218-.269532-.574218-.574219 0-4.417969-3.582032-8-8-8-4.417969 0-8 3.582031-8 8 0 9.140625 7.433593 16.574219 16.574218 16.574219h4.921875v6.539062c0 4.417969 3.582031 8 8 8s8-3.582031 8-8v-6.554688c11.808594-.160156 21.371094-9.804687 21.371094-21.652343 0-11.945313-9.722656-21.664063-21.667969-21.664063h-15.53125c-3.179687 0-5.667968-2.492187-5.667968-5.667968 0-3.175782 2.492187-5.667969 5.667968-5.667969h20.625c.304688 0 .574219.269531.574219.574219 0 4.417968 3.582031 8 8 8s8-3.582032 8-8c0-9.136719-7.433594-16.574219-16.574219-16.574219h-4.796875v-6.535157c0-4.417968-3.582031-8-8-8s-8 3.582032-8 8v6.542969c-11.867187.097657-21.496093 9.773438-21.496093 21.660157 0 11.949218 9.722656 21.667968 21.667968 21.667968h15.53125c3.179688 0 5.667969 2.488282 5.667969 5.664063s-2.488281 5.667969-5.667969 5.667969zm0 0"/><path data-cppathid="10008" d="m431.988281 327.257812h16.578125c4.417969 0 8-3.582031 8-8 0-4.417968-3.582031-8-8-8h-16.578125c-5.726562 0-10.96875-4.109374-14.640625-10.5h25.480469c4.417969 0 8-3.582031 8-8 0-4.417968-3.582031-8-8-8h-30.457031c-.183594-1.691406-.304688-3.410156-.304688-5.167968 0-1.753906.121094-3.476563.304688-5.164063h30.457031c4.417969 0 8-3.582031 8-8s-3.582031-8-8-8h-25.480469c3.671875-6.394531 8.914063-10.5 14.640625-10.5h16.578125c4.417969 0 8-3.582031 8-8s-3.582031-8-8-8h-16.578125c-14.375 0-26.527343 10.671875-32.304687 26.5h-11.773438c-4.417968 0-8 3.582031-8 8s3.582032 8 8 8h8.363282c-.132813 1.695313-.207032 3.417969-.207032 5.164063 0 1.75.074219 3.472656.207032 5.167968h-8.363282c-4.417968 0-8 3.582032-8 8 0 4.417969 3.582032 8 8 8h11.773438c5.777344 15.828126 17.929687 26.5 32.304687 26.5zm0 0"/></g></svg>