<?xml version="1.0" encoding="UTF-8"?>
<svg xmlns="http://www.w3.org/2000/svg" onmouseup="{ if(window.parent.document.onmouseup) window.parent.document.onmouseup(arguments[0]);}" width="512" viewBox="0 0 64 64" height="512" enable-background="new 0 0 64 64" id="Layer_5"><path data-cppathid="10000" d="m48 44c1.654 0 3-1.346 3-3s-1.346-3-3-3-3 1.346-3 3 1.346 3 3 3zm0-4c.551 0 1 .449 1 1s-.449 1-1 1-1-.449-1-1 .449-1 1-1z"/><path data-cppathid="10001" d="m56 46c-1.654 0-3 1.346-3 3s1.346 3 3 3 3-1.346 3-3-1.346-3-3-3zm0 4c-.551 0-1-.449-1-1s.449-1 1-1 1 .449 1 1-.449 1-1 1z"/><path data-cppathid="10002" transform="matrix(.707 -.707 .707 .707 -16.589 49.95)" d="m43.515 44h16.971v2h-16.971z"/><path data-cppathid="10003" d="m60.798 23-19.798 8.336v31.664h22v-40zm.202 38h-18v-28.336l18-7.579z"/><path data-cppathid="10004" d="m20 40.073v-3.073h1c2.206 0 4-1.794 4-4v-1h12.414l16.586-16.586 3.667 3.667 2.549-15.297-15.297 2.549 3.667 3.667-14 14h-9.637c-.396-4.762-3.582-8.734-7.917-10.288 1.793-1.269 2.968-3.354 2.968-5.712 0-3.86-3.14-7-7-7s-7 3.14-7 7c0 2.358 1.175 4.443 2.967 5.712-4.636 1.662-7.967 6.088-7.967 11.288v8c0 2.206 1.794 4 4 4h1v22c0 2.206 1.794 4 4 4 1.2 0 2.266-.542 3-1.382.734.84 1.8 1.382 3 1.382h23v-30h-2.202zm15.414-14.073 16-16-2.333-2.333 8.703-1.451-1.451 8.703-2.333-2.333-17.414 17.414h-11.586v-4zm-22.414-11c.678 0 1.34.069 1.98.198-.101 1.009-.945 1.802-1.98 1.802s-1.879-.793-1.98-1.802c.64-.129 1.302-.198 1.98-.198zm-5-7c0-2.757 2.243-5 5-5s5 2.243 5 5-2.243 5-5 5-5-2.243-5-5zm6 51v-27h-2v27c0 1.103-.897 2-2 2s-2-.897-2-2v-38h-2v14h-1c-1.103 0-2-.897-2-2v-8c0-4.124 2.51-7.671 6.081-9.198.372 1.822 1.988 3.198 3.919 3.198s3.547-1.376 3.919-3.198c3.571 1.527 6.081 5.074 6.081 9.198v8c0 1.103-.897 2-2 2h-1v-14h-2v38c0 1.103-.897 2-2 2s-2-.897-2-2zm23 2h-17.556c.344-.591.556-1.268.556-2v-16.757l17-7.158z"/><path data-cppathid="10005" d="m28 51c.551 0 1 .449 1 1v1h-1c-.551 0-1-.449-1-1h-2c0 1.302.839 2.402 2 2.816v2.184h2v-2h2v-3c0-1.654-1.346-3-3-3-.551 0-1-.449-1-1v-1h1c.551 0 1 .449 1 1h2c0-1.302-.839-2.402-2-2.816v-2.184h-2v2h-2v3c0 1.654 1.346 3 3 3z"/><path data-cppathid="10006" d="m33 57h2v2h-2z"/><path data-cppathid="10007" d="m33 53h2v2h-2z"/><path data-cppathid="10008" d="m33 49h2v2h-2z"/><path data-cppathid="10009" d="m57 57h2v2h-2z"/><path data-cppathid="10010" d="m53 57h2v2h-2z"/><path data-cppathid="10011" d="m49 57h2v2h-2z"/></svg>