<?xml version="1.0" encoding="UTF-8"?>
<svg xmlns="http://www.w3.org/2000/svg" onmouseup="{ if(window.parent.document.onmouseup) window.parent.document.onmouseup(arguments[0]);}" width="512" viewBox="0 0 64 64" height="512" enable-background="new 0 0 64 64" id="Layer_5"><g><path data-cppathid="10000" d="m13 42v-2h3v-3c0-1.654-1.346-3-3-3h-2c-.552 0-1-.449-1-1v-1h3c.552 0 1 .449 1 1h2c0-1.654-1.346-3-3-3v-2h-2v2h-3v3c0 1.654 1.346 3 3 3h2c.552 0 1 .449 1 1v1h-3c-.552 0-1-.449-1-1h-2c0 1.654 1.346 3 3 3v2z"/><path data-cppathid="10001" d="m54 15c-.426 0-.847.039-1.263.098-1.389-8.107-8.393-14.098-16.737-14.098-6.857 0-13.018 4.139-15.654 10.405-.751-.266-1.546-.405-2.346-.405-2.773 0-5.27 1.672-6.381 4.154-.526-.096-1.066-.154-1.619-.154-4.963 0-9 4.038-9 9 0 1.869.588 3.691 1.666 5.208-1.049 1.685-1.666 3.665-1.666 5.792 0 5.616 4.233 10.254 9.674 10.912l-8.088 8.088 5.414 5.414 11-11 5 5 20-20 4.707 4.707.732-5.121h4.561c4.963 0 9-4.038 9-9s-4.037-9-9-9zm-51 20c0-4.962 4.037-9 9-9s9 4.038 9 9-4.037 9-9 9-9-4.038-9-9zm19.809-2h10.777l-9.586 9.586-2.336-2.336c.851-1.561 1.336-3.35 1.336-5.25 0-.684-.071-1.35-.191-2zm21.191-2.414-20 20-5-5-11 11-2.586-2.586 8.12-8.12c2.807-.394 5.279-1.841 6.991-3.941l3.475 3.475 17.414-17.414-3.293-3.293 10.7-1.528-1.528 10.7zm10 .414h-4.276l1.454-10.179-17.3 2.472 4.708 4.707-3 3h-13.35c-1.605-4.091-5.583-7-10.236-7-3.177 0-6.034 1.362-8.044 3.522-.621-1.064-.956-2.28-.956-3.522 0-3.86 3.141-7 7-7s7 3.14 7 7h2c0-3.701-2.247-6.886-5.448-8.267.842-1.643 2.555-2.733 4.448-2.733.844 0 1.679.216 2.416.624l1.039.575.39-1.121c2.096-6.028 7.785-10.078 14.155-10.078 7.415 0 13.629 5.362 14.792 12.592-.999.381-1.93.939-2.745 1.658l1.324 1.499c1.277-1.128 2.922-1.749 4.629-1.749 3.859 0 7 3.14 7 7s-3.141 7-7 7z"/><path data-cppathid="10002" d="m1 61h2v2h-2z"/><path data-cppathid="10003" d="m61 61h2v2h-2z"/><path data-cppathid="10004" d="m46 41h-6v20h-2v-12h-6v12h-2v-6h-6v6h-2v-8h-6v8h-11v2h54v-2h-13zm-4 2h2v18h-2zm-8 8h2v10h-2zm-8 6h2v4h-2zm-8-2h2v6h-2z"/><path data-cppathid="10005" d="m36 5c-5.501 0-10.428 3.483-12.26 8.667l1.885.667c1.551-4.387 5.72-7.334 10.375-7.334z"/><path data-cppathid="10006" d="m40.333 5.74c-.704-.249-1.434-.438-2.168-.561l-.33 1.973c.62.104 1.236.263 1.832.474z"/><path data-cppathid="10007" d="m57 24c0 1.654-1.346 3-3 3v2c2.757 0 5-2.243 5-5z"/><path data-cppathid="10008" d="m5 24h2c0-1.654 1.346-3 3-3v-2c-2.757 0-5 2.243-5 5z"/><path data-cppathid="10009" d="m35 17h2v2h-2z"/><path data-cppathid="10010" d="m27 17h2v2h-2z"/><path data-cppathid="10011" d="m23 17h2v2h-2z"/><path data-cppathid="10012" d="m39 17h2v2h-2z"/><path data-cppathid="10013" d="m31 17h2v2h-2z"/></g></svg>