<?xml version="1.0" encoding="UTF-8"?>
<svg xmlns="http://www.w3.org/2000/svg" onmouseup="{ if(window.parent.document.onmouseup) window.parent.document.onmouseup(arguments[0]);}" width="512" viewBox="0 0 512 512" height="512"><g id="Flat"><path data-cppathid="10000" fill="#f35244" d="m432 112v-88h-88v32h32l-96 96-80-80-120 120 24 24 96-96 80 80 120-120v32z"/><path data-cppathid="10001" fill="#fca713" d="m40 424h80v32h-80z"/><path data-cppathid="10002" fill="#fca713" d="m104 456h80v32h-80z"/><path data-cppathid="10003" fill="#fca713" d="m104 392h80v32h-80z"/><path data-cppathid="10004" fill="#fca713" d="m200 424h80v32h-80z"/><g fill="#f4c067"><path data-cppathid="10005" d="m184 456h80v32h-80z"/><path data-cppathid="10006" d="m184 392h80v32h-80z"/><path data-cppathid="10007" d="m120 424h80v32h-80z"/><path data-cppathid="10008" d="m120 360h80v32h-80z"/><path data-cppathid="10009" d="m24 456h80v32h-80z"/><path data-cppathid="10010" d="m24 392h80v32h-80z"/></g><path data-cppathid="10011" fill="#80c326" d="m264 424h184v64h-184z"/><path data-cppathid="10012" fill="#69a709" d="m426.56543 424a136.15545 136.15545 0 0 1 -110.03711 56h-52.52832v8h184v-64z"/><path data-cppathid="10013" fill="#fca713" d="m336 424h32v64h-32z"/><path data-cppathid="10014" fill="#80c326" d="m296 360h184v64h-184z"/><path data-cppathid="10015" fill="#69a709" d="m458.56543 360a136.15545 136.15545 0 0 1 -110.03711 56h-52.52832v8h184v-64z"/><path data-cppathid="10016" fill="#fca713" d="m368 360h32v64h-32z"/><path data-cppathid="10017" fill="#80c326" d="m264 296h184v64h-184z"/><path data-cppathid="10018" fill="#69a709" d="m426.56543 296a136.15545 136.15545 0 0 1 -110.03711 56h-52.52832v8h184v-64z"/><path data-cppathid="10019" fill="#fca713" d="m336 296h32v64h-32z"/><path data-cppathid="10020" fill="#f5b142" d="m240 392h24v32h-24z"/><path data-cppathid="10021" fill="#ed8515" d="m240 424h24v32h-24z"/><path data-cppathid="10022" fill="#f5b142" d="m240 456h24v32h-24z"/><path data-cppathid="10023" fill="#ed8515" d="m160 456h24v32h-24z"/><path data-cppathid="10024" fill="#fca713" d="m176 424h24v32h-24z"/><path data-cppathid="10025" fill="#ed8515" d="m160 392h24v32h-24z"/><path data-cppathid="10026" fill="#f5b142" d="m80 456h24v32h-24z"/><path data-cppathid="10027" fill="#ed8515" d="m96 424h24v32h-24z"/><path data-cppathid="10028" fill="#f5b142" d="m80 392h24v32h-24z"/><path data-cppathid="10029" fill="#f5b142" d="m184 360h24v32h-24z"/><path data-cppathid="10030" fill="#4db7e5" d="m160 208h32v128h-32z"/><path data-cppathid="10031" fill="#4db7e5" d="m240 232h32v40h-32z"/><path data-cppathid="10032" fill="#4db7e5" d="m320 208h32v64h-32z"/><path data-cppathid="10033" fill="#4db7e5" d="m400 144h32v128h-32z"/><path data-cppathid="10034" fill="#4db7e5" d="m112 248h-32v120l32-32z"/></g></svg>