<?xml version="1.0" encoding="UTF-8"?>
<svg xmlns="http://www.w3.org/2000/svg" onmouseup="{ if(window.parent.document.onmouseup) window.parent.document.onmouseup(arguments[0]);}" width="512" viewBox="0 0 64 64" height="512" enable-background="new 0 0 64 64" id="Layer_5"><g><g><g><path data-cppathid="10000" fill="#fcd770" d="m60 29.37v8.63h-23.18l-.58-1.27c-.07-.16-.15-.31-.24-.46v-6.9c0-3.06 2.3-5.63 5.34-5.96l2.68-.3.98 5.89 3-3 3 3 .98-5.89 2.68.3c3.04.33 5.34 2.9 5.34 5.96z"/></g><g><path data-cppathid="10001" fill="#ffc729" d="m48 26-3 3-.98-5.89.98-.11z"/></g><g><path data-cppathid="10002" fill="#ffc729" d="m51.98 23.11-.98 5.89-3-3 3-3z"/></g><g><path data-cppathid="10003" fill="#656d78" d="m57 10v.23c0 1.12-.34 2.19-.93 3.08-.31-.2-.68-.31-1.07-.31h-2v-2h-.17c-1.81 0-3.55-.72-4.83-2l-.02.02c-1.28 1.27-3.01 1.98-4.81 1.98h-.17v2h-2c-.39 0-.76.11-1.07.31-.59-.89-.93-1.96-.93-3.08 0-2.07.82-4.05 2.28-5.51l.63-.63c1.34-1.34 3.15-2.09 5.05-2.09 2.51 0 4.83 1.32 6.12 3.47l.92 1.53c1.66 0 3 1.34 3 3z"/></g><g><path data-cppathid="10004" fill="#f0d0b4" d="m50.3 20.44.7 2.56-3 3-3-3 .7-2.56c.69.36 1.47.56 2.3.56s1.61-.2 2.3-.56z"/></g><g><path data-cppathid="10005" fill="#f0d0b4" d="m52.9 17c.07-.32.1-.66.1-1v-3h2c.39 0 .76.11 1.07.31.56.36.93.98.93 1.69 0 .55-.22 1.05-.59 1.41-.36.37-.86.59-1.41.59h-2.08z"/></g><g><path data-cppathid="10006" fill="#f0d0b4" d="m53 13v3c0 .34-.03.68-.1 1-.3 1.5-1.28 2.75-2.6 3.44-.69.36-1.47.56-2.3.56s-1.61-.2-2.3-.56c-.46-.24-.88-.54-1.24-.9-.68-.68-1.16-1.56-1.36-2.54-.07-.32-.1-.66-.1-1v-3-2h.17c1.8 0 3.53-.71 4.81-1.98l.02-.02c1.28 1.28 3.02 2 4.83 2h.17z"/></g><g><path data-cppathid="10007" fill="#f0d0b4" d="m41 17c-.55 0-1.05-.22-1.41-.59-.37-.36-.59-.86-.59-1.41 0-.71.37-1.33.93-1.69.31-.2.68-.31 1.07-.31h2v3c0 .34.03.68.1 1h-.02z"/></g><g><path data-cppathid="10008" fill="#a0d468" d="m14.08 10c.28-1.15 1.32-2 2.55-2h2.74c.73 0 1.38.3 1.86.77.47.48.77 1.13.77 1.86 0 .25-.03.49-.1.72l-1.9 6.65h-8l-3.17-3.17c-.53-.53-.83-1.25-.83-2 0-1.56 1.27-2.83 2.83-2.83z"/></g><g><path data-cppathid="10009" fill="#b4dd7f" d="m12 18h8l4.2 5.6c1.17 1.56 1.8 3.45 1.8 5.4 0 4.97-4.03 9-9 9h-2c-2.48 0-4.74-1.01-6.36-2.64-1.63-1.62-2.64-3.88-2.64-6.36 0-1.95.63-3.84 1.8-5.4z"/></g><g><path data-cppathid="10010" fill="#969faa" d="m27.18 38-1.82 4h-22.36c-.55 0-1-.45-1-1v-2c0-.55.45-1 1-1h12 2z"/></g><g><path data-cppathid="10011" fill="#969faa" d="m62 39v2c0 .55-.45 1-1 1h-22.36l-1.82-4h23.18 1c.55 0 1 .45 1 1z"/></g><g><path data-cppathid="10012" fill="#ccd1d9" d="m45 57.01v.33c0 2.57-2.09 4.66-4.66 4.66h-16.68c-2.57 0-4.66-2.09-4.66-4.66v-.33c0-.67.14-1.32.42-1.93l5.94-13.08 1.82-4 .58-1.27c.38-.83.98-1.51 1.72-1.99.73-.47 1.6-.74 2.52-.74 1.65 0 3.17.87 4 2.27.09.15.17.3.24.46l.58 1.27 1.82 4 5.94 13.08c.28.61.42 1.26.42 1.93z"/></g><g><path data-cppathid="10013" fill="#ff826e" d="m34 41.88c0 .08 0 .16-.01.24l-.87 6.89c-.07.56-.55.99-1.12.99s-1.05-.43-1.12-.99l-.87-6.89c-.01-.08-.01-.16-.01-.24 0-1.04.84-1.88 1.88-1.88h.24c1.04 0 1.88.84 1.88 1.88z"/></g><g><circle data-cppathid="10014" r="2" fill="#ff826e" cy="56" cx="32"/></g></g><g><path data-cppathid="10015" d="m32.117 39h-.234c-1.59 0-2.883 1.293-2.883 2.883 0 .12.008.24.022.357l.861 6.893c.135 1.064 1.045 1.867 2.117 1.867s1.982-.803 2.116-1.868l.861-6.89c.015-.119.023-.239.023-.359 0-1.59-1.293-2.883-2.883-2.883zm.876 2.992-.861 6.891c-.018.133-.246.132-.264.001l-.861-6.894c-.005-.035-.007-.071-.007-.107 0-.487.396-.883.883-.883h.234c.487 0 .883.396.883.883 0 .036-.002.072-.007.109z"/><path data-cppathid="10016" d="m32 53c-1.654 0-3 1.346-3 3s1.346 3 3 3 3-1.346 3-3-1.346-3-3-3zm0 4c-.552 0-1-.448-1-1s.448-1 1-1 1 .448 1 1-.448 1-1 1z"/><path data-cppathid="10017" d="m61 37v-7.63c0-3.572-2.678-6.563-6.228-6.957l-2.987-.332-.326-1.187c1.001-.71 1.773-1.718 2.191-2.894h1.35c1.654 0 3-1.346 3-3 0-.714-.261-1.361-.679-1.877.442-.898.679-1.881.679-2.893v-.23c0-2.004-1.481-3.669-3.407-3.956l-.655-1.092c-1.463-2.437-4.138-3.952-6.981-3.952-2.174 0-4.218.847-5.755 2.384l-.625.625c-1.662 1.662-2.577 3.871-2.577 6.221 0 1.01.237 1.994.679 2.892-.418.516-.679 1.164-.679 1.878 0 1.654 1.346 3 3 3h1.35c.418 1.177 1.19 2.184 2.191 2.894l-.326 1.187-2.987.332c-3.55.394-6.228 3.385-6.228 6.957v4.499c-.884-.554-1.918-.869-3-.869-2.214 0-4.236 1.303-5.151 3.318v-.001l-.311.683h-3.564c2.438-1.825 4.026-4.727 4.026-8 0-2.148-.71-4.279-2-6l-3.902-5.203 1.761-6.168c.094-.324.141-.66.141-.997 0-2.003-1.629-3.632-3.632-3.632h-2.736c-1.413 0-2.627.819-3.227 2h-2.577c-2.11 0-3.828 1.718-3.828 3.828 0 1.022.398 1.984 1.121 2.707l2.559 2.559-3.68 4.906c-1.29 1.721-2 3.852-2 6 0 3.273 1.588 6.175 4.026 8h-6.026c-1.103 0-2 .897-2 2v2c0 1.103.897 2 2 2h20.811l-5.303 11.667c-.337.74-.508 1.528-.508 2.342v.332c0 3.12 2.539 5.659 5.659 5.659h16.682c3.12 0 5.659-2.539 5.659-5.659v-.332c0-.813-.171-1.602-.508-2.342l-5.303-11.667h20.811c1.103 0 2-.897 2-2v-2c0-1.103-.897-2-2-2zm-10.3-12.286-.367 2.205-.919-.919zm4.3-8.714h-1v-2h1c.552 0 1 .448 1 1s-.448 1-1 1zm-14 0c-.552 0-1-.448-1-1s.448-1 1-1h1v2zm2.172-6h-1.172v2h-1c-.209 0-.412.022-.609.063-.253-.576-.391-1.197-.391-1.833 0-1.816.707-3.523 1.991-4.808l.625-.625c1.159-1.158 2.701-1.797 4.341-1.797 2.145 0 4.162 1.143 5.266 2.981l1.211 2.019h.566c1.103 0 2 .897 2 2v.23c0 .637-.138 1.257-.391 1.832-.197-.04-.4-.062-.609-.062h-1v-2h-1.172c-1.534 0-3.036-.622-4.121-1.707l-.725-.684-.707.701c-1.099 1.089-2.556 1.69-4.103 1.69zm.828 1.957c1.459-.153 2.833-.71 4-1.625 1.151.898 2.547 1.466 4 1.623v4.045c0 2.206-1.794 4-4 4s-4-1.794-4-4zm4 10.043c.564 0 1.108-.084 1.626-.23l.256.934-1.882 1.882-1.882-1.882.256-.934c.518.146 1.062.23 1.626.23zm-1.414 4-.919.919-.367-2.205zm-5.138-1.599 1.739-.193 1.145 6.873 3.668-3.667 3.667 3.667 1.145-6.873 1.739.193c2.537.282 4.449 2.417 4.449 4.969v7.63h-21.539l-.31-.682c-.044-.097-.102-.184-.151-.278v-6.67c0-2.552 1.912-4.687 4.448-4.969zm-32.448-11.573c0-1.008.82-1.828 1.828-1.828h2.172v2h2v-2.368c0-.9.732-1.632 1.632-1.632h2.736c.9 0 1.632.732 1.632 1.632 0 .151-.021.302-.063.448l-1.692 5.92h-6.831l-2.879-2.879c-.34-.34-.535-.811-.535-1.293zm-2 16.172c0-1.719.568-3.424 1.6-4.801l3.9-5.199h7l3.9 5.199c1.032 1.377 1.6 3.082 1.6 4.801 0 4.411-3.589 8-8 8h-2c-4.411 0-8-3.589-8-8zm-4 12v-2h12 2 8.629l-.909 2zm41 16.009v.332c0 2.017-1.642 3.659-3.659 3.659h-16.682c-2.017 0-3.659-1.642-3.659-3.659v-.332c0-.525.11-1.035.328-1.514l8.341-18.35v-.001c.592-1.302 1.899-2.144 3.331-2.144s2.739.842 3.331 2.146l8.341 18.35c.218.478.328.987.328 1.513zm17-16.009h-21.72l-.909-2h22.629z"/><path data-cppathid="10018" d="m17 35v-2.145c1.155-.366 2-1.435 2-2.709 0-1.088-.604-2.065-1.578-2.553l-1.949-.975c-.292-.145-.473-.438-.473-.764 0-.47.384-.854.854-.854h.291c.471 0 .855.384.855.854v.146h2v-.146c0-1.275-.845-2.344-2-2.709v-2.145h-2v2.145c-1.155.366-2 1.435-2 2.709 0 1.088.604 2.065 1.578 2.553l1.949.975c.292.145.473.438.473.764 0 .47-.384.854-.854.854h-.291c-.471 0-.855-.384-.855-.854v-1.146h-2v1.146c0 1.275.845 2.344 2 2.709v2.145z"/></g></g></svg>