<?xml version="1.0" encoding="UTF-8"?>
<svg xmlns="http://www.w3.org/2000/svg" onmouseup="{ if(window.parent.document.onmouseup) window.parent.document.onmouseup(arguments[0]);}" width="512" viewBox="0 0 512 512" height="512" enable-background="new 0 0 512 512" id="Capa_1"><g><path data-cppathid="10000" fill="#ecf9fb" d="m437 0h-422c-8.401 0-15 6.599-15 15v361c0 8.399 6.599 15 15 15h422c8.401 0 15-6.601 15-15v-361c0-8.401-6.599-15-15-15z"/><path data-cppathid="10001" fill="#d8f1fb" d="m452 15v361c0 8.399-6.599 15-15 15h-211v-391h211c8.401 0 15 6.599 15 15z"/><g><path data-cppathid="10002" fill="#91eb90" d="m497 301h-361c-8.291 0-15 6.709-15 15v181c0 8.291 6.709 15 15 15h361c8.291 0 15-6.709 15-15v-181c0-8.291-6.709-15-15-15z"/><path data-cppathid="10003" fill="#00cbb1" d="m512 497v-181c0-8.291-6.709-15-15-15h-181v211h181c8.291 0 15-6.709 15-15z"/><path data-cppathid="10004" fill="#00cbb1" d="m226 451h-30c-8.291 0-15-6.709-15-15s6.709-15 15-15h30c8.291 0 15 6.709 15 15s-6.709 15-15 15z"/><path data-cppathid="10005" fill="#009398" d="m437 391h-30c-8.291 0-16-6.709-16-15s7.709-15 16-15h30c8.291 0 15 6.709 15 15s-6.709 15-15 15z"/><circle data-cppathid="10006" r="45" fill="#00cbb1" cy="406" cx="316"/><path data-cppathid="10007" fill="#009398" d="m361 406c0-24.814-20.186-45-45-45v90c24.814 0 45-20.186 45-45z"/></g><path data-cppathid="10008" fill="#ff9100" d="m196 181v75h-90v-60c0-8.401 6.599-15 15-15z"/><path data-cppathid="10009" fill="#f03800" d="m136 181h60v75h-60z"/><path data-cppathid="10010" fill="#91eb90" d="m256 121v135h-90v-120c0-8.401 6.599-15 15-15z"/><path data-cppathid="10011" fill="#00cbb1" d="m196 121h60v135h-60z"/><path data-cppathid="10012" fill="#ff9100" d="m346 166v90h-90v-105h75c8.401 0 15 6.599 15 15z"/><path data-cppathid="10013" fill="#f03800" d="m346 166v90h-30v-105h15c8.401 0 15 6.599 15 15z"/><path data-cppathid="10014" fill="#fed843" d="m286 75v181h-60v-181c0-8.401 6.599-15 15-15h30c8.401 0 15 6.599 15 15z"/><path data-cppathid="10015" fill="#fabe2c" d="m286 75v181h-30v-196h15c8.401 0 15 6.599 15 15z"/><path data-cppathid="10016" fill="#4a696f" d="m376 256c0 8.399-6.599 15-15 15h-270c-8.401 0-15-6.601-15-15 0-8.401 6.599-15 15-15h270c8.401 0 15 6.599 15 15z"/><path data-cppathid="10017" fill="#384949" d="m376 256c0 8.399-6.599 15-15 15h-135v-30h135c8.401 0 15 6.599 15 15z"/></g></svg>