<?xml version="1.0" encoding="UTF-8"?>
<svg xmlns="http://www.w3.org/2000/svg" onmouseup="{ if(window.parent.document.onmouseup) window.parent.document.onmouseup(arguments[0]);}" width="512" viewBox="0 0 511.542 511.542" height="512" enable-background="new 0 0 511.542 511.542" id="Layer_1"><g><g><path data-cppathid="10000" fill="#fff59b" d="m286.21 0v225.332h225.332c0-124.447-100.884-225.332-225.332-225.332z"/></g><g fill="#020288"><path data-cppathid="10001" d="m460.206 266.668h-215.332v-215.332c0-5.523-4.477-10-10-10-62.859 0-121.957 24.479-166.405 68.927-91.289 87.597-91.297 245.215.003 332.809 87.591 91.285 245.214 91.3 332.807 0 44.448-44.449 68.927-103.546 68.927-166.405 0-5.522-4.477-9.999-10-9.999zm-440.664 10c0-115.386 91.216-209.866 205.332-215.103v430.205c-114.116-5.236-205.332-99.716-205.332-215.102zm367.595 152.262c-38.305 38.306-88.5 60.402-142.263 62.843v-205.105h205.106c-2.442 53.762-24.538 103.957-62.843 142.262z"/><path data-cppathid="10002" d="m351.058 131.545c11.019 0 20.569-7.061 25.145-17.299l-26.555 63.28c-2.138 5.093.259 10.954 5.352 13.091 4.966 2.12 10.953-.207 13.09-5.352l10.997-26.206c-4.974 18.523 8.753 39.39 27.071 38.954 37.173-1.679 37.164-60.224-.001-61.898-9.552 0-17.999 5.308-23.061 13.39l25.791-61.458c2.138-5.093-.259-10.954-5.352-13.091-5.09-2.137-10.953.259-13.09 5.352l-13.658 32.547c7.991-19.276-5.367-43.445-25.729-43.208-37.174 1.679-37.165 60.224 0 61.898zm55.098 24.571c4.351 0 8.026 5.014 8.026 10.949s-3.676 10.949-8.026 10.949-8.026-5.014-8.026-10.949 3.676-10.949 8.026-10.949zm-55.098-66.469c4.351 0 8.026 5.014 8.026 10.949s-3.676 10.949-8.026 10.949-8.026-5.014-8.026-10.949 3.675-10.949 8.026-10.949z"/><path data-cppathid="10003" d="m188.273 144.003h-53.144c-13.268.528-13.258 19.477 0 20h53.144c13.268-.529 13.258-19.477 0-20z"/><path data-cppathid="10004" d="m188.273 193.636h-88.855c-13.268.528-13.258 19.477 0 20h88.855c13.268-.528 13.258-19.477 0-20z"/><path data-cppathid="10005" d="m188.273 243.269h-124.567c-13.268.528-13.258 19.477 0 20h124.566c13.269-.529 13.259-19.477.001-20z"/><path data-cppathid="10006" d="m188.273 292.902h-124.567c-13.268.528-13.258 19.477 0 20h124.566c13.269-.528 13.259-19.477.001-20z"/><path data-cppathid="10007" d="m188.273 342.535h-88.855c-13.268.528-13.258 19.477 0 20h88.855c13.268-.528 13.258-19.477 0-20z"/><path data-cppathid="10008" d="m188.273 392.168h-53.144c-13.268.528-13.258 19.477 0 20h53.144c13.268-.528 13.258-19.477 0-20z"/><path data-cppathid="10009" d="m302.813 400.102c-3.465-4.302-9.762-4.978-14.061-1.515-4.302 3.465-4.979 9.76-1.516 14.061 5.902 7.327 14.427 11.417 22.873 13.326.77 12.407 18.276 12.987 19.926.734 15.004-2.502 25.558-12.36 27.269-25.833 2.283-16.492-9.86-32.173-27.212-37.167v-22.204c1.514.759 2.605 1.668 3.214 2.536 3.172 4.521 9.409 5.615 13.93 2.441 4.521-3.172 5.614-9.409 2.441-13.93-3.875-5.522-10.712-10.183-19.585-12.004v-.201c-.528-13.268-19.476-13.258-20 0v.894c-.815.205-1.635.424-2.466.674-10.95 3.299-19.214 13.912-20.097 25.81-1.24 14.354 8.626 25.337 22.562 29.86v27.516c-2.948-1.18-5.535-2.833-7.278-4.998zm34.651-1.747c-.466 3.667-3.083 6.381-7.371 7.822v-20.777c5.717 3.467 7.896 8.82 7.371 12.955zm-29.988-49.152c.167-2.243 1.168-4.406 2.617-5.974v12.111c-1.931-1.617-2.803-3.64-2.617-6.137z"/></g></g></svg>