<?xml version="1.0" encoding="UTF-8"?>
<svg xmlns="http://www.w3.org/2000/svg" onmouseup="{ if(window.parent.document.onmouseup) window.parent.document.onmouseup(arguments[0]);}" width="512" viewBox="0 0 62 62" height="512" enable-background="new 0 0 62 62" id="Layer_5"><g><g><g><path data-cppathid="10000" fill="#b27946" d="m35 55c0-1.1-.9-2-2-2h-1l-.12-.99c-.5-4.01-3.91-7.01-7.94-7.01h1.06c6.63 0 12-5.37 12-12v-8c-2.47-4.33-7.08-7-12.06-7h-1.94l.29.88c.47 1.41 1.04 2.79 1.71 4.12-1.94 0-3.85-.34-5.64-.99-1.8-.65-3.48-1.61-4.97-2.85l-.41-.34c-.26-.22-.48-.48-.64-.78-2.45.33-4.34 2.42-4.34 4.96v10c0 6.38 4.97 11.59 11.25 11.97v.03c-2.35 0-4.25 1.9-4.25 4.25v1.75c0 .97.14 1.91.4 2.8-.45.13-.91.2-1.4.2-2.07 0-3.84-1.25-4.6-3.04-.13.01-.26.04-.4.04-2.76 0-5-2.24-5-5-2.21 0-4-1.79-4-4 0-.88.29-1.68.77-2.34.78-1.06 1.23-2.32 1.23-3.63v-13.03c0-11.05 8.95-20 20-20 5.52 0 10.52 2.24 14.14 5.86s5.86 8.62 5.86 14.14v3.99 9.04c0 1.31.45 2.57 1.23 3.63.29.4.51.85.64 1.34h-5.87c-1.1 0-2 .9-2 2v10 .02c-.66.07-1.25.48-1.55 1.08z"/></g><g><path data-cppathid="10001" fill="#e6e9ed" d="m25 53h7 1c1.1 0 2 .9 2 2v4c0 1.1-.9 2-2 2h-7c-4.55 0-8.39-3.04-9.6-7.2-.26-.89-.4-1.83-.4-2.8v-1.75c0-2.35 1.9-4.25 4.25-4.25 1.07 0 2.06.4 2.81 1.06.75.67 1.27 1.6 1.4 2.66z"/></g><g><path data-cppathid="10002" fill="#e6e9ed" d="m23.94 45c4.03 0 7.44 3 7.94 7.01l.12.99h-7l-.54-4.28c-.13-1.06-.65-1.99-1.4-2.66-.75-.66-1.74-1.06-2.81-1.06v-.03c.25.02.5.03.75.03z"/></g><g><path data-cppathid="10003" fill="#969faa" d="m37 53v-10c0-1.1.9-2 2-2h5.87.13c1.1 0 2 .9 2 2v12c0 1.1-.9 2-2 2h-4v-2c0-1.1-.9-2-2-2h-1.76c-.08 0-.16 0-.24.02z"/></g><g><path data-cppathid="10004" fill="#f0d0b4" d="m41 57c0 1.1-.9 2-2 2h-4v-4l.45-.9c.3-.6.89-1.01 1.55-1.08.08-.02.16-.02.24-.02h1.76c1.1 0 2 .9 2 2z"/></g><g><path data-cppathid="10005" fill="#f0d0b4" d="m37 25v8c0 6.63-5.37 12-12 12h-1.06-2.94c-.25 0-.5-.01-.75-.03-6.28-.38-11.25-5.59-11.25-11.97v-10c0-2.54 1.89-4.63 4.34-4.96.16.3.38.56.64.78l.41.34c1.49 1.24 3.17 2.2 4.97 2.85 1.79.65 3.7.99 5.64.99-.67-1.33-1.24-2.71-1.71-4.12l-.29-.88h1.94c4.98 0 9.59 2.67 12.06 7z"/></g><g><path data-cppathid="10006" fill="#ef7385" d="m28 34v1c0 2.76-2.24 5-5 5s-5-2.24-5-5v-1z"/></g><g><path data-cppathid="10007" fill="#ef7385" d="m57 8v6h-2-2v-6h2z"/></g><g><path data-cppathid="10008" fill="#ef7385" d="m49 11v6h-2-2v-6h2z"/></g></g><g><path data-cppathid="10009" d="m14 29c0-1.103.897-2 2-2s2 .897 2 2v1h2v-1c0-2.206-1.794-4-4-4s-4 1.794-4 4v1h2z"/><path data-cppathid="10010" d="m28 29c0-1.103.897-2 2-2s2 .897 2 2v1h2v-1c0-2.206-1.794-4-4-4s-4 1.794-4 4v1h2z"/><path data-cppathid="10011" d="m17 35c0 3.309 2.691 6 6 6s6-2.691 6-6v-2h-12zm10 0c0 2.206-1.794 4-4 4s-4-1.794-4-4z"/><circle data-cppathid="10012" r="1" cy="44" cx="40"/><circle data-cppathid="10013" r="1" cy="47" cx="40"/><path data-cppathid="10014" d="m62 4c-2.079 0-3.08-.821-4.239-1.772-1.273-1.044-2.715-2.228-5.51-2.228-2.794 0-4.235 1.184-5.508 2.227-1.158.952-2.159 1.773-4.238 1.773-2.08 0-3.082-.821-4.242-1.773-1.272-1.044-2.714-2.227-5.51-2.227s-4.238 1.184-5.511 2.228c-.07.057-.141.113-.211.17-1.306-.256-2.652-.398-4.031-.398-11.579 0-21 9.421-21 21v13.027c0 1.065-.359 2.117-1.038 3.041-.629.857-.962 1.87-.962 2.932 0 2.439 1.756 4.476 4.069 4.913.432 2.813 2.823 4.989 5.732 5.084 1.062 1.845 3.033 3.003 5.199 3.003.25 0 .498-.022.745-.053 1.591 4.118 5.581 7.052 10.254 7.053h6.999c1.302 0 2.402-.839 2.816-2h3.186c1.302 0 2.402-.839 2.816-2h3.184c1.654 0 3-1.346 3-3v-12c0-1.453-1.038-2.666-2.411-2.94-.149-.348-.324-.684-.55-.992-.68-.923-1.039-1.975-1.039-3.041v-8.158c1.856-.333 2.995-1.261 4.013-2.097 1.159-.951 2.16-1.772 4.238-1.772 2.08 0 3.081.821 4.24 1.773 1.273 1.044 2.714 2.227 5.509 2.227v-2c-2.079 0-3.08-.821-4.239-1.772-1.273-1.044-2.715-2.228-5.51-2.228-2.794 0-4.235 1.183-5.508 2.227-.843.692-1.603 1.306-2.743 1.595v-2.822c0-9.322-6.111-17.236-14.534-19.97.844-.598 1.783-1.03 3.287-1.03 2.08 0 3.082.821 4.242 1.773 1.272 1.044 2.714 2.227 5.51 2.227 2.794 0 4.235-1.184 5.508-2.227 1.158-.952 2.159-1.773 4.238-1.773 2.08 0 3.081.821 4.24 1.773 1.273 1.044 2.714 2.227 5.509 2.227zm-28.002 55c0 .552-.448 1-1 1h-6.999c-4.962-.001-8.999-4.039-8.999-9.001v-1.75c0-1.792 1.457-3.249 3.249-3.249 1.635.001 3.02 1.224 3.223 2.846l.489 3.909-1.793 2.69 1.664 1.109 1.702-2.554h7.464c.552 0 1 .448 1 1zm-20.659-39.416.412.344c3.151 2.626 7.146 4.072 11.249 4.072h1.618l-.724-1.447c-.573-1.147-1.078-2.34-1.503-3.553h.546c4.531 0 8.743 2.403 11.063 6.282v7.718c0 6.065-4.935 11-11 11h-1.063-2.937c-6.065 0-11-4.935-11-11v-10c0-1.811 1.228-3.367 2.929-3.842.129.148.256.298.41.426zm12.117 29.014c-.121-.97-.507-1.851-1.076-2.577 3.282.208 6.006 2.697 6.481 5.979h-4.979zm14.544 8.402c0 .552-.448 1-1 1h-3.002v-2.763l.342-.683c.172-.342.514-.554.895-.554h1.765c.552 0 1 .448 1 1zm6-2c0 .552-.448 1-1 1h-3v-1c0-1.654-1.346-3-3-3h-1v-9c0-.552.448-1 1-1h6c.552 0 1 .448 1 1zm-4-32v13.027c0 1.399.448 2.762 1.268 3.973h-4.268c-1.654 0-3 1.346-3 3v9.265c-.329.148-.625.358-.881.615-.543-.543-1.294-.88-2.121-.88h-.115l-.015-.116c-.342-2.731-1.897-5.048-4.079-6.451 5.325-1.626 9.211-6.583 9.211-12.433v-13.172c0-2.061-.836-4.078-2.293-5.535l-1.414 1.414c1.085 1.085 1.707 2.587 1.707 4.121v2.104c-2.792-3.095-6.806-4.932-11.062-4.932h-3.325l.732 2.195c.306.919.655 1.829 1.045 2.721-3.06-.319-5.979-1.543-8.357-3.524l-.411-.344c-.395-.328-.622-.812-.622-1.324 0-.951.773-1.724 1.724-1.724h1.276v-2h-1.276c-2.054 0-3.724 1.67-3.724 3.724 0 .205.034.404.066.602-2.381.814-4.066 3.075-4.066 5.674v10c0 5.707 3.703 10.557 8.828 12.301-1.11.963-1.828 2.366-1.828 3.948v1.75c0 .68.071 1.342.189 1.988-.063.003-.126.013-.189.013-1.605 0-3.05-.955-3.68-2.433l-.282-.661-.717.057c-.071.006-.142.015-.211.024-.036.005-.073.012-.11.013-2.206 0-4-1.794-4-4v-1h-1c-1.654 0-3-1.346-3-3 0-.633.198-1.237.573-1.747.934-1.27 1.427-2.731 1.427-4.226v-13.027c0-10.477 8.523-19 19-19s19 8.523 19 19z"/><path data-cppathid="10015" d="m48 20v-2h2v-8h-2v-2h-2v2h-2v8h2v2zm-2-8h2v4h-2z"/><path data-cppathid="10016" d="m56 17v-2h2v-8h-2v-2h-2v2h-2v8h2v2zm-2-8h2v4h-2z"/></g></g></svg>