<?xml version="1.0" encoding="UTF-8"?>
<svg xmlns="http://www.w3.org/2000/svg" onmouseup="{ if(window.parent.document.onmouseup) window.parent.document.onmouseup(arguments[0]);}" width="512" viewBox="0 0 512 512" height="512" enable-background="new 0 0 512 512" id="Capa_1"><g><path data-cppathid="10000" fill="#95d6a4" d="m512 256c0 97.35-54.34 182.01-134.35 225.3-10.42 5.64-31.658-20.703-42.888-16.543-9.03 3.36-7.932 37.503-17.422 39.843-19.65 4.84-40.2 7.4-61.34 7.4-141.38 0-256-114.62-256-256s114.62-256 256-256 256 114.62 256 256z"/><g><g><path data-cppathid="10001" fill="#78c2a4" d="m495.184 218.858-9.803-3.483c-2.561-34.431-16.875-66.683-41.013-91.861-9.841-10.265-26.139-10.609-36.404-.768s-10.609 26.139-.768 36.404c10.055 10.488 17.496 22.856 22.017 36.268l-2.771-.984c-12.681-4.506-25.483 6.406-23.044 19.641l13.22 71.734c2.439 13.233 18.287 18.864 28.529 10.137l55.521-47.309c10.244-8.729 7.197-25.273-5.484-29.779z"/></g><g><path data-cppathid="10002" fill="#78c2a4" d="m16.816 293.142 9.803 3.483c2.561 34.431 16.875 66.683 41.013 91.861 9.841 10.265 26.139 10.609 36.404.768s10.609-26.139.768-36.404c-10.055-10.488-17.496-22.856-22.017-36.268l2.771.984c12.681 4.506 25.483-6.406 23.044-19.641l-13.22-71.734c-2.439-13.233-18.287-18.864-28.529-10.137l-55.521 47.309c-10.244 8.729-7.197 25.273 5.484 29.779z"/></g></g><g><g><path data-cppathid="10003" fill="#ac80dd" d="m279.787 149.735-75.932-131.518c-13.81-23.919-48.333-23.919-62.143 0l-75.932 131.518c-13.809 23.919 3.452 53.817 31.072 53.817h19.502v50.487c0 17.841 14.463 32.304 32.304 32.304h48.251c17.841 0 32.304-14.463 32.304-32.304v-50.487h19.502c27.619 0 44.881-29.899 31.072-53.817z"/><path data-cppathid="10004" fill="#9d66d5" d="m184.451 286.343h-35.782c-17.853 0-32.299-14.472-32.299-32.299v-50.492h-19.518c-27.612 0-44.875-29.917-31.07-53.815l75.945-131.527c10.45-18.083 32.735-22.515 48.948-13.217-5.225 2.971-9.81 7.377-13.191 13.217l-75.919 131.527c-13.806 23.898 3.458 53.815 31.07 53.815h19.492v50.492c-.001 17.827 14.471 32.299 32.324 32.299z"/></g><g><path data-cppathid="10005" fill="#dc4261" d="m446.22 362.53-68.57 118.77c-18.81 10.18-39.03 18.07-60.31 23.3-3.57-2.74-6.71-6.26-9.19-10.55l-75.94-131.52c-13.81-23.92 3.46-53.81 31.08-53.81h19.5v-56.888c0-17.85 14.46-32.31 32.3-32.31h48.25c17.84 0 32.31 14.46 32.31 32.31v56.888h19.5c27.62 0 44.88 29.89 31.07 53.81z"/><path data-cppathid="10006" fill="#d80a61" d="m343.92 494.06c.39.68.8 1.34 1.23 1.98-9.03 3.36-18.32 6.22-27.81 8.56-3.57-2.74-6.7-6.26-9.18-10.54l-75.94-131.53c-13.81-23.9 3.45-53.81 31.07-53.81h19.51v-56.898c0-17.83 14.45-32.3 32.3-32.3h35.78c-17.85 0-32.32 14.47-32.32 32.3v56.898h-19.49c-27.61 0-44.88 29.91-31.07 53.81z"/></g></g><g fill="#d80a61"><path data-cppathid="10007" d="m435.192 136.326c-.013 0-.027 0-.04 0-5.042.028-10.46.048-14.558.052v-54.712c0-3.877-3.143-7.019-7.019-7.019s-7.019 3.143-7.019 7.019v61.68c0 3.419 2.463 6.341 5.833 6.918.505.086.914.157 7.703.157 3.296 0 8.096-.016 15.14-.056 3.877-.022 7.002-3.182 6.98-7.059-.023-3.863-3.162-6.98-7.02-6.98z"/><path data-cppathid="10008" d="m478.695 136.326c-.013 0-.027 0-.04 0-5.042.028-10.46.048-14.558.052v-54.712c0-3.877-3.143-7.019-7.019-7.019-3.877 0-7.019 3.143-7.019 7.019v61.68c0 3.419 2.463 6.341 5.833 6.918.504.086.914.157 7.703.157 3.296 0 8.096-.016 15.14-.056 3.877-.022 7.001-3.182 6.98-7.059-.023-3.863-3.162-6.98-7.02-6.98z"/><path data-cppathid="10009" d="m391.687 89.249c3.877 0 7.019-3.143 7.019-7.019 0-3.877-3.143-7.019-7.019-7.019h-25.774c-3.877 0-7.019 3.143-7.019 7.019v61.168c0 3.877 3.143 7.019 7.019 7.019h25.774c3.877 0 7.019-3.143 7.019-7.019 0-3.877-3.143-7.019-7.019-7.019h-18.754v-16.545h16.854c3.877 0 7.019-3.143 7.019-7.019s-3.143-7.019-7.019-7.019h-16.854v-16.547z"/><path data-cppathid="10010" d="m333.24 106.433c-7.699-2.84-14.858-5.935-16.93-6.843-2.034-1.572-1.97-3.798-1.838-4.718.175-1.222 1.052-4.205 5.399-5.514 9.078-2.733 17.423 3.888 17.631 4.056 2.967 2.464 7.372 2.073 9.857-.884 2.494-2.968 2.111-7.395-.856-9.89-.571-.479-14.173-11.699-30.681-6.724-8.26 2.488-14.101 8.988-15.246 16.962-1.072 7.465 2.164 14.646 8.443 18.739.31.202.635.379.973.53.356.159 8.837 3.934 18.389 7.458 2.871 1.059 9.451 4.074 8.539 9.181-.666 3.733-5.139 7.593-11.47 7.593-6.329 0-12.426-2.559-16.31-6.844-2.603-2.873-7.043-3.091-9.915-.488-2.873 2.603-3.091 7.043-.488 9.915 6.501 7.174 16.487 11.456 26.713 11.456 12.671 0 23.307-8.06 25.29-19.164 1.488-8.331-2.328-19.225-17.5-24.821z"/></g><g fill="#9d66d5"><path data-cppathid="10011" d="m63.875 381.973c2.536-3.661 4.027-8.098 4.027-12.879 0-12.504-10.173-22.677-22.677-22.677h-19.159c-4.142 0-7.5 3.358-7.5 7.5v30.372.049 35.537c0 1.995.795 3.908 2.208 5.315 1.406 1.4 3.309 2.185 5.292 2.185h.033c.001 0 17.617-.078 22.472-.078 13.925 0 25.254-11.329 25.254-25.254 0-8.175-3.908-15.452-9.95-20.07zm-18.65-20.556c4.233 0 7.677 3.444 7.677 7.677s-3.444 7.677-7.677 7.677c-1.417 0-4.094.008-7.008.018h-4.651v-15.372zm3.346 50.88c-2.75 0-9.58.025-15.005.047v-20.537c1.53-.006 3.145-.012 4.694-.018h10.311c5.654 0 10.254 4.6 10.254 10.254s-4.6 10.254-10.254 10.254z"/><path data-cppathid="10012" d="m211.142 347.798c-3.471-2.259-8.118-1.277-10.377 2.194l-14.62 22.458-14.779-22.634c-2.265-3.469-6.913-4.443-10.38-2.179-3.468 2.265-4.444 6.912-2.179 10.38l19.843 30.389-.077 31.45c-.01 4.142 3.339 7.508 7.481 7.519h.019c4.133 0 7.489-3.346 7.5-7.481l.077-31.476 19.687-30.242c2.259-3.472 1.277-8.118-2.195-10.378z"/><path data-cppathid="10013" d="m136.897 346.417c-4.142 0-7.5 3.358-7.5 7.5v45.339c0 3.374-.944 7.721-8.305 11.428-2.229 1.123-4.747 1.691-7.485 1.691-.009 0-.018 0-.027 0-3.058-.004-5.717-.756-8.13-2.297-5.715-3.652-6.886-6.948-6.886-10.775v-45.387c0-4.142-3.358-7.5-7.5-7.5s-7.5 3.358-7.5 7.5v45.387c0 9.818 4.517 17.478 13.81 23.415 4.824 3.082 10.27 4.648 16.186 4.657h.048c5.103 0 9.892-1.108 14.232-3.294 13.685-6.892 16.557-17.304 16.557-24.825v-45.339c0-4.142-3.358-7.5-7.5-7.5z"/></g></g></svg>