<?xml version="1.0" encoding="UTF-8"?>
<svg xmlns="http://www.w3.org/2000/svg" onmouseup="{ if(window.parent.document.onmouseup) window.parent.document.onmouseup(arguments[0]);}" width="512" viewBox="0 0 64 64" height="512"><g data-name="20 Password" id="_20_Password"><path data-cppathid="10000" fill="#46464e" d="m6 22v8a1 1 0 0 0 1 1h4a1 1 0 0 0 1-1v-8c.3268-9.26 13.67-9.2669 14 0v8a1 1 0 0 0 1 1h4a1 1 0 0 0 1-1v-8c-.71-17.2372-25.2839-17.25-26 0z"/><rect data-cppathid="10001" y="29" x="2" width="34" rx="3" height="27" fill="#ffa000"/><rect data-cppathid="10002" y="32" x="26" width="36" rx="3" height="10" fill="#26a6fe"/><rect data-cppathid="10003" y="43" x="26" width="36" rx="3" height="10" fill="#26a6fe"/><g fill="#eee"><path data-cppathid="10004" d="m54.5 45.5c-3.3336-.0454-3.3335 5.0444 0 4.9994 3.3333.0457 3.3333-5.0441 0-4.9994z"/><path data-cppathid="10005" d="m47.5 45.5c-3.3336-.0454-3.3335 5.0444 0 4.9994 3.3333.0457 3.3333-5.0441 0-4.9994z"/><path data-cppathid="10006" d="m40.5 45.5c-3.3336-.0454-3.3335 5.0444 0 4.9994 3.3333.0457 3.3333-5.0441 0-4.9994z"/><path data-cppathid="10007" d="m33.5 45.5c-3.3336-.0454-3.3335 5.0444 0 4.9994 3.3333.0457 3.3333-5.0441 0-4.9994z"/></g></g></svg>