<?xml version="1.0" encoding="UTF-8"?>
<svg xmlns="http://www.w3.org/2000/svg" onmouseup="{ if(window.parent.document.onmouseup) window.parent.document.onmouseup(arguments[0]);}" width="512" viewBox="0 0 512 512" height="512"><g id="FLAT"><rect data-cppathid="10000" y="24" x="32" width="448" rx="16" height="336" fill="#6e6e6e"/><path data-cppathid="10001" fill="#575757" d="m32 128h448v16h-448z"/><path data-cppathid="10002" fill="#575757" d="m32 240h448v16h-448z"/><path data-cppathid="10003" fill="#575757" d="m360 24h16v336h-16z"/><path data-cppathid="10004" fill="#575757" d="m136 24h16v336h-16z"/><path data-cppathid="10005" fill="#575757" d="m248 24h16v336h-16z"/><path data-cppathid="10006" fill="#575757" d="m140.65662 418.62649a31.99969 31.99969 0 0 0 -23.28333-23.28323l-13.37329-3.34326h-32l-13.37329 3.34326a31.99969 31.99969 0 0 0 -23.28333 23.28323l-2.86566 11.46263a16.00011 16.00011 0 0 0 -.47772 3.88057v6.03031h112v-6.03031a16.00011 16.00011 0 0 0 -.47772-3.88057z"/><path data-cppathid="10007" fill="#edad2e" d="m88 304a23.99994 23.99994 0 0 0 -24 24v26.33447a24 24 0 0 0 2.53369 10.73291l5.46631 10.93262v16h32v-16l5.46631-10.93262a24 24 0 0 0 2.53369-10.73291v-26.33447a23.99994 23.99994 0 0 0 -24-24z"/><path data-cppathid="10008" fill="#353535" d="m136 432h-96a16.00016 16.00016 0 0 0 -16 16v48h128v-48a16.00016 16.00016 0 0 0 -16-16z"/><path data-cppathid="10009" fill="#6bad55" d="m448 96-144 144-56-56-112 112-40-40 152-152 56 56 104-104-32-32h104v104z"/><g fill="#bebebe"><path data-cppathid="10010" d="m56 72h64v16h-64z"/><path data-cppathid="10011" d="m168 72h64v16h-64z"/><path data-cppathid="10012" d="m280 72h64v16h-64z"/><path data-cppathid="10013" d="m56 184h64v16h-64z"/><path data-cppathid="10014" d="m168 296h48v16h-48z"/><path data-cppathid="10015" d="m296 296h48v16h-48z"/><path data-cppathid="10016" d="m392 184h64v16h-64z"/></g><path data-cppathid="10017" fill="#f9c7b2" d="m72 376h32v16h-32z"/><path data-cppathid="10018" fill="#575757" d="m308.65662 418.62649a31.99969 31.99969 0 0 0 -23.28333-23.28323l-13.37329-3.34326h-32l-13.37329 3.34326a31.99969 31.99969 0 0 0 -23.28333 23.28323l-2.86566 11.46263a16.00011 16.00011 0 0 0 -.47772 3.88057v6.03031h112v-6.03031a16.00011 16.00011 0 0 0 -.47772-3.88057z"/><path data-cppathid="10019" fill="#edad2e" d="m256 304a23.99994 23.99994 0 0 0 -24 24v26.33447a24 24 0 0 0 2.53369 10.73291l5.46631 10.93262v16h32v-16l5.46631-10.93262a24 24 0 0 0 2.53369-10.73291v-26.33447a23.99994 23.99994 0 0 0 -24-24z"/><path data-cppathid="10020" fill="#353535" d="m304 432h-96a16.00016 16.00016 0 0 0 -16 16v48h128v-48a16.00016 16.00016 0 0 0 -16-16z"/><path data-cppathid="10021" fill="#f9c7b2" d="m240 376h32v16h-32z"/><path data-cppathid="10022" fill="#575757" d="m476.65662 418.62649a31.99969 31.99969 0 0 0 -23.28333-23.28323l-13.37329-3.34326h-32l-13.37329 3.34326a31.99969 31.99969 0 0 0 -23.28333 23.28323l-2.86566 11.46263a16.00011 16.00011 0 0 0 -.47772 3.88057v6.03031h112v-6.03031a16.00011 16.00011 0 0 0 -.47772-3.88057z"/><path data-cppathid="10023" fill="#edad2e" d="m424 304a23.99994 23.99994 0 0 0 -24 24v26.33447a24 24 0 0 0 2.53369 10.73291l5.46631 10.93262v16h32v-16l5.46631-10.93262a24 24 0 0 0 2.53369-10.73291v-26.33447a23.99994 23.99994 0 0 0 -24-24z"/><path data-cppathid="10024" fill="#353535" d="m472 432h-96a16.00016 16.00016 0 0 0 -16 16v48h128v-48a16.00016 16.00016 0 0 0 -16-16z"/><path data-cppathid="10025" fill="#f9c7b2" d="m408 376h32v16h-32z"/></g></svg>