<?xml version="1.0" encoding="UTF-8"?>
<svg xmlns="http://www.w3.org/2000/svg" onmouseup="{ if(window.parent.document.onmouseup) window.parent.document.onmouseup(arguments[0]);}" width="512" viewBox="0 0 60 60" height="512"><g fill-rule="evenodd" fill="none" id="Page-1"><g id="010---Financial-Growth"><path data-cppathid="10000" fill="#9d27b0" d="m10 36v21c0 1.1045695-.8954305 2-2 2h-5c-1.10320187-.0032948-1.9967052-.8967981-2-2v-21c.0032948-1.1032019.89679813-1.9967052 2-2h5c1.10320187.0032948 1.9967052.8967981 2 2z" id="Path"/><path data-cppathid="10001" fill="#6a1b9a" d="m8 34h-3c1.10320187.0032948 1.9967052.8967981 2 2v21c0 1.1045695-.8954305 2-2 2h3c1.1045695 0 2-.8954305 2-2v-21c-.0032948-1.1032019-.89679813-1.9967052-2-2z" id="Path"/><path data-cppathid="10002" fill="#ffe0b2" d="m57.68 45.57-18.74 11.41c-1.0968305.667384-2.3560847 1.020252-3.64 1.02h-25.3l-.24-.05c.1564476-.2922896.23885274-.6184766.24-.95v-21h2.8c2.0715011.0028959 4.0808416.7079276 5.7 2s3.6284989 1.9971041 5.7 2h5.23c1.7582968-.0025667 3.3881205.9206201 4.29 2.43l.09.15c.852769 1.4249594.6259838 3.2474872-.55 4.42h2.35c.4319935.0002223.8610725-.0707278 1.27-.21l13.13-4.38 5.38-1.79c1.120338-.3678364 2.3505552.0181141 3.06.96v.01c.4649441.6171961.6465512 1.4025179.4997758 2.1611752s-.608183 1.4195768-1.2697758 1.8188248z" id="Path"/><path data-cppathid="10003" fill="#dfc49c" d="m30.72 42.43.09.15c.852769 1.4249594.6259838 3.2474872-.55 4.42h2.35c.2376052-.0014618.4745837-.0245572.708-.069 1.1239531-1.1745911 1.3252873-2.9550891.492-4.351l-.09-.15c-.9018795-1.5093799-2.5317032-2.4325667-4.29-2.43l-3-.0000053c1.7582968-.0025614 3.3881205.9206254 4.29 2.4300053z" id="Path"/><path data-cppathid="10004" fill="#dfc49c" d="m58.45 41.59v-.01c-.7094448-.9418859-1.939662-1.3278364-3.06-.96l-.749.25c.3140349.1807419.5890261.4220816.809.71v.01c.4649441.6171961.6465512 1.4025179.4997758 2.1611752s-.608183 1.4195768-1.2697758 1.8188248l-18.74 11.41c-1.0968305.667384-2.3560847 1.020252-3.64 1.0200001l3-.0000001c1.2839153.000252 2.5431695-.352616 3.64-1.02l18.74-11.41c.6615928-.399248 1.1230004-1.0601675 1.2697758-1.8188248s-.0348317-1.5439791-.4997758-2.1611752z" id="Path"/><path data-cppathid="10005" fill="#60a917" d="m34 27.46c0 4.08-3.62 5.54-6.34 5.54-7.48 0-7.33-5.45-12.16-7.77-.2879836-.1387256-.4789136-.4218202-.4996268-.7408035-.0207132-.3189832.1320023-.6243924.3996268-.7991965 3.1512912-1.8850409 6.7802144-2.8191848 10.45-2.69 4.53 0 8.15 2.38 8.15 6.46z" id="Path"/><path data-cppathid="10006" fill="#549414" d="m25.85 21c-.624 0-1.216.026-1.787.066 3.945.39 6.937 2.687 6.937 6.394 0 3.441-2.575 5.014-5.014 5.423.5547286.0766521 1.114002.1157411 1.674.117 2.72 0 6.34-1.46 6.34-5.54s-3.62-6.46-8.15-6.46z" id="Path"/><path data-cppathid="10007" fill="#60a917" d="m56.5 25.23c-4.83 2.32-4.68 7.77-12.16 7.77-2.72 0-6.34-1.46-6.34-5.54s3.62-6.46 8.15-6.46c3.6697856-.1291848 7.2987088.8049591 10.45 2.69.2676245.1748041.42034.4802133.3996268.7991965-.0207132.3189833-.2116432.6020779-.4996268.7408035z" id="Path"/><path data-cppathid="10008" fill="#549414" d="m56.6 23.69c-3.1512912-1.8850409-6.7802144-2.8191848-10.45-2.69-.414 0-.817.027-1.213.066 3.0626162.130867 6.042512 1.0334697 8.663 2.624.2676245.1748041.42034.4802133.3996268.7991965-.0207132.3189833-.2116432.6020779-.4996268.7408035-4.435 2.13-4.687 6.887-10.486 7.653.4380155.0755132.8815292.1146468 1.326.117 7.48 0 7.33-5.45 12.16-7.77.2879836-.1387256.4789136-.4218202.4996268-.7408035.0207132-.3189832-.1320023-.6243924-.3996268-.7991965z" id="Path"/><path data-cppathid="10009" fill="#549414" d="m38 18.78v16.67c-1.2658191-.6000632-2.7341809-.6000632-4 0v-16.67c1.3171967.293363 2.6828033.293363 4 0z" id="Path"/><path data-cppathid="10010" fill="#ffdc00" d="m45 10c-.0006267 4.200856-2.9048444 7.8435748-7 8.78-1.3171967.293363-2.6828033.293363-4 0-4.5916078-1.0465253-7.6000739-5.4558329-6.8999994-10.11286765.7000745-4.65703479 4.8719486-7.98694885 9.5683076-7.63724912 4.6963589.34969973 8.3290567 4.26075691 8.3316918 8.97011677z" id="Path"/><path data-cppathid="10011" fill="#fec108" d="m36 1c-.5028835.00322243-1.0046224.04837892-1.5.135 4.2308376.72017356 7.3645681 4.32748046 7.4861315 8.61745235.1215634 4.28997185-2.8028648 8.06894665-6.9861315 9.02754765-.163.036-.333.055-.5.083.4954344.0864428.9971033.1322618 1.5.137.6726367-.0012264 1.3431799-.0749861 2-.22 4.4776304-1.0085618 7.4789961-5.2250098 6.9659424-9.78605652-.5130536-4.5610467-4.3761449-8.0053398-8.9659424-7.99394348z" id="Path"/><path data-cppathid="10012" fill="#a0522d" d="m50.01 42.41-13.13 4.38c-.4089275.1392722-.8380065.2102223-1.27.21h-2.35c1.1759838-1.1725128 1.402769-2.9950406.55-4.42l-.09-.15c-.9018795-1.5093799-2.5317032-2.4325667-4.29-2.43h-3.43c.847141-2.2232389 2.9612059-3.707835 5.34-3.75.9460027.0004284 1.8711733-.2778184 2.66-.8 1.2658191-.6000632 2.7341809-.6000632 4 0 .7888267.5221816 1.7139973.8004284 2.66.8 1.9588471.0204789 3.7705587 1.0433411 4.8 2.71.3555843.5758082.8998321 1.0104996 1.54 1.23 1.2066287.4150053 2.2571156 1.1897829 3.01 2.22z" id="Path"/><path data-cppathid="10013" fill="#783e22" d="m47 40.19c-.6401679-.2195004-1.1844157-.6541918-1.54-1.23-1.0294413-1.6666589-2.8411529-2.6895211-4.8-2.71-.9460027.0004284-1.8711733-.2778184-2.66-.8-.6186622-.3145666-1.3062249-.4692682-2-.45-.5103801-.0098894-1.0184043.0717332-1.5.241.1704566.0602289.3373873.1300059.5.209.7888267.5221816 1.7139973.8004284 2.66.8 1.9588471.0204789 3.7705587 1.0433411 4.8 2.71.3555843.5758082.8998321 1.0104996 1.54 1.23 1.2066287.4150053 2.2571156 1.1897829 3.01 2.22l-13.13 4.38c-.1835604.0609308-.3714166.108062-.562.141-.021.022-.036.047-.058.0690005l2.35-.0000005c.4319935.0002223.8610725-.0707278 1.27-.21l13.13-4.38c-.7528844-1.0302171-1.8033713-1.8049947-3.01-2.22z" id="Path"/><g fill="#000"><path data-cppathid="10014" fill-rule="nonzero" d="m3 60h5c.84849384-.0026614 1.6557601-.3662948 2.22-1h25.08c1.467221.00049 2.906212-.4032856 4.159-1.167l18.741-11.409c.9002164-.5485284 1.5275606-1.4510619 1.728-2.486.199373-1.0030453-.0274032-2.0438249-.626-2.873-.0178314-.0293295-.0371914-.0577019-.058-.085-.9660618-1.2878216-2.6486001-1.8117257-4.175-1.3l-4.748 1.583c-.8154656-.921529-1.8544931-1.617543-3.017-2.021-.4182715-.1503858-.7730062-.4384755-1.006-.817-1.2118931-1.9537087-3.3390621-3.1516089-5.638-3.175-.5794471.0204443-1.1534618-.1178725-1.66-.4v-2.729c1.4950218 1.2479908 3.3898824 1.9151152 5.337 1.879 5.078 0 7.085-2.422 8.855-4.559.9787701-1.3742121 2.2591403-2.5061237 3.743-3.309.6128999-.2982346 1.0181445-.9029412 1.0609842-1.5832021s-.283341-1.3310293-.8539842-1.7037979c-3.3178454-1.978615-7.1328591-2.9658547-10.994-2.845-2.6306701-.1169185-5.2006259.8124793-7.148 2.585v-3.046c4.7094636-1.4810578 7.6333837-6.1772898 6.8841773-11.05696901-.7492064-4.87967919-4.947318-8.482423-9.8841773-8.482423s-9.1349709 3.60274381-9.8841773 8.482423c-.7492064 4.87967921 2.1747137 9.57591121 6.8841773 11.05696901v3.046c-1.9473741-1.7725207-4.5173299-2.7019185-7.148-2.585-3.8611409-.1208547-7.6761546.866385-10.994 2.845-.5706432.3727686-.8968239 1.023537-.8539842 1.7037979s.4480843 1.2849675 1.0609842 1.5832021c1.4838597.8028763 2.7642299 1.9347879 3.743 3.309 1.77 2.137 3.777 4.559 8.855 4.559 1.9471176.0361152 3.8419782-.6310092 5.337-1.879v2.725c-.5065382.2821275-1.0805529.4204443-1.66.4-2.5329202.0355987-4.83323 1.4847283-5.959 3.754h-1.181c-1.8447784-.0022216-3.634258-.6300907-5.076-1.781-1.7965359-1.4333058-4.0257628-2.2155092-6.324-2.219h-1.984c-.4222546-1.1943509-1.54921457-1.9947486-2.816-2h-5c-1.65685425 0-3 1.3431458-3 3v21c0 1.6568542 1.34314575 3 3 3zm43.148-38c3.4075547-.1108783 6.7790173.7261888 9.739 2.418-1.6687307.9246521-3.114359 2.2040417-4.235 3.748-1.705 2.057-3.177 3.834-7.315 3.834-1.983 0-5.337-.956-5.337-4.539 0-3.773 3.59-5.461 7.148-5.461zm-18.148-12c0-4.418278 3.581722-8 8-8s8 3.581722 8 8-3.581722 8-8 8c-4.4162219-.0049599-7.9950401-3.5837781-8-8zm8 10c.3339755-.0003022.6677266-.0173235 1-.051v14.131c-.6624-.1066667-1.3376-.1066667-2 0v-14.131c.3322734.0336765.6660245.0506978 1 .051zm-8.337 12c-4.138 0-5.61-1.777-7.315-3.834-1.120641-1.5439583-2.5662693-2.8233479-4.235-3.748 2.9599237-1.6919586 6.3314286-2.5290362 9.739-2.418 3.558 0 7.148 1.688 7.148 5.461 0 3.583-3.354 4.539-5.337 4.539zm3.677 5.25c.984447.0179219 1.9542935-.2397802 2.8-.744 1.1461083-.6745722 2.5678917-.6745722 3.714 0 .8457065.5042198 1.815553.7619219 2.8.744 1.6195658.0230658 3.1144482.8741034 3.961 2.255.4789676.7678355 1.2095122 1.3456974 2.067 1.635.5456787.1855189 1.0537048.4673041 1.5.832l-11.619 3.874c-.3063366.1020382-.6271163.1540382-.95.154h-.574c.4752043-1.3013917.3385502-2.7476481-.372-3.937l-.09-.15c-1.0890552-1.8024064-3.0391349-2.906504-5.145-2.913h-1.679c.873265-1.0910664 2.1895961-1.7332686 3.587-1.75zm-13.465 1.531c1.7968041 1.4335191 4.0264197 2.2157352 6.325 2.219h5.231c1.4035087.003879 2.7033268.7396466 3.429 1.941l.09.149c.5456847.910432.4864029 2.0605004-.15 2.91h-6.075c-1.9746028-.0018907-3.9052624.5828413-5.547 1.68l-.733.488c-.4595009.306518-.583518.9274991-.277 1.387s.9274991.583518 1.387.277l.732-.488c1.3135346-.8777368 2.8581922-1.3455196 4.438-1.344h8.888c.5376592.0001761 1.0718359-.0862646 1.582-.256l18.511-6.171c.6777007-.2336995 1.4293064-.0239027 1.888.527.017.029.037.057.057.085.294741.3922757.4100479.8908109.3174859 1.3726665s-.3843779.9021845-.8034859 1.1573335l-18.745 11.41c-.9400676.5722941-2.0194331.8750007-3.12.875h-24.3v-20h1.8c1.8444353.0024479 3.6335262.6303042 5.075 1.781zm-15.875-2.781c0-.5522847.44771525-1 1-1h5c.55228475 0 1 .4477153 1 1v21c0 .5522847-.44771525 1-1 1h-5c-.55228475 0-1-.4477153-1-1z" id="Shape"/><path data-cppathid="10015" d="m37 15v-.184c1.3765475-.4848523 2.2026937-1.8918441 1.9553873-3.330178s-1.49595-2.4885874-2.9553873-2.485822c-.4851707-.00047298-.9000069-.34913653-.9839455-.82699124-.0839386-.47785472.1872399-.94702164.6432053-1.11281187.4559653-.16579023.9651545.01963291 1.2077402.43980311.1727115.32093937.5063525.5225002.8707953.5260692.3644429.003569.7019673-.19141908.880931-.50891448s.1710225-.70721323-.0207263-1.01715472c-.3620629-.60876706-.9282899-1.06940236-1.598-1.3v-.2c0-.55228475-.4477153-1-1-1s-1 .44771525-1 1v.184c-1.3765475.48485233-2.2026937 1.89184415-1.9553873 3.33017801.2473064 1.43833387 1.49595 2.48858739 2.9553873 2.48582199.4851707.000473.9000069.3491365.9839455.8269912.0839386.4778548-.1872399.9470217-.6432053 1.1128119-.4559653.1657902-.9651545-.0196329-1.2077402-.4398031-.2843876-.4596821-.882589-.61017-1.3506397-.3397768s-.6365131.8637835-.3803603 1.3397768c.3625581.6091337.9295478 1.0698128 1.6 1.3v.2c0 .5522847.4477153 1 1 1s1-.4477153 1-1z" id="Path"/></g></g></g></svg>