<?xml version="1.0" encoding="UTF-8"?>
<svg xmlns="http://www.w3.org/2000/svg" onmouseup="{ if(window.parent.document.onmouseup) window.parent.document.onmouseup(arguments[0]);}" width="512" viewBox="0 0 64 64" height="512" enable-background="new 0 0 64 64" id="Layer_5"><g><g><g><path data-cppathid="10000" fill="#aab2bd" d="m39.6 44c-1.02 1.77-1.6 3.82-1.6 6h-13.04c-.5-.75-1.17-1.37-1.96-1.82v-4.18h5 9z"/></g><g><path data-cppathid="10001" fill="#ccd1d9" d="m28 22v22h-5v-10c0-1.49-.36-2.89-1.01-4.13h.01v-7.87z"/></g><g><path data-cppathid="10002" fill="#ccd1d9" d="m43 22v18.25c-1.38.99-2.54 2.27-3.4 3.75h-2.6v-22z"/></g><g><path data-cppathid="10003" fill="#ccd1d9" d="m58 22v19l-.02.03c-1.64-1.47-3.7-2.48-5.98-2.86v-16.17z"/></g><g><path data-cppathid="10004" fill="#d3a06c" d="m43.56 3.25c-1.01-.81-2.27-1.25-3.56-1.25s-2.55.44-3.56 1.25l-18.44 14.75v4h4 6 9 6 9 6 4v-4z"/></g><g><path data-cppathid="10005" fill="#dfb28b" d="m56.11 18h-32.11l14.37-11.43c.47-.37 1.04-.57 1.63-.57s1.16.2 1.62.56z"/></g><g><circle data-cppathid="10006" r="2" fill="#e6e9ed" cy="12" cx="40"/></g><g><path data-cppathid="10007" fill="#fcd770" d="m43 40.25c1.97-1.42 4.38-2.25 7-2.25.68 0 1.35.06 2 .17 2.28.38 4.34 1.39 5.98 2.86 2.47 2.2 4.02 5.4 4.02 8.97 0 6.63-5.37 12-12 12s-12-5.37-12-12c0-2.18.58-4.23 1.6-6 .86-1.48 2.02-2.76 3.4-3.75z"/></g><g><path data-cppathid="10008" fill="#e6e9ed" d="m15 55 1 7h-4l1-7z"/></g><g><path data-cppathid="10009" fill="#ccd1d9" d="m15.8 51.8-.8 3.2h-2l-.8-3.2 1.8-1.8z"/></g><g><path data-cppathid="10010" fill="#b4dd7f" d="m13 55-1 7h-10v-8.63c0-2.21 1.19-4.16 3-5.19.7-.41 1.49-.68 2.34-.77l2.68-.3.98 5.89 1.2-1.2z"/></g><g><path data-cppathid="10011" fill="#b4dd7f" d="m23 48.18c.79.45 1.46 1.07 1.96 1.82.66.96 1.04 2.12 1.04 3.37v8.63h-10l-1-7 .8-3.2 1.2 1.2.98-5.89 2.68.3c.85.09 1.64.36 2.34.77z"/></g><g><path data-cppathid="10012" fill="#a0d468" d="m14 50 3-3 .98.11-.98 5.89-1.2-1.2z"/></g><g><path data-cppathid="10013" fill="#a0d468" d="m12.2 51.8-1.2 1.2-.98-5.89.98-.11 3 3z"/></g><g><path data-cppathid="10014" fill="#656d78" d="m23 44v4.18c-.7-.41-1.49-.68-2.34-.77l-2.68-.3-.98-.11-.7-2.56c1.61-.83 2.7-2.51 2.7-4.44v-5c-1.97 0-3.92-.46-5.68-1.34l-1.32-.66-3 2v5c0 1.38.56 2.63 1.46 3.54.36.36.78.66 1.24.9l-.7 2.56-.98.11-2.68.3c-.85.09-1.64.36-2.34.77v-14.18c0-2.48 1.01-4.74 2.64-6.36 1.62-1.63 3.88-2.64 6.36-2.64 3.48 0 6.5 1.98 7.99 4.87.65 1.24 1.01 2.64 1.01 4.13z"/></g><g><path data-cppathid="10015" fill="#f0d0b4" d="m16.3 44.44.7 2.56-3 3-3-3 .7-2.56c.69.36 1.47.56 2.3.56s1.61-.2 2.3-.56z"/></g><g><path data-cppathid="10016" fill="#f0d0b4" d="m19 35v5c0 1.93-1.09 3.61-2.7 4.44-.69.36-1.47.56-2.3.56s-1.61-.2-2.3-.56c-.46-.24-.88-.54-1.24-.9-.9-.91-1.46-2.16-1.46-3.54v-5l3-2 1.32.66c1.76.88 3.71 1.34 5.68 1.34z"/></g></g><g><path data-cppathid="10017" d="m54 46.905c0-1.84-1.284-3.378-3-3.789v-2.116h-2v2.117c-1.716.411-3 1.948-3 3.789 0 1.684 1.073 3.173 2.671 3.705l2.025.676c.781.26 1.304.986 1.304 1.808 0 1.051-.854 1.905-1.905 1.905h-.189c-1.052 0-1.906-.854-1.906-1.905v-1.095h-2v1.095c0 1.84 1.284 3.378 3 3.789v2.116h2v-2.117c1.716-.411 3-1.948 3-3.789 0-1.684-1.073-3.173-2.671-3.705l-2.025-.676c-.781-.26-1.304-.986-1.304-1.808 0-1.051.854-1.905 1.905-1.905h.189c1.052 0 1.906.854 1.906 1.905v.095z"/><path data-cppathid="10018" d="m63 23v-5.48l-18.813-15.052c-1.184-.947-2.671-1.468-4.187-1.468s-3.003.521-4.187 1.468l-18.813 15.052v5.48h4v3.871c-1.805-1.773-4.276-2.871-7-2.871-5.514 0-10 4.486-10 10v13.631c-1.823 1.271-3 3.375-3 5.74v9.629h26v-9.63c0-.831-.15-1.628-.417-2.37h10.468c.514 6.701 6.119 12 12.949 12 7.168 0 13-5.832 13-13 0-3.675-1.54-6.992-4-9.359v-17.641zm-25.937-18.97c1.66-1.328 4.213-1.328 5.873 0l16.213 12.97h-2.691l-14.215-11.223c-1.276-1.005-3.223-1.002-4.491.009l-14.1 11.214h-2.801zm16.166 12.97h-26.366l12.133-9.649c.567-.45 1.439-.455 2.008-.003zm-34.229 2h42v2h-42zm31 18c-2.165 0-4.203.539-6 1.479v-15.479h7v14.051c-.331-.026-.662-.051-1-.051zm-10.937 6h-1.063v-20h4v16.775c-1.151.902-2.144 1.991-2.937 3.225zm-3.063-20v20h-7v-20zm-9 0v20h-3v-9c0-1.552-.366-3.017-1-4.33v-6.67zm-21 11c0-4.411 3.589-8 8-8s8 3.589 8 8v9 2 1.663c-.395-.117-.805-.203-1.228-.25l-2.987-.332-.326-1.187c1.535-1.088 2.541-2.874 2.541-4.894v-6h-1c-1.809 0-3.62-.428-5.236-1.236l-1.836-.918-3.928 2.619v5.535c0 2.02 1.006 3.806 2.541 4.894l-.326 1.187-2.987.332c-.423.047-.833.133-1.228.25zm8 10c-2.206 0-4-1.794-4-4v-4.465l2.072-1.381.797.398c1.595.798 3.351 1.278 5.131 1.41v4.038c0 2.206-1.794 4-4 4zm0 2c.564 0 1.108-.084 1.626-.23l.256.934-1.882 1.882-1.882-1.882.256-.934c.518.146 1.062.23 1.626.23zm-1.414 4-.919.919-.367-2.205zm1.282 6h.265l.714 5h-1.693zm.351-2h-.438l-.474-1.893.693-.693.693.693zm1.195-4 1.286-1.286-.367 2.205zm-12.414 3.37c0-2.552 1.912-4.688 4.448-4.969l1.739-.193 1.145 6.873 1.325-1.325.324 1.297-.849 5.947h-8.132zm22 7.63h-8.132l-.85-5.948.324-1.297 1.325 1.325 1.145-6.873 1.739.193c2.537.283 4.449 2.418 4.449 4.97zm-1-13.369v-2.631h14.003c-.522 1.247-.844 2.593-.952 4h-11.588c-.419-.523-.91-.984-1.463-1.369zm37 2.369c0 6.065-4.935 11-11 11s-11-4.935-11-11 4.935-11 11-11 11 4.935 11 11zm-4-10.937c-1.212-.778-2.559-1.357-4-1.7v-14.363h4z"/><path data-cppathid="10019" d="m37 12c0 1.654 1.346 3 3 3s3-1.346 3-3-1.346-3-3-3-3 1.346-3 3zm4 0c0 .552-.448 1-1 1s-1-.448-1-1 .448-1 1-1 1 .448 1 1z"/></g></g></svg>