<?xml version="1.0" encoding="UTF-8"?>
<svg xmlns="http://www.w3.org/2000/svg" onmouseup="{ if(window.parent.document.onmouseup) window.parent.document.onmouseup(arguments[0]);}" height="512" width="512" xml:space="preserve" style="enable-background:new 0 0 512 512;" viewBox="0 0 512 512" y="0px" x="0px" id="Capa_1" version="1.1" xmlns:xlink="http://www.w3.org/1999/xlink"><g><g><g><polygon data-cppathid="10000" points="479.716,249.667 409.656,249.667 409.656,0 255.99,0 234.656,234.667 255.99,511.858      256,511.87    " style="fill:#A8D32A;"/><polygon data-cppathid="10001" points="102.323,0 102.323,249.667 32.284,249.667 255.99,511.858 255.99,0    " style="fill:#C8EC4B;"/></g><g><path data-cppathid="10002" d="M255.99,46.494c-0.111,0-0.222,0.004-0.333,0.004L230.66,163.827l24.997,117.329     c0.111,0,0.222,0.004,0.333,0.004c64.801,0,117.333-52.532,117.333-117.333S320.791,46.494,255.99,46.494z" style="fill:#93BF00;"/><path data-cppathid="10003" d="M138.656,163.827c0,64.69,52.352,117.149,117,117.329V46.498     C191.009,46.678,138.656,99.137,138.656,163.827z" style="fill:#A8D32A;"/></g><g><polygon data-cppathid="10004" points="319.647,94.955 286.392,94.955 255.656,139.965 245.323,181.334 255.656,188.665    " style="fill:#D9E7EC;"/><path data-cppathid="10005" d="M306.463,157.924c-20.858,0-36.601,13.971-36.601,38.372c0,24.597,15.742,38.372,36.601,38.372     s36.6-13.774,36.6-38.372C343.064,171.895,327.321,157.924,306.463,157.924z M306.463,213.415c-4.329,0-8.658-3.935-8.658-17.119     s4.329-17.12,8.658-17.12s8.658,3.936,8.658,17.12S310.792,213.415,306.463,213.415z" style="fill:#D9E7EC;"/><polygon data-cppathid="10006" points="225.587,232.699 255.656,188.665 255.656,139.965 192.332,232.699    " style="fill:#FAFCFD;"/><path data-cppathid="10007" d="M242.117,131.359c0-24.4-15.742-38.372-36.601-38.372s-36.601,13.971-36.601,38.372     c0,24.597,15.742,38.372,36.601,38.372S242.117,155.956,242.117,131.359z M196.858,131.359c0-13.184,4.329-17.12,8.658-17.12     c4.329,0,8.658,3.936,8.658,17.12c0,13.184-4.329,17.12-8.658,17.12C201.187,148.478,196.858,144.543,196.858,131.359z" style="fill:#FAFCFD;"/></g></g><g><polygon data-cppathid="10008" points="389.323,482 255.99,482 245.323,501.333 255.99,512 389.323,512   " style="fill:#FF6200;"/><rect data-cppathid="10009" height="30" width="133.333" style="fill:#FD7D21;" y="482" x="122.656"/></g></g></svg>