<?xml version="1.0" encoding="UTF-8"?>
<svg xmlns="http://www.w3.org/2000/svg" onmouseup="{ if(window.parent.document.onmouseup) window.parent.document.onmouseup(arguments[0]);}" width="512" viewBox="0 0 60 60" height="512" id="Icons"><path data-cppathid="10000" fill="#9dcf65" d="m13.04 13.04a23.832 23.832 0 0 0 -7.03 15.98 1.012 1.012 0 0 1 -1 .98h-3a1 1 0 0 1 -1.01-1.02 28.866 28.866 0 0 1 8.49-19.49l2.51 1.51z"/><path data-cppathid="10001" fill="#fcd576" d="m30 1 2 2-2 3a23.888 23.888 0 0 0 -16.96 7.04l-3.55-3.55a28.907 28.907 0 0 1 20.51-8.49z"/><path data-cppathid="10002" fill="#f88a72" d="m50.51 9.49-.51 2.51-3.04 1.04a23.888 23.888 0 0 0 -16.96-7.04v-5a28.907 28.907 0 0 1 20.51 8.49z"/><path data-cppathid="10003" fill="#d94c57" d="m59 28.98a1 1 0 0 1 -1.01 1.02h-3a1.012 1.012 0 0 1 -1-.98 23.832 23.832 0 0 0 -7.03-15.98l3.55-3.55a28.866 28.866 0 0 1 8.49 19.49z"/><path data-cppathid="10004" fill="#cfd2da" d="m27.707 25.627-19.617-5.597a.8.8 0 0 0 -.6 1.47l17.671 9.509z"/><path data-cppathid="10005" fill="#bdc2cc" d="m32.15 34.51a5 5 0 1 0 -4.3 0z"/><path data-cppathid="10006" fill="#f2a332" d="m47.848 57.646-17.148-25.271a.846.846 0 0 0 -1.406 0l-17.142 25.271a.865.865 0 0 0 .7 1.354h34.29a.865.865 0 0 0 .706-1.354z"/><g fill="#373737"><path data-cppathid="10007" d="m0 28.943a1.953 1.953 0 0 0 .552 1.441 2.036 2.036 0 0 0 1.459.616h3a2.023 2.023 0 0 0 2-1.942 22.294 22.294 0 0 1 1.1-6.089l16.126 8.676a6.022 6.022 0 0 0 2.2 3.163l-15.114 22.277a1.873 1.873 0 0 0 -.1 1.929 1.848 1.848 0 0 0 1.631.986h34.292a1.848 1.848 0 0 0 1.634-.986 1.873 1.873 0 0 0 -.1-1.929l-15.118-22.277a5.992 5.992 0 1 0 -9.514-5.534l-14.443-7.774 13.121 3.743a1 1 0 1 0 .548-1.924l-13.688-3.9a23 23 0 0 1 43.405 9.656 2.019 2.019 0 0 0 2 1.926h3a2.036 2.036 0 0 0 1.457-.616 1.951 1.951 0 0 0 .552-1.44 30.017 30.017 0 0 0 -60 0zm13.119 29.057 16.881-24.88 16.881 24.88zm16.881-32a3.99 3.99 0 0 1 2.44 7.154l-.909-1.34a1.846 1.846 0 0 0 -3.061 0l-.91 1.341a3.99 3.99 0 0 1 2.44-7.155zm-24.989 3-3.011.016a27.9 27.9 0 0 1 7.471-18.131l2.175 2.175a24.932 24.932 0 0 0 -4.1 5.969 1.793 1.793 0 0 0 -1.156 2.785 24.319 24.319 0 0 0 -1.379 7.186zm8.051-17.352-2.173-2.173a27.925 27.925 0 0 1 18.111-7.451v3.013a25.049 25.049 0 0 0 -15.938 6.611zm17.938-6.624v-3a27.919 27.919 0 0 1 18.111 7.451l-2.134 2.134a24.929 24.929 0 0 0 -15.977-6.585zm23.988 23.955a24.882 24.882 0 0 0 -6.595-15.958l2.136-2.136a27.843 27.843 0 0 1 7.46 18.115z"/><path data-cppathid="10008" d="m29 39v11a1 1 0 0 0 2 0v-11a1 1 0 0 0 -2 0z"/><path data-cppathid="10009" d="m30 53a1 1 0 0 0 -1 1v1a1 1 0 0 0 2 0v-1a1 1 0 0 0 -1-1z"/></g></svg>