<?xml version="1.0" encoding="UTF-8"?>
<svg xmlns="http://www.w3.org/2000/svg" onmouseup="{ if(window.parent.document.onmouseup) window.parent.document.onmouseup(arguments[0]);}" width="512" viewBox="0 0 60 60" height="512"><g fill-rule="evenodd" fill="none" id="Page-1"><g id="013---Financial-Strategy"><rect data-cppathid="10000" y="55" x="1" width="58" rx="1" height="4" fill="#02a9f4" id="Rectangle"/><path data-cppathid="10001" fill="#0377bc" d="m58 55h-3c.5522847 0 1 .4477153 1 1v2c0 .5522847-.4477153 1-1 1h3c.5522847 0 1-.4477153 1-1v-2c0-.5522847-.4477153-1-1-1z" id="Path"/><path data-cppathid="10002" fill="#60a917" d="m28 39h4c.5522847 0 1 .4477153 1 1v15h-6v-15c0-.5522847.4477153-1 1-1z" id="Path"/><path data-cppathid="10003" fill="#549414" d="m32 39h-3c.5522847 0 1 .4477153 1 1v15h3v-15c0-.5522847-.4477153-1-1-1z" id="Path"/><path data-cppathid="10004" fill="#60a917" d="m38 35h4c.5522847 0 1 .4477153 1 1v19h-6v-19c0-.5522847.4477153-1 1-1z" id="Path"/><path data-cppathid="10005" fill="#549414" d="m42 35h-3c.5522847 0 1 .4477153 1 1v19h3v-19c0-.5522847-.4477153-1-1-1z" id="Path"/><path data-cppathid="10006" fill="#60a917" d="m48 29h4c.5522847 0 1 .4477153 1 1v25h-6v-25c0-.5522847.4477153-1 1-1z" id="Path"/><path data-cppathid="10007" fill="#549414" d="m52 29h-3c.5522847 0 1 .4477153 1 1v25h3v-25c0-.5522847-.4477153-1-1-1z" id="Path"/><path data-cppathid="10008" fill="#ff9801" d="m23 52v3h-20v-3c0-.5522847.44771525-1 1-1h18c.5522847 0 1 .4477153 1 1z" id="Path"/><rect data-cppathid="10009" y="42" x="4" width="18" rx="1" height="4" fill="#ff9801" id="Rectangle"/><path data-cppathid="10010" fill="#f57c00" d="m21 42h-3c.5522847 0 1 .4477153 1 1v2c0 .5522847-.4477153 1-1 1h3c.5522847 0 1-.4477153 1-1v-2c0-.5522847-.4477153-1-1-1z" id="Path"/><path data-cppathid="10011" fill="#f57c00" d="m22 51h-3c.5522847 0 1 .4477153 1 1v3h3v-3c0-.5522847-.4477153-1-1-1z" id="Path"/><path data-cppathid="10012" fill="#a0522d" d="m22 51h-18c-.03715911-1.8685945.68440581-3.6725068 2-5h14c1.3155942 1.3274932 2.0371591 3.1314055 2 5z" id="Path"/><path data-cppathid="10013" fill="#ff9801" d="m23.29 29.71-1.66 1.66c-.3610476.3581075-.9333558.388229-1.33.07l-2.97-2.38c-.1316649-.1070147-.3020571-.1541444-.47-.13-.2840564.0485303-.5718344.0719541-.86.07-1.0254162.0000424-2.033888-.2615407-2.93-.76-.2095494-.1185761-.469154-.1032666-.6633139.0391174-.1941599.1423839-.286793.385382-.2366861.6208826 1.16 5.99 7.83 5.79 7.83 13.1h-15c0-7.06-2.34-7.83-2.89-12.09-.82-6.38 3.7-12.44 10.12-12.88 1.6585032-.102551 3.3213787.1112472 4.9.63.2235019.0762646.4032729.2451859.4932853.4635139.0900125.2183281.0815265.4648641-.0232853.6764861l-.6 1.2 1.29 1.29c.4552943.4524701.7109114 1.0681112.71 1.71s.2547057 1.2575299.71 1.71l3.58 3.58c.3899779.3930079.3899779 1.0269921 0 1.42z" id="Path"/><path data-cppathid="10014" fill="#f57c00" d="m12.181 28.942c-.740998-.1003583-1.4568502-.3377323-2.111-.7-.20954942-.1185761-.46915401-.1032666-.66331392.0391174-.19415991.1423839-.28679296.385382-.23668608.6208826 1.16 5.988 7.83 5.788 7.83 13.098h3c0-7.292-6.634-7.114-7.819-13.058z" id="Path"/><path data-cppathid="10015" fill="#f57c00" d="m23.29 28.29-3.58-3.58c-.4552943-.4524701-.7109114-1.0681112-.71-1.71s-.2547057-1.2575299-.71-1.71l-1.29-1.29.6-1.2c.1048118-.211622.1132978-.458158.0232853-.6764861-.0900124-.218328-.2697834-.3872493-.4932853-.4635139-1.5786213-.5187528-3.2414968-.732551-4.9-.63-.206.014-.4.05-.605.075.8516946.0993701 1.6910361.285332 2.505.555.2235019.0762646.4032729.2451859.4932853.4635139.0900125.2183281.0815265.4648641-.0232853.6764861l-.6 1.2 1.29 1.29c.4552943.4524701.7109114 1.0681112.71 1.71s.2547057 1.2575299.71 1.71l3.58 3.58c.3899779.3930079.3899779 1.0269921 0 1.42l-.956.956.966.774c.3966442.318229.9689524.2881075 1.33-.07l1.66-1.66c.3899779-.3930079.3899779-1.0269921 0-1.42z" id="Path"/><circle data-cppathid="10016" r="12" fill="#ffdc00" cy="13" cx="40" id="Oval"/><path data-cppathid="10017" fill="#fec108" d="m40 1c-.5016016.00186626-1.0025897.03526546-1.5.1 5.9981525.75148557 10.4985957 5.85095539 10.4985957 11.896 0 6.0450446-4.5004432 11.1445144-10.4985957 11.896 4.4513412.6000263 8.8650932-1.3360521 11.4384127-5.0174236 2.5733196-3.6813716 2.8753186-8.4916109.7826423-12.4659255-2.0926763-3.97431455-6.2296207-6.44722719-10.721055-6.4086509z" id="Path"/><g fill="#000"><path data-cppathid="10018" fill-rule="nonzero" d="m58 54h-4v-24c0-1.1045695-.8954305-2-2-2h-4c-1.1045695 0-2 .8954305-2 2v24h-2v-18c0-1.1045695-.8954305-2-2-2h-4c-1.1045695 0-2 .8954305-2 2v18h-2v-14c0-1.1045695-.8954305-2-2-2h-4c-1.1045695 0-2 .8954305-2 2v14h-2v-2c-.0021709-.7247294-.3977795-1.3910983-1.033-1.74-.0926973-1.2253613-.4692971-2.4123356-1.1-3.467.6895729-.3317089 1.1294351-1.0278014 1.133-1.793v-2c0-1.1045695-.8954305-2-2-2h-.046c-.319-3.766-2.421-5.614-4.3-7.255-1.447-1.266-2.718-2.379-3.309-4.265 1.104604.4541909 2.307877.6150636 3.493.467l2.835 2.272c.7953959.638138 1.9435354.5756689 2.665-.145l1.662-1.66c.7807639-.7809997.7807639-2.0470003 0-2.828l-3.586-3.586c-.2641419-.2659158-.4128823-.6251922-.414-1 .0027368-.9059853-.3573965-1.7753471-1-2.414l-.783-.783.275-.552c.2357209-.4713641.2560407-1.0216461.0557257-1.5091114-.2003151-.4874653-.6016834-.8644621-1.1007257-1.0338886-1.7043463-.5596319-3.499567-.7900582-5.29-.679-3.23528717.2243991-6.23054711 1.7874427-8.265 4.313-2.21496027 2.7163721-3.21617164 6.2236853-2.769 9.7.21238044 1.4860372.6529018 2.9303806 1.306 4.282 1.03106336 2.1762876 1.56171273 4.5558382 1.553 6.964-.60675251.3571516-.9800429 1.0079389-.982 1.712v2c.00319364.7647459.44220565 1.4607217 1.131 1.793-.63070285 1.0546644-1.00730274 2.2416387-1.1 3.467-.63444813.3494258-1.02923099 1.0156937-1.031 1.74v2c-1.1045695 0-2 .8954305-2 2v2c0 1.1045695.8954305 2 2 2h56c1.1045695 0 2-.8954305 2-2v-2c0-1.1045695-.8954305-2-2-2zm-10-24h4v24h-4zm-10 6h4v18h-4zm-10 4h4v14h-4zm-23 3h16v2h-16zm14.532 4c.742027.8443584 1.221313 1.88704 1.379 3h-15.822c.15768704-1.11296.63697304-2.1556416 1.379-3zm-14.094-25.39c1.68639363-2.0972107 4.1705284-3.3967158 6.855-3.586 1.4588843-.0857958 2.9213886.0889326 4.319.516l-.507 1.013c-.1921654.3850479-.1164429.8498553.188 1.154l1.293 1.293c.2641419.2659158.4128823.6251922.414 1-.0027368.9059853.3573965 1.7753471 1 2.414l3.586 3.586-1.66 1.659-2.971-2.382c-.3500364-.2796346-.8012797-.3997001-1.244-.331-1.0870073.1558761-2.1951534-.0485427-3.155-.582-.5438429-.3091775-1.2185764-.2700171-1.723.1-.5172883.3688208-.7695123 1.0072138-.644 1.63.591 3.045 2.482 4.7 4.15 6.159 1.766 1.544 3.3 2.914 3.6 5.75h-12.965c-.02525401-2.5855017-.60890651-5.1350159-1.711-7.474-.57802908-1.1788271-.96839986-2.4406998-1.157-3.74-.37752727-2.930797.46562735-5.8879847 2.332-8.179zm-1.438 30.39h18v2h-18zm-2 6v-2h56v2z" id="Shape"/><path data-cppathid="10019" d="m40 18c-1.1045695 0-2-.8954305-2-2 0-.5522847-.4477153-1-1-1s-1 .4477153-1 1c.0068148 1.8184116 1.2393149 3.4034067 3 3.858v1.142c0 .5522847.4477153 1 1 1s1-.4477153 1-1v-1.142c1.9482742-.5014457 3.2190002-2.3742805 2.9650329-4.3699561-.2539674-1.9956755-1.953264-3.4905487-3.9650329-3.4880439-1.1045695 0-2-.8954305-2-2s.8954305-2 2-2 2 .8954305 2 2c0 .5522847.4477153 1 1 1s1-.4477153 1-1c-.0068148-1.81841162-1.2393149-3.40340667-3-3.858v-1.142c0-.55228475-.4477153-1-1-1s-1 .44771525-1 1v1.142c-1.9482742.50144572-3.2190002 2.37428054-2.9650329 4.3699561.2539674 1.9956755 1.953264 3.4905487 3.9650329 3.4880439 1.1045695 0 2 .8954305 2 2s-.8954305 2-2 2z" id="Path"/><path data-cppathid="10020" fill-rule="nonzero" d="m40 26c7.1797017 0 13-5.8202983 13-13 0-7.17970175-5.8202983-13-13-13s-13 5.82029825-13 13c.008266 7.1762751 5.8237249 12.991734 13 13zm0-24c6.0751322 0 11 4.92486775 11 11 0 6.0751322-4.9248678 11-11 11s-11-4.9248678-11-11c.0071635-6.07216255 4.9278374-10.9928365 11-11z" id="Shape"/></g></g></g></svg>