<?xml version="1.0" encoding="UTF-8"?>
<svg xmlns="http://www.w3.org/2000/svg" onmouseup="{ if(window.parent.document.onmouseup) window.parent.document.onmouseup(arguments[0]);}" data-name="Layer 3" width="512" viewBox="0 0 64 64" height="512" id="Layer_3"><path data-cppathid="10000" fill="#e0e0e0" d="m2 2h44v58h-44z"/><path data-cppathid="10001" fill="#f7c244" d="m6 26h36v28h-36z"/><path data-cppathid="10002" fill="#f5f5f5" d="m6 34h36v20h-36z"/><path data-cppathid="10003" fill="#f7c244" d="m6 6h36v16h-36z"/><path data-cppathid="10004" fill="#f9ce69" d="m6 6v11h27a3 3 0 0 0 3-3v-8z"/><path data-cppathid="10005" fill="#594139" d="m59 56a3 3 0 0 1 3 3 3 3 0 0 1 -3 3h-18a3 3 0 0 1 -3-3 3 3 0 0 1 3-3v-9a9 9 0 0 1 9-9 9 9 0 0 1 9 9z"/><path data-cppathid="10006" fill="#594139" d="m50 38a8.938 8.938 0 0 1 4 .947v-1.947a2 2 0 0 0 -2-2h-4a2 2 0 0 0 -2 2v1.947a8.938 8.938 0 0 1 4-.947z"/><path data-cppathid="10007" fill="#74574a" d="m48 35h4a1.979 1.979 0 0 1 .931.24l2.069-7.24h-3l-2 2-2-2h-3l2.069 7.24a1.979 1.979 0 0 1 .931-.24z"/><path data-cppathid="10008" fill="#74574a" d="m53 58a3 3 0 0 0 3-3v-14.695a8.989 8.989 0 0 0 -15 6.695v9a2.99 2.99 0 0 0 -2.816 2z"/><circle data-cppathid="10009" r="2" fill="#b3bec4" cy="48" cx="36"/><circle data-cppathid="10010" r="2" fill="#b3bec4" cy="40" cx="29"/><path data-cppathid="10011" fill="#f9ce69" d="m6 26v4h27a3 3 0 0 0 3-3v-1z"/><path data-cppathid="10012" d="m43 6a1 1 0 0 0 -1-1h-36a1 1 0 0 0 -1 1v16a1 1 0 0 0 1 1h36a1 1 0 0 0 1-1zm-2 15h-34v-14h34z"/><path data-cppathid="10013" d="m16 18h2v-6h2v-2h-6v2h2z"/><path data-cppathid="10014" d="m23 16h2v2h2v-5a3 3 0 0 0 -6 0v5h2zm1-4a1 1 0 0 1 1 1v1h-2v-1a1 1 0 0 1 1-1z"/><path data-cppathid="10015" d="m30 18a3.8 3.8 0 0 1 1-2.56 3.8 3.8 0 0 1 1 2.56h2a5.784 5.784 0 0 0 -1.6-4 5.784 5.784 0 0 0 1.6-4h-2a3.8 3.8 0 0 1 -1 2.56 3.8 3.8 0 0 1 -1-2.56h-2a5.784 5.784 0 0 0 1.6 4 5.784 5.784 0 0 0 -1.6 4z"/><path data-cppathid="10016" d="m43 39v-13a1 1 0 0 0 -1-1h-36a1 1 0 0 0 -1 1v28a1 1 0 0 0 1 1h32v-2h-13v-18h16v4zm-20 14h-16v-18h16zm-16-20v-6h34v6z"/><path data-cppathid="10017" d="m9 37h12v2h-12z"/><path data-cppathid="10018" d="m9 41h12v2h-12z"/><path data-cppathid="10019" d="m9 45h12v2h-12z"/><path data-cppathid="10020" d="m9 49h12v2h-12z"/><path data-cppathid="10021" d="m36 51a3 3 0 1 0 -3-3 3 3 0 0 0 3 3zm0-4a1 1 0 1 1 -1 1 1 1 0 0 1 1-1z"/><path data-cppathid="10022" d="m32 40a3 3 0 1 0 -3 3 3 3 0 0 0 3-3zm-3 1a1 1 0 1 1 1-1 1 1 0 0 1 -1 1z"/><path data-cppathid="10023" transform="matrix(.447 -.894 .894 .447 -21.389 53.391)" d="m24.674 43h15.652v2h-15.652z"/><path data-cppathid="10024" d="m60 55.127v-8.127a10 10 0 0 0 -5-8.647v-1.353a2.986 2.986 0 0 0 -.917-2.151l1.879-6.574a1 1 0 0 0 -.962-1.275h-3a1 1 0 0 0 -.707.293l-1.293 1.293-1.293-1.293a1 1 0 0 0 -.707-.293h-3a1 1 0 0 0 -.962 1.275l1.879 6.574a2.986 2.986 0 0 0 -.917 2.151v1.353a10 10 0 0 0 -5 8.647v8.127a4.005 4.005 0 0 0 -3 3.873h-34v-56h42v22h2v-23a1 1 0 0 0 -1-1h-44a1 1 0 0 0 -1 1v58a1 1 0 0 0 1 1h35.556a3.987 3.987 0 0 0 3.444 2h18a4 4 0 0 0 1-7.873zm-13.674-26.127h1.26l1.707 1.707a1 1 0 0 0 1.414 0l1.707-1.707h1.26l-1.436 5.024c-.08-.006-.156-.024-.238-.024h-4c-.082 0-.158.018-.238.024zm.674 8a1 1 0 0 1 1-1h4a1 1 0 0 1 1 1v.461a9.992 9.992 0 0 0 -6 0zm12 24h-18a2 2 0 0 1 0-4 1 1 0 0 0 1-1v-9a8 8 0 0 1 16 0v9a1 1 0 0 0 1 1 2 2 0 0 1 0 4z"/><path data-cppathid="10025" d="m50 47a1 1 0 0 1 1 1h2a3 3 0 0 0 -2-2.816v-1.184h-2v1.184a2.993 2.993 0 0 0 1 5.816 1 1 0 1 1 -1 1h-2a3 3 0 0 0 2 2.816v1.184h2v-1.184a2.993 2.993 0 0 0 -1-5.816 1 1 0 0 1 0-2z"/></svg>