<?xml version="1.0" encoding="UTF-8"?>
<svg xmlns="http://www.w3.org/2000/svg" onmouseup="{ if(window.parent.document.onmouseup) window.parent.document.onmouseup(arguments[0]);}" width="512" viewBox="0 0 60 60" height="512" id="Icons"><path data-cppathid="10000" fill="#b0ccdd" d="m41 55s-5-1-5-6v-1h-12v1c0 5-5 6-5 6v1h22z"/><path data-cppathid="10001" fill="#bfdbf0" d="m59 42v5a2.006 2.006 0 0 1 -2 2h-54a2.006 2.006 0 0 1 -2-2v-5z"/><path data-cppathid="10002" fill="#bfdbf0" d="m19 55h22a3 3 0 0 1 3 3 1 1 0 0 1 -1 1h-26a1 1 0 0 1 -1-1 3 3 0 0 1 3-3z"/><path data-cppathid="10003" fill="#2d629b" d="m59 3v40h-58v-40a2.006 2.006 0 0 1 2-2h54a2.006 2.006 0 0 1 2 2z"/><rect data-cppathid="10004" y="-3" x="13" width="34" transform="matrix(0 1 -1 0 52 -8)" rx="1" height="50" fill="#3778c6"/><rect data-cppathid="10005" y="9" x="9" width="10" rx="2" height="4" fill="#e1efff"/><path data-cppathid="10006" fill="#2d629b" d="m26 10h-3a1 1 0 0 1 0-2h3a1 1 0 0 1 0 2z"/><path data-cppathid="10007" fill="#2d629b" d="m31 14h-8a1 1 0 0 1 0-2h8a1 1 0 0 1 0 2z"/><g fill="#6de08e"><path data-cppathid="10008" d="m13 36a1 1 0 0 1 -1-1v-4a1 1 0 0 1 2 0v4a1 1 0 0 1 -1 1z"/><path data-cppathid="10009" d="m19 36a1 1 0 0 1 -1-1v-6a1 1 0 0 1 2 0v6a1 1 0 0 1 -1 1z"/><path data-cppathid="10010" d="m25 36a1 1 0 0 1 -1-1v-5a1 1 0 0 1 2 0v5a1 1 0 0 1 -1 1z"/><path data-cppathid="10011" d="m31 36a1 1 0 0 1 -1-1v-8a1 1 0 0 1 2 0v8a1 1 0 0 1 -1 1z"/><path data-cppathid="10012" d="m37 36a1 1 0 0 1 -1-1v-6a1 1 0 0 1 2 0v6a1 1 0 0 1 -1 1z"/><path data-cppathid="10013" d="m43 36a1 1 0 0 1 -1-1v-9a1 1 0 0 1 2 0v9a1 1 0 0 1 -1 1z"/><path data-cppathid="10014" d="m49 36a1 1 0 0 1 -1-1v-10a1 1 0 0 1 2 0v10a1 1 0 0 1 -1 1z"/><path data-cppathid="10015" d="m50 17h-3a1 1 0 0 0 0 2h.586l-2.586 2.586-1.586-1.586a2 2 0 0 0 -2.828 0l-4.586 4.586-4.586-4.586a2 2 0 0 0 -2.828 0l-5.586 5.586-3.586-3.586a2.047 2.047 0 0 0 -2.828 0l-4.293 4.293a1 1 0 1 0 1.414 1.414l4.293-4.293 3.586 3.586a2 2 0 0 0 2.828 0l5.586-5.586 4.586 4.586a2 2 0 0 0 2.828 0l4.586-4.586 1.586 1.586a2.047 2.047 0 0 0 2.828 0l2.586-2.586v.586a1 1 0 0 0 2 0v-3a1 1 0 0 0 -1-1z"/></g><path data-cppathid="10016" fill="#e1efff" d="m51 36h-42a1 1 0 0 1 -1-1v-17a1 1 0 0 1 2 0v16h41a1 1 0 0 1 0 2z"/></svg>