<?xml version="1.0" encoding="UTF-8"?>
<svg xmlns="http://www.w3.org/2000/svg" onmouseup="{ if(window.parent.document.onmouseup) window.parent.document.onmouseup(arguments[0]);}" width="512" viewBox="0 0 64 64" height="512" enable-background="new 0 0 64 64" id="_x33_0"><g><g><g><path data-cppathid="10000" fill="#e6e9ed" d="m41 16c-.55 0-1-.45-1-1v-7h-25.86l-1.14 8 1.29 1.29c1.09 1.09 1.71 2.58 1.71 4.13 0 .39-.04.77-.11 1.15l-1.54 7.66c-.2 1.03-1.1 1.77-2.15 1.77-.07 0-.13 0-.2-.01v9.01 18c0 .55.45 1 1 1h35v-44z"/></g><g><path data-cppathid="10001" fill="#ff826e" d="m48 16h-7c-.55 0-1-.45-1-1v-7z"/></g><g><path data-cppathid="10002" fill="#5cd6b3" d="m54 54 2 8h-12l.5-2 1.5-6z"/></g><g><path data-cppathid="10003" fill="#ff826e" d="m15 2-.86 6-1.14 8h-9l-2-14z"/></g><g><path data-cppathid="10004" fill="#aab2bd" d="m62 26.24c0 1.13-.45 2.21-1.24 3l-2.76 2.76-6-6 2.76-2.76c.79-.79 1.87-1.24 3-1.24 1.17 0 2.23.48 3 1.24.76.77 1.24 1.83 1.24 3z"/></g><g><path data-cppathid="10005" fill="#aab2bd" d="m41 49-6.69 2.87c-.2.08-.43.13-.65.13-.92 0-1.66-.74-1.66-1.66 0-.22.05-.45.13-.65l2.87-6.69z"/></g><g><path data-cppathid="10006" transform="matrix(.707 -.707 .707 .707 -5.897 46.764)" fill="#ffeaa7" d="m51.379 26.257h4.243v8.485h-4.243z"/></g><g><path data-cppathid="10007" fill="#f0d0b4" d="m46 32-5.14 5.14-2.06-1.54c-.5-.38-.8-.97-.8-1.6 0-1.1.9-2 2-2z"/></g><g><path data-cppathid="10008" fill="#fcd770" d="m49 29 6 6-1 1-6 6v-1.8c0-.6-.24-1.16-.64-1.55-.4-.4-.95-.65-1.56-.65-1.05 0-1.95.74-2.15 1.76l-1.55 7.75c-.03.15-.06.31-.07.46l-.01.01-1.02 1.02-6-6 5.86-5.86 5.14-5.14 2-2z"/></g><g><path data-cppathid="10009" fill="#f0d0b4" d="m48 42 6-6 .11.11c1.21 1.21 1.89 2.85 1.89 4.56 0 .22-.02.44-.05.66l-1.95 12.67h-8l-2-1.5c-1.26-.94-2-2.43-2-4 0-.17.01-.34.02-.52l.01-.01c.01-.15.04-.31.07-.46l1.55-7.75c.2-1.02 1.1-1.76 2.15-1.76.61 0 1.16.25 1.56.65.4.39.64.95.64 1.55z"/></g><g><path data-cppathid="10010" fill="#f0d0b4" d="m12 31.99v9.01l-6.91-6.22c-1.97-1.77-3.09-4.29-3.09-6.94 0-.56.05-1.12.15-1.67l1.85-10.17h9l1.29 1.29c1.09 1.09 1.71 2.58 1.71 4.13 0 .39-.04.77-.11 1.15l-1.54 7.66c-.2 1.03-1.1 1.77-2.15 1.77-.07 0-.13 0-.2-.01z"/></g><g><path data-cppathid="10011" fill="#5cd6b3" d="m28 24v4h-11v-6.58-9.42h11z"/></g></g><g><path data-cppathid="10012" d="m63 26.243c0-2.891-2.352-5.243-5.242-5.243-1.401 0-2.718.545-3.707 1.536l-5.051 5.05v-12l-8.586-8.586h-25.118l.857-6h-15.306l2.14 14.981-1.821 10.013c-.11.61-.166 1.232-.166 1.848 0 2.926 1.247 5.727 3.422 7.683l6.578 5.92v17.555c0 1.103.897 2 2 2h30.219l-.5 2h14.563l-2.263-9.047 1.92-12.475c.04-.268.061-.538.061-.809 0-1.706-.573-3.321-1.622-4.633l6.087-6.087c.99-.991 1.535-2.307 1.535-3.706zm-14.056 13.399c-.266-1.497-1.569-2.641-3.141-2.642-.001 0-.002 0-.003 0-1.519 0-2.836 1.08-3.133 2.569l-1.55 7.747c-.012.059-.017.12-.027.18l-.09.09-4.586-4.586 12.586-12.586 4.586 4.586zm-15.891 10.439.484-1.13 1.511 1.511-1.13.484c-.414.177-.918-.152-.918-.605 0-.09.019-.178.053-.26zm3.975-.467-2.642-2.642.952-2.22 3.911 3.911zm2.372-14.813c-.251-.189-.4-.488-.4-.801 0-.551.448-1 1-1h3.586l-2.823 2.823zm11.014-5.801 1.586-1.586 4.586 4.586-1.586 1.586zm-9.414-18.586 4.586 4.586h-4.586zm-27.153-7.414-1.714 12h-7.265l-1.715-12zm-8.087 31.039c-1.754-1.579-2.76-3.837-2.76-6.197 0-.497.045-.999.134-1.491l1.701-9.351h7.751l.995.995c.915.916 1.419 2.132 1.419 3.426 0 .318-.031.638-.094.95l-1.533 7.665c-.112.559-.606.964-1.175.964-.661 0-1.198-.538-1.198-1.198v-6.802h-2v6.802c0 1.339.829 2.485 2 2.961v5.992zm7.24 24.961v-26.115c1.16-.304 2.09-1.238 2.334-2.456l1.533-7.667c.088-.441.133-.892.133-1.341 0-1.828-.712-3.547-2.005-4.84l-.934-.934.949-6.647h23.99v6c0 1.103.897 2 2 2h6v12.586l-1.414 1.414h-5.586c-1.654 0-3 1.346-3 3 0 .938.448 1.835 1.2 2.4l1.135.851-5.042 5.042-.136.136-2.943 6.866c-.142.333-.214.685-.214 1.046 0 1.466 1.193 2.659 2.659 2.659.363 0 .716-.072 1.048-.215l6.493-2.782c.341 1.303 1.109 2.479 2.203 3.3l1.466 1.099-1.15 4.598zm32.281 2 1.499-6h6.439l1.499 6zm9.719-20.331c0 .169-.013.339-.038.505l-1.819 11.826h-6.81l-1.729-1.297c-1.004-.753-1.604-1.952-1.604-3.207 0-.265.026-.529.078-.786l1.55-7.749c.111-.557.603-.961 1.172-.961h.001c.661 0 1.199.539 1.199 1.2v6.8h2v-4.586l4.942-4.942c.677.926 1.058 2.029 1.058 3.197zm5.051-12.133-2.051 2.05-4.585-4.586 2.051-2.051c.611-.612 1.425-.949 2.292-.949 1.788 0 3.242 1.455 3.242 3.243 0 .865-.337 1.68-.949 2.293z"/><path data-cppathid="10013" d="m29 11h-12v2h10v14h-10v2h12z"/><path data-cppathid="10014" d="m31 15h6v2h-6z"/><path data-cppathid="10015" d="m31 19h4v2h-4z"/><path data-cppathid="10016" d="m37 19h8v2h-8z"/><path data-cppathid="10017" d="m31 23h14v2h-14z"/><path data-cppathid="10018" d="m31 27h2v2h-2z"/><path data-cppathid="10019" d="m35 27h2v2h-2z"/><path data-cppathid="10020" d="m39 27h2v2h-2z"/><path data-cppathid="10021" d="m15 33h18v2h-18z"/><path data-cppathid="10022" d="m27 37h6v2h-6z"/><path data-cppathid="10023" d="m15 37h10v2h-10z"/><path data-cppathid="10024" d="m15 41h10v2h-10z"/><path data-cppathid="10025" d="m26.265 53.631c-.327-.975-1.237-1.631-2.265-1.631s-1.938.656-2.266 1.633l-.319.962c-.145.431-.805.518-1.056.142l-1.141-1.71c-.427-.644-1.143-1.027-1.915-1.027-1.27 0-2.303 1.033-2.303 2.303v2.697h2v-2.697c0-.269.404-.392.555-.168l1.141 1.71c.481.723 1.287 1.155 2.157 1.155 1.117 0 2.106-.712 2.46-1.773l.319-.961c.107-.318.629-.317.736-.001l.455 1.367c.273.818 1.035 1.368 1.898 1.368h5.279v-2h-5.279z"/></g></g></svg>