<?xml version="1.0" encoding="UTF-8"?>
<svg xmlns="http://www.w3.org/2000/svg" onmouseup="{ if(window.parent.document.onmouseup) window.parent.document.onmouseup(arguments[0]);}" width="512" viewBox="0 0 256 256" height="512" enable-background="new 0 0 256 256"><path data-cppathid="10000" fill="#fcdd86" d="m241.892 115.418h-66.134c-1.454 0-2.427 1.497-1.836 2.825l4.724 10.63c1.537 3.459 4.967 5.688 8.752 5.688h42.854c3.785 0 7.215-2.229 8.752-5.688l4.724-10.63c.591-1.329-.382-2.825-1.836-2.825z"/><path data-cppathid="10001" fill="#fcdd86" d="m80.241 115.418h-66.133c-1.454 0-2.427 1.497-1.836 2.825l4.724 10.63c1.537 3.459 4.967 5.688 8.752 5.688h42.854c3.785 0 7.215-2.229 8.752-5.688l4.724-10.63c.59-1.329-.383-2.825-1.837-2.825z"/><circle data-cppathid="10002" r="12.762" fill="#5290db" cy="164.338" cx="128.532"/><path data-cppathid="10003" fill="#edf4fc" d="m115.77 164.338c0-4.118 1.959-7.77 4.986-10.103h-50.683c-7.213 0-13.346-4.656-15.591-11.115-1.84 1.93-4.43 3.139-7.307 3.139-2.055 0-3.964-.617-5.559-1.671 3.1 12.84 14.679 22.409 28.457 22.409h45.979c-.183-.858-.282-1.746-.282-2.659z"/><path data-cppathid="10004" fill="#edf4fc" d="m208.825 146.259c-2.877 0-5.467-1.209-7.307-3.139-2.246 6.459-8.378 11.115-15.591 11.115h-49.619c3.027 2.334 4.986 5.985 4.986 10.103 0 .912-.1 1.801-.282 2.659h44.915c13.778 0 25.357-9.569 28.457-22.409-1.595 1.054-3.504 1.671-5.559 1.671z"/><path data-cppathid="10005" fill="#f5c84c" d="m198.86 134.56c-.083.521-.138 1.051-.138 1.595 0 5.58 4.523 10.103 10.103 10.103s10.103-4.523 10.103-10.103c0-.544-.055-1.074-.138-1.595z"/><path data-cppathid="10006" fill="#f5c84c" d="m37.209 134.56c-.083.521-.138 1.051-.138 1.595 0 5.58 4.523 10.103 10.103 10.103s10.103-4.523 10.103-10.103c0-.544-.055-1.074-.138-1.595z"/><path data-cppathid="10007" fill="#5290db" d="m175.5 243.259h-95c-3.313 0-6-2.687-6-6s2.687-6 6-6h95c3.313 0 6 2.687 6 6s-2.687 6-6 6z"/><path data-cppathid="10008" fill="#3a70bf" d="m171.304 231.259-32.55-59.304c-2.327 3.117-6.033 5.145-10.222 5.145-4.551 0-8.535-2.39-10.794-5.976l-32.102 60.135z"/><path data-cppathid="10009" fill="#fc657e" d="m252.537 95.49-37.004-61.099c-2.563-4.232-8.703-4.232-11.266 0l-37.004 61.099c-2.658 4.389.502 9.997 5.633 9.997h74.008c5.131 0 8.291-5.608 5.633-9.997z"/><path data-cppathid="10010" fill="#f5c84c" d="m211.757 51.151c-1.216-.332-2.498-.332-3.714 0-3.593.98-5.806 4.584-5.055 8.231l3.308 16.067c.352 1.71 1.858 2.938 3.604 2.938s3.252-1.227 3.604-2.938l3.308-16.067c.751-3.647-1.462-7.251-5.055-8.231z"/><circle data-cppathid="10011" r="5.776" fill="#f5c84c" cy="90.705" cx="209.9"/><circle data-cppathid="10012" r="35.384" fill="#fcdd86" cy="66.996" cx="37.5"/><path data-cppathid="10013" fill="#fcdd86" d="m58.5 31.613c-3.654 0-7.181.557-10.5 1.59 14.4 4.484 24.884 17.937 24.884 33.793s-10.484 29.31-24.884 33.794c3.319 1.033 6.846 1.59 10.5 1.59 19.511 0 35.384-15.873 35.384-35.384s-15.873-35.383-35.384-35.383z"/><circle data-cppathid="10014" r="26.205" fill="#f5c84c" cy="66.996" cx="37.5"/><path data-cppathid="10015" fill="#f5c84c" d="m61.43 40.96c7.036 6.471 11.454 15.747 11.454 26.037s-4.419 19.565-11.454 26.036c13.075-1.462 23.275-12.578 23.275-26.037s-10.2-24.575-23.275-26.036z"/><path data-cppathid="10016" fill="#3caadc" d="m176.529 186.347h-2.07v-2.07c0-1.549-1.256-2.805-2.805-2.805s-2.805 1.256-2.805 2.805v2.07h-2.069c-1.549 0-2.805 1.256-2.805 2.805s1.256 2.805 2.805 2.805h2.069v2.07c0 1.549 1.256 2.805 2.805 2.805s2.805-1.256 2.805-2.805v-2.07h2.07c1.549 0 2.805-1.256 2.805-2.805-.001-1.55-1.256-2.805-2.805-2.805z"/><path data-cppathid="10017" fill="#ef4460" d="m98.601 118.291c-1.854-.335-3.355 1.052-3.355 2.749 0 1.549 1.249 2.805 2.805 2.805 1.589 0 2.805-1.312 2.805-2.805-.001-1.352-.979-2.507-2.255-2.749z"/><path data-cppathid="10018" fill="#87d147" d="m195.501 178.291c-1.349.255-2.255 1.464-2.255 2.749 0 1.689 1.483 3.077 3.355 2.749 1.235-.233 2.255-1.352 2.255-2.749-.001-1.73-1.555-3.084-3.355-2.749z"/><path data-cppathid="10019" fill="#3caadc" d="m73.501 10.291c-1.349.255-2.255 1.464-2.255 2.749 0 1.549 1.249 2.805 2.805 2.805 1.52 0 2.805-1.231 2.805-2.805-.001-1.73-1.555-3.084-3.355-2.749z"/><path data-cppathid="10020" fill="#f5c84c" d="m106.164 29.363c-3.995-.744-7.144-3.829-7.904-7.743-.038-.197-.313-.197-.351 0-.76 3.914-3.908 6.999-7.904 7.743-.201.037-.201.306 0 .344 3.995.744 7.144 3.829 7.904 7.743.038.197.313.197.351 0 .76-3.914 3.908-6.999 7.904-7.743.201-.038.201-.307 0-.344z"/><path data-cppathid="10021" d="m246.904 107.987h-74.008c-3.324 0-6.283-1.729-7.915-4.626s-1.578-6.323.144-9.166l37.004-61.1c1.66-2.742 4.565-4.38 7.771-4.38s6.111 1.638 7.771 4.38l37.004 61.1c1.722 2.843 1.775 6.27.144 9.166s-4.59 4.626-7.915 4.626zm-37.004-74.271c-1.463 0-2.736.718-3.494 1.97l-37.004 61.1c-.774 1.278-.799 2.819-.065 4.122s2.064 2.08 3.56 2.08h74.008c1.495 0 2.825-.777 3.56-2.08.733-1.303.709-2.844-.065-4.122l-37.004-61.1c-.759-1.252-2.033-1.97-3.496-1.97z"/><path data-cppathid="10022" d="m230.252 137.061h-42.854c-4.769 0-9.101-2.815-11.036-7.172l-4.725-10.63c-.622-1.402-.495-3.005.341-4.29.835-1.284 2.248-2.051 3.78-2.051h66.134c1.532 0 2.946.768 3.781 2.052.835 1.285.962 2.889.339 4.289l-4.725 10.63c-1.934 4.356-6.266 7.172-11.035 7.172zm-53.739-19.143 4.418 9.939c1.135 2.554 3.674 4.203 6.468 4.203h42.854c2.794 0 5.333-1.649 6.468-4.203l4.418-9.939zm65.38 0h.01z"/><path data-cppathid="10023" d="m68.602 137.061h-42.854c-4.769 0-9.101-2.815-11.036-7.172l-4.725-10.63c-.623-1.4-.496-3.004.339-4.289.835-1.284 2.249-2.052 3.781-2.052h66.134c1.532 0 2.946.768 3.781 2.052.835 1.285.962 2.889.339 4.289l-4.724 10.63c-1.935 4.356-6.267 7.172-11.035 7.172zm-53.74-19.143 4.418 9.939c1.135 2.554 3.674 4.203 6.468 4.203h42.854c2.794 0 5.333-1.649 6.468-4.203l4.417-9.939zm65.379 0h.01z"/><path data-cppathid="10024" d="m128.532 179.601c-8.416 0-15.263-6.847-15.263-15.263 0-8.415 6.847-15.262 15.263-15.262 8.415 0 15.262 6.847 15.262 15.262 0 8.416-6.847 15.263-15.262 15.263zm0-25.525c-5.659 0-10.263 4.604-10.263 10.262 0 5.659 4.604 10.263 10.263 10.263 5.658 0 10.262-4.604 10.262-10.263 0-5.658-4.604-10.262-10.262-10.262z"/><path data-cppathid="10025" d="m116.052 169.497h-45.979c-14.729 0-27.43-10.002-30.888-24.322-.241-.999.152-2.043.993-2.633.841-.592 1.956-.606 2.814-.04 1.245.822 2.691 1.257 4.182 1.257 2.092 0 4.044-.84 5.497-2.364.602-.63 1.488-.901 2.339-.718.852.185 1.546.8 1.832 1.622 1.962 5.645 7.278 9.437 13.23 9.437h50.683c1.07 0 2.021.681 2.366 1.694.346 1.013.008 2.133-.84 2.786-2.55 1.965-4.013 4.925-4.013 8.122 0 .71.076 1.43.228 2.139.157.738-.027 1.508-.502 2.094s-1.188.926-1.942.926zm-70.421-20.833c4.24 9.521 13.702 15.833 24.442 15.833h43.197c-.001-.053-.001-.106-.001-.159 0-2.721.71-5.325 2.025-7.603h-45.221c-6.93 0-13.224-3.783-16.553-9.689-2.337 1.373-5.148 1.958-7.889 1.618z"/><path data-cppathid="10026" d="m185.927 169.497h-44.915c-.754 0-1.469-.341-1.943-.927s-.659-1.355-.502-2.094c.151-.709.228-1.429.228-2.139 0-3.197-1.463-6.157-4.013-8.122-.848-.653-1.186-1.773-.84-2.786.345-1.014 1.296-1.694 2.366-1.694h49.619c5.951 0 11.268-3.792 13.23-9.437.286-.823.98-1.438 1.832-1.622s1.737.088 2.339.718c1.453 1.524 3.405 2.364 5.497 2.364 1.49 0 2.937-.435 4.182-1.257.857-.566 1.973-.552 2.814.04.841.59 1.234 1.634.993 2.633-3.458 14.321-16.159 24.323-30.887 24.323zm-42.134-5h42.134c10.74 0 20.202-6.312 24.442-15.833-2.742.342-5.551-.244-7.891-1.618-3.329 5.906-9.623 9.689-16.552 9.689h-44.158c1.315 2.277 2.025 4.882 2.025 7.603.001.053.001.106 0 .159z"/><path data-cppathid="10027" d="m208.825 148.759c-6.949 0-12.603-5.654-12.603-12.604 0-.625.056-1.275.169-1.988.193-1.214 1.24-2.106 2.469-2.106h19.931c1.23 0 2.278.896 2.47 2.11.113.719.168 1.367.168 1.984 0 6.949-5.655 12.604-12.604 12.604zm-7.549-11.698c.449 3.768 3.663 6.698 7.549 6.698 3.887 0 7.101-2.931 7.55-6.698z"/><path data-cppathid="10028" d="m47.175 148.759c-6.949 0-12.604-5.654-12.604-12.604 0-.617.055-1.266.168-1.984.191-1.215 1.239-2.11 2.47-2.11h19.931c1.229 0 2.275.893 2.469 2.106.113.713.169 1.363.169 1.988-.001 6.949-5.654 12.604-12.603 12.604zm-7.55-11.698c.449 3.768 3.663 6.698 7.55 6.698 3.886 0 7.1-2.931 7.549-6.698z"/><path data-cppathid="10029" d="m175.5 245.759h-95c-4.687 0-8.5-3.813-8.5-8.5s3.813-8.5 8.5-8.5h95c4.687 0 8.5 3.813 8.5 8.5s-3.813 8.5-8.5 8.5zm-95-12c-1.93 0-3.5 1.57-3.5 3.5s1.57 3.5 3.5 3.5h95c1.93 0 3.5-1.57 3.5-3.5s-1.57-3.5-3.5-3.5z"/><path data-cppathid="10030" d="m171.305 233.759h-85.669c-.878 0-1.692-.461-2.144-1.214-.452-.754-.476-1.688-.062-2.464l32.102-60.135c.419-.785 1.226-1.289 2.115-1.32.915-.029 1.729.412 2.205 1.166 1.896 3.011 5.142 4.809 8.679 4.809 3.26 0 6.255-1.509 8.219-4.141.509-.681 1.325-1.051 2.178-.999.849.06 1.608.546 2.018 1.291l32.551 59.304c.425.774.41 1.716-.04 2.477-.451.759-1.269 1.226-2.152 1.226zm-81.5-5h77.276l-28.881-52.616c-2.695 2.228-6.073 3.458-9.669 3.458-3.896 0-7.552-1.462-10.331-4.035z"/><path data-cppathid="10031" d="m40.875 81.685h-9.566c-1.381 0-2.5-1.119-2.5-2.5s1.119-2.5 2.5-2.5h9.566c1.981 0 3.594-1.612 3.594-3.594s-1.612-3.595-3.594-3.595h-6.75c-4.738 0-8.594-3.855-8.594-8.594s3.855-8.594 8.594-8.594h10.796c1.381 0 2.5 1.119 2.5 2.5s-1.119 2.5-2.5 2.5h-10.796c-1.981 0-3.594 1.612-3.594 3.594s1.612 3.594 3.594 3.594h6.75c4.738 0 8.594 3.855 8.594 8.595 0 4.738-3.856 8.594-8.594 8.594z"/><path data-cppathid="10032" d="m37.5 85.854c-1.381 0-2.5-1.119-2.5-2.5v-32.714c0-1.381 1.119-2.5 2.5-2.5s2.5 1.119 2.5 2.5v32.714c0 1.38-1.119 2.5-2.5 2.5z"/><path data-cppathid="10033" d="m209.9 80.888c-2.918 0-5.464-2.074-6.053-4.933l-3.308-16.068c-1.015-4.928 1.993-9.824 6.847-11.147 1.644-.449 3.383-.449 5.028 0 4.854 1.323 7.86 6.22 6.846 11.147l-3.309 16.067c-.586 2.858-3.132 4.934-6.051 4.934zm0-27.486c-.403 0-.806.054-1.197.16-2.316.632-3.75 2.967-3.267 5.316l3.308 16.067c.113.545.599.941 1.156.941s1.043-.396 1.154-.941l3.31-16.067c.483-2.35-.95-4.685-3.265-5.315-.001 0-.001 0-.001 0-.392-.107-.795-.161-1.198-.161z"/><path data-cppathid="10034" d="m209.9 98.981c-4.563 0-8.276-3.713-8.276-8.276s3.713-8.276 8.276-8.276 8.276 3.713 8.276 8.276-3.712 8.276-8.276 8.276zm0-11.552c-1.807 0-3.276 1.47-3.276 3.276s1.47 3.276 3.276 3.276 3.276-1.47 3.276-3.276-1.469-3.276-3.276-3.276z"/><path data-cppathid="10035" d="m37.5 104.88c-20.89 0-37.884-16.994-37.884-37.884 0-20.889 16.994-37.883 37.884-37.883s37.884 16.994 37.884 37.883c0 20.89-16.994 37.884-37.884 37.884zm0-70.767c-18.132 0-32.884 14.751-32.884 32.883s14.752 32.884 32.884 32.884 32.884-14.752 32.884-32.884-14.752-32.883-32.884-32.883z"/><path data-cppathid="10036" d="m58.5 104.88c-3.831 0-7.614-.573-11.243-1.703-1.045-.325-1.757-1.292-1.757-2.387s.712-2.062 1.757-2.387c13.833-4.309 23.127-16.93 23.127-31.407s-9.294-27.099-23.127-31.406c-1.045-.325-1.757-1.292-1.757-2.387s.712-2.062 1.757-2.387c3.629-1.13 7.412-1.703 11.243-1.703 20.89 0 37.884 16.994 37.884 37.883 0 20.89-16.994 37.884-37.884 37.884zm-2.049-5.064c.681.042 1.364.063 2.049.063 18.132 0 32.884-14.752 32.884-32.884s-14.752-32.882-32.884-32.882c-.685 0-1.367.021-2.048.063 11.582 6.65 18.932 19.001 18.932 32.819 0 13.82-7.349 26.17-18.933 32.821z"/><path data-cppathid="10037" d="m37.5 95.701c-15.828 0-28.705-12.877-28.705-28.705 0-15.827 12.877-28.704 28.705-28.704s28.705 12.877 28.705 28.704c0 15.828-12.877 28.705-28.705 28.705zm0-52.409c-13.071 0-23.705 10.634-23.705 23.704 0 13.071 10.634 23.705 23.705 23.705s23.705-10.634 23.705-23.705c0-13.07-10.634-23.704-23.705-23.704z"/><path data-cppathid="10038" d="m61.429 95.533c-.971 0-1.864-.565-2.274-1.464-.448-.983-.213-2.145.583-2.876 6.766-6.225 10.646-15.044 10.646-24.197s-3.881-17.972-10.647-24.196c-.796-.731-1.031-1.893-.583-2.876.449-.984 1.487-1.572 2.553-1.448 14.536 1.625 25.498 13.887 25.498 28.521 0 14.635-10.962 26.896-25.498 28.521-.093.01-.186.015-.278.015zm7.309-49.926c4.284 6.258 6.646 13.721 6.646 21.389s-2.361 15.131-6.646 21.39c8.031-3.837 13.467-12.024 13.467-21.39 0-9.364-5.434-17.553-13.467-21.389z"/></svg>