<?xml version="1.0" encoding="UTF-8"?>
<svg xmlns="http://www.w3.org/2000/svg" onmouseup="{ if(window.parent.document.onmouseup) window.parent.document.onmouseup(arguments[0]);}" data-name="Layer 1" width="512" viewBox="0 0 64 64" height="512" id="Layer_1"><path data-cppathid="10000" transform="matrix(-1 0 0 -1 110 113)" fill="#bf7375" d="m50 51h10v11h-10z"/><path data-cppathid="10001" transform="matrix(-1 0 0 -1 64 101)" fill="#cc7a7d" d="m27 39h10v23h-10z"/><path data-cppathid="10002" transform="matrix(-1 0 0 -1 18 87)" fill="#d98285" d="m4 25h10v37h-10z"/><path data-cppathid="10003" fill="#a66466" d="m57 51v6a2 2 0 0 1 -2 2h-5v3h10v-11z"/><path data-cppathid="10004" fill="#b36b6d" d="m34 39v18a2 2 0 0 1 -2 2h-5v3h10v-23z"/><path data-cppathid="10005" fill="#bf7375" d="m11 25v32a2 2 0 0 1 -2 2h-5v3h10v-37z"/><circle data-cppathid="10006" r="13" fill="#7cb2f8" cy="15" cx="49"/><path data-cppathid="10007" fill="#6f9fde" d="m57.133 4.867a12.992 12.992 0 0 1 -18.266 18.266 12.994 12.994 0 1 0 18.266-18.266z"/><circle data-cppathid="10008" r="2" fill="#d9e1e6" cy="18" cx="53"/><circle data-cppathid="10009" r="2" fill="#d9e1e6" cy="12" cx="45"/><path data-cppathid="10010" d="m61 51a1 1 0 0 0 -1-1h-10a1 1 0 0 0 -1 1v10h-11v-22a1 1 0 0 0 -1-1h-10a1 1 0 0 0 -1 1v22h-11v-36a1 1 0 0 0 -1-1h-10a1 1 0 0 0 -1 1v36h-2v2h62v-2h-2zm-48 10h-8v-35h8zm23 0h-8v-21h8zm23 0h-8v-9h8z"/><path data-cppathid="10011" d="m9.725 11.312-1.45 1.376c.186.2 18.39 19.143 44.1 28.456l-2.914 1.39.861 1.8 5.109-2.434a1 1 0 0 0 .471-1.333l-2.436-5.105-1.8.861 1.4 2.941c-25.257-9.142-43.158-27.764-43.341-27.952z"/><path data-cppathid="10012" d="m49 1a14 14 0 1 0 14 14 14.015 14.015 0 0 0 -14-14zm0 26a12 12 0 1 1 12-12 12.013 12.013 0 0 1 -12 12z"/><path data-cppathid="10013" transform="matrix(.707 -.707 .707 .707 3.745 39.042)" d="m41.999 14h14.001v2h-14.001z"/><path data-cppathid="10014" d="m50.879 15.879a3 3 0 1 0 4.242 0 3 3 0 0 0 -4.242 0zm2.828 2.828a1 1 0 1 1 0-1.414 1 1 0 0 1 0 1.414z"/><path data-cppathid="10015" d="m47.121 14.121a3 3 0 1 0 -2.121.879 3 3 0 0 0 2.121-.879zm-2.828-2.828a1 1 0 1 1 0 1.414 1 1 0 0 1 0-1.414z"/></svg>