<?xml version="1.0" encoding="UTF-8"?>
<svg xmlns="http://www.w3.org/2000/svg" onmouseup="{ if(window.parent.document.onmouseup) window.parent.document.onmouseup(arguments[0]);}" width="512" viewBox="0 0 128 128" height="512" enable-background="new 0 0 128 128" id="Layer_1"><g><path data-cppathid="10000" fill="#e6e7e8" d="m117.653 71.631h-13.2v-4.515c0-3.234-2.632-5.866-5.866-5.866h-8.482v-45.712c0-1.654-1.346-3-3-3h-49.908c-.266 0-.52.105-.707.293l-26.796 26.797c-.217.187-.348.462-.348.758v76.075c0 1.654 1.346 3 3 3h102.265c2.757 0 5-2.243 5-5v-24.051c1.786-.764 3.042-2.537 3.042-4.599v-9.18c0-2.757-2.243-5-5-5zm-27.548 0v-3.515h5.44c.79 0 1.434.644 1.434 1.434v2.081z"/><g><g><path data-cppathid="10001" fill="#ffd7e5" d="m6.348 36.388 26.849-26.849h49.907c1.105 0 2 .895 2 2v100.922c0 1.105-.895 2-2 2h-74.758c-1.105 0-2-.895-2-2v-76.075z"/><path data-cppathid="10002" fill="#fa759e" d="m33.195 9.539.002.002v24.847c0 1.105-.895 2-2 2h-24.851z"/></g><g><path data-cppathid="10003" fill="#0089ef" d="m113.653 85.811h-57c-.332 0-.65-.052-.959-.129v24.779c0 2.209 1.791 4 4 4h50.917c2.209 0 4-1.791 4-4v-24.779c-.308.076-.626.129-.958.129z"/><path data-cppathid="10004" fill="#6dc9f7" d="m113.653 68.631h-57c-2.209 0-4 1.791-4 4v9.18c0 2.209 1.791 4 4 4h57c2.209 0 4-1.791 4-4v-9.18c0-2.209-1.791-4-4-4z"/><path data-cppathid="10005" fill="#fff" d="m113.653 68.631h-57c-2.209 0-4 1.791-4 4v3c0-2.209 1.791-4 4-4h57c2.209 0 4 1.791 4 4v-3c0-2.209-1.791-4-4-4z"/><g fill="#d4fbff"><path data-cppathid="10006" d="m70.853 63.117v5.514h5.474v-3.081c0-1.344 1.089-2.433 2.433-2.433h12.784c1.344 0 2.433 1.089 2.433 2.433v3.081h5.474v-5.514c0-2.688-2.179-4.866-4.866-4.866h-18.865c-2.688 0-4.867 2.178-4.867 4.866z"/><g><path data-cppathid="10007" d="m70.445 88.506h-5.256c-1.362 0-2.466-1.104-2.466-2.466v-.411c0-1.362 1.104-2.466 2.466-2.466h5.256c1.362 0 2.466 1.104 2.466 2.466v.411c.001 1.362-1.104 2.466-2.466 2.466z"/><path data-cppathid="10008" d="m105.117 88.506h-5.256c-1.362 0-2.466-1.104-2.466-2.466v-.411c0-1.362 1.104-2.466 2.466-2.466h5.256c1.362 0 2.466 1.104 2.466 2.466v.411c0 1.362-1.104 2.466-2.466 2.466z"/></g></g></g><g><g><path data-cppathid="10009" fill="#6dc9f7" d="m39.69 39.556h5.98v6.854h-5.98z"/><path data-cppathid="10010" fill="#0089ef" d="m49.763 32.091h5.98v14.319h-5.98z"/><path data-cppathid="10011" fill="#6dc9f7" d="m59.835 35.423h5.98v10.987h-5.98z"/><path data-cppathid="10012" fill="#0089ef" d="m69.908 27.558h5.98v18.852h-5.98z"/></g><circle data-cppathid="10013" r="2" fill="#6dc9f7" cy="31.39" cx="42.68"/><circle data-cppathid="10014" r="2" fill="#0089ef" cy="22.325" cx="52.753"/><circle data-cppathid="10015" r="2" fill="#6dc9f7" cy="27.391" cx="62.825"/><circle data-cppathid="10016" r="2" fill="#0089ef" cy="18.193" cx="72.898"/></g><g><g><path data-cppathid="10017" fill="#d4fbff" d="m26.486 83.493c1.483.491 3.067.761 4.715.761 8.284 0 15-6.716 15-15h-15z"/><path data-cppathid="10018" fill="#0089ef" d="m31.201 54.253c-8.284 0-15 6.716-15 15 0 6.636 4.312 12.262 10.285 14.239l4.715-14.239z"/><path data-cppathid="10019" fill="#fa759e" d="m31.201 54.253v15h15c0-8.284-6.716-15-15-15z"/></g><g fill="#3a2c60"><path data-cppathid="10020" d="m6.347 67c.553 0 1-.447 1-1v-9.749c0-.553-.447-1-1-1s-1 .447-1 1v9.749c0 .553.447 1 1 1z"/><path data-cppathid="10021" d="m113.653 67.631h-13.2v-4.514c0-3.234-2.632-5.866-5.866-5.866h-8.482v-45.712c0-1.654-1.346-3-3-3h-49.908c-.266 0-.52.105-.707.293l-26.796 26.796c-.217.187-.348.462-.348.758v15.589c0 .553.447 1 1 1s1-.447 1-1v-14.587h23.851c1.654 0 3-1.346 3-3v-23.849h48.907c.552 0 1 .448 1 1v45.712h-8.384c-3.234 0-5.866 2.632-5.866 5.866v4.514h-13.2c-2.757 0-5 2.243-5 5v9.18c0 2.062 1.255 3.835 3.041 4.598v24.052c0 1.13.391 2.162 1.026 3h-47.374c-.552 0-1-.448-1-1v-41.987c0-.553-.447-1-1-1s-1 .447-1 1v41.986c0 1.654 1.346 3 3 3h102.266c2.757 0 5-2.243 5-5v-24.051c1.786-.764 3.041-2.537 3.041-4.598v-9.18c-.001-2.757-2.244-5-5.001-5zm-82.456-32.243h-22.434l23.435-23.435v22.435c-.001.551-.449 1-1.001 1zm40.656 27.729c0-2.132 1.734-3.866 3.866-3.866h18.867c2.132 0 3.866 1.734 3.866 3.866v4.514h-3.475v-2.081c0-1.893-1.54-3.433-3.434-3.433h-12.782c-1.893 0-3.433 1.54-3.433 3.433v2.081h-3.475zm14.251 4.514v-3.514h5.44c.79 0 1.434.643 1.434 1.433v2.081zm-8.776 0v-2.081c0-.79.643-1.433 1.433-1.433h5.344v3.514zm36.284 42.83c0 1.654-1.346 3-3 3h-50.918c-1.654 0-3-1.346-3-3v-23.651h5.122c.352 1.541 1.727 2.696 3.373 2.696h5.256c1.646 0 3.021-1.156 3.374-2.696h22.669c.352 1.541 1.728 2.696 3.374 2.696h5.256c1.646 0 3.02-1.156 3.373-2.696h5.122v23.651zm-49.888-24.421v-.411c0-.809.657-1.466 1.466-1.466h5.256c.809 0 1.467.657 1.467 1.466v.411c0 .809-.658 1.467-1.467 1.467h-5.256c-.809 0-1.466-.658-1.466-1.467zm34.67 0v-.411c0-.809.658-1.466 1.467-1.466h5.256c.809 0 1.466.657 1.466 1.466v.411c0 .809-.657 1.467-1.466 1.467h-5.256c-.808 0-1.467-.658-1.467-1.467zm18.259-4.23c0 1.654-1.346 3-3 3h-5.178c-.37-1.516-1.73-2.647-3.358-2.647h-5.256c-1.628 0-2.988 1.132-3.359 2.647h-22.698c-.37-1.516-1.731-2.647-3.359-2.647h-5.256c-1.628 0-2.988 1.132-3.358 2.647h-5.178c-1.654 0-3-1.346-3-3v-9.18c0-1.654 1.346-3 3-3h14.2 5.475 17.65 5.475 14.2c1.654 0 3 1.346 3 3z"/><path data-cppathid="10022" d="m38.69 39.556v5.854h-.901c-.553 0-1 .447-1 1s.447 1 1 1h1.901 5.979 4.093 5.98 4.093 5.979 4.093 5.979 1.901c.553 0 1-.447 1-1s-.447-1-1-1h-.901v-17.852c0-.553-.447-1-1-1h-5.979c-.553 0-1 .447-1 1v17.852h-2.093v-9.986c0-.553-.447-1-1-1h-5.979c-.553 0-1 .447-1 1v9.986h-2.093v-13.319c0-.553-.447-1-1-1h-5.98c-.553 0-1 .447-1 1v13.319h-2.092v-5.854c0-.553-.447-1-1-1h-5.98c-.552 0-1 .447-1 1zm32.218-10.998h3.979v16.852h-3.979zm-10.072 7.866h3.979v8.986h-3.979zm-10.073-3.333h3.98v12.319h-3.98zm-10.073 7.465h3.979v4.854h-3.979z"/><path data-cppathid="10023" d="m42.681 28.39c-1.654 0-3 1.346-3 3 0 1.653 1.346 2.999 3 2.999 1.653 0 2.999-1.346 2.999-2.999 0-.4-.082-.78-.225-1.129l5.934-5.279c.411.212.87.343 1.364.343.791 0 1.506-.313 2.042-.815l5.078 2.417c-.024.152-.047.305-.047.464 0 1.654 1.346 3 2.999 3 1.654 0 3-1.346 3-3 0-.443-.102-.86-.276-1.239l5.996-5.296c.408.208.863.337 1.352.337 1.653 0 2.999-1.346 2.999-2.999 0-1.654-1.346-3-2.999-3-1.654 0-3 1.346-3 3 0 .434.097.844.264 1.217l-6.007 5.306c-.402-.201-.85-.325-1.33-.325-.769 0-1.463.299-1.995.776l-5.119-2.437c.018-.134.041-.267.041-.406 0-1.653-1.346-2.999-3-2.999s-3 1.346-3 2.999c0 .43.094.836.258 1.206l-5.893 5.242c-.427-.236-.912-.383-1.435-.383zm0 4c-.552 0-1-.448-1-.999 0-.552.448-1 1-1 .551 0 .999.448.999 1 0 .55-.449.999-.999.999zm30.217-15.197c.551 0 .999.448.999 1 0 .551-.448.999-.999.999-.552 0-1-.448-1-.999 0-.552.449-1 1-1zm-10.073 9.198c.552 0 1 .448 1 .999 0 .552-.448 1-1 1-.551 0-.999-.448-.999-1 0-.55.448-.999.999-.999zm-10.072-5.065c.552 0 1 .448 1 .999 0 .552-.448 1-1 1s-1-.448-1-1c0-.551.448-.999 1-.999z"/><path data-cppathid="10024" d="m15.201 69.254c0 6.912 4.409 13.017 10.971 15.188 1.626.538 3.318.812 5.029.812 8.822 0 16-7.178 16-16s-7.178-16-16-16-16 7.178-16 16zm2 0c0-7.383 5.745-13.45 13-13.965v13.804l-4.339 13.104c-5.219-2.149-8.661-7.23-8.661-12.943zm14 14c-1.163 0-2.316-.145-3.44-.43l2.058-6.216 2.104-6.354h13.242c-.514 7.255-6.581 13-13.964 13zm13.965-15h-12.965v-12.965c6.924.491 12.474 6.041 12.965 12.965z"/><path data-cppathid="10025" d="m44.286 89.87h-26.17c-.553 0-1 .447-1 1s.447 1 1 1h26.17c.553 0 1-.447 1-1s-.447-1-1-1z"/><path data-cppathid="10026" d="m44.286 96.573h-26.17c-.553 0-1 .447-1 1s.447 1 1 1h26.17c.553 0 1-.447 1-1s-.447-1-1-1z"/><path data-cppathid="10027" d="m44.286 103.275h-26.17c-.553 0-1 .447-1 1s.447 1 1 1h26.17c.553 0 1-.447 1-1s-.447-1-1-1z"/></g></g></g></g></svg>