<?xml version="1.0" encoding="UTF-8"?>
<svg xmlns="http://www.w3.org/2000/svg" onmouseup="{ if(window.parent.document.onmouseup) window.parent.document.onmouseup(arguments[0]);}" width="512" viewBox="0 0 256 256" height="512" enable-background="new 0 0 256 256" id="Layer_1"><g><g><g><path data-cppathid="10000" fill="#e0ebfc" d="m215.891 253h-175.782c-7.119 0-12.891-5.771-12.891-12.891v-224.218c.001-7.12 5.772-12.891 12.891-12.891h175.781c7.119 0 12.891 5.771 12.891 12.891v224.219c0 7.119-5.771 12.89-12.89 12.89z"/></g></g><g><g><g><g><path data-cppathid="10001" fill="#4671c6" d="m172.887 143.763h-89.774c-3.131 0-5.67-2.539-5.67-5.67s2.539-5.67 5.67-5.67h89.775c3.131 0 5.67 2.539 5.67 5.67-.001 3.132-2.539 5.67-5.671 5.67z"/></g></g></g><g><g><g><path data-cppathid="10002" fill="#4671c6" d="m194.15 175.907h-132.3c-3.131 0-5.67-2.539-5.67-5.67s2.539-5.67 5.67-5.67h132.3c3.131 0 5.67 2.539 5.67 5.67s-2.539 5.67-5.67 5.67z"/></g></g></g><g><g><g><path data-cppathid="10003" fill="#4671c6" d="m194.15 204.27h-132.3c-3.131 0-5.67-2.539-5.67-5.67s2.539-5.67 5.67-5.67h132.3c3.131 0 5.67 2.539 5.67 5.67s-2.539 5.67-5.67 5.67z"/></g></g></g><g><g><g><path data-cppathid="10004" fill="#4671c6" d="m194.15 230.597h-132.3c-3.131 0-5.67-2.539-5.67-5.67s2.539-5.67 5.67-5.67h132.3c3.131 0 5.67 2.539 5.67 5.67s-2.539 5.67-5.67 5.67z"/></g></g></g><g><g><g><circle data-cppathid="10005" r="47.25" fill="#6bdddd" cy="66.653" cx="131.119"/></g></g><g><g><g><path data-cppathid="10006" fill="#3762cc" d="m131.118 50.917c-1.104 0-2-.896-2-2v-23.386c0-1.104.896-2 2-2s2 .896 2 2v23.386c0 1.104-.895 2-2 2z"/></g></g><g><g><path data-cppathid="10007" fill="#f9a7a7" d="m131.119 25.531v10.542l12.279-5.271z"/></g></g><g><g><path data-cppathid="10008" fill="#3762cc" d="m131.118 38.073c-.386 0-.769-.111-1.101-.33-.562-.37-.899-.998-.899-1.67v-10.542c0-.672.338-1.3.899-1.67.563-.37 1.272-.432 1.89-.168l12.279 5.271c.734.315 1.211 1.038 1.211 1.838s-.477 1.522-1.211 1.838l-12.279 5.271c-.253.109-.521.162-.789.162zm2-9.507v4.472l5.209-2.236z"/></g></g><g><g><g><path data-cppathid="10009" fill="#e0ebfc" d="m156.838 65.885h-51.439c-1.096 0-1.984-.888-1.984-1.985v-3.735c0-1.096.888-1.985 1.984-1.985h51.439c1.096 0 1.984.888 1.984 1.985v3.735c0 1.097-.888 1.985-1.984 1.985z"/></g></g><g><g><path data-cppathid="10010" fill="#e0ebfc" d="m156.838 98.585h-51.439c-1.096 0-1.984-.888-1.984-1.985v-3.302c0-1.096.888-1.984 1.984-1.984h51.439c1.096 0 1.984.888 1.984 1.984v3.302c0 1.097-.888 1.985-1.984 1.985z"/></g></g><g><g><path data-cppathid="10011" transform="matrix(0 1 -1 0 209.718 -52.519)" fill="#e0ebfc" d="m118.404 74.747h25.428v7.704h-25.428z"/></g></g><g><g><path data-cppathid="10012" transform="matrix(0 1 -1 0 191.552 -34.353)" fill="#e0ebfc" d="m100.238 74.747h25.428v7.704h-25.428z"/></g></g><g><g><path data-cppathid="10013" transform="matrix(0 1 -1 0 227.885 -70.686)" fill="#e0ebfc" d="m136.571 74.747h25.428v7.704h-25.428z"/></g></g><g><g><path data-cppathid="10014" fill="#e0ebfc" d="m148.377 58.181h-34.517c0-9.457 7.666-17.123 17.123-17.123h.27c9.457 0 17.124 7.666 17.124 17.123z"/></g></g></g><g><g><g><path data-cppathid="10015" fill="#e0ebfc" d="m156.838 65.885h-51.439c-1.096 0-1.984-.888-1.984-1.985v-3.735c0-1.096.888-1.985 1.984-1.985h51.439c1.096 0 1.984.888 1.984 1.985v3.735c0 1.097-.888 1.985-1.984 1.985z"/></g></g><g><g><path data-cppathid="10016" fill="#e0ebfc" d="m156.838 98.585h-51.439c-1.096 0-1.984-.888-1.984-1.985v-3.302c0-1.096.888-1.984 1.984-1.984h51.439c1.096 0 1.984.888 1.984 1.984v3.302c0 1.097-.888 1.985-1.984 1.985z"/></g></g><g><g><path data-cppathid="10017" transform="matrix(0 1 -1 0 209.718 -52.519)" fill="#e0ebfc" d="m118.404 74.747h25.428v7.704h-25.428z"/></g></g><g><g><path data-cppathid="10018" transform="matrix(0 1 -1 0 191.552 -34.353)" fill="#e0ebfc" d="m100.238 74.747h25.428v7.704h-25.428z"/></g></g><g><g><path data-cppathid="10019" transform="matrix(0 1 -1 0 227.885 -70.686)" fill="#e0ebfc" d="m136.571 74.747h25.428v7.704h-25.428z"/></g></g><g><g><path data-cppathid="10020" fill="#e0ebfc" d="m148.377 58.181h-34.517c0-9.457 7.666-17.123 17.123-17.123h.27c9.457 0 17.124 7.666 17.124 17.123z"/></g></g></g><g><g><g><path data-cppathid="10021" fill="#3762cc" d="m156.838 67.885h-51.438c-2.197 0-3.984-1.788-3.984-3.984v-3.735c0-2.197 1.787-3.984 3.984-3.984h51.438c2.197 0 3.984 1.788 3.984 3.984v3.735c0 2.197-1.787 3.984-3.984 3.984zm0-4v2zm-.016-3.719-51.423.016.016 3.72 51.407-.016z"/></g></g><g><g><path data-cppathid="10022" fill="#3762cc" d="m156.838 100.585h-51.438c-2.197 0-3.984-1.788-3.984-3.984v-3.302c0-2.197 1.787-3.985 3.984-3.985h51.438c2.197 0 3.984 1.788 3.984 3.985v3.302c0 2.196-1.787 3.984-3.984 3.984zm-.016-7.287-51.423.015.016 3.287 51.407-.016z"/></g></g><g><g><path data-cppathid="10023" fill="#3762cc" d="m134.971 93.313h-7.704c-1.104 0-2-.896-2-2v-25.428c0-1.104.896-2 2-2h7.704c1.104 0 2 .896 2 2v25.428c0 1.105-.896 2-2 2zm-5.704-4h3.704v-21.428h-3.704z"/></g></g><g><g><path data-cppathid="10024" fill="#3762cc" d="m116.805 93.313h-7.705c-1.104 0-2-.896-2-2v-25.428c0-1.104.896-2 2-2h7.705c1.104 0 2 .896 2 2v25.428c0 1.105-.896 2-2 2zm-5.705-4h3.705v-21.428h-3.705z"/></g></g><g><g><path data-cppathid="10025" fill="#3762cc" d="m153.138 93.313h-7.705c-1.104 0-2-.896-2-2v-25.428c0-1.104.896-2 2-2h7.705c1.104 0 2 .896 2 2v25.428c0 1.105-.896 2-2 2zm-5.705-4h3.705v-21.428h-3.705z"/></g></g><g><g><path data-cppathid="10026" fill="#3762cc" d="m148.377 60.181h-34.517c-1.104 0-2-.896-2-2 0-10.544 8.578-19.123 19.123-19.123h.271c10.545 0 19.123 8.579 19.123 19.123 0 1.105-.896 2-2 2zm-32.385-4h30.253c-.981-7.397-7.33-13.123-14.991-13.123h-.271c-7.661 0-14.009 5.726-14.991 13.123z"/></g></g></g></g><g><g><path data-cppathid="10027" fill="#3762cc" d="m131.118 115.903c-27.156 0-49.25-22.093-49.25-49.25s22.094-49.25 49.25-49.25 49.25 22.093 49.25 49.25-22.094 49.25-49.25 49.25zm0-94.5c-24.951 0-45.25 20.299-45.25 45.25s20.299 45.25 45.25 45.25 45.25-20.299 45.25-45.25-20.299-45.25-45.25-45.25z"/></g></g></g></g><g><g><path data-cppathid="10028" fill="#3762cc" d="m215.891 255h-175.782c-8.211 0-14.891-6.68-14.891-14.891v-224.218c.001-8.211 6.68-14.891 14.891-14.891h175.781c8.211 0 14.891 6.68 14.891 14.891v224.219c0 8.21-6.679 14.89-14.89 14.89zm-175.782-250c-6.005 0-10.891 4.886-10.891 10.891v224.219c0 6.005 4.886 10.891 10.891 10.891h175.781c6.005 0 10.891-4.886 10.891-10.891v-224.219c0-6.005-4.885-10.891-10.89-10.891z"/></g></g></g></svg>