<?xml version="1.0" encoding="UTF-8"?>
<svg xmlns="http://www.w3.org/2000/svg" onmouseup="{ if(window.parent.document.onmouseup) window.parent.document.onmouseup(arguments[0]);}" width="512" viewBox="0 0 512 512" height="512" enable-background="new 0 0 512 512" id="Layer_1"><path data-cppathid="10000" d="m335.491 158.646c-97.327 0-176.509 79.182-176.509 176.509s79.182 176.507 176.509 176.507 176.509-79.18 176.509-176.507-79.182-176.509-176.509-176.509zm0 339.178c-89.698 0-162.671-72.973-162.671-162.669 0-89.698 72.973-162.671 162.671-162.671s162.671 72.973 162.671 162.671c0 89.696-72.973 162.669-162.671 162.669zm-117.739-10.414c0 3.822-3.097 6.919-6.919 6.919h-181.959c-15.921 0-28.874-12.953-28.874-28.874v-436.241c0-15.921 12.953-28.876 28.874-28.876h326.448c15.921 0 28.876 12.955 28.876 28.876v111.626c0 3.822-3.097 6.919-6.919 6.919s-6.919-3.097-6.919-6.919v-111.626c0-8.293-6.745-15.038-15.038-15.038h-326.448c-8.291 0-15.036 6.745-15.036 15.038v436.241c0 8.291 6.745 15.036 15.036 15.036h181.959c3.822 0 6.919 3.097 6.919 6.919zm107.446-373.189h-266.203c-3.822 0-6.919-3.097-6.919-6.919s3.097-6.919 6.919-6.919h266.203c3.822 0 6.919 3.097 6.919 6.919s-3.097 6.919-6.919 6.919zm-170.058 141.612h-96.145c-3.822 0-6.919-3.097-6.919-6.919s3.097-6.919 6.919-6.919h96.144c3.822 0 6.919 3.097 6.919 6.919s-3.096 6.919-6.918 6.919zm-103.063 63.885c0-3.822 3.097-6.919 6.919-6.919h78.2c3.822 0 6.919 3.097 6.919 6.919s-3.097 6.919-6.919 6.919h-78.2c-3.823 0-6.919-3.096-6.919-6.919zm0 70.809c0-3.822 3.097-6.919 6.919-6.919h87.565c3.822 0 6.919 3.097 6.919 6.919s-3.097 6.919-6.919 6.919h-87.566c-3.822 0-6.918-3.097-6.918-6.919zm158.617-208.225h-151.699c-3.822 0-6.919-3.097-6.919-6.919s3.097-6.919 6.919-6.919h151.698c3.822 0 6.919 3.097 6.919 6.919.001 3.822-3.096 6.919-6.918 6.919zm202.401 85.034-67.82 67.82 67.82 67.82c2.703 2.7 2.703 7.083 0 9.784-1.351 1.351-3.122 2.027-4.892 2.027s-3.541-.676-4.892-2.027l-67.82-67.82-67.82 67.82c-1.351 1.351-3.122 2.027-4.892 2.027s-3.541-.676-4.892-2.027c-2.703-2.7-2.703-7.083 0-9.784l67.82-67.82-67.82-67.82c-2.703-2.7-2.703-7.083 0-9.784 2.703-2.703 7.081-2.703 9.784 0l67.82 67.82 67.82-67.82c2.703-2.703 7.081-2.703 9.784 0 2.702 2.7 2.702 7.083 0 9.784z"/></svg>