<?xml version="1.0" encoding="UTF-8"?>
<svg xmlns="http://www.w3.org/2000/svg" onmouseup="{ if(window.parent.document.onmouseup) window.parent.document.onmouseup(arguments[0]);}" width="512" viewBox="0 0 64 64" height="512"><g id="advertising-seo-marketing-content-report"><path data-cppathid="10000" fill="#ffeb99" d="m21 3h40v54h-40z"/><path data-cppathid="10001" fill="#ffe477" d="m21 57h40v-40a40 40 0 0 1 -40 40z"/><path data-cppathid="10002" fill="#7ed63e" d="m54.071 35.929a10 10 0 1 0 -7.071 17.071v-10z"/><path data-cppathid="10003" fill="#006df0" d="m47 53a10 10 0 0 0 10-10h-10z"/><path data-cppathid="10004" fill="#ed1c24" d="m47 43h10a9.968 9.968 0 0 0 -2.929-7.071z"/><path data-cppathid="10005" fill="#58595b" d="m8 26a2 2 0 0 1 0-4h1v-2a2.006 2.006 0 0 1 2-2h11a2 2 0 0 0 2-2v-5a2 2 0 0 0 -2-2h-7a4 4 0 0 0 -4 4 2.006 2.006 0 0 0 -2-2 6 6 0 0 0 -6 6v8.292a6 6 0 0 0 3.317 5.366l2.683 1.342v-6z"/><path data-cppathid="10006" fill="#ff5023" d="m49 33a3 3 0 0 0 -3-3v6a3 3 0 0 0 3-3z"/><path data-cppathid="10007" fill="#ffbcab" d="m21 22v-4h-10a2.006 2.006 0 0 0 -2 2v2h-1a2 2 0 0 0 0 4h1v11h7v-4h1a4.012 4.012 0 0 0 4-4v-2h3z"/><g fill="none"><path data-cppathid="10008" d="m57 43h-10v10a10 10 0 0 0 10-10z"/><path data-cppathid="10009" d="m28 17h4v4h-4z"/><path data-cppathid="10010" d="m36 14h4v7h-4z"/><path data-cppathid="10011" d="m14.6 46.232-2-3.464a2 2 0 0 0 -2.732-.732l-1.732 1a2 2 0 0 0 -.736 2.732l2.5 4.332a6 6 0 0 0 8.2 2.2l10.99-5.5 3.465-2a3.026 3.026 0 0 0 .445-.328 3 3 0 0 0 .651-3.776 2.989 2.989 0 0 0 -.651-.766v-3.93l5.179 2.3 3.821 1.7h4v-4a3 3 0 0 0 0-6v-4h-4l-9 4h-4a3 3 0 0 0 0 6v3.917l-2.912 1.683-1.539.76-8.585 4.24a1 1 0 0 1 -1.364-.368z"/><path data-cppathid="10012" d="m44 9h4v12h-4z"/><path data-cppathid="10013" d="m52 7h4v14h-4z"/><path data-cppathid="10014" d="m36 14h4v7h-4z"/><path data-cppathid="10015" d="m28 17h4v4h-4z"/><path data-cppathid="10016" d="m14.6 46.232-2-3.464a2 2 0 0 0 -2.732-.732l-1.732 1a2 2 0 0 0 -.736 2.732l2.5 4.332a6 6 0 0 0 8.2 2.2l10.9-5.462.088-.044 3.465-2a3.029 3.029 0 0 0 1.1-4.1 2.989 2.989 0 0 0 -.653-.764v-3.93l5.179 2.3 3.821 1.7h4v-4a3 3 0 0 0 0-6v-4h-4l-9 4h-4a3 3 0 0 0 0 6v3.917l-2.912 1.683-1.539.76-8.585 4.24a1 1 0 0 1 -1.364-.368z"/><path data-cppathid="10017" d="m52 7h4v14h-4z"/><path data-cppathid="10018" d="m44 9h4v12h-4z"/><path data-cppathid="10019" d="m57 43h-10v10a10 10 0 0 0 10-10z"/><path data-cppathid="10020" d="m36 14h4v7h-4z"/><path data-cppathid="10021" d="m57 43h-10v10a10 10 0 0 0 10-10z"/><path data-cppathid="10022" d="m28 17h4v4h-4z"/><path data-cppathid="10023" d="m14.6 46.232-2-3.464a2 2 0 0 0 -2.732-.732l-1.732 1a2 2 0 0 0 -.736 2.732l2.5 4.332a6 6 0 0 0 8.2 2.2l6.9-3.46 4-2v1.16a2 2 0 0 0 4 0v-3.528a3 3 0 0 0 .651-3.776 2.989 2.989 0 0 0 -.651-.766v-3.93l5.179 2.3 3.821 1.7h4v-4a3 3 0 0 0 0-6v-4h-4l-9 4h-4a3 3 0 0 0 0 6v3.917l-2.912 1.683-1.539.76-8.585 4.24a1 1 0 0 1 -1.364-.368z"/><path data-cppathid="10024" d="m44 9h4v12h-4z"/><path data-cppathid="10025" d="m52 7h4v14h-4z"/></g><path data-cppathid="10026" fill="#ed1c24" d="m16.858 36.985-.858.015h-9a4 4 0 0 0 -4 4v20h22v-16.016a8 8 0 0 0 -8.142-7.999z"/><path data-cppathid="10027" fill="#004fac" d="m33 36v12a2 2 0 0 1 -4 0v-12z"/><path data-cppathid="10028" fill="#006df0" d="m14.6 46.232-2-3.464a2 2 0 0 0 -2.732-.732l-1.732 1a2 2 0 0 0 -.736 2.732l2.5 4.332a6 6 0 0 0 8.2 2.2l10.99-5.5-3-5.2-1.539.76-8.587 4.24a1 1 0 0 1 -1.364-.368z"/><path data-cppathid="10029" fill="#ffbcab" d="m32.553 44.794a3 3 0 0 0 1.1-4.1 2.989 2.989 0 0 0 -.653-.764 2.99 2.99 0 0 0 -3.447-.332l-.553.319-2.912 1.683 3 5.2z"/><path data-cppathid="10030" fill="#ed1c24" d="m33 30h-4a3 3 0 0 0 0 6h4z"/><path data-cppathid="10031" fill="#f1f2f2" d="m38.179 38.302.001-.002-.001.002 3.821 1.698v-14l-9 4v6z"/><path data-cppathid="10032" fill="#ed1c24" d="m46 40v-4-6-4h-4v14z"/><path data-cppathid="10033" fill="#ed1c24" d="m28 17h4v4h-4z"/><path data-cppathid="10034" fill="#ff9811" d="m36 14h4v7h-4z"/><path data-cppathid="10035" fill="#006df0" d="m44 9h4v12h-4z"/><path data-cppathid="10036" fill="#5eac24" d="m52 7h4v14h-4z"/><path data-cppathid="10037" fill="#006df0" d="m3 57h22v4h-22z"/><path data-cppathid="10038" fill="#231f20" d="m16 23h1a1 1 0 0 0 0-2h-1a1 1 0 0 0 0 2z"/><path data-cppathid="10039" fill="#231f20" d="m61 2h-40a1 1 0 0 0 -1 1v5h-5a4.989 4.989 0 0 0 -4.33 2.51 2.994 2.994 0 0 0 -1.67-.51 7.008 7.008 0 0 0 -7 7v8.29a6.95 6.95 0 0 0 3.87 6.26l2.13 1.07v3.38h-1a5 5 0 0 0 -5 5v20a1 1 0 0 0 1 1h22a1 1 0 0 0 1-1v-3h35a1 1 0 0 0 1-1v-54a1 1 0 0 0 -1-1zm-54.24 27.76a4.968 4.968 0 0 1 -2.76-4.47v-8.29a5 5 0 0 1 5-5 1 1 0 0 1 1 1 1 1 0 0 0 2 0 3.009 3.009 0 0 1 3-3h7a1 1 0 0 1 1 1v5a1 1 0 0 1 -1 1h-11a3.009 3.009 0 0 0 -3 3v1a3 3 0 0 0 0 6v3.38zm9.53-1.05 1 1a1.033 1.033 0 0 0 .71.29h1.82a3.01 3.01 0 0 1 -2.82 2h-4a1 1 0 0 0 0 2h2v2h-5v-10a1 1 0 0 0 -1-1h-1a1 1 0 0 1 0-2h1a1 1 0 0 0 1-1v-2a1 1 0 0 1 1-1h9v3a1 1 0 0 0 .14.51l2.09 3.49h-1.23a1 1 0 0 0 -1 1v1h-1.59l-.7-.71a1 1 0 0 0 -1.42 1.42zm7.71 31.29h-20v-2h17a1 1 0 0 0 0-2h-17v-15a3.009 3.009 0 0 1 3-3h10a6.994 6.994 0 0 1 6.25 3.88l-7.79 3.85-2-3.46a2.99 2.99 0 0 0 -4.09-1.1l-1.74 1a3 3 0 0 0 -1.09 4.1l2.5 4.33a6.911 6.911 0 0 0 4.25 3.26 7.129 7.129 0 0 0 1.83.24 6.876 6.876 0 0 0 3.43-.91l5.45-2.73zm-6.4-8.57a5 5 0 0 1 -6.83-1.83l-2.5-4.33a1.007 1.007 0 0 1 .36-1.37l1.74-1a.947.947 0 0 1 .49-.13 1.09 1.09 0 0 1 .26.03 1 1 0 0 1 .61.47l2 3.46a1.972 1.972 0 0 0 1.22.93 1.923 1.923 0 0 0 1.46-.17l9.28-4.58 2 3.47zm11.4-16.43a2 2 0 0 1 0-4h3v4zm3 2v1.32a3.873 3.873 0 0 0 -2 .03v-1.35zm-1.95 3.46a2.066 2.066 0 0 1 1.52-.2 1.942 1.942 0 0 1 1.21.94 1.988 1.988 0 0 1 -.73 2.73l-2.6 1.5-1-1.73-1-1.74zm1.95 5.81v1.73a1 1 0 0 1 -2 0v-.58zm28 9.73h-34v-6.54l2.04-1.02a3 3 0 0 0 5.96-.44v-3.142a3.975 3.975 0 0 0 .52-4.658 4.1 4.1 0 0 0 -.52-.7v-1.96l2.85 1.26a10.993 10.993 0 1 0 13.09-6.39 4 4 0 0 0 -2.94-3.27v-3.14a1 1 0 0 0 -1-1h-4c-.01 0-.03.01-.04.01a.866.866 0 0 0 -.32.06.06.06 0 0 1 -.04.01l-.01.01-8.8 3.91h-3.79a3.993 3.993 0 0 0 -1 7.86v2.48l-2.39 1.38-.56.28a9 9 0 0 0 -8.05-5v-2a5 5 0 0 0 5-5v-1h2a1 1 0 0 0 .86-1.51l-2.86-4.77v-2.72a3.009 3.009 0 0 0 3-3v-5a3.009 3.009 0 0 0 -3-3v-4h38zm-14-15a1 1 0 0 0 1-1v-3.14a4.032 4.032 0 0 0 2.73-2.43 9.013 9.013 0 0 1 2.88 1.55l-6.61 6.61v9.35a9.016 9.016 0 0 1 -8-8.94 8.834 8.834 0 0 1 .67-3.39l2.92 1.3c.01 0 .01 0 .01.01a1.057 1.057 0 0 0 .4.08zm-3-2v-12h2v12zm4-4.28v-3.44a1.979 1.979 0 0 1 0 3.44zm2.41 7.28 4.62-4.61a9.035 9.035 0 0 1 1.91 4.61zm6.53 2a9.013 9.013 0 0 1 -7.94 7.94v-7.94zm-14.94-5.54-7-3.11v-4.7l7-3.11z"/><path data-cppathid="10040" fill="#231f20" d="m26 22h32a1 1 0 0 0 0-2h-1v-13a1 1 0 0 0 -1-1h-4a1 1 0 0 0 -1 1v13h-2v-11a1 1 0 0 0 -1-1h-4a1 1 0 0 0 -1 1v11h-2v-6a1 1 0 0 0 -1-1h-4a1 1 0 0 0 -1 1v6h-2v-3a1 1 0 0 0 -1-1h-4a1 1 0 0 0 -1 1v3h-1a1 1 0 0 0 0 2zm27-14h2v12h-2zm-8 2h2v10h-2zm-8 5h2v5h-2zm-8 3h2v2h-2z"/><path data-cppathid="10041" fill="#231f20" d="m36 24h-9a1 1 0 0 0 0 2h9a1 1 0 0 0 0-2z"/><path data-cppathid="10042" fill="#231f20" d="m57 24h-7a1 1 0 0 0 0 2h7a1 1 0 0 0 0-2z"/><path data-cppathid="10043" fill="#231f20" d="m57 28h-5a1 1 0 0 0 0 2h5a1 1 0 0 0 0-2z"/><path data-cppathid="10044" fill="#231f20" d="m57 32h-2a1 1 0 0 0 0 2h2a1 1 0 0 0 0-2z"/></g></svg>