<?xml version="1.0" encoding="UTF-8"?>
<svg xmlns="http://www.w3.org/2000/svg" onmouseup="{ if(window.parent.document.onmouseup) window.parent.document.onmouseup(arguments[0]);}" xml:space="preserve" style="enable-background:new 0 0 512 512;" viewBox="0 0 512 512" y="0px" x="0px" id="Layer_1" version="1.1" xmlns:xlink="http://www.w3.org/1999/xlink"><path data-cppathid="10000" d="M256,512C114.839,512,0,397.161,0,256S114.839,0,256,0s256,114.839,256,256S397.161,512,256,512z" style="fill:#FF5023;"/><path data-cppathid="10001" d="M512,256C512,114.839,397.161,0,256,0v512C397.161,512,512,397.161,512,256z" style="fill:#CD2A00;"/><g><path data-cppathid="10002" d="M388.481,318.4H121.292c-9.225,0-16.699-7.475-16.699-16.699s7.475-16.699,16.699-16.699h267.189   c9.225,0,16.699,7.475,16.699,16.699S397.706,318.4,388.481,318.4z" style="fill:#FFFFFF;"/><path data-cppathid="10003" d="M388.481,218.204H121.292c-9.225,0-16.699-7.475-16.699-16.699c0-9.225,7.475-16.699,16.699-16.699   h267.189c9.225,0,16.699,7.475,16.699,16.699C405.18,210.729,397.706,218.204,388.481,218.204z" style="fill:#FFFFFF;"/></g><g><path data-cppathid="10004" d="M388.481,285.001H254.887V318.4h133.594c9.225,0,16.699-7.475,16.699-16.699   S397.706,285.001,388.481,285.001z" style="fill:#FFE6B3;"/><path data-cppathid="10005" d="M388.481,184.805H254.887v33.399h133.594c9.225,0,16.699-7.475,16.699-16.699   C405.18,192.28,397.706,184.805,388.481,184.805z" style="fill:#FFE6B3;"/></g><g/><g/><g/><g/><g/><g/><g/><g/><g/><g/><g/><g/><g/><g/><g/></svg>