<?xml version="1.0" encoding="UTF-8"?>
<svg xmlns="http://www.w3.org/2000/svg" onmouseup="{ if(window.parent.document.onmouseup) window.parent.document.onmouseup(arguments[0]);}" width="512" viewBox="0 0 512 512" height="512" enable-background="new 0 0 512 512" id="Capa_1"><g><g><path data-cppathid="10000" fill="#eefaff" d="m90.013 10c-31.24 31.24-48.76 48.76-80 80v412h369v-492z"/><path data-cppathid="10001" fill="#ffda8f" d="m490.193 225.79c21.75 21.75 11.08 54.97-12.54 65.25-24.36 10.61-68.22 43.32-87 62.11l-5.78 5.77v.01l-28.29-28.29 5.83-5.82c18.985-19.024 51.895-62.386 62.64-86.67 10.37-23.45 43.34-34.17 65.14-12.36z"/><path data-cppathid="10002" fill="#ff7b79" d="m413.153 387.21c15.62 15.62 15.62 40.95 0 56.57l-14.14 14.14c-7.151-7.151-134.02-134.02-141.42-141.42l14.14-14.14c15.62-15.63 40.95-15.63 56.57 0 30.178 30.178 57.965 57.964 84.85 84.85z"/><path data-cppathid="10003" fill="#9bc5ff" d="m136.013 136h203v40h-203z"/><circle data-cppathid="10004" r="40" fill="#ff7b79" cy="416" cx="236.013"/><path data-cppathid="10005" fill="#8690a6" d="m50.013 136h86v40h-86z"/></g><g><circle data-cppathid="10006" r="10" cy="336" cx="216.013"/><path data-cppathid="10007" d="m40.013 136v40c0 5.523 4.477 10 10 10h289c5.522 0 10-4.477 10-10v-40c0-5.523-4.478-10-10-10h-289c-5.523 0-10 4.477-10 10zm106 10h183v20h-183zm-86 0h66v20h-66z"/><path data-cppathid="10008" d="m50.013 226h289c5.522 0 10-4.477 10-10s-4.478-10-10-10h-289c-5.523 0-10 4.477-10 10s4.477 10 10 10z"/><path data-cppathid="10009" d="m50.013 266h289c5.522 0 10-4.477 10-10s-4.478-10-10-10h-289c-5.523 0-10 4.477-10 10s4.477 10 10 10z"/><path data-cppathid="10010" d="m50.013 306h166c5.523 0 10-4.477 10-10s-4.477-10-10-10h-166c-5.523 0-10 4.477-10 10s4.477 10 10 10z"/><path data-cppathid="10011" d="m50.013 346h126c5.523 0 10-4.477 10-10s-4.477-10-10-10h-126c-5.523 0-10 4.477-10 10s4.477 10 10 10z"/><path data-cppathid="10012" d="m136.013 426h51.006c4.646 22.795 24.847 40 48.994 40 27.57 0 50-22.43 50-50s-22.43-50-50-50c-24.146 0-44.348 17.205-48.994 40h-51.006c-5.523 0-10 4.477-10 10s4.477 10 10 10zm100-20h-28.28c4.128-11.639 15.243-20 28.28-20 16.542 0 30 13.458 30 30s-13.458 30-30 30c-13.036 0-24.152-8.361-28.28-20h28.28c5.522 0 10-4.477 10-10s-4.477-10-10-10z"/><path data-cppathid="10013" d="m339.013 80c5.522 0 10-4.477 10-10s-4.478-10-10-10h-20c-5.522 0-10 4.477-10 10s4.478 10 10 10z"/><path data-cppathid="10014" d="m279.013 80c5.522 0 10-4.477 10-10s-4.478-10-10-10h-20c-5.522 0-10 4.477-10 10s4.478 10 10 10z"/><path data-cppathid="10015" d="m219.013 80c5.523 0 10-4.477 10-10s-4.477-10-10-10h-20c-5.523 0-10 4.477-10 10s4.477 10 10 10z"/><circle data-cppathid="10016" r="10" cy="502" cx="196.013"/><path data-cppathid="10017" d="m10.013 512h141c5.523 0 10-4.477 10-10s-4.477-10-10-10h-131v-392h70c5.523 0 10-4.477 10-10v-70h269v282.652c-4.536 5.367-8.772 10.079-12.437 13.839l-21.2-21.2c-19.535-19.548-51.173-19.557-70.715-.002l-14.14 14.14c-3.905 3.905-3.905 10.237 0 14.142l118.491 118.491v49.938h-128c-5.523 0-10 4.477-10 10s4.477 10 10 10h138c5.522 0 10-4.477 10-10v-39.938l2.929 2.929c3.905 3.902 10.238 3.905 14.143 0l14.14-14.14c19.538-19.538 19.542-51.171 0-70.712l-21.197-21.198c18.969-18.483 60.694-49.184 82.617-58.732 30.772-13.395 41.876-55.234 15.621-81.489-26.057-26.07-67.71-15.477-81.356 15.383-5.118 11.566-15.721 27.828-26.896 43.067v-267.17c0-5.523-4.478-10-10-10h-289c-2.727 0-5.29 1.15-7.071 2.929l-80 80c-1.809 1.805-2.929 4.357-2.929 7.071v412c0 5.523 4.477 10 10 10zm396.068-117.719c11.723 11.722 11.725 30.703 0 42.428l-7.068 7.069-127.278-127.278 7.071-7.071c11.722-11.728 30.697-11.734 42.426.002zm-19.23-81.778c17.33-20.901 38.692-50.747 47.348-70.309 7.773-17.577 32.476-25.787 48.923-9.333 16.454 16.454 8.095 41.369-9.462 49.011-24.883 10.838-68.192 42.8-88.776 62.926l-14.165-14.165c4.741-4.851 10.28-11.07 16.132-18.13zm-306.838-278.361v45.858h-45.858z"/></g></g></svg>