<?xml version="1.0" encoding="UTF-8"?>
<svg xmlns="http://www.w3.org/2000/svg" onmouseup="{ if(window.parent.document.onmouseup) window.parent.document.onmouseup(arguments[0]);}" width="512" viewBox="0 0 510.011 510.011" height="512" enable-background="new 0 0 510.011 510.011" id="Capa_1"><g><path data-cppathid="10000" fill="#4d578c" d="m333.555 322.651c-2.021 8.096-10.265 12.927-18.19 10.91l-45.36-11.34v108.79c0 8.28-6.72 15-15 15s-15-6.72-15-15v-116.29l-52.64-13.16c-8.03-2.01-12.92-10.149-10.91-18.189 2.01-8.03 10.15-12.92 18.19-10.91l45.36 11.34v-192.261c-18.58-6.27-32-23.86-32-44.53 0-25.92 21.08-47 47-47s47 21.08 47 47c0 20.67-13.42 38.26-32 44.53v199.76l52.64 13.16c8.03 2.01 12.92 10.15 10.91 18.19z"/><path data-cppathid="10001" fill="#333e73" d="m333.555 322.651c-2.021 8.096-10.265 12.927-18.19 10.91l-45.36-11.34v108.79c0 8.28-6.72 15-15 15v-446c25.92 0 47 21.08 47 47 0 20.67-13.42 38.26-32 44.53v199.76l52.64 13.16c8.03 2.01 12.92 10.15 10.91 18.19z"/><path data-cppathid="10002" fill="#eef4ff" d="m398.005 446.011v34c0 16.54-13.46 30-30 30h-226c-16.54 0-30-13.46-30-30v-34c0-16.54 13.46-30 30-30h226c16.54 0 30 13.46 30 30z"/><path data-cppathid="10003" fill="#d9e6fc" d="m398.005 446.011v34c0 16.54-13.46 30-30 30h-113v-94h113c16.54 0 30 13.46 30 30z"/><path data-cppathid="10004" fill="#eef4ff" d="m510.005 302.011v34c0 16.54-13.46 30-30 30h-146c-16.54 0-30-13.46-30-30v-34c0-16.54 13.46-30 30-30h146c16.54 0 30 13.46 30 30z"/><path data-cppathid="10005" fill="#d9e6fc" d="m510.005 302.011v34c0 16.54-13.46 30-30 30h-73v-94h73c16.54 0 30 13.46 30 30z"/><path data-cppathid="10006" fill="#eef4ff" d="m206.005 270.011v34c0 16.54-13.46 30-30 30h-146c-16.54 0-30-13.46-30-30v-34c0-16.54 13.46-30 30-30h146c16.54 0 30 13.46 30 30z"/><path data-cppathid="10007" fill="#d9e6fc" d="m206.005 270.011v34c0 16.54-13.46 30-30 30h-73v-94h73c16.54 0 30 13.46 30 30z"/><path data-cppathid="10008" fill="#ffe14d" d="m486.005 133.201v74.81c0 16.54-13.46 30-30 30h-98c-16.54 0-30-13.46-30-30v-74.81l12.94-7.57c0-8.32 5.2-12.43 13.44-12.43 64.758-.111 42.924-.074 101.11-.17 7.77 0 12.42 5.04 12.42 13.79z"/><path data-cppathid="10009" fill="#fb3" d="m486.005 133.201v74.81c0 16.54-13.46 30-30 30h-49v-124.9l48.49-.08c7.77 0 12.42 5.04 12.42 13.79z"/><path data-cppathid="10010" fill="#4d578c" d="m486.005 133.201h-158c0-6.327-.637-10.808 3.43-15.73.264-.336-3.676 4.11 53.15-59.81 11.891-13.374 32.867-13.467 44.84 0 56.848 63.944 52.886 59.474 53.15 59.81 4.065 5.15 3.43 8.894 3.43 15.73z"/><path data-cppathid="10011" fill="#333e73" d="m486.005 133.201h-79v-85.61c8.56 0 16.73 3.67 22.42 10.07 62.057 69.803 56.58 59.979 56.58 75.54z"/><path data-cppathid="10012" fill="#97de3d" d="m127.945 89.131c-3.46-1.272-42.928-12.269-47.95-20.02-1.219-1.219-1.994-6.023 1-11.15 6.411-10.69 26.372-11.21 37.92-6.98 7.592 2.642 8.629 5.746 13.99 6.81 15.748 2.766 25.127-17.82 10.4-27.83-.101-.052-10.499-7.647-26.33-10.33 0-4.537.186-6.069-.62-8.9-4.66-15.289-26.109-13.548-29.06 1.19-.427 2.132-.32 2.786-.32 8.59-37.357 8.807-47.537 47.684-29.14 69 9.338 10.946 30.964 18.585 45.17 23.21 11.975 3.868 21.188 5.41 26.31 12.5 7.712 10.698-2.584 30.026-26.31 30.771-16.015.46-23.57-.6-36.57-7.851-7.25-4-16.38-1.38-20.39 5.87s-1.38 16.38 5.87 20.39c14.49 7.974 23.794 10.286 35.06 11.221v5.39c0 9.497 8.778 15.971 16.03 14.96.01.01.01.01.02 0 5.708-.398 9.005-3.86 9.05-3.86 5.69-4.934 4.9-11.443 4.9-17.729 51.309-11.472 63.472-75.999 10.97-95.252z"/><path data-cppathid="10013" fill="#59c36a" d="m144.425 30.831c0-.338-11.102-8.262-27.45-11.2 0-4.387.356-7.738-1.63-11.41-2.164-4.328-6.78-7.755-12.03-8.14-.462-.092-.31-3.624-.31 48.45 5.453-.167 10.914.62 15.91 2.45 8.538 2.971 9.216 6.716 15.89 7 15.319.561 21.536-18.519 9.62-27.15zm-12.599 101.65c.03.761 0 1.53-.08 2.32.09-.79.119-1.57.08-2.32zm-4.281-9.33c.5.47.813.803.01 0zm32.58-2.34c-9.1-29.337-36.27-32.224-57.12-39.79v31.7c11.39 3.679 19.47 5.009 25.03 10.93 10.168 11.526-1.162 31.592-25.03 32.34 0 49.748-.08 50.077.02 49.979 6.305-.44 12.015-4.781 13.63-11.87.427-1.992.32-3.072.32-9.72 34.549-7.722 50.597-39.249 43.15-63.569zm-32.57 2.34h-.01c.501.47.813.803.01 0zm4.271 9.33c.03.761 0 1.53-.08 2.32.09-.79.119-1.57.08-2.32z"/></g></svg>