<?xml version="1.0" encoding="UTF-8"?>
<svg xmlns="http://www.w3.org/2000/svg" onmouseup="{ if(window.parent.document.onmouseup) window.parent.document.onmouseup(arguments[0]);}" height="512" width="512" viewBox="0 0 64 64"><path data-cppathid="10000" fill="#5aaae0" d="m1.65172 19.56402h17v42.43598h-17z"/><path data-cppathid="10001" fill="#5aaae0" d="m44.86231 19.56402h17.13769v42.43598h-17.13769z"/><path data-cppathid="10002" fill="#7dc7ff" d="m18.65172 2h26.21059v60h-26.21059z"/><path data-cppathid="10003" fill="#f73445" d="m33.91175 48.56612a3.92331 3.92331 0 0 0 1.89386-3.34312 4.00035 4.00035 0 0 0 -8 0 3.92331 3.92331 0 0 0 1.89386 3.34313 5.92185 5.92185 0 0 0 -3.89386 5.53881v7.89506h12v-7.89507a5.92183 5.92183 0 0 0 -3.89386-5.53881z"/><g fill="#359ed8"><path data-cppathid="10004" d="m22.68412 23.51155h2.0162v1.97377h-2.0162z"/><path data-cppathid="10005" d="m22.68412 27.45909h2.0162v1.97377h-2.0162z"/><path data-cppathid="10006" d="m22.68412 31.40662h2.0162v1.97377h-2.0162z"/><path data-cppathid="10007" d="m22.68412 35.35415h2.0162v1.97377h-2.0162z"/><path data-cppathid="10008" d="m26.71652 23.51155h2.0162v1.97377h-2.0162z"/><path data-cppathid="10009" d="m26.71652 27.45909h2.0162v1.97377h-2.0162z"/><path data-cppathid="10010" d="m26.71652 31.40662h2.0162v1.97377h-2.0162z"/><path data-cppathid="10011" d="m26.71652 35.35415h2.0162v1.97377h-2.0162z"/><path data-cppathid="10012" d="m30.74892 23.51155h2.0162v1.97377h-2.0162z"/><path data-cppathid="10013" d="m30.74892 27.45909h2.0162v1.97377h-2.0162z"/><path data-cppathid="10014" d="m30.74892 31.40662h2.0162v1.97377h-2.0162z"/><path data-cppathid="10015" d="m30.74892 35.35415h2.0162v1.97377h-2.0162z"/><path data-cppathid="10016" d="m34.78132 23.51155h2.0162v1.97377h-2.0162z"/><path data-cppathid="10017" d="m26.71652 19.56402h2.0162v1.97377h-2.0162z"/><path data-cppathid="10018" d="m30.74892 19.56402h2.0162v1.97377h-2.0162z"/><path data-cppathid="10019" d="m34.78132 19.56402h2.0162v1.97377h-2.0162z"/><path data-cppathid="10020" d="m34.78132 27.45909h2.0162v1.97377h-2.0162z"/><path data-cppathid="10021" d="m34.78132 31.40662h2.0162v1.97377h-2.0162z"/><path data-cppathid="10022" d="m34.78132 35.35415h2.0162v1.97377h-2.0162z"/><path data-cppathid="10023" d="m38.81371 23.51155h2.0162v1.97377h-2.0162z"/><path data-cppathid="10024" d="m38.81371 27.45909h2.0162v1.97377h-2.0162z"/><path data-cppathid="10025" d="m38.81371 31.40662h2.0162v1.97377h-2.0162z"/><path data-cppathid="10026" d="m38.81371 35.35415h2.0162v1.97377h-2.0162z"/></g><path data-cppathid="10027" fill="#f7f769" d="m13.46982 52.48462a2.93085 2.93085 0 0 0 1.16571-2.32722 3.00026 3.00026 0 0 0 -6 0 2.93082 2.93082 0 0 0 1.16571 2.32722 4.92935 4.92935 0 0 0 -3.16571 4.581v4.93438h10v-4.93442a4.92936 4.92936 0 0 0 -3.16571-4.58096z"/><path data-cppathid="10028" fill="#ffc943" d="m22.54271 49.524a2.93082 2.93082 0 0 0 1.16571-2.32722 3.00026 3.00026 0 0 0 -6 0 2.93082 2.93082 0 0 0 1.16571 2.32722 4.92936 4.92936 0 0 0 -3.16571 4.581v7.895h10v-7.89507a4.92936 4.92936 0 0 0 -3.16571-4.58093z"/><path data-cppathid="10029" fill="#f7f769" d="m53.79379 52.48462a2.93082 2.93082 0 0 0 1.16571-2.32722 3.00026 3.00026 0 0 0 -6 0 2.93082 2.93082 0 0 0 1.16571 2.32722 4.92936 4.92936 0 0 0 -3.16571 4.581v4.93438h10v-4.93442a4.92935 4.92935 0 0 0 -3.16571-4.58096z"/><path data-cppathid="10030" fill="#ffc943" d="m44.7209 49.524a2.93082 2.93082 0 0 0 1.16571-2.32722 3.00026 3.00026 0 0 0 -6 0 2.93082 2.93082 0 0 0 1.16571 2.32722 4.92935 4.92935 0 0 0 -3.16571 4.581v7.895h10v-7.89507a4.92936 4.92936 0 0 0 -3.16571-4.58093z"/><path data-cppathid="10031" fill="#005889" d="m49.90281 26.4722h2.0162v15.79013h-2.0162z"/><path data-cppathid="10032" fill="#005889" d="m55.9514 26.4722h2.0162v15.79013h-2.0162z"/><path data-cppathid="10033" fill="#005889" d="m5.54643 26.4722h2.0162v15.79013h-2.0162z"/><path data-cppathid="10034" fill="#005889" d="m11.59503 26.4722h2.0162v15.79013h-2.0162z"/><path data-cppathid="10035" fill="#359ed8" d="m23.69222 4.76077h16.12959v9.86883h-16.12959z"/></svg>