<?xml version="1.0" encoding="UTF-8"?>
<svg xmlns="http://www.w3.org/2000/svg" onmouseup="{ if(window.parent.document.onmouseup) window.parent.document.onmouseup(arguments[0]);}" width="512" viewBox="0 0 64 64" height="512" enable-background="new 0 0 64 64" id="Layer_5"><g><g><g><path data-cppathid="10000" fill="#ffeaa7" d="m42 54v4c0 2.21-1.79 4-4 4h-32c-2.21 0-4-1.79-4-4v-50c0-2.21 1.79-4 4-4h8v4h-7c-.55 0-1 .45-1 1v9 39c0 .55.45 1 1 1h30c.55 0 1-.45 1-1v-3z"/></g><g><path data-cppathid="10001" fill="#ffeaa7" d="m42 21.17v24.83h-4v-24c1.42 0 2.78-.3 4-.84z"/></g><g><path data-cppathid="10002" fill="#f0d0b4" d="m31.94 19.95c-2.4-1.83-3.94-4.71-3.94-7.95 0-.69.07-1.36.2-2.01-.07.01-.13.01-.2.01h-12c-1.1 0-2-.9-2-2h-7c-.55 0-1 .45-1 1v9 39c0 .55.45 1 1 1h30c.55 0 1-.45 1-1v-35c-2.28 0-4.38-.76-6.06-2.05z"/></g><g><path data-cppathid="10003" fill="#aab2bd" d="m32 50v4l-7.06-2.65c-.57-.21-.94-.75-.94-1.35s.37-1.14.94-1.35l7.06-2.65z"/></g><g><path data-cppathid="10004" fill="#aab2bd" d="m60.83 47.17c.72.73 1.17 1.73 1.17 2.83 0 2.21-1.79 4-4 4h-4v-4-4h4c1.1 0 2.1.45 2.83 1.17z"/></g><g><path data-cppathid="10005" fill="#4fc1e9" d="m54 50v4h-12-4-6v-4z"/></g><g><path data-cppathid="10006" fill="#b4dd7f" d="m54 46v4h-22v-4h6 4z"/></g><g><path data-cppathid="10007" fill="#e6e9ed" d="m29.28 23.45c-2.02-1.54-4.54-2.45-7.28-2.45-6.63 0-12 5.37-12 12 0 2.19.58 4.24 1.61 6.01 2.07 3.58 5.95 5.99 10.39 5.99s8.32-2.41 10.39-5.99c1.03-1.77 1.61-3.82 1.61-6.01 0-3.9-1.85-7.36-4.72-9.55z"/></g><g><path data-cppathid="10008" fill="#fcd770" d="m24 29h4v10h-4z"/></g><g><path data-cppathid="10009" fill="#fcd770" d="m24 29v10h-4v-6-6h4z"/></g><g><path data-cppathid="10010" fill="#fcd770" d="m16 33h4v6h-4z"/></g><g><path data-cppathid="10011" fill="#b4dd7f" d="m30 4v2c-.87 1.16-1.5 2.51-1.8 3.99-.07.01-.13.01-.2.01h-12c-1.1 0-2-.9-2-2v-4c0-1.1.9-2 2-2h12c1.1 0 2 .9 2 2z"/></g><g><path data-cppathid="10012" fill="#cf9e76" d="m59 12 2 4h-6l-2-4h4z"/></g><g><path data-cppathid="10013" fill="#cf9e76" d="m61 8-2 4h-2-4l2-4z"/></g><g><path data-cppathid="10014" fill="#e6e9ed" d="m48 12c0 3.15-1.46 5.97-3.75 7.81-.68.54-1.44 1-2.25 1.35-1.22.54-2.58.84-4 .84-2.28 0-4.38-.76-6.06-2.05-2.4-1.83-3.94-4.71-3.94-7.95 0-.69.07-1.36.2-2.01.3-1.48.93-2.83 1.8-3.99 1.83-2.43 4.73-4 8-4 5.52 0 10 4.48 10 10z"/></g><g><circle data-cppathid="10015" r="4" fill="#ff826e" cy="12" cx="38"/></g><g><path data-cppathid="10016" fill="#e6e9ed" d="m54 24c4.42 0 8 3.58 8 8s-3.58 8-8 8-8-3.58-8-8c0-2.53 1.17-4.78 3-6.25 1.37-1.09 3.11-1.75 5-1.75z"/></g><g><path data-cppathid="10017" fill="#ff826e" d="m57.11 30.55c.54.28.89.84.89 1.45s-.35 1.17-.89 1.45l-4.77 2.38c-.22.11-.47.17-.72.17-.9 0-1.62-.72-1.62-1.62v-4.76c0-.9.72-1.62 1.62-1.62.25 0 .5.06.72.17z"/></g></g><g><path data-cppathid="10018" d="m58 45h-15v-23.214c.364-.187.718-.388 1.057-.613l3.577 4.471c-1.626 1.629-2.634 3.877-2.634 6.356 0 4.963 4.037 9 9 9s9-4.037 9-9c0-4.962-4.037-9-9-9-1.765 0-3.408.518-4.799 1.4l-3.585-4.481c1.856-1.785 3.088-4.21 3.334-6.919h2.432 1l2 4h8.236l-2.5-5 2.5-5h-8.236l-2 4h-1-2.432c-.508-5.598-5.222-10-10.95-10-2.679 0-5.134.965-7.044 2.562-.215-1.446-1.452-2.562-2.956-2.562h-12c-1.302 0-2.402.839-2.816 2h-7.184c-2.757 0-5 2.243-5 5v50c0 2.757 2.243 5 5 5h32c2.757 0 5-2.243 5-5v-3h15c2.757 0 5-2.243 5-5s-2.243-5-5-5zm3-13c0 3.859-3.141 7-7 7s-7-3.141-7-7c0-3.86 3.141-7 7-7s7 3.14 7 7zm-5.382-17-1-2h2.382 1.382l1 2zm0-6h3.764l-1 2h-1.382-2.382zm-42.434 0c.414 1.161 1.514 2 2.816 2h11.051c-.03.33-.051.662-.051 1 0 3.203 1.385 6.082 3.577 8.094l-1.525 2.001c-2.034-1.32-4.452-2.095-7.052-2.095-7.168 0-13 5.832-13 13s5.832 13 13 13 13-5.832 13-13c0-3.851-1.693-7.306-4.362-9.688l1.527-2.004c1.427.898 3.069 1.481 4.835 1.641v22.051h-5.182l-7.233 2.713c-.948.356-1.585 1.275-1.585 2.287s.637 1.931 1.585 2.288l7.233 2.712h5.182v2h-30v-48zm13.816 29h-2v-8h2zm-4 0h-2v-6-4h2zm-4 0h-2v-4h2zm11.479 2c-2.019 2.441-5.07 4-8.479 4s-6.459-1.559-8.479-4zm1.307-2h-2.786v-10h-4v-2h-6v6h-4v6h-2.786c-.77-1.502-1.214-3.199-1.214-5 0-6.065 4.935-11 11-11s11 4.935 11 11c0 1.801-.444 3.498-1.214 5zm-6.498 12.416c-.172-.065-.288-.232-.288-.416s.116-.351.288-.415l5.712-2.142v5.114zm7.712 2.584v-2h20v2zm20-4h-20v-2h20zm-12-4h-2v-22.051c.688-.062 1.355-.192 2-.376zm-3-42c4.625 0 8.442 3.507 8.941 8h-4.042c-.465-2.279-2.485-4-4.899-4-2.757 0-5 2.243-5 5s2.243 5 5 5c2.414 0 4.434-1.721 4.899-4h4.042c-.499 4.493-4.316 8-8.941 8-4.963 0-9-4.038-9-9s4.037-9 9-9zm2.816 10c-.414 1.161-1.514 2-2.816 2-1.654 0-3-1.346-3-3s1.346-3 3-3c1.302 0 2.402.839 2.816 2h-3.816v2zm-25.816-9c0-.551.448-1 1-1h12c.552 0 1 .449 1 1v1.695c-.698.993-1.232 2.105-1.572 3.3l-11.428.005c-.552 0-1-.449-1-1zm26 54c0 1.654-1.346 3-3 3h-32c-1.654 0-3-1.346-3-3v-50c0-1.654 1.346-3 3-3h7v2h-6c-1.103 0-2 .897-2 2v48c0 1.103.897 2 2 2h30c1.103 0 2-.897 2-2v-2h2zm17-5h-3v-6h3c1.654 0 3 1.346 3 3s-1.346 3-3 3z"/><path data-cppathid="10019" d="m49 34.382c0 1.443 1.175 2.618 2.618 2.618.404 0 .81-.096 1.171-.276l4.765-2.382c.891-.447 1.446-1.345 1.446-2.342 0-.998-.555-1.896-1.447-2.342l-4.764-2.382c-.361-.18-.767-.276-1.171-.276-1.443 0-2.618 1.174-2.618 2.618zm2-4.764c0-.341.277-.618.618-.618.096 0 .191.022.276.065l4.764 2.382c.211.106.342.317.342.553 0 .235-.131.447-.342.553l-4.764 2.382c-.386.198-.894-.117-.894-.553z"/><path data-cppathid="10020" d="m9 49h12v2h-12z"/><path data-cppathid="10021" d="m9 53h12v2h-12z"/><path data-cppathid="10022" d="m9 13h2v2h-2z"/><path data-cppathid="10023" d="m13 13h12v2h-12z"/><path data-cppathid="10024" d="m9 17h2v2h-2z"/><path data-cppathid="10025" d="m13 17h12v2h-12z"/></g></g></svg>