<?xml version="1.0" encoding="UTF-8"?>
<svg xmlns="http://www.w3.org/2000/svg" onmouseup="{ if(window.parent.document.onmouseup) window.parent.document.onmouseup(arguments[0]);}" data-name="Layer 3" width="512" viewBox="0 0 64 64" height="512" id="Layer_3"><circle data-cppathid="10000" r="10" fill="#3b5892" cy="12" cx="15"/><path data-cppathid="10001" fill="#4c6cb5" d="m20.74 3.819a9.993 9.993 0 0 0 -14.471 13.049 20.762 20.762 0 0 0 14.471-13.049z"/><path data-cppathid="10002" fill="#f0ae42" d="m24.646 9.352a10.014 10.014 0 0 1 -7.6 12.439q-.046.599-.046 1.209a15.994 15.994 0 1 0 7.645-13.648z"/><path data-cppathid="10003" fill="#f9d266" d="m24.734 14.3a10.007 10.007 0 0 1 -3.248 5.31 12.01 12.01 0 1 0 3.247-5.31z"/><path data-cppathid="10004" fill="#939393" d="m48.719 20h9.281v-4h-10.609a15.873 15.873 0 0 1 1.328 4z"/><path data-cppathid="10005" fill="#b5b5b5" d="m38 50v-11.8a16.023 16.023 0 0 0 10.719-18.2h7.281v30z"/><path data-cppathid="10006" fill="#fbe1ca" d="m34 50h24a4 4 0 0 1 4 4v1l-32 7-6-4h-8v-16h12l5.519 6.438a2 2 0 0 1 .481 1.302z"/><path data-cppathid="10007" fill="#3b5892" d="m2 40h8v22h-8z"/><path data-cppathid="10008" fill="#b5b5b5" d="m10 40h6v20h-6z"/><path data-cppathid="10009" fill="#f2b9a1" d="m31 54h-1.171a2.978 2.978 0 0 1 -2.122-.879l-4.414-4.414 1.414-1.414 4.414 4.414a1 1 0 0 0 .708.293h1.171a1 1 0 0 0 1-1v-1h2v1a3 3 0 0 1 -3 3z"/><path data-cppathid="10010" fill="#f4a93c" d="m34 22v-6a3 3 0 0 1 3 3h2a5.006 5.006 0 0 0 -5-5v-1h-2v1a5 5 0 0 0 0 10v6a3 3 0 0 1 -3-3h-2a5.006 5.006 0 0 0 5 5v1h2v-1a5 5 0 0 0 0-10zm-5-3a3 3 0 0 1 3-3v6a3 3 0 0 1 -3-3zm5 11v-6a3 3 0 0 1 0 6z"/><path data-cppathid="10011" fill="#e2e7f6" d="m21 10h-4v-4h-4v4h-4v4h4v4h4v-4h4z"/><g fill="#ccc"><path data-cppathid="10012" d="m51 23h2v2h-2z"/><path data-cppathid="10013" d="m51 27h2v2h-2z"/><path data-cppathid="10014" d="m51 31h2v2h-2z"/><path data-cppathid="10015" d="m51 35h2v2h-2z"/><path data-cppathid="10016" d="m47 35h2v2h-2z"/><path data-cppathid="10017" d="m51 39h2v2h-2z"/><path data-cppathid="10018" d="m47 39h2v2h-2z"/><path data-cppathid="10019" d="m43 39h2v2h-2z"/><path data-cppathid="10020" d="m44 50v-6h6v6"/></g><path data-cppathid="10021" fill="#f2f2f2" d="m17 10v-4h-4v4h-4v4h3.787a20.884 20.884 0 0 0 4.432-4z"/><path data-cppathid="10022" d="m58 49h-1v-28h1a1 1 0 0 0 1-1v-4a1 1 0 0 0 -1-1h-10.008a16.994 16.994 0 0 0 -22.792-7.1 11 11 0 1 0 -10.2 15.1c.338 0 .671-.021 1-.051v.051a16.935 16.935 0 0 0 21 16.505v9.495h-2.1a3.006 3.006 0 0 0 -.618-1.212l-5.523-6.438a1 1 0 0 0 -.759-.35h-11v-1a1 1 0 0 0 -1-1h-14a1 1 0 0 0 -1 1v22a1 1 0 0 0 1 1h8a1 1 0 0 0 1-1v-1h5a1 1 0 0 0 1-1v-1h6.7l5.748 3.832a1 1 0 0 0 .552.168 1.038 1.038 0 0 0 .214-.023l32-7a1 1 0 0 0 .786-.977v-1a5.006 5.006 0 0 0 -5-5zm-49 12h-6v-20h6zm6-2h-4v-18h4zm42-42v2h-7.495a16.854 16.854 0 0 0 -.619-2zm-34.6 3.119a11 11 0 0 0 3.212-5.254 11.109 11.109 0 1 1 -3.212 5.254zm-16.4-8.119a9 9 0 1 1 9 9 9.01 9.01 0 0 1 -9-9zm12 11c0-.145.012-.287.016-.431a10.9 10.9 0 0 0 2.051-.815c-.04.413-.067.828-.067 1.246a12.994 12.994 0 1 0 6-10.956c0-.015 0-.029 0-.044a10.991 10.991 0 0 0 -.214-2.146 15 15 0 1 1 -7.786 13.146zm21 15.886a16.863 16.863 0 0 0 10.872-17.886h5.128v28h-4v-5a1 1 0 0 0 -1-1h-6a1 1 0 0 0 -1 1v5h-4zm10 10.114h-4v-4h4zm12 5.2-30.8 6.733-5.646-3.765a1.006 1.006 0 0 0 -.554-.168h-7v-14h10.54l5.219 6.089a1 1 0 0 1 .241.651v1.26a1 1 0 0 1 -1 1h-1.171a1 1 0 0 1 -.708-.293l-4.414-4.414-1.414 1.414 4.414 4.414a2.978 2.978 0 0 0 2.122.879h1.171a3 3 0 0 0 3-3h23a3 3 0 0 1 3 3z"/><path data-cppathid="10023" d="m29 27h-2a5.006 5.006 0 0 0 5 5v1h2v-1a5 5 0 0 0 0-10v-6a3 3 0 0 1 3 3h2a5.006 5.006 0 0 0 -5-5v-1h-2v1a5 5 0 0 0 0 10v6a3 3 0 0 1 -3-3zm0-8a3 3 0 0 1 3-3v6a3 3 0 0 1 -3-3zm5 5a3 3 0 0 1 0 6z"/><path data-cppathid="10024" d="m22 14v-4a1 1 0 0 0 -1-1h-3v-3a1 1 0 0 0 -1-1h-4a1 1 0 0 0 -1 1v3h-3a1 1 0 0 0 -1 1v4a1 1 0 0 0 1 1h3v3a1 1 0 0 0 1 1h4a1 1 0 0 0 1-1v-3h3a1 1 0 0 0 1-1zm-2-1h-3a1 1 0 0 0 -1 1v3h-2v-3a1 1 0 0 0 -1-1h-3v-2h3a1 1 0 0 0 1-1v-3h2v3a1 1 0 0 0 1 1h3z"/><path data-cppathid="10025" d="m51 23h2v2h-2z"/><path data-cppathid="10026" d="m51 27h2v2h-2z"/><path data-cppathid="10027" d="m51 31h2v2h-2z"/><path data-cppathid="10028" d="m51 35h2v2h-2z"/><path data-cppathid="10029" d="m47 35h2v2h-2z"/><path data-cppathid="10030" d="m51 39h2v2h-2z"/><path data-cppathid="10031" d="m47 39h2v2h-2z"/><path data-cppathid="10032" d="m43 39h2v2h-2z"/></svg>