<?xml version="1.0" encoding="UTF-8"?>
<svg xmlns="http://www.w3.org/2000/svg" onmouseup="{ if(window.parent.document.onmouseup) window.parent.document.onmouseup(arguments[0]);}" width="512" viewBox="0 0 415.1886 383.158" height="512"><g data-name="Layer 2" id="Layer_2"><g data-name="Layer 1" id="Layer_1-2"><path data-cppathid="10000" fill="#f1f2f2" d="m306.4216 0a17.8464 17.8464 0 0 0 -17.8483 17.8483v170.6745a17.8262 17.8262 0 0 1 -17.8262 17.8263h-147.9585v-188.5008a17.8464 17.8464 0 0 1 17.8483-17.8483z"/><path data-cppathid="10001" fill="#d1d3d4" d="m260.3547 159.5413v46.8078h-35.6966v-46.8078a17.8483 17.8483 0 1 1 35.6966 0z"/><path data-cppathid="10002" fill="#d1d3d4" d="m324.27 17.8483v46.8078h-35.6967v-46.8078a17.8483 17.8483 0 1 1 35.6966 0z"/><path data-cppathid="10003" fill="#edf3f3" d="m242.5064 141.693a17.8464 17.8464 0 0 0 -17.8483 17.8483v170.6745a17.8263 17.8263 0 0 1 -17.8263 17.8262h-147.9584v-188.5007a17.8464 17.8464 0 0 1 17.8483-17.8483z"/><path data-cppathid="10004" fill="#d1d3d4" d="m205.681 347.9716v.07h-147.9364a17.8236 17.8236 0 0 1 -17.8483-17.8483v-8.3244h149.0652v8.3244a17.75 17.75 0 0 0 5.22 12.6279 17.5615 17.5615 0 0 0 11.4995 5.1504z"/><g fill="#edf3f3"><path data-cppathid="10005" d="m136.069 263.345h72.808v3.832h-72.808z"/><path data-cppathid="10006" d="m136.069 272.771h72.808v3.832h-72.808z"/><path data-cppathid="10007" d="m136.069 282.196h72.808v3.832h-72.808z"/><path data-cppathid="10008" d="m136.069 291.621h72.808v3.832h-72.808z"/><path data-cppathid="10009" d="m136.069 301.047h72.808v3.832h-72.808z"/><path data-cppathid="10010" d="m74.618 213.106h131.064v3.832h-131.064z"/><path data-cppathid="10011" d="m74.618 222.532h131.064v3.832h-131.064z"/><path data-cppathid="10012" d="m74.618 231.957h131.064v3.832h-131.064z"/><path data-cppathid="10013" d="m74.618 241.382h131.064v3.832h-131.064z"/><path data-cppathid="10014" d="m74.618 250.808h131.064v3.832h-131.064z"/><path data-cppathid="10015" d="m177.432 158.186h29.984v3.832h-29.984z"/><path data-cppathid="10016" d="m177.432 167.612h29.984v3.832h-29.984z"/><path data-cppathid="10017" d="m177.432 177.037h29.984v3.832h-29.984z"/><path data-cppathid="10018" d="m177.432 186.462h29.984v3.832h-29.984z"/><path data-cppathid="10019" d="m177.432 195.888h29.984v3.832h-29.984z"/></g><path data-cppathid="10020" fill="#e3a72f" d="m254.609 117.645h18.202v8.782h-18.202z"/><path data-cppathid="10021" fill="#e3a72f" d="m254.609 100.934h18.202v8.782h-18.202z"/><path data-cppathid="10022" fill="#e3a72f" d="m254.609 84.223h18.202v8.782h-18.202z"/><path data-cppathid="10023" fill="#d1d3d4" d="m138.551 84.223h109.112v3.832h-109.112z"/><path data-cppathid="10024" fill="#d1d3d4" d="m138.551 93.648h109.112v3.832h-109.112z"/><path data-cppathid="10025" fill="#d1d3d4" d="m138.551 103.073h109.112v3.832h-109.112z"/><path data-cppathid="10026" fill="#d1d3d4" d="m138.551 112.499h109.112v3.832h-109.112z"/><path data-cppathid="10027" fill="#d1d3d4" d="m138.551 121.924h109.112v3.832h-109.112z"/><path data-cppathid="10028" fill="#d1d3d4" d="m175.414 39.172h97.397v3.832h-97.397z"/><path data-cppathid="10029" fill="#d1d3d4" d="m175.414 48.598h97.397v3.832h-97.397z"/><path data-cppathid="10030" fill="#d1d3d4" d="m175.414 58.023h97.397v3.832h-97.397z"/><path data-cppathid="10031" fill="#d1d3d4" d="m175.414 67.449h97.397v3.832h-97.397z"/><path data-cppathid="10032" fill="#7dd0de" d="m138.551 35.34h29.844v35.592h-29.844z"/><path data-cppathid="10033" fill="#d54b1a" d="m82.21 155.2277h77.1382a5.02 5.02 0 0 1 5.02 5.02v36.174a5.02 5.02 0 0 1 -5.02 5.02h-77.1382a5.02 5.02 0 0 1 -5.02-5.02v-36.1741a5.02 5.02 0 0 1 5.02-5.0199z"/><path data-cppathid="10034" fill="#edf3f3" d="m143.0192 180.7735-17.9192 10.8857a2.863 2.863 0 0 1 -4.3381-2.4518v-21.7451a2.863 2.863 0 0 1 4.3381-2.4518l17.9188 10.8857a2.8509 2.8509 0 0 1 .0004 4.8773z"/><path data-cppathid="10035" fill="#edf3f3" d="m123.9727 180.7735-17.9188 10.8857a2.8631 2.8631 0 0 1 -4.3382-2.4518v-21.7451a2.8631 2.8631 0 0 1 4.3382-2.4518l17.9188 10.8857a2.8509 2.8509 0 0 1 0 4.8773z"/><path data-cppathid="10036" fill="#7bd1df" d="m74.618 263.345h50.729v41.534h-50.729z"/><circle data-cppathid="10037" r="32.314" fill="#d54b1a" cy="269.331" cx="336.587"/><path data-cppathid="10038" fill="#7bd1df" d="m207.343 229.675h102.319v79.312h-102.319z"/><path data-cppathid="10039" fill="#e3a72f" d="m207.33 229.6747v79.3119h-11.4859a39.656 39.656 0 1 1 0-79.3119z"/><path data-cppathid="10040" fill="#7bd1df" d="m339.524 338.729-102.319-29.742v-79.312l102.319-29.742z"/><path data-cppathid="10041" fill="#e3a72f" d="m339.525 347.5411a8.812 8.812 0 0 1 -8.8124-8.8125v-138.7959a8.8125 8.8125 0 1 1 17.6249 0v138.7959a8.812 8.812 0 0 1 -8.8125 8.8125z"/><path data-cppathid="10042" fill="#e3a72f" d="m237.2037 308.9866v59.249a14.9371 14.9371 0 0 1 -29.8741 0v-59.249z"/><path data-cppathid="10043" fill="#243239" d="m407.2388 272.8284h-20.4061a4.599 4.599 0 0 1 0-9.1979h20.4061a4.599 4.599 0 0 1 0 9.1979z"/><path data-cppathid="10044" fill="#243239" d="m380.8183 254.3842a4.599 4.599 0 0 1 -3.2519-7.85l14.4294-14.4294a4.5984 4.5984 0 1 1 6.5038 6.5023l-14.4296 14.4293a4.5819 4.5819 0 0 1 -3.2517 1.3478z"/><path data-cppathid="10045" fill="#243239" d="m395.2477 305.7007a4.5819 4.5819 0 0 1 -3.2519-1.3478l-14.4294-14.4294a4.5984 4.5984 0 0 1 6.5038-6.5024l14.4298 14.4295a4.599 4.599 0 0 1 -3.2519 7.85z"/><path data-cppathid="10046" fill="#d54b1a" d="m394.4121 223.4936a4.5984 4.5984 0 0 1 -4.5982-4.5989 80.7175 80.7175 0 0 0 -80.6157-80.637 4.599 4.599 0 0 1 0-9.1979 89.9248 89.9248 0 0 1 89.8118 89.8349 4.5984 4.5984 0 0 1 -4.5979 4.5989z"/><path data-cppathid="10047" fill="#d54b1a" d="m378.8137 223.4936a4.5984 4.5984 0 0 1 -4.5982-4.5989 65.1009 65.1009 0 0 0 -65.0173-65.0379 4.599 4.599 0 0 1 0-9.1979 74.3089 74.3089 0 0 1 74.2137 74.2358 4.5984 4.5984 0 0 1 -4.5982 4.5989z"/><path data-cppathid="10048" fill="#d54b1a" d="m410.59 223.4936a4.5984 4.5984 0 0 1 -4.5983-4.5989 96.9028 96.9028 0 0 0 -96.7939-96.7932 4.599 4.599 0 0 1 0-9.1979 106.111 106.111 0 0 1 105.99 105.9911 4.5984 4.5984 0 0 1 -4.5978 4.5989z"/><path data-cppathid="10049" fill="#d54b1a" d="m378.8137 223.4936a4.5984 4.5984 0 0 1 -4.5982-4.5989 65.1009 65.1009 0 0 0 -65.0173-65.0379 4.599 4.599 0 0 1 0-9.1979 74.3089 74.3089 0 0 1 74.2137 74.2358 4.5984 4.5984 0 0 1 -4.5982 4.5989z"/><path data-cppathid="10050" fill="#e3a72f" d="m130.753 53.7792v67.1656a10.7914 10.7914 0 0 1 -10.7748 10.7752h-3.5782v18.954l-18.9547-18.954h-86.67a10.7914 10.7914 0 0 1 -10.7753-10.7752v-67.1656a10.7912 10.7912 0 0 1 10.7748-10.7747h109.2034a10.7912 10.7912 0 0 1 10.7748 10.7747z"/><path data-cppathid="10051" fill="#edf3f3" d="m14.902 60.761h100.949v6.535h-100.949z"/><path data-cppathid="10052" fill="#edf3f3" d="m14.902 76.309h100.949v6.535h-100.949z"/><path data-cppathid="10053" fill="#edf3f3" d="m14.902 91.857h100.949v6.535h-100.949z"/><path data-cppathid="10054" fill="#edf3f3" d="m14.902 107.405h100.949v6.535h-100.949z"/></g></g></svg>