<?xml version="1.0" encoding="UTF-8"?>
<svg xmlns="http://www.w3.org/2000/svg" onmouseup="{ if(window.parent.document.onmouseup) window.parent.document.onmouseup(arguments[0]);}" height="512" width="512" xml:space="preserve" style="enable-background:new 0 0 64 64;" viewBox="0 0 64 64" y="0px" x="0px" id="Layer_2" version="1.1" xmlns:xlink="http://www.w3.org/1999/xlink"><style type="text/css">
	.st0{fill:#EDEFF1;}
	.st1{fill:#D3D3D3;}
	.st2{fill:#98CA69;}
	.st3{fill:#80D6FB;}
	.st4{fill:#FFB0AA;}
	.st5{fill:#FFE352;}
	.st6{fill:#6E83B7;}
	.st7{fill:#466089;}
	.st8{fill:#FFD3B3;}
	.st9{fill:#FCB98B;}
	.st10{fill:#FFB236;}
	.st11{fill:#46BEE8;}
	.st12{fill:#E0E2FF;}
	.st13{fill:#8FA5D1;}
	.st14{fill:#75AA40;}
</style><g><g><polygon data-cppathid="10000" points="5,34.31 11,30.84 11,51 5,51   " class="st6"/></g><g><polygon data-cppathid="10001" points="24.29,23.15 27,23.87 27,51 21,51 21,25.05   " class="st6"/></g><g><polygon data-cppathid="10002" points="39.26,27.14 43,25.08 43,51 37,51 37,26.54   " class="st6"/></g><g><polygon data-cppathid="10003" points="53,19.58 59,16.28 59,51 53,51   " class="st6"/></g><g><polygon data-cppathid="10004" points="39,21 24,17 5,28 5,32 24,21 39,25 59,14 59,10   " class="st2"/></g><g><g><polygon data-cppathid="10005" points="59,36 44.976,36 26.976,11 5,11 5,7 29.024,7 47.024,32 59,32    " class="st4"/></g></g><g><rect data-cppathid="10006" height="4" width="60" class="st6" y="53" x="2"/></g></g></svg>