<?xml version="1.0" encoding="UTF-8"?>
<svg xmlns="http://www.w3.org/2000/svg" onmouseup="{ if(window.parent.document.onmouseup) window.parent.document.onmouseup(arguments[0]);}" width="512" viewBox="0 0 62 62" height="512" enable-background="new 0 0 62 62" id="Layer_5"><g><g><g><path data-cppathid="10000" fill="#ccd1d9" d="m45 17v4h-40v-4c0-1.1.9-2 2-2h36c1.1 0 2 .9 2 2z"/></g><g><path data-cppathid="10001" fill="#ccd1d9" d="m45 25v8c-1.24 0-2.38.66-3.01 1.73l-3.66 6.27h-31.33c-1.1 0-2-.9-2-2v-14z"/></g><g><path data-cppathid="10002" fill="#b4dd7f" d="m29 33h6v4h-6z"/></g><g><path data-cppathid="10003" fill="#b4dd7f" d="m19 33h6v4h-6z"/></g><g><path data-cppathid="10004" fill="#b4dd7f" d="m9 33h6v4h-6z"/></g><g><path data-cppathid="10005" fill="#fcd770" d="m5 21h40v4h-40z"/></g><g><path data-cppathid="10006" fill="#969faa" d="m60.57 56.26c.28.49.43 1.03.43 1.59 0 1.74-1.41 3.15-3.15 3.15h-25.7c-.87 0-1.66-.35-2.23-.92-.54-.54-.88-1.27-.91-2.08-.01-.05-.01-.1-.01-.15 0-.56.15-1.1.43-1.59l1.19-2.04 7.71-13.22 3.66-6.27c.63-1.07 1.77-1.73 3.01-1.73s2.38.66 3.01 1.73z"/></g><g><circle data-cppathid="10007" r="2" fill="#ff826e" cy="55" cx="45"/></g><g><path data-cppathid="10008" fill="#ff826e" d="m47 41v6c0 1.1-.9 2-2 2s-2-.9-2-2v-6c0-1.1.9-2 2-2 .55 0 1.05.22 1.41.59.37.36.59.86.59 1.41z"/></g><g><path data-cppathid="10009" fill="#ffeaa7" d="m9 54h21.24l.38.22-1.19 2.04c-.28.49-.43 1.03-.43 1.59 0 .05 0 .1.01.15h-.01-20v3l-8-5 8-5z"/></g><g><path data-cppathid="10010" fill="#ffeaa7" d="m61 6-8 5v-3h-24v-4h24v-3z"/></g></g><g><path data-cppathid="10011" d="m52 11c0 .363.197.698.516.875.15.083.317.125.484.125.185 0 .368-.051.53-.152l8-5c.292-.183.47-.503.47-.848s-.178-.665-.47-.848l-8-5c-.309-.194-.698-.202-1.015-.027-.318.177-.515.512-.515.875v2h-23v2h24c.553 0 1-.447 1-1v-1.195l5.113 3.195-5.113 3.195v-1.195c0-.553-.447-1-1-1h-24v2h23z"/><path data-cppathid="10012" d="m25 7h2v2h-2z"/><path data-cppathid="10013" d="m21 7h2v2h-2z"/><path data-cppathid="10014" d="m17 7h2v2h-2z"/><path data-cppathid="10015" d="m45 52c-1.654 0-3 1.346-3 3s1.346 3 3 3 3-1.346 3-3-1.346-3-3-3zm0 4c-.552 0-1-.448-1-1s.448-1 1-1 1 .448 1 1-.448 1-1 1z"/><path data-cppathid="10016" d="m48.871 34.224c-.628-1.078-1.68-1.827-2.871-2.102v-15.122c0-1.654-1.346-3-3-3h-36c-1.654 0-3 1.346-3 3v22c0 1.654 1.346 3 3 3h29.592l-6.417 11h-20.175v-2c0-.363-.197-.698-.516-.875-.316-.175-.706-.167-1.015.027l-8 5c-.291.183-.469.503-.469.848s.178.665.47.848l8 5c.162.101.345.152.53.152.167 0 .334-.042.484-.125.319-.177.516-.512.516-.875v-2h18.182c.502 1.727 2.08 3 3.966 3h25.703c2.288 0 4.149-1.861 4.149-4.148 0-.733-.195-1.456-.564-2.091zm-4.871-10.224h-38v-2h38zm-37-8h36c.552 0 1 .448 1 1v3h-38v-3c0-.552.448-1 1-1zm0 24c-.552 0-1-.448-1-1v-13h38v6.122c-1.191.275-2.243 1.024-2.871 2.102l-3.37 5.776zm2 17c-.553 0-1 .447-1 1v1.195l-5.113-3.195 5.113-3.195v1.195c0 .553.447 1 1 1h20.009l-.444.762c-.224.385-.376.805-.467 1.238zm48.852 3h-25.704c-1.184 0-2.148-.964-2.148-2.148 0-.38.102-.755.293-1.083l12.563-21.537h-.001c.444-.76 1.266-1.232 2.145-1.232s1.701.472 2.144 1.231l12.563 21.536c.191.33.293.705.293 1.085 0 1.184-.964 2.148-2.148 2.148z"/><path data-cppathid="10017" d="m8 38h8v-6h-8zm2-4h4v2h-4z"/><path data-cppathid="10018" d="m18 38h8v-6h-8zm2-4h4v2h-4z"/><path data-cppathid="10019" d="m28 38h8v-6h-8zm2-4h4v2h-4z"/><path data-cppathid="10020" d="m45 38c-1.654 0-3 1.346-3 3v6c0 1.654 1.346 3 3 3s3-1.346 3-3v-6c0-1.654-1.346-3-3-3zm1 9c0 .552-.448 1-1 1s-1-.448-1-1v-6c0-.552.448-1 1-1s1 .448 1 1z"/></g></g></svg>