<?xml version="1.0" encoding="UTF-8"?>
<svg xmlns="http://www.w3.org/2000/svg" onmouseup="{ if(window.parent.document.onmouseup) window.parent.document.onmouseup(arguments[0]);}" width="512" viewBox="0 0 512 512" height="512"><g id="FILLED_OUTLINE"><rect data-cppathid="10000" y="72" x="24" width="464" rx="16" height="368" fill="#bebebe"/><path data-cppathid="10001" fill="#dfdfdf" d="m56 104h400v304h-400z"/><path data-cppathid="10002" fill="#f4c44d" d="m337.46082 143.76807-67.74082-112.90161a16.00014 16.00014 0 0 0 -27.43994 0l-67.74088 112.90161a16 16 0 0 0 13.71982 24.23193h135.482a16 16 0 0 0 13.71982-24.23193z"/><path data-cppathid="10003" fill="#f4f4f4" d="m248 56h16v56h-16z"/><path data-cppathid="10004" fill="#f4f4f4" d="m248 128h16v16h-16z"/><path data-cppathid="10005" fill="#006cda" d="m408 368v-88h-40v88h-48v-120h-40v120h-48v-152h-40v152h-48v-216h-40v216h-24v16h352v-16z"/><path data-cppathid="10006" fill="#edad2e" d="m397.65674 202.34277-11.31348 11.31446 9.76013 9.75976a348.405 348.405 0 0 1 -136.493-36.71972l-7.22168 14.27734a364.477 364.477 0 0 0 144.80322 38.51977l-10.84863 10.84839 11.31348 11.31446 29.6567-29.65723z"/><path data-cppathid="10007" d="m472 64h-173.07056l-22.34985-37.25a24.00035 24.00035 0 0 0 -41.15918 0l-22.34985 37.25h-173.07056a24.0275 24.0275 0 0 0 -24 24v336a24.0275 24.0275 0 0 0 24 24h432a24.0275 24.0275 0 0 0 24-24v-336a24.0275 24.0275 0 0 0 -24-24zm-222.85986-29.01758a8.00011 8.00011 0 0 1 13.71972 0l67.74121 112.90235a7.99979 7.99979 0 0 1 -6.86035 12.11523h-135.48144a7.99979 7.99979 0 0 1 -6.86035-12.11523zm-81.76614 128.84278a23.73143 23.73143 0 0 0 20.88528 12.1748h135.48144a23.99949 23.99949 0 0 0 20.58008-36.34766l-16.59131-27.65234h120.27051v288h-384v-288h120.27051l-16.59131 27.65234a23.73045 23.73045 0 0 0 -.3052 24.17286zm312.626 260.1748a8.00917 8.00917 0 0 1 -8 8h-432a8.00917 8.00917 0 0 1 -8-8v-336a8.00917 8.00917 0 0 1 8-8h163.47046l-9.59985 16h-145.87061v320h416v-320h-145.87061l-9.59985-16h163.47046a8.00917 8.00917 0 0 1 8 8z"/><path data-cppathid="10008" d="m248 56h16v56h-16z"/><path data-cppathid="10009" d="m248 128h16v16h-16z"/><path data-cppathid="10010" d="m152 144h-56v224h-16v16h352v-16h-16v-96h-56v96h-32v-128h-56v128h-32v-160h-56v160h-32zm-40 16h24v208h-24zm264 128h24v80h-24zm-88-32h24v112h-24zm-88-32h24v144h-24z"/><path data-cppathid="10011" d="m386.34326 250.34277 11.31348 11.31446 29.65674-29.65723-29.65674-29.65723-11.31348 11.31446 9.76013 9.75976a348.405 348.405 0 0 1 -136.493-36.71972l-7.22168 14.27734a364.477 364.477 0 0 0 144.80322 38.51977z"/></g></svg>