<?xml version="1.0" encoding="UTF-8"?>
<svg xmlns="http://www.w3.org/2000/svg" onmouseup="{ if(window.parent.document.onmouseup) window.parent.document.onmouseup(arguments[0]);}" width="512" viewBox="0 0 512 512" height="512" enable-background="new 0 0 512 512" id="Layer_1"><path data-cppathid="10000" d="m466.939 55.541h-33.387v-14.883c0-13.014-10.586-23.599-23.597-23.599h-18.536c-13.011 0-23.597 10.585-23.597 23.599v14.883h-82.761v-14.883c0-13.014-10.586-23.599-23.597-23.599h-18.536c-13.011 0-23.597 10.585-23.597 23.599v14.883h-82.761v-14.883c0-13.014-10.586-23.599-23.597-23.599h-18.536c-13.014 0-23.599 10.585-23.599 23.599v14.883h-25.775c-24.847 0-45.063 18.738-45.063 41.774v355.851c0 23.036 20.216 41.775 45.063 41.775h421.876c24.847 0 45.061-18.739 45.061-41.775v-355.851c0-23.036-20.214-41.774-45.061-41.774zm-85.279-14.883c0-5.383 4.378-9.761 9.759-9.761h18.536c5.381 0 9.759 4.378 9.759 9.761v53.748c0 5.378-4.378 9.757-9.759 9.757h-18.536c-5.381 0-9.759-4.378-9.759-9.757zm-148.491 0c0-5.383 4.378-9.761 9.759-9.761h18.536c5.381 0 9.759 4.378 9.759 9.761v53.748c0 5.378-4.378 9.757-9.759 9.757h-18.536c-5.381 0-9.759-4.378-9.759-9.757zm-148.493 0c0-5.383 4.378-9.761 9.761-9.761h18.536c5.381 0 9.759 4.378 9.759 9.761v53.748c0 5.378-4.378 9.757-9.759 9.757h-18.536c-5.383 0-9.761-4.378-9.761-9.757zm-39.613 28.72h25.775v25.027c0 13.009 10.586 23.595 23.599 23.595h18.536c13.011 0 23.597-10.585 23.597-23.595v-25.027h82.761v25.027c0 13.009 10.586 23.595 23.597 23.595h18.536c13.011 0 23.597-10.585 23.597-23.595v-25.027h82.761v25.027c0 13.009 10.586 23.595 23.597 23.595h18.536c13.011 0 23.597-10.585 23.597-23.595v-25.027h33.387c17.216 0 31.223 12.531 31.223 27.937v56.549h-484.324v-56.549c0-15.405 14.007-27.937 31.225-27.937zm421.876 411.726h-421.876c-17.218 0-31.225-12.531-31.225-27.937v-285.464h484.324v285.464c0 15.405-14.007 27.937-31.223 27.937zm-94.396-224.672c-4.574-7.243-10.041-12.464-16.248-15.504-11.804-5.788-25.487-5.892-37.394.013-6.162 3.05-11.577 8.275-16.095 15.527-4.277 6.869-7.559 15.716-10.032 27.041-2.387 10.928-3.597 24.685-3.597 40.896 0 16.212 1.209 29.969 3.597 40.892 2.473 11.333 5.757 20.176 10.032 27.041 4.493 7.212 9.908 12.423 16.095 15.478 5.971 2.959 12.223 4.459 18.583 4.459 6.466 0 12.795-1.496 18.806-4.442 6.237-3.054 11.703-8.252 16.25-15.459 4.336-6.86 7.671-15.712 10.2-27.045 2.426-10.865 3.655-24.631 3.655-40.924 0-16.288-1.23-30.059-3.655-40.928-2.528-11.328-5.864-20.175-10.197-27.045zm-3.306 105.883c-2.146 9.622-4.971 17.252-8.396 22.671-3.158 5.005-6.734 8.509-10.635 10.419-8.205 4.018-16.833 4.14-25.169.009-3.847-1.901-7.374-5.396-10.484-10.392-3.378-5.423-6.158-13.054-8.259-22.68-2.176-9.95-3.277-22.716-3.277-37.937s1.104-27.986 3.277-37.941c2.101-9.622 4.881-17.252 8.261-22.68 3.135-5.036 6.664-8.55 10.486-10.446 4.036-1.996 8.106-2.969 12.444-2.969 4.464 0 8.626.977 12.721 2.982 3.872 1.901 7.45 5.419 10.635 10.469 3.423 5.423 6.25 13.054 8.396 22.676 2.205 9.878 3.322 22.63 3.322 37.91s-1.118 28.031-3.322 37.909zm31.243-126.928c-7.905-10.063-17.39-17.662-28.185-22.586-10.673-4.874-22.385-7.347-34.811-7.347-12.401 0-24.054 2.477-34.631 7.356-10.725 4.946-20.137 12.545-27.977 22.594-7.685 9.847-13.748 22.365-18.02 37.207-4.205 14.608-6.336 32.036-6.336 51.793 0 19.64 2.131 37.027 6.333 51.68 4.277 14.915 10.34 27.473 18.023 37.32 7.802 9.996 17.214 17.577 27.975 22.541 10.651 4.915 22.304 7.406 34.633 7.406 12.354 0 24.065-2.487 34.809-7.396 10.836-4.942 20.32-12.523 28.189-22.532 7.736-9.851 13.854-22.405 18.18-37.315 4.241-14.604 6.392-32 6.392-51.703 0-19.824-2.151-37.257-6.394-51.815-4.322-14.838-10.439-27.356-18.18-37.203zm4.894 136.865c-3.831 13.198-9.14 24.176-15.773 32.622-6.489 8.252-14.246 14.478-23.054 18.496-8.928 4.076-18.707 6.144-29.063 6.144-10.313 0-20.016-2.063-28.838-6.135-8.739-4.027-16.43-10.248-22.86-18.487-6.586-8.441-11.845-19.414-15.631-32.617-3.847-13.419-5.797-29.523-5.797-47.87 0-18.464 1.95-34.599 5.795-47.964 3.782-13.135 9.041-24.077 15.633-32.522 6.469-8.293 14.16-14.531 22.863-18.541 8.75-4.041 18.451-6.086 28.836-6.086 10.428 0 20.207 2.05 29.065 6.095 8.768 4 16.523 10.243 23.052 18.55 6.64 8.45 11.948 19.392 15.775 32.527 3.876 13.297 5.84 29.428 5.84 47.941-.001 18.397-1.967 34.496-5.843 47.847zm-206.96-164.675h-40.237l-73.682 62.653s15.429 21.162 15.432 21.167c3.055 4.19 8 6.814 13.152 7.307 5.227.5 10.235-1.271 14.332-4.464l19.718-16.5v.428 120.878h-44.417v41.883h135.115v-41.883h-39.414v-191.469zm25.577 205.306v14.207h-107.439v-14.207h44.417v-134.716c0-4.91.149-10.031.444-15.225l.905-15.95s-43.59 36.478-43.59 36.478c-1.153.899-2.454 1.511-3.944 1.476-1.129-.027-2.835-.452-3.501-1.459l-8.043-11.031 60.025-51.041h21.313v191.468z"/></svg>