<?xml version="1.0" encoding="UTF-8"?>
<svg xmlns="http://www.w3.org/2000/svg" onmouseup="{ if(window.parent.document.onmouseup) window.parent.document.onmouseup(arguments[0]);}" width="512" viewBox="0 0 256 256" height="512"><circle data-cppathid="10000" r="12.5" fill="#f87023" cy="93.096" cx="31.726"/><circle data-cppathid="10001" r="12.5" fill="#f8af23" cy="93.096" cx="120.02"/><path data-cppathid="10002" fill="#63bce7" d="m143.56 226.726h-133.187v-18.056a53.944 53.944 0 0 1 53.944-53.944h23.112a53.944 53.944 0 0 1 53.944 53.944z"/><path data-cppathid="10003" fill="#6377e7" d="m82.817 154.726h-18.5a53.944 53.944 0 0 0 -53.944 53.944v18.056h18.5v-18.056a53.944 53.944 0 0 1 53.944-53.944z"/><rect data-cppathid="10004" y="118.723" x="62.373" width="27" rx="13.5" height="53.419" fill="#f8af23"/><path data-cppathid="10005" fill="#f87023" d="m62.373 132.223v26.419a13.554 13.554 0 0 0 11.686 13.378v-53.174a13.554 13.554 0 0 0 -11.686 13.377z"/><rect data-cppathid="10006" y="35.743" x="31.726" width="88.294" rx="44.147" height="110.075" fill="#f8af23"/><path data-cppathid="10007" fill="#f87023" d="m50.226 101.671v-21.781a44.314 44.314 0 0 1 34.9-43.157 43.876 43.876 0 0 0 -9.25-.99 44.277 44.277 0 0 0 -44.15 44.147v21.781a44.277 44.277 0 0 0 44.147 44.147 43.876 43.876 0 0 0 9.25-.99 44.314 44.314 0 0 1 -34.897-43.157z"/><path data-cppathid="10008" fill="#f46275" d="m62.373 154.76 13.5 17.591-14.625 7.875-5.918-24.755 7.043-7.995z"/><path data-cppathid="10009" fill="#f46275" d="m89.373 154.76-13.5 17.591 14.625 7.875 5.918-24.755-7.043-7.995z"/><path data-cppathid="10010" fill="#9e9e9e" d="m112.677 31.958a22.328 22.328 0 0 0 -17.4 8.312 43.732 43.732 0 0 0 -19.4-4.528 44.277 44.277 0 0 0 -44.151 44.148v9.78h7.274v-5.9s14.72-3.713 14.859-19.963c0 0 18.732 16.629 52.487 11.988a22.375 22.375 0 1 0 6.331-43.836z"/><path data-cppathid="10011" fill="#707070" d="m85.1 36.739a43.768 43.768 0 0 0 -9.226-1 44.277 44.277 0 0 0 -44.148 44.151v9.78h7.274v-5.9a21.634 21.634 0 0 0 11.45-8.284 44.36 44.36 0 0 1 34.65-38.747z"/><path data-cppathid="10012" fill="#63bce7" d="m150.907 141.531 26.356 9.454-27.169 75.741h-14.915c-6.318-2.266-9.6-14.576-7.336-20.894z"/><path data-cppathid="10013" fill="#63e2e7" d="m177.263 150.985-16.391-5.88-29.277 81.621h18.5z"/><path data-cppathid="10014" transform="matrix(-.941 -.338 .338 -.941 265.137 346.397)" fill="#f46275" d="m148.692 146.016h28v8.252h-28z"/><path data-cppathid="10015" transform="matrix(.338 -.941 .941 .338 -31.946 258.46)" fill="#f48875" d="m163.549 143.222h8.252v17.414h-8.252z"/><path data-cppathid="10016" fill="#f8af23" d="m173.627 149.68 19.275-7.5a2.62 2.62 0 0 0 1.67-2.442v-1.953a2.62 2.62 0 0 0 -2.62-2.62h-32.852a5.322 5.322 0 0 0 -5.078 3.728l-1.06 3.375z"/><path data-cppathid="10017" fill="#f8d323" d="m191.952 135.166h-18.5a2.62 2.62 0 0 1 2.62 2.62v1.953a2.62 2.62 0 0 1 -1.67 2.442l-10.402 4.047 9.626 3.453 19.275-7.5a2.62 2.62 0 0 0 1.67-2.442v-1.953a2.62 2.62 0 0 0 -2.619-2.62z"/><path data-cppathid="10018" fill="#63bce7" d="m179.521 41.408v42.218h-42.221a42.218 42.218 0 1 0 42.218-42.218z"/><path data-cppathid="10019" fill="#63e2e7" d="m179.521 41.408v4.264a42.219 42.219 0 0 1 -9.25 79.143 42.216 42.216 0 1 0 9.25-83.406z"/><path data-cppathid="10020" fill="#f46275" d="m179.521 41.408a42.218 42.218 0 0 0 -42.221 42.218h42.218z"/><path data-cppathid="10021" fill="#f46275" d="m212.614 37.717 12.816 12.816 20.197-20.197h-12.816v-12.816z"/><g fill="#3f3679"><path data-cppathid="10022" d="m79 123.2a1.5 1.5 0 0 0 0 3 6.137 6.137 0 0 0 1.5-12.09v-8.51a1.5 1.5 0 0 0 -3 0v9.83a1.5 1.5 0 0 0 1.5 1.5c.021 0 .04-.005.06-.006a3.139 3.139 0 0 1 -.06 6.276z"/><path data-cppathid="10023" d="m82.3 130.388a1.5 1.5 0 0 0 -2.121 0 6.427 6.427 0 0 1 -10.974-4.544 1.5 1.5 0 0 0 -3 0 9.431 9.431 0 0 0 16.095 6.665 1.5 1.5 0 0 0 0-2.121z"/><path data-cppathid="10024" d="m62.634 94.315a2.779 2.779 0 0 0 -2.777 2.779v3.906a2.778 2.778 0 1 0 5.557 0v-3.9a2.78 2.78 0 0 0 -2.78-2.785z"/><path data-cppathid="10025" d="m67.876 88.788a1.5 1.5 0 0 0 -.325-2.1 10.934 10.934 0 0 0 -8.461-2.034 9.822 9.822 0 0 0 -6.487 4.18 1.5 1.5 0 0 0 2.512 1.641 6.812 6.812 0 0 1 4.514-2.869 7.946 7.946 0 0 1 6.152 1.5 1.5 1.5 0 0 0 2.095-.318z"/><path data-cppathid="10026" d="m95.107 94.315a2.779 2.779 0 0 0 -2.777 2.779v3.906a2.779 2.779 0 1 0 5.558 0v-3.9a2.781 2.781 0 0 0 -2.781-2.785z"/><path data-cppathid="10027" d="m83.959 90.914a1.5 1.5 0 0 0 2.076-.436 6.811 6.811 0 0 1 4.513-2.869 7.949 7.949 0 0 1 6.152 1.5 1.5 1.5 0 0 0 1.771-2.421 10.917 10.917 0 0 0 -8.462-2.034 9.82 9.82 0 0 0 -6.487 4.18 1.5 1.5 0 0 0 .437 2.08z"/><path data-cppathid="10028" d="m179.521 127.344a43.686 43.686 0 0 0 31.934-73.531l7.568-7.567 5.348 5.348a1.5 1.5 0 0 0 2.121 0l20.2-20.2a1.5 1.5 0 0 0 -1.061-2.561h-11.32v-11.313a1.5 1.5 0 0 0 -2.561-1.061l-20.2 20.2a1.5 1.5 0 0 0 0 2.121l5.347 5.347-7.568 7.567a43.7 43.7 0 1 0 -29.813 75.652zm51.79-106.2v9.195a1.5 1.5 0 0 0 1.5 1.5h9.2l-16.58 16.573-10.7-10.695zm-11.073 62.482a40.717 40.717 0 0 1 -81.407 1.5h40.689a1.5 1.5 0 0 0 1.061-.44l28.751-28.751a40.556 40.556 0 0 1 10.906 27.691zm-39.217-3.626v-37.064a40.56 40.56 0 0 1 26.194 10.874zm-3-37.069v39.19h-39.19a40.768 40.768 0 0 1 39.19-39.185z"/><path data-cppathid="10029" d="m25.89 236.98h-18.5a1.5 1.5 0 1 0 0 3h18.5a1.5 1.5 0 0 0 0-3z"/><path data-cppathid="10030" d="m248.61 236.98h-18.5a1.5 1.5 0 0 0 0 3h18.5a1.5 1.5 0 0 0 0-3z"/><path data-cppathid="10031" d="m215.337 236.98h-174.674a1.5 1.5 0 1 0 0 3h174.674a1.5 1.5 0 0 0 0-3z"/><path data-cppathid="10032" d="m7.39 228.226h241.22a1.5 1.5 0 0 0 0-3h-96.384l23.664-65.968 2.786-7.767a1.464 1.464 0 0 0 -.8-1.854l15.569-6.058a4.1 4.1 0 0 0 2.626-3.84v-1.952a4.125 4.125 0 0 0 -4.12-4.12h-32.851a6.793 6.793 0 0 0 -6.509 4.779l-.591 1.884-.59-.212a1.5 1.5 0 0 0 -1.919.906l-2.786 7.767-11.43 31.867a55.732 55.732 0 0 0 -38.075-26.564l-6.328-7.184v-2.136a45.756 45.756 0 0 0 30.321-37.737 13.986 13.986 0 0 0 .31-27.846q-.02-1.318-.117-2.634a23.872 23.872 0 1 0 -26.5-38.137 44.921 44.921 0 0 0 -19.01-4.177 45.692 45.692 0 0 0 -45.632 44.947 13.986 13.986 0 0 0 .308 27.846 45.756 45.756 0 0 0 30.321 37.737v2.136l-6.324 7.179a55.3 55.3 0 0 0 -45.676 54.582v16.556h-1.483a1.5 1.5 0 1 0 0 3zm166.183-71.393-23.533-8.441 1.773-4.943.646.232 20.66 7.411 2.221.8zm-18.114-17.49a3.805 3.805 0 0 1 3.646-2.677h32.848a1.122 1.122 0 0 1 1.12 1.12v1.952a1.113 1.113 0 0 1 -.714 1.044l-18.752 7.3-18.777-6.735zm-64.9 16.33a1.5 1.5 0 0 0 .31-.913v-3.312l3.9 4.431-5.283 22.1-11.356-6.115zm40.461-62.573a11.009 11.009 0 0 1 -9.558 10.895q.058-1.153.059-2.32v-19.468a11.005 11.005 0 0 1 9.499 10.893zm-55.147-55.857a41.978 41.978 0 0 1 18.74 4.373 1.5 1.5 0 0 0 1.83-.4 20.873 20.873 0 1 1 10.326 33.141 1.515 1.515 0 0 0 -.628-.047c-32.614 4.48-51.1-11.464-51.286-11.624a1.5 1.5 0 0 0 -2.5 1.109c-.127 14.855-13.176 18.381-13.728 18.522a1.5 1.5 0 0 0 -1.127 1.454v4.4h-4.274v-8.281a42.7 42.7 0 0 1 42.647-42.647zm-55.147 55.857a10.978 10.978 0 0 1 9.5-10.894v19.468q0 1.167.059 2.32a11.009 11.009 0 0 1 -9.559-10.894zm12.5 8.575v-10.505h5.774a1.5 1.5 0 0 0 1.5-1.5v-4.814c3.375-1.234 13.219-5.856 14.678-18.137 6.026 4.263 23.554 14.288 51.056 10.6a23.853 23.853 0 0 0 12.211.177c.045.8.075 1.595.075 2.389v21.781a42.647 42.647 0 1 1 -85.294 0zm42.647 45.647a45.522 45.522 0 0 0 12-1.612v8.545l-12 15.636-12-15.636v-8.545a45.522 45.522 0 0 0 12 1.608zm-15 4.13v3.312a1.5 1.5 0 0 0 .31.913l12.427 16.189-11.356 6.115-5.284-22.1zm-49 57.222a52.3 52.3 0 0 1 42.327-51.461l5.585 23.361a1.5 1.5 0 0 0 2.17.972l13.914-7.492 13.914 7.492a1.5 1.5 0 0 0 2.17-.972l5.582-23.353a52.708 52.708 0 0 1 36.392 27.193l-5.261 14.666a1.5 1.5 0 1 0 2.824 1.013l17.531-48.877 23.533 8.441-23.521 65.568h-28.025v-20.29a1.5 1.5 0 0 0 -3 0v20.291h-84.27v-20.291a1.5 1.5 0 0 0 -3 0v20.291h-18.865z"/></g></svg>