<?xml version="1.0" encoding="UTF-8"?>
<svg xmlns="http://www.w3.org/2000/svg" onmouseup="{ if(window.parent.document.onmouseup) window.parent.document.onmouseup(arguments[0]);}" width="512" viewBox="0 0 512 512" height="512"><g id="FILLED_OUTLINE"><rect data-cppathid="10000" y="24" x="24" width="464" rx="16" height="464" fill="#4a7f38"/><path data-cppathid="10001" fill="#6bad55" d="m455 88a31 31 0 0 1 -31-31v-1h-336v1a31 31 0 0 1 -31 31h-1v336h1a31 31 0 0 1 31 31v1h336v-1a31 31 0 0 1 31-31h1v-336z"/><path data-cppathid="10002" fill="#ffc043" d="m328 144h-144l-8-16 80-32 80 32z"/><path data-cppathid="10003" fill="#ffc043" d="m176 208h160v32h-160z"/><path data-cppathid="10004" fill="#ef9d0c" d="m184 144h16v64h-16z"/><path data-cppathid="10005" fill="#ef9d0c" d="m216 144h16v64h-16z"/><path data-cppathid="10006" fill="#ef9d0c" d="m248 144h16v64h-16z"/><path data-cppathid="10007" fill="#ef9d0c" d="m280 144h16v64h-16z"/><g fill="#a6c699"><path data-cppathid="10008" d="m88 304h96v16h-96z"/><path data-cppathid="10009" d="m88 272h96v16h-96z"/><path data-cppathid="10010" d="m152 376h80v16h-80z"/><path data-cppathid="10011" d="m280 376h80v16h-80z"/><path data-cppathid="10012" d="m384 120h40v16h-40z"/><path data-cppathid="10013" d="m88 120h40v16h-40z"/><path data-cppathid="10014" d="m88 152h64v16h-64z"/></g><path data-cppathid="10015" fill="#ef9d0c" d="m312 144h16v64h-16z"/><path data-cppathid="10016" fill="#a6c699" d="m168 408h48v16h-48z"/><path data-cppathid="10017" fill="#a6c699" d="m296 408h48v16h-48z"/><path data-cppathid="10018" fill="#a6c699" d="m88 336h336v16h-336z"/><path data-cppathid="10019" fill="#a6c699" d="m200 272h64v16h-64z"/><path data-cppathid="10020" fill="#a6c699" d="m200 304h64v16h-64z"/><path data-cppathid="10021" fill="#a6c699" d="m280 272h144v16h-144z"/><path data-cppathid="10022" fill="#a6c699" d="m280 304h144v16h-144z"/><path data-cppathid="10023" d="m472 16h-432a24.0275 24.0275 0 0 0 -24 24v432a24.0275 24.0275 0 0 0 24 24h432a24.0275 24.0275 0 0 0 24-24v-432a24.0275 24.0275 0 0 0 -24-24zm8 456a8.00917 8.00917 0 0 1 -8 8h-432a8.00917 8.00917 0 0 1 -8-8v-432a8.00917 8.00917 0 0 1 8-8h432a8.00917 8.00917 0 0 1 8 8z"/><path data-cppathid="10024" d="m432 57v-9h-352v9a23.02588 23.02588 0 0 1 -23 23h-9v352h9a23.02588 23.02588 0 0 1 23 23v9h352v-9a23.02588 23.02588 0 0 1 23-23h9v-352h-9a23.02588 23.02588 0 0 1 -23-23zm16 359.62939a39.10755 39.10755 0 0 0 -31.37109 31.37061h-321.25782a39.10755 39.10755 0 0 0 -31.37109-31.37061v-321.25878a39.10755 39.10755 0 0 0 31.37109-31.37061h321.25782a39.10755 39.10755 0 0 0 31.37109 31.37061z"/><path data-cppathid="10025" d="m184 200h-8v48h160v-48h-8v-54.11133l10.89941-21.79883-82.89941-36.84423-82.89941 36.84423 10.89941 21.79883zm16-48h16v48h-16zm64 48v-48h16v48zm-16 0h-16v-48h16zm72 32h-128v-16h128zm-24-32v-48h16v48zm-40-95.24561 61.10059 27.15577-2.04493 4.08984h-118.11132l-2.04493-4.08984z"/><path data-cppathid="10026" d="m88 304h96v16h-96z"/><path data-cppathid="10027" d="m88 272h96v16h-96z"/><path data-cppathid="10028" d="m152 376h80v16h-80z"/><path data-cppathid="10029" d="m280 376h80v16h-80z"/><path data-cppathid="10030" d="m384 120h40v16h-40z"/><path data-cppathid="10031" d="m88 120h40v16h-40z"/><path data-cppathid="10032" d="m88 152h64v16h-64z"/><path data-cppathid="10033" d="m168 408h48v16h-48z"/><path data-cppathid="10034" d="m296 408h48v16h-48z"/><path data-cppathid="10035" d="m88 336h336v16h-336z"/><path data-cppathid="10036" d="m200 272h64v16h-64z"/><path data-cppathid="10037" d="m200 304h64v16h-64z"/><path data-cppathid="10038" d="m280 272h144v16h-144z"/><path data-cppathid="10039" d="m280 304h144v16h-144z"/></g></svg>