<?xml version="1.0" encoding="UTF-8"?>
<svg xmlns="http://www.w3.org/2000/svg" onmouseup="{ if(window.parent.document.onmouseup) window.parent.document.onmouseup(arguments[0]);}" width="440pt" viewBox="-51 0 440 440.00172" height="440pt"><path data-cppathid="10000" fill="#00acea" d="m324.175781 167.941406c18.109375 43.660156-19.160156 115-21.832031 160.789063-1.589844 15.96875-1.589844 101.699219-1.589844 101.699219h-167.1875l-2.660156-39.398438-57.671875-.472656c-4.871094-.035156-9.058594-3.46875-10.050781-8.238282l-12.679688-61.039062-30.21875.347656c-3.464844.039063-6.71875-1.65625-8.667968-4.519531-1.949219-2.863281-2.335938-6.511719-1.03125-9.71875l39.390624-96.859375v-42.589844zm0 0"/><g fill="#083863"><path data-cppathid="10001" d="m324.175781 158h-274.199219c-5.523437 0-9.511718 4.417969-9.511718 9.941406v40.632813l-38.898438 95.042969c-2.625 6.28125-1.914062 13.460937 1.890625 19.105468 3.808594 5.640625 10.199219 8.988282 17.007813 8.90625l21.957031-.253906 10.988281 52.976562c1.984375 9.359376 10.191406 16.089844 19.753906 16.207032l48.402344.394531 2.03125 29.933594c.371094 5.207031 4.75 9.207031 9.96875 9.113281h167.1875c5.421875.101562 9.902344-4.214844 10-9.636719 0-.050781 0-.097656 0-.148437 0-29.480469.324219-88.359375 1.542969-100.601563.011719-.132812.023437-.21875.03125-.351562.914063-15.683594 6.328125-35.140625 12.066406-55.769531 10.726563-38.609376 21.824219-78.488282 9.015625-109.363282-1.550781-3.726562-5.199218-6.144531-9.234375-6.128906zm-19.054687 110.191406c-6.003906 21.605469-11.679688 41.789063-12.75 59.558594-1.285156 13.484375-1.550782 69.25-1.605469 92.25h-147.855469l-2.027344-29.859375c-.363281-5.199219-4.6875-9.226563-9.898437-9.21875l-57.671875-.414063c-.160156.011719-.304688-.09375-.339844-.25l-12.679687-61.023437c-.972657-4.683594-5.125-8.019531-9.90625-7.960937l-30.214844.355468c-.121094.015625-.242187-.046875-.296875-.15625-.078125-.085937-.09375-.214844-.03125-.316406l39.632812-96.859375c.566407-1.183594.902344-2.460937.988282-3.765625v-32.53125h256.550781c6.449219 24-2.863281 57.707031-11.894531 90.191406zm0 0"/><path data-cppathid="10002" d="m150.144531 67h-22.558593c-4.113282.054688-7.785157 2.589844-9.292969 6.414062-1.503907 3.828126-.546875 8.183594 2.421875 11.027344l56.390625 53.316406c3.976562 3.8125 10.285156 3.6875 14.109375-.277343 3.820312-3.964844 3.714844-10.273438-.238282-14.105469l-.132812-.128906-38.191406-36.089844c19.460937-1.265625 35.789062-15.152344 40.171875-34.15625h13.597656c5.523437 0 10-4.476562 10-10s-4.476563-10-10-10h-13.609375c-1.125-4.671875-3.128906-9.082031-5.910156-13h19.523437c5.523438 0 10-4.476562 10-10s-4.476562-10-10-10h-78.839843c-5.523438 0-10 4.476562-10 10s4.476562 10 10 10h22.558593c9.570313 0 17.835938 5 21.621094 13h-44.179687c-5.523438 0-10 4.476562-10 10s4.476562 10 10 10h44.199218c-1.058594 2.640625-2.695312 5.011719-4.789062 6.933594-4.453125 4.507812-10.515625 7.050781-16.851563 7.066406zm0 0"/></g></svg>