<?xml version="1.0" encoding="UTF-8"?>
<svg xmlns="http://www.w3.org/2000/svg" onmouseup="{ if(window.parent.document.onmouseup) window.parent.document.onmouseup(arguments[0]);}" width="512" viewBox="0 0 512 512" height="512" enable-background="new 0 0 512 512" id="Capa_1"><g><g><path data-cppathid="10000" fill="#f7f6f7" d="m406.363 504.5h-300.726c-16.569 0-30-13.431-30-30v-437c0-16.569 13.431-30 30-30h207.495l123.232 123.232v343.768c-.001 16.569-13.432 30-30.001 30z"/><path data-cppathid="10001" fill="#edebed" d="m406.363 130.732v343.768c0 16.568-13.432 30-30 30h30c16.568 0 30-13.432 30-30v-343.768z"/><path data-cppathid="10002" fill="#d3ced4" d="m350.033 109h-218.066c-5.523 0-10-4.477-10-10v-36.5c0-5.523 4.477-10 10-10h218.066c5.523 0 10 4.477 10 10v36.5c0 5.523-4.477 10-10 10z"/><path data-cppathid="10003" fill="#edebed" d="m436.363 160.732h-93.232c-16.569 0-30-13.431-30-30v-93.232z"/><path data-cppathid="10004" fill="#c4bcc6" d="m436.363 130.732h-93.232c-16.569 0-30-13.431-30-30v-93.232z"/><path data-cppathid="10005" fill="#b3e59f" d="m182.967 227.75h-54c-3.866 0-7-3.134-7-7v-54c0-3.866 3.134-7 7-7h54c3.866 0 7 3.134 7 7v54c0 3.866-3.134 7-7 7z"/><path data-cppathid="10006" fill="#95d6a4" d="m182.967 159.75h-30c3.866 0 7 3.134 7 7v54c0 3.866-3.134 7-7 7h30c3.866 0 7-3.134 7-7v-54c0-3.866-3.134-7-7-7z"/><path data-cppathid="10007" fill="#ff8086" d="m182.967 340.75h-54c-3.866 0-7-3.134-7-7v-54c0-3.866 3.134-7 7-7h54c3.866 0 7 3.134 7 7v54c0 3.866-3.134 7-7 7z"/><path data-cppathid="10008" fill="#e5646e" d="m182.967 272.75h-30c3.866 0 7 3.134 7 7v54c0 3.866-3.134 7-7 7h30c3.866 0 7-3.134 7-7v-54c0-3.866-3.134-7-7-7z"/><path data-cppathid="10009" fill="#ffe07d" d="m182.967 453.75h-54c-3.866 0-7-3.134-7-7v-54c0-3.866 3.134-7 7-7h54c3.866 0 7 3.134 7 7v54c0 3.866-3.134 7-7 7z"/><path data-cppathid="10010" fill="#ffd064" d="m182.967 385.75h-30c3.866 0 7 3.134 7 7v54c0 3.866-3.134 7-7 7h30c3.866 0 7-3.134 7-7v-54c0-3.866-3.134-7-7-7z"/></g><path data-cppathid="10011" d="m386.073 295.25h-151.106c-4.143 0-7.5 3.358-7.5 7.5s3.357 7.5 7.5 7.5h151.106c4.143 0 7.5-3.358 7.5-7.5s-3.357-7.5-7.5-7.5zm0 113h-151.106c-4.143 0-7.5 3.358-7.5 7.5s3.357 7.5 7.5 7.5h151.106c4.143 0 7.5-3.358 7.5-7.5s-3.357-7.5-7.5-7.5zm0-30h-151.106c-4.143 0-7.5 3.358-7.5 7.5s3.357 7.5 7.5 7.5h151.106c4.143 0 7.5-3.358 7.5-7.5s-3.357-7.5-7.5-7.5zm0-113h-151.106c-4.143 0-7.5 3.358-7.5 7.5s3.357 7.5 7.5 7.5h151.106c4.143 0 7.5-3.358 7.5-7.5s-3.357-7.5-7.5-7.5zm50.29 26.965c4.143 0 7.5-3.358 7.5-7.5v-153.983c-.03-1.52-.529-3.715-2.196-5.303l-123.232-123.232c-1.247-1.121-2.825-2.197-5.304-2.197h-207.494c-20.678 0-37.5 16.822-37.5 37.5v437c0 20.678 16.822 37.5 37.5 37.5h300.727c20.678 0 37.5-16.822 37.5-37.5v-154.785c0-4.142-3.357-7.5-7.5-7.5s-7.5 3.358-7.5 7.5v154.785c0 12.407-10.094 22.5-22.5 22.5h-300.727c-12.406 0-22.5-10.093-22.5-22.5v-437c0-12.407 10.094-22.5 22.5-22.5h199.994v30h-173.661c-9.649 0-17.5 7.851-17.5 17.5v36.5c0 9.649 7.851 17.5 17.5 17.5h147.656c4.143 0 7.5-3.358 7.5-7.5s-3.357-7.5-7.5-7.5h-147.656c-1.379 0-2.5-1.122-2.5-2.5v-36.5c0-1.378 1.121-2.5 2.5-2.5h173.661v40.732c0 20.678 16.822 37.5 37.5 37.5h85.732v146.483c0 4.142 3.358 7.5 7.5 7.5zm-93.232-168.983c-12.406 0-22.5-10.093-22.5-22.5v-75.126l97.626 97.625h-75.126zm-160.164 255.018h-54c-7.995 0-14.5 6.505-14.5 14.5v54c0 7.995 6.505 14.5 14.5 14.5h54c7.995 0 14.5-6.505 14.5-14.5v-54c0-7.995-6.505-14.5-14.5-14.5zm-.5 68h-53v-53h53zm15-279.5c0-7.995-6.505-14.5-14.5-14.5h-54c-7.995 0-14.5 6.505-14.5 14.5v54c0 7.995 6.505 14.5 14.5 14.5h54c7.995 0 14.5-6.505 14.5-14.5zm-15 53.5h-53v-53h53zm203.606-68h-151.106c-4.143 0-7.5 3.358-7.5 7.5s3.357 7.5 7.5 7.5h151.106c4.143 0 7.5-3.358 7.5-7.5s-3.357-7.5-7.5-7.5zm0 30h-151.106c-4.143 0-7.5 3.358-7.5 7.5s3.357 7.5 7.5 7.5h151.106c4.143 0 7.5-3.358 7.5-7.5s-3.357-7.5-7.5-7.5zm-188.606 97.5c0-7.995-6.505-14.5-14.5-14.5h-54c-7.995 0-14.5 6.505-14.5 14.5v54c0 7.995 6.505 14.5 14.5 14.5h54c7.995 0 14.5-6.505 14.5-14.5zm-15 53.5h-53v-53h53z"/></g></svg>