<?xml version="1.0" encoding="UTF-8"?>
<svg xmlns="http://www.w3.org/2000/svg" onmouseup="{ if(window.parent.document.onmouseup) window.parent.document.onmouseup(arguments[0]);}" width="512" viewBox="0 0 512 512" height="512" enable-background="new 0 0 512 512" id="Capa_1"><g><path data-cppathid="10000" d="m402 0c-60.654 0-110 49.346-110 110 0 60.335 48.844 110 110 110 61.058 0 110-49.568 110-110 0-60.654-49.346-110-110-110zm0 200c-21.802 0-42.324-7.656-58.619-21.708 7.719-9.361 18.636-15.643 30.592-17.609 4.315 11.281 15.247 19.317 28.027 19.317s23.712-8.036 28.027-19.317c11.956 1.967 22.874 8.248 30.593 17.61-16.293 14.05-36.817 21.707-58.62 21.707zm-14.971-64.193c-9.41-5.476-15.029-15.123-15.029-25.807v-20c0-16.542 13.458-30 30-30s30 13.458 30 30v20c0 10.684-5.619 20.331-15.029 25.807-3.078 1.791-4.971 5.083-4.971 8.643v5.55c0 5.514-4.486 10-10 10s-10-4.486-10-10v-5.55c0-3.56-1.893-6.852-4.971-8.643zm87.306 27.729c-9.161-10.276-21.185-17.649-34.431-21.182 7.665-8.929 12.096-20.381 12.096-32.354v-20c0-27.57-22.43-50-50-50s-50 22.43-50 50v20c0 11.973 4.431 23.425 12.096 32.354-13.247 3.532-25.271 10.905-34.432 21.182-11.449-15.413-17.664-34.029-17.664-53.536 0-49.626 40.374-90 90-90s90 40.374 90 90c0 19.507-6.215 38.123-17.665 53.536z"/><path data-cppathid="10001" d="m110 0c-60.654 0-110 49.346-110 110 0 60.335 48.844 110 110 110 19.844 0 39.156-5.353 56-15.319v138.897l-25.359-25.359c-11.721-11.723-30.696-11.726-42.422 0-11.635 11.634-11.713 30.389-.294 42.123l15.353 17.897c3.581 4.174 9.892 4.689 14.101 1.08 4.192-3.596 4.675-9.909 1.08-14.101 0 0-15.917-18.54-16.096-18.72-3.898-3.897-3.898-10.24 0-14.137 3.906-3.907 10.23-3.908 14.137 0l42.43 42.43c2.86 2.86 7.161 3.715 10.898 2.168 3.737-1.548 6.173-5.194 6.173-9.239v-191.72c0-5.619 4.583-10 10-10 5.59 0 10 4.564 10 10v120c0 5.523 4.477 10 10 10s10-4.477 10-10v-40c0-5.514 4.486-10 10-10s10 4.486 10 10v40c0 5.523 4.477 10 10 10s10-4.477 10-10v-20c0-5.514 4.486-10 10-10s10 4.486 10 10v40c0 5.523 4.477 10 10 10s10-4.477 10-10v-20c0-5.514 4.486-10 10-10s10 4.486 10 10v86.86c0 18.7-7.281 36.279-20.501 49.499l-16.57 16.57c-1.876 1.875-2.93 4.419-2.93 7.071v36h-80v-32.69c0-2.389-.855-4.698-2.41-6.511l-16.56-19.303c-3.597-4.192-9.91-4.673-14.101-1.079-4.192 3.596-4.674 9.91-1.079 14.101l14.15 16.494v38.988c0 5.523 4.477 10 10 10h100c5.523 0 10-4.477 10-10v-41.858l13.641-13.641c16.998-16.997 26.359-39.599 26.359-63.641v-86.86c0-16.542-13.458-30-30-30-3.904 0-7.633.758-11.057 2.121-3.47-12.731-15.128-22.121-28.943-22.121-3.904 0-7.633.758-11.057 2.121-3.47-12.731-15.128-22.121-28.943-22.121-3.506 0-6.87.61-10 1.72v-51.72c0-10.461-5.47-19.855-13.822-25.239 5.131-12.893 7.822-26.789 7.822-40.761 0-60.654-49.346-110-110-110zm56 176v4.452c-15.881 12.633-35.595 19.548-56 19.548-21.802 0-42.324-7.656-58.619-21.708 7.719-9.361 18.636-15.643 30.592-17.609 4.315 11.281 15.247 19.317 28.027 19.317 12.791 0 23.733-8.05 28.039-19.348 10.641 1.723 20.43 6.848 27.977 14.694-.004.218-.016.436-.016.654zm-70.971-40.193c-9.41-5.476-15.029-15.123-15.029-25.807v-20c0-16.542 13.458-30 30-30s30 13.458 30 30v20c0 10.684-5.619 20.331-15.029 25.807-3.078 1.791-4.971 5.083-4.971 8.643v5.55c0 5.514-4.486 10-10 10s-10-4.486-10-10v-5.55c0-3.56-1.893-6.852-4.971-8.643zm97.387 10.415c-7.152.865-13.634 4.282-18.387 9.381-7.692-6.239-16.579-10.746-26.113-13.262 7.658-8.927 12.084-20.374 12.084-32.341v-20c0-27.57-22.43-50-50-50s-50 22.43-50 50v20c0 11.973 4.431 23.425 12.096 32.354-13.247 3.532-25.271 10.905-34.432 21.182-11.449-15.413-17.664-34.029-17.664-53.536 0-49.626 40.374-90 90-90s90 40.374 90 90c0 12.679-2.552 24.835-7.584 36.222z"/><path data-cppathid="10002" d="m510 282.001c3.314-4.418 2.419-10.686-1.999-14-4.417-3.315-10.687-2.419-14 1.999l-8.43 11.241c-12.297-9.78-27.639-15.241-43.571-15.241-38.598 0-70 31.402-70 70 0 13.163 3.587 25.756 10.429 36.781l-9.374 18.747c-1.55 3.1-1.384 6.781.438 9.729s5.041 4.743 8.506 4.743h60c38.598 0 70-31.402 70-70 0-14.365-4.416-28.271-12.539-39.948zm-68 103.999h-43.82l4.764-9.528c1.696-3.392 1.327-7.45-.951-10.481-6.537-8.696-9.993-19.067-9.993-29.991 0-27.57 22.43-50 50-50 11.573 0 22.717 4.025 31.573 11.236l-32.655 43.54-11.847-11.847c-3.905-3.905-10.237-3.905-14.143 0s-3.905 10.237 0 14.143l20 20c1.882 1.882 4.429 2.929 7.071 2.929 3.141 0 6.108-1.477 8-4l36.533-48.71c3.563 6.979 5.468 14.745 5.468 22.709 0 27.571-22.43 50-50 50z"/><circle data-cppathid="10003" r="10" cy="406" cx="150"/></g></svg>