<?xml version="1.0" encoding="UTF-8"?>
<svg xmlns="http://www.w3.org/2000/svg" onmouseup="{ if(window.parent.document.onmouseup) window.parent.document.onmouseup(arguments[0]);}" width="512" viewBox="0 0 511.545 511.545" height="512" enable-background="new 0 0 511.545 511.545" id="Layer_1"><g><path data-cppathid="10000" d="m445.472 66.111c-42.606-42.597-99.254-66.056-159.508-66.056-5.522 0-10 4.477-10 10v215.532c0 5.523 4.478 10 10 10h215.581c5.522 0 10-4.477 10-10 0-60.242-23.465-116.878-66.073-159.476zm-149.508 149.476v-195.292c105.411 5.077 190.263 89.906 195.341 195.292z"/><path data-cppathid="10001" d="m457.73 267.902h-214.093v-214.043c0-5.523-4.477-10-10-10-62.528 0-121.313 24.344-165.528 68.549-90.809 87.117-90.817 243.873.003 330.988 87.129 90.784 243.924 90.799 331.054 0 44.215-44.204 68.564-102.978 68.564-165.494 0-5.523-4.477-10-10-10zm-438.185 10c0-114.674 90.664-208.575 204.093-213.812v427.625c-113.429-5.238-204.093-99.139-204.093-213.813zm365.48 151.35c-38.069 38.062-87.957 60.024-141.388 62.464v-203.814h203.865c-2.441 53.418-24.408 103.29-62.477 141.35z"/><path data-cppathid="10002" d="m403.978 138.097c-9.308 0-17.561 5.058-22.639 12.809l25.403-60.522c2.138-5.092-.258-10.953-5.351-13.091-5.091-2.136-10.953.257-13.091 5.351l-12.8 30.497c6.55-18.945-6.953-41.436-26.318-41.133-37.041 1.673-37.032 59.989.001 61.658 10.323 0 19.349-6.22 24.182-15.437l-25.636 61.076c-2.138 5.092.258 10.953 5.351 13.091 4.966 2.121 10.953-.206 13.091-5.351l10.686-25.459c-4.524 18.376 9.116 38.573 27.122 38.17 37.04-1.674 37.032-59.991-.001-61.659zm-54.796-24.431c-4.297 0-7.927-4.959-7.927-10.829s3.63-10.829 7.927-10.829 7.928 4.959 7.928 10.829-3.631 10.829-7.928 10.829zm54.796 66.089c-4.297 0-7.928-4.959-7.928-10.829s3.631-10.829 7.928-10.829 7.927 4.959 7.927 10.829-3.63 10.829-7.927 10.829z"/><path data-cppathid="10003" d="m187.293 145.939h-52.852c-13.268.528-13.258 19.477 0 20h52.852c13.268-.529 13.258-19.477 0-20z"/><path data-cppathid="10004" d="m187.293 195.288h-88.367c-13.268.528-13.258 19.477 0 20h88.367c13.268-.529 13.258-19.477 0-20z"/><path data-cppathid="10005" d="m187.293 244.637h-123.882c-13.268.528-13.258 19.477 0 20h123.882c13.268-.528 13.258-19.477 0-20z"/><path data-cppathid="10006" d="m187.293 293.986h-123.882c-13.268.528-13.258 19.477 0 20h123.882c13.268-.528 13.258-19.477 0-20z"/><path data-cppathid="10007" d="m187.293 343.335h-88.367c-13.268.528-13.258 19.477 0 20h88.367c13.268-.528 13.258-19.477 0-20z"/><path data-cppathid="10008" d="m187.293 392.684h-52.852c-13.268.528-13.258 19.477 0 20h52.852c13.268-.528 13.258-19.477 0-20z"/><path data-cppathid="10009" d="m301.244 400.592c-3.467-4.302-9.762-4.977-14.062-1.512-4.301 3.465-4.978 9.76-1.513 14.061 5.869 7.284 14.341 11.354 22.736 13.259.814 12.35 18.226 12.928 19.917.734 14.927-2.504 25.424-12.319 27.126-25.73 1.963-15.457-8.087-30.289-24.439-36.067-.909-.321-1.776-.63-2.623-.934v-21.944c1.453.742 2.507 1.621 3.098 2.463 3.174 4.521 9.412 5.613 13.93 2.44 4.521-3.173 5.612-9.41 2.439-13.93-3.854-5.492-10.648-10.129-19.467-11.949v-.152c-.528-13.268-19.476-13.258-20 0v.844c-.798.201-1.6.416-2.412.66-24.019 7.732-27.975 42.037-3.346 53.017 1.323.624 3.288 1.451 5.758 2.428v27.239c-2.892-1.169-5.428-2.8-7.142-4.927zm34.365-1.708c-.457 3.602-3.021 6.273-7.222 7.706v-20.481c5.605 3.435 7.739 8.703 7.222 12.775zm-29.714-48.857c.161-2.168 1.111-4.26 2.492-5.801v11.771c-1.838-1.582-2.671-3.55-2.492-5.97z"/></g></svg>