<?xml version="1.0" encoding="UTF-8"?>
<svg xmlns="http://www.w3.org/2000/svg" onmouseup="{ if(window.parent.document.onmouseup) window.parent.document.onmouseup(arguments[0]);}" width="512pt" viewBox="0 0 512 512" height="512pt"><path data-cppathid="10000" d="m512 256c0 68.378906-26.628906 132.667969-74.980469 181.019531-48.351562 48.351563-112.640625 74.980469-181.019531 74.980469s-132.667969-26.628906-181.019531-74.980469c-48.351563-48.351562-74.980469-112.640625-74.980469-181.019531h40c0 119.101562 96.898438 216 216 216s216-96.898438 216-216-96.898438-216-216-216c-77.902344 0-148.230469 41.144531-186.570312 107h60.570312v40h-130v-130h40v61.492188c18.472656-29.011719 42.675781-54.09375 71.480469-73.828126 42.65625-29.21875 92.628906-44.664062 144.519531-44.664062 68.378906 0 132.667969 26.628906 181.019531 74.980469 48.351563 48.351562 74.980469 112.640625 74.980469 181.019531zm-150.027344.566406-169.972656 98.21875v-196.441406zm-129.972656 28.910156 50.027344-28.910156-50.027344-28.910156zm0 0"/></svg>