<?xml version="1.0" encoding="UTF-8"?>
<svg xmlns="http://www.w3.org/2000/svg" onmouseup="{ if(window.parent.document.onmouseup) window.parent.document.onmouseup(arguments[0]);}" width="512" viewBox="0 0 64 64" height="512" enable-background="new 0 0 64 64" id="Layer_1"><path data-cppathid="10000" fill="#78777f" d="m14 40c0-1.103-.897-2-2-2h-3c-.553 0-1 .448-1 1v16c0 .552.447 1 1 1h3c1.103 0 2-.897 2-2z"/><path data-cppathid="10001" fill="#00a6ff" d="m10 38c0-.552-.447-1-1-1h-8c-.553 0-1 .448-1 1v18c0 .552.447 1 1 1h8c.553 0 1-.448 1-1z"/><path data-cppathid="10002" fill="#ffc473" d="m21 41c.553 0 1-.448 1-1v-4c0-.552-.447-1-1-1h-4c-2.757 0-5 2.243-5 5v13c0 1.105.895 2 2 2h5c.553 0 1-.448 1-1 0-.551.448-1 1-1 .553 0 1-.448 1-1s-.447-1-1-1c-.552 0-1-.449-1-1s.448-1 1-1c.553 0 1-.448 1-1s-.447-1-1-1c-.552 0-1-.449-1-1s.448-1 1-1c.553 0 1-.448 1-1s-.447-1-1-1c-.552 0-1-.449-1-1s.448-1 1-1z"/><path data-cppathid="10003" style="fill:none;stroke:#000;stroke-width:2;stroke-linecap:round;stroke-linejoin:round;stroke-miterlimit:10" d=""/><path data-cppathid="10004" fill="#b38a65" d="m28 30c0-.552-.447-1-1-1h-6c-.553 0-1 .448-1 1v10c0 .552.447 1 1 1h6c.553 0 1-.448 1-1z"/><path data-cppathid="10005" fill="#ff633e" d="m18 21h-3c-1.103 0-2 .897-2 2v4c0 1.103.897 2 2 2h3c.553 0 1-.448 1-1v-6c0-.552-.447-1-1-1z"/><path data-cppathid="10006" fill="#ff7a53" d="m28 19h-9c-1.103 0-2 .897-2 2v8c0 1.103.897 2 2 2h9c.553 0 1-.448 1-1v-10c0-.552-.447-1-1-1z"/><path data-cppathid="10007" fill="#ffdba9" d="m48.525 9.15c-.295-.183-.663-.198-.973-.044l-20 10c-.338.169-.552.515-.552.894v10c0 .379.214.725.553.895l20 10c.141.07.294.105.447.105.183 0 .365-.05.525-.149.295-.182.475-.504.475-.851v-30c0-.347-.18-.668-.475-.85z"/><path data-cppathid="10008" fill="#ff633e" d="m56.242 20.03-4-1c-.297-.074-.613-.007-.857.182-.243.19-.385.48-.385.788v10c0 .308.142.599.385.788.177.139.394.212.615.212.081 0 .162-.01.242-.03l4-1c.445-.111.758-.511.758-.97v-8c0-.459-.313-.859-.758-.97z"/><g fill="#ff9577"><path data-cppathid="10009" d="m50 7c-1.654 0-3 1.346-3 3v30c0 1.654 1.346 3 3 3s3-1.346 3-3v-30c0-1.654-1.346-3-3-3z"/><path data-cppathid="10010" d="m63 26h-3c-.553 0-1-.448-1-1s.447-1 1-1h3c.553 0 1 .448 1 1s-.447 1-1 1z"/><path data-cppathid="10011" d="m60.001 22c-.323 0-.641-.156-.833-.445-.307-.459-.183-1.081.277-1.387l3-2c.461-.307 1.08-.183 1.387.277.307.459.183 1.081-.277 1.387l-3 2c-.171.114-.364.168-.554.168z"/><path data-cppathid="10012" d="m62.999 32c-.19 0-.383-.054-.554-.168l-3-2c-.46-.306-.584-.927-.277-1.387.305-.459.925-.585 1.387-.277l3 2c.46.306.584.927.277 1.387-.192.289-.51.445-.833.445z"/></g><path data-cppathid="10013" fill="#ffa91f" d="m30 54c0-1.654-1.346-3-3-3h-6c-1.654 0-3 1.346-3 3s1.346 3 3 3h6c1.654 0 3-1.346 3-3z"/><path data-cppathid="10014" fill="#ffa91f" d="m30 50c0-1.654-1.346-3-3-3h-6c-1.654 0-3 1.346-3 3s1.346 3 3 3h6c1.654 0 3-1.346 3-3z"/><path data-cppathid="10015" fill="#ffa91f" d="m30 46c0-1.654-1.346-3-3-3h-6c-1.654 0-3 1.346-3 3s1.346 3 3 3h6c.811 0 1.565-.317 2.107-.874.577-.559.893-1.315.893-2.126z"/><path data-cppathid="10016" fill="#ffa91f" d="m30 42c0-1.654-1.346-3-3-3h-6c-1.654 0-3 1.346-3 3s1.346 3 3 3h6c1.654 0 3-1.346 3-3z"/><path data-cppathid="10017" fill="#002d6b" d="m56.242 20.03-3.242-.811v-9.219c0-1.654-1.346-3-3-3-1.428 0-2.621 1.005-2.922 2.343l-19.314 9.657h-8.764c-1.103 0-2 .897-2 2h-2c-1.103 0-2 .897-2 2v4c0 1.103.897 2 2 2h2c0 1.103.897 2 2 2h1v4h-3c-2.062 0-3.834 1.255-4.598 3.041-.13-.027-.264-.041-.402-.041h-2c0-.552-.447-1-1-1h-8c-.553 0-1 .448-1 1v18c0 .552.447 1 1 1h8c.553 0 1-.448 1-1h2c.737 0 1.375-.405 1.722-1h4.463c.414 1.161 1.514 2 2.816 2h6c1.654 0 3-1.346 3-3 0-.771-.301-1.468-.78-2 .48-.532.78-1.229.78-2s-.301-1.468-.78-2c.48-.532.78-1.229.78-2s-.301-1.468-.78-2c.48-.532.78-1.229.78-2 0-1.302-.839-2.402-2-2.816v-8.066l19.078 9.539c.3 1.338 1.493 2.343 2.921 2.343 1.654 0 3-1.346 3-3v-9.219l3.242-.811c.445-.111.758-.511.758-.97v-8c0-.459-.313-.859-.758-.97zm-27.242.588 18-9v26.764l-18-9zm-14 6.382v-4h2v4zm4-6h8v8h-8zm7 10v8h-4v-8zm2 11c0 .551-.448 1-1 1h-6c-.552 0-1-.449-1-1s.448-1 1-1h6c.552 0 1 .449 1 1zm0 4c0 .551-.448 1-1 1h-6c-.552 0-1-.449-1-1s.448-1 1-1h6c.552 0 1 .449 1 1zm0 4c0 .551-.448 1-1 1h-6c-.552 0-1-.449-1-1s.448-1 1-1h6c.552 0 1 .449 1 1zm-11-13h3v2.184c-1.161.414-2 1.514-2 2.816 0 .771.301 1.468.78 2-.48.532-.78 1.229-.78 2s.301 1.468.78 2c-.48.532-.78 1.229-.78 2s.301 1.468.78 2c-.261.289-.463.626-.596 1h-4.184v-13c0-1.654 1.346-3 3-3zm-15 18v-16h6v16zm8-1v-14h2v14zm17 1h-6c-.552 0-1-.449-1-1s.448-1 1-1h6c.552 0 1 .449 1 1s-.448 1-1 1zm24-15c0 .551-.448 1-1 1s-1-.449-1-1v-30c0-.551.448-1 1-1s1 .449 1 1zm4-11.781-2 .5v-7.438l2 .5z"/><path data-cppathid="10018" fill="#002d6b" d="m60 26h3c.553 0 1-.448 1-1s-.447-1-1-1h-3c-.553 0-1 .448-1 1s.447 1 1 1z"/><path data-cppathid="10019" fill="#002d6b" d="m60.001 22c.19 0 .383-.054.554-.168l3-2c.46-.306.584-.927.277-1.387s-.926-.584-1.387-.277l-3 2c-.46.306-.584.927-.277 1.387.192.289.51.445.833.445z"/><path data-cppathid="10020" fill="#002d6b" d="m60.555 28.168c-.462-.308-1.082-.182-1.387.277-.307.459-.183 1.081.277 1.387l3 2c.171.114.364.168.554.168.323 0 .641-.156.833-.445.307-.459.183-1.081-.277-1.387z"/></svg>