<?xml version="1.0" encoding="UTF-8"?>
<svg xmlns="http://www.w3.org/2000/svg" onmouseup="{ if(window.parent.document.onmouseup) window.parent.document.onmouseup(arguments[0]);}" width="480pt" viewBox="-72 0 480 480" height="480pt"><path data-cppathid="10000" fill="#e9e9e9" d="m240 472 88-88v-360c0-8.800781-7.199219-16-16-16h-288c-8.800781 0-16 7.199219-16 16v432c0 8.800781 7.199219 16 16 16zm0 0"/><g fill="#b4b4b5"><path data-cppathid="10001" d="m120 48h96v16h-96zm0 0"/><path data-cppathid="10002" d="m64 264h208v16h-208zm0 0"/><path data-cppathid="10003" d="m64 304h208v16h-208zm0 0"/><path data-cppathid="10004" d="m64 344h208v16h-208zm0 0"/><path data-cppathid="10005" d="m64 384h136v16h-136zm0 0"/></g><path data-cppathid="10006" fill="#e2c8ac" d="m104 120v88l64 32 64-32v-88l-64-32zm0 0"/><path data-cppathid="10007" fill="#b4b4b5" d="m256 384c-8.800781 0-16 7.199219-16 16v72l88-88zm0 0"/><path data-cppathid="10008" fill="#edd9be" d="m104 120 64 40 64-40-64-32zm0 0"/><path data-cppathid="10009" fill="#ceb195" d="m104 208 64 32v-80l-64-40zm0 0"/><path data-cppathid="10010" fill="#ceb195" d="m140 142.398438 64-36-16.800781-8.796876-62.398438 35.199219zm0 0"/><path data-cppathid="10011" d="m312 0h-288c-13.601562 0-24 10.398438-24 24v432c0 13.601562 10.398438 24 24 24h219.199219l92.800781-92.800781v-363.199219c0-13.601562-10.398438-24-24-24zm8 380.800781-72 72v-52.800781c0-4.800781 3.199219-8 8-8h40v-16h-40c-13.601562 0-24 10.398438-24 24v64h-208c-4.800781 0-8-3.199219-8-8v-432c0-4.800781 3.199219-8 8-8h288c4.800781 0 8 3.199219 8 8zm0 0"/><path data-cppathid="10012" d="m120 48h96v16h-96zm0 0"/><path data-cppathid="10013" d="m64 264h208v16h-208zm0 0"/><path data-cppathid="10014" d="m64 304h208v16h-208zm0 0"/><path data-cppathid="10015" d="m64 344h208v16h-208zm0 0"/><path data-cppathid="10016" d="m64 384h136v16h-136zm0 0"/><path data-cppathid="10017" d="m240 212.800781v-97.601562l-72-36-72 36v97.601562l72 36zm-72-62.402343-20-12 48-27.199219 20 9.601562zm10.398438-48-45.597657 26.402343-12.800781-8 48-24zm-66.398438 32 48 29.601562v46.398438h16v-46.398438l48-29.601562v68.800781l-56 28-56-28zm0 0"/></svg>