<?xml version="1.0" encoding="UTF-8"?>
<svg xmlns="http://www.w3.org/2000/svg" onmouseup="{ if(window.parent.document.onmouseup) window.parent.document.onmouseup(arguments[0]);}" width="467pt" viewBox="-4 0 467 467.96267" height="467pt"><path data-cppathid="10000" fill="#dd970a" d="m232.480469 419.960938h160v48h-160zm0 0"/><g fill="#bf5b00"><path data-cppathid="10001" d="m256.480469 443.960938h16v24h-16zm0 0"/><path data-cppathid="10002" d="m288.480469 443.960938h16v24h-16zm0 0"/><path data-cppathid="10003" d="m320.480469 443.960938h16v24h-16zm0 0"/><path data-cppathid="10004" d="m352.480469 443.960938h16v24h-16zm0 0"/></g><path data-cppathid="10005" fill="#ffbc05" d="m232.480469 379.960938h160v48h-160zm0 0"/><path data-cppathid="10006" fill="#e38100" d="m256.480469 403.960938h16v24h-16zm0 0"/><path data-cppathid="10007" fill="#e38100" d="m288.480469 403.960938h16v24h-16zm0 0"/><path data-cppathid="10008" fill="#e38100" d="m320.480469 403.960938h16v24h-16zm0 0"/><path data-cppathid="10009" fill="#e38100" d="m352.480469 403.960938h16v24h-16zm0 0"/><path data-cppathid="10010" fill="#dd970a" d="m232.480469 339.960938h160v48h-160zm0 0"/><path data-cppathid="10011" fill="#bf5b00" d="m256.480469 363.960938h16v24h-16zm0 0"/><path data-cppathid="10012" fill="#bf5b00" d="m288.480469 363.960938h16v24h-16zm0 0"/><path data-cppathid="10013" fill="#bf5b00" d="m320.480469 363.960938h16v24h-16zm0 0"/><path data-cppathid="10014" fill="#bf5b00" d="m352.480469 363.960938h16v24h-16zm0 0"/><path data-cppathid="10015" fill="#ffbc05" d="m232.480469 299.960938h160v48h-160zm0 0"/><path data-cppathid="10016" fill="#e38100" d="m256.480469 323.960938h16v24h-16zm0 0"/><path data-cppathid="10017" fill="#e38100" d="m288.480469 323.960938h16v24h-16zm0 0"/><path data-cppathid="10018" fill="#e38100" d="m320.480469 323.960938h16v24h-16zm0 0"/><path data-cppathid="10019" fill="#e38100" d="m352.480469 323.960938h16v24h-16zm0 0"/><path data-cppathid="10020" fill="#2cb357" d="m97.601562 159.910156 96.09375-159.910156 13.714844 8.238281-96.097656 159.910157zm0 0"/><path data-cppathid="10021" fill="#2cb357" d="m192.480469 163.960938c-17.671875 0-32-14.324219-32-32 0-17.671876 14.328125-32 32-32 17.675781 0 32 14.328124 32 32 0 17.675781-14.324219 32-32 32zm0-48c-8.835938 0-16 7.164062-16 16 0 8.839843 7.164062 16 16 16 8.835937 0 16-7.160157 16-16 0-8.835938-7.164063-16-16-16zm0 0"/><path data-cppathid="10022" fill="#2cb357" d="m112.480469 67.960938c-17.671875 0-32-14.324219-32-32 0-17.671876 14.328125-32 32-32 17.675781 0 32 14.328124 32 32 0 17.675781-14.324219 32-32 32zm0-48c-8.835938 0-16 7.164062-16 16 0 8.839843 7.164062 16 16 16 8.835937 0 16-7.160157 16-16 0-8.835938-7.164063-16-16-16zm0 0"/><path data-cppathid="10023" fill="#d12136" d="m458.625 120.652344-2.144531-76.691406-76.6875 2.136718-31.65625 33.472656 52.527343-1.480468c-108.597656 101.390625-251.613281 157.808594-400.183593 157.871094v32c158.082031-.074219 310.140625-60.65625 424.960937-169.308594l1.527344 55.46875zm0 0"/><path data-cppathid="10024" fill="#dd970a" d="m232.480469 267.960938h160v40h-160zm0 0"/><path data-cppathid="10025" fill="#bf5b00" d="m256.480469 283.960938h16v24h-16zm0 0"/><path data-cppathid="10026" fill="#bf5b00" d="m288.480469 283.960938h16v24h-16zm0 0"/><path data-cppathid="10027" fill="#bf5b00" d="m320.480469 283.960938h16v24h-16zm0 0"/><path data-cppathid="10028" fill="#bf5b00" d="m352.480469 283.960938h16v24h-16zm0 0"/><path data-cppathid="10029" fill="#ffbc05" d="m232.480469 387.960938c0 44.183593-35.816407 80-80 80-44.183594 0-80-35.816407-80-80 0-44.179688 35.816406-80 80-80 44.183593 0 80 35.820312 80 80zm0 0"/><path data-cppathid="10030" fill="#e38100" d="m152.480469 379.960938c-4.417969 0-8-3.578126-8-8 0-4.417969 3.582031-8 8-8s8 3.582031 8 8h16c-.042969-10.132813-6.445313-19.148438-16-22.527344v-9.472656h-16v9.472656c-11.011719 3.878906-17.621094 15.136718-15.640625 26.640625 1.976562 11.507812 11.964844 19.910156 23.640625 19.886719 4.417969 0 8 3.582031 8 8 0 4.421874-3.582031 8-8 8s-8-3.578126-8-8h-16c.042969 10.136718 6.445312 19.152343 16 22.53125v9.46875h16v-9.46875c11.011719-3.878907 17.621093-15.136719 15.644531-26.644532-1.980469-11.503906-11.96875-19.90625-23.644531-19.886718zm0 0"/></svg>