<?xml version="1.0" encoding="UTF-8"?>
<svg xmlns="http://www.w3.org/2000/svg" onmouseup="{ if(window.parent.document.onmouseup) window.parent.document.onmouseup(arguments[0]);}" xml:space="preserve" style="enable-background:new 0 0 468.293 468.293;" viewBox="0 0 468.293 468.293" y="0px" x="0px" id="Capa_1" version="1.1" xmlns:xlink="http://www.w3.org/1999/xlink"><path data-cppathid="10000" d="M468.293,108.854H0V46.415c0-6.897,5.591-12.488,12.488-12.488h443.317  c6.897,0,12.488,5.591,12.488,12.488V108.854z" style="fill:#3A556A;"/><path data-cppathid="10001" d="M468.293,108.854h-256l38.11-43.554c3.557-4.065,8.696-6.397,14.097-6.397h203.793V108.854z" style="fill:#D5D6DB;"/><path data-cppathid="10002" d="M449.561,434.366H18.732C8.386,434.366,0,425.979,0,415.634v-306.78h468.293v306.78  C468.293,425.979,459.906,434.366,449.561,434.366z" style="fill:#EBF0F3;"/><circle data-cppathid="10003" r="18.732" cy="71.393" cx="58.137" style="fill:#FCD462;"/><circle data-cppathid="10004" r="18.732" cy="71.393" cx="114.332" style="fill:#E1E6E9;"/><circle data-cppathid="10005" r="18.732" cy="71.393" cx="170.527" style="fill:#27A2DB;"/><rect data-cppathid="10006" height="112.39" width="112.39" style="fill:#E56353;" y="153.413" x="39.405"/><rect data-cppathid="10007" height="35.172" width="112.39" style="fill:#44C4A1;" y="292.652" x="39.405"/><rect data-cppathid="10008" height="35.172" width="112.39" style="fill:#1C75A1;" y="354.654" x="39.405"/><g><rect data-cppathid="10009" height="12.488" width="238.642" style="fill:#D5D6DB;" y="172.02" x="190.233"/><rect data-cppathid="10010" height="12.488" width="238.642" style="fill:#D5D6DB;" y="203.426" x="190.233"/><rect data-cppathid="10011" height="12.488" width="238.642" style="fill:#D5D6DB;" y="234.646" x="190.233"/><rect data-cppathid="10012" height="12.488" width="238.642" style="fill:#D5D6DB;" y="303.703" x="190.233"/><rect data-cppathid="10013" height="12.488" width="238.642" style="fill:#D5D6DB;" y="335.048" x="190.233"/><rect data-cppathid="10014" height="12.488" width="238.642" style="fill:#D5D6DB;" y="366.267" x="190.233"/></g><g/><g/><g/><g/><g/><g/><g/><g/><g/><g/><g/><g/><g/><g/><g/></svg>