<?xml version="1.0" encoding="UTF-8"?>
<svg xmlns="http://www.w3.org/2000/svg" onmouseup="{ if(window.parent.document.onmouseup) window.parent.document.onmouseup(arguments[0]);}" width="512" viewBox="0 0 512 512" height="512" enable-background="new 0 0 512 512" id="Layer_1"><g><g><g><g><ellipse data-cppathid="10000" ry="203.66" rx="203.523" fill="#fd6dc3" cy="211.695" cx="211.023"/><path data-cppathid="10001" fill="#fd53b9" d="m211.023 8.034c-5.046 0-10.046.191-15 .552 105.398 7.684 188.523 95.679 188.523 203.108s-83.126 195.425-188.523 203.109c4.954.361 9.954.552 15 .552 112.403 0 203.523-91.182 203.523-203.66s-91.121-203.661-203.523-203.661z"/><ellipse data-cppathid="10002" ry="150.594" rx="150.456" fill="#fff" cy="211.695" cx="211.023"/><ellipse data-cppathid="10003" ry="97.528" rx="97.39" fill="#fd6dc3" cy="211.695" cx="211.023"/><ellipse data-cppathid="10004" ry="44.461" rx="44.324" fill="#fff" cy="211.695" cx="211.023"/></g><g><g><g><path data-cppathid="10005" fill="#92f0bc" d="m207.281 339.355h297.177v165.086h-297.177z"/><path data-cppathid="10006" fill="#79e8ab" d="m207.324 339.311v.009l267.176.079-.086 165.077 30 .008.086-165.085z"/><g><path data-cppathid="10007" fill="#0aa877" d="m313.456 448.726c-5.044-8.021-7.706-17.303-7.702-26.842.015-27.746 22.508-50.312 50.142-50.304 17.294.005 33.139 8.786 42.385 23.489 5.044 8.021 7.707 17.302 7.702 26.842-.014 27.747-22.507 50.313-50.141 50.305-17.296-.005-33.14-8.786-42.386-23.49z"/></g><g fill="#0aa877"><path data-cppathid="10008" d="m247.029 339.323c-.011 22.016-17.797 39.859-39.726 39.853l.021-39.864z"/><path data-cppathid="10009" d="m464.709 504.473c.011-22.016 17.797-39.859 39.726-39.853l-.021 39.864z"/><path data-cppathid="10010" d="m504.479 379.263c-21.929-.006-39.696-17.859-39.685-39.876l39.705.012z"/></g></g></g><g><g><path data-cppathid="10011" fill="#ffe80d" d="m85.064 447.754h83.327v28.209h-83.327z"/><path data-cppathid="10012" fill="#fdf486" d="m85.064 475.964h83.327v28.209h-83.327z"/></g><g><path data-cppathid="10013" fill="#fdf486" d="m168.391 391.336h83.327v28.209h-83.327z"/><path data-cppathid="10014" fill="#ffe80d" d="m168.391 419.545h83.327v28.209h-83.327z"/><path data-cppathid="10015" fill="#fdf486" d="m168.391 447.754h83.327v28.209h-83.327z"/><path data-cppathid="10016" fill="#ffe80d" d="m168.391 475.964h83.327v28.209h-83.327z"/></g></g></g></g><path data-cppathid="10017" fill="#7974e3" d="m487.027 51.081-55.796 38.631-30.359-11.214.215-32.383 55.796-38.631-.214 32.383z"/></g><g fill="#060606"><path data-cppathid="10018" d="m355.898 364.08c-.006 0-.011 0-.017 0-31.76 0-57.61 25.926-57.627 57.8-.017 31.437 26.176 57.836 57.602 57.836 31.758 0 57.61-25.928 57.626-57.8.019-31.435-26.14-57.827-57.584-57.836zm-.041 100.636c-23.205 0-42.614-19.619-42.603-42.829.013-23.608 19.132-42.808 42.627-42.808 23.203 0 42.613 19.62 42.601 42.828-.012 23.608-19.132 42.809-42.625 42.809z"/><path data-cppathid="10019" d="m512 339.402c.002-4.108-3.556-7.5-7.49-7.504l-119.848-.167c24.5-35.31 37.384-76.519 37.384-120.037 0-42.384-12.554-81.885-34.123-114.994l14.03-9.808 26.678 9.855c2.36.835 4.65.545 6.868-.869l55.796-38.631c4.901-3.393 3.922-11.136-1.67-13.202l-16.836-6.219 12.004-8.311c7.973-5.521-.566-17.853-8.539-12.333l-11.991 8.302.119-17.951c.04-5.965-6.865-9.609-11.769-6.216l-55.796 38.631c-2.009 1.391-3.214 3.673-3.23 6.117l-.189 28.506-14.1 9.857c-38.563-50.93-99.641-83.895-168.275-83.895-116.358.001-211.023 94.727-211.023 211.161 0 48.423 16.793 95.735 47.287 133.219 29.033 35.688 69.227 61.101 113.604 71.94v23.401h-75.828c-4.142 0-7.5 3.358-7.5 7.5v56.418c0 4.142 3.358 7.5 7.5 7.5l301.568.312c9.429 0 9.437-14.994.008-15l-127.421-.07v-105.578c0-4.142-3.358-7.5-7.5-7.5h-28.305c15.945-5.822 27.912-20.032 30.564-37.286l203.9.284c1.532 9.816 6.086 18.871 13.217 26.035 7.091 7.125 16.048 11.694 25.765 13.27v71.636c-19.903 3.329-35.853 19.191-39.049 39.209h-22.673c-9.697 0-9.697 15 0 15h68.863.414c4.141 0 7.584-3.355 7.586-7.496v-165.04c0-.015 0-.03 0-.046zm-103.439-289.339 40.727-28.197-.119 17.952c-.024 3.111 1.995 6.015 4.903 7.086l16.834 6.219-40.736 28.202-21.763-8.04zm-1.515 161.631c0 43.976-14.162 85.41-40.967 120.011l-52.264-.073c22.354-19.266 39.246-44.806 48.003-72.825 9.557-30.581 9.494-64.242-.175-94.783-4.133-13.053-9.95-25.438-17.232-36.907l31.218-21.824c19.865 30.672 31.417 67.21 31.417 106.401zm-348.123 123.753c-28.324-34.817-43.923-78.767-43.923-123.753 0-108.163 87.936-196.16 196.023-196.16 63.556 0 120.134 30.433 155.975 77.493l-31.211 21.819c-6.49-8.354-13.824-16.095-21.942-23.077-22.693-19.517-50.244-32.129-79.674-36.474-30.452-4.496-61.245-.094-89.047 12.729-8.805 4.061-2.523 17.686 6.282 13.621 24.791-11.434 53.406-15.521 80.575-11.511 26.619 3.93 51.544 15.344 72.083 33.008 7.162 6.159 13.644 12.974 19.408 20.313l-31.242 21.84c-19.251-23.562-48.503-38.629-81.206-38.629-57.836 0-104.89 47.115-104.89 105.027 0 57.913 47.053 105.028 104.89 105.028s104.891-47.115 104.891-105.028c0-19.791-5.498-38.319-15.041-54.139l31.235-21.836c6.423 10.221 11.564 21.237 15.235 32.833 8.751 27.641 8.807 58.105.158 85.781-8.774 28.074-26.578 53.407-50.132 71.333-2.721 2.071-5.552 4.061-8.417 5.932l-81.941-.114c-4.597.43-7.1 2.945-7.51 7.544l.09 15.289c-19.787-1.594-39.248-7.349-56.642-16.821-38.062-20.725-65.413-58.608-72.793-101.349-7.977-46.199 7.775-94.469 41.389-127.121 6.956-6.757-3.495-17.516-10.451-10.76-37.148 36.086-54.541 89.362-45.722 140.435 8.146 47.179 38.382 89.089 80.401 111.97 19.608 10.677 41.589 17.087 63.904 18.699l.085 14.466h-31.372c-4.142 0-7.5 3.358-7.5 7.5v10.044c-39.803-10.531-75.77-33.729-101.968-65.932zm145.437-119.573c3.227 3.524 6.708 4.14 10.444 1.85l29.914-20.912c2.006 4.557 3.129 9.59 3.129 14.883 0 20.38-16.52 36.961-36.824 36.961s-36.823-16.581-36.823-36.961 16.519-36.961 36.823-36.961c9.643 0 18.428 3.745 24.999 9.855l-29.812 20.841c-3.395 2.372-4.223 7.049-1.85 10.444zm6.662-56.141c-28.575 0-51.823 23.31-51.823 51.961 0 28.652 23.248 51.961 51.823 51.961 28.576 0 51.824-23.31 51.824-51.961 0-8.491-2.055-16.506-5.673-23.591l31.372-21.931c7.854 13.365 12.367 28.924 12.367 45.522 0 49.642-40.325 90.028-89.891 90.028-49.565 0-89.89-40.386-89.89-90.028 0-49.641 40.324-90.027 89.89-90.027 27.624 0 52.374 12.548 68.877 32.248l-31.398 21.949c-9.443-9.926-22.747-16.131-37.478-16.131zm-35.131 295.521h68.327v13.209h-68.327zm68.327-15h-68.327v-13.209h68.327zm-151.655 15h68.327v13.209h-68.327zm68.328 41.419h-68.328v-13.209h68.327v13.209zm15-13.209h68.327v13.209h-68.327zm68.327-71.419h-68.327v-13.209h68.327zm-29.411-41.254.013-23.978 23.832.007c-2.809 11.821-12.085 21.146-23.845 23.971zm266.919-8.503c-4.286-4.307-7.215-9.615-8.571-15.399l23.823.007-.073 23.966c-5.7-1.377-10.93-4.304-15.179-8.574zm-8.64 134.696c2.781-11.711 11.91-20.964 23.509-23.887l-.072 23.887z"/></g></g></svg>