<?xml version="1.0" encoding="UTF-8"?>
<svg xmlns="http://www.w3.org/2000/svg" onmouseup="{ if(window.parent.document.onmouseup) window.parent.document.onmouseup(arguments[0]);}" width="512" viewBox="0 0 512 512" height="512" enable-background="new 0 0 512 512" id="Capa_1"><g><g id="_x3C_Group_x3E__22_"><path data-cppathid="10000" fill="#b3e59f" d="m247.131 18.149-101.025 103.149c-6.172 6.409-8.048 17.956.85 17.956h45.443c1.637 0 3.183.39 4.55 1.082 3.287 1.663 8.732 3.324 8.732 7.26l3.745 340.34c0 5.572 4.517 10.09 10.09 10.09l7.975 6.474h68.729c5.572 0 10.09-4.517 10.09-10.09v-39.95l-31.648-144.608 31.648-128.672v-31.836c0-5.572 4.517-10.09 10.09-10.09h45.443c8.897 0 13.439-10.679 7.268-17.088l-102.214-106.143-5.231 2.126c-3.968-4.121-10.566-4.121-14.535 0z"/><path data-cppathid="10001" fill="#95d6a4" d="m266.9 16.02-118.64 123.23h-1.3c-8.9 0-13.44-10.68-7.27-17.08l107.44-111.58c3.97-4.12 10.57-4.12 14.54 0z"/><path data-cppathid="10002" fill="#95d6a4" d="m256.08 172.32c-8.104 0-16.104.663-23.943 1.955-2.436.401-4.647-1.47-4.647-3.939v-20.996c0-5.573-4.517-10.09-10.09-10.09h-25c5.57 0 10.09 4.52 10.09 10.09v33.12 270.72 41.23c0 5.573 4.517 10.09 10.09 10.09h14.91v-39.196c0-2.468 2.212-4.34 4.647-3.939 7.839 1.291 15.839 1.955 23.943 1.955 17.42 0 34.36-3.04 50.23-8.86v-273.28c-15.87-5.82-32.81-8.86-50.23-8.86z"/><g><path data-cppathid="10003" fill="#f7f9fa" d="m346.945 226.96c-50.182-50.182-131.544-50.182-181.726 0s-45.044 129.683 5.139 179.866 126.406 52.043 176.588 1.861 50.182-131.545-.001-181.727z"/><path data-cppathid="10004" fill="#e9edf1" d="m352.742 402.483c-1.84 2.11-3.78 4.18-5.8 6.2-50.18 50.19-131.54 50.19-181.72 0-50.19-50.18-50.19-131.54 0-181.72 2.02-2.02 4.09-3.96 6.2-5.8-44.31 50.47-42.37 127.36 5.8 175.52 48.16 48.17 125.05 50.11 175.52 5.8z"/><path data-cppathid="10005" fill="#e9edf1" d="m325.772 248.133c-38.489-38.489-100.892-38.489-139.381 0s-34.098 96.204 4.391 134.693 96.501 43.177 134.989 4.688 38.49-100.892.001-139.381z"/><path data-cppathid="10006" fill="#dce6eb" d="m331.972 380.713c-1.94 2.34-4.01 4.61-6.2 6.8-38.49 38.49-100.89 38.49-139.38 0s-38.49-100.89 0-139.38c2.19-2.19 4.46-4.26 6.8-6.2-32.17 38.72-30.1 96.28 6.2 132.58s93.86 38.37 132.58 6.2z"/></g></g><g><path data-cppathid="10007" d="m395.263 295.072c-.662-4.089-4.511-6.868-8.604-6.203-4.089.663-6.866 4.515-6.203 8.604 6.654 41.049-7.306 82.694-37.343 111.398-24.39 23.306-55.76 34.879-87.087 34.876-33.21-.003-66.372-13.015-91.066-38.849-23.246-24.318-35.624-56.238-34.853-89.879.771-33.643 14.6-64.98 38.939-88.239 50.242-48.013 130.163-46.231 178.154 3.973 7.824 8.185 14.493 17.335 19.82 27.197 1.969 3.643 6.52 5.003 10.163 3.034 3.645-1.969 5.003-6.519 3.034-10.164-5.964-11.04-13.425-21.279-22.175-30.433-12.981-13.579-28.052-23.983-44.234-31.21v-39.834c0-1.428 1.162-2.589 2.59-2.589h45.442c7.176 0 13.378-4.102 16.187-10.706 2.809-6.603 1.462-13.916-3.516-19.085l-107.442-111.575c-3.346-3.474-7.845-5.388-12.67-5.388-4.824 0-9.324 1.914-12.67 5.389l-40.368 41.921c-2.873 2.983-2.784 7.731.2 10.604 2.983 2.874 7.731 2.783 10.604-.2l40.368-41.92c.665-.69 1.454-.793 1.866-.793s1.201.103 1.866.793l107.442 111.575c1.033 1.073.768 2.221.517 2.81-.25.588-.893 1.576-2.383 1.576h-45.442c-9.699 0-17.59 7.891-17.59 17.589v34.135c-28.837-9.1-60.092-8.752-88.82 1.152v-35.287c0-9.699-7.891-17.589-17.59-17.589h-45.443c-1.49 0-2.132-.987-2.383-1.576-.25-.588-.516-1.736.518-2.81l42.778-44.423c2.873-2.983 2.784-7.731-.2-10.604-2.984-2.875-7.731-2.784-10.604.2l-42.778 44.423c-4.978 5.168-6.325 12.482-3.516 19.085 2.808 6.604 9.01 10.706 16.186 10.706h45.443c1.428 0 2.59 1.162 2.59 2.589v41.453c-13.028 6.257-25.304 14.626-36.306 25.139-27.235 26.026-42.709 61.092-43.572 98.739-.747 32.566 9.525 63.686 29.148 89.111v45.512c0 4.142 3.358 7.5 7.5 7.5s7.5-3.358 7.5-7.5v-28.925c10.819 10.223 22.895 18.414 35.73 24.558v49.48c0 9.699 7.891 17.59 17.59 17.59h83.64c9.699 0 17.59-7.891 17.59-17.59v-47.986c13.991-6.268 27.173-14.943 38.933-26.023v28.897c0 4.142 3.357 7.5 7.5 7.5s7.5-3.358 7.5-7.5v-45.45c23.616-30.634 33.815-69.944 27.52-108.778zm-96.454 199.338c0 1.428-1.162 2.59-2.59 2.59h-83.64c-1.428 0-2.59-1.162-2.59-2.59v-43.349c14.873 5.108 30.449 7.68 46.041 7.679 14.433-.001 28.875-2.203 42.779-6.607z"/><path data-cppathid="10008" d="m185.983 384.868c-2.854-3.002-7.602-3.123-10.603-.268-3.002 2.854-3.122 7.601-.268 10.603 34.268 37.03 94.762 45.892 138.629 18.725 51.776-29.549 70.413-102.497 38.271-153.491-29.548-51.775-102.499-70.411-153.491-38.27-43.94 26.402-64.309 79.077-49.533 128.096 1.195 3.966 5.378 6.212 9.345 5.016 3.966-1.195 6.212-5.379 5.016-9.345-12.792-42.439 4.848-88.047 42.897-110.91 43.428-27.481 107.088-12.211 132.908 33.138 27.481 43.427 12.211 107.088-33.139 132.908-38.582 23.187-89.065 16.373-120.032-16.202z"/><path data-cppathid="10009" d="m201.039 262.667c-8.773 8.773-8.773 23.047 0 31.82 8.09 8.013 22.474 9.212 31.82 0 8.773-8.773 8.773-23.047 0-31.82s-23.047-8.773-31.82 0zm21.213 21.214c-2.925 2.925-7.682 2.924-10.607 0-2.924-2.924-2.924-7.683 0-10.607 2.342-2.16 6.716-3.396 10.607 0 2.924 2.924 2.924 7.683 0 10.607z"/><path data-cppathid="10010" d="m279.332 340.96c-7.96 7.691-9.177 22.872-.001 31.82 7.691 7.959 22.872 9.177 31.819 0 7.959-7.691 9.178-22.873.001-31.82-7.691-7.958-22.872-9.177-31.819 0zm21.213 10.607c2.132 2.233 3.399 6.828-.001 10.606-2.233 2.133-6.829 3.4-10.606 0-2.132-2.234-3.399-6.829.001-10.606 2.235-2.132 6.827-3.4 10.606 0z"/><path data-cppathid="10011" d="m298.583 265.139-94.999 95c-2.929 2.929-2.929 7.678 0 10.606 2.345 2.163 6.713 3.401 10.606 0l95-95c2.929-2.929 2.929-7.678 0-10.606-2.929-2.929-7.677-2.929-10.607 0z"/><path data-cppathid="10012" d="m101.759 379.37c-4.142 0-7.5 3.358-7.5 7.5v117.63c0 4.142 3.358 7.5 7.5 7.5s7.5-3.358 7.5-7.5v-117.63c0-4.142-3.358-7.5-7.5-7.5z"/><path data-cppathid="10013" d="m410.241 379.37c-4.143 0-7.5 3.358-7.5 7.5v117.63c0 4.142 3.357 7.5 7.5 7.5s7.5-3.358 7.5-7.5v-117.63c0-4.142-3.357-7.5-7.5-7.5z"/></g></g></svg>