<?xml version="1.0" encoding="UTF-8"?>
<svg xmlns="http://www.w3.org/2000/svg" onmouseup="{ if(window.parent.document.onmouseup) window.parent.document.onmouseup(arguments[0]);}" width="512" viewBox="0 0 512 512" height="512" enable-background="new 0 0 512 512" id="Capa_1"><g><g><circle data-cppathid="10000" r="40" fill="#a0e5a5" cy="462" cx="396"/><circle data-cppathid="10001" r="100" fill="#ffda8f" cy="216" cx="256"/><g fill="#a0e5a5"><circle data-cppathid="10002" r="40" cy="462" cx="256"/><circle data-cppathid="10003" r="40" cy="462" cx="116"/></g></g><g><path data-cppathid="10004" d="m256 286c5.522 0 10-4.477 10-10v-12.061c11.548-3.993 20.17-15.024 20.17-28.359 0-16.542-13.458-30-30-30-5.514 0-10-4.486-10-10 0-5.469 4.446-9.956 9.9-10h.073c3.561 0 7.309 1.806 10.842 5.226 3.97 3.841 10.3 3.738 14.141-.231 3.841-3.968 3.737-10.299-.23-14.14-5.127-4.962-10.269-7.746-14.896-9.252v-11.183c0-5.523-4.478-10-10-10s-10 4.477-10 10v11.369c-11.54 4.189-19.83 15.282-19.83 28.211 0 16.542 13.458 30 30 30 5.514 0 10 4.486 10 10 0 5.496-4.448 10.001-9.986 10.001-.03 0-.062 0-.093 0-4.327-.04-8.787-2.652-12.897-7.555-3.549-4.232-9.857-4.788-14.088-1.239-4.232 3.548-4.787 9.855-1.239 14.088 5.287 6.307 11.518 10.723 18.134 12.978v12.147c-.001 5.523 4.477 10 9.999 10z"/><path data-cppathid="10005" d="m116 512c27.57 0 50-22.43 50-50 0-23.687-16.561-43.565-38.709-48.699 3.738-12.312 15.191-21.301 28.709-21.301h60c11.247 0 21.638-3.733 30-10.025v31.031c-22.795 4.646-40 24.847-40 48.994 0 27.57 22.43 50 50 50s50-22.43 50-50c0-24.146-17.205-44.348-40-48.994v-31.031c8.362 6.292 18.753 10.025 30 10.025h60c13.518 0 24.971 8.989 28.709 21.301-22.147 5.135-38.709 25.012-38.709 48.699 0 27.57 22.43 50 50 50s50-22.43 50-50c0-24.445-17.638-44.835-40.853-49.147-4.312-23.215-24.702-40.853-49.147-40.853h-60c-16.542 0-30-13.458-30-30v-16.464c8.733-.787 17.31-2.594 25.6-5.428 5.227-1.787 8.015-7.471 6.228-12.697-1.786-5.226-7.473-8.012-12.696-6.228-9.35 3.197-19.15 4.817-29.132 4.817-49.626 0-90-40.374-90-90s40.374-90 90-90 90 40.374 90 90c0 9.983-1.62 19.784-4.815 29.13-1.787 5.226 1.001 10.911 6.227 12.697 5.227 1.786 10.911-1.001 12.697-6.227 3.909-11.433 5.891-23.411 5.891-35.6 0-57.283-44.015-104.471-100-109.541v-72.317l22.929 22.929c3.906 3.905 10.236 3.905 14.143 0 3.905-3.905 3.905-10.237 0-14.143l-40-40c-3.906-3.905-10.236-3.905-14.143 0l-40 40c-3.905 3.905-3.905 10.237 0 14.143s10.237 3.905 14.143 0l22.928-22.929v72.317c-55.985 5.07-100 52.258-100 109.541s44.015 104.471 100 109.541v16.459c0 16.542-13.458 30-30 30h-60c-24.445 0-44.835 17.638-49.147 40.853-23.215 4.312-40.853 24.702-40.853 49.147 0 27.571 22.43 50 50 50zm280-80c16.542 0 30 13.458 30 30s-13.458 30-30 30-30-13.458-30-30 13.458-30 30-30zm-140 0c16.542 0 30 13.458 30 30s-13.458 30-30 30-30-13.458-30-30 13.458-30 30-30zm-140 0c16.542 0 30 13.458 30 30s-13.458 30-30 30-30-13.458-30-30 13.458-30 30-30z"/><circle data-cppathid="10006" r="10" cy="286" cx="326"/></g></g></svg>