<?xml version="1.0" encoding="UTF-8"?>
<svg xmlns="http://www.w3.org/2000/svg" onmouseup="{ if(window.parent.document.onmouseup) window.parent.document.onmouseup(arguments[0]);}" width="512" viewBox="0 0 64 64" height="512" enable-background="new 0 0 64 64" id="Layer_5"><g><g><g><path data-cppathid="10000" fill="#fcd770" d="m62 24v6l-2.48.84c-.39 1.58-1.01 3.06-1.84 4.42l1.17 2.35-4.24 4.24-2.35-1.17c-1.36.83-2.84 1.45-4.42 1.84l-.84.16-1.54-.49c-.3-1.06-.72-2.07-1.24-3.02l.09-.17c6.48-.17 11.69-5.48 11.69-12 0-6.63-5.37-12-12-12-2.36 0-4.56.68-6.42 1.86l-2.06-.7c-.18-.74-.41-1.45-.7-2.14h.01l.91-.7c1.36-.83 2.84-1.45 4.42-1.84l.84-2.48h6l.84 2.48c1.58.39 3.06 1.01 4.42 1.84l2.35-1.17 4.24 4.24-1.17 2.35c.83 1.36 1.45 2.84 1.84 4.42z"/></g><g><path data-cppathid="10001" fill="#e6e9ed" d="m43 34-.18.19-1.63-1.63-2.36 1.22c-.31-.17-.63-.33-.96-.48l.13-.3v-8h12v9z"/></g><g><path data-cppathid="10002" fill="#ff826e" d="m50 21v4h-12v-2-2z"/></g><g><path data-cppathid="10003" fill="#b4dd7f" d="m28.95 28.01c1.89-2.12 3.05-4.93 3.05-8.01 0-6.63-5.37-12-12-12s-12 5.37-12 12c0 3.08 1.16 5.89 3.05 8.01 2.21 2.45 5.4 3.99 8.95 3.99s6.74-1.54 8.95-3.99zm-12.79 7.51c-1.58-.39-3.06-1.01-4.42-1.84l-2.35 1.17-4.24-4.24 1.17-2.35c-.83-1.36-1.45-2.84-1.84-4.42l-2.48-.84v-6l2.48-.84c.39-1.58 1.01-3.06 1.84-4.42l-1.17-2.35 4.24-4.24 2.35 1.17c1.36-.83 2.84-1.45 4.42-1.84l.84-2.48h6l.84 2.48c1.58.39 3.06 1.01 4.42 1.84l2.35-1.17 4.24 4.24-1.17 2.35c.44.73.83 1.49 1.14 2.28.29.69.52 1.4.7 2.14l2.06.7.42.14v4 2l-2.48.84c-.39 1.58-1.01 3.06-1.84 4.42l.87 1.74h-5.55l-.81 2.54c-1.06.3-2.07.72-3.02 1.24l-2.36-1.22-4.25 4.25.62 1.19h-2.18z"/></g><g><path data-cppathid="10004" fill="#e6e9ed" d="m26 20v8h-4v-4h-4v4h-4v-.01-7.99z"/></g><g><path data-cppathid="10005" fill="#aab2bd" d="m22 24v4h-2.37-1.63v-4z"/></g><g><path data-cppathid="10006" fill="#ff826e" d="m28 20h-2-12-2l8-8z"/></g><g><path data-cppathid="10007" fill="#ffc729" d="m48 43v6l-2.54.81c-.3 1.06-.72 2.07-1.24 3.02l1.22 2.36-4.25 4.24-2.36-1.21c-.95.52-1.96.94-3.02 1.24l-.81 2.54h-6l-.81-2.54c-1.06-.3-2.07-.72-3.02-1.24l-2.36 1.21-4.25-4.24 1.22-2.36c-.52-.95-.94-1.96-1.24-3.02l-2.54-.81v-6l2.54-.81c.3-1.06.72-2.07 1.24-3.02l-.6-1.17-.62-1.19 4.25-4.25 2.36 1.22c.95-.52 1.96-.94 3.02-1.24l.81-2.54h5.55.45l.81 2.54c.71.2 1.4.46 2.06.76.33.15.65.31.96.48l2.36-1.22 1.63 1.63 2.62 2.62-1.13 2.19-.09.17c.52.95.94 1.96 1.24 3.02l1.54.49z"/></g><g><circle data-cppathid="10008" r="10" fill="#fcd770" cy="46" cx="32"/></g></g><g><path data-cppathid="10009" d="m32 35c-6.065 0-11 4.935-11 11s4.935 11 11 11 11-4.935 11-11-4.935-11-11-11zm0 20c-4.962 0-9-4.038-9-9s4.038-9 9-9 9 4.038 9 9-4.038 9-9 9z"/><path data-cppathid="10010" d="m31 43h2c.551 0 1 .449 1 1h2c0-1.654-1.346-3-3-3v-2h-2v2c-1.654 0-3 1.346-3 3s1.346 3 3 3h2c.551 0 1 .449 1 1s-.449 1-1 1h-2c-.551 0-1-.449-1-1h-2c0 1.654 1.346 3 3 3v2h2v-2c1.654 0 3-1.346 3-3s-1.346-3-3-3h-2c-.551 0-1-.449-1-1s.449-1 1-1z"/><path data-cppathid="10011" d="m60.347 22.388c-.362-1.285-.874-2.521-1.527-3.685l1.244-2.509-5.258-5.258-2.509 1.244c-1.164-.653-2.399-1.165-3.685-1.527l-.894-2.653h-7.437l-.894 2.653c-1.463.412-2.861 1.018-4.164 1.807l-.026.02c-.128-.258-.236-.525-.377-.777l1.244-2.509-5.258-5.258-2.509 1.244c-1.164-.653-2.399-1.165-3.685-1.527l-.894-2.653h-7.437l-.894 2.653c-1.285.362-2.521.874-3.685 1.527l-2.508-1.244-5.258 5.258 1.244 2.509c-.653 1.164-1.165 2.399-1.527 3.685l-2.653.894v7.437l2.653.894c.362 1.285.874 2.521 1.527 3.685l-1.244 2.509 5.258 5.258 2.509-1.244c1.164.653 2.399 1.165 3.685 1.527l.894 2.652h2.287l.085.165c-.363.71-.671 1.457-.919 2.229l-2.735.877v7.459l2.734.876c.249.773.556 1.52.919 2.229l-1.312 2.548 5.274 5.274 2.549-1.312c.71.363 1.457.671 2.229.919l.878 2.736h7.459l.876-2.734c.772-.248 1.519-.556 2.229-.919l2.549 1.312 5.274-5.274-1.312-2.548c.363-.709.67-1.456.919-2.229l2.735-.879v-6.502c1.146-.352 2.251-.82 3.297-1.407l2.509 1.244 5.258-5.258-1.244-2.509c.653-1.164 1.165-2.399 1.527-3.685l2.653-.894v-7.437zm-43.944 12.159c-1.462-.36-2.856-.938-4.144-1.718l-.47-.285-2.196 1.09-3.227-3.227 1.09-2.196-.285-.47c-.779-1.288-1.357-2.682-1.718-4.144l-.131-.533-2.322-.782v-4.563l2.322-.782.131-.533c.36-1.462.938-2.856 1.718-4.144l.285-.47-1.09-2.196 3.227-3.227 2.196 1.09.47-.285c1.288-.779 2.682-1.357 4.144-1.718l.533-.131.782-2.323h4.563l.782 2.322.533.131c1.462.36 2.856.938 4.144 1.718l.47.285 2.196-1.09 3.227 3.227-1.09 2.196.285.47c.779 1.288 1.357 2.682 1.718 4.144l.131.533 2.323.782v2.282 2.282l-2.322.782-.131.533c-.36 1.462-.938 2.856-1.718 4.144l-.285.47.392.789h-3.577c2.249-2.338 3.641-5.507 3.641-9 0-7.168-5.832-13-13-13s-13 5.832-13 13 5.832 13 13 13c.341 0 .675-.025 1.009-.051l-3.482 3.482-.591-1.753zm22.597-17.319c1.543-.791 3.246-1.228 5-1.228 6.065 0 11 4.935 11 11 0 5.409-3.813 9.849-8.951 10.8l.609-1.184-1.616-1.616h5.958v-15h-12zm-3.831 11.772-.349-.703c.653-1.164 1.165-2.399 1.527-3.685l.653-.22v7.486c-.132-.047-.26-.101-.394-.144l-.877-2.734zm13.831-5h-10v-.282-1.718h10zm-10 2h10v7h-5.958l-1.658-1.658-2.384 1.226zm-10.521 1h-1.479v-6h1c.404 0 .769-.244.924-.617.155-.374.069-.804-.217-1.09l-8-8c-.391-.391-1.023-.391-1.414 0l-8 8c-.286.286-.372.716-.217 1.09.155.373.52.617.924.617h1v6h-1.479c-1.574-1.903-2.521-4.343-2.521-7 0-6.065 4.935-11 11-11s11 4.935 11 11c0 2.657-.947 5.097-2.521 7zm-7.479 0h-1.373-.627v-2h2zm-4-4v4h-2v-6h10v6h-2v-4zm-2.586-4 5.586-5.586 5.586 5.586zm5.213 10h6.677c-1.787 1.256-3.959 2-6.305 2s-4.517-.744-6.305-2zm8.212 1.346-.445 1.388c-.772.248-1.519.556-2.229.919l-.813-.418c1.264-.451 2.437-1.091 3.487-1.889zm19.161 17.925-2.356.755-.146.517c-.279.988-.667 1.928-1.153 2.795l-.263.469 1.13 2.195-3.211 3.211-2.195-1.129-.468.262c-.869.486-1.81.875-2.796 1.153l-.517.146-.754 2.355h-4.541l-.755-2.356-.517-.146c-.986-.279-1.927-.667-2.796-1.153l-.468-.262-2.195 1.129-3.211-3.211 1.13-2.195-.263-.469c-.486-.867-.874-1.808-1.153-2.795l-.146-.517-2.356-.754v-4.541l2.356-.755.146-.517c.279-.986.667-1.927 1.153-2.796l.262-.468-1.129-2.195 3.211-3.211 2.195 1.129.468-.262c.869-.486 1.81-.875 2.796-1.153l.517-.146.754-2.356h4.541l.755 2.356.517.146c.986.279 1.927.667 2.796 1.153l.468.262 2.195-1.129 3.211 3.211-1.129 2.195.262.468c.486.869.875 1.81 1.153 2.796l.146.517 2.356.754zm14-18.989-2.322.782-.131.533c-.361 1.462-.938 2.856-1.718 4.144l-.285.47 1.09 2.196-3.227 3.227-2.196-1.09-.47.285c-1.288.779-2.682 1.357-4.093 1.707l-.588.113-.794-.255c-.165-.515-.367-1.013-.584-1.502 6.445-.816 11.318-6.241 11.318-12.892 0-7.168-5.832-13-13-13-2.307 0-4.551.614-6.53 1.766l-1.124-.379c-.097-.343-.231-.672-.349-1.007l.309-.238c1.275-.765 2.653-1.333 4.097-1.689l.533-.131.782-2.322h4.563l.782 2.322.533.131c1.462.36 2.856.938 4.144 1.718l.47.285 2.196-1.09 3.227 3.227-1.09 2.196.285.47c.779 1.288 1.357 2.682 1.718 4.144l.131.533 2.323.782z"/></g></g></svg>