<?xml version="1.0" encoding="UTF-8"?>
<svg xmlns="http://www.w3.org/2000/svg" onmouseup="{ if(window.parent.document.onmouseup) window.parent.document.onmouseup(arguments[0]);}" width="512" viewBox="0 0 508.872 508.872" height="512" enable-background="new 0 0 508.872 508.872" id="Capa_1"><g><g><path data-cppathid="10000" fill="#f9f7f8" d="m445.426 309.416-192.02-254.55-162.972 213.64v216.415h351.613l4.379-20.715z"/><g><g id="XMLID_132_"><g><path data-cppathid="10001" fill="#efedef" d="m446.899 459.978h-305.116l-21.129-20.715v-137.763c0-5.666 1.862-11.175 5.299-15.68l128.453-168.353 179.403 235.128c2.03 2.66 5.184 4.221 8.53 4.221h3.894l-.306-47.4-192.02-254.55-156.304 204.9v24.063h-18.357l-17.36 22.757v157.62l21.129 20.715h359.532l4.379-20.715z"/><path data-cppathid="10002" fill="#5f99d7" d="m480.446 327.996c2.76 3.61.18 8.82-4.36 8.82h-29.16l-189.512-248.377c-1.515-1.985-4.502-1.985-6.017 0l-189.511 248.377h-29.16c-4.54 0-7.12-5.21-4.36-8.82l213.32-279.59c3.03-3.96 7.73-6.29 12.72-6.29s9.69 2.33 12.72 6.29z"/></g></g></g><path data-cppathid="10003" fill="#efedef" d="m446.696 427.966h-.77-384.04v36.24l37.9 17.998h340.571l6.569-17.998z"/><g><path data-cppathid="10004" fill="#fccd7f" d="m285.088 378.958c-.001 0-12.292-7.363-12.79-7.197s-16.773-4.979-16.773-4.979l-24.225 7.635-13.777 19.586v62.742 25.461h77.098v-77.076c0-9.969-3.587-19.095-9.533-26.172z"/></g><path data-cppathid="10005" fill="#fbc56d" d="m249.577 419.33c0-20.722 15.484-37.816 35.511-40.373-7.469-8.89-18.663-14.545-31.182-14.545-22.486 0-40.715 18.229-40.715 40.715v77.076h36.386z"/><path data-cppathid="10006" fill="#c9bfc8" d="m456.883 463.529c5.192 0 9.401 4.209 9.401 9.401v17.756c0 3.549-2.877 6.425-6.425 6.425h-408.668c-3.549 0-6.425-2.877-6.425-6.425v-11.449c0-8.675 7.032-15.707 15.707-15.707h396.41z"/><path data-cppathid="10007" fill="#aa9ea9" d="m101.862 490.686v-11.449c0-8.675 7.032-15.707 15.707-15.707h-57.096c-8.675 0-15.707 7.032-15.707 15.707v11.449c0 3.549 2.877 6.425 6.425 6.425h57.096c-3.548 0-6.425-2.877-6.425-6.425z"/><path data-cppathid="10008" fill="#e5e1e5" d="m61.886 427.966v36.24h35.56 21.536v-36.24z"/><path data-cppathid="10009" fill="#6bd9e7" d="m358.342 343.62h-34.699v-50.719c0-9.582 7.768-17.349 17.349-17.349 9.582 0 17.349 7.768 17.349 17.349v50.719z"/><path data-cppathid="10010" fill="#3c87d0" d="m329.983 130.791-22.833 22.833 45.904 60.162 22.832-22.832z"/><path data-cppathid="10011" fill="#46cc8d" d="m495.085 12.436h-112.411c-5.6 0-8.405 6.771-4.445 10.731l43.831 43.831-142.041 142.042c-1.232 1.232-3.339.36-3.339-1.383v-24.105c0-2.765-3.392-4.095-5.271-2.067l-261.609 282.318c-3.24 3.497-3.091 8.942.335 12.256l12.17 11.771c3.527 3.412 9.169 3.262 12.511-.331l203.475-218.795c1.21-1.301 3.389-.445 3.389 1.332v19.499c0 2.709 3.275 4.066 5.191 2.15l199.938-199.938 43.831 43.831c3.96 3.96 10.731 1.155 10.731-4.445v-112.411c0-3.472-2.814-6.286-6.286-6.286z"/></g><g><path data-cppathid="10012" d="m387.97 194.426c-2.512-3.293-7.219-3.925-10.512-1.413s-3.926 7.219-1.413 10.512l95.974 125.787h-21.383l-85.497-112.055c-2.513-3.293-7.219-3.925-10.512-1.413s-3.926 7.219-1.413 10.512l86.21 112.99v81.122h-137.303v-15.34c0-26.586-21.629-48.215-48.215-48.215s-48.215 21.629-48.215 48.215v15.34h-74.544c-4.142 0-7.5 3.358-7.5 7.5s3.358 7.5 7.5 7.5h74.544v21.236h-108.243c-4.142 0-7.5 3.358-7.5 7.5s3.358 7.5 7.5 7.5h115.733.01 81.43.01 64.546c4.142 0 7.5-3.358 7.5-7.5s-3.358-7.5-7.5-7.5h-57.056v-21.236h137.304v21.236h-48.286c-4.142 0-7.5 3.358-7.5 7.5s3.358 7.5 7.5 7.5h55.786 10.337c.839 0 1.522.683 1.522 1.523v15.709h-391.311c-4.142 0-7.5 3.358-7.5 7.5s3.358 7.5 7.5 7.5h398.811c4.142 0 7.5-3.358 7.5-7.5v-23.209c0-9.111-7.412-16.523-16.522-16.523h-2.837v-112.392h21.66c4.975 0 9.435-2.77 11.641-7.228s1.702-9.685-1.315-13.639zm-167.279 262.278v-51.576c0-18.315 14.9-33.215 33.215-33.215s33.215 14.9 33.215 33.215v51.576z"/><path data-cppathid="10013" d="m32.727 344.312h21.66v19.143c0 4.142 3.358 7.5 7.5 7.5s7.5-3.358 7.5-7.5v-24.108l185.019-242.49 40.663 53.293c2.513 3.293 7.219 3.925 10.512 1.413s3.926-7.219 1.413-10.512l-46.625-61.108c-1.418-1.859-3.624-2.951-5.962-2.951-2.339 0-4.544 1.091-5.962 2.951l-190.269 249.369h-21.383l148.961-195.233c2.513-3.293 1.88-8-1.413-10.512-3.292-2.514-8-1.881-10.512 1.413l-151.428 198.465c-3.018 3.955-3.521 9.181-1.315 13.639s6.666 7.228 11.641 7.228z"/><path data-cppathid="10014" d="m194.642 110.066c3.292 2.513 7.999 1.88 10.512-1.413l42.495-55.694c1.598-2.094 4.124-3.344 6.758-3.344s5.16 1.25 6.758 3.344l56.736 74.36c1.476 1.935 3.709 2.951 5.968 2.951 1.586 0 3.186-.501 4.544-1.538 3.293-2.512 3.926-7.219 1.413-10.512l-56.736-74.361c-4.417-5.789-11.401-9.245-18.683-9.245-7.281 0-14.266 3.456-18.683 9.245l-42.495 55.694c-2.513 3.294-1.88 8.001 1.413 10.513z"/><path data-cppathid="10015" d="m340.992 268.052c-13.702 0-24.85 11.147-24.85 24.849v43.426c-3.309.78-5.775 3.745-5.775 7.293 0 4.142 3.358 7.5 7.5 7.5h5.775 34.699 6.669c4.142 0 7.5-3.358 7.5-7.5 0-3.861-2.918-7.038-6.669-7.451v-43.267c.001-13.702-11.147-24.85-24.849-24.85zm-9.849 68.068v-43.219c0-5.431 4.418-9.849 9.85-9.849s9.85 4.418 9.85 9.849v43.219z"/><path data-cppathid="10016" d="m495.085 4.936h-40.142c-4.142 0-7.5 3.358-7.5 7.5s3.358 7.5 7.5 7.5h38.928v108.268l-41.759-41.759c-2.929-2.929-7.678-2.929-10.606 0l-192.327 192.326v-8.734c0-3.914-2.354-7.368-5.996-8.8-3.641-1.432-7.719-.505-10.385 2.361l-203.474 218.794c-.299.321-.65.396-.892.403-.239.011-.597-.05-.912-.354l-12.17-11.772c-.49-.474-.512-1.267-.048-1.768l253.878-273.977v12.732c0 3.838 2.292 7.268 5.837 8.736 3.546 1.469 7.591.665 10.305-2.05l142.041-142.041c2.929-2.929 2.929-7.678 0-10.606l-41.759-41.759h37.377c4.142 0 7.5-3.358 7.5-7.5s-3.358-7.5-7.5-7.5h-40.308c-5.596 0-10.595 3.34-12.736 8.51-2.142 5.17-.969 11.068 2.988 15.024l38.528 38.528-127.274 127.274v-10.721c0-4.367-2.627-8.219-6.692-9.813-4.068-1.594-8.611-.554-11.58 2.649l-261.609 282.319c-5.966 6.439-5.687 16.643.623 22.745l12.17 11.772c3.059 2.959 7.055 4.573 11.294 4.573.147 0 .295-.002.443-.006 4.403-.117 8.48-1.957 11.479-5.183l193.871-208.468v5.397c0 4.278 2.554 8.101 6.507 9.739 3.952 1.637 8.461.74 11.487-2.285l194.636-194.636 38.528 38.528c3.957 3.958 9.855 5.13 15.024 2.988 5.17-2.141 8.511-7.141 8.511-12.736v-112.412c.001-7.602-6.184-13.786-13.786-13.786z"/></g></g></svg>