<?xml version="1.0" encoding="UTF-8"?>
<svg xmlns="http://www.w3.org/2000/svg" onmouseup="{ if(window.parent.document.onmouseup) window.parent.document.onmouseup(arguments[0]);}" width="512" viewBox="0 0 512 512" height="512"><g id="flat"><path data-cppathid="10000" fill="#48351b" d="m336 488h144l-3.554-24.879a60 60 0 0 0 -32.564-45.18l-147.882-73.941h-80l-147.882 73.941a60 60 0 0 0 -32.564 45.18l-3.554 24.879h144"/><path data-cppathid="10001" fill="#332613" d="m424 488v-32a8 8 0 0 1 16 0v32z"/><path data-cppathid="10002" fill="#5f4623" d="m216 344-64 32 24 48 40-32z"/><path data-cppathid="10003" fill="#6e5129" d="m208 488h-32l-24-72 56-24z"/><path data-cppathid="10004" fill="#5f4623" d="m296 344 64 32-24 48-40-32z"/><path data-cppathid="10005" fill="#6e5129" d="m304 488h32l24-72-56-24z"/><path data-cppathid="10006" fill="#e6af89" d="m296 312v19.64c-.08.06-.17.11-.25.17a70.9 70.9 0 0 1 -79.75-.17v-19.64z"/><path data-cppathid="10007" fill="#fdc9a6" d="m216 312v32l-8 24 48 48 48-48-8-24v-32z"/><path data-cppathid="10008" fill="#e6af89" d="m296 312v19.64c-.08.06-.17.11-.25.17a70.9 70.9 0 0 1 -79.75-.17v-19.64z"/><path data-cppathid="10009" fill="#026ca2" d="m304 368-48 48-48-48v120h96z"/><path data-cppathid="10010" fill="#332613" d="m72 488v-32a8 8 0 0 1 16 0v32z"/><path data-cppathid="10011" fill="#55300b" d="m152 200v-72.022a57.888 57.888 0 0 1 16.955-40.933l14.09-14.09a57.888 57.888 0 0 1 40.933-16.955h44.245a57.889 57.889 0 0 1 51.777 32 44.846 44.846 0 0 1 37.313 19.969 16 16 0 0 1 2.687 8.875v83.156z"/><path data-cppathid="10012" fill="#fdc9a6" d="m256 328a70.9 70.9 0 0 1 -65.827-44.567 198.156 198.156 0 0 1 -14.173-73.596v-57.837l24-40.73h112l24 40.73v57.837a198.156 198.156 0 0 1 -14.173 73.6 70.9 70.9 0 0 1 -65.827 44.563z"/><g fill="#55300b"><path data-cppathid="10013" d="m304 184h-24a8 8 0 0 1 0-16h24a8 8 0 0 1 0 16z"/><circle data-cppathid="10014" r="10" cy="202" cx="290"/><path data-cppathid="10015" d="m232 184h-24a8 8 0 0 1 0-16h24a8 8 0 0 1 0 16z"/><circle data-cppathid="10016" r="10" cy="202" cx="222"/></g><path data-cppathid="10017" fill="#e6af89" d="m272 280h-32a8 8 0 0 1 0-16h32a8 8 0 0 1 0 16z"/><path data-cppathid="10018" fill="#e6af89" d="m264 248h-16a8 8 0 0 1 -8-8v-24a8 8 0 0 1 16 0v16h8a8 8 0 0 1 0 16z"/><path data-cppathid="10019" fill="#fdc9a6" d="m176 176h-11.056a20.944 20.944 0 0 0 -20.944 20.944v14.112a20.944 20.944 0 0 0 2.211 9.366 20.944 20.944 0 0 0 18.733 11.578h19.056z"/><path data-cppathid="10020" fill="#fdc9a6" d="m336 176h11.056a20.944 20.944 0 0 1 20.944 20.944v14.112a20.944 20.944 0 0 1 -2.211 9.366 20.944 20.944 0 0 1 -18.733 11.578h-19.056z"/></g></svg>