<?xml version="1.0" encoding="UTF-8"?>
<svg xmlns="http://www.w3.org/2000/svg" onmouseup="{ if(window.parent.document.onmouseup) window.parent.document.onmouseup(arguments[0]);}" width="512" viewBox="0 0 64 64" height="512" enable-background="new 0 0 64 64" id="_x33_0"><g><g><path data-cppathid="10000" fill="#f0d0b4" d="m14 41 .77-2.12 6.77 3.39c.01.05.02.11.02.17l-2.3 3.47c-.78 1.3-2.19 2.09-3.7 2.09-1.58 0-3.03-.86-3.79-2.25l-4.49-8.23c-.17-.32-.51-.52-.87-.52h-2.41c-.55 0-1.05-.22-1.41-.59-.37-.36-.59-.86-.59-1.41 0-1.1.9-2 2-2h4.15c1.13 0 2.17.64 2.68 1.66z"/><path data-cppathid="10001" fill="#f0d0b4" d="m50 41 3.17-6.34c.51-1.02 1.55-1.66 2.68-1.66h4.15c1.1 0 2 .9 2 2 0 .55-.22 1.05-.59 1.41-.36.37-.86.59-1.41.59h-2.41c-.36 0-.7.2-.87.52l-4.49 8.23c-.76 1.39-2.21 2.25-3.79 2.25-1.51 0-2.92-.79-3.7-2.09l-2.3-3.47c0-.06.01-.12.02-.17l6.77-3.39z"/><path data-cppathid="10002" fill="#fcd770" d="m21.54 42.27-6.77-3.39 1.31-3.59c1.19-3.29 4.01-5.71 7.43-6.39l2.49-.5 1 6.6 2-1.2 1 3.2-2 14 4 6 4-6-2-14 1-3.2 2 1.2 1-6.6 2.49.5c3.42.68 6.24 3.1 7.43 6.39l1.31 3.59-6.77 3.39c-.01.05-.02.11-.02.17-.23 2.63-.44 5.8-.44 8.56 0 6 1 11 1 11h-11-11s1-5 1-11c0-2.76-.21-5.93-.44-8.56 0-.06-.01-.12-.02-.17z"/><path data-cppathid="10003" fill="#b4dd7f" d="m34 37 2 14-4 6-4-6 2-14z"/><path data-cppathid="10004" fill="#a0d468" d="m35 33.8-1 3.2h-4l-1-3.2 3-1.8z"/><path data-cppathid="10005" fill="#e6e9ed" d="m38 28.4-1 6.6-2-1.2-3-1.8 4-4z"/><path data-cppathid="10006" fill="#e6e9ed" d="m32 32-3 1.8-2 1.2-1-6.6 2-.4z"/><path data-cppathid="10007" fill="#ff826e" d="m15 21v4h-6v2l-6-4 6-4v2z"/><path data-cppathid="10008" fill="#ff826e" d="m61 23-6 4v-2h-6v-4h6v-2z"/><path data-cppathid="10009" fill="#656d78" d="m24 13c-.77 0-1.46.29-1.99.77l-.01-.01s-.25-.69-.5-1.63c-.25-.93-.5-2.13-.5-3.13 0-.83.34-1.58.88-2.12s1.29-.88 2.12-.88l.78-1.04c.7-.93 1.6-1.67 2.61-2.18 1.01-.5 2.15-.78 3.31-.78.86 0 1.71.15 2.52.45l6.58 2.39c.96.35 1.76.98 2.32 1.78s.88 1.76.88 2.78c0 .4-.05.79-.15 1.18l-.85 3.19c-.53-.48-1.23-.77-2-.77h-1c-2.5 0-5.25-1-7.38-2-2.12-1-3.62-2-3.62-2-1.41.95-2.41 2.38-2.81 4z"/><g fill="#f0d0b4"><path data-cppathid="10010" d="m35.07 24.29.93 3.71-4 4-4-4 .93-3.71c.92.46 1.96.71 3.07.71s2.15-.25 3.07-.71z"/><path data-cppathid="10011" d="m42.12 18.12c-.54.54-1.29.88-2.12.88h-1.07-.01c.06-.33.08-.66.08-1v-5h1c.77 0 1.47.29 2 .77.62.54 1 1.34 1 2.23 0 .83-.34 1.58-.88 2.12z"/><path data-cppathid="10012" d="m39 13v5c0 .34-.02.67-.08 1-.32 2.34-1.81 4.3-3.85 5.29-.92.46-1.96.71-3.07.71s-2.15-.25-3.07-.71c-2.04-.99-3.53-2.95-3.85-5.29-.06-.33-.08-.66-.08-1v-3.39c0-.55.07-1.09.19-1.61.4-1.62 1.4-3.05 2.81-4 0 0 1.5 1 3.62 2 2.13 1 4.88 2 7.38 2z"/><path data-cppathid="10013" d="m25 18c0 .34.02.67.08 1h-.01-1.07c-.83 0-1.58-.34-2.12-.88s-.88-1.29-.88-2.12c0-.89.39-1.7 1.01-2.23.53-.48 1.22-.77 1.99-.77h1.19c-.12.52-.19 1.06-.19 1.61z"/></g></g><g><path data-cppathid="10014" d="m10 26h6v-6h-6v-2.869l-8.803 5.869 8.803 5.869zm-2-.869-3.197-2.131 3.197-2.131v1.131h6v2h-6z"/><path data-cppathid="10015" d="m54 28.869 8.803-5.869-8.803-5.869v2.869h-6v6h6zm-4-4.869v-2h6v-1.131l3.197 2.131-3.197 2.131v-1.131z"/><path data-cppathid="10016" d="m60 32h-4.146c-1.525 0-2.896.847-3.578 2.211l-2.131 4.262-1.284-3.53c-1.304-3.586-4.438-6.278-8.18-7.027l-3.865-.773-.591-2.363c1.715-1.073 2.991-2.773 3.511-4.78h.264c2.206 0 4-1.794 4-4 0-.946-.344-1.805-.896-2.491l.721-2.687c.116-.464.175-.942.175-1.42 0-2.454-1.549-4.666-3.855-5.504l-6.579-2.392c-.922-.336-1.888-.506-2.869-.506-2.628 0-5.139 1.255-6.715 3.358l-.508.676c-1.958.258-3.474 1.939-3.474 3.966 0 1.609.566 3.587.871 4.539-.537.681-.871 1.529-.871 2.461 0 2.206 1.794 4 4 4h.263c.519 2.007 1.796 3.707 3.511 4.78l-.591 2.363-3.865.773c-3.742.749-6.876 3.441-8.18 7.027l-1.284 3.53-2.131-4.262c-.681-1.364-2.052-2.211-3.577-2.211h-4.146c-1.654 0-3 1.346-3 3s1.346 3 3 3h2.406l4.49 8.231c.931 1.708 2.718 2.769 4.663 2.769 1.854 0 3.599-.988 4.53-2.539l.697-1.048c.124 1.869.214 3.821.214 5.587 0 5.822-.971 10.755-.98 10.804l-.239 1.196h12.219 11 1.219l-.239-1.196c-.009-.049-.98-4.982-.98-10.804 0-1.767.09-3.719.215-5.589l.672 1.011c.955 1.59 2.7 2.578 4.554 2.578 1.945 0 3.732-1.061 4.663-2.769l4.49-8.231h2.406c1.654 0 3-1.346 3-3s-1.346-3-3-3zm-23.132-2.807-.633 4.182-2.622-1.574 2.716-2.716zm-6.001 8.807h2.265l1.823 12.764-2.955 4.433-2.956-4.434zm2.398-2h-2.53l-.546-1.747 1.811-1.087 1.811 1.086zm6.735-18v-4c1.103 0 2 .897 2 2s-.897 2-2 2zm-18-2c0-1.103.897-2 2-2h.037c-.015.201-.037.401-.037.605v3.395c-1.103 0-2-.897-2-2zm2.46-4h-.46c-.503 0-.979.104-1.423.274-.265-.92-.577-2.225-.577-3.274 0-1.103.897-2 2-2h.5l1.082-1.442c1.201-1.602 3.113-2.558 5.115-2.558.747 0 1.482.129 2.185.385l6.579 2.392c1.518.552 2.539 2.009 2.539 3.625 0 .315-.039.63-.111.919l-.52 1.936c-.429-.158-.886-.257-1.369-.257h-1c-4.633 0-10.388-3.794-10.446-3.833l-.554-.369-.554.37c-1.406.937-2.434 2.289-2.986 3.832zm1.54 6v-3.395c0-1.709.755-3.309 2.047-4.393 1.562.955 5.875 3.378 9.953 3.741v4.047c0 3.309-2.691 6-6 6s-6-2.691-6-6zm6 8c.828 0 1.627-.127 2.379-.361l.514 2.055-2.893 2.892-2.892-2.892.514-2.055c.751.234 1.55.361 2.378.361zm-4.329 3.086 2.716 2.716-2.622 1.574-.633-4.182zm-9.273 16.307c-.595.991-1.683 1.607-2.839 1.607-1.213 0-2.326-.661-2.907-1.726l-4.49-8.231c-.351-.644-1.024-1.043-1.756-1.043h-2.406c-.551 0-1-.448-1-1s.449-1 1-1h4.146c.762 0 1.448.424 1.789 1.105l4.171 8.342 1.789-.895-.808-1.615.239-.656 4.855 2.427zm13.602 15.607h-9.809c.299-1.852.809-5.646.809-10 0-5.993-.998-14.043-1.008-14.124l-1.984.248c.004.033.176 1.425.375 3.449l-4.369-2.184 1.004-2.762c1.067-2.934 3.631-5.137 6.693-5.75l1.457-.291 1.067 7.039 2.19-1.314.553 1.771-2.022 14.154 5.044 7.567 5.044-7.566-2.022-14.154.553-1.771 2.19 1.314 1.067-7.039 1.457.291c3.062.613 5.626 2.815 6.693 5.75l1.004 2.762-4.369 2.184c.199-2.024.371-3.416.375-3.449l-1.984-.248c-.01.08-1.008 8.13-1.008 14.123 0 4.354.51 8.148.809 10zm28-25h-2.406c-.732 0-1.405.399-1.756 1.043l-4.49 8.231c-.581 1.065-1.694 1.726-2.907 1.726-1.156 0-2.244-.616-2.864-1.646l-1.758-2.645 4.855-2.427.239.656-.808 1.615 1.789.895 4.171-8.342c.341-.682 1.027-1.106 1.789-1.106h4.146c.551 0 1 .448 1 1s-.449 1-1 1z"/></g></g></svg>