<?xml version="1.0" encoding="UTF-8"?>
<svg xmlns="http://www.w3.org/2000/svg" onmouseup="{ if(window.parent.document.onmouseup) window.parent.document.onmouseup(arguments[0]);}" width="512" viewBox="0 0 512 512" height="512" enable-background="new 0 0 512 512" id="Capa_1"><g><g><g><g><g><path data-cppathid="10000" fill="#f7f4f7" d="m403.947 232.749h-171.024v235.048h185.065v-221.007c0-7.754-6.287-14.041-14.041-14.041z"/><path data-cppathid="10001" fill="#edeaed" d="m465.666 232.749h-65.05c7.755 0 14.041 6.286 14.041 14.041v221.007h65.05v-221.007c0-7.754-6.286-14.041-14.041-14.041z"/><g><g><g><path data-cppathid="10002" fill="#edeaed" d="m213.164 29.179-145.798-11.427c-8.162-.64-15.138 5.811-15.138 13.998v37.995l167.819 13.152v-41.645c0-5.111-2.746-9.617-6.883-12.073z"/></g><path data-cppathid="10003" fill="#d1ccd3" d="m267.469 33.435-59.91-4.695c4.579 2.33 7.68 7.08 7.68 12.512v41.269l65.174 5.108v-40.196c0-7.329-5.637-13.426-12.944-13.998z"/><path data-cppathid="10004" fill="#c1bcc4" d="m234.259 66.453-186.828-14.642c-8.162-.64-15.138 5.811-15.138 13.998v401.988h207.688v-390.048c0-4.615-2.242-8.731-5.722-11.296z"/><path data-cppathid="10005" fill="#a39ba3" d="m287.404 70.618-58.56-4.589c3.824 2.521 6.33 6.842 6.33 11.72v390.048h65.174v-383.181c0-7.329-5.637-13.425-12.944-13.998z"/><g fill="#c9e0fd"><g><path data-cppathid="10006" d="m101.745 152.408h-31.275c-3.096 0-5.607-2.51-5.607-5.607v-24.062c0-3.096 2.51-5.607 5.607-5.607h31.275c3.096 0 5.607 2.51 5.607 5.607v24.062c-.001 3.096-2.511 5.607-5.607 5.607z"/><path data-cppathid="10007" d="m179.722 152.408h-31.275c-3.096 0-5.607-2.51-5.607-5.607v-24.062c0-3.096 2.51-5.607 5.607-5.607h31.275c3.096 0 5.607 2.51 5.607 5.607v24.062c0 3.096-2.51 5.607-5.607 5.607z"/><path data-cppathid="10008" d="m239.981 117.132h-13.556c-3.096 0-5.607 2.51-5.607 5.607v24.062c0 3.097 2.51 5.607 5.607 5.607h13.556z"/></g><g><path data-cppathid="10009" d="m101.745 221.879h-31.275c-3.096 0-5.607-2.51-5.607-5.607v-24.062c0-3.096 2.51-5.607 5.607-5.607h31.275c3.096 0 5.607 2.51 5.607 5.607v24.062c-.001 3.097-2.511 5.607-5.607 5.607z"/><path data-cppathid="10010" d="m179.722 221.879h-31.275c-3.096 0-5.607-2.51-5.607-5.607v-24.062c0-3.096 2.51-5.607 5.607-5.607h31.275c3.096 0 5.607 2.51 5.607 5.607v24.062c0 3.097-2.51 5.607-5.607 5.607z"/><path data-cppathid="10011" d="m239.981 186.604h-13.556c-3.096 0-5.607 2.51-5.607 5.607v24.062c0 3.097 2.51 5.607 5.607 5.607h13.556z"/></g><g><path data-cppathid="10012" d="m101.745 291.351h-31.275c-3.096 0-5.607-2.51-5.607-5.607v-24.062c0-3.096 2.51-5.607 5.607-5.607h31.275c3.096 0 5.607 2.51 5.607 5.607v24.062c-.001 3.097-2.511 5.607-5.607 5.607z"/><path data-cppathid="10013" d="m141.188 370.137h-69.216c-3.926 0-7.108-3.182-7.108-7.108v-21.059c0-3.926 3.182-7.108 7.108-7.108h69.216c3.926 0 7.108 3.182 7.108 7.108v21.059c0 3.926-3.183 7.108-7.108 7.108z"/><path data-cppathid="10014" d="m179.722 291.351h-31.275c-3.096 0-5.607-2.51-5.607-5.607v-24.062c0-3.096 2.51-5.607 5.607-5.607h31.275c3.096 0 5.607 2.51 5.607 5.607v24.062c0 3.097-2.51 5.607-5.607 5.607z"/><path data-cppathid="10015" d="m239.981 256.076h-13.556c-3.096 0-5.607 2.51-5.607 5.607v24.062c0 3.097 2.51 5.607 5.607 5.607h13.556z"/></g></g></g><path data-cppathid="10016" fill="#f7f4f7" d="m186.496 334.862c-2.776 0-5.026 2.25-5.026 5.026v127.909h58.512v-132.935z"/><path data-cppathid="10017" fill="#edeaed" d="m258.28 334.862h-23.106v132.935h28.132v-127.909c0-2.776-2.25-5.026-5.026-5.026z"/></g></g></g><path data-cppathid="10018" fill="#efc984" d="m430.116 458.235h-412.088c-9.957 0-18.028 8.072-18.028 18.029s8.071 18.028 18.028 18.028h428.399l1.717-2.294v-15.734c.001-9.957-8.071-18.029-18.028-18.029z"/><path data-cppathid="10019" fill="#e8ae4d" d="m493.972 458.235h-65.572c9.957 0 18.028 8.072 18.028 18.028v18.028h47.544c9.957 0 18.028-8.072 18.028-18.028s-8.071-18.028-18.028-18.028z"/></g><g fill="#bcd6f9"><path data-cppathid="10020" d="m263.306 146.801v-24.062c0-3.097-2.51-5.607-5.607-5.607h-22.526v35.276h22.527c3.096 0 5.606-2.511 5.606-5.607z"/><path data-cppathid="10021" d="m263.306 216.273v-24.062c0-3.097-2.51-5.607-5.607-5.607h-22.526v35.276h22.527c3.096-.001 5.606-2.511 5.606-5.607z"/><path data-cppathid="10022" d="m263.306 285.745v-24.062c0-3.097-2.51-5.607-5.607-5.607h-22.526v35.276h22.527c3.096-.001 5.606-2.511 5.606-5.607z"/></g></g><g fill="#c9e0fd"><g><path data-cppathid="10023" d="m370.119 323.875h-31.552c-3.583 0-6.487-2.904-6.487-6.487v-25.027c0-3.583 2.904-6.487 6.487-6.487h31.552c3.583 0 6.487 2.904 6.487 6.487v25.027c0 3.583-2.904 6.487-6.487 6.487z"/><path data-cppathid="10024" d="m370.119 395.181h-31.552c-3.583 0-6.487-2.904-6.487-6.487v-25.027c0-3.583 2.904-6.487 6.487-6.487h31.552c3.583 0 6.487 2.904 6.487 6.487v25.027c0 3.583-2.904 6.487-6.487 6.487z"/></g><g><path data-cppathid="10025" d="m441.985 323.875h-31.552c-3.583 0-6.487-2.904-6.487-6.487v-25.027c0-3.583 2.904-6.487 6.487-6.487h31.552c3.583 0 6.487 2.904 6.487 6.487v25.027c0 3.583-2.904 6.487-6.487 6.487z"/><path data-cppathid="10026" d="m441.985 395.181h-31.552c-3.583 0-6.487-2.904-6.487-6.487v-25.027c0-3.583 2.904-6.487 6.487-6.487h31.552c3.583 0 6.487 2.904 6.487 6.487v25.027c0 3.583-2.904 6.487-6.487 6.487z"/></g></g></g></svg>