<?xml version="1.0" encoding="UTF-8"?>
<svg xmlns="http://www.w3.org/2000/svg" onmouseup="{ if(window.parent.document.onmouseup) window.parent.document.onmouseup(arguments[0]);}" width="512" viewBox="0 0 512 512" height="512" enable-background="new 0 0 512 512" id="Layer_1"><g><g><g><g><path data-cppathid="10000" fill="#b3e59f" d="m435.713 503.872h-414.375c-7.366 0-13.338-5.972-13.338-13.338v-212.655c0-7.366 5.972-13.338 13.338-13.338h414.375c7.366 0 13.338 5.972 13.338 13.338v212.655c0 7.366-5.971 13.338-13.338 13.338z"/><path data-cppathid="10001" fill="#95d6a4" d="m435.713 485.872h-414.375c-7.366 0-13.338-5.972-13.338-13.338v18c0 7.366 5.972 13.338 13.338 13.338h414.375c7.366 0 13.338-5.972 13.338-13.338v-18c0 7.366-5.971 13.338-13.338 13.338z"/><path data-cppathid="10002" fill="#78c2a4" d="m372.76 298.617h-292.036c0 20.274-16.322 39.438-36.587 39.438v92.295c20.265 0 36.587 19.164 36.587 39.438h292.036c0-20.274 19.889-39.263 40.154-39.263v-92.645c-20.265 0-40.154-18.989-40.154-39.263z"/><ellipse data-cppathid="10003" transform="matrix(.975 -.224 .224 .975 -80.396 61.087)" ry="55.355" rx="55.355" fill="#eef3f9" cy="384.204" cx="228.523"/><path data-cppathid="10004" fill="#dae3ed" d="m228.523 421.558c-27.506 0-50.314-20.065-54.615-46.354-.479 2.93-.74 5.934-.74 9 0 30.571 24.783 55.354 55.355 55.354s55.355-24.783 55.355-55.354c0-3.066-.26-6.07-.74-9-4.301 26.289-27.11 46.354-54.615 46.354z"/></g><path data-cppathid="10005" fill="#f3d4bc" d="m449.051 296.413c-61.929 40.313-126.819-10.413-126.819-10.413s-37.771 9.278-70.7 15.496c-14.381 2.715-24.143-1.374-30.579-6.843-7.731-6.569-6.345-18.881 2.636-23.599l101.96-53.563c12.326-6.475 26.44-8.712 40.164-6.364l26.634 4.557c22.134 3.787 44.899.261 64.85-10.045l46.803-24.175v175.119l-22.477 15.374s-8.852 42.915-32.47 63.747z"/><g fill="#eac4a9"><path data-cppathid="10006" d="m449.052 296.414v-9.231c0-3.796-4.051-6.18-7.395-4.385-53.485 28.699-107.165-6.039-117.605-13.459-1.183-.841-2.663-1.131-4.073-.79-8.601 2.079-40.294 9.632-68.446 14.948-14.381 2.715-24.144-1.374-30.579-6.843-.696-.592-1.293-1.243-1.842-1.918-4.675 5.779-4.33 14.674 1.842 19.918 6.435 5.469 16.198 9.558 30.579 6.843 32.929-6.218 70.7-15.496 70.7-15.496s64.89 50.726 126.819 10.412z"/><path data-cppathid="10007" d="m472.504 355.858s-7.239 38.819-23.451 55.992v23.854c23.618-20.831 32.47-63.747 32.47-63.747l22.477-15.374v-18z"/></g></g><path data-cppathid="10008" fill="#f5de8e" d="m237.783 8.128c-49.156.118-88.623 40.757-88.623 89.913v85.74c0 12.505 14.402 19.52 24.248 11.81l24.611-19.272c12.252 6.185 26.128 9.621 40.821 9.485 49.301-.457 89.106-41.622 87.976-90.912-1.105-48.178-40.563-86.88-89.033-86.764z"/><path data-cppathid="10009" fill="#edd17a" d="m326.381 87.911c-4.508 44.259-41.964 79.471-87.54 79.893-13.62.126-26.538-2.817-38.111-8.173-1.696-.785-3.687-.547-5.158.605l-22.163 17.356c-9.846 7.71-24.248.695-24.248-11.81v18c0 12.505 14.403 19.52 24.248 11.81l24.611-19.272c12.252 6.185 26.128 9.621 40.821 9.485 49.301-.456 89.106-41.622 87.975-90.912-.054-2.352-.202-4.68-.435-6.982z"/></g><g><path data-cppathid="10010" d="m508.393 174.861c-2.241-1.363-5.028-1.46-7.358-.257l-43.953 22.715c-3.687 1.906-5.131 6.439-3.226 10.126 1.906 3.687 6.443 5.13 10.126 3.226l32.988-17.048v159.246l-19.25 13.174c-1.607 1.099-2.723 2.778-3.116 4.684-.065.316-5.238 24.8-17.66 44.611v-118.825c.173-5.775-6.869-9.595-11.615-6.297-23.626 15.387-50.532 18.487-79.972 9.215-22.56-7.105-38.218-19.161-38.366-19.275-1.816-1.421-4.184-1.927-6.423-1.378-.377.092-38.034 9.326-70.44 15.448-9.914 1.871-18.115.122-24.377-5.201-3.68-2.931-2.958-9.232 1.27-11.281l102.16-53.696c10.826-5.69 23.428-7.686 35.478-5.624l26.687 4.568c14.223 2.434 28.575 2.092 42.662-1.02 4.053-.895 6.613-4.906 5.717-8.958-.894-4.053-4.909-6.613-8.958-5.718-12.179 2.691-24.59 2.988-36.885.882l-26.687-4.568c-15.294-2.617-31.275-.084-45.007 7.135l-88.095 46.304h-103.686c-4.15 0-7.515 3.364-7.515 7.515s3.365 7.515 7.515 7.515h81.339c-3.591 5.494-4.429 12.981-2.133 19.131h-129.231c-4.15 0-7.515 3.365-7.515 7.515 0 17.058-13.619 32.021-29.144 32.021-4.15 0-7.515 3.364-7.515 7.515v92.523c0 4.15 3.364 7.515 7.515 7.515 15.525 0 29.144 14.963 29.144 32.021 0 4.15 3.364 7.515 7.515 7.515h209.388c4.151 0 7.515-3.365 7.515-7.515s-3.364-7.515-7.515-7.515h-202.499c-1.511-9.118-5.711-17.911-12.026-24.909-6.681-7.405-15.016-12.197-24.008-13.915v-78.915c8.992-1.718 17.326-6.511 24.008-13.915 6.315-6.998 10.515-15.791 12.026-24.909h137.804c6.844 3.147 16.01 4.99 27.843 2.755 4.596-.868 9.294-1.798 13.977-2.755h74.848c5.48 2.598 11.727 5.177 18.6 7.37 3.031.967 6.05 1.811 9.055 2.543 6.692 14.654 21.028 25.881 36.309 28.738v79.254c-19.039 3.536-35.826 19.979-39.492 38.659h-46.385c-4.151 0-7.515 3.365-7.515 7.515s3.364 7.515 7.515 7.515h53.16c4.151 0 7.515-3.365 7.515-7.515 0-16.071 16.207-31.845 32.718-31.845 4.151 0 7.515-3.364 7.515-7.515v-92.873c0-4.15-3.364-7.515-7.515-7.515-8.567 0-17.454-4.466-23.811-11.264 2.613.185 5.213.296 7.793.296 15.689 0 30.726-3.437 44.712-10.23v181.744c0 3.229-2.624 5.857-5.85 5.857h-415.188c-3.226 0-5.85-2.627-5.85-5.857v-213.185c0-3.229 2.624-5.857 5.85-5.857h79.47c4.15 0 7.515-3.365 7.515-7.515s-3.364-7.515-7.515-7.515h-79.47c-11.513 0-20.879 9.37-20.879 20.887v213.181c0 11.516 9.366 20.885 20.879 20.885h415.185c11.513 0 20.88-9.369 20.88-20.886v-51.712c19.985-19.597 29.22-52.458 31.69-62.617l20.095-13.752c2.047-1.401 3.271-3.721 3.271-6.202v-175.551c0-2.622-1.367-5.055-3.607-6.419z"/><path data-cppathid="10011" d="m165.492 384.521c0 34.742 28.251 63.006 62.977 63.006s62.977-28.265 62.977-63.006c0-34.742-28.251-63.006-62.977-63.006s-62.977 28.264-62.977 63.006zm110.925 0c0 26.454-21.509 47.977-47.948 47.977s-47.948-21.523-47.948-47.977 21.509-47.977 47.948-47.977c26.438 0 47.948 21.522 47.948 47.977z"/><path data-cppathid="10012" d="m154.114 203.88c7.767 3.789 16.9 2.861 23.767-2.523l21.007-16.459c12.507 5.533 26.268 8.385 39.988 8.246 25.89-.24 50.149-10.699 68.307-29.451 18.189-18.784 27.879-43.421 27.284-69.372-.581-25.362-10.905-49.102-29.069-66.847-18.141-17.724-42.077-27.474-67.432-27.474-.078 0-.159.001-.237.001-53.096.127-96.292 43.932-96.292 97.65v85.953c-.001 8.699 4.857 16.469 12.677 20.276zm2.352-106.23c0-45.45 36.471-82.514 81.299-82.62 21.438-.05 41.768 8.186 57.131 23.195 15.338 14.984 24.055 35.028 24.546 56.441.502 21.899-7.686 42.701-23.056 58.573-15.339 15.84-35.812 24.675-57.649 24.878-13.168.134-25.771-2.805-37.444-8.702-2.601-1.315-5.728-1.006-8.022.792l-24.659 19.32c-4.644 3.942-12.387.159-12.146-5.924z"/><path data-cppathid="10013" d="m213.65 133.233c3.299 2.461 8.024 1.805 10.515-1.545l39.659-53.324c2.477-3.33 1.786-8.038-1.545-10.515s-8.037-1.785-10.514 1.545l-39.66 53.324c-2.476 3.33-1.785 8.038 1.545 10.515z"/><path data-cppathid="10014" d="m214.999 94.956c4.15 0 7.515-3.364 7.515-7.515v-10.177c0-4.15-3.365-7.515-7.515-7.515s-7.515 3.365-7.515 7.515v10.178c.001 4.15 3.365 7.514 7.515 7.514z"/><path data-cppathid="10015" d="m253.415 113.776v10.178c0 4.15 3.364 7.515 7.515 7.515s7.515-3.365 7.515-7.515v-10.178c0-4.15-3.364-7.515-7.515-7.515s-7.515 3.365-7.515 7.515z"/></g></g></svg>