<?xml version="1.0" encoding="UTF-8"?>
<svg xmlns="http://www.w3.org/2000/svg" onmouseup="{ if(window.parent.document.onmouseup) window.parent.document.onmouseup(arguments[0]);}" width="512" viewBox="0 0 512 512" height="512"><g id="FILLED_OUTLINE"><path data-cppathid="10000" fill="#f4c44d" d="m290.58765 240.15576-116.64246-207.36426a15.99991 15.99991 0 0 0 -27.89038 0l-116.64246 207.36426a16 16 0 0 0 13.94519 23.84424h233.28492a16 16 0 0 0 13.94519-23.84424z"/><rect data-cppathid="10001" y="56" x="344" width="144" rx="16" height="48" fill="#f4c44d"/><rect data-cppathid="10002" y="392" x="264" width="144" rx="16" height="48" fill="#edad2e"/><path data-cppathid="10003" fill="#f9c7b2" d="m200 392h98.81177a13.18823 13.18823 0 0 0 2.58642-26.12036l-127.46519-25.49304a47.99948 47.99948 0 0 0 -39.39892 9.58618l-18.15151 14.52112a16.0002 16.0002 0 0 1 -9.99512 3.5061h-18.38745v80l44.62158 22.31079a16.001 16.001 0 0 0 7.15552 1.68921h148.2229a16 16 0 0 0 0-32h-88a24 24 0 0 1 0-48z"/><path data-cppathid="10004" fill="#006cda" d="m24 344h64v144h-64z"/><path data-cppathid="10005" fill="#dfdfdf" d="m304 288h16v32h-16z"/><path data-cppathid="10006" transform="matrix(.707 -.707 .707 .707 -145.921 295.716)" fill="#dfdfdf" d="m276 307.029h16v33.941h-16z"/><path data-cppathid="10007" fill="#008afe" d="m48 344h16v88h-16z"/><path data-cppathid="10008" fill="#008afe" d="m48 448h16v16h-16z"/><rect data-cppathid="10009" y="440" x="344" width="144" rx="16" height="48" fill="#f4c44d"/><rect data-cppathid="10010" y="344" x="344" width="144" rx="16" height="48" fill="#f4c44d"/><rect data-cppathid="10011" y="296" x="344" width="144" rx="16" height="48" fill="#edad2e"/><rect data-cppathid="10012" y="248" x="344" width="144" rx="16" height="48" fill="#f4c44d"/><rect data-cppathid="10013" y="200" x="320" width="144" rx="16" height="48" fill="#edad2e"/><rect data-cppathid="10014" y="152" x="320" width="144" rx="16" height="48" fill="#f4c44d"/><rect data-cppathid="10015" y="104" x="320" width="144" rx="16" height="48" fill="#edad2e"/><rect data-cppathid="10016" y="80" x="144" width="32" rx="16" height="88" fill="#f4f4f4"/><circle data-cppathid="10017" r="16" fill="#f4f4f4" cy="216" cx="160"/><path data-cppathid="10018" d="m496 88v-16a24.02687 24.02687 0 0 0 -24-24h-112a24.02687 24.02687 0 0 0 -24 24v16a23.88532 23.88532 0 0 0 1.3761 8h-1.3761a24.02687 24.02687 0 0 0 -24 24v16a23.90045 23.90045 0 0 0 6.13062 16 23.90045 23.90045 0 0 0 -6.13062 16v16a23.90045 23.90045 0 0 0 6.13062 16 23.90045 23.90045 0 0 0 -6.13062 16v16a24.02687 24.02687 0 0 0 24 24h1.3761a23.88532 23.88532 0 0 0 -1.3761 8v16a23.90045 23.90045 0 0 0 6.13062 16 23.90045 23.90045 0 0 0 -6.13062 16v16a23.90045 23.90045 0 0 0 6.13062 16 23.90045 23.90045 0 0 0 -6.13062 16v16a23.88532 23.88532 0 0 0 1.3761 8h-18.04529a21.08747 21.08747 0 0 0 -16.36352-25.96484l-127.46529-25.49316a55.87477 55.87477 0 0 0 -45.96533 11.1836l-18.15088 14.521a8.02945 8.02945 0 0 1 -4.99809 1.7534h-10.3877v-24h-80v160h80v-35.05591l33.044 16.52222a24.11871 24.11871 0 0 0 10.73286 2.53369h148.22314a23.99151 23.99151 0 0 0 22.6239-32h26.7522a23.88532 23.88532 0 0 0 -1.3761 8v16a24.02687 24.02687 0 0 0 24 24h112a24.02687 24.02687 0 0 0 24-24v-16a24.02687 24.02687 0 0 0 -24-24h-57.3761a23.88532 23.88532 0 0 0 1.3761-8v-16a23.88532 23.88532 0 0 0 -1.3761-8h57.3761a24.02687 24.02687 0 0 0 24-24v-16a23.90045 23.90045 0 0 0 -6.13062-16 23.90045 23.90045 0 0 0 6.13062-16v-16a23.90045 23.90045 0 0 0 -6.13062-16 23.90045 23.90045 0 0 0 6.13062-16v-16a24.02687 24.02687 0 0 0 -24-24h-1.3761a23.88532 23.88532 0 0 0 1.3761-8v-16a23.90045 23.90045 0 0 0 -6.13062-16 23.90045 23.90045 0 0 0 6.13062-16v-16a23.90045 23.90045 0 0 0 -6.13062-16 23.90045 23.90045 0 0 0 6.13062-16v-16a23.88532 23.88532 0 0 0 -1.3761-8h1.3761a24.02687 24.02687 0 0 0 24-24zm-144 0v-16a8.00917 8.00917 0 0 1 8-8h112a8.00917 8.00917 0 0 1 8 8v16a8.00917 8.00917 0 0 1 -8 8h-112a8.00917 8.00917 0 0 1 -8-8zm104 80v16a8.00917 8.00917 0 0 1 -8 8h-112a8.00917 8.00917 0 0 1 -8-8v-16a8.00917 8.00917 0 0 1 8-8h112a8.00917 8.00917 0 0 1 8 8zm24 144v16a8.00917 8.00917 0 0 1 -8 8h-112a8.00917 8.00917 0 0 1 -8-8v-16a8.00917 8.00917 0 0 1 8-8h112a8.00917 8.00917 0 0 1 8 8zm-400 168h-48v-128h16v80h16v-80h16zm216-24a8.00917 8.00917 0 0 1 -8 8h-148.22314a8.04253 8.04253 0 0 1 -3.57764-.84424l-40.19922-20.09985v-67.05591h10.3877a24.09069 24.09069 0 0 0 14.99267-5.25879l18.15137-14.52148a39.91073 39.91073 0 0 1 32.83252-7.98828l127.46582 25.49316a5.18814 5.18814 0 0 1 -1.01808 10.27539h-98.812a32 32 0 0 0 0 64h88a8.00917 8.00917 0 0 1 8 8zm-38.6239-24h-57.3761a16 16 0 0 1 0-32h57.3761a23.88532 23.88532 0 0 0 -1.3761 8v16a23.88532 23.88532 0 0 0 1.3761 8zm222.6239 24v16a8.00917 8.00917 0 0 1 -8 8h-112a8.00917 8.00917 0 0 1 -8-8v-16a8.00917 8.00917 0 0 1 8-8h112a8.00917 8.00917 0 0 1 8 8zm-80-48v16a8.00917 8.00917 0 0 1 -8 8h-112a8.00917 8.00917 0 0 1 -8-8v-16a8.00917 8.00917 0 0 1 8-8h112a8.00917 8.00917 0 0 1 8 8zm80-32a8.00917 8.00917 0 0 1 -8 8h-112a8.00917 8.00917 0 0 1 -8-8v-16a8.00917 8.00917 0 0 1 8-8h112a8.00917 8.00917 0 0 1 8 8zm0-112v16a8.00917 8.00917 0 0 1 -8 8h-112a8.00917 8.00917 0 0 1 -8-8v-16a8.00917 8.00917 0 0 1 8-8h112a8.00917 8.00917 0 0 1 8 8zm-144-24a8.00917 8.00917 0 0 1 -8-8v-16a8.00917 8.00917 0 0 1 8-8h112a8.00917 8.00917 0 0 1 8 8v16a8.00917 8.00917 0 0 1 -8 8zm120-120v16a8.00917 8.00917 0 0 1 -8 8h-112a8.00917 8.00917 0 0 1 -8-8v-16a8.00917 8.00917 0 0 1 8-8h112a8.00917 8.00917 0 0 1 8 8z"/><path data-cppathid="10019" d="m304 288h16v32h-16z"/><path data-cppathid="10020" transform="matrix(.707 -.707 .707 .707 -145.921 295.716)" d="m276 307.029h16v33.941h-16z"/><path data-cppathid="10021" d="m48 448h16v16h-16z"/><path data-cppathid="10022" d="m160 176a24.02687 24.02687 0 0 0 24-24v-56a24 24 0 0 0 -48 0v56a24.02687 24.02687 0 0 0 24 24zm-8-80a8 8 0 0 1 16 0v56a8 8 0 0 1 -16 0z"/><path data-cppathid="10023" d="m43.35742 272h233.28516a24.00005 24.00005 0 0 0 20.918-35.76611l-116.64258-207.36475a24.00059 24.00059 0 0 0 -41.83594 0l-116.64261 207.36475a24.00005 24.00005 0 0 0 20.91797 35.76611zm-6.97265-27.92236 116.64257-207.36426v.00049a8.00012 8.00012 0 0 1 13.94532-.00049l116.64257 207.36426a8.00038 8.00038 0 0 1 -6.97265 11.92236h-233.28516a8.00038 8.00038 0 0 1 -6.97265-11.92236z"/><path data-cppathid="10024" d="m160 240a24 24 0 1 0 -24-24 24.02687 24.02687 0 0 0 24 24zm0-32a8 8 0 1 1 -8 8 8.00917 8.00917 0 0 1 8-8z"/></g></svg>