<?xml version="1.0" encoding="UTF-8"?>
<svg xmlns="http://www.w3.org/2000/svg" onmouseup="{ if(window.parent.document.onmouseup) window.parent.document.onmouseup(arguments[0]);}" width="512" viewBox="0 0 256 256" height="512"><path data-cppathid="10000" fill="#ff9c1a" d="m142 217v13l25-2v-13z"/><path data-cppathid="10001" fill="#39bdbd" d="m142 217v13l25-2v-13z"/><path data-cppathid="10002" fill="#ff9c1a" d="m37 214v13l16 13v-13z"/><path data-cppathid="10003" fill="#39bdbd" d="m37 214v13l16 13v-13z"/><path data-cppathid="10004" fill="#ff9c1a" d="m19 121v13l9 23v-13z"/><path data-cppathid="10005" fill="#00537d" d="m19 121v13l9 23v-13z"/><path data-cppathid="10006" fill="#ff9c1a" d="m61 148v13l19-10v-13z"/><path data-cppathid="10007" fill="#00537d" d="m61 148v13l19-10v-13z"/><path data-cppathid="10008" fill="#ff9c1a" d="m197 162v13l17 10v-13z"/><path data-cppathid="10009" fill="#39bdbd" d="m197 162v13l17 10v-13z"/><path data-cppathid="10010" fill="#ff9c1a" d="m200.4 35.31 2.6-3.31v-13l-11 14z"/><path data-cppathid="10011" fill="#00537d" d="m200.4 35.31 2.6-3.31v-13l-11 14z"/><path data-cppathid="10012" fill="#ff9c1a" d="m102 171v13l4.02 8.03 4.98-3.03z"/><path data-cppathid="10013" fill="#00537d" d="m102 171v13l4.02 8.03 4.98-3.03z"/><path data-cppathid="10014" fill="#ff9c1a" d="m40 67v13l22.15 15.03 5.85-9.03z"/><path data-cppathid="10015" fill="#00537d" d="m40 67v13l22.15 15.03 5.85-9.03z"/><path data-cppathid="10016" fill="#ff9c1a" d="m53 227h34v13h-34z"/><path data-cppathid="10017" fill="#00537d" d="m53 227h34v13h-34z"/><path data-cppathid="10018" fill="#ff9c1a" d="m107 243v13l35-26v-13z"/><path data-cppathid="10019" fill="#00537d" d="m107 243v13l35-26v-13z"/><path data-cppathid="10020" fill="#ff9c1a" d="m221.13 77.88 8.87-8.88v-13l-17 17z"/><path data-cppathid="10021" fill="#00537d" d="m221.13 77.88 8.87-8.88v-13l-17 17z"/><path data-cppathid="10022" fill="#ff9c1a" d="m244 123-20 12 5 10 15-9z"/><path data-cppathid="10023" fill="#00537d" d="m244 123-20 12 5 10 15-9z"/><path data-cppathid="10024" fill="#ff9c1a" d="m214 185 20-17v-13l-20 17z"/><path data-cppathid="10025" fill="#00537d" d="m214 185 20-17v-13l-20 17z"/><path data-cppathid="10026" fill="#ff9c1a" d="m178 180-11 35v13l11-35 19-18v-13z"/><path data-cppathid="10027" fill="#00537d" d="m178 180-11 35v13l11-35 19-18v-13z"/><path data-cppathid="10028" fill="#ff9c1a" d="m87 227v13l20 16v-13z"/><path data-cppathid="10029" fill="#39bdbd" d="m87 227v13l20 16v-13z"/><path data-cppathid="10030" fill="#39bdbd" d="m80 138v13l27.21 14 7.79-9z"/><path data-cppathid="10031" fill="#ff9c1a" d="m28 144v13l33 4v-13z"/><path data-cppathid="10032" fill="#39bdbd" d="m28 144v13l33 4v-13z"/><path data-cppathid="10033" fill="#d9e021" d="m244 123-11-38-11.87-7.12-8.13-4.88 17-17-9-15-20.6-5.69-8.4-2.31 11-14-22-13-40 13-10 18-26-6-24 27-17-8-24 17 28 19-5.85 9.03-5.15 7.97-23 4-15 14 9 23 33 4 19-10 35 18-7.79 8.99-5.21 6.01 9 18-4.98 3.03-18.02 10.97-31-6-20 17 16 13h34l20 16 35-26 25-2 11-35 19-18 17 10 20-17-5-10-5-10z"/><path data-cppathid="10034" fill="#ff9c1a" d="m244 123-11-38-11.87-7.12-8.13-4.88 17-17-9-15-20.6-5.69-8.4-2.31 11-14-22-13-40 13-10 18-26-6-24 27-17-8-24 17 28 19-5.85 9.03-5.15 7.97-23 4-15 14 9 23 33 4 19-10 35 18-7.79 8.99-5.21 6.01 9 18-4.98 3.03-18.02 10.97-31-6-20 17 16 13h34l20 16 35-26 25-2 11-35 19-18 17 10 20-17-5-10-5-10z"/><path data-cppathid="10035" fill="#39bdbd" d="m86 82 27-14 24 13-25 15z"/><path data-cppathid="10036" fill="#00537d" d="m139 81v37l-27 15v-37z"/><path data-cppathid="10037" fill="#39bdbd" d="m112 67 27-14 27 15-27 15z"/><path data-cppathid="10038" fill="#00537d" d="m166 68v66l-27 15v-66z"/><path data-cppathid="10039" fill="#e64e17" d="m139 112v-29l-27-16v29l-26-14v37c95.51 54.06 49.22 27.42 79 44v-37z"/><path data-cppathid="10040" fill="#39bdbd" d="m139 112 27-14 26 13-27 15z"/><path data-cppathid="10041" fill="#00537d" d="m192 111v37l-27 15v-37z"/><g fill="#ecffd7"><path data-cppathid="10042" d="m116 91v8l7 4v-8z"/><path data-cppathid="10043" d="m128 98v8l7 4v-8z"/><path data-cppathid="10044" d="m116 78v8l7 4v-8z"/><path data-cppathid="10045" d="m128 85v8l7 4v-8z"/><path data-cppathid="10046" d="m143 122v8l7 4v-8z"/><path data-cppathid="10047" d="m155 128v8l7 4v-8z"/><path data-cppathid="10048" d="m89 90v8l7 4v-8z"/><path data-cppathid="10049" d="m101 96v8l7 4v-8z"/></g><path data-cppathid="10050" fill="#e64e17" d="m128 68 11 6v-10l-11-6z"/><path data-cppathid="10051" fill="#85273d" d="m139 74 10-6v-10l-10 6z"/><path data-cppathid="10052" fill="#fc0" d="m128 58 10-6 11 6-10 6z"/><path data-cppathid="10053" fill="#39bdbd" d="m135 57 4 2v-53l-4-2z"/><path data-cppathid="10054" fill="#00537d" d="m139 59 4-2v-53l-4 2z"/><path data-cppathid="10055" fill="#ff9c1a" d="m139 2-4 2 4 2 4-2z"/><path data-cppathid="10056" fill="#fc0" d="m139 11 4-2 29 17-4 2z"/><path data-cppathid="10057" fill="#e64e17" d="m139 11v22l29 17v-22z"/><path data-cppathid="10058" fill="#85273d" d="m168 50v-22l4-2v21z"/></svg>