<?xml version="1.0" encoding="UTF-8"?>
<svg xmlns="http://www.w3.org/2000/svg" onmouseup="{ if(window.parent.document.onmouseup) window.parent.document.onmouseup(arguments[0]);}" width="512" viewBox="0 0 60 60" height="512" id="Icons"><path data-cppathid="10000" fill="#385a74" d="m31 41h1.04a10.912 10.912 0 0 1 5.98 1.77l4.98 15.04v.28a.913.913 0 0 1 -.91.91h-40.18a.913.913 0 0 1 -.91-.91v-6.13a10.951 10.951 0 0 1 10.96-10.96z"/><path data-cppathid="10001" fill="#fff" d="m31 41s.4 15.261-5 18h-8c-5.4-1.826-5-18-5-18z"/><path data-cppathid="10002" fill="#e2b793" d="m27 34v8h-10v-7.975z"/><path data-cppathid="10003" fill="#8e705e" d="m37 12.87v5.13l-1 1h-28l-1-1v-4.22a12.958 12.958 0 0 1 13.13-12.78h9.93a1.247 1.247 0 0 1 1.1 1.88l-.78 1.12-1.38 2a8.85 8.85 0 0 1 5.55 1.92 6.348 6.348 0 0 1 2.45 4.95z"/><path data-cppathid="10004" fill="#d9dde3" d="m22 42a5.043 5.043 0 0 0 -4.5 3.87s-4.5-1.22-4.5-4.87c.9-1.83 4-2 4-2s.5 2.09 5 3z"/><path data-cppathid="10005" fill="#d9dde3" d="m31 41c0 3.65-4.5 4.87-4.5 4.87a5.043 5.043 0 0 0 -4.5-3.87c4.5-.91 5-3 5-3s3.1.17 4 2z"/><path data-cppathid="10006" fill="#ec5e69" d="m25.99 44.56-1.99 2.44h-4l-1.99-2.44a5.2 5.2 0 0 1 3.99-2.56 5.2 5.2 0 0 1 3.99 2.56z"/><path data-cppathid="10007" fill="#d94c57" d="m26 59-2-12h-4l-2 12z"/><path data-cppathid="10008" fill="#eec7a4" d="m37 18v.48c0 2.25 0 3.55-.88 5.31a3.1 3.1 0 0 1 -2.04 1.66.9.9 0 0 0 -.63.82 11.474 11.474 0 0 1 -22.9 0 .9.9 0 0 0 -.63-.82 3.1 3.1 0 0 1 -2.04-1.66c-.88-1.76-.88-3.06-.88-5.31v-.48a2.006 2.006 0 0 1 2-2 2.015 2.015 0 0 1 2 2v-1.07a1.823 1.823 0 0 1 1.65-1.81c2.19-.21 5.77-.45 8.16-2.64a1.85 1.85 0 0 1 2.47-.02c1.38 1.21 3.71 2.35 8 2.69a1.84 1.84 0 0 1 1.72 1.81v1.04a2.006 2.006 0 0 1 2-2 2.015 2.015 0 0 1 2 2z"/><path data-cppathid="10009" fill="#ad7043" d="m49.7 33c5.3 1.467 9.325 9.8 9.3 15.228a11 11 0 0 1 -22-.12c.026-5.4 4.07-13.613 9.316-15.1z"/><path data-cppathid="10010" fill="#ad7043" d="m52.93 27.39-2.4 5.61h-5.06l-3.37-7.59a1 1 0 0 1 .91-1.41h2.28a1 1 0 0 1 .95.68l.44 1.32h5.33a1 1 0 0 1 .92 1.39z"/><g fill="#373737"><path data-cppathid="10011" d="m53.464 34h.546a1 1 0 0 0 0-2h-1.968l1.806-4.213a2 2 0 0 0 -1.839-2.787h-4.609l-.212-.635a2 2 0 0 0 -1.897-1.365h-2.279a2 2 0 0 0 -1.828 2.813l2.75 6.187h-1.924a1 1 0 1 0 0 2h.579a19.527 19.527 0 0 0 -5.072 7.331 11.939 11.939 0 0 0 -5.477-1.331h-.5a5.8 5.8 0 0 0 -3.54-1.877v-1.676a12.441 12.441 0 0 0 6.441-10.054 4.161 4.161 0 0 0 2.573-2.159c.986-1.97.986-3.475.986-5.753v-5.612c0-3.8-3.1-6.981-7.2-7.712l1.208-1.757a2.193 2.193 0 0 0 .048-2.243 2.28 2.28 0 0 0 -1.992-1.157h-9.939a14.069 14.069 0 0 0 -13.988 11.858 1 1 0 0 0 1.98.284 12.059 12.059 0 0 1 12.008-10.142h9.939a.267.267 0 0 1 .246.136c.085.148.02.178.023.174l-1.858 2.69h-1.475a1 1 0 0 0 0 2h2c3.366 0 7 2.244 7 5.869v2.315a2.862 2.862 0 0 0 -2.479.222 2.876 2.876 0 0 0 -2.164-1.249c-3.378-.27-5.873-1.094-7.413-2.445a2.85 2.85 0 0 0 -3.814.034c-2.009 1.844-5.143 2.147-7.216 2.347l-.357.035a2.829 2.829 0 0 0 -2.1 1.267 2.969 2.969 0 0 0 -1.457-.395 3 3 0 0 0 -3 3c0 .437.027 4.319.989 6.239a4.151 4.151 0 0 0 2.57 2.154 12.439 12.439 0 0 0 6.441 10.069v1.661a5.8 5.8 0 0 0 -3.542 1.877h-.5a11.973 11.973 0 0 0 -11.958 11.96v6.13a1.911 1.911 0 0 0 1.91 1.91h40.18a1.908 1.908 0 0 0 1.565-.82 12.106 12.106 0 0 0 4.288.82h.077a11.98 11.98 0 0 0 8.418-3.414 11.679 11.679 0 0 0 3.562-8.353 20.594 20.594 0 0 0 -6.536-14.233zm-10.452-9h2.279l.439 1.31.66 2a1 1 0 0 0 1.9-.626l-.227-.684h3.948l-2.145 5h-3.744zm-21.012 18.218a3.835 3.835 0 0 1 2.737 1.291l-1.212 1.491h-3.05l-1.212-1.485a3.94 3.94 0 0 1 2.737-1.297zm-4.765 3.616a1.007 1.007 0 0 0 .261.035.981.981 0 0 0 .786-.388l.653.8-1.672 10.058c-1.971-2.006-2.909-7.367-3.184-12.158a9.3 9.3 0 0 0 3.16 1.653zm3.612 1.166h2.306l1.667 10h-5.64zm4.214-.718.653-.8a.99.99 0 0 0 1.047.353 9.309 9.309 0 0 0 3.139-1.635c-.269 4.193-1.106 9.551-3.2 11.954zm4.929-6.028c-.145 1.8-1.816 2.836-2.878 3.317a5.45 5.45 0 0 0 -1.969-2.352 5.863 5.863 0 0 0 2.46-2.133 3.97 3.97 0 0 1 2.387 1.168zm-18.44-15.054a1.907 1.907 0 0 0 -1.379-1.709 2.123 2.123 0 0 1 -1.4-1.147c-.63-1.272-.771-4.288-.771-5.344a1 1 0 0 1 2 0v1a1 1 0 0 0 2 0v-2.072a.82.82 0 0 1 .753-.81l.353-.034c2.339-.227 5.873-.568 8.375-2.864a.864.864 0 0 1 1.143-.005c1.9 1.665 4.7 2.626 8.572 2.936a.838.838 0 0 1 .8.812v2.037a1 1 0 0 0 2 0v-1a1 1 0 0 1 2 0v.481c0 2.2 0 3.31-.772 4.854a2.133 2.133 0 0 1 -1.412 1.155 1.909 1.909 0 0 0 -1.367 1.716 10.471 10.471 0 0 1 -20.9-.01zm10.45 11.8a12.38 12.38 0 0 0 4-.673v1.508c-.147.334-.929 1.682-4 2.356-3.127-.686-3.877-2.067-4-2.348v-1.509a12.481 12.481 0 0 0 4 .666zm-5.6 2.086a5.863 5.863 0 0 0 2.46 2.133 5.45 5.45 0 0 0 -1.969 2.352c-1.063-.482-2.733-1.518-2.878-3.317a3.961 3.961 0 0 1 2.387-1.168zm-14.4 11.874a9.971 9.971 0 0 1 9.96-9.96h.029c0 3.169.276 11.909 3.24 16h-13.229zm26.581 6.04c3.128-4.24 3.43-12.865 3.43-16h.029a9.928 9.928 0 0 1 4.778 1.245 17.013 17.013 0 0 0 -.818 4.855 11.782 11.782 0 0 0 5.349 9.9zm26.461-2.846a9.99 9.99 0 0 1 -7.022 2.846h-.065a9.938 9.938 0 0 1 -9.955-9.888c.024-5.228 3.921-12.7 8.462-14.1l3.1-.009c4.587 1.388 8.463 8.928 8.439 14.223a9.692 9.692 0 0 1 -2.959 6.928z"/><path data-cppathid="10012" d="m48.01 45a1 1 0 1 1 .867-1.5 1 1 0 0 0 1.73-1 2.991 2.991 0 0 0 -1.6-1.3v-.2a1 1 0 0 0 -2 0v.184a2.993 2.993 0 0 0 1 5.816 1 1 0 1 1 -.866 1.5 1 1 0 0 0 -1.731 1 2.991 2.991 0 0 0 1.6 1.3v.2a1 1 0 0 0 2 0v-.184a2.993 2.993 0 0 0 -1-5.816z"/></g></svg>