<?xml version="1.0" encoding="UTF-8"?>
<svg xmlns="http://www.w3.org/2000/svg" onmouseup="{ if(window.parent.document.onmouseup) window.parent.document.onmouseup(arguments[0]);}" data-name="Layer 1" width="512" viewBox="0 0 64 64" height="512" id="Layer_1"><path data-cppathid="10000" fill="#d98285" d="m29 15h8v17h-8z"/><path data-cppathid="10001" fill="#d98285" d="m49 15h8v25h-8z"/><path data-cppathid="10002" fill="#2a9d8f" d="m9 6h8v9h-8z"/><path data-cppathid="10003" fill="#618dcc" d="m2 2h2v60h-2z"/><path data-cppathid="10004" fill="#618dcc" d="m3 14h59v2h-59z"/><path data-cppathid="10005" fill="#d98285" d="m53.571 52.209-.323 3.249-10.467-13.083a1 1 0 0 0 -1.395-.164l-8.269 6.432-19.377-21.316-1.48 1.346 20 22a1 1 0 0 0 1.354.116l8.221-6.389 9.9 12.376-3.2-.318-.2 1.99 5.565.552c.034 0 .067.005.1.005a1 1 0 0 0 1-.905l.567-5.693z"/></svg>