<?xml version="1.0" encoding="UTF-8"?>
<svg xmlns="http://www.w3.org/2000/svg" onmouseup="{ if(window.parent.document.onmouseup) window.parent.document.onmouseup(arguments[0]);}" width="512" viewBox="0 0 512 512" height="512" enable-background="new 0 0 512 512" id="Capa_1"><g><g><path data-cppathid="10000" fill="#fff2a0" d="m296 116h206v280h-206z"/><path data-cppathid="10001" fill="#fce8d0" d="m439 116v110l-20 10-20-10-20 10-20-10v-110z"/><path data-cppathid="10002" fill="#aaf9dd" d="m206.11 319.89c2.49-9.92 3.89-19.4 3.89-23.89 0-39.3-22.8-73.01-55.81-89.27-9.56-4.709-14.241-15.617-10.28-25.51l26.09-45.22c-15 0-15-20-30-20s-15 20-30 20-15-20-30-20-15 20-30 20l26.09 45.22c3.965 9.902-.719 20.8-10.28 25.51-33.01 16.26-55.81 49.97-55.81 89.27 0 4.49 1.4 13.97 3.89 23.89 3.19 12.69 2.55 25.91-1.9 38.22-1.28 3.56-1.99 6.61-1.99 7.89 0 16.57 13.43 30 30 30 1.28 0 4.33-.71 7.89-1.99 12.26-4.43 25.58-5.07 38.22-1.9 9.92 2.49 19.4 3.89 23.89 3.89s13.97-1.4 23.89-3.89c12.69-3.19 25.91-2.55 38.22 1.9 3.56 1.28 6.61 1.99 7.89 1.99 16.57 0 30-13.43 30-30 0-1.28-.71-4.33-1.99-7.89-4.43-12.26-5.07-25.58-1.9-38.22z"/></g><g><path data-cppathid="10003" d="m0 366c0 22.056 17.944 40 40 40 3.567 0 8.595-1.617 11.287-2.585 10.399-3.756 21.6-4.312 32.389-1.605 9.985 2.506 20.564 4.19 26.324 4.19s16.339-1.684 26.327-4.192c10.783-2.709 21.979-2.155 32.398 1.611 2.68.964 7.707 2.581 11.274 2.581 22.056 0 40-17.944 40-40 0-3.567-1.616-8.595-2.585-11.288-3.757-10.397-4.312-21.597-1.605-32.388 2.507-9.988 4.19-20.567 4.19-26.324 0-41.944-23.523-79.588-61.391-98.241-4.638-2.285-7.259-7.362-5.621-12.264l25.674-44.498c1.785-3.094 1.784-6.906-.003-9.999-1.785-3.093-5.086-4.998-8.658-4.998-2.103 0-3.215-.953-7-6-4.182-5.575-10.5-14-23-14s-18.818 8.425-23 14c-3.785 5.047-4.897 6-7 6s-3.215-.953-7-6c-4.182-5.575-10.5-14-23-14s-18.818 8.425-23 14c-3.785 5.047-4.897 6-7 6-3.572 0-6.873 1.905-8.659 4.999-1.787 3.093-1.788 6.905-.003 9.999l25.674 44.498c.057.171.093.337.139.505h-37.151c-5.514 0-10-4.486-10-10 0-5.523-4.478-10-10-10s-10 4.477-10 10c0 16.542 13.458 29.99 30 29.99h17.335c-29.54 20.309-47.335 53.534-47.335 90.009 0 5.757 1.684 16.336 4.191 26.329 2.711 10.781 2.155 21.978-1.611 32.397-.964 2.679-2.58 7.707-2.58 11.274zm64.524-224.836c3.715-2.815 6.367-6.352 8.476-9.164 3.785-5.047 4.897-6 7-6s3.215.953 7 6c4.182 5.575 10.5 14 23 14s18.818-8.425 23-14c3.785-5.047 4.897-6 7-6s3.215.953 7 6c2.108 2.812 4.761 6.348 8.476 9.164l-20.228 35.059c-.984 1.707-2.288 5.633-2.641 9.777h-45.214c-.353-4.145-1.657-8.07-2.641-9.777zm5.705 74.537c4.639-2.285 8.586-5.628 11.537-9.701h56.502c2.945 4.063 6.866 7.417 11.503 9.701 30.983 15.261 50.229 46.03 50.229 80.299 0 3.468-1.258 12.167-3.589 21.458-3.679 14.666-2.92 29.898 2.188 44.036.853 2.371 1.283 4.152 1.397 4.826-.17 10.775-8.902 19.509-19.678 19.678-.674-.114-2.453-.545-4.81-1.392-14.166-5.121-29.4-5.878-44.055-2.195-9.285 2.331-17.983 3.589-21.453 3.589s-12.168-1.258-21.457-3.59c-6.104-1.531-12.305-2.292-18.485-2.292-8.669 0-17.298 1.5-25.553 4.482-2.37.852-4.15 1.283-4.824 1.397-10.775-.169-19.508-8.903-19.678-19.678.113-.674.544-2.454 1.392-4.81 5.12-14.164 5.879-29.399 2.194-44.054-2.331-9.288-3.589-17.987-3.589-21.455 0-34.269 19.246-65.038 50.229-80.299z"/><path data-cppathid="10004" d="m110 306c5.514 0 10 4.486 10 10s-4.486 10-10 10c-3.175 0-6.092-1.46-8.004-4.006-3.318-4.415-9.586-5.308-14.002-1.99-4.416 3.317-5.307 9.585-1.99 14.001 3.575 4.759 8.489 8.298 13.996 10.255v11.74c0 5.523 4.478 10 10 10s10-4.477 10-10v-11.72c11.639-4.128 20-15.243 20-28.28 0-16.542-13.458-30-30-30-5.514 0-10-4.486-10-10s4.486-10 10-10c3.175 0 6.092 1.46 8.004 4.006 3.317 4.415 9.585 5.307 14.002 1.99 4.416-3.317 5.307-9.585 1.99-14.001-3.575-4.759-8.489-8.298-13.996-10.255v-11.74c0-5.523-4.478-10-10-10s-10 4.477-10 10v11.72c-11.639 4.128-20 15.243-20 28.28 0 16.542 13.458 30 30 30z"/><path data-cppathid="10005" d="m399 346c-5.522 0-10 4.477-10 10s4.478 10 10 10h20c5.522 0 10-4.477 10-10s-4.478-10-10-10z"/><path data-cppathid="10006" d="m472 316c0-5.523-4.478-10-10-10h-63c-5.522 0-10 4.477-10 10s4.478 10 10 10h63c5.522 0 10-4.477 10-10z"/><path data-cppathid="10007" d="m376.761 427.824c-35.459 24.975-77.217 38.176-120.761 38.176-35.787 0-70.482-8.962-101.411-26.06l3.999-1.071c5.335-1.429 8.501-6.913 7.071-12.247-1.43-5.335-6.914-8.502-12.247-7.071l-27.32 7.32c-5.331 1.428-8.501 6.913-7.071 12.248l7.32 27.32c1.43 5.337 6.918 8.501 12.247 7.071 5.335-1.429 8.501-6.913 7.071-12.248l-1.072-4c33.968 18.852 72.09 28.738 111.413 28.738 47.688 0 93.43-14.462 132.278-41.824 4.515-3.18 5.597-9.419 2.417-13.934s-9.416-5.598-13.934-2.418z"/><path data-cppathid="10008" d="m123.722 67.824c-4.515 3.18-5.597 9.419-2.417 13.934 3.165 4.495 9.397 5.611 13.935 2.417 35.458-24.974 77.217-38.175 120.76-38.175 35.781 0 70.478 8.964 101.409 26.06l-3.997 1.071c-5.335 1.429-8.501 6.913-7.071 12.247 1.43 5.337 6.917 8.501 12.247 7.071l27.32-7.32c5.331-1.428 8.501-6.913 7.071-12.248l-7.32-27.32c-1.43-5.334-6.913-8.502-12.247-7.071-5.335 1.429-8.501 6.913-7.071 12.248l1.073 4.002c-33.97-18.852-72.096-28.74-111.414-28.74-47.688 0-93.43 14.462-132.278 41.824z"/><circle data-cppathid="10009" r="10" cy="256" cx="502"/><path data-cppathid="10010" d="m502 106h-206c-5.522 0-10 4.477-10 10v280c0 5.523 4.478 10 10 10h206c5.522 0 10-4.477 10-10v-95c0-5.523-4.478-10-10-10s-10 4.477-10 10v85h-186v-260h43v100c0 3.788 2.14 7.25 5.528 8.944l20 10c2.814 1.407 6.129 1.407 8.943 0l15.529-7.764 15.528 7.764c2.81 1.405 6.123 1.41 8.943 0l20-10c3.389-1.694 5.529-5.156 5.529-8.944v-100h43v85c0 5.523 4.478 10 10 10s10-4.477 10-10v-95c0-5.523-4.478-10-10-10zm-73 113.82-10 5-15.528-7.764c-2.814-1.407-6.129-1.407-8.943 0l-15.529 7.764-10-5v-93.82h60z"/></g></g></svg>