<?xml version="1.0" encoding="UTF-8"?>
<svg xmlns="http://www.w3.org/2000/svg" onmouseup="{ if(window.parent.document.onmouseup) window.parent.document.onmouseup(arguments[0]);}" width="474pt" viewBox="0 -21 474.46002 474" height="474pt"><path data-cppathid="10000" fill="#fedb41" d="m381.949219 213.429688h63.222656v212.78125h-63.222656zm0 0"/><path data-cppathid="10001" fill="#fedb41" d="m267.019531 252.191406h63.21875v174.019532h-63.21875zm0 0"/><path data-cppathid="10002" fill="#fedb41" d="m206.929688 7.230469c37.261718.003906 67.464843 30.210937 67.460937 67.46875-.003906 37.261719-30.210937 67.464843-67.46875 67.460937-37.261719-.003906-67.464844-30.210937-67.460937-67.46875-.003907-37.261718 30.207031-67.46875 67.46875-67.460937zm0 0"/><path data-cppathid="10003" fill="#fedb41" d="m152.089844 324.390625h63.21875v101.820313h-63.21875zm0 0"/><path data-cppathid="10004" fill="#00acea" d="m112.910156 220.550781-.339844 11.4375h-75.179687v6.601563c.078125 8.402344-6.582031 15.324218-14.980469 15.570312h-.160156c-8.371094.003906-15.15625-6.78125-15.160156-15.148437v-84.433594c-.101563-.953125-.148438-1.917969-.148438-2.878906 0-15.765625 12.785156-28.542969 28.546875-28.539063h15.339844l24.34375 23.667969 25.21875-23.667969h14.46875c.960937 0 1.917969.050782 2.871094.148438 15.679687 1.589844 27.101562 15.59375 25.507812 31.269531v84.421875c0 8.375-6.789062 15.164062-15.164062 15.164062s-15.164063-6.789062-15.164063-15.164062zm0 0"/><path data-cppathid="10005" fill="#00efd1" d="m75.238281 382.539062c.011719 8.964844-7.167969 16.28125-16.128906 16.441407-8.960937.160156-16.398437-6.894531-16.710937-15.851563l-4.488282-151.140625h74.660156l-4.492187 151.140625c-.3125 8.957032-7.746094 16.011719-16.707031 15.851563-8.960938-.160157-16.140625-7.476563-16.132813-16.441407zm0 0"/><path data-cppathid="10006" fill="#00acea" d="m101.671875 72.679688v10.992187c.003906 15.167969-12.292969 27.464844-27.460937 27.46875h-.011719c-15.167969-.003906-27.460938-12.304687-27.460938-27.46875v-10.992187c0-15.167969 12.292969-27.464844 27.460938-27.46875h.011719c15.167968 0 27.464843 12.300781 27.460937 27.46875zm0 0"/><g fill="#083863"><path data-cppathid="10007" d="m300.25 122.261719c-2.742188-2.160157-6.65625-1.96875-9.175781.445312l-56.671875 54.359375c-2.710938 2.691406-2.761719 7.0625-.117188 9.816406 2.644532 2.757813 7.011719 2.882813 9.8125.285157l52.273438-50.144531 54.1875 42.679687c2.527344 1.992187 6.085937 2.003906 8.625.03125l76.460937-59.414063-2.734375 35.566407c-.296875 3.851562 2.589844 7.21875 6.445313 7.515625.179687.011718.363281.019531.542969.019531 3.65625-.003906 6.691406-2.820313 6.972656-6.464844l3.949218-51.398437c.140626-1.859375-.460937-3.699219-1.679687-5.109375-1.214844-1.410157-2.945313-2.277344-4.800781-2.410157l-55.351563-3.949218c-3.855469-.277344-7.207031 2.625-7.484375 6.480468-.273437 3.859376 2.628906 7.207032 6.484375 7.484376l37.210938 2.652343-70.277344 54.613281zm0 0"/><path data-cppathid="10008" d="m467.460938 418.71875h-15.261719v-205.289062c-.019531-1.828126-.773438-3.574219-2.097657-4.835938-1.324218-1.265625-3.101562-1.941406-4.929687-1.875h-63.222656c-1.800781-.054688-3.542969.632812-4.820313 1.902344-1.277344 1.269531-1.972656 3.007812-1.929687 4.808594v205.289062h-38v-166.527344c0-3.867187-3.09375-7.472656-6.960938-7.472656h-63.21875c-3.867187 0-6.820312 3.601562-6.820312 7.472656v166.527344h-38v-94.328125c.011719-1.8125-.71875-3.550781-2.019531-4.808594-1.300782-1.261719-3.058594-1.933593-4.871094-1.863281h-63.21875c-1.808594-.070312-3.570313.601562-4.871094 1.863281-1.300781 1.257813-2.03125 2.996094-2.019531 4.808594v94.328125h-123.648438c-3.867187 0-7 3.136719-7 7 0 3.867188 3.132813 7 7 7h445.910157c3.863281 0 7-3.132812 7-7 0-3.863281-3.136719-7-7-7zm-78.261719-198h49v198h-49zm-115 38h49v160h-49zm-115 73h49v87h-49zm0 0"/><path data-cppathid="10009" d="m74.199219 37.71875c-19 0-34 15.953125-34 34.960938v10.992187c0 18.777344 15.222656 34 34 34 18.777343 0 34-15.222656 34-34v-10.992187c0-19.007813-14.988281-34.960938-33.988281-34.960938zm20 34.960938v10.992187c0 11.285156-8.714844 20.46875-20 20.46875-11.285157 0-20-9.183594-20-20.46875v-10.992187c0-11.285157 8.71875-20.960938 20-20.960938h.011719c11.28125 0 19.988281 9.675781 19.988281 20.960938zm0 0"/><path data-cppathid="10010" d="m22.492188 260.71875c3.183593.054688 6.335937-.617188 9.21875-1.96875l3.699218 124.523438c.300782 9.292968 6.070313 17.527343 14.703125 20.984374 8.632813 3.453126 18.492188 1.472657 25.121094-5.046874 6.621094 6.527343 16.472656 8.519531 25.109375 5.078124 8.636719-3.441406 14.417969-11.664062 14.738281-20.953124l3.6875-124.226563c2.910157 1.359375 6.082031 2.0625 9.292969 2.058594 12.230469-.019531 22.136719-9.9375 22.136719-22.167969v-84.078125c1.859375-19.460937-12.324219-36.777344-31.765625-38.789063-1.183594-.199218-2.375-.335937-3.574219-.414062h-14.46875c-1.804687.082031-3.515625.839844-4.789063 2.117188l-20.34375 19.199218-19.546874-19.167968c-1.292969-1.316407-3.039063-2.085938-4.882813-2.148438h-15.339844c-19.648437.132812-35.5078122 16.109375-35.488281 35.761719 0 1.070312.199219 2.371093.199219 3.441406v84.089844c0 5.816406 2.335937 11.386719 6.480469 15.46875 4.144531 4.082031 9.753906 6.328125 15.570312 6.238281zm69.179687 131.242188c-5.214844.007812-9.453125-4.207032-9.472656-9.421876v-124.089843c0-3.863281-3.132813-7-7-7-3.863281 0-7 3.136719-7 7v124.089843c.003906 3.777344-2.246094 7.1875-5.722657 8.667969-3.472656 1.480469-7.492187.738281-10.210937-1.882812-1.757813-1.734375-2.785156-4.070313-2.875-6.539063l-4.269531-144.066406h60.238281l-4.273437 144.023438c-.15625 5.101562-4.3125 9.171874-9.414063 9.21875zm-77.472656-152.949219v-84.433594c0-.238281-.066407-.480469-.089844-.722656-.078125-.714844-.140625-1.660157-.140625-2.375-.015625-11.929688 9.589844-21.644531 21.519531-21.761719h12.5l22.300781 21.910156c.046876.042969.09375.191406.140626.230469.09375.089844.191406.230469.289062.3125.085938.066406.167969.160156.253906.226563.101563.074218.199219.160156.308594.230468.105469.070313.179688.125.273438.183594.089843.054688.207031.125.3125.179688.105468.058593.199218.101562.300781.152343.101562.054688.210937.101563.3125.144531.105469.039063.214843.082032.324219.121094.105468.039063.207031.074219.3125.105469.105468.035156.222656.066406.335937.09375s.210937.050781.316406.074219c.101563.019531.226563.042968.34375.058594.113281.019531.214844.03125.320313.042968.109375.011719.230468.019532.34375.027344.117187.007812.21875.011719.328125.011719.113281 0 .226562 0 .339843-.007813.113282-.003906.222657-.007812.335938-.019531.109375-.007813.222656-.023437.332031-.035156.109375-.015625.222657-.035157.335938-.054688.109375-.019531.21875-.042969.324219-.070312.109374-.023438.21875-.050781.328124-.082031.109376-.03125.21875-.066407.324219-.101563.109375-.035156.210938-.074219.316407-.113281.105468-.042969.21875-.089844.324218-.140625.105469-.046875.199219-.089844.296875-.140625.101563-.050782.21875-.117188.324219-.175782.105469-.0625.183594-.109374.273438-.167968.105468-.070313.210937-.140625.316406-.21875.082031-.058594.167968-.125.25-.1875.101562-.082032.199218-.167969.300781-.253906.042969-.042969.09375-.296876.136719-.339844l23.195312-21.996094h11.699219c.71875 0 1.417969.257812 2.164063.335938 11.84375 1.269531 20.433593 11.863281 19.234374 23.710937-.023437.230469-.058593.578125-.058593.8125v84.421875c0 4.417969-3.578125 8-8 8-4.417969 0-8-3.582031-8-8v-18.347656l.089843-2.925782c.011719-.445312-.089843-.878906-.089843-1.300781v-33.9375c0-3.863281-3.132813-7-7-7-3.863281 0-7 3.136719-7 7v37.949219l-.425781 4.28125h-61.066407l-.324219-7.542969c-.011718-.296875-.183593-.453125-.183593-.742187v-33.945313c0-3.863281-3.132813-7-7-7-3.863281 0-7 3.136719-7 7v56.101563c.085937 2.121094-.695313 4.1875-2.164063 5.722656-1.46875 1.53125-3.5 2.402344-5.625 2.40625h-.160156c-2.101562.09375-4.152344-.675781-5.675781-2.132812-1.519531-1.457032-2.378907-3.46875-2.375-5.574219zm0 0"/><path data-cppathid="10011" d="m281.390625 74.691406c-.003906-41.128906-33.34375-74.464844-74.46875-74.460937-41.128906.003906-74.464844 33.34375-74.460937 74.46875 0 41.125 33.34375 74.464843 74.46875 74.460937 41.109374-.046875 74.417968-33.363281 74.460937-74.46875zm-74.460937 60.46875c-33.394532.003906-60.46875-27.066406-60.46875-60.460937-.003907-33.394531 27.066406-60.464844 60.460937-60.46875 33.390625-.003907 60.464844 27.066406 60.46875 60.460937-.039063 33.375-27.082031 60.425782-60.460937 60.46875zm0 0"/><path data-cppathid="10012" d="m230.78125 47.71875c3.863281 0 7-3.132812 7-7 0-3.863281-3.136719-7-7-7h-45.960938c-3.867187 0-7 3.136719-7 7 0 3.867188 3.132813 7 7 7h13.148438c4.378906-.128906 8.46875 2.179688 10.609375 6h-23.757813c-3.867187 0-7 3.136719-7 7 0 3.867188 3.132813 7 7 7h23.769532c-.46875 0-1.011719 1.515625-1.628906 2.132812-2.363282 2.429688-5.597657 3.824219-8.992188 3.867188h-13.148438c-2.832031-.117188-5.433593 1.550781-6.507812 4.171875-1.078125 2.625-.398438 5.636719 1.699219 7.542969l32.871093 30.988281c2.828126 2.632813 7.253907 2.484375 9.902344-.332031 2.652344-2.8125 2.523438-7.242188-.28125-9.898438l-20.402344-19.28125c5.585938-.820312 10.761719-3.414062 14.761719-7.398437 3.210938-3.320313 5.578125-7.363281 6.898438-11.792969h7.019531c3.863281 0 7-3.132812 7-7 0-3.863281-3.136719-7-7-7h-7.027344c-.574218-2.066406-1.339844-4.074219-2.289062-6zm0 0"/></g></svg>