<?xml version="1.0" encoding="UTF-8"?>
<svg xmlns="http://www.w3.org/2000/svg" onmouseup="{ if(window.parent.document.onmouseup) window.parent.document.onmouseup(arguments[0]);}" xml:space="preserve" style="enable-background:new 0 0 512 512;" viewBox="0 0 512 512" y="0px" x="0px" id="Capa_1" version="1.1" xmlns:xlink="http://www.w3.org/1999/xlink"><path data-cppathid="10000" d="M419.672,390.295h67.148v75.541h-67.148V390.295z" style="fill:#ED1C24;"/><path data-cppathid="10001" d="M318.951,297.967h67.148v167.869h-67.148V297.967z" style="fill:#F68B1F;"/><path data-cppathid="10002" d="M218.229,339.934h67.148v125.902h-67.148V339.934z" style="fill:#F15A22;"/><path data-cppathid="10003" d="M117.508,197.246h67.148v268.59h-67.148V197.246z" style="fill:#F68B1F;"/><path data-cppathid="10004" d="M16.787,79.738h67.148v386.098H16.787V79.738z" style="fill:#FDB913;"/><path data-cppathid="10005" d="M0,491.016h503.607v16.787H0V491.016z"/><path data-cppathid="10006" d="M486.82,474.229c4.633,0,8.393-3.76,8.393-8.393v-75.541c0-4.633-3.76-8.393-8.393-8.393h-67.148  c-4.633,0-8.393,3.76-8.393,8.393v75.541c0,4.633,3.76,8.393,8.393,8.393H486.82z M428.066,398.689h50.361v58.754h-50.361V398.689z"/><path data-cppathid="10007" d="M386.098,474.229c4.633,0,8.393-3.76,8.393-8.393V297.967c0-4.633-3.76-8.393-8.393-8.393h-67.148  c-4.633,0-8.393,3.76-8.393,8.393v167.869c0,4.633,3.76,8.393,8.393,8.393H386.098z M327.344,306.361h50.361v151.082h-50.361  V306.361z"/><path data-cppathid="10008" d="M285.377,474.229c4.633,0,8.393-3.76,8.393-8.393V339.934c0-4.633-3.76-8.393-8.393-8.393h-67.148  c-4.633,0-8.393,3.76-8.393,8.393v125.902c0,4.633,3.76,8.393,8.393,8.393H285.377z M226.623,348.328h50.361v109.115h-50.361  V348.328z"/><path data-cppathid="10009" d="M184.656,474.229c4.633,0,8.393-3.76,8.393-8.393v-268.59c0-4.633-3.76-8.393-8.393-8.393h-67.148  c-4.633,0-8.393,3.76-8.393,8.393v268.59c0,4.633,3.76,8.393,8.393,8.393H184.656z M125.902,205.639h50.361v251.803h-50.361V205.639  z"/><path data-cppathid="10010" d="M16.787,474.229h67.148c4.633,0,8.393-3.76,8.393-8.393V79.738c0-4.633-3.76-8.393-8.393-8.393H16.787  c-4.633,0-8.393,3.76-8.393,8.393v386.098C8.393,470.469,12.154,474.229,16.787,474.229z M25.18,88.131h50.361v369.311H25.18V88.131  z"/><path data-cppathid="10011" d="M486.82,244.132L354.262,111.574c-2.929-2.938-7.571-3.299-10.911-0.839l-90.708,67.072L81.475,6.656L69.607,18.524  l176.262,176.262c2.929,2.938,7.571,3.299,10.911,0.839l90.708-67.072L474.951,256h-21.705v16.787h41.967  c4.633,0,8.393-3.76,8.393-8.393v-41.967H486.82L486.82,244.132z"/><path data-cppathid="10012" d="M377.705,4.197H512v16.787H377.705V4.197z"/><path data-cppathid="10013" d="M377.705,29.377H512v16.787H377.705V29.377z"/><path data-cppathid="10014" d="M377.705,54.557H512v16.787H377.705V54.557z"/><path data-cppathid="10015" d="M377.705,79.738h67.148v16.787h-67.148V79.738z"/><g/><g/><g/><g/><g/><g/><g/><g/><g/><g/><g/><g/><g/><g/><g/></svg>