<?xml version="1.0" encoding="UTF-8"?>
<svg xmlns="http://www.w3.org/2000/svg" onmouseup="{ if(window.parent.document.onmouseup) window.parent.document.onmouseup(arguments[0]);}" width="512" viewBox="0 0 128 128" height="512"><g data-name="Circle Grid" id="Circle_Grid"><circle data-cppathid="10000" r="64" fill="#f6c863" cy="64" cx="64"/></g><g id="icon"><path data-cppathid="10001" fill="#eeefee" d="m37.683 27.953h52.444v75.781h-52.444z"/><path data-cppathid="10002" fill="#dbd8dd" d="m42.375 23-2.485 4.953h48.029l-2.485-4.953z"/><path data-cppathid="10003" fill="#69b0ee" d="m74.389 33.04h11.31v10.964h-11.31z"/><g opacity=".5" fill="#eeefee"><path data-cppathid="10004" d="m83.057 33.04-8.668 8.685v-1.174l7.511-7.511z"/><path data-cppathid="10005" d="m85.698 33.04v.863l-10.101 10.101h-1.208v-1.019l9.945-9.945z"/></g><path data-cppathid="10006" fill="#69b0ee" d="m58.251 33.04h11.31v10.964h-11.31z"/><g opacity=".5" fill="#eeefee"><path data-cppathid="10007" d="m66.919 33.04-8.668 8.685v-1.174l7.511-7.511z"/><path data-cppathid="10008" d="m69.561 33.04v.863l-10.101 10.101h-1.209v-1.019l9.946-9.945z"/></g><path data-cppathid="10009" fill="#69b0ee" d="m42.114 33.04h11.31v10.964h-11.31z"/><g opacity=".5" fill="#eeefee"><path data-cppathid="10010" d="m50.782 33.04-8.668 8.685v-1.174l7.511-7.511z"/><path data-cppathid="10011" d="m53.423 33.04v.863l-10.1 10.101h-1.209v-1.019l9.945-9.945z"/></g><path data-cppathid="10012" fill="#69b0ee" d="m74.389 48.94h11.31v10.964h-11.31z"/><g opacity=".5" fill="#eeefee"><path data-cppathid="10013" d="m83.057 48.94-8.668 8.685v-1.174l7.511-7.511z"/><path data-cppathid="10014" d="m85.698 48.94v.863l-10.101 10.101h-1.208v-1.018l9.945-9.946z"/></g><path data-cppathid="10015" fill="#69b0ee" d="m58.251 48.94h11.31v10.964h-11.31z"/><g opacity=".5" fill="#eeefee"><path data-cppathid="10016" d="m66.919 48.94-8.668 8.685v-1.174l7.511-7.511z"/><path data-cppathid="10017" d="m69.561 48.94v.863l-10.101 10.101h-1.209v-1.018l9.946-9.946z"/></g><path data-cppathid="10018" fill="#69b0ee" d="m42.114 48.94h11.31v10.964h-11.31z"/><g opacity=".5" fill="#eeefee"><path data-cppathid="10019" d="m50.782 48.94-8.668 8.685v-1.174l7.511-7.511z"/><path data-cppathid="10020" d="m53.423 48.94v.863l-10.1 10.101h-1.209v-1.018l9.945-9.946z"/></g><path data-cppathid="10021" fill="#69b0ee" d="m74.389 65.844h11.31v10.964h-11.31z"/><g opacity=".5" fill="#eeefee"><path data-cppathid="10022" d="m83.057 65.844-8.668 8.685v-1.174l7.511-7.511z"/><path data-cppathid="10023" d="m85.698 65.844v.863l-10.101 10.101h-1.208v-1.018l9.945-9.946z"/></g><path data-cppathid="10024" fill="#69b0ee" d="m58.251 65.844h11.31v10.964h-11.31z"/><g opacity=".5" fill="#eeefee"><path data-cppathid="10025" d="m66.919 65.844-8.668 8.685v-1.174l7.511-7.511z"/><path data-cppathid="10026" d="m69.561 65.844v.863l-10.101 10.101h-1.209v-1.018l9.946-9.946z"/></g><path data-cppathid="10027" fill="#69b0ee" d="m42.114 65.844h11.31v10.964h-11.31z"/><g opacity=".5" fill="#eeefee"><path data-cppathid="10028" d="m50.782 65.844-8.668 8.685v-1.174l7.511-7.511z"/><path data-cppathid="10029" d="m53.423 65.844v.863l-10.1 10.101h-1.209v-1.018l9.945-9.946z"/></g><path data-cppathid="10030" fill="#575b6d" d="m49.834 84.404h28.141v18.498h-28.141z"/><path data-cppathid="10031" fill="#62667c" d="m33.729 100.804h60.543v4.196h-60.543z"/><path data-cppathid="10032" fill="#eeefee" d="m62.097 83.914h3.614v16.89h-3.614z"/></g></svg>