<?xml version="1.0" encoding="UTF-8"?>
<svg xmlns="http://www.w3.org/2000/svg" onmouseup="{ if(window.parent.document.onmouseup) window.parent.document.onmouseup(arguments[0]);}" width="512" viewBox="0 0 64 64" height="512"><g id="Certificate"><path data-cppathid="10000" fill="#4370ff" d="m10 38h-6a2 2 0 0 1 -2-2v-32a2 2 0 0 1 2-2h48a2 2 0 0 1 2 2v16h-42a2 2 0 0 0 -2 2z"/><path data-cppathid="10001" fill="#4370ff" d="m56.732 43.426a2.5 2.5 0 0 1 -.551-1.7 2.51 2.51 0 0 0 -1.85-2.546 2.506 2.506 0 0 1 -1.445-1.05 2.509 2.509 0 0 0 -2.993-.972 2.51 2.51 0 0 1 -1.786 0 2.509 2.509 0 0 0 -2.993.972 2.506 2.506 0 0 1 -1.445 1.05 2.51 2.51 0 0 0 -1.85 2.546 2.5 2.5 0 0 1 -.551 1.7 2.508 2.508 0 0 0 0 3.147 2.508 2.508 0 0 1 .551 1.7c-.082 1.659 1.058 2.187 2.181 2.669v11.058l5-2.495 5 2.495v-11.059c1.164-.5 2.265-.97 2.181-2.669a2.508 2.508 0 0 1 .551-1.7 2.508 2.508 0 0 0 0-3.146z"/><g fill="none"><path data-cppathid="10002" d="m55.182 41.678a1.518 1.518 0 0 0 -1.113-1.531 3.512 3.512 0 0 1 -2.02-1.467 1.516 1.516 0 0 0 -1.8-.586 3.5 3.5 0 0 1 -2.5 0 1.514 1.514 0 0 0 -1.8.585 3.515 3.515 0 0 1 -2.021 1.468 1.518 1.518 0 0 0 -1.113 1.531 3.5 3.5 0 0 1 -.772 2.376 1.52 1.52 0 0 0 0 1.893 3.5 3.5 0 0 1 .772 2.375c-.095 1.921 1.851 1.039 3.133 3a1.516 1.516 0 0 0 1.8.586 3.5 3.5 0 0 1 2.5 0 1.516 1.516 0 0 0 1.8-.585c1.247-1.905 3.226-1.134 3.134-3a3.5 3.5 0 0 1 .772-2.376 1.52 1.52 0 0 0 0-1.893 3.5 3.5 0 0 1 -.772-2.376zm-6.182 8.322a5 5 0 1 1 5-5 5.006 5.006 0 0 1 -5 5z"/><path data-cppathid="10003" d="m49.537 53.775a1.506 1.506 0 0 0 -1.074 0 3.524 3.524 0 0 1 -3.463-.575v7.179l3.554-1.773a1.006 1.006 0 0 1 .892 0l3.554 1.777v-7.191a3.485 3.485 0 0 1 -3.463.583z"/><circle data-cppathid="10004" r="3" cy="45" cx="49"/><path data-cppathid="10005" d="m49 19v-8.1a5.013 5.013 0 0 1 -3.9-3.9h-29.1v-2h30a1 1 0 0 1 1 1 3 3 0 0 0 3 3 1 1 0 0 1 1 1v9h2v-15a1 1 0 0 0 -1-1h-48a1 1 0 0 0 -1 1v32a1 1 0 0 0 1 1h5v-3a3 3 0 0 0 -3-3 1 1 0 0 1 -1-1v-20a1 1 0 0 1 1-1 3 3 0 0 0 3-3 1 1 0 0 1 1-1h4v2h-3.1a5.013 5.013 0 0 1 -3.9 3.9v18.2a4.95 4.95 0 0 1 2 .923v-8.023a3 3 0 0 1 3-3zm-17-2h-8v-2h8zm-13-8h18v2h-18z"/></g><path data-cppathid="10006" d="m57.511 47.2a3.531 3.531 0 0 0 0-4.4 1.505 1.505 0 0 1 -.332-1.02 3.528 3.528 0 0 0 -2.587-3.561 1.512 1.512 0 0 1 -.869-.631 3.528 3.528 0 0 0 -4.186-1.361 1.506 1.506 0 0 1 -1.074 0 3.529 3.529 0 0 0 -4.186 1.36 1.509 1.509 0 0 1 -.869.632 3.528 3.528 0 0 0 -2.587 3.561 1.51 1.51 0 0 1 -.332 1.021 3.531 3.531 0 0 0 0 4.4 1.505 1.505 0 0 1 .332 1.02 3.524 3.524 0 0 0 2.179 3.411v10.368a1 1 0 0 0 1.446.895l4.554-2.273 4.554 2.272a1 1 0 0 0 1.446-.894v-10.368a3.524 3.524 0 0 0 2.179-3.411 1.51 1.51 0 0 1 .332-1.021zm-4.511 13.182-3.554-1.773a1.006 1.006 0 0 0 -.892 0l-3.554 1.773v-7.182a3.524 3.524 0 0 0 3.463.571 1.506 1.506 0 0 1 1.074 0 3.484 3.484 0 0 0 3.463-.58zm2.954-14.437a3.5 3.5 0 0 0 -.772 2.376c.095 1.922-1.85 1.037-3.134 3a1.516 1.516 0 0 1 -1.8.585 3.5 3.5 0 0 0 -2.5 0 1.516 1.516 0 0 1 -1.8-.586c-1.251-1.911-3.225-1.128-3.133-3a3.5 3.5 0 0 0 -.772-2.375 1.52 1.52 0 0 1 0-1.893 3.5 3.5 0 0 0 .772-2.376 1.518 1.518 0 0 1 1.113-1.531 3.515 3.515 0 0 0 2.021-1.468 1.514 1.514 0 0 1 1.8-.585 3.5 3.5 0 0 0 2.5 0 1.516 1.516 0 0 1 1.8.586 3.512 3.512 0 0 0 2.02 1.467 1.518 1.518 0 0 1 1.113 1.531 3.5 3.5 0 0 0 .772 2.375 1.52 1.52 0 0 1 0 1.894z"/><path data-cppathid="10007" d="m49 40a5 5 0 1 0 5 5 5.006 5.006 0 0 0 -5-5zm0 8a3 3 0 1 1 3-3 3 3 0 0 1 -3 3z"/><path data-cppathid="10008" d="m60 19h-3v2h3a1 1 0 0 1 1 1v32a1 1 0 0 1 -1 1h-3v2h3a3 3 0 0 0 3-3v-32a3 3 0 0 0 -3-3z"/><path data-cppathid="10009" d="m11 54v-32a1 1 0 0 1 1-1h43v-17a3 3 0 0 0 -3-3h-48a3 3 0 0 0 -3 3v32a3 3 0 0 0 3 3h5v15a3 3 0 0 0 3 3h29v-2h-29a1 1 0 0 1 -1-1zm-2-32v8.024a4.95 4.95 0 0 0 -2-.924v-18.2a5.013 5.013 0 0 0 3.9-3.9h3.1v-2h-4a1 1 0 0 0 -1 1 3 3 0 0 1 -3 3 1 1 0 0 0 -1 1v20a1 1 0 0 0 1 1 3 3 0 0 1 3 3v3h-5a1 1 0 0 1 -1-1v-32a1 1 0 0 1 1-1h48a1 1 0 0 1 1 1v15h-2v-9a1 1 0 0 0 -1-1 3 3 0 0 1 -3-3 1 1 0 0 0 -1-1h-30v2h29.1a5.013 5.013 0 0 0 3.9 3.9v8.1h-37a3 3 0 0 0 -3 3z"/><path data-cppathid="10010" d="m15 47.1v-18.2a5.013 5.013 0 0 0 3.9-3.9h34.2a5.013 5.013 0 0 0 3.9 3.9v9.1h2v-10a1 1 0 0 0 -1-1 3 3 0 0 1 -3-3c0-1.923-1.314-.568-37-1a1 1 0 0 0 -1 1 3 3 0 0 1 -3 3 1 1 0 0 0 -1 1v20a1 1 0 0 0 1 1 3 3 0 0 1 3 3 1 1 0 0 0 1 1h23v-2h-22.1a5.013 5.013 0 0 0 -3.9-3.9z"/><path data-cppathid="10011" d="m27 27h18v2h-18z"/><path data-cppathid="10012" d="m19 9h18v2h-18z"/><path data-cppathid="10013" d="m32 33h9v2h-9z"/><path data-cppathid="10014" d="m24 15h8v2h-8z"/><path data-cppathid="10015" d="m24 37h17v2h-17z"/><path data-cppathid="10016" d="m20 37h2v2h-2z"/><path data-cppathid="10017" d="m20 41h18v2h-18z"/><path data-cppathid="10018" d="m36 45h2v2h-2z"/><path data-cppathid="10019" d="m20 45h14v2h-14z"/><path data-cppathid="10020" d="m58 5h2v2h-2z"/><path data-cppathid="10021" d="m58 9h2v2h-2z"/><path data-cppathid="10022" d="m58 13h2v2h-2z"/><path data-cppathid="10023" d="m4 49h2v2h-2z"/><path data-cppathid="10024" d="m4 53h2v2h-2z"/><path data-cppathid="10025" d="m4 57h2v2h-2z"/></g></svg>