<?xml version="1.0" encoding="UTF-8"?>
<svg xmlns="http://www.w3.org/2000/svg" onmouseup="{ if(window.parent.document.onmouseup) window.parent.document.onmouseup(arguments[0]);}" width="512" viewBox="0 0 16.933333 16.933334" height="512" id="svg9960" xmlns:svg="http://www.w3.org/2000/svg"><g transform="translate(0 -280.067)" id="layer1"><path data-cppathid="10000" vector-effect="none" solid-opacity="1" solid-color="#000000" mix-blend-mode="normal" isolation="auto" shape-padding="0" white-space="normal" text-orientation="mixed" text-transform="none" text-decoration-color="#000000" text-decoration-style="solid" text-decoration-line="none" text-align="start" text-indent="0" font-feature-settings="normal" font-variant-alternates="normal" font-variant-numeric="normal" font-variant-caps="normal" font-variant-position="normal" font-variant-ligatures="normal" fill="#dbe9ee" d="m1.8531148 280.59632c-.4351602 0-.7953004.35807-.7953004.79324v14.28698c0 .43516.3601402.79478.7953004.79478h10.0526162c.43516 0 .794782-.35962.794782-.79478v-12.69897a.26460982.26460982 0 0 0 -.07803-.18758l-2.117183-2.11719a.26460982.26460982 0 0 0 -.185518-.0765z" id="path18891"/><path data-cppathid="10001" vector-effect="none" solid-opacity="1" solid-color="#000000" mix-blend-mode="normal" isolation="auto" shape-padding="0" white-space="normal" text-orientation="mixed" text-transform="none" text-decoration-color="#000000" text-decoration-style="solid" text-decoration-line="none" text-align="start" text-indent="0" font-feature-settings="normal" font-variant-alternates="normal" font-variant-numeric="normal" font-variant-caps="normal" font-variant-position="normal" font-variant-ligatures="normal" fill="#c8d4d9" d="m10.054164 280.59632v1.85157c0 .43516.357555.79323.792715.79323h1.853634v-.26355a.26460982.26460982 0 0 0 -.07803-.18758l-2.117183-2.11719a.26460982.26460982 0 0 0 -.185518-.0765z" id="path18898"/><path data-cppathid="10002" vector-effect="none" solid-opacity="1" solid-color="#000000" mix-blend-mode="normal" isolation="auto" shape-padding="0" white-space="normal" text-orientation="mixed" text-transform="none" text-decoration-color="#000000" text-decoration-style="solid" text-decoration-line="none" text-align="start" text-indent="0" font-feature-settings="normal" font-variant-alternates="normal" font-variant-numeric="normal" font-variant-caps="normal" font-variant-position="normal" font-variant-ligatures="normal" fill="#ff6b6b" d="m10.054028 295.14724v1.05859c-.000556.14694.11869.26619.26563.26563h4.76172c.14617-.00053.26423-.11946.26367-.26563v-1.05859z" id="path18942"/><path data-cppathid="10003" vector-effect="none" solid-opacity="1" solid-color="#000000" mix-blend-mode="normal" isolation="auto" shape-padding="0" white-space="normal" text-orientation="mixed" text-transform="none" text-decoration-color="#000000" text-decoration-style="solid" text-decoration-line="none" text-align="start" text-indent="0" font-feature-settings="normal" font-variant-alternates="normal" font-variant-numeric="normal" font-variant-caps="normal" font-variant-position="normal" font-variant-ligatures="normal" fill="#6f584b" d="m12.700518 286.94607c-.72832 0-1.32422.59394-1.32422 1.32226 0 .32338.0908 1.21766.20117 2.27734.11039 1.05969.33008 3.04297.33008 3.04297h1.58398s.22114-1.98321.33203-3.04297c.1109-1.05976.2017-1.95125.19922-2.27929-.005-.72607-.59394-1.32031-1.32226-1.32031z" id="path18934"/><path data-cppathid="10004" vector-effect="none" solid-opacity="1" solid-color="#000000" mix-blend-mode="normal" isolation="auto" shape-padding="0" white-space="normal" text-orientation="mixed" text-transform="none" text-decoration-color="#000000" text-decoration-style="solid" text-decoration-line="none" text-align="start" text-indent="0" font-feature-settings="normal" font-variant-alternates="normal" font-variant-numeric="normal" font-variant-caps="normal" font-variant-position="normal" font-variant-ligatures="normal" fill="#655045" d="m12.700518 293.29567c-1.92768 0-3.0703098.84766-3.0703098.84766a.26460982.26460982 0 0 0 -.10547.21094v.79297a.26460982.26460982 0 0 0 .26562.26562h5.8203098a.26460982.26460982 0 0 0 .26368-.26562v-.79297a.26460982.26460982 0 0 0 -.10547-.21094s-1.14069-.84766-3.06836-.84766z" id="path18938"/><g fill="#33658a"><path data-cppathid="10005" vector-effect="none" solid-opacity="1" solid-color="#000000" mix-blend-mode="normal" isolation="auto" shape-padding="0" white-space="normal" text-orientation="mixed" text-transform="none" text-decoration-color="#000000" text-decoration-style="solid" text-decoration-line="none" text-align="start" text-indent="0" font-feature-settings="normal" font-variant-alternates="normal" font-variant-numeric="normal" font-variant-caps="normal" font-variant-position="normal" font-variant-ligatures="normal" d="m8.9954482 289.59255h1.0585898c.35286 0 .35286-.5293 0-.5293h-1.0712898c-.36555.017-.34015.54625.0127.5293z" id="path19398-6-1"/><path data-cppathid="10006" vector-effect="none" solid-opacity="1" solid-color="#000000" mix-blend-mode="normal" isolation="auto" shape-padding="0" white-space="normal" text-orientation="mixed" text-transform="none" text-decoration-color="#000000" text-decoration-style="solid" text-decoration-line="none" text-align="start" text-indent="0" font-feature-settings="normal" font-variant-alternates="normal" font-variant-numeric="normal" font-variant-caps="normal" font-variant-position="normal" font-variant-ligatures="normal" d="m2.9095082 289.59255h5.0273501c.3528599 0 .3528599-.5293 0-.5293h-5.0400501c-.3655499.017-.3401499.54625.0127.5293z" id="path19400-3-1"/><path data-cppathid="10007" vector-effect="none" solid-opacity="1" solid-color="#000000" mix-blend-mode="normal" isolation="auto" shape-padding="0" white-space="normal" text-orientation="mixed" text-transform="none" text-decoration-color="#000000" text-decoration-style="solid" text-decoration-line="none" text-align="start" text-indent="0" font-feature-settings="normal" font-variant-alternates="normal" font-variant-numeric="normal" font-variant-caps="normal" font-variant-position="normal" font-variant-ligatures="normal" d="m2.9095082 288.00466h7.1445298c.35286 0 .35286-.5293 0-.5293h-7.1572298c-.3655499.017-.3401499.54625.0127.5293z" id="path19402-9-4"/><path data-cppathid="10008" vector-effect="none" solid-opacity="1" solid-color="#000000" mix-blend-mode="normal" isolation="auto" shape-padding="0" white-space="normal" text-orientation="mixed" text-transform="none" text-decoration-color="#000000" text-decoration-style="solid" text-decoration-line="none" text-align="start" text-indent="0" font-feature-settings="normal" font-variant-alternates="normal" font-variant-numeric="normal" font-variant-caps="normal" font-variant-position="normal" font-variant-ligatures="normal" d="m4.9602884 286.41677h5.8867196c.35286 0 .35286-.5293 0-.5293h-5.8994196c-.36555.017-.34015.54625.0127.5293z" id="path19404-3-7"/><path data-cppathid="10009" vector-effect="none" solid-opacity="1" solid-color="#000000" mix-blend-mode="normal" isolation="auto" shape-padding="0" white-space="normal" text-orientation="mixed" text-transform="none" text-decoration-color="#000000" text-decoration-style="solid" text-decoration-line="none" text-align="start" text-indent="0" font-feature-settings="normal" font-variant-alternates="normal" font-variant-numeric="normal" font-variant-caps="normal" font-variant-position="normal" font-variant-ligatures="normal" d="m2.9095082 286.41677h1.0586001c.3528599 0 .3528599-.5293 0-.5293h-1.0713001c-.3655499.017-.3401499.54625.0127.5293z" id="path19406-0-9"/><path data-cppathid="10010" vector-effect="none" solid-opacity="1" solid-color="#000000" mix-blend-mode="normal" isolation="auto" shape-padding="0" white-space="normal" text-orientation="mixed" text-transform="none" text-decoration-color="#000000" text-decoration-style="solid" text-decoration-line="none" text-align="start" text-indent="0" font-feature-settings="normal" font-variant-alternates="normal" font-variant-numeric="normal" font-variant-caps="normal" font-variant-position="normal" font-variant-ligatures="normal" d="m2.9094984 284.29958c-.3528601 0-.3528601.5293 0 .5293h7.9374996c.35286 0 .35286-.5293 0-.5293z" id="path19408-8-0"/><path data-cppathid="10011" vector-effect="none" solid-opacity="1" solid-color="#000000" mix-blend-mode="normal" isolation="auto" shape-padding="0" white-space="normal" text-orientation="mixed" text-transform="none" text-decoration-color="#000000" text-decoration-style="solid" text-decoration-line="none" text-align="start" text-indent="0" font-feature-settings="normal" font-variant-alternates="normal" font-variant-numeric="normal" font-variant-caps="normal" font-variant-position="normal" font-variant-ligatures="normal" d="m4.7298082 282.71169c-.3528599 0-.3528599.5293 0 .5293h4.00196c.35286 0 .35286-.5293 0-.5293z" id="path19410-3-75"/></g><path data-cppathid="10012" vector-effect="none" solid-opacity="1" solid-color="#000000" mix-blend-mode="normal" isolation="auto" shape-padding="0" white-space="normal" text-orientation="mixed" text-transform="none" text-decoration-color="#000000" text-decoration-style="solid" text-decoration-line="none" text-align="start" text-indent="0" font-feature-settings="normal" font-variant-alternates="normal" font-variant-numeric="normal" font-variant-caps="normal" font-variant-position="normal" font-variant-ligatures="normal" fill="#ff6b6b" d="m3.4387984 292.23708a.26460982.26460982 0 0 0 -.2636699.26563v1.58593a.26460982.26460982 0 0 0 .2636699.26563h4.7636698a.26460982.26460982 0 0 0 .26367-.26563v-1.58593a.26460982.26460982 0 0 0 -.26367-.26563z" id="path8199"/><path data-cppathid="10013" vector-effect="none" solid-opacity="1" solid-color="#000000" mix-blend-mode="normal" isolation="auto" shape-padding="0" white-space="normal" text-orientation="mixed" text-transform="none" text-decoration-color="#000000" text-decoration-style="solid" text-decoration-line="none" text-align="start" text-indent="0" font-feature-settings="normal" font-variant-alternates="normal" font-variant-numeric="normal" font-variant-caps="normal" font-variant-position="normal" font-variant-ligatures="normal" fill="#33658a" d="m2.9094984 290.64919c-.3528601 0-.3528601.5293 0 .5293h7.1445296c.35286 0 .35286-.5293 0-.5293z" id="path7824-1"/></g></svg>