<?xml version="1.0" encoding="UTF-8"?>
<svg xmlns="http://www.w3.org/2000/svg" onmouseup="{ if(window.parent.document.onmouseup) window.parent.document.onmouseup(arguments[0]);}" width="512" viewBox="0 0 510.042 510.042" height="512" enable-background="new 0 0 510.042 510.042" id="Capa_1"><g><path data-cppathid="10000" fill="#4d578c" d="m382.021 435.72v59.28c0 8.28-6.72 15-15 15h-352c-8.28 0-15-6.72-15-15v-59.28c0-66.701 52.893-121.216 119-123.63 1.57-.06 5.68 4.4 7.26 4.4 67.619 8.843 48.189 6.303 82.55 10.79l38.19-15.48c18.395.326 36.775-.328 62.16 11.11 2.63 1.19 4.87 3.11 6.44 5.54 69.375 107.456 66.4 101.061 66.4 107.27z"/><path data-cppathid="10001" fill="#333e73" d="m382.021 435.72v59.28c0 8.28-6.72 15-15 15h-184v-186.09l25.81 3.37 38.19-15.48c18.395.326 36.775-.328 62.16 11.11 2.63 1.19 4.87 3.11 6.44 5.54 69.375 107.456 66.4 101.061 66.4 107.27z"/><path data-cppathid="10002" fill="#fc9" d="m238.021 275.76v51.24c0 3.13-.98 6.17-2.79 8.72l-40 56c-5.986 8.369-18.428 8.377-24.42 0l-40-56c-1.81-2.55-2.79-5.59-2.79-8.72v-51.24c0-8.28 6.72-15 15-15h80c8.28 0 15 6.72 15 15z"/><path data-cppathid="10003" fill="#ffaa80" d="m238.021 275.76v51.24c0 3.13-.98 6.17-2.79 8.72l-40 56c-2.99 4.18-7.6 6.28-12.21 6.28v-137.24h40c8.28 0 15 6.72 15 15z"/><path data-cppathid="10004" fill="#eef4ff" d="m247.021 311.8v75.87l-49 93.91-15-17.41.01-2.39c-.1.1.169-.226-15.01 19.8l-49-93.91v-75.58c3.03-.25 6.04-.11 9-.17.101 0 43.25 55.896 55 71.08 11.814-15.279 2.327-3.004 55-71.17 2.96 0 5.96-.02 9-.03z"/><path data-cppathid="10005" fill="#d9e6fc" d="m247.021 311.8v75.87l-49 93.91-15-17.41v-81.17c11.814-15.279 2.327-3.004 55-71.17 2.96 0 5.96-.02 9-.03z"/><path data-cppathid="10006" fill="#ffe6cc" d="m262.461 262.59c-43.909 53.057-115.713 52.142-158.88 0-42.12-50.89-42.1-132.31 0-183.18 43.909-53.057 115.713-52.142 158.88 0 42.12 50.89 42.1 132.31 0 183.18z"/><path data-cppathid="10007" fill="#fc9" d="m262.461 262.59c-21.79 26.33-50.62 39.46-79.44 39.45v-262.08c28.85.01 57.7 13.19 79.44 39.45 42.12 50.89 42.1 132.31 0 183.18z"/><path data-cppathid="10008" fill="#ffe14d" d="m259.431 75.9c-33.151 70.062-116.856 97.735-184.37 64.44 18.646-91.868 110.913-129.92 173.95-74.76 6.218 5.441 9.997 9.897 10.42 10.32z"/><path data-cppathid="10009" fill="#fb3" d="m259.431 75.9c-15.25 32.23-42.71 57.56-76.41 70.01v-105.95c23.446 0 45.62 8.658 63.81 23.76 7.141 5.87 12.24 11.82 12.6 12.18z"/><path data-cppathid="10010" fill="#333e73" d="m198.021 383v98.58l-14.83 28.42c-.511 0 .802 2.188-15.17-28.42v-98.58c0-4.83 2.28-9.12 5.83-11.86 2.87 3.71 5.92 7.66 9.17 11.86l9.17-11.86c3.55 2.74 5.83 7.03 5.83 11.86z"/><path data-cppathid="10011" fill="#1f2859" d="m198.021 383v98.58l-14.83 28.42c-.264 0-.17 6.057-.17-127l9.17-11.86c3.55 2.74 5.83 7.03 5.83 11.86z"/><path data-cppathid="10012" fill="#ff5b5b" d="m510.021 239v271h-70.51v-271c0-8.28 6.72-15 15-15h40.51c8.28 0 15 6.72 15 15z"/><path data-cppathid="10013" fill="#e50058" d="m510.021 239v271h-35.26v-286h20.26c8.28 0 15 6.72 15 15z"/><path data-cppathid="10014" fill="#ffe14d" d="m439.511 256v254h-72.51v-239c0-8.28 6.71-15 15-15z"/><path data-cppathid="10015" fill="#fb3" d="m403.251 256h36.26v254h-36.26z"/><path data-cppathid="10016" fill="#97de3d" d="m367.001 288v222h-72.96v-207c0-8.28 6.72-15 15-15z"/><path data-cppathid="10017" fill="#59c36a" d="m330.521 288h36.48v222h-36.48z"/><circle data-cppathid="10018" r="95" fill="#ffe14d" cy="95" cx="415.021"/><path data-cppathid="10019" fill="#fb3" d="m510.021 95c0 52.38-42.62 95-95 95v-190c52.38 0 95 42.62 95 95z"/><path data-cppathid="10020" fill="#fb3" d="m415.021 65c-16.54 0-30 13.46-30 30s13.46 30 30 30 30-13.46 30-30-13.46-30-30-30z"/><path data-cppathid="10021" fill="#e68a2e" d="m445.021 95c0 16.54-13.46 30-30 30v-60c16.54 0 30 13.46 30 30z"/></g></svg>