<?xml version="1.0" encoding="UTF-8"?>
<svg xmlns="http://www.w3.org/2000/svg" onmouseup="{ if(window.parent.document.onmouseup) window.parent.document.onmouseup(arguments[0]);}" xml:space="preserve" style="enable-background:new 0 0 512 512;" viewBox="0 0 512 512" y="0px" x="0px" id="Capa_1" version="1.1" xmlns:xlink="http://www.w3.org/1999/xlink"><g><g><g><path data-cppathid="10000" d="M464,380.344v-64H272v-48h112V96.984l41.376,18.816l13.248-29.12L256,3.656L73.376,86.68l13.248,29.12L128,96.984v171.36     h112v48H48v64H0v128h128v-128H80v-32h160v32h-48v128h128v-128h-48v-32h160v32h-48v128h128v-128H464z M96,412.344v64H32v-64H96z      M192,236.344h-32V82.44l96-43.632l96,43.632v153.904h-32v-112H192V236.344z M288,412.344v64h-64v-64H288z M224,236.344v-80h64     v80H224z M480,476.344h-64v-64h64V476.344z"/><rect data-cppathid="10001" height="32" width="32" y="60.344" x="240"/></g></g></g><g/><g/><g/><g/><g/><g/><g/><g/><g/><g/><g/><g/><g/><g/><g/></svg>