<?xml version="1.0" encoding="UTF-8"?>
<svg xmlns="http://www.w3.org/2000/svg" onmouseup="{ if(window.parent.document.onmouseup) window.parent.document.onmouseup(arguments[0]);}" xml:space="preserve" style="enable-background:new 0 0 512 512;" viewBox="0 0 512 512" y="0px" x="0px" id="Capa_1" version="1.1" xmlns:xlink="http://www.w3.org/1999/xlink"><rect data-cppathid="10000" height="248.37" width="39.06" style="fill:#FEC93E;" y="192.05" x="184.14"/><g><path data-cppathid="10001" d="M229.895,232.607h-52.449c-3.866,0-7-3.134-7-7v-23.774h66.449v23.774   C236.896,229.473,233.762,232.607,229.895,232.607z" style="fill:#F7A738;"/><path data-cppathid="10002" d="M236.896,431.203h-66.449v-23.774c0-3.866,3.134-7,7-7h52.449c3.866,0,7,3.134,7,7V431.203z" style="fill:#F7A738;"/></g><rect data-cppathid="10003" height="248.37" width="39.06" style="fill:#FEC93E;" y="192.05" x="288.8"/><g><path data-cppathid="10004" d="M334.554,232.607h-52.449c-3.866,0-7-3.134-7-7v-23.774h66.449v23.774   C341.554,229.473,338.42,232.607,334.554,232.607z" style="fill:#F7A738;"/><path data-cppathid="10005" d="M341.554,431.203h-66.449v-23.774c0-3.866,3.134-7,7-7h52.449c3.866,0,7,3.134,7,7V431.203z" style="fill:#F7A738;"/></g><rect data-cppathid="10006" height="248.37" width="39.06" style="fill:#FEC93E;" y="192.05" x="393.46"/><g><path data-cppathid="10007" d="M439.212,232.607h-52.449c-3.866,0-7-3.134-7-7v-23.774h66.449v23.774   C446.212,229.473,443.078,232.607,439.212,232.607z" style="fill:#F7A738;"/><path data-cppathid="10008" d="M446.212,431.203h-66.449v-23.774c0-3.866,3.134-7,7-7h52.449c3.866,0,7,3.134,7,7V431.203z" style="fill:#F7A738;"/></g><rect data-cppathid="10009" height="248.37" width="39.06" style="fill:#FEC93E;" y="192.05" x="79.48"/><g><path data-cppathid="10010" d="M125.237,232.607H72.788c-3.866,0-7-3.134-7-7v-23.774h66.449v23.774   C132.238,229.473,129.103,232.607,125.237,232.607z" style="fill:#F7A738;"/><path data-cppathid="10011" d="M132.238,431.203h-66.45v-23.774c0-3.866,3.134-7,7-7h52.449c3.866,0,7,3.134,7,7v23.774H132.238z" style="fill:#F7A738;"/></g><path data-cppathid="10012" d="M474.497,201.833H37.503c-3.78,0-6.844-3.064-6.844-6.844v-29.233c0-3.78,3.064-6.844,6.844-6.844  h436.994c3.78,0,6.844,3.064,6.844,6.844v29.233C481.34,198.769,478.276,201.833,474.497,201.833z" style="fill:#FEC93E;"/><path data-cppathid="10013" d="M474.497,158.912h-47.238v42.92h47.238c3.78,0,6.844-3.064,6.844-6.844v-29.233  C481.34,161.976,478.276,158.912,474.497,158.912z" style="fill:#EFB635;"/><path data-cppathid="10014" d="M485.6,475.997H26.399v-34.329c0-5.78,4.685-10.465,10.465-10.465h438.27  c5.78,0,10.465,4.685,10.465,10.465v34.329H485.6z" style="fill:#FEC93E;"/><path data-cppathid="10015" d="M475.135,431.203h-43.616v29.772H485.6v-19.307C485.6,435.888,480.915,431.203,475.135,431.203z" style="fill:#EFB635;"/><path data-cppathid="10016" d="M500.893,490.747H11.107c-1.986,0-3.596-1.61-3.596-3.596V471.44c0-5.78,4.685-10.465,10.465-10.465  h476.047c5.78,0,10.465,4.685,10.465,10.465v15.711C504.489,489.137,502.879,490.747,500.893,490.747z" style="fill:#F7A738;"/><path data-cppathid="10017" d="M494.023,460.975h-43.366v29.772h50.236c1.986,0,3.596-1.61,3.596-3.596V471.44  C504.489,465.66,499.803,460.975,494.023,460.975z" style="fill:#E8932E;"/><path data-cppathid="10018" d="M256.262,22.109L10.306,151.128c-1.363,0.715-2.218,2.128-2.218,3.667v13.212  c0,2.287,1.854,4.141,4.141,4.141H499.77c2.287,0,4.141-1.854,4.141-4.141V154.76c0-1.521-0.834-2.919-2.171-3.643L263.266,22.153  C261.084,20.973,258.458,20.956,256.262,22.109z" style="fill:#F7A738;"/><path data-cppathid="10019" d="M501.741,151.117L263.266,22.153c-2.182-1.18-4.807-1.196-7.003-0.044l-42.645,22.37L449.7,172.149  h50.071c2.287,0,4.141-1.854,4.141-4.141V154.76C503.912,153.239,503.078,151.841,501.741,151.117z" style="fill:#E8932E;"/><path data-cppathid="10020" d="M494.023,453.463h-0.911v-11.795c0-9.912-8.064-17.976-17.977-17.976h-21.412v-16.264c0-7.726-6.074-14.043-13.695-14.47  V240.077c7.621-0.427,13.695-6.744,13.695-14.47v-16.264h20.774c7.915,0,14.355-6.439,14.355-14.355V179.66h10.919  c6.425,0,11.653-5.228,11.653-11.652V154.76c0-4.284-2.34-8.211-6.11-10.25L333.315,51.496c-3.652-1.978-8.208-0.616-10.18,3.034  c-1.973,3.649-0.615,8.207,3.034,10.179l170.232,92.059v7.869l0,0H15.599l0,0v-7.804L259.692,28.759l35.524,19.212  c3.651,1.976,8.207,0.615,10.18-3.034c1.973-3.649,0.615-8.207-3.034-10.179l-35.525-19.213c-4.388-2.373-9.646-2.406-14.065-0.088  L6.817,144.476c-3.85,2.019-6.241,5.973-6.241,10.319v13.212c0,6.425,5.228,11.652,11.653,11.652h10.919v15.329  c0,7.915,6.439,14.355,14.355,14.355h20.774v16.264c0,7.726,6.074,14.043,13.695,14.47v99.525c0,4.149,3.363,7.511,7.511,7.511  s7.511-3.363,7.511-7.511v-99.483h24.036v152.798H86.995v-18.012c0-4.149-3.363-7.511-7.511-7.511s-7.511,3.362-7.511,7.511v18.053  c-7.621,0.427-13.695,6.744-13.695,14.47v16.264H36.865c-9.912,0-17.977,8.064-17.977,17.976v11.795h-0.911  C8.064,453.463,0,461.527,0,471.44v15.711c0,6.124,4.983,11.108,11.107,11.108h489.786c6.124,0,11.107-4.983,11.107-11.108V471.44  C512,461.527,503.936,453.463,494.023,453.463z M38.171,194.321L38.171,194.321V179.66h435.658v14.661l0,0l0,0l0,0H38.171  L38.171,194.321L38.171,194.321L38.171,194.321L38.171,194.321z M438.7,407.939L438.7,407.939v15.752h-51.426v-15.752l0,0H438.7z   M400.969,392.917V240.118h24.036v152.798L400.969,392.917L400.969,392.917z M438.7,225.096h-51.426l0,0v-15.752H438.7V225.096  L438.7,225.096z M335.37,392.958V240.077c7.621-0.427,13.695-6.744,13.695-14.47v-16.264h23.186v16.264  c0,7.726,6.074,14.043,13.695,14.47v152.881c-7.621,0.427-13.695,6.744-13.695,14.47v16.264h-23.186v-16.264  C349.065,399.702,342.991,393.385,335.37,392.958z M334.042,407.939L334.042,407.939v15.752h-51.426v-15.752l0,0H334.042z   M296.311,392.917V240.118h24.036v152.798L296.311,392.917L296.311,392.917z M334.042,225.096h-51.426l0,0v-15.752h51.426V225.096  L334.042,225.096z M230.712,392.958V240.077c7.621-0.427,13.695-6.744,13.695-14.47v-16.264h23.186v16.264  c0,7.726,6.074,14.043,13.695,14.47v152.881c-7.621,0.427-13.695,6.744-13.695,14.47v16.264h-23.186v-16.264  C244.407,399.702,238.333,393.385,230.712,392.958z M229.384,407.939L229.384,407.939v15.752h-51.426v-15.752l0,0H229.384z   M191.653,392.917V240.118h24.036v152.798L191.653,392.917L191.653,392.917z M229.384,225.096h-51.426l0,0v-15.752h51.426V225.096  L229.384,225.096z M126.054,392.958V240.077c7.621-0.427,13.695-6.744,13.695-14.47v-16.264h23.186v16.264  c0,7.726,6.074,14.043,13.695,14.47v152.881c-7.621,0.427-13.695,6.744-13.695,14.47v16.264h-23.186v-16.264  C139.749,399.702,133.675,393.385,126.054,392.958z M73.3,225.096L73.3,225.096v-15.752h51.426v15.752l0,0H73.3z M73.3,407.939  L73.3,407.939h51.426l0,0v15.752H73.3V407.939z M36.865,438.714h438.27c1.629,0,2.954,1.325,2.954,2.954v11.795H33.911v-11.795  C33.911,440.04,35.236,438.714,36.865,438.714L36.865,438.714L36.865,438.714L36.865,438.714 M496.977,483.236H15.023V471.44  c0-1.628,1.325-2.954,2.954-2.954l0,0h476.046l0,0c1.629,0,2.954,1.325,2.954,2.954V483.236z"/><g/><g/><g/><g/><g/><g/><g/><g/><g/><g/><g/><g/><g/><g/><g/></svg>